<?xml version="1.0" encoding="UTF-8" standalone="no"?>
<!DOCTYPE svg PUBLIC "-//W3C//DTD SVG 1.1//EN"
 "http://www.w3.org/Graphics/SVG/1.1/DTD/svg11.dtd">
<!-- Generated by graphviz version 2.43.0 (0)
 -->
<!-- Title: /home/fnky/C0de/component_engine/include/Actors/Animate_Actor.h Pages: 1 -->
<svg width="318pt" height="218pt"
 viewBox="0.00 0.00 318.39 218.00" xmlns="http://www.w3.org/2000/svg" xmlns:xlink="http://www.w3.org/1999/xlink">
<g id="graph0" class="graph" transform="scale(1 1) rotate(0) translate(4 214)">
<title>/home/fnky/C0de/component_engine/include/Actors/Animate_Actor.h</title>
<!-- Node1 -->
<g id="node1" class="node">
<title>Node1</title>
<g id="a_node1"><a xlink:title=" ">
<polygon fill="#bfbfbf" stroke="black" points="36.89,-168.5 36.89,-209.5 193.89,-209.5 193.89,-168.5 36.89,-168.5"/>
<text text-anchor="start" x="44.89" y="-197.5" font-family="Helvetica,sans-Serif" font-size="10.00">/home/fnky/C0de/component</text>
<text text-anchor="start" x="44.89" y="-186.5" font-family="Helvetica,sans-Serif" font-size="10.00">_engine/include/Actors</text>
<text text-anchor="middle" x="115.39" y="-175.5" font-family="Helvetica,sans-Serif" font-size="10.00">/Animate_Actor.h</text>
</a>
</g>
</g>
<!-- Node2 -->
<g id="node2" class="node">
<title>Node2</title>
<g id="a_node2"><a xlink:href="Components_2Component_8h.html" target="_top" xlink:title=" ">
<polygon fill="none" stroke="black" points="11.89,-56.5 11.89,-75.5 166.89,-75.5 166.89,-56.5 11.89,-56.5"/>
<text text-anchor="middle" x="89.39" y="-63.5" font-family="Helvetica,sans-Serif" font-size="10.00">../Components/Component.h</text>
</a>
</g>
</g>
<!-- Node1&#45;&gt;Node2 -->
<g id="edge1" class="edge">
<title>Node1&#45;&gt;Node2</title>
<path fill="none" stroke="midnightblue" d="M111.15,-168.29C106.23,-145.37 98.16,-107.85 93.36,-85.47"/>
<polygon fill="midnightblue" stroke="midnightblue" points="96.75,-84.62 91.23,-75.57 89.91,-86.09 96.75,-84.62"/>
</g>
<!-- Node3 -->
<g id="node3" class="node">
<title>Node3</title>
<g id="a_node3"><a xlink:title=" ">
<polygon fill="none" stroke="#bfbfbf" points="7.39,-0.5 7.39,-19.5 65.39,-19.5 65.39,-0.5 7.39,-0.5"/>
<text text-anchor="middle" x="36.39" y="-7.5" font-family="Helvetica,sans-Serif" font-size="10.00">memory</text>
</a>
</g>
</g>
<!-- Node1&#45;&gt;Node3 -->
<g id="edge8" class="edge">
<title>Node1&#45;&gt;Node3</title>
<path fill="none" stroke="midnightblue" d="M84.98,-168.48C57.55,-148.87 19.02,-115.9 2.39,-76 -4.84,-58.67 7.53,-39.75 19.32,-26.81"/>
<polygon fill="midnightblue" stroke="midnightblue" points="21.9,-29.18 26.41,-19.6 16.91,-24.28 21.9,-29.18"/>
</g>
<!-- Node4 -->
<g id="node4" class="node">
<title>Node4</title>
<g id="a_node4"><a xlink:href="Actor_8h.html" target="_top" xlink:title=" ">
<polygon fill="none" stroke="black" points="117.39,-112.5 117.39,-131.5 167.39,-131.5 167.39,-112.5 117.39,-112.5"/>
<text text-anchor="middle" x="142.39" y="-119.5" font-family="Helvetica,sans-Serif" font-size="10.00">Actor.h</text>
</a>
</g>
</g>
<!-- Node1&#45;&gt;Node4 -->
<g id="edge3" class="edge">
<title>Node1&#45;&gt;Node4</title>
<path fill="none" stroke="midnightblue" d="M123.49,-168.5C127.11,-159.78 131.35,-149.56 134.9,-141.02"/>
<polygon fill="midnightblue" stroke="midnightblue" points="138.19,-142.23 138.79,-131.65 131.72,-139.54 138.19,-142.23"/>
</g>
<!-- Node7 -->
<g id="node7" class="node">
<title>Node7</title>
<g id="a_node7"><a xlink:title=" ">
<polygon fill="none" stroke="#bfbfbf" points="185.89,-112.5 185.89,-131.5 262.89,-131.5 262.89,-112.5 185.89,-112.5"/>
<text text-anchor="middle" x="224.39" y="-119.5" font-family="Helvetica,sans-Serif" font-size="10.00">glm/fwd.hpp</text>
</a>
</g>
</g>
<!-- Node1&#45;&gt;Node7 -->
<g id="edge7" class="edge">
<title>Node1&#45;&gt;Node7</title>
<path fill="none" stroke="midnightblue" d="M148.09,-168.5C165.12,-158.34 185.56,-146.16 200.99,-136.95"/>
<polygon fill="midnightblue" stroke="midnightblue" points="203.08,-139.78 209.88,-131.65 199.5,-133.77 203.08,-139.78"/>
</g>
<!-- Node2&#45;&gt;Node3 -->
<g id="edge2" class="edge">
<title>Node2&#45;&gt;Node3</title>
<path fill="none" stroke="midnightblue" d="M80.63,-56.08C72.92,-48.22 61.48,-36.57 52.17,-27.08"/>
<polygon fill="midnightblue" stroke="midnightblue" points="54.48,-24.44 44.98,-19.75 49.48,-29.34 54.48,-24.44"/>
</g>
<!-- Node4&#45;&gt;Node2 -->
<g id="edge6" class="edge">
<title>Node4&#45;&gt;Node2</title>
<path fill="none" stroke="midnightblue" d="M133.63,-112.08C125.92,-104.22 114.48,-92.57 105.17,-83.08"/>
<polygon fill="midnightblue" stroke="midnightblue" points="107.48,-80.44 97.98,-75.75 102.48,-85.34 107.48,-80.44"/>
</g>
<!-- Node5 -->
<g id="node5" class="node">
<title>Node5</title>
<g id="a_node5"><a xlink:title=" ">
<polygon fill="none" stroke="#bfbfbf" points="184.89,-56.5 184.89,-75.5 231.89,-75.5 231.89,-56.5 184.89,-56.5"/>
<text text-anchor="middle" x="208.39" y="-63.5" font-family="Helvetica,sans-Serif" font-size="10.00">vector</text>
</a>
</g>
</g>
<!-- Node4&#45;&gt;Node5 -->
<g id="edge4" class="edge">
<title>Node4&#45;&gt;Node5</title>
<path fill="none" stroke="midnightblue" d="M152.99,-112.32C162.84,-104.26 177.74,-92.08 189.6,-82.37"/>
<polygon fill="midnightblue" stroke="midnightblue" points="192.07,-84.88 197.59,-75.83 187.63,-79.46 192.07,-84.88"/>
</g>
<!-- Node6 -->
<g id="node6" class="node">
<title>Node6</title>
<g id="a_node6"><a xlink:title=" ">
<polygon fill="none" stroke="#bfbfbf" points="250.39,-56.5 250.39,-75.5 310.39,-75.5 310.39,-56.5 250.39,-56.5"/>
<text text-anchor="middle" x="280.39" y="-63.5" font-family="Helvetica,sans-Serif" font-size="10.00">iostream</text>
</a>
</g>
</g>
<!-- Node4&#45;&gt;Node6 -->
<g id="edge5" class="edge">
<title>Node4&#45;&gt;Node6</title>
<path fill="none" stroke="midnightblue" d="M164.25,-112.44C187.17,-103.48 223.36,-89.31 249.25,-79.18"/>
<polygon fill="midnightblue" stroke="midnightblue" points="250.59,-82.42 258.62,-75.52 248.03,-75.9 250.59,-82.42"/>
</g>
</g>
</svg>
