<?xml version="1.0" encoding="UTF-8" standalone="no"?>
<!DOCTYPE svg PUBLIC "-//W3C//DTD SVG 1.1//EN"
 "http://www.w3.org/Graphics/SVG/1.1/DTD/svg11.dtd">
<!-- Generated by graphviz version 2.43.0 (0)
 -->
<!-- Title: /home/fnky/C0de/component_engine/src/BStateMachine/BState.cpp Pages: 1 -->
<svg width="165pt" height="173pt"
 viewBox="0.00 0.00 165.00 173.00" xmlns="http://www.w3.org/2000/svg" xmlns:xlink="http://www.w3.org/1999/xlink">
<g id="graph0" class="graph" transform="scale(1 1) rotate(0) translate(4 169)">
<title>/home/fnky/C0de/component_engine/src/BStateMachine/BState.cpp</title>
<!-- Node1 -->
<g id="node1" class="node">
<title>Node1</title>
<g id="a_node1"><a xlink:title=" ">
<polygon fill="#bfbfbf" stroke="black" points="0,-123.5 0,-164.5 157,-164.5 157,-123.5 0,-123.5"/>
<text text-anchor="start" x="8" y="-152.5" font-family="Helvetica,sans-Serif" font-size="10.00">/home/fnky/C0de/component</text>
<text text-anchor="start" x="8" y="-141.5" font-family="Helvetica,sans-Serif" font-size="10.00">_engine/src/BStateMachine</text>
<text text-anchor="middle" x="78.5" y="-130.5" font-family="Helvetica,sans-Serif" font-size="10.00">/BState.cpp</text>
</a>
</g>
</g>
<!-- Node2 -->
<g id="node2" class="node">
<title>Node2</title>
<g id="a_node2"><a xlink:href="BState_8h.html" target="_top" xlink:title=" ">
<polygon fill="none" stroke="black" points="5.5,-56.5 5.5,-86.5 151.5,-86.5 151.5,-56.5 5.5,-56.5"/>
<text text-anchor="start" x="13.5" y="-74.5" font-family="Helvetica,sans-Serif" font-size="10.00">../../include/BStateMachine</text>
<text text-anchor="middle" x="78.5" y="-63.5" font-family="Helvetica,sans-Serif" font-size="10.00">/BState.h</text>
</a>
</g>
</g>
<!-- Node1&#45;&gt;Node2 -->
<g id="edge1" class="edge">
<title>Node1&#45;&gt;Node2</title>
<path fill="none" stroke="midnightblue" d="M78.5,-123.36C78.5,-115.23 78.5,-105.7 78.5,-97.11"/>
<polygon fill="midnightblue" stroke="midnightblue" points="82,-96.89 78.5,-86.89 75,-96.89 82,-96.89"/>
</g>
<!-- Node3 -->
<g id="node3" class="node">
<title>Node3</title>
<g id="a_node3"><a xlink:title=" ">
<polygon fill="none" stroke="#bfbfbf" points="62.5,-0.5 62.5,-19.5 94.5,-19.5 94.5,-0.5 62.5,-0.5"/>
<text text-anchor="middle" x="78.5" y="-7.5" font-family="Helvetica,sans-Serif" font-size="10.00">list</text>
</a>
</g>
</g>
<!-- Node2&#45;&gt;Node3 -->
<g id="edge2" class="edge">
<title>Node2&#45;&gt;Node3</title>
<path fill="none" stroke="midnightblue" d="M78.5,-56.4C78.5,-48.47 78.5,-38.46 78.5,-29.86"/>
<polygon fill="midnightblue" stroke="midnightblue" points="82,-29.66 78.5,-19.66 75,-29.66 82,-29.66"/>
</g>
</g>
</svg>
