<?xml version="1.0" encoding="UTF-8" standalone="no"?>
<!DOCTYPE svg PUBLIC "-//W3C//DTD SVG 1.1//EN"
 "http://www.w3.org/Graphics/SVG/1.1/DTD/svg11.dtd">
<!-- Generated by graphviz version 2.43.0 (0)
 -->
<!-- Title: MainMenuState Pages: 1 -->
<!--zoomable 821 -->
<svg id="main" version="1.1" xmlns="http://www.w3.org/2000/svg" xmlns:xlink="http://www.w3.org/1999/xlink" xml:space="preserve" onload="init(evt)">
<style type="text/css"><![CDATA[
.edge:hover path { stroke: red; }
.edge:hover polygon { stroke: red; fill: red; }
]]></style>
<script type="text/javascript"><![CDATA[
var edges = document.getElementsByTagName('g');
if (edges && edges.length) {
  for (var i=0;i<edges.length;i++) {
    if (edges[i].id.substr(0,4)=='edge') {
      edges[i].setAttribute('class','edge');
    }
  }
}
]]></script>
        <defs>
                <circle id="rim" cx="0" cy="0" r="7"/>
                <circle id="rim2" cx="0" cy="0" r="3.5"/>
                <g id="zoomPlus">
                        <use xlink:href="#rim" fill="#404040">
                                <set attributeName="fill" to="#808080" begin="zoomplus.mouseover" end="zoomplus.mouseout"/>
                        </use>
                        <path d="M-4,0h8M0,-4v8" fill="none" stroke="white" stroke-width="1.5" pointer-events="none"/>
                </g>
                <g id="zoomMin">
                        <use xlink:href="#rim" fill="#404040">
                                <set attributeName="fill" to="#808080" begin="zoomminus.mouseover" end="zoomminus.mouseout"/>
                        </use>
                        <path d="M-4,0h8" fill="none" stroke="white" stroke-width="1.5" pointer-events="none"/>
                </g>
                <g id="dirArrow">
                        <path fill="none" stroke="white" stroke-width="1.5" d="M0,-3.0v7 M-2.5,-0.5L0,-3.0L2.5,-0.5"/>
                </g>
               <g id="resetDef">
                       <use xlink:href="#rim2" fill="#404040">
                               <set attributeName="fill" to="#808080" begin="reset.mouseover" end="reset.mouseout"/>
                       </use>
               </g>
        </defs>

<script type="text/javascript">
var viewWidth = 526;
var viewHeight = 821;
var sectionId = 'dynsection-1';
</script>
<script xlink:href="svgpan.js"/>
<svg id="graph" class="graph">
<g id="viewport">
<title>MainMenuState</title>
<!-- Node1 -->
<g id="node1" class="node">
<title>Node1</title>
<g id="a_node1"><a xlink:title=" ">
<polygon fill="#bfbfbf" stroke="black" points="281.5,-0.5 281.5,-167.5 401.5,-167.5 401.5,-0.5 281.5,-0.5"/>
<text text-anchor="middle" x="341.5" y="-155.5" font-family="Helvetica,sans-Serif" font-size="10.00">MainMenuState</text>
<polyline fill="none" stroke="black" points="281.5,-148.5 401.5,-148.5 "/>
<text text-anchor="start" x="289.5" y="-136.5" font-family="Helvetica,sans-Serif" font-size="10.00">&#45; x_cam</text>
<text text-anchor="start" x="289.5" y="-125.5" font-family="Helvetica,sans-Serif" font-size="10.00">&#45; y_cam</text>
<text text-anchor="start" x="289.5" y="-114.5" font-family="Helvetica,sans-Serif" font-size="10.00">&#45; z_cam</text>
<text text-anchor="start" x="289.5" y="-103.5" font-family="Helvetica,sans-Serif" font-size="10.00">&#45; r_cam</text>
<polyline fill="none" stroke="black" points="281.5,-96.5 401.5,-96.5 "/>
<text text-anchor="start" x="289.5" y="-84.5" font-family="Helvetica,sans-Serif" font-size="10.00">+ MainMenuState()</text>
<text text-anchor="start" x="289.5" y="-73.5" font-family="Helvetica,sans-Serif" font-size="10.00">+ Init()</text>
<text text-anchor="start" x="289.5" y="-62.5" font-family="Helvetica,sans-Serif" font-size="10.00">+ Input()</text>
<text text-anchor="start" x="289.5" y="-51.5" font-family="Helvetica,sans-Serif" font-size="10.00">+ Update()</text>
<text text-anchor="start" x="289.5" y="-40.5" font-family="Helvetica,sans-Serif" font-size="10.00">+ Render()</text>
<text text-anchor="start" x="289.5" y="-29.5" font-family="Helvetica,sans-Serif" font-size="10.00">+ SoundUpdate()</text>
<text text-anchor="start" x="289.5" y="-18.5" font-family="Helvetica,sans-Serif" font-size="10.00">+ DeleteData()</text>
<text text-anchor="start" x="289.5" y="-7.5" font-family="Helvetica,sans-Serif" font-size="10.00">+ ~MainMenuState()</text>
</a>
</g>
</g>
<!-- Node2 -->
<g id="node2" class="node">
<title>Node2</title>
<g id="a_node2"><a xlink:href="classState.html" target="_top" xlink:title=" ">
<polygon fill="none" stroke="black" points="174,-221 174,-333 275,-333 275,-221 174,-221"/>
<text text-anchor="middle" x="224.5" y="-321" font-family="Helvetica,sans-Serif" font-size="10.00">State</text>
<polyline fill="none" stroke="black" points="174,-314 275,-314 "/>
<text text-anchor="middle" x="224.5" y="-302" font-family="Helvetica,sans-Serif" font-size="10.00"> </text>
<polyline fill="none" stroke="black" points="174,-295 275,-295 "/>
<text text-anchor="start" x="182" y="-283" font-family="Helvetica,sans-Serif" font-size="10.00">+ Init()</text>
<text text-anchor="start" x="182" y="-272" font-family="Helvetica,sans-Serif" font-size="10.00">+ Input()</text>
<text text-anchor="start" x="182" y="-261" font-family="Helvetica,sans-Serif" font-size="10.00">+ SoundUpdate()</text>
<text text-anchor="start" x="182" y="-250" font-family="Helvetica,sans-Serif" font-size="10.00">+ Update()</text>
<text text-anchor="start" x="182" y="-239" font-family="Helvetica,sans-Serif" font-size="10.00">+ Render()</text>
<text text-anchor="start" x="182" y="-228" font-family="Helvetica,sans-Serif" font-size="10.00">+ DeleteData()</text>
</a>
</g>
</g>
<!-- Node2&#45;&gt;Node1 -->
<g id="edge1" class="edge">
<title>Node2&#45;&gt;Node1</title>
<path fill="none" stroke="midnightblue" d="M263.66,-212.07C272.35,-197.89 281.68,-182.66 290.75,-167.84"/>
<polygon fill="none" stroke="midnightblue" points="260.58,-210.4 258.34,-220.75 266.55,-214.06 260.58,-210.4"/>
</g>
<!-- Node3 -->
<g id="node3" class="node">
<title>Node3</title>
<g id="a_node3"><a xlink:href="structGameData.html" target="_top" xlink:title=" ">
<polygon fill="none" stroke="black" points="293.5,-215.5 293.5,-338.5 389.5,-338.5 389.5,-215.5 293.5,-215.5"/>
<text text-anchor="middle" x="341.5" y="-326.5" font-family="Helvetica,sans-Serif" font-size="10.00">GameData</text>
<polyline fill="none" stroke="black" points="293.5,-319.5 389.5,-319.5 "/>
<text text-anchor="start" x="301.5" y="-307.5" font-family="Helvetica,sans-Serif" font-size="10.00">+ window</text>
<text text-anchor="start" x="301.5" y="-296.5" font-family="Helvetica,sans-Serif" font-size="10.00">+ world</text>
<text text-anchor="start" x="301.5" y="-285.5" font-family="Helvetica,sans-Serif" font-size="10.00">+ state_switch</text>
<text text-anchor="start" x="301.5" y="-274.5" font-family="Helvetica,sans-Serif" font-size="10.00">+ level</text>
<polyline fill="none" stroke="black" points="293.5,-267.5 389.5,-267.5 "/>
<text text-anchor="start" x="301.5" y="-255.5" font-family="Helvetica,sans-Serif" font-size="10.00">+ GameData()</text>
<text text-anchor="start" x="301.5" y="-244.5" font-family="Helvetica,sans-Serif" font-size="10.00">+ GameData()</text>
<text text-anchor="start" x="301.5" y="-233.5" font-family="Helvetica,sans-Serif" font-size="10.00">+ GameData()</text>
<text text-anchor="start" x="301.5" y="-222.5" font-family="Helvetica,sans-Serif" font-size="10.00">+ ~GameData()</text>
</a>
</g>
</g>
<!-- Node3&#45;&gt;Node1 -->
<g id="edge2" class="edge">
<title>Node3&#45;&gt;Node1</title>
<path fill="none" stroke="#404040" d="M341.5,-215.3C341.5,-203.92 341.5,-191.76 341.5,-179.63"/>
<polygon fill="none" stroke="#404040" points="341.5,-179.53 337.5,-173.53 341.5,-167.53 345.5,-173.53 341.5,-179.53"/>
<text text-anchor="middle" x="358.5" y="-189" font-family="Helvetica,sans-Serif" font-size="10.00"> &#45;_data</text>
</g>
<!-- Node4 -->
<g id="node4" class="node">
<title>Node4</title>
<g id="a_node4"><a xlink:href="classStateMachine.html" target="_top" xlink:title=" ">
<polygon fill="none" stroke="black" points="360.5,-447 360.5,-614 470.5,-614 470.5,-447 360.5,-447"/>
<text text-anchor="middle" x="415.5" y="-602" font-family="Helvetica,sans-Serif" font-size="10.00">StateMachine</text>
<polyline fill="none" stroke="black" points="360.5,-595 470.5,-595 "/>
<text text-anchor="start" x="368.5" y="-583" font-family="Helvetica,sans-Serif" font-size="10.00">&#45; _states</text>
<text text-anchor="start" x="368.5" y="-572" font-family="Helvetica,sans-Serif" font-size="10.00">&#45; _newStates</text>
<text text-anchor="start" x="368.5" y="-561" font-family="Helvetica,sans-Serif" font-size="10.00">&#45; _isRemoving</text>
<text text-anchor="start" x="368.5" y="-550" font-family="Helvetica,sans-Serif" font-size="10.00">&#45; _isReplacing</text>
<text text-anchor="start" x="368.5" y="-539" font-family="Helvetica,sans-Serif" font-size="10.00">&#45; _isAdding</text>
<polyline fill="none" stroke="black" points="360.5,-532 470.5,-532 "/>
<text text-anchor="start" x="368.5" y="-520" font-family="Helvetica,sans-Serif" font-size="10.00">+ StateMachine()</text>
<text text-anchor="start" x="368.5" y="-509" font-family="Helvetica,sans-Serif" font-size="10.00">+ ~StateMachine()</text>
<text text-anchor="start" x="368.5" y="-498" font-family="Helvetica,sans-Serif" font-size="10.00">+ AddState()</text>
<text text-anchor="start" x="368.5" y="-487" font-family="Helvetica,sans-Serif" font-size="10.00">+ RemoveState()</text>
<text text-anchor="start" x="368.5" y="-476" font-family="Helvetica,sans-Serif" font-size="10.00">+ ProcessState()</text>
<text text-anchor="start" x="368.5" y="-465" font-family="Helvetica,sans-Serif" font-size="10.00">+ Clear()</text>
<text text-anchor="start" x="368.5" y="-454" font-family="Helvetica,sans-Serif" font-size="10.00">+ GetActiveState()</text>
</a>
</g>
</g>
<!-- Node4&#45;&gt;Node3 -->
<g id="edge3" class="edge">
<title>Node4&#45;&gt;Node3</title>
<path fill="none" stroke="#404040" d="M391.17,-446.8C382.02,-415.71 371.7,-380.62 362.84,-350.53"/>
<polygon fill="none" stroke="#404040" points="362.78,-350.34 357.25,-345.71 359.4,-338.82 364.93,-343.45 362.78,-350.34"/>
<text text-anchor="middle" x="394.5" y="-360" font-family="Helvetica,sans-Serif" font-size="10.00"> +machine</text>
</g>
<!-- Node5 -->
<g id="node5" class="node">
<title>Node5</title>
<g id="a_node5"><a xlink:href="classLoadingGameObjects.html" target="_top" xlink:title=" ">
<polygon fill="none" stroke="black" points="0,-386.5 0,-674.5 173,-674.5 173,-386.5 0,-386.5"/>
<text text-anchor="middle" x="86.5" y="-662.5" font-family="Helvetica,sans-Serif" font-size="10.00">LoadingGameObjects</text>
<polyline fill="none" stroke="black" points="0,-655.5 173,-655.5 "/>
<text text-anchor="start" x="8" y="-643.5" font-family="Helvetica,sans-Serif" font-size="10.00">&#45; game_objects</text>
<text text-anchor="start" x="8" y="-632.5" font-family="Helvetica,sans-Serif" font-size="10.00">&#45; npc_game_objects</text>
<text text-anchor="start" x="8" y="-621.5" font-family="Helvetica,sans-Serif" font-size="10.00">&#45; platform_game_objects</text>
<text text-anchor="start" x="8" y="-610.5" font-family="Helvetica,sans-Serif" font-size="10.00">&#45; edge_game_objects</text>
<text text-anchor="start" x="8" y="-599.5" font-family="Helvetica,sans-Serif" font-size="10.00">&#45; tile_objects</text>
<text text-anchor="start" x="8" y="-588.5" font-family="Helvetica,sans-Serif" font-size="10.00">&#45; animation_actors</text>
<text text-anchor="start" x="8" y="-577.5" font-family="Helvetica,sans-Serif" font-size="10.00">&#45; count</text>
<text text-anchor="start" x="8" y="-566.5" font-family="Helvetica,sans-Serif" font-size="10.00">&#45; npc_count</text>
<text text-anchor="start" x="8" y="-555.5" font-family="Helvetica,sans-Serif" font-size="10.00">&#45; tileX_count</text>
<text text-anchor="start" x="8" y="-544.5" font-family="Helvetica,sans-Serif" font-size="10.00">&#45; tileY_count</text>
<text text-anchor="start" x="8" y="-533.5" font-family="Helvetica,sans-Serif" font-size="10.00">&#45; edgeTwoSided</text>
<polyline fill="none" stroke="black" points="0,-526.5 173,-526.5 "/>
<text text-anchor="start" x="8" y="-514.5" font-family="Helvetica,sans-Serif" font-size="10.00">+ LoadingGameObjects()</text>
<text text-anchor="start" x="8" y="-503.5" font-family="Helvetica,sans-Serif" font-size="10.00">+ ~LoadingGameObjects()</text>
<text text-anchor="start" x="8" y="-492.5" font-family="Helvetica,sans-Serif" font-size="10.00">+ Load_XML_SPLASH_SCREEN()</text>
<text text-anchor="start" x="8" y="-481.5" font-family="Helvetica,sans-Serif" font-size="10.00">+ Load_XML_ASSETS()</text>
<text text-anchor="start" x="8" y="-470.5" font-family="Helvetica,sans-Serif" font-size="10.00">+ generate_textures()</text>
<text text-anchor="start" x="8" y="-459.5" font-family="Helvetica,sans-Serif" font-size="10.00">+ return_game_objects()</text>
<text text-anchor="start" x="8" y="-448.5" font-family="Helvetica,sans-Serif" font-size="10.00">+ return_npc_game_objects()</text>
<text text-anchor="start" x="8" y="-437.5" font-family="Helvetica,sans-Serif" font-size="10.00">+ return_edge_game_objects()</text>
<text text-anchor="start" x="8" y="-426.5" font-family="Helvetica,sans-Serif" font-size="10.00">+ return_platform_game</text>
<text text-anchor="start" x="8" y="-415.5" font-family="Helvetica,sans-Serif" font-size="10.00">_objects()</text>
<text text-anchor="start" x="8" y="-404.5" font-family="Helvetica,sans-Serif" font-size="10.00">+ return_tile_objects()</text>
<text text-anchor="start" x="8" y="-393.5" font-family="Helvetica,sans-Serif" font-size="10.00">+ return_animation_actors()</text>
</a>
</g>
</g>
<!-- Node5&#45;&gt;Node3 -->
<g id="edge4" class="edge">
<title>Node5&#45;&gt;Node3</title>
<path fill="none" stroke="#404040" d="M173.15,-393.59C175.88,-390.97 178.67,-388.43 181.5,-386 219.39,-353.51 242.91,-368.05 283.5,-339 283.6,-338.93 283.71,-338.85 283.81,-338.78"/>
<polygon fill="none" stroke="#404040" points="283.9,-338.71 286.16,-331.86 293.35,-331.3 291.09,-338.15 283.9,-338.71"/>
<text text-anchor="middle" x="258" y="-360" font-family="Helvetica,sans-Serif" font-size="10.00"> +ld</text>
</g>
<!-- Node6 -->
<g id="node6" class="node">
<title>Node6</title>
<g id="a_node6"><a xlink:href="classOrthographic__camera.html" target="_top" xlink:title=" ">
<polygon fill="none" stroke="black" points="191,-452.5 191,-608.5 342,-608.5 342,-452.5 191,-452.5"/>
<text text-anchor="middle" x="266.5" y="-596.5" font-family="Helvetica,sans-Serif" font-size="10.00">Orthographic_camera</text>
<polyline fill="none" stroke="black" points="191,-589.5 342,-589.5 "/>
<text text-anchor="start" x="199" y="-577.5" font-family="Helvetica,sans-Serif" font-size="10.00">&#45; m_rotation</text>
<polyline fill="none" stroke="black" points="191,-570.5 342,-570.5 "/>
<text text-anchor="start" x="199" y="-558.5" font-family="Helvetica,sans-Serif" font-size="10.00">+ Orthographic_camera()</text>
<text text-anchor="start" x="199" y="-547.5" font-family="Helvetica,sans-Serif" font-size="10.00">+ ~Orthographic_camera()</text>
<text text-anchor="start" x="199" y="-536.5" font-family="Helvetica,sans-Serif" font-size="10.00">+ GetPosition()</text>
<text text-anchor="start" x="199" y="-525.5" font-family="Helvetica,sans-Serif" font-size="10.00">+ SetPosition()</text>
<text text-anchor="start" x="199" y="-514.5" font-family="Helvetica,sans-Serif" font-size="10.00">+ GetRotation()</text>
<text text-anchor="start" x="199" y="-503.5" font-family="Helvetica,sans-Serif" font-size="10.00">+ SetRotation()</text>
<text text-anchor="start" x="199" y="-492.5" font-family="Helvetica,sans-Serif" font-size="10.00">+ GetScale()</text>
<text text-anchor="start" x="199" y="-481.5" font-family="Helvetica,sans-Serif" font-size="10.00">+ SetScale()</text>
<text text-anchor="start" x="199" y="-470.5" font-family="Helvetica,sans-Serif" font-size="10.00">+ return_matrix()</text>
<text text-anchor="start" x="199" y="-459.5" font-family="Helvetica,sans-Serif" font-size="10.00">&#45; recalculate_view_matrix()</text>
</a>
</g>
</g>
<!-- Node6&#45;&gt;Node3 -->
<g id="edge5" class="edge">
<title>Node6&#45;&gt;Node3</title>
<path fill="none" stroke="#404040" d="M288.5,-452.1C297.08,-422.32 307.09,-388.03 316.5,-357 317.17,-354.78 317.86,-352.53 318.56,-350.25"/>
<polygon fill="none" stroke="#404040" points="318.56,-350.23 316.51,-343.32 322.11,-338.77 324.16,-345.68 318.56,-350.23"/>
<text text-anchor="middle" x="338.5" y="-360" font-family="Helvetica,sans-Serif" font-size="10.00"> +o_cam</text>
</g>
<!-- Node7 -->
<g id="node7" class="node">
<title>Node7</title>
<g id="a_node7"><a xlink:title=" ">
<polygon fill="none" stroke="#bfbfbf" points="135.5,-755.5 135.5,-812.5 177.5,-812.5 177.5,-755.5 135.5,-755.5"/>
<text text-anchor="middle" x="156.5" y="-800.5" font-family="Helvetica,sans-Serif" font-size="10.00">mat4</text>
<polyline fill="none" stroke="#bfbfbf" points="135.5,-793.5 177.5,-793.5 "/>
<text text-anchor="middle" x="156.5" y="-781.5" font-family="Helvetica,sans-Serif" font-size="10.00"> </text>
<polyline fill="none" stroke="#bfbfbf" points="135.5,-774.5 177.5,-774.5 "/>
<text text-anchor="middle" x="156.5" y="-762.5" font-family="Helvetica,sans-Serif" font-size="10.00"> </text>
</a>
</g>
</g>
<!-- Node7&#45;&gt;Node6 -->
<g id="edge6" class="edge">
<title>Node7&#45;&gt;Node6</title>
<path fill="none" stroke="#404040" d="M156.71,-755.34C157.68,-737.07 160.57,-712.92 168.5,-693 172.15,-683.83 176.09,-683.25 181.5,-675 193.16,-657.2 205.13,-637.8 216.28,-619.18"/>
<polygon fill="none" stroke="#404040" points="216.42,-618.94 216.05,-611.74 222.55,-608.62 222.92,-615.83 216.42,-618.94"/>
<text text-anchor="middle" x="223" y="-729" font-family="Helvetica,sans-Serif" font-size="10.00"> &#45;m_Projection_matrix</text>
<text text-anchor="middle" x="223" y="-718" font-family="Helvetica,sans-Serif" font-size="10.00">&#45;m_View_matrix</text>
<text text-anchor="start" x="168.5" y="-707" font-family="Helvetica,sans-Serif" font-size="10.00">&#45;m_View_Projection</text>
<text text-anchor="middle" x="223" y="-696" font-family="Helvetica,sans-Serif" font-size="10.00">_matrix</text>
</g>
<!-- Node8 -->
<g id="node8" class="node">
<title>Node8</title>
<g id="a_node8"><a xlink:title=" ">
<polygon fill="none" stroke="#bfbfbf" points="446.5,-755.5 446.5,-812.5 486.5,-812.5 486.5,-755.5 446.5,-755.5"/>
<text text-anchor="middle" x="466.5" y="-800.5" font-family="Helvetica,sans-Serif" font-size="10.00">vec2</text>
<polyline fill="none" stroke="#bfbfbf" points="446.5,-793.5 486.5,-793.5 "/>
<text text-anchor="middle" x="466.5" y="-781.5" font-family="Helvetica,sans-Serif" font-size="10.00"> </text>
<polyline fill="none" stroke="#bfbfbf" points="446.5,-774.5 486.5,-774.5 "/>
<text text-anchor="middle" x="466.5" y="-762.5" font-family="Helvetica,sans-Serif" font-size="10.00"> </text>
</a>
</g>
</g>
<!-- Node8&#45;&gt;Node1 -->
<g id="edge9" class="edge">
<title>Node8&#45;&gt;Node1</title>
<path fill="none" stroke="#404040" d="M472.05,-755.14C484.07,-689.76 509.14,-521.76 479.5,-386 463.48,-312.64 427.89,-235.78 396.86,-178.09"/>
<polygon fill="none" stroke="#404040" points="396.86,-178.09 390.47,-174.73 391.12,-167.54 397.5,-170.9 396.86,-178.09"/>
<text text-anchor="middle" x="496" y="-360" font-family="Helvetica,sans-Serif" font-size="10.00"> &#45;z_scale</text>
</g>
<!-- Node8&#45;&gt;Node6 -->
<g id="edge7" class="edge">
<title>Node8&#45;&gt;Node6</title>
<path fill="none" stroke="#404040" d="M446.15,-766.92C421.78,-747.03 380.62,-711.33 351.5,-675 337.75,-657.84 324.67,-638.24 313.09,-619.15"/>
<polygon fill="none" stroke="#404040" points="312.95,-618.92 306.44,-615.82 306.81,-608.61 313.32,-611.72 312.95,-618.92"/>
<text text-anchor="middle" x="434.5" y="-712.5" font-family="Helvetica,sans-Serif" font-size="10.00"> &#45;m_scale</text>
</g>
<!-- Node9 -->
<g id="node9" class="node">
<title>Node9</title>
<g id="a_node9"><a xlink:title=" ">
<polygon fill="none" stroke="#bfbfbf" points="268.5,-755.5 268.5,-812.5 308.5,-812.5 308.5,-755.5 268.5,-755.5"/>
<text text-anchor="middle" x="288.5" y="-800.5" font-family="Helvetica,sans-Serif" font-size="10.00">vec3</text>
<polyline fill="none" stroke="#bfbfbf" points="268.5,-793.5 308.5,-793.5 "/>
<text text-anchor="middle" x="288.5" y="-781.5" font-family="Helvetica,sans-Serif" font-size="10.00"> </text>
<polyline fill="none" stroke="#bfbfbf" points="268.5,-774.5 308.5,-774.5 "/>
<text text-anchor="middle" x="288.5" y="-762.5" font-family="Helvetica,sans-Serif" font-size="10.00"> </text>
</a>
</g>
</g>
<!-- Node9&#45;&gt;Node6 -->
<g id="edge8" class="edge">
<title>Node9&#45;&gt;Node6</title>
<path fill="none" stroke="#404040" d="M286.06,-755.12C283.24,-722.83 278.44,-667.99 274.3,-620.71"/>
<polygon fill="none" stroke="#404040" points="274.29,-620.51 269.78,-614.88 273.24,-608.55 277.75,-614.18 274.29,-620.51"/>
<text text-anchor="middle" x="313.5" y="-712.5" font-family="Helvetica,sans-Serif" font-size="10.00"> &#45;m_positon</text>
</g>
</g>
</svg>
        <g id="navigator" transform="translate(0 0)" fill="#404254">
                <rect fill="#f2f5e9" fill-opacity="0.5" stroke="#606060" stroke-width=".5" x="0" y="0" width="60" height="60"/>
                <use id="zoomplus" xlink:href="#zoomPlus" x="17" y="9" onmousedown="handleZoom(evt,'in')"/>
                <use id="zoomminus" xlink:href="#zoomMin" x="42" y="9" onmousedown="handleZoom(evt,'out')"/>
                <use id="reset" xlink:href="#resetDef" x="30" y="36" onmousedown="handleReset()"/>
                <g id="arrowUp" xlink:href="#dirArrow" transform="translate(30 24)" onmousedown="handlePan(0,-1)">
                  <use xlink:href="#rim" fill="#404040">
                        <set attributeName="fill" to="#808080" begin="arrowUp.mouseover" end="arrowUp.mouseout"/>
                  </use>
                  <path fill="none" stroke="white" stroke-width="1.5" d="M0,-3.0v7 M-2.5,-0.5L0,-3.0L2.5,-0.5"/>
                </g>
                <g id="arrowRight" xlink:href="#dirArrow" transform="rotate(90) translate(36 -43)" onmousedown="handlePan(1,0)">
                  <use xlink:href="#rim" fill="#404040">
                        <set attributeName="fill" to="#808080" begin="arrowRight.mouseover" end="arrowRight.mouseout"/>
                  </use>
                  <path fill="none" stroke="white" stroke-width="1.5" d="M0,-3.0v7 M-2.5,-0.5L0,-3.0L2.5,-0.5"/>
                </g>
                <g id="arrowDown" xlink:href="#dirArrow" transform="rotate(180) translate(-30 -48)" onmousedown="handlePan(0,1)">
                  <use xlink:href="#rim" fill="#404040">
                        <set attributeName="fill" to="#808080" begin="arrowDown.mouseover" end="arrowDown.mouseout"/>
                  </use>
                  <path fill="none" stroke="white" stroke-width="1.5" d="M0,-3.0v7 M-2.5,-0.5L0,-3.0L2.5,-0.5"/>
                </g>
                <g id="arrowLeft" xlink:href="#dirArrow" transform="rotate(270) translate(-36 17)" onmousedown="handlePan(-1,0)">
                  <use xlink:href="#rim" fill="#404040">
                        <set attributeName="fill" to="#808080" begin="arrowLeft.mouseover" end="arrowLeft.mouseout"/>
                  </use>
                  <path fill="none" stroke="white" stroke-width="1.5" d="M0,-3.0v7 M-2.5,-0.5L0,-3.0L2.5,-0.5"/>
                </g>
        </g>
        <svg viewBox="0 0 15 15" width="100%" height="30px" preserveAspectRatio="xMaxYMin meet">
         <g id="arrow_out" transform="scale(0.3 0.3)">
          <a xlink:href="classMainMenuState__coll__graph_org.svg" target="_base">
           <rect id="button" ry="5" rx="5" y="6" x="6" height="38" width="38"
                fill="#f2f5e9" fill-opacity="0.5" stroke="#606060" stroke-width="1.0"/>
           <path id="arrow"
             d="M 11.500037,31.436501 C 11.940474,20.09759 22.043105,11.32322 32.158766,21.979434 L 37.068811,17.246167 C 37.068811,17.246167 37.088388,32 37.088388,32 L 22.160133,31.978069 C 22.160133,31.978069 26.997745,27.140456 26.997745,27.140456 C 18.528582,18.264221 13.291696,25.230495 11.500037,31.436501 z"
             style="fill:#404040;"/>
          </a>
         </g>
        </svg>
</svg>
