<?xml version="1.0" encoding="UTF-8" standalone="no"?>
<!DOCTYPE svg PUBLIC "-//W3C//DTD SVG 1.1//EN"
 "http://www.w3.org/Graphics/SVG/1.1/DTD/svg11.dtd">
<!-- Generated by graphviz version 2.43.0 (0)
 -->
<!-- Title: Orthographic_camera Pages: 1 -->
<svg width="280pt" height="303pt"
 viewBox="0.00 0.00 280.00 303.00" xmlns="http://www.w3.org/2000/svg" xmlns:xlink="http://www.w3.org/1999/xlink">
<g id="graph0" class="graph" transform="scale(1 1) rotate(0) translate(4 299)">
<title>Orthographic_camera</title>
<!-- Node1 -->
<g id="node1" class="node">
<title>Node1</title>
<g id="a_node1"><a xlink:title=" ">
<polygon fill="#bfbfbf" stroke="black" points="77.5,-0.5 77.5,-156.5 228.5,-156.5 228.5,-0.5 77.5,-0.5"/>
<text text-anchor="middle" x="153" y="-144.5" font-family="Helvetica,sans-Serif" font-size="10.00">Orthographic_camera</text>
<polyline fill="none" stroke="black" points="77.5,-137.5 228.5,-137.5 "/>
<text text-anchor="start" x="85.5" y="-125.5" font-family="Helvetica,sans-Serif" font-size="10.00">&#45; m_rotation</text>
<polyline fill="none" stroke="black" points="77.5,-118.5 228.5,-118.5 "/>
<text text-anchor="start" x="85.5" y="-106.5" font-family="Helvetica,sans-Serif" font-size="10.00">+ Orthographic_camera()</text>
<text text-anchor="start" x="85.5" y="-95.5" font-family="Helvetica,sans-Serif" font-size="10.00">+ ~Orthographic_camera()</text>
<text text-anchor="start" x="85.5" y="-84.5" font-family="Helvetica,sans-Serif" font-size="10.00">+ GetPosition()</text>
<text text-anchor="start" x="85.5" y="-73.5" font-family="Helvetica,sans-Serif" font-size="10.00">+ SetPosition()</text>
<text text-anchor="start" x="85.5" y="-62.5" font-family="Helvetica,sans-Serif" font-size="10.00">+ GetRotation()</text>
<text text-anchor="start" x="85.5" y="-51.5" font-family="Helvetica,sans-Serif" font-size="10.00">+ SetRotation()</text>
<text text-anchor="start" x="85.5" y="-40.5" font-family="Helvetica,sans-Serif" font-size="10.00">+ GetScale()</text>
<text text-anchor="start" x="85.5" y="-29.5" font-family="Helvetica,sans-Serif" font-size="10.00">+ SetScale()</text>
<text text-anchor="start" x="85.5" y="-18.5" font-family="Helvetica,sans-Serif" font-size="10.00">+ return_matrix()</text>
<text text-anchor="start" x="85.5" y="-7.5" font-family="Helvetica,sans-Serif" font-size="10.00">&#45; recalculate_view_matrix()</text>
</a>
</g>
</g>
<!-- Node2 -->
<g id="node2" class="node">
<title>Node2</title>
<g id="a_node2"><a xlink:title=" ">
<polygon fill="none" stroke="#bfbfbf" points="0,-237.5 0,-294.5 42,-294.5 42,-237.5 0,-237.5"/>
<text text-anchor="middle" x="21" y="-282.5" font-family="Helvetica,sans-Serif" font-size="10.00">mat4</text>
<polyline fill="none" stroke="#bfbfbf" points="0,-275.5 42,-275.5 "/>
<text text-anchor="middle" x="21" y="-263.5" font-family="Helvetica,sans-Serif" font-size="10.00"> </text>
<polyline fill="none" stroke="#bfbfbf" points="0,-256.5 42,-256.5 "/>
<text text-anchor="middle" x="21" y="-244.5" font-family="Helvetica,sans-Serif" font-size="10.00"> </text>
</a>
</g>
</g>
<!-- Node2&#45;&gt;Node1 -->
<g id="edge1" class="edge">
<title>Node2&#45;&gt;Node1</title>
<path fill="none" stroke="#404040" d="M22.18,-237.32C24.06,-218.59 28.7,-193.92 40,-175 47.64,-162.21 57.62,-150.32 68.48,-139.57"/>
<polygon fill="none" stroke="#404040" points="68.63,-139.43 70.25,-132.4 77.36,-131.19 75.74,-138.22 68.63,-139.43"/>
<text text-anchor="middle" x="94.5" y="-211" font-family="Helvetica,sans-Serif" font-size="10.00"> &#45;m_Projection_matrix</text>
<text text-anchor="middle" x="94.5" y="-200" font-family="Helvetica,sans-Serif" font-size="10.00">&#45;m_View_matrix</text>
<text text-anchor="start" x="40" y="-189" font-family="Helvetica,sans-Serif" font-size="10.00">&#45;m_View_Projection</text>
<text text-anchor="middle" x="94.5" y="-178" font-family="Helvetica,sans-Serif" font-size="10.00">_matrix</text>
</g>
<!-- Node3 -->
<g id="node3" class="node">
<title>Node3</title>
<g id="a_node3"><a xlink:title=" ">
<polygon fill="none" stroke="#bfbfbf" points="133,-237.5 133,-294.5 173,-294.5 173,-237.5 133,-237.5"/>
<text text-anchor="middle" x="153" y="-282.5" font-family="Helvetica,sans-Serif" font-size="10.00">vec2</text>
<polyline fill="none" stroke="#bfbfbf" points="133,-275.5 173,-275.5 "/>
<text text-anchor="middle" x="153" y="-263.5" font-family="Helvetica,sans-Serif" font-size="10.00"> </text>
<polyline fill="none" stroke="#bfbfbf" points="133,-256.5 173,-256.5 "/>
<text text-anchor="middle" x="153" y="-244.5" font-family="Helvetica,sans-Serif" font-size="10.00"> </text>
</a>
</g>
</g>
<!-- Node3&#45;&gt;Node1 -->
<g id="edge2" class="edge">
<title>Node3&#45;&gt;Node1</title>
<path fill="none" stroke="#404040" d="M153,-237.23C153,-218.9 153,-193.77 153,-168.96"/>
<polygon fill="none" stroke="#404040" points="153,-168.83 149,-162.83 153,-156.83 157,-162.83 153,-168.83"/>
<text text-anchor="middle" x="177" y="-194.5" font-family="Helvetica,sans-Serif" font-size="10.00"> &#45;m_scale</text>
</g>
<!-- Node4 -->
<g id="node4" class="node">
<title>Node4</title>
<g id="a_node4"><a xlink:title=" ">
<polygon fill="none" stroke="#bfbfbf" points="204,-237.5 204,-294.5 244,-294.5 244,-237.5 204,-237.5"/>
<text text-anchor="middle" x="224" y="-282.5" font-family="Helvetica,sans-Serif" font-size="10.00">vec3</text>
<polyline fill="none" stroke="#bfbfbf" points="204,-275.5 244,-275.5 "/>
<text text-anchor="middle" x="224" y="-263.5" font-family="Helvetica,sans-Serif" font-size="10.00"> </text>
<polyline fill="none" stroke="#bfbfbf" points="204,-256.5 244,-256.5 "/>
<text text-anchor="middle" x="224" y="-244.5" font-family="Helvetica,sans-Serif" font-size="10.00"> </text>
</a>
</g>
</g>
<!-- Node4&#45;&gt;Node1 -->
<g id="edge3" class="edge">
<title>Node4&#45;&gt;Node1</title>
<path fill="none" stroke="#404040" d="M218.99,-237.32C215.29,-219.26 209.59,-195.35 202,-175 201.12,-172.65 200.2,-170.28 199.24,-167.9"/>
<polygon fill="none" stroke="#404040" points="199.2,-167.79 193.18,-163.82 194.53,-156.74 200.55,-160.7 199.2,-167.79"/>
<text text-anchor="middle" x="243" y="-194.5" font-family="Helvetica,sans-Serif" font-size="10.00"> &#45;m_positon</text>
</g>
</g>
</svg>
