<?xml version="1.0" encoding="UTF-8" standalone="no"?>
<!DOCTYPE svg PUBLIC "-//W3C//DTD SVG 1.1//EN"
 "http://www.w3.org/Graphics/SVG/1.1/DTD/svg11.dtd">
<!-- Generated by graphviz version 2.43.0 (0)
 -->
<!-- Title: ConditionOutOfRange Pages: 1 -->
<svg width="856pt" height="887pt"
 viewBox="0.00 0.00 856.38 887.00" xmlns="http://www.w3.org/2000/svg" xmlns:xlink="http://www.w3.org/1999/xlink">
<g id="graph0" class="graph" transform="scale(1 1) rotate(0) translate(4 883)">
<title>ConditionOutOfRange</title>
<!-- Node1 -->
<g id="node1" class="node">
<title>Node1</title>
<g id="a_node1"><a xlink:title=" ">
<polygon fill="#bfbfbf" stroke="black" points="143.88,-507.5 143.88,-575.5 284.88,-575.5 284.88,-507.5 143.88,-507.5"/>
<text text-anchor="middle" x="214.38" y="-563.5" font-family="Helvetica,sans-Serif" font-size="10.00">ConditionOutOfRange</text>
<polyline fill="none" stroke="black" points="143.88,-556.5 284.88,-556.5 "/>
<text text-anchor="middle" x="214.38" y="-544.5" font-family="Helvetica,sans-Serif" font-size="10.00"> </text>
<polyline fill="none" stroke="black" points="143.88,-537.5 284.88,-537.5 "/>
<text text-anchor="start" x="151.88" y="-525.5" font-family="Helvetica,sans-Serif" font-size="10.00">+ ConditionOutOfRange()</text>
<text text-anchor="start" x="151.88" y="-514.5" font-family="Helvetica,sans-Serif" font-size="10.00">+ test()</text>
</a>
</g>
</g>
<!-- Node2 -->
<g id="node2" class="node">
<title>Node2</title>
<g id="a_node2"><a xlink:href="classCondition.html" target="_top" xlink:title=" ">
<polygon fill="none" stroke="black" points="223.38,-750 223.38,-829 313.38,-829 313.38,-750 223.38,-750"/>
<text text-anchor="middle" x="268.38" y="-817" font-family="Helvetica,sans-Serif" font-size="10.00">Condition</text>
<polyline fill="none" stroke="black" points="223.38,-810 313.38,-810 "/>
<text text-anchor="middle" x="268.38" y="-798" font-family="Helvetica,sans-Serif" font-size="10.00"> </text>
<polyline fill="none" stroke="black" points="223.38,-791 313.38,-791 "/>
<text text-anchor="start" x="231.38" y="-779" font-family="Helvetica,sans-Serif" font-size="10.00">+ Condition()</text>
<text text-anchor="start" x="231.38" y="-768" font-family="Helvetica,sans-Serif" font-size="10.00">+ ~Condition()</text>
<text text-anchor="start" x="231.38" y="-757" font-family="Helvetica,sans-Serif" font-size="10.00">+ test()</text>
</a>
</g>
</g>
<!-- Node2&#45;&gt;Node1 -->
<g id="edge1" class="edge">
<title>Node2&#45;&gt;Node1</title>
<path fill="none" stroke="midnightblue" d="M257.69,-739.83C247.05,-691.32 230.98,-618.13 221.7,-575.85"/>
<polygon fill="none" stroke="midnightblue" points="254.32,-740.77 259.88,-749.79 261.15,-739.27 254.32,-740.77"/>
</g>
<!-- Node3 -->
<g id="node3" class="node">
<title>Node3</title>
<g id="a_node3"><a xlink:href="classNPC__Actor.html" target="_top" xlink:title=" ">
<polygon fill="none" stroke="black" points="365.38,-149.5 365.38,-371.5 545.38,-371.5 545.38,-149.5 365.38,-149.5"/>
<text text-anchor="middle" x="455.38" y="-359.5" font-family="Helvetica,sans-Serif" font-size="10.00">NPC_Actor</text>
<polyline fill="none" stroke="black" points="365.38,-352.5 545.38,-352.5 "/>
<text text-anchor="start" x="373.38" y="-340.5" font-family="Helvetica,sans-Serif" font-size="10.00">&#45; health</text>
<text text-anchor="start" x="373.38" y="-329.5" font-family="Helvetica,sans-Serif" font-size="10.00">&#45; npc_collision</text>
<polyline fill="none" stroke="black" points="365.38,-322.5 545.38,-322.5 "/>
<text text-anchor="start" x="373.38" y="-310.5" font-family="Helvetica,sans-Serif" font-size="10.00">+ NPC_Actor()</text>
<text text-anchor="start" x="373.38" y="-299.5" font-family="Helvetica,sans-Serif" font-size="10.00">+ ~NPC_Actor()</text>
<text text-anchor="start" x="373.38" y="-288.5" font-family="Helvetica,sans-Serif" font-size="10.00">+ onCreate()</text>
<text text-anchor="start" x="373.38" y="-277.5" font-family="Helvetica,sans-Serif" font-size="10.00">+ onDestroy()</text>
<text text-anchor="start" x="373.38" y="-266.5" font-family="Helvetica,sans-Serif" font-size="10.00">+ update()</text>
<text text-anchor="start" x="373.38" y="-255.5" font-family="Helvetica,sans-Serif" font-size="10.00">+ input()</text>
<text text-anchor="start" x="373.38" y="-244.5" font-family="Helvetica,sans-Serif" font-size="10.00">+ draw()</text>
<text text-anchor="start" x="373.38" y="-233.5" font-family="Helvetica,sans-Serif" font-size="10.00">+ collison_update()</text>
<text text-anchor="start" x="373.38" y="-222.5" font-family="Helvetica,sans-Serif" font-size="10.00">+ get_health()</text>
<text text-anchor="start" x="373.38" y="-211.5" font-family="Helvetica,sans-Serif" font-size="10.00">+ set_health()</text>
<text text-anchor="start" x="373.38" y="-200.5" font-family="Helvetica,sans-Serif" font-size="10.00">+ get_collision()</text>
<text text-anchor="start" x="373.38" y="-189.5" font-family="Helvetica,sans-Serif" font-size="10.00">+ set_collision()</text>
<text text-anchor="start" x="373.38" y="-178.5" font-family="Helvetica,sans-Serif" font-size="10.00">+ set_colour()</text>
<text text-anchor="start" x="373.38" y="-167.5" font-family="Helvetica,sans-Serif" font-size="10.00">+ checkDistanceBetweenPlayer()</text>
<text text-anchor="start" x="373.38" y="-156.5" font-family="Helvetica,sans-Serif" font-size="10.00">+ readStateMachine()</text>
</a>
</g>
</g>
<!-- Node2&#45;&gt;Node3 -->
<g id="edge13" class="edge">
<title>Node2&#45;&gt;Node3</title>
<path fill="none" stroke="#404040" d="M276.03,-750C281.35,-722.91 288.51,-685.78 294.38,-653 312.07,-554.1 292.31,-522.56 331.38,-430 338.69,-412.68 348.11,-395.48 358.49,-379.05"/>
<polygon fill="none" stroke="#404040" points="358.53,-378.99 358.45,-371.78 365.07,-368.93 365.16,-376.14 358.53,-378.99"/>
<text text-anchor="middle" x="362.38" y="-544.5" font-family="Helvetica,sans-Serif" font-size="10.00"> &#45;ifInRange</text>
<text text-anchor="middle" x="362.38" y="-533.5" font-family="Helvetica,sans-Serif" font-size="10.00">&#45;outOfRange</text>
</g>
<!-- Node8 -->
<g id="node8" class="node">
<title>Node8</title>
<g id="a_node8"><a xlink:href="classTransition.html" target="_top" xlink:title=" ">
<polygon fill="none" stroke="black" points="401.88,-496.5 401.88,-586.5 508.88,-586.5 508.88,-496.5 401.88,-496.5"/>
<text text-anchor="middle" x="455.38" y="-574.5" font-family="Helvetica,sans-Serif" font-size="10.00">Transition</text>
<polyline fill="none" stroke="black" points="401.88,-567.5 508.88,-567.5 "/>
<text text-anchor="middle" x="455.38" y="-555.5" font-family="Helvetica,sans-Serif" font-size="10.00"> </text>
<polyline fill="none" stroke="black" points="401.88,-548.5 508.88,-548.5 "/>
<text text-anchor="start" x="409.88" y="-536.5" font-family="Helvetica,sans-Serif" font-size="10.00">+ Transition()</text>
<text text-anchor="start" x="409.88" y="-525.5" font-family="Helvetica,sans-Serif" font-size="10.00">+ ~Transition()</text>
<text text-anchor="start" x="409.88" y="-514.5" font-family="Helvetica,sans-Serif" font-size="10.00">+ isTriggered()</text>
<text text-anchor="start" x="409.88" y="-503.5" font-family="Helvetica,sans-Serif" font-size="10.00">+ getTargetState()</text>
</a>
</g>
</g>
<!-- Node2&#45;&gt;Node8 -->
<g id="edge12" class="edge">
<title>Node2&#45;&gt;Node8</title>
<path fill="none" stroke="#404040" d="M305.36,-749.96C329.84,-723.62 361.99,-687.38 387.38,-653 400.35,-635.43 413.26,-615.32 424.28,-597.11"/>
<polygon fill="none" stroke="#404040" points="424.38,-596.94 424.03,-589.74 430.54,-586.64 430.89,-593.84 424.38,-596.94"/>
<text text-anchor="middle" x="398.38" y="-674" font-family="Helvetica,sans-Serif" font-size="10.00"> &#45;condition</text>
</g>
<!-- Node3&#45;&gt;Node2 -->
<g id="edge2" class="edge">
<title>Node3&#45;&gt;Node2</title>
<path fill="none" stroke="#404040" d="M364.98,-269.43C266.04,-283.49 111.88,-322.41 39.38,-430 -16.01,-512.19 -9.72,-566.9 39.38,-653 76.05,-717.3 156.53,-754.2 211.62,-772.8"/>
<polygon fill="none" stroke="#404040" points="211.89,-772.89 218.84,-770.94 223.3,-776.6 216.36,-778.55 211.89,-772.89"/>
<text text-anchor="middle" x="57.88" y="-539" font-family="Helvetica,sans-Serif" font-size="10.00"> #actor</text>
</g>
<!-- Node7 -->
<g id="node7" class="node">
<title>Node7</title>
<g id="a_node7"><a xlink:href="classBStateMachine.html" target="_top" xlink:title=" ">
<polygon fill="none" stroke="black" points="439.38,-0.5 439.38,-101.5 581.38,-101.5 581.38,-0.5 439.38,-0.5"/>
<text text-anchor="middle" x="510.38" y="-89.5" font-family="Helvetica,sans-Serif" font-size="10.00">BStateMachine</text>
<polyline fill="none" stroke="black" points="439.38,-82.5 581.38,-82.5 "/>
<text text-anchor="middle" x="510.38" y="-70.5" font-family="Helvetica,sans-Serif" font-size="10.00"> </text>
<polyline fill="none" stroke="black" points="439.38,-63.5 581.38,-63.5 "/>
<text text-anchor="start" x="447.38" y="-51.5" font-family="Helvetica,sans-Serif" font-size="10.00">+ BStateMachine()</text>
<text text-anchor="start" x="447.38" y="-40.5" font-family="Helvetica,sans-Serif" font-size="10.00">+ ~BStateMachine()</text>
<text text-anchor="start" x="447.38" y="-29.5" font-family="Helvetica,sans-Serif" font-size="10.00">+ setInitialState()</text>
<text text-anchor="start" x="447.38" y="-18.5" font-family="Helvetica,sans-Serif" font-size="10.00">+ update()</text>
<text text-anchor="start" x="447.38" y="-7.5" font-family="Helvetica,sans-Serif" font-size="10.00">+ getCurrentStateName()</text>
</a>
</g>
</g>
<!-- Node3&#45;&gt;Node7 -->
<g id="edge9" class="edge">
<title>Node3&#45;&gt;Node7</title>
<path fill="none" stroke="#404040" d="M447.35,-149.37C448.77,-139.28 451.02,-129.35 454.38,-120 455.3,-117.43 456.37,-114.88 457.55,-112.37"/>
<polygon fill="none" stroke="#404040" points="457.67,-112.15 457.05,-104.97 463.45,-101.63 464.07,-108.82 457.67,-112.15"/>
<text text-anchor="middle" x="470.38" y="-123" font-family="Helvetica,sans-Serif" font-size="10.00"> &#45;actor</text>
</g>
<!-- Node4 -->
<g id="node4" class="node">
<title>Node4</title>
<g id="a_node4"><a xlink:href="classActor.html" target="_top" xlink:title=" ">
<polygon fill="none" stroke="black" points="527.38,-430.5 527.38,-652.5 677.38,-652.5 677.38,-430.5 527.38,-430.5"/>
<text text-anchor="middle" x="602.38" y="-640.5" font-family="Helvetica,sans-Serif" font-size="10.00">Actor</text>
<polyline fill="none" stroke="black" points="527.38,-633.5 677.38,-633.5 "/>
<text text-anchor="start" x="535.38" y="-621.5" font-family="Helvetica,sans-Serif" font-size="10.00">&#45; components</text>
<polyline fill="none" stroke="black" points="527.38,-614.5 677.38,-614.5 "/>
<text text-anchor="start" x="535.38" y="-602.5" font-family="Helvetica,sans-Serif" font-size="10.00">+ Actor()</text>
<text text-anchor="start" x="535.38" y="-591.5" font-family="Helvetica,sans-Serif" font-size="10.00">+ ~Actor()</text>
<text text-anchor="start" x="535.38" y="-580.5" font-family="Helvetica,sans-Serif" font-size="10.00">+ onCreate()</text>
<text text-anchor="start" x="535.38" y="-569.5" font-family="Helvetica,sans-Serif" font-size="10.00">+ onDestroy()</text>
<text text-anchor="start" x="535.38" y="-558.5" font-family="Helvetica,sans-Serif" font-size="10.00">+ update()</text>
<text text-anchor="start" x="535.38" y="-547.5" font-family="Helvetica,sans-Serif" font-size="10.00">+ draw()</text>
<text text-anchor="start" x="535.38" y="-536.5" font-family="Helvetica,sans-Serif" font-size="10.00">+ AddComponent()</text>
<text text-anchor="start" x="535.38" y="-525.5" font-family="Helvetica,sans-Serif" font-size="10.00">+ AddComponent()</text>
<text text-anchor="start" x="535.38" y="-514.5" font-family="Helvetica,sans-Serif" font-size="10.00">+ GetComponent()</text>
<text text-anchor="start" x="535.38" y="-503.5" font-family="Helvetica,sans-Serif" font-size="10.00">+ RemoveComponent()</text>
<text text-anchor="start" x="535.38" y="-492.5" font-family="Helvetica,sans-Serif" font-size="10.00">+ RemoveAllComponents()</text>
<text text-anchor="start" x="535.38" y="-481.5" font-family="Helvetica,sans-Serif" font-size="10.00">+ ListComponents()</text>
<text text-anchor="start" x="535.38" y="-470.5" font-family="Helvetica,sans-Serif" font-size="10.00">&#45; Actor()</text>
<text text-anchor="start" x="535.38" y="-459.5" font-family="Helvetica,sans-Serif" font-size="10.00">&#45; Actor()</text>
<text text-anchor="start" x="535.38" y="-448.5" font-family="Helvetica,sans-Serif" font-size="10.00">&#45; operator=()</text>
<text text-anchor="start" x="535.38" y="-437.5" font-family="Helvetica,sans-Serif" font-size="10.00">&#45; operator=()</text>
</a>
</g>
</g>
<!-- Node4&#45;&gt;Node3 -->
<g id="edge3" class="edge">
<title>Node4&#45;&gt;Node3</title>
<path fill="none" stroke="midnightblue" d="M545.55,-421.36C540.18,-410.7 534.74,-400.12 529.38,-390 526.18,-383.97 522.86,-377.81 519.46,-371.62"/>
<polygon fill="none" stroke="midnightblue" points="542.44,-422.94 550.05,-430.31 548.69,-419.8 542.44,-422.94"/>
</g>
<!-- Node5 -->
<g id="node5" class="node">
<title>Node5</title>
<g id="a_node5"><a xlink:href="classComponent.html" target="_top" xlink:title=" ">
<polygon fill="none" stroke="black" points="500.38,-700.5 500.38,-878.5 600.38,-878.5 600.38,-700.5 500.38,-700.5"/>
<text text-anchor="middle" x="550.38" y="-866.5" font-family="Helvetica,sans-Serif" font-size="10.00">Component</text>
<polyline fill="none" stroke="black" points="500.38,-859.5 600.38,-859.5 "/>
<text text-anchor="start" x="508.38" y="-847.5" font-family="Helvetica,sans-Serif" font-size="10.00"># isCreated</text>
<polyline fill="none" stroke="black" points="500.38,-840.5 600.38,-840.5 "/>
<text text-anchor="start" x="508.38" y="-828.5" font-family="Helvetica,sans-Serif" font-size="10.00">+ Component()</text>
<text text-anchor="start" x="508.38" y="-817.5" font-family="Helvetica,sans-Serif" font-size="10.00">+ ~Component()</text>
<text text-anchor="start" x="508.38" y="-806.5" font-family="Helvetica,sans-Serif" font-size="10.00">+ onCreate()</text>
<text text-anchor="start" x="508.38" y="-795.5" font-family="Helvetica,sans-Serif" font-size="10.00">+ onDestroy()</text>
<text text-anchor="start" x="508.38" y="-784.5" font-family="Helvetica,sans-Serif" font-size="10.00">+ update()</text>
<text text-anchor="start" x="508.38" y="-773.5" font-family="Helvetica,sans-Serif" font-size="10.00">+ draw()</text>
<text text-anchor="start" x="508.38" y="-762.5" font-family="Helvetica,sans-Serif" font-size="10.00">+ Component()</text>
<text text-anchor="start" x="508.38" y="-751.5" font-family="Helvetica,sans-Serif" font-size="10.00">+ ~Component()</text>
<text text-anchor="start" x="508.38" y="-740.5" font-family="Helvetica,sans-Serif" font-size="10.00">+ onCreate()</text>
<text text-anchor="start" x="508.38" y="-729.5" font-family="Helvetica,sans-Serif" font-size="10.00">+ onDestroy()</text>
<text text-anchor="start" x="508.38" y="-718.5" font-family="Helvetica,sans-Serif" font-size="10.00">+ update()</text>
<text text-anchor="start" x="508.38" y="-707.5" font-family="Helvetica,sans-Serif" font-size="10.00">+ draw()</text>
</a>
</g>
</g>
<!-- Node5&#45;&gt;Node4 -->
<g id="edge4" class="edge">
<title>Node5&#45;&gt;Node4</title>
<path fill="none" stroke="midnightblue" d="M571.09,-690.52C573.71,-678.1 576.41,-665.34 579.07,-652.75"/>
<polygon fill="none" stroke="midnightblue" points="567.65,-689.88 569,-700.38 574.5,-691.32 567.65,-689.88"/>
</g>
<!-- Node5&#45;&gt;Node5 -->
<g id="edge5" class="edge">
<title>Node5&#45;&gt;Node5</title>
<path fill="none" stroke="#404040" d="M600.49,-809.76C610.9,-807.63 618.38,-800.88 618.38,-789.5 618.38,-782.92 615.88,-777.89 611.76,-774.4"/>
<polygon fill="none" stroke="#404040" points="611.4,-774.24 604.28,-775.38 600.49,-769.24 607.61,-768.1 611.4,-774.24"/>
<text text-anchor="middle" x="639.88" y="-787" font-family="Helvetica,sans-Serif" font-size="10.00"> #parent</text>
</g>
<!-- Node6 -->
<g id="node6" class="node">
<title>Node6</title>
<g id="a_node6"><a xlink:href="classBState.html" target="_top" xlink:title=" ">
<polygon fill="none" stroke="black" points="679.38,-733.5 679.38,-845.5 783.38,-845.5 783.38,-733.5 679.38,-733.5"/>
<text text-anchor="middle" x="731.38" y="-833.5" font-family="Helvetica,sans-Serif" font-size="10.00">BState</text>
<polyline fill="none" stroke="black" points="679.38,-826.5 783.38,-826.5 "/>
<text text-anchor="start" x="687.38" y="-814.5" font-family="Helvetica,sans-Serif" font-size="10.00">&#45; transitions</text>
<text text-anchor="start" x="687.38" y="-803.5" font-family="Helvetica,sans-Serif" font-size="10.00">&#45; name</text>
<polyline fill="none" stroke="black" points="679.38,-796.5 783.38,-796.5 "/>
<text text-anchor="start" x="687.38" y="-784.5" font-family="Helvetica,sans-Serif" font-size="10.00">+ BState()</text>
<text text-anchor="start" x="687.38" y="-773.5" font-family="Helvetica,sans-Serif" font-size="10.00">+ ~BState()</text>
<text text-anchor="start" x="687.38" y="-762.5" font-family="Helvetica,sans-Serif" font-size="10.00">+ getTransitions()</text>
<text text-anchor="start" x="687.38" y="-751.5" font-family="Helvetica,sans-Serif" font-size="10.00">+ addTransition()</text>
<text text-anchor="start" x="687.38" y="-740.5" font-family="Helvetica,sans-Serif" font-size="10.00">+ getName()</text>
</a>
</g>
</g>
<!-- Node6&#45;&gt;Node3 -->
<g id="edge6" class="edge">
<title>Node6&#45;&gt;Node3</title>
<path fill="none" stroke="#404040" d="M729.74,-733.31C726.28,-645.84 715.93,-480.12 686.38,-430 656.14,-378.72 603.54,-338.5 556.16,-310.24"/>
<polygon fill="none" stroke="#404040" points="555.88,-310.08 548.68,-310.51 545.51,-304.04 552.71,-303.6 555.88,-310.08"/>
<text text-anchor="middle" x="754.88" y="-544.5" font-family="Helvetica,sans-Serif" font-size="10.00"> &#45;seekPlayer</text>
<text text-anchor="middle" x="754.88" y="-533.5" font-family="Helvetica,sans-Serif" font-size="10.00">&#45;wander</text>
</g>
<!-- Node6&#45;&gt;Node7 -->
<g id="edge8" class="edge">
<title>Node6&#45;&gt;Node7</title>
<path fill="none" stroke="#404040" d="M760.43,-733.4C771.52,-709.41 782.82,-680.52 788.38,-653 807.98,-555.85 818.58,-524.4 788.38,-430 746.89,-300.35 641.12,-178.9 572.66,-110.19"/>
<polygon fill="none" stroke="#404040" points="572.59,-110.12 565.52,-108.73 564.09,-101.66 571.16,-103.06 572.59,-110.12"/>
<text text-anchor="middle" x="814.88" y="-404" font-family="Helvetica,sans-Serif" font-size="10.00"> &#45;currentState</text>
<text text-anchor="middle" x="814.88" y="-393" font-family="Helvetica,sans-Serif" font-size="10.00">&#45;initialState</text>
</g>
<!-- Node6&#45;&gt;Node8 -->
<g id="edge11" class="edge">
<title>Node6&#45;&gt;Node8</title>
<path fill="none" stroke="#404040" d="M701.58,-733.06C692.88,-720.8 682.41,-708.84 670.38,-700 613.39,-658.14 573.53,-697.26 518.38,-653 500.36,-638.54 486.54,-617.44 476.51,-597.55"/>
<polygon fill="none" stroke="#404040" points="476.49,-597.5 470.29,-593.81 471.32,-586.67 477.51,-590.36 476.49,-597.5"/>
<text text-anchor="middle" x="662.38" y="-674" font-family="Helvetica,sans-Serif" font-size="10.00"> &#45;targetState</text>
</g>
<!-- Node7&#45;&gt;Node3 -->
<g id="edge7" class="edge">
<title>Node7&#45;&gt;Node3</title>
<path fill="none" stroke="#404040" d="M497.2,-101.72C494.26,-112.82 491.01,-125.08 487.66,-137.7"/>
<polygon fill="none" stroke="#404040" points="487.64,-137.77 489.97,-144.6 484.57,-149.37 482.24,-142.55 487.64,-137.77"/>
<text text-anchor="middle" x="526.88" y="-123" font-family="Helvetica,sans-Serif" font-size="10.00"> &#45;stateMachine</text>
</g>
<!-- Node8&#45;&gt;Node3 -->
<g id="edge10" class="edge">
<title>Node8&#45;&gt;Node3</title>
<path fill="none" stroke="#404040" d="M455.38,-496.29C455.38,-465.87 455.38,-423.87 455.38,-383.79"/>
<polygon fill="none" stroke="#404040" points="455.38,-383.71 451.38,-377.71 455.38,-371.71 459.38,-377.71 455.38,-383.71"/>
<text text-anchor="middle" x="490.38" y="-404" font-family="Helvetica,sans-Serif" font-size="10.00"> &#45;outTransition</text>
<text text-anchor="middle" x="490.38" y="-393" font-family="Helvetica,sans-Serif" font-size="10.00">&#45;inTransition</text>
</g>
<!-- Node9 -->
<g id="node9" class="node">
<title>Node9</title>
<g id="a_node9"><a xlink:title=" ">
<polygon fill="none" stroke="#bfbfbf" points="85.38,-513 85.38,-570 125.38,-570 125.38,-513 85.38,-513"/>
<text text-anchor="middle" x="105.38" y="-558" font-family="Helvetica,sans-Serif" font-size="10.00">vec3</text>
<polyline fill="none" stroke="#bfbfbf" points="85.38,-551 125.38,-551 "/>
<text text-anchor="middle" x="105.38" y="-539" font-family="Helvetica,sans-Serif" font-size="10.00"> </text>
<polyline fill="none" stroke="#bfbfbf" points="85.38,-532 125.38,-532 "/>
<text text-anchor="middle" x="105.38" y="-520" font-family="Helvetica,sans-Serif" font-size="10.00"> </text>
</a>
</g>
</g>
<!-- Node9&#45;&gt;Node3 -->
<g id="edge14" class="edge">
<title>Node9&#45;&gt;Node3</title>
<path fill="none" stroke="#404040" d="M106.8,-512.76C109.36,-488.57 116.36,-453.73 135.38,-430 190.8,-360.85 282.38,-316.73 353.4,-291.06"/>
<polygon fill="none" stroke="#404040" points="353.75,-290.94 358.07,-285.17 365.06,-286.94 360.74,-292.71 353.75,-290.94"/>
<text text-anchor="middle" x="198.38" y="-398.5" font-family="Helvetica,sans-Serif" font-size="10.00"> &#45;npc_colour</text>
</g>
</g>
</svg>
