<?xml version="1.0" encoding="UTF-8" standalone="no"?>
<!DOCTYPE svg PUBLIC "-//W3C//DTD SVG 1.1//EN"
 "http://www.w3.org/Graphics/SVG/1.1/DTD/svg11.dtd">
<!-- Generated by graphviz version 2.43.0 (0)
 -->
<!-- Title: LoadingPlayState Pages: 1 -->
<svg width="520pt" height="788pt"
 viewBox="0.00 0.00 520.00 788.00" xmlns="http://www.w3.org/2000/svg" xmlns:xlink="http://www.w3.org/1999/xlink">
<g id="graph0" class="graph" transform="scale(1 1) rotate(0) translate(4 784)">
<title>LoadingPlayState</title>
<!-- Node1 -->
<g id="node1" class="node">
<title>Node1</title>
<g id="a_node1"><a xlink:title=" ">
<polygon fill="#bfbfbf" stroke="black" points="50,-0.5 50,-134.5 178,-134.5 178,-0.5 50,-0.5"/>
<text text-anchor="middle" x="114" y="-122.5" font-family="Helvetica,sans-Serif" font-size="10.00">LoadingPlayState</text>
<polyline fill="none" stroke="black" points="50,-115.5 178,-115.5 "/>
<text text-anchor="start" x="58" y="-103.5" font-family="Helvetica,sans-Serif" font-size="10.00">&#45; finishedLoading</text>
<polyline fill="none" stroke="black" points="50,-96.5 178,-96.5 "/>
<text text-anchor="start" x="58" y="-84.5" font-family="Helvetica,sans-Serif" font-size="10.00">+ LoadingPlayState()</text>
<text text-anchor="start" x="58" y="-73.5" font-family="Helvetica,sans-Serif" font-size="10.00">+ Init()</text>
<text text-anchor="start" x="58" y="-62.5" font-family="Helvetica,sans-Serif" font-size="10.00">+ Input()</text>
<text text-anchor="start" x="58" y="-51.5" font-family="Helvetica,sans-Serif" font-size="10.00">+ Update()</text>
<text text-anchor="start" x="58" y="-40.5" font-family="Helvetica,sans-Serif" font-size="10.00">+ Render()</text>
<text text-anchor="start" x="58" y="-29.5" font-family="Helvetica,sans-Serif" font-size="10.00">+ SoundUpdate()</text>
<text text-anchor="start" x="58" y="-18.5" font-family="Helvetica,sans-Serif" font-size="10.00">+ DeleteData()</text>
<text text-anchor="start" x="58" y="-7.5" font-family="Helvetica,sans-Serif" font-size="10.00">+ ~LoadingPlayState()</text>
</a>
</g>
</g>
<!-- Node2 -->
<g id="node2" class="node">
<title>Node2</title>
<g id="a_node2"><a xlink:href="classState.html" target="_top" xlink:title=" ">
<polygon fill="none" stroke="black" points="47.5,-188 47.5,-300 148.5,-300 148.5,-188 47.5,-188"/>
<text text-anchor="middle" x="98" y="-288" font-family="Helvetica,sans-Serif" font-size="10.00">State</text>
<polyline fill="none" stroke="black" points="47.5,-281 148.5,-281 "/>
<text text-anchor="middle" x="98" y="-269" font-family="Helvetica,sans-Serif" font-size="10.00"> </text>
<polyline fill="none" stroke="black" points="47.5,-262 148.5,-262 "/>
<text text-anchor="start" x="55.5" y="-250" font-family="Helvetica,sans-Serif" font-size="10.00">+ Init()</text>
<text text-anchor="start" x="55.5" y="-239" font-family="Helvetica,sans-Serif" font-size="10.00">+ Input()</text>
<text text-anchor="start" x="55.5" y="-228" font-family="Helvetica,sans-Serif" font-size="10.00">+ SoundUpdate()</text>
<text text-anchor="start" x="55.5" y="-217" font-family="Helvetica,sans-Serif" font-size="10.00">+ Update()</text>
<text text-anchor="start" x="55.5" y="-206" font-family="Helvetica,sans-Serif" font-size="10.00">+ Render()</text>
<text text-anchor="start" x="55.5" y="-195" font-family="Helvetica,sans-Serif" font-size="10.00">+ DeleteData()</text>
</a>
</g>
</g>
<!-- Node2&#45;&gt;Node1 -->
<g id="edge1" class="edge">
<title>Node2&#45;&gt;Node1</title>
<path fill="none" stroke="midnightblue" d="M103.99,-177.71C105.28,-163.64 106.64,-148.76 107.93,-134.66"/>
<polygon fill="none" stroke="midnightblue" points="100.49,-177.51 103.06,-187.79 107.46,-178.15 100.49,-177.51"/>
</g>
<!-- Node3 -->
<g id="node3" class="node">
<title>Node3</title>
<g id="a_node3"><a xlink:href="structGameData.html" target="_top" xlink:title=" ">
<polygon fill="none" stroke="black" points="167,-182.5 167,-305.5 263,-305.5 263,-182.5 167,-182.5"/>
<text text-anchor="middle" x="215" y="-293.5" font-family="Helvetica,sans-Serif" font-size="10.00">GameData</text>
<polyline fill="none" stroke="black" points="167,-286.5 263,-286.5 "/>
<text text-anchor="start" x="175" y="-274.5" font-family="Helvetica,sans-Serif" font-size="10.00">+ window</text>
<text text-anchor="start" x="175" y="-263.5" font-family="Helvetica,sans-Serif" font-size="10.00">+ world</text>
<text text-anchor="start" x="175" y="-252.5" font-family="Helvetica,sans-Serif" font-size="10.00">+ state_switch</text>
<text text-anchor="start" x="175" y="-241.5" font-family="Helvetica,sans-Serif" font-size="10.00">+ level</text>
<polyline fill="none" stroke="black" points="167,-234.5 263,-234.5 "/>
<text text-anchor="start" x="175" y="-222.5" font-family="Helvetica,sans-Serif" font-size="10.00">+ GameData()</text>
<text text-anchor="start" x="175" y="-211.5" font-family="Helvetica,sans-Serif" font-size="10.00">+ GameData()</text>
<text text-anchor="start" x="175" y="-200.5" font-family="Helvetica,sans-Serif" font-size="10.00">+ GameData()</text>
<text text-anchor="start" x="175" y="-189.5" font-family="Helvetica,sans-Serif" font-size="10.00">+ ~GameData()</text>
</a>
</g>
</g>
<!-- Node3&#45;&gt;Node1 -->
<g id="edge2" class="edge">
<title>Node3&#45;&gt;Node1</title>
<path fill="none" stroke="#404040" d="M179.96,-182.46C172.97,-170.38 165.54,-157.56 158.29,-145.03"/>
<polygon fill="none" stroke="#404040" points="158.27,-144.98 151.8,-141.79 152.26,-134.59 158.72,-137.78 158.27,-144.98"/>
<text text-anchor="middle" x="185" y="-156" font-family="Helvetica,sans-Serif" font-size="10.00"> &#45;_data</text>
</g>
<!-- Node4 -->
<g id="node4" class="node">
<title>Node4</title>
<g id="a_node4"><a xlink:href="classStateMachine.html" target="_top" xlink:title=" ">
<polygon fill="none" stroke="black" points="0,-414 0,-581 110,-581 110,-414 0,-414"/>
<text text-anchor="middle" x="55" y="-569" font-family="Helvetica,sans-Serif" font-size="10.00">StateMachine</text>
<polyline fill="none" stroke="black" points="0,-562 110,-562 "/>
<text text-anchor="start" x="8" y="-550" font-family="Helvetica,sans-Serif" font-size="10.00">&#45; _states</text>
<text text-anchor="start" x="8" y="-539" font-family="Helvetica,sans-Serif" font-size="10.00">&#45; _newStates</text>
<text text-anchor="start" x="8" y="-528" font-family="Helvetica,sans-Serif" font-size="10.00">&#45; _isRemoving</text>
<text text-anchor="start" x="8" y="-517" font-family="Helvetica,sans-Serif" font-size="10.00">&#45; _isReplacing</text>
<text text-anchor="start" x="8" y="-506" font-family="Helvetica,sans-Serif" font-size="10.00">&#45; _isAdding</text>
<polyline fill="none" stroke="black" points="0,-499 110,-499 "/>
<text text-anchor="start" x="8" y="-487" font-family="Helvetica,sans-Serif" font-size="10.00">+ StateMachine()</text>
<text text-anchor="start" x="8" y="-476" font-family="Helvetica,sans-Serif" font-size="10.00">+ ~StateMachine()</text>
<text text-anchor="start" x="8" y="-465" font-family="Helvetica,sans-Serif" font-size="10.00">+ AddState()</text>
<text text-anchor="start" x="8" y="-454" font-family="Helvetica,sans-Serif" font-size="10.00">+ RemoveState()</text>
<text text-anchor="start" x="8" y="-443" font-family="Helvetica,sans-Serif" font-size="10.00">+ ProcessState()</text>
<text text-anchor="start" x="8" y="-432" font-family="Helvetica,sans-Serif" font-size="10.00">+ Clear()</text>
<text text-anchor="start" x="8" y="-421" font-family="Helvetica,sans-Serif" font-size="10.00">+ GetActiveState()</text>
</a>
</g>
</g>
<!-- Node4&#45;&gt;Node3 -->
<g id="edge3" class="edge">
<title>Node4&#45;&gt;Node3</title>
<path fill="none" stroke="#404040" d="M86.7,-413.79C95.95,-393.27 106.87,-371.79 119,-353 125.75,-342.54 141.7,-323.95 158.71,-305.11"/>
<polygon fill="none" stroke="#404040" points="158.76,-305.05 159.84,-297.92 166.83,-296.17 165.76,-303.3 158.76,-305.05"/>
<text text-anchor="middle" x="168" y="-327" font-family="Helvetica,sans-Serif" font-size="10.00"> +machine</text>
</g>
<!-- Node5 -->
<g id="node5" class="node">
<title>Node5</title>
<g id="a_node5"><a xlink:href="classLoadingGameObjects.html" target="_top" xlink:title=" ">
<polygon fill="none" stroke="black" points="128.5,-353.5 128.5,-641.5 301.5,-641.5 301.5,-353.5 128.5,-353.5"/>
<text text-anchor="middle" x="215" y="-629.5" font-family="Helvetica,sans-Serif" font-size="10.00">LoadingGameObjects</text>
<polyline fill="none" stroke="black" points="128.5,-622.5 301.5,-622.5 "/>
<text text-anchor="start" x="136.5" y="-610.5" font-family="Helvetica,sans-Serif" font-size="10.00">&#45; game_objects</text>
<text text-anchor="start" x="136.5" y="-599.5" font-family="Helvetica,sans-Serif" font-size="10.00">&#45; npc_game_objects</text>
<text text-anchor="start" x="136.5" y="-588.5" font-family="Helvetica,sans-Serif" font-size="10.00">&#45; platform_game_objects</text>
<text text-anchor="start" x="136.5" y="-577.5" font-family="Helvetica,sans-Serif" font-size="10.00">&#45; edge_game_objects</text>
<text text-anchor="start" x="136.5" y="-566.5" font-family="Helvetica,sans-Serif" font-size="10.00">&#45; tile_objects</text>
<text text-anchor="start" x="136.5" y="-555.5" font-family="Helvetica,sans-Serif" font-size="10.00">&#45; animation_actors</text>
<text text-anchor="start" x="136.5" y="-544.5" font-family="Helvetica,sans-Serif" font-size="10.00">&#45; count</text>
<text text-anchor="start" x="136.5" y="-533.5" font-family="Helvetica,sans-Serif" font-size="10.00">&#45; npc_count</text>
<text text-anchor="start" x="136.5" y="-522.5" font-family="Helvetica,sans-Serif" font-size="10.00">&#45; tileX_count</text>
<text text-anchor="start" x="136.5" y="-511.5" font-family="Helvetica,sans-Serif" font-size="10.00">&#45; tileY_count</text>
<text text-anchor="start" x="136.5" y="-500.5" font-family="Helvetica,sans-Serif" font-size="10.00">&#45; edgeTwoSided</text>
<polyline fill="none" stroke="black" points="128.5,-493.5 301.5,-493.5 "/>
<text text-anchor="start" x="136.5" y="-481.5" font-family="Helvetica,sans-Serif" font-size="10.00">+ LoadingGameObjects()</text>
<text text-anchor="start" x="136.5" y="-470.5" font-family="Helvetica,sans-Serif" font-size="10.00">+ ~LoadingGameObjects()</text>
<text text-anchor="start" x="136.5" y="-459.5" font-family="Helvetica,sans-Serif" font-size="10.00">+ Load_XML_SPLASH_SCREEN()</text>
<text text-anchor="start" x="136.5" y="-448.5" font-family="Helvetica,sans-Serif" font-size="10.00">+ Load_XML_ASSETS()</text>
<text text-anchor="start" x="136.5" y="-437.5" font-family="Helvetica,sans-Serif" font-size="10.00">+ generate_textures()</text>
<text text-anchor="start" x="136.5" y="-426.5" font-family="Helvetica,sans-Serif" font-size="10.00">+ return_game_objects()</text>
<text text-anchor="start" x="136.5" y="-415.5" font-family="Helvetica,sans-Serif" font-size="10.00">+ return_npc_game_objects()</text>
<text text-anchor="start" x="136.5" y="-404.5" font-family="Helvetica,sans-Serif" font-size="10.00">+ return_edge_game_objects()</text>
<text text-anchor="start" x="136.5" y="-393.5" font-family="Helvetica,sans-Serif" font-size="10.00">+ return_platform_game</text>
<text text-anchor="start" x="136.5" y="-382.5" font-family="Helvetica,sans-Serif" font-size="10.00">_objects()</text>
<text text-anchor="start" x="136.5" y="-371.5" font-family="Helvetica,sans-Serif" font-size="10.00">+ return_tile_objects()</text>
<text text-anchor="start" x="136.5" y="-360.5" font-family="Helvetica,sans-Serif" font-size="10.00">+ return_animation_actors()</text>
</a>
</g>
</g>
<!-- Node5&#45;&gt;Node3 -->
<g id="edge4" class="edge">
<title>Node5&#45;&gt;Node3</title>
<path fill="none" stroke="#404040" d="M215,-353.48C215,-341.14 215,-329.02 215,-317.62"/>
<polygon fill="none" stroke="#404040" points="215,-317.55 211,-311.55 215,-305.55 219,-311.55 215,-317.55"/>
<text text-anchor="middle" x="225.5" y="-327" font-family="Helvetica,sans-Serif" font-size="10.00"> +ld</text>
</g>
<!-- Node6 -->
<g id="node6" class="node">
<title>Node6</title>
<g id="a_node6"><a xlink:href="classOrthographic__camera.html" target="_top" xlink:title=" ">
<polygon fill="none" stroke="black" points="319.5,-419.5 319.5,-575.5 470.5,-575.5 470.5,-419.5 319.5,-419.5"/>
<text text-anchor="middle" x="395" y="-563.5" font-family="Helvetica,sans-Serif" font-size="10.00">Orthographic_camera</text>
<polyline fill="none" stroke="black" points="319.5,-556.5 470.5,-556.5 "/>
<text text-anchor="start" x="327.5" y="-544.5" font-family="Helvetica,sans-Serif" font-size="10.00">&#45; m_rotation</text>
<polyline fill="none" stroke="black" points="319.5,-537.5 470.5,-537.5 "/>
<text text-anchor="start" x="327.5" y="-525.5" font-family="Helvetica,sans-Serif" font-size="10.00">+ Orthographic_camera()</text>
<text text-anchor="start" x="327.5" y="-514.5" font-family="Helvetica,sans-Serif" font-size="10.00">+ ~Orthographic_camera()</text>
<text text-anchor="start" x="327.5" y="-503.5" font-family="Helvetica,sans-Serif" font-size="10.00">+ GetPosition()</text>
<text text-anchor="start" x="327.5" y="-492.5" font-family="Helvetica,sans-Serif" font-size="10.00">+ SetPosition()</text>
<text text-anchor="start" x="327.5" y="-481.5" font-family="Helvetica,sans-Serif" font-size="10.00">+ GetRotation()</text>
<text text-anchor="start" x="327.5" y="-470.5" font-family="Helvetica,sans-Serif" font-size="10.00">+ SetRotation()</text>
<text text-anchor="start" x="327.5" y="-459.5" font-family="Helvetica,sans-Serif" font-size="10.00">+ GetScale()</text>
<text text-anchor="start" x="327.5" y="-448.5" font-family="Helvetica,sans-Serif" font-size="10.00">+ SetScale()</text>
<text text-anchor="start" x="327.5" y="-437.5" font-family="Helvetica,sans-Serif" font-size="10.00">+ return_matrix()</text>
<text text-anchor="start" x="327.5" y="-426.5" font-family="Helvetica,sans-Serif" font-size="10.00">&#45; recalculate_view_matrix()</text>
</a>
</g>
</g>
<!-- Node6&#45;&gt;Node3 -->
<g id="edge5" class="edge">
<title>Node6&#45;&gt;Node3</title>
<path fill="none" stroke="#404040" d="M352.79,-419.22C339.86,-397.28 325.06,-373.73 310,-353 298.27,-336.85 284.61,-320.26 271.36,-305.08"/>
<polygon fill="none" stroke="#404040" points="271.13,-304.82 264.16,-302.97 263.19,-295.82 270.16,-297.67 271.13,-304.82"/>
<text text-anchor="middle" x="318" y="-327" font-family="Helvetica,sans-Serif" font-size="10.00"> +o_cam</text>
</g>
<!-- Node7 -->
<g id="node7" class="node">
<title>Node7</title>
<g id="a_node7"><a xlink:title=" ">
<polygon fill="none" stroke="#bfbfbf" points="242,-722.5 242,-779.5 284,-779.5 284,-722.5 242,-722.5"/>
<text text-anchor="middle" x="263" y="-767.5" font-family="Helvetica,sans-Serif" font-size="10.00">mat4</text>
<polyline fill="none" stroke="#bfbfbf" points="242,-760.5 284,-760.5 "/>
<text text-anchor="middle" x="263" y="-748.5" font-family="Helvetica,sans-Serif" font-size="10.00"> </text>
<polyline fill="none" stroke="#bfbfbf" points="242,-741.5 284,-741.5 "/>
<text text-anchor="middle" x="263" y="-729.5" font-family="Helvetica,sans-Serif" font-size="10.00"> </text>
</a>
</g>
</g>
<!-- Node7&#45;&gt;Node6 -->
<g id="edge6" class="edge">
<title>Node7&#45;&gt;Node6</title>
<path fill="none" stroke="#404040" d="M263.38,-722.24C264.88,-703.24 269.4,-678.27 282,-660 290.4,-647.82 299.73,-652.65 310,-642 325.76,-625.66 339.84,-605.86 351.79,-586.26"/>
<polygon fill="none" stroke="#404040" points="351.91,-586.06 351.52,-578.86 358.02,-575.74 358.41,-582.94 351.91,-586.06"/>
<text text-anchor="middle" x="336.5" y="-696" font-family="Helvetica,sans-Serif" font-size="10.00"> &#45;m_Projection_matrix</text>
<text text-anchor="middle" x="336.5" y="-685" font-family="Helvetica,sans-Serif" font-size="10.00">&#45;m_View_matrix</text>
<text text-anchor="start" x="282" y="-674" font-family="Helvetica,sans-Serif" font-size="10.00">&#45;m_View_Projection</text>
<text text-anchor="middle" x="336.5" y="-663" font-family="Helvetica,sans-Serif" font-size="10.00">_matrix</text>
</g>
<!-- Node8 -->
<g id="node8" class="node">
<title>Node8</title>
<g id="a_node8"><a xlink:title=" ">
<polygon fill="none" stroke="#bfbfbf" points="375,-722.5 375,-779.5 415,-779.5 415,-722.5 375,-722.5"/>
<text text-anchor="middle" x="395" y="-767.5" font-family="Helvetica,sans-Serif" font-size="10.00">vec2</text>
<polyline fill="none" stroke="#bfbfbf" points="375,-760.5 415,-760.5 "/>
<text text-anchor="middle" x="395" y="-748.5" font-family="Helvetica,sans-Serif" font-size="10.00"> </text>
<polyline fill="none" stroke="#bfbfbf" points="375,-741.5 415,-741.5 "/>
<text text-anchor="middle" x="395" y="-729.5" font-family="Helvetica,sans-Serif" font-size="10.00"> </text>
</a>
</g>
</g>
<!-- Node8&#45;&gt;Node6 -->
<g id="edge7" class="edge">
<title>Node8&#45;&gt;Node6</title>
<path fill="none" stroke="#404040" d="M395,-722.12C395,-689.83 395,-634.99 395,-587.71"/>
<polygon fill="none" stroke="#404040" points="395,-587.55 391,-581.55 395,-575.55 399,-581.55 395,-587.55"/>
<text text-anchor="middle" x="419" y="-679.5" font-family="Helvetica,sans-Serif" font-size="10.00"> &#45;m_scale</text>
</g>
<!-- Node9 -->
<g id="node9" class="node">
<title>Node9</title>
<g id="a_node9"><a xlink:title=" ">
<polygon fill="none" stroke="#bfbfbf" points="446,-722.5 446,-779.5 486,-779.5 486,-722.5 446,-722.5"/>
<text text-anchor="middle" x="466" y="-767.5" font-family="Helvetica,sans-Serif" font-size="10.00">vec3</text>
<polyline fill="none" stroke="#bfbfbf" points="446,-760.5 486,-760.5 "/>
<text text-anchor="middle" x="466" y="-748.5" font-family="Helvetica,sans-Serif" font-size="10.00"> </text>
<polyline fill="none" stroke="#bfbfbf" points="446,-741.5 486,-741.5 "/>
<text text-anchor="middle" x="466" y="-729.5" font-family="Helvetica,sans-Serif" font-size="10.00"> </text>
</a>
</g>
</g>
<!-- Node9&#45;&gt;Node6 -->
<g id="edge8" class="edge">
<title>Node9&#45;&gt;Node6</title>
<path fill="none" stroke="#404040" d="M459.65,-722.33C455.45,-704.47 449.69,-680.79 444,-660 437.55,-636.43 430.1,-611.07 422.99,-587.6"/>
<polygon fill="none" stroke="#404040" points="422.91,-587.36 417.34,-582.78 419.42,-575.88 424.99,-580.45 422.91,-587.36"/>
<text text-anchor="middle" x="483" y="-679.5" font-family="Helvetica,sans-Serif" font-size="10.00"> &#45;m_positon</text>
</g>
</g>
</svg>
