<?xml version="1.0" encoding="UTF-8" standalone="no"?>
<!DOCTYPE svg PUBLIC "-//W3C//DTD SVG 1.1//EN"
 "http://www.w3.org/Graphics/SVG/1.1/DTD/svg11.dtd">
<!-- Generated by graphviz version 2.43.0 (0)
 -->
<!-- Title: ConditionInRange Pages: 1 -->
<svg width="836pt" height="887pt"
 viewBox="0.00 0.00 835.64 887.00" xmlns="http://www.w3.org/2000/svg" xmlns:xlink="http://www.w3.org/1999/xlink">
<g id="graph0" class="graph" transform="scale(1 1) rotate(0) translate(4 883)">
<title>ConditionInRange</title>
<!-- Node1 -->
<g id="node1" class="node">
<title>Node1</title>
<g id="a_node1"><a xlink:title=" ">
<polygon fill="#bfbfbf" stroke="black" points="142.64,-507.5 142.64,-575.5 264.64,-575.5 264.64,-507.5 142.64,-507.5"/>
<text text-anchor="middle" x="203.64" y="-563.5" font-family="Helvetica,sans-Serif" font-size="10.00">ConditionInRange</text>
<polyline fill="none" stroke="black" points="142.64,-556.5 264.64,-556.5 "/>
<text text-anchor="middle" x="203.64" y="-544.5" font-family="Helvetica,sans-Serif" font-size="10.00"> </text>
<polyline fill="none" stroke="black" points="142.64,-537.5 264.64,-537.5 "/>
<text text-anchor="start" x="150.64" y="-525.5" font-family="Helvetica,sans-Serif" font-size="10.00">+ ConditionInRange()</text>
<text text-anchor="start" x="150.64" y="-514.5" font-family="Helvetica,sans-Serif" font-size="10.00">+ test()</text>
</a>
</g>
</g>
<!-- Node2 -->
<g id="node2" class="node">
<title>Node2</title>
<g id="a_node2"><a xlink:href="classCondition.html" target="_top" xlink:title=" ">
<polygon fill="none" stroke="black" points="207.64,-750 207.64,-829 297.64,-829 297.64,-750 207.64,-750"/>
<text text-anchor="middle" x="252.64" y="-817" font-family="Helvetica,sans-Serif" font-size="10.00">Condition</text>
<polyline fill="none" stroke="black" points="207.64,-810 297.64,-810 "/>
<text text-anchor="middle" x="252.64" y="-798" font-family="Helvetica,sans-Serif" font-size="10.00"> </text>
<polyline fill="none" stroke="black" points="207.64,-791 297.64,-791 "/>
<text text-anchor="start" x="215.64" y="-779" font-family="Helvetica,sans-Serif" font-size="10.00">+ Condition()</text>
<text text-anchor="start" x="215.64" y="-768" font-family="Helvetica,sans-Serif" font-size="10.00">+ ~Condition()</text>
<text text-anchor="start" x="215.64" y="-757" font-family="Helvetica,sans-Serif" font-size="10.00">+ test()</text>
</a>
</g>
</g>
<!-- Node2&#45;&gt;Node1 -->
<g id="edge1" class="edge">
<title>Node2&#45;&gt;Node1</title>
<path fill="none" stroke="midnightblue" d="M242.94,-739.83C233.28,-691.32 218.7,-618.13 210.28,-575.85"/>
<polygon fill="none" stroke="midnightblue" points="239.54,-740.67 244.93,-749.79 246.41,-739.3 239.54,-740.67"/>
</g>
<!-- Node3 -->
<g id="node3" class="node">
<title>Node3</title>
<g id="a_node3"><a xlink:href="classNPC__Actor.html" target="_top" xlink:title=" ">
<polygon fill="none" stroke="black" points="344.64,-149.5 344.64,-371.5 524.64,-371.5 524.64,-149.5 344.64,-149.5"/>
<text text-anchor="middle" x="434.64" y="-359.5" font-family="Helvetica,sans-Serif" font-size="10.00">NPC_Actor</text>
<polyline fill="none" stroke="black" points="344.64,-352.5 524.64,-352.5 "/>
<text text-anchor="start" x="352.64" y="-340.5" font-family="Helvetica,sans-Serif" font-size="10.00">&#45; health</text>
<text text-anchor="start" x="352.64" y="-329.5" font-family="Helvetica,sans-Serif" font-size="10.00">&#45; npc_collision</text>
<polyline fill="none" stroke="black" points="344.64,-322.5 524.64,-322.5 "/>
<text text-anchor="start" x="352.64" y="-310.5" font-family="Helvetica,sans-Serif" font-size="10.00">+ NPC_Actor()</text>
<text text-anchor="start" x="352.64" y="-299.5" font-family="Helvetica,sans-Serif" font-size="10.00">+ ~NPC_Actor()</text>
<text text-anchor="start" x="352.64" y="-288.5" font-family="Helvetica,sans-Serif" font-size="10.00">+ onCreate()</text>
<text text-anchor="start" x="352.64" y="-277.5" font-family="Helvetica,sans-Serif" font-size="10.00">+ onDestroy()</text>
<text text-anchor="start" x="352.64" y="-266.5" font-family="Helvetica,sans-Serif" font-size="10.00">+ update()</text>
<text text-anchor="start" x="352.64" y="-255.5" font-family="Helvetica,sans-Serif" font-size="10.00">+ input()</text>
<text text-anchor="start" x="352.64" y="-244.5" font-family="Helvetica,sans-Serif" font-size="10.00">+ draw()</text>
<text text-anchor="start" x="352.64" y="-233.5" font-family="Helvetica,sans-Serif" font-size="10.00">+ collison_update()</text>
<text text-anchor="start" x="352.64" y="-222.5" font-family="Helvetica,sans-Serif" font-size="10.00">+ get_health()</text>
<text text-anchor="start" x="352.64" y="-211.5" font-family="Helvetica,sans-Serif" font-size="10.00">+ set_health()</text>
<text text-anchor="start" x="352.64" y="-200.5" font-family="Helvetica,sans-Serif" font-size="10.00">+ get_collision()</text>
<text text-anchor="start" x="352.64" y="-189.5" font-family="Helvetica,sans-Serif" font-size="10.00">+ set_collision()</text>
<text text-anchor="start" x="352.64" y="-178.5" font-family="Helvetica,sans-Serif" font-size="10.00">+ set_colour()</text>
<text text-anchor="start" x="352.64" y="-167.5" font-family="Helvetica,sans-Serif" font-size="10.00">+ checkDistanceBetweenPlayer()</text>
<text text-anchor="start" x="352.64" y="-156.5" font-family="Helvetica,sans-Serif" font-size="10.00">+ readStateMachine()</text>
</a>
</g>
</g>
<!-- Node2&#45;&gt;Node3 -->
<g id="edge13" class="edge">
<title>Node2&#45;&gt;Node3</title>
<path fill="none" stroke="#404040" d="M258.67,-749.71C272.88,-658.48 307.54,-437.38 310.64,-430 317.97,-412.53 327.47,-395.18 337.94,-378.63"/>
<polygon fill="none" stroke="#404040" points="338.03,-378.49 337.95,-371.28 344.57,-368.43 344.65,-375.64 338.03,-378.49"/>
<text text-anchor="middle" x="341.64" y="-544.5" font-family="Helvetica,sans-Serif" font-size="10.00"> &#45;ifInRange</text>
<text text-anchor="middle" x="341.64" y="-533.5" font-family="Helvetica,sans-Serif" font-size="10.00">&#45;outOfRange</text>
</g>
<!-- Node8 -->
<g id="node8" class="node">
<title>Node8</title>
<g id="a_node8"><a xlink:href="classTransition.html" target="_top" xlink:title=" ">
<polygon fill="none" stroke="black" points="381.14,-496.5 381.14,-586.5 488.14,-586.5 488.14,-496.5 381.14,-496.5"/>
<text text-anchor="middle" x="434.64" y="-574.5" font-family="Helvetica,sans-Serif" font-size="10.00">Transition</text>
<polyline fill="none" stroke="black" points="381.14,-567.5 488.14,-567.5 "/>
<text text-anchor="middle" x="434.64" y="-555.5" font-family="Helvetica,sans-Serif" font-size="10.00"> </text>
<polyline fill="none" stroke="black" points="381.14,-548.5 488.14,-548.5 "/>
<text text-anchor="start" x="389.14" y="-536.5" font-family="Helvetica,sans-Serif" font-size="10.00">+ Transition()</text>
<text text-anchor="start" x="389.14" y="-525.5" font-family="Helvetica,sans-Serif" font-size="10.00">+ ~Transition()</text>
<text text-anchor="start" x="389.14" y="-514.5" font-family="Helvetica,sans-Serif" font-size="10.00">+ isTriggered()</text>
<text text-anchor="start" x="389.14" y="-503.5" font-family="Helvetica,sans-Serif" font-size="10.00">+ getTargetState()</text>
</a>
</g>
</g>
<!-- Node2&#45;&gt;Node8 -->
<g id="edge12" class="edge">
<title>Node2&#45;&gt;Node8</title>
<path fill="none" stroke="#404040" d="M287.91,-749.73C311.29,-723.28 342.07,-687.02 366.64,-653 379.37,-635.37 392.17,-615.32 403.18,-597.18"/>
<polygon fill="none" stroke="#404040" points="403.26,-597.05 402.92,-589.84 409.44,-586.76 409.78,-593.96 403.26,-597.05"/>
<text text-anchor="middle" x="377.64" y="-674" font-family="Helvetica,sans-Serif" font-size="10.00"> &#45;condition</text>
</g>
<!-- Node3&#45;&gt;Node2 -->
<g id="edge2" class="edge">
<title>Node3&#45;&gt;Node2</title>
<path fill="none" stroke="#404040" d="M344.58,-271.47C250.17,-287.26 106.33,-327.64 38.64,-430 -16.03,-512.67 -9.15,-566.17 38.64,-653 71.85,-713.35 144.55,-750.58 195.97,-770.38"/>
<polygon fill="none" stroke="#404040" points="196,-770.4 203.02,-768.74 207.25,-774.58 200.23,-776.24 196,-770.4"/>
<text text-anchor="middle" x="57.14" y="-539" font-family="Helvetica,sans-Serif" font-size="10.00"> #actor</text>
</g>
<!-- Node7 -->
<g id="node7" class="node">
<title>Node7</title>
<g id="a_node7"><a xlink:href="classBStateMachine.html" target="_top" xlink:title=" ">
<polygon fill="none" stroke="black" points="418.64,-0.5 418.64,-101.5 560.64,-101.5 560.64,-0.5 418.64,-0.5"/>
<text text-anchor="middle" x="489.64" y="-89.5" font-family="Helvetica,sans-Serif" font-size="10.00">BStateMachine</text>
<polyline fill="none" stroke="black" points="418.64,-82.5 560.64,-82.5 "/>
<text text-anchor="middle" x="489.64" y="-70.5" font-family="Helvetica,sans-Serif" font-size="10.00"> </text>
<polyline fill="none" stroke="black" points="418.64,-63.5 560.64,-63.5 "/>
<text text-anchor="start" x="426.64" y="-51.5" font-family="Helvetica,sans-Serif" font-size="10.00">+ BStateMachine()</text>
<text text-anchor="start" x="426.64" y="-40.5" font-family="Helvetica,sans-Serif" font-size="10.00">+ ~BStateMachine()</text>
<text text-anchor="start" x="426.64" y="-29.5" font-family="Helvetica,sans-Serif" font-size="10.00">+ setInitialState()</text>
<text text-anchor="start" x="426.64" y="-18.5" font-family="Helvetica,sans-Serif" font-size="10.00">+ update()</text>
<text text-anchor="start" x="426.64" y="-7.5" font-family="Helvetica,sans-Serif" font-size="10.00">+ getCurrentStateName()</text>
</a>
</g>
</g>
<!-- Node3&#45;&gt;Node7 -->
<g id="edge9" class="edge">
<title>Node3&#45;&gt;Node7</title>
<path fill="none" stroke="#404040" d="M426.61,-149.37C428.03,-139.28 430.28,-129.35 433.64,-120 434.56,-117.43 435.63,-114.88 436.81,-112.37"/>
<polygon fill="none" stroke="#404040" points="436.93,-112.15 436.31,-104.97 442.71,-101.63 443.33,-108.82 436.93,-112.15"/>
<text text-anchor="middle" x="449.64" y="-123" font-family="Helvetica,sans-Serif" font-size="10.00"> &#45;actor</text>
</g>
<!-- Node4 -->
<g id="node4" class="node">
<title>Node4</title>
<g id="a_node4"><a xlink:href="classActor.html" target="_top" xlink:title=" ">
<polygon fill="none" stroke="black" points="506.64,-430.5 506.64,-652.5 656.64,-652.5 656.64,-430.5 506.64,-430.5"/>
<text text-anchor="middle" x="581.64" y="-640.5" font-family="Helvetica,sans-Serif" font-size="10.00">Actor</text>
<polyline fill="none" stroke="black" points="506.64,-633.5 656.64,-633.5 "/>
<text text-anchor="start" x="514.64" y="-621.5" font-family="Helvetica,sans-Serif" font-size="10.00">&#45; components</text>
<polyline fill="none" stroke="black" points="506.64,-614.5 656.64,-614.5 "/>
<text text-anchor="start" x="514.64" y="-602.5" font-family="Helvetica,sans-Serif" font-size="10.00">+ Actor()</text>
<text text-anchor="start" x="514.64" y="-591.5" font-family="Helvetica,sans-Serif" font-size="10.00">+ ~Actor()</text>
<text text-anchor="start" x="514.64" y="-580.5" font-family="Helvetica,sans-Serif" font-size="10.00">+ onCreate()</text>
<text text-anchor="start" x="514.64" y="-569.5" font-family="Helvetica,sans-Serif" font-size="10.00">+ onDestroy()</text>
<text text-anchor="start" x="514.64" y="-558.5" font-family="Helvetica,sans-Serif" font-size="10.00">+ update()</text>
<text text-anchor="start" x="514.64" y="-547.5" font-family="Helvetica,sans-Serif" font-size="10.00">+ draw()</text>
<text text-anchor="start" x="514.64" y="-536.5" font-family="Helvetica,sans-Serif" font-size="10.00">+ AddComponent()</text>
<text text-anchor="start" x="514.64" y="-525.5" font-family="Helvetica,sans-Serif" font-size="10.00">+ AddComponent()</text>
<text text-anchor="start" x="514.64" y="-514.5" font-family="Helvetica,sans-Serif" font-size="10.00">+ GetComponent()</text>
<text text-anchor="start" x="514.64" y="-503.5" font-family="Helvetica,sans-Serif" font-size="10.00">+ RemoveComponent()</text>
<text text-anchor="start" x="514.64" y="-492.5" font-family="Helvetica,sans-Serif" font-size="10.00">+ RemoveAllComponents()</text>
<text text-anchor="start" x="514.64" y="-481.5" font-family="Helvetica,sans-Serif" font-size="10.00">+ ListComponents()</text>
<text text-anchor="start" x="514.64" y="-470.5" font-family="Helvetica,sans-Serif" font-size="10.00">&#45; Actor()</text>
<text text-anchor="start" x="514.64" y="-459.5" font-family="Helvetica,sans-Serif" font-size="10.00">&#45; Actor()</text>
<text text-anchor="start" x="514.64" y="-448.5" font-family="Helvetica,sans-Serif" font-size="10.00">&#45; operator=()</text>
<text text-anchor="start" x="514.64" y="-437.5" font-family="Helvetica,sans-Serif" font-size="10.00">&#45; operator=()</text>
</a>
</g>
</g>
<!-- Node4&#45;&gt;Node3 -->
<g id="edge3" class="edge">
<title>Node4&#45;&gt;Node3</title>
<path fill="none" stroke="midnightblue" d="M524.81,-421.36C519.44,-410.7 514,-400.12 508.64,-390 505.44,-383.97 502.12,-377.81 498.72,-371.62"/>
<polygon fill="none" stroke="midnightblue" points="521.69,-422.94 529.31,-430.31 527.95,-419.8 521.69,-422.94"/>
</g>
<!-- Node5 -->
<g id="node5" class="node">
<title>Node5</title>
<g id="a_node5"><a xlink:href="classComponent.html" target="_top" xlink:title=" ">
<polygon fill="none" stroke="black" points="479.64,-700.5 479.64,-878.5 579.64,-878.5 579.64,-700.5 479.64,-700.5"/>
<text text-anchor="middle" x="529.64" y="-866.5" font-family="Helvetica,sans-Serif" font-size="10.00">Component</text>
<polyline fill="none" stroke="black" points="479.64,-859.5 579.64,-859.5 "/>
<text text-anchor="start" x="487.64" y="-847.5" font-family="Helvetica,sans-Serif" font-size="10.00"># isCreated</text>
<polyline fill="none" stroke="black" points="479.64,-840.5 579.64,-840.5 "/>
<text text-anchor="start" x="487.64" y="-828.5" font-family="Helvetica,sans-Serif" font-size="10.00">+ Component()</text>
<text text-anchor="start" x="487.64" y="-817.5" font-family="Helvetica,sans-Serif" font-size="10.00">+ ~Component()</text>
<text text-anchor="start" x="487.64" y="-806.5" font-family="Helvetica,sans-Serif" font-size="10.00">+ onCreate()</text>
<text text-anchor="start" x="487.64" y="-795.5" font-family="Helvetica,sans-Serif" font-size="10.00">+ onDestroy()</text>
<text text-anchor="start" x="487.64" y="-784.5" font-family="Helvetica,sans-Serif" font-size="10.00">+ update()</text>
<text text-anchor="start" x="487.64" y="-773.5" font-family="Helvetica,sans-Serif" font-size="10.00">+ draw()</text>
<text text-anchor="start" x="487.64" y="-762.5" font-family="Helvetica,sans-Serif" font-size="10.00">+ Component()</text>
<text text-anchor="start" x="487.64" y="-751.5" font-family="Helvetica,sans-Serif" font-size="10.00">+ ~Component()</text>
<text text-anchor="start" x="487.64" y="-740.5" font-family="Helvetica,sans-Serif" font-size="10.00">+ onCreate()</text>
<text text-anchor="start" x="487.64" y="-729.5" font-family="Helvetica,sans-Serif" font-size="10.00">+ onDestroy()</text>
<text text-anchor="start" x="487.64" y="-718.5" font-family="Helvetica,sans-Serif" font-size="10.00">+ update()</text>
<text text-anchor="start" x="487.64" y="-707.5" font-family="Helvetica,sans-Serif" font-size="10.00">+ draw()</text>
</a>
</g>
</g>
<!-- Node5&#45;&gt;Node4 -->
<g id="edge4" class="edge">
<title>Node5&#45;&gt;Node4</title>
<path fill="none" stroke="midnightblue" d="M550.35,-690.52C552.97,-678.1 555.67,-665.34 558.33,-652.75"/>
<polygon fill="none" stroke="midnightblue" points="546.91,-689.88 548.26,-700.38 553.76,-691.32 546.91,-689.88"/>
</g>
<!-- Node5&#45;&gt;Node5 -->
<g id="edge5" class="edge">
<title>Node5&#45;&gt;Node5</title>
<path fill="none" stroke="#404040" d="M579.75,-809.76C590.16,-807.63 597.64,-800.88 597.64,-789.5 597.64,-782.92 595.14,-777.89 591.02,-774.4"/>
<polygon fill="none" stroke="#404040" points="590.66,-774.24 583.54,-775.38 579.75,-769.24 586.87,-768.1 590.66,-774.24"/>
<text text-anchor="middle" x="619.14" y="-787" font-family="Helvetica,sans-Serif" font-size="10.00"> #parent</text>
</g>
<!-- Node6 -->
<g id="node6" class="node">
<title>Node6</title>
<g id="a_node6"><a xlink:href="classBState.html" target="_top" xlink:title=" ">
<polygon fill="none" stroke="black" points="658.64,-733.5 658.64,-845.5 762.64,-845.5 762.64,-733.5 658.64,-733.5"/>
<text text-anchor="middle" x="710.64" y="-833.5" font-family="Helvetica,sans-Serif" font-size="10.00">BState</text>
<polyline fill="none" stroke="black" points="658.64,-826.5 762.64,-826.5 "/>
<text text-anchor="start" x="666.64" y="-814.5" font-family="Helvetica,sans-Serif" font-size="10.00">&#45; transitions</text>
<text text-anchor="start" x="666.64" y="-803.5" font-family="Helvetica,sans-Serif" font-size="10.00">&#45; name</text>
<polyline fill="none" stroke="black" points="658.64,-796.5 762.64,-796.5 "/>
<text text-anchor="start" x="666.64" y="-784.5" font-family="Helvetica,sans-Serif" font-size="10.00">+ BState()</text>
<text text-anchor="start" x="666.64" y="-773.5" font-family="Helvetica,sans-Serif" font-size="10.00">+ ~BState()</text>
<text text-anchor="start" x="666.64" y="-762.5" font-family="Helvetica,sans-Serif" font-size="10.00">+ getTransitions()</text>
<text text-anchor="start" x="666.64" y="-751.5" font-family="Helvetica,sans-Serif" font-size="10.00">+ addTransition()</text>
<text text-anchor="start" x="666.64" y="-740.5" font-family="Helvetica,sans-Serif" font-size="10.00">+ getName()</text>
</a>
</g>
</g>
<!-- Node6&#45;&gt;Node3 -->
<g id="edge6" class="edge">
<title>Node6&#45;&gt;Node3</title>
<path fill="none" stroke="#404040" d="M709,-733.31C705.54,-645.84 695.19,-480.12 665.64,-430 635.4,-378.72 582.8,-338.5 535.42,-310.24"/>
<polygon fill="none" stroke="#404040" points="535.14,-310.08 527.94,-310.51 524.77,-304.04 531.97,-303.6 535.14,-310.08"/>
<text text-anchor="middle" x="734.14" y="-544.5" font-family="Helvetica,sans-Serif" font-size="10.00"> &#45;seekPlayer</text>
<text text-anchor="middle" x="734.14" y="-533.5" font-family="Helvetica,sans-Serif" font-size="10.00">&#45;wander</text>
</g>
<!-- Node6&#45;&gt;Node7 -->
<g id="edge8" class="edge">
<title>Node6&#45;&gt;Node7</title>
<path fill="none" stroke="#404040" d="M739.69,-733.4C750.78,-709.41 762.08,-680.52 767.64,-653 787.24,-555.85 797.84,-524.4 767.64,-430 726.15,-300.35 620.38,-178.9 551.92,-110.19"/>
<polygon fill="none" stroke="#404040" points="551.85,-110.12 544.78,-108.73 543.35,-101.66 550.42,-103.06 551.85,-110.12"/>
<text text-anchor="middle" x="794.14" y="-404" font-family="Helvetica,sans-Serif" font-size="10.00"> &#45;currentState</text>
<text text-anchor="middle" x="794.14" y="-393" font-family="Helvetica,sans-Serif" font-size="10.00">&#45;initialState</text>
</g>
<!-- Node6&#45;&gt;Node8 -->
<g id="edge11" class="edge">
<title>Node6&#45;&gt;Node8</title>
<path fill="none" stroke="#404040" d="M680.84,-733.06C672.14,-720.8 661.67,-708.84 649.64,-700 592.65,-658.14 552.79,-697.26 497.64,-653 479.62,-638.54 465.8,-617.44 455.77,-597.55"/>
<polygon fill="none" stroke="#404040" points="455.75,-597.5 449.55,-593.81 450.58,-586.67 456.77,-590.36 455.75,-597.5"/>
<text text-anchor="middle" x="641.64" y="-674" font-family="Helvetica,sans-Serif" font-size="10.00"> &#45;targetState</text>
</g>
<!-- Node7&#45;&gt;Node3 -->
<g id="edge7" class="edge">
<title>Node7&#45;&gt;Node3</title>
<path fill="none" stroke="#404040" d="M476.46,-101.72C473.52,-112.82 470.27,-125.08 466.92,-137.7"/>
<polygon fill="none" stroke="#404040" points="466.9,-137.77 469.23,-144.6 463.83,-149.37 461.5,-142.55 466.9,-137.77"/>
<text text-anchor="middle" x="506.14" y="-123" font-family="Helvetica,sans-Serif" font-size="10.00"> &#45;stateMachine</text>
</g>
<!-- Node8&#45;&gt;Node3 -->
<g id="edge10" class="edge">
<title>Node8&#45;&gt;Node3</title>
<path fill="none" stroke="#404040" d="M434.64,-496.29C434.64,-465.87 434.64,-423.87 434.64,-383.79"/>
<polygon fill="none" stroke="#404040" points="434.64,-383.71 430.64,-377.71 434.64,-371.71 438.64,-377.71 434.64,-383.71"/>
<text text-anchor="middle" x="469.64" y="-404" font-family="Helvetica,sans-Serif" font-size="10.00"> &#45;outTransition</text>
<text text-anchor="middle" x="469.64" y="-393" font-family="Helvetica,sans-Serif" font-size="10.00">&#45;inTransition</text>
</g>
<!-- Node9 -->
<g id="node9" class="node">
<title>Node9</title>
<g id="a_node9"><a xlink:title=" ">
<polygon fill="none" stroke="#bfbfbf" points="84.64,-513 84.64,-570 124.64,-570 124.64,-513 84.64,-513"/>
<text text-anchor="middle" x="104.64" y="-558" font-family="Helvetica,sans-Serif" font-size="10.00">vec3</text>
<polyline fill="none" stroke="#bfbfbf" points="84.64,-551 124.64,-551 "/>
<text text-anchor="middle" x="104.64" y="-539" font-family="Helvetica,sans-Serif" font-size="10.00"> </text>
<polyline fill="none" stroke="#bfbfbf" points="84.64,-532 124.64,-532 "/>
<text text-anchor="middle" x="104.64" y="-520" font-family="Helvetica,sans-Serif" font-size="10.00"> </text>
</a>
</g>
</g>
<!-- Node9&#45;&gt;Node3 -->
<g id="edge14" class="edge">
<title>Node9&#45;&gt;Node3</title>
<path fill="none" stroke="#404040" d="M105.92,-512.89C108.33,-488.78 115.07,-454 133.64,-430 184.05,-364.85 267.18,-321.07 333.32,-294.5"/>
<polygon fill="none" stroke="#404040" points="333.45,-294.45 337.57,-288.53 344.61,-290.06 340.49,-295.98 333.45,-294.45"/>
<text text-anchor="middle" x="194.64" y="-398.5" font-family="Helvetica,sans-Serif" font-size="10.00"> &#45;npc_colour</text>
</g>
</g>
</svg>
