<?xml version="1.0" encoding="UTF-8" standalone="no"?>
<!DOCTYPE svg PUBLIC "-//W3C//DTD SVG 1.1//EN"
 "http://www.w3.org/Graphics/SVG/1.1/DTD/svg11.dtd">
<!-- Generated by graphviz version 2.43.0 (0)
 -->
<!-- Title: /home/fnky/C0de/component_engine/include/BStateMachine/ConditionInRange.h Pages: 1 -->
<svg width="991pt" height="362pt"
 viewBox="0.00 0.00 991.00 362.00" xmlns="http://www.w3.org/2000/svg" xmlns:xlink="http://www.w3.org/1999/xlink">
<g id="graph0" class="graph" transform="scale(1 1) rotate(0) translate(4 358)">
<title>/home/fnky/C0de/component_engine/include/BStateMachine/ConditionInRange.h</title>
<!-- Node1 -->
<g id="node1" class="node">
<title>Node1</title>
<g id="a_node1"><a xlink:title=" ">
<polygon fill="#bfbfbf" stroke="black" points="628.5,-312.5 628.5,-353.5 798.5,-353.5 798.5,-312.5 628.5,-312.5"/>
<text text-anchor="start" x="636.5" y="-341.5" font-family="Helvetica,sans-Serif" font-size="10.00">/home/fnky/C0de/component</text>
<text text-anchor="start" x="636.5" y="-330.5" font-family="Helvetica,sans-Serif" font-size="10.00">_engine/include/BStateMachine</text>
<text text-anchor="middle" x="713.5" y="-319.5" font-family="Helvetica,sans-Serif" font-size="10.00">/ConditionInRange.h</text>
</a>
</g>
</g>
<!-- Node2 -->
<g id="node2" class="node">
<title>Node2</title>
<g id="a_node2"><a xlink:href="BStateMachine_8h.html" target="_top" xlink:title=" ">
<polygon fill="none" stroke="black" points="628.5,-234.5 628.5,-275.5 798.5,-275.5 798.5,-234.5 628.5,-234.5"/>
<text text-anchor="start" x="636.5" y="-263.5" font-family="Helvetica,sans-Serif" font-size="10.00">/home/fnky/C0de/component</text>
<text text-anchor="start" x="636.5" y="-252.5" font-family="Helvetica,sans-Serif" font-size="10.00">_engine/include/BStateMachine</text>
<text text-anchor="middle" x="713.5" y="-241.5" font-family="Helvetica,sans-Serif" font-size="10.00">/BStateMachine.h</text>
</a>
</g>
</g>
<!-- Node1&#45;&gt;Node2 -->
<g id="edge1" class="edge">
<title>Node1&#45;&gt;Node2</title>
<path fill="none" stroke="midnightblue" d="M713.5,-302.3C713.5,-293.3 713.5,-283.65 713.5,-275.51"/>
<polygon fill="midnightblue" stroke="midnightblue" points="710,-302.43 713.5,-312.43 717,-302.43 710,-302.43"/>
</g>
<!-- Node3 -->
<g id="node3" class="node">
<title>Node3</title>
<g id="a_node3"><a xlink:href="NPC__Actor_8h.html" target="_top" xlink:title=" ">
<polygon fill="none" stroke="black" points="476,-156.5 476,-197.5 633,-197.5 633,-156.5 476,-156.5"/>
<text text-anchor="start" x="484" y="-185.5" font-family="Helvetica,sans-Serif" font-size="10.00">/home/fnky/C0de/component</text>
<text text-anchor="start" x="484" y="-174.5" font-family="Helvetica,sans-Serif" font-size="10.00">_engine/include/Actors</text>
<text text-anchor="middle" x="554.5" y="-163.5" font-family="Helvetica,sans-Serif" font-size="10.00">/NPC_Actor.h</text>
</a>
</g>
</g>
<!-- Node1&#45;&gt;Node3 -->
<g id="edge15" class="edge">
<title>Node1&#45;&gt;Node3</title>
<path fill="none" stroke="midnightblue" d="M663.16,-307.56C648.12,-298.86 632.26,-288.16 619.5,-276 595.11,-252.76 575.16,-218.77 564.06,-197.54"/>
<polygon fill="midnightblue" stroke="midnightblue" points="661.45,-310.62 671.88,-312.45 664.87,-304.51 661.45,-310.62"/>
</g>
<!-- Node10 -->
<g id="node10" class="node">
<title>Node10</title>
<g id="a_node10"><a xlink:href="ConditionInRange_8cpp.html" target="_top" xlink:title=" ">
<polygon fill="none" stroke="black" points="826,-78.5 826,-119.5 983,-119.5 983,-78.5 826,-78.5"/>
<text text-anchor="start" x="834" y="-107.5" font-family="Helvetica,sans-Serif" font-size="10.00">/home/fnky/C0de/component</text>
<text text-anchor="start" x="834" y="-96.5" font-family="Helvetica,sans-Serif" font-size="10.00">_engine/src/BStateMachine</text>
<text text-anchor="middle" x="904.5" y="-85.5" font-family="Helvetica,sans-Serif" font-size="10.00">/ConditionInRange.cpp</text>
</a>
</g>
</g>
<!-- Node1&#45;&gt;Node10 -->
<g id="edge16" class="edge">
<title>Node1&#45;&gt;Node10</title>
<path fill="none" stroke="midnightblue" d="M766.1,-307.24C780.66,-298.73 795.69,-288.21 807.5,-276 853.58,-228.35 884.69,-154.48 897.67,-119.56"/>
<polygon fill="midnightblue" stroke="midnightblue" points="764.13,-304.33 757.13,-312.28 767.56,-310.43 764.13,-304.33"/>
</g>
<!-- Node2&#45;&gt;Node3 -->
<g id="edge2" class="edge">
<title>Node2&#45;&gt;Node3</title>
<path fill="none" stroke="midnightblue" d="M663.39,-230.05C641.46,-219.57 616.06,-207.42 595.31,-197.51"/>
<polygon fill="midnightblue" stroke="midnightblue" points="662.02,-233.27 672.55,-234.43 665.04,-226.96 662.02,-233.27"/>
</g>
<!-- Node9 -->
<g id="node9" class="node">
<title>Node9</title>
<g id="a_node9"><a xlink:href="BStateMachine_8cpp.html" target="_top" xlink:title=" ">
<polygon fill="none" stroke="black" points="651,-78.5 651,-119.5 808,-119.5 808,-78.5 651,-78.5"/>
<text text-anchor="start" x="659" y="-107.5" font-family="Helvetica,sans-Serif" font-size="10.00">/home/fnky/C0de/component</text>
<text text-anchor="start" x="659" y="-96.5" font-family="Helvetica,sans-Serif" font-size="10.00">_engine/src/BStateMachine</text>
<text text-anchor="middle" x="729.5" y="-85.5" font-family="Helvetica,sans-Serif" font-size="10.00">/BStateMachine.cpp</text>
</a>
</g>
</g>
<!-- Node2&#45;&gt;Node9 -->
<g id="edge14" class="edge">
<title>Node2&#45;&gt;Node9</title>
<path fill="none" stroke="midnightblue" d="M716.58,-224.36C719.77,-193.61 724.68,-146.36 727.44,-119.83"/>
<polygon fill="midnightblue" stroke="midnightblue" points="713.08,-224.19 715.53,-234.5 720.04,-224.91 713.08,-224.19"/>
</g>
<!-- Node4 -->
<g id="node4" class="node">
<title>Node4</title>
<g id="a_node4"><a xlink:href="Projectile__Acotr_8h.html" target="_top" xlink:title=" ">
<polygon fill="none" stroke="black" points="262,-78.5 262,-119.5 419,-119.5 419,-78.5 262,-78.5"/>
<text text-anchor="start" x="270" y="-107.5" font-family="Helvetica,sans-Serif" font-size="10.00">/home/fnky/C0de/component</text>
<text text-anchor="start" x="270" y="-96.5" font-family="Helvetica,sans-Serif" font-size="10.00">_engine/include/Actors</text>
<text text-anchor="middle" x="340.5" y="-85.5" font-family="Helvetica,sans-Serif" font-size="10.00">/Projectile_Acotr.h</text>
</a>
</g>
</g>
<!-- Node3&#45;&gt;Node4 -->
<g id="edge3" class="edge">
<title>Node3&#45;&gt;Node4</title>
<path fill="none" stroke="midnightblue" d="M489.81,-153.03C459.69,-142.33 424.23,-129.73 395.42,-119.51"/>
<polygon fill="midnightblue" stroke="midnightblue" points="488.79,-156.38 499.39,-156.43 491.14,-149.78 488.79,-156.38"/>
</g>
<!-- Node6 -->
<g id="node6" class="node">
<title>Node6</title>
<g id="a_node6"><a xlink:href="NPC__Actor_8cpp.html" target="_top" xlink:title=" ">
<polygon fill="none" stroke="black" points="0,-0.5 0,-41.5 157,-41.5 157,-0.5 0,-0.5"/>
<text text-anchor="start" x="8" y="-29.5" font-family="Helvetica,sans-Serif" font-size="10.00">/home/fnky/C0de/component</text>
<text text-anchor="start" x="8" y="-18.5" font-family="Helvetica,sans-Serif" font-size="10.00">_engine/src/Actors/NPC</text>
<text text-anchor="middle" x="78.5" y="-7.5" font-family="Helvetica,sans-Serif" font-size="10.00">_Actor.cpp</text>
</a>
</g>
</g>
<!-- Node3&#45;&gt;Node6 -->
<g id="edge8" class="edge">
<title>Node3&#45;&gt;Node6</title>
<path fill="none" stroke="midnightblue" d="M465.4,-174.39C402.41,-169.82 317.88,-156.51 252.5,-120 230.52,-107.73 235.09,-92.48 214.5,-78 192.78,-62.72 166.26,-50.62 142.43,-41.62"/>
<polygon fill="midnightblue" stroke="midnightblue" points="465.51,-177.91 475.71,-175.08 465.97,-170.92 465.51,-177.91"/>
</g>
<!-- Node8 -->
<g id="node8" class="node">
<title>Node8</title>
<g id="a_node8"><a xlink:href="game__play__state_8cpp.html" target="_top" xlink:title=" ">
<polygon fill="none" stroke="black" points="525,-0.5 525,-41.5 682,-41.5 682,-0.5 525,-0.5"/>
<text text-anchor="start" x="533" y="-29.5" font-family="Helvetica,sans-Serif" font-size="10.00">/home/fnky/C0de/component</text>
<text text-anchor="start" x="533" y="-18.5" font-family="Helvetica,sans-Serif" font-size="10.00">_engine/src/States/game</text>
<text text-anchor="middle" x="603.5" y="-7.5" font-family="Helvetica,sans-Serif" font-size="10.00">_play_state.cpp</text>
</a>
</g>
</g>
<!-- Node3&#45;&gt;Node8 -->
<g id="edge13" class="edge">
<title>Node3&#45;&gt;Node8</title>
<path fill="none" stroke="midnightblue" d="M496.99,-151.13C484.8,-143.04 473.51,-132.77 466.5,-120 457.52,-103.64 456.09,-93.5 466.5,-78 475.17,-65.09 506.25,-51.88 536.62,-41.53"/>
<polygon fill="midnightblue" stroke="midnightblue" points="495.19,-154.12 505.54,-156.38 498.85,-148.16 495.19,-154.12"/>
</g>
<!-- Node3&#45;&gt;Node9 -->
<g id="edge9" class="edge">
<title>Node3&#45;&gt;Node9</title>
<path fill="none" stroke="midnightblue" d="M609.01,-152.33C633.29,-141.78 661.54,-129.51 684.59,-119.51"/>
<polygon fill="midnightblue" stroke="midnightblue" points="607.35,-149.23 599.57,-156.43 610.13,-155.65 607.35,-149.23"/>
</g>
<!-- Node3&#45;&gt;Node10 -->
<g id="edge10" class="edge">
<title>Node3&#45;&gt;Node10</title>
<path fill="none" stroke="midnightblue" d="M643.13,-157.5C694.16,-146.76 759.49,-132.84 817.5,-120 820.22,-119.4 822.99,-118.78 825.79,-118.15"/>
<polygon fill="midnightblue" stroke="midnightblue" points="642.18,-154.12 633.12,-159.61 643.62,-160.97 642.18,-154.12"/>
</g>
<!-- Node11 -->
<g id="node11" class="node">
<title>Node11</title>
<g id="a_node11"><a xlink:href="ConditionOutOfRange_8cpp.html" target="_top" xlink:title=" ">
<polygon fill="none" stroke="black" points="476,-78.5 476,-119.5 633,-119.5 633,-78.5 476,-78.5"/>
<text text-anchor="start" x="484" y="-107.5" font-family="Helvetica,sans-Serif" font-size="10.00">/home/fnky/C0de/component</text>
<text text-anchor="start" x="484" y="-96.5" font-family="Helvetica,sans-Serif" font-size="10.00">_engine/src/BStateMachine</text>
<text text-anchor="middle" x="554.5" y="-85.5" font-family="Helvetica,sans-Serif" font-size="10.00">/ConditionOutOfRange.cpp</text>
</a>
</g>
</g>
<!-- Node3&#45;&gt;Node11 -->
<g id="edge11" class="edge">
<title>Node3&#45;&gt;Node11</title>
<path fill="none" stroke="midnightblue" d="M554.5,-146.3C554.5,-137.3 554.5,-127.65 554.5,-119.51"/>
<polygon fill="midnightblue" stroke="midnightblue" points="551,-146.43 554.5,-156.43 558,-146.43 551,-146.43"/>
</g>
<!-- Node12 -->
<g id="node12" class="node">
<title>Node12</title>
<g id="a_node12"><a xlink:href="LoadingGameObjects_8cpp.html" target="_top" xlink:title=" ">
<polygon fill="none" stroke="black" points="21.5,-78.5 21.5,-119.5 205.5,-119.5 205.5,-78.5 21.5,-78.5"/>
<text text-anchor="start" x="29.5" y="-107.5" font-family="Helvetica,sans-Serif" font-size="10.00">/home/fnky/C0de/component</text>
<text text-anchor="start" x="29.5" y="-96.5" font-family="Helvetica,sans-Serif" font-size="10.00">_engine/src/Loaders/LoadingGame</text>
<text text-anchor="middle" x="113.5" y="-85.5" font-family="Helvetica,sans-Serif" font-size="10.00">Objects.cpp</text>
</a>
</g>
</g>
<!-- Node3&#45;&gt;Node12 -->
<g id="edge12" class="edge">
<title>Node3&#45;&gt;Node12</title>
<path fill="none" stroke="midnightblue" d="M465.72,-161.68C398.15,-150.65 302.88,-134.83 219.5,-120 214.98,-119.2 210.36,-118.36 205.69,-117.51"/>
<polygon fill="midnightblue" stroke="midnightblue" points="465.47,-165.18 475.9,-163.34 466.6,-158.27 465.47,-165.18"/>
</g>
<!-- Node5 -->
<g id="node5" class="node">
<title>Node5</title>
<g id="a_node5"><a xlink:href="Gun__Actor_8cpp.html" target="_top" xlink:title=" ">
<polygon fill="none" stroke="black" points="350,-0.5 350,-41.5 507,-41.5 507,-0.5 350,-0.5"/>
<text text-anchor="start" x="358" y="-29.5" font-family="Helvetica,sans-Serif" font-size="10.00">/home/fnky/C0de/component</text>
<text text-anchor="start" x="358" y="-18.5" font-family="Helvetica,sans-Serif" font-size="10.00">_engine/src/Actors/Gun</text>
<text text-anchor="middle" x="428.5" y="-7.5" font-family="Helvetica,sans-Serif" font-size="10.00">_Actor.cpp</text>
</a>
</g>
</g>
<!-- Node4&#45;&gt;Node5 -->
<g id="edge4" class="edge">
<title>Node4&#45;&gt;Node5</title>
<path fill="none" stroke="midnightblue" d="M370.86,-71.78C382.37,-61.84 395.25,-50.72 405.91,-41.51"/>
<polygon fill="midnightblue" stroke="midnightblue" points="368.44,-69.24 363.16,-78.43 373.02,-74.54 368.44,-69.24"/>
</g>
<!-- Node4&#45;&gt;Node6 -->
<g id="edge5" class="edge">
<title>Node4&#45;&gt;Node6</title>
<path fill="none" stroke="midnightblue" d="M263.21,-75.58C225.92,-64.76 181.62,-51.91 145.74,-41.51"/>
<polygon fill="midnightblue" stroke="midnightblue" points="262.45,-79 273.03,-78.43 264.4,-72.28 262.45,-79"/>
</g>
<!-- Node7 -->
<g id="node7" class="node">
<title>Node7</title>
<g id="a_node7"><a xlink:href="Projectile__Actor_8cpp.html" target="_top" xlink:title=" ">
<polygon fill="none" stroke="black" points="175,-0.5 175,-41.5 332,-41.5 332,-0.5 175,-0.5"/>
<text text-anchor="start" x="183" y="-29.5" font-family="Helvetica,sans-Serif" font-size="10.00">/home/fnky/C0de/component</text>
<text text-anchor="start" x="183" y="-18.5" font-family="Helvetica,sans-Serif" font-size="10.00">_engine/src/Actors/Projectile</text>
<text text-anchor="middle" x="253.5" y="-7.5" font-family="Helvetica,sans-Serif" font-size="10.00">_Actor.cpp</text>
</a>
</g>
</g>
<!-- Node4&#45;&gt;Node7 -->
<g id="edge6" class="edge">
<title>Node4&#45;&gt;Node7</title>
<path fill="none" stroke="midnightblue" d="M310.48,-71.78C299.11,-61.84 286.37,-50.72 275.83,-41.51"/>
<polygon fill="midnightblue" stroke="midnightblue" points="308.26,-74.49 318.1,-78.43 312.87,-69.21 308.26,-74.49"/>
</g>
<!-- Node4&#45;&gt;Node8 -->
<g id="edge7" class="edge">
<title>Node4&#45;&gt;Node8</title>
<path fill="none" stroke="midnightblue" d="M418.08,-75.58C455.51,-64.76 499.99,-51.91 536,-41.51"/>
<polygon fill="midnightblue" stroke="midnightblue" points="416.86,-72.29 408.23,-78.43 418.81,-79.01 416.86,-72.29"/>
</g>
</g>
</svg>
