<?xml version="1.0" encoding="UTF-8" standalone="no"?>
<!DOCTYPE svg PUBLIC "-//W3C//DTD SVG 1.1//EN"
 "http://www.w3.org/Graphics/SVG/1.1/DTD/svg11.dtd">
<!-- Generated by graphviz version 2.43.0 (0)
 -->
<!-- Title: /home/fnky/C0de/component_engine/include/States Pages: 1 -->
<svg width="94pt" height="151pt"
 viewBox="0.00 0.00 94.00 151.00" xmlns="http://www.w3.org/2000/svg" xmlns:xlink="http://www.w3.org/1999/xlink">
<g id="graph0" class="graph" transform="scale(1 1) rotate(0) translate(4 147)">
<title>/home/fnky/C0de/component_engine/include/States</title>
<g id="clust1" class="cluster">
<title>clusterdir_d44c64559bbebec7f509842c48db8b23</title>
<g id="a_clust1"><a xlink:href="dir_d44c64559bbebec7f509842c48db8b23.html" target="_top" xlink:title="include">
<polygon fill="#ddddee" stroke="black" points="8,-64 8,-135 78,-135 78,-64 8,-64"/>
<text text-anchor="middle" x="43" y="-123" font-family="Helvetica,sans-Serif" font-size="10.00">include</text>
</a>
</g>
</g>
<!-- dir_ba8a1d5a6323abb109cc1cd03548b282 -->
<g id="node1" class="node">
<title>dir_ba8a1d5a6323abb109cc1cd03548b282</title>
<g id="a_node1"><a xlink:href="dir_ba8a1d5a6323abb109cc1cd03548b282.html" target="_top" xlink:title="States">
<polygon fill="#eeeeff" stroke="black" points="70,-108 16,-108 16,-72 70,-72 70,-108"/>
<text text-anchor="middle" x="43" y="-87.5" font-family="Helvetica,sans-Serif" font-size="10.00">States</text>
</a>
</g>
</g>
<!-- dir_0e829f624c4b46d63701ea67b68089e3 -->
<g id="node2" class="node">
<title>dir_0e829f624c4b46d63701ea67b68089e3</title>
<g id="a_node2"><a xlink:href="dir_0e829f624c4b46d63701ea67b68089e3.html" target="_top" xlink:title="GameData">
<polygon fill="none" stroke="black" points="77.5,-36 8.5,-36 8.5,0 77.5,0 77.5,-36"/>
<text text-anchor="middle" x="43" y="-15.5" font-family="Helvetica,sans-Serif" font-size="10.00">GameData</text>
</a>
</g>
</g>
<!-- dir_ba8a1d5a6323abb109cc1cd03548b282&#45;&gt;dir_0e829f624c4b46d63701ea67b68089e3 -->
<g id="edge2" class="edge">
<title>dir_ba8a1d5a6323abb109cc1cd03548b282&#45;&gt;dir_0e829f624c4b46d63701ea67b68089e3</title>
<path fill="none" stroke="black" d="M37.08,-71.7C36.29,-63.98 36.06,-54.71 36.4,-46.11"/>
<polygon fill="black" stroke="black" points="39.9,-46.32 37.1,-36.1 32.92,-45.84 39.9,-46.32"/>
<g id="a_edge2&#45;headlabel"><a xlink:href="dir_000010_000005.html" target="_top" xlink:title="5">
<text text-anchor="middle" x="42.48" y="-47.61" font-family="Helvetica,sans-Serif" font-size="10.00">5</text>
</a>
</g>
</g>
<!-- dir_0e829f624c4b46d63701ea67b68089e3&#45;&gt;dir_ba8a1d5a6323abb109cc1cd03548b282 -->
<g id="edge1" class="edge">
<title>dir_0e829f624c4b46d63701ea67b68089e3&#45;&gt;dir_ba8a1d5a6323abb109cc1cd03548b282</title>
<path fill="none" stroke="black" d="M48.9,-36.1C49.7,-43.79 49.94,-53.05 49.6,-61.67"/>
<polygon fill="black" stroke="black" points="46.11,-61.48 48.92,-71.7 53.09,-61.96 46.11,-61.48"/>
<g id="a_edge1&#45;headlabel"><a xlink:href="dir_000005_000010.html" target="_top" xlink:title="1">
<text text-anchor="middle" x="43.52" y="-55.2" font-family="Helvetica,sans-Serif" font-size="10.00">1</text>
</a>
</g>
</g>
</g>
</svg>
