<?xml version="1.0" encoding="UTF-8" standalone="no"?>
<!DOCTYPE svg PUBLIC "-//W3C//DTD SVG 1.1//EN"
 "http://www.w3.org/Graphics/SVG/1.1/DTD/svg11.dtd">
<!-- Generated by graphviz version 2.43.0 (0)
 -->
<!-- Title: /home/fnky/C0de/component_engine/src/Actors/Gun_Actor.cpp Pages: 1 -->
<svg width="3087pt" height="419pt"
 viewBox="0.00 0.00 3087.00 419.00" xmlns="http://www.w3.org/2000/svg" xmlns:xlink="http://www.w3.org/1999/xlink">
<g id="graph0" class="graph" transform="scale(1 1) rotate(0) translate(4 415)">
<title>/home/fnky/C0de/component_engine/src/Actors/Gun_Actor.cpp</title>
<!-- Node1 -->
<g id="node1" class="node">
<title>Node1</title>
<g id="a_node1"><a xlink:title=" ">
<polygon fill="#bfbfbf" stroke="black" points="1201,-369.5 1201,-410.5 1358,-410.5 1358,-369.5 1201,-369.5"/>
<text text-anchor="start" x="1209" y="-398.5" font-family="Helvetica,sans-Serif" font-size="10.00">/home/fnky/C0de/component</text>
<text text-anchor="start" x="1209" y="-387.5" font-family="Helvetica,sans-Serif" font-size="10.00">_engine/src/Actors/Gun</text>
<text text-anchor="middle" x="1279.5" y="-376.5" font-family="Helvetica,sans-Serif" font-size="10.00">_Actor.cpp</text>
</a>
</g>
</g>
<!-- Node2 -->
<g id="node2" class="node">
<title>Node2</title>
<g id="a_node2"><a xlink:href="Shader__Actor_8h.html" target="_top" xlink:title=" ">
<polygon fill="none" stroke="black" points="963.5,-235.5 963.5,-265.5 1067.5,-265.5 1067.5,-235.5 963.5,-235.5"/>
<text text-anchor="start" x="971.5" y="-253.5" font-family="Helvetica,sans-Serif" font-size="10.00">../../include/Actors</text>
<text text-anchor="middle" x="1015.5" y="-242.5" font-family="Helvetica,sans-Serif" font-size="10.00">/Shader_Actor.h</text>
</a>
</g>
</g>
<!-- Node1&#45;&gt;Node2 -->
<g id="edge1" class="edge">
<title>Node1&#45;&gt;Node2</title>
<path fill="none" stroke="midnightblue" d="M1241.96,-369.45C1191.27,-343.05 1101.56,-296.33 1051.62,-270.31"/>
<polygon fill="midnightblue" stroke="midnightblue" points="1052.97,-267.07 1042.48,-265.55 1049.73,-273.28 1052.97,-267.07"/>
</g>
<!-- Node4 -->
<g id="node4" class="node">
<title>Node4</title>
<g id="a_node4"><a xlink:title=" ">
<polygon fill="none" stroke="#bfbfbf" points="1021.5,-56.5 1021.5,-75.5 1079.5,-75.5 1079.5,-56.5 1021.5,-56.5"/>
<text text-anchor="middle" x="1050.5" y="-63.5" font-family="Helvetica,sans-Serif" font-size="10.00">memory</text>
</a>
</g>
</g>
<!-- Node1&#45;&gt;Node4 -->
<g id="edge89" class="edge">
<title>Node1&#45;&gt;Node4</title>
<path fill="none" stroke="midnightblue" d="M1200.86,-384.47C990.64,-371.3 431.5,-329.01 431.5,-251.5 431.5,-251.5 431.5,-251.5 431.5,-188 431.5,-153.29 423.1,-134.53 449.5,-112 492.12,-75.62 884.28,-68.62 1011.12,-67.3"/>
<polygon fill="midnightblue" stroke="midnightblue" points="1011.21,-70.8 1021.18,-67.2 1011.14,-63.8 1011.21,-70.8"/>
</g>
<!-- Node9 -->
<g id="node9" class="node">
<title>Node9</title>
<g id="a_node9"><a xlink:href="Gun__Actor_8h.html" target="_top" xlink:title=" ">
<polygon fill="none" stroke="black" points="1085.5,-235.5 1085.5,-265.5 1189.5,-265.5 1189.5,-235.5 1085.5,-235.5"/>
<text text-anchor="start" x="1093.5" y="-253.5" font-family="Helvetica,sans-Serif" font-size="10.00">../../include/Actors</text>
<text text-anchor="middle" x="1137.5" y="-242.5" font-family="Helvetica,sans-Serif" font-size="10.00">/Gun_Actor.h</text>
</a>
</g>
</g>
<!-- Node1&#45;&gt;Node9 -->
<g id="edge10" class="edge">
<title>Node1&#45;&gt;Node9</title>
<path fill="none" stroke="midnightblue" d="M1259.15,-369.3C1232.77,-343.75 1186.92,-299.35 1159.67,-272.97"/>
<polygon fill="midnightblue" stroke="midnightblue" points="1161.8,-270.16 1152.18,-265.72 1156.93,-275.19 1161.8,-270.16"/>
</g>
<!-- Node11 -->
<g id="node11" class="node">
<title>Node11</title>
<g id="a_node11"><a xlink:href="Projectile__Acotr_8h.html" target="_top" xlink:title=" ">
<polygon fill="none" stroke="black" points="809.5,-302.5 809.5,-332.5 913.5,-332.5 913.5,-302.5 809.5,-302.5"/>
<text text-anchor="start" x="817.5" y="-320.5" font-family="Helvetica,sans-Serif" font-size="10.00">../../include/Actors</text>
<text text-anchor="middle" x="861.5" y="-309.5" font-family="Helvetica,sans-Serif" font-size="10.00">/Projectile_Acotr.h</text>
</a>
</g>
</g>
<!-- Node1&#45;&gt;Node11 -->
<g id="edge16" class="edge">
<title>Node1&#45;&gt;Node11</title>
<path fill="none" stroke="midnightblue" d="M1200.88,-375.74C1120.58,-362.2 997.54,-341.44 923.75,-329"/>
<polygon fill="midnightblue" stroke="midnightblue" points="924.12,-325.51 913.68,-327.3 922.95,-332.41 924.12,-325.51"/>
</g>
<!-- Node23 -->
<g id="node23" class="node">
<title>Node23</title>
<g id="a_node23"><a xlink:href="TransformComponent_8h.html" target="_top" xlink:title=" ">
<polygon fill="none" stroke="black" points="1236.5,-302.5 1236.5,-332.5 1370.5,-332.5 1370.5,-302.5 1236.5,-302.5"/>
<text text-anchor="start" x="1244.5" y="-320.5" font-family="Helvetica,sans-Serif" font-size="10.00">../../include/Components</text>
<text text-anchor="middle" x="1303.5" y="-309.5" font-family="Helvetica,sans-Serif" font-size="10.00">/TransformComponent.h</text>
</a>
</g>
</g>
<!-- Node1&#45;&gt;Node23 -->
<g id="edge47" class="edge">
<title>Node1&#45;&gt;Node23</title>
<path fill="none" stroke="midnightblue" d="M1286.19,-369.36C1289.02,-361.05 1292.34,-351.28 1295.32,-342.53"/>
<polygon fill="midnightblue" stroke="midnightblue" points="1298.69,-343.49 1298.6,-332.89 1292.06,-341.23 1298.69,-343.49"/>
</g>
<!-- Node25 -->
<g id="node25" class="node">
<title>Node25</title>
<g id="a_node25"><a xlink:href="ShaderComponent_8h.html" target="_top" xlink:title=" ">
<polygon fill="none" stroke="black" points="1934.5,-235.5 1934.5,-265.5 2068.5,-265.5 2068.5,-235.5 1934.5,-235.5"/>
<text text-anchor="start" x="1942.5" y="-253.5" font-family="Helvetica,sans-Serif" font-size="10.00">../../include/Components</text>
<text text-anchor="middle" x="2001.5" y="-242.5" font-family="Helvetica,sans-Serif" font-size="10.00">/ShaderComponent.h</text>
</a>
</g>
</g>
<!-- Node1&#45;&gt;Node25 -->
<g id="edge51" class="edge">
<title>Node1&#45;&gt;Node25</title>
<path fill="none" stroke="midnightblue" d="M1358.31,-384.52C1453.02,-378.04 1616.36,-363.32 1753.5,-333 1826.31,-316.91 1907.97,-287.83 1957.03,-269.11"/>
<polygon fill="midnightblue" stroke="midnightblue" points="1958.31,-272.37 1966.39,-265.52 1955.8,-265.84 1958.31,-272.37"/>
</g>
<!-- Node28 -->
<g id="node28" class="node">
<title>Node28</title>
<g id="a_node28"><a xlink:href="RenderComponent_8h.html" target="_top" xlink:title=" ">
<polygon fill="none" stroke="black" points="1610.5,-302.5 1610.5,-332.5 1744.5,-332.5 1744.5,-302.5 1610.5,-302.5"/>
<text text-anchor="start" x="1618.5" y="-320.5" font-family="Helvetica,sans-Serif" font-size="10.00">../../include/Components</text>
<text text-anchor="middle" x="1677.5" y="-309.5" font-family="Helvetica,sans-Serif" font-size="10.00">/RenderComponent.h</text>
</a>
</g>
</g>
<!-- Node1&#45;&gt;Node28 -->
<g id="edge56" class="edge">
<title>Node1&#45;&gt;Node28</title>
<path fill="none" stroke="midnightblue" d="M1358.13,-375.07C1428.31,-362.64 1530.47,-344.54 1600.23,-332.19"/>
<polygon fill="midnightblue" stroke="midnightblue" points="1601.04,-335.6 1610.28,-330.41 1599.82,-328.71 1601.04,-335.6"/>
</g>
<!-- Node37 -->
<g id="node37" class="node">
<title>Node37</title>
<g id="a_node37"><a xlink:href="PhysicsComponent_8h.html" target="_top" xlink:title=" ">
<polygon fill="none" stroke="black" points="2286.5,-235.5 2286.5,-265.5 2420.5,-265.5 2420.5,-235.5 2286.5,-235.5"/>
<text text-anchor="start" x="2294.5" y="-253.5" font-family="Helvetica,sans-Serif" font-size="10.00">../../include/Components</text>
<text text-anchor="middle" x="2353.5" y="-242.5" font-family="Helvetica,sans-Serif" font-size="10.00">/PhysicsComponent.h</text>
</a>
</g>
</g>
<!-- Node1&#45;&gt;Node37 -->
<g id="edge78" class="edge">
<title>Node1&#45;&gt;Node37</title>
<path fill="none" stroke="midnightblue" d="M1358.32,-382.1C1464.1,-372.57 1657.76,-354.12 1822.5,-333 1984.32,-312.25 2172.92,-281.8 2276.15,-264.6"/>
<polygon fill="midnightblue" stroke="midnightblue" points="2276.89,-268.03 2286.17,-262.93 2275.73,-261.12 2276.89,-268.03"/>
</g>
<!-- Node3 -->
<g id="node3" class="node">
<title>Node3</title>
<g id="a_node3"><a xlink:href="Components_2Component_8h.html" target="_top" xlink:title=" ">
<polygon fill="none" stroke="black" points="1026,-118 1026,-137 1181,-137 1181,-118 1026,-118"/>
<text text-anchor="middle" x="1103.5" y="-125" font-family="Helvetica,sans-Serif" font-size="10.00">../Components/Component.h</text>
</a>
</g>
</g>
<!-- Node2&#45;&gt;Node3 -->
<g id="edge2" class="edge">
<title>Node2&#45;&gt;Node3</title>
<path fill="none" stroke="midnightblue" d="M1039.66,-235.34C1053.04,-226.42 1069.04,-213.79 1079.5,-199 1090.56,-183.35 1096.86,-162.19 1100.2,-147.15"/>
<polygon fill="midnightblue" stroke="midnightblue" points="1103.7,-147.52 1102.21,-137.03 1096.83,-146.15 1103.7,-147.52"/>
</g>
<!-- Node2&#45;&gt;Node4 -->
<g id="edge9" class="edge">
<title>Node2&#45;&gt;Node4</title>
<path fill="none" stroke="midnightblue" d="M1026.67,-235.43C1033.59,-225.79 1041.83,-212.37 1045.5,-199 1047.85,-190.43 1048.46,-187.38 1045.5,-179 1038.67,-159.62 1023.33,-162.38 1016.5,-143 1011.92,-130.01 1012.12,-125.06 1016.5,-112 1020.1,-101.25 1027.4,-91.02 1034.32,-83.04"/>
<polygon fill="midnightblue" stroke="midnightblue" points="1036.98,-85.32 1041.21,-75.61 1031.85,-80.56 1036.98,-85.32"/>
</g>
<!-- Node5 -->
<g id="node5" class="node">
<title>Node5</title>
<g id="a_node5"><a xlink:href="Actor_8h.html" target="_top" xlink:title=" ">
<polygon fill="none" stroke="black" points="777.5,-179.5 777.5,-198.5 827.5,-198.5 827.5,-179.5 777.5,-179.5"/>
<text text-anchor="middle" x="802.5" y="-186.5" font-family="Helvetica,sans-Serif" font-size="10.00">Actor.h</text>
</a>
</g>
</g>
<!-- Node2&#45;&gt;Node5 -->
<g id="edge4" class="edge">
<title>Node2&#45;&gt;Node5</title>
<path fill="none" stroke="midnightblue" d="M965.29,-235.47C925.89,-224.47 872.06,-209.43 837.28,-199.72"/>
<polygon fill="midnightblue" stroke="midnightblue" points="838.15,-196.32 827.57,-197 836.26,-203.07 838.15,-196.32"/>
</g>
<!-- Node8 -->
<g id="node8" class="node">
<title>Node8</title>
<g id="a_node8"><a xlink:title=" ">
<polygon fill="none" stroke="#bfbfbf" points="960,-179.5 960,-198.5 1037,-198.5 1037,-179.5 960,-179.5"/>
<text text-anchor="middle" x="998.5" y="-186.5" font-family="Helvetica,sans-Serif" font-size="10.00">glm/fwd.hpp</text>
</a>
</g>
</g>
<!-- Node2&#45;&gt;Node8 -->
<g id="edge8" class="edge">
<title>Node2&#45;&gt;Node8</title>
<path fill="none" stroke="midnightblue" d="M1011.47,-235.4C1009.15,-227.29 1006.22,-217.01 1003.72,-208.28"/>
<polygon fill="midnightblue" stroke="midnightblue" points="1007.09,-207.31 1000.97,-198.66 1000.36,-209.23 1007.09,-207.31"/>
</g>
<!-- Node3&#45;&gt;Node4 -->
<g id="edge3" class="edge">
<title>Node3&#45;&gt;Node4</title>
<path fill="none" stroke="midnightblue" d="M1095.91,-117.98C1087.8,-108.87 1074.77,-94.24 1064.74,-82.98"/>
<polygon fill="midnightblue" stroke="midnightblue" points="1067.34,-80.65 1058.08,-75.51 1062.12,-85.3 1067.34,-80.65"/>
</g>
<!-- Node5&#45;&gt;Node3 -->
<g id="edge7" class="edge">
<title>Node5&#45;&gt;Node3</title>
<path fill="none" stroke="midnightblue" d="M827.65,-183.03C876.4,-173.39 984.72,-151.98 1050.18,-139.04"/>
<polygon fill="midnightblue" stroke="midnightblue" points="1051.17,-142.41 1060.31,-137.04 1049.82,-135.54 1051.17,-142.41"/>
</g>
<!-- Node6 -->
<g id="node6" class="node">
<title>Node6</title>
<g id="a_node6"><a xlink:title=" ">
<polygon fill="none" stroke="#bfbfbf" points="779,-118 779,-137 826,-137 826,-118 779,-118"/>
<text text-anchor="middle" x="802.5" y="-125" font-family="Helvetica,sans-Serif" font-size="10.00">vector</text>
</a>
</g>
</g>
<!-- Node5&#45;&gt;Node6 -->
<g id="edge5" class="edge">
<title>Node5&#45;&gt;Node6</title>
<path fill="none" stroke="midnightblue" d="M802.5,-179.48C802.5,-171.08 802.5,-157.98 802.5,-147.16"/>
<polygon fill="midnightblue" stroke="midnightblue" points="806,-147.01 802.5,-137.01 799,-147.01 806,-147.01"/>
</g>
<!-- Node7 -->
<g id="node7" class="node">
<title>Node7</title>
<g id="a_node7"><a xlink:title=" ">
<polygon fill="none" stroke="#bfbfbf" points="1061.5,-0.5 1061.5,-19.5 1121.5,-19.5 1121.5,-0.5 1061.5,-0.5"/>
<text text-anchor="middle" x="1091.5" y="-7.5" font-family="Helvetica,sans-Serif" font-size="10.00">iostream</text>
</a>
</g>
</g>
<!-- Node5&#45;&gt;Node7 -->
<g id="edge6" class="edge">
<title>Node5&#45;&gt;Node7</title>
<path fill="none" stroke="midnightblue" d="M793.36,-179.38C778.79,-164.57 753.49,-133.8 769.5,-112 803.35,-65.9 972.85,-31.37 1051.41,-17.58"/>
<polygon fill="midnightblue" stroke="midnightblue" points="1052.16,-21 1061.42,-15.85 1050.97,-14.1 1052.16,-21"/>
</g>
<!-- Node9&#45;&gt;Node3 -->
<g id="edge11" class="edge">
<title>Node9&#45;&gt;Node3</title>
<path fill="none" stroke="midnightblue" d="M1133.47,-235.14C1127.27,-213.1 1115.43,-170.95 1108.63,-146.76"/>
<polygon fill="midnightblue" stroke="midnightblue" points="1111.98,-145.73 1105.9,-137.05 1105.24,-147.63 1111.98,-145.73"/>
</g>
<!-- Node9&#45;&gt;Node4 -->
<g id="edge14" class="edge">
<title>Node9&#45;&gt;Node4</title>
<path fill="none" stroke="midnightblue" d="M1151.21,-235.46C1175.15,-209.19 1219.43,-151.69 1190.5,-112 1167.63,-80.63 1122.54,-70.65 1089.7,-67.72"/>
<polygon fill="midnightblue" stroke="midnightblue" points="1089.73,-64.21 1079.5,-66.99 1089.23,-71.19 1089.73,-64.21"/>
</g>
<!-- Node9&#45;&gt;Node5 -->
<g id="edge12" class="edge">
<title>Node9&#45;&gt;Node5</title>
<path fill="none" stroke="midnightblue" d="M1085.31,-236.84C1082.33,-236.2 1079.38,-235.58 1076.5,-235 991.16,-217.87 889.9,-202.52 837.63,-194.96"/>
<polygon fill="midnightblue" stroke="midnightblue" points="837.94,-191.47 827.54,-193.51 836.94,-198.4 837.94,-191.47"/>
</g>
<!-- Node9&#45;&gt;Node8 -->
<g id="edge13" class="edge">
<title>Node9&#45;&gt;Node8</title>
<path fill="none" stroke="midnightblue" d="M1104.56,-235.4C1081.34,-225.46 1050.51,-212.26 1028.08,-202.66"/>
<polygon fill="midnightblue" stroke="midnightblue" points="1029.3,-199.38 1018.73,-198.66 1026.54,-205.81 1029.3,-199.38"/>
</g>
<!-- Node10 -->
<g id="node10" class="node">
<title>Node10</title>
<g id="a_node10"><a xlink:title=" ">
<polygon fill="none" stroke="#bfbfbf" points="1884,-179.5 1884,-198.5 1973,-198.5 1973,-179.5 1884,-179.5"/>
<text text-anchor="middle" x="1928.5" y="-186.5" font-family="Helvetica,sans-Serif" font-size="10.00">box2d/box2d.h</text>
</a>
</g>
</g>
<!-- Node9&#45;&gt;Node10 -->
<g id="edge15" class="edge">
<title>Node9&#45;&gt;Node10</title>
<path fill="none" stroke="midnightblue" d="M1189.55,-241.07C1204.96,-238.82 1221.88,-236.57 1237.5,-235 1516.33,-206.96 1590.94,-229.81 1873.62,-198.96"/>
<polygon fill="midnightblue" stroke="midnightblue" points="1874.21,-202.42 1883.76,-197.84 1873.44,-195.46 1874.21,-202.42"/>
</g>
<!-- Node11&#45;&gt;Node3 -->
<g id="edge17" class="edge">
<title>Node11&#45;&gt;Node3</title>
<path fill="none" stroke="midnightblue" d="M866.95,-302.14C878.24,-274.3 906.84,-212.72 950.5,-179 976.36,-159.03 1010.47,-146.77 1039.92,-139.34"/>
<polygon fill="midnightblue" stroke="midnightblue" points="1040.8,-142.73 1049.71,-137.01 1039.17,-135.92 1040.8,-142.73"/>
</g>
<!-- Node11&#45;&gt;Node4 -->
<g id="edge46" class="edge">
<title>Node11&#45;&gt;Node4</title>
<path fill="none" stroke="midnightblue" d="M812.38,-302.28C794.74,-294.55 776.7,-282.97 766.5,-266 747.82,-234.91 699.68,-191.9 769.5,-112 800.5,-76.53 941.26,-68.93 1011.04,-67.37"/>
<polygon fill="midnightblue" stroke="midnightblue" points="1011.27,-70.86 1021.2,-67.17 1011.13,-63.86 1011.27,-70.86"/>
</g>
<!-- Node11&#45;&gt;Node5 -->
<g id="edge18" class="edge">
<title>Node11&#45;&gt;Node5</title>
<path fill="none" stroke="midnightblue" d="M818.69,-302.42C801.81,-294.52 784.17,-282.8 774.5,-266 763.49,-246.88 776.5,-222.64 788.22,-206.74"/>
<polygon fill="midnightblue" stroke="midnightblue" points="791,-208.88 794.44,-198.86 785.5,-204.54 791,-208.88"/>
</g>
<!-- Node11&#45;&gt;Node8 -->
<g id="edge45" class="edge">
<title>Node11&#45;&gt;Node8</title>
<path fill="none" stroke="midnightblue" d="M876.68,-302.48C902.44,-278.69 954.53,-230.6 981.48,-205.71"/>
<polygon fill="midnightblue" stroke="midnightblue" points="984.01,-208.14 988.98,-198.79 979.26,-203 984.01,-208.14"/>
</g>
<!-- Node11&#45;&gt;Node9 -->
<g id="edge44" class="edge">
<title>Node11&#45;&gt;Node9</title>
<path fill="none" stroke="midnightblue" d="M913.64,-304.29C954.98,-294.61 1014.48,-280.64 1075.46,-266.24"/>
<polygon fill="midnightblue" stroke="midnightblue" points="1076.33,-269.63 1085.26,-263.93 1074.72,-262.82 1076.33,-269.63"/>
</g>
<!-- Node12 -->
<g id="node12" class="node">
<title>Node12</title>
<g id="a_node12"><a xlink:href="NPC__Actor_8h.html" target="_top" xlink:title=" ">
<polygon fill="none" stroke="black" points="589.5,-241 589.5,-260 665.5,-260 665.5,-241 589.5,-241"/>
<text text-anchor="middle" x="627.5" y="-248" font-family="Helvetica,sans-Serif" font-size="10.00">NPC_Actor.h</text>
</a>
</g>
</g>
<!-- Node11&#45;&gt;Node12 -->
<g id="edge19" class="edge">
<title>Node11&#45;&gt;Node12</title>
<path fill="none" stroke="midnightblue" d="M811.01,-302.48C768.25,-290.6 707.73,-273.79 668.06,-262.77"/>
<polygon fill="midnightblue" stroke="midnightblue" points="668.78,-259.33 658.2,-260.03 666.9,-266.08 668.78,-259.33"/>
</g>
<!-- Node22 -->
<g id="node22" class="node">
<title>Node22</title>
<g id="a_node22"><a xlink:href="Player__Actor_8h.html" target="_top" xlink:title=" ">
<polygon fill="none" stroke="black" points="783.5,-241 783.5,-260 869.5,-260 869.5,-241 783.5,-241"/>
<text text-anchor="middle" x="826.5" y="-248" font-family="Helvetica,sans-Serif" font-size="10.00">Player_Actor.h</text>
</a>
</g>
</g>
<!-- Node11&#45;&gt;Node22 -->
<g id="edge39" class="edge">
<title>Node11&#45;&gt;Node22</title>
<path fill="none" stroke="midnightblue" d="M853.91,-302.4C848.66,-292.66 841.66,-279.65 836.04,-269.21"/>
<polygon fill="midnightblue" stroke="midnightblue" points="839,-267.34 831.18,-260.19 832.84,-270.66 839,-267.34"/>
</g>
<!-- Node12&#45;&gt;Node3 -->
<g id="edge20" class="edge">
<title>Node12&#45;&gt;Node3</title>
<path fill="none" stroke="midnightblue" d="M640.9,-240.99C665.27,-225.93 718.93,-194.7 768.5,-179 849.97,-153.21 946.87,-140.42 1015.44,-134.19"/>
<polygon fill="midnightblue" stroke="midnightblue" points="1016.12,-137.65 1025.77,-133.28 1015.51,-130.67 1016.12,-137.65"/>
</g>
<!-- Node12&#45;&gt;Node4 -->
<g id="edge24" class="edge">
<title>Node12&#45;&gt;Node4</title>
<path fill="none" stroke="midnightblue" d="M633,-240.92C650.8,-213.41 707.37,-128.24 735.5,-112 781.67,-85.35 937.28,-73.31 1011.06,-68.99"/>
<polygon fill="midnightblue" stroke="midnightblue" points="1011.54,-72.47 1021.33,-68.41 1011.14,-65.48 1011.54,-72.47"/>
</g>
<!-- Node12&#45;&gt;Node5 -->
<g id="edge21" class="edge">
<title>Node12&#45;&gt;Node5</title>
<path fill="none" stroke="midnightblue" d="M652.57,-240.98C682.85,-230.68 733.94,-213.31 767.94,-201.75"/>
<polygon fill="midnightblue" stroke="midnightblue" points="769.13,-205.04 777.47,-198.51 766.88,-198.41 769.13,-205.04"/>
</g>
<!-- Node12&#45;&gt;Node8 -->
<g id="edge22" class="edge">
<title>Node12&#45;&gt;Node8</title>
<path fill="none" stroke="midnightblue" d="M665.81,-243.36C733.7,-232.47 875.04,-209.8 949.76,-197.82"/>
<polygon fill="midnightblue" stroke="midnightblue" points="950.53,-201.24 959.85,-196.2 949.42,-194.33 950.53,-201.24"/>
</g>
<!-- Node13 -->
<g id="node13" class="node">
<title>Node13</title>
<g id="a_node13"><a xlink:title=" ">
<polygon fill="none" stroke="#bfbfbf" points="1787.5,-179.5 1787.5,-198.5 1865.5,-198.5 1865.5,-179.5 1787.5,-179.5"/>
<text text-anchor="middle" x="1826.5" y="-186.5" font-family="Helvetica,sans-Serif" font-size="10.00">glm/glm.hpp</text>
</a>
</g>
</g>
<!-- Node12&#45;&gt;Node13 -->
<g id="edge23" class="edge">
<title>Node12&#45;&gt;Node13</title>
<path fill="none" stroke="midnightblue" d="M665.52,-245.09C695.17,-241.81 737.4,-237.49 774.5,-235 1216.63,-205.3 1332.96,-247.63 1777.06,-198.98"/>
<polygon fill="midnightblue" stroke="midnightblue" points="1777.72,-202.43 1787.28,-197.85 1776.95,-195.47 1777.72,-202.43"/>
</g>
<!-- Node14 -->
<g id="node14" class="node">
<title>Node14</title>
<g id="a_node14"><a xlink:title=" ">
<polygon fill="none" stroke="#bfbfbf" points="573.5,-179.5 573.5,-198.5 645.5,-198.5 645.5,-179.5 573.5,-179.5"/>
<text text-anchor="middle" x="609.5" y="-186.5" font-family="Helvetica,sans-Serif" font-size="10.00">sys/types.h</text>
</a>
</g>
</g>
<!-- Node12&#45;&gt;Node14 -->
<g id="edge25" class="edge">
<title>Node12&#45;&gt;Node14</title>
<path fill="none" stroke="midnightblue" d="M624.92,-240.98C622.35,-232.49 618.33,-219.2 615.04,-208.32"/>
<polygon fill="midnightblue" stroke="midnightblue" points="618.32,-207.07 612.07,-198.51 611.62,-209.09 618.32,-207.07"/>
</g>
<!-- Node15 -->
<g id="node15" class="node">
<title>Node15</title>
<g id="a_node15"><a xlink:href="BState_8h.html" target="_top" xlink:title=" ">
<polygon fill="none" stroke="black" points="0,-118 0,-137 143,-137 143,-118 0,-118"/>
<text text-anchor="middle" x="71.5" y="-125" font-family="Helvetica,sans-Serif" font-size="10.00">../BStateMachine/BState.h</text>
</a>
</g>
</g>
<!-- Node12&#45;&gt;Node15 -->
<g id="edge26" class="edge">
<title>Node12&#45;&gt;Node15</title>
<path fill="none" stroke="midnightblue" d="M589.32,-249.11C487.86,-247.53 213.92,-239.52 134.5,-199 111.28,-187.15 92.62,-162.87 81.8,-146.14"/>
<polygon fill="midnightblue" stroke="midnightblue" points="84.59,-143.99 76.36,-137.32 78.63,-147.66 84.59,-143.99"/>
</g>
<!-- Node17 -->
<g id="node17" class="node">
<title>Node17</title>
<g id="a_node17"><a xlink:href="BStateMachine_8h.html" target="_top" xlink:title=" ">
<polygon fill="none" stroke="black" points="144,-179.5 144,-198.5 329,-198.5 329,-179.5 144,-179.5"/>
<text text-anchor="middle" x="236.5" y="-186.5" font-family="Helvetica,sans-Serif" font-size="10.00">../BStateMachine/BStateMachine.h</text>
</a>
</g>
</g>
<!-- Node12&#45;&gt;Node17 -->
<g id="edge28" class="edge">
<title>Node12&#45;&gt;Node17</title>
<path fill="none" stroke="midnightblue" d="M589.3,-243.69C522.8,-233.57 385.02,-212.6 302.69,-200.07"/>
<polygon fill="midnightblue" stroke="midnightblue" points="303.1,-196.6 292.69,-198.55 302.05,-203.52 303.1,-196.6"/>
</g>
<!-- Node19 -->
<g id="node19" class="node">
<title>Node19</title>
<g id="a_node19"><a xlink:href="Condition_8h.html" target="_top" xlink:title=" ">
<polygon fill="none" stroke="black" points="497.5,-56.5 497.5,-75.5 569.5,-75.5 569.5,-56.5 497.5,-56.5"/>
<text text-anchor="middle" x="533.5" y="-63.5" font-family="Helvetica,sans-Serif" font-size="10.00">Condition.h</text>
</a>
</g>
</g>
<!-- Node12&#45;&gt;Node19 -->
<g id="edge35" class="edge">
<title>Node12&#45;&gt;Node19</title>
<path fill="none" stroke="midnightblue" d="M609.62,-240.94C594.47,-232.6 573.78,-218.33 564.5,-199 560.65,-190.99 560.37,-186.87 564.5,-179 577.55,-154.1 603.45,-167.9 616.5,-143 622.89,-130.8 623.55,-123.84 616.5,-112 607.4,-96.72 591.11,-86.31 575.36,-79.39"/>
<polygon fill="midnightblue" stroke="midnightblue" points="576.27,-75.98 565.68,-75.51 573.67,-82.48 576.27,-75.98"/>
</g>
<!-- Node20 -->
<g id="node20" class="node">
<title>Node20</title>
<g id="a_node20"><a xlink:href="ConditionInRange_8h.html" target="_top" xlink:title=" ">
<polygon fill="none" stroke="black" points="291.5,-118 291.5,-137 403.5,-137 403.5,-118 291.5,-118"/>
<text text-anchor="middle" x="347.5" y="-125" font-family="Helvetica,sans-Serif" font-size="10.00">ConditionInRange.h</text>
</a>
</g>
</g>
<!-- Node12&#45;&gt;Node20 -->
<g id="edge36" class="edge">
<title>Node12&#45;&gt;Node20</title>
<path fill="none" stroke="midnightblue" d="M607.81,-240.99C559.33,-220.04 433.98,-165.87 376.76,-141.14"/>
<polygon fill="midnightblue" stroke="midnightblue" points="378.11,-137.92 367.54,-137.16 375.33,-144.34 378.11,-137.92"/>
</g>
<!-- Node21 -->
<g id="node21" class="node">
<title>Node21</title>
<g id="a_node21"><a xlink:href="ConditionOutOfRange_8h.html" target="_top" xlink:title=" ">
<polygon fill="none" stroke="black" points="459,-112.5 459,-142.5 608,-142.5 608,-112.5 459,-112.5"/>
<text text-anchor="start" x="467" y="-130.5" font-family="Helvetica,sans-Serif" font-size="10.00">../BStateMachine/Condition</text>
<text text-anchor="middle" x="533.5" y="-119.5" font-family="Helvetica,sans-Serif" font-size="10.00">OutOfRange.h</text>
</a>
</g>
</g>
<!-- Node12&#45;&gt;Node21 -->
<g id="edge37" class="edge">
<title>Node12&#45;&gt;Node21</title>
<path fill="none" stroke="midnightblue" d="M592.24,-240.9C570.62,-233.62 544.64,-220.76 531.5,-199 523.15,-185.17 523.94,-166.86 526.66,-152.37"/>
<polygon fill="midnightblue" stroke="midnightblue" points="530.08,-153.14 528.89,-142.61 523.25,-151.58 530.08,-153.14"/>
</g>
<!-- Node16 -->
<g id="node16" class="node">
<title>Node16</title>
<g id="a_node16"><a xlink:title=" ">
<polygon fill="none" stroke="#bfbfbf" points="55.5,-56.5 55.5,-75.5 87.5,-75.5 87.5,-56.5 55.5,-56.5"/>
<text text-anchor="middle" x="71.5" y="-63.5" font-family="Helvetica,sans-Serif" font-size="10.00">list</text>
</a>
</g>
</g>
<!-- Node15&#45;&gt;Node16 -->
<g id="edge27" class="edge">
<title>Node15&#45;&gt;Node16</title>
<path fill="none" stroke="midnightblue" d="M71.5,-117.98C71.5,-109.58 71.5,-96.48 71.5,-85.66"/>
<polygon fill="midnightblue" stroke="midnightblue" points="75,-85.51 71.5,-75.51 68,-85.51 75,-85.51"/>
</g>
<!-- Node17&#45;&gt;Node15 -->
<g id="edge29" class="edge">
<title>Node17&#45;&gt;Node15</title>
<path fill="none" stroke="midnightblue" d="M212.86,-179.48C184.56,-169.27 136.97,-152.11 104.91,-140.55"/>
<polygon fill="midnightblue" stroke="midnightblue" points="105.69,-137.11 95.1,-137.01 103.32,-143.69 105.69,-137.11"/>
</g>
<!-- Node18 -->
<g id="node18" class="node">
<title>Node18</title>
<g id="a_node18"><a xlink:href="Transition_8h.html" target="_top" xlink:title=" ">
<polygon fill="none" stroke="black" points="200,-118 200,-137 273,-137 273,-118 200,-118"/>
<text text-anchor="middle" x="236.5" y="-125" font-family="Helvetica,sans-Serif" font-size="10.00">Transition.h</text>
</a>
</g>
</g>
<!-- Node17&#45;&gt;Node18 -->
<g id="edge30" class="edge">
<title>Node17&#45;&gt;Node18</title>
<path fill="none" stroke="midnightblue" d="M236.5,-179.48C236.5,-171.08 236.5,-157.98 236.5,-147.16"/>
<polygon fill="midnightblue" stroke="midnightblue" points="240,-147.01 236.5,-137.01 233,-147.01 240,-147.01"/>
</g>
<!-- Node17&#45;&gt;Node19 -->
<g id="edge31" class="edge">
<title>Node17&#45;&gt;Node19</title>
<path fill="none" stroke="midnightblue" d="M224.44,-179.38C205.15,-164.57 171.38,-133.8 190.5,-112 209.79,-90.02 398.3,-75.43 487.35,-69.72"/>
<polygon fill="midnightblue" stroke="midnightblue" points="487.69,-73.2 497.45,-69.08 487.25,-66.22 487.69,-73.2"/>
</g>
<!-- Node17&#45;&gt;Node20 -->
<g id="edge33" class="edge">
<title>Node17&#45;&gt;Node20</title>
<path fill="none" stroke="midnightblue" d="M252.4,-179.48C270.78,-169.62 301.26,-153.29 322.74,-141.77"/>
<polygon fill="midnightblue" stroke="midnightblue" points="324.47,-144.82 331.63,-137.01 321.16,-138.65 324.47,-144.82"/>
</g>
<!-- Node19&#45;&gt;Node7 -->
<g id="edge32" class="edge">
<title>Node19&#45;&gt;Node7</title>
<path fill="none" stroke="midnightblue" d="M569.68,-61.5C669.26,-51.86 946.89,-24.99 1051.2,-14.9"/>
<polygon fill="midnightblue" stroke="midnightblue" points="1051.71,-18.37 1061.32,-13.92 1051.03,-11.4 1051.71,-18.37"/>
</g>
<!-- Node20&#45;&gt;Node19 -->
<g id="edge34" class="edge">
<title>Node20&#45;&gt;Node19</title>
<path fill="none" stroke="midnightblue" d="M374.15,-117.98C406.47,-107.64 461.1,-90.16 497.23,-78.6"/>
<polygon fill="midnightblue" stroke="midnightblue" points="498.44,-81.89 506.9,-75.51 496.31,-75.22 498.44,-81.89"/>
</g>
<!-- Node21&#45;&gt;Node19 -->
<g id="edge38" class="edge">
<title>Node21&#45;&gt;Node19</title>
<path fill="none" stroke="midnightblue" d="M533.5,-112.4C533.5,-104.47 533.5,-94.46 533.5,-85.86"/>
<polygon fill="midnightblue" stroke="midnightblue" points="537,-85.66 533.5,-75.66 530,-85.66 537,-85.66"/>
</g>
<!-- Node22&#45;&gt;Node3 -->
<g id="edge40" class="edge">
<title>Node22&#45;&gt;Node3</title>
<path fill="none" stroke="midnightblue" d="M835.23,-240.77C850.56,-225.92 883.87,-195.75 917.5,-179 956.38,-159.64 1003.64,-146.93 1040.8,-139.1"/>
<polygon fill="midnightblue" stroke="midnightblue" points="1041.9,-142.45 1051,-137.02 1040.5,-135.59 1041.9,-142.45"/>
</g>
<!-- Node22&#45;&gt;Node4 -->
<g id="edge43" class="edge">
<title>Node22&#45;&gt;Node4</title>
<path fill="none" stroke="midnightblue" d="M831.83,-240.97C840.88,-226.94 860.31,-198.61 881.5,-179 927.07,-136.82 990.09,-99.59 1024.87,-80.51"/>
<polygon fill="midnightblue" stroke="midnightblue" points="1026.76,-83.47 1033.89,-75.63 1023.43,-77.31 1026.76,-83.47"/>
</g>
<!-- Node22&#45;&gt;Node5 -->
<g id="edge41" class="edge">
<title>Node22&#45;&gt;Node5</title>
<path fill="none" stroke="midnightblue" d="M823.06,-240.98C819.6,-232.4 814.17,-218.93 809.75,-207.98"/>
<polygon fill="midnightblue" stroke="midnightblue" points="812.92,-206.47 805.93,-198.51 806.43,-209.09 812.92,-206.47"/>
</g>
<!-- Node22&#45;&gt;Node8 -->
<g id="edge42" class="edge">
<title>Node22&#45;&gt;Node8</title>
<path fill="none" stroke="midnightblue" d="M851.14,-240.98C880.78,-230.72 930.68,-213.46 964.1,-201.9"/>
<polygon fill="midnightblue" stroke="midnightblue" points="965.6,-205.09 973.9,-198.51 963.31,-198.47 965.6,-205.09"/>
</g>
<!-- Node23&#45;&gt;Node3 -->
<g id="edge48" class="edge">
<title>Node23&#45;&gt;Node3</title>
<path fill="none" stroke="midnightblue" d="M1283.56,-302.41C1270.15,-292.66 1252.29,-279.12 1237.5,-266 1191.38,-225.08 1141.95,-171.5 1118.07,-144.93"/>
<polygon fill="midnightblue" stroke="midnightblue" points="1120.52,-142.42 1111.25,-137.3 1115.3,-147.09 1120.52,-142.42"/>
</g>
<!-- Node23&#45;&gt;Node13 -->
<g id="edge49" class="edge">
<title>Node23&#45;&gt;Node13</title>
<path fill="none" stroke="midnightblue" d="M1370.7,-312.57C1436.01,-307.2 1537.25,-294.68 1620.5,-266 1647.4,-256.73 1650.28,-246.04 1676.5,-235 1710.38,-220.73 1750.32,-208.98 1780.46,-201.07"/>
<polygon fill="midnightblue" stroke="midnightblue" points="1781.48,-204.43 1790.29,-198.54 1779.73,-197.65 1781.48,-204.43"/>
</g>
<!-- Node24 -->
<g id="node24" class="node">
<title>Node24</title>
<g id="a_node24"><a xlink:title=" ">
<polygon fill="none" stroke="#bfbfbf" points="1246,-241 1246,-260 1409,-260 1409,-241 1246,-241"/>
<text text-anchor="middle" x="1327.5" y="-248" font-family="Helvetica,sans-Serif" font-size="10.00">glm/gtc/matrix_transform.hpp</text>
</a>
</g>
</g>
<!-- Node23&#45;&gt;Node24 -->
<g id="edge50" class="edge">
<title>Node23&#45;&gt;Node24</title>
<path fill="none" stroke="midnightblue" d="M1308.71,-302.4C1312.23,-292.86 1316.91,-280.18 1320.72,-269.86"/>
<polygon fill="midnightblue" stroke="midnightblue" points="1324.11,-270.79 1324.29,-260.19 1317.54,-268.36 1324.11,-270.79"/>
</g>
<!-- Node25&#45;&gt;Node3 -->
<g id="edge52" class="edge">
<title>Node25&#45;&gt;Node3</title>
<path fill="none" stroke="midnightblue" d="M2002.17,-235.29C2002.08,-218.91 1999.12,-192.51 1982.5,-179 1922.1,-129.91 1401.47,-126.97 1191.12,-127.81"/>
<polygon fill="midnightblue" stroke="midnightblue" points="1191.02,-124.31 1181.04,-127.86 1191.05,-131.31 1191.02,-124.31"/>
</g>
<!-- Node25&#45;&gt;Node13 -->
<g id="edge54" class="edge">
<title>Node25&#45;&gt;Node13</title>
<path fill="none" stroke="midnightblue" d="M1960.03,-235.4C1929.92,-225.16 1889.65,-211.47 1861.23,-201.81"/>
<polygon fill="midnightblue" stroke="midnightblue" points="1862.3,-198.48 1851.71,-198.57 1860.05,-205.1 1862.3,-198.48"/>
</g>
<!-- Node26 -->
<g id="node26" class="node">
<title>Node26</title>
<g id="a_node26"><a xlink:title=" ">
<polygon fill="none" stroke="#bfbfbf" points="2140,-118 2140,-137 2211,-137 2211,-118 2140,-118"/>
<text text-anchor="middle" x="2175.5" y="-125" font-family="Helvetica,sans-Serif" font-size="10.00">glad/glad.h</text>
</a>
</g>
</g>
<!-- Node25&#45;&gt;Node26 -->
<g id="edge53" class="edge">
<title>Node25&#45;&gt;Node26</title>
<path fill="none" stroke="midnightblue" d="M2068.8,-242.24C2099.36,-235.62 2133.7,-223.01 2156.5,-199 2169.7,-185.09 2173.94,-163 2175.19,-147.26"/>
<polygon fill="midnightblue" stroke="midnightblue" points="2178.69,-147.27 2175.66,-137.12 2171.7,-146.95 2178.69,-147.27"/>
</g>
<!-- Node27 -->
<g id="node27" class="node">
<title>Node27</title>
<g id="a_node27"><a xlink:title=" ">
<polygon fill="none" stroke="#bfbfbf" points="2030,-179.5 2030,-198.5 2147,-198.5 2147,-179.5 2030,-179.5"/>
<text text-anchor="middle" x="2088.5" y="-186.5" font-family="Helvetica,sans-Serif" font-size="10.00">glm/gtc/type_ptr.hpp</text>
</a>
</g>
</g>
<!-- Node25&#45;&gt;Node27 -->
<g id="edge55" class="edge">
<title>Node25&#45;&gt;Node27</title>
<path fill="none" stroke="midnightblue" d="M2022.12,-235.4C2035.8,-226.04 2053.71,-213.79 2067.48,-204.38"/>
<polygon fill="midnightblue" stroke="midnightblue" points="2069.56,-207.19 2075.84,-198.66 2065.61,-201.41 2069.56,-207.19"/>
</g>
<!-- Node28&#45;&gt;Node3 -->
<g id="edge63" class="edge">
<title>Node28&#45;&gt;Node3</title>
<path fill="none" stroke="midnightblue" d="M1610.06,-307.75C1566.3,-300.4 1508.82,-287.54 1461.5,-266 1440.06,-256.24 1439.83,-245.01 1418.5,-235 1360.74,-207.87 1340.13,-218.91 1279.5,-199 1226.41,-181.57 1166.35,-156.26 1131.9,-141.18"/>
<polygon fill="midnightblue" stroke="midnightblue" points="1133.04,-137.86 1122.48,-137.03 1130.22,-144.27 1133.04,-137.86"/>
</g>
<!-- Node28&#45;&gt;Node4 -->
<g id="edge77" class="edge">
<title>Node28&#45;&gt;Node4</title>
<path fill="none" stroke="midnightblue" d="M1610.08,-304.29C1574.52,-296.29 1530.85,-283.94 1494.5,-266 1474.01,-255.89 1473.91,-245.27 1453.5,-235 1402.62,-209.4 1381.74,-223.88 1330.5,-199 1270.59,-169.91 1268.51,-140.88 1208.5,-112 1170,-93.48 1122.46,-81.22 1089.64,-74.24"/>
<polygon fill="midnightblue" stroke="midnightblue" points="1090.04,-70.75 1079.53,-72.16 1088.62,-77.61 1090.04,-70.75"/>
</g>
<!-- Node28&#45;&gt;Node13 -->
<g id="edge60" class="edge">
<title>Node28&#45;&gt;Node13</title>
<path fill="none" stroke="midnightblue" d="M1676.89,-302.24C1676.91,-284.33 1679.68,-253.67 1696.5,-235 1707.94,-222.3 1747.26,-209.73 1779.68,-201.11"/>
<polygon fill="midnightblue" stroke="midnightblue" points="1780.68,-204.47 1789.49,-198.57 1778.93,-197.69 1780.68,-204.47"/>
</g>
<!-- Node28&#45;&gt;Node24 -->
<g id="edge61" class="edge">
<title>Node28&#45;&gt;Node24</title>
<path fill="none" stroke="midnightblue" d="M1610.43,-304.04C1544.53,-291.81 1445.12,-273.34 1383.38,-261.88"/>
<polygon fill="midnightblue" stroke="midnightblue" points="1383.9,-258.41 1373.43,-260.03 1382.62,-265.3 1383.9,-258.41"/>
</g>
<!-- Node28&#45;&gt;Node26 -->
<g id="edge59" class="edge">
<title>Node28&#45;&gt;Node26</title>
<path fill="none" stroke="midnightblue" d="M1744.89,-309.74C1850.76,-298.86 2047.15,-277.52 2077.5,-266 2126.83,-247.28 2150.88,-245.66 2175.5,-199 2183.88,-183.13 2182.66,-162.31 2180.09,-147.42"/>
<polygon fill="midnightblue" stroke="midnightblue" points="2183.46,-146.44 2177.99,-137.37 2176.61,-147.87 2183.46,-146.44"/>
</g>
<!-- Node29 -->
<g id="node29" class="node">
<title>Node29</title>
<g id="a_node29"><a xlink:title=" ">
<polygon fill="none" stroke="#bfbfbf" points="1639.5,-179.5 1639.5,-198.5 1689.5,-198.5 1689.5,-179.5 1639.5,-179.5"/>
<text text-anchor="middle" x="1664.5" y="-186.5" font-family="Helvetica,sans-Serif" font-size="10.00">cstdint</text>
</a>
</g>
</g>
<!-- Node28&#45;&gt;Node29 -->
<g id="edge57" class="edge">
<title>Node28&#45;&gt;Node29</title>
<path fill="none" stroke="midnightblue" d="M1712.19,-302.34C1727.46,-294.15 1743.87,-282.21 1752.5,-266 1758.97,-253.84 1759.69,-246.75 1752.5,-235 1746.1,-224.54 1719.44,-211.74 1697.12,-202.47"/>
<polygon fill="midnightblue" stroke="midnightblue" points="1698.16,-199.12 1687.58,-198.61 1695.54,-205.61 1698.16,-199.12"/>
</g>
<!-- Node30 -->
<g id="node30" class="node">
<title>Node30</title>
<g id="a_node30"><a xlink:title=" ">
<polygon fill="none" stroke="#bfbfbf" points="2241.5,-179.5 2241.5,-198.5 2287.5,-198.5 2287.5,-179.5 2241.5,-179.5"/>
<text text-anchor="middle" x="2264.5" y="-186.5" font-family="Helvetica,sans-Serif" font-size="10.00">cstdio</text>
</a>
</g>
</g>
<!-- Node28&#45;&gt;Node30 -->
<g id="edge58" class="edge">
<title>Node28&#45;&gt;Node30</title>
<path fill="none" stroke="midnightblue" d="M1744.7,-314C1882.73,-308.34 2188.57,-292.9 2227.5,-266 2246.7,-252.74 2256.32,-226.63 2260.86,-208.75"/>
<polygon fill="midnightblue" stroke="midnightblue" points="2264.3,-209.39 2263.07,-198.87 2257.47,-207.87 2264.3,-209.39"/>
</g>
<!-- Node31 -->
<g id="node31" class="node">
<title>Node31</title>
<g id="a_node31"><a xlink:title=" ">
<polygon fill="none" stroke="#bfbfbf" points="1705.5,-241 1705.5,-260 1743.5,-260 1743.5,-241 1705.5,-241"/>
<text text-anchor="middle" x="1724.5" y="-248" font-family="Helvetica,sans-Serif" font-size="10.00">map</text>
</a>
</g>
</g>
<!-- Node28&#45;&gt;Node31 -->
<g id="edge62" class="edge">
<title>Node28&#45;&gt;Node31</title>
<path fill="none" stroke="midnightblue" d="M1687.7,-302.4C1694.88,-292.46 1704.54,-279.11 1712.16,-268.57"/>
<polygon fill="midnightblue" stroke="midnightblue" points="1715.19,-270.35 1718.21,-260.19 1709.52,-266.25 1715.19,-270.35"/>
</g>
<!-- Node32 -->
<g id="node32" class="node">
<title>Node32</title>
<g id="a_node32"><a xlink:href="sprite_8h.html" target="_top" xlink:title=" ">
<polygon fill="none" stroke="black" points="1503.5,-241 1503.5,-260 1611.5,-260 1611.5,-241 1503.5,-241"/>
<text text-anchor="middle" x="1557.5" y="-248" font-family="Helvetica,sans-Serif" font-size="10.00">../Graphics/sprite.h</text>
</a>
</g>
</g>
<!-- Node28&#45;&gt;Node32 -->
<g id="edge64" class="edge">
<title>Node28&#45;&gt;Node32</title>
<path fill="none" stroke="midnightblue" d="M1651.46,-302.4C1630.87,-291.24 1602.33,-275.78 1582.12,-264.83"/>
<polygon fill="midnightblue" stroke="midnightblue" points="1583.67,-261.69 1573.21,-260.01 1580.33,-267.85 1583.67,-261.69"/>
</g>
<!-- Node34 -->
<g id="node34" class="node">
<title>Node34</title>
<g id="a_node34"><a xlink:href="texture_8h.html" target="_top" xlink:title=" ">
<polygon fill="none" stroke="black" points="1708,-179.5 1708,-198.5 1769,-198.5 1769,-179.5 1708,-179.5"/>
<text text-anchor="middle" x="1738.5" y="-186.5" font-family="Helvetica,sans-Serif" font-size="10.00">texture.h</text>
</a>
</g>
</g>
<!-- Node28&#45;&gt;Node34 -->
<g id="edge76" class="edge">
<title>Node28&#45;&gt;Node34</title>
<path fill="none" stroke="midnightblue" d="M1723.17,-302.46C1740.53,-294.65 1758.51,-282.97 1768.5,-266 1779.79,-246.82 1765.97,-222.59 1753.57,-206.72"/>
<polygon fill="midnightblue" stroke="midnightblue" points="1756.1,-204.28 1747,-198.84 1750.72,-208.76 1756.1,-204.28"/>
</g>
<!-- Node32&#45;&gt;Node4 -->
<g id="edge73" class="edge">
<title>Node32&#45;&gt;Node4</title>
<path fill="none" stroke="midnightblue" d="M1518.69,-240.92C1460.61,-227.95 1357.12,-204.31 1350.5,-199 1316.84,-172.03 1342.03,-137.85 1307.5,-112 1273.75,-86.74 1153.21,-74.42 1089.93,-69.58"/>
<polygon fill="midnightblue" stroke="midnightblue" points="1090.15,-66.09 1079.92,-68.84 1089.64,-73.07 1090.15,-66.09"/>
</g>
<!-- Node32&#45;&gt;Node7 -->
<g id="edge69" class="edge">
<title>Node32&#45;&gt;Node7</title>
<path fill="none" stroke="midnightblue" d="M1567.73,-240.75C1582.68,-226.9 1607.18,-199.41 1592.5,-179 1483.3,-27.21 1230.4,-10.63 1131.84,-10.18"/>
<polygon fill="midnightblue" stroke="midnightblue" points="1131.7,-6.68 1121.7,-10.18 1131.7,-13.68 1131.7,-6.68"/>
</g>
<!-- Node32&#45;&gt;Node8 -->
<g id="edge67" class="edge">
<title>Node32&#45;&gt;Node8</title>
<path fill="none" stroke="midnightblue" d="M1503.39,-243.74C1394.78,-232.18 1151.72,-206.31 1047.49,-195.21"/>
<polygon fill="midnightblue" stroke="midnightblue" points="1047.57,-191.7 1037.26,-194.13 1046.83,-198.66 1047.57,-191.7"/>
</g>
<!-- Node32&#45;&gt;Node13 -->
<g id="edge68" class="edge">
<title>Node32&#45;&gt;Node13</title>
<path fill="none" stroke="midnightblue" d="M1596.04,-240.98C1643.98,-230.37 1725.86,-212.26 1778.01,-200.72"/>
<polygon fill="midnightblue" stroke="midnightblue" points="1779.02,-204.09 1788.03,-198.51 1777.51,-197.25 1779.02,-204.09"/>
</g>
<!-- Node32&#45;&gt;Node29 -->
<g id="edge65" class="edge">
<title>Node32&#45;&gt;Node29</title>
<path fill="none" stroke="midnightblue" d="M1572.83,-240.98C1590.47,-231.17 1619.66,-214.93 1640.36,-203.42"/>
<polygon fill="midnightblue" stroke="midnightblue" points="1642.16,-206.43 1649.2,-198.51 1638.76,-200.31 1642.16,-206.43"/>
</g>
<!-- Node33 -->
<g id="node33" class="node">
<title>Node33</title>
<g id="a_node33"><a xlink:title=" ">
<polygon fill="none" stroke="#bfbfbf" points="1359.5,-179.5 1359.5,-198.5 1409.5,-198.5 1409.5,-179.5 1359.5,-179.5"/>
<text text-anchor="middle" x="1384.5" y="-186.5" font-family="Helvetica,sans-Serif" font-size="10.00">stdio.h</text>
</a>
</g>
</g>
<!-- Node32&#45;&gt;Node33 -->
<g id="edge66" class="edge">
<title>Node32&#45;&gt;Node33</title>
<path fill="none" stroke="midnightblue" d="M1532.71,-240.98C1502.91,-230.72 1452.71,-213.46 1419.1,-201.9"/>
<polygon fill="midnightblue" stroke="midnightblue" points="1419.84,-198.45 1409.24,-198.51 1417.56,-205.07 1419.84,-198.45"/>
</g>
<!-- Node32&#45;&gt;Node34 -->
<g id="edge70" class="edge">
<title>Node32&#45;&gt;Node34</title>
<path fill="none" stroke="midnightblue" d="M1583.43,-240.98C1614.75,-230.68 1667.59,-213.31 1702.76,-201.75"/>
<polygon fill="midnightblue" stroke="midnightblue" points="1704.21,-204.96 1712.62,-198.51 1702.02,-198.31 1704.21,-204.96"/>
</g>
<!-- Node35 -->
<g id="node35" class="node">
<title>Node35</title>
<g id="a_node35"><a xlink:title=" ">
<polygon fill="none" stroke="#bfbfbf" points="1427.5,-179.5 1427.5,-198.5 1471.5,-198.5 1471.5,-179.5 1427.5,-179.5"/>
<text text-anchor="middle" x="1449.5" y="-186.5" font-family="Helvetica,sans-Serif" font-size="10.00">string</text>
</a>
</g>
</g>
<!-- Node32&#45;&gt;Node35 -->
<g id="edge74" class="edge">
<title>Node32&#45;&gt;Node35</title>
<path fill="none" stroke="midnightblue" d="M1542.03,-240.98C1524.22,-231.17 1494.76,-214.93 1473.87,-203.42"/>
<polygon fill="midnightblue" stroke="midnightblue" points="1475.39,-200.27 1464.95,-198.51 1472.01,-206.4 1475.39,-200.27"/>
</g>
<!-- Node36 -->
<g id="node36" class="node">
<title>Node36</title>
<g id="a_node36"><a xlink:title=" ">
<polygon fill="none" stroke="#bfbfbf" points="1490,-179.5 1490,-198.5 1583,-198.5 1583,-179.5 1490,-179.5"/>
<text text-anchor="middle" x="1536.5" y="-186.5" font-family="Helvetica,sans-Serif" font-size="10.00">unordered_map</text>
</a>
</g>
</g>
<!-- Node32&#45;&gt;Node36 -->
<g id="edge75" class="edge">
<title>Node32&#45;&gt;Node36</title>
<path fill="none" stroke="midnightblue" d="M1554.49,-240.98C1551.47,-232.4 1546.71,-218.93 1542.85,-207.98"/>
<polygon fill="midnightblue" stroke="midnightblue" points="1546.13,-206.77 1539.5,-198.51 1539.53,-209.1 1546.13,-206.77"/>
</g>
<!-- Node34&#45;&gt;Node7 -->
<g id="edge71" class="edge">
<title>Node34&#45;&gt;Node7</title>
<path fill="none" stroke="midnightblue" d="M1707.73,-179.58C1601.58,-150.54 1250.71,-54.56 1131.53,-21.95"/>
<polygon fill="midnightblue" stroke="midnightblue" points="1132.28,-18.53 1121.71,-19.26 1130.43,-25.28 1132.28,-18.53"/>
</g>
<!-- Node34&#45;&gt;Node26 -->
<g id="edge72" class="edge">
<title>Node34&#45;&gt;Node26</title>
<path fill="none" stroke="midnightblue" d="M1769.01,-180.82C1772.21,-180.16 1775.42,-179.54 1778.5,-179 1904.71,-156.83 2055.12,-140.39 2129.35,-132.93"/>
<polygon fill="midnightblue" stroke="midnightblue" points="2130.14,-136.37 2139.74,-131.9 2129.44,-129.41 2130.14,-136.37"/>
</g>
<!-- Node37&#45;&gt;Node3 -->
<g id="edge86" class="edge">
<title>Node37&#45;&gt;Node3</title>
<path fill="none" stroke="midnightblue" d="M2346.77,-235.35C2337.89,-218.5 2320.54,-191.11 2296.5,-179 2198.75,-129.77 1450.45,-127.4 1191.42,-128.07"/>
<polygon fill="midnightblue" stroke="midnightblue" points="1191.29,-124.57 1181.3,-128.1 1191.31,-131.57 1191.29,-124.57"/>
</g>
<!-- Node37&#45;&gt;Node4 -->
<g id="edge88" class="edge">
<title>Node37&#45;&gt;Node4</title>
<path fill="none" stroke="midnightblue" d="M2349.93,-235.49C2345.51,-220.26 2336.75,-195.85 2322.5,-179 2287.48,-137.58 2272.16,-128.54 2220.5,-112 2111.01,-76.95 1281.38,-68.71 1089.86,-67.26"/>
<polygon fill="midnightblue" stroke="midnightblue" points="1089.72,-63.76 1079.69,-67.19 1089.67,-70.76 1089.72,-63.76"/>
</g>
<!-- Node37&#45;&gt;Node10 -->
<g id="edge87" class="edge">
<title>Node37&#45;&gt;Node10</title>
<path fill="none" stroke="midnightblue" d="M2286.16,-240.07C2202.27,-228.33 2060.57,-208.49 1983.1,-197.64"/>
<polygon fill="midnightblue" stroke="midnightblue" points="1983.45,-194.16 1973.06,-196.24 1982.48,-201.09 1983.45,-194.16"/>
</g>
<!-- Node37&#45;&gt;Node13 -->
<g id="edge85" class="edge">
<title>Node37&#45;&gt;Node13</title>
<path fill="none" stroke="midnightblue" d="M2286.41,-244.04C2193.74,-236.13 2021.48,-220.09 1875.5,-199 1875.4,-198.99 1875.3,-198.97 1875.19,-198.96"/>
<polygon fill="midnightblue" stroke="midnightblue" points="1875.93,-195.53 1865.5,-197.44 1874.84,-202.44 1875.93,-195.53"/>
</g>
<!-- Node37&#45;&gt;Node30 -->
<g id="edge84" class="edge">
<title>Node37&#45;&gt;Node30</title>
<path fill="none" stroke="midnightblue" d="M2332.41,-235.4C2318.41,-226.04 2300.09,-213.79 2286.01,-204.38"/>
<polygon fill="midnightblue" stroke="midnightblue" points="2287.71,-201.31 2277.45,-198.66 2283.82,-207.13 2287.71,-201.31"/>
</g>
<!-- Node38 -->
<g id="node38" class="node">
<title>Node38</title>
<g id="a_node38"><a xlink:title=" ">
<polygon fill="none" stroke="#bfbfbf" points="2676,-179.5 2676,-198.5 2825,-198.5 2825,-179.5 2676,-179.5"/>
<text text-anchor="middle" x="2750.5" y="-186.5" font-family="Helvetica,sans-Serif" font-size="10.00">box2d/b2_polygon_shape.h</text>
</a>
</g>
</g>
<!-- Node37&#45;&gt;Node38 -->
<g id="edge79" class="edge">
<title>Node37&#45;&gt;Node38</title>
<path fill="none" stroke="midnightblue" d="M2420.85,-239.41C2494.16,-228.42 2610.68,-210.95 2683.76,-200"/>
<polygon fill="midnightblue" stroke="midnightblue" points="2684.4,-203.45 2693.77,-198.5 2683.37,-196.52 2684.4,-203.45"/>
</g>
<!-- Node39 -->
<g id="node39" class="node">
<title>Node39</title>
<g id="a_node39"><a xlink:title=" ">
<polygon fill="none" stroke="#bfbfbf" points="2843,-179.5 2843,-198.5 2958,-198.5 2958,-179.5 2843,-179.5"/>
<text text-anchor="middle" x="2900.5" y="-186.5" font-family="Helvetica,sans-Serif" font-size="10.00">box2d/b2_settings.h</text>
</a>
</g>
</g>
<!-- Node37&#45;&gt;Node39 -->
<g id="edge80" class="edge">
<title>Node37&#45;&gt;Node39</title>
<path fill="none" stroke="midnightblue" d="M2420.89,-243.09C2511.99,-234.27 2679.75,-217.52 2832.86,-199.17"/>
<polygon fill="midnightblue" stroke="midnightblue" points="2833.41,-202.63 2842.92,-197.96 2832.57,-195.68 2833.41,-202.63"/>
</g>
<!-- Node40 -->
<g id="node40" class="node">
<title>Node40</title>
<g id="a_node40"><a xlink:title=" ">
<polygon fill="none" stroke="#bfbfbf" points="2976,-179.5 2976,-198.5 3079,-198.5 3079,-179.5 2976,-179.5"/>
<text text-anchor="middle" x="3027.5" y="-186.5" font-family="Helvetica,sans-Serif" font-size="10.00">box2d/b2_types.h</text>
</a>
</g>
</g>
<!-- Node37&#45;&gt;Node40 -->
<g id="edge81" class="edge">
<title>Node37&#45;&gt;Node40</title>
<path fill="none" stroke="midnightblue" d="M2420.88,-245.44C2532.22,-238.4 2761.8,-222.51 2965.82,-199.13"/>
<polygon fill="midnightblue" stroke="midnightblue" points="2966.29,-202.6 2975.82,-197.98 2965.48,-195.65 2966.29,-202.6"/>
</g>
<!-- Node41 -->
<g id="node41" class="node">
<title>Node41</title>
<g id="a_node41"><a xlink:title=" ">
<polygon fill="none" stroke="#bfbfbf" points="2382,-179.5 2382,-198.5 2485,-198.5 2485,-179.5 2382,-179.5"/>
<text text-anchor="middle" x="2433.5" y="-186.5" font-family="Helvetica,sans-Serif" font-size="10.00">box2d/b2_world.h</text>
</a>
</g>
</g>
<!-- Node37&#45;&gt;Node41 -->
<g id="edge82" class="edge">
<title>Node37&#45;&gt;Node41</title>
<path fill="none" stroke="midnightblue" d="M2372.46,-235.4C2384.92,-226.13 2401.2,-214.03 2413.81,-204.65"/>
<polygon fill="midnightblue" stroke="midnightblue" points="2415.92,-207.43 2421.86,-198.66 2411.75,-201.82 2415.92,-207.43"/>
</g>
<!-- Node42 -->
<g id="node42" class="node">
<title>Node42</title>
<g id="a_node42"><a xlink:title=" ">
<polygon fill="none" stroke="#bfbfbf" points="2503.5,-179.5 2503.5,-198.5 2657.5,-198.5 2657.5,-179.5 2503.5,-179.5"/>
<text text-anchor="middle" x="2580.5" y="-186.5" font-family="Helvetica,sans-Serif" font-size="10.00">box2d/b2_world_callbacks.h</text>
</a>
</g>
</g>
<!-- Node37&#45;&gt;Node42 -->
<g id="edge83" class="edge">
<title>Node37&#45;&gt;Node42</title>
<path fill="none" stroke="midnightblue" d="M2407.01,-235.47C2447.03,-224.99 2501.01,-210.84 2538.07,-201.12"/>
<polygon fill="midnightblue" stroke="midnightblue" points="2539.26,-204.43 2548.05,-198.51 2537.49,-197.66 2539.26,-204.43"/>
</g>
</g>
</svg>
