<?xml version="1.0" encoding="UTF-8" standalone="no"?>
<!DOCTYPE svg PUBLIC "-//W3C//DTD SVG 1.1//EN"
 "http://www.w3.org/Graphics/SVG/1.1/DTD/svg11.dtd">
<!-- Generated by graphviz version 2.43.0 (0)
 -->
<!-- Title: /home/fnky/C0de/component_engine/src/IMGUI/imgui_draw.cpp Pages: 1 -->
<!--zoomable 240 -->
<svg id="main" version="1.1" xmlns="http://www.w3.org/2000/svg" xmlns:xlink="http://www.w3.org/1999/xlink" xml:space="preserve" onload="init(evt)">
<style type="text/css"><![CDATA[
.edge:hover path { stroke: red; }
.edge:hover polygon { stroke: red; fill: red; }
]]></style>
<script type="text/javascript"><![CDATA[
var edges = document.getElementsByTagName('g');
if (edges && edges.length) {
  for (var i=0;i<edges.length;i++) {
    if (edges[i].id.substr(0,4)=='edge') {
      edges[i].setAttribute('class','edge');
    }
  }
}
]]></script>
        <defs>
                <circle id="rim" cx="0" cy="0" r="7"/>
                <circle id="rim2" cx="0" cy="0" r="3.5"/>
                <g id="zoomPlus">
                        <use xlink:href="#rim" fill="#404040">
                                <set attributeName="fill" to="#808080" begin="zoomplus.mouseover" end="zoomplus.mouseout"/>
                        </use>
                        <path d="M-4,0h8M0,-4v8" fill="none" stroke="white" stroke-width="1.5" pointer-events="none"/>
                </g>
                <g id="zoomMin">
                        <use xlink:href="#rim" fill="#404040">
                                <set attributeName="fill" to="#808080" begin="zoomminus.mouseover" end="zoomminus.mouseout"/>
                        </use>
                        <path d="M-4,0h8" fill="none" stroke="white" stroke-width="1.5" pointer-events="none"/>
                </g>
                <g id="dirArrow">
                        <path fill="none" stroke="white" stroke-width="1.5" d="M0,-3.0v7 M-2.5,-0.5L0,-3.0L2.5,-0.5"/>
                </g>
               <g id="resetDef">
                       <use xlink:href="#rim2" fill="#404040">
                               <set attributeName="fill" to="#808080" begin="reset.mouseover" end="reset.mouseout"/>
                       </use>
               </g>
        </defs>

<script type="text/javascript">
var viewWidth = 779;
var viewHeight = 240;
var sectionId = 'dynsection-0';
</script>
<script xlink:href="svgpan.js"/>
<svg id="graph" class="graph">
<g id="viewport">
<title>/home/fnky/C0de/component_engine/src/IMGUI/imgui_draw.cpp</title>
<!-- Node1 -->
<g id="node1" class="node">
<title>Node1</title>
<g id="a_node1"><a xlink:title=" ">
<polygon fill="#bfbfbf" stroke="black" points="438.5,-190.5 438.5,-231.5 595.5,-231.5 595.5,-190.5 438.5,-190.5"/>
<text text-anchor="start" x="446.5" y="-219.5" font-family="Helvetica,sans-Serif" font-size="10.00">/home/fnky/C0de/component</text>
<text text-anchor="start" x="446.5" y="-208.5" font-family="Helvetica,sans-Serif" font-size="10.00">_engine/src/IMGUI/imgui</text>
<text text-anchor="middle" x="517" y="-197.5" font-family="Helvetica,sans-Serif" font-size="10.00">_draw.cpp</text>
</a>
</g>
</g>
<!-- Node2 -->
<g id="node2" class="node">
<title>Node2</title>
<g id="a_node2"><a xlink:href="imgui_8h.html" target="_top" xlink:title=" ">
<polygon fill="none" stroke="black" points="124.5,-56.5 124.5,-86.5 227.5,-86.5 227.5,-56.5 124.5,-56.5"/>
<text text-anchor="start" x="132.5" y="-74.5" font-family="Helvetica,sans-Serif" font-size="10.00">../../include/IMGUI</text>
<text text-anchor="middle" x="176" y="-63.5" font-family="Helvetica,sans-Serif" font-size="10.00">/imgui.h</text>
</a>
</g>
</g>
<!-- Node1&#45;&gt;Node2 -->
<g id="edge1" class="edge">
<title>Node1&#45;&gt;Node2</title>
<path fill="none" stroke="midnightblue" d="M467.36,-190.41C440.33,-179.71 406.3,-166.19 376,-154 322.06,-132.3 260.08,-106.98 219.6,-90.4"/>
<polygon fill="midnightblue" stroke="midnightblue" points="220.87,-87.14 210.29,-86.58 218.22,-93.61 220.87,-87.14"/>
</g>
<!-- Node9 -->
<g id="node9" class="node">
<title>Node9</title>
<g id="a_node9"><a xlink:href="imgui__internal_8h.html" target="_top" xlink:title=" ">
<polygon fill="none" stroke="black" points="384.5,-123.5 384.5,-153.5 487.5,-153.5 487.5,-123.5 384.5,-123.5"/>
<text text-anchor="start" x="392.5" y="-141.5" font-family="Helvetica,sans-Serif" font-size="10.00">../../include/IMGUI</text>
<text text-anchor="middle" x="436" y="-130.5" font-family="Helvetica,sans-Serif" font-size="10.00">/imgui_internal.h</text>
</a>
</g>
</g>
<!-- Node1&#45;&gt;Node9 -->
<g id="edge8" class="edge">
<title>Node1&#45;&gt;Node9</title>
<path fill="none" stroke="midnightblue" d="M494.44,-190.36C483.66,-180.99 470.77,-169.76 459.84,-160.25"/>
<polygon fill="midnightblue" stroke="midnightblue" points="462.12,-157.6 452.28,-153.67 457.53,-162.88 462.12,-157.6"/>
</g>
<!-- Node10 -->
<g id="node10" class="node">
<title>Node10</title>
<g id="a_node10"><a xlink:title=" ">
<polygon fill="none" stroke="#bfbfbf" points="503,-62 503,-81 553,-81 553,-62 503,-62"/>
<text text-anchor="middle" x="528" y="-69" font-family="Helvetica,sans-Serif" font-size="10.00">stdio.h</text>
</a>
</g>
</g>
<!-- Node1&#45;&gt;Node10 -->
<g id="edge16" class="edge">
<title>Node1&#45;&gt;Node10</title>
<path fill="none" stroke="midnightblue" d="M518.58,-190.3C520.7,-163.78 524.44,-116.94 526.52,-91.03"/>
<polygon fill="midnightblue" stroke="midnightblue" points="530.01,-91.29 527.32,-81.04 523.03,-90.73 530.01,-91.29"/>
</g>
<!-- Node15 -->
<g id="node15" class="node">
<title>Node15</title>
<g id="a_node15"><a xlink:href="imstb__rectpack_8h.html" target="_top" xlink:title=" ">
<polygon fill="none" stroke="black" points="667,-123.5 667,-153.5 771,-153.5 771,-123.5 667,-123.5"/>
<text text-anchor="start" x="675" y="-141.5" font-family="Helvetica,sans-Serif" font-size="10.00">../../include/IMGUI</text>
<text text-anchor="middle" x="719" y="-130.5" font-family="Helvetica,sans-Serif" font-size="10.00">/imstb_rectpack.h</text>
</a>
</g>
</g>
<!-- Node1&#45;&gt;Node15 -->
<g id="edge17" class="edge">
<title>Node1&#45;&gt;Node15</title>
<path fill="none" stroke="midnightblue" d="M573,-190.46C603.11,-179.95 639.92,-167.1 669.05,-156.93"/>
<polygon fill="midnightblue" stroke="midnightblue" points="670.32,-160.2 678.61,-153.6 668.01,-153.59 670.32,-160.2"/>
</g>
<!-- Node16 -->
<g id="node16" class="node">
<title>Node16</title>
<g id="a_node16"><a xlink:href="imstb__truetype_8h.html" target="_top" xlink:title=" ">
<polygon fill="none" stroke="black" points="545.5,-123.5 545.5,-153.5 648.5,-153.5 648.5,-123.5 545.5,-123.5"/>
<text text-anchor="start" x="553.5" y="-141.5" font-family="Helvetica,sans-Serif" font-size="10.00">../../include/IMGUI</text>
<text text-anchor="middle" x="597" y="-130.5" font-family="Helvetica,sans-Serif" font-size="10.00">/imstb_truetype.h</text>
</a>
</g>
</g>
<!-- Node1&#45;&gt;Node16 -->
<g id="edge18" class="edge">
<title>Node1&#45;&gt;Node16</title>
<path fill="none" stroke="midnightblue" d="M539.28,-190.36C549.82,-181.08 562.41,-169.98 573.14,-160.52"/>
<polygon fill="midnightblue" stroke="midnightblue" points="575.73,-162.91 580.92,-153.67 571.1,-157.66 575.73,-162.91"/>
</g>
<!-- Node3 -->
<g id="node3" class="node">
<title>Node3</title>
<g id="a_node3"><a xlink:href="imconfig_8h.html" target="_top" xlink:title=" ">
<polygon fill="none" stroke="black" points="222,-0.5 222,-19.5 290,-19.5 290,-0.5 222,-0.5"/>
<text text-anchor="middle" x="256" y="-7.5" font-family="Helvetica,sans-Serif" font-size="10.00">imconfig.h</text>
</a>
</g>
</g>
<!-- Node2&#45;&gt;Node3 -->
<g id="edge2" class="edge">
<title>Node2&#45;&gt;Node3</title>
<path fill="none" stroke="midnightblue" d="M194.96,-56.4C207.42,-47.13 223.7,-35.03 236.31,-25.65"/>
<polygon fill="midnightblue" stroke="midnightblue" points="238.42,-28.43 244.36,-19.66 234.25,-22.82 238.42,-28.43"/>
</g>
<!-- Node4 -->
<g id="node4" class="node">
<title>Node4</title>
<g id="a_node4"><a xlink:title=" ">
<polygon fill="none" stroke="#bfbfbf" points="308.5,-0.5 308.5,-19.5 355.5,-19.5 355.5,-0.5 308.5,-0.5"/>
<text text-anchor="middle" x="332" y="-7.5" font-family="Helvetica,sans-Serif" font-size="10.00">float.h</text>
</a>
</g>
</g>
<!-- Node2&#45;&gt;Node4 -->
<g id="edge3" class="edge">
<title>Node2&#45;&gt;Node4</title>
<path fill="none" stroke="midnightblue" d="M212.97,-56.4C239.38,-46.33 274.56,-32.91 299.81,-23.28"/>
<polygon fill="midnightblue" stroke="midnightblue" points="301.2,-26.49 309.3,-19.66 298.71,-19.95 301.2,-26.49"/>
</g>
<!-- Node5 -->
<g id="node5" class="node">
<title>Node5</title>
<g id="a_node5"><a xlink:title=" ">
<polygon fill="none" stroke="#bfbfbf" points="0,-0.5 0,-19.5 56,-19.5 56,-0.5 0,-0.5"/>
<text text-anchor="middle" x="28" y="-7.5" font-family="Helvetica,sans-Serif" font-size="10.00">stdarg.h</text>
</a>
</g>
</g>
<!-- Node2&#45;&gt;Node5 -->
<g id="edge4" class="edge">
<title>Node2&#45;&gt;Node5</title>
<path fill="none" stroke="midnightblue" d="M140.93,-56.4C115.98,-46.37 82.79,-33.03 58.86,-23.4"/>
<polygon fill="midnightblue" stroke="midnightblue" points="60.12,-20.14 49.54,-19.66 57.51,-26.64 60.12,-20.14"/>
</g>
<!-- Node6 -->
<g id="node6" class="node">
<title>Node6</title>
<g id="a_node6"><a xlink:title=" ">
<polygon fill="none" stroke="#bfbfbf" points="74,-0.5 74,-19.5 130,-19.5 130,-0.5 74,-0.5"/>
<text text-anchor="middle" x="102" y="-7.5" font-family="Helvetica,sans-Serif" font-size="10.00">stddef.h</text>
</a>
</g>
</g>
<!-- Node2&#45;&gt;Node6 -->
<g id="edge5" class="edge">
<title>Node2&#45;&gt;Node6</title>
<path fill="none" stroke="midnightblue" d="M158.46,-56.4C147.16,-47.31 132.46,-35.49 120.89,-26.19"/>
<polygon fill="midnightblue" stroke="midnightblue" points="122.75,-23.2 112.77,-19.66 118.37,-28.65 122.75,-23.2"/>
</g>
<!-- Node7 -->
<g id="node7" class="node">
<title>Node7</title>
<g id="a_node7"><a xlink:title=" ">
<polygon fill="none" stroke="#bfbfbf" points="409.5,-0.5 409.5,-19.5 462.5,-19.5 462.5,-0.5 409.5,-0.5"/>
<text text-anchor="middle" x="436" y="-7.5" font-family="Helvetica,sans-Serif" font-size="10.00">string.h</text>
</a>
</g>
</g>
<!-- Node2&#45;&gt;Node7 -->
<g id="edge6" class="edge">
<title>Node2&#45;&gt;Node7</title>
<path fill="none" stroke="midnightblue" d="M227.7,-57.95C230.51,-57.29 233.29,-56.63 236,-56 293.07,-42.68 359.47,-27.88 399.59,-19.01"/>
<polygon fill="midnightblue" stroke="midnightblue" points="400.43,-22.41 409.44,-16.84 398.92,-15.57 400.43,-22.41"/>
</g>
<!-- Node8 -->
<g id="node8" class="node">
<title>Node8</title>
<g id="a_node8"><a xlink:title=" ">
<polygon fill="none" stroke="#bfbfbf" points="148,-0.5 148,-19.5 204,-19.5 204,-0.5 148,-0.5"/>
<text text-anchor="middle" x="176" y="-7.5" font-family="Helvetica,sans-Serif" font-size="10.00">assert.h</text>
</a>
</g>
</g>
<!-- Node2&#45;&gt;Node8 -->
<g id="edge7" class="edge">
<title>Node2&#45;&gt;Node8</title>
<path fill="none" stroke="midnightblue" d="M176,-56.4C176,-48.47 176,-38.46 176,-29.86"/>
<polygon fill="midnightblue" stroke="midnightblue" points="179.5,-29.66 176,-19.66 172.5,-29.66 179.5,-29.66"/>
</g>
<!-- Node9&#45;&gt;Node2 -->
<g id="edge9" class="edge">
<title>Node9&#45;&gt;Node2</title>
<path fill="none" stroke="midnightblue" d="M384.32,-124.58C342.05,-114.01 282.17,-99.04 237.45,-87.86"/>
<polygon fill="midnightblue" stroke="midnightblue" points="238.13,-84.43 227.58,-85.4 236.43,-91.22 238.13,-84.43"/>
</g>
<!-- Node9&#45;&gt;Node10 -->
<g id="edge10" class="edge">
<title>Node9&#45;&gt;Node10</title>
<path fill="none" stroke="midnightblue" d="M455.96,-123.4C471.25,-112.6 492.25,-97.76 507.64,-86.89"/>
<polygon fill="midnightblue" stroke="midnightblue" points="509.81,-89.64 515.96,-81.01 505.77,-83.92 509.81,-89.64"/>
</g>
<!-- Node11 -->
<g id="node11" class="node">
<title>Node11</title>
<g id="a_node11"><a xlink:title=" ">
<polygon fill="none" stroke="#bfbfbf" points="316.5,-62 316.5,-81 369.5,-81 369.5,-62 316.5,-62"/>
<text text-anchor="middle" x="343" y="-69" font-family="Helvetica,sans-Serif" font-size="10.00">stdlib.h</text>
</a>
</g>
</g>
<!-- Node9&#45;&gt;Node11 -->
<g id="edge11" class="edge">
<title>Node9&#45;&gt;Node11</title>
<path fill="none" stroke="midnightblue" d="M415.82,-123.4C400.37,-112.6 379.14,-97.76 363.58,-86.89"/>
<polygon fill="midnightblue" stroke="midnightblue" points="365.37,-83.87 355.17,-81.01 361.36,-89.6 365.37,-83.87"/>
</g>
<!-- Node12 -->
<g id="node12" class="node">
<title>Node12</title>
<g id="a_node12"><a xlink:title=" ">
<polygon fill="none" stroke="#bfbfbf" points="571.5,-62 571.5,-81 622.5,-81 622.5,-62 571.5,-62"/>
<text text-anchor="middle" x="597" y="-69" font-family="Helvetica,sans-Serif" font-size="10.00">math.h</text>
</a>
</g>
</g>
<!-- Node9&#45;&gt;Node12 -->
<g id="edge12" class="edge">
<title>Node9&#45;&gt;Node12</title>
<path fill="none" stroke="midnightblue" d="M471.35,-123.46C496.63,-113.39 531.45,-99.45 562,-87 563.59,-86.35 565.22,-85.68 566.87,-85.01"/>
<polygon fill="midnightblue" stroke="midnightblue" points="568.38,-88.17 576.29,-81.13 565.71,-81.7 568.38,-88.17"/>
</g>
<!-- Node13 -->
<g id="node13" class="node">
<title>Node13</title>
<g id="a_node13"><a xlink:title=" ">
<polygon fill="none" stroke="#bfbfbf" points="245.5,-62 245.5,-81 298.5,-81 298.5,-62 245.5,-62"/>
<text text-anchor="middle" x="272" y="-69" font-family="Helvetica,sans-Serif" font-size="10.00">limits.h</text>
</a>
</g>
</g>
<!-- Node9&#45;&gt;Node13 -->
<g id="edge13" class="edge">
<title>Node9&#45;&gt;Node13</title>
<path fill="none" stroke="midnightblue" d="M400.11,-123.42C374.44,-113.33 339.07,-99.38 308,-87 306.36,-86.35 304.69,-85.68 303,-85"/>
<polygon fill="midnightblue" stroke="midnightblue" points="303.89,-81.59 293.31,-81.11 301.29,-88.09 303.89,-81.59"/>
</g>
<!-- Node14 -->
<g id="node14" class="node">
<title>Node14</title>
<g id="a_node14"><a xlink:href="imstb__textedit_8h.html" target="_top" xlink:title=" ">
<polygon fill="none" stroke="black" points="387.5,-62 387.5,-81 484.5,-81 484.5,-62 387.5,-62"/>
<text text-anchor="middle" x="436" y="-69" font-family="Helvetica,sans-Serif" font-size="10.00">imstb_textedit.h</text>
</a>
</g>
</g>
<!-- Node9&#45;&gt;Node14 -->
<g id="edge14" class="edge">
<title>Node9&#45;&gt;Node14</title>
<path fill="none" stroke="midnightblue" d="M436,-123.4C436,-114.06 436,-101.71 436,-91.52"/>
<polygon fill="midnightblue" stroke="midnightblue" points="439.5,-91.19 436,-81.19 432.5,-91.19 439.5,-91.19"/>
</g>
<!-- Node14&#45;&gt;Node7 -->
<g id="edge15" class="edge">
<title>Node14&#45;&gt;Node7</title>
<path fill="none" stroke="midnightblue" d="M436,-61.98C436,-53.58 436,-40.48 436,-29.66"/>
<polygon fill="midnightblue" stroke="midnightblue" points="439.5,-29.51 436,-19.51 432.5,-29.51 439.5,-29.51"/>
</g>
<!-- Node16&#45;&gt;Node7 -->
<g id="edge20" class="edge">
<title>Node16&#45;&gt;Node7</title>
<path fill="none" stroke="midnightblue" d="M611.44,-123.32C627.28,-106.04 648.4,-76.6 632,-56 612.47,-31.47 523.85,-19.21 472.71,-14.08"/>
<polygon fill="midnightblue" stroke="midnightblue" points="473,-10.59 462.71,-13.12 472.33,-17.56 473,-10.59"/>
</g>
<!-- Node16&#45;&gt;Node12 -->
<g id="edge19" class="edge">
<title>Node16&#45;&gt;Node12</title>
<path fill="none" stroke="midnightblue" d="M597,-123.4C597,-114.06 597,-101.71 597,-91.52"/>
<polygon fill="midnightblue" stroke="midnightblue" points="600.5,-91.19 597,-81.19 593.5,-91.19 600.5,-91.19"/>
</g>
</g>
</svg>
        <g id="navigator" transform="translate(0 0)" fill="#404254">
                <rect fill="#f2f5e9" fill-opacity="0.5" stroke="#606060" stroke-width=".5" x="0" y="0" width="60" height="60"/>
                <use id="zoomplus" xlink:href="#zoomPlus" x="17" y="9" onmousedown="handleZoom(evt,'in')"/>
                <use id="zoomminus" xlink:href="#zoomMin" x="42" y="9" onmousedown="handleZoom(evt,'out')"/>
                <use id="reset" xlink:href="#resetDef" x="30" y="36" onmousedown="handleReset()"/>
                <g id="arrowUp" xlink:href="#dirArrow" transform="translate(30 24)" onmousedown="handlePan(0,-1)">
                  <use xlink:href="#rim" fill="#404040">
                        <set attributeName="fill" to="#808080" begin="arrowUp.mouseover" end="arrowUp.mouseout"/>
                  </use>
                  <path fill="none" stroke="white" stroke-width="1.5" d="M0,-3.0v7 M-2.5,-0.5L0,-3.0L2.5,-0.5"/>
                </g>
                <g id="arrowRight" xlink:href="#dirArrow" transform="rotate(90) translate(36 -43)" onmousedown="handlePan(1,0)">
                  <use xlink:href="#rim" fill="#404040">
                        <set attributeName="fill" to="#808080" begin="arrowRight.mouseover" end="arrowRight.mouseout"/>
                  </use>
                  <path fill="none" stroke="white" stroke-width="1.5" d="M0,-3.0v7 M-2.5,-0.5L0,-3.0L2.5,-0.5"/>
                </g>
                <g id="arrowDown" xlink:href="#dirArrow" transform="rotate(180) translate(-30 -48)" onmousedown="handlePan(0,1)">
                  <use xlink:href="#rim" fill="#404040">
                        <set attributeName="fill" to="#808080" begin="arrowDown.mouseover" end="arrowDown.mouseout"/>
                  </use>
                  <path fill="none" stroke="white" stroke-width="1.5" d="M0,-3.0v7 M-2.5,-0.5L0,-3.0L2.5,-0.5"/>
                </g>
                <g id="arrowLeft" xlink:href="#dirArrow" transform="rotate(270) translate(-36 17)" onmousedown="handlePan(-1,0)">
                  <use xlink:href="#rim" fill="#404040">
                        <set attributeName="fill" to="#808080" begin="arrowLeft.mouseover" end="arrowLeft.mouseout"/>
                  </use>
                  <path fill="none" stroke="white" stroke-width="1.5" d="M0,-3.0v7 M-2.5,-0.5L0,-3.0L2.5,-0.5"/>
                </g>
        </g>
        <svg viewBox="0 0 15 15" width="100%" height="30px" preserveAspectRatio="xMaxYMin meet">
         <g id="arrow_out" transform="scale(0.3 0.3)">
          <a xlink:href="imgui__draw_8cpp__incl_org.svg" target="_base">
           <rect id="button" ry="5" rx="5" y="6" x="6" height="38" width="38"
                fill="#f2f5e9" fill-opacity="0.5" stroke="#606060" stroke-width="1.0"/>
           <path id="arrow"
             d="M 11.500037,31.436501 C 11.940474,20.09759 22.043105,11.32322 32.158766,21.979434 L 37.068811,17.246167 C 37.068811,17.246167 37.088388,32 37.088388,32 L 22.160133,31.978069 C 22.160133,31.978069 26.997745,27.140456 26.997745,27.140456 C 18.528582,18.264221 13.291696,25.230495 11.500037,31.436501 z"
             style="fill:#404040;"/>
          </a>
         </g>
        </svg>
</svg>
