<?xml version="1.0" encoding="UTF-8" standalone="no"?>
<!DOCTYPE svg PUBLIC "-//W3C//DTD SVG 1.1//EN"
 "http://www.w3.org/Graphics/SVG/1.1/DTD/svg11.dtd">
<!-- Generated by graphviz version 2.43.0 (0)
 -->
<!-- Title: Graphical Class Hierarchy Pages: 1 -->
<svg width="187pt" height="180pt"
 viewBox="0.00 0.00 187.00 180.00" xmlns="http://www.w3.org/2000/svg" xmlns:xlink="http://www.w3.org/1999/xlink">
<g id="graph0" class="graph" transform="scale(1 1) rotate(0) translate(4 176)">
<title>Graphical Class Hierarchy</title>
<!-- Node0 -->
<g id="node1" class="node">
<title>Node0</title>
<g id="a_node1"><a xlink:href="classState.html" target="_top" xlink:title=" ">
<polygon fill="none" stroke="black" points="0,-76.5 0,-95.5 42,-95.5 42,-76.5 0,-76.5"/>
<text text-anchor="middle" x="21" y="-83.5" font-family="Helvetica,sans-Serif" font-size="10.00">State</text>
</a>
</g>
</g>
<!-- Node1 -->
<g id="node2" class="node">
<title>Node1</title>
<g id="a_node2"><a xlink:href="classGameOverState.html" target="_top" xlink:title=" ">
<polygon fill="none" stroke="black" points="81,-152.5 81,-171.5 176,-171.5 176,-152.5 81,-152.5"/>
<text text-anchor="middle" x="128.5" y="-159.5" font-family="Helvetica,sans-Serif" font-size="10.00">GameOverState</text>
</a>
</g>
</g>
<!-- Node0&#45;&gt;Node1 -->
<g id="edge1" class="edge">
<title>Node0&#45;&gt;Node1</title>
<path fill="none" stroke="midnightblue" d="M35.76,-103.58C46.23,-115.99 61.6,-132.25 78,-143 83.62,-146.68 90.06,-149.81 96.39,-152.4"/>
<polygon fill="midnightblue" stroke="midnightblue" points="38.38,-101.25 29.34,-95.72 32.96,-105.68 38.38,-101.25"/>
</g>
<!-- Node2 -->
<g id="node3" class="node">
<title>Node2</title>
<g id="a_node3"><a xlink:href="classGamePlayState.html" target="_top" xlink:title=" ">
<polygon fill="none" stroke="black" points="82.5,-114.5 82.5,-133.5 174.5,-133.5 174.5,-114.5 82.5,-114.5"/>
<text text-anchor="middle" x="128.5" y="-121.5" font-family="Helvetica,sans-Serif" font-size="10.00">GamePlayState</text>
</a>
</g>
</g>
<!-- Node0&#45;&gt;Node2 -->
<g id="edge2" class="edge">
<title>Node0&#45;&gt;Node2</title>
<path fill="none" stroke="midnightblue" d="M51.92,-96.78C67.32,-102.32 85.93,-109.03 100.83,-114.39"/>
<polygon fill="midnightblue" stroke="midnightblue" points="52.94,-93.42 42.34,-93.33 50.56,-100.01 52.94,-93.42"/>
</g>
<!-- Node3 -->
<g id="node4" class="node">
<title>Node3</title>
<g id="a_node4"><a xlink:href="classLoadingPlayState.html" target="_top" xlink:title=" ">
<polygon fill="none" stroke="black" points="78,-76.5 78,-95.5 179,-95.5 179,-76.5 78,-76.5"/>
<text text-anchor="middle" x="128.5" y="-83.5" font-family="Helvetica,sans-Serif" font-size="10.00">LoadingPlayState</text>
</a>
</g>
</g>
<!-- Node0&#45;&gt;Node3 -->
<g id="edge3" class="edge">
<title>Node0&#45;&gt;Node3</title>
<path fill="none" stroke="midnightblue" d="M52.57,-86C60.5,-86 69.26,-86 77.9,-86"/>
<polygon fill="midnightblue" stroke="midnightblue" points="52.34,-82.5 42.34,-86 52.34,-89.5 52.34,-82.5"/>
</g>
<!-- Node4 -->
<g id="node5" class="node">
<title>Node4</title>
<g id="a_node5"><a xlink:href="classMainMenuState.html" target="_top" xlink:title=" ">
<polygon fill="none" stroke="black" points="82,-38.5 82,-57.5 175,-57.5 175,-38.5 82,-38.5"/>
<text text-anchor="middle" x="128.5" y="-45.5" font-family="Helvetica,sans-Serif" font-size="10.00">MainMenuState</text>
</a>
</g>
</g>
<!-- Node0&#45;&gt;Node4 -->
<g id="edge4" class="edge">
<title>Node0&#45;&gt;Node4</title>
<path fill="none" stroke="midnightblue" d="M51.92,-75.22C67.32,-69.68 85.93,-62.97 100.83,-57.61"/>
<polygon fill="midnightblue" stroke="midnightblue" points="50.56,-71.99 42.34,-78.67 52.94,-78.58 50.56,-71.99"/>
</g>
<!-- Node5 -->
<g id="node6" class="node">
<title>Node5</title>
<g id="a_node6"><a xlink:href="classSplashState.html" target="_top" xlink:title=" ">
<polygon fill="none" stroke="black" points="91.5,-0.5 91.5,-19.5 165.5,-19.5 165.5,-0.5 91.5,-0.5"/>
<text text-anchor="middle" x="128.5" y="-7.5" font-family="Helvetica,sans-Serif" font-size="10.00">SplashState</text>
</a>
</g>
</g>
<!-- Node0&#45;&gt;Node5 -->
<g id="edge5" class="edge">
<title>Node0&#45;&gt;Node5</title>
<path fill="none" stroke="midnightblue" d="M35.76,-68.42C46.23,-56.01 61.6,-39.75 78,-29 83.62,-25.32 90.06,-22.19 96.39,-19.6"/>
<polygon fill="midnightblue" stroke="midnightblue" points="32.96,-66.32 29.34,-76.28 38.38,-70.75 32.96,-66.32"/>
</g>
</g>
</svg>
