<?xml version="1.0" encoding="UTF-8" standalone="no"?>
<!DOCTYPE svg PUBLIC "-//W3C//DTD SVG 1.1//EN"
 "http://www.w3.org/Graphics/SVG/1.1/DTD/svg11.dtd">
<!-- Generated by graphviz version 2.43.0 (0)
 -->
<!-- Title: /home/fnky/C0de/component_engine/include/Loaders/LoadingGameObjects.h Pages: 1 -->
<svg width="1146pt" height="284pt"
 viewBox="0.00 0.00 1146.00 284.00" xmlns="http://www.w3.org/2000/svg" xmlns:xlink="http://www.w3.org/1999/xlink">
<g id="graph0" class="graph" transform="scale(1 1) rotate(0) translate(4 280)">
<title>/home/fnky/C0de/component_engine/include/Loaders/LoadingGameObjects.h</title>
<!-- Node1 -->
<g id="node1" class="node">
<title>Node1</title>
<g id="a_node1"><a xlink:title=" ">
<polygon fill="#bfbfbf" stroke="black" points="481,-234.5 481,-275.5 638,-275.5 638,-234.5 481,-234.5"/>
<text text-anchor="start" x="489" y="-263.5" font-family="Helvetica,sans-Serif" font-size="10.00">/home/fnky/C0de/component</text>
<text text-anchor="start" x="489" y="-252.5" font-family="Helvetica,sans-Serif" font-size="10.00">_engine/include/Loaders</text>
<text text-anchor="middle" x="559.5" y="-241.5" font-family="Helvetica,sans-Serif" font-size="10.00">/LoadingGameObjects.h</text>
</a>
</g>
</g>
<!-- Node2 -->
<g id="node2" class="node">
<title>Node2</title>
<g id="a_node2"><a xlink:href="GameData_8h.html" target="_top" xlink:title=" ">
<polygon fill="none" stroke="black" points="481,-156.5 481,-197.5 638,-197.5 638,-156.5 481,-156.5"/>
<text text-anchor="start" x="489" y="-185.5" font-family="Helvetica,sans-Serif" font-size="10.00">/home/fnky/C0de/component</text>
<text text-anchor="start" x="489" y="-174.5" font-family="Helvetica,sans-Serif" font-size="10.00">_engine/include/GameData</text>
<text text-anchor="middle" x="559.5" y="-163.5" font-family="Helvetica,sans-Serif" font-size="10.00">/GameData.h</text>
</a>
</g>
</g>
<!-- Node1&#45;&gt;Node2 -->
<g id="edge1" class="edge">
<title>Node1&#45;&gt;Node2</title>
<path fill="none" stroke="midnightblue" d="M559.5,-224.3C559.5,-215.3 559.5,-205.65 559.5,-197.51"/>
<polygon fill="midnightblue" stroke="midnightblue" points="556,-224.43 559.5,-234.43 563,-224.43 556,-224.43"/>
</g>
<!-- Node7 -->
<g id="node7" class="node">
<title>Node7</title>
<g id="a_node7"><a xlink:href="game__play__state_8cpp.html" target="_top" xlink:title=" ">
<polygon fill="none" stroke="black" points="0,-0.5 0,-41.5 157,-41.5 157,-0.5 0,-0.5"/>
<text text-anchor="start" x="8" y="-29.5" font-family="Helvetica,sans-Serif" font-size="10.00">/home/fnky/C0de/component</text>
<text text-anchor="start" x="8" y="-18.5" font-family="Helvetica,sans-Serif" font-size="10.00">_engine/src/States/game</text>
<text text-anchor="middle" x="78.5" y="-7.5" font-family="Helvetica,sans-Serif" font-size="10.00">_play_state.cpp</text>
</a>
</g>
</g>
<!-- Node1&#45;&gt;Node7 -->
<g id="edge24" class="edge">
<title>Node1&#45;&gt;Node7</title>
<path fill="none" stroke="midnightblue" d="M470.77,-242.35C344.34,-223.72 122.31,-182.81 74.5,-120 57.48,-97.64 64.06,-63.39 70.89,-41.87"/>
<polygon fill="midnightblue" stroke="midnightblue" points="470.43,-245.84 480.83,-243.81 471.44,-238.91 470.43,-245.84"/>
</g>
<!-- Node14 -->
<g id="node14" class="node">
<title>Node14</title>
<g id="a_node14"><a xlink:href="LoadingGameObjects_8cpp.html" target="_top" xlink:title=" ">
<polygon fill="none" stroke="black" points="656.5,-156.5 656.5,-197.5 840.5,-197.5 840.5,-156.5 656.5,-156.5"/>
<text text-anchor="start" x="664.5" y="-185.5" font-family="Helvetica,sans-Serif" font-size="10.00">/home/fnky/C0de/component</text>
<text text-anchor="start" x="664.5" y="-174.5" font-family="Helvetica,sans-Serif" font-size="10.00">_engine/src/Loaders/LoadingGame</text>
<text text-anchor="middle" x="748.5" y="-163.5" font-family="Helvetica,sans-Serif" font-size="10.00">Objects.cpp</text>
</a>
</g>
</g>
<!-- Node1&#45;&gt;Node14 -->
<g id="edge23" class="edge">
<title>Node1&#45;&gt;Node14</title>
<path fill="none" stroke="midnightblue" d="M617.67,-230.61C644.05,-220 674.89,-207.6 699.99,-197.51"/>
<polygon fill="midnightblue" stroke="midnightblue" points="616.14,-227.45 608.17,-234.43 618.76,-233.94 616.14,-227.45"/>
</g>
<!-- Node3 -->
<g id="node3" class="node">
<title>Node3</title>
<g id="a_node3"><a xlink:href="game__over__state_8h.html" target="_top" xlink:title=" ">
<polygon fill="none" stroke="black" points="963,-78.5 963,-119.5 1120,-119.5 1120,-78.5 963,-78.5"/>
<text text-anchor="start" x="971" y="-107.5" font-family="Helvetica,sans-Serif" font-size="10.00">/home/fnky/C0de/component</text>
<text text-anchor="start" x="971" y="-96.5" font-family="Helvetica,sans-Serif" font-size="10.00">_engine/include/States</text>
<text text-anchor="middle" x="1041.5" y="-85.5" font-family="Helvetica,sans-Serif" font-size="10.00">/game_over_state.h</text>
</a>
</g>
</g>
<!-- Node2&#45;&gt;Node3 -->
<g id="edge2" class="edge">
<title>Node2&#45;&gt;Node3</title>
<path fill="none" stroke="midnightblue" d="M648.32,-155.96C782.04,-133.47 818.85,-141.65 948.5,-120 953.22,-119.21 958.07,-118.34 962.95,-117.43"/>
<polygon fill="midnightblue" stroke="midnightblue" points="647.37,-152.57 638.1,-157.71 648.55,-159.47 647.37,-152.57"/>
</g>
<!-- Node4 -->
<g id="node4" class="node">
<title>Node4</title>
<g id="a_node4"><a xlink:href="main_8cpp.html" target="_top" xlink:title=" ">
<polygon fill="none" stroke="black" points="438,-6 438,-36 595,-36 595,-6 438,-6"/>
<text text-anchor="start" x="446" y="-24" font-family="Helvetica,sans-Serif" font-size="10.00">/home/fnky/C0de/component</text>
<text text-anchor="middle" x="516.5" y="-13" font-family="Helvetica,sans-Serif" font-size="10.00">_engine/src/main.cpp</text>
</a>
</g>
</g>
<!-- Node2&#45;&gt;Node4 -->
<g id="edge17" class="edge">
<title>Node2&#45;&gt;Node4</title>
<path fill="none" stroke="midnightblue" d="M539.03,-147.89C533.75,-139.32 528.67,-129.62 525.5,-120 516.03,-91.28 515.35,-55.43 515.84,-36.03"/>
<polygon fill="midnightblue" stroke="midnightblue" points="536.15,-149.87 544.53,-156.35 542.02,-146.06 536.15,-149.87"/>
</g>
<!-- Node5 -->
<g id="node5" class="node">
<title>Node5</title>
<g id="a_node5"><a xlink:href="game__over__state_8cpp.html" target="_top" xlink:title=" ">
<polygon fill="none" stroke="black" points="981,-0.5 981,-41.5 1138,-41.5 1138,-0.5 981,-0.5"/>
<text text-anchor="start" x="989" y="-29.5" font-family="Helvetica,sans-Serif" font-size="10.00">/home/fnky/C0de/component</text>
<text text-anchor="start" x="989" y="-18.5" font-family="Helvetica,sans-Serif" font-size="10.00">_engine/src/States/game</text>
<text text-anchor="middle" x="1059.5" y="-7.5" font-family="Helvetica,sans-Serif" font-size="10.00">_over_state.cpp</text>
</a>
</g>
</g>
<!-- Node2&#45;&gt;Node5 -->
<g id="edge18" class="edge">
<title>Node2&#45;&gt;Node5</title>
<path fill="none" stroke="midnightblue" d="M648.17,-156.39C734.41,-148.93 1094.57,-157.63 1129.5,-120 1142.2,-106.32 1137.59,-94.82 1129.5,-78 1122.29,-62.99 1108.87,-50.75 1095.7,-41.58"/>
<polygon fill="midnightblue" stroke="midnightblue" points="647.62,-152.93 638.07,-157.53 648.4,-159.89 647.62,-152.93"/>
</g>
<!-- Node6 -->
<g id="node6" class="node">
<title>Node6</title>
<g id="a_node6"><a xlink:href="game__play__state_8h.html" target="_top" xlink:title=" ">
<polygon fill="none" stroke="black" points="107,-78.5 107,-119.5 264,-119.5 264,-78.5 107,-78.5"/>
<text text-anchor="start" x="115" y="-107.5" font-family="Helvetica,sans-Serif" font-size="10.00">/home/fnky/C0de/component</text>
<text text-anchor="start" x="115" y="-96.5" font-family="Helvetica,sans-Serif" font-size="10.00">_engine/include/States</text>
<text text-anchor="middle" x="185.5" y="-85.5" font-family="Helvetica,sans-Serif" font-size="10.00">/game_play_state.h</text>
</a>
</g>
</g>
<!-- Node2&#45;&gt;Node6 -->
<g id="edge5" class="edge">
<title>Node2&#45;&gt;Node6</title>
<path fill="none" stroke="midnightblue" d="M470.58,-158.64C415.27,-147.75 342.7,-133.3 278.5,-120 273.81,-119.03 268.99,-118.02 264.13,-117"/>
<polygon fill="midnightblue" stroke="midnightblue" points="470.22,-162.13 480.71,-160.63 471.57,-155.26 470.22,-162.13"/>
</g>
<!-- Node2&#45;&gt;Node7 -->
<g id="edge19" class="edge">
<title>Node2&#45;&gt;Node7</title>
<path fill="none" stroke="midnightblue" d="M470.86,-170.83C344.36,-162.61 124.27,-144.93 97.5,-120 76.2,-100.15 74.67,-64.15 76.14,-41.74"/>
<polygon fill="midnightblue" stroke="midnightblue" points="470.72,-174.32 480.93,-171.47 471.17,-167.34 470.72,-174.32"/>
</g>
<!-- Node8 -->
<g id="node8" class="node">
<title>Node8</title>
<g id="a_node8"><a xlink:href="loading__play__state_8h.html" target="_top" xlink:title=" ">
<polygon fill="none" stroke="black" points="321,-78.5 321,-119.5 478,-119.5 478,-78.5 321,-78.5"/>
<text text-anchor="start" x="329" y="-107.5" font-family="Helvetica,sans-Serif" font-size="10.00">/home/fnky/C0de/component</text>
<text text-anchor="start" x="329" y="-96.5" font-family="Helvetica,sans-Serif" font-size="10.00">_engine/include/States</text>
<text text-anchor="middle" x="399.5" y="-85.5" font-family="Helvetica,sans-Serif" font-size="10.00">/loading_play_state.h</text>
</a>
</g>
</g>
<!-- Node2&#45;&gt;Node8 -->
<g id="edge8" class="edge">
<title>Node2&#45;&gt;Node8</title>
<path fill="none" stroke="midnightblue" d="M509.08,-152.05C487.01,-141.57 461.45,-129.42 440.56,-119.51"/>
<polygon fill="midnightblue" stroke="midnightblue" points="507.76,-155.3 518.3,-156.43 510.76,-148.98 507.76,-155.3"/>
</g>
<!-- Node9 -->
<g id="node9" class="node">
<title>Node9</title>
<g id="a_node9"><a xlink:href="loading__play__state_8cpp.html" target="_top" xlink:title=" ">
<polygon fill="none" stroke="black" points="238,-0.5 238,-41.5 395,-41.5 395,-0.5 238,-0.5"/>
<text text-anchor="start" x="246" y="-29.5" font-family="Helvetica,sans-Serif" font-size="10.00">/home/fnky/C0de/component</text>
<text text-anchor="start" x="246" y="-18.5" font-family="Helvetica,sans-Serif" font-size="10.00">_engine/src/States/loading</text>
<text text-anchor="middle" x="316.5" y="-7.5" font-family="Helvetica,sans-Serif" font-size="10.00">_play_state.cpp</text>
</a>
</g>
</g>
<!-- Node2&#45;&gt;Node9 -->
<g id="edge20" class="edge">
<title>Node2&#45;&gt;Node9</title>
<path fill="none" stroke="midnightblue" d="M471.01,-167.6C408.13,-159.59 331.45,-144.95 311.5,-120 293.84,-97.91 301.19,-63.26 308.53,-41.63"/>
<polygon fill="midnightblue" stroke="midnightblue" points="470.62,-171.08 480.97,-168.83 471.48,-164.13 470.62,-171.08"/>
</g>
<!-- Node10 -->
<g id="node10" class="node">
<title>Node10</title>
<g id="a_node10"><a xlink:href="main__menu__state_8h.html" target="_top" xlink:title=" ">
<polygon fill="none" stroke="black" points="535,-78.5 535,-119.5 692,-119.5 692,-78.5 535,-78.5"/>
<text text-anchor="start" x="543" y="-107.5" font-family="Helvetica,sans-Serif" font-size="10.00">/home/fnky/C0de/component</text>
<text text-anchor="start" x="543" y="-96.5" font-family="Helvetica,sans-Serif" font-size="10.00">_engine/include/States</text>
<text text-anchor="middle" x="613.5" y="-85.5" font-family="Helvetica,sans-Serif" font-size="10.00">/main_menu_state.h</text>
</a>
</g>
</g>
<!-- Node2&#45;&gt;Node10 -->
<g id="edge11" class="edge">
<title>Node2&#45;&gt;Node10</title>
<path fill="none" stroke="midnightblue" d="M579.36,-148.05C586.1,-138.57 593.47,-128.18 599.64,-119.51"/>
<polygon fill="midnightblue" stroke="midnightblue" points="576.35,-146.25 573.41,-156.43 582.05,-150.3 576.35,-146.25"/>
</g>
<!-- Node11 -->
<g id="node11" class="node">
<title>Node11</title>
<g id="a_node11"><a xlink:href="main__menu__state_8cpp.html" target="_top" xlink:title=" ">
<polygon fill="none" stroke="black" points="624,-0.5 624,-41.5 781,-41.5 781,-0.5 624,-0.5"/>
<text text-anchor="start" x="632" y="-29.5" font-family="Helvetica,sans-Serif" font-size="10.00">/home/fnky/C0de/component</text>
<text text-anchor="start" x="632" y="-18.5" font-family="Helvetica,sans-Serif" font-size="10.00">_engine/src/States/main</text>
<text text-anchor="middle" x="702.5" y="-7.5" font-family="Helvetica,sans-Serif" font-size="10.00">_menu_state.cpp</text>
</a>
</g>
</g>
<!-- Node2&#45;&gt;Node11 -->
<g id="edge21" class="edge">
<title>Node2&#45;&gt;Node11</title>
<path fill="none" stroke="midnightblue" d="M638.77,-153.03C666.35,-143.34 692.44,-131.61 700.5,-120 716.51,-96.93 712.71,-62.89 707.99,-41.6"/>
<polygon fill="midnightblue" stroke="midnightblue" points="637.31,-149.83 628.97,-156.37 639.57,-156.45 637.31,-149.83"/>
</g>
<!-- Node12 -->
<g id="node12" class="node">
<title>Node12</title>
<g id="a_node12"><a xlink:href="splash__state_8h.html" target="_top" xlink:title=" ">
<polygon fill="none" stroke="black" points="749,-78.5 749,-119.5 906,-119.5 906,-78.5 749,-78.5"/>
<text text-anchor="start" x="757" y="-107.5" font-family="Helvetica,sans-Serif" font-size="10.00">/home/fnky/C0de/component</text>
<text text-anchor="start" x="757" y="-96.5" font-family="Helvetica,sans-Serif" font-size="10.00">_engine/include/States</text>
<text text-anchor="middle" x="827.5" y="-85.5" font-family="Helvetica,sans-Serif" font-size="10.00">/splash_state.h</text>
</a>
</g>
</g>
<!-- Node2&#45;&gt;Node12 -->
<g id="edge14" class="edge">
<title>Node2&#45;&gt;Node12</title>
<path fill="none" stroke="midnightblue" d="M638.56,-153.58C676.7,-142.76 722.02,-129.91 758.72,-119.51"/>
<polygon fill="midnightblue" stroke="midnightblue" points="637.18,-150.33 628.52,-156.43 639.09,-157.07 637.18,-150.33"/>
</g>
<!-- Node13 -->
<g id="node13" class="node">
<title>Node13</title>
<g id="a_node13"><a xlink:href="splash__state_8cpp.html" target="_top" xlink:title=" ">
<polygon fill="none" stroke="black" points="804,-0.5 804,-41.5 961,-41.5 961,-0.5 804,-0.5"/>
<text text-anchor="start" x="812" y="-29.5" font-family="Helvetica,sans-Serif" font-size="10.00">/home/fnky/C0de/component</text>
<text text-anchor="start" x="812" y="-18.5" font-family="Helvetica,sans-Serif" font-size="10.00">_engine/src/States/splash</text>
<text text-anchor="middle" x="882.5" y="-7.5" font-family="Helvetica,sans-Serif" font-size="10.00">_state.cpp</text>
</a>
</g>
</g>
<!-- Node2&#45;&gt;Node13 -->
<g id="edge22" class="edge">
<title>Node2&#45;&gt;Node13</title>
<path fill="none" stroke="midnightblue" d="M648.39,-156.22C722.22,-147.05 877.79,-163.11 915.5,-120 935.12,-97.57 915.42,-63.02 899.14,-41.5"/>
<polygon fill="midnightblue" stroke="midnightblue" points="647.48,-152.82 638.11,-157.77 648.52,-159.74 647.48,-152.82"/>
</g>
<!-- Node3&#45;&gt;Node4 -->
<g id="edge3" class="edge">
<title>Node3&#45;&gt;Node4</title>
<path fill="none" stroke="midnightblue" d="M952.92,-83.5C940.37,-81.57 927.62,-79.69 915.5,-78 782.05,-59.44 747.51,-63.49 614.5,-42 603.79,-40.27 592.46,-38.19 581.47,-36.04"/>
<polygon fill="midnightblue" stroke="midnightblue" points="952.51,-86.98 962.93,-85.05 953.58,-80.06 952.51,-86.98"/>
</g>
<!-- Node3&#45;&gt;Node5 -->
<g id="edge4" class="edge">
<title>Node3&#45;&gt;Node5</title>
<path fill="none" stroke="midnightblue" d="M1048.47,-68.59C1050.62,-59.51 1052.93,-49.74 1054.88,-41.51"/>
<polygon fill="midnightblue" stroke="midnightblue" points="1045.03,-67.89 1046.14,-78.43 1051.85,-69.5 1045.03,-67.89"/>
</g>
<!-- Node6&#45;&gt;Node4 -->
<g id="edge6" class="edge">
<title>Node6&#45;&gt;Node4</title>
<path fill="none" stroke="midnightblue" d="M274.14,-77.65C331.4,-64.5 404.45,-47.73 455.31,-36.05"/>
<polygon fill="midnightblue" stroke="midnightblue" points="273.33,-74.24 264.36,-79.89 274.89,-81.07 273.33,-74.24"/>
</g>
<!-- Node6&#45;&gt;Node7 -->
<g id="edge7" class="edge">
<title>Node6&#45;&gt;Node7</title>
<path fill="none" stroke="midnightblue" d="M149.79,-72.64C135.5,-62.49 119.3,-50.98 105.96,-41.51"/>
<polygon fill="midnightblue" stroke="midnightblue" points="147.77,-75.49 157.94,-78.43 151.82,-69.78 147.77,-75.49"/>
</g>
<!-- Node8&#45;&gt;Node4 -->
<g id="edge9" class="edge">
<title>Node8&#45;&gt;Node4</title>
<path fill="none" stroke="midnightblue" d="M438.26,-72.82C456.99,-60.65 478.78,-46.5 494.6,-36.23"/>
<polygon fill="midnightblue" stroke="midnightblue" points="436.11,-70.05 429.63,-78.43 439.92,-75.92 436.11,-70.05"/>
</g>
<!-- Node8&#45;&gt;Node9 -->
<g id="edge10" class="edge">
<title>Node8&#45;&gt;Node9</title>
<path fill="none" stroke="midnightblue" d="M370.55,-71.49C359.78,-61.63 347.76,-50.63 337.8,-41.51"/>
<polygon fill="midnightblue" stroke="midnightblue" points="368.39,-74.26 378.13,-78.43 373.11,-69.09 368.39,-74.26"/>
</g>
<!-- Node10&#45;&gt;Node4 -->
<g id="edge12" class="edge">
<title>Node10&#45;&gt;Node4</title>
<path fill="none" stroke="midnightblue" d="M580.31,-71.99C565.02,-60.02 547.47,-46.27 534.66,-36.23"/>
<polygon fill="midnightblue" stroke="midnightblue" points="578.49,-75.02 588.52,-78.43 582.81,-69.51 578.49,-75.02"/>
</g>
<!-- Node10&#45;&gt;Node11 -->
<g id="edge13" class="edge">
<title>Node10&#45;&gt;Node11</title>
<path fill="none" stroke="midnightblue" d="M644.21,-71.78C655.84,-61.84 668.87,-50.72 679.66,-41.51"/>
<polygon fill="midnightblue" stroke="midnightblue" points="641.75,-69.27 636.42,-78.43 646.3,-74.6 641.75,-69.27"/>
</g>
<!-- Node12&#45;&gt;Node4 -->
<g id="edge15" class="edge">
<title>Node12&#45;&gt;Node4</title>
<path fill="none" stroke="midnightblue" d="M738.9,-76.35C686.03,-63.43 620.4,-47.39 574.19,-36.1"/>
<polygon fill="midnightblue" stroke="midnightblue" points="738.07,-79.75 748.62,-78.72 739.74,-72.95 738.07,-79.75"/>
</g>
<!-- Node12&#45;&gt;Node13 -->
<g id="edge16" class="edge">
<title>Node12&#45;&gt;Node13</title>
<path fill="none" stroke="midnightblue" d="M847.73,-70.05C854.59,-60.57 862.1,-50.18 868.38,-41.51"/>
<polygon fill="midnightblue" stroke="midnightblue" points="844.69,-68.27 841.66,-78.43 850.36,-72.38 844.69,-68.27"/>
</g>
</g>
</svg>
