<?xml version="1.0" encoding="UTF-8" standalone="no"?>
<!DOCTYPE svg PUBLIC "-//W3C//DTD SVG 1.1//EN"
 "http://www.w3.org/Graphics/SVG/1.1/DTD/svg11.dtd">
<!-- Generated by graphviz version 2.43.0 (0)
 -->
<!-- Title: /home/fnky/C0de/component_engine/include/Actors/NPC_Actor.h Pages: 1 -->
<!--zoomable 285 -->
<svg id="main" version="1.1" xmlns="http://www.w3.org/2000/svg" xmlns:xlink="http://www.w3.org/1999/xlink" xml:space="preserve" onload="init(evt)">
<style type="text/css"><![CDATA[
.edge:hover path { stroke: red; }
.edge:hover polygon { stroke: red; fill: red; }
]]></style>
<script type="text/javascript"><![CDATA[
var edges = document.getElementsByTagName('g');
if (edges && edges.length) {
  for (var i=0;i<edges.length;i++) {
    if (edges[i].id.substr(0,4)=='edge') {
      edges[i].setAttribute('class','edge');
    }
  }
}
]]></script>
        <defs>
                <circle id="rim" cx="0" cy="0" r="7"/>
                <circle id="rim2" cx="0" cy="0" r="3.5"/>
                <g id="zoomPlus">
                        <use xlink:href="#rim" fill="#404040">
                                <set attributeName="fill" to="#808080" begin="zoomplus.mouseover" end="zoomplus.mouseout"/>
                        </use>
                        <path d="M-4,0h8M0,-4v8" fill="none" stroke="white" stroke-width="1.5" pointer-events="none"/>
                </g>
                <g id="zoomMin">
                        <use xlink:href="#rim" fill="#404040">
                                <set attributeName="fill" to="#808080" begin="zoomminus.mouseover" end="zoomminus.mouseout"/>
                        </use>
                        <path d="M-4,0h8" fill="none" stroke="white" stroke-width="1.5" pointer-events="none"/>
                </g>
                <g id="dirArrow">
                        <path fill="none" stroke="white" stroke-width="1.5" d="M0,-3.0v7 M-2.5,-0.5L0,-3.0L2.5,-0.5"/>
                </g>
               <g id="resetDef">
                       <use xlink:href="#rim2" fill="#404040">
                               <set attributeName="fill" to="#808080" begin="reset.mouseover" end="reset.mouseout"/>
                       </use>
               </g>
        </defs>

<script type="text/javascript">
var viewWidth = 1065;
var viewHeight = 285;
var sectionId = 'dynsection-0';
</script>
<script xlink:href="svgpan.js"/>
<svg id="graph" class="graph">
<g id="viewport">
<title>/home/fnky/C0de/component_engine/include/Actors/NPC_Actor.h</title>
<!-- Node1 -->
<g id="node1" class="node">
<title>Node1</title>
<g id="a_node1"><a xlink:title=" ">
<polygon fill="#bfbfbf" stroke="black" points="528.46,-235.5 528.46,-276.5 685.46,-276.5 685.46,-235.5 528.46,-235.5"/>
<text text-anchor="start" x="536.46" y="-264.5" font-family="Helvetica,sans-Serif" font-size="10.00">/home/fnky/C0de/component</text>
<text text-anchor="start" x="536.46" y="-253.5" font-family="Helvetica,sans-Serif" font-size="10.00">_engine/include/Actors</text>
<text text-anchor="middle" x="606.96" y="-242.5" font-family="Helvetica,sans-Serif" font-size="10.00">/NPC_Actor.h</text>
</a>
</g>
</g>
<!-- Node2 -->
<g id="node2" class="node">
<title>Node2</title>
<g id="a_node2"><a xlink:href="Components_2Component_8h.html" target="_top" xlink:title=" ">
<polygon fill="none" stroke="black" points="14.46,-118 14.46,-137 169.46,-137 169.46,-118 14.46,-118"/>
<text text-anchor="middle" x="91.96" y="-125" font-family="Helvetica,sans-Serif" font-size="10.00">../Components/Component.h</text>
</a>
</g>
</g>
<!-- Node1&#45;&gt;Node2 -->
<g id="edge1" class="edge">
<title>Node1&#45;&gt;Node2</title>
<path fill="none" stroke="midnightblue" d="M528.27,-253.93C445.06,-250.56 311.15,-238.71 202.96,-199 167.33,-185.92 131.17,-160.1 110.19,-143.6"/>
<polygon fill="midnightblue" stroke="midnightblue" points="112.16,-140.69 102.17,-137.16 107.78,-146.15 112.16,-140.69"/>
</g>
<!-- Node3 -->
<g id="node3" class="node">
<title>Node3</title>
<g id="a_node3"><a xlink:title=" ">
<polygon fill="none" stroke="#bfbfbf" points="9.96,-56.5 9.96,-75.5 67.96,-75.5 67.96,-56.5 9.96,-56.5"/>
<text text-anchor="middle" x="38.96" y="-63.5" font-family="Helvetica,sans-Serif" font-size="10.00">memory</text>
</a>
</g>
</g>
<!-- Node1&#45;&gt;Node3 -->
<g id="edge9" class="edge">
<title>Node1&#45;&gt;Node3</title>
<path fill="none" stroke="midnightblue" d="M528.29,-253.3C379.01,-248.14 64.26,-227.28 4.96,-143 -8.35,-124.07 8.28,-99.1 22.62,-83.04"/>
<polygon fill="midnightblue" stroke="midnightblue" points="25.39,-85.2 29.73,-75.53 20.31,-80.38 25.39,-85.2"/>
</g>
<!-- Node4 -->
<g id="node4" class="node">
<title>Node4</title>
<g id="a_node4"><a xlink:href="Actor_8h.html" target="_top" xlink:title=" ">
<polygon fill="none" stroke="black" points="211.96,-179.5 211.96,-198.5 261.96,-198.5 261.96,-179.5 211.96,-179.5"/>
<text text-anchor="middle" x="236.96" y="-186.5" font-family="Helvetica,sans-Serif" font-size="10.00">Actor.h</text>
</a>
</g>
</g>
<!-- Node1&#45;&gt;Node4 -->
<g id="edge3" class="edge">
<title>Node1&#45;&gt;Node4</title>
<path fill="none" stroke="midnightblue" d="M528.04,-241.14C448.92,-227.24 330.7,-206.47 272.27,-196.2"/>
<polygon fill="midnightblue" stroke="midnightblue" points="272.53,-192.69 262.07,-194.41 271.32,-199.59 272.53,-192.69"/>
</g>
<!-- Node7 -->
<g id="node7" class="node">
<title>Node7</title>
<g id="a_node7"><a xlink:title=" ">
<polygon fill="none" stroke="#bfbfbf" points="793.46,-179.5 793.46,-198.5 870.46,-198.5 870.46,-179.5 793.46,-179.5"/>
<text text-anchor="middle" x="831.96" y="-186.5" font-family="Helvetica,sans-Serif" font-size="10.00">glm/fwd.hpp</text>
</a>
</g>
</g>
<!-- Node1&#45;&gt;Node7 -->
<g id="edge7" class="edge">
<title>Node1&#45;&gt;Node7</title>
<path fill="none" stroke="midnightblue" d="M674.47,-235.5C713.07,-224.35 760.12,-210.76 792.69,-201.35"/>
<polygon fill="midnightblue" stroke="midnightblue" points="793.67,-204.71 802.31,-198.57 791.73,-197.98 793.67,-204.71"/>
</g>
<!-- Node8 -->
<g id="node8" class="node">
<title>Node8</title>
<g id="a_node8"><a xlink:title=" ">
<polygon fill="none" stroke="#bfbfbf" points="888.96,-179.5 888.96,-198.5 966.96,-198.5 966.96,-179.5 888.96,-179.5"/>
<text text-anchor="middle" x="927.96" y="-186.5" font-family="Helvetica,sans-Serif" font-size="10.00">glm/glm.hpp</text>
</a>
</g>
</g>
<!-- Node1&#45;&gt;Node8 -->
<g id="edge8" class="edge">
<title>Node1&#45;&gt;Node8</title>
<path fill="none" stroke="midnightblue" d="M685.49,-239.1C745.87,-226.87 827.41,-210.36 878.84,-199.95"/>
<polygon fill="midnightblue" stroke="midnightblue" points="879.61,-203.36 888.71,-197.95 878.22,-196.5 879.61,-203.36"/>
</g>
<!-- Node9 -->
<g id="node9" class="node">
<title>Node9</title>
<g id="a_node9"><a xlink:title=" ">
<polygon fill="none" stroke="#bfbfbf" points="984.96,-179.5 984.96,-198.5 1056.96,-198.5 1056.96,-179.5 984.96,-179.5"/>
<text text-anchor="middle" x="1020.96" y="-186.5" font-family="Helvetica,sans-Serif" font-size="10.00">sys/types.h</text>
</a>
</g>
</g>
<!-- Node1&#45;&gt;Node9 -->
<g id="edge10" class="edge">
<title>Node1&#45;&gt;Node9</title>
<path fill="none" stroke="midnightblue" d="M685.6,-244.15C758.16,-233.9 869.12,-217.58 974.76,-199.15"/>
<polygon fill="midnightblue" stroke="midnightblue" points="975.4,-202.59 984.64,-197.42 974.19,-195.7 975.4,-202.59"/>
</g>
<!-- Node10 -->
<g id="node10" class="node">
<title>Node10</title>
<g id="a_node10"><a xlink:href="BState_8h.html" target="_top" xlink:title=" ">
<polygon fill="none" stroke="black" points="755.46,-118 755.46,-137 898.46,-137 898.46,-118 755.46,-118"/>
<text text-anchor="middle" x="826.96" y="-125" font-family="Helvetica,sans-Serif" font-size="10.00">../BStateMachine/BState.h</text>
</a>
</g>
</g>
<!-- Node1&#45;&gt;Node10 -->
<g id="edge11" class="edge">
<title>Node1&#45;&gt;Node10</title>
<path fill="none" stroke="midnightblue" d="M663.82,-235.46C688.34,-225.97 716.87,-213.48 740.96,-199 767.17,-183.24 793.87,-160 810.42,-144.56"/>
<polygon fill="midnightblue" stroke="midnightblue" points="813.25,-146.7 818.09,-137.28 808.43,-141.62 813.25,-146.7"/>
</g>
<!-- Node12 -->
<g id="node12" class="node">
<title>Node12</title>
<g id="a_node12"><a xlink:href="BStateMachine_8h.html" target="_top" xlink:title=" ">
<polygon fill="none" stroke="black" points="514.46,-179.5 514.46,-198.5 699.46,-198.5 699.46,-179.5 514.46,-179.5"/>
<text text-anchor="middle" x="606.96" y="-186.5" font-family="Helvetica,sans-Serif" font-size="10.00">../BStateMachine/BStateMachine.h</text>
</a>
</g>
</g>
<!-- Node1&#45;&gt;Node12 -->
<g id="edge13" class="edge">
<title>Node1&#45;&gt;Node12</title>
<path fill="none" stroke="midnightblue" d="M606.96,-235.5C606.96,-227.07 606.96,-217.24 606.96,-208.87"/>
<polygon fill="midnightblue" stroke="midnightblue" points="610.46,-208.65 606.96,-198.65 603.46,-208.65 610.46,-208.65"/>
</g>
<!-- Node14 -->
<g id="node14" class="node">
<title>Node14</title>
<g id="a_node14"><a xlink:href="Condition_8h.html" target="_top" xlink:title=" ">
<polygon fill="none" stroke="black" points="476.96,-56.5 476.96,-75.5 548.96,-75.5 548.96,-56.5 476.96,-56.5"/>
<text text-anchor="middle" x="512.96" y="-63.5" font-family="Helvetica,sans-Serif" font-size="10.00">Condition.h</text>
</a>
</g>
</g>
<!-- Node1&#45;&gt;Node14 -->
<g id="edge20" class="edge">
<title>Node1&#45;&gt;Node14</title>
<path fill="none" stroke="midnightblue" d="M666.72,-235.47C683.32,-226.98 699.4,-215.17 708.96,-199 724,-173.6 705.66,-130.25 685.96,-112 651.73,-80.28 598.03,-70.3 559.54,-67.46"/>
<polygon fill="midnightblue" stroke="midnightblue" points="559.31,-63.94 549.12,-66.84 558.89,-70.93 559.31,-63.94"/>
</g>
<!-- Node15 -->
<g id="node15" class="node">
<title>Node15</title>
<g id="a_node15"><a xlink:href="ConditionInRange_8h.html" target="_top" xlink:title=" ">
<polygon fill="none" stroke="black" points="456.96,-118 456.96,-137 568.96,-137 568.96,-118 456.96,-118"/>
<text text-anchor="middle" x="512.96" y="-125" font-family="Helvetica,sans-Serif" font-size="10.00">ConditionInRange.h</text>
</a>
</g>
</g>
<!-- Node1&#45;&gt;Node15 -->
<g id="edge21" class="edge">
<title>Node1&#45;&gt;Node15</title>
<path fill="none" stroke="midnightblue" d="M548.04,-235.48C531.51,-226.98 515.48,-215.15 505.96,-199 496.62,-183.14 500.6,-161.72 505.51,-146.67"/>
<polygon fill="midnightblue" stroke="midnightblue" points="508.9,-147.6 509.08,-137.01 502.33,-145.18 508.9,-147.6"/>
</g>
<!-- Node16 -->
<g id="node16" class="node">
<title>Node16</title>
<g id="a_node16"><a xlink:href="ConditionOutOfRange_8h.html" target="_top" xlink:title=" ">
<polygon fill="none" stroke="black" points="290.46,-112.5 290.46,-142.5 439.46,-142.5 439.46,-112.5 290.46,-112.5"/>
<text text-anchor="start" x="298.46" y="-130.5" font-family="Helvetica,sans-Serif" font-size="10.00">../BStateMachine/Condition</text>
<text text-anchor="middle" x="364.96" y="-119.5" font-family="Helvetica,sans-Serif" font-size="10.00">OutOfRange.h</text>
</a>
</g>
</g>
<!-- Node1&#45;&gt;Node16 -->
<g id="edge22" class="edge">
<title>Node1&#45;&gt;Node16</title>
<path fill="none" stroke="midnightblue" d="M567.54,-235.43C546.27,-224.79 519.6,-211.32 495.96,-199 463.18,-181.91 426.11,-161.9 399.79,-147.57"/>
<polygon fill="midnightblue" stroke="midnightblue" points="401.41,-144.46 390.95,-142.75 398.06,-150.61 401.41,-144.46"/>
</g>
<!-- Node2&#45;&gt;Node3 -->
<g id="edge2" class="edge">
<title>Node2&#45;&gt;Node3</title>
<path fill="none" stroke="midnightblue" d="M84.37,-117.98C76.26,-108.87 63.23,-94.24 53.2,-82.98"/>
<polygon fill="midnightblue" stroke="midnightblue" points="55.81,-80.65 46.54,-75.51 50.58,-85.3 55.81,-80.65"/>
</g>
<!-- Node4&#45;&gt;Node2 -->
<g id="edge6" class="edge">
<title>Node4&#45;&gt;Node2</title>
<path fill="none" stroke="midnightblue" d="M216.19,-179.48C191.53,-169.36 150.22,-152.4 122.06,-140.85"/>
<polygon fill="midnightblue" stroke="midnightblue" points="123.28,-137.57 112.7,-137.01 120.62,-144.04 123.28,-137.57"/>
</g>
<!-- Node5 -->
<g id="node5" class="node">
<title>Node5</title>
<g id="a_node5"><a xlink:title=" ">
<polygon fill="none" stroke="#bfbfbf" points="187.46,-118 187.46,-137 234.46,-137 234.46,-118 187.46,-118"/>
<text text-anchor="middle" x="210.96" y="-125" font-family="Helvetica,sans-Serif" font-size="10.00">vector</text>
</a>
</g>
</g>
<!-- Node4&#45;&gt;Node5 -->
<g id="edge4" class="edge">
<title>Node4&#45;&gt;Node5</title>
<path fill="none" stroke="midnightblue" d="M233.24,-179.48C229.49,-170.9 223.6,-157.43 218.82,-146.48"/>
<polygon fill="midnightblue" stroke="midnightblue" points="221.89,-144.77 214.68,-137.01 215.48,-147.57 221.89,-144.77"/>
</g>
<!-- Node6 -->
<g id="node6" class="node">
<title>Node6</title>
<g id="a_node6"><a xlink:title=" ">
<polygon fill="none" stroke="#bfbfbf" points="357.96,-0.5 357.96,-19.5 417.96,-19.5 417.96,-0.5 357.96,-0.5"/>
<text text-anchor="middle" x="387.96" y="-7.5" font-family="Helvetica,sans-Serif" font-size="10.00">iostream</text>
</a>
</g>
</g>
<!-- Node4&#45;&gt;Node6 -->
<g id="edge5" class="edge">
<title>Node4&#45;&gt;Node6</title>
<path fill="none" stroke="midnightblue" d="M241.23,-179.07C248.5,-164.33 264.21,-134.32 281.96,-112 308.91,-78.14 346.9,-44.64 369.32,-26.01"/>
<polygon fill="midnightblue" stroke="midnightblue" points="371.59,-28.67 377.1,-19.62 367.15,-23.26 371.59,-28.67"/>
</g>
<!-- Node11 -->
<g id="node11" class="node">
<title>Node11</title>
<g id="a_node11"><a xlink:title=" ">
<polygon fill="none" stroke="#bfbfbf" points="810.96,-56.5 810.96,-75.5 842.96,-75.5 842.96,-56.5 810.96,-56.5"/>
<text text-anchor="middle" x="826.96" y="-63.5" font-family="Helvetica,sans-Serif" font-size="10.00">list</text>
</a>
</g>
</g>
<!-- Node10&#45;&gt;Node11 -->
<g id="edge12" class="edge">
<title>Node10&#45;&gt;Node11</title>
<path fill="none" stroke="midnightblue" d="M826.96,-117.98C826.96,-109.58 826.96,-96.48 826.96,-85.66"/>
<polygon fill="midnightblue" stroke="midnightblue" points="830.46,-85.51 826.96,-75.51 823.46,-85.51 830.46,-85.51"/>
</g>
<!-- Node12&#45;&gt;Node10 -->
<g id="edge14" class="edge">
<title>Node12&#45;&gt;Node10</title>
<path fill="none" stroke="midnightblue" d="M638.48,-179.48C677.2,-169 742.99,-151.21 785.7,-139.66"/>
<polygon fill="midnightblue" stroke="midnightblue" points="786.76,-143 795.5,-137.01 784.93,-136.24 786.76,-143"/>
</g>
<!-- Node13 -->
<g id="node13" class="node">
<title>Node13</title>
<g id="a_node13"><a xlink:href="Transition_8h.html" target="_top" xlink:title=" ">
<polygon fill="none" stroke="black" points="587.46,-118 587.46,-137 660.46,-137 660.46,-118 587.46,-118"/>
<text text-anchor="middle" x="623.96" y="-125" font-family="Helvetica,sans-Serif" font-size="10.00">Transition.h</text>
</a>
</g>
</g>
<!-- Node12&#45;&gt;Node13 -->
<g id="edge15" class="edge">
<title>Node12&#45;&gt;Node13</title>
<path fill="none" stroke="midnightblue" d="M609.4,-179.48C611.82,-170.99 615.62,-157.7 618.73,-146.82"/>
<polygon fill="midnightblue" stroke="midnightblue" points="622.15,-147.59 621.53,-137.01 615.42,-145.66 622.15,-147.59"/>
</g>
<!-- Node12&#45;&gt;Node14 -->
<g id="edge16" class="edge">
<title>Node12&#45;&gt;Node14</title>
<path fill="none" stroke="midnightblue" d="M627.81,-179.43C642.54,-172.13 661.17,-160.09 669.96,-143 676.27,-130.75 678.26,-123 669.96,-112 656.56,-94.22 600.52,-81.32 559.19,-74"/>
<polygon fill="midnightblue" stroke="midnightblue" points="559.75,-70.55 549.3,-72.31 558.57,-77.45 559.75,-70.55"/>
</g>
<!-- Node12&#45;&gt;Node15 -->
<g id="edge18" class="edge">
<title>Node12&#45;&gt;Node15</title>
<path fill="none" stroke="midnightblue" d="M593.5,-179.48C578.28,-169.84 553.28,-154.02 535.16,-142.55"/>
<polygon fill="midnightblue" stroke="midnightblue" points="536.73,-139.4 526.41,-137.01 532.98,-145.31 536.73,-139.4"/>
</g>
<!-- Node14&#45;&gt;Node6 -->
<g id="edge17" class="edge">
<title>Node14&#45;&gt;Node6</title>
<path fill="none" stroke="midnightblue" d="M493.16,-56.44C472.68,-47.6 440.48,-33.69 417.1,-23.59"/>
<polygon fill="midnightblue" stroke="midnightblue" points="418.25,-20.27 407.68,-19.52 415.47,-26.7 418.25,-20.27"/>
</g>
<!-- Node15&#45;&gt;Node14 -->
<g id="edge19" class="edge">
<title>Node15&#45;&gt;Node14</title>
<path fill="none" stroke="midnightblue" d="M512.96,-117.98C512.96,-109.58 512.96,-96.48 512.96,-85.66"/>
<polygon fill="midnightblue" stroke="midnightblue" points="516.46,-85.51 512.96,-75.51 509.46,-85.51 516.46,-85.51"/>
</g>
<!-- Node16&#45;&gt;Node14 -->
<g id="edge23" class="edge">
<title>Node16&#45;&gt;Node14</title>
<path fill="none" stroke="midnightblue" d="M400.04,-112.4C424.98,-102.37 458.17,-89.03 482.11,-79.4"/>
<polygon fill="midnightblue" stroke="midnightblue" points="483.46,-82.64 491.43,-75.66 480.84,-76.14 483.46,-82.64"/>
</g>
</g>
</svg>
        <g id="navigator" transform="translate(0 0)" fill="#404254">
                <rect fill="#f2f5e9" fill-opacity="0.5" stroke="#606060" stroke-width=".5" x="0" y="0" width="60" height="60"/>
                <use id="zoomplus" xlink:href="#zoomPlus" x="17" y="9" onmousedown="handleZoom(evt,'in')"/>
                <use id="zoomminus" xlink:href="#zoomMin" x="42" y="9" onmousedown="handleZoom(evt,'out')"/>
                <use id="reset" xlink:href="#resetDef" x="30" y="36" onmousedown="handleReset()"/>
                <g id="arrowUp" xlink:href="#dirArrow" transform="translate(30 24)" onmousedown="handlePan(0,-1)">
                  <use xlink:href="#rim" fill="#404040">
                        <set attributeName="fill" to="#808080" begin="arrowUp.mouseover" end="arrowUp.mouseout"/>
                  </use>
                  <path fill="none" stroke="white" stroke-width="1.5" d="M0,-3.0v7 M-2.5,-0.5L0,-3.0L2.5,-0.5"/>
                </g>
                <g id="arrowRight" xlink:href="#dirArrow" transform="rotate(90) translate(36 -43)" onmousedown="handlePan(1,0)">
                  <use xlink:href="#rim" fill="#404040">
                        <set attributeName="fill" to="#808080" begin="arrowRight.mouseover" end="arrowRight.mouseout"/>
                  </use>
                  <path fill="none" stroke="white" stroke-width="1.5" d="M0,-3.0v7 M-2.5,-0.5L0,-3.0L2.5,-0.5"/>
                </g>
                <g id="arrowDown" xlink:href="#dirArrow" transform="rotate(180) translate(-30 -48)" onmousedown="handlePan(0,1)">
                  <use xlink:href="#rim" fill="#404040">
                        <set attributeName="fill" to="#808080" begin="arrowDown.mouseover" end="arrowDown.mouseout"/>
                  </use>
                  <path fill="none" stroke="white" stroke-width="1.5" d="M0,-3.0v7 M-2.5,-0.5L0,-3.0L2.5,-0.5"/>
                </g>
                <g id="arrowLeft" xlink:href="#dirArrow" transform="rotate(270) translate(-36 17)" onmousedown="handlePan(-1,0)">
                  <use xlink:href="#rim" fill="#404040">
                        <set attributeName="fill" to="#808080" begin="arrowLeft.mouseover" end="arrowLeft.mouseout"/>
                  </use>
                  <path fill="none" stroke="white" stroke-width="1.5" d="M0,-3.0v7 M-2.5,-0.5L0,-3.0L2.5,-0.5"/>
                </g>
        </g>
        <svg viewBox="0 0 15 15" width="100%" height="30px" preserveAspectRatio="xMaxYMin meet">
         <g id="arrow_out" transform="scale(0.3 0.3)">
          <a xlink:href="NPC__Actor_8h__incl_org.svg" target="_base">
           <rect id="button" ry="5" rx="5" y="6" x="6" height="38" width="38"
                fill="#f2f5e9" fill-opacity="0.5" stroke="#606060" stroke-width="1.0"/>
           <path id="arrow"
             d="M 11.500037,31.436501 C 11.940474,20.09759 22.043105,11.32322 32.158766,21.979434 L 37.068811,17.246167 C 37.068811,17.246167 37.088388,32 37.088388,32 L 22.160133,31.978069 C 22.160133,31.978069 26.997745,27.140456 26.997745,27.140456 C 18.528582,18.264221 13.291696,25.230495 11.500037,31.436501 z"
             style="fill:#404040;"/>
          </a>
         </g>
        </svg>
</svg>
