<?xml version="1.0" encoding="UTF-8" standalone="no"?>
<!DOCTYPE svg PUBLIC "-//W3C//DTD SVG 1.1//EN"
 "http://www.w3.org/Graphics/SVG/1.1/DTD/svg11.dtd">
<!-- Generated by graphviz version 2.43.0 (0)
 -->
<!-- Title: /home/fnky/C0de/component_engine/src/Camera/Orthographic_camera.cpp Pages: 1 -->
<svg width="788pt" height="173pt"
 viewBox="0.00 0.00 788.00 173.00" xmlns="http://www.w3.org/2000/svg" xmlns:xlink="http://www.w3.org/1999/xlink">
<g id="graph0" class="graph" transform="scale(1 1) rotate(0) translate(4 169)">
<title>/home/fnky/C0de/component_engine/src/Camera/Orthographic_camera.cpp</title>
<!-- Node1 -->
<g id="node1" class="node">
<title>Node1</title>
<g id="a_node1"><a xlink:title=" ">
<polygon fill="#bfbfbf" stroke="black" points="351.5,-123.5 351.5,-164.5 530.5,-164.5 530.5,-123.5 351.5,-123.5"/>
<text text-anchor="start" x="359.5" y="-152.5" font-family="Helvetica,sans-Serif" font-size="10.00">/home/fnky/C0de/component</text>
<text text-anchor="start" x="359.5" y="-141.5" font-family="Helvetica,sans-Serif" font-size="10.00">_engine/src/Camera/Orthographic</text>
<text text-anchor="middle" x="441" y="-130.5" font-family="Helvetica,sans-Serif" font-size="10.00">_camera.cpp</text>
</a>
</g>
</g>
<!-- Node2 -->
<g id="node2" class="node">
<title>Node2</title>
<g id="a_node2"><a xlink:href="Orthographic__camera_8h.html" target="_top" xlink:title=" ">
<polygon fill="none" stroke="black" points="0,-56.5 0,-86.5 134,-86.5 134,-56.5 0,-56.5"/>
<text text-anchor="start" x="8" y="-74.5" font-family="Helvetica,sans-Serif" font-size="10.00">../../include/Camera</text>
<text text-anchor="middle" x="67" y="-63.5" font-family="Helvetica,sans-Serif" font-size="10.00">/Orthographic_camera.h</text>
</a>
</g>
</g>
<!-- Node1&#45;&gt;Node2 -->
<g id="edge1" class="edge">
<title>Node1&#45;&gt;Node2</title>
<path fill="none" stroke="midnightblue" d="M351.34,-126.22C294.71,-115.6 219.73,-101.52 144.3,-87.24"/>
<polygon fill="midnightblue" stroke="midnightblue" points="144.61,-83.74 134.13,-85.32 143.31,-90.62 144.61,-83.74"/>
</g>
<!-- Node5 -->
<g id="node5" class="node">
<title>Node5</title>
<g id="a_node5"><a xlink:title=" ">
<polygon fill="none" stroke="#bfbfbf" points="152,-56.5 152,-86.5 264,-86.5 264,-56.5 152,-56.5"/>
<text text-anchor="start" x="160" y="-74.5" font-family="Helvetica,sans-Serif" font-size="10.00">glm/ext/matrix_clip</text>
<text text-anchor="middle" x="208" y="-63.5" font-family="Helvetica,sans-Serif" font-size="10.00">_space.hpp</text>
</a>
</g>
</g>
<!-- Node1&#45;&gt;Node5 -->
<g id="edge4" class="edge">
<title>Node1&#45;&gt;Node5</title>
<path fill="none" stroke="midnightblue" d="M376.41,-123.46C341.23,-112.81 298.11,-99.76 264.31,-89.54"/>
<polygon fill="midnightblue" stroke="midnightblue" points="265.17,-86.14 254.59,-86.6 263.15,-92.84 265.17,-86.14"/>
</g>
<!-- Node6 -->
<g id="node6" class="node">
<title>Node6</title>
<g id="a_node6"><a xlink:title=" ">
<polygon fill="none" stroke="#bfbfbf" points="282,-62 282,-81 446,-81 446,-62 282,-62"/>
<text text-anchor="middle" x="364" y="-69" font-family="Helvetica,sans-Serif" font-size="10.00">glm/ext/matrix_transform.hpp</text>
</a>
</g>
</g>
<!-- Node1&#45;&gt;Node6 -->
<g id="edge5" class="edge">
<title>Node1&#45;&gt;Node6</title>
<path fill="none" stroke="midnightblue" d="M419.55,-123.36C407.38,-112.21 392.35,-98.46 381,-88.06"/>
<polygon fill="midnightblue" stroke="midnightblue" points="383.21,-85.34 373.47,-81.17 378.49,-90.51 383.21,-85.34"/>
</g>
<!-- Node7 -->
<g id="node7" class="node">
<title>Node7</title>
<g id="a_node7"><a xlink:title=" ">
<polygon fill="none" stroke="#bfbfbf" points="464,-56.5 464,-86.5 574,-86.5 574,-56.5 464,-56.5"/>
<text text-anchor="start" x="472" y="-74.5" font-family="Helvetica,sans-Serif" font-size="10.00">glm/ext/quaternion</text>
<text text-anchor="middle" x="519" y="-63.5" font-family="Helvetica,sans-Serif" font-size="10.00">_common.hpp</text>
</a>
</g>
</g>
<!-- Node1&#45;&gt;Node7 -->
<g id="edge6" class="edge">
<title>Node1&#45;&gt;Node7</title>
<path fill="none" stroke="midnightblue" d="M462.73,-123.36C472.93,-114.14 485.11,-103.13 495.52,-93.72"/>
<polygon fill="midnightblue" stroke="midnightblue" points="498.01,-96.19 503.08,-86.89 493.31,-91 498.01,-96.19"/>
</g>
<!-- Node8 -->
<g id="node8" class="node">
<title>Node8</title>
<g id="a_node8"><a xlink:title=" ">
<polygon fill="none" stroke="#bfbfbf" points="592.5,-62 592.5,-81 669.5,-81 669.5,-62 592.5,-62"/>
<text text-anchor="middle" x="631" y="-69" font-family="Helvetica,sans-Serif" font-size="10.00">glm/fwd.hpp</text>
</a>
</g>
</g>
<!-- Node1&#45;&gt;Node8 -->
<g id="edge7" class="edge">
<title>Node1&#45;&gt;Node8</title>
<path fill="none" stroke="midnightblue" d="M493.67,-123.46C527.27,-110.99 569.75,-95.23 598.5,-84.56"/>
<polygon fill="midnightblue" stroke="midnightblue" points="599.9,-87.77 608.06,-81.01 597.46,-81.21 599.9,-87.77"/>
</g>
<!-- Node9 -->
<g id="node9" class="node">
<title>Node9</title>
<g id="a_node9"><a xlink:title=" ">
<polygon fill="none" stroke="#bfbfbf" points="688,-62 688,-81 780,-81 780,-62 688,-62"/>
<text text-anchor="middle" x="734" y="-69" font-family="Helvetica,sans-Serif" font-size="10.00">glm/matrix.hpp</text>
</a>
</g>
</g>
<!-- Node1&#45;&gt;Node9 -->
<g id="edge8" class="edge">
<title>Node1&#45;&gt;Node9</title>
<path fill="none" stroke="midnightblue" d="M526.5,-123.46C571.88,-112.95 628.55,-99.58 679,-87 683.38,-85.91 687.94,-84.75 692.49,-83.57"/>
<polygon fill="midnightblue" stroke="midnightblue" points="693.54,-86.91 702.34,-81 691.78,-80.14 693.54,-86.91"/>
</g>
<!-- Node3 -->
<g id="node3" class="node">
<title>Node3</title>
<g id="a_node3"><a xlink:title=" ">
<polygon fill="none" stroke="#bfbfbf" points="4,-0.5 4,-19.5 50,-19.5 50,-0.5 4,-0.5"/>
<text text-anchor="middle" x="27" y="-7.5" font-family="Helvetica,sans-Serif" font-size="10.00">cstdio</text>
</a>
</g>
</g>
<!-- Node2&#45;&gt;Node3 -->
<g id="edge2" class="edge">
<title>Node2&#45;&gt;Node3</title>
<path fill="none" stroke="midnightblue" d="M57.52,-56.4C51.83,-47.93 44.55,-37.1 38.52,-28.14"/>
<polygon fill="midnightblue" stroke="midnightblue" points="41.3,-26 32.82,-19.66 35.49,-29.91 41.3,-26"/>
</g>
<!-- Node4 -->
<g id="node4" class="node">
<title>Node4</title>
<g id="a_node4"><a xlink:title=" ">
<polygon fill="none" stroke="#bfbfbf" points="68,-0.5 68,-19.5 146,-19.5 146,-0.5 68,-0.5"/>
<text text-anchor="middle" x="107" y="-7.5" font-family="Helvetica,sans-Serif" font-size="10.00">glm/glm.hpp</text>
</a>
</g>
</g>
<!-- Node2&#45;&gt;Node4 -->
<g id="edge3" class="edge">
<title>Node2&#45;&gt;Node4</title>
<path fill="none" stroke="midnightblue" d="M76.48,-56.4C82.17,-47.93 89.45,-37.1 95.48,-28.14"/>
<polygon fill="midnightblue" stroke="midnightblue" points="98.51,-29.91 101.18,-19.66 92.7,-26 98.51,-29.91"/>
</g>
</g>
</svg>
