<?xml version="1.0" encoding="UTF-8" standalone="no"?>
<!DOCTYPE svg PUBLIC "-//W3C//DTD SVG 1.1//EN"
 "http://www.w3.org/Graphics/SVG/1.1/DTD/svg11.dtd">
<!-- Generated by graphviz version 2.43.0 (0)
 -->
<!-- Title: /home/fnky/C0de/component_engine/include/Components/PhysicsComponent.h Pages: 1 -->
<svg width="1110pt" height="162pt"
 viewBox="0.00 0.00 1110.00 162.00" xmlns="http://www.w3.org/2000/svg" xmlns:xlink="http://www.w3.org/1999/xlink">
<g id="graph0" class="graph" transform="scale(1 1) rotate(0) translate(4 158)">
<title>/home/fnky/C0de/component_engine/include/Components/PhysicsComponent.h</title>
<!-- Node1 -->
<g id="node1" class="node">
<title>Node1</title>
<g id="a_node1"><a xlink:title=" ">
<polygon fill="#bfbfbf" stroke="black" points="599.5,-112.5 599.5,-153.5 757.5,-153.5 757.5,-112.5 599.5,-112.5"/>
<text text-anchor="start" x="607.5" y="-141.5" font-family="Helvetica,sans-Serif" font-size="10.00">/home/fnky/C0de/component</text>
<text text-anchor="start" x="607.5" y="-130.5" font-family="Helvetica,sans-Serif" font-size="10.00">_engine/include/Components</text>
<text text-anchor="middle" x="678.5" y="-119.5" font-family="Helvetica,sans-Serif" font-size="10.00">/PhysicsComponent.h</text>
</a>
</g>
</g>
<!-- Node2 -->
<g id="node2" class="node">
<title>Node2</title>
<g id="a_node2"><a xlink:title=" ">
<polygon fill="none" stroke="#bfbfbf" points="0,-56.5 0,-75.5 149,-75.5 149,-56.5 0,-56.5"/>
<text text-anchor="middle" x="74.5" y="-63.5" font-family="Helvetica,sans-Serif" font-size="10.00">box2d/b2_polygon_shape.h</text>
</a>
</g>
</g>
<!-- Node1&#45;&gt;Node2 -->
<g id="edge1" class="edge">
<title>Node1&#45;&gt;Node2</title>
<path fill="none" stroke="midnightblue" d="M599.23,-123.47C485.25,-111.2 275.97,-88.68 159.1,-76.1"/>
<polygon fill="midnightblue" stroke="midnightblue" points="159.44,-72.62 149.12,-75.03 158.69,-79.58 159.44,-72.62"/>
</g>
<!-- Node3 -->
<g id="node3" class="node">
<title>Node3</title>
<g id="a_node3"><a xlink:title=" ">
<polygon fill="none" stroke="#bfbfbf" points="167,-56.5 167,-75.5 282,-75.5 282,-56.5 167,-56.5"/>
<text text-anchor="middle" x="224.5" y="-63.5" font-family="Helvetica,sans-Serif" font-size="10.00">box2d/b2_settings.h</text>
</a>
</g>
</g>
<!-- Node1&#45;&gt;Node3 -->
<g id="edge2" class="edge">
<title>Node1&#45;&gt;Node3</title>
<path fill="none" stroke="midnightblue" d="M599.42,-120.68C512.48,-108.23 374.26,-88.44 292.15,-76.69"/>
<polygon fill="midnightblue" stroke="midnightblue" points="292.57,-73.21 282.18,-75.26 291.58,-80.14 292.57,-73.21"/>
</g>
<!-- Node4 -->
<g id="node4" class="node">
<title>Node4</title>
<g id="a_node4"><a xlink:title=" ">
<polygon fill="none" stroke="#bfbfbf" points="300,-56.5 300,-75.5 403,-75.5 403,-56.5 300,-56.5"/>
<text text-anchor="middle" x="351.5" y="-63.5" font-family="Helvetica,sans-Serif" font-size="10.00">box2d/b2_types.h</text>
</a>
</g>
</g>
<!-- Node1&#45;&gt;Node4 -->
<g id="edge3" class="edge">
<title>Node1&#45;&gt;Node4</title>
<path fill="none" stroke="midnightblue" d="M599.34,-116.27C538.79,-104.23 456.98,-87.97 404.23,-77.48"/>
<polygon fill="midnightblue" stroke="midnightblue" points="404.89,-74.04 394.4,-75.53 403.53,-80.91 404.89,-74.04"/>
</g>
<!-- Node5 -->
<g id="node5" class="node">
<title>Node5</title>
<g id="a_node5"><a xlink:title=" ">
<polygon fill="none" stroke="#bfbfbf" points="421,-56.5 421,-75.5 524,-75.5 524,-56.5 421,-56.5"/>
<text text-anchor="middle" x="472.5" y="-63.5" font-family="Helvetica,sans-Serif" font-size="10.00">box2d/b2_world.h</text>
</a>
</g>
</g>
<!-- Node1&#45;&gt;Node5 -->
<g id="edge4" class="edge">
<title>Node1&#45;&gt;Node5</title>
<path fill="none" stroke="midnightblue" d="M616.69,-112.5C581.66,-101.44 539.02,-87.99 509.23,-78.59"/>
<polygon fill="midnightblue" stroke="midnightblue" points="510.24,-75.24 499.65,-75.57 508.13,-81.91 510.24,-75.24"/>
</g>
<!-- Node6 -->
<g id="node6" class="node">
<title>Node6</title>
<g id="a_node6"><a xlink:title=" ">
<polygon fill="none" stroke="#bfbfbf" points="542.5,-56.5 542.5,-75.5 696.5,-75.5 696.5,-56.5 542.5,-56.5"/>
<text text-anchor="middle" x="619.5" y="-63.5" font-family="Helvetica,sans-Serif" font-size="10.00">box2d/b2_world_callbacks.h</text>
</a>
</g>
</g>
<!-- Node1&#45;&gt;Node6 -->
<g id="edge5" class="edge">
<title>Node1&#45;&gt;Node6</title>
<path fill="none" stroke="midnightblue" d="M660.8,-112.5C652.27,-103.11 642.18,-91.98 634.1,-83.08"/>
<polygon fill="midnightblue" stroke="midnightblue" points="636.67,-80.7 627.35,-75.65 631.48,-85.41 636.67,-80.7"/>
</g>
<!-- Node7 -->
<g id="node7" class="node">
<title>Node7</title>
<g id="a_node7"><a xlink:title=" ">
<polygon fill="none" stroke="#bfbfbf" points="714.5,-56.5 714.5,-75.5 760.5,-75.5 760.5,-56.5 714.5,-56.5"/>
<text text-anchor="middle" x="737.5" y="-63.5" font-family="Helvetica,sans-Serif" font-size="10.00">cstdio</text>
</a>
</g>
</g>
<!-- Node1&#45;&gt;Node7 -->
<g id="edge6" class="edge">
<title>Node1&#45;&gt;Node7</title>
<path fill="none" stroke="midnightblue" d="M696.2,-112.5C704.73,-103.11 714.82,-91.98 722.9,-83.08"/>
<polygon fill="midnightblue" stroke="midnightblue" points="725.52,-85.41 729.65,-75.65 720.33,-80.7 725.52,-85.41"/>
</g>
<!-- Node8 -->
<g id="node8" class="node">
<title>Node8</title>
<g id="a_node8"><a xlink:title=" ">
<polygon fill="none" stroke="#bfbfbf" points="778.5,-56.5 778.5,-75.5 856.5,-75.5 856.5,-56.5 778.5,-56.5"/>
<text text-anchor="middle" x="817.5" y="-63.5" font-family="Helvetica,sans-Serif" font-size="10.00">glm/glm.hpp</text>
</a>
</g>
</g>
<!-- Node1&#45;&gt;Node8 -->
<g id="edge7" class="edge">
<title>Node1&#45;&gt;Node8</title>
<path fill="none" stroke="midnightblue" d="M720.2,-112.5C742.75,-101.96 769.96,-89.23 789.86,-79.92"/>
<polygon fill="midnightblue" stroke="midnightblue" points="791.42,-83.06 799,-75.65 788.46,-76.72 791.42,-83.06"/>
</g>
<!-- Node9 -->
<g id="node9" class="node">
<title>Node9</title>
<g id="a_node9"><a xlink:href="Components_2Component_8h.html" target="_top" xlink:title=" ">
<polygon fill="none" stroke="black" points="874.5,-56.5 874.5,-75.5 956.5,-75.5 956.5,-56.5 874.5,-56.5"/>
<text text-anchor="middle" x="915.5" y="-63.5" font-family="Helvetica,sans-Serif" font-size="10.00">Component.h</text>
</a>
</g>
</g>
<!-- Node1&#45;&gt;Node9 -->
<g id="edge8" class="edge">
<title>Node1&#45;&gt;Node9</title>
<path fill="none" stroke="midnightblue" d="M749.61,-112.5C790.44,-101.3 840.25,-87.64 874.57,-78.22"/>
<polygon fill="midnightblue" stroke="midnightblue" points="875.55,-81.59 884.26,-75.57 873.69,-74.84 875.55,-81.59"/>
</g>
<!-- Node10 -->
<g id="node10" class="node">
<title>Node10</title>
<g id="a_node10"><a xlink:title=" ">
<polygon fill="none" stroke="#bfbfbf" points="920.5,-0.5 920.5,-19.5 978.5,-19.5 978.5,-0.5 920.5,-0.5"/>
<text text-anchor="middle" x="949.5" y="-7.5" font-family="Helvetica,sans-Serif" font-size="10.00">memory</text>
</a>
</g>
</g>
<!-- Node1&#45;&gt;Node10 -->
<g id="edge11" class="edge">
<title>Node1&#45;&gt;Node10</title>
<path fill="none" stroke="midnightblue" d="M757.71,-127.56C833.36,-121.47 939.6,-107.45 965.5,-76 976.55,-62.59 969.23,-42.67 961.24,-28.43"/>
<polygon fill="midnightblue" stroke="midnightblue" points="964.04,-26.29 955.81,-19.62 958.08,-29.97 964.04,-26.29"/>
</g>
<!-- Node11 -->
<g id="node11" class="node">
<title>Node11</title>
<g id="a_node11"><a xlink:title=" ">
<polygon fill="none" stroke="#bfbfbf" points="1013,-56.5 1013,-75.5 1102,-75.5 1102,-56.5 1013,-56.5"/>
<text text-anchor="middle" x="1057.5" y="-63.5" font-family="Helvetica,sans-Serif" font-size="10.00">box2d/box2d.h</text>
</a>
</g>
</g>
<!-- Node1&#45;&gt;Node11 -->
<g id="edge10" class="edge">
<title>Node1&#45;&gt;Node11</title>
<path fill="none" stroke="midnightblue" d="M757.95,-118.37C831.4,-105.78 938.61,-87.39 1002.87,-76.37"/>
<polygon fill="midnightblue" stroke="midnightblue" points="1003.54,-79.81 1012.81,-74.67 1002.36,-72.91 1003.54,-79.81"/>
</g>
<!-- Node9&#45;&gt;Node10 -->
<g id="edge9" class="edge">
<title>Node9&#45;&gt;Node10</title>
<path fill="none" stroke="midnightblue" d="M921.11,-56.08C925.87,-48.53 932.82,-37.49 938.65,-28.23"/>
<polygon fill="midnightblue" stroke="midnightblue" points="941.62,-30.08 943.99,-19.75 935.7,-26.35 941.62,-30.08"/>
</g>
</g>
</svg>
