<?xml version="1.0" encoding="UTF-8" standalone="no"?>
<!DOCTYPE svg PUBLIC "-//W3C//DTD SVG 1.1//EN"
 "http://www.w3.org/Graphics/SVG/1.1/DTD/svg11.dtd">
<!-- Generated by graphviz version 2.43.0 (0)
 -->
<!-- Title: /home/fnky/C0de/component_engine/src/Actors/Platform_Actor.cpp Pages: 1 -->
<!--zoomable 296 -->
<svg id="main" version="1.1" xmlns="http://www.w3.org/2000/svg" xmlns:xlink="http://www.w3.org/1999/xlink" xml:space="preserve" onload="init(evt)">
<style type="text/css"><![CDATA[
.edge:hover path { stroke: red; }
.edge:hover polygon { stroke: red; fill: red; }
]]></style>
<script type="text/javascript"><![CDATA[
var edges = document.getElementsByTagName('g');
if (edges && edges.length) {
  for (var i=0;i<edges.length;i++) {
    if (edges[i].id.substr(0,4)=='edge') {
      edges[i].setAttribute('class','edge');
    }
  }
}
]]></script>
        <defs>
                <circle id="rim" cx="0" cy="0" r="7"/>
                <circle id="rim2" cx="0" cy="0" r="3.5"/>
                <g id="zoomPlus">
                        <use xlink:href="#rim" fill="#404040">
                                <set attributeName="fill" to="#808080" begin="zoomplus.mouseover" end="zoomplus.mouseout"/>
                        </use>
                        <path d="M-4,0h8M0,-4v8" fill="none" stroke="white" stroke-width="1.5" pointer-events="none"/>
                </g>
                <g id="zoomMin">
                        <use xlink:href="#rim" fill="#404040">
                                <set attributeName="fill" to="#808080" begin="zoomminus.mouseover" end="zoomminus.mouseout"/>
                        </use>
                        <path d="M-4,0h8" fill="none" stroke="white" stroke-width="1.5" pointer-events="none"/>
                </g>
                <g id="dirArrow">
                        <path fill="none" stroke="white" stroke-width="1.5" d="M0,-3.0v7 M-2.5,-0.5L0,-3.0L2.5,-0.5"/>
                </g>
               <g id="resetDef">
                       <use xlink:href="#rim2" fill="#404040">
                               <set attributeName="fill" to="#808080" begin="reset.mouseover" end="reset.mouseout"/>
                       </use>
               </g>
        </defs>

<script type="text/javascript">
var viewWidth = 2095;
var viewHeight = 296;
var sectionId = 'dynsection-0';
</script>
<script xlink:href="svgpan.js"/>
<svg id="graph" class="graph">
<g id="viewport">
<title>/home/fnky/C0de/component_engine/src/Actors/Platform_Actor.cpp</title>
<!-- Node1 -->
<g id="node1" class="node">
<title>Node1</title>
<g id="a_node1"><a xlink:title=" ">
<polygon fill="#bfbfbf" stroke="black" points="475.17,-246.5 475.17,-287.5 632.17,-287.5 632.17,-246.5 475.17,-246.5"/>
<text text-anchor="start" x="483.17" y="-275.5" font-family="Helvetica,sans-Serif" font-size="10.00">/home/fnky/C0de/component</text>
<text text-anchor="start" x="483.17" y="-264.5" font-family="Helvetica,sans-Serif" font-size="10.00">_engine/src/Actors/Platform</text>
<text text-anchor="middle" x="553.67" y="-253.5" font-family="Helvetica,sans-Serif" font-size="10.00">_Actor.cpp</text>
</a>
</g>
</g>
<!-- Node2 -->
<g id="node2" class="node">
<title>Node2</title>
<g id="a_node2"><a xlink:href="Shader__Actor_8h.html" target="_top" xlink:title=" ">
<polygon fill="none" stroke="black" points="107.67,-179.5 107.67,-209.5 211.67,-209.5 211.67,-179.5 107.67,-179.5"/>
<text text-anchor="start" x="115.67" y="-197.5" font-family="Helvetica,sans-Serif" font-size="10.00">../../include/Actors</text>
<text text-anchor="middle" x="159.67" y="-186.5" font-family="Helvetica,sans-Serif" font-size="10.00">/Shader_Actor.h</text>
</a>
</g>
</g>
<!-- Node1&#45;&gt;Node2 -->
<g id="edge1" class="edge">
<title>Node1&#45;&gt;Node2</title>
<path fill="none" stroke="midnightblue" d="M475.02,-254.29C409.75,-244.22 314.29,-228.7 221.95,-210.18"/>
<polygon fill="midnightblue" stroke="midnightblue" points="222.36,-206.7 211.87,-208.15 220.98,-213.56 222.36,-206.7"/>
</g>
<!-- Node9 -->
<g id="node9" class="node">
<title>Node9</title>
<g id="a_node9"><a xlink:href="Platform__Actor_8h.html" target="_top" xlink:title=" ">
<polygon fill="none" stroke="black" points="229.67,-179.5 229.67,-209.5 333.67,-209.5 333.67,-179.5 229.67,-179.5"/>
<text text-anchor="start" x="237.67" y="-197.5" font-family="Helvetica,sans-Serif" font-size="10.00">../../include/Actors</text>
<text text-anchor="middle" x="281.67" y="-186.5" font-family="Helvetica,sans-Serif" font-size="10.00">/Platform_Actor.h</text>
</a>
</g>
</g>
<!-- Node1&#45;&gt;Node9 -->
<g id="edge10" class="edge">
<title>Node1&#45;&gt;Node9</title>
<path fill="none" stroke="midnightblue" d="M478.27,-246.46C435.95,-235.49 383.78,-221.97 343.83,-211.61"/>
<polygon fill="midnightblue" stroke="midnightblue" points="344.5,-208.17 333.95,-209.05 342.75,-214.95 344.5,-208.17"/>
</g>
<!-- Node10 -->
<g id="node10" class="node">
<title>Node10</title>
<g id="a_node10"><a xlink:href="TransformComponent_8h.html" target="_top" xlink:title=" ">
<polygon fill="none" stroke="black" points="516.67,-179.5 516.67,-209.5 650.67,-209.5 650.67,-179.5 516.67,-179.5"/>
<text text-anchor="start" x="524.67" y="-197.5" font-family="Helvetica,sans-Serif" font-size="10.00">../../include/Components</text>
<text text-anchor="middle" x="583.67" y="-186.5" font-family="Helvetica,sans-Serif" font-size="10.00">/TransformComponent.h</text>
</a>
</g>
</g>
<!-- Node1&#45;&gt;Node10 -->
<g id="edge14" class="edge">
<title>Node1&#45;&gt;Node10</title>
<path fill="none" stroke="midnightblue" d="M562.03,-246.36C565.61,-237.95 569.82,-228.06 573.57,-219.25"/>
<polygon fill="midnightblue" stroke="midnightblue" points="576.86,-220.46 577.55,-209.89 570.41,-217.72 576.86,-220.46"/>
</g>
<!-- Node13 -->
<g id="node13" class="node">
<title>Node13</title>
<g id="a_node13"><a xlink:href="ShaderComponent_8h.html" target="_top" xlink:title=" ">
<polygon fill="none" stroke="black" points="385.67,-112.5 385.67,-142.5 519.67,-142.5 519.67,-112.5 385.67,-112.5"/>
<text text-anchor="start" x="393.67" y="-130.5" font-family="Helvetica,sans-Serif" font-size="10.00">../../include/Components</text>
<text text-anchor="middle" x="452.67" y="-119.5" font-family="Helvetica,sans-Serif" font-size="10.00">/ShaderComponent.h</text>
</a>
</g>
</g>
<!-- Node1&#45;&gt;Node13 -->
<g id="edge18" class="edge">
<title>Node1&#45;&gt;Node13</title>
<path fill="none" stroke="midnightblue" d="M536.82,-246.41C527.91,-235.82 516.93,-222.41 507.67,-210 493.21,-190.6 477.9,-167.7 467.12,-151.12"/>
<polygon fill="midnightblue" stroke="midnightblue" points="469.99,-149.12 461.63,-142.62 464.12,-152.92 469.99,-149.12"/>
</g>
<!-- Node16 -->
<g id="node16" class="node">
<title>Node16</title>
<g id="a_node16"><a xlink:href="RenderComponent_8h.html" target="_top" xlink:title=" ">
<polygon fill="none" stroke="black" points="1457.67,-179.5 1457.67,-209.5 1591.67,-209.5 1591.67,-179.5 1457.67,-179.5"/>
<text text-anchor="start" x="1465.67" y="-197.5" font-family="Helvetica,sans-Serif" font-size="10.00">../../include/Components</text>
<text text-anchor="middle" x="1524.67" y="-186.5" font-family="Helvetica,sans-Serif" font-size="10.00">/RenderComponent.h</text>
</a>
</g>
</g>
<!-- Node1&#45;&gt;Node16 -->
<g id="edge23" class="edge">
<title>Node1&#45;&gt;Node16</title>
<path fill="none" stroke="midnightblue" d="M632.31,-260.29C814.99,-247.03 1266.21,-214.27 1447.47,-201.11"/>
<polygon fill="midnightblue" stroke="midnightblue" points="1447.73,-204.6 1457.45,-200.38 1447.23,-197.61 1447.73,-204.6"/>
</g>
<!-- Node25 -->
<g id="node25" class="node">
<title>Node25</title>
<g id="a_node25"><a xlink:href="PhysicsComponent_8h.html" target="_top" xlink:title=" ">
<polygon fill="none" stroke="black" points="926.67,-112.5 926.67,-142.5 1060.67,-142.5 1060.67,-112.5 926.67,-112.5"/>
<text text-anchor="start" x="934.67" y="-130.5" font-family="Helvetica,sans-Serif" font-size="10.00">../../include/Components</text>
<text text-anchor="middle" x="993.67" y="-119.5" font-family="Helvetica,sans-Serif" font-size="10.00">/PhysicsComponent.h</text>
</a>
</g>
</g>
<!-- Node1&#45;&gt;Node25 -->
<g id="edge45" class="edge">
<title>Node1&#45;&gt;Node25</title>
<path fill="none" stroke="midnightblue" d="M616.25,-246.45C702.66,-219.44 857.11,-171.18 939.08,-145.56"/>
<polygon fill="midnightblue" stroke="midnightblue" points="940.2,-148.88 948.71,-142.55 938.12,-142.2 940.2,-148.88"/>
</g>
<!-- Node3 -->
<g id="node3" class="node">
<title>Node3</title>
<g id="a_node3"><a xlink:href="Components_2Component_8h.html" target="_top" xlink:title=" ">
<polygon fill="none" stroke="black" points="220.17,-56.5 220.17,-75.5 375.17,-75.5 375.17,-56.5 220.17,-56.5"/>
<text text-anchor="middle" x="297.67" y="-63.5" font-family="Helvetica,sans-Serif" font-size="10.00">../Components/Component.h</text>
</a>
</g>
</g>
<!-- Node2&#45;&gt;Node3 -->
<g id="edge2" class="edge">
<title>Node2&#45;&gt;Node3</title>
<path fill="none" stroke="midnightblue" d="M179.32,-179.4C192.53,-169.64 210.13,-156.1 224.67,-143 246.01,-123.79 268.62,-99.57 282.93,-83.7"/>
<polygon fill="midnightblue" stroke="midnightblue" points="285.91,-85.62 289.96,-75.83 280.69,-80.96 285.91,-85.62"/>
</g>
<!-- Node4 -->
<g id="node4" class="node">
<title>Node4</title>
<g id="a_node4"><a xlink:title=" ">
<polygon fill="none" stroke="#bfbfbf" points="509.67,-0.5 509.67,-19.5 567.67,-19.5 567.67,-0.5 509.67,-0.5"/>
<text text-anchor="middle" x="538.67" y="-7.5" font-family="Helvetica,sans-Serif" font-size="10.00">memory</text>
</a>
</g>
</g>
<!-- Node2&#45;&gt;Node4 -->
<g id="edge9" class="edge">
<title>Node2&#45;&gt;Node4</title>
<path fill="none" stroke="midnightblue" d="M123.55,-179.45C66.73,-155.41 -32.68,-104.31 11.67,-56 44.5,-20.25 382.48,-12.86 499.25,-11.37"/>
<polygon fill="midnightblue" stroke="midnightblue" points="499.57,-14.86 509.52,-11.24 499.48,-7.86 499.57,-14.86"/>
</g>
<!-- Node5 -->
<g id="node5" class="node">
<title>Node5</title>
<g id="a_node5"><a xlink:href="Actor_8h.html" target="_top" xlink:title=" ">
<polygon fill="none" stroke="black" points="165.67,-118 165.67,-137 215.67,-137 215.67,-118 165.67,-118"/>
<text text-anchor="middle" x="190.67" y="-125" font-family="Helvetica,sans-Serif" font-size="10.00">Actor.h</text>
</a>
</g>
</g>
<!-- Node2&#45;&gt;Node5 -->
<g id="edge4" class="edge">
<title>Node2&#45;&gt;Node5</title>
<path fill="none" stroke="midnightblue" d="M166.4,-179.4C171,-169.76 177.12,-156.91 182.07,-146.54"/>
<polygon fill="midnightblue" stroke="midnightblue" points="185.38,-147.73 186.53,-137.19 179.06,-144.71 185.38,-147.73"/>
</g>
<!-- Node8 -->
<g id="node8" class="node">
<title>Node8</title>
<g id="a_node8"><a xlink:title=" ">
<polygon fill="none" stroke="#bfbfbf" points="21.17,-56.5 21.17,-75.5 98.17,-75.5 98.17,-56.5 21.17,-56.5"/>
<text text-anchor="middle" x="59.67" y="-63.5" font-family="Helvetica,sans-Serif" font-size="10.00">glm/fwd.hpp</text>
</a>
</g>
</g>
<!-- Node2&#45;&gt;Node8 -->
<g id="edge8" class="edge">
<title>Node2&#45;&gt;Node8</title>
<path fill="none" stroke="midnightblue" d="M145.91,-179.33C136.51,-169.42 123.94,-155.74 113.67,-143 98.03,-123.59 81.66,-100.02 71.11,-84.33"/>
<polygon fill="midnightblue" stroke="midnightblue" points="73.8,-82.06 65.34,-75.68 67.98,-85.94 73.8,-82.06"/>
</g>
<!-- Node3&#45;&gt;Node4 -->
<g id="edge3" class="edge">
<title>Node3&#45;&gt;Node4</title>
<path fill="none" stroke="midnightblue" d="M335.86,-56.44C380.56,-46.43 454.2,-29.93 499.37,-19.81"/>
<polygon fill="midnightblue" stroke="midnightblue" points="500.39,-23.16 509.38,-17.56 498.86,-16.33 500.39,-23.16"/>
</g>
<!-- Node5&#45;&gt;Node3 -->
<g id="edge7" class="edge">
<title>Node5&#45;&gt;Node3</title>
<path fill="none" stroke="midnightblue" d="M206.01,-117.98C223.64,-108.17 252.83,-91.93 273.53,-80.42"/>
<polygon fill="midnightblue" stroke="midnightblue" points="275.33,-83.43 282.37,-75.51 271.93,-77.31 275.33,-83.43"/>
</g>
<!-- Node6 -->
<g id="node6" class="node">
<title>Node6</title>
<g id="a_node6"><a xlink:title=" ">
<polygon fill="none" stroke="#bfbfbf" points="116.17,-56.5 116.17,-75.5 163.17,-75.5 163.17,-56.5 116.17,-56.5"/>
<text text-anchor="middle" x="139.67" y="-63.5" font-family="Helvetica,sans-Serif" font-size="10.00">vector</text>
</a>
</g>
</g>
<!-- Node5&#45;&gt;Node6 -->
<g id="edge5" class="edge">
<title>Node5&#45;&gt;Node6</title>
<path fill="none" stroke="midnightblue" d="M183.37,-117.98C175.64,-108.96 163.27,-94.52 153.66,-83.31"/>
<polygon fill="midnightblue" stroke="midnightblue" points="156.13,-80.82 146.97,-75.51 150.82,-85.38 156.13,-80.82"/>
</g>
<!-- Node7 -->
<g id="node7" class="node">
<title>Node7</title>
<g id="a_node7"><a xlink:title=" ">
<polygon fill="none" stroke="#bfbfbf" points="1642.67,-0.5 1642.67,-19.5 1702.67,-19.5 1702.67,-0.5 1642.67,-0.5"/>
<text text-anchor="middle" x="1672.67" y="-7.5" font-family="Helvetica,sans-Serif" font-size="10.00">iostream</text>
</a>
</g>
</g>
<!-- Node5&#45;&gt;Node7 -->
<g id="edge6" class="edge">
<title>Node5&#45;&gt;Node7</title>
<path fill="none" stroke="midnightblue" d="M190.18,-117.82C189.83,-102.5 191.62,-70.87 210.67,-56 268.23,-11.09 1402.23,-10.55 1632.2,-10.91"/>
<polygon fill="midnightblue" stroke="midnightblue" points="1632.46,-14.41 1642.46,-10.93 1632.47,-7.41 1632.46,-14.41"/>
</g>
<!-- Node9&#45;&gt;Node3 -->
<g id="edge11" class="edge">
<title>Node9&#45;&gt;Node3</title>
<path fill="none" stroke="midnightblue" d="M283.45,-179.48C286.34,-156.62 292.07,-111.3 295.31,-85.71"/>
<polygon fill="midnightblue" stroke="midnightblue" points="298.78,-86.15 296.56,-75.79 291.84,-85.27 298.78,-86.15"/>
</g>
<!-- Node9&#45;&gt;Node5 -->
<g id="edge12" class="edge">
<title>Node9&#45;&gt;Node5</title>
<path fill="none" stroke="midnightblue" d="M261.93,-179.4C246.81,-168.6 226.03,-153.76 210.82,-142.89"/>
<polygon fill="midnightblue" stroke="midnightblue" points="212.76,-139.97 202.58,-137.01 208.69,-145.67 212.76,-139.97"/>
</g>
<!-- Node9&#45;&gt;Node8 -->
<g id="edge13" class="edge">
<title>Node9&#45;&gt;Node8</title>
<path fill="none" stroke="midnightblue" d="M238.63,-179.5C213.86,-170.62 182.61,-158 156.67,-143 140.43,-133.61 100.89,-101.39 77.61,-82.05"/>
<polygon fill="midnightblue" stroke="midnightblue" points="79.77,-79.29 69.85,-75.57 75.29,-84.66 79.77,-79.29"/>
</g>
<!-- Node10&#45;&gt;Node3 -->
<g id="edge15" class="edge">
<title>Node10&#45;&gt;Node3</title>
<path fill="none" stroke="midnightblue" d="M516.57,-185.44C455.56,-177.04 371.02,-162.4 343.67,-143 323.67,-128.81 310.77,-102.93 303.87,-85.35"/>
<polygon fill="midnightblue" stroke="midnightblue" points="307.05,-83.86 300.33,-75.66 300.47,-86.26 307.05,-83.86"/>
</g>
<!-- Node11 -->
<g id="node11" class="node">
<title>Node11</title>
<g id="a_node11"><a xlink:title=" ">
<polygon fill="none" stroke="#bfbfbf" points="1464.67,-56.5 1464.67,-75.5 1542.67,-75.5 1542.67,-56.5 1464.67,-56.5"/>
<text text-anchor="middle" x="1503.67" y="-63.5" font-family="Helvetica,sans-Serif" font-size="10.00">glm/glm.hpp</text>
</a>
</g>
</g>
<!-- Node10&#45;&gt;Node11 -->
<g id="edge16" class="edge">
<title>Node10&#45;&gt;Node11</title>
<path fill="none" stroke="midnightblue" d="M651.07,-187.97C745.06,-179.93 920.74,-163.67 1069.67,-143 1241.71,-119.12 1283.7,-106.58 1454.67,-76 1454.78,-75.98 1454.88,-75.96 1454.98,-75.95"/>
<polygon fill="midnightblue" stroke="midnightblue" points="1455.41,-79.42 1464.63,-74.21 1454.17,-72.54 1455.41,-79.42"/>
</g>
<!-- Node12 -->
<g id="node12" class="node">
<title>Node12</title>
<g id="a_node12"><a xlink:title=" ">
<polygon fill="none" stroke="#bfbfbf" points="538.17,-118 538.17,-137 701.17,-137 701.17,-118 538.17,-118"/>
<text text-anchor="middle" x="619.67" y="-125" font-family="Helvetica,sans-Serif" font-size="10.00">glm/gtc/matrix_transform.hpp</text>
</a>
</g>
</g>
<!-- Node10&#45;&gt;Node12 -->
<g id="edge17" class="edge">
<title>Node10&#45;&gt;Node12</title>
<path fill="none" stroke="midnightblue" d="M591.49,-179.4C596.88,-169.66 604.09,-156.65 609.86,-146.21"/>
<polygon fill="midnightblue" stroke="midnightblue" points="613.08,-147.64 614.86,-137.19 606.95,-144.25 613.08,-147.64"/>
</g>
<!-- Node13&#45;&gt;Node3 -->
<g id="edge19" class="edge">
<title>Node13&#45;&gt;Node3</title>
<path fill="none" stroke="midnightblue" d="M415.94,-112.4C389.7,-102.33 354.75,-88.91 329.66,-79.28"/>
<polygon fill="midnightblue" stroke="midnightblue" points="330.82,-75.97 320.23,-75.66 328.31,-82.51 330.82,-75.97"/>
</g>
<!-- Node13&#45;&gt;Node11 -->
<g id="edge21" class="edge">
<title>Node13&#45;&gt;Node11</title>
<path fill="none" stroke="midnightblue" d="M519.73,-113.14C522.75,-112.72 525.74,-112.34 528.67,-112 934.59,-65.65 1043.56,-120.42 1454.36,-75.82"/>
<polygon fill="midnightblue" stroke="midnightblue" points="1454.88,-79.29 1464.43,-74.72 1454.11,-72.33 1454.88,-79.29"/>
</g>
<!-- Node14 -->
<g id="node14" class="node">
<title>Node14</title>
<g id="a_node14"><a xlink:title=" ">
<polygon fill="none" stroke="#bfbfbf" points="1938.17,-0.5 1938.17,-19.5 2009.17,-19.5 2009.17,-0.5 1938.17,-0.5"/>
<text text-anchor="middle" x="1973.67" y="-7.5" font-family="Helvetica,sans-Serif" font-size="10.00">glad/glad.h</text>
</a>
</g>
</g>
<!-- Node13&#45;&gt;Node14 -->
<g id="edge20" class="edge">
<title>Node13&#45;&gt;Node14</title>
<path fill="none" stroke="midnightblue" d="M479.84,-112.47C514.32,-95.47 576.14,-67.66 632.67,-56 867.64,-7.56 1471.9,-28.12 1711.67,-20 1787.42,-17.44 1875.49,-14.4 1927.79,-12.59"/>
<polygon fill="midnightblue" stroke="midnightblue" points="1928.21,-16.08 1938.08,-12.23 1927.96,-9.08 1928.21,-16.08"/>
</g>
<!-- Node15 -->
<g id="node15" class="node">
<title>Node15</title>
<g id="a_node15"><a xlink:title=" ">
<polygon fill="none" stroke="#bfbfbf" points="393.17,-56.5 393.17,-75.5 510.17,-75.5 510.17,-56.5 393.17,-56.5"/>
<text text-anchor="middle" x="451.67" y="-63.5" font-family="Helvetica,sans-Serif" font-size="10.00">glm/gtc/type_ptr.hpp</text>
</a>
</g>
</g>
<!-- Node13&#45;&gt;Node15 -->
<g id="edge22" class="edge">
<title>Node13&#45;&gt;Node15</title>
<path fill="none" stroke="midnightblue" d="M452.44,-112.4C452.3,-104.47 452.14,-94.46 451.99,-85.86"/>
<polygon fill="midnightblue" stroke="midnightblue" points="455.49,-85.6 451.82,-75.66 448.49,-85.72 455.49,-85.6"/>
</g>
<!-- Node16&#45;&gt;Node3 -->
<g id="edge30" class="edge">
<title>Node16&#45;&gt;Node3</title>
<path fill="none" stroke="midnightblue" d="M1457.41,-193.3C1226.63,-192.23 475.8,-185.5 376.67,-143 374.7,-142.15 336.15,-104.64 313.65,-82.64"/>
<polygon fill="midnightblue" stroke="midnightblue" points="316.04,-80.08 306.44,-75.59 311.14,-85.09 316.04,-80.08"/>
</g>
<!-- Node16&#45;&gt;Node4 -->
<g id="edge44" class="edge">
<title>Node16&#45;&gt;Node4</title>
<path fill="none" stroke="midnightblue" d="M1457.46,-190.57C1345.19,-185.07 1112.6,-171.16 917.67,-143 844.91,-132.49 656.88,-113.56 593.67,-76 574.29,-64.48 558.47,-43.6 548.86,-28.61"/>
<polygon fill="midnightblue" stroke="midnightblue" points="551.66,-26.48 543.46,-19.77 545.68,-30.13 551.66,-26.48"/>
</g>
<!-- Node16&#45;&gt;Node11 -->
<g id="edge27" class="edge">
<title>Node16&#45;&gt;Node11</title>
<path fill="none" stroke="midnightblue" d="M1522.35,-179.48C1518.55,-156.62 1511.03,-111.3 1506.78,-85.71"/>
<polygon fill="midnightblue" stroke="midnightblue" points="1510.22,-85.08 1505.13,-75.79 1503.32,-86.23 1510.22,-85.08"/>
</g>
<!-- Node16&#45;&gt;Node12 -->
<g id="edge28" class="edge">
<title>Node16&#45;&gt;Node12</title>
<path fill="none" stroke="midnightblue" d="M1457.65,-191.3C1318.88,-186.32 990.12,-172.24 715.67,-143 704.27,-141.78 692.14,-140.19 680.48,-138.51"/>
<polygon fill="midnightblue" stroke="midnightblue" points="680.79,-135.01 670.39,-137.01 679.76,-141.94 680.79,-135.01"/>
</g>
<!-- Node16&#45;&gt;Node14 -->
<g id="edge26" class="edge">
<title>Node16&#45;&gt;Node14</title>
<path fill="none" stroke="midnightblue" d="M1591.8,-190.21C1727.25,-181.95 2025.2,-154.99 2081.67,-76 2101.54,-48.22 2057.05,-30.15 2019.29,-20.28"/>
<polygon fill="midnightblue" stroke="midnightblue" points="2019.92,-16.83 2009.38,-17.83 2018.24,-23.63 2019.92,-16.83"/>
</g>
<!-- Node17 -->
<g id="node17" class="node">
<title>Node17</title>
<g id="a_node17"><a xlink:title=" ">
<polygon fill="none" stroke="#bfbfbf" points="2022.67,-56.5 2022.67,-75.5 2072.67,-75.5 2072.67,-56.5 2022.67,-56.5"/>
<text text-anchor="middle" x="2047.67" y="-63.5" font-family="Helvetica,sans-Serif" font-size="10.00">cstdint</text>
</a>
</g>
</g>
<!-- Node16&#45;&gt;Node17 -->
<g id="edge24" class="edge">
<title>Node16&#45;&gt;Node17</title>
<path fill="none" stroke="midnightblue" d="M1591.94,-185.11C1652.55,-176.84 1743.82,-162.58 1821.67,-143 1892.62,-125.15 1973.32,-95.73 2016.5,-79.21"/>
<polygon fill="midnightblue" stroke="midnightblue" points="2017.81,-82.46 2025.88,-75.6 2015.29,-75.93 2017.81,-82.46"/>
</g>
<!-- Node18 -->
<g id="node18" class="node">
<title>Node18</title>
<g id="a_node18"><a xlink:title=" ">
<polygon fill="none" stroke="#bfbfbf" points="1560.67,-56.5 1560.67,-75.5 1606.67,-75.5 1606.67,-56.5 1560.67,-56.5"/>
<text text-anchor="middle" x="1583.67" y="-63.5" font-family="Helvetica,sans-Serif" font-size="10.00">cstdio</text>
</a>
</g>
</g>
<!-- Node16&#45;&gt;Node18 -->
<g id="edge25" class="edge">
<title>Node16&#45;&gt;Node18</title>
<path fill="none" stroke="midnightblue" d="M1531.21,-179.48C1541.97,-156.41 1563.4,-110.48 1575.27,-85.03"/>
<polygon fill="midnightblue" stroke="midnightblue" points="1578.52,-86.33 1579.58,-75.79 1572.18,-83.37 1578.52,-86.33"/>
</g>
<!-- Node19 -->
<g id="node19" class="node">
<title>Node19</title>
<g id="a_node19"><a xlink:title=" ">
<polygon fill="none" stroke="#bfbfbf" points="1458.67,-118 1458.67,-137 1496.67,-137 1496.67,-118 1458.67,-118"/>
<text text-anchor="middle" x="1477.67" y="-125" font-family="Helvetica,sans-Serif" font-size="10.00">map</text>
</a>
</g>
</g>
<!-- Node16&#45;&gt;Node19 -->
<g id="edge29" class="edge">
<title>Node16&#45;&gt;Node19</title>
<path fill="none" stroke="midnightblue" d="M1514.48,-179.4C1507.29,-169.46 1497.64,-156.11 1490.02,-145.57"/>
<polygon fill="midnightblue" stroke="midnightblue" points="1492.66,-143.25 1483.96,-137.19 1486.99,-147.35 1492.66,-143.25"/>
</g>
<!-- Node20 -->
<g id="node20" class="node">
<title>Node20</title>
<g id="a_node20"><a xlink:href="sprite_8h.html" target="_top" xlink:title=" ">
<polygon fill="none" stroke="black" points="1643.67,-118 1643.67,-137 1751.67,-137 1751.67,-118 1643.67,-118"/>
<text text-anchor="middle" x="1697.67" y="-125" font-family="Helvetica,sans-Serif" font-size="10.00">../Graphics/sprite.h</text>
</a>
</g>
</g>
<!-- Node16&#45;&gt;Node20 -->
<g id="edge31" class="edge">
<title>Node16&#45;&gt;Node20</title>
<path fill="none" stroke="midnightblue" d="M1562.21,-179.4C1592.97,-167.84 1636.04,-151.66 1665.3,-140.66"/>
<polygon fill="midnightblue" stroke="midnightblue" points="1666.9,-143.8 1675.03,-137.01 1664.44,-137.25 1666.9,-143.8"/>
</g>
<!-- Node22 -->
<g id="node22" class="node">
<title>Node22</title>
<g id="a_node22"><a xlink:href="texture_8h.html" target="_top" xlink:title=" ">
<polygon fill="none" stroke="black" points="1943.17,-56.5 1943.17,-75.5 2004.17,-75.5 2004.17,-56.5 1943.17,-56.5"/>
<text text-anchor="middle" x="1973.67" y="-63.5" font-family="Helvetica,sans-Serif" font-size="10.00">texture.h</text>
</a>
</g>
</g>
<!-- Node16&#45;&gt;Node22 -->
<g id="edge43" class="edge">
<title>Node16&#45;&gt;Node22</title>
<path fill="none" stroke="midnightblue" d="M1591.88,-181.57C1639.42,-172.53 1704.45,-158.97 1760.67,-143 1826.79,-124.22 1902.09,-95.58 1943.09,-79.35"/>
<polygon fill="midnightblue" stroke="midnightblue" points="1944.52,-82.56 1952.51,-75.61 1941.93,-76.05 1944.52,-82.56"/>
</g>
<!-- Node20&#45;&gt;Node4 -->
<g id="edge40" class="edge">
<title>Node20&#45;&gt;Node4</title>
<path fill="none" stroke="midnightblue" d="M1691.15,-117.97C1678.56,-102.27 1649.2,-69.23 1615.67,-56 1517.75,-17.35 759.89,-11.88 577.88,-11.12"/>
<polygon fill="midnightblue" stroke="midnightblue" points="577.71,-7.62 567.7,-11.08 577.68,-14.62 577.71,-7.62"/>
</g>
<!-- Node20&#45;&gt;Node7 -->
<g id="edge36" class="edge">
<title>Node20&#45;&gt;Node7</title>
<path fill="none" stroke="midnightblue" d="M1695.8,-117.82C1691.76,-99.17 1682.19,-54.94 1676.71,-29.63"/>
<polygon fill="midnightblue" stroke="midnightblue" points="1680.11,-28.82 1674.58,-19.78 1673.27,-30.3 1680.11,-28.82"/>
</g>
<!-- Node20&#45;&gt;Node8 -->
<g id="edge34" class="edge">
<title>Node20&#45;&gt;Node8</title>
<path fill="none" stroke="midnightblue" d="M1643.51,-121.69C1605.08,-118.45 1552.25,-114.36 1505.67,-112 887.82,-80.74 726.8,-142.05 108.39,-76"/>
<polygon fill="midnightblue" stroke="midnightblue" points="108.65,-72.51 98.33,-74.92 107.9,-79.47 108.65,-72.51"/>
</g>
<!-- Node20&#45;&gt;Node11 -->
<g id="edge35" class="edge">
<title>Node20&#45;&gt;Node11</title>
<path fill="none" stroke="midnightblue" d="M1669.88,-117.98C1636.03,-107.59 1578.7,-90.01 1541.02,-78.45"/>
<polygon fill="midnightblue" stroke="midnightblue" points="1542.01,-75.1 1531.42,-75.51 1539.95,-81.79 1542.01,-75.1"/>
</g>
<!-- Node20&#45;&gt;Node17 -->
<g id="edge32" class="edge">
<title>Node20&#45;&gt;Node17</title>
<path fill="none" stroke="midnightblue" d="M1751.94,-119.52C1813.03,-111.27 1915.42,-96.34 2012.51,-76.07"/>
<polygon fill="midnightblue" stroke="midnightblue" points="2013.43,-79.46 2022.49,-73.97 2011.98,-72.61 2013.43,-79.46"/>
</g>
<!-- Node21 -->
<g id="node21" class="node">
<title>Node21</title>
<g id="a_node21"><a xlink:title=" ">
<polygon fill="none" stroke="#bfbfbf" points="1874.67,-56.5 1874.67,-75.5 1924.67,-75.5 1924.67,-56.5 1874.67,-56.5"/>
<text text-anchor="middle" x="1899.67" y="-63.5" font-family="Helvetica,sans-Serif" font-size="10.00">stdio.h</text>
</a>
</g>
</g>
<!-- Node20&#45;&gt;Node21 -->
<g id="edge33" class="edge">
<title>Node20&#45;&gt;Node21</title>
<path fill="none" stroke="midnightblue" d="M1726.62,-117.98C1763.15,-107.22 1825.92,-88.73 1864.98,-77.22"/>
<polygon fill="midnightblue" stroke="midnightblue" points="1866,-80.57 1874.61,-74.38 1864.03,-73.85 1866,-80.57"/>
</g>
<!-- Node20&#45;&gt;Node22 -->
<g id="edge37" class="edge">
<title>Node20&#45;&gt;Node22</title>
<path fill="none" stroke="midnightblue" d="M1738.21,-117.96C1783.23,-108.45 1858.32,-92.49 1933.05,-76.12"/>
<polygon fill="midnightblue" stroke="midnightblue" points="1934.09,-79.47 1943.11,-73.91 1932.59,-72.64 1934.09,-79.47"/>
</g>
<!-- Node23 -->
<g id="node23" class="node">
<title>Node23</title>
<g id="a_node23"><a xlink:title=" ">
<polygon fill="none" stroke="#bfbfbf" points="1700.67,-56.5 1700.67,-75.5 1744.67,-75.5 1744.67,-56.5 1700.67,-56.5"/>
<text text-anchor="middle" x="1722.67" y="-63.5" font-family="Helvetica,sans-Serif" font-size="10.00">string</text>
</a>
</g>
</g>
<!-- Node20&#45;&gt;Node23 -->
<g id="edge41" class="edge">
<title>Node20&#45;&gt;Node23</title>
<path fill="none" stroke="midnightblue" d="M1701.26,-117.98C1704.86,-109.4 1710.52,-95.93 1715.12,-84.98"/>
<polygon fill="midnightblue" stroke="midnightblue" points="1718.45,-86.08 1719.1,-75.51 1712,-83.37 1718.45,-86.08"/>
</g>
<!-- Node24 -->
<g id="node24" class="node">
<title>Node24</title>
<g id="a_node24"><a xlink:title=" ">
<polygon fill="none" stroke="#bfbfbf" points="1763.17,-56.5 1763.17,-75.5 1856.17,-75.5 1856.17,-56.5 1763.17,-56.5"/>
<text text-anchor="middle" x="1809.67" y="-63.5" font-family="Helvetica,sans-Serif" font-size="10.00">unordered_map</text>
</a>
</g>
</g>
<!-- Node20&#45;&gt;Node24 -->
<g id="edge42" class="edge">
<title>Node20&#45;&gt;Node24</title>
<path fill="none" stroke="midnightblue" d="M1713.72,-117.98C1732.27,-108.12 1763.01,-91.79 1784.7,-80.27"/>
<polygon fill="midnightblue" stroke="midnightblue" points="1786.47,-83.29 1793.66,-75.51 1783.18,-77.11 1786.47,-83.29"/>
</g>
<!-- Node22&#45;&gt;Node7 -->
<g id="edge38" class="edge">
<title>Node22&#45;&gt;Node7</title>
<path fill="none" stroke="midnightblue" d="M1943.13,-57.96C1939.94,-57.28 1936.75,-56.61 1933.67,-56 1855.83,-40.54 1764.3,-25.47 1712.94,-17.29"/>
<polygon fill="midnightblue" stroke="midnightblue" points="1713.33,-13.81 1702.91,-15.7 1712.24,-20.73 1713.33,-13.81"/>
</g>
<!-- Node22&#45;&gt;Node14 -->
<g id="edge39" class="edge">
<title>Node22&#45;&gt;Node14</title>
<path fill="none" stroke="midnightblue" d="M1973.67,-56.08C1973.67,-49.01 1973.67,-38.86 1973.67,-29.99"/>
<polygon fill="midnightblue" stroke="midnightblue" points="1977.18,-29.75 1973.67,-19.75 1970.18,-29.75 1977.18,-29.75"/>
</g>
<!-- Node25&#45;&gt;Node3 -->
<g id="edge53" class="edge">
<title>Node25&#45;&gt;Node3</title>
<path fill="none" stroke="midnightblue" d="M926.39,-121.41C815.8,-112.94 588.44,-95.07 385.73,-76.18"/>
<polygon fill="midnightblue" stroke="midnightblue" points="385.77,-72.67 375.48,-75.22 385.11,-79.63 385.77,-72.67"/>
</g>
<!-- Node25&#45;&gt;Node4 -->
<g id="edge55" class="edge">
<title>Node25&#45;&gt;Node4</title>
<path fill="none" stroke="midnightblue" d="M926.47,-126.29C852.17,-123.99 730.1,-114.01 632.67,-76 602.97,-64.41 573.52,-41.76 555.71,-26.5"/>
<polygon fill="midnightblue" stroke="midnightblue" points="557.77,-23.65 547.95,-19.68 553.15,-28.91 557.77,-23.65"/>
</g>
<!-- Node25&#45;&gt;Node11 -->
<g id="edge52" class="edge">
<title>Node25&#45;&gt;Node11</title>
<path fill="none" stroke="midnightblue" d="M1061.05,-120.66C1151.03,-112.52 1315.26,-96.41 1454.67,-76 1454.78,-75.99 1454.88,-75.97 1454.98,-75.96"/>
<polygon fill="midnightblue" stroke="midnightblue" points="1455.34,-79.44 1464.67,-74.43 1454.25,-72.53 1455.34,-79.44"/>
</g>
<!-- Node25&#45;&gt;Node18 -->
<g id="edge51" class="edge">
<title>Node25&#45;&gt;Node18</title>
<path fill="none" stroke="midnightblue" d="M1060.78,-124.41C1164.22,-120.31 1368.81,-108.73 1550.38,-75.92"/>
<polygon fill="midnightblue" stroke="midnightblue" points="1551.17,-79.33 1560.37,-74.09 1549.91,-72.45 1551.17,-79.33"/>
</g>
<!-- Node26 -->
<g id="node26" class="node">
<title>Node26</title>
<g id="a_node26"><a xlink:title=" ">
<polygon fill="none" stroke="#bfbfbf" points="642.17,-56.5 642.17,-75.5 791.17,-75.5 791.17,-56.5 642.17,-56.5"/>
<text text-anchor="middle" x="716.67" y="-63.5" font-family="Helvetica,sans-Serif" font-size="10.00">box2d/b2_polygon_shape.h</text>
</a>
</g>
</g>
<!-- Node25&#45;&gt;Node26 -->
<g id="edge46" class="edge">
<title>Node25&#45;&gt;Node26</title>
<path fill="none" stroke="midnightblue" d="M928.38,-112.47C878.71,-101.81 811.42,-87.35 766.15,-77.63"/>
<polygon fill="midnightblue" stroke="midnightblue" points="766.79,-74.18 756.28,-75.51 765.32,-81.03 766.79,-74.18"/>
</g>
<!-- Node27 -->
<g id="node27" class="node">
<title>Node27</title>
<g id="a_node27"><a xlink:title=" ">
<polygon fill="none" stroke="#bfbfbf" points="809.17,-56.5 809.17,-75.5 924.17,-75.5 924.17,-56.5 809.17,-56.5"/>
<text text-anchor="middle" x="866.67" y="-63.5" font-family="Helvetica,sans-Serif" font-size="10.00">box2d/b2_settings.h</text>
</a>
</g>
</g>
<!-- Node25&#45;&gt;Node27 -->
<g id="edge47" class="edge">
<title>Node25&#45;&gt;Node27</title>
<path fill="none" stroke="midnightblue" d="M963.58,-112.4C942.55,-102.55 914.7,-89.5 894.26,-79.92"/>
<polygon fill="midnightblue" stroke="midnightblue" points="895.69,-76.73 885.15,-75.66 892.73,-83.07 895.69,-76.73"/>
</g>
<!-- Node28 -->
<g id="node28" class="node">
<title>Node28</title>
<g id="a_node28"><a xlink:title=" ">
<polygon fill="none" stroke="#bfbfbf" points="942.17,-56.5 942.17,-75.5 1045.17,-75.5 1045.17,-56.5 942.17,-56.5"/>
<text text-anchor="middle" x="993.67" y="-63.5" font-family="Helvetica,sans-Serif" font-size="10.00">box2d/b2_types.h</text>
</a>
</g>
</g>
<!-- Node25&#45;&gt;Node28 -->
<g id="edge48" class="edge">
<title>Node25&#45;&gt;Node28</title>
<path fill="none" stroke="midnightblue" d="M993.67,-112.4C993.67,-104.47 993.67,-94.46 993.67,-85.86"/>
<polygon fill="midnightblue" stroke="midnightblue" points="997.18,-85.66 993.67,-75.66 990.18,-85.66 997.18,-85.66"/>
</g>
<!-- Node29 -->
<g id="node29" class="node">
<title>Node29</title>
<g id="a_node29"><a xlink:title=" ">
<polygon fill="none" stroke="#bfbfbf" points="1063.17,-56.5 1063.17,-75.5 1166.17,-75.5 1166.17,-56.5 1063.17,-56.5"/>
<text text-anchor="middle" x="1114.67" y="-63.5" font-family="Helvetica,sans-Serif" font-size="10.00">box2d/b2_world.h</text>
</a>
</g>
</g>
<!-- Node25&#45;&gt;Node29 -->
<g id="edge49" class="edge">
<title>Node25&#45;&gt;Node29</title>
<path fill="none" stroke="midnightblue" d="M1022.35,-112.4C1042.2,-102.64 1068.44,-89.74 1087.87,-80.18"/>
<polygon fill="midnightblue" stroke="midnightblue" points="1089.64,-83.21 1097.07,-75.66 1086.55,-76.93 1089.64,-83.21"/>
</g>
<!-- Node30 -->
<g id="node30" class="node">
<title>Node30</title>
<g id="a_node30"><a xlink:title=" ">
<polygon fill="none" stroke="#bfbfbf" points="1184.67,-56.5 1184.67,-75.5 1338.67,-75.5 1338.67,-56.5 1184.67,-56.5"/>
<text text-anchor="middle" x="1261.67" y="-63.5" font-family="Helvetica,sans-Serif" font-size="10.00">box2d/b2_world_callbacks.h</text>
</a>
</g>
</g>
<!-- Node25&#45;&gt;Node30 -->
<g id="edge50" class="edge">
<title>Node25&#45;&gt;Node30</title>
<path fill="none" stroke="midnightblue" d="M1056.85,-112.47C1104.8,-101.83 1169.73,-87.41 1213.53,-77.69"/>
<polygon fill="midnightblue" stroke="midnightblue" points="1214.36,-81.09 1223.36,-75.51 1212.84,-74.26 1214.36,-81.09"/>
</g>
<!-- Node31 -->
<g id="node31" class="node">
<title>Node31</title>
<g id="a_node31"><a xlink:title=" ">
<polygon fill="none" stroke="#bfbfbf" points="1357.17,-56.5 1357.17,-75.5 1446.17,-75.5 1446.17,-56.5 1357.17,-56.5"/>
<text text-anchor="middle" x="1401.67" y="-63.5" font-family="Helvetica,sans-Serif" font-size="10.00">box2d/box2d.h</text>
</a>
</g>
</g>
<!-- Node25&#45;&gt;Node31 -->
<g id="edge54" class="edge">
<title>Node25&#45;&gt;Node31</title>
<path fill="none" stroke="midnightblue" d="M1060.95,-117.38C1130.06,-107.91 1241.01,-92.39 1346.99,-76.08"/>
<polygon fill="midnightblue" stroke="midnightblue" points="1347.55,-79.53 1356.9,-74.55 1346.48,-72.61 1347.55,-79.53"/>
</g>
</g>
</svg>
        <g id="navigator" transform="translate(0 0)" fill="#404254">
                <rect fill="#f2f5e9" fill-opacity="0.5" stroke="#606060" stroke-width=".5" x="0" y="0" width="60" height="60"/>
                <use id="zoomplus" xlink:href="#zoomPlus" x="17" y="9" onmousedown="handleZoom(evt,'in')"/>
                <use id="zoomminus" xlink:href="#zoomMin" x="42" y="9" onmousedown="handleZoom(evt,'out')"/>
                <use id="reset" xlink:href="#resetDef" x="30" y="36" onmousedown="handleReset()"/>
                <g id="arrowUp" xlink:href="#dirArrow" transform="translate(30 24)" onmousedown="handlePan(0,-1)">
                  <use xlink:href="#rim" fill="#404040">
                        <set attributeName="fill" to="#808080" begin="arrowUp.mouseover" end="arrowUp.mouseout"/>
                  </use>
                  <path fill="none" stroke="white" stroke-width="1.5" d="M0,-3.0v7 M-2.5,-0.5L0,-3.0L2.5,-0.5"/>
                </g>
                <g id="arrowRight" xlink:href="#dirArrow" transform="rotate(90) translate(36 -43)" onmousedown="handlePan(1,0)">
                  <use xlink:href="#rim" fill="#404040">
                        <set attributeName="fill" to="#808080" begin="arrowRight.mouseover" end="arrowRight.mouseout"/>
                  </use>
                  <path fill="none" stroke="white" stroke-width="1.5" d="M0,-3.0v7 M-2.5,-0.5L0,-3.0L2.5,-0.5"/>
                </g>
                <g id="arrowDown" xlink:href="#dirArrow" transform="rotate(180) translate(-30 -48)" onmousedown="handlePan(0,1)">
                  <use xlink:href="#rim" fill="#404040">
                        <set attributeName="fill" to="#808080" begin="arrowDown.mouseover" end="arrowDown.mouseout"/>
                  </use>
                  <path fill="none" stroke="white" stroke-width="1.5" d="M0,-3.0v7 M-2.5,-0.5L0,-3.0L2.5,-0.5"/>
                </g>
                <g id="arrowLeft" xlink:href="#dirArrow" transform="rotate(270) translate(-36 17)" onmousedown="handlePan(-1,0)">
                  <use xlink:href="#rim" fill="#404040">
                        <set attributeName="fill" to="#808080" begin="arrowLeft.mouseover" end="arrowLeft.mouseout"/>
                  </use>
                  <path fill="none" stroke="white" stroke-width="1.5" d="M0,-3.0v7 M-2.5,-0.5L0,-3.0L2.5,-0.5"/>
                </g>
        </g>
        <svg viewBox="0 0 15 15" width="100%" height="30px" preserveAspectRatio="xMaxYMin meet">
         <g id="arrow_out" transform="scale(0.3 0.3)">
          <a xlink:href="Platform__Actor_8cpp__incl_org.svg" target="_base">
           <rect id="button" ry="5" rx="5" y="6" x="6" height="38" width="38"
                fill="#f2f5e9" fill-opacity="0.5" stroke="#606060" stroke-width="1.0"/>
           <path id="arrow"
             d="M 11.500037,31.436501 C 11.940474,20.09759 22.043105,11.32322 32.158766,21.979434 L 37.068811,17.246167 C 37.068811,17.246167 37.088388,32 37.088388,32 L 22.160133,31.978069 C 22.160133,31.978069 26.997745,27.140456 26.997745,27.140456 C 18.528582,18.264221 13.291696,25.230495 11.500037,31.436501 z"
             style="fill:#404040;"/>
          </a>
         </g>
        </svg>
</svg>
