<?xml version="1.0" encoding="UTF-8" standalone="no"?>
<!DOCTYPE svg PUBLIC "-//W3C//DTD SVG 1.1//EN"
 "http://www.w3.org/Graphics/SVG/1.1/DTD/svg11.dtd">
<!-- Generated by graphviz version 2.43.0 (0)
 -->
<!-- Title: /home/fnky/C0de/component_engine/src/Actors/Player_Actor.cpp Pages: 1 -->
<svg width="2217pt" height="296pt"
 viewBox="0.00 0.00 2217.00 296.00" xmlns="http://www.w3.org/2000/svg" xmlns:xlink="http://www.w3.org/1999/xlink">
<g id="graph0" class="graph" transform="scale(1 1) rotate(0) translate(4 292)">
<title>/home/fnky/C0de/component_engine/src/Actors/Player_Actor.cpp</title>
<!-- Node1 -->
<g id="node1" class="node">
<title>Node1</title>
<g id="a_node1"><a xlink:title=" ">
<polygon fill="#bfbfbf" stroke="black" points="476.5,-246.5 476.5,-287.5 633.5,-287.5 633.5,-246.5 476.5,-246.5"/>
<text text-anchor="start" x="484.5" y="-275.5" font-family="Helvetica,sans-Serif" font-size="10.00">/home/fnky/C0de/component</text>
<text text-anchor="start" x="484.5" y="-264.5" font-family="Helvetica,sans-Serif" font-size="10.00">_engine/src/Actors/Player</text>
<text text-anchor="middle" x="555" y="-253.5" font-family="Helvetica,sans-Serif" font-size="10.00">_Actor.cpp</text>
</a>
</g>
</g>
<!-- Node2 -->
<g id="node2" class="node">
<title>Node2</title>
<g id="a_node2"><a xlink:href="Shader__Actor_8h.html" target="_top" xlink:title=" ">
<polygon fill="none" stroke="black" points="0,-179.5 0,-209.5 104,-209.5 104,-179.5 0,-179.5"/>
<text text-anchor="start" x="8" y="-197.5" font-family="Helvetica,sans-Serif" font-size="10.00">../../include/Actors</text>
<text text-anchor="middle" x="52" y="-186.5" font-family="Helvetica,sans-Serif" font-size="10.00">/Shader_Actor.h</text>
</a>
</g>
</g>
<!-- Node1&#45;&gt;Node2 -->
<g id="edge1" class="edge">
<title>Node1&#45;&gt;Node2</title>
<path fill="none" stroke="midnightblue" d="M476.37,-258.61C389.84,-249.9 246.54,-233.76 114.09,-210.08"/>
<polygon fill="midnightblue" stroke="midnightblue" points="114.63,-206.62 104.17,-208.29 113.38,-213.51 114.63,-206.62"/>
</g>
<!-- Node9 -->
<g id="node9" class="node">
<title>Node9</title>
<g id="a_node9"><a xlink:href="Player__Actor_8h.html" target="_top" xlink:title=" ">
<polygon fill="none" stroke="black" points="122,-179.5 122,-209.5 226,-209.5 226,-179.5 122,-179.5"/>
<text text-anchor="start" x="130" y="-197.5" font-family="Helvetica,sans-Serif" font-size="10.00">../../include/Actors</text>
<text text-anchor="middle" x="174" y="-186.5" font-family="Helvetica,sans-Serif" font-size="10.00">/Player_Actor.h</text>
</a>
</g>
</g>
<!-- Node1&#45;&gt;Node9 -->
<g id="edge10" class="edge">
<title>Node1&#45;&gt;Node9</title>
<path fill="none" stroke="midnightblue" d="M476.17,-253.56C413.6,-243.37 323.67,-228.04 236.04,-210.15"/>
<polygon fill="midnightblue" stroke="midnightblue" points="236.7,-206.71 226.2,-208.13 235.29,-213.57 236.7,-206.71"/>
</g>
<!-- Node10 -->
<g id="node10" class="node">
<title>Node10</title>
<g id="a_node10"><a xlink:href="Gun__Actor_8h.html" target="_top" xlink:title=" ">
<polygon fill="none" stroke="black" points="366,-179.5 366,-209.5 470,-209.5 470,-179.5 366,-179.5"/>
<text text-anchor="start" x="374" y="-197.5" font-family="Helvetica,sans-Serif" font-size="10.00">../../include/Actors</text>
<text text-anchor="middle" x="418" y="-186.5" font-family="Helvetica,sans-Serif" font-size="10.00">/Gun_Actor.h</text>
</a>
</g>
</g>
<!-- Node1&#45;&gt;Node10 -->
<g id="edge15" class="edge">
<title>Node1&#45;&gt;Node10</title>
<path fill="none" stroke="midnightblue" d="M516.84,-246.36C497.38,-236.35 473.83,-224.23 454.59,-214.33"/>
<polygon fill="midnightblue" stroke="midnightblue" points="456.03,-211.13 445.54,-209.67 452.83,-217.36 456.03,-211.13"/>
</g>
<!-- Node12 -->
<g id="node12" class="node">
<title>Node12</title>
<g id="a_node12"><a xlink:href="Edge__Actor_8h.html" target="_top" xlink:title=" ">
<polygon fill="none" stroke="black" points="244,-179.5 244,-209.5 348,-209.5 348,-179.5 244,-179.5"/>
<text text-anchor="start" x="252" y="-197.5" font-family="Helvetica,sans-Serif" font-size="10.00">../../include/Actors</text>
<text text-anchor="middle" x="296" y="-186.5" font-family="Helvetica,sans-Serif" font-size="10.00">/Edge_Actor.h</text>
</a>
</g>
</g>
<!-- Node1&#45;&gt;Node12 -->
<g id="edge21" class="edge">
<title>Node1&#45;&gt;Node12</title>
<path fill="none" stroke="midnightblue" d="M483.2,-246.46C443.76,-235.72 395.34,-222.54 357.63,-212.28"/>
<polygon fill="midnightblue" stroke="midnightblue" points="358.36,-208.85 347.79,-209.6 356.52,-215.6 358.36,-208.85"/>
</g>
<!-- Node13 -->
<g id="node13" class="node">
<title>Node13</title>
<g id="a_node13"><a xlink:href="TransformComponent_8h.html" target="_top" xlink:title=" ">
<polygon fill="none" stroke="black" points="488,-179.5 488,-209.5 622,-209.5 622,-179.5 488,-179.5"/>
<text text-anchor="start" x="496" y="-197.5" font-family="Helvetica,sans-Serif" font-size="10.00">../../include/Components</text>
<text text-anchor="middle" x="555" y="-186.5" font-family="Helvetica,sans-Serif" font-size="10.00">/TransformComponent.h</text>
</a>
</g>
</g>
<!-- Node1&#45;&gt;Node13 -->
<g id="edge25" class="edge">
<title>Node1&#45;&gt;Node13</title>
<path fill="none" stroke="midnightblue" d="M555,-246.36C555,-238.23 555,-228.7 555,-220.11"/>
<polygon fill="midnightblue" stroke="midnightblue" points="558.5,-219.89 555,-209.89 551.5,-219.89 558.5,-219.89"/>
</g>
<!-- Node16 -->
<g id="node16" class="node">
<title>Node16</title>
<g id="a_node16"><a xlink:href="ShaderComponent_8h.html" target="_top" xlink:title=" ">
<polygon fill="none" stroke="black" points="887,-112.5 887,-142.5 1021,-142.5 1021,-112.5 887,-112.5"/>
<text text-anchor="start" x="895" y="-130.5" font-family="Helvetica,sans-Serif" font-size="10.00">../../include/Components</text>
<text text-anchor="middle" x="954" y="-119.5" font-family="Helvetica,sans-Serif" font-size="10.00">/ShaderComponent.h</text>
</a>
</g>
</g>
<!-- Node1&#45;&gt;Node16 -->
<g id="edge29" class="edge">
<title>Node1&#45;&gt;Node16</title>
<path fill="none" stroke="midnightblue" d="M611.74,-246.45C689.78,-219.55 829.02,-171.57 903.58,-145.88"/>
<polygon fill="midnightblue" stroke="midnightblue" points="904.91,-149.12 913.22,-142.55 902.63,-142.5 904.91,-149.12"/>
</g>
<!-- Node19 -->
<g id="node19" class="node">
<title>Node19</title>
<g id="a_node19"><a xlink:href="RenderComponent_8h.html" target="_top" xlink:title=" ">
<polygon fill="none" stroke="black" points="1038,-179.5 1038,-209.5 1172,-209.5 1172,-179.5 1038,-179.5"/>
<text text-anchor="start" x="1046" y="-197.5" font-family="Helvetica,sans-Serif" font-size="10.00">../../include/Components</text>
<text text-anchor="middle" x="1105" y="-186.5" font-family="Helvetica,sans-Serif" font-size="10.00">/RenderComponent.h</text>
</a>
</g>
</g>
<!-- Node1&#45;&gt;Node19 -->
<g id="edge34" class="edge">
<title>Node1&#45;&gt;Node19</title>
<path fill="none" stroke="midnightblue" d="M633.51,-255.94C738.49,-242.48 923.46,-218.77 1027.78,-205.4"/>
<polygon fill="midnightblue" stroke="midnightblue" points="1028.46,-208.84 1037.93,-204.1 1027.57,-201.9 1028.46,-208.84"/>
</g>
<!-- Node28 -->
<g id="node28" class="node">
<title>Node28</title>
<g id="a_node28"><a xlink:href="PhysicsComponent_8h.html" target="_top" xlink:title=" ">
<polygon fill="none" stroke="black" points="1297,-179.5 1297,-209.5 1431,-209.5 1431,-179.5 1297,-179.5"/>
<text text-anchor="start" x="1305" y="-197.5" font-family="Helvetica,sans-Serif" font-size="10.00">../../include/Components</text>
<text text-anchor="middle" x="1364" y="-186.5" font-family="Helvetica,sans-Serif" font-size="10.00">/PhysicsComponent.h</text>
</a>
</g>
</g>
<!-- Node1&#45;&gt;Node28 -->
<g id="edge56" class="edge">
<title>Node1&#45;&gt;Node28</title>
<path fill="none" stroke="midnightblue" d="M633.67,-259.14C788.84,-245.62 1132.57,-215.67 1286.65,-202.24"/>
<polygon fill="midnightblue" stroke="midnightblue" points="1287.31,-205.7 1296.97,-201.34 1286.7,-198.72 1287.31,-205.7"/>
</g>
<!-- Node34 -->
<g id="node34" class="node">
<title>Node34</title>
<g id="a_node34"><a xlink:title=" ">
<polygon fill="none" stroke="#bfbfbf" points="1449.5,-185 1449.5,-204 1550.5,-204 1550.5,-185 1449.5,-185"/>
<text text-anchor="middle" x="1500" y="-192" font-family="Helvetica,sans-Serif" font-size="10.00">box2d/b2_math.h</text>
</a>
</g>
</g>
<!-- Node1&#45;&gt;Node34 -->
<g id="edge67" class="edge">
<title>Node1&#45;&gt;Node34</title>
<path fill="none" stroke="midnightblue" d="M633.62,-265.6C788.72,-263.8 1144.69,-254.68 1440,-210 1446.26,-209.05 1452.82,-207.77 1459.22,-206.36"/>
<polygon fill="midnightblue" stroke="midnightblue" points="1460.12,-209.74 1469.06,-204.06 1458.53,-202.93 1460.12,-209.74"/>
</g>
<!-- Node3 -->
<g id="node3" class="node">
<title>Node3</title>
<g id="a_node3"><a xlink:href="Components_2Component_8h.html" target="_top" xlink:title=" ">
<polygon fill="none" stroke="black" points="242.5,-56.5 242.5,-75.5 397.5,-75.5 397.5,-56.5 242.5,-56.5"/>
<text text-anchor="middle" x="320" y="-63.5" font-family="Helvetica,sans-Serif" font-size="10.00">../Components/Component.h</text>
</a>
</g>
</g>
<!-- Node2&#45;&gt;Node3 -->
<g id="edge2" class="edge">
<title>Node2&#45;&gt;Node3</title>
<path fill="none" stroke="midnightblue" d="M70.46,-179.44C94.41,-161.73 137.99,-131.29 179,-112 209.75,-97.53 246.36,-86 274.57,-78.24"/>
<polygon fill="midnightblue" stroke="midnightblue" points="275.81,-81.53 284.56,-75.55 273.99,-74.77 275.81,-81.53"/>
</g>
<!-- Node4 -->
<g id="node4" class="node">
<title>Node4</title>
<g id="a_node4"><a xlink:title=" ">
<polygon fill="none" stroke="#bfbfbf" points="397,-0.5 397,-19.5 455,-19.5 455,-0.5 397,-0.5"/>
<text text-anchor="middle" x="426" y="-7.5" font-family="Helvetica,sans-Serif" font-size="10.00">memory</text>
</a>
</g>
</g>
<!-- Node2&#45;&gt;Node4 -->
<g id="edge9" class="edge">
<title>Node2&#45;&gt;Node4</title>
<path fill="none" stroke="midnightblue" d="M41.7,-179.44C23.01,-152.12 -11.72,-91.43 20,-56 44.22,-28.94 289.58,-16.38 386.71,-12.43"/>
<polygon fill="midnightblue" stroke="midnightblue" points="387.14,-15.92 396.99,-12.02 386.86,-8.92 387.14,-15.92"/>
</g>
<!-- Node5 -->
<g id="node5" class="node">
<title>Node5</title>
<g id="a_node5"><a xlink:href="Actor_8h.html" target="_top" xlink:title=" ">
<polygon fill="none" stroke="black" points="188,-118 188,-137 238,-137 238,-118 188,-118"/>
<text text-anchor="middle" x="213" y="-125" font-family="Helvetica,sans-Serif" font-size="10.00">Actor.h</text>
</a>
</g>
</g>
<!-- Node2&#45;&gt;Node5 -->
<g id="edge4" class="edge">
<title>Node2&#45;&gt;Node5</title>
<path fill="none" stroke="midnightblue" d="M86.93,-179.4C115.43,-167.89 155.29,-151.8 182.52,-140.81"/>
<polygon fill="midnightblue" stroke="midnightblue" points="183.97,-144 191.93,-137.01 181.35,-137.51 183.97,-144"/>
</g>
<!-- Node8 -->
<g id="node8" class="node">
<title>Node8</title>
<g id="a_node8"><a xlink:title=" ">
<polygon fill="none" stroke="#bfbfbf" points="43.5,-56.5 43.5,-75.5 120.5,-75.5 120.5,-56.5 43.5,-56.5"/>
<text text-anchor="middle" x="82" y="-63.5" font-family="Helvetica,sans-Serif" font-size="10.00">glm/fwd.hpp</text>
</a>
</g>
</g>
<!-- Node2&#45;&gt;Node8 -->
<g id="edge8" class="edge">
<title>Node2&#45;&gt;Node8</title>
<path fill="none" stroke="midnightblue" d="M43.17,-179.45C33.91,-162.81 21.98,-134.49 32,-112 37.57,-99.5 48.52,-89.01 58.75,-81.32"/>
<polygon fill="midnightblue" stroke="midnightblue" points="60.85,-84.12 67.05,-75.53 56.84,-78.38 60.85,-84.12"/>
</g>
<!-- Node3&#45;&gt;Node4 -->
<g id="edge3" class="edge">
<title>Node3&#45;&gt;Node4</title>
<path fill="none" stroke="midnightblue" d="M337.03,-56.32C354.03,-47.66 380.38,-34.24 399.99,-24.25"/>
<polygon fill="midnightblue" stroke="midnightblue" points="401.69,-27.31 409.01,-19.65 398.51,-21.08 401.69,-27.31"/>
</g>
<!-- Node5&#45;&gt;Node3 -->
<g id="edge7" class="edge">
<title>Node5&#45;&gt;Node3</title>
<path fill="none" stroke="midnightblue" d="M228.33,-117.98C245.97,-108.17 275.16,-91.93 295.86,-80.42"/>
<polygon fill="midnightblue" stroke="midnightblue" points="297.66,-83.43 304.7,-75.51 294.26,-77.31 297.66,-83.43"/>
</g>
<!-- Node6 -->
<g id="node6" class="node">
<title>Node6</title>
<g id="a_node6"><a xlink:title=" ">
<polygon fill="none" stroke="#bfbfbf" points="138.5,-56.5 138.5,-75.5 185.5,-75.5 185.5,-56.5 138.5,-56.5"/>
<text text-anchor="middle" x="162" y="-63.5" font-family="Helvetica,sans-Serif" font-size="10.00">vector</text>
</a>
</g>
</g>
<!-- Node5&#45;&gt;Node6 -->
<g id="edge5" class="edge">
<title>Node5&#45;&gt;Node6</title>
<path fill="none" stroke="midnightblue" d="M205.69,-117.98C197.97,-108.96 185.59,-94.52 175.98,-83.31"/>
<polygon fill="midnightblue" stroke="midnightblue" points="178.46,-80.82 169.29,-75.51 173.14,-85.38 178.46,-80.82"/>
</g>
<!-- Node7 -->
<g id="node7" class="node">
<title>Node7</title>
<g id="a_node7"><a xlink:title=" ">
<polygon fill="none" stroke="#bfbfbf" points="1124,-0.5 1124,-19.5 1184,-19.5 1184,-0.5 1124,-0.5"/>
<text text-anchor="middle" x="1154" y="-7.5" font-family="Helvetica,sans-Serif" font-size="10.00">iostream</text>
</a>
</g>
</g>
<!-- Node5&#45;&gt;Node7 -->
<g id="edge6" class="edge">
<title>Node5&#45;&gt;Node7</title>
<path fill="none" stroke="midnightblue" d="M212.66,-117.84C212.59,-102.56 214.91,-70.97 234,-56 269.07,-28.5 940.88,-14.77 1113.73,-11.68"/>
<polygon fill="midnightblue" stroke="midnightblue" points="1113.98,-15.18 1123.92,-11.5 1113.86,-8.18 1113.98,-15.18"/>
</g>
<!-- Node9&#45;&gt;Node3 -->
<g id="edge11" class="edge">
<title>Node9&#45;&gt;Node3</title>
<path fill="none" stroke="midnightblue" d="M196.89,-179.36C211.73,-169.79 231.16,-156.49 247,-143 269.1,-124.19 291.84,-99.51 305.94,-83.46"/>
<polygon fill="midnightblue" stroke="midnightblue" points="308.92,-85.37 312.83,-75.52 303.63,-80.78 308.92,-85.37"/>
</g>
<!-- Node9&#45;&gt;Node4 -->
<g id="edge14" class="edge">
<title>Node9&#45;&gt;Node4</title>
<path fill="none" stroke="midnightblue" d="M121.95,-179.67C100.78,-171.85 77.47,-160.1 61,-143 32.91,-113.84 7.05,-86.22 34,-56 57.24,-29.94 292.04,-16.85 386.73,-12.6"/>
<polygon fill="midnightblue" stroke="midnightblue" points="386.93,-16.09 396.77,-12.16 386.62,-9.1 386.93,-16.09"/>
</g>
<!-- Node9&#45;&gt;Node5 -->
<g id="edge12" class="edge">
<title>Node9&#45;&gt;Node5</title>
<path fill="none" stroke="midnightblue" d="M182.46,-179.4C188.36,-169.56 196.27,-156.38 202.56,-145.89"/>
<polygon fill="midnightblue" stroke="midnightblue" points="205.64,-147.57 207.78,-137.19 199.64,-143.97 205.64,-147.57"/>
</g>
<!-- Node9&#45;&gt;Node8 -->
<g id="edge13" class="edge">
<title>Node9&#45;&gt;Node8</title>
<path fill="none" stroke="midnightblue" d="M121.99,-181.01C102.19,-173.45 81.61,-161.54 70,-143 59.07,-125.54 65.66,-101.54 72.63,-85.21"/>
<polygon fill="midnightblue" stroke="midnightblue" points="76,-86.27 77.09,-75.73 69.67,-83.29 76,-86.27"/>
</g>
<!-- Node10&#45;&gt;Node3 -->
<g id="edge16" class="edge">
<title>Node10&#45;&gt;Node3</title>
<path fill="none" stroke="midnightblue" d="M401.46,-179.44C390.67,-169.81 376.66,-156.39 366,-143 351.35,-124.59 337.82,-101.13 329.28,-85.17"/>
<polygon fill="midnightblue" stroke="midnightblue" points="332.17,-83.14 324.43,-75.9 325.97,-86.39 332.17,-83.14"/>
</g>
<!-- Node10&#45;&gt;Node4 -->
<g id="edge19" class="edge">
<title>Node10&#45;&gt;Node4</title>
<path fill="none" stroke="midnightblue" d="M418.61,-179.48C420.03,-147.1 423.54,-67.04 425.16,-30.16"/>
<polygon fill="midnightblue" stroke="midnightblue" points="428.67,-29.96 425.61,-19.82 421.68,-29.66 428.67,-29.96"/>
</g>
<!-- Node10&#45;&gt;Node5 -->
<g id="edge17" class="edge">
<title>Node10&#45;&gt;Node5</title>
<path fill="none" stroke="midnightblue" d="M373.77,-179.48C336.06,-167.52 282.6,-150.57 247.86,-139.55"/>
<polygon fill="midnightblue" stroke="midnightblue" points="248.74,-136.16 238.15,-136.47 246.62,-142.83 248.74,-136.16"/>
</g>
<!-- Node10&#45;&gt;Node8 -->
<g id="edge18" class="edge">
<title>Node10&#45;&gt;Node8</title>
<path fill="none" stroke="midnightblue" d="M365.78,-180.97C362.81,-180.29 359.87,-179.63 357,-179 278.17,-161.66 251.24,-178.99 179,-143 160.4,-133.73 160.21,-125.01 144,-112 130.65,-101.28 115.04,-89.96 102.83,-81.36"/>
<polygon fill="midnightblue" stroke="midnightblue" points="104.82,-78.48 94.62,-75.62 100.81,-84.22 104.82,-78.48"/>
</g>
<!-- Node11 -->
<g id="node11" class="node">
<title>Node11</title>
<g id="a_node11"><a xlink:title=" ">
<polygon fill="none" stroke="#bfbfbf" points="484.5,-118 484.5,-137 573.5,-137 573.5,-118 484.5,-118"/>
<text text-anchor="middle" x="529" y="-125" font-family="Helvetica,sans-Serif" font-size="10.00">box2d/box2d.h</text>
</a>
</g>
</g>
<!-- Node10&#45;&gt;Node11 -->
<g id="edge20" class="edge">
<title>Node10&#45;&gt;Node11</title>
<path fill="none" stroke="midnightblue" d="M442.09,-179.4C460.96,-168.34 487.06,-153.06 505.72,-142.13"/>
<polygon fill="midnightblue" stroke="midnightblue" points="507.61,-145.08 514.47,-137.01 504.07,-139.04 507.61,-145.08"/>
</g>
<!-- Node12&#45;&gt;Node3 -->
<g id="edge22" class="edge">
<title>Node12&#45;&gt;Node3</title>
<path fill="none" stroke="midnightblue" d="M298.66,-179.48C303,-156.62 311.6,-111.3 316.45,-85.71"/>
<polygon fill="midnightblue" stroke="midnightblue" points="319.91,-86.27 318.33,-75.79 313.03,-84.96 319.91,-86.27"/>
</g>
<!-- Node12&#45;&gt;Node5 -->
<g id="edge23" class="edge">
<title>Node12&#45;&gt;Node5</title>
<path fill="none" stroke="midnightblue" d="M277.99,-179.4C264.41,-168.76 245.82,-154.2 232,-143.38"/>
<polygon fill="midnightblue" stroke="midnightblue" points="234.13,-140.6 224.1,-137.19 229.82,-146.12 234.13,-140.6"/>
</g>
<!-- Node12&#45;&gt;Node8 -->
<g id="edge24" class="edge">
<title>Node12&#45;&gt;Node8</title>
<path fill="none" stroke="midnightblue" d="M244.76,-179.46C208.09,-168.82 162.41,-154.17 146,-143 123.02,-127.35 103.61,-101.29 92.38,-84.12"/>
<polygon fill="midnightblue" stroke="midnightblue" points="95.31,-82.21 87.02,-75.62 89.4,-85.95 95.31,-82.21"/>
</g>
<!-- Node13&#45;&gt;Node3 -->
<g id="edge26" class="edge">
<title>Node13&#45;&gt;Node3</title>
<path fill="none" stroke="midnightblue" d="M520.3,-179.45C497.64,-169.92 467.61,-156.62 442,-143 405.43,-123.56 365,-97.38 341.09,-81.37"/>
<polygon fill="midnightblue" stroke="midnightblue" points="342.73,-78.26 332.48,-75.58 338.82,-84.07 342.73,-78.26"/>
</g>
<!-- Node14 -->
<g id="node14" class="node">
<title>Node14</title>
<g id="a_node14"><a xlink:title=" ">
<polygon fill="none" stroke="#bfbfbf" points="972,-56.5 972,-75.5 1050,-75.5 1050,-56.5 972,-56.5"/>
<text text-anchor="middle" x="1011" y="-63.5" font-family="Helvetica,sans-Serif" font-size="10.00">glm/glm.hpp</text>
</a>
</g>
</g>
<!-- Node13&#45;&gt;Node14 -->
<g id="edge27" class="edge">
<title>Node13&#45;&gt;Node14</title>
<path fill="none" stroke="midnightblue" d="M524.62,-179.42C493.86,-163.33 453.75,-136.11 476,-112 509.95,-75.22 875.16,-80.6 925,-76 936.79,-74.91 949.48,-73.64 961.4,-72.4"/>
<polygon fill="midnightblue" stroke="midnightblue" points="962.05,-75.85 971.63,-71.32 961.32,-68.89 962.05,-75.85"/>
</g>
<!-- Node15 -->
<g id="node15" class="node">
<title>Node15</title>
<g id="a_node15"><a xlink:title=" ">
<polygon fill="none" stroke="#bfbfbf" points="591.5,-118 591.5,-137 754.5,-137 754.5,-118 591.5,-118"/>
<text text-anchor="middle" x="673" y="-125" font-family="Helvetica,sans-Serif" font-size="10.00">glm/gtc/matrix_transform.hpp</text>
</a>
</g>
</g>
<!-- Node13&#45;&gt;Node15 -->
<g id="edge28" class="edge">
<title>Node13&#45;&gt;Node15</title>
<path fill="none" stroke="midnightblue" d="M580.6,-179.4C600.85,-168.24 628.92,-152.78 648.79,-141.83"/>
<polygon fill="midnightblue" stroke="midnightblue" points="650.49,-144.9 657.56,-137.01 647.11,-138.77 650.49,-144.9"/>
</g>
<!-- Node16&#45;&gt;Node3 -->
<g id="edge30" class="edge">
<title>Node16&#45;&gt;Node3</title>
<path fill="none" stroke="midnightblue" d="M886.71,-117.89C869.84,-115.85 851.77,-113.75 835,-112 685.12,-96.32 510.3,-81.85 407.73,-73.75"/>
<polygon fill="midnightblue" stroke="midnightblue" points="407.97,-70.26 397.73,-72.96 407.42,-77.24 407.97,-70.26"/>
</g>
<!-- Node16&#45;&gt;Node14 -->
<g id="edge32" class="edge">
<title>Node16&#45;&gt;Node14</title>
<path fill="none" stroke="midnightblue" d="M967.51,-112.4C975.96,-103.58 986.88,-92.18 995.66,-83.02"/>
<polygon fill="midnightblue" stroke="midnightblue" points="998.32,-85.3 1002.71,-75.66 993.26,-80.46 998.32,-85.3"/>
</g>
<!-- Node17 -->
<g id="node17" class="node">
<title>Node17</title>
<g id="a_node17"><a xlink:title=" ">
<polygon fill="none" stroke="#bfbfbf" points="1418.5,-0.5 1418.5,-19.5 1489.5,-19.5 1489.5,-0.5 1418.5,-0.5"/>
<text text-anchor="middle" x="1454" y="-7.5" font-family="Helvetica,sans-Serif" font-size="10.00">glad/glad.h</text>
</a>
</g>
</g>
<!-- Node16&#45;&gt;Node17 -->
<g id="edge31" class="edge">
<title>Node16&#45;&gt;Node17</title>
<path fill="none" stroke="midnightblue" d="M951.17,-112.34C948.87,-96.26 948.08,-70.39 963,-56 994.66,-25.45 1292.11,-14.95 1408.05,-11.99"/>
<polygon fill="midnightblue" stroke="midnightblue" points="1408.45,-15.49 1418.37,-11.74 1408.28,-8.49 1408.45,-15.49"/>
</g>
<!-- Node18 -->
<g id="node18" class="node">
<title>Node18</title>
<g id="a_node18"><a xlink:title=" ">
<polygon fill="none" stroke="#bfbfbf" points="798.5,-56.5 798.5,-75.5 915.5,-75.5 915.5,-56.5 798.5,-56.5"/>
<text text-anchor="middle" x="857" y="-63.5" font-family="Helvetica,sans-Serif" font-size="10.00">glm/gtc/type_ptr.hpp</text>
</a>
</g>
</g>
<!-- Node16&#45;&gt;Node18 -->
<g id="edge33" class="edge">
<title>Node16&#45;&gt;Node18</title>
<path fill="none" stroke="midnightblue" d="M931.01,-112.4C915.61,-102.95 895.41,-90.56 880,-81.11"/>
<polygon fill="midnightblue" stroke="midnightblue" points="881.47,-77.9 871.11,-75.66 877.81,-83.87 881.47,-77.9"/>
</g>
<!-- Node19&#45;&gt;Node3 -->
<g id="edge41" class="edge">
<title>Node19&#45;&gt;Node3</title>
<path fill="none" stroke="midnightblue" d="M1037.78,-190.8C975.75,-186.32 882.15,-174.44 807,-143 785.27,-133.91 786.03,-120.36 764,-112 700.96,-88.07 518.37,-75.88 407.96,-70.52"/>
<polygon fill="midnightblue" stroke="midnightblue" points="407.99,-67.02 397.83,-70.04 407.66,-74.01 407.99,-67.02"/>
</g>
<!-- Node19&#45;&gt;Node4 -->
<g id="edge55" class="edge">
<title>Node19&#45;&gt;Node4</title>
<path fill="none" stroke="midnightblue" d="M1037.74,-181.38C992.19,-172.48 930.9,-159.16 878,-143 841.93,-131.98 834.81,-123.84 799,-112 679.03,-72.35 533.71,-36.38 465.26,-20.13"/>
<polygon fill="midnightblue" stroke="midnightblue" points="465.88,-16.68 455.34,-17.79 464.27,-23.49 465.88,-16.68"/>
</g>
<!-- Node19&#45;&gt;Node14 -->
<g id="edge38" class="edge">
<title>Node19&#45;&gt;Node14</title>
<path fill="none" stroke="midnightblue" d="M1104.96,-179.46C1104.23,-162.04 1100.72,-132.2 1086,-112 1075.66,-97.81 1059.35,-87.25 1044.58,-79.95"/>
<polygon fill="midnightblue" stroke="midnightblue" points="1045.72,-76.62 1035.17,-75.61 1042.79,-82.97 1045.72,-76.62"/>
</g>
<!-- Node19&#45;&gt;Node15 -->
<g id="edge39" class="edge">
<title>Node19&#45;&gt;Node15</title>
<path fill="none" stroke="midnightblue" d="M1037.74,-183.41C969.91,-173.22 862.18,-157.04 769,-143 759.47,-141.56 749.42,-140.05 739.54,-138.56"/>
<polygon fill="midnightblue" stroke="midnightblue" points="739.76,-135.05 729.35,-137.02 738.71,-141.97 739.76,-135.05"/>
</g>
<!-- Node19&#45;&gt;Node17 -->
<g id="edge37" class="edge">
<title>Node19&#45;&gt;Node17</title>
<path fill="none" stroke="midnightblue" d="M1172.06,-190.74C1233.11,-186.21 1324.65,-174.3 1398,-143 1419.34,-133.9 1419.23,-122.33 1440,-112 1490.62,-86.83 1528.15,-121.28 1562,-76 1582.51,-48.57 1537.57,-30.38 1499.55,-20.39"/>
<polygon fill="midnightblue" stroke="midnightblue" points="1500.12,-16.93 1489.57,-17.91 1498.43,-23.72 1500.12,-16.93"/>
</g>
<!-- Node20 -->
<g id="node20" class="node">
<title>Node20</title>
<g id="a_node20"><a xlink:title=" ">
<polygon fill="none" stroke="#bfbfbf" points="1503,-56.5 1503,-75.5 1553,-75.5 1553,-56.5 1503,-56.5"/>
<text text-anchor="middle" x="1528" y="-63.5" font-family="Helvetica,sans-Serif" font-size="10.00">cstdint</text>
</a>
</g>
</g>
<!-- Node19&#45;&gt;Node20 -->
<g id="edge35" class="edge">
<title>Node19&#45;&gt;Node20</title>
<path fill="none" stroke="midnightblue" d="M1172.08,-187.63C1224.99,-181.28 1299.82,-168.43 1361,-143 1383.77,-133.54 1385.07,-123.26 1407,-112 1434.86,-97.69 1468.36,-85.59 1493.04,-77.56"/>
<polygon fill="midnightblue" stroke="midnightblue" points="1494.24,-80.85 1502.7,-74.47 1492.11,-74.18 1494.24,-80.85"/>
</g>
<!-- Node21 -->
<g id="node21" class="node">
<title>Node21</title>
<g id="a_node21"><a xlink:title=" ">
<polygon fill="none" stroke="#bfbfbf" points="1449,-118 1449,-137 1495,-137 1495,-118 1449,-118"/>
<text text-anchor="middle" x="1472" y="-125" font-family="Helvetica,sans-Serif" font-size="10.00">cstdio</text>
</a>
</g>
</g>
<!-- Node19&#45;&gt;Node21 -->
<g id="edge36" class="edge">
<title>Node19&#45;&gt;Node21</title>
<path fill="none" stroke="midnightblue" d="M1172.27,-187.62C1239.59,-180.7 1345.73,-167 1435,-143 1437.66,-142.29 1440.38,-141.44 1443.09,-140.53"/>
<polygon fill="midnightblue" stroke="midnightblue" points="1444.51,-143.74 1452.69,-137 1442.09,-137.17 1444.51,-143.74"/>
</g>
<!-- Node22 -->
<g id="node22" class="node">
<title>Node22</title>
<g id="a_node22"><a xlink:title=" ">
<polygon fill="none" stroke="#bfbfbf" points="1039,-118 1039,-137 1077,-137 1077,-118 1039,-118"/>
<text text-anchor="middle" x="1058" y="-125" font-family="Helvetica,sans-Serif" font-size="10.00">map</text>
</a>
</g>
</g>
<!-- Node19&#45;&gt;Node22 -->
<g id="edge40" class="edge">
<title>Node19&#45;&gt;Node22</title>
<path fill="none" stroke="midnightblue" d="M1094.8,-179.4C1087.62,-169.46 1077.96,-156.11 1070.34,-145.57"/>
<polygon fill="midnightblue" stroke="midnightblue" points="1072.98,-143.25 1064.29,-137.19 1067.31,-147.35 1072.98,-143.25"/>
</g>
<!-- Node23 -->
<g id="node23" class="node">
<title>Node23</title>
<g id="a_node23"><a xlink:href="sprite_8h.html" target="_top" xlink:title=" ">
<polygon fill="none" stroke="black" points="1209,-118 1209,-137 1317,-137 1317,-118 1209,-118"/>
<text text-anchor="middle" x="1263" y="-125" font-family="Helvetica,sans-Serif" font-size="10.00">../Graphics/sprite.h</text>
</a>
</g>
</g>
<!-- Node19&#45;&gt;Node23 -->
<g id="edge42" class="edge">
<title>Node19&#45;&gt;Node23</title>
<path fill="none" stroke="midnightblue" d="M1139.28,-179.4C1167.13,-167.94 1206.03,-151.94 1232.73,-140.95"/>
<polygon fill="midnightblue" stroke="midnightblue" points="1234.41,-144.05 1242.32,-137.01 1231.74,-137.57 1234.41,-144.05"/>
</g>
<!-- Node25 -->
<g id="node25" class="node">
<title>Node25</title>
<g id="a_node25"><a xlink:href="texture_8h.html" target="_top" xlink:title=" ">
<polygon fill="none" stroke="black" points="1423.5,-56.5 1423.5,-75.5 1484.5,-75.5 1484.5,-56.5 1423.5,-56.5"/>
<text text-anchor="middle" x="1454" y="-63.5" font-family="Helvetica,sans-Serif" font-size="10.00">texture.h</text>
</a>
</g>
</g>
<!-- Node19&#45;&gt;Node25 -->
<g id="edge54" class="edge">
<title>Node19&#45;&gt;Node25</title>
<path fill="none" stroke="midnightblue" d="M1172.02,-185.31C1217.03,-178.12 1276.87,-165.21 1326,-143 1347.47,-133.29 1348.99,-124.43 1369,-112 1387.73,-100.36 1409.76,-88.76 1426.7,-80.25"/>
<polygon fill="midnightblue" stroke="midnightblue" points="1428.62,-83.2 1436.02,-75.62 1425.51,-76.93 1428.62,-83.2"/>
</g>
<!-- Node23&#45;&gt;Node4 -->
<g id="edge51" class="edge">
<title>Node23&#45;&gt;Node4</title>
<path fill="none" stroke="midnightblue" d="M1247.08,-117.87C1217.52,-102.32 1151.73,-69.94 1092,-56 971.65,-27.91 589.55,-15.39 465.39,-11.99"/>
<polygon fill="midnightblue" stroke="midnightblue" points="465.29,-8.49 455.2,-11.72 465.1,-15.49 465.29,-8.49"/>
</g>
<!-- Node23&#45;&gt;Node7 -->
<g id="edge47" class="edge">
<title>Node23&#45;&gt;Node7</title>
<path fill="none" stroke="midnightblue" d="M1236.45,-117.88C1216.27,-110.02 1189.28,-96.47 1173,-76 1162.37,-62.64 1157.69,-43.53 1155.63,-29.48"/>
<polygon fill="midnightblue" stroke="midnightblue" points="1159.1,-29.04 1154.47,-19.51 1152.14,-29.85 1159.1,-29.04"/>
</g>
<!-- Node23&#45;&gt;Node8 -->
<g id="edge45" class="edge">
<title>Node23&#45;&gt;Node8</title>
<path fill="none" stroke="midnightblue" d="M1208.82,-121.44C1173.8,-118.32 1127.24,-114.46 1086,-112 664.88,-86.83 554.27,-122.74 130.76,-75.89"/>
<polygon fill="midnightblue" stroke="midnightblue" points="131.03,-72.39 120.7,-74.76 130.25,-79.35 131.03,-72.39"/>
</g>
<!-- Node23&#45;&gt;Node14 -->
<g id="edge46" class="edge">
<title>Node23&#45;&gt;Node14</title>
<path fill="none" stroke="midnightblue" d="M1226.89,-117.98C1182.17,-107.42 1105.92,-89.41 1057.03,-77.87"/>
<polygon fill="midnightblue" stroke="midnightblue" points="1057.58,-74.4 1047.04,-75.51 1055.97,-81.21 1057.58,-74.4"/>
</g>
<!-- Node23&#45;&gt;Node20 -->
<g id="edge43" class="edge">
<title>Node23&#45;&gt;Node20</title>
<path fill="none" stroke="midnightblue" d="M1304.86,-117.92C1349.15,-108.72 1421.31,-93.36 1492.71,-76.23"/>
<polygon fill="midnightblue" stroke="midnightblue" points="1493.88,-79.55 1502.78,-73.81 1492.24,-72.75 1493.88,-79.55"/>
</g>
<!-- Node24 -->
<g id="node24" class="node">
<title>Node24</title>
<g id="a_node24"><a xlink:title=" ">
<polygon fill="none" stroke="#bfbfbf" points="1182,-56.5 1182,-75.5 1232,-75.5 1232,-56.5 1182,-56.5"/>
<text text-anchor="middle" x="1207" y="-63.5" font-family="Helvetica,sans-Serif" font-size="10.00">stdio.h</text>
</a>
</g>
</g>
<!-- Node23&#45;&gt;Node24 -->
<g id="edge44" class="edge">
<title>Node23&#45;&gt;Node24</title>
<path fill="none" stroke="midnightblue" d="M1254.98,-117.98C1246.41,-108.87 1232.64,-94.24 1222.04,-82.98"/>
<polygon fill="midnightblue" stroke="midnightblue" points="1224.41,-80.39 1215.01,-75.51 1219.31,-85.19 1224.41,-80.39"/>
</g>
<!-- Node23&#45;&gt;Node25 -->
<g id="edge48" class="edge">
<title>Node23&#45;&gt;Node25</title>
<path fill="none" stroke="midnightblue" d="M1290.37,-117.98C1323.55,-107.64 1379.65,-90.16 1416.76,-78.6"/>
<polygon fill="midnightblue" stroke="midnightblue" points="1418.18,-81.82 1426.69,-75.51 1416.1,-75.14 1418.18,-81.82"/>
</g>
<!-- Node26 -->
<g id="node26" class="node">
<title>Node26</title>
<g id="a_node26"><a xlink:title=" ">
<polygon fill="none" stroke="#bfbfbf" points="1250,-56.5 1250,-75.5 1294,-75.5 1294,-56.5 1250,-56.5"/>
<text text-anchor="middle" x="1272" y="-63.5" font-family="Helvetica,sans-Serif" font-size="10.00">string</text>
</a>
</g>
</g>
<!-- Node23&#45;&gt;Node26 -->
<g id="edge52" class="edge">
<title>Node23&#45;&gt;Node26</title>
<path fill="none" stroke="midnightblue" d="M1264.29,-117.98C1265.56,-109.58 1267.54,-96.48 1269.18,-85.66"/>
<polygon fill="midnightblue" stroke="midnightblue" points="1272.68,-85.92 1270.71,-75.51 1265.76,-84.87 1272.68,-85.92"/>
</g>
<!-- Node27 -->
<g id="node27" class="node">
<title>Node27</title>
<g id="a_node27"><a xlink:title=" ">
<polygon fill="none" stroke="#bfbfbf" points="1312.5,-56.5 1312.5,-75.5 1405.5,-75.5 1405.5,-56.5 1312.5,-56.5"/>
<text text-anchor="middle" x="1359" y="-63.5" font-family="Helvetica,sans-Serif" font-size="10.00">unordered_map</text>
</a>
</g>
</g>
<!-- Node23&#45;&gt;Node27 -->
<g id="edge53" class="edge">
<title>Node23&#45;&gt;Node27</title>
<path fill="none" stroke="midnightblue" d="M1276.75,-117.98C1292.37,-108.3 1318.06,-92.37 1336.58,-80.89"/>
<polygon fill="midnightblue" stroke="midnightblue" points="1338.62,-83.75 1345.27,-75.51 1334.93,-77.8 1338.62,-83.75"/>
</g>
<!-- Node25&#45;&gt;Node7 -->
<g id="edge49" class="edge">
<title>Node25&#45;&gt;Node7</title>
<path fill="none" stroke="midnightblue" d="M1423.38,-57.76C1420.55,-57.15 1417.72,-56.55 1415,-56 1337.2,-40.33 1245.66,-25.33 1194.27,-17.23"/>
<polygon fill="midnightblue" stroke="midnightblue" points="1194.67,-13.74 1184.24,-15.65 1193.58,-20.66 1194.67,-13.74"/>
</g>
<!-- Node25&#45;&gt;Node17 -->
<g id="edge50" class="edge">
<title>Node25&#45;&gt;Node17</title>
<path fill="none" stroke="midnightblue" d="M1454,-56.08C1454,-49.01 1454,-38.86 1454,-29.99"/>
<polygon fill="midnightblue" stroke="midnightblue" points="1457.5,-29.75 1454,-19.75 1450.5,-29.75 1457.5,-29.75"/>
</g>
<!-- Node28&#45;&gt;Node3 -->
<g id="edge64" class="edge">
<title>Node28&#45;&gt;Node3</title>
<path fill="none" stroke="midnightblue" d="M1296.93,-187.55C1173.14,-176.41 917.72,-152.67 878,-143 841.35,-134.08 835.69,-120.74 799,-112 665,-80.09 504.87,-70.62 407.88,-67.92"/>
<polygon fill="midnightblue" stroke="midnightblue" points="407.91,-64.42 397.82,-67.65 407.73,-71.41 407.91,-64.42"/>
</g>
<!-- Node28&#45;&gt;Node4 -->
<g id="edge66" class="edge">
<title>Node28&#45;&gt;Node4</title>
<path fill="none" stroke="midnightblue" d="M1305.75,-179.47C1273.79,-170.82 1233.9,-158.42 1200,-143 1176.2,-132.17 1172.25,-125.74 1150,-112 1148.74,-111.22 1060.41,-56.45 1059,-56 947.65,-20.17 585.52,-12.82 465.24,-11.35"/>
<polygon fill="midnightblue" stroke="midnightblue" points="465.06,-7.85 455.02,-11.24 464.98,-14.85 465.06,-7.85"/>
</g>
<!-- Node28&#45;&gt;Node11 -->
<g id="edge65" class="edge">
<title>Node28&#45;&gt;Node11</title>
<path fill="none" stroke="midnightblue" d="M1296.67,-187.86C1262.1,-185.04 1219.31,-181.67 1181,-179 915.39,-160.48 845.81,-185.74 583,-143 577.55,-142.11 571.86,-140.91 566.3,-139.56"/>
<polygon fill="midnightblue" stroke="midnightblue" points="567.07,-136.15 556.51,-137.04 565.32,-142.93 567.07,-136.15"/>
</g>
<!-- Node28&#45;&gt;Node14 -->
<g id="edge63" class="edge">
<title>Node28&#45;&gt;Node14</title>
<path fill="none" stroke="midnightblue" d="M1296.76,-180.11C1258.15,-171.47 1209.12,-158.88 1167,-143 1138.54,-132.27 1133.3,-125.4 1106,-112 1083.54,-100.98 1057.89,-88.85 1038.91,-79.97"/>
<polygon fill="midnightblue" stroke="midnightblue" points="1040.18,-76.7 1029.64,-75.64 1037.22,-83.05 1040.18,-76.7"/>
</g>
<!-- Node28&#45;&gt;Node21 -->
<g id="edge62" class="edge">
<title>Node28&#45;&gt;Node21</title>
<path fill="none" stroke="midnightblue" d="M1387.43,-179.4C1405.71,-168.39 1430.96,-153.2 1449.1,-142.28"/>
<polygon fill="midnightblue" stroke="midnightblue" points="1451.1,-145.16 1457.87,-137.01 1447.49,-139.16 1451.1,-145.16"/>
</g>
<!-- Node29 -->
<g id="node29" class="node">
<title>Node29</title>
<g id="a_node29"><a xlink:title=" ">
<polygon fill="none" stroke="#bfbfbf" points="1512.5,-118 1512.5,-137 1661.5,-137 1661.5,-118 1512.5,-118"/>
<text text-anchor="middle" x="1587" y="-125" font-family="Helvetica,sans-Serif" font-size="10.00">box2d/b2_polygon_shape.h</text>
</a>
</g>
</g>
<!-- Node28&#45;&gt;Node29 -->
<g id="edge57" class="edge">
<title>Node28&#45;&gt;Node29</title>
<path fill="none" stroke="midnightblue" d="M1412.11,-179.48C1452.78,-167.62 1510.29,-150.86 1548.1,-139.84"/>
<polygon fill="midnightblue" stroke="midnightblue" points="1549.12,-143.19 1557.74,-137.03 1547.16,-136.47 1549.12,-143.19"/>
</g>
<!-- Node30 -->
<g id="node30" class="node">
<title>Node30</title>
<g id="a_node30"><a xlink:title=" ">
<polygon fill="none" stroke="#bfbfbf" points="1679.5,-118 1679.5,-137 1794.5,-137 1794.5,-118 1679.5,-118"/>
<text text-anchor="middle" x="1737" y="-125" font-family="Helvetica,sans-Serif" font-size="10.00">box2d/b2_settings.h</text>
</a>
</g>
</g>
<!-- Node28&#45;&gt;Node30 -->
<g id="edge58" class="edge">
<title>Node28&#45;&gt;Node30</title>
<path fill="none" stroke="midnightblue" d="M1431.17,-180.72C1434.49,-180.13 1437.78,-179.55 1441,-179 1542.96,-161.42 1569.31,-162.11 1671,-143 1677.2,-141.83 1683.72,-140.52 1690.13,-139.17"/>
<polygon fill="midnightblue" stroke="midnightblue" points="1691.04,-142.55 1700.08,-137.03 1689.57,-135.71 1691.04,-142.55"/>
</g>
<!-- Node31 -->
<g id="node31" class="node">
<title>Node31</title>
<g id="a_node31"><a xlink:title=" ">
<polygon fill="none" stroke="#bfbfbf" points="1812.5,-118 1812.5,-137 1915.5,-137 1915.5,-118 1812.5,-118"/>
<text text-anchor="middle" x="1864" y="-125" font-family="Helvetica,sans-Serif" font-size="10.00">box2d/b2_types.h</text>
</a>
</g>
</g>
<!-- Node28&#45;&gt;Node31 -->
<g id="edge59" class="edge">
<title>Node28&#45;&gt;Node31</title>
<path fill="none" stroke="midnightblue" d="M1431.13,-180.5C1434.47,-179.97 1437.77,-179.46 1441,-179 1601.48,-155.98 1644.16,-170.11 1804,-143 1809.96,-141.99 1816.2,-140.72 1822.31,-139.36"/>
<polygon fill="midnightblue" stroke="midnightblue" points="1823.47,-142.68 1832.41,-137 1821.87,-135.87 1823.47,-142.68"/>
</g>
<!-- Node32 -->
<g id="node32" class="node">
<title>Node32</title>
<g id="a_node32"><a xlink:title=" ">
<polygon fill="none" stroke="#bfbfbf" points="1933.5,-118 1933.5,-137 2036.5,-137 2036.5,-118 1933.5,-118"/>
<text text-anchor="middle" x="1985" y="-125" font-family="Helvetica,sans-Serif" font-size="10.00">box2d/b2_world.h</text>
</a>
</g>
</g>
<!-- Node28&#45;&gt;Node32 -->
<g id="edge60" class="edge">
<title>Node28&#45;&gt;Node32</title>
<path fill="none" stroke="midnightblue" d="M1431.12,-180.4C1434.46,-179.9 1437.76,-179.42 1441,-179 1654.88,-151 1711.9,-176.45 1925,-143 1931.18,-142.03 1937.67,-140.75 1944,-139.35"/>
<polygon fill="midnightblue" stroke="midnightblue" points="1944.8,-142.75 1953.74,-137.07 1943.21,-135.94 1944.8,-142.75"/>
</g>
<!-- Node33 -->
<g id="node33" class="node">
<title>Node33</title>
<g id="a_node33"><a xlink:title=" ">
<polygon fill="none" stroke="#bfbfbf" points="2055,-118 2055,-137 2209,-137 2209,-118 2055,-118"/>
<text text-anchor="middle" x="2132" y="-125" font-family="Helvetica,sans-Serif" font-size="10.00">box2d/b2_world_callbacks.h</text>
</a>
</g>
</g>
<!-- Node28&#45;&gt;Node33 -->
<g id="edge61" class="edge">
<title>Node28&#45;&gt;Node33</title>
<path fill="none" stroke="midnightblue" d="M1431.11,-180.34C1434.45,-179.85 1437.76,-179.4 1441,-179 1708.34,-146.01 1778.36,-173.44 2046,-143 2056.04,-141.86 2066.69,-140.33 2076.96,-138.68"/>
<polygon fill="midnightblue" stroke="midnightblue" points="2077.75,-142.1 2087.05,-137.02 2076.61,-135.19 2077.75,-142.1"/>
</g>
</g>
</svg>
