<?xml version="1.0" encoding="UTF-8" standalone="no"?>
<!DOCTYPE svg PUBLIC "-//W3C//DTD SVG 1.1//EN"
 "http://www.w3.org/Graphics/SVG/1.1/DTD/svg11.dtd">
<!-- Generated by graphviz version 2.43.0 (0)
 -->
<!-- Title: /home/fnky/C0de/component_engine/src/Components/RenderComponent.cpp Pages: 1 -->
<!--zoomable 285 -->
<svg id="main" version="1.1" xmlns="http://www.w3.org/2000/svg" xmlns:xlink="http://www.w3.org/1999/xlink" xml:space="preserve" onload="init(evt)">
<style type="text/css"><![CDATA[
.edge:hover path { stroke: red; }
.edge:hover polygon { stroke: red; fill: red; }
]]></style>
<script type="text/javascript"><![CDATA[
var edges = document.getElementsByTagName('g');
if (edges && edges.length) {
  for (var i=0;i<edges.length;i++) {
    if (edges[i].id.substr(0,4)=='edge') {
      edges[i].setAttribute('class','edge');
    }
  }
}
]]></script>
        <defs>
                <circle id="rim" cx="0" cy="0" r="7"/>
                <circle id="rim2" cx="0" cy="0" r="3.5"/>
                <g id="zoomPlus">
                        <use xlink:href="#rim" fill="#404040">
                                <set attributeName="fill" to="#808080" begin="zoomplus.mouseover" end="zoomplus.mouseout"/>
                        </use>
                        <path d="M-4,0h8M0,-4v8" fill="none" stroke="white" stroke-width="1.5" pointer-events="none"/>
                </g>
                <g id="zoomMin">
                        <use xlink:href="#rim" fill="#404040">
                                <set attributeName="fill" to="#808080" begin="zoomminus.mouseover" end="zoomminus.mouseout"/>
                        </use>
                        <path d="M-4,0h8" fill="none" stroke="white" stroke-width="1.5" pointer-events="none"/>
                </g>
                <g id="dirArrow">
                        <path fill="none" stroke="white" stroke-width="1.5" d="M0,-3.0v7 M-2.5,-0.5L0,-3.0L2.5,-0.5"/>
                </g>
               <g id="resetDef">
                       <use xlink:href="#rim2" fill="#404040">
                               <set attributeName="fill" to="#808080" begin="reset.mouseover" end="reset.mouseout"/>
                       </use>
               </g>
        </defs>

<script type="text/javascript">
var viewWidth = 746;
var viewHeight = 285;
var sectionId = 'dynsection-0';
</script>
<script xlink:href="svgpan.js"/>
<svg id="graph" class="graph">
<g id="viewport">
<title>/home/fnky/C0de/component_engine/src/Components/RenderComponent.cpp</title>
<!-- Node1 -->
<g id="node1" class="node">
<title>Node1</title>
<g id="a_node1"><a xlink:title=" ">
<polygon fill="#bfbfbf" stroke="black" points="143.07,-235.5 143.07,-276.5 300.07,-276.5 300.07,-235.5 143.07,-235.5"/>
<text text-anchor="start" x="151.07" y="-264.5" font-family="Helvetica,sans-Serif" font-size="10.00">/home/fnky/C0de/component</text>
<text text-anchor="start" x="151.07" y="-253.5" font-family="Helvetica,sans-Serif" font-size="10.00">_engine/src/Components</text>
<text text-anchor="middle" x="221.57" y="-242.5" font-family="Helvetica,sans-Serif" font-size="10.00">/RenderComponent.cpp</text>
</a>
</g>
</g>
<!-- Node2 -->
<g id="node2" class="node">
<title>Node2</title>
<g id="a_node2"><a xlink:title=" ">
<polygon fill="none" stroke="#bfbfbf" points="178.57,-0.5 178.57,-19.5 238.57,-19.5 238.57,-0.5 178.57,-0.5"/>
<text text-anchor="middle" x="208.57" y="-7.5" font-family="Helvetica,sans-Serif" font-size="10.00">iostream</text>
</a>
</g>
</g>
<!-- Node1&#45;&gt;Node2 -->
<g id="edge1" class="edge">
<title>Node1&#45;&gt;Node2</title>
<path fill="none" stroke="midnightblue" d="M143.34,-235.45C120.86,-227.01 97.59,-215.23 79.57,-199 27.84,-152.39 -27.71,-110.54 15.57,-56 34.28,-32.43 117.55,-20.06 168.41,-14.59"/>
<polygon fill="midnightblue" stroke="midnightblue" points="168.84,-18.06 178.43,-13.55 168.12,-11.1 168.84,-18.06"/>
</g>
<!-- Node3 -->
<g id="node3" class="node">
<title>Node3</title>
<g id="a_node3"><a xlink:title=" ">
<polygon fill="none" stroke="#bfbfbf" points="24.57,-56.5 24.57,-75.5 82.57,-75.5 82.57,-56.5 24.57,-56.5"/>
<text text-anchor="middle" x="53.57" y="-63.5" font-family="Helvetica,sans-Serif" font-size="10.00">memory</text>
</a>
</g>
</g>
<!-- Node1&#45;&gt;Node3 -->
<g id="edge2" class="edge">
<title>Node1&#45;&gt;Node3</title>
<path fill="none" stroke="midnightblue" d="M176.09,-235.48C136.4,-215.74 81.26,-181.11 55.57,-132 48.13,-117.78 48.34,-99.3 49.99,-85.68"/>
<polygon fill="midnightblue" stroke="midnightblue" points="53.49,-86.01 51.59,-75.59 46.57,-84.92 53.49,-86.01"/>
</g>
<!-- Node4 -->
<g id="node4" class="node">
<title>Node4</title>
<g id="a_node4"><a xlink:href="RenderComponent_8h.html" target="_top" xlink:title=" ">
<polygon fill="none" stroke="black" points="361.57,-168.5 361.57,-198.5 495.57,-198.5 495.57,-168.5 361.57,-168.5"/>
<text text-anchor="start" x="369.57" y="-186.5" font-family="Helvetica,sans-Serif" font-size="10.00">../../include/Components</text>
<text text-anchor="middle" x="428.57" y="-175.5" font-family="Helvetica,sans-Serif" font-size="10.00">/RenderComponent.h</text>
</a>
</g>
</g>
<!-- Node1&#45;&gt;Node4 -->
<g id="edge3" class="edge">
<title>Node1&#45;&gt;Node4</title>
<path fill="none" stroke="midnightblue" d="M278.96,-235.46C309.81,-224.95 347.53,-212.1 377.38,-201.93"/>
<polygon fill="midnightblue" stroke="midnightblue" points="378.84,-205.13 387.18,-198.6 376.59,-198.51 378.84,-205.13"/>
</g>
<!-- Node15 -->
<g id="node15" class="node">
<title>Node15</title>
<g id="a_node15"><a xlink:href="texture_8h.html" target="_top" xlink:title=" ">
<polygon fill="none" stroke="black" points="643.07,-56.5 643.07,-75.5 704.07,-75.5 704.07,-56.5 643.07,-56.5"/>
<text text-anchor="middle" x="673.57" y="-63.5" font-family="Helvetica,sans-Serif" font-size="10.00">texture.h</text>
</a>
</g>
</g>
<!-- Node1&#45;&gt;Node15 -->
<g id="edge26" class="edge">
<title>Node1&#45;&gt;Node15</title>
<path fill="none" stroke="midnightblue" d="M300.22,-247.36C426.5,-233.25 665.21,-198.28 713.57,-132 725.54,-115.59 708.84,-95.53 693.51,-82.07"/>
<polygon fill="midnightblue" stroke="midnightblue" points="695.71,-79.36 685.77,-75.69 691.26,-84.75 695.71,-79.36"/>
</g>
<!-- Node4&#45;&gt;Node3 -->
<g id="edge25" class="edge">
<title>Node4&#45;&gt;Node3</title>
<path fill="none" stroke="midnightblue" d="M361.38,-181.54C270.12,-178.84 113.49,-168.81 71.57,-132 58.53,-120.55 54.56,-100.57 53.52,-85.77"/>
<polygon fill="midnightblue" stroke="midnightblue" points="57.02,-85.58 53.2,-75.7 50.02,-85.8 57.02,-85.58"/>
</g>
<!-- Node5 -->
<g id="node5" class="node">
<title>Node5</title>
<g id="a_node5"><a xlink:title=" ">
<polygon fill="none" stroke="#bfbfbf" points="574.57,-56.5 574.57,-75.5 624.57,-75.5 624.57,-56.5 574.57,-56.5"/>
<text text-anchor="middle" x="599.57" y="-63.5" font-family="Helvetica,sans-Serif" font-size="10.00">cstdint</text>
</a>
</g>
</g>
<!-- Node4&#45;&gt;Node5 -->
<g id="edge4" class="edge">
<title>Node4&#45;&gt;Node5</title>
<path fill="none" stroke="midnightblue" d="M495.58,-171.73C522.62,-164.43 552.37,-152.26 573.57,-132 586.46,-119.69 593.11,-100.16 596.44,-85.71"/>
<polygon fill="midnightblue" stroke="midnightblue" points="599.89,-86.36 598.4,-75.87 593.02,-85 599.89,-86.36"/>
</g>
<!-- Node6 -->
<g id="node6" class="node">
<title>Node6</title>
<g id="a_node6"><a xlink:title=" ">
<polygon fill="none" stroke="#bfbfbf" points="658.57,-112.5 658.57,-131.5 704.57,-131.5 704.57,-112.5 658.57,-112.5"/>
<text text-anchor="middle" x="681.57" y="-119.5" font-family="Helvetica,sans-Serif" font-size="10.00">cstdio</text>
</a>
</g>
</g>
<!-- Node4&#45;&gt;Node6 -->
<g id="edge5" class="edge">
<title>Node4&#45;&gt;Node6</title>
<path fill="none" stroke="midnightblue" d="M489.12,-168.5C532.44,-158.44 592.13,-144.51 644.57,-132 645.84,-131.7 647.13,-131.39 648.43,-131.08"/>
<polygon fill="midnightblue" stroke="midnightblue" points="649.59,-134.4 658.49,-128.65 647.94,-127.59 649.59,-134.4"/>
</g>
<!-- Node7 -->
<g id="node7" class="node">
<title>Node7</title>
<g id="a_node7"><a xlink:title=" ">
<polygon fill="none" stroke="#bfbfbf" points="667.07,-0.5 667.07,-19.5 738.07,-19.5 738.07,-0.5 667.07,-0.5"/>
<text text-anchor="middle" x="702.57" y="-7.5" font-family="Helvetica,sans-Serif" font-size="10.00">glad/glad.h</text>
</a>
</g>
</g>
<!-- Node4&#45;&gt;Node7 -->
<g id="edge6" class="edge">
<title>Node4&#45;&gt;Node7</title>
<path fill="none" stroke="midnightblue" d="M495.83,-180.22C571.17,-176.09 686.33,-164.49 713.57,-132 737.99,-102.88 722.59,-54.81 711.32,-28.89"/>
<polygon fill="midnightblue" stroke="midnightblue" points="714.38,-27.17 707.02,-19.55 708.02,-30.09 714.38,-27.17"/>
</g>
<!-- Node8 -->
<g id="node8" class="node">
<title>Node8</title>
<g id="a_node8"><a xlink:title=" ">
<polygon fill="none" stroke="#bfbfbf" points="102.57,-56.5 102.57,-75.5 180.57,-75.5 180.57,-56.5 102.57,-56.5"/>
<text text-anchor="middle" x="141.57" y="-63.5" font-family="Helvetica,sans-Serif" font-size="10.00">glm/glm.hpp</text>
</a>
</g>
</g>
<!-- Node4&#45;&gt;Node8 -->
<g id="edge7" class="edge">
<title>Node4&#45;&gt;Node8</title>
<path fill="none" stroke="midnightblue" d="M428.97,-168.31C428.6,-152.2 425.35,-126.31 409.57,-112 373.69,-79.45 242.34,-84.06 194.57,-76 193.3,-75.79 192.02,-75.57 190.72,-75.35"/>
<polygon fill="midnightblue" stroke="midnightblue" points="191.09,-71.86 180.64,-73.65 189.92,-78.76 191.09,-71.86"/>
</g>
<!-- Node9 -->
<g id="node9" class="node">
<title>Node9</title>
<g id="a_node9"><a xlink:title=" ">
<polygon fill="none" stroke="#bfbfbf" points="181.07,-112.5 181.07,-131.5 344.07,-131.5 344.07,-112.5 181.07,-112.5"/>
<text text-anchor="middle" x="262.57" y="-119.5" font-family="Helvetica,sans-Serif" font-size="10.00">glm/gtc/matrix_transform.hpp</text>
</a>
</g>
</g>
<!-- Node4&#45;&gt;Node9 -->
<g id="edge8" class="edge">
<title>Node4&#45;&gt;Node9</title>
<path fill="none" stroke="midnightblue" d="M389.23,-168.4C361.01,-158.28 323.37,-144.79 296.47,-135.15"/>
<polygon fill="midnightblue" stroke="midnightblue" points="297.32,-131.74 286.73,-131.66 294.96,-138.33 297.32,-131.74"/>
</g>
<!-- Node10 -->
<g id="node10" class="node">
<title>Node10</title>
<g id="a_node10"><a xlink:title=" ">
<polygon fill="none" stroke="#bfbfbf" points="362.57,-112.5 362.57,-131.5 400.57,-131.5 400.57,-112.5 362.57,-112.5"/>
<text text-anchor="middle" x="381.57" y="-119.5" font-family="Helvetica,sans-Serif" font-size="10.00">map</text>
</a>
</g>
</g>
<!-- Node4&#45;&gt;Node10 -->
<g id="edge9" class="edge">
<title>Node4&#45;&gt;Node10</title>
<path fill="none" stroke="midnightblue" d="M417.43,-168.4C410.6,-159.75 401.83,-148.64 394.67,-139.58"/>
<polygon fill="midnightblue" stroke="midnightblue" points="397.36,-137.34 388.41,-131.66 391.86,-141.67 397.36,-137.34"/>
</g>
<!-- Node11 -->
<g id="node11" class="node">
<title>Node11</title>
<g id="a_node11"><a xlink:href="Components_2Component_8h.html" target="_top" xlink:title=" ">
<polygon fill="none" stroke="black" points="80.57,-112.5 80.57,-131.5 162.57,-131.5 162.57,-112.5 80.57,-112.5"/>
<text text-anchor="middle" x="121.57" y="-119.5" font-family="Helvetica,sans-Serif" font-size="10.00">Component.h</text>
</a>
</g>
</g>
<!-- Node4&#45;&gt;Node11 -->
<g id="edge10" class="edge">
<title>Node4&#45;&gt;Node11</title>
<path fill="none" stroke="midnightblue" d="M361.2,-169.44C304.44,-158.44 224.46,-142.94 172.81,-132.93"/>
<polygon fill="midnightblue" stroke="midnightblue" points="173.35,-129.47 162.87,-131 172.02,-136.34 173.35,-129.47"/>
</g>
<!-- Node12 -->
<g id="node12" class="node">
<title>Node12</title>
<g id="a_node12"><a xlink:href="sprite_8h.html" target="_top" xlink:title=" ">
<polygon fill="none" stroke="black" points="456.57,-112.5 456.57,-131.5 564.57,-131.5 564.57,-112.5 456.57,-112.5"/>
<text text-anchor="middle" x="510.57" y="-119.5" font-family="Helvetica,sans-Serif" font-size="10.00">../Graphics/sprite.h</text>
</a>
</g>
</g>
<!-- Node4&#45;&gt;Node12 -->
<g id="edge12" class="edge">
<title>Node4&#45;&gt;Node12</title>
<path fill="none" stroke="midnightblue" d="M448,-168.4C460.78,-159.13 477.46,-147.03 490.39,-137.65"/>
<polygon fill="midnightblue" stroke="midnightblue" points="492.6,-140.36 498.64,-131.66 488.49,-134.7 492.6,-140.36"/>
</g>
<!-- Node4&#45;&gt;Node15 -->
<g id="edge24" class="edge">
<title>Node4&#45;&gt;Node15</title>
<path fill="none" stroke="midnightblue" d="M494.72,-168.48C525.83,-160.35 562.77,-148.41 593.57,-132 618.09,-118.93 642.29,-97.81 657.54,-83.21"/>
<polygon fill="midnightblue" stroke="midnightblue" points="660.35,-85.36 665.04,-75.86 655.45,-80.36 660.35,-85.36"/>
</g>
<!-- Node11&#45;&gt;Node3 -->
<g id="edge11" class="edge">
<title>Node11&#45;&gt;Node3</title>
<path fill="none" stroke="midnightblue" d="M110.65,-112.32C100.4,-104.18 84.85,-91.84 72.57,-82.09"/>
<polygon fill="midnightblue" stroke="midnightblue" points="74.7,-79.31 64.7,-75.83 70.35,-84.79 74.7,-79.31"/>
</g>
<!-- Node12&#45;&gt;Node2 -->
<g id="edge17" class="edge">
<title>Node12&#45;&gt;Node2</title>
<path fill="none" stroke="midnightblue" d="M456.42,-113.9C376.67,-103.23 236.1,-83.51 227.57,-76 214.49,-64.48 210.19,-44.51 208.89,-29.74"/>
<polygon fill="midnightblue" stroke="midnightblue" points="212.38,-29.49 208.38,-19.68 205.39,-29.84 212.38,-29.49"/>
</g>
<!-- Node12&#45;&gt;Node3 -->
<g id="edge21" class="edge">
<title>Node12&#45;&gt;Node3</title>
<path fill="none" stroke="midnightblue" d="M456.46,-115.94C360.01,-106.78 162.08,-87.37 93.57,-76 93.35,-75.96 93.13,-75.93 92.91,-75.89"/>
<polygon fill="midnightblue" stroke="midnightblue" points="93.25,-72.39 82.77,-73.97 91.95,-79.27 93.25,-72.39"/>
</g>
<!-- Node12&#45;&gt;Node5 -->
<g id="edge13" class="edge">
<title>Node12&#45;&gt;Node5</title>
<path fill="none" stroke="midnightblue" d="M524.87,-112.32C538.75,-103.9 560.06,-90.97 576.38,-81.07"/>
<polygon fill="midnightblue" stroke="midnightblue" points="578.57,-83.83 585.31,-75.65 574.94,-77.85 578.57,-83.83"/>
</g>
<!-- Node12&#45;&gt;Node8 -->
<g id="edge16" class="edge">
<title>Node12&#45;&gt;Node8</title>
<path fill="none" stroke="midnightblue" d="M456.55,-113.75C393.58,-105.21 286.42,-90.34 194.57,-76 193.3,-75.8 192.01,-75.6 190.71,-75.39"/>
<polygon fill="midnightblue" stroke="midnightblue" points="191.06,-71.9 180.63,-73.75 189.94,-78.81 191.06,-71.9"/>
</g>
<!-- Node13 -->
<g id="node13" class="node">
<title>Node13</title>
<g id="a_node13"><a xlink:title=" ">
<polygon fill="none" stroke="#bfbfbf" points="236.57,-56.5 236.57,-75.5 286.57,-75.5 286.57,-56.5 236.57,-56.5"/>
<text text-anchor="middle" x="261.57" y="-63.5" font-family="Helvetica,sans-Serif" font-size="10.00">stdio.h</text>
</a>
</g>
</g>
<!-- Node12&#45;&gt;Node13 -->
<g id="edge14" class="edge">
<title>Node12&#45;&gt;Node13</title>
<path fill="none" stroke="midnightblue" d="M467,-112.43C423.67,-103.76 355.35,-89.73 296.57,-76 296.47,-75.98 296.37,-75.95 296.27,-75.93"/>
<polygon fill="midnightblue" stroke="midnightblue" points="297.32,-72.58 286.77,-73.62 295.67,-79.38 297.32,-72.58"/>
</g>
<!-- Node14 -->
<g id="node14" class="node">
<title>Node14</title>
<g id="a_node14"><a xlink:title=" ">
<polygon fill="none" stroke="#bfbfbf" points="305.07,-56.5 305.07,-75.5 382.07,-75.5 382.07,-56.5 305.07,-56.5"/>
<text text-anchor="middle" x="343.57" y="-63.5" font-family="Helvetica,sans-Serif" font-size="10.00">glm/fwd.hpp</text>
</a>
</g>
</g>
<!-- Node12&#45;&gt;Node14 -->
<g id="edge15" class="edge">
<title>Node12&#45;&gt;Node14</title>
<path fill="none" stroke="midnightblue" d="M484.11,-112.44C455.89,-103.32 411.03,-88.81 379.6,-78.65"/>
<polygon fill="midnightblue" stroke="midnightblue" points="380.5,-75.26 369.91,-75.52 378.35,-81.92 380.5,-75.26"/>
</g>
<!-- Node12&#45;&gt;Node15 -->
<g id="edge18" class="edge">
<title>Node12&#45;&gt;Node15</title>
<path fill="none" stroke="midnightblue" d="M536.4,-112.44C563.82,-103.36 607.35,-88.94 638,-78.78"/>
<polygon fill="midnightblue" stroke="midnightblue" points="639.47,-81.98 647.86,-75.52 637.27,-75.34 639.47,-81.98"/>
</g>
<!-- Node16 -->
<g id="node16" class="node">
<title>Node16</title>
<g id="a_node16"><a xlink:title=" ">
<polygon fill="none" stroke="#bfbfbf" points="400.57,-56.5 400.57,-75.5 444.57,-75.5 444.57,-56.5 400.57,-56.5"/>
<text text-anchor="middle" x="422.57" y="-63.5" font-family="Helvetica,sans-Serif" font-size="10.00">string</text>
</a>
</g>
</g>
<!-- Node12&#45;&gt;Node16 -->
<g id="edge22" class="edge">
<title>Node12&#45;&gt;Node16</title>
<path fill="none" stroke="midnightblue" d="M496.43,-112.32C482.71,-103.9 461.64,-90.97 445.51,-81.07"/>
<polygon fill="midnightblue" stroke="midnightblue" points="447.03,-77.9 436.68,-75.65 443.37,-83.87 447.03,-77.9"/>
</g>
<!-- Node17 -->
<g id="node17" class="node">
<title>Node17</title>
<g id="a_node17"><a xlink:title=" ">
<polygon fill="none" stroke="#bfbfbf" points="463.07,-56.5 463.07,-75.5 556.07,-75.5 556.07,-56.5 463.07,-56.5"/>
<text text-anchor="middle" x="509.57" y="-63.5" font-family="Helvetica,sans-Serif" font-size="10.00">unordered_map</text>
</a>
</g>
</g>
<!-- Node12&#45;&gt;Node17 -->
<g id="edge23" class="edge">
<title>Node12&#45;&gt;Node17</title>
<path fill="none" stroke="midnightblue" d="M510.41,-112.08C510.28,-105.01 510.09,-94.86 509.92,-85.99"/>
<polygon fill="midnightblue" stroke="midnightblue" points="513.42,-85.68 509.73,-75.75 506.42,-85.81 513.42,-85.68"/>
</g>
<!-- Node15&#45;&gt;Node2 -->
<g id="edge19" class="edge">
<title>Node15&#45;&gt;Node2</title>
<path fill="none" stroke="midnightblue" d="M643.07,-57.75C639.87,-57.11 636.66,-56.51 633.57,-56 493.03,-32.83 324.28,-19.1 248.66,-13.69"/>
<polygon fill="midnightblue" stroke="midnightblue" points="248.84,-10.19 238.62,-12.98 248.35,-17.18 248.84,-10.19"/>
</g>
<!-- Node15&#45;&gt;Node7 -->
<g id="edge20" class="edge">
<title>Node15&#45;&gt;Node7</title>
<path fill="none" stroke="midnightblue" d="M678.36,-56.08C682.33,-48.69 688.1,-37.95 693.01,-28.81"/>
<polygon fill="midnightblue" stroke="midnightblue" points="696.22,-30.22 697.87,-19.75 690.06,-26.91 696.22,-30.22"/>
</g>
</g>
</svg>
        <g id="navigator" transform="translate(0 0)" fill="#404254">
                <rect fill="#f2f5e9" fill-opacity="0.5" stroke="#606060" stroke-width=".5" x="0" y="0" width="60" height="60"/>
                <use id="zoomplus" xlink:href="#zoomPlus" x="17" y="9" onmousedown="handleZoom(evt,'in')"/>
                <use id="zoomminus" xlink:href="#zoomMin" x="42" y="9" onmousedown="handleZoom(evt,'out')"/>
                <use id="reset" xlink:href="#resetDef" x="30" y="36" onmousedown="handleReset()"/>
                <g id="arrowUp" xlink:href="#dirArrow" transform="translate(30 24)" onmousedown="handlePan(0,-1)">
                  <use xlink:href="#rim" fill="#404040">
                        <set attributeName="fill" to="#808080" begin="arrowUp.mouseover" end="arrowUp.mouseout"/>
                  </use>
                  <path fill="none" stroke="white" stroke-width="1.5" d="M0,-3.0v7 M-2.5,-0.5L0,-3.0L2.5,-0.5"/>
                </g>
                <g id="arrowRight" xlink:href="#dirArrow" transform="rotate(90) translate(36 -43)" onmousedown="handlePan(1,0)">
                  <use xlink:href="#rim" fill="#404040">
                        <set attributeName="fill" to="#808080" begin="arrowRight.mouseover" end="arrowRight.mouseout"/>
                  </use>
                  <path fill="none" stroke="white" stroke-width="1.5" d="M0,-3.0v7 M-2.5,-0.5L0,-3.0L2.5,-0.5"/>
                </g>
                <g id="arrowDown" xlink:href="#dirArrow" transform="rotate(180) translate(-30 -48)" onmousedown="handlePan(0,1)">
                  <use xlink:href="#rim" fill="#404040">
                        <set attributeName="fill" to="#808080" begin="arrowDown.mouseover" end="arrowDown.mouseout"/>
                  </use>
                  <path fill="none" stroke="white" stroke-width="1.5" d="M0,-3.0v7 M-2.5,-0.5L0,-3.0L2.5,-0.5"/>
                </g>
                <g id="arrowLeft" xlink:href="#dirArrow" transform="rotate(270) translate(-36 17)" onmousedown="handlePan(-1,0)">
                  <use xlink:href="#rim" fill="#404040">
                        <set attributeName="fill" to="#808080" begin="arrowLeft.mouseover" end="arrowLeft.mouseout"/>
                  </use>
                  <path fill="none" stroke="white" stroke-width="1.5" d="M0,-3.0v7 M-2.5,-0.5L0,-3.0L2.5,-0.5"/>
                </g>
        </g>
        <svg viewBox="0 0 15 15" width="100%" height="30px" preserveAspectRatio="xMaxYMin meet">
         <g id="arrow_out" transform="scale(0.3 0.3)">
          <a xlink:href="RenderComponent_8cpp__incl_org.svg" target="_base">
           <rect id="button" ry="5" rx="5" y="6" x="6" height="38" width="38"
                fill="#f2f5e9" fill-opacity="0.5" stroke="#606060" stroke-width="1.0"/>
           <path id="arrow"
             d="M 11.500037,31.436501 C 11.940474,20.09759 22.043105,11.32322 32.158766,21.979434 L 37.068811,17.246167 C 37.068811,17.246167 37.088388,32 37.088388,32 L 22.160133,31.978069 C 22.160133,31.978069 26.997745,27.140456 26.997745,27.140456 C 18.528582,18.264221 13.291696,25.230495 11.500037,31.436501 z"
             style="fill:#404040;"/>
          </a>
         </g>
        </svg>
</svg>
