<?xml version="1.0" encoding="UTF-8" standalone="no"?>
<!DOCTYPE svg PUBLIC "-//W3C//DTD SVG 1.1//EN"
 "http://www.w3.org/Graphics/SVG/1.1/DTD/svg11.dtd">
<!-- Generated by graphviz version 2.43.0 (0)
 -->
<!-- Title: /home/fnky/C0de/component_engine/include/Components/RenderComponent.h Pages: 1 -->
<svg width="979pt" height="218pt"
 viewBox="0.00 0.00 979.00 218.00" xmlns="http://www.w3.org/2000/svg" xmlns:xlink="http://www.w3.org/1999/xlink">
<g id="graph0" class="graph" transform="scale(1 1) rotate(0) translate(4 214)">
<title>/home/fnky/C0de/component_engine/include/Components/RenderComponent.h</title>
<!-- Node1 -->
<g id="node1" class="node">
<title>Node1</title>
<g id="a_node1"><a xlink:title=" ">
<polygon fill="#bfbfbf" stroke="black" points="371,-168.5 371,-209.5 529,-209.5 529,-168.5 371,-168.5"/>
<text text-anchor="start" x="379" y="-197.5" font-family="Helvetica,sans-Serif" font-size="10.00">/home/fnky/C0de/component</text>
<text text-anchor="start" x="379" y="-186.5" font-family="Helvetica,sans-Serif" font-size="10.00">_engine/include/Components</text>
<text text-anchor="middle" x="450" y="-175.5" font-family="Helvetica,sans-Serif" font-size="10.00">/RenderComponent.h</text>
</a>
</g>
</g>
<!-- Node2 -->
<g id="node2" class="node">
<title>Node2</title>
<g id="a_node2"><a xlink:title=" ">
<polygon fill="none" stroke="#bfbfbf" points="0,-56.5 0,-75.5 50,-75.5 50,-56.5 0,-56.5"/>
<text text-anchor="middle" x="25" y="-63.5" font-family="Helvetica,sans-Serif" font-size="10.00">cstdint</text>
</a>
</g>
</g>
<!-- Node1&#45;&gt;Node2 -->
<g id="edge1" class="edge">
<title>Node1&#45;&gt;Node2</title>
<path fill="none" stroke="midnightblue" d="M370.96,-177.04C314.2,-168.01 236.34,-153.21 170,-132 126.51,-118.1 78.66,-95.01 50.25,-80.42"/>
<polygon fill="midnightblue" stroke="midnightblue" points="51.54,-77.14 41.06,-75.64 48.32,-83.36 51.54,-77.14"/>
</g>
<!-- Node3 -->
<g id="node3" class="node">
<title>Node3</title>
<g id="a_node3"><a xlink:title=" ">
<polygon fill="none" stroke="#bfbfbf" points="687,-112.5 687,-131.5 733,-131.5 733,-112.5 687,-112.5"/>
<text text-anchor="middle" x="710" y="-119.5" font-family="Helvetica,sans-Serif" font-size="10.00">cstdio</text>
</a>
</g>
</g>
<!-- Node1&#45;&gt;Node3 -->
<g id="edge2" class="edge">
<title>Node1&#45;&gt;Node3</title>
<path fill="none" stroke="midnightblue" d="M528.01,-168.5C577.78,-156.06 639.72,-140.57 676.99,-131.25"/>
<polygon fill="midnightblue" stroke="midnightblue" points="677.97,-134.62 686.82,-128.8 676.27,-127.83 677.97,-134.62"/>
</g>
<!-- Node4 -->
<g id="node4" class="node">
<title>Node4</title>
<g id="a_node4"><a xlink:title=" ">
<polygon fill="none" stroke="#bfbfbf" points="639.5,-0.5 639.5,-19.5 710.5,-19.5 710.5,-0.5 639.5,-0.5"/>
<text text-anchor="middle" x="675" y="-7.5" font-family="Helvetica,sans-Serif" font-size="10.00">glad/glad.h</text>
</a>
</g>
</g>
<!-- Node1&#45;&gt;Node4 -->
<g id="edge3" class="edge">
<title>Node1&#45;&gt;Node4</title>
<path fill="none" stroke="midnightblue" d="M529.27,-173.4C583.71,-158.79 652.04,-130.32 686,-76 694.8,-61.93 690.1,-42.94 684.37,-29.12"/>
<polygon fill="midnightblue" stroke="midnightblue" points="687.39,-27.31 679.99,-19.73 681.04,-30.27 687.39,-27.31"/>
</g>
<!-- Node5 -->
<g id="node5" class="node">
<title>Node5</title>
<g id="a_node5"><a xlink:title=" ">
<polygon fill="none" stroke="#bfbfbf" points="68,-56.5 68,-75.5 146,-75.5 146,-56.5 68,-56.5"/>
<text text-anchor="middle" x="107" y="-63.5" font-family="Helvetica,sans-Serif" font-size="10.00">glm/glm.hpp</text>
</a>
</g>
</g>
<!-- Node1&#45;&gt;Node5 -->
<g id="edge4" class="edge">
<title>Node1&#45;&gt;Node5</title>
<path fill="none" stroke="midnightblue" d="M370.93,-175.83C323.9,-167.01 263.72,-152.91 213,-132 180.84,-118.74 147.16,-96.42 126.63,-81.7"/>
<polygon fill="midnightblue" stroke="midnightblue" points="128.56,-78.78 118.42,-75.71 124.44,-84.43 128.56,-78.78"/>
</g>
<!-- Node6 -->
<g id="node6" class="node">
<title>Node6</title>
<g id="a_node6"><a xlink:title=" ">
<polygon fill="none" stroke="#bfbfbf" points="751.5,-112.5 751.5,-131.5 914.5,-131.5 914.5,-112.5 751.5,-112.5"/>
<text text-anchor="middle" x="833" y="-119.5" font-family="Helvetica,sans-Serif" font-size="10.00">glm/gtc/matrix_transform.hpp</text>
</a>
</g>
</g>
<!-- Node1&#45;&gt;Node6 -->
<g id="edge5" class="edge">
<title>Node1&#45;&gt;Node6</title>
<path fill="none" stroke="midnightblue" d="M529.36,-174.53C601.63,-162.27 706.81,-144.42 772.5,-133.27"/>
<polygon fill="midnightblue" stroke="midnightblue" points="773.41,-136.66 782.69,-131.54 772.24,-129.76 773.41,-136.66"/>
</g>
<!-- Node7 -->
<g id="node7" class="node">
<title>Node7</title>
<g id="a_node7"><a xlink:title=" ">
<polygon fill="none" stroke="#bfbfbf" points="933,-112.5 933,-131.5 971,-131.5 971,-112.5 933,-112.5"/>
<text text-anchor="middle" x="952" y="-119.5" font-family="Helvetica,sans-Serif" font-size="10.00">map</text>
</a>
</g>
</g>
<!-- Node1&#45;&gt;Node7 -->
<g id="edge6" class="edge">
<title>Node1&#45;&gt;Node7</title>
<path fill="none" stroke="midnightblue" d="M529.19,-183.34C621.81,-176.84 779.67,-162.49 923,-131.83"/>
<polygon fill="midnightblue" stroke="midnightblue" points="923.82,-135.23 932.85,-129.69 922.34,-128.39 923.82,-135.23"/>
</g>
<!-- Node8 -->
<g id="node8" class="node">
<title>Node8</title>
<g id="a_node8"><a xlink:href="Components_2Component_8h.html" target="_top" xlink:title=" ">
<polygon fill="none" stroke="black" points="245,-112.5 245,-131.5 327,-131.5 327,-112.5 245,-112.5"/>
<text text-anchor="middle" x="286" y="-119.5" font-family="Helvetica,sans-Serif" font-size="10.00">Component.h</text>
</a>
</g>
</g>
<!-- Node1&#45;&gt;Node8 -->
<g id="edge7" class="edge">
<title>Node1&#45;&gt;Node8</title>
<path fill="none" stroke="midnightblue" d="M400.79,-168.5C373.72,-157.77 340.93,-144.77 317.33,-135.42"/>
<polygon fill="midnightblue" stroke="midnightblue" points="318.42,-132.08 307.83,-131.65 315.84,-138.59 318.42,-132.08"/>
</g>
<!-- Node9 -->
<g id="node9" class="node">
<title>Node9</title>
<g id="a_node9"><a xlink:title=" ">
<polygon fill="none" stroke="#bfbfbf" points="164,-56.5 164,-75.5 222,-75.5 222,-56.5 164,-56.5"/>
<text text-anchor="middle" x="193" y="-63.5" font-family="Helvetica,sans-Serif" font-size="10.00">memory</text>
</a>
</g>
</g>
<!-- Node1&#45;&gt;Node9 -->
<g id="edge22" class="edge">
<title>Node1&#45;&gt;Node9</title>
<path fill="none" stroke="midnightblue" d="M370.93,-181.13C327.81,-174.17 275.35,-160.16 236,-132 219.37,-120.1 207.39,-99.6 200.36,-84.8"/>
<polygon fill="midnightblue" stroke="midnightblue" points="203.55,-83.36 196.3,-75.64 197.16,-86.2 203.55,-83.36"/>
</g>
<!-- Node10 -->
<g id="node10" class="node">
<title>Node10</title>
<g id="a_node10"><a xlink:href="sprite_8h.html" target="_top" xlink:title=" ">
<polygon fill="none" stroke="black" points="355,-112.5 355,-131.5 463,-131.5 463,-112.5 355,-112.5"/>
<text text-anchor="middle" x="409" y="-119.5" font-family="Helvetica,sans-Serif" font-size="10.00">../Graphics/sprite.h</text>
</a>
</g>
</g>
<!-- Node1&#45;&gt;Node10 -->
<g id="edge9" class="edge">
<title>Node1&#45;&gt;Node10</title>
<path fill="none" stroke="midnightblue" d="M437.7,-168.5C432.02,-159.49 425.33,-148.89 419.84,-140.19"/>
<polygon fill="midnightblue" stroke="midnightblue" points="422.75,-138.24 414.46,-131.65 416.83,-141.98 422.75,-138.24"/>
</g>
<!-- Node14 -->
<g id="node14" class="node">
<title>Node14</title>
<g id="a_node14"><a xlink:href="texture_8h.html" target="_top" xlink:title=" ">
<polygon fill="none" stroke="black" points="615.5,-56.5 615.5,-75.5 676.5,-75.5 676.5,-56.5 615.5,-56.5"/>
<text text-anchor="middle" x="646" y="-63.5" font-family="Helvetica,sans-Serif" font-size="10.00">texture.h</text>
</a>
</g>
</g>
<!-- Node1&#45;&gt;Node14 -->
<g id="edge21" class="edge">
<title>Node1&#45;&gt;Node14</title>
<path fill="none" stroke="midnightblue" d="M481.93,-168.29C521.59,-143.81 588.27,-102.64 623.16,-81.1"/>
<polygon fill="midnightblue" stroke="midnightblue" points="625.44,-83.81 632.11,-75.57 621.76,-77.85 625.44,-83.81"/>
</g>
<!-- Node8&#45;&gt;Node9 -->
<g id="edge8" class="edge">
<title>Node8&#45;&gt;Node9</title>
<path fill="none" stroke="midnightblue" d="M271.06,-112.32C256.41,-103.82 233.87,-90.73 216.76,-80.8"/>
<polygon fill="midnightblue" stroke="midnightblue" points="218.31,-77.65 207.9,-75.65 214.8,-83.7 218.31,-77.65"/>
</g>
<!-- Node10&#45;&gt;Node2 -->
<g id="edge10" class="edge">
<title>Node10&#45;&gt;Node2</title>
<path fill="none" stroke="midnightblue" d="M354.8,-114.22C268.64,-103.42 106.14,-82.94 60.18,-75.77"/>
<polygon fill="midnightblue" stroke="midnightblue" points="60.61,-72.29 50.17,-74.05 59.43,-79.19 60.61,-72.29"/>
</g>
<!-- Node10&#45;&gt;Node5 -->
<g id="edge13" class="edge">
<title>Node10&#45;&gt;Node5</title>
<path fill="none" stroke="midnightblue" d="M359.81,-112.43C310.72,-103.85 232.87,-90.15 155.9,-76.15"/>
<polygon fill="midnightblue" stroke="midnightblue" points="156.49,-72.7 146.03,-74.35 155.24,-79.59 156.49,-72.7"/>
</g>
<!-- Node10&#45;&gt;Node9 -->
<g id="edge18" class="edge">
<title>Node10&#45;&gt;Node9</title>
<path fill="none" stroke="midnightblue" d="M374.77,-112.44C335.95,-102.74 272.77,-86.94 232.06,-76.76"/>
<polygon fill="midnightblue" stroke="midnightblue" points="232.77,-73.33 222.22,-74.3 231.07,-80.13 232.77,-73.33"/>
</g>
<!-- Node11 -->
<g id="node11" class="node">
<title>Node11</title>
<g id="a_node11"><a xlink:title=" ">
<polygon fill="none" stroke="#bfbfbf" points="240,-56.5 240,-75.5 290,-75.5 290,-56.5 240,-56.5"/>
<text text-anchor="middle" x="265" y="-63.5" font-family="Helvetica,sans-Serif" font-size="10.00">stdio.h</text>
</a>
</g>
</g>
<!-- Node10&#45;&gt;Node11 -->
<g id="edge11" class="edge">
<title>Node10&#45;&gt;Node11</title>
<path fill="none" stroke="midnightblue" d="M386.18,-112.44C362.17,-103.44 324.17,-89.19 297.13,-79.05"/>
<polygon fill="midnightblue" stroke="midnightblue" points="298.3,-75.75 287.71,-75.52 295.84,-82.3 298.3,-75.75"/>
</g>
<!-- Node12 -->
<g id="node12" class="node">
<title>Node12</title>
<g id="a_node12"><a xlink:title=" ">
<polygon fill="none" stroke="#bfbfbf" points="308.5,-56.5 308.5,-75.5 385.5,-75.5 385.5,-56.5 308.5,-56.5"/>
<text text-anchor="middle" x="347" y="-63.5" font-family="Helvetica,sans-Serif" font-size="10.00">glm/fwd.hpp</text>
</a>
</g>
</g>
<!-- Node10&#45;&gt;Node12 -->
<g id="edge12" class="edge">
<title>Node10&#45;&gt;Node12</title>
<path fill="none" stroke="midnightblue" d="M399.04,-112.32C389.87,-104.34 376.06,-92.31 364.97,-82.65"/>
<polygon fill="midnightblue" stroke="midnightblue" points="366.98,-79.76 357.14,-75.83 362.38,-85.04 366.98,-79.76"/>
</g>
<!-- Node13 -->
<g id="node13" class="node">
<title>Node13</title>
<g id="a_node13"><a xlink:title=" ">
<polygon fill="none" stroke="#bfbfbf" points="487,-0.5 487,-19.5 547,-19.5 547,-0.5 487,-0.5"/>
<text text-anchor="middle" x="517" y="-7.5" font-family="Helvetica,sans-Serif" font-size="10.00">iostream</text>
</a>
</g>
</g>
<!-- Node10&#45;&gt;Node13 -->
<g id="edge14" class="edge">
<title>Node10&#45;&gt;Node13</title>
<path fill="none" stroke="midnightblue" d="M410.18,-112.43C412.43,-98.97 418.47,-72.69 433,-56 445.71,-41.4 464.36,-30.74 480.85,-23.48"/>
<polygon fill="midnightblue" stroke="midnightblue" points="482.35,-26.64 490.26,-19.58 479.68,-20.17 482.35,-26.64"/>
</g>
<!-- Node10&#45;&gt;Node14 -->
<g id="edge15" class="edge">
<title>Node10&#45;&gt;Node14</title>
<path fill="none" stroke="midnightblue" d="M446.55,-112.44C489.9,-102.57 560.94,-86.38 605.5,-76.23"/>
<polygon fill="midnightblue" stroke="midnightblue" points="606.43,-79.61 615.41,-73.97 604.88,-72.78 606.43,-79.61"/>
</g>
<!-- Node15 -->
<g id="node15" class="node">
<title>Node15</title>
<g id="a_node15"><a xlink:title=" ">
<polygon fill="none" stroke="#bfbfbf" points="442,-56.5 442,-75.5 486,-75.5 486,-56.5 442,-56.5"/>
<text text-anchor="middle" x="464" y="-63.5" font-family="Helvetica,sans-Serif" font-size="10.00">string</text>
</a>
</g>
</g>
<!-- Node10&#45;&gt;Node15 -->
<g id="edge19" class="edge">
<title>Node10&#45;&gt;Node15</title>
<path fill="none" stroke="midnightblue" d="M418.08,-112.08C426.17,-104.14 438.2,-92.34 447.91,-82.8"/>
<polygon fill="midnightblue" stroke="midnightblue" points="450.4,-85.25 455.09,-75.75 445.5,-80.26 450.4,-85.25"/>
</g>
<!-- Node16 -->
<g id="node16" class="node">
<title>Node16</title>
<g id="a_node16"><a xlink:title=" ">
<polygon fill="none" stroke="#bfbfbf" points="504.5,-56.5 504.5,-75.5 597.5,-75.5 597.5,-56.5 504.5,-56.5"/>
<text text-anchor="middle" x="551" y="-63.5" font-family="Helvetica,sans-Serif" font-size="10.00">unordered_map</text>
</a>
</g>
</g>
<!-- Node10&#45;&gt;Node16 -->
<g id="edge20" class="edge">
<title>Node10&#45;&gt;Node16</title>
<path fill="none" stroke="midnightblue" d="M431.5,-112.44C455.08,-103.48 492.32,-89.31 518.96,-79.18"/>
<polygon fill="midnightblue" stroke="midnightblue" points="520.5,-82.34 528.6,-75.52 518.01,-75.8 520.5,-82.34"/>
</g>
<!-- Node14&#45;&gt;Node4 -->
<g id="edge17" class="edge">
<title>Node14&#45;&gt;Node4</title>
<path fill="none" stroke="midnightblue" d="M650.79,-56.08C654.76,-48.69 660.53,-37.95 665.43,-28.81"/>
<polygon fill="midnightblue" stroke="midnightblue" points="668.65,-30.22 670.3,-19.75 662.49,-26.91 668.65,-30.22"/>
</g>
<!-- Node14&#45;&gt;Node13 -->
<g id="edge16" class="edge">
<title>Node14&#45;&gt;Node13</title>
<path fill="none" stroke="midnightblue" d="M625.56,-56.44C604.33,-47.56 570.9,-33.56 546.75,-23.45"/>
<polygon fill="midnightblue" stroke="midnightblue" points="547.92,-20.15 537.34,-19.52 545.22,-26.61 547.92,-20.15"/>
</g>
</g>
</svg>
