<?xml version="1.0" encoding="UTF-8" standalone="no"?>
<!DOCTYPE svg PUBLIC "-//W3C//DTD SVG 1.1//EN"
 "http://www.w3.org/Graphics/SVG/1.1/DTD/svg11.dtd">
<!-- Generated by graphviz version 2.43.0 (0)
 -->
<!-- Title: /home/fnky/C0de/component_engine/include/States/state.h Pages: 1 -->
<svg width="1077pt" height="362pt"
 viewBox="0.00 0.00 1077.00 362.00" xmlns="http://www.w3.org/2000/svg" xmlns:xlink="http://www.w3.org/1999/xlink">
<g id="graph0" class="graph" transform="scale(1 1) rotate(0) translate(4 358)">
<title>/home/fnky/C0de/component_engine/include/States/state.h</title>
<!-- Node1 -->
<g id="node1" class="node">
<title>Node1</title>
<g id="a_node1"><a xlink:title=" ">
<polygon fill="#bfbfbf" stroke="black" points="536,-312.5 536,-353.5 693,-353.5 693,-312.5 536,-312.5"/>
<text text-anchor="start" x="544" y="-341.5" font-family="Helvetica,sans-Serif" font-size="10.00">/home/fnky/C0de/component</text>
<text text-anchor="start" x="544" y="-330.5" font-family="Helvetica,sans-Serif" font-size="10.00">_engine/include/States</text>
<text text-anchor="middle" x="614.5" y="-319.5" font-family="Helvetica,sans-Serif" font-size="10.00">/state.h</text>
</a>
</g>
</g>
<!-- Node2 -->
<g id="node2" class="node">
<title>Node2</title>
<g id="a_node2"><a xlink:href="state__machine_8h.html" target="_top" xlink:title=" ">
<polygon fill="none" stroke="black" points="483,-234.5 483,-275.5 640,-275.5 640,-234.5 483,-234.5"/>
<text text-anchor="start" x="491" y="-263.5" font-family="Helvetica,sans-Serif" font-size="10.00">/home/fnky/C0de/component</text>
<text text-anchor="start" x="491" y="-252.5" font-family="Helvetica,sans-Serif" font-size="10.00">_engine/include/States</text>
<text text-anchor="middle" x="561.5" y="-241.5" font-family="Helvetica,sans-Serif" font-size="10.00">/state_machine.h</text>
</a>
</g>
</g>
<!-- Node1&#45;&gt;Node2 -->
<g id="edge1" class="edge">
<title>Node1&#45;&gt;Node2</title>
<path fill="none" stroke="midnightblue" d="M595.01,-304.05C588.39,-294.57 581.16,-284.18 575.1,-275.51"/>
<polygon fill="midnightblue" stroke="midnightblue" points="592.26,-306.23 600.85,-312.43 598,-302.22 592.26,-306.23"/>
</g>
<!-- Node4 -->
<g id="node4" class="node">
<title>Node4</title>
<g id="a_node4"><a xlink:href="game__over__state_8h.html" target="_top" xlink:title=" ">
<polygon fill="none" stroke="black" points="252,-78.5 252,-119.5 409,-119.5 409,-78.5 252,-78.5"/>
<text text-anchor="start" x="260" y="-107.5" font-family="Helvetica,sans-Serif" font-size="10.00">/home/fnky/C0de/component</text>
<text text-anchor="start" x="260" y="-96.5" font-family="Helvetica,sans-Serif" font-size="10.00">_engine/include/States</text>
<text text-anchor="middle" x="330.5" y="-85.5" font-family="Helvetica,sans-Serif" font-size="10.00">/game_over_state.h</text>
</a>
</g>
</g>
<!-- Node1&#45;&gt;Node4 -->
<g id="edge25" class="edge">
<title>Node1&#45;&gt;Node4</title>
<path fill="none" stroke="midnightblue" d="M526.08,-321.32C451.38,-307.08 348.89,-274.09 299.5,-198 283.66,-173.6 300.56,-140.54 314.93,-119.74"/>
<polygon fill="midnightblue" stroke="midnightblue" points="525.5,-324.77 535.97,-323.13 526.76,-317.89 525.5,-324.77"/>
</g>
<!-- Node7 -->
<g id="node7" class="node">
<title>Node7</title>
<g id="a_node7"><a xlink:href="game__play__state_8h.html" target="_top" xlink:title=" ">
<polygon fill="none" stroke="black" points="0,-78.5 0,-119.5 157,-119.5 157,-78.5 0,-78.5"/>
<text text-anchor="start" x="8" y="-107.5" font-family="Helvetica,sans-Serif" font-size="10.00">/home/fnky/C0de/component</text>
<text text-anchor="start" x="8" y="-96.5" font-family="Helvetica,sans-Serif" font-size="10.00">_engine/include/States</text>
<text text-anchor="middle" x="78.5" y="-85.5" font-family="Helvetica,sans-Serif" font-size="10.00">/game_play_state.h</text>
</a>
</g>
</g>
<!-- Node1&#45;&gt;Node7 -->
<g id="edge26" class="edge">
<title>Node1&#45;&gt;Node7</title>
<path fill="none" stroke="midnightblue" d="M525.5,-324.29C467.57,-316.95 391.39,-302.84 328.5,-276 234.52,-235.89 140.52,-156.59 99.67,-119.71"/>
<polygon fill="midnightblue" stroke="midnightblue" points="525.38,-327.8 535.73,-325.54 526.23,-320.85 525.38,-327.8"/>
</g>
<!-- Node9 -->
<g id="node9" class="node">
<title>Node9</title>
<g id="a_node9"><a xlink:href="loading__play__state_8h.html" target="_top" xlink:title=" ">
<polygon fill="none" stroke="black" points="680,-78.5 680,-119.5 837,-119.5 837,-78.5 680,-78.5"/>
<text text-anchor="start" x="688" y="-107.5" font-family="Helvetica,sans-Serif" font-size="10.00">/home/fnky/C0de/component</text>
<text text-anchor="start" x="688" y="-96.5" font-family="Helvetica,sans-Serif" font-size="10.00">_engine/include/States</text>
<text text-anchor="middle" x="758.5" y="-85.5" font-family="Helvetica,sans-Serif" font-size="10.00">/loading_play_state.h</text>
</a>
</g>
</g>
<!-- Node1&#45;&gt;Node9 -->
<g id="edge27" class="edge">
<title>Node1&#45;&gt;Node9</title>
<path fill="none" stroke="midnightblue" d="M644.02,-305.32C652.84,-296.5 662.12,-286.29 669.5,-276 707.02,-223.7 737.43,-153.3 750.94,-119.59"/>
<polygon fill="midnightblue" stroke="midnightblue" points="641.5,-302.89 636.77,-312.37 646.38,-307.91 641.5,-302.89"/>
</g>
<!-- Node11 -->
<g id="node11" class="node">
<title>Node11</title>
<g id="a_node11"><a xlink:href="main__menu__state_8h.html" target="_top" xlink:title=" ">
<polygon fill="none" stroke="black" points="894,-78.5 894,-119.5 1051,-119.5 1051,-78.5 894,-78.5"/>
<text text-anchor="start" x="902" y="-107.5" font-family="Helvetica,sans-Serif" font-size="10.00">/home/fnky/C0de/component</text>
<text text-anchor="start" x="902" y="-96.5" font-family="Helvetica,sans-Serif" font-size="10.00">_engine/include/States</text>
<text text-anchor="middle" x="972.5" y="-85.5" font-family="Helvetica,sans-Serif" font-size="10.00">/main_menu_state.h</text>
</a>
</g>
</g>
<!-- Node1&#45;&gt;Node11 -->
<g id="edge28" class="edge">
<title>Node1&#45;&gt;Node11</title>
<path fill="none" stroke="midnightblue" d="M653.49,-306.73C725.39,-260.14 877.46,-161.59 942.24,-119.61"/>
<polygon fill="midnightblue" stroke="midnightblue" points="651.2,-304.04 644.71,-312.42 655.01,-309.92 651.2,-304.04"/>
</g>
<!-- Node13 -->
<g id="node13" class="node">
<title>Node13</title>
<g id="a_node13"><a xlink:href="splash__state_8h.html" target="_top" xlink:title=" ">
<polygon fill="none" stroke="black" points="466,-78.5 466,-119.5 623,-119.5 623,-78.5 466,-78.5"/>
<text text-anchor="start" x="474" y="-107.5" font-family="Helvetica,sans-Serif" font-size="10.00">/home/fnky/C0de/component</text>
<text text-anchor="start" x="474" y="-96.5" font-family="Helvetica,sans-Serif" font-size="10.00">_engine/include/States</text>
<text text-anchor="middle" x="544.5" y="-85.5" font-family="Helvetica,sans-Serif" font-size="10.00">/splash_state.h</text>
</a>
</g>
</g>
<!-- Node1&#45;&gt;Node13 -->
<g id="edge29" class="edge">
<title>Node1&#45;&gt;Node13</title>
<path fill="none" stroke="midnightblue" d="M636.28,-303.92C641.68,-295.42 646.71,-285.73 649.5,-276 664.2,-224.73 676.94,-201.73 649.5,-156 639.77,-139.79 623.59,-128.01 606.8,-119.57"/>
<polygon fill="midnightblue" stroke="midnightblue" points="633.31,-302.07 630.61,-312.32 639.11,-305.99 633.31,-302.07"/>
</g>
<!-- Node3 -->
<g id="node3" class="node">
<title>Node3</title>
<g id="a_node3"><a xlink:href="GameData_8h.html" target="_top" xlink:title=" ">
<polygon fill="none" stroke="black" points="483,-156.5 483,-197.5 640,-197.5 640,-156.5 483,-156.5"/>
<text text-anchor="start" x="491" y="-185.5" font-family="Helvetica,sans-Serif" font-size="10.00">/home/fnky/C0de/component</text>
<text text-anchor="start" x="491" y="-174.5" font-family="Helvetica,sans-Serif" font-size="10.00">_engine/include/GameData</text>
<text text-anchor="middle" x="561.5" y="-163.5" font-family="Helvetica,sans-Serif" font-size="10.00">/GameData.h</text>
</a>
</g>
</g>
<!-- Node2&#45;&gt;Node3 -->
<g id="edge2" class="edge">
<title>Node2&#45;&gt;Node3</title>
<path fill="none" stroke="midnightblue" d="M561.5,-224.3C561.5,-215.3 561.5,-205.65 561.5,-197.51"/>
<polygon fill="midnightblue" stroke="midnightblue" points="558,-224.43 561.5,-234.43 565,-224.43 558,-224.43"/>
</g>
<!-- Node15 -->
<g id="node15" class="node">
<title>Node15</title>
<g id="a_node15"><a xlink:href="state__machine_8cpp.html" target="_top" xlink:title=" ">
<polygon fill="none" stroke="black" points="308,-156.5 308,-197.5 465,-197.5 465,-156.5 308,-156.5"/>
<text text-anchor="start" x="316" y="-185.5" font-family="Helvetica,sans-Serif" font-size="10.00">/home/fnky/C0de/component</text>
<text text-anchor="start" x="316" y="-174.5" font-family="Helvetica,sans-Serif" font-size="10.00">_engine/src/States/state</text>
<text text-anchor="middle" x="386.5" y="-163.5" font-family="Helvetica,sans-Serif" font-size="10.00">_machine.cpp</text>
</a>
</g>
</g>
<!-- Node2&#45;&gt;Node15 -->
<g id="edge24" class="edge">
<title>Node2&#45;&gt;Node15</title>
<path fill="none" stroke="midnightblue" d="M506.99,-230.33C482.71,-219.78 454.46,-207.51 431.41,-197.51"/>
<polygon fill="midnightblue" stroke="midnightblue" points="505.87,-233.65 516.43,-234.43 508.65,-227.23 505.87,-233.65"/>
</g>
<!-- Node3&#45;&gt;Node4 -->
<g id="edge3" class="edge">
<title>Node3&#45;&gt;Node4</title>
<path fill="none" stroke="midnightblue" d="M492.09,-153.17C459.48,-142.44 421.01,-129.78 389.79,-119.51"/>
<polygon fill="midnightblue" stroke="midnightblue" points="491.42,-156.63 502.01,-156.43 493.61,-149.98 491.42,-156.63"/>
</g>
<!-- Node5 -->
<g id="node5" class="node">
<title>Node5</title>
<g id="a_node5"><a xlink:href="main_8cpp.html" target="_top" xlink:title=" ">
<polygon fill="none" stroke="black" points="555,-6 555,-36 712,-36 712,-6 555,-6"/>
<text text-anchor="start" x="563" y="-24" font-family="Helvetica,sans-Serif" font-size="10.00">/home/fnky/C0de/component</text>
<text text-anchor="middle" x="633.5" y="-13" font-family="Helvetica,sans-Serif" font-size="10.00">_engine/src/main.cpp</text>
</a>
</g>
</g>
<!-- Node3&#45;&gt;Node5 -->
<g id="edge18" class="edge">
<title>Node3&#45;&gt;Node5</title>
<path fill="none" stroke="midnightblue" d="M606.24,-150.53C616.75,-142.24 626.6,-132.01 632.5,-120 645.85,-92.82 641.12,-56.06 637,-36.18"/>
<polygon fill="midnightblue" stroke="midnightblue" points="604.12,-147.75 598.13,-156.49 608.26,-153.39 604.12,-147.75"/>
</g>
<!-- Node6 -->
<g id="node6" class="node">
<title>Node6</title>
<g id="a_node6"><a xlink:href="game__over__state_8cpp.html" target="_top" xlink:title=" ">
<polygon fill="none" stroke="black" points="192,-0.5 192,-41.5 349,-41.5 349,-0.5 192,-0.5"/>
<text text-anchor="start" x="200" y="-29.5" font-family="Helvetica,sans-Serif" font-size="10.00">/home/fnky/C0de/component</text>
<text text-anchor="start" x="200" y="-18.5" font-family="Helvetica,sans-Serif" font-size="10.00">_engine/src/States/game</text>
<text text-anchor="middle" x="270.5" y="-7.5" font-family="Helvetica,sans-Serif" font-size="10.00">_over_state.cpp</text>
</a>
</g>
</g>
<!-- Node3&#45;&gt;Node6 -->
<g id="edge19" class="edge">
<title>Node3&#45;&gt;Node6</title>
<path fill="none" stroke="midnightblue" d="M472.71,-156.03C408.09,-147.42 274.66,-157.53 242.5,-120 223.39,-97.69 240.84,-63.11 255.46,-41.55"/>
<polygon fill="midnightblue" stroke="midnightblue" points="472.41,-159.52 482.83,-157.65 473.51,-152.61 472.41,-159.52"/>
</g>
<!-- Node3&#45;&gt;Node7 -->
<g id="edge6" class="edge">
<title>Node3&#45;&gt;Node7</title>
<path fill="none" stroke="midnightblue" d="M472.65,-155.77C339.09,-133.22 302.01,-141.74 171.5,-120 166.78,-119.21 161.93,-118.35 157.05,-117.43"/>
<polygon fill="midnightblue" stroke="midnightblue" points="472.41,-159.28 482.86,-157.52 473.59,-152.38 472.41,-159.28"/>
</g>
<!-- Node8 -->
<g id="node8" class="node">
<title>Node8</title>
<g id="a_node8"><a xlink:href="game__play__state_8cpp.html" target="_top" xlink:title=" ">
<polygon fill="none" stroke="black" points="13,-0.5 13,-41.5 170,-41.5 170,-0.5 13,-0.5"/>
<text text-anchor="start" x="21" y="-29.5" font-family="Helvetica,sans-Serif" font-size="10.00">/home/fnky/C0de/component</text>
<text text-anchor="start" x="21" y="-18.5" font-family="Helvetica,sans-Serif" font-size="10.00">_engine/src/States/game</text>
<text text-anchor="middle" x="91.5" y="-7.5" font-family="Helvetica,sans-Serif" font-size="10.00">_play_state.cpp</text>
</a>
</g>
</g>
<!-- Node3&#45;&gt;Node8 -->
<g id="edge20" class="edge">
<title>Node3&#45;&gt;Node8</title>
<path fill="none" stroke="midnightblue" d="M472.84,-155.81C364.7,-137.11 329.3,-159.5 230.5,-120 218.2,-115.08 154.81,-68.88 118.02,-41.71"/>
<polygon fill="midnightblue" stroke="midnightblue" points="472.37,-159.29 482.84,-157.62 473.62,-152.4 472.37,-159.29"/>
</g>
<!-- Node3&#45;&gt;Node9 -->
<g id="edge9" class="edge">
<title>Node3&#45;&gt;Node9</title>
<path fill="none" stroke="midnightblue" d="M621.77,-152.75C649.35,-142.11 681.66,-129.65 707.94,-119.51"/>
<polygon fill="midnightblue" stroke="midnightblue" points="620.3,-149.56 612.23,-156.43 622.82,-156.09 620.3,-149.56"/>
</g>
<!-- Node10 -->
<g id="node10" class="node">
<title>Node10</title>
<g id="a_node10"><a xlink:href="loading__play__state_8cpp.html" target="_top" xlink:title=" ">
<polygon fill="none" stroke="black" points="735,-0.5 735,-41.5 892,-41.5 892,-0.5 735,-0.5"/>
<text text-anchor="start" x="743" y="-29.5" font-family="Helvetica,sans-Serif" font-size="10.00">/home/fnky/C0de/component</text>
<text text-anchor="start" x="743" y="-18.5" font-family="Helvetica,sans-Serif" font-size="10.00">_engine/src/States/loading</text>
<text text-anchor="middle" x="813.5" y="-7.5" font-family="Helvetica,sans-Serif" font-size="10.00">_play_state.cpp</text>
</a>
</g>
</g>
<!-- Node3&#45;&gt;Node10 -->
<g id="edge21" class="edge">
<title>Node3&#45;&gt;Node10</title>
<path fill="none" stroke="midnightblue" d="M650.46,-170.6C724.61,-164.03 821.95,-149.85 846.5,-120 865.32,-97.12 846.17,-63.03 830.18,-41.67"/>
<polygon fill="midnightblue" stroke="midnightblue" points="649.83,-167.14 640.16,-171.48 650.42,-174.12 649.83,-167.14"/>
</g>
<!-- Node3&#45;&gt;Node11 -->
<g id="edge12" class="edge">
<title>Node3&#45;&gt;Node11</title>
<path fill="none" stroke="midnightblue" d="M650.1,-161.31C713.98,-150.5 802.21,-135.11 879.5,-120 884.2,-119.08 889.03,-118.11 893.9,-117.12"/>
<polygon fill="midnightblue" stroke="midnightblue" points="649.34,-157.89 640.06,-163.01 650.51,-164.79 649.34,-157.89"/>
</g>
<!-- Node12 -->
<g id="node12" class="node">
<title>Node12</title>
<g id="a_node12"><a xlink:href="main__menu__state_8cpp.html" target="_top" xlink:title=" ">
<polygon fill="none" stroke="black" points="912,-0.5 912,-41.5 1069,-41.5 1069,-0.5 912,-0.5"/>
<text text-anchor="start" x="920" y="-29.5" font-family="Helvetica,sans-Serif" font-size="10.00">/home/fnky/C0de/component</text>
<text text-anchor="start" x="920" y="-18.5" font-family="Helvetica,sans-Serif" font-size="10.00">_engine/src/States/main</text>
<text text-anchor="middle" x="990.5" y="-7.5" font-family="Helvetica,sans-Serif" font-size="10.00">_menu_state.cpp</text>
</a>
</g>
</g>
<!-- Node3&#45;&gt;Node12 -->
<g id="edge22" class="edge">
<title>Node3&#45;&gt;Node12</title>
<path fill="none" stroke="midnightblue" d="M650.24,-172.35C786.32,-165.83 1033.7,-149.98 1060.5,-120 1072.94,-106.08 1068.59,-94.82 1060.5,-78 1053.29,-62.99 1039.87,-50.75 1026.7,-41.58"/>
<polygon fill="midnightblue" stroke="midnightblue" points="650.07,-168.86 640.24,-172.82 650.4,-175.85 650.07,-168.86"/>
</g>
<!-- Node3&#45;&gt;Node13 -->
<g id="edge15" class="edge">
<title>Node3&#45;&gt;Node13</title>
<path fill="none" stroke="midnightblue" d="M554.92,-146.59C552.89,-137.51 550.71,-127.74 548.86,-119.51"/>
<polygon fill="midnightblue" stroke="midnightblue" points="551.52,-147.43 557.12,-156.43 558.35,-145.91 551.52,-147.43"/>
</g>
<!-- Node14 -->
<g id="node14" class="node">
<title>Node14</title>
<g id="a_node14"><a xlink:href="splash__state_8cpp.html" target="_top" xlink:title=" ">
<polygon fill="none" stroke="black" points="369,-0.5 369,-41.5 526,-41.5 526,-0.5 369,-0.5"/>
<text text-anchor="start" x="377" y="-29.5" font-family="Helvetica,sans-Serif" font-size="10.00">/home/fnky/C0de/component</text>
<text text-anchor="start" x="377" y="-18.5" font-family="Helvetica,sans-Serif" font-size="10.00">_engine/src/States/splash</text>
<text text-anchor="middle" x="447.5" y="-7.5" font-family="Helvetica,sans-Serif" font-size="10.00">_state.cpp</text>
</a>
</g>
</g>
<!-- Node3&#45;&gt;Node14 -->
<g id="edge23" class="edge">
<title>Node3&#45;&gt;Node14</title>
<path fill="none" stroke="midnightblue" d="M493.22,-151.57C479.36,-143.56 466.33,-133.22 457.5,-120 441.91,-96.68 442.19,-63.02 444.41,-41.84"/>
<polygon fill="midnightblue" stroke="midnightblue" points="491.94,-154.85 502.41,-156.49 495.25,-148.69 491.94,-154.85"/>
</g>
<!-- Node4&#45;&gt;Node5 -->
<g id="edge4" class="edge">
<title>Node4&#45;&gt;Node5</title>
<path fill="none" stroke="midnightblue" d="M418.28,-75.98C469.52,-63.13 532.66,-47.29 577.26,-36.11"/>
<polygon fill="midnightblue" stroke="midnightblue" points="417.38,-72.6 408.53,-78.43 419.08,-79.39 417.38,-72.6"/>
</g>
<!-- Node4&#45;&gt;Node6 -->
<g id="edge5" class="edge">
<title>Node4&#45;&gt;Node6</title>
<path fill="none" stroke="midnightblue" d="M308.66,-70.34C301.11,-60.78 292.82,-50.27 285.9,-41.51"/>
<polygon fill="midnightblue" stroke="midnightblue" points="306.1,-72.75 315.05,-78.43 311.6,-68.41 306.1,-72.75"/>
</g>
<!-- Node7&#45;&gt;Node5 -->
<g id="edge7" class="edge">
<title>Node7&#45;&gt;Node5</title>
<path fill="none" stroke="midnightblue" d="M167.2,-87.18C298.83,-71.11 530.98,-42.74 535.5,-42 546.21,-40.25 557.53,-38.17 568.53,-36.01"/>
<polygon fill="midnightblue" stroke="midnightblue" points="166.62,-83.72 157.12,-88.41 167.47,-90.67 166.62,-83.72"/>
</g>
<!-- Node7&#45;&gt;Node8 -->
<g id="edge8" class="edge">
<title>Node7&#45;&gt;Node8</title>
<path fill="none" stroke="midnightblue" d="M83.58,-68.3C85.12,-59.3 86.77,-49.65 88.16,-41.51"/>
<polygon fill="midnightblue" stroke="midnightblue" points="80.08,-67.98 81.85,-78.43 86.98,-69.16 80.08,-67.98"/>
</g>
<!-- Node9&#45;&gt;Node5 -->
<g id="edge10" class="edge">
<title>Node9&#45;&gt;Node5</title>
<path fill="none" stroke="midnightblue" d="M717.63,-73.15C697.5,-60.91 673.95,-46.59 656.9,-36.23"/>
<polygon fill="midnightblue" stroke="midnightblue" points="715.95,-76.22 726.31,-78.43 719.58,-70.24 715.95,-76.22"/>
</g>
<!-- Node9&#45;&gt;Node10 -->
<g id="edge11" class="edge">
<title>Node9&#45;&gt;Node10</title>
<path fill="none" stroke="midnightblue" d="M778.73,-70.05C785.59,-60.57 793.1,-50.18 799.38,-41.51"/>
<polygon fill="midnightblue" stroke="midnightblue" points="775.69,-68.27 772.66,-78.43 781.36,-72.38 775.69,-68.27"/>
</g>
<!-- Node11&#45;&gt;Node5 -->
<g id="edge13" class="edge">
<title>Node11&#45;&gt;Node5</title>
<path fill="none" stroke="midnightblue" d="M883.82,-78.12C824.86,-64.9 748.86,-47.86 696.15,-36.04"/>
<polygon fill="midnightblue" stroke="midnightblue" points="883.35,-81.6 893.87,-80.37 884.88,-74.77 883.35,-81.6"/>
</g>
<!-- Node11&#45;&gt;Node12 -->
<g id="edge14" class="edge">
<title>Node11&#45;&gt;Node12</title>
<path fill="none" stroke="midnightblue" d="M979.47,-68.59C981.62,-59.51 983.93,-49.74 985.88,-41.51"/>
<polygon fill="midnightblue" stroke="midnightblue" points="976.03,-67.89 977.14,-78.43 982.85,-69.5 976.03,-67.89"/>
</g>
<!-- Node13&#45;&gt;Node5 -->
<g id="edge16" class="edge">
<title>Node13&#45;&gt;Node5</title>
<path fill="none" stroke="midnightblue" d="M575.35,-71.66C589.28,-59.76 605.19,-46.18 616.84,-36.23"/>
<polygon fill="midnightblue" stroke="midnightblue" points="572.75,-69.27 567.42,-78.43 577.3,-74.6 572.75,-69.27"/>
</g>
<!-- Node13&#45;&gt;Node14 -->
<g id="edge17" class="edge">
<title>Node13&#45;&gt;Node14</title>
<path fill="none" stroke="midnightblue" d="M511.4,-72.06C498.63,-62.06 484.26,-50.8 472.4,-41.51"/>
<polygon fill="midnightblue" stroke="midnightblue" points="509.49,-75.02 519.52,-78.43 513.81,-69.51 509.49,-75.02"/>
</g>
</g>
</svg>
