<?xml version="1.0" encoding="UTF-8" standalone="no"?>
<!DOCTYPE svg PUBLIC "-//W3C//DTD SVG 1.1//EN"
 "http://www.w3.org/Graphics/SVG/1.1/DTD/svg11.dtd">
<!-- Generated by graphviz version 2.43.0 (0)
 -->
<!-- Title: ImGuiGroupData Pages: 1 -->
<svg width="277pt" height="303pt"
 viewBox="0.00 0.00 276.50 303.00" xmlns="http://www.w3.org/2000/svg" xmlns:xlink="http://www.w3.org/1999/xlink">
<g id="graph0" class="graph" transform="scale(1 1) rotate(0) translate(4 299)">
<title>ImGuiGroupData</title>
<!-- Node1 -->
<g id="node1" class="node">
<title>Node1</title>
<g id="a_node1"><a xlink:title=" ">
<polygon fill="#bfbfbf" stroke="black" points="11,-0.5 11,-123.5 188,-123.5 188,-0.5 11,-0.5"/>
<text text-anchor="middle" x="99.5" y="-111.5" font-family="Helvetica,sans-Serif" font-size="10.00">ImGuiGroupData</text>
<polyline fill="none" stroke="black" points="11,-104.5 188,-104.5 "/>
<text text-anchor="start" x="19" y="-92.5" font-family="Helvetica,sans-Serif" font-size="10.00">+ WindowID</text>
<text text-anchor="start" x="19" y="-81.5" font-family="Helvetica,sans-Serif" font-size="10.00">+ BackupCurrLineTextBaseOffset</text>
<text text-anchor="start" x="19" y="-70.5" font-family="Helvetica,sans-Serif" font-size="10.00">+ BackupActiveIdIsAlive</text>
<text text-anchor="start" x="19" y="-59.5" font-family="Helvetica,sans-Serif" font-size="10.00">+ BackupActiveIdPreviousFrame</text>
<text text-anchor="start" x="19" y="-48.5" font-family="Helvetica,sans-Serif" font-size="10.00">IsAlive</text>
<text text-anchor="start" x="19" y="-37.5" font-family="Helvetica,sans-Serif" font-size="10.00">+ BackupHoveredIdIsAlive</text>
<text text-anchor="start" x="19" y="-26.5" font-family="Helvetica,sans-Serif" font-size="10.00">+ EmitItem</text>
<polyline fill="none" stroke="black" points="11,-19.5 188,-19.5 "/>
<text text-anchor="middle" x="99.5" y="-7.5" font-family="Helvetica,sans-Serif" font-size="10.00"> </text>
</a>
</g>
</g>
<!-- Node2 -->
<g id="node2" class="node">
<title>Node2</title>
<g id="a_node2"><a xlink:href="structImVec1.html" target="_top" xlink:title=" ">
<polygon fill="none" stroke="black" points="0,-210 0,-278 71,-278 71,-210 0,-210"/>
<text text-anchor="middle" x="35.5" y="-266" font-family="Helvetica,sans-Serif" font-size="10.00">ImVec1</text>
<polyline fill="none" stroke="black" points="0,-259 71,-259 "/>
<text text-anchor="start" x="8" y="-247" font-family="Helvetica,sans-Serif" font-size="10.00">+ x</text>
<polyline fill="none" stroke="black" points="0,-240 71,-240 "/>
<text text-anchor="start" x="8" y="-228" font-family="Helvetica,sans-Serif" font-size="10.00">+ ImVec1()</text>
<text text-anchor="start" x="8" y="-217" font-family="Helvetica,sans-Serif" font-size="10.00">+ ImVec1()</text>
</a>
</g>
</g>
<!-- Node2&#45;&gt;Node1 -->
<g id="edge1" class="edge">
<title>Node2&#45;&gt;Node1</title>
<path fill="none" stroke="#404040" d="M30.48,-209.76C28.72,-189.58 28.81,-163.64 36.5,-142 37.41,-139.45 38.43,-136.92 39.56,-134.41"/>
<polygon fill="none" stroke="#404040" points="39.62,-134.3 38.81,-127.14 45.11,-123.63 45.92,-130.8 39.62,-134.3"/>
<text text-anchor="middle" x="89.5" y="-161.5" font-family="Helvetica,sans-Serif" font-size="10.00"> +BackupGroupOffset</text>
<text text-anchor="middle" x="89.5" y="-150.5" font-family="Helvetica,sans-Serif" font-size="10.00">+BackupIndent</text>
</g>
<!-- Node3 -->
<g id="node3" class="node">
<title>Node3</title>
<g id="a_node3"><a xlink:href="structImVec2.html" target="_top" xlink:title=" ">
<polygon fill="none" stroke="black" points="122.5,-193.5 122.5,-294.5 206.5,-294.5 206.5,-193.5 122.5,-193.5"/>
<text text-anchor="middle" x="164.5" y="-282.5" font-family="Helvetica,sans-Serif" font-size="10.00">ImVec2</text>
<polyline fill="none" stroke="black" points="122.5,-275.5 206.5,-275.5 "/>
<text text-anchor="start" x="130.5" y="-263.5" font-family="Helvetica,sans-Serif" font-size="10.00">+ x</text>
<text text-anchor="start" x="130.5" y="-252.5" font-family="Helvetica,sans-Serif" font-size="10.00">+ y</text>
<polyline fill="none" stroke="black" points="122.5,-245.5 206.5,-245.5 "/>
<text text-anchor="start" x="130.5" y="-233.5" font-family="Helvetica,sans-Serif" font-size="10.00">+ ImVec2()</text>
<text text-anchor="start" x="130.5" y="-222.5" font-family="Helvetica,sans-Serif" font-size="10.00">+ ImVec2()</text>
<text text-anchor="start" x="130.5" y="-211.5" font-family="Helvetica,sans-Serif" font-size="10.00">+ operator[]()</text>
<text text-anchor="start" x="130.5" y="-200.5" font-family="Helvetica,sans-Serif" font-size="10.00">+ operator[]()</text>
</a>
</g>
</g>
<!-- Node3&#45;&gt;Node1 -->
<g id="edge2" class="edge">
<title>Node3&#45;&gt;Node1</title>
<path fill="none" stroke="#404040" d="M156.61,-193.39C153.2,-176.76 148.57,-158.31 142.5,-142 141.63,-139.66 140.7,-137.3 139.72,-134.93"/>
<polygon fill="none" stroke="#404040" points="139.68,-134.85 133.59,-130.98 134.82,-123.87 140.9,-127.74 139.68,-134.85"/>
<text text-anchor="middle" x="210" y="-167" font-family="Helvetica,sans-Serif" font-size="10.00"> +BackupCursorMaxPos</text>
<text text-anchor="middle" x="210" y="-156" font-family="Helvetica,sans-Serif" font-size="10.00">+BackupCurrLineSize</text>
<text text-anchor="middle" x="210" y="-145" font-family="Helvetica,sans-Serif" font-size="10.00">+BackupCursorPos</text>
</g>
</g>
</svg>
