<?xml version="1.0" encoding="UTF-8" standalone="no"?>
<!DOCTYPE svg PUBLIC "-//W3C//DTD SVG 1.1//EN"
 "http://www.w3.org/Graphics/SVG/1.1/DTD/svg11.dtd">
<!-- Generated by graphviz version 2.43.0 (0)
 -->
<!-- Title: ImFontBuildSrcData Pages: 1 -->
<!--zoomable 650 -->
<svg id="main" version="1.1" xmlns="http://www.w3.org/2000/svg" xmlns:xlink="http://www.w3.org/1999/xlink" xml:space="preserve" onload="init(evt)">
<style type="text/css"><![CDATA[
.edge:hover path { stroke: red; }
.edge:hover polygon { stroke: red; fill: red; }
]]></style>
<script type="text/javascript"><![CDATA[
var edges = document.getElementsByTagName('g');
if (edges && edges.length) {
  for (var i=0;i<edges.length;i++) {
    if (edges[i].id.substr(0,4)=='edge') {
      edges[i].setAttribute('class','edge');
    }
  }
}
]]></script>
        <defs>
                <circle id="rim" cx="0" cy="0" r="7"/>
                <circle id="rim2" cx="0" cy="0" r="3.5"/>
                <g id="zoomPlus">
                        <use xlink:href="#rim" fill="#404040">
                                <set attributeName="fill" to="#808080" begin="zoomplus.mouseover" end="zoomplus.mouseout"/>
                        </use>
                        <path d="M-4,0h8M0,-4v8" fill="none" stroke="white" stroke-width="1.5" pointer-events="none"/>
                </g>
                <g id="zoomMin">
                        <use xlink:href="#rim" fill="#404040">
                                <set attributeName="fill" to="#808080" begin="zoomminus.mouseover" end="zoomminus.mouseout"/>
                        </use>
                        <path d="M-4,0h8" fill="none" stroke="white" stroke-width="1.5" pointer-events="none"/>
                </g>
                <g id="dirArrow">
                        <path fill="none" stroke="white" stroke-width="1.5" d="M0,-3.0v7 M-2.5,-0.5L0,-3.0L2.5,-0.5"/>
                </g>
               <g id="resetDef">
                       <use xlink:href="#rim2" fill="#404040">
                               <set attributeName="fill" to="#808080" begin="reset.mouseover" end="reset.mouseout"/>
                       </use>
               </g>
        </defs>

<script type="text/javascript">
var viewWidth = 762;
var viewHeight = 650;
var sectionId = 'dynsection-0';
</script>
<script xlink:href="svgpan.js"/>
<svg id="graph" class="graph">
<g id="viewport">
<title>ImFontBuildSrcData</title>
<!-- Node1 -->
<g id="node1" class="node">
<title>Node1</title>
<g id="a_node1"><a xlink:title=" ">
<polygon fill="#bfbfbf" stroke="black" points="274,-0.5 274,-90.5 387,-90.5 387,-0.5 274,-0.5"/>
<text text-anchor="middle" x="330.5" y="-78.5" font-family="Helvetica,sans-Serif" font-size="10.00">ImFontBuildSrcData</text>
<polyline fill="none" stroke="black" points="274,-71.5 387,-71.5 "/>
<text text-anchor="start" x="282" y="-59.5" font-family="Helvetica,sans-Serif" font-size="10.00">+ SrcRanges</text>
<text text-anchor="start" x="282" y="-48.5" font-family="Helvetica,sans-Serif" font-size="10.00">+ DstIndex</text>
<text text-anchor="start" x="282" y="-37.5" font-family="Helvetica,sans-Serif" font-size="10.00">+ GlyphsHighest</text>
<text text-anchor="start" x="282" y="-26.5" font-family="Helvetica,sans-Serif" font-size="10.00">+ GlyphsCount</text>
<polyline fill="none" stroke="black" points="274,-19.5 387,-19.5 "/>
<text text-anchor="middle" x="330.5" y="-7.5" font-family="Helvetica,sans-Serif" font-size="10.00"> </text>
</a>
</g>
</g>
<!-- Node2 -->
<g id="node2" class="node">
<title>Node2</title>
<g id="a_node2"><a xlink:href="structImBitVector.html" target="_top" xlink:title=" ">
<polygon fill="none" stroke="black" points="20.5,-188 20.5,-289 94.5,-289 94.5,-188 20.5,-188"/>
<text text-anchor="middle" x="57.5" y="-277" font-family="Helvetica,sans-Serif" font-size="10.00">ImBitVector</text>
<polyline fill="none" stroke="black" points="20.5,-270 94.5,-270 "/>
<text text-anchor="middle" x="57.5" y="-258" font-family="Helvetica,sans-Serif" font-size="10.00"> </text>
<polyline fill="none" stroke="black" points="20.5,-251 94.5,-251 "/>
<text text-anchor="start" x="28.5" y="-239" font-family="Helvetica,sans-Serif" font-size="10.00">+ Create()</text>
<text text-anchor="start" x="28.5" y="-228" font-family="Helvetica,sans-Serif" font-size="10.00">+ Clear()</text>
<text text-anchor="start" x="28.5" y="-217" font-family="Helvetica,sans-Serif" font-size="10.00">+ TestBit()</text>
<text text-anchor="start" x="28.5" y="-206" font-family="Helvetica,sans-Serif" font-size="10.00">+ SetBit()</text>
<text text-anchor="start" x="28.5" y="-195" font-family="Helvetica,sans-Serif" font-size="10.00">+ ClearBit()</text>
</a>
</g>
</g>
<!-- Node2&#45;&gt;Node1 -->
<g id="edge1" class="edge">
<title>Node2&#45;&gt;Node1</title>
<path fill="none" stroke="#404040" d="M71.93,-187.84C79.08,-170.26 89.3,-151.51 103.5,-138 147.3,-96.33 212.52,-72.72 261.83,-59.96"/>
<polygon fill="none" stroke="#404040" points="262.04,-59.91 266.9,-54.58 273.69,-57.02 268.82,-62.35 262.04,-59.91"/>
<text text-anchor="middle" x="171" y="-112" font-family="Helvetica,sans-Serif" font-size="10.00"> +GlyphsSet</text>
</g>
<!-- Node3 -->
<g id="node3" class="node">
<title>Node3</title>
<g id="a_node3"><a xlink:href="structImVector.html" target="_top" xlink:title=" ">
<polygon fill="none" stroke="black" points="0,-441.5 0,-641.5 115,-641.5 115,-441.5 0,-441.5"/>
<text text-anchor="middle" x="57.5" y="-629.5" font-family="Helvetica,sans-Serif" font-size="10.00">ImVector&lt; ImU32 &gt;</text>
<polyline fill="none" stroke="black" points="0,-622.5 115,-622.5 "/>
<text text-anchor="start" x="8" y="-610.5" font-family="Helvetica,sans-Serif" font-size="10.00">+ const_iterator</text>
<text text-anchor="start" x="8" y="-599.5" font-family="Helvetica,sans-Serif" font-size="10.00">+ Size</text>
<text text-anchor="start" x="8" y="-588.5" font-family="Helvetica,sans-Serif" font-size="10.00">+ Capacity</text>
<text text-anchor="start" x="8" y="-577.5" font-family="Helvetica,sans-Serif" font-size="10.00">+ Data</text>
<polyline fill="none" stroke="black" points="0,-570.5 115,-570.5 "/>
<text text-anchor="start" x="8" y="-558.5" font-family="Helvetica,sans-Serif" font-size="10.00">+ ImVector()</text>
<text text-anchor="start" x="8" y="-547.5" font-family="Helvetica,sans-Serif" font-size="10.00">+ ImVector()</text>
<text text-anchor="start" x="8" y="-536.5" font-family="Helvetica,sans-Serif" font-size="10.00">+ operator=()</text>
<text text-anchor="start" x="8" y="-525.5" font-family="Helvetica,sans-Serif" font-size="10.00">+ ~ImVector()</text>
<text text-anchor="start" x="8" y="-514.5" font-family="Helvetica,sans-Serif" font-size="10.00">+ clear()</text>
<text text-anchor="start" x="8" y="-503.5" font-family="Helvetica,sans-Serif" font-size="10.00">+ clear_delete()</text>
<text text-anchor="start" x="8" y="-492.5" font-family="Helvetica,sans-Serif" font-size="10.00">+ clear_destruct()</text>
<text text-anchor="start" x="8" y="-481.5" font-family="Helvetica,sans-Serif" font-size="10.00">+ empty()</text>
<text text-anchor="start" x="8" y="-470.5" font-family="Helvetica,sans-Serif" font-size="10.00">+ size()</text>
<text text-anchor="start" x="8" y="-459.5" font-family="Helvetica,sans-Serif" font-size="10.00">+ size_in_bytes()</text>
<text text-anchor="start" x="8" y="-448.5" font-family="Helvetica,sans-Serif" font-size="10.00">and 32 more...</text>
</a>
</g>
</g>
<!-- Node3&#45;&gt;Node2 -->
<g id="edge2" class="edge">
<title>Node3&#45;&gt;Node2</title>
<path fill="none" stroke="#404040" d="M57.5,-441.11C57.5,-395.02 57.5,-341.67 57.5,-301.43"/>
<polygon fill="none" stroke="#404040" points="57.5,-301.39 53.5,-295.39 57.5,-289.39 61.5,-295.39 57.5,-301.39"/>
<text text-anchor="middle" x="82" y="-387.5" font-family="Helvetica,sans-Serif" font-size="10.00"> +Storage</text>
</g>
<!-- Node4 -->
<g id="node4" class="node">
<title>Node4</title>
<g id="a_node4"><a xlink:href="structstbtt__fontinfo.html" target="_top" xlink:title=" ">
<polygon fill="none" stroke="black" points="112.5,-138.5 112.5,-338.5 228.5,-338.5 228.5,-138.5 112.5,-138.5"/>
<text text-anchor="middle" x="170.5" y="-326.5" font-family="Helvetica,sans-Serif" font-size="10.00">stbtt_fontinfo</text>
<polyline fill="none" stroke="black" points="112.5,-319.5 228.5,-319.5 "/>
<text text-anchor="start" x="120.5" y="-307.5" font-family="Helvetica,sans-Serif" font-size="10.00">+ userdata</text>
<text text-anchor="start" x="120.5" y="-296.5" font-family="Helvetica,sans-Serif" font-size="10.00">+ data</text>
<text text-anchor="start" x="120.5" y="-285.5" font-family="Helvetica,sans-Serif" font-size="10.00">+ fontstart</text>
<text text-anchor="start" x="120.5" y="-274.5" font-family="Helvetica,sans-Serif" font-size="10.00">+ numGlyphs</text>
<text text-anchor="start" x="120.5" y="-263.5" font-family="Helvetica,sans-Serif" font-size="10.00">+ loca</text>
<text text-anchor="start" x="120.5" y="-252.5" font-family="Helvetica,sans-Serif" font-size="10.00">+ head</text>
<text text-anchor="start" x="120.5" y="-241.5" font-family="Helvetica,sans-Serif" font-size="10.00">+ glyf</text>
<text text-anchor="start" x="120.5" y="-230.5" font-family="Helvetica,sans-Serif" font-size="10.00">+ hhea</text>
<text text-anchor="start" x="120.5" y="-219.5" font-family="Helvetica,sans-Serif" font-size="10.00">+ hmtx</text>
<text text-anchor="start" x="120.5" y="-208.5" font-family="Helvetica,sans-Serif" font-size="10.00">+ kern</text>
<text text-anchor="start" x="120.5" y="-197.5" font-family="Helvetica,sans-Serif" font-size="10.00">+ gpos</text>
<text text-anchor="start" x="120.5" y="-186.5" font-family="Helvetica,sans-Serif" font-size="10.00">+ svg</text>
<text text-anchor="start" x="120.5" y="-175.5" font-family="Helvetica,sans-Serif" font-size="10.00">+ index_map</text>
<text text-anchor="start" x="120.5" y="-164.5" font-family="Helvetica,sans-Serif" font-size="10.00">+ indexToLocFormat</text>
<polyline fill="none" stroke="black" points="112.5,-157.5 228.5,-157.5 "/>
<text text-anchor="middle" x="170.5" y="-145.5" font-family="Helvetica,sans-Serif" font-size="10.00"> </text>
</a>
</g>
</g>
<!-- Node4&#45;&gt;Node1 -->
<g id="edge3" class="edge">
<title>Node4&#45;&gt;Node1</title>
<path fill="none" stroke="#404040" d="M228.63,-146.49C238.35,-133.43 248.78,-120.53 259.5,-109 262.53,-105.74 265.71,-102.47 268.98,-99.23"/>
<polygon fill="none" stroke="#404040" points="269.15,-99.07 270.7,-92.03 277.8,-90.75 276.25,-97.79 269.15,-99.07"/>
<text text-anchor="middle" x="285.5" y="-112" font-family="Helvetica,sans-Serif" font-size="10.00"> +FontInfo</text>
</g>
<!-- Node5 -->
<g id="node5" class="node">
<title>Node5</title>
<g id="a_node5"><a xlink:href="structstbtt____buf.html" target="_top" xlink:title=" ">
<polygon fill="none" stroke="black" points="138,-502 138,-581 203,-581 203,-502 138,-502"/>
<text text-anchor="middle" x="170.5" y="-569" font-family="Helvetica,sans-Serif" font-size="10.00">stbtt__buf</text>
<polyline fill="none" stroke="black" points="138,-562 203,-562 "/>
<text text-anchor="start" x="146" y="-550" font-family="Helvetica,sans-Serif" font-size="10.00">+ data</text>
<text text-anchor="start" x="146" y="-539" font-family="Helvetica,sans-Serif" font-size="10.00">+ cursor</text>
<text text-anchor="start" x="146" y="-528" font-family="Helvetica,sans-Serif" font-size="10.00">+ size</text>
<polyline fill="none" stroke="black" points="138,-521 203,-521 "/>
<text text-anchor="middle" x="170.5" y="-509" font-family="Helvetica,sans-Serif" font-size="10.00"> </text>
</a>
</g>
</g>
<!-- Node5&#45;&gt;Node4 -->
<g id="edge4" class="edge">
<title>Node5&#45;&gt;Node4</title>
<path fill="none" stroke="#404040" d="M170.5,-501.77C170.5,-463.69 170.5,-403.74 170.5,-350.77"/>
<polygon fill="none" stroke="#404040" points="170.5,-350.53 166.5,-344.53 170.5,-338.53 174.5,-344.53 170.5,-350.53"/>
<text text-anchor="middle" x="202" y="-415" font-family="Helvetica,sans-Serif" font-size="10.00"> +subrs</text>
<text text-anchor="middle" x="202" y="-404" font-family="Helvetica,sans-Serif" font-size="10.00">+fdselect</text>
<text text-anchor="middle" x="202" y="-393" font-family="Helvetica,sans-Serif" font-size="10.00">+fontdicts</text>
<text text-anchor="middle" x="202" y="-382" font-family="Helvetica,sans-Serif" font-size="10.00">+gsubrs</text>
<text text-anchor="middle" x="202" y="-371" font-family="Helvetica,sans-Serif" font-size="10.00">+cff</text>
<text text-anchor="middle" x="202" y="-360" font-family="Helvetica,sans-Serif" font-size="10.00">+charstrings</text>
</g>
<!-- Node6 -->
<g id="node6" class="node">
<title>Node6</title>
<g id="a_node6"><a xlink:href="structstbrp__rect.html" target="_top" xlink:title=" ">
<polygon fill="none" stroke="black" points="247,-182.5 247,-294.5 334,-294.5 334,-182.5 247,-182.5"/>
<text text-anchor="middle" x="290.5" y="-282.5" font-family="Helvetica,sans-Serif" font-size="10.00">stbrp_rect</text>
<polyline fill="none" stroke="black" points="247,-275.5 334,-275.5 "/>
<text text-anchor="start" x="255" y="-263.5" font-family="Helvetica,sans-Serif" font-size="10.00">+ id</text>
<text text-anchor="start" x="255" y="-252.5" font-family="Helvetica,sans-Serif" font-size="10.00">+ w</text>
<text text-anchor="start" x="255" y="-241.5" font-family="Helvetica,sans-Serif" font-size="10.00">+ h</text>
<text text-anchor="start" x="255" y="-230.5" font-family="Helvetica,sans-Serif" font-size="10.00">+ x</text>
<text text-anchor="start" x="255" y="-219.5" font-family="Helvetica,sans-Serif" font-size="10.00">+ y</text>
<text text-anchor="start" x="255" y="-208.5" font-family="Helvetica,sans-Serif" font-size="10.00">+ was_packed</text>
<polyline fill="none" stroke="black" points="247,-201.5 334,-201.5 "/>
<text text-anchor="middle" x="290.5" y="-189.5" font-family="Helvetica,sans-Serif" font-size="10.00"> </text>
</a>
</g>
</g>
<!-- Node6&#45;&gt;Node1 -->
<g id="edge5" class="edge">
<title>Node6&#45;&gt;Node1</title>
<path fill="none" stroke="#404040" d="M302.07,-182.25C307.3,-157.26 313.48,-127.76 318.74,-102.66"/>
<polygon fill="none" stroke="#404040" points="318.78,-102.47 316.09,-95.78 321.24,-90.72 323.92,-97.42 318.78,-102.47"/>
<text text-anchor="middle" x="336" y="-112" font-family="Helvetica,sans-Serif" font-size="10.00"> +Rects</text>
</g>
<!-- Node7 -->
<g id="node7" class="node">
<title>Node7</title>
<g id="a_node7"><a xlink:href="structstbtt__packedchar.html" target="_top" xlink:title=" ">
<polygon fill="none" stroke="black" points="372.5,-469 372.5,-614 472.5,-614 472.5,-469 372.5,-469"/>
<text text-anchor="middle" x="422.5" y="-602" font-family="Helvetica,sans-Serif" font-size="10.00">stbtt_packedchar</text>
<polyline fill="none" stroke="black" points="372.5,-595 472.5,-595 "/>
<text text-anchor="start" x="380.5" y="-583" font-family="Helvetica,sans-Serif" font-size="10.00">+ x0</text>
<text text-anchor="start" x="380.5" y="-572" font-family="Helvetica,sans-Serif" font-size="10.00">+ y0</text>
<text text-anchor="start" x="380.5" y="-561" font-family="Helvetica,sans-Serif" font-size="10.00">+ x1</text>
<text text-anchor="start" x="380.5" y="-550" font-family="Helvetica,sans-Serif" font-size="10.00">+ y1</text>
<text text-anchor="start" x="380.5" y="-539" font-family="Helvetica,sans-Serif" font-size="10.00">+ xoff</text>
<text text-anchor="start" x="380.5" y="-528" font-family="Helvetica,sans-Serif" font-size="10.00">+ yoff</text>
<text text-anchor="start" x="380.5" y="-517" font-family="Helvetica,sans-Serif" font-size="10.00">+ xadvance</text>
<text text-anchor="start" x="380.5" y="-506" font-family="Helvetica,sans-Serif" font-size="10.00">+ xoff2</text>
<text text-anchor="start" x="380.5" y="-495" font-family="Helvetica,sans-Serif" font-size="10.00">+ yoff2</text>
<polyline fill="none" stroke="black" points="372.5,-488 472.5,-488 "/>
<text text-anchor="middle" x="422.5" y="-476" font-family="Helvetica,sans-Serif" font-size="10.00"> </text>
</a>
</g>
</g>
<!-- Node7&#45;&gt;Node1 -->
<g id="edge6" class="edge">
<title>Node7&#45;&gt;Node1</title>
<path fill="none" stroke="#404040" d="M405.13,-468.58C396.4,-430.29 386.26,-382.29 379.5,-339 363.64,-237.5 381.61,-208.62 356.5,-109 355.93,-106.74 355.29,-104.45 354.6,-102.15"/>
<polygon fill="none" stroke="#404040" points="354.57,-102.06 348.86,-97.64 350.75,-90.68 356.45,-95.09 354.57,-102.06"/>
<text text-anchor="middle" x="416" y="-236" font-family="Helvetica,sans-Serif" font-size="10.00"> +PackedChars</text>
</g>
<!-- Node9 -->
<g id="node9" class="node">
<title>Node9</title>
<g id="a_node9"><a xlink:href="structstbtt__pack__range.html" target="_top" xlink:title=" ">
<polygon fill="none" stroke="black" points="461.5,-177 461.5,-300 631.5,-300 631.5,-177 461.5,-177"/>
<text text-anchor="middle" x="546.5" y="-288" font-family="Helvetica,sans-Serif" font-size="10.00">stbtt_pack_range</text>
<polyline fill="none" stroke="black" points="461.5,-281 631.5,-281 "/>
<text text-anchor="start" x="469.5" y="-269" font-family="Helvetica,sans-Serif" font-size="10.00">+ font_size</text>
<text text-anchor="start" x="469.5" y="-258" font-family="Helvetica,sans-Serif" font-size="10.00">+ first_unicode_codepoint</text>
<text text-anchor="start" x="469.5" y="-247" font-family="Helvetica,sans-Serif" font-size="10.00">_in_range</text>
<text text-anchor="start" x="469.5" y="-236" font-family="Helvetica,sans-Serif" font-size="10.00">+ array_of_unicode_codepoints</text>
<text text-anchor="start" x="469.5" y="-225" font-family="Helvetica,sans-Serif" font-size="10.00">+ num_chars</text>
<text text-anchor="start" x="469.5" y="-214" font-family="Helvetica,sans-Serif" font-size="10.00">+ h_oversample</text>
<text text-anchor="start" x="469.5" y="-203" font-family="Helvetica,sans-Serif" font-size="10.00">+ v_oversample</text>
<polyline fill="none" stroke="black" points="461.5,-196 631.5,-196 "/>
<text text-anchor="middle" x="546.5" y="-184" font-family="Helvetica,sans-Serif" font-size="10.00"> </text>
</a>
</g>
</g>
<!-- Node7&#45;&gt;Node9 -->
<g id="edge9" class="edge">
<title>Node7&#45;&gt;Node9</title>
<path fill="none" stroke="#404040" d="M452.04,-468.79C471.67,-421.14 497.35,-358.81 516.97,-311.17"/>
<polygon fill="none" stroke="#404040" points="517,-311.11 515.59,-304.03 521.57,-300.01 522.99,-307.08 517,-311.11"/>
<text text-anchor="middle" x="548.5" y="-387.5" font-family="Helvetica,sans-Serif" font-size="10.00"> +chardata_for_range</text>
</g>
<!-- Node8 -->
<g id="node8" class="node">
<title>Node8</title>
<g id="a_node8"><a xlink:href="structImVector.html" target="_top" xlink:title=" ">
<polygon fill="none" stroke="black" points="649.5,-138.5 649.5,-338.5 753.5,-338.5 753.5,-138.5 649.5,-138.5"/>
<text text-anchor="middle" x="701.5" y="-326.5" font-family="Helvetica,sans-Serif" font-size="10.00">ImVector&lt; int &gt;</text>
<polyline fill="none" stroke="black" points="649.5,-319.5 753.5,-319.5 "/>
<text text-anchor="start" x="657.5" y="-307.5" font-family="Helvetica,sans-Serif" font-size="10.00">+ const_iterator</text>
<text text-anchor="start" x="657.5" y="-296.5" font-family="Helvetica,sans-Serif" font-size="10.00">+ Size</text>
<text text-anchor="start" x="657.5" y="-285.5" font-family="Helvetica,sans-Serif" font-size="10.00">+ Capacity</text>
<text text-anchor="start" x="657.5" y="-274.5" font-family="Helvetica,sans-Serif" font-size="10.00">+ Data</text>
<polyline fill="none" stroke="black" points="649.5,-267.5 753.5,-267.5 "/>
<text text-anchor="start" x="657.5" y="-255.5" font-family="Helvetica,sans-Serif" font-size="10.00">+ ImVector()</text>
<text text-anchor="start" x="657.5" y="-244.5" font-family="Helvetica,sans-Serif" font-size="10.00">+ ImVector()</text>
<text text-anchor="start" x="657.5" y="-233.5" font-family="Helvetica,sans-Serif" font-size="10.00">+ operator=()</text>
<text text-anchor="start" x="657.5" y="-222.5" font-family="Helvetica,sans-Serif" font-size="10.00">+ ~ImVector()</text>
<text text-anchor="start" x="657.5" y="-211.5" font-family="Helvetica,sans-Serif" font-size="10.00">+ clear()</text>
<text text-anchor="start" x="657.5" y="-200.5" font-family="Helvetica,sans-Serif" font-size="10.00">+ clear_delete()</text>
<text text-anchor="start" x="657.5" y="-189.5" font-family="Helvetica,sans-Serif" font-size="10.00">+ clear_destruct()</text>
<text text-anchor="start" x="657.5" y="-178.5" font-family="Helvetica,sans-Serif" font-size="10.00">+ empty()</text>
<text text-anchor="start" x="657.5" y="-167.5" font-family="Helvetica,sans-Serif" font-size="10.00">+ size()</text>
<text text-anchor="start" x="657.5" y="-156.5" font-family="Helvetica,sans-Serif" font-size="10.00">+ size_in_bytes()</text>
<text text-anchor="start" x="657.5" y="-145.5" font-family="Helvetica,sans-Serif" font-size="10.00">and 32 more...</text>
</a>
</g>
</g>
<!-- Node8&#45;&gt;Node1 -->
<g id="edge7" class="edge">
<title>Node8&#45;&gt;Node1</title>
<path fill="none" stroke="#404040" d="M649.31,-145.58C646.49,-142.88 643.56,-140.34 640.5,-138 569.54,-83.61 466.82,-61.48 399.37,-52.52"/>
<polygon fill="none" stroke="#404040" points="399.11,-52.49 392.65,-55.71 387.2,-51 393.65,-47.77 399.11,-52.49"/>
<text text-anchor="middle" x="643" y="-112" font-family="Helvetica,sans-Serif" font-size="10.00"> +GlyphsList</text>
</g>
<!-- Node9&#45;&gt;Node1 -->
<g id="edge8" class="edge">
<title>Node9&#45;&gt;Node1</title>
<path fill="none" stroke="#404040" d="M488.51,-176.81C475.33,-163.69 461.17,-150.13 447.5,-138 431.62,-123.91 413.85,-109.41 397.05,-96.24"/>
<polygon fill="none" stroke="#404040" points="396.76,-96.01 389.57,-95.48 387.29,-88.64 394.48,-89.17 396.76,-96.01"/>
<text text-anchor="middle" x="458" y="-112" font-family="Helvetica,sans-Serif" font-size="10.00"> +PackRange</text>
</g>
</g>
</svg>
        <g id="navigator" transform="translate(0 0)" fill="#404254">
                <rect fill="#f2f5e9" fill-opacity="0.5" stroke="#606060" stroke-width=".5" x="0" y="0" width="60" height="60"/>
                <use id="zoomplus" xlink:href="#zoomPlus" x="17" y="9" onmousedown="handleZoom(evt,'in')"/>
                <use id="zoomminus" xlink:href="#zoomMin" x="42" y="9" onmousedown="handleZoom(evt,'out')"/>
                <use id="reset" xlink:href="#resetDef" x="30" y="36" onmousedown="handleReset()"/>
                <g id="arrowUp" xlink:href="#dirArrow" transform="translate(30 24)" onmousedown="handlePan(0,-1)">
                  <use xlink:href="#rim" fill="#404040">
                        <set attributeName="fill" to="#808080" begin="arrowUp.mouseover" end="arrowUp.mouseout"/>
                  </use>
                  <path fill="none" stroke="white" stroke-width="1.5" d="M0,-3.0v7 M-2.5,-0.5L0,-3.0L2.5,-0.5"/>
                </g>
                <g id="arrowRight" xlink:href="#dirArrow" transform="rotate(90) translate(36 -43)" onmousedown="handlePan(1,0)">
                  <use xlink:href="#rim" fill="#404040">
                        <set attributeName="fill" to="#808080" begin="arrowRight.mouseover" end="arrowRight.mouseout"/>
                  </use>
                  <path fill="none" stroke="white" stroke-width="1.5" d="M0,-3.0v7 M-2.5,-0.5L0,-3.0L2.5,-0.5"/>
                </g>
                <g id="arrowDown" xlink:href="#dirArrow" transform="rotate(180) translate(-30 -48)" onmousedown="handlePan(0,1)">
                  <use xlink:href="#rim" fill="#404040">
                        <set attributeName="fill" to="#808080" begin="arrowDown.mouseover" end="arrowDown.mouseout"/>
                  </use>
                  <path fill="none" stroke="white" stroke-width="1.5" d="M0,-3.0v7 M-2.5,-0.5L0,-3.0L2.5,-0.5"/>
                </g>
                <g id="arrowLeft" xlink:href="#dirArrow" transform="rotate(270) translate(-36 17)" onmousedown="handlePan(-1,0)">
                  <use xlink:href="#rim" fill="#404040">
                        <set attributeName="fill" to="#808080" begin="arrowLeft.mouseover" end="arrowLeft.mouseout"/>
                  </use>
                  <path fill="none" stroke="white" stroke-width="1.5" d="M0,-3.0v7 M-2.5,-0.5L0,-3.0L2.5,-0.5"/>
                </g>
        </g>
        <svg viewBox="0 0 15 15" width="100%" height="30px" preserveAspectRatio="xMaxYMin meet">
         <g id="arrow_out" transform="scale(0.3 0.3)">
          <a xlink:href="structImFontBuildSrcData__coll__graph_org.svg" target="_base">
           <rect id="button" ry="5" rx="5" y="6" x="6" height="38" width="38"
                fill="#f2f5e9" fill-opacity="0.5" stroke="#606060" stroke-width="1.0"/>
           <path id="arrow"
             d="M 11.500037,31.436501 C 11.940474,20.09759 22.043105,11.32322 32.158766,21.979434 L 37.068811,17.246167 C 37.068811,17.246167 37.088388,32 37.088388,32 L 22.160133,31.978069 C 22.160133,31.978069 26.997745,27.140456 26.997745,27.140456 C 18.528582,18.264221 13.291696,25.230495 11.500037,31.436501 z"
             style="fill:#404040;"/>
          </a>
         </g>
        </svg>
</svg>
