<?xml version="1.0" encoding="UTF-8" standalone="no"?>
<!DOCTYPE svg PUBLIC "-//W3C//DTD SVG 1.1//EN"
 "http://www.w3.org/Graphics/SVG/1.1/DTD/svg11.dtd">
<!-- Generated by graphviz version 2.43.0 (0)
 -->
<!-- Title: ImColor Pages: 1 -->
<svg width="124pt" height="303pt"
 viewBox="0.00 0.00 124.00 303.00" xmlns="http://www.w3.org/2000/svg" xmlns:xlink="http://www.w3.org/1999/xlink">
<g id="graph0" class="graph" transform="scale(1 1) rotate(0) translate(4 299)">
<title>ImColor</title>
<!-- Node1 -->
<g id="node1" class="node">
<title>Node1</title>
<g id="a_node1"><a xlink:title=" ">
<polygon fill="#bfbfbf" stroke="black" points="0,-0.5 0,-145.5 116,-145.5 116,-0.5 0,-0.5"/>
<text text-anchor="middle" x="58" y="-133.5" font-family="Helvetica,sans-Serif" font-size="10.00">ImColor</text>
<polyline fill="none" stroke="black" points="0,-126.5 116,-126.5 "/>
<text text-anchor="middle" x="58" y="-114.5" font-family="Helvetica,sans-Serif" font-size="10.00"> </text>
<polyline fill="none" stroke="black" points="0,-107.5 116,-107.5 "/>
<text text-anchor="start" x="8" y="-95.5" font-family="Helvetica,sans-Serif" font-size="10.00">+ ImColor()</text>
<text text-anchor="start" x="8" y="-84.5" font-family="Helvetica,sans-Serif" font-size="10.00">+ ImColor()</text>
<text text-anchor="start" x="8" y="-73.5" font-family="Helvetica,sans-Serif" font-size="10.00">+ ImColor()</text>
<text text-anchor="start" x="8" y="-62.5" font-family="Helvetica,sans-Serif" font-size="10.00">+ ImColor()</text>
<text text-anchor="start" x="8" y="-51.5" font-family="Helvetica,sans-Serif" font-size="10.00">+ ImColor()</text>
<text text-anchor="start" x="8" y="-40.5" font-family="Helvetica,sans-Serif" font-size="10.00">+ operator ImU32()</text>
<text text-anchor="start" x="8" y="-29.5" font-family="Helvetica,sans-Serif" font-size="10.00">+ operator ImVec4()</text>
<text text-anchor="start" x="8" y="-18.5" font-family="Helvetica,sans-Serif" font-size="10.00">+ SetHSV()</text>
<text text-anchor="start" x="8" y="-7.5" font-family="Helvetica,sans-Serif" font-size="10.00">+ HSV()</text>
</a>
</g>
</g>
<!-- Node2 -->
<g id="node2" class="node">
<title>Node2</title>
<g id="a_node2"><a xlink:href="structImVec4.html" target="_top" xlink:title=" ">
<polygon fill="none" stroke="black" points="22.5,-193.5 22.5,-294.5 93.5,-294.5 93.5,-193.5 22.5,-193.5"/>
<text text-anchor="middle" x="58" y="-282.5" font-family="Helvetica,sans-Serif" font-size="10.00">ImVec4</text>
<polyline fill="none" stroke="black" points="22.5,-275.5 93.5,-275.5 "/>
<text text-anchor="start" x="30.5" y="-263.5" font-family="Helvetica,sans-Serif" font-size="10.00">+ x</text>
<text text-anchor="start" x="30.5" y="-252.5" font-family="Helvetica,sans-Serif" font-size="10.00">+ y</text>
<text text-anchor="start" x="30.5" y="-241.5" font-family="Helvetica,sans-Serif" font-size="10.00">+ z</text>
<text text-anchor="start" x="30.5" y="-230.5" font-family="Helvetica,sans-Serif" font-size="10.00">+ w</text>
<polyline fill="none" stroke="black" points="22.5,-223.5 93.5,-223.5 "/>
<text text-anchor="start" x="30.5" y="-211.5" font-family="Helvetica,sans-Serif" font-size="10.00">+ ImVec4()</text>
<text text-anchor="start" x="30.5" y="-200.5" font-family="Helvetica,sans-Serif" font-size="10.00">+ ImVec4()</text>
</a>
</g>
</g>
<!-- Node2&#45;&gt;Node1 -->
<g id="edge1" class="edge">
<title>Node2&#45;&gt;Node1</title>
<path fill="none" stroke="#404040" d="M58,-193.21C58,-182.04 58,-169.88 58,-157.75"/>
<polygon fill="none" stroke="#404040" points="58,-157.66 54,-151.66 58,-145.66 62,-151.66 58,-157.66"/>
<text text-anchor="middle" x="77.5" y="-167" font-family="Helvetica,sans-Serif" font-size="10.00"> +Value</text>
</g>
</g>
</svg>
