<?xml version="1.0" encoding="UTF-8" standalone="no"?>
<!DOCTYPE svg PUBLIC "-//W3C//DTD SVG 1.1//EN"
 "http://www.w3.org/Graphics/SVG/1.1/DTD/svg11.dtd">
<!-- Generated by graphviz version 2.43.0 (0)
 -->
<!-- Title: ImFontAtlas Pages: 1 -->
<svg width="1001pt" height="1399pt"
 viewBox="0.00 0.00 1000.50 1399.00" xmlns="http://www.w3.org/2000/svg" xmlns:xlink="http://www.w3.org/1999/xlink">
<g id="graph0" class="graph" transform="scale(1 1) rotate(0) translate(4 1395)">
<title>ImFontAtlas</title>
<!-- Node1 -->
<g id="node1" class="node">
<title>Node1</title>
<g id="a_node1"><a xlink:title=" ">
<polygon fill="#bfbfbf" stroke="black" points="25,-832.5 25,-1153.5 244,-1153.5 244,-832.5 25,-832.5"/>
<text text-anchor="middle" x="134.5" y="-1141.5" font-family="Helvetica,sans-Serif" font-size="10.00">ImFontAtlas</text>
<polyline fill="none" stroke="black" points="25,-1134.5 244,-1134.5 "/>
<text text-anchor="start" x="33" y="-1122.5" font-family="Helvetica,sans-Serif" font-size="10.00">+ Flags</text>
<text text-anchor="start" x="33" y="-1111.5" font-family="Helvetica,sans-Serif" font-size="10.00">+ TexID</text>
<text text-anchor="start" x="33" y="-1100.5" font-family="Helvetica,sans-Serif" font-size="10.00">+ TexDesiredWidth</text>
<text text-anchor="start" x="33" y="-1089.5" font-family="Helvetica,sans-Serif" font-size="10.00">+ TexGlyphPadding</text>
<text text-anchor="start" x="33" y="-1078.5" font-family="Helvetica,sans-Serif" font-size="10.00">+ Locked</text>
<text text-anchor="start" x="33" y="-1067.5" font-family="Helvetica,sans-Serif" font-size="10.00">+ TexReady</text>
<text text-anchor="start" x="33" y="-1056.5" font-family="Helvetica,sans-Serif" font-size="10.00">+ TexPixelsUseColors</text>
<text text-anchor="start" x="33" y="-1045.5" font-family="Helvetica,sans-Serif" font-size="10.00">+ TexPixelsAlpha8</text>
<text text-anchor="start" x="33" y="-1034.5" font-family="Helvetica,sans-Serif" font-size="10.00">+ TexPixelsRGBA32</text>
<text text-anchor="start" x="33" y="-1023.5" font-family="Helvetica,sans-Serif" font-size="10.00">+ TexWidth</text>
<text text-anchor="start" x="33" y="-1012.5" font-family="Helvetica,sans-Serif" font-size="10.00">+ TexHeight</text>
<text text-anchor="start" x="33" y="-1001.5" font-family="Helvetica,sans-Serif" font-size="10.00">+ FontBuilderFlags</text>
<text text-anchor="start" x="33" y="-990.5" font-family="Helvetica,sans-Serif" font-size="10.00">+ PackIdMouseCursors</text>
<text text-anchor="start" x="33" y="-979.5" font-family="Helvetica,sans-Serif" font-size="10.00">+ PackIdLines</text>
<polyline fill="none" stroke="black" points="25,-972.5 244,-972.5 "/>
<text text-anchor="start" x="33" y="-960.5" font-family="Helvetica,sans-Serif" font-size="10.00">+ ImFontAtlas()</text>
<text text-anchor="start" x="33" y="-949.5" font-family="Helvetica,sans-Serif" font-size="10.00">+ ~ImFontAtlas()</text>
<text text-anchor="start" x="33" y="-938.5" font-family="Helvetica,sans-Serif" font-size="10.00">+ AddFont()</text>
<text text-anchor="start" x="33" y="-927.5" font-family="Helvetica,sans-Serif" font-size="10.00">+ AddFontDefault()</text>
<text text-anchor="start" x="33" y="-916.5" font-family="Helvetica,sans-Serif" font-size="10.00">+ AddFontFromFileTTF()</text>
<text text-anchor="start" x="33" y="-905.5" font-family="Helvetica,sans-Serif" font-size="10.00">+ AddFontFromMemoryTTF()</text>
<text text-anchor="start" x="33" y="-894.5" font-family="Helvetica,sans-Serif" font-size="10.00">+ AddFontFromMemoryCompressedTTF()</text>
<text text-anchor="start" x="33" y="-883.5" font-family="Helvetica,sans-Serif" font-size="10.00">+ AddFontFromMemoryCompressed</text>
<text text-anchor="start" x="33" y="-872.5" font-family="Helvetica,sans-Serif" font-size="10.00">Base85TTF()</text>
<text text-anchor="start" x="33" y="-861.5" font-family="Helvetica,sans-Serif" font-size="10.00">+ ClearInputData()</text>
<text text-anchor="start" x="33" y="-850.5" font-family="Helvetica,sans-Serif" font-size="10.00">+ ClearTexData()</text>
<text text-anchor="start" x="33" y="-839.5" font-family="Helvetica,sans-Serif" font-size="10.00">and 21 more...</text>
</a>
</g>
</g>
<!-- Node3 -->
<g id="node3" class="node">
<title>Node3</title>
<g id="a_node3"><a xlink:href="structImFont.html" target="_top" xlink:title=" ">
<polygon fill="none" stroke="black" points="375.5,-485.5 375.5,-773.5 527.5,-773.5 527.5,-485.5 375.5,-485.5"/>
<text text-anchor="middle" x="451.5" y="-761.5" font-family="Helvetica,sans-Serif" font-size="10.00">ImFont</text>
<polyline fill="none" stroke="black" points="375.5,-754.5 527.5,-754.5 "/>
<text text-anchor="start" x="383.5" y="-742.5" font-family="Helvetica,sans-Serif" font-size="10.00">+ FallbackAdvanceX</text>
<text text-anchor="start" x="383.5" y="-731.5" font-family="Helvetica,sans-Serif" font-size="10.00">+ FontSize</text>
<text text-anchor="start" x="383.5" y="-720.5" font-family="Helvetica,sans-Serif" font-size="10.00">+ ConfigDataCount</text>
<text text-anchor="start" x="383.5" y="-709.5" font-family="Helvetica,sans-Serif" font-size="10.00">+ FallbackChar</text>
<text text-anchor="start" x="383.5" y="-698.5" font-family="Helvetica,sans-Serif" font-size="10.00">+ EllipsisChar</text>
<text text-anchor="start" x="383.5" y="-687.5" font-family="Helvetica,sans-Serif" font-size="10.00">+ DotChar</text>
<text text-anchor="start" x="383.5" y="-676.5" font-family="Helvetica,sans-Serif" font-size="10.00">+ DirtyLookupTables</text>
<text text-anchor="start" x="383.5" y="-665.5" font-family="Helvetica,sans-Serif" font-size="10.00">+ Scale</text>
<text text-anchor="start" x="383.5" y="-654.5" font-family="Helvetica,sans-Serif" font-size="10.00">+ Ascent</text>
<text text-anchor="start" x="383.5" y="-643.5" font-family="Helvetica,sans-Serif" font-size="10.00">+ Descent</text>
<text text-anchor="start" x="383.5" y="-632.5" font-family="Helvetica,sans-Serif" font-size="10.00">+ MetricsTotalSurface</text>
<text text-anchor="start" x="383.5" y="-621.5" font-family="Helvetica,sans-Serif" font-size="10.00">+ Used4kPagesMap</text>
<polyline fill="none" stroke="black" points="375.5,-614.5 527.5,-614.5 "/>
<text text-anchor="start" x="383.5" y="-602.5" font-family="Helvetica,sans-Serif" font-size="10.00">+ ImFont()</text>
<text text-anchor="start" x="383.5" y="-591.5" font-family="Helvetica,sans-Serif" font-size="10.00">+ ~ImFont()</text>
<text text-anchor="start" x="383.5" y="-580.5" font-family="Helvetica,sans-Serif" font-size="10.00">+ FindGlyph()</text>
<text text-anchor="start" x="383.5" y="-569.5" font-family="Helvetica,sans-Serif" font-size="10.00">+ FindGlyphNoFallback()</text>
<text text-anchor="start" x="383.5" y="-558.5" font-family="Helvetica,sans-Serif" font-size="10.00">+ GetCharAdvance()</text>
<text text-anchor="start" x="383.5" y="-547.5" font-family="Helvetica,sans-Serif" font-size="10.00">+ IsLoaded()</text>
<text text-anchor="start" x="383.5" y="-536.5" font-family="Helvetica,sans-Serif" font-size="10.00">+ GetDebugName()</text>
<text text-anchor="start" x="383.5" y="-525.5" font-family="Helvetica,sans-Serif" font-size="10.00">+ CalcTextSizeA()</text>
<text text-anchor="start" x="383.5" y="-514.5" font-family="Helvetica,sans-Serif" font-size="10.00">+ CalcWordWrapPositionA()</text>
<text text-anchor="start" x="383.5" y="-503.5" font-family="Helvetica,sans-Serif" font-size="10.00">+ RenderChar()</text>
<text text-anchor="start" x="383.5" y="-492.5" font-family="Helvetica,sans-Serif" font-size="10.00">and 8 more...</text>
</a>
</g>
</g>
<!-- Node1&#45;&gt;Node3 -->
<g id="edge9" class="edge">
<title>Node1&#45;&gt;Node3</title>
<path fill="none" stroke="#404040" d="M171.48,-832.29C178.2,-817.97 186.14,-804.26 195.5,-792 238.92,-735.12 308.58,-693.06 364.28,-666.14"/>
<polygon fill="none" stroke="#404040" points="364.38,-666.1 368.09,-659.91 375.22,-660.96 371.51,-667.14 364.38,-666.1"/>
<text text-anchor="middle" x="237.5" y="-800.5" font-family="Helvetica,sans-Serif" font-size="10.00"> +ContainerAtlas</text>
</g>
<!-- Node2 -->
<g id="node2" class="node">
<title>Node2</title>
<g id="a_node2"><a xlink:href="structImVector.html" target="_top" xlink:title=" ">
<polygon fill="none" stroke="black" points="203,-248.5 203,-437.5 328,-437.5 328,-248.5 203,-248.5"/>
<text text-anchor="middle" x="265.5" y="-425.5" font-family="Helvetica,sans-Serif" font-size="10.00">ImVector&lt; ImFont * &gt;</text>
<polyline fill="none" stroke="black" points="203,-418.5 328,-418.5 "/>
<text text-anchor="start" x="211" y="-406.5" font-family="Helvetica,sans-Serif" font-size="10.00">+ const_iterator</text>
<text text-anchor="start" x="211" y="-395.5" font-family="Helvetica,sans-Serif" font-size="10.00">+ Size</text>
<text text-anchor="start" x="211" y="-384.5" font-family="Helvetica,sans-Serif" font-size="10.00">+ Capacity</text>
<polyline fill="none" stroke="black" points="203,-377.5 328,-377.5 "/>
<text text-anchor="start" x="211" y="-365.5" font-family="Helvetica,sans-Serif" font-size="10.00">+ ImVector()</text>
<text text-anchor="start" x="211" y="-354.5" font-family="Helvetica,sans-Serif" font-size="10.00">+ ImVector()</text>
<text text-anchor="start" x="211" y="-343.5" font-family="Helvetica,sans-Serif" font-size="10.00">+ operator=()</text>
<text text-anchor="start" x="211" y="-332.5" font-family="Helvetica,sans-Serif" font-size="10.00">+ ~ImVector()</text>
<text text-anchor="start" x="211" y="-321.5" font-family="Helvetica,sans-Serif" font-size="10.00">+ clear()</text>
<text text-anchor="start" x="211" y="-310.5" font-family="Helvetica,sans-Serif" font-size="10.00">+ clear_delete()</text>
<text text-anchor="start" x="211" y="-299.5" font-family="Helvetica,sans-Serif" font-size="10.00">+ clear_destruct()</text>
<text text-anchor="start" x="211" y="-288.5" font-family="Helvetica,sans-Serif" font-size="10.00">+ empty()</text>
<text text-anchor="start" x="211" y="-277.5" font-family="Helvetica,sans-Serif" font-size="10.00">+ size()</text>
<text text-anchor="start" x="211" y="-266.5" font-family="Helvetica,sans-Serif" font-size="10.00">+ size_in_bytes()</text>
<text text-anchor="start" x="211" y="-255.5" font-family="Helvetica,sans-Serif" font-size="10.00">and 32 more...</text>
</a>
</g>
</g>
<!-- Node2&#45;&gt;Node1 -->
<g id="edge1" class="edge">
<title>Node2&#45;&gt;Node1</title>
<path fill="none" stroke="#404040" d="M202.77,-390.16C183.02,-408.29 163.5,-430.81 152.5,-456 102.63,-570.22 99.99,-711.53 108.82,-820.38"/>
<polygon fill="none" stroke="#404040" points="108.83,-820.53 113.33,-826.17 109.86,-832.49 105.36,-826.85 108.83,-820.53"/>
<text text-anchor="middle" x="159.5" y="-627" font-family="Helvetica,sans-Serif" font-size="10.00"> +Fonts</text>
</g>
<!-- Node3&#45;&gt;Node2 -->
<g id="edge2" class="edge">
<title>Node3&#45;&gt;Node2</title>
<path fill="none" stroke="#404040" d="M375.31,-511.96C361.43,-490.73 347.03,-468.71 333.41,-447.87"/>
<polygon fill="none" stroke="#404040" points="333.36,-447.79 326.73,-444.96 326.79,-437.75 333.42,-440.58 333.36,-447.79"/>
<text text-anchor="middle" x="359" y="-459" font-family="Helvetica,sans-Serif" font-size="10.00"> +Data</text>
</g>
<!-- Node6 -->
<g id="node6" class="node">
<title>Node6</title>
<g id="a_node6"><a xlink:href="structImFontConfig.html" target="_top" xlink:title=" ">
<polygon fill="none" stroke="black" points="346,-259.5 346,-426.5 489,-426.5 489,-259.5 346,-259.5"/>
<text text-anchor="middle" x="417.5" y="-414.5" font-family="Helvetica,sans-Serif" font-size="10.00">ImFontConfig</text>
<polyline fill="none" stroke="black" points="346,-407.5 489,-407.5 "/>
<text text-anchor="start" x="354" y="-395.5" font-family="Helvetica,sans-Serif" font-size="10.00">+ FontData</text>
<text text-anchor="start" x="354" y="-384.5" font-family="Helvetica,sans-Serif" font-size="10.00">+ FontDataSize</text>
<text text-anchor="start" x="354" y="-373.5" font-family="Helvetica,sans-Serif" font-size="10.00">+ FontDataOwnedByAtlas</text>
<text text-anchor="start" x="354" y="-362.5" font-family="Helvetica,sans-Serif" font-size="10.00">+ FontNo</text>
<text text-anchor="start" x="354" y="-351.5" font-family="Helvetica,sans-Serif" font-size="10.00">+ SizePixels</text>
<text text-anchor="start" x="354" y="-340.5" font-family="Helvetica,sans-Serif" font-size="10.00">+ OversampleH</text>
<text text-anchor="start" x="354" y="-329.5" font-family="Helvetica,sans-Serif" font-size="10.00">+ OversampleV</text>
<text text-anchor="start" x="354" y="-318.5" font-family="Helvetica,sans-Serif" font-size="10.00">+ PixelSnapH</text>
<text text-anchor="start" x="354" y="-307.5" font-family="Helvetica,sans-Serif" font-size="10.00">+ GlyphRanges</text>
<text text-anchor="start" x="354" y="-296.5" font-family="Helvetica,sans-Serif" font-size="10.00">+ GlyphMinAdvanceX</text>
<text text-anchor="start" x="354" y="-285.5" font-family="Helvetica,sans-Serif" font-size="10.00">and 6 more...</text>
<polyline fill="none" stroke="black" points="346,-278.5 489,-278.5 "/>
<text text-anchor="start" x="354" y="-266.5" font-family="Helvetica,sans-Serif" font-size="10.00">+ ImFontConfig()</text>
</a>
</g>
</g>
<!-- Node3&#45;&gt;Node6 -->
<g id="edge7" class="edge">
<title>Node3&#45;&gt;Node6</title>
<path fill="none" stroke="#404040" d="M395.57,-485.49C394.66,-475.61 394.55,-465.71 395.5,-456 396.05,-450.32 396.76,-444.5 397.58,-438.65"/>
<polygon fill="none" stroke="#404040" points="397.6,-438.47 394.55,-431.94 399.4,-426.61 402.46,-433.14 397.6,-438.47"/>
<text text-anchor="middle" x="420" y="-459" font-family="Helvetica,sans-Serif" font-size="10.00"> +DstFont</text>
</g>
<!-- Node14 -->
<g id="node14" class="node">
<title>Node14</title>
<g id="a_node14"><a xlink:href="structImFontAtlasCustomRect.html" target="_top" xlink:title=" ">
<polygon fill="none" stroke="black" points="507,-281.5 507,-404.5 660,-404.5 660,-281.5 507,-281.5"/>
<text text-anchor="middle" x="583.5" y="-392.5" font-family="Helvetica,sans-Serif" font-size="10.00">ImFontAtlasCustomRect</text>
<polyline fill="none" stroke="black" points="507,-385.5 660,-385.5 "/>
<text text-anchor="start" x="515" y="-373.5" font-family="Helvetica,sans-Serif" font-size="10.00">+ Width</text>
<text text-anchor="start" x="515" y="-362.5" font-family="Helvetica,sans-Serif" font-size="10.00">+ Height</text>
<text text-anchor="start" x="515" y="-351.5" font-family="Helvetica,sans-Serif" font-size="10.00">+ X</text>
<text text-anchor="start" x="515" y="-340.5" font-family="Helvetica,sans-Serif" font-size="10.00">+ Y</text>
<text text-anchor="start" x="515" y="-329.5" font-family="Helvetica,sans-Serif" font-size="10.00">+ GlyphID</text>
<text text-anchor="start" x="515" y="-318.5" font-family="Helvetica,sans-Serif" font-size="10.00">+ GlyphAdvanceX</text>
<polyline fill="none" stroke="black" points="507,-311.5 660,-311.5 "/>
<text text-anchor="start" x="515" y="-299.5" font-family="Helvetica,sans-Serif" font-size="10.00">+ ImFontAtlasCustomRect()</text>
<text text-anchor="start" x="515" y="-288.5" font-family="Helvetica,sans-Serif" font-size="10.00">+ IsPacked()</text>
</a>
</g>
</g>
<!-- Node3&#45;&gt;Node14 -->
<g id="edge20" class="edge">
<title>Node3&#45;&gt;Node14</title>
<path fill="none" stroke="#404040" d="M517.89,-485.42C529.15,-461.14 540.4,-436.9 550.32,-415.52"/>
<polygon fill="none" stroke="#404040" points="550.33,-415.5 549.22,-408.37 555.38,-404.62 556.48,-411.74 550.33,-415.5"/>
<text text-anchor="middle" x="545" y="-459" font-family="Helvetica,sans-Serif" font-size="10.00"> +Font</text>
</g>
<!-- Node4 -->
<g id="node4" class="node">
<title>Node4</title>
<g id="a_node4"><a xlink:href="structImVector.html" target="_top" xlink:title=" ">
<polygon fill="none" stroke="black" points="379,-898.5 379,-1087.5 524,-1087.5 524,-898.5 379,-898.5"/>
<text text-anchor="middle" x="451.5" y="-1075.5" font-family="Helvetica,sans-Serif" font-size="10.00">ImVector&lt; ImFontGlyph &gt;</text>
<polyline fill="none" stroke="black" points="379,-1068.5 524,-1068.5 "/>
<text text-anchor="start" x="387" y="-1056.5" font-family="Helvetica,sans-Serif" font-size="10.00">+ const_iterator</text>
<text text-anchor="start" x="387" y="-1045.5" font-family="Helvetica,sans-Serif" font-size="10.00">+ Size</text>
<text text-anchor="start" x="387" y="-1034.5" font-family="Helvetica,sans-Serif" font-size="10.00">+ Capacity</text>
<polyline fill="none" stroke="black" points="379,-1027.5 524,-1027.5 "/>
<text text-anchor="start" x="387" y="-1015.5" font-family="Helvetica,sans-Serif" font-size="10.00">+ ImVector()</text>
<text text-anchor="start" x="387" y="-1004.5" font-family="Helvetica,sans-Serif" font-size="10.00">+ ImVector()</text>
<text text-anchor="start" x="387" y="-993.5" font-family="Helvetica,sans-Serif" font-size="10.00">+ operator=()</text>
<text text-anchor="start" x="387" y="-982.5" font-family="Helvetica,sans-Serif" font-size="10.00">+ ~ImVector()</text>
<text text-anchor="start" x="387" y="-971.5" font-family="Helvetica,sans-Serif" font-size="10.00">+ clear()</text>
<text text-anchor="start" x="387" y="-960.5" font-family="Helvetica,sans-Serif" font-size="10.00">+ clear_delete()</text>
<text text-anchor="start" x="387" y="-949.5" font-family="Helvetica,sans-Serif" font-size="10.00">+ clear_destruct()</text>
<text text-anchor="start" x="387" y="-938.5" font-family="Helvetica,sans-Serif" font-size="10.00">+ empty()</text>
<text text-anchor="start" x="387" y="-927.5" font-family="Helvetica,sans-Serif" font-size="10.00">+ size()</text>
<text text-anchor="start" x="387" y="-916.5" font-family="Helvetica,sans-Serif" font-size="10.00">+ size_in_bytes()</text>
<text text-anchor="start" x="387" y="-905.5" font-family="Helvetica,sans-Serif" font-size="10.00">and 32 more...</text>
</a>
</g>
</g>
<!-- Node4&#45;&gt;Node3 -->
<g id="edge3" class="edge">
<title>Node4&#45;&gt;Node3</title>
<path fill="none" stroke="#404040" d="M451.5,-898.43C451.5,-864.17 451.5,-824.41 451.5,-786.18"/>
<polygon fill="none" stroke="#404040" points="451.5,-785.83 447.5,-779.83 451.5,-773.83 455.5,-779.83 451.5,-785.83"/>
<text text-anchor="middle" x="474.5" y="-800.5" font-family="Helvetica,sans-Serif" font-size="10.00"> +Glyphs</text>
</g>
<!-- Node5 -->
<g id="node5" class="node">
<title>Node5</title>
<g id="a_node5"><a xlink:href="structImFontGlyph.html" target="_top" xlink:title=" ">
<polygon fill="none" stroke="black" points="292,-1212.5 292,-1390.5 371,-1390.5 371,-1212.5 292,-1212.5"/>
<text text-anchor="middle" x="331.5" y="-1378.5" font-family="Helvetica,sans-Serif" font-size="10.00">ImFontGlyph</text>
<polyline fill="none" stroke="black" points="292,-1371.5 371,-1371.5 "/>
<text text-anchor="start" x="300" y="-1359.5" font-family="Helvetica,sans-Serif" font-size="10.00">+ Colored</text>
<text text-anchor="start" x="300" y="-1348.5" font-family="Helvetica,sans-Serif" font-size="10.00">+ Visible</text>
<text text-anchor="start" x="300" y="-1337.5" font-family="Helvetica,sans-Serif" font-size="10.00">+ Codepoint</text>
<text text-anchor="start" x="300" y="-1326.5" font-family="Helvetica,sans-Serif" font-size="10.00">+ AdvanceX</text>
<text text-anchor="start" x="300" y="-1315.5" font-family="Helvetica,sans-Serif" font-size="10.00">+ X0</text>
<text text-anchor="start" x="300" y="-1304.5" font-family="Helvetica,sans-Serif" font-size="10.00">+ Y0</text>
<text text-anchor="start" x="300" y="-1293.5" font-family="Helvetica,sans-Serif" font-size="10.00">+ X1</text>
<text text-anchor="start" x="300" y="-1282.5" font-family="Helvetica,sans-Serif" font-size="10.00">+ Y1</text>
<text text-anchor="start" x="300" y="-1271.5" font-family="Helvetica,sans-Serif" font-size="10.00">+ U0</text>
<text text-anchor="start" x="300" y="-1260.5" font-family="Helvetica,sans-Serif" font-size="10.00">+ V0</text>
<text text-anchor="start" x="300" y="-1249.5" font-family="Helvetica,sans-Serif" font-size="10.00">+ U1</text>
<text text-anchor="start" x="300" y="-1238.5" font-family="Helvetica,sans-Serif" font-size="10.00">+ V1</text>
<polyline fill="none" stroke="black" points="292,-1231.5 371,-1231.5 "/>
<text text-anchor="middle" x="331.5" y="-1219.5" font-family="Helvetica,sans-Serif" font-size="10.00"> </text>
</a>
</g>
</g>
<!-- Node5&#45;&gt;Node3 -->
<g id="edge8" class="edge">
<title>Node5&#45;&gt;Node3</title>
<path fill="none" stroke="#404040" d="M302.51,-1212.31C275.68,-1116.06 246.08,-958.75 290.5,-832 306.27,-787 336.78,-744.57 367.03,-710.37"/>
<polygon fill="none" stroke="#404040" points="367.09,-710.3 368.14,-703.17 375.13,-701.4 374.08,-708.53 367.09,-710.3"/>
<text text-anchor="middle" x="330.5" y="-990.5" font-family="Helvetica,sans-Serif" font-size="10.00"> +FallbackGlyph</text>
</g>
<!-- Node5&#45;&gt;Node4 -->
<g id="edge4" class="edge">
<title>Node5&#45;&gt;Node4</title>
<path fill="none" stroke="#404040" d="M366.05,-1212.26C379.88,-1176.92 395.94,-1135.92 410.37,-1099.06"/>
<polygon fill="none" stroke="#404040" points="410.41,-1098.94 408.88,-1091.89 414.79,-1087.76 416.33,-1094.81 410.41,-1098.94"/>
<text text-anchor="middle" x="398" y="-1180.5" font-family="Helvetica,sans-Serif" font-size="10.00"> +Data</text>
</g>
<!-- Node6&#45;&gt;Node3 -->
<g id="edge5" class="edge">
<title>Node6&#45;&gt;Node3</title>
<path fill="none" stroke="#404040" d="M442.89,-426.68C445.16,-436.49 447.11,-446.42 448.5,-456 449.32,-461.63 450.03,-467.38 450.64,-473.19"/>
<polygon fill="none" stroke="#404040" points="450.65,-473.25 455.2,-478.85 451.78,-485.2 447.23,-479.6 450.65,-473.25"/>
<text text-anchor="middle" x="482.5" y="-459" font-family="Helvetica,sans-Serif" font-size="10.00"> +ConfigData</text>
</g>
<!-- Node12 -->
<g id="node12" class="node">
<title>Node12</title>
<g id="a_node12"><a xlink:href="structImVector.html" target="_top" xlink:title=" ">
<polygon fill="none" stroke="black" points="185,-6 185,-195 332,-195 332,-6 185,-6"/>
<text text-anchor="middle" x="258.5" y="-183" font-family="Helvetica,sans-Serif" font-size="10.00">ImVector&lt; ImFontConfig &gt;</text>
<polyline fill="none" stroke="black" points="185,-176 332,-176 "/>
<text text-anchor="start" x="193" y="-164" font-family="Helvetica,sans-Serif" font-size="10.00">+ const_iterator</text>
<text text-anchor="start" x="193" y="-153" font-family="Helvetica,sans-Serif" font-size="10.00">+ Size</text>
<text text-anchor="start" x="193" y="-142" font-family="Helvetica,sans-Serif" font-size="10.00">+ Capacity</text>
<polyline fill="none" stroke="black" points="185,-135 332,-135 "/>
<text text-anchor="start" x="193" y="-123" font-family="Helvetica,sans-Serif" font-size="10.00">+ ImVector()</text>
<text text-anchor="start" x="193" y="-112" font-family="Helvetica,sans-Serif" font-size="10.00">+ ImVector()</text>
<text text-anchor="start" x="193" y="-101" font-family="Helvetica,sans-Serif" font-size="10.00">+ operator=()</text>
<text text-anchor="start" x="193" y="-90" font-family="Helvetica,sans-Serif" font-size="10.00">+ ~ImVector()</text>
<text text-anchor="start" x="193" y="-79" font-family="Helvetica,sans-Serif" font-size="10.00">+ clear()</text>
<text text-anchor="start" x="193" y="-68" font-family="Helvetica,sans-Serif" font-size="10.00">+ clear_delete()</text>
<text text-anchor="start" x="193" y="-57" font-family="Helvetica,sans-Serif" font-size="10.00">+ clear_destruct()</text>
<text text-anchor="start" x="193" y="-46" font-family="Helvetica,sans-Serif" font-size="10.00">+ empty()</text>
<text text-anchor="start" x="193" y="-35" font-family="Helvetica,sans-Serif" font-size="10.00">+ size()</text>
<text text-anchor="start" x="193" y="-24" font-family="Helvetica,sans-Serif" font-size="10.00">+ size_in_bytes()</text>
<text text-anchor="start" x="193" y="-13" font-family="Helvetica,sans-Serif" font-size="10.00">and 32 more...</text>
</a>
</g>
</g>
<!-- Node6&#45;&gt;Node12 -->
<g id="edge16" class="edge">
<title>Node6&#45;&gt;Node12</title>
<path fill="none" stroke="#404040" d="M362.78,-259.23C351.31,-241.89 339.08,-223.39 327.18,-205.38"/>
<polygon fill="none" stroke="#404040" points="327.03,-205.16 320.39,-202.36 320.41,-195.15 327.06,-197.95 327.03,-205.16"/>
<text text-anchor="middle" x="360" y="-222" font-family="Helvetica,sans-Serif" font-size="10.00"> +Data</text>
</g>
<!-- Node7 -->
<g id="node7" class="node">
<title>Node7</title>
<g id="a_node7"><a xlink:href="structImVec2.html" target="_top" xlink:title=" ">
<polygon fill="none" stroke="black" points="776.5,-1251 776.5,-1352 860.5,-1352 860.5,-1251 776.5,-1251"/>
<text text-anchor="middle" x="818.5" y="-1340" font-family="Helvetica,sans-Serif" font-size="10.00">ImVec2</text>
<polyline fill="none" stroke="black" points="776.5,-1333 860.5,-1333 "/>
<text text-anchor="start" x="784.5" y="-1321" font-family="Helvetica,sans-Serif" font-size="10.00">+ x</text>
<text text-anchor="start" x="784.5" y="-1310" font-family="Helvetica,sans-Serif" font-size="10.00">+ y</text>
<polyline fill="none" stroke="black" points="776.5,-1303 860.5,-1303 "/>
<text text-anchor="start" x="784.5" y="-1291" font-family="Helvetica,sans-Serif" font-size="10.00">+ ImVec2()</text>
<text text-anchor="start" x="784.5" y="-1280" font-family="Helvetica,sans-Serif" font-size="10.00">+ ImVec2()</text>
<text text-anchor="start" x="784.5" y="-1269" font-family="Helvetica,sans-Serif" font-size="10.00">+ operator[]()</text>
<text text-anchor="start" x="784.5" y="-1258" font-family="Helvetica,sans-Serif" font-size="10.00">+ operator[]()</text>
</a>
</g>
</g>
<!-- Node7&#45;&gt;Node1 -->
<g id="edge13" class="edge">
<title>Node7&#45;&gt;Node1</title>
<path fill="none" stroke="#404040" d="M776.45,-1283.86C704.53,-1256.11 552.74,-1200.6 419.5,-1172 349.1,-1156.89 321.29,-1189.24 258.5,-1154 257.12,-1153.23 255.75,-1152.43 254.39,-1151.61"/>
<polygon fill="none" stroke="#404040" points="254.23,-1151.5 247.02,-1151.58 244.18,-1144.95 251.39,-1144.88 254.23,-1151.5"/>
<text text-anchor="middle" x="543.5" y="-1186" font-family="Helvetica,sans-Serif" font-size="10.00"> +TexUvWhitePixel</text>
<text text-anchor="middle" x="543.5" y="-1175" font-family="Helvetica,sans-Serif" font-size="10.00">+TexUvScale</text>
</g>
<!-- Node7&#45;&gt;Node6 -->
<g id="edge6" class="edge">
<title>Node7&#45;&gt;Node6</title>
<path fill="none" stroke="#404040" d="M824.61,-1250.9C833.58,-1163.84 844.7,-978.85 799.5,-832 741.59,-643.88 723.58,-573.28 565.5,-456 540.74,-437.63 524.61,-454.4 498.5,-438 496.48,-436.73 494.49,-435.4 492.52,-434.01"/>
<polygon fill="none" stroke="#404040" points="492.4,-433.92 485.2,-433.43 482.88,-426.6 490.08,-427.09 492.4,-433.92"/>
<text text-anchor="middle" x="843" y="-806" font-family="Helvetica,sans-Serif" font-size="10.00"> +GlyphOffset</text>
<text text-anchor="middle" x="843" y="-795" font-family="Helvetica,sans-Serif" font-size="10.00">+GlyphExtraSpacing</text>
</g>
<!-- Node7&#45;&gt;Node14 -->
<g id="edge19" class="edge">
<title>Node7&#45;&gt;Node14</title>
<path fill="none" stroke="#404040" d="M839.56,-1250.72C875.41,-1160.11 942.38,-961.9 920.5,-792 900.78,-638.89 932.2,-573.86 832.5,-456 791.57,-407.62 725.48,-379.22 671.68,-363.14"/>
<polygon fill="none" stroke="#404040" points="671.58,-363.11 664.71,-365.29 660.04,-359.79 666.92,-357.61 671.58,-363.11"/>
<text text-anchor="middle" x="957.5" y="-800.5" font-family="Helvetica,sans-Serif" font-size="10.00"> +GlyphOffset</text>
</g>
<!-- Node8 -->
<g id="node8" class="node">
<title>Node8</title>
<g id="a_node8"><a xlink:href="structImVector.html" target="_top" xlink:title=" ">
<polygon fill="none" stroke="black" points="542.5,-893 542.5,-1093 646.5,-1093 646.5,-893 542.5,-893"/>
<text text-anchor="middle" x="594.5" y="-1081" font-family="Helvetica,sans-Serif" font-size="10.00">ImVector&lt; float &gt;</text>
<polyline fill="none" stroke="black" points="542.5,-1074 646.5,-1074 "/>
<text text-anchor="start" x="550.5" y="-1062" font-family="Helvetica,sans-Serif" font-size="10.00">+ const_iterator</text>
<text text-anchor="start" x="550.5" y="-1051" font-family="Helvetica,sans-Serif" font-size="10.00">+ Size</text>
<text text-anchor="start" x="550.5" y="-1040" font-family="Helvetica,sans-Serif" font-size="10.00">+ Capacity</text>
<text text-anchor="start" x="550.5" y="-1029" font-family="Helvetica,sans-Serif" font-size="10.00">+ Data</text>
<polyline fill="none" stroke="black" points="542.5,-1022 646.5,-1022 "/>
<text text-anchor="start" x="550.5" y="-1010" font-family="Helvetica,sans-Serif" font-size="10.00">+ ImVector()</text>
<text text-anchor="start" x="550.5" y="-999" font-family="Helvetica,sans-Serif" font-size="10.00">+ ImVector()</text>
<text text-anchor="start" x="550.5" y="-988" font-family="Helvetica,sans-Serif" font-size="10.00">+ operator=()</text>
<text text-anchor="start" x="550.5" y="-977" font-family="Helvetica,sans-Serif" font-size="10.00">+ ~ImVector()</text>
<text text-anchor="start" x="550.5" y="-966" font-family="Helvetica,sans-Serif" font-size="10.00">+ clear()</text>
<text text-anchor="start" x="550.5" y="-955" font-family="Helvetica,sans-Serif" font-size="10.00">+ clear_delete()</text>
<text text-anchor="start" x="550.5" y="-944" font-family="Helvetica,sans-Serif" font-size="10.00">+ clear_destruct()</text>
<text text-anchor="start" x="550.5" y="-933" font-family="Helvetica,sans-Serif" font-size="10.00">+ empty()</text>
<text text-anchor="start" x="550.5" y="-922" font-family="Helvetica,sans-Serif" font-size="10.00">+ size()</text>
<text text-anchor="start" x="550.5" y="-911" font-family="Helvetica,sans-Serif" font-size="10.00">+ size_in_bytes()</text>
<text text-anchor="start" x="550.5" y="-900" font-family="Helvetica,sans-Serif" font-size="10.00">and 32 more...</text>
</a>
</g>
</g>
<!-- Node8&#45;&gt;Node3 -->
<g id="edge10" class="edge">
<title>Node8&#45;&gt;Node3</title>
<path fill="none" stroke="#404040" d="M557.1,-892.86C549.38,-872.69 541.24,-851.64 533.5,-832 527.51,-816.8 521.21,-800.99 514.86,-785.2"/>
<polygon fill="none" stroke="#404040" points="514.72,-784.85 508.77,-780.78 510.24,-773.72 516.19,-777.79 514.72,-784.85"/>
<text text-anchor="middle" x="568.5" y="-800.5" font-family="Helvetica,sans-Serif" font-size="10.00"> +IndexAdvanceX</text>
</g>
<!-- Node9 -->
<g id="node9" class="node">
<title>Node9</title>
<g id="a_node9"><a xlink:href="structImVector.html" target="_top" xlink:title=" ">
<polygon fill="none" stroke="black" points="664.5,-893 664.5,-1093 790.5,-1093 790.5,-893 664.5,-893"/>
<text text-anchor="middle" x="727.5" y="-1081" font-family="Helvetica,sans-Serif" font-size="10.00">ImVector&lt; ImWchar &gt;</text>
<polyline fill="none" stroke="black" points="664.5,-1074 790.5,-1074 "/>
<text text-anchor="start" x="672.5" y="-1062" font-family="Helvetica,sans-Serif" font-size="10.00">+ const_iterator</text>
<text text-anchor="start" x="672.5" y="-1051" font-family="Helvetica,sans-Serif" font-size="10.00">+ Size</text>
<text text-anchor="start" x="672.5" y="-1040" font-family="Helvetica,sans-Serif" font-size="10.00">+ Capacity</text>
<text text-anchor="start" x="672.5" y="-1029" font-family="Helvetica,sans-Serif" font-size="10.00">+ Data</text>
<polyline fill="none" stroke="black" points="664.5,-1022 790.5,-1022 "/>
<text text-anchor="start" x="672.5" y="-1010" font-family="Helvetica,sans-Serif" font-size="10.00">+ ImVector()</text>
<text text-anchor="start" x="672.5" y="-999" font-family="Helvetica,sans-Serif" font-size="10.00">+ ImVector()</text>
<text text-anchor="start" x="672.5" y="-988" font-family="Helvetica,sans-Serif" font-size="10.00">+ operator=()</text>
<text text-anchor="start" x="672.5" y="-977" font-family="Helvetica,sans-Serif" font-size="10.00">+ ~ImVector()</text>
<text text-anchor="start" x="672.5" y="-966" font-family="Helvetica,sans-Serif" font-size="10.00">+ clear()</text>
<text text-anchor="start" x="672.5" y="-955" font-family="Helvetica,sans-Serif" font-size="10.00">+ clear_delete()</text>
<text text-anchor="start" x="672.5" y="-944" font-family="Helvetica,sans-Serif" font-size="10.00">+ clear_destruct()</text>
<text text-anchor="start" x="672.5" y="-933" font-family="Helvetica,sans-Serif" font-size="10.00">+ empty()</text>
<text text-anchor="start" x="672.5" y="-922" font-family="Helvetica,sans-Serif" font-size="10.00">+ size()</text>
<text text-anchor="start" x="672.5" y="-911" font-family="Helvetica,sans-Serif" font-size="10.00">+ size_in_bytes()</text>
<text text-anchor="start" x="672.5" y="-900" font-family="Helvetica,sans-Serif" font-size="10.00">and 32 more...</text>
</a>
</g>
</g>
<!-- Node9&#45;&gt;Node3 -->
<g id="edge11" class="edge">
<title>Node9&#45;&gt;Node3</title>
<path fill="none" stroke="#404040" d="M689.31,-892.63C679.55,-871.86 668.19,-850.63 655.5,-832 622.42,-783.42 576.46,-736.79 536.54,-700.64"/>
<polygon fill="none" stroke="#404040" points="536.53,-700.63 529.39,-699.61 527.59,-692.62 534.73,-693.65 536.53,-700.63"/>
<text text-anchor="middle" x="678" y="-800.5" font-family="Helvetica,sans-Serif" font-size="10.00"> +IndexLookup</text>
</g>
<!-- Node10 -->
<g id="node10" class="node">
<title>Node10</title>
<g id="a_node10"><a xlink:href="structImFontBuilderIO.html" target="_top" xlink:title=" ">
<polygon fill="none" stroke="black" points="0,-1273 0,-1330 113,-1330 113,-1273 0,-1273"/>
<text text-anchor="middle" x="56.5" y="-1318" font-family="Helvetica,sans-Serif" font-size="10.00">ImFontBuilderIO</text>
<polyline fill="none" stroke="black" points="0,-1311 113,-1311 "/>
<text text-anchor="start" x="8" y="-1299" font-family="Helvetica,sans-Serif" font-size="10.00">+ FontBuilder_Build</text>
<polyline fill="none" stroke="black" points="0,-1292 113,-1292 "/>
<text text-anchor="middle" x="56.5" y="-1280" font-family="Helvetica,sans-Serif" font-size="10.00"> </text>
</a>
</g>
</g>
<!-- Node10&#45;&gt;Node1 -->
<g id="edge12" class="edge">
<title>Node10&#45;&gt;Node1</title>
<path fill="none" stroke="#404040" d="M57.64,-1272.61C59.15,-1246.37 62.63,-1206.11 70.5,-1172 71,-1169.82 71.53,-1167.62 72.07,-1165.42"/>
<polygon fill="none" stroke="#404040" points="72.12,-1165.19 69.75,-1158.39 75.11,-1153.57 77.49,-1160.38 72.12,-1165.19"/>
<text text-anchor="middle" x="109.5" y="-1180.5" font-family="Helvetica,sans-Serif" font-size="10.00"> +FontBuilderIO</text>
</g>
<!-- Node11 -->
<g id="node11" class="node">
<title>Node11</title>
<g id="a_node11"><a xlink:href="structImVec4.html" target="_top" xlink:title=" ">
<polygon fill="none" stroke="black" points="131,-1251 131,-1352 202,-1352 202,-1251 131,-1251"/>
<text text-anchor="middle" x="166.5" y="-1340" font-family="Helvetica,sans-Serif" font-size="10.00">ImVec4</text>
<polyline fill="none" stroke="black" points="131,-1333 202,-1333 "/>
<text text-anchor="start" x="139" y="-1321" font-family="Helvetica,sans-Serif" font-size="10.00">+ x</text>
<text text-anchor="start" x="139" y="-1310" font-family="Helvetica,sans-Serif" font-size="10.00">+ y</text>
<text text-anchor="start" x="139" y="-1299" font-family="Helvetica,sans-Serif" font-size="10.00">+ z</text>
<text text-anchor="start" x="139" y="-1288" font-family="Helvetica,sans-Serif" font-size="10.00">+ w</text>
<polyline fill="none" stroke="black" points="131,-1281 202,-1281 "/>
<text text-anchor="start" x="139" y="-1269" font-family="Helvetica,sans-Serif" font-size="10.00">+ ImVec4()</text>
<text text-anchor="start" x="139" y="-1258" font-family="Helvetica,sans-Serif" font-size="10.00">+ ImVec4()</text>
</a>
</g>
</g>
<!-- Node11&#45;&gt;Node1 -->
<g id="edge14" class="edge">
<title>Node11&#45;&gt;Node1</title>
<path fill="none" stroke="#404040" d="M161.32,-1250.91C158.83,-1227.03 155.67,-1196.81 152.41,-1165.57"/>
<polygon fill="none" stroke="#404040" points="152.4,-1165.49 147.8,-1159.94 151.16,-1153.56 155.76,-1159.11 152.4,-1165.49"/>
<text text-anchor="middle" x="188" y="-1180.5" font-family="Helvetica,sans-Serif" font-size="10.00"> +TexUvLines</text>
</g>
<!-- Node12&#45;&gt;Node1 -->
<g id="edge15" class="edge">
<title>Node12&#45;&gt;Node1</title>
<path fill="none" stroke="#404040" d="M211.89,-195.19C204.98,-212.4 198.76,-230.47 194.5,-248 139.22,-475.65 181.94,-540.72 160.5,-774 159.12,-789.05 157.54,-804.66 155.86,-820.31"/>
<polygon fill="none" stroke="#404040" points="155.86,-820.34 159.18,-826.74 154.56,-832.27 151.23,-825.87 155.86,-820.34"/>
<text text-anchor="middle" x="197.5" y="-459" font-family="Helvetica,sans-Serif" font-size="10.00"> +ConfigData</text>
</g>
<!-- Node13 -->
<g id="node13" class="node">
<title>Node13</title>
<g id="a_node13"><a xlink:href="structImVector.html" target="_top" xlink:title=" ">
<polygon fill="none" stroke="black" points="392,-0.5 392,-200.5 559,-200.5 559,-0.5 392,-0.5"/>
<text text-anchor="start" x="400" y="-188.5" font-family="Helvetica,sans-Serif" font-size="10.00">ImVector&lt; ImFontAtlasCustom</text>
<text text-anchor="middle" x="475.5" y="-177.5" font-family="Helvetica,sans-Serif" font-size="10.00">Rect &gt;</text>
<polyline fill="none" stroke="black" points="392,-170.5 559,-170.5 "/>
<text text-anchor="start" x="400" y="-158.5" font-family="Helvetica,sans-Serif" font-size="10.00">+ const_iterator</text>
<text text-anchor="start" x="400" y="-147.5" font-family="Helvetica,sans-Serif" font-size="10.00">+ Size</text>
<text text-anchor="start" x="400" y="-136.5" font-family="Helvetica,sans-Serif" font-size="10.00">+ Capacity</text>
<polyline fill="none" stroke="black" points="392,-129.5 559,-129.5 "/>
<text text-anchor="start" x="400" y="-117.5" font-family="Helvetica,sans-Serif" font-size="10.00">+ ImVector()</text>
<text text-anchor="start" x="400" y="-106.5" font-family="Helvetica,sans-Serif" font-size="10.00">+ ImVector()</text>
<text text-anchor="start" x="400" y="-95.5" font-family="Helvetica,sans-Serif" font-size="10.00">+ operator=()</text>
<text text-anchor="start" x="400" y="-84.5" font-family="Helvetica,sans-Serif" font-size="10.00">+ ~ImVector()</text>
<text text-anchor="start" x="400" y="-73.5" font-family="Helvetica,sans-Serif" font-size="10.00">+ clear()</text>
<text text-anchor="start" x="400" y="-62.5" font-family="Helvetica,sans-Serif" font-size="10.00">+ clear_delete()</text>
<text text-anchor="start" x="400" y="-51.5" font-family="Helvetica,sans-Serif" font-size="10.00">+ clear_destruct()</text>
<text text-anchor="start" x="400" y="-40.5" font-family="Helvetica,sans-Serif" font-size="10.00">+ empty()</text>
<text text-anchor="start" x="400" y="-29.5" font-family="Helvetica,sans-Serif" font-size="10.00">+ size()</text>
<text text-anchor="start" x="400" y="-18.5" font-family="Helvetica,sans-Serif" font-size="10.00">+ size_in_bytes()</text>
<text text-anchor="start" x="400" y="-7.5" font-family="Helvetica,sans-Serif" font-size="10.00">and 32 more...</text>
</a>
</g>
</g>
<!-- Node13&#45;&gt;Node1 -->
<g id="edge17" class="edge">
<title>Node13&#45;&gt;Node1</title>
<path fill="none" stroke="#404040" d="M391.75,-170.14C375.66,-181.43 358.52,-192.27 341.5,-201 280.47,-232.31 248.36,-205.52 194.5,-248 109.63,-314.93 97.57,-351.9 68.5,-456 35.2,-575.25 53.81,-714.09 79.65,-820.58"/>
<polygon fill="none" stroke="#404040" points="79.69,-820.77 85.02,-825.63 82.58,-832.42 77.25,-827.55 79.69,-820.77"/>
<text text-anchor="middle" x="106.5" y="-459" font-family="Helvetica,sans-Serif" font-size="10.00"> +CustomRects</text>
</g>
<!-- Node14&#45;&gt;Node13 -->
<g id="edge18" class="edge">
<title>Node14&#45;&gt;Node13</title>
<path fill="none" stroke="#404040" d="M556.25,-281.31C546.71,-260.07 535.68,-235.52 524.9,-211.51"/>
<polygon fill="none" stroke="#404040" points="524.89,-211.48 518.78,-207.65 519.97,-200.54 526.08,-204.37 524.89,-211.48"/>
<text text-anchor="middle" x="550" y="-222" font-family="Helvetica,sans-Serif" font-size="10.00"> +Data</text>
</g>
</g>
</svg>
