<?xml version="1.0" encoding="UTF-8" standalone="no"?>
<!DOCTYPE svg PUBLIC "-//W3C//DTD SVG 1.1//EN"
 "http://www.w3.org/Graphics/SVG/1.1/DTD/svg11.dtd">
<!-- Generated by graphviz version 2.43.0 (0)
 -->
<!-- Title: ImDrawCmdHeader Pages: 1 -->
<svg width="121pt" height="226pt"
 viewBox="0.00 0.00 121.00 226.00" xmlns="http://www.w3.org/2000/svg" xmlns:xlink="http://www.w3.org/1999/xlink">
<g id="graph0" class="graph" transform="scale(1 1) rotate(0) translate(4 222)">
<title>ImDrawCmdHeader</title>
<!-- Node1 -->
<g id="node1" class="node">
<title>Node1</title>
<g id="a_node1"><a xlink:title=" ">
<polygon fill="#bfbfbf" stroke="black" points="0,-0.5 0,-68.5 113,-68.5 113,-0.5 0,-0.5"/>
<text text-anchor="middle" x="56.5" y="-56.5" font-family="Helvetica,sans-Serif" font-size="10.00">ImDrawCmdHeader</text>
<polyline fill="none" stroke="black" points="0,-49.5 113,-49.5 "/>
<text text-anchor="start" x="8" y="-37.5" font-family="Helvetica,sans-Serif" font-size="10.00">+ TextureId</text>
<text text-anchor="start" x="8" y="-26.5" font-family="Helvetica,sans-Serif" font-size="10.00">+ VtxOffset</text>
<polyline fill="none" stroke="black" points="0,-19.5 113,-19.5 "/>
<text text-anchor="middle" x="56.5" y="-7.5" font-family="Helvetica,sans-Serif" font-size="10.00"> </text>
</a>
</g>
</g>
<!-- Node2 -->
<g id="node2" class="node">
<title>Node2</title>
<g id="a_node2"><a xlink:href="structImVec4.html" target="_top" xlink:title=" ">
<polygon fill="none" stroke="black" points="21,-116.5 21,-217.5 92,-217.5 92,-116.5 21,-116.5"/>
<text text-anchor="middle" x="56.5" y="-205.5" font-family="Helvetica,sans-Serif" font-size="10.00">ImVec4</text>
<polyline fill="none" stroke="black" points="21,-198.5 92,-198.5 "/>
<text text-anchor="start" x="29" y="-186.5" font-family="Helvetica,sans-Serif" font-size="10.00">+ x</text>
<text text-anchor="start" x="29" y="-175.5" font-family="Helvetica,sans-Serif" font-size="10.00">+ y</text>
<text text-anchor="start" x="29" y="-164.5" font-family="Helvetica,sans-Serif" font-size="10.00">+ z</text>
<text text-anchor="start" x="29" y="-153.5" font-family="Helvetica,sans-Serif" font-size="10.00">+ w</text>
<polyline fill="none" stroke="black" points="21,-146.5 92,-146.5 "/>
<text text-anchor="start" x="29" y="-134.5" font-family="Helvetica,sans-Serif" font-size="10.00">+ ImVec4()</text>
<text text-anchor="start" x="29" y="-123.5" font-family="Helvetica,sans-Serif" font-size="10.00">+ ImVec4()</text>
</a>
</g>
</g>
<!-- Node2&#45;&gt;Node1 -->
<g id="edge1" class="edge">
<title>Node2&#45;&gt;Node1</title>
<path fill="none" stroke="#404040" d="M56.5,-116.29C56.5,-104.55 56.5,-92.09 56.5,-80.57"/>
<polygon fill="none" stroke="#404040" points="56.5,-80.51 52.5,-74.51 56.5,-68.51 60.5,-74.51 56.5,-80.51"/>
<text text-anchor="middle" x="82.5" y="-90" font-family="Helvetica,sans-Serif" font-size="10.00"> +ClipRect</text>
</g>
</g>
</svg>
