<?xml version="1.0" encoding="UTF-8" standalone="no"?>
<!DOCTYPE svg PUBLIC "-//W3C//DTD SVG 1.1//EN"
 "http://www.w3.org/Graphics/SVG/1.1/DTD/svg11.dtd">
<!-- Generated by graphviz version 2.43.0 (0)
 -->
<!-- Title: ImGuiTextFilter Pages: 1 -->
<svg width="154pt" height="540pt"
 viewBox="0.00 0.00 154.00 540.00" xmlns="http://www.w3.org/2000/svg" xmlns:xlink="http://www.w3.org/1999/xlink">
<g id="graph0" class="graph" transform="scale(1 1) rotate(0) translate(4 536)">
<title>ImGuiTextFilter</title>
<!-- Node1 -->
<g id="node1" class="node">
<title>Node1</title>
<g id="a_node1"><a xlink:title=" ">
<polygon fill="#bfbfbf" stroke="black" points="18,-0.5 18,-123.5 128,-123.5 128,-0.5 18,-0.5"/>
<text text-anchor="middle" x="73" y="-111.5" font-family="Helvetica,sans-Serif" font-size="10.00">ImGuiTextFilter</text>
<polyline fill="none" stroke="black" points="18,-104.5 128,-104.5 "/>
<text text-anchor="start" x="26" y="-92.5" font-family="Helvetica,sans-Serif" font-size="10.00">+ InputBuf</text>
<text text-anchor="start" x="26" y="-81.5" font-family="Helvetica,sans-Serif" font-size="10.00">+ CountGrep</text>
<polyline fill="none" stroke="black" points="18,-74.5 128,-74.5 "/>
<text text-anchor="start" x="26" y="-62.5" font-family="Helvetica,sans-Serif" font-size="10.00">+ ImGuiTextFilter()</text>
<text text-anchor="start" x="26" y="-51.5" font-family="Helvetica,sans-Serif" font-size="10.00">+ Draw()</text>
<text text-anchor="start" x="26" y="-40.5" font-family="Helvetica,sans-Serif" font-size="10.00">+ PassFilter()</text>
<text text-anchor="start" x="26" y="-29.5" font-family="Helvetica,sans-Serif" font-size="10.00">+ Build()</text>
<text text-anchor="start" x="26" y="-18.5" font-family="Helvetica,sans-Serif" font-size="10.00">+ Clear()</text>
<text text-anchor="start" x="26" y="-7.5" font-family="Helvetica,sans-Serif" font-size="10.00">+ IsActive()</text>
</a>
</g>
</g>
<!-- Node2 -->
<g id="node2" class="node">
<title>Node2</title>
<g id="a_node2"><a xlink:href="structImVector.html" target="_top" xlink:title=" ">
<polygon fill="none" stroke="black" points="0,-171.5 0,-371.5 146,-371.5 146,-171.5 0,-171.5"/>
<text text-anchor="start" x="8" y="-359.5" font-family="Helvetica,sans-Serif" font-size="10.00">ImVector&lt; ImGuiTextFilter</text>
<text text-anchor="middle" x="73" y="-348.5" font-family="Helvetica,sans-Serif" font-size="10.00">::ImGuiTextRange &gt;</text>
<polyline fill="none" stroke="black" points="0,-341.5 146,-341.5 "/>
<text text-anchor="start" x="8" y="-329.5" font-family="Helvetica,sans-Serif" font-size="10.00">+ const_iterator</text>
<text text-anchor="start" x="8" y="-318.5" font-family="Helvetica,sans-Serif" font-size="10.00">+ Size</text>
<text text-anchor="start" x="8" y="-307.5" font-family="Helvetica,sans-Serif" font-size="10.00">+ Capacity</text>
<polyline fill="none" stroke="black" points="0,-300.5 146,-300.5 "/>
<text text-anchor="start" x="8" y="-288.5" font-family="Helvetica,sans-Serif" font-size="10.00">+ ImVector()</text>
<text text-anchor="start" x="8" y="-277.5" font-family="Helvetica,sans-Serif" font-size="10.00">+ ImVector()</text>
<text text-anchor="start" x="8" y="-266.5" font-family="Helvetica,sans-Serif" font-size="10.00">+ operator=()</text>
<text text-anchor="start" x="8" y="-255.5" font-family="Helvetica,sans-Serif" font-size="10.00">+ ~ImVector()</text>
<text text-anchor="start" x="8" y="-244.5" font-family="Helvetica,sans-Serif" font-size="10.00">+ clear()</text>
<text text-anchor="start" x="8" y="-233.5" font-family="Helvetica,sans-Serif" font-size="10.00">+ clear_delete()</text>
<text text-anchor="start" x="8" y="-222.5" font-family="Helvetica,sans-Serif" font-size="10.00">+ clear_destruct()</text>
<text text-anchor="start" x="8" y="-211.5" font-family="Helvetica,sans-Serif" font-size="10.00">+ empty()</text>
<text text-anchor="start" x="8" y="-200.5" font-family="Helvetica,sans-Serif" font-size="10.00">+ size()</text>
<text text-anchor="start" x="8" y="-189.5" font-family="Helvetica,sans-Serif" font-size="10.00">+ size_in_bytes()</text>
<text text-anchor="start" x="8" y="-178.5" font-family="Helvetica,sans-Serif" font-size="10.00">and 32 more...</text>
</a>
</g>
</g>
<!-- Node2&#45;&gt;Node1 -->
<g id="edge1" class="edge">
<title>Node2&#45;&gt;Node1</title>
<path fill="none" stroke="#404040" d="M73,-171.31C73,-159.37 73,-147.35 73,-135.89"/>
<polygon fill="none" stroke="#404040" points="73,-135.7 69,-129.7 73,-123.7 77,-129.7 73,-135.7"/>
<text text-anchor="middle" x="94" y="-145" font-family="Helvetica,sans-Serif" font-size="10.00"> +Filters</text>
</g>
<!-- Node3 -->
<g id="node3" class="node">
<title>Node3</title>
<g id="a_node3"><a xlink:href="structImGuiTextFilter_1_1ImGuiTextRange.html" target="_top" xlink:title=" ">
<polygon fill="none" stroke="black" points="0,-419.5 0,-531.5 146,-531.5 146,-419.5 0,-419.5"/>
<text text-anchor="start" x="8" y="-519.5" font-family="Helvetica,sans-Serif" font-size="10.00">ImGuiTextFilter::ImGuiText</text>
<text text-anchor="middle" x="73" y="-508.5" font-family="Helvetica,sans-Serif" font-size="10.00">Range</text>
<polyline fill="none" stroke="black" points="0,-501.5 146,-501.5 "/>
<text text-anchor="start" x="8" y="-489.5" font-family="Helvetica,sans-Serif" font-size="10.00">+ b</text>
<text text-anchor="start" x="8" y="-478.5" font-family="Helvetica,sans-Serif" font-size="10.00">+ e</text>
<polyline fill="none" stroke="black" points="0,-471.5 146,-471.5 "/>
<text text-anchor="start" x="8" y="-459.5" font-family="Helvetica,sans-Serif" font-size="10.00">+ ImGuiTextRange()</text>
<text text-anchor="start" x="8" y="-448.5" font-family="Helvetica,sans-Serif" font-size="10.00">+ ImGuiTextRange()</text>
<text text-anchor="start" x="8" y="-437.5" font-family="Helvetica,sans-Serif" font-size="10.00">+ empty()</text>
<text text-anchor="start" x="8" y="-426.5" font-family="Helvetica,sans-Serif" font-size="10.00">+ split()</text>
</a>
</g>
</g>
<!-- Node3&#45;&gt;Node2 -->
<g id="edge2" class="edge">
<title>Node3&#45;&gt;Node2</title>
<path fill="none" stroke="#404040" d="M73,-419.3C73,-408.18 73,-396.11 73,-383.84"/>
<polygon fill="none" stroke="#404040" points="73,-383.52 69,-377.52 73,-371.52 77,-377.52 73,-383.52"/>
<text text-anchor="middle" x="90.5" y="-393" font-family="Helvetica,sans-Serif" font-size="10.00"> +Data</text>
</g>
</g>
</svg>
