<?xml version="1.0" encoding="UTF-8" standalone="no"?>
<!DOCTYPE svg PUBLIC "-//W3C//DTD SVG 1.1//EN"
 "http://www.w3.org/Graphics/SVG/1.1/DTD/svg11.dtd">
<!-- Generated by graphviz version 2.43.0 (0)
 -->
<!-- Title: ImPool&lt; T &gt; Pages: 1 -->
<svg width="182pt" height="876pt"
 viewBox="0.00 0.00 182.00 876.00" xmlns="http://www.w3.org/2000/svg" xmlns:xlink="http://www.w3.org/1999/xlink">
<g id="graph0" class="graph" transform="scale(1 1) rotate(0) translate(4 872)">
<title>ImPool&lt; T &gt;</title>
<!-- Node1 -->
<g id="node1" class="node">
<title>Node1</title>
<g id="a_node1"><a xlink:title=" ">
<polygon fill="#bfbfbf" stroke="black" points="30.5,-0.5 30.5,-189.5 143.5,-189.5 143.5,-0.5 30.5,-0.5"/>
<text text-anchor="middle" x="87" y="-177.5" font-family="Helvetica,sans-Serif" font-size="10.00">ImPool&lt; T &gt;</text>
<polyline fill="none" stroke="black" points="30.5,-170.5 143.5,-170.5 "/>
<text text-anchor="start" x="38.5" y="-158.5" font-family="Helvetica,sans-Serif" font-size="10.00">+ Buf</text>
<text text-anchor="start" x="38.5" y="-147.5" font-family="Helvetica,sans-Serif" font-size="10.00">+ FreeIdx</text>
<text text-anchor="start" x="38.5" y="-136.5" font-family="Helvetica,sans-Serif" font-size="10.00">+ AliveCount</text>
<polyline fill="none" stroke="black" points="30.5,-129.5 143.5,-129.5 "/>
<text text-anchor="start" x="38.5" y="-117.5" font-family="Helvetica,sans-Serif" font-size="10.00">+ ImPool()</text>
<text text-anchor="start" x="38.5" y="-106.5" font-family="Helvetica,sans-Serif" font-size="10.00">+ ~ImPool()</text>
<text text-anchor="start" x="38.5" y="-95.5" font-family="Helvetica,sans-Serif" font-size="10.00">+ GetByKey()</text>
<text text-anchor="start" x="38.5" y="-84.5" font-family="Helvetica,sans-Serif" font-size="10.00">+ GetByIndex()</text>
<text text-anchor="start" x="38.5" y="-73.5" font-family="Helvetica,sans-Serif" font-size="10.00">+ GetIndex()</text>
<text text-anchor="start" x="38.5" y="-62.5" font-family="Helvetica,sans-Serif" font-size="10.00">+ GetOrAddByKey()</text>
<text text-anchor="start" x="38.5" y="-51.5" font-family="Helvetica,sans-Serif" font-size="10.00">+ Contains()</text>
<text text-anchor="start" x="38.5" y="-40.5" font-family="Helvetica,sans-Serif" font-size="10.00">+ Clear()</text>
<text text-anchor="start" x="38.5" y="-29.5" font-family="Helvetica,sans-Serif" font-size="10.00">+ Add()</text>
<text text-anchor="start" x="38.5" y="-18.5" font-family="Helvetica,sans-Serif" font-size="10.00">+ Remove()</text>
<text text-anchor="start" x="38.5" y="-7.5" font-family="Helvetica,sans-Serif" font-size="10.00">and 7 more...</text>
</a>
</g>
</g>
<!-- Node2 -->
<g id="node2" class="node">
<title>Node2</title>
<g id="a_node2"><a xlink:href="structImGuiStorage.html" target="_top" xlink:title=" ">
<polygon fill="none" stroke="black" points="32,-237.5 32,-448.5 142,-448.5 142,-237.5 32,-237.5"/>
<text text-anchor="middle" x="87" y="-436.5" font-family="Helvetica,sans-Serif" font-size="10.00">ImGuiStorage</text>
<polyline fill="none" stroke="black" points="32,-429.5 142,-429.5 "/>
<text text-anchor="middle" x="87" y="-417.5" font-family="Helvetica,sans-Serif" font-size="10.00"> </text>
<polyline fill="none" stroke="black" points="32,-410.5 142,-410.5 "/>
<text text-anchor="start" x="40" y="-398.5" font-family="Helvetica,sans-Serif" font-size="10.00">+ Clear()</text>
<text text-anchor="start" x="40" y="-387.5" font-family="Helvetica,sans-Serif" font-size="10.00">+ GetInt()</text>
<text text-anchor="start" x="40" y="-376.5" font-family="Helvetica,sans-Serif" font-size="10.00">+ SetInt()</text>
<text text-anchor="start" x="40" y="-365.5" font-family="Helvetica,sans-Serif" font-size="10.00">+ GetBool()</text>
<text text-anchor="start" x="40" y="-354.5" font-family="Helvetica,sans-Serif" font-size="10.00">+ SetBool()</text>
<text text-anchor="start" x="40" y="-343.5" font-family="Helvetica,sans-Serif" font-size="10.00">+ GetFloat()</text>
<text text-anchor="start" x="40" y="-332.5" font-family="Helvetica,sans-Serif" font-size="10.00">+ SetFloat()</text>
<text text-anchor="start" x="40" y="-321.5" font-family="Helvetica,sans-Serif" font-size="10.00">+ GetVoidPtr()</text>
<text text-anchor="start" x="40" y="-310.5" font-family="Helvetica,sans-Serif" font-size="10.00">+ SetVoidPtr()</text>
<text text-anchor="start" x="40" y="-299.5" font-family="Helvetica,sans-Serif" font-size="10.00">+ GetIntRef()</text>
<text text-anchor="start" x="40" y="-288.5" font-family="Helvetica,sans-Serif" font-size="10.00">+ GetBoolRef()</text>
<text text-anchor="start" x="40" y="-277.5" font-family="Helvetica,sans-Serif" font-size="10.00">+ GetFloatRef()</text>
<text text-anchor="start" x="40" y="-266.5" font-family="Helvetica,sans-Serif" font-size="10.00">+ GetVoidPtrRef()</text>
<text text-anchor="start" x="40" y="-255.5" font-family="Helvetica,sans-Serif" font-size="10.00">+ SetAllInt()</text>
<text text-anchor="start" x="40" y="-244.5" font-family="Helvetica,sans-Serif" font-size="10.00">+ BuildSortByKey()</text>
</a>
</g>
</g>
<!-- Node2&#45;&gt;Node1 -->
<g id="edge1" class="edge">
<title>Node2&#45;&gt;Node1</title>
<path fill="none" stroke="#404040" d="M87,-237.32C87,-225.57 87,-213.6 87,-201.84"/>
<polygon fill="none" stroke="#404040" points="87,-201.69 83,-195.69 87,-189.69 91,-195.69 87,-201.69"/>
<text text-anchor="middle" x="103.5" y="-211" font-family="Helvetica,sans-Serif" font-size="10.00"> +Map</text>
</g>
<!-- Node3 -->
<g id="node3" class="node">
<title>Node3</title>
<g id="a_node3"><a xlink:href="structImVector.html" target="_top" xlink:title=" ">
<polygon fill="none" stroke="black" points="18,-496.5 18,-696.5 156,-696.5 156,-496.5 18,-496.5"/>
<text text-anchor="start" x="26" y="-684.5" font-family="Helvetica,sans-Serif" font-size="10.00">ImVector&lt; ImGuiStorage</text>
<text text-anchor="middle" x="87" y="-673.5" font-family="Helvetica,sans-Serif" font-size="10.00">::ImGuiStoragePair &gt;</text>
<polyline fill="none" stroke="black" points="18,-666.5 156,-666.5 "/>
<text text-anchor="start" x="26" y="-654.5" font-family="Helvetica,sans-Serif" font-size="10.00">+ const_iterator</text>
<text text-anchor="start" x="26" y="-643.5" font-family="Helvetica,sans-Serif" font-size="10.00">+ Size</text>
<text text-anchor="start" x="26" y="-632.5" font-family="Helvetica,sans-Serif" font-size="10.00">+ Capacity</text>
<polyline fill="none" stroke="black" points="18,-625.5 156,-625.5 "/>
<text text-anchor="start" x="26" y="-613.5" font-family="Helvetica,sans-Serif" font-size="10.00">+ ImVector()</text>
<text text-anchor="start" x="26" y="-602.5" font-family="Helvetica,sans-Serif" font-size="10.00">+ ImVector()</text>
<text text-anchor="start" x="26" y="-591.5" font-family="Helvetica,sans-Serif" font-size="10.00">+ operator=()</text>
<text text-anchor="start" x="26" y="-580.5" font-family="Helvetica,sans-Serif" font-size="10.00">+ ~ImVector()</text>
<text text-anchor="start" x="26" y="-569.5" font-family="Helvetica,sans-Serif" font-size="10.00">+ clear()</text>
<text text-anchor="start" x="26" y="-558.5" font-family="Helvetica,sans-Serif" font-size="10.00">+ clear_delete()</text>
<text text-anchor="start" x="26" y="-547.5" font-family="Helvetica,sans-Serif" font-size="10.00">+ clear_destruct()</text>
<text text-anchor="start" x="26" y="-536.5" font-family="Helvetica,sans-Serif" font-size="10.00">+ empty()</text>
<text text-anchor="start" x="26" y="-525.5" font-family="Helvetica,sans-Serif" font-size="10.00">+ size()</text>
<text text-anchor="start" x="26" y="-514.5" font-family="Helvetica,sans-Serif" font-size="10.00">+ size_in_bytes()</text>
<text text-anchor="start" x="26" y="-503.5" font-family="Helvetica,sans-Serif" font-size="10.00">and 32 more...</text>
</a>
</g>
</g>
<!-- Node3&#45;&gt;Node2 -->
<g id="edge2" class="edge">
<title>Node3&#45;&gt;Node2</title>
<path fill="none" stroke="#404040" d="M87,-496.46C87,-484.83 87,-472.88 87,-461.03"/>
<polygon fill="none" stroke="#404040" points="87,-460.75 83,-454.75 87,-448.75 91,-454.75 87,-460.75"/>
<text text-anchor="middle" x="104.5" y="-470" font-family="Helvetica,sans-Serif" font-size="10.00"> +Data</text>
</g>
<!-- Node4 -->
<g id="node4" class="node">
<title>Node4</title>
<g id="a_node4"><a xlink:href="structImGuiStorage_1_1ImGuiStoragePair.html" target="_top" xlink:title=" ">
<polygon fill="none" stroke="black" points="0,-744.5 0,-867.5 174,-867.5 174,-744.5 0,-744.5"/>
<text text-anchor="middle" x="87" y="-855.5" font-family="Helvetica,sans-Serif" font-size="10.00">ImGuiStorage::ImGuiStoragePair</text>
<polyline fill="none" stroke="black" points="0,-848.5 174,-848.5 "/>
<text text-anchor="start" x="8" y="-836.5" font-family="Helvetica,sans-Serif" font-size="10.00">+ key</text>
<text text-anchor="start" x="8" y="-825.5" font-family="Helvetica,sans-Serif" font-size="10.00">+ val_i</text>
<text text-anchor="start" x="8" y="-814.5" font-family="Helvetica,sans-Serif" font-size="10.00">+ val_f</text>
<text text-anchor="start" x="8" y="-803.5" font-family="Helvetica,sans-Serif" font-size="10.00">+ val_p</text>
<text text-anchor="start" x="8" y="-792.5" font-family="Helvetica,sans-Serif" font-size="10.00">+ @2</text>
<polyline fill="none" stroke="black" points="0,-785.5 174,-785.5 "/>
<text text-anchor="start" x="8" y="-773.5" font-family="Helvetica,sans-Serif" font-size="10.00">+ ImGuiStoragePair()</text>
<text text-anchor="start" x="8" y="-762.5" font-family="Helvetica,sans-Serif" font-size="10.00">+ ImGuiStoragePair()</text>
<text text-anchor="start" x="8" y="-751.5" font-family="Helvetica,sans-Serif" font-size="10.00">+ ImGuiStoragePair()</text>
</a>
</g>
</g>
<!-- Node4&#45;&gt;Node3 -->
<g id="edge3" class="edge">
<title>Node4&#45;&gt;Node3</title>
<path fill="none" stroke="#404040" d="M87,-744.42C87,-733.21 87,-721.18 87,-709"/>
<polygon fill="none" stroke="#404040" points="87,-708.8 83,-702.8 87,-696.8 91,-702.8 87,-708.8"/>
<text text-anchor="middle" x="104.5" y="-718" font-family="Helvetica,sans-Serif" font-size="10.00"> +Data</text>
</g>
</g>
</svg>
