<?xml version="1.0" encoding="UTF-8" standalone="no"?>
<!DOCTYPE svg PUBLIC "-//W3C//DTD SVG 1.1//EN"
 "http://www.w3.org/Graphics/SVG/1.1/DTD/svg11.dtd">
<!-- Generated by graphviz version 2.43.0 (0)
 -->
<!-- Title: GameData Pages: 1 -->
<!--zoomable 606 -->
<svg id="main" version="1.1" xmlns="http://www.w3.org/2000/svg" xmlns:xlink="http://www.w3.org/1999/xlink" xml:space="preserve" onload="init(evt)">
<style type="text/css"><![CDATA[
.edge:hover path { stroke: red; }
.edge:hover polygon { stroke: red; fill: red; }
]]></style>
<script type="text/javascript"><![CDATA[
var edges = document.getElementsByTagName('g');
if (edges && edges.length) {
  for (var i=0;i<edges.length;i++) {
    if (edges[i].id.substr(0,4)=='edge') {
      edges[i].setAttribute('class','edge');
    }
  }
}
]]></script>
        <defs>
                <circle id="rim" cx="0" cy="0" r="7"/>
                <circle id="rim2" cx="0" cy="0" r="3.5"/>
                <g id="zoomPlus">
                        <use xlink:href="#rim" fill="#404040">
                                <set attributeName="fill" to="#808080" begin="zoomplus.mouseover" end="zoomplus.mouseout"/>
                        </use>
                        <path d="M-4,0h8M0,-4v8" fill="none" stroke="white" stroke-width="1.5" pointer-events="none"/>
                </g>
                <g id="zoomMin">
                        <use xlink:href="#rim" fill="#404040">
                                <set attributeName="fill" to="#808080" begin="zoomminus.mouseover" end="zoomminus.mouseout"/>
                        </use>
                        <path d="M-4,0h8" fill="none" stroke="white" stroke-width="1.5" pointer-events="none"/>
                </g>
                <g id="dirArrow">
                        <path fill="none" stroke="white" stroke-width="1.5" d="M0,-3.0v7 M-2.5,-0.5L0,-3.0L2.5,-0.5"/>
                </g>
               <g id="resetDef">
                       <use xlink:href="#rim2" fill="#404040">
                               <set attributeName="fill" to="#808080" begin="reset.mouseover" end="reset.mouseout"/>
                       </use>
               </g>
        </defs>

<script type="text/javascript">
var viewWidth = 520;
var viewHeight = 606;
var sectionId = 'dynsection-0';
</script>
<script xlink:href="svgpan.js"/>
<svg id="graph" class="graph">
<g id="viewport">
<title>GameData</title>
<!-- Node1 -->
<g id="node1" class="node">
<title>Node1</title>
<g id="a_node1"><a xlink:title=" ">
<polygon fill="#bfbfbf" stroke="black" points="167,-0.5 167,-123.5 263,-123.5 263,-0.5 167,-0.5"/>
<text text-anchor="middle" x="215" y="-111.5" font-family="Helvetica,sans-Serif" font-size="10.00">GameData</text>
<polyline fill="none" stroke="black" points="167,-104.5 263,-104.5 "/>
<text text-anchor="start" x="175" y="-92.5" font-family="Helvetica,sans-Serif" font-size="10.00">+ window</text>
<text text-anchor="start" x="175" y="-81.5" font-family="Helvetica,sans-Serif" font-size="10.00">+ world</text>
<text text-anchor="start" x="175" y="-70.5" font-family="Helvetica,sans-Serif" font-size="10.00">+ state_switch</text>
<text text-anchor="start" x="175" y="-59.5" font-family="Helvetica,sans-Serif" font-size="10.00">+ level</text>
<polyline fill="none" stroke="black" points="167,-52.5 263,-52.5 "/>
<text text-anchor="start" x="175" y="-40.5" font-family="Helvetica,sans-Serif" font-size="10.00">+ GameData()</text>
<text text-anchor="start" x="175" y="-29.5" font-family="Helvetica,sans-Serif" font-size="10.00">+ GameData()</text>
<text text-anchor="start" x="175" y="-18.5" font-family="Helvetica,sans-Serif" font-size="10.00">+ GameData()</text>
<text text-anchor="start" x="175" y="-7.5" font-family="Helvetica,sans-Serif" font-size="10.00">+ ~GameData()</text>
</a>
</g>
</g>
<!-- Node2 -->
<g id="node2" class="node">
<title>Node2</title>
<g id="a_node2"><a xlink:href="classStateMachine.html" target="_top" xlink:title=" ">
<polygon fill="none" stroke="black" points="0,-232 0,-399 110,-399 110,-232 0,-232"/>
<text text-anchor="middle" x="55" y="-387" font-family="Helvetica,sans-Serif" font-size="10.00">StateMachine</text>
<polyline fill="none" stroke="black" points="0,-380 110,-380 "/>
<text text-anchor="start" x="8" y="-368" font-family="Helvetica,sans-Serif" font-size="10.00">&#45; _states</text>
<text text-anchor="start" x="8" y="-357" font-family="Helvetica,sans-Serif" font-size="10.00">&#45; _newStates</text>
<text text-anchor="start" x="8" y="-346" font-family="Helvetica,sans-Serif" font-size="10.00">&#45; _isRemoving</text>
<text text-anchor="start" x="8" y="-335" font-family="Helvetica,sans-Serif" font-size="10.00">&#45; _isReplacing</text>
<text text-anchor="start" x="8" y="-324" font-family="Helvetica,sans-Serif" font-size="10.00">&#45; _isAdding</text>
<polyline fill="none" stroke="black" points="0,-317 110,-317 "/>
<text text-anchor="start" x="8" y="-305" font-family="Helvetica,sans-Serif" font-size="10.00">+ StateMachine()</text>
<text text-anchor="start" x="8" y="-294" font-family="Helvetica,sans-Serif" font-size="10.00">+ ~StateMachine()</text>
<text text-anchor="start" x="8" y="-283" font-family="Helvetica,sans-Serif" font-size="10.00">+ AddState()</text>
<text text-anchor="start" x="8" y="-272" font-family="Helvetica,sans-Serif" font-size="10.00">+ RemoveState()</text>
<text text-anchor="start" x="8" y="-261" font-family="Helvetica,sans-Serif" font-size="10.00">+ ProcessState()</text>
<text text-anchor="start" x="8" y="-250" font-family="Helvetica,sans-Serif" font-size="10.00">+ Clear()</text>
<text text-anchor="start" x="8" y="-239" font-family="Helvetica,sans-Serif" font-size="10.00">+ GetActiveState()</text>
</a>
</g>
</g>
<!-- Node2&#45;&gt;Node1 -->
<g id="edge1" class="edge">
<title>Node2&#45;&gt;Node1</title>
<path fill="none" stroke="#404040" d="M86.7,-231.79C95.95,-211.27 106.87,-189.79 119,-171 130.43,-153.29 144.69,-135.57 158.7,-119.76"/>
<polygon fill="none" stroke="#404040" points="158.86,-119.59 159.91,-112.46 166.9,-110.69 165.85,-117.82 158.86,-119.59"/>
<text text-anchor="middle" x="167" y="-145" font-family="Helvetica,sans-Serif" font-size="10.00"> +machine</text>
</g>
<!-- Node3 -->
<g id="node3" class="node">
<title>Node3</title>
<g id="a_node3"><a xlink:href="classLoadingGameObjects.html" target="_top" xlink:title=" ">
<polygon fill="none" stroke="black" points="128.5,-171.5 128.5,-459.5 301.5,-459.5 301.5,-171.5 128.5,-171.5"/>
<text text-anchor="middle" x="215" y="-447.5" font-family="Helvetica,sans-Serif" font-size="10.00">LoadingGameObjects</text>
<polyline fill="none" stroke="black" points="128.5,-440.5 301.5,-440.5 "/>
<text text-anchor="start" x="136.5" y="-428.5" font-family="Helvetica,sans-Serif" font-size="10.00">&#45; game_objects</text>
<text text-anchor="start" x="136.5" y="-417.5" font-family="Helvetica,sans-Serif" font-size="10.00">&#45; npc_game_objects</text>
<text text-anchor="start" x="136.5" y="-406.5" font-family="Helvetica,sans-Serif" font-size="10.00">&#45; platform_game_objects</text>
<text text-anchor="start" x="136.5" y="-395.5" font-family="Helvetica,sans-Serif" font-size="10.00">&#45; edge_game_objects</text>
<text text-anchor="start" x="136.5" y="-384.5" font-family="Helvetica,sans-Serif" font-size="10.00">&#45; tile_objects</text>
<text text-anchor="start" x="136.5" y="-373.5" font-family="Helvetica,sans-Serif" font-size="10.00">&#45; animation_actors</text>
<text text-anchor="start" x="136.5" y="-362.5" font-family="Helvetica,sans-Serif" font-size="10.00">&#45; count</text>
<text text-anchor="start" x="136.5" y="-351.5" font-family="Helvetica,sans-Serif" font-size="10.00">&#45; npc_count</text>
<text text-anchor="start" x="136.5" y="-340.5" font-family="Helvetica,sans-Serif" font-size="10.00">&#45; tileX_count</text>
<text text-anchor="start" x="136.5" y="-329.5" font-family="Helvetica,sans-Serif" font-size="10.00">&#45; tileY_count</text>
<text text-anchor="start" x="136.5" y="-318.5" font-family="Helvetica,sans-Serif" font-size="10.00">&#45; edgeTwoSided</text>
<polyline fill="none" stroke="black" points="128.5,-311.5 301.5,-311.5 "/>
<text text-anchor="start" x="136.5" y="-299.5" font-family="Helvetica,sans-Serif" font-size="10.00">+ LoadingGameObjects()</text>
<text text-anchor="start" x="136.5" y="-288.5" font-family="Helvetica,sans-Serif" font-size="10.00">+ ~LoadingGameObjects()</text>
<text text-anchor="start" x="136.5" y="-277.5" font-family="Helvetica,sans-Serif" font-size="10.00">+ Load_XML_SPLASH_SCREEN()</text>
<text text-anchor="start" x="136.5" y="-266.5" font-family="Helvetica,sans-Serif" font-size="10.00">+ Load_XML_ASSETS()</text>
<text text-anchor="start" x="136.5" y="-255.5" font-family="Helvetica,sans-Serif" font-size="10.00">+ generate_textures()</text>
<text text-anchor="start" x="136.5" y="-244.5" font-family="Helvetica,sans-Serif" font-size="10.00">+ return_game_objects()</text>
<text text-anchor="start" x="136.5" y="-233.5" font-family="Helvetica,sans-Serif" font-size="10.00">+ return_npc_game_objects()</text>
<text text-anchor="start" x="136.5" y="-222.5" font-family="Helvetica,sans-Serif" font-size="10.00">+ return_edge_game_objects()</text>
<text text-anchor="start" x="136.5" y="-211.5" font-family="Helvetica,sans-Serif" font-size="10.00">+ return_platform_game</text>
<text text-anchor="start" x="136.5" y="-200.5" font-family="Helvetica,sans-Serif" font-size="10.00">_objects()</text>
<text text-anchor="start" x="136.5" y="-189.5" font-family="Helvetica,sans-Serif" font-size="10.00">+ return_tile_objects()</text>
<text text-anchor="start" x="136.5" y="-178.5" font-family="Helvetica,sans-Serif" font-size="10.00">+ return_animation_actors()</text>
</a>
</g>
</g>
<!-- Node3&#45;&gt;Node1 -->
<g id="edge2" class="edge">
<title>Node3&#45;&gt;Node1</title>
<path fill="none" stroke="#404040" d="M215,-171.48C215,-159.14 215,-147.02 215,-135.62"/>
<polygon fill="none" stroke="#404040" points="215,-135.55 211,-129.55 215,-123.55 219,-129.55 215,-135.55"/>
<text text-anchor="middle" x="225.5" y="-145" font-family="Helvetica,sans-Serif" font-size="10.00"> +ld</text>
</g>
<!-- Node4 -->
<g id="node4" class="node">
<title>Node4</title>
<g id="a_node4"><a xlink:href="classOrthographic__camera.html" target="_top" xlink:title=" ">
<polygon fill="none" stroke="black" points="319.5,-237.5 319.5,-393.5 470.5,-393.5 470.5,-237.5 319.5,-237.5"/>
<text text-anchor="middle" x="395" y="-381.5" font-family="Helvetica,sans-Serif" font-size="10.00">Orthographic_camera</text>
<polyline fill="none" stroke="black" points="319.5,-374.5 470.5,-374.5 "/>
<text text-anchor="start" x="327.5" y="-362.5" font-family="Helvetica,sans-Serif" font-size="10.00">&#45; m_rotation</text>
<polyline fill="none" stroke="black" points="319.5,-355.5 470.5,-355.5 "/>
<text text-anchor="start" x="327.5" y="-343.5" font-family="Helvetica,sans-Serif" font-size="10.00">+ Orthographic_camera()</text>
<text text-anchor="start" x="327.5" y="-332.5" font-family="Helvetica,sans-Serif" font-size="10.00">+ ~Orthographic_camera()</text>
<text text-anchor="start" x="327.5" y="-321.5" font-family="Helvetica,sans-Serif" font-size="10.00">+ GetPosition()</text>
<text text-anchor="start" x="327.5" y="-310.5" font-family="Helvetica,sans-Serif" font-size="10.00">+ SetPosition()</text>
<text text-anchor="start" x="327.5" y="-299.5" font-family="Helvetica,sans-Serif" font-size="10.00">+ GetRotation()</text>
<text text-anchor="start" x="327.5" y="-288.5" font-family="Helvetica,sans-Serif" font-size="10.00">+ SetRotation()</text>
<text text-anchor="start" x="327.5" y="-277.5" font-family="Helvetica,sans-Serif" font-size="10.00">+ GetScale()</text>
<text text-anchor="start" x="327.5" y="-266.5" font-family="Helvetica,sans-Serif" font-size="10.00">+ SetScale()</text>
<text text-anchor="start" x="327.5" y="-255.5" font-family="Helvetica,sans-Serif" font-size="10.00">+ return_matrix()</text>
<text text-anchor="start" x="327.5" y="-244.5" font-family="Helvetica,sans-Serif" font-size="10.00">&#45; recalculate_view_matrix()</text>
</a>
</g>
</g>
<!-- Node4&#45;&gt;Node1 -->
<g id="edge3" class="edge">
<title>Node4&#45;&gt;Node1</title>
<path fill="none" stroke="#404040" d="M352.79,-237.22C339.86,-215.28 325.06,-191.73 310,-171 298.27,-154.85 284.61,-138.26 271.36,-123.08"/>
<polygon fill="none" stroke="#404040" points="271.13,-122.82 264.16,-120.97 263.19,-113.82 270.16,-115.67 271.13,-122.82"/>
<text text-anchor="middle" x="318" y="-145" font-family="Helvetica,sans-Serif" font-size="10.00"> +o_cam</text>
</g>
<!-- Node5 -->
<g id="node5" class="node">
<title>Node5</title>
<g id="a_node5"><a xlink:title=" ">
<polygon fill="none" stroke="#bfbfbf" points="242,-540.5 242,-597.5 284,-597.5 284,-540.5 242,-540.5"/>
<text text-anchor="middle" x="263" y="-585.5" font-family="Helvetica,sans-Serif" font-size="10.00">mat4</text>
<polyline fill="none" stroke="#bfbfbf" points="242,-578.5 284,-578.5 "/>
<text text-anchor="middle" x="263" y="-566.5" font-family="Helvetica,sans-Serif" font-size="10.00"> </text>
<polyline fill="none" stroke="#bfbfbf" points="242,-559.5 284,-559.5 "/>
<text text-anchor="middle" x="263" y="-547.5" font-family="Helvetica,sans-Serif" font-size="10.00"> </text>
</a>
</g>
</g>
<!-- Node5&#45;&gt;Node4 -->
<g id="edge4" class="edge">
<title>Node5&#45;&gt;Node4</title>
<path fill="none" stroke="#404040" d="M263.38,-540.24C264.88,-521.24 269.4,-496.27 282,-478 290.4,-465.82 299.73,-470.65 310,-460 325.76,-443.66 339.84,-423.86 351.79,-404.26"/>
<polygon fill="none" stroke="#404040" points="351.91,-404.06 351.52,-396.86 358.02,-393.74 358.41,-400.94 351.91,-404.06"/>
<text text-anchor="middle" x="336.5" y="-514" font-family="Helvetica,sans-Serif" font-size="10.00"> &#45;m_Projection_matrix</text>
<text text-anchor="middle" x="336.5" y="-503" font-family="Helvetica,sans-Serif" font-size="10.00">&#45;m_View_matrix</text>
<text text-anchor="start" x="282" y="-492" font-family="Helvetica,sans-Serif" font-size="10.00">&#45;m_View_Projection</text>
<text text-anchor="middle" x="336.5" y="-481" font-family="Helvetica,sans-Serif" font-size="10.00">_matrix</text>
</g>
<!-- Node6 -->
<g id="node6" class="node">
<title>Node6</title>
<g id="a_node6"><a xlink:title=" ">
<polygon fill="none" stroke="#bfbfbf" points="375,-540.5 375,-597.5 415,-597.5 415,-540.5 375,-540.5"/>
<text text-anchor="middle" x="395" y="-585.5" font-family="Helvetica,sans-Serif" font-size="10.00">vec2</text>
<polyline fill="none" stroke="#bfbfbf" points="375,-578.5 415,-578.5 "/>
<text text-anchor="middle" x="395" y="-566.5" font-family="Helvetica,sans-Serif" font-size="10.00"> </text>
<polyline fill="none" stroke="#bfbfbf" points="375,-559.5 415,-559.5 "/>
<text text-anchor="middle" x="395" y="-547.5" font-family="Helvetica,sans-Serif" font-size="10.00"> </text>
</a>
</g>
</g>
<!-- Node6&#45;&gt;Node4 -->
<g id="edge5" class="edge">
<title>Node6&#45;&gt;Node4</title>
<path fill="none" stroke="#404040" d="M395,-540.12C395,-507.83 395,-452.99 395,-405.71"/>
<polygon fill="none" stroke="#404040" points="395,-405.55 391,-399.55 395,-393.55 399,-399.55 395,-405.55"/>
<text text-anchor="middle" x="419" y="-497.5" font-family="Helvetica,sans-Serif" font-size="10.00"> &#45;m_scale</text>
</g>
<!-- Node7 -->
<g id="node7" class="node">
<title>Node7</title>
<g id="a_node7"><a xlink:title=" ">
<polygon fill="none" stroke="#bfbfbf" points="446,-540.5 446,-597.5 486,-597.5 486,-540.5 446,-540.5"/>
<text text-anchor="middle" x="466" y="-585.5" font-family="Helvetica,sans-Serif" font-size="10.00">vec3</text>
<polyline fill="none" stroke="#bfbfbf" points="446,-578.5 486,-578.5 "/>
<text text-anchor="middle" x="466" y="-566.5" font-family="Helvetica,sans-Serif" font-size="10.00"> </text>
<polyline fill="none" stroke="#bfbfbf" points="446,-559.5 486,-559.5 "/>
<text text-anchor="middle" x="466" y="-547.5" font-family="Helvetica,sans-Serif" font-size="10.00"> </text>
</a>
</g>
</g>
<!-- Node7&#45;&gt;Node4 -->
<g id="edge6" class="edge">
<title>Node7&#45;&gt;Node4</title>
<path fill="none" stroke="#404040" d="M459.65,-540.33C455.45,-522.47 449.69,-498.79 444,-478 437.55,-454.43 430.1,-429.07 422.99,-405.6"/>
<polygon fill="none" stroke="#404040" points="422.91,-405.36 417.34,-400.78 419.42,-393.88 424.99,-398.45 422.91,-405.36"/>
<text text-anchor="middle" x="483" y="-497.5" font-family="Helvetica,sans-Serif" font-size="10.00"> &#45;m_positon</text>
</g>
</g>
</svg>
        <g id="navigator" transform="translate(0 0)" fill="#404254">
                <rect fill="#f2f5e9" fill-opacity="0.5" stroke="#606060" stroke-width=".5" x="0" y="0" width="60" height="60"/>
                <use id="zoomplus" xlink:href="#zoomPlus" x="17" y="9" onmousedown="handleZoom(evt,'in')"/>
                <use id="zoomminus" xlink:href="#zoomMin" x="42" y="9" onmousedown="handleZoom(evt,'out')"/>
                <use id="reset" xlink:href="#resetDef" x="30" y="36" onmousedown="handleReset()"/>
                <g id="arrowUp" xlink:href="#dirArrow" transform="translate(30 24)" onmousedown="handlePan(0,-1)">
                  <use xlink:href="#rim" fill="#404040">
                        <set attributeName="fill" to="#808080" begin="arrowUp.mouseover" end="arrowUp.mouseout"/>
                  </use>
                  <path fill="none" stroke="white" stroke-width="1.5" d="M0,-3.0v7 M-2.5,-0.5L0,-3.0L2.5,-0.5"/>
                </g>
                <g id="arrowRight" xlink:href="#dirArrow" transform="rotate(90) translate(36 -43)" onmousedown="handlePan(1,0)">
                  <use xlink:href="#rim" fill="#404040">
                        <set attributeName="fill" to="#808080" begin="arrowRight.mouseover" end="arrowRight.mouseout"/>
                  </use>
                  <path fill="none" stroke="white" stroke-width="1.5" d="M0,-3.0v7 M-2.5,-0.5L0,-3.0L2.5,-0.5"/>
                </g>
                <g id="arrowDown" xlink:href="#dirArrow" transform="rotate(180) translate(-30 -48)" onmousedown="handlePan(0,1)">
                  <use xlink:href="#rim" fill="#404040">
                        <set attributeName="fill" to="#808080" begin="arrowDown.mouseover" end="arrowDown.mouseout"/>
                  </use>
                  <path fill="none" stroke="white" stroke-width="1.5" d="M0,-3.0v7 M-2.5,-0.5L0,-3.0L2.5,-0.5"/>
                </g>
                <g id="arrowLeft" xlink:href="#dirArrow" transform="rotate(270) translate(-36 17)" onmousedown="handlePan(-1,0)">
                  <use xlink:href="#rim" fill="#404040">
                        <set attributeName="fill" to="#808080" begin="arrowLeft.mouseover" end="arrowLeft.mouseout"/>
                  </use>
                  <path fill="none" stroke="white" stroke-width="1.5" d="M0,-3.0v7 M-2.5,-0.5L0,-3.0L2.5,-0.5"/>
                </g>
        </g>
        <svg viewBox="0 0 15 15" width="100%" height="30px" preserveAspectRatio="xMaxYMin meet">
         <g id="arrow_out" transform="scale(0.3 0.3)">
          <a xlink:href="structGameData__coll__graph_org.svg" target="_base">
           <rect id="button" ry="5" rx="5" y="6" x="6" height="38" width="38"
                fill="#f2f5e9" fill-opacity="0.5" stroke="#606060" stroke-width="1.0"/>
           <path id="arrow"
             d="M 11.500037,31.436501 C 11.940474,20.09759 22.043105,11.32322 32.158766,21.979434 L 37.068811,17.246167 C 37.068811,17.246167 37.088388,32 37.088388,32 L 22.160133,31.978069 C 22.160133,31.978069 26.997745,27.140456 26.997745,27.140456 C 18.528582,18.264221 13.291696,25.230495 11.500037,31.436501 z"
             style="fill:#404040;"/>
          </a>
         </g>
        </svg>
</svg>
