<?xml version="1.0" encoding="UTF-8" standalone="no"?>
<!DOCTYPE svg PUBLIC "-//W3C//DTD SVG 1.1//EN"
 "http://www.w3.org/Graphics/SVG/1.1/DTD/svg11.dtd">
<!-- Generated by graphviz version 2.40.1 (20161225.0304)
 -->
<!-- Title: /mnt/hdd/fnky/C0de/CAPSTONE/clean_build/src/Actors/Actor.cpp Pages: 1 -->
<svg width="286pt" height="229pt"
 viewBox="0.00 0.00 285.50 229.00" xmlns="http://www.w3.org/2000/svg" xmlns:xlink="http://www.w3.org/1999/xlink">
<g id="graph0" class="graph" transform="scale(1 1) rotate(0) translate(4 225)">
<title>/mnt/hdd/fnky/C0de/CAPSTONE/clean_build/src/Actors/Actor.cpp</title>
<!-- Node0 -->
<g id="node1" class="node">
<title>Node0</title>
<polygon fill="#bfbfbf" stroke="#000000" points="25.5,-179.5 25.5,-220.5 152.5,-220.5 152.5,-179.5 25.5,-179.5"/>
<text text-anchor="start" x="33.5" y="-208.5" font-family="Helvetica,sans-Serif" font-size="10.00" fill="#000000">/mnt/hdd/fnky/C0de</text>
<text text-anchor="start" x="33.5" y="-197.5" font-family="Helvetica,sans-Serif" font-size="10.00" fill="#000000">/CAPSTONE/clean_build</text>
<text text-anchor="middle" x="89" y="-186.5" font-family="Helvetica,sans-Serif" font-size="10.00" fill="#000000">/src/Actors/Actor.cpp</text>
</g>
<!-- Node1 -->
<g id="node2" class="node">
<title>Node1</title>
<g id="a_node2"><a xlink:href="Actor_8h.html" target="_top" xlink:title="../../include/Actors\l/Actor.h">
<polygon fill="none" stroke="#000000" points="40.5,-112.5 40.5,-142.5 137.5,-142.5 137.5,-112.5 40.5,-112.5"/>
<text text-anchor="start" x="48.5" y="-130.5" font-family="Helvetica,sans-Serif" font-size="10.00" fill="#000000">../../include/Actors</text>
<text text-anchor="middle" x="89" y="-119.5" font-family="Helvetica,sans-Serif" font-size="10.00" fill="#000000">/Actor.h</text>
</a>
</g>
</g>
<!-- Node0&#45;&gt;Node1 -->
<g id="edge1" class="edge">
<title>Node0&#45;&gt;Node1</title>
<path fill="none" stroke="#191970" d="M89,-179.4183C89,-171.0849 89,-161.3834 89,-152.6373"/>
<polygon fill="#191970" stroke="#191970" points="92.5001,-152.5991 89,-142.5991 85.5001,-152.5991 92.5001,-152.5991"/>
</g>
<!-- Node2 -->
<g id="node3" class="node">
<title>Node2</title>
<polygon fill="none" stroke="#bfbfbf" points="0,-56.5 0,-75.5 44,-75.5 44,-56.5 0,-56.5"/>
<text text-anchor="middle" x="22" y="-63.5" font-family="Helvetica,sans-Serif" font-size="10.00" fill="#000000">vector</text>
</g>
<!-- Node1&#45;&gt;Node2 -->
<g id="edge2" class="edge">
<title>Node1&#45;&gt;Node2</title>
<path fill="none" stroke="#191970" d="M72.4382,-112.2977C62.6535,-103.3163 50.2526,-91.9334 40.1957,-82.702"/>
<polygon fill="#191970" stroke="#191970" points="42.4613,-80.0307 32.7275,-75.8469 37.7278,-85.1876 42.4613,-80.0307"/>
</g>
<!-- Node3 -->
<g id="node4" class="node">
<title>Node3</title>
<polygon fill="none" stroke="#bfbfbf" points="62,-56.5 62,-75.5 116,-75.5 116,-56.5 62,-56.5"/>
<text text-anchor="middle" x="89" y="-63.5" font-family="Helvetica,sans-Serif" font-size="10.00" fill="#000000">iostream</text>
</g>
<!-- Node1&#45;&gt;Node3 -->
<g id="edge3" class="edge">
<title>Node1&#45;&gt;Node3</title>
<path fill="none" stroke="#191970" d="M89,-112.2977C89,-104.3834 89,-94.6043 89,-86.0759"/>
<polygon fill="#191970" stroke="#191970" points="92.5001,-85.8469 89,-75.8469 85.5001,-85.847 92.5001,-85.8469"/>
</g>
<!-- Node4 -->
<g id="node5" class="node">
<title>Node4</title>
<g id="a_node5"><a xlink:href="Components_2Component_8h.html" target="_top" xlink:title="../Components/Component.h">
<polygon fill="none" stroke="#000000" points="134.5,-56.5 134.5,-75.5 277.5,-75.5 277.5,-56.5 134.5,-56.5"/>
<text text-anchor="middle" x="206" y="-63.5" font-family="Helvetica,sans-Serif" font-size="10.00" fill="#000000">../Components/Component.h</text>
</a>
</g>
</g>
<!-- Node1&#45;&gt;Node4 -->
<g id="edge4" class="edge">
<title>Node1&#45;&gt;Node4</title>
<path fill="none" stroke="#191970" d="M117.6214,-112.4554C136.287,-102.644 160.4999,-89.9167 178.8612,-80.2653"/>
<polygon fill="#191970" stroke="#191970" points="180.646,-83.2812 187.8692,-75.5303 177.389,-77.0851 180.646,-83.2812"/>
</g>
<!-- Node5 -->
<g id="node6" class="node">
<title>Node5</title>
<polygon fill="none" stroke="#bfbfbf" points="180,-.5 180,-19.5 232,-19.5 232,-.5 180,-.5"/>
<text text-anchor="middle" x="206" y="-7.5" font-family="Helvetica,sans-Serif" font-size="10.00" fill="#000000">memory</text>
</g>
<!-- Node4&#45;&gt;Node5 -->
<g id="edge5" class="edge">
<title>Node4&#45;&gt;Node5</title>
<path fill="none" stroke="#191970" d="M206,-56.2455C206,-48.9382 206,-38.6944 206,-29.7046"/>
<polygon fill="#191970" stroke="#191970" points="209.5001,-29.6426 206,-19.6427 202.5001,-29.6427 209.5001,-29.6426"/>
</g>
</g>
</svg>
