<?xml version="1.0" encoding="UTF-8" standalone="no"?>
<!DOCTYPE svg PUBLIC "-//W3C//DTD SVG 1.1//EN"
 "http://www.w3.org/Graphics/SVG/1.1/DTD/svg11.dtd">
<!-- Generated by graphviz version 2.40.1 (20161225.0304)
 -->
<!-- Title: /mnt/hdd/fnky/C0de/CAPSTONE/clean_build/src/Components/AIComponent.cpp Pages: 1 -->
<svg width="546pt" height="229pt"
 viewBox="0.00 0.00 545.50 229.00" xmlns="http://www.w3.org/2000/svg" xmlns:xlink="http://www.w3.org/1999/xlink">
<g id="graph0" class="graph" transform="scale(1 1) rotate(0) translate(4 225)">
<title>/mnt/hdd/fnky/C0de/CAPSTONE/clean_build/src/Components/AIComponent.cpp</title>
<!-- Node0 -->
<g id="node1" class="node">
<title>Node0</title>
<polygon fill="#bfbfbf" stroke="#000000" points="331,-179.5 331,-220.5 504,-220.5 504,-179.5 331,-179.5"/>
<text text-anchor="start" x="339" y="-208.5" font-family="Helvetica,sans-Serif" font-size="10.00" fill="#000000">/mnt/hdd/fnky/C0de</text>
<text text-anchor="start" x="339" y="-197.5" font-family="Helvetica,sans-Serif" font-size="10.00" fill="#000000">/CAPSTONE/clean_build</text>
<text text-anchor="middle" x="417.5" y="-186.5" font-family="Helvetica,sans-Serif" font-size="10.00" fill="#000000">/src/Components/AIComponent.cpp</text>
</g>
<!-- Node1 -->
<g id="node2" class="node">
<title>Node1</title>
<g id="a_node2"><a xlink:href="AIComponent_8h.html" target="_top" xlink:title="../../include/Components\l/AIComponent.h">
<polygon fill="none" stroke="#000000" points="199.5,-112.5 199.5,-142.5 323.5,-142.5 323.5,-112.5 199.5,-112.5"/>
<text text-anchor="start" x="207.5" y="-130.5" font-family="Helvetica,sans-Serif" font-size="10.00" fill="#000000">../../include/Components</text>
<text text-anchor="middle" x="261.5" y="-119.5" font-family="Helvetica,sans-Serif" font-size="10.00" fill="#000000">/AIComponent.h</text>
</a>
</g>
</g>
<!-- Node0&#45;&gt;Node1 -->
<g id="edge1" class="edge">
<title>Node0&#45;&gt;Node1</title>
<path fill="none" stroke="#191970" d="M373.2139,-179.4183C351.2431,-169.2075 324.8531,-156.943 303.2404,-146.8986"/>
<polygon fill="#191970" stroke="#191970" points="304.5327,-143.6397 293.9891,-142.5991 301.5825,-149.9877 304.5327,-143.6397"/>
</g>
<!-- Node6 -->
<g id="node7" class="node">
<title>Node6</title>
<polygon fill="none" stroke="#bfbfbf" points="456.5,-56.5 456.5,-75.5 510.5,-75.5 510.5,-56.5 456.5,-56.5"/>
<text text-anchor="middle" x="483.5" y="-63.5" font-family="Helvetica,sans-Serif" font-size="10.00" fill="#000000">iostream</text>
</g>
<!-- Node0&#45;&gt;Node6 -->
<g id="edge12" class="edge">
<title>Node0&#45;&gt;Node6</title>
<path fill="none" stroke="#191970" d="M418.6052,-179.2578C420.3547,-160.6373 424.8675,-133.0724 436.5,-112 442.8162,-100.5581 452.881,-90.1515 462.0792,-82.1419"/>
<polygon fill="#191970" stroke="#191970" points="464.3359,-84.8175 469.8233,-75.7545 459.8818,-79.4174 464.3359,-84.8175"/>
</g>
<!-- Node10 -->
<g id="node11" class="node">
<title>Node10</title>
<polygon fill="none" stroke="#bfbfbf" points="445.5,-118 445.5,-137 537.5,-137 537.5,-118 445.5,-118"/>
<text text-anchor="middle" x="491.5" y="-125" font-family="Helvetica,sans-Serif" font-size="10.00" fill="#000000">box2d/b2_math.h</text>
</g>
<!-- Node0&#45;&gt;Node10 -->
<g id="edge11" class="edge">
<title>Node0&#45;&gt;Node10</title>
<path fill="none" stroke="#191970" d="M438.5075,-179.4183C449.923,-168.2342 463.8535,-154.5861 474.5664,-144.0904"/>
<polygon fill="#191970" stroke="#191970" points="477.0226,-146.5838 481.7163,-137.0853 472.1238,-141.5836 477.0226,-146.5838"/>
</g>
<!-- Node2 -->
<g id="node3" class="node">
<title>Node2</title>
<g id="a_node3"><a xlink:href="Components_2Component_8h.html" target="_top" xlink:title="Component.h">
<polygon fill="none" stroke="#000000" points="0,-56.5 0,-75.5 75,-75.5 75,-56.5 0,-56.5"/>
<text text-anchor="middle" x="37.5" y="-63.5" font-family="Helvetica,sans-Serif" font-size="10.00" fill="#000000">Component.h</text>
</a>
</g>
</g>
<!-- Node1&#45;&gt;Node2 -->
<g id="edge2" class="edge">
<title>Node1&#45;&gt;Node2</title>
<path fill="none" stroke="#191970" d="M206.7034,-112.4554C168.3449,-101.9239 117.7495,-88.0328 81.9076,-78.1923"/>
<polygon fill="#191970" stroke="#191970" points="82.7819,-74.8028 72.212,-75.5303 80.9285,-81.5531 82.7819,-74.8028"/>
</g>
<!-- Node4 -->
<g id="node5" class="node">
<title>Node4</title>
<polygon fill="none" stroke="#bfbfbf" points="93.5,-56.5 93.5,-75.5 163.5,-75.5 163.5,-56.5 93.5,-56.5"/>
<text text-anchor="middle" x="128.5" y="-63.5" font-family="Helvetica,sans-Serif" font-size="10.00" fill="#000000">glm/glm.hpp</text>
</g>
<!-- Node1&#45;&gt;Node4 -->
<g id="edge4" class="edge">
<title>Node1&#45;&gt;Node4</title>
<path fill="none" stroke="#191970" d="M228.9645,-112.4554C207.3571,-102.464 179.2102,-89.4487 158.208,-79.7372"/>
<polygon fill="#191970" stroke="#191970" points="159.6559,-76.5506 149.1103,-75.5303 156.7179,-82.9043 159.6559,-76.5506"/>
</g>
<!-- Node5 -->
<g id="node6" class="node">
<title>Node5</title>
<polygon fill="none" stroke="#bfbfbf" points="197.5,-.5 197.5,-19.5 277.5,-19.5 277.5,-.5 197.5,-.5"/>
<text text-anchor="middle" x="237.5" y="-7.5" font-family="Helvetica,sans-Serif" font-size="10.00" fill="#000000">box2d/box2d.h</text>
</g>
<!-- Node1&#45;&gt;Node5 -->
<g id="edge5" class="edge">
<title>Node1&#45;&gt;Node5</title>
<path fill="none" stroke="#191970" d="M240.0686,-112.4899C228.9806,-103.3676 216.5316,-90.6627 210.5,-76 203.8416,-59.8137 212.7717,-41.3766 222.1036,-28.1112"/>
<polygon fill="#191970" stroke="#191970" points="225.1345,-29.9103 228.4416,-19.8449 219.5794,-25.6511 225.1345,-29.9103"/>
</g>
<!-- Node1&#45;&gt;Node6 -->
<g id="edge6" class="edge">
<title>Node1&#45;&gt;Node6</title>
<path fill="none" stroke="#191970" d="M315.8073,-112.4554C356.348,-101.2245 410.6807,-86.1729 446.3647,-76.2875"/>
<polygon fill="#191970" stroke="#191970" points="447.6531,-79.5625 456.3557,-73.5197 445.7842,-72.8165 447.6531,-79.5625"/>
</g>
<!-- Node7 -->
<g id="node8" class="node">
<title>Node7</title>
<polygon fill="none" stroke="#bfbfbf" points="220,-56.5 220,-75.5 303,-75.5 303,-56.5 220,-56.5"/>
<text text-anchor="middle" x="261.5" y="-63.5" font-family="Helvetica,sans-Serif" font-size="10.00" fill="#000000">unordered_map</text>
</g>
<!-- Node1&#45;&gt;Node7 -->
<g id="edge7" class="edge">
<title>Node1&#45;&gt;Node7</title>
<path fill="none" stroke="#191970" d="M261.5,-112.2977C261.5,-104.3834 261.5,-94.6043 261.5,-86.0759"/>
<polygon fill="#191970" stroke="#191970" points="265.0001,-85.8469 261.5,-75.8469 258.0001,-85.847 265.0001,-85.8469"/>
</g>
<!-- Node8 -->
<g id="node9" class="node">
<title>Node8</title>
<g id="a_node9"><a xlink:href="BFS__graph_8h.html" target="_top" xlink:title="../Graphs/BFS_graph.h">
<polygon fill="none" stroke="#000000" points="321,-56.5 321,-75.5 438,-75.5 438,-56.5 321,-56.5"/>
<text text-anchor="middle" x="379.5" y="-63.5" font-family="Helvetica,sans-Serif" font-size="10.00" fill="#000000">../Graphs/BFS_graph.h</text>
</a>
</g>
</g>
<!-- Node1&#45;&gt;Node8 -->
<g id="edge8" class="edge">
<title>Node1&#45;&gt;Node8</title>
<path fill="none" stroke="#191970" d="M290.366,-112.4554C309.1911,-102.644 333.611,-89.9167 352.1292,-80.2653"/>
<polygon fill="#191970" stroke="#191970" points="353.964,-83.2559 361.2142,-75.5303 350.7287,-77.0484 353.964,-83.2559"/>
</g>
<!-- Node3 -->
<g id="node4" class="node">
<title>Node3</title>
<polygon fill="none" stroke="#bfbfbf" points="11.5,-.5 11.5,-19.5 63.5,-19.5 63.5,-.5 11.5,-.5"/>
<text text-anchor="middle" x="37.5" y="-7.5" font-family="Helvetica,sans-Serif" font-size="10.00" fill="#000000">memory</text>
</g>
<!-- Node2&#45;&gt;Node3 -->
<g id="edge3" class="edge">
<title>Node2&#45;&gt;Node3</title>
<path fill="none" stroke="#191970" d="M37.5,-56.2455C37.5,-48.9382 37.5,-38.6944 37.5,-29.7046"/>
<polygon fill="#191970" stroke="#191970" points="41.0001,-29.6426 37.5,-19.6427 34.0001,-29.6427 41.0001,-29.6426"/>
</g>
<!-- Node8&#45;&gt;Node5 -->
<g id="edge10" class="edge">
<title>Node8&#45;&gt;Node5</title>
<path fill="none" stroke="#191970" d="M355.0893,-56.3733C331.8858,-47.2226 296.7962,-33.3844 270.9858,-23.2057"/>
<polygon fill="#191970" stroke="#191970" points="272.1789,-19.9139 261.5921,-19.5011 269.6108,-26.4258 272.1789,-19.9139"/>
</g>
<!-- Node9 -->
<g id="node10" class="node">
<title>Node9</title>
<polygon fill="none" stroke="#bfbfbf" points="342.5,-.5 342.5,-19.5 416.5,-19.5 416.5,-.5 342.5,-.5"/>
<text text-anchor="middle" x="379.5" y="-7.5" font-family="Helvetica,sans-Serif" font-size="10.00" fill="#000000">bits/stdc++.h</text>
</g>
<!-- Node8&#45;&gt;Node9 -->
<g id="edge9" class="edge">
<title>Node8&#45;&gt;Node9</title>
<path fill="none" stroke="#191970" d="M379.5,-56.2455C379.5,-48.9382 379.5,-38.6944 379.5,-29.7046"/>
<polygon fill="#191970" stroke="#191970" points="383.0001,-29.6426 379.5,-19.6427 376.0001,-29.6427 383.0001,-29.6426"/>
</g>
</g>
</svg>
