<?xml version="1.0" encoding="UTF-8" standalone="no"?>
<!DOCTYPE svg PUBLIC "-//W3C//DTD SVG 1.1//EN"
 "http://www.w3.org/Graphics/SVG/1.1/DTD/svg11.dtd">
<!-- Generated by graphviz version 2.40.1 (20161225.0304)
 -->
<!-- Title: /mnt/hdd/fnky/C0de/CAPSTONE/clean_build/include/Components/AIComponent.h Pages: 1 -->
<svg width="518pt" height="162pt"
 viewBox="0.00 0.00 518.00 162.00" xmlns="http://www.w3.org/2000/svg" xmlns:xlink="http://www.w3.org/1999/xlink">
<g id="graph0" class="graph" transform="scale(1 1) rotate(0) translate(4 158)">
<title>/mnt/hdd/fnky/C0de/CAPSTONE/clean_build/include/Components/AIComponent.h</title>
<!-- Node0 -->
<g id="node1" class="node">
<title>Node0</title>
<polygon fill="#bfbfbf" stroke="#000000" points="128.5,-112.5 128.5,-153.5 308.5,-153.5 308.5,-112.5 128.5,-112.5"/>
<text text-anchor="start" x="136.5" y="-141.5" font-family="Helvetica,sans-Serif" font-size="10.00" fill="#000000">/mnt/hdd/fnky/C0de</text>
<text text-anchor="start" x="136.5" y="-130.5" font-family="Helvetica,sans-Serif" font-size="10.00" fill="#000000">/CAPSTONE/clean_build</text>
<text text-anchor="middle" x="218.5" y="-119.5" font-family="Helvetica,sans-Serif" font-size="10.00" fill="#000000">/include/Components/AIComponent.h</text>
</g>
<!-- Node1 -->
<g id="node2" class="node">
<title>Node1</title>
<g id="a_node2"><a xlink:href="Components_2Component_8h.html" target="_top" xlink:title="Component.h">
<polygon fill="none" stroke="#000000" points="0,-56.5 0,-75.5 75,-75.5 75,-56.5 0,-56.5"/>
<text text-anchor="middle" x="37.5" y="-63.5" font-family="Helvetica,sans-Serif" font-size="10.00" fill="#000000">Component.h</text>
</a>
</g>
</g>
<!-- Node0&#45;&gt;Node1 -->
<g id="edge1" class="edge">
<title>Node0&#45;&gt;Node1</title>
<path fill="none" stroke="#191970" d="M162.7171,-112.3511C133.5569,-101.557 98.7286,-88.6647 73.2149,-79.2204"/>
<polygon fill="#191970" stroke="#191970" points="74.1751,-75.8438 63.5819,-75.6546 71.745,-82.4085 74.1751,-75.8438"/>
</g>
<!-- Node3 -->
<g id="node4" class="node">
<title>Node3</title>
<polygon fill="none" stroke="#bfbfbf" points="93.5,-56.5 93.5,-75.5 163.5,-75.5 163.5,-56.5 93.5,-56.5"/>
<text text-anchor="middle" x="128.5" y="-63.5" font-family="Helvetica,sans-Serif" font-size="10.00" fill="#000000">glm/glm.hpp</text>
</g>
<!-- Node0&#45;&gt;Node3 -->
<g id="edge3" class="edge">
<title>Node0&#45;&gt;Node3</title>
<path fill="none" stroke="#191970" d="M190.5168,-112.168C177.3956,-102.4001 162.0108,-90.9469 149.8472,-81.8918"/>
<polygon fill="#191970" stroke="#191970" points="151.7493,-78.9445 141.6379,-75.7805 147.5693,-84.5594 151.7493,-78.9445"/>
</g>
<!-- Node4 -->
<g id="node5" class="node">
<title>Node4</title>
<polygon fill="none" stroke="#bfbfbf" points="233.5,-.5 233.5,-19.5 313.5,-19.5 313.5,-.5 233.5,-.5"/>
<text text-anchor="middle" x="273.5" y="-7.5" font-family="Helvetica,sans-Serif" font-size="10.00" fill="#000000">box2d/box2d.h</text>
</g>
<!-- Node0&#45;&gt;Node4 -->
<g id="edge4" class="edge">
<title>Node0&#45;&gt;Node4</title>
<path fill="none" stroke="#191970" d="M210.4153,-112.2575C205.4642,-96.0788 201.6123,-73.4942 210.5,-56 217.361,-42.4951 230.2532,-32.0099 242.5966,-24.4839"/>
<polygon fill="#191970" stroke="#191970" points="244.4003,-27.4849 251.3934,-19.5258 240.9633,-21.3868 244.4003,-27.4849"/>
</g>
<!-- Node5 -->
<g id="node6" class="node">
<title>Node5</title>
<polygon fill="none" stroke="#bfbfbf" points="219.5,-56.5 219.5,-75.5 273.5,-75.5 273.5,-56.5 219.5,-56.5"/>
<text text-anchor="middle" x="246.5" y="-63.5" font-family="Helvetica,sans-Serif" font-size="10.00" fill="#000000">iostream</text>
</g>
<!-- Node0&#45;&gt;Node5 -->
<g id="edge5" class="edge">
<title>Node0&#45;&gt;Node5</title>
<path fill="none" stroke="#191970" d="M227.2059,-112.168C230.8124,-103.5381 234.9687,-93.5928 238.4979,-85.1479"/>
<polygon fill="#191970" stroke="#191970" points="241.786,-86.3568 242.4126,-75.7805 235.3273,-83.6576 241.786,-86.3568"/>
</g>
<!-- Node6 -->
<g id="node7" class="node">
<title>Node6</title>
<polygon fill="none" stroke="#bfbfbf" points="292,-56.5 292,-75.5 375,-75.5 375,-56.5 292,-56.5"/>
<text text-anchor="middle" x="333.5" y="-63.5" font-family="Helvetica,sans-Serif" font-size="10.00" fill="#000000">unordered_map</text>
</g>
<!-- Node0&#45;&gt;Node6 -->
<g id="edge6" class="edge">
<title>Node0&#45;&gt;Node6</title>
<path fill="none" stroke="#191970" d="M253.9422,-112.3511C271.4856,-102.1301 292.2581,-90.0279 308.1774,-80.7532"/>
<polygon fill="#191970" stroke="#191970" points="310.05,-83.7129 316.9286,-75.6546 306.5262,-77.6645 310.05,-83.7129"/>
</g>
<!-- Node7 -->
<g id="node8" class="node">
<title>Node7</title>
<g id="a_node8"><a xlink:href="BFS__graph_8h.html" target="_top" xlink:title="../Graphs/BFS_graph.h">
<polygon fill="none" stroke="#000000" points="393,-56.5 393,-75.5 510,-75.5 510,-56.5 393,-56.5"/>
<text text-anchor="middle" x="451.5" y="-63.5" font-family="Helvetica,sans-Serif" font-size="10.00" fill="#000000">../Graphs/BFS_graph.h</text>
</a>
</g>
</g>
<!-- Node0&#45;&gt;Node7 -->
<g id="edge7" class="edge">
<title>Node0&#45;&gt;Node7</title>
<path fill="none" stroke="#191970" d="M289.9911,-112.4425C328.7851,-101.2871 375.4474,-87.8692 408.619,-78.3306"/>
<polygon fill="#191970" stroke="#191970" points="409.8135,-81.629 418.4568,-75.5017 407.879,-74.9016 409.8135,-81.629"/>
</g>
<!-- Node2 -->
<g id="node3" class="node">
<title>Node2</title>
<polygon fill="none" stroke="#bfbfbf" points="11.5,-.5 11.5,-19.5 63.5,-19.5 63.5,-.5 11.5,-.5"/>
<text text-anchor="middle" x="37.5" y="-7.5" font-family="Helvetica,sans-Serif" font-size="10.00" fill="#000000">memory</text>
</g>
<!-- Node1&#45;&gt;Node2 -->
<g id="edge2" class="edge">
<title>Node1&#45;&gt;Node2</title>
<path fill="none" stroke="#191970" d="M37.5,-56.2455C37.5,-48.9382 37.5,-38.6944 37.5,-29.7046"/>
<polygon fill="#191970" stroke="#191970" points="41.0001,-29.6426 37.5,-19.6427 34.0001,-29.6427 41.0001,-29.6426"/>
</g>
<!-- Node7&#45;&gt;Node4 -->
<g id="edge9" class="edge">
<title>Node7&#45;&gt;Node4</title>
<path fill="none" stroke="#191970" d="M420.9007,-56.3733C391.1739,-47.021 345.8841,-32.7725 313.3544,-22.5385"/>
<polygon fill="#191970" stroke="#191970" points="314.2895,-19.1636 303.7,-19.5011 312.1887,-25.8409 314.2895,-19.1636"/>
</g>
<!-- Node8 -->
<g id="node9" class="node">
<title>Node8</title>
<polygon fill="none" stroke="#bfbfbf" points="414.5,-.5 414.5,-19.5 488.5,-19.5 488.5,-.5 414.5,-.5"/>
<text text-anchor="middle" x="451.5" y="-7.5" font-family="Helvetica,sans-Serif" font-size="10.00" fill="#000000">bits/stdc++.h</text>
</g>
<!-- Node7&#45;&gt;Node8 -->
<g id="edge8" class="edge">
<title>Node7&#45;&gt;Node8</title>
<path fill="none" stroke="#191970" d="M451.5,-56.2455C451.5,-48.9382 451.5,-38.6944 451.5,-29.7046"/>
<polygon fill="#191970" stroke="#191970" points="455.0001,-29.6426 451.5,-19.6427 448.0001,-29.6427 455.0001,-29.6426"/>
</g>
</g>
</svg>
