<?xml version="1.0" encoding="UTF-8" standalone="no"?>
<!DOCTYPE svg PUBLIC "-//W3C//DTD SVG 1.1//EN"
 "http://www.w3.org/Graphics/SVG/1.1/DTD/svg11.dtd">
<!-- Generated by graphviz version 2.40.1 (20161225.0304)
 -->
<!-- Title: /mnt/hdd/fnky/C0de/CAPSTONE/clean_build/include/rapidjson/allocators.h Pages: 1 -->
<svg width="299pt" height="218pt"
 viewBox="0.00 0.00 298.50 218.00" xmlns="http://www.w3.org/2000/svg" xmlns:xlink="http://www.w3.org/1999/xlink">
<g id="graph0" class="graph" transform="scale(1 1) rotate(0) translate(4 214)">
<title>/mnt/hdd/fnky/C0de/CAPSTONE/clean_build/include/rapidjson/allocators.h</title>
<!-- Node0 -->
<g id="node1" class="node">
<title>Node0</title>
<polygon fill="#bfbfbf" stroke="#000000" points="90.5,-168.5 90.5,-209.5 236.5,-209.5 236.5,-168.5 90.5,-168.5"/>
<text text-anchor="start" x="98.5" y="-197.5" font-family="Helvetica,sans-Serif" font-size="10.00" fill="#000000">/mnt/hdd/fnky/C0de</text>
<text text-anchor="start" x="98.5" y="-186.5" font-family="Helvetica,sans-Serif" font-size="10.00" fill="#000000">/CAPSTONE/clean_build</text>
<text text-anchor="middle" x="163.5" y="-175.5" font-family="Helvetica,sans-Serif" font-size="10.00" fill="#000000">/include/rapidjson/allocators.h</text>
</g>
<!-- Node1 -->
<g id="node2" class="node">
<title>Node1</title>
<g id="a_node2"><a xlink:href="rapidjson_8h.html" target="_top" xlink:title="common definitions and configuration ">
<polygon fill="none" stroke="#000000" points="54.5,-56.5 54.5,-75.5 118.5,-75.5 118.5,-56.5 54.5,-56.5"/>
<text text-anchor="middle" x="86.5" y="-63.5" font-family="Helvetica,sans-Serif" font-size="10.00" fill="#000000">rapidjson.h</text>
</a>
</g>
</g>
<!-- Node0&#45;&gt;Node1 -->
<g id="edge1" class="edge">
<title>Node0&#45;&gt;Node1</title>
<path fill="none" stroke="#191970" d="M110.4088,-168.2276C95.0917,-159.4654 80.1836,-147.5953 71.5,-132 63.3121,-117.2951 68.9824,-98.3839 75.5665,-84.5767"/>
<polygon fill="#191970" stroke="#191970" points="78.755,-86.0342 80.3372,-75.5581 72.5674,-82.761 78.755,-86.0342"/>
</g>
<!-- Node5 -->
<g id="node6" class="node">
<title>Node5</title>
<g id="a_node6"><a xlink:href="meta_8h.html" target="_top" xlink:title="internal/meta.h">
<polygon fill="none" stroke="#000000" points="81,-112.5 81,-131.5 162,-131.5 162,-112.5 81,-112.5"/>
<text text-anchor="middle" x="121.5" y="-119.5" font-family="Helvetica,sans-Serif" font-size="10.00" fill="#000000">internal/meta.h</text>
</a>
</g>
</g>
<!-- Node0&#45;&gt;Node5 -->
<g id="edge5" class="edge">
<title>Node0&#45;&gt;Node5</title>
<path fill="none" stroke="#191970" d="M150.4412,-168.168C144.853,-159.2536 138.385,-148.9356 132.9827,-140.3177"/>
<polygon fill="#191970" stroke="#191970" points="135.9079,-138.3944 127.631,-131.7805 129.9769,-142.1123 135.9079,-138.3944"/>
</g>
<!-- Node6 -->
<g id="node7" class="node">
<title>Node6</title>
<polygon fill="none" stroke="#bfbfbf" points="180.5,-112.5 180.5,-131.5 232.5,-131.5 232.5,-112.5 180.5,-112.5"/>
<text text-anchor="middle" x="206.5" y="-119.5" font-family="Helvetica,sans-Serif" font-size="10.00" fill="#000000">memory</text>
</g>
<!-- Node0&#45;&gt;Node6 -->
<g id="edge7" class="edge">
<title>Node0&#45;&gt;Node6</title>
<path fill="none" stroke="#191970" d="M176.8698,-168.168C182.591,-159.2536 189.213,-148.9356 194.7439,-140.3177"/>
<polygon fill="#191970" stroke="#191970" points="197.7673,-142.0868 200.223,-131.7805 191.8762,-138.3059 197.7673,-142.0868"/>
</g>
<!-- Node7 -->
<g id="node8" class="node">
<title>Node7</title>
<polygon fill="none" stroke="#bfbfbf" points="250.5,-112.5 250.5,-131.5 290.5,-131.5 290.5,-112.5 250.5,-112.5"/>
<text text-anchor="middle" x="270.5" y="-119.5" font-family="Helvetica,sans-Serif" font-size="10.00" fill="#000000">limits</text>
</g>
<!-- Node0&#45;&gt;Node7 -->
<g id="edge8" class="edge">
<title>Node0&#45;&gt;Node7</title>
<path fill="none" stroke="#191970" d="M196.4766,-168.3511C212.6471,-158.2256 231.7661,-146.254 246.5225,-137.0139"/>
<polygon fill="#191970" stroke="#191970" points="248.4634,-139.9282 255.0814,-131.6546 244.7484,-133.9954 248.4634,-139.9282"/>
</g>
<!-- Node2 -->
<g id="node3" class="node">
<title>Node2</title>
<polygon fill="none" stroke="#bfbfbf" points="0,-.5 0,-19.5 45,-19.5 45,-.5 0,-.5"/>
<text text-anchor="middle" x="22.5" y="-7.5" font-family="Helvetica,sans-Serif" font-size="10.00" fill="#000000">cstdlib</text>
</g>
<!-- Node1&#45;&gt;Node2 -->
<g id="edge2" class="edge">
<title>Node1&#45;&gt;Node2</title>
<path fill="none" stroke="#191970" d="M75.3521,-56.2455C65.9913,-48.0549 52.4142,-36.1749 41.3651,-26.5069"/>
<polygon fill="#191970" stroke="#191970" points="43.3508,-23.5937 33.5202,-19.6427 38.7412,-28.8618 43.3508,-23.5937"/>
</g>
<!-- Node3 -->
<g id="node4" class="node">
<title>Node3</title>
<polygon fill="none" stroke="#bfbfbf" points="63.5,-.5 63.5,-19.5 109.5,-19.5 109.5,-.5 63.5,-.5"/>
<text text-anchor="middle" x="86.5" y="-7.5" font-family="Helvetica,sans-Serif" font-size="10.00" fill="#000000">cstring</text>
</g>
<!-- Node1&#45;&gt;Node3 -->
<g id="edge3" class="edge">
<title>Node1&#45;&gt;Node3</title>
<path fill="none" stroke="#191970" d="M86.5,-56.2455C86.5,-48.9382 86.5,-38.6944 86.5,-29.7046"/>
<polygon fill="#191970" stroke="#191970" points="90.0001,-29.6426 86.5,-19.6427 83.0001,-29.6427 90.0001,-29.6426"/>
</g>
<!-- Node4 -->
<g id="node5" class="node">
<title>Node4</title>
<polygon fill="none" stroke="#bfbfbf" points="128,-.5 128,-19.5 177,-19.5 177,-.5 128,-.5"/>
<text text-anchor="middle" x="152.5" y="-7.5" font-family="Helvetica,sans-Serif" font-size="10.00" fill="#000000">cassert</text>
</g>
<!-- Node1&#45;&gt;Node4 -->
<g id="edge4" class="edge">
<title>Node1&#45;&gt;Node4</title>
<path fill="none" stroke="#191970" d="M97.9963,-56.2455C107.7442,-47.9746 121.9259,-35.9416 133.3798,-26.2232"/>
<polygon fill="#191970" stroke="#191970" points="135.7747,-28.7813 141.1354,-19.6427 131.2459,-23.4437 135.7747,-28.7813"/>
</g>
<!-- Node5&#45;&gt;Node1 -->
<g id="edge6" class="edge">
<title>Node5&#45;&gt;Node1</title>
<path fill="none" stroke="#191970" d="M115.4035,-112.2455C110.5855,-104.5367 103.7249,-93.5598 97.8968,-84.2348"/>
<polygon fill="#191970" stroke="#191970" points="100.7947,-82.2677 92.5267,-75.6427 94.8587,-85.9777 100.7947,-82.2677"/>
</g>
</g>
</svg>
