<?xml version="1.0" encoding="UTF-8" standalone="no"?>
<!DOCTYPE svg PUBLIC "-//W3C//DTD SVG 1.1//EN"
 "http://www.w3.org/Graphics/SVG/1.1/DTD/svg11.dtd">
<!-- Generated by graphviz version 2.40.1 (20161225.0304)
 -->
<!-- Title: /mnt/hdd/fnky/C0de/CAPSTONE/clean_build/include/Actors/Animated_Player_Actor.h Pages: 1 -->
<svg width="297pt" height="229pt"
 viewBox="0.00 0.00 297.19 229.00" xmlns="http://www.w3.org/2000/svg" xmlns:xlink="http://www.w3.org/1999/xlink">
<g id="graph0" class="graph" transform="scale(1 1) rotate(0) translate(4 225)">
<title>/mnt/hdd/fnky/C0de/CAPSTONE/clean_build/include/Actors/Animated_Player_Actor.h</title>
<!-- Node0 -->
<g id="node1" class="node">
<title>Node0</title>
<polygon fill="#bfbfbf" stroke="#000000" points="45.6892,-168.5 45.6892,-220.5 172.6892,-220.5 172.6892,-168.5 45.6892,-168.5"/>
<text text-anchor="start" x="53.6892" y="-208.5" font-family="Helvetica,sans-Serif" font-size="10.00" fill="#000000">/mnt/hdd/fnky/C0de</text>
<text text-anchor="start" x="53.6892" y="-197.5" font-family="Helvetica,sans-Serif" font-size="10.00" fill="#000000">/CAPSTONE/clean_build</text>
<text text-anchor="start" x="53.6892" y="-186.5" font-family="Helvetica,sans-Serif" font-size="10.00" fill="#000000">/include/Actors/Animated</text>
<text text-anchor="middle" x="109.1892" y="-175.5" font-family="Helvetica,sans-Serif" font-size="10.00" fill="#000000">_Player_Actor.h</text>
</g>
<!-- Node1 -->
<g id="node2" class="node">
<title>Node1</title>
<g id="a_node2"><a xlink:href="Components_2Component_8h.html" target="_top" xlink:title="../Components/Component.h">
<polygon fill="none" stroke="#000000" points="11.6892,-56.5 11.6892,-75.5 154.6892,-75.5 154.6892,-56.5 11.6892,-56.5"/>
<text text-anchor="middle" x="83.1892" y="-63.5" font-family="Helvetica,sans-Serif" font-size="10.00" fill="#000000">../Components/Component.h</text>
</a>
</g>
</g>
<!-- Node0&#45;&gt;Node1 -->
<g id="edge1" class="edge">
<title>Node0&#45;&gt;Node1</title>
<path fill="none" stroke="#191970" d="M103.9277,-168.4961C98.9517,-143.9033 91.5975,-107.5564 87.115,-85.4024"/>
<polygon fill="#191970" stroke="#191970" points="90.528,-84.6214 85.1143,-75.5142 83.667,-86.0097 90.528,-84.6214"/>
</g>
<!-- Node2 -->
<g id="node3" class="node">
<title>Node2</title>
<polygon fill="none" stroke="#bfbfbf" points="7.1892,-.5 7.1892,-19.5 59.1892,-19.5 59.1892,-.5 7.1892,-.5"/>
<text text-anchor="middle" x="33.1892" y="-7.5" font-family="Helvetica,sans-Serif" font-size="10.00" fill="#000000">memory</text>
</g>
<!-- Node0&#45;&gt;Node2 -->
<g id="edge8" class="edge">
<title>Node0&#45;&gt;Node2</title>
<path fill="none" stroke="#191970" d="M74.6858,-168.3647C49.2537,-146.7748 16.6689,-113.6418 2.1892,-76 -4.2981,-59.1355 6.0856,-40.5595 16.544,-27.4231"/>
<polygon fill="#191970" stroke="#191970" points="19.3688,-29.5068 23.2508,-19.6488 14.0685,-24.9343 19.3688,-29.5068"/>
</g>
<!-- Node3 -->
<g id="node4" class="node">
<title>Node3</title>
<g id="a_node4"><a xlink:href="Actor_8h.html" target="_top" xlink:title="Actor.h">
<polygon fill="none" stroke="#000000" points="111.1892,-112.5 111.1892,-131.5 159.1892,-131.5 159.1892,-112.5 111.1892,-112.5"/>
<text text-anchor="middle" x="135.1892" y="-119.5" font-family="Helvetica,sans-Serif" font-size="10.00" fill="#000000">Actor.h</text>
</a>
</g>
</g>
<!-- Node0&#45;&gt;Node3 -->
<g id="edge3" class="edge">
<title>Node0&#45;&gt;Node3</title>
<path fill="none" stroke="#191970" d="M118.5758,-168.3258C121.8077,-159.3139 125.3632,-149.3995 128.3528,-141.063"/>
<polygon fill="#191970" stroke="#191970" points="131.6889,-142.1285 131.7701,-131.534 125.0998,-139.7655 131.6889,-142.1285"/>
</g>
<!-- Node6 -->
<g id="node7" class="node">
<title>Node6</title>
<polygon fill="none" stroke="#bfbfbf" points="177.1892,-112.5 177.1892,-131.5 247.1892,-131.5 247.1892,-112.5 177.1892,-112.5"/>
<text text-anchor="middle" x="212.1892" y="-119.5" font-family="Helvetica,sans-Serif" font-size="10.00" fill="#000000">glm/fwd.hpp</text>
</g>
<!-- Node0&#45;&gt;Node6 -->
<g id="edge7" class="edge">
<title>Node0&#45;&gt;Node6</title>
<path fill="none" stroke="#191970" d="M146.3746,-168.3258C161.1693,-157.912 177.6762,-146.2931 190.4577,-137.2965"/>
<polygon fill="#191970" stroke="#191970" points="192.4815,-140.152 198.6443,-131.534 188.4524,-134.4279 192.4815,-140.152"/>
</g>
<!-- Node1&#45;&gt;Node2 -->
<g id="edge2" class="edge">
<title>Node1&#45;&gt;Node2</title>
<path fill="none" stroke="#191970" d="M74.4799,-56.2455C67.3819,-48.2958 57.1808,-36.8706 48.6942,-27.3656"/>
<polygon fill="#191970" stroke="#191970" points="51.0697,-24.771 41.7987,-19.6427 45.8481,-29.4331 51.0697,-24.771"/>
</g>
<!-- Node3&#45;&gt;Node1 -->
<g id="edge6" class="edge">
<title>Node3&#45;&gt;Node1</title>
<path fill="none" stroke="#191970" d="M126.1315,-112.2455C118.6751,-104.2155 107.9258,-92.6394 99.0475,-83.0781"/>
<polygon fill="#191970" stroke="#191970" points="101.5124,-80.589 92.1431,-75.6427 96.3829,-85.3522 101.5124,-80.589"/>
</g>
<!-- Node4 -->
<g id="node5" class="node">
<title>Node4</title>
<polygon fill="none" stroke="#bfbfbf" points="173.1892,-56.5 173.1892,-75.5 217.1892,-75.5 217.1892,-56.5 173.1892,-56.5"/>
<text text-anchor="middle" x="195.1892" y="-63.5" font-family="Helvetica,sans-Serif" font-size="10.00" fill="#000000">vector</text>
</g>
<!-- Node3&#45;&gt;Node4 -->
<g id="edge4" class="edge">
<title>Node3&#45;&gt;Node4</title>
<path fill="none" stroke="#191970" d="M145.6404,-112.2455C154.4161,-104.0549 167.1446,-92.1749 177.5032,-82.5069"/>
<polygon fill="#191970" stroke="#191970" points="179.9353,-85.0246 184.8578,-75.6427 175.1591,-79.9072 179.9353,-85.0246"/>
</g>
<!-- Node5 -->
<g id="node6" class="node">
<title>Node5</title>
<polygon fill="none" stroke="#bfbfbf" points="235.1892,-56.5 235.1892,-75.5 289.1892,-75.5 289.1892,-56.5 235.1892,-56.5"/>
<text text-anchor="middle" x="262.1892" y="-63.5" font-family="Helvetica,sans-Serif" font-size="10.00" fill="#000000">iostream</text>
</g>
<!-- Node3&#45;&gt;Node5 -->
<g id="edge5" class="edge">
<title>Node3&#45;&gt;Node5</title>
<path fill="none" stroke="#191970" d="M157.0213,-112.3733C177.4995,-103.3435 208.3291,-89.7494 231.3211,-79.6111"/>
<polygon fill="#191970" stroke="#191970" points="232.9042,-82.7383 240.642,-75.5011 230.0799,-76.3333 232.9042,-82.7383"/>
</g>
</g>
</svg>
