<?xml version="1.0" encoding="UTF-8" standalone="no"?>
<!DOCTYPE svg PUBLIC "-//W3C//DTD SVG 1.1//EN"
 "http://www.w3.org/Graphics/SVG/1.1/DTD/svg11.dtd">
<!-- Generated by graphviz version 2.40.1 (20161225.0304)
 -->
<!-- Title: /mnt/hdd/fnky/C0de/CAPSTONE/clean_build/src/BStateMachine/BStateMachine.cpp Pages: 1 -->
<svg width="1327pt" height="419pt"
 viewBox="0.00 0.00 1327.00 419.00" xmlns="http://www.w3.org/2000/svg" xmlns:xlink="http://www.w3.org/1999/xlink">
<g id="graph0" class="graph" transform="scale(1 1) rotate(0) translate(4 415)">
<title>/mnt/hdd/fnky/C0de/CAPSTONE/clean_build/src/BStateMachine/BStateMachine.cpp</title>
<!-- Node0 -->
<g id="node1" class="node">
<title>Node0</title>
<polygon fill="#bfbfbf" stroke="#000000" points="305.5,-369.5 305.5,-410.5 496.5,-410.5 496.5,-369.5 305.5,-369.5"/>
<text text-anchor="start" x="313.5" y="-398.5" font-family="Helvetica,sans-Serif" font-size="10.00" fill="#000000">/mnt/hdd/fnky/C0de</text>
<text text-anchor="start" x="313.5" y="-387.5" font-family="Helvetica,sans-Serif" font-size="10.00" fill="#000000">/CAPSTONE/clean_build</text>
<text text-anchor="middle" x="401" y="-376.5" font-family="Helvetica,sans-Serif" font-size="10.00" fill="#000000">/src/BStateMachine/BStateMachine.cpp</text>
</g>
<!-- Node1 -->
<g id="node2" class="node">
<title>Node1</title>
<g id="a_node2"><a xlink:href="BStateMachine_8h.html" target="_top" xlink:title="../../include/BStateMachine\l/BStateMachine.h">
<polygon fill="none" stroke="#000000" points="123.5,-235.5 123.5,-265.5 258.5,-265.5 258.5,-235.5 123.5,-235.5"/>
<text text-anchor="start" x="131.5" y="-253.5" font-family="Helvetica,sans-Serif" font-size="10.00" fill="#000000">../../include/BStateMachine</text>
<text text-anchor="middle" x="191" y="-242.5" font-family="Helvetica,sans-Serif" font-size="10.00" fill="#000000">/BStateMachine.h</text>
</a>
</g>
</g>
<!-- Node0&#45;&gt;Node1 -->
<g id="edge1" class="edge">
<title>Node0&#45;&gt;Node1</title>
<path fill="none" stroke="#191970" d="M370.0138,-369.4163C330.3437,-343.064 261.9953,-297.6611 222.2152,-271.2358"/>
<polygon fill="#191970" stroke="#191970" points="223.9708,-268.2002 213.7044,-265.5822 220.0974,-274.0309 223.9708,-268.2002"/>
</g>
<!-- Node5 -->
<g id="node6" class="node">
<title>Node5</title>
<g id="a_node6"><a xlink:href="Transition_8h.html" target="_top" xlink:title="Transition.h">
<polygon fill="none" stroke="#000000" points="0,-174 0,-193 68,-193 68,-174 0,-174"/>
<text text-anchor="middle" x="34" y="-181" font-family="Helvetica,sans-Serif" font-size="10.00" fill="#000000">Transition.h</text>
</a>
</g>
</g>
<!-- Node0&#45;&gt;Node5 -->
<g id="edge10" class="edge">
<title>Node0&#45;&gt;Node5</title>
<path fill="none" stroke="#191970" d="M333.6203,-369.4304C272.8702,-348.9687 182.7789,-313.7407 114,-266 87.3795,-247.5222 62.3351,-219.2817 47.5827,-201.1047"/>
<polygon fill="#191970" stroke="#191970" points="50.1661,-198.7299 41.2055,-193.0767 44.685,-203.0839 50.1661,-198.7299"/>
</g>
<!-- Node9 -->
<g id="node10" class="node">
<title>Node9</title>
<g id="a_node10"><a xlink:href="NPC__Actor_8h.html" target="_top" xlink:title="../../include/Actors\l/NPC_Actor.h">
<polygon fill="none" stroke="#000000" points="438.5,-302.5 438.5,-332.5 535.5,-332.5 535.5,-302.5 438.5,-302.5"/>
<text text-anchor="start" x="446.5" y="-320.5" font-family="Helvetica,sans-Serif" font-size="10.00" fill="#000000">../../include/Actors</text>
<text text-anchor="middle" x="487" y="-309.5" font-family="Helvetica,sans-Serif" font-size="10.00" fill="#000000">/NPC_Actor.h</text>
</a>
</g>
</g>
<!-- Node0&#45;&gt;Node9 -->
<g id="edge11" class="edge">
<title>Node0&#45;&gt;Node9</title>
<path fill="none" stroke="#191970" d="M425.4141,-369.4183C436.6029,-359.9859 449.8706,-348.801 461.2207,-339.2325"/>
<polygon fill="#191970" stroke="#191970" points="463.6996,-341.7206 469.0893,-332.5991 459.1877,-336.3686 463.6996,-341.7206"/>
</g>
<!-- Node18 -->
<g id="node19" class="node">
<title>Node18</title>
<g id="a_node19"><a xlink:href="Player__Actor_8h.html" target="_top" xlink:title="../../include/Actors\l/Player_Actor.h">
<polygon fill="none" stroke="#000000" points="951.5,-302.5 951.5,-332.5 1048.5,-332.5 1048.5,-302.5 951.5,-302.5"/>
<text text-anchor="start" x="959.5" y="-320.5" font-family="Helvetica,sans-Serif" font-size="10.00" fill="#000000">../../include/Actors</text>
<text text-anchor="middle" x="1000" y="-309.5" font-family="Helvetica,sans-Serif" font-size="10.00" fill="#000000">/Player_Actor.h</text>
</a>
</g>
</g>
<!-- Node0&#45;&gt;Node18 -->
<g id="edge29" class="edge">
<title>Node0&#45;&gt;Node18</title>
<path fill="none" stroke="#191970" d="M496.5757,-378.432C621.881,-363.2657 837.8805,-337.1221 941.3805,-324.595"/>
<polygon fill="#191970" stroke="#191970" points="941.8313,-328.0661 951.3383,-323.3898 940.9902,-321.1168 941.8313,-328.0661"/>
</g>
<!-- Node2 -->
<g id="node3" class="node">
<title>Node2</title>
<g id="a_node3"><a xlink:href="BState_8h.html" target="_top" xlink:title="BState.h">
<polygon fill="none" stroke="#000000" points="439.5,-174 439.5,-193 494.5,-193 494.5,-174 439.5,-174"/>
<text text-anchor="middle" x="467" y="-181" font-family="Helvetica,sans-Serif" font-size="10.00" fill="#000000">BState.h</text>
</a>
</g>
</g>
<!-- Node1&#45;&gt;Node2 -->
<g id="edge2" class="edge">
<title>Node1&#45;&gt;Node2</title>
<path fill="none" stroke="#191970" d="M252.9398,-235.4639C307.1672,-222.3 384.1816,-203.6045 429.531,-192.5957"/>
<polygon fill="#191970" stroke="#191970" points="430.3614,-195.9959 439.2534,-190.2356 428.71,-189.1935 430.3614,-195.9959"/>
</g>
<!-- Node1&#45;&gt;Node5 -->
<g id="edge5" class="edge">
<title>Node1&#45;&gt;Node5</title>
<path fill="none" stroke="#191970" d="M155.7661,-235.4639C128.8302,-223.969 92.0106,-208.2561 65.9311,-197.1266"/>
<polygon fill="#191970" stroke="#191970" points="67.076,-193.8099 56.5047,-193.1039 64.3284,-200.2482 67.076,-193.8099"/>
</g>
<!-- Node6 -->
<g id="node7" class="node">
<title>Node6</title>
<g id="a_node7"><a xlink:href="Condition_8h.html" target="_top" xlink:title="Condition.h">
<polygon fill="none" stroke="#000000" points="281,-112.5 281,-131.5 347,-131.5 347,-112.5 281,-112.5"/>
<text text-anchor="middle" x="314" y="-119.5" font-family="Helvetica,sans-Serif" font-size="10.00" fill="#000000">Condition.h</text>
</a>
</g>
</g>
<!-- Node1&#45;&gt;Node6 -->
<g id="edge6" class="edge">
<title>Node1&#45;&gt;Node6</title>
<path fill="none" stroke="#191970" d="M160.109,-235.4355C131.2349,-219.3342 95.3037,-192.7686 115,-168 134.0874,-143.9971 218.2282,-131.4301 270.8008,-125.8031"/>
<polygon fill="#191970" stroke="#191970" points="271.276,-129.2728 280.8658,-124.7689 270.5604,-122.3094 271.276,-129.2728"/>
</g>
<!-- Node8 -->
<g id="node9" class="node">
<title>Node8</title>
<g id="a_node9"><a xlink:href="ConditionInRange_8h.html" target="_top" xlink:title="ConditionInRange.h">
<polygon fill="none" stroke="#000000" points="124.5,-174 124.5,-193 227.5,-193 227.5,-174 124.5,-174"/>
<text text-anchor="middle" x="176" y="-181" font-family="Helvetica,sans-Serif" font-size="10.00" fill="#000000">ConditionInRange.h</text>
</a>
</g>
</g>
<!-- Node1&#45;&gt;Node8 -->
<g id="edge8" class="edge">
<title>Node1&#45;&gt;Node8</title>
<path fill="none" stroke="#191970" d="M187.5963,-235.2967C185.4634,-225.7699 182.693,-213.3954 180.3949,-203.1306"/>
<polygon fill="#191970" stroke="#191970" points="183.7394,-202.0487 178.1392,-193.055 176.9085,-203.5781 183.7394,-202.0487"/>
</g>
<!-- Node3 -->
<g id="node4" class="node">
<title>Node3</title>
<polygon fill="none" stroke="#bfbfbf" points="465.5,-112.5 465.5,-131.5 494.5,-131.5 494.5,-112.5 465.5,-112.5"/>
<text text-anchor="middle" x="480" y="-119.5" font-family="Helvetica,sans-Serif" font-size="10.00" fill="#000000">list</text>
</g>
<!-- Node2&#45;&gt;Node3 -->
<g id="edge3" class="edge">
<title>Node2&#45;&gt;Node3</title>
<path fill="none" stroke="#191970" d="M469.0313,-173.8906C470.8522,-165.276 473.5802,-152.3708 475.8599,-141.5858"/>
<polygon fill="#191970" stroke="#191970" points="479.2962,-142.2525 477.9401,-131.7449 472.4476,-140.8048 479.2962,-142.2525"/>
</g>
<!-- Node4 -->
<g id="node5" class="node">
<title>Node4</title>
<polygon fill="none" stroke="#bfbfbf" points="889,-.5 889,-19.5 941,-19.5 941,-.5 889,-.5"/>
<text text-anchor="middle" x="915" y="-7.5" font-family="Helvetica,sans-Serif" font-size="10.00" fill="#000000">memory</text>
</g>
<!-- Node2&#45;&gt;Node4 -->
<g id="edge4" class="edge">
<title>Node2&#45;&gt;Node4</title>
<path fill="none" stroke="#191970" d="M462.6988,-173.8892C457.0475,-159.8173 448.7535,-133.0001 457,-112 469.4146,-80.3858 478.6819,-71.3099 509,-56 573.3574,-23.5012 791.4879,-13.6102 878.6141,-10.9144"/>
<polygon fill="#191970" stroke="#191970" points="878.9193,-14.407 888.8116,-10.6135 878.7127,-7.4101 878.9193,-14.407"/>
</g>
<!-- Node7 -->
<g id="node8" class="node">
<title>Node7</title>
<polygon fill="none" stroke="#bfbfbf" points="636,-56.5 636,-75.5 690,-75.5 690,-56.5 636,-56.5"/>
<text text-anchor="middle" x="663" y="-63.5" font-family="Helvetica,sans-Serif" font-size="10.00" fill="#000000">iostream</text>
</g>
<!-- Node6&#45;&gt;Node7 -->
<g id="edge7" class="edge">
<title>Node6&#45;&gt;Node7</title>
<path fill="none" stroke="#191970" d="M347.1477,-116.6812C412.5314,-106.1898 557.6898,-82.8979 626.0448,-71.9298"/>
<polygon fill="#191970" stroke="#191970" points="626.6243,-75.3817 635.9434,-70.3415 625.5152,-68.4701 626.6243,-75.3817"/>
</g>
<!-- Node8&#45;&gt;Node6 -->
<g id="edge9" class="edge">
<title>Node8&#45;&gt;Node6</title>
<path fill="none" stroke="#191970" d="M197.5625,-173.8906C220.5512,-163.6457 257.156,-147.3326 283.1824,-135.7339"/>
<polygon fill="#191970" stroke="#191970" points="284.8796,-138.8095 292.5889,-131.5419 282.0302,-132.4156 284.8796,-138.8095"/>
</g>
<!-- Node9&#45;&gt;Node1 -->
<g id="edge24" class="edge">
<title>Node9&#45;&gt;Node1</title>
<path fill="none" stroke="#191970" d="M438.4531,-306.5113C391.978,-295.9916 321.1507,-279.9598 267.1617,-267.7393"/>
<polygon fill="#191970" stroke="#191970" points="267.8123,-264.2981 257.2863,-265.504 266.2669,-271.1254 267.8123,-264.2981"/>
</g>
<!-- Node9&#45;&gt;Node2 -->
<g id="edge23" class="edge">
<title>Node9&#45;&gt;Node2</title>
<path fill="none" stroke="#191970" d="M482.0526,-302.3489C478.9383,-292.1798 475.1196,-278.4215 473,-266 469.3886,-244.8366 467.949,-220.2558 467.3762,-203.4665"/>
<polygon fill="#191970" stroke="#191970" points="470.8685,-203.1284 467.1021,-193.2257 463.871,-203.3158 470.8685,-203.1284"/>
</g>
<!-- Node9&#45;&gt;Node4 -->
<g id="edge21" class="edge">
<title>Node9&#45;&gt;Node4</title>
<path fill="none" stroke="#191970" d="M488.7845,-302.375C491.1667,-285.4196 496.2659,-257.3725 506,-235 544.3114,-146.9468 546.0195,-107.6071 627,-56 668.1397,-29.7826 810.5165,-16.9712 878.4198,-12.2381"/>
<polygon fill="#191970" stroke="#191970" points="878.9102,-15.7131 888.6516,-11.547 878.4384,-8.729 878.9102,-15.7131"/>
</g>
<!-- Node9&#45;&gt;Node6 -->
<g id="edge25" class="edge">
<title>Node9&#45;&gt;Node6</title>
<path fill="none" stroke="#191970" d="M480.3221,-302.2913C466.9919,-273.2818 434.6591,-209.2644 392,-168 378.4315,-154.8751 360.4308,-143.9423 345.1409,-136.0327"/>
<polygon fill="#191970" stroke="#191970" points="346.5477,-132.8234 336.0351,-131.506 343.4316,-139.0916 346.5477,-132.8234"/>
</g>
<!-- Node9&#45;&gt;Node8 -->
<g id="edge26" class="edge">
<title>Node9&#45;&gt;Node8</title>
<path fill="none" stroke="#191970" d="M448.4636,-302.4719C422.9668,-292.412 388.8564,-278.7299 359,-266 304.6432,-242.8239 242.0109,-214.1566 205.9114,-197.4392"/>
<polygon fill="#191970" stroke="#191970" points="207.0063,-194.0889 196.462,-193.0555 204.0604,-200.4389 207.0063,-194.0889"/>
</g>
<!-- Node10 -->
<g id="node11" class="node">
<title>Node10</title>
<g id="a_node11"><a xlink:href="Components_2Component_8h.html" target="_top" xlink:title="../Components/Component.h">
<polygon fill="none" stroke="#000000" points="779.5,-56.5 779.5,-75.5 922.5,-75.5 922.5,-56.5 779.5,-56.5"/>
<text text-anchor="middle" x="851" y="-63.5" font-family="Helvetica,sans-Serif" font-size="10.00" fill="#000000">../Components/Component.h</text>
</a>
</g>
</g>
<!-- Node9&#45;&gt;Node10 -->
<g id="edge12" class="edge">
<title>Node9&#45;&gt;Node10</title>
<path fill="none" stroke="#191970" d="M535.5049,-313.5297C576.9368,-308.1553 636.5535,-295.5426 680,-266 715.2098,-242.0582 764.5276,-142.7298 794,-112 804.557,-100.9926 817.7333,-90.2024 828.7574,-81.8419"/>
<polygon fill="#191970" stroke="#191970" points="831.0951,-84.4659 837.046,-75.7002 826.9276,-78.8417 831.0951,-84.4659"/>
</g>
<!-- Node11 -->
<g id="node12" class="node">
<title>Node11</title>
<g id="a_node12"><a xlink:href="Actor_8h.html" target="_top" xlink:title="Actor.h">
<polygon fill="none" stroke="#000000" points="813,-112.5 813,-131.5 861,-131.5 861,-112.5 813,-112.5"/>
<text text-anchor="middle" x="837" y="-119.5" font-family="Helvetica,sans-Serif" font-size="10.00" fill="#000000">Actor.h</text>
</a>
</g>
</g>
<!-- Node9&#45;&gt;Node11 -->
<g id="edge14" class="edge">
<title>Node9&#45;&gt;Node11</title>
<path fill="none" stroke="#191970" d="M535.7027,-310.0663C592.8545,-300.7143 683.5669,-283.7219 713,-266 766.0475,-234.0596 807.9629,-171.5515 826.5554,-140.4658"/>
<polygon fill="#191970" stroke="#191970" points="829.738,-141.9565 831.757,-131.5558 823.6927,-138.4273 829.738,-141.9565"/>
</g>
<!-- Node13 -->
<g id="node14" class="node">
<title>Node13</title>
<polygon fill="none" stroke="#bfbfbf" points="803.5,-241 803.5,-260 896.5,-260 896.5,-241 803.5,-241"/>
<text text-anchor="middle" x="850" y="-248" font-family="Helvetica,sans-Serif" font-size="10.00" fill="#000000">box2d/b2_world.h</text>
</g>
<!-- Node9&#45;&gt;Node13 -->
<g id="edge18" class="edge">
<title>Node9&#45;&gt;Node13</title>
<path fill="none" stroke="#191970" d="M535.6085,-310.4353C595.4753,-301.4532 700.1563,-284.8313 789,-266 794.0156,-264.9369 799.2419,-263.7428 804.4332,-262.5014"/>
<polygon fill="#191970" stroke="#191970" points="805.4307,-265.8605 814.3084,-260.0779 803.7623,-259.0622 805.4307,-265.8605"/>
</g>
<!-- Node14 -->
<g id="node15" class="node">
<title>Node14</title>
<polygon fill="none" stroke="#bfbfbf" points="1064,-112.5 1064,-131.5 1134,-131.5 1134,-112.5 1064,-112.5"/>
<text text-anchor="middle" x="1099" y="-119.5" font-family="Helvetica,sans-Serif" font-size="10.00" fill="#000000">glm/fwd.hpp</text>
</g>
<!-- Node9&#45;&gt;Node14 -->
<g id="edge19" class="edge">
<title>Node9&#45;&gt;Node14</title>
<path fill="none" stroke="#191970" d="M535.5337,-313.0398C588.512,-306.9878 675.1133,-293.5908 745,-266 769.3201,-256.3986 770.5265,-244.2035 795,-235 886.5061,-200.5883 923.7353,-241.0341 1012,-199 1020.0228,-195.1793 1058.2255,-160.132 1081.2566,-138.6595"/>
<polygon fill="#191970" stroke="#191970" points="1083.7817,-141.0902 1088.6959,-131.704 1079.001,-135.9769 1083.7817,-141.0902"/>
</g>
<!-- Node15 -->
<g id="node16" class="node">
<title>Node15</title>
<polygon fill="none" stroke="#bfbfbf" points="515,-241 515,-260 585,-260 585,-241 515,-241"/>
<text text-anchor="middle" x="550" y="-248" font-family="Helvetica,sans-Serif" font-size="10.00" fill="#000000">glm/glm.hpp</text>
</g>
<!-- Node9&#45;&gt;Node15 -->
<g id="edge20" class="edge">
<title>Node9&#45;&gt;Node15</title>
<path fill="none" stroke="#191970" d="M501.2957,-302.2967C511.0161,-291.9591 523.8894,-278.2684 533.9597,-267.5588"/>
<polygon fill="#191970" stroke="#191970" points="536.715,-269.7378 541.0155,-260.055 531.6154,-264.9426 536.715,-269.7378"/>
</g>
<!-- Node16 -->
<g id="node17" class="node">
<title>Node16</title>
<polygon fill="none" stroke="#bfbfbf" points="603,-241 603,-260 671,-260 671,-241 603,-241"/>
<text text-anchor="middle" x="637" y="-248" font-family="Helvetica,sans-Serif" font-size="10.00" fill="#000000">sys/types.h</text>
</g>
<!-- Node9&#45;&gt;Node16 -->
<g id="edge22" class="edge">
<title>Node9&#45;&gt;Node16</title>
<path fill="none" stroke="#191970" d="M520.6629,-302.4639C546.2845,-291.0196 581.2661,-275.3945 606.1627,-264.274"/>
<polygon fill="#191970" stroke="#191970" points="607.7955,-267.378 615.4987,-260.1039 604.9407,-260.9866 607.7955,-267.378"/>
</g>
<!-- Node17 -->
<g id="node18" class="node">
<title>Node17</title>
<g id="a_node18"><a xlink:href="ConditionOutOfRange_8h.html" target="_top" xlink:title="../BStateMachine/Condition\lOutOfRange.h">
<polygon fill="none" stroke="#000000" points="245.5,-168.5 245.5,-198.5 382.5,-198.5 382.5,-168.5 245.5,-168.5"/>
<text text-anchor="start" x="253.5" y="-186.5" font-family="Helvetica,sans-Serif" font-size="10.00" fill="#000000">../BStateMachine/Condition</text>
<text text-anchor="middle" x="314" y="-175.5" font-family="Helvetica,sans-Serif" font-size="10.00" fill="#000000">OutOfRange.h</text>
</a>
</g>
</g>
<!-- Node9&#45;&gt;Node17 -->
<g id="edge27" class="edge">
<title>Node9&#45;&gt;Node17</title>
<path fill="none" stroke="#191970" d="M456.1661,-302.4428C438.1811,-293.0408 415.4725,-280.0738 397,-266 373.4553,-248.0618 349.828,-223.8217 333.8374,-206.2619"/>
<polygon fill="#191970" stroke="#191970" points="336.3413,-203.8119 327.0554,-198.7106 331.1334,-208.4892 336.3413,-203.8119"/>
</g>
<!-- Node10&#45;&gt;Node4 -->
<g id="edge13" class="edge">
<title>Node10&#45;&gt;Node4</title>
<path fill="none" stroke="#191970" d="M862.1479,-56.2455C871.5087,-48.0549 885.0858,-36.1749 896.1349,-26.5069"/>
<polygon fill="#191970" stroke="#191970" points="898.7588,-28.8618 903.9798,-19.6427 894.1492,-23.5937 898.7588,-28.8618"/>
</g>
<!-- Node11&#45;&gt;Node7 -->
<g id="edge16" class="edge">
<title>Node11&#45;&gt;Node7</title>
<path fill="none" stroke="#191970" d="M812.806,-114.2134C783.4844,-104.7766 733.7825,-88.7806 699.7269,-77.8201"/>
<polygon fill="#191970" stroke="#191970" points="700.7252,-74.4647 690.1338,-74.7327 698.5806,-81.1281 700.7252,-74.4647"/>
</g>
<!-- Node11&#45;&gt;Node10 -->
<g id="edge17" class="edge">
<title>Node11&#45;&gt;Node10</title>
<path fill="none" stroke="#191970" d="M839.4386,-112.2455C841.2855,-104.8579 843.8828,-94.4689 846.1478,-85.4087"/>
<polygon fill="#191970" stroke="#191970" points="849.5594,-86.193 848.5893,-75.6427 842.7684,-84.4952 849.5594,-86.193"/>
</g>
<!-- Node12 -->
<g id="node13" class="node">
<title>Node12</title>
<polygon fill="none" stroke="#bfbfbf" points="1082,-56.5 1082,-75.5 1126,-75.5 1126,-56.5 1082,-56.5"/>
<text text-anchor="middle" x="1104" y="-63.5" font-family="Helvetica,sans-Serif" font-size="10.00" fill="#000000">vector</text>
</g>
<!-- Node11&#45;&gt;Node12 -->
<g id="edge15" class="edge">
<title>Node11&#45;&gt;Node12</title>
<path fill="none" stroke="#191970" d="M861.1654,-116.9316C909.4238,-106.81 1017.7332,-84.0934 1071.891,-72.7345"/>
<polygon fill="#191970" stroke="#191970" points="1072.8981,-76.0995 1081.9667,-70.6212 1071.4611,-69.2485 1072.8981,-76.0995"/>
</g>
<!-- Node17&#45;&gt;Node6 -->
<g id="edge28" class="edge">
<title>Node17&#45;&gt;Node6</title>
<path fill="none" stroke="#191970" d="M314,-168.2977C314,-160.3834 314,-150.6043 314,-142.0759"/>
<polygon fill="#191970" stroke="#191970" points="317.5001,-141.8469 314,-131.8469 310.5001,-141.847 317.5001,-141.8469"/>
</g>
<!-- Node18&#45;&gt;Node4 -->
<g id="edge44" class="edge">
<title>Node18&#45;&gt;Node4</title>
<path fill="none" stroke="#191970" d="M1048.7965,-307.6043C1138.1579,-288.0719 1319,-241.3922 1319,-183.5 1319,-183.5 1319,-183.5 1319,-122 1319,-46.0687 1050.6339,-19.5113 951.3541,-12.2846"/>
<polygon fill="#191970" stroke="#191970" points="951.4172,-8.7805 941.1963,-11.5701 950.9261,-15.7632 951.4172,-8.7805"/>
</g>
<!-- Node18&#45;&gt;Node10 -->
<g id="edge30" class="edge">
<title>Node18&#45;&gt;Node10</title>
<path fill="none" stroke="#191970" d="M981.6339,-302.4251C969.4116,-292.2882 953.0755,-278.5371 939,-266 923.9734,-252.6157 922.5988,-246.3763 906,-235 875.5012,-214.097 856.289,-225.9736 831,-199 803.3093,-169.4647 788.3058,-149.3203 804,-112 808.9978,-100.1153 818.7314,-89.765 828.0503,-81.908"/>
<polygon fill="#191970" stroke="#191970" points="830.2957,-84.5951 836.0035,-75.6692 825.9752,-79.0874 830.2957,-84.5951"/>
</g>
<!-- Node18&#45;&gt;Node11 -->
<g id="edge31" class="edge">
<title>Node18&#45;&gt;Node11</title>
<path fill="none" stroke="#191970" d="M992.2778,-302.3943C982.2533,-284.1384 963.1486,-253.5651 939,-235 904.5179,-208.4908 874.9408,-233.146 848,-199 835.3593,-182.9787 833.8096,-159.0393 834.6614,-142.1137"/>
<polygon fill="#191970" stroke="#191970" points="838.1865,-141.9559 835.5279,-131.7 831.2106,-141.3753 838.1865,-141.9559"/>
</g>
<!-- Node18&#45;&gt;Node12 -->
<g id="edge46" class="edge">
<title>Node18&#45;&gt;Node12</title>
<path fill="none" stroke="#191970" d="M1048.7663,-307.0034C1076.5217,-299.1915 1110.689,-286.295 1136,-266 1163.7937,-243.7144 1169.7945,-233.1319 1180,-199 1193.6704,-153.2799 1150.8381,-106.3099 1123.9955,-82.3045"/>
<polygon fill="#191970" stroke="#191970" points="1126.1133,-79.5089 1116.2586,-75.6186 1121.5364,-84.8053 1126.1133,-79.5089"/>
</g>
<!-- Node18&#45;&gt;Node13 -->
<g id="edge45" class="edge">
<title>Node18&#45;&gt;Node13</title>
<path fill="none" stroke="#191970" d="M966.3371,-302.4639C940.7155,-291.0196 905.7339,-275.3945 880.8373,-264.274"/>
<polygon fill="#191970" stroke="#191970" points="882.0593,-260.9866 871.5013,-260.1039 879.2045,-267.378 882.0593,-260.9866"/>
</g>
<!-- Node18&#45;&gt;Node14 -->
<g id="edge43" class="edge">
<title>Node18&#45;&gt;Node14</title>
<path fill="none" stroke="#191970" d="M1040.9073,-302.4056C1081.642,-284.769 1141.2815,-251.1742 1164,-199 1169.5005,-186.3678 1170.3313,-180.2369 1164,-168 1156.9454,-154.365 1143.7805,-143.9036 1131.1337,-136.4282"/>
<polygon fill="#191970" stroke="#191970" points="1132.5666,-133.2231 1122.1112,-131.5099 1129.2163,-139.3692 1132.5666,-133.2231"/>
</g>
<!-- Node19 -->
<g id="node20" class="node">
<title>Node19</title>
<g id="a_node20"><a xlink:href="PickUps__Actor_8h.html" target="_top" xlink:title="PickUps_Actor.h">
<polygon fill="none" stroke="#000000" points="991.5,-241 991.5,-260 1082.5,-260 1082.5,-241 991.5,-241"/>
<text text-anchor="middle" x="1037" y="-248" font-family="Helvetica,sans-Serif" font-size="10.00" fill="#000000">PickUps_Actor.h</text>
</a>
</g>
</g>
<!-- Node18&#45;&gt;Node19 -->
<g id="edge32" class="edge">
<title>Node18&#45;&gt;Node19</title>
<path fill="none" stroke="#191970" d="M1008.3959,-302.2967C1013.8808,-292.3645 1021.0751,-279.3371 1026.8763,-268.8321"/>
<polygon fill="#191970" stroke="#191970" points="1029.953,-270.5009 1031.7234,-260.055 1023.8252,-267.1169 1029.953,-270.5009"/>
</g>
<!-- Node19&#45;&gt;Node4 -->
<g id="edge41" class="edge">
<title>Node19&#45;&gt;Node4</title>
<path fill="none" stroke="#191970" d="M1082.6386,-244.8516C1111.2099,-238.6947 1145.9229,-225.8374 1164,-199 1188.5772,-162.5126 1184.6032,-103.3135 1135,-56 1109.0045,-31.2045 1006.588,-18.2803 951.1337,-12.9779"/>
<polygon fill="#191970" stroke="#191970" points="951.3091,-9.4793 941.03,-12.0466 950.6665,-16.4498 951.3091,-9.4793"/>
</g>
<!-- Node19&#45;&gt;Node10 -->
<g id="edge33" class="edge">
<title>Node19&#45;&gt;Node10</title>
<path fill="none" stroke="#191970" d="M991.2529,-241.5154C964.119,-234.1235 930.702,-221.1402 908,-199 905.8209,-196.8748 874.2543,-121.6967 859.059,-85.3273"/>
<polygon fill="#191970" stroke="#191970" points="862.1637,-83.679 855.0816,-75.799 855.7039,-86.3755 862.1637,-83.679"/>
</g>
<!-- Node19&#45;&gt;Node11 -->
<g id="edge34" class="edge">
<title>Node19&#45;&gt;Node11</title>
<path fill="none" stroke="#191970" d="M1001.9309,-240.9295C957.311,-228.5123 884.8189,-207.441 875,-199 857.4005,-183.8703 847.153,-158.6644 841.8245,-141.2338"/>
<polygon fill="#191970" stroke="#191970" points="845.1799,-140.2363 839.1206,-131.5452 838.4376,-142.118 845.1799,-140.2363"/>
</g>
<!-- Node19&#45;&gt;Node14 -->
<g id="edge40" class="edge">
<title>Node19&#45;&gt;Node14</title>
<path fill="none" stroke="#191970" d="M1082.6576,-241.6006C1106.4815,-234.3898 1133.5961,-221.5615 1148,-199 1155.414,-187.3871 1153.4728,-180.6442 1148,-168 1142.7663,-155.9081 1132.6158,-145.5335 1122.9045,-137.7139"/>
<polygon fill="#191970" stroke="#191970" points="1124.7234,-134.7038 1114.618,-131.5209 1120.5329,-140.3109 1124.7234,-134.7038"/>
</g>
<!-- Node20 -->
<g id="node21" class="node">
<title>Node20</title>
<g id="a_node21"><a xlink:href="Texture__Actor_8h.html" target="_top" xlink:title="Texture_Actor.h">
<polygon fill="none" stroke="#000000" points="917,-174 917,-193 1003,-193 1003,-174 917,-174"/>
<text text-anchor="middle" x="960" y="-181" font-family="Helvetica,sans-Serif" font-size="10.00" fill="#000000">Texture_Actor.h</text>
</a>
</g>
</g>
<!-- Node19&#45;&gt;Node20 -->
<g id="edge35" class="edge">
<title>Node19&#45;&gt;Node20</title>
<path fill="none" stroke="#191970" d="M1025.9678,-240.9005C1013.6172,-230.1539 993.3977,-212.5603 978.5943,-199.6794"/>
<polygon fill="#191970" stroke="#191970" points="980.8532,-197.0055 971.0118,-193.0817 976.2582,-202.2863 980.8532,-197.0055"/>
</g>
<!-- Node21 -->
<g id="node22" class="node">
<title>Node21</title>
<polygon fill="none" stroke="#bfbfbf" points="1059,-174 1059,-193 1139,-193 1139,-174 1059,-174"/>
<text text-anchor="middle" x="1099" y="-181" font-family="Helvetica,sans-Serif" font-size="10.00" fill="#000000">box2d/box2d.h</text>
</g>
<!-- Node19&#45;&gt;Node21 -->
<g id="edge42" class="edge">
<title>Node19&#45;&gt;Node21</title>
<path fill="none" stroke="#191970" d="M1045.8831,-240.9005C1055.5514,-230.4525 1071.2088,-213.5325 1083.0248,-200.7635"/>
<polygon fill="#191970" stroke="#191970" points="1085.9103,-202.7985 1090.1334,-193.0817 1080.7726,-198.0441 1085.9103,-202.7985"/>
</g>
<!-- Node20&#45;&gt;Node4 -->
<g id="edge39" class="edge">
<title>Node20&#45;&gt;Node4</title>
<path fill="none" stroke="#191970" d="M958.3402,-173.7888C954.5676,-152.3162 944.6837,-99.2788 932,-56 929.3735,-47.0381 925.8769,-37.3111 922.7379,-29.1199"/>
<polygon fill="#191970" stroke="#191970" points="925.9649,-27.7622 919.0455,-19.7389 919.4513,-30.326 925.9649,-27.7622"/>
</g>
<!-- Node20&#45;&gt;Node10 -->
<g id="edge36" class="edge">
<title>Node20&#45;&gt;Node10</title>
<path fill="none" stroke="#191970" d="M953.1157,-173.8142C942.8658,-159.6488 922.6815,-132.7163 903,-112 893.0118,-101.4867 880.9266,-90.6952 870.9215,-82.209"/>
<polygon fill="#191970" stroke="#191970" points="873.0183,-79.4002 863.0982,-75.6796 868.5329,-84.7743 873.0183,-79.4002"/>
</g>
<!-- Node20&#45;&gt;Node11 -->
<g id="edge37" class="edge">
<title>Node20&#45;&gt;Node11</title>
<path fill="none" stroke="#191970" d="M940.7813,-173.8906C920.4719,-163.7359 888.2393,-147.6196 865.0832,-136.0416"/>
<polygon fill="#191970" stroke="#191970" points="866.5933,-132.8836 856.0838,-131.5419 863.4628,-139.1446 866.5933,-132.8836"/>
</g>
<!-- Node20&#45;&gt;Node14 -->
<g id="edge38" class="edge">
<title>Node20&#45;&gt;Node14</title>
<path fill="none" stroke="#191970" d="M981.7188,-173.8906C1004.874,-163.6457 1041.7441,-147.3326 1067.9591,-135.7339"/>
<polygon fill="#191970" stroke="#191970" points="1069.705,-138.7888 1077.4338,-131.5419 1066.8727,-132.3874 1069.705,-138.7888"/>
</g>
</g>
</svg>
