<?xml version="1.0" encoding="UTF-8" standalone="no"?>
<!DOCTYPE svg PUBLIC "-//W3C//DTD SVG 1.1//EN"
 "http://www.w3.org/Graphics/SVG/1.1/DTD/svg11.dtd">
<!-- Generated by graphviz version 2.40.1 (20161225.0304)
 -->
<!-- Title: /mnt/hdd/fnky/C0de/CAPSTONE/clean_build/src/BStateMachine/BState.cpp Pages: 1 -->
<svg width="201pt" height="173pt"
 viewBox="0.00 0.00 201.00 173.00" xmlns="http://www.w3.org/2000/svg" xmlns:xlink="http://www.w3.org/1999/xlink">
<g id="graph0" class="graph" transform="scale(1 1) rotate(0) translate(4 169)">
<title>/mnt/hdd/fnky/C0de/CAPSTONE/clean_build/src/BStateMachine/BState.cpp</title>
<!-- Node0 -->
<g id="node1" class="node">
<title>Node0</title>
<polygon fill="#bfbfbf" stroke="#000000" points="38,-123.5 38,-164.5 193,-164.5 193,-123.5 38,-123.5"/>
<text text-anchor="start" x="46" y="-152.5" font-family="Helvetica,sans-Serif" font-size="10.00" fill="#000000">/mnt/hdd/fnky/C0de</text>
<text text-anchor="start" x="46" y="-141.5" font-family="Helvetica,sans-Serif" font-size="10.00" fill="#000000">/CAPSTONE/clean_build</text>
<text text-anchor="middle" x="115.5" y="-130.5" font-family="Helvetica,sans-Serif" font-size="10.00" fill="#000000">/src/BStateMachine/BState.cpp</text>
</g>
<!-- Node1 -->
<g id="node2" class="node">
<title>Node1</title>
<g id="a_node2"><a xlink:href="BState_8h.html" target="_top" xlink:title="../../include/BStateMachine\l/BState.h">
<polygon fill="none" stroke="#000000" points="0,-56.5 0,-86.5 135,-86.5 135,-56.5 0,-56.5"/>
<text text-anchor="start" x="8" y="-74.5" font-family="Helvetica,sans-Serif" font-size="10.00" fill="#000000">../../include/BStateMachine</text>
<text text-anchor="middle" x="67.5" y="-63.5" font-family="Helvetica,sans-Serif" font-size="10.00" fill="#000000">/BState.h</text>
</a>
</g>
</g>
<!-- Node0&#45;&gt;Node1 -->
<g id="edge1" class="edge">
<title>Node0&#45;&gt;Node1</title>
<path fill="none" stroke="#191970" d="M101.8735,-123.4183C96.053,-114.627 89.2246,-104.3132 83.1942,-95.2047"/>
<polygon fill="#191970" stroke="#191970" points="85.9355,-93.0051 77.4966,-86.5991 80.0988,-96.8694 85.9355,-93.0051"/>
</g>
<!-- Node3 -->
<g id="node4" class="node">
<title>Node3</title>
<polygon fill="none" stroke="#bfbfbf" points="118.5,-.5 118.5,-19.5 170.5,-19.5 170.5,-.5 118.5,-.5"/>
<text text-anchor="middle" x="144.5" y="-7.5" font-family="Helvetica,sans-Serif" font-size="10.00" fill="#000000">memory</text>
</g>
<!-- Node0&#45;&gt;Node3 -->
<g id="edge4" class="edge">
<title>Node0&#45;&gt;Node3</title>
<path fill="none" stroke="#191970" d="M129.0328,-123.2736C135.0452,-112.8462 141.4453,-99.7404 144.5,-87 149.0647,-67.9616 148.4066,-45.5059 147.0076,-29.7736"/>
<polygon fill="#191970" stroke="#191970" points="150.4685,-29.2211 145.922,-19.6514 143.5084,-29.9676 150.4685,-29.2211"/>
</g>
<!-- Node2 -->
<g id="node3" class="node">
<title>Node2</title>
<polygon fill="none" stroke="#bfbfbf" points="53,-.5 53,-19.5 82,-19.5 82,-.5 53,-.5"/>
<text text-anchor="middle" x="67.5" y="-7.5" font-family="Helvetica,sans-Serif" font-size="10.00" fill="#000000">list</text>
</g>
<!-- Node1&#45;&gt;Node2 -->
<g id="edge2" class="edge">
<title>Node1&#45;&gt;Node2</title>
<path fill="none" stroke="#191970" d="M67.5,-56.2977C67.5,-48.3834 67.5,-38.6043 67.5,-30.0759"/>
<polygon fill="#191970" stroke="#191970" points="71.0001,-29.8469 67.5,-19.8469 64.0001,-29.847 71.0001,-29.8469"/>
</g>
<!-- Node1&#45;&gt;Node3 -->
<g id="edge3" class="edge">
<title>Node1&#45;&gt;Node3</title>
<path fill="none" stroke="#191970" d="M86.5337,-56.2977C98.0015,-47.1384 112.5962,-35.4816 124.2719,-26.1562"/>
<polygon fill="#191970" stroke="#191970" points="126.5419,-28.8225 132.1713,-19.8469 122.1734,-23.3529 126.5419,-28.8225"/>
</g>
</g>
</svg>
