<?xml version="1.0" encoding="UTF-8" standalone="no"?>
<!DOCTYPE svg PUBLIC "-//W3C//DTD SVG 1.1//EN"
 "http://www.w3.org/Graphics/SVG/1.1/DTD/svg11.dtd">
<!-- Generated by graphviz version 2.40.1 (20161225.0304)
 -->
<!-- Title: /mnt/hdd/fnky/C0de/CAPSTONE/clean_build/include/BStateMachine/BStateMachine.h Pages: 1 -->
<svg width="325pt" height="229pt"
 viewBox="0.00 0.00 325.00 229.00" xmlns="http://www.w3.org/2000/svg" xmlns:xlink="http://www.w3.org/1999/xlink">
<g id="graph0" class="graph" transform="scale(1 1) rotate(0) translate(4 225)">
<title>/mnt/hdd/fnky/C0de/CAPSTONE/clean_build/include/BStateMachine/BStateMachine.h</title>
<!-- Node0 -->
<g id="node1" class="node">
<title>Node0</title>
<polygon fill="#bfbfbf" stroke="#000000" points="91,-168.5 91,-220.5 218,-220.5 218,-168.5 91,-168.5"/>
<text text-anchor="start" x="99" y="-208.5" font-family="Helvetica,sans-Serif" font-size="10.00" fill="#000000">/mnt/hdd/fnky/C0de</text>
<text text-anchor="start" x="99" y="-197.5" font-family="Helvetica,sans-Serif" font-size="10.00" fill="#000000">/CAPSTONE/clean_build</text>
<text text-anchor="start" x="99" y="-186.5" font-family="Helvetica,sans-Serif" font-size="10.00" fill="#000000">/include/BStateMachine</text>
<text text-anchor="middle" x="154.5" y="-175.5" font-family="Helvetica,sans-Serif" font-size="10.00" fill="#000000">/BStateMachine.h</text>
</g>
<!-- Node1 -->
<g id="node2" class="node">
<title>Node1</title>
<g id="a_node2"><a xlink:href="BState_8h.html" target="_top" xlink:title="BState.h">
<polygon fill="none" stroke="#000000" points="16,-112.5 16,-131.5 71,-131.5 71,-112.5 16,-112.5"/>
<text text-anchor="middle" x="43.5" y="-119.5" font-family="Helvetica,sans-Serif" font-size="10.00" fill="#000000">BState.h</text>
</a>
</g>
</g>
<!-- Node0&#45;&gt;Node1 -->
<g id="edge1" class="edge">
<title>Node0&#45;&gt;Node1</title>
<path fill="none" stroke="#191970" d="M114.4265,-168.3258C98.3293,-157.8119 80.3514,-146.0696 66.5232,-137.0377"/>
<polygon fill="#191970" stroke="#191970" points="68.3832,-134.0721 58.0969,-131.534 64.5553,-139.9328 68.3832,-134.0721"/>
</g>
<!-- Node4 -->
<g id="node5" class="node">
<title>Node4</title>
<g id="a_node5"><a xlink:href="Transition_8h.html" target="_top" xlink:title="Transition.h">
<polygon fill="none" stroke="#000000" points="89.5,-112.5 89.5,-131.5 157.5,-131.5 157.5,-112.5 89.5,-112.5"/>
<text text-anchor="middle" x="123.5" y="-119.5" font-family="Helvetica,sans-Serif" font-size="10.00" fill="#000000">Transition.h</text>
</a>
</g>
</g>
<!-- Node0&#45;&gt;Node4 -->
<g id="edge4" class="edge">
<title>Node0&#45;&gt;Node4</title>
<path fill="none" stroke="#191970" d="M143.3083,-168.3258C139.4121,-159.2138 135.1214,-149.179 131.5325,-140.7857"/>
<polygon fill="#191970" stroke="#191970" points="134.7264,-139.3527 127.5766,-131.534 128.29,-142.1048 134.7264,-139.3527"/>
</g>
<!-- Node5 -->
<g id="node6" class="node">
<title>Node5</title>
<g id="a_node6"><a xlink:href="Condition_8h.html" target="_top" xlink:title="Condition.h">
<polygon fill="none" stroke="#000000" points="192.5,-56.5 192.5,-75.5 258.5,-75.5 258.5,-56.5 192.5,-56.5"/>
<text text-anchor="middle" x="225.5" y="-63.5" font-family="Helvetica,sans-Serif" font-size="10.00" fill="#000000">Condition.h</text>
</a>
</g>
</g>
<!-- Node0&#45;&gt;Node5 -->
<g id="edge5" class="edge">
<title>Node0&#45;&gt;Node5</title>
<path fill="none" stroke="#191970" d="M168.8679,-168.4961C182.6423,-143.5664 203.0903,-106.5584 215.2782,-84.5"/>
<polygon fill="#191970" stroke="#191970" points="218.4704,-85.9596 220.2431,-75.5142 212.3434,-82.5743 218.4704,-85.9596"/>
</g>
<!-- Node7 -->
<g id="node8" class="node">
<title>Node7</title>
<g id="a_node8"><a xlink:href="ConditionInRange_8h.html" target="_top" xlink:title="ConditionInRange.h">
<polygon fill="none" stroke="#000000" points="214,-112.5 214,-131.5 317,-131.5 317,-112.5 214,-112.5"/>
<text text-anchor="middle" x="265.5" y="-119.5" font-family="Helvetica,sans-Serif" font-size="10.00" fill="#000000">ConditionInRange.h</text>
</a>
</g>
</g>
<!-- Node0&#45;&gt;Node7 -->
<g id="edge7" class="edge">
<title>Node0&#45;&gt;Node7</title>
<path fill="none" stroke="#191970" d="M194.5735,-168.3258C210.6707,-157.8119 228.6486,-146.0696 242.4768,-137.0377"/>
<polygon fill="#191970" stroke="#191970" points="244.4447,-139.9328 250.9031,-131.534 240.6168,-134.0721 244.4447,-139.9328"/>
</g>
<!-- Node2 -->
<g id="node3" class="node">
<title>Node2</title>
<polygon fill="none" stroke="#bfbfbf" points="0,-56.5 0,-75.5 29,-75.5 29,-56.5 0,-56.5"/>
<text text-anchor="middle" x="14.5" y="-63.5" font-family="Helvetica,sans-Serif" font-size="10.00" fill="#000000">list</text>
</g>
<!-- Node1&#45;&gt;Node2 -->
<g id="edge2" class="edge">
<title>Node1&#45;&gt;Node2</title>
<path fill="none" stroke="#191970" d="M38.4486,-112.2455C34.4981,-104.617 28.8903,-93.7881 24.0942,-84.5267"/>
<polygon fill="#191970" stroke="#191970" points="27.2001,-82.9131 19.4935,-75.6427 20.9841,-86.1321 27.2001,-82.9131"/>
</g>
<!-- Node3 -->
<g id="node4" class="node">
<title>Node3</title>
<polygon fill="none" stroke="#bfbfbf" points="47.5,-56.5 47.5,-75.5 99.5,-75.5 99.5,-56.5 47.5,-56.5"/>
<text text-anchor="middle" x="73.5" y="-63.5" font-family="Helvetica,sans-Serif" font-size="10.00" fill="#000000">memory</text>
</g>
<!-- Node1&#45;&gt;Node3 -->
<g id="edge3" class="edge">
<title>Node1&#45;&gt;Node3</title>
<path fill="none" stroke="#191970" d="M48.7256,-112.2455C52.8123,-104.617 58.6135,-93.7881 63.575,-84.5267"/>
<polygon fill="#191970" stroke="#191970" points="66.6972,-86.1103 68.3343,-75.6427 60.5268,-82.8047 66.6972,-86.1103"/>
</g>
<!-- Node6 -->
<g id="node7" class="node">
<title>Node6</title>
<polygon fill="none" stroke="#bfbfbf" points="198.5,-.5 198.5,-19.5 252.5,-19.5 252.5,-.5 198.5,-.5"/>
<text text-anchor="middle" x="225.5" y="-7.5" font-family="Helvetica,sans-Serif" font-size="10.00" fill="#000000">iostream</text>
</g>
<!-- Node5&#45;&gt;Node6 -->
<g id="edge6" class="edge">
<title>Node5&#45;&gt;Node6</title>
<path fill="none" stroke="#191970" d="M225.5,-56.2455C225.5,-48.9382 225.5,-38.6944 225.5,-29.7046"/>
<polygon fill="#191970" stroke="#191970" points="229.0001,-29.6426 225.5,-19.6427 222.0001,-29.6427 229.0001,-29.6426"/>
</g>
<!-- Node7&#45;&gt;Node5 -->
<g id="edge8" class="edge">
<title>Node7&#45;&gt;Node5</title>
<path fill="none" stroke="#191970" d="M258.5325,-112.2455C252.9689,-104.4564 245.022,-93.3308 238.3171,-83.9439"/>
<polygon fill="#191970" stroke="#191970" points="241.0481,-81.7457 232.3876,-75.6427 235.352,-85.8144 241.0481,-81.7457"/>
</g>
</g>
</svg>
