<?xml version="1.0" encoding="UTF-8" standalone="no"?>
<!DOCTYPE svg PUBLIC "-//W3C//DTD SVG 1.1//EN"
 "http://www.w3.org/Graphics/SVG/1.1/DTD/svg11.dtd">
<!-- Generated by graphviz version 2.40.1 (20161225.0304)
 -->
<!-- Title: /mnt/hdd/fnky/C0de/CAPSTONE/clean_build/include/BStateMachine/BState.h Pages: 1 -->
<svg width="1179pt" height="317pt"
 viewBox="0.00 0.00 1179.00 317.00" xmlns="http://www.w3.org/2000/svg" xmlns:xlink="http://www.w3.org/1999/xlink">
<g id="graph0" class="graph" transform="scale(1 1) rotate(0) translate(4 313)">
<title>/mnt/hdd/fnky/C0de/CAPSTONE/clean_build/include/BStateMachine/BState.h</title>
<!-- Node3 -->
<g id="node1" class="node">
<title>Node3</title>
<polygon fill="#bfbfbf" stroke="#000000" points="441,-256.5 441,-308.5 568,-308.5 568,-256.5 441,-256.5"/>
<text text-anchor="start" x="449" y="-296.5" font-family="Helvetica,sans-Serif" font-size="10.00" fill="#000000">/mnt/hdd/fnky/C0de</text>
<text text-anchor="start" x="449" y="-285.5" font-family="Helvetica,sans-Serif" font-size="10.00" fill="#000000">/CAPSTONE/clean_build</text>
<text text-anchor="start" x="449" y="-274.5" font-family="Helvetica,sans-Serif" font-size="10.00" fill="#000000">/include/BStateMachine</text>
<text text-anchor="middle" x="504.5" y="-263.5" font-family="Helvetica,sans-Serif" font-size="10.00" fill="#000000">/BState.h</text>
</g>
<!-- Node4 -->
<g id="node2" class="node">
<title>Node4</title>
<g id="a_node2"><a xlink:href="NPC__Actor_8h.html" target="_top" xlink:title="/mnt/hdd/fnky/C0de\l/CAPSTONE/clean_build\l/include/Actors/NPC_Actor.h">
<polygon fill="none" stroke="#000000" points="433,-89.5 433,-130.5 576,-130.5 576,-89.5 433,-89.5"/>
<text text-anchor="start" x="441" y="-118.5" font-family="Helvetica,sans-Serif" font-size="10.00" fill="#000000">/mnt/hdd/fnky/C0de</text>
<text text-anchor="start" x="441" y="-107.5" font-family="Helvetica,sans-Serif" font-size="10.00" fill="#000000">/CAPSTONE/clean_build</text>
<text text-anchor="middle" x="504.5" y="-96.5" font-family="Helvetica,sans-Serif" font-size="10.00" fill="#000000">/include/Actors/NPC_Actor.h</text>
</a>
</g>
</g>
<!-- Node3&#45;&gt;Node4 -->
<g id="edge1" class="edge">
<title>Node3&#45;&gt;Node4</title>
<path fill="none" stroke="#191970" d="M504.5,-246.0025C504.5,-210.9532 504.5,-159.2467 504.5,-130.7472"/>
<polygon fill="#191970" stroke="#191970" points="501.0001,-246.3009 504.5,-256.301 508.0001,-246.301 501.0001,-246.3009"/>
</g>
<!-- Node12 -->
<g id="node10" class="node">
<title>Node12</title>
<g id="a_node10"><a xlink:href="BStateMachine_8h.html" target="_top" xlink:title="/mnt/hdd/fnky/C0de\l/CAPSTONE/clean_build\l/include/BStateMachine\l/BStateMachine.h">
<polygon fill="none" stroke="#000000" points="349,-167.5 349,-219.5 476,-219.5 476,-167.5 349,-167.5"/>
<text text-anchor="start" x="357" y="-207.5" font-family="Helvetica,sans-Serif" font-size="10.00" fill="#000000">/mnt/hdd/fnky/C0de</text>
<text text-anchor="start" x="357" y="-196.5" font-family="Helvetica,sans-Serif" font-size="10.00" fill="#000000">/CAPSTONE/clean_build</text>
<text text-anchor="start" x="357" y="-185.5" font-family="Helvetica,sans-Serif" font-size="10.00" fill="#000000">/include/BStateMachine</text>
<text text-anchor="middle" x="412.5" y="-174.5" font-family="Helvetica,sans-Serif" font-size="10.00" fill="#000000">/BStateMachine.h</text>
</a>
</g>
</g>
<!-- Node3&#45;&gt;Node12 -->
<g id="edge9" class="edge">
<title>Node3&#45;&gt;Node12</title>
<path fill="none" stroke="#191970" d="M470.17,-249.2894C460.0082,-239.459 449.0328,-228.8415 439.4117,-219.5341"/>
<polygon fill="#191970" stroke="#191970" points="467.7737,-251.841 477.3946,-256.2784 472.6408,-246.8099 467.7737,-251.841"/>
</g>
<!-- Node13 -->
<g id="node11" class="node">
<title>Node13</title>
<g id="a_node11"><a xlink:href="BState_8cpp.html" target="_top" xlink:title="/mnt/hdd/fnky/C0de\l/CAPSTONE/clean_build\l/src/BStateMachine/BState.cpp">
<polygon fill="none" stroke="#000000" points="533,-173 533,-214 688,-214 688,-173 533,-173"/>
<text text-anchor="start" x="541" y="-202" font-family="Helvetica,sans-Serif" font-size="10.00" fill="#000000">/mnt/hdd/fnky/C0de</text>
<text text-anchor="start" x="541" y="-191" font-family="Helvetica,sans-Serif" font-size="10.00" fill="#000000">/CAPSTONE/clean_build</text>
<text text-anchor="middle" x="610.5" y="-180" font-family="Helvetica,sans-Serif" font-size="10.00" fill="#000000">/src/BStateMachine/BState.cpp</text>
</a>
</g>
</g>
<!-- Node3&#45;&gt;Node13 -->
<g id="edge12" class="edge">
<title>Node3&#45;&gt;Node13</title>
<path fill="none" stroke="#191970" d="M543.4364,-249.8081C557.6274,-237.893 573.2684,-224.7605 585.8733,-214.1771"/>
<polygon fill="#191970" stroke="#191970" points="541.1381,-247.1677 535.7302,-256.2784 545.6393,-252.5286 541.1381,-247.1677"/>
</g>
<!-- Node5 -->
<g id="node3" class="node">
<title>Node5</title>
<g id="a_node3"><a xlink:href="NPC__Actor_8cpp.html" target="_top" xlink:title="/mnt/hdd/fnky/C0de\l/CAPSTONE/clean_build\l/src/Actors/NPC_Actor.cpp">
<polygon fill="none" stroke="#000000" points="209,-6 209,-47 346,-47 346,-6 209,-6"/>
<text text-anchor="start" x="217" y="-35" font-family="Helvetica,sans-Serif" font-size="10.00" fill="#000000">/mnt/hdd/fnky/C0de</text>
<text text-anchor="start" x="217" y="-24" font-family="Helvetica,sans-Serif" font-size="10.00" fill="#000000">/CAPSTONE/clean_build</text>
<text text-anchor="middle" x="277.5" y="-13" font-family="Helvetica,sans-Serif" font-size="10.00" fill="#000000">/src/Actors/NPC_Actor.cpp</text>
</a>
</g>
</g>
<!-- Node4&#45;&gt;Node5 -->
<g id="edge2" class="edge">
<title>Node4&#45;&gt;Node5</title>
<path fill="none" stroke="#191970" d="M439.0041,-85.9079C405.6148,-73.6259 365.4311,-58.8447 333.4991,-47.0988"/>
<polygon fill="#191970" stroke="#191970" points="438.0853,-89.2992 448.6788,-89.4667 440.5019,-82.7295 438.0853,-89.2992"/>
</g>
<!-- Node6 -->
<g id="node4" class="node">
<title>Node6</title>
<g id="a_node4"><a xlink:href="Projectile__Actor_8cpp.html" target="_top" xlink:title="/mnt/hdd/fnky/C0de\l/CAPSTONE/clean_build\l/src/Actors/Projectile\l_Actor.cpp">
<polygon fill="none" stroke="#000000" points="364,-.5 364,-52.5 491,-52.5 491,-.5 364,-.5"/>
<text text-anchor="start" x="372" y="-40.5" font-family="Helvetica,sans-Serif" font-size="10.00" fill="#000000">/mnt/hdd/fnky/C0de</text>
<text text-anchor="start" x="372" y="-29.5" font-family="Helvetica,sans-Serif" font-size="10.00" fill="#000000">/CAPSTONE/clean_build</text>
<text text-anchor="start" x="372" y="-18.5" font-family="Helvetica,sans-Serif" font-size="10.00" fill="#000000">/src/Actors/Projectile</text>
<text text-anchor="middle" x="427.5" y="-7.5" font-family="Helvetica,sans-Serif" font-size="10.00" fill="#000000">_Actor.cpp</text>
</a>
</g>
</g>
<!-- Node4&#45;&gt;Node6 -->
<g id="edge3" class="edge">
<title>Node4&#45;&gt;Node6</title>
<path fill="none" stroke="#191970" d="M478.4313,-81.7307C469.7373,-72.3027 460.0958,-61.8474 451.5614,-52.5925"/>
<polygon fill="#191970" stroke="#191970" points="476.1141,-84.3808 485.4663,-89.3595 481.2601,-79.6354 476.1141,-84.3808"/>
</g>
<!-- Node7 -->
<g id="node5" class="node">
<title>Node7</title>
<g id="a_node5"><a xlink:href="BStateMachine_8cpp.html" target="_top" xlink:title="/mnt/hdd/fnky/C0de\l/CAPSTONE/clean_build\l/src/BStateMachine/BStateMachine.cpp">
<polygon fill="none" stroke="#000000" points="0,-6 0,-47 191,-47 191,-6 0,-6"/>
<text text-anchor="start" x="8" y="-35" font-family="Helvetica,sans-Serif" font-size="10.00" fill="#000000">/mnt/hdd/fnky/C0de</text>
<text text-anchor="start" x="8" y="-24" font-family="Helvetica,sans-Serif" font-size="10.00" fill="#000000">/CAPSTONE/clean_build</text>
<text text-anchor="middle" x="95.5" y="-13" font-family="Helvetica,sans-Serif" font-size="10.00" fill="#000000">/src/BStateMachine/BStateMachine.cpp</text>
</a>
</g>
</g>
<!-- Node4&#45;&gt;Node7 -->
<g id="edge4" class="edge">
<title>Node4&#45;&gt;Node7</title>
<path fill="none" stroke="#191970" d="M422.701,-96.195C361.1207,-85.4435 274.7423,-69.5987 199.5,-53 191.1303,-51.1536 182.4105,-49.1151 173.7368,-47.0133"/>
<polygon fill="#191970" stroke="#191970" points="422.2969,-99.6771 432.7488,-97.9425 423.4964,-92.7807 422.2969,-99.6771"/>
</g>
<!-- Node8 -->
<g id="node6" class="node">
<title>Node8</title>
<g id="a_node6"><a xlink:href="ConditionInRange_8cpp.html" target="_top" xlink:title="/mnt/hdd/fnky/C0de\l/CAPSTONE/clean_build\l/src/BStateMachine/Condition\lInRange.cpp">
<polygon fill="none" stroke="#000000" points="509,-.5 509,-52.5 656,-52.5 656,-.5 509,-.5"/>
<text text-anchor="start" x="517" y="-40.5" font-family="Helvetica,sans-Serif" font-size="10.00" fill="#000000">/mnt/hdd/fnky/C0de</text>
<text text-anchor="start" x="517" y="-29.5" font-family="Helvetica,sans-Serif" font-size="10.00" fill="#000000">/CAPSTONE/clean_build</text>
<text text-anchor="start" x="517" y="-18.5" font-family="Helvetica,sans-Serif" font-size="10.00" fill="#000000">/src/BStateMachine/Condition</text>
<text text-anchor="middle" x="582.5" y="-7.5" font-family="Helvetica,sans-Serif" font-size="10.00" fill="#000000">InRange.cpp</text>
</a>
</g>
</g>
<!-- Node4&#45;&gt;Node8 -->
<g id="edge5" class="edge">
<title>Node4&#45;&gt;Node8</title>
<path fill="none" stroke="#191970" d="M530.6434,-82.0132C539.5188,-72.512 549.3944,-61.94 558.1261,-52.5925"/>
<polygon fill="#191970" stroke="#191970" points="528.0496,-79.6627 523.7809,-89.3595 533.1649,-84.4411 528.0496,-79.6627"/>
</g>
<!-- Node9 -->
<g id="node7" class="node">
<title>Node9</title>
<g id="a_node7"><a xlink:href="ConditionOutOfRange_8cpp.html" target="_top" xlink:title="/mnt/hdd/fnky/C0de\l/CAPSTONE/clean_build\l/src/BStateMachine/Condition\lOutOfRange.cpp">
<polygon fill="none" stroke="#000000" points="674,-.5 674,-52.5 821,-52.5 821,-.5 674,-.5"/>
<text text-anchor="start" x="682" y="-40.5" font-family="Helvetica,sans-Serif" font-size="10.00" fill="#000000">/mnt/hdd/fnky/C0de</text>
<text text-anchor="start" x="682" y="-29.5" font-family="Helvetica,sans-Serif" font-size="10.00" fill="#000000">/CAPSTONE/clean_build</text>
<text text-anchor="start" x="682" y="-18.5" font-family="Helvetica,sans-Serif" font-size="10.00" fill="#000000">/src/BStateMachine/Condition</text>
<text text-anchor="middle" x="747.5" y="-7.5" font-family="Helvetica,sans-Serif" font-size="10.00" fill="#000000">OutOfRange.cpp</text>
</a>
</g>
</g>
<!-- Node4&#45;&gt;Node9 -->
<g id="edge6" class="edge">
<title>Node4&#45;&gt;Node9</title>
<path fill="none" stroke="#191970" d="M573.7502,-86.2041C604.9706,-75.4762 641.8767,-62.7944 673.6274,-51.8842"/>
<polygon fill="#191970" stroke="#191970" points="572.5755,-82.9068 564.2557,-89.4667 574.8504,-89.5269 572.5755,-82.9068"/>
</g>
<!-- Node10 -->
<g id="node8" class="node">
<title>Node10</title>
<g id="a_node8"><a xlink:href="LoadingGameObjects_8cpp.html" target="_top" xlink:title="/mnt/hdd/fnky/C0de\l/CAPSTONE/clean_build\l/src/Loaders/LoadingGameObjects.cpp">
<polygon fill="none" stroke="#000000" points="839.5,-6 839.5,-47 1025.5,-47 1025.5,-6 839.5,-6"/>
<text text-anchor="start" x="847.5" y="-35" font-family="Helvetica,sans-Serif" font-size="10.00" fill="#000000">/mnt/hdd/fnky/C0de</text>
<text text-anchor="start" x="847.5" y="-24" font-family="Helvetica,sans-Serif" font-size="10.00" fill="#000000">/CAPSTONE/clean_build</text>
<text text-anchor="middle" x="932.5" y="-13" font-family="Helvetica,sans-Serif" font-size="10.00" fill="#000000">/src/Loaders/LoadingGameObjects.cpp</text>
</a>
</g>
</g>
<!-- Node4&#45;&gt;Node10 -->
<g id="edge7" class="edge">
<title>Node4&#45;&gt;Node10</title>
<path fill="none" stroke="#191970" d="M586.0008,-97.6305C652.1616,-87.1383 747.7177,-70.9597 830.5,-53 838.9037,-51.1768 847.6598,-49.1298 856.3555,-47.0027"/>
<polygon fill="#191970" stroke="#191970" points="585.382,-94.1848 576.0499,-99.2009 586.4733,-101.0992 585.382,-94.1848"/>
</g>
<!-- Node11 -->
<g id="node9" class="node">
<title>Node11</title>
<g id="a_node9"><a xlink:href="game__play__state_8cpp.html" target="_top" xlink:title="/mnt/hdd/fnky/C0de\l/CAPSTONE/clean_build\l/src/States/game_play\l_state.cpp">
<polygon fill="none" stroke="#000000" points="1044,-.5 1044,-52.5 1171,-52.5 1171,-.5 1044,-.5"/>
<text text-anchor="start" x="1052" y="-40.5" font-family="Helvetica,sans-Serif" font-size="10.00" fill="#000000">/mnt/hdd/fnky/C0de</text>
<text text-anchor="start" x="1052" y="-29.5" font-family="Helvetica,sans-Serif" font-size="10.00" fill="#000000">/CAPSTONE/clean_build</text>
<text text-anchor="start" x="1052" y="-18.5" font-family="Helvetica,sans-Serif" font-size="10.00" fill="#000000">/src/States/game_play</text>
<text text-anchor="middle" x="1107.5" y="-7.5" font-family="Helvetica,sans-Serif" font-size="10.00" fill="#000000">_state.cpp</text>
</a>
</g>
</g>
<!-- Node4&#45;&gt;Node11 -->
<g id="edge8" class="edge">
<title>Node4&#45;&gt;Node11</title>
<path fill="none" stroke="#191970" d="M586.3446,-107.3053C691.3452,-102.4621 878.5392,-89.1354 1034.5,-53 1037.521,-52.3 1040.5885,-51.512 1043.6696,-50.6572"/>
<polygon fill="#191970" stroke="#191970" points="585.9666,-103.8186 576.1328,-107.7615 586.279,-110.8117 585.9666,-103.8186"/>
</g>
<!-- Node12&#45;&gt;Node4 -->
<g id="edge10" class="edge">
<title>Node12&#45;&gt;Node4</title>
<path fill="none" stroke="#191970" d="M448.9013,-160.4618C460.0289,-150.3624 471.9407,-139.5511 481.8728,-130.5367"/>
<polygon fill="#191970" stroke="#191970" points="446.4096,-157.9967 441.357,-167.3092 451.1141,-163.1801 446.4096,-157.9967"/>
</g>
<!-- Node12&#45;&gt;Node7 -->
<g id="edge11" class="edge">
<title>Node12&#45;&gt;Node7</title>
<path fill="none" stroke="#191970" d="M353.8202,-162.5867C289.9543,-128.9412 189.6258,-76.0868 134.6884,-47.145"/>
<polygon fill="#191970" stroke="#191970" points="352.49,-165.8419 362.9688,-167.4063 355.7527,-159.6487 352.49,-165.8419"/>
</g>
</g>
</svg>
