<?xml version="1.0" encoding="UTF-8" standalone="no"?>
<!DOCTYPE svg PUBLIC "-//W3C//DTD SVG 1.1//EN"
 "http://www.w3.org/Graphics/SVG/1.1/DTD/svg11.dtd">
<!-- Generated by graphviz version 2.40.1 (20161225.0304)
 -->
<!-- Title: Condition Pages: 1 -->
<svg width="264pt" height="193pt"
 viewBox="0.00 0.00 264.00 193.00" xmlns="http://www.w3.org/2000/svg" xmlns:xlink="http://www.w3.org/1999/xlink">
<g id="graph0" class="graph" transform="scale(1 1) rotate(0) translate(4 189)">
<title>Condition</title>
<!-- Node0 -->
<g id="node1" class="node">
<title>Node0</title>
<polygon fill="#bfbfbf" stroke="#000000" points="83.5,-105.5 83.5,-184.5 162.5,-184.5 162.5,-105.5 83.5,-105.5"/>
<text text-anchor="middle" x="123" y="-172.5" font-family="Helvetica,sans-Serif" font-size="10.00" fill="#000000">Condition</text>
<polyline fill="none" stroke="#000000" points="83.5,-165.5 162.5,-165.5 "/>
<text text-anchor="start" x="91.5" y="-153.5" font-family="Helvetica,sans-Serif" font-size="10.00" fill="#000000"># actor</text>
<polyline fill="none" stroke="#000000" points="83.5,-146.5 162.5,-146.5 "/>
<text text-anchor="start" x="91.5" y="-134.5" font-family="Helvetica,sans-Serif" font-size="10.00" fill="#000000">+ Condition()</text>
<text text-anchor="start" x="91.5" y="-123.5" font-family="Helvetica,sans-Serif" font-size="10.00" fill="#000000">+ ~Condition()</text>
<text text-anchor="start" x="91.5" y="-112.5" font-family="Helvetica,sans-Serif" font-size="10.00" fill="#000000">+ test()</text>
</g>
<!-- Node1 -->
<g id="node2" class="node">
<title>Node1</title>
<g id="a_node2"><a xlink:href="classConditionInRange.html" target="_top" xlink:title="{ConditionInRange\n|&#45; threshold\l|+ ConditionInRange()\l+ test()\l}">
<polygon fill="none" stroke="#000000" points="0,-.5 0,-68.5 110,-68.5 110,-.5 0,-.5"/>
<text text-anchor="middle" x="55" y="-56.5" font-family="Helvetica,sans-Serif" font-size="10.00" fill="#000000">ConditionInRange</text>
<polyline fill="none" stroke="#000000" points="0,-49.5 110,-49.5 "/>
<text text-anchor="start" x="8" y="-37.5" font-family="Helvetica,sans-Serif" font-size="10.00" fill="#000000">&#45; threshold</text>
<polyline fill="none" stroke="#000000" points="0,-30.5 110,-30.5 "/>
<text text-anchor="start" x="8" y="-18.5" font-family="Helvetica,sans-Serif" font-size="10.00" fill="#000000">+ ConditionInRange()</text>
<text text-anchor="start" x="8" y="-7.5" font-family="Helvetica,sans-Serif" font-size="10.00" fill="#000000">+ test()</text>
</a>
</g>
</g>
<!-- Node0&#45;&gt;Node1 -->
<g id="edge1" class="edge">
<title>Node0&#45;&gt;Node1</title>
<path fill="none" stroke="#191970" d="M93.355,-96.8269C87.5224,-87.349 81.516,-77.5885 76.0376,-68.6861"/>
<polygon fill="none" stroke="#191970" points="90.4207,-98.7368 98.6425,-105.4191 96.3823,-95.0681 90.4207,-98.7368"/>
</g>
<!-- Node2 -->
<g id="node3" class="node">
<title>Node2</title>
<g id="a_node3"><a xlink:href="classConditionOutOfRange.html" target="_top" xlink:title="{ConditionOutOfRange\n|&#45; threshold\l|+ ConditionOutOfRange()\l+ test()\l}">
<polygon fill="none" stroke="#000000" points="128,-.5 128,-68.5 256,-68.5 256,-.5 128,-.5"/>
<text text-anchor="middle" x="192" y="-56.5" font-family="Helvetica,sans-Serif" font-size="10.00" fill="#000000">ConditionOutOfRange</text>
<polyline fill="none" stroke="#000000" points="128,-49.5 256,-49.5 "/>
<text text-anchor="start" x="136" y="-37.5" font-family="Helvetica,sans-Serif" font-size="10.00" fill="#000000">&#45; threshold</text>
<polyline fill="none" stroke="#000000" points="128,-30.5 256,-30.5 "/>
<text text-anchor="start" x="136" y="-18.5" font-family="Helvetica,sans-Serif" font-size="10.00" fill="#000000">+ ConditionOutOfRange()</text>
<text text-anchor="start" x="136" y="-7.5" font-family="Helvetica,sans-Serif" font-size="10.00" fill="#000000">+ test()</text>
</a>
</g>
</g>
<!-- Node0&#45;&gt;Node2 -->
<g id="edge2" class="edge">
<title>Node0&#45;&gt;Node2</title>
<path fill="none" stroke="#191970" d="M153.0809,-96.8269C158.9993,-87.349 165.0941,-77.5885 170.653,-68.6861"/>
<polygon fill="none" stroke="#191970" points="150.0435,-95.0831 147.7157,-105.4191 155.981,-98.7907 150.0435,-95.0831"/>
</g>
</g>
</svg>
