<?xml version="1.0" encoding="UTF-8" standalone="no"?>
<!DOCTYPE svg PUBLIC "-//W3C//DTD SVG 1.1//EN"
 "http://www.w3.org/Graphics/SVG/1.1/DTD/svg11.dtd">
<!-- Generated by graphviz version 2.40.1 (20161225.0304)
 -->
<!-- Title: ConditionOutOfRange Pages: 1 -->
<svg width="794pt" height="832pt"
 viewBox="0.00 0.00 794.08 832.00" xmlns="http://www.w3.org/2000/svg" xmlns:xlink="http://www.w3.org/1999/xlink">
<g id="graph0" class="graph" transform="scale(1 1) rotate(0) translate(4 828)">
<title>ConditionOutOfRange</title>
<!-- Node2 -->
<g id="node1" class="node">
<title>Node2</title>
<polygon fill="#bfbfbf" stroke="#000000" points="127.0831,-474.5 127.0831,-542.5 255.0831,-542.5 255.0831,-474.5 127.0831,-474.5"/>
<text text-anchor="middle" x="191.0831" y="-530.5" font-family="Helvetica,sans-Serif" font-size="10.00" fill="#000000">ConditionOutOfRange</text>
<polyline fill="none" stroke="#000000" points="127.0831,-523.5 255.0831,-523.5 "/>
<text text-anchor="start" x="135.0831" y="-511.5" font-family="Helvetica,sans-Serif" font-size="10.00" fill="#000000">&#45; threshold</text>
<polyline fill="none" stroke="#000000" points="127.0831,-504.5 255.0831,-504.5 "/>
<text text-anchor="start" x="135.0831" y="-492.5" font-family="Helvetica,sans-Serif" font-size="10.00" fill="#000000">+ ConditionOutOfRange()</text>
<text text-anchor="start" x="135.0831" y="-481.5" font-family="Helvetica,sans-Serif" font-size="10.00" fill="#000000">+ test()</text>
</g>
<!-- Node3 -->
<g id="node2" class="node">
<title>Node3</title>
<g id="a_node2"><a xlink:href="classCondition.html" target="_top" xlink:title="{Condition\n||+ Condition()\l+ ~Condition()\l+ test()\l}">
<polygon fill="none" stroke="#000000" points="201.5831,-695 201.5831,-774 280.5831,-774 280.5831,-695 201.5831,-695"/>
<text text-anchor="middle" x="241.0831" y="-762" font-family="Helvetica,sans-Serif" font-size="10.00" fill="#000000">Condition</text>
<polyline fill="none" stroke="#000000" points="201.5831,-755 280.5831,-755 "/>
<text text-anchor="middle" x="241.0831" y="-743" font-family="Helvetica,sans-Serif" font-size="10.00" fill="#000000"> </text>
<polyline fill="none" stroke="#000000" points="201.5831,-736 280.5831,-736 "/>
<text text-anchor="start" x="209.5831" y="-724" font-family="Helvetica,sans-Serif" font-size="10.00" fill="#000000">+ Condition()</text>
<text text-anchor="start" x="209.5831" y="-713" font-family="Helvetica,sans-Serif" font-size="10.00" fill="#000000">+ ~Condition()</text>
<text text-anchor="start" x="209.5831" y="-702" font-family="Helvetica,sans-Serif" font-size="10.00" fill="#000000">+ test()</text>
</a>
</g>
</g>
<!-- Node3&#45;&gt;Node2 -->
<g id="edge1" class="edge">
<title>Node3&#45;&gt;Node2</title>
<path fill="none" stroke="#191970" d="M230.1028,-684.8691C220.5553,-641.7144 206.9765,-580.3378 198.6131,-542.5356"/>
<polygon fill="none" stroke="#191970" points="226.739,-685.8674 232.3166,-694.8752 233.5737,-684.3552 226.739,-685.8674"/>
</g>
<!-- Node4 -->
<g id="node3" class="node">
<title>Node4</title>
<g id="a_node3"><a xlink:href="classNPC__Actor.html" target="_top" xlink:title="{NPC_Actor\n|&#45; health\l&#45; npc_collision\l&#45; isWalking\l&#45; isRunning\l&#45; isAttacking\l|+ NPC_Actor()\l+ ~NPC_Actor()\l+ InitalizeActor()\l+ InitalizeActor()\l+ onCreate()\l+ onDestroy()\l+ basic_update()\l+ update()\l+ input()\l+ draw()\land 14 more...\l}">
<polygon fill="none" stroke="#000000" points="389.5831,-149.5 389.5831,-360.5 478.5831,-360.5 478.5831,-149.5 389.5831,-149.5"/>
<text text-anchor="middle" x="434.0831" y="-348.5" font-family="Helvetica,sans-Serif" font-size="10.00" fill="#000000">NPC_Actor</text>
<polyline fill="none" stroke="#000000" points="389.5831,-341.5 478.5831,-341.5 "/>
<text text-anchor="start" x="397.5831" y="-329.5" font-family="Helvetica,sans-Serif" font-size="10.00" fill="#000000">&#45; health</text>
<text text-anchor="start" x="397.5831" y="-318.5" font-family="Helvetica,sans-Serif" font-size="10.00" fill="#000000">&#45; npc_collision</text>
<text text-anchor="start" x="397.5831" y="-307.5" font-family="Helvetica,sans-Serif" font-size="10.00" fill="#000000">&#45; isWalking</text>
<text text-anchor="start" x="397.5831" y="-296.5" font-family="Helvetica,sans-Serif" font-size="10.00" fill="#000000">&#45; isRunning</text>
<text text-anchor="start" x="397.5831" y="-285.5" font-family="Helvetica,sans-Serif" font-size="10.00" fill="#000000">&#45; isAttacking</text>
<polyline fill="none" stroke="#000000" points="389.5831,-278.5 478.5831,-278.5 "/>
<text text-anchor="start" x="397.5831" y="-266.5" font-family="Helvetica,sans-Serif" font-size="10.00" fill="#000000">+ NPC_Actor()</text>
<text text-anchor="start" x="397.5831" y="-255.5" font-family="Helvetica,sans-Serif" font-size="10.00" fill="#000000">+ ~NPC_Actor()</text>
<text text-anchor="start" x="397.5831" y="-244.5" font-family="Helvetica,sans-Serif" font-size="10.00" fill="#000000">+ InitalizeActor()</text>
<text text-anchor="start" x="397.5831" y="-233.5" font-family="Helvetica,sans-Serif" font-size="10.00" fill="#000000">+ InitalizeActor()</text>
<text text-anchor="start" x="397.5831" y="-222.5" font-family="Helvetica,sans-Serif" font-size="10.00" fill="#000000">+ onCreate()</text>
<text text-anchor="start" x="397.5831" y="-211.5" font-family="Helvetica,sans-Serif" font-size="10.00" fill="#000000">+ onDestroy()</text>
<text text-anchor="start" x="397.5831" y="-200.5" font-family="Helvetica,sans-Serif" font-size="10.00" fill="#000000">+ basic_update()</text>
<text text-anchor="start" x="397.5831" y="-189.5" font-family="Helvetica,sans-Serif" font-size="10.00" fill="#000000">+ update()</text>
<text text-anchor="start" x="397.5831" y="-178.5" font-family="Helvetica,sans-Serif" font-size="10.00" fill="#000000">+ input()</text>
<text text-anchor="start" x="397.5831" y="-167.5" font-family="Helvetica,sans-Serif" font-size="10.00" fill="#000000">+ draw()</text>
<text text-anchor="start" x="397.5831" y="-156.5" font-family="Helvetica,sans-Serif" font-size="10.00" fill="#000000">and 14 more...</text>
</a>
</g>
</g>
<!-- Node3&#45;&gt;Node4 -->
<g id="edge13" class="edge">
<title>Node3&#45;&gt;Node4</title>
<path fill="none" stroke="#404040" d="M247.9555,-694.8697C262.2367,-612.9422 294.2789,-431.4916 300.0831,-419 319.67,-376.8457 352.5905,-336.3307 380.8988,-306.1163"/>
<polygon fill="none" stroke="#404040" points="381.2346,-305.764 382.4806,-298.6613 389.5161,-297.0796 388.2702,-304.1823 381.2346,-305.764"/>
<text text-anchor="middle" x="338.5831" y="-522.5" font-family="Helvetica,sans-Serif" font-size="10.00" fill="#000000"> &#45;outAttackRange</text>
<text text-anchor="middle" x="338.5831" y="-511.5" font-family="Helvetica,sans-Serif" font-size="10.00" fill="#000000">&#45;ifInRange</text>
<text text-anchor="middle" x="338.5831" y="-500.5" font-family="Helvetica,sans-Serif" font-size="10.00" fill="#000000">&#45;outOfRange</text>
<text text-anchor="middle" x="338.5831" y="-489.5" font-family="Helvetica,sans-Serif" font-size="10.00" fill="#000000">&#45;inAttackRange</text>
</g>
<!-- Node9 -->
<g id="node8" class="node">
<title>Node9</title>
<g id="a_node8"><a xlink:href="classTransition.html" target="_top" xlink:title="{Transition\n||+ Transition()\l+ ~Transition()\l+ isTriggered()\l+ getTargetState()\l}">
<polygon fill="none" stroke="#000000" points="386.0831,-463.5 386.0831,-553.5 482.0831,-553.5 482.0831,-463.5 386.0831,-463.5"/>
<text text-anchor="middle" x="434.0831" y="-541.5" font-family="Helvetica,sans-Serif" font-size="10.00" fill="#000000">Transition</text>
<polyline fill="none" stroke="#000000" points="386.0831,-534.5 482.0831,-534.5 "/>
<text text-anchor="middle" x="434.0831" y="-522.5" font-family="Helvetica,sans-Serif" font-size="10.00" fill="#000000"> </text>
<polyline fill="none" stroke="#000000" points="386.0831,-515.5 482.0831,-515.5 "/>
<text text-anchor="start" x="394.0831" y="-503.5" font-family="Helvetica,sans-Serif" font-size="10.00" fill="#000000">+ Transition()</text>
<text text-anchor="start" x="394.0831" y="-492.5" font-family="Helvetica,sans-Serif" font-size="10.00" fill="#000000">+ ~Transition()</text>
<text text-anchor="start" x="394.0831" y="-481.5" font-family="Helvetica,sans-Serif" font-size="10.00" fill="#000000">+ isTriggered()</text>
<text text-anchor="start" x="394.0831" y="-470.5" font-family="Helvetica,sans-Serif" font-size="10.00" fill="#000000">+ getTargetState()</text>
</a>
</g>
</g>
<!-- Node3&#45;&gt;Node9 -->
<g id="edge12" class="edge">
<title>Node3&#45;&gt;Node9</title>
<path fill="none" stroke="#404040" d="M280.6369,-696.5993C307.5684,-670.0161 343.3941,-633.0924 372.0831,-598 380.8738,-587.2472 389.7258,-575.294 397.8798,-563.7152"/>
<polygon fill="none" stroke="#404040" points="398.0051,-563.5346 398.1397,-556.3248 404.8467,-553.6759 404.7121,-560.8858 398.0051,-563.5346"/>
<text text-anchor="middle" x="378.0831" y="-619" font-family="Helvetica,sans-Serif" font-size="10.00" fill="#000000"> &#45;condition</text>
</g>
<!-- Node4&#45;&gt;Node3 -->
<g id="edge2" class="edge">
<title>Node4&#45;&gt;Node3</title>
<path fill="none" stroke="#404040" d="M389.347,-257.7718C302.6241,-265.8415 112.981,-297.2523 31.0831,-419 -13.321,-485.0103 -6.8629,-528.0773 31.0831,-598 64.5636,-659.6941 139.3203,-697.8582 189.9857,-717.6362"/>
<polygon fill="none" stroke="#404040" points="190.1284,-717.69 197.1542,-716.0654 201.356,-721.9258 194.3303,-723.5504 190.1284,-717.69"/>
<text text-anchor="middle" x="46.5831" y="-506" font-family="Helvetica,sans-Serif" font-size="10.00" fill="#000000"> #actor</text>
</g>
<!-- Node8 -->
<g id="node7" class="node">
<title>Node8</title>
<g id="a_node7"><a xlink:href="classBStateMachine.html" target="_top" xlink:title="{BStateMachine\n||+ BStateMachine()\l+ ~BStateMachine()\l+ setInitialState()\l+ update()\l+ getCurrentStateName()\l}">
<polygon fill="none" stroke="#000000" points="421.5831,-.5 421.5831,-101.5 548.5831,-101.5 548.5831,-.5 421.5831,-.5"/>
<text text-anchor="middle" x="485.0831" y="-89.5" font-family="Helvetica,sans-Serif" font-size="10.00" fill="#000000">BStateMachine</text>
<polyline fill="none" stroke="#000000" points="421.5831,-82.5 548.5831,-82.5 "/>
<text text-anchor="middle" x="485.0831" y="-70.5" font-family="Helvetica,sans-Serif" font-size="10.00" fill="#000000"> </text>
<polyline fill="none" stroke="#000000" points="421.5831,-63.5 548.5831,-63.5 "/>
<text text-anchor="start" x="429.5831" y="-51.5" font-family="Helvetica,sans-Serif" font-size="10.00" fill="#000000">+ BStateMachine()</text>
<text text-anchor="start" x="429.5831" y="-40.5" font-family="Helvetica,sans-Serif" font-size="10.00" fill="#000000">+ ~BStateMachine()</text>
<text text-anchor="start" x="429.5831" y="-29.5" font-family="Helvetica,sans-Serif" font-size="10.00" fill="#000000">+ setInitialState()</text>
<text text-anchor="start" x="429.5831" y="-18.5" font-family="Helvetica,sans-Serif" font-size="10.00" fill="#000000">+ update()</text>
<text text-anchor="start" x="429.5831" y="-7.5" font-family="Helvetica,sans-Serif" font-size="10.00" fill="#000000">+ getCurrentStateName()</text>
</a>
</g>
</g>
<!-- Node4&#45;&gt;Node8 -->
<g id="edge9" class="edge">
<title>Node4&#45;&gt;Node8</title>
<path fill="none" stroke="#404040" d="M426.6065,-149.279C427.8875,-139.2411 429.9594,-129.3352 433.0831,-120 433.934,-117.4573 434.9195,-114.9333 436.0168,-112.4378"/>
<polygon fill="none" stroke="#404040" points="436.0332,-112.4054 435.1873,-105.244 441.4724,-101.7088 442.3183,-108.8701 436.0332,-112.4054"/>
<text text-anchor="middle" x="447.0831" y="-123" font-family="Helvetica,sans-Serif" font-size="10.00" fill="#000000"> &#45;actor</text>
</g>
<!-- Node5 -->
<g id="node4" class="node">
<title>Node5</title>
<g id="a_node4"><a xlink:href="classActor.html" target="_top" xlink:title="{Actor\n|&#45; components\l|+ Actor()\l+ ~Actor()\l+ onCreate()\l+ onDestroy()\l+ update()\l+ draw()\l+ AddComponent()\l+ AddComponent()\l+ GetComponent()\l+ RemoveComponent()\l+ RemoveAllComponents()\l+ ListComponents()\l}">
<polygon fill="none" stroke="#000000" points="500.5831,-419.5 500.5831,-597.5 635.5831,-597.5 635.5831,-419.5 500.5831,-419.5"/>
<text text-anchor="middle" x="568.0831" y="-585.5" font-family="Helvetica,sans-Serif" font-size="10.00" fill="#000000">Actor</text>
<polyline fill="none" stroke="#000000" points="500.5831,-578.5 635.5831,-578.5 "/>
<text text-anchor="start" x="508.5831" y="-566.5" font-family="Helvetica,sans-Serif" font-size="10.00" fill="#000000">&#45; components</text>
<polyline fill="none" stroke="#000000" points="500.5831,-559.5 635.5831,-559.5 "/>
<text text-anchor="start" x="508.5831" y="-547.5" font-family="Helvetica,sans-Serif" font-size="10.00" fill="#000000">+ Actor()</text>
<text text-anchor="start" x="508.5831" y="-536.5" font-family="Helvetica,sans-Serif" font-size="10.00" fill="#000000">+ ~Actor()</text>
<text text-anchor="start" x="508.5831" y="-525.5" font-family="Helvetica,sans-Serif" font-size="10.00" fill="#000000">+ onCreate()</text>
<text text-anchor="start" x="508.5831" y="-514.5" font-family="Helvetica,sans-Serif" font-size="10.00" fill="#000000">+ onDestroy()</text>
<text text-anchor="start" x="508.5831" y="-503.5" font-family="Helvetica,sans-Serif" font-size="10.00" fill="#000000">+ update()</text>
<text text-anchor="start" x="508.5831" y="-492.5" font-family="Helvetica,sans-Serif" font-size="10.00" fill="#000000">+ draw()</text>
<text text-anchor="start" x="508.5831" y="-481.5" font-family="Helvetica,sans-Serif" font-size="10.00" fill="#000000">+ AddComponent()</text>
<text text-anchor="start" x="508.5831" y="-470.5" font-family="Helvetica,sans-Serif" font-size="10.00" fill="#000000">+ AddComponent()</text>
<text text-anchor="start" x="508.5831" y="-459.5" font-family="Helvetica,sans-Serif" font-size="10.00" fill="#000000">+ GetComponent()</text>
<text text-anchor="start" x="508.5831" y="-448.5" font-family="Helvetica,sans-Serif" font-size="10.00" fill="#000000">+ RemoveComponent()</text>
<text text-anchor="start" x="508.5831" y="-437.5" font-family="Helvetica,sans-Serif" font-size="10.00" fill="#000000">+ RemoveAllComponents()</text>
<text text-anchor="start" x="508.5831" y="-426.5" font-family="Helvetica,sans-Serif" font-size="10.00" fill="#000000">+ ListComponents()</text>
</a>
</g>
</g>
<!-- Node5&#45;&gt;Node4 -->
<g id="edge3" class="edge">
<title>Node5&#45;&gt;Node4</title>
<path fill="none" stroke="#191970" d="M517.5325,-410.3391C512.0078,-399.7472 506.445,-389.1398 501.0831,-379 493.8769,-365.3723 486.1598,-350.9423 478.6198,-336.9302"/>
<polygon fill="none" stroke="#191970" points="514.4354,-411.9697 522.159,-419.222 520.6438,-408.7361 514.4354,-411.9697"/>
</g>
<!-- Node6 -->
<g id="node5" class="node">
<title>Node6</title>
<g id="a_node5"><a xlink:href="classComponent.html" target="_top" xlink:title="{Component\n|# isCreated\l|+ Component()\l+ ~Component()\l+ onCreate()\l+ onDestroy()\l+ update()\l+ draw()\l+ Component()\l+ ~Component()\l+ onCreate()\l+ onDestroy()\l+ update()\l+ draw()\l}">
<polygon fill="none" stroke="#000000" points="477.0831,-645.5 477.0831,-823.5 565.0831,-823.5 565.0831,-645.5 477.0831,-645.5"/>
<text text-anchor="middle" x="521.0831" y="-811.5" font-family="Helvetica,sans-Serif" font-size="10.00" fill="#000000">Component</text>
<polyline fill="none" stroke="#000000" points="477.0831,-804.5 565.0831,-804.5 "/>
<text text-anchor="start" x="485.0831" y="-792.5" font-family="Helvetica,sans-Serif" font-size="10.00" fill="#000000"># isCreated</text>
<polyline fill="none" stroke="#000000" points="477.0831,-785.5 565.0831,-785.5 "/>
<text text-anchor="start" x="485.0831" y="-773.5" font-family="Helvetica,sans-Serif" font-size="10.00" fill="#000000">+ Component()</text>
<text text-anchor="start" x="485.0831" y="-762.5" font-family="Helvetica,sans-Serif" font-size="10.00" fill="#000000">+ ~Component()</text>
<text text-anchor="start" x="485.0831" y="-751.5" font-family="Helvetica,sans-Serif" font-size="10.00" fill="#000000">+ onCreate()</text>
<text text-anchor="start" x="485.0831" y="-740.5" font-family="Helvetica,sans-Serif" font-size="10.00" fill="#000000">+ onDestroy()</text>
<text text-anchor="start" x="485.0831" y="-729.5" font-family="Helvetica,sans-Serif" font-size="10.00" fill="#000000">+ update()</text>
<text text-anchor="start" x="485.0831" y="-718.5" font-family="Helvetica,sans-Serif" font-size="10.00" fill="#000000">+ draw()</text>
<text text-anchor="start" x="485.0831" y="-707.5" font-family="Helvetica,sans-Serif" font-size="10.00" fill="#000000">+ Component()</text>
<text text-anchor="start" x="485.0831" y="-696.5" font-family="Helvetica,sans-Serif" font-size="10.00" fill="#000000">+ ~Component()</text>
<text text-anchor="start" x="485.0831" y="-685.5" font-family="Helvetica,sans-Serif" font-size="10.00" fill="#000000">+ onCreate()</text>
<text text-anchor="start" x="485.0831" y="-674.5" font-family="Helvetica,sans-Serif" font-size="10.00" fill="#000000">+ onDestroy()</text>
<text text-anchor="start" x="485.0831" y="-663.5" font-family="Helvetica,sans-Serif" font-size="10.00" fill="#000000">+ update()</text>
<text text-anchor="start" x="485.0831" y="-652.5" font-family="Helvetica,sans-Serif" font-size="10.00" fill="#000000">+ draw()</text>
</a>
</g>
</g>
<!-- Node6&#45;&gt;Node5 -->
<g id="edge4" class="edge">
<title>Node6&#45;&gt;Node5</title>
<path fill="none" stroke="#191970" d="M541.7361,-635.1902C544.342,-622.6593 546.9954,-609.9005 549.5655,-597.5424"/>
<polygon fill="none" stroke="#191970" points="538.2683,-634.6756 539.6588,-645.1788 545.1216,-636.1009 538.2683,-634.6756"/>
</g>
<!-- Node6&#45;&gt;Node6 -->
<g id="edge5" class="edge">
<title>Node6&#45;&gt;Node6</title>
<path fill="none" stroke="#404040" d="M565.1075,-755.0847C575.4517,-753.3928 583.0831,-746.5313 583.0831,-734.5 583.0831,-727.5444 580.5325,-722.3167 576.3816,-718.8169"/>
<polygon fill="none" stroke="#404040" points="576.1125,-718.6999 569.0151,-719.9759 565.1075,-713.9153 572.2049,-712.6393 576.1125,-718.6999"/>
<text text-anchor="middle" x="601.0831" y="-732" font-family="Helvetica,sans-Serif" font-size="10.00" fill="#000000"> #parent</text>
</g>
<!-- Node7 -->
<g id="node6" class="node">
<title>Node7</title>
<g id="a_node6"><a xlink:href="classBState.html" target="_top" xlink:title="{BState\n|&#45; transitions\l&#45; Stransitions\l&#45; name\l|+ BState()\l+ ~BState()\l+ getTransitions()\l+ getSTransitions()\l+ addTransition()\l+ addTransition()\l+ getName()\l}">
<polygon fill="none" stroke="#000000" points="637.0831,-662 637.0831,-807 737.0831,-807 737.0831,-662 637.0831,-662"/>
<text text-anchor="middle" x="687.0831" y="-795" font-family="Helvetica,sans-Serif" font-size="10.00" fill="#000000">BState</text>
<polyline fill="none" stroke="#000000" points="637.0831,-788 737.0831,-788 "/>
<text text-anchor="start" x="645.0831" y="-776" font-family="Helvetica,sans-Serif" font-size="10.00" fill="#000000">&#45; transitions</text>
<text text-anchor="start" x="645.0831" y="-765" font-family="Helvetica,sans-Serif" font-size="10.00" fill="#000000">&#45; Stransitions</text>
<text text-anchor="start" x="645.0831" y="-754" font-family="Helvetica,sans-Serif" font-size="10.00" fill="#000000">&#45; name</text>
<polyline fill="none" stroke="#000000" points="637.0831,-747 737.0831,-747 "/>
<text text-anchor="start" x="645.0831" y="-735" font-family="Helvetica,sans-Serif" font-size="10.00" fill="#000000">+ BState()</text>
<text text-anchor="start" x="645.0831" y="-724" font-family="Helvetica,sans-Serif" font-size="10.00" fill="#000000">+ ~BState()</text>
<text text-anchor="start" x="645.0831" y="-713" font-family="Helvetica,sans-Serif" font-size="10.00" fill="#000000">+ getTransitions()</text>
<text text-anchor="start" x="645.0831" y="-702" font-family="Helvetica,sans-Serif" font-size="10.00" fill="#000000">+ getSTransitions()</text>
<text text-anchor="start" x="645.0831" y="-691" font-family="Helvetica,sans-Serif" font-size="10.00" fill="#000000">+ addTransition()</text>
<text text-anchor="start" x="645.0831" y="-680" font-family="Helvetica,sans-Serif" font-size="10.00" fill="#000000">+ addTransition()</text>
<text text-anchor="start" x="645.0831" y="-669" font-family="Helvetica,sans-Serif" font-size="10.00" fill="#000000">+ getName()</text>
</a>
</g>
</g>
<!-- Node7&#45;&gt;Node4 -->
<g id="edge6" class="edge">
<title>Node7&#45;&gt;Node4</title>
<path fill="none" stroke="#404040" d="M683.7571,-661.8421C678.9959,-581.8153 668.1265,-459.1332 645.0831,-419 609.2156,-356.5318 539.2451,-309.5132 489.7295,-282.1812"/>
<polygon fill="none" stroke="#404040" points="489.4294,-282.0192 482.2495,-282.6893 478.8694,-276.3194 486.0493,-275.6493 489.4294,-282.0192"/>
<text text-anchor="middle" x="704.0831" y="-517" font-family="Helvetica,sans-Serif" font-size="10.00" fill="#000000"> &#45;attack</text>
<text text-anchor="middle" x="704.0831" y="-506" font-family="Helvetica,sans-Serif" font-size="10.00" fill="#000000">&#45;seekPlayer</text>
<text text-anchor="middle" x="704.0831" y="-495" font-family="Helvetica,sans-Serif" font-size="10.00" fill="#000000">&#45;wander</text>
</g>
<!-- Node7&#45;&gt;Node8 -->
<g id="edge8" class="edge">
<title>Node7&#45;&gt;Node8</title>
<path fill="none" stroke="#404040" d="M717.0281,-661.9879C724.0542,-641.639 730.5257,-619.2589 734.0831,-598 747.2134,-519.5355 757.0193,-495.1776 734.0831,-419 697.3369,-296.955 604.298,-179.153 542.9392,-110.9575"/>
<polygon fill="none" stroke="#404040" points="542.5697,-110.5508 535.5745,-108.7995 534.5006,-101.6688 541.4958,-103.4201 542.5697,-110.5508"/>
<text text-anchor="middle" x="756.0831" y="-393" font-family="Helvetica,sans-Serif" font-size="10.00" fill="#000000"> &#45;currentState</text>
<text text-anchor="middle" x="756.0831" y="-382" font-family="Helvetica,sans-Serif" font-size="10.00" fill="#000000">&#45;initialState</text>
</g>
<!-- Node7&#45;&gt;Node9 -->
<g id="edge11" class="edge">
<title>Node7&#45;&gt;Node9</title>
<path fill="none" stroke="#404040" d="M645.6438,-661.9217C640.265,-655.6936 634.4034,-649.9087 628.0831,-645 577.5753,-605.772 542.437,-637.4254 492.0831,-598 480.3519,-588.8148 470.265,-576.5611 461.9478,-564.0754"/>
<polygon fill="none" stroke="#404040" points="461.7525,-563.7635 455.1769,-560.8033 455.3804,-553.5951 461.9559,-556.5553 461.7525,-563.7635"/>
<text text-anchor="middle" x="618.5831" y="-619" font-family="Helvetica,sans-Serif" font-size="10.00" fill="#000000"> &#45;targetState</text>
</g>
<!-- Node8&#45;&gt;Node4 -->
<g id="edge7" class="edge">
<title>Node8&#45;&gt;Node4</title>
<path fill="none" stroke="#404040" d="M472.4104,-101.6911C469.6156,-112.8701 466.5429,-125.1608 463.3909,-137.7691"/>
<polygon fill="none" stroke="#404040" points="463.39,-137.773 465.8153,-144.564 460.4795,-149.4147 458.0541,-142.6237 463.39,-137.773"/>
<text text-anchor="middle" x="499.5831" y="-123" font-family="Helvetica,sans-Serif" font-size="10.00" fill="#000000"> &#45;stateMachine</text>
</g>
<!-- Node9&#45;&gt;Node4 -->
<g id="edge10" class="edge">
<title>Node9&#45;&gt;Node4</title>
<path fill="none" stroke="#404040" d="M434.0831,-463.4714C434.0831,-438.1133 434.0831,-405.1477 434.0831,-372.9438"/>
<polygon fill="none" stroke="#404040" points="434.0832,-372.6561 430.0832,-366.6562 434.0831,-360.6561 438.0832,-366.6561 434.0832,-372.6561"/>
<text text-anchor="middle" x="465.5831" y="-393" font-family="Helvetica,sans-Serif" font-size="10.00" fill="#000000"> &#45;outTransition</text>
<text text-anchor="middle" x="465.5831" y="-382" font-family="Helvetica,sans-Serif" font-size="10.00" fill="#000000">&#45;inTransition</text>
</g>
<!-- Node10 -->
<g id="node9" class="node">
<title>Node10</title>
<polygon fill="none" stroke="#bfbfbf" points="71.0831,-480 71.0831,-537 109.0831,-537 109.0831,-480 71.0831,-480"/>
<text text-anchor="middle" x="90.0831" y="-525" font-family="Helvetica,sans-Serif" font-size="10.00" fill="#000000">vec3</text>
<polyline fill="none" stroke="#bfbfbf" points="71.0831,-518 109.0831,-518 "/>
<text text-anchor="middle" x="90.0831" y="-506" font-family="Helvetica,sans-Serif" font-size="10.00" fill="#000000"> </text>
<polyline fill="none" stroke="#bfbfbf" points="71.0831,-499 109.0831,-499 "/>
<text text-anchor="middle" x="90.0831" y="-487" font-family="Helvetica,sans-Serif" font-size="10.00" fill="#000000"> </text>
</g>
<!-- Node10&#45;&gt;Node4 -->
<g id="edge14" class="edge">
<title>Node10&#45;&gt;Node4</title>
<path fill="none" stroke="#404040" d="M93.2462,-479.9582C96.6409,-460.8808 103.6498,-436.2183 118.0831,-419 186.7732,-337.0564 306.9265,-290.9709 377.6238,-269.6999"/>
<polygon fill="none" stroke="#404040" points="377.8618,-269.6302 382.4947,-264.1041 389.3775,-266.2552 384.7446,-271.7812 377.8618,-269.6302"/>
<text text-anchor="middle" x="178.0831" y="-387.5" font-family="Helvetica,sans-Serif" font-size="10.00" fill="#000000"> &#45;npc_colour</text>
</g>
</g>
</svg>
