<?xml version="1.0" encoding="UTF-8" standalone="no"?>
<!DOCTYPE svg PUBLIC "-//W3C//DTD SVG 1.1//EN"
 "http://www.w3.org/Graphics/SVG/1.1/DTD/svg11.dtd">
<!-- Generated by graphviz version 2.40.1 (20161225.0304)
 -->
<!-- Title: BStateMachine Pages: 1 -->
<!--zoomable 981 -->
<svg id="main" version="1.1" xmlns="http://www.w3.org/2000/svg" xmlns:xlink="http://www.w3.org/1999/xlink" xml:space="preserve" onload="init(evt)">
<style type="text/css"><![CDATA[
.edge:hover path { stroke: red; }
.edge:hover polygon { stroke: red; fill: red; }
]]></style>
<script type="text/javascript"><![CDATA[
var edges = document.getElementsByTagName('g');
if (edges && edges.length) {
  for (var i=0;i<edges.length;i++) {
    if (edges[i].id.substr(0,4)=='edge') {
      edges[i].setAttribute('class','edge');
    }
  }
}
]]></script>
        <defs>
                <circle id="rim" cx="0" cy="0" r="7"/>
                <circle id="rim2" cx="0" cy="0" r="3.5"/>
                <g id="zoomPlus">
                        <use xlink:href="#rim" fill="#404040">
                                <set attributeName="fill" to="#808080" begin="zoomplus.mouseover" end="zoomplus.mouseout"/>
                        </use>
                        <path d="M-4,0h8M0,-4v8" fill="none" stroke="white" stroke-width="1.5" pointer-events="none"/>
                </g>
                <g id="zoomMin">
                        <use xlink:href="#rim" fill="#404040">
                                <set attributeName="fill" to="#808080" begin="zoomminus.mouseover" end="zoomminus.mouseout"/>
                        </use>
                        <path d="M-4,0h8" fill="none" stroke="white" stroke-width="1.5" pointer-events="none"/>
                </g>
                <g id="dirArrow">
                        <path fill="none" stroke="white" stroke-width="1.5" d="M0,-3.0v7 M-2.5,-0.5L0,-3.0L2.5,-0.5"/>
                </g>
               <g id="resetDef">
                       <use xlink:href="#rim2" fill="#404040">
                               <set attributeName="fill" to="#808080" begin="reset.mouseover" end="reset.mouseout"/>
                       </use>
               </g>
        </defs>

<script type="text/javascript">
var viewWidth = 492;
var viewHeight = 981;
var sectionId = 'dynsection-0';
</script>
<script xlink:href="svgpan.js"/>
<svg id="graph" class="graph">
<g id="viewport">
<title>BStateMachine</title>
<!-- Node1 -->
<g id="node1" class="node">
<title>Node1</title>
<polygon fill="#bfbfbf" stroke="#000000" points="28.5,-596 28.5,-697 155.5,-697 155.5,-596 28.5,-596"/>
<text text-anchor="middle" x="92" y="-685" font-family="Helvetica,sans-Serif" font-size="10.00" fill="#000000">BStateMachine</text>
<polyline fill="none" stroke="#000000" points="28.5,-678 155.5,-678 "/>
<text text-anchor="middle" x="92" y="-666" font-family="Helvetica,sans-Serif" font-size="10.00" fill="#000000"> </text>
<polyline fill="none" stroke="#000000" points="28.5,-659 155.5,-659 "/>
<text text-anchor="start" x="36.5" y="-647" font-family="Helvetica,sans-Serif" font-size="10.00" fill="#000000">+ BStateMachine()</text>
<text text-anchor="start" x="36.5" y="-636" font-family="Helvetica,sans-Serif" font-size="10.00" fill="#000000">+ ~BStateMachine()</text>
<text text-anchor="start" x="36.5" y="-625" font-family="Helvetica,sans-Serif" font-size="10.00" fill="#000000">+ setInitialState()</text>
<text text-anchor="start" x="36.5" y="-614" font-family="Helvetica,sans-Serif" font-size="10.00" fill="#000000">+ update()</text>
<text text-anchor="start" x="36.5" y="-603" font-family="Helvetica,sans-Serif" font-size="10.00" fill="#000000">+ getCurrentStateName()</text>
</g>
<!-- Node3 -->
<g id="node3" class="node">
<title>Node3</title>
<g id="a_node3"><a xlink:href="classNPC__Actor.html" target="_top" xlink:title="{NPC_Actor\n|&#45; health\l&#45; npc_collision\l&#45; isWalking\l&#45; isRunning\l&#45; isAttacking\l|+ NPC_Actor()\l+ ~NPC_Actor()\l+ InitalizeActor()\l+ InitalizeActor()\l+ onCreate()\l+ onDestroy()\l+ basic_update()\l+ update()\l+ input()\l+ draw()\land 14 more...\l}">
<polygon fill="none" stroke="#000000" points="125.5,-298.5 125.5,-509.5 214.5,-509.5 214.5,-298.5 125.5,-298.5"/>
<text text-anchor="middle" x="170" y="-497.5" font-family="Helvetica,sans-Serif" font-size="10.00" fill="#000000">NPC_Actor</text>
<polyline fill="none" stroke="#000000" points="125.5,-490.5 214.5,-490.5 "/>
<text text-anchor="start" x="133.5" y="-478.5" font-family="Helvetica,sans-Serif" font-size="10.00" fill="#000000">&#45; health</text>
<text text-anchor="start" x="133.5" y="-467.5" font-family="Helvetica,sans-Serif" font-size="10.00" fill="#000000">&#45; npc_collision</text>
<text text-anchor="start" x="133.5" y="-456.5" font-family="Helvetica,sans-Serif" font-size="10.00" fill="#000000">&#45; isWalking</text>
<text text-anchor="start" x="133.5" y="-445.5" font-family="Helvetica,sans-Serif" font-size="10.00" fill="#000000">&#45; isRunning</text>
<text text-anchor="start" x="133.5" y="-434.5" font-family="Helvetica,sans-Serif" font-size="10.00" fill="#000000">&#45; isAttacking</text>
<polyline fill="none" stroke="#000000" points="125.5,-427.5 214.5,-427.5 "/>
<text text-anchor="start" x="133.5" y="-415.5" font-family="Helvetica,sans-Serif" font-size="10.00" fill="#000000">+ NPC_Actor()</text>
<text text-anchor="start" x="133.5" y="-404.5" font-family="Helvetica,sans-Serif" font-size="10.00" fill="#000000">+ ~NPC_Actor()</text>
<text text-anchor="start" x="133.5" y="-393.5" font-family="Helvetica,sans-Serif" font-size="10.00" fill="#000000">+ InitalizeActor()</text>
<text text-anchor="start" x="133.5" y="-382.5" font-family="Helvetica,sans-Serif" font-size="10.00" fill="#000000">+ InitalizeActor()</text>
<text text-anchor="start" x="133.5" y="-371.5" font-family="Helvetica,sans-Serif" font-size="10.00" fill="#000000">+ onCreate()</text>
<text text-anchor="start" x="133.5" y="-360.5" font-family="Helvetica,sans-Serif" font-size="10.00" fill="#000000">+ onDestroy()</text>
<text text-anchor="start" x="133.5" y="-349.5" font-family="Helvetica,sans-Serif" font-size="10.00" fill="#000000">+ basic_update()</text>
<text text-anchor="start" x="133.5" y="-338.5" font-family="Helvetica,sans-Serif" font-size="10.00" fill="#000000">+ update()</text>
<text text-anchor="start" x="133.5" y="-327.5" font-family="Helvetica,sans-Serif" font-size="10.00" fill="#000000">+ input()</text>
<text text-anchor="start" x="133.5" y="-316.5" font-family="Helvetica,sans-Serif" font-size="10.00" fill="#000000">+ draw()</text>
<text text-anchor="start" x="133.5" y="-305.5" font-family="Helvetica,sans-Serif" font-size="10.00" fill="#000000">and 14 more...</text>
</a>
</g>
</g>
<!-- Node1&#45;&gt;Node3 -->
<g id="edge7" class="edge">
<title>Node1&#45;&gt;Node3</title>
<path fill="none" stroke="#404040" d="M63.0719,-595.9838C54.5883,-574.7148 49.5842,-549.8731 58,-528 70.0011,-496.8085 93.8834,-468.578 116.5225,-446.9605"/>
<polygon fill="none" stroke="#404040" points="116.6327,-446.8586 118.3209,-439.8479 125.4417,-438.7099 123.7534,-445.7206 116.6327,-446.8586"/>
<text text-anchor="middle" x="90.5" y="-531" font-family="Helvetica,sans-Serif" font-size="10.00" fill="#000000"> &#45;stateMachine</text>
</g>
<!-- Node2 -->
<g id="node2" class="node">
<title>Node2</title>
<g id="a_node2"><a xlink:href="classBState.html" target="_top" xlink:title="{BState\n|&#45; transitions\l&#45; Stransitions\l&#45; name\l|+ BState()\l+ ~BState()\l+ getTransitions()\l+ getSTransitions()\l+ addTransition()\l+ addTransition()\l+ getName()\l}">
<polygon fill="none" stroke="#000000" points="42,-811 42,-956 142,-956 142,-811 42,-811"/>
<text text-anchor="middle" x="92" y="-944" font-family="Helvetica,sans-Serif" font-size="10.00" fill="#000000">BState</text>
<polyline fill="none" stroke="#000000" points="42,-937 142,-937 "/>
<text text-anchor="start" x="50" y="-925" font-family="Helvetica,sans-Serif" font-size="10.00" fill="#000000">&#45; transitions</text>
<text text-anchor="start" x="50" y="-914" font-family="Helvetica,sans-Serif" font-size="10.00" fill="#000000">&#45; Stransitions</text>
<text text-anchor="start" x="50" y="-903" font-family="Helvetica,sans-Serif" font-size="10.00" fill="#000000">&#45; name</text>
<polyline fill="none" stroke="#000000" points="42,-896 142,-896 "/>
<text text-anchor="start" x="50" y="-884" font-family="Helvetica,sans-Serif" font-size="10.00" fill="#000000">+ BState()</text>
<text text-anchor="start" x="50" y="-873" font-family="Helvetica,sans-Serif" font-size="10.00" fill="#000000">+ ~BState()</text>
<text text-anchor="start" x="50" y="-862" font-family="Helvetica,sans-Serif" font-size="10.00" fill="#000000">+ getTransitions()</text>
<text text-anchor="start" x="50" y="-851" font-family="Helvetica,sans-Serif" font-size="10.00" fill="#000000">+ getSTransitions()</text>
<text text-anchor="start" x="50" y="-840" font-family="Helvetica,sans-Serif" font-size="10.00" fill="#000000">+ addTransition()</text>
<text text-anchor="start" x="50" y="-829" font-family="Helvetica,sans-Serif" font-size="10.00" fill="#000000">+ addTransition()</text>
<text text-anchor="start" x="50" y="-818" font-family="Helvetica,sans-Serif" font-size="10.00" fill="#000000">+ getName()</text>
</a>
</g>
</g>
<!-- Node2&#45;&gt;Node1 -->
<g id="edge1" class="edge">
<title>Node2&#45;&gt;Node1</title>
<path fill="none" stroke="#404040" d="M92,-810.7816C92,-778.3483 92,-740.5082 92,-709.3248"/>
<polygon fill="none" stroke="#404040" points="92.0001,-709.2868 88,-703.2868 92,-697.2868 96,-703.2867 92.0001,-709.2868"/>
<text text-anchor="middle" x="122" y="-768" font-family="Helvetica,sans-Serif" font-size="10.00" fill="#000000"> &#45;currentState</text>
<text text-anchor="middle" x="122" y="-757" font-family="Helvetica,sans-Serif" font-size="10.00" fill="#000000">&#45;initialState</text>
</g>
<!-- Node2&#45;&gt;Node3 -->
<g id="edge6" class="edge">
<title>Node2&#45;&gt;Node3</title>
<path fill="none" stroke="#404040" d="M139.6771,-810.8586C145.8182,-799.5002 151.5164,-787.6566 156,-776 187.0442,-695.29 189.4616,-597.327 184.696,-522.1938"/>
<polygon fill="none" stroke="#404040" points="184.6712,-521.836 180.2638,-516.1285 183.837,-509.865 188.2444,-515.5725 184.6712,-521.836"/>
<text text-anchor="middle" x="213" y="-655" font-family="Helvetica,sans-Serif" font-size="10.00" fill="#000000"> &#45;attack</text>
<text text-anchor="middle" x="213" y="-644" font-family="Helvetica,sans-Serif" font-size="10.00" fill="#000000">&#45;seekPlayer</text>
<text text-anchor="middle" x="213" y="-633" font-family="Helvetica,sans-Serif" font-size="10.00" fill="#000000">&#45;wander</text>
</g>
<!-- Node6 -->
<g id="node6" class="node">
<title>Node6</title>
<g id="a_node6"><a xlink:href="classTransition.html" target="_top" xlink:title="{Transition\n||+ Transition()\l+ ~Transition()\l+ isTriggered()\l+ getTargetState()\l}">
<polygon fill="none" stroke="#000000" points="15,-.5 15,-90.5 111,-90.5 111,-.5 15,-.5"/>
<text text-anchor="middle" x="63" y="-78.5" font-family="Helvetica,sans-Serif" font-size="10.00" fill="#000000">Transition</text>
<polyline fill="none" stroke="#000000" points="15,-71.5 111,-71.5 "/>
<text text-anchor="middle" x="63" y="-59.5" font-family="Helvetica,sans-Serif" font-size="10.00" fill="#000000"> </text>
<polyline fill="none" stroke="#000000" points="15,-52.5 111,-52.5 "/>
<text text-anchor="start" x="23" y="-40.5" font-family="Helvetica,sans-Serif" font-size="10.00" fill="#000000">+ Transition()</text>
<text text-anchor="start" x="23" y="-29.5" font-family="Helvetica,sans-Serif" font-size="10.00" fill="#000000">+ ~Transition()</text>
<text text-anchor="start" x="23" y="-18.5" font-family="Helvetica,sans-Serif" font-size="10.00" fill="#000000">+ isTriggered()</text>
<text text-anchor="start" x="23" y="-7.5" font-family="Helvetica,sans-Serif" font-size="10.00" fill="#000000">+ getTargetState()</text>
</a>
</g>
</g>
<!-- Node2&#45;&gt;Node6 -->
<g id="edge9" class="edge">
<title>Node2&#45;&gt;Node6</title>
<path fill="none" stroke="#404040" d="M47.7516,-810.7814C24.1828,-765.2562 0,-704.4301 0,-646.5 0,-646.5 0,-646.5 0,-178 0,-151.0636 10.7507,-123.771 23.37,-101.0132"/>
<polygon fill="none" stroke="#404040" points="23.4215,-100.9249 22.9917,-93.7266 29.471,-90.5613 29.9008,-97.7596 23.4215,-100.9249"/>
<text text-anchor="middle" x="27.5" y="-401.5" font-family="Helvetica,sans-Serif" font-size="10.00" fill="#000000"> &#45;targetState</text>
</g>
<!-- Node3&#45;&gt;Node1 -->
<g id="edge2" class="edge">
<title>Node3&#45;&gt;Node1</title>
<path fill="none" stroke="#404040" d="M136.3801,-509.7742C133.2176,-519.6566 130.0538,-529.5175 127,-539 122.2762,-553.668 117.1579,-569.4501 112.3314,-584.2834"/>
<polygon fill="none" stroke="#404040" points="112.2523,-584.5264 114.1976,-591.4701 108.5362,-595.9365 106.5909,-588.9927 112.2523,-584.5264"/>
<text text-anchor="middle" x="145" y="-531" font-family="Helvetica,sans-Serif" font-size="10.00" fill="#000000"> &#45;actor</text>
</g>
<!-- Node7 -->
<g id="node7" class="node">
<title>Node7</title>
<g id="a_node7"><a xlink:href="classCondition.html" target="_top" xlink:title="{Condition\n||+ Condition()\l+ ~Condition()\l+ test()\l}">
<polygon fill="none" stroke="#000000" points="144.5,-138.5 144.5,-217.5 223.5,-217.5 223.5,-138.5 144.5,-138.5"/>
<text text-anchor="middle" x="184" y="-205.5" font-family="Helvetica,sans-Serif" font-size="10.00" fill="#000000">Condition</text>
<polyline fill="none" stroke="#000000" points="144.5,-198.5 223.5,-198.5 "/>
<text text-anchor="middle" x="184" y="-186.5" font-family="Helvetica,sans-Serif" font-size="10.00" fill="#000000"> </text>
<polyline fill="none" stroke="#000000" points="144.5,-179.5 223.5,-179.5 "/>
<text text-anchor="start" x="152.5" y="-167.5" font-family="Helvetica,sans-Serif" font-size="10.00" fill="#000000">+ Condition()</text>
<text text-anchor="start" x="152.5" y="-156.5" font-family="Helvetica,sans-Serif" font-size="10.00" fill="#000000">+ ~Condition()</text>
<text text-anchor="start" x="152.5" y="-145.5" font-family="Helvetica,sans-Serif" font-size="10.00" fill="#000000">+ test()</text>
</a>
</g>
</g>
<!-- Node3&#45;&gt;Node7 -->
<g id="edge11" class="edge">
<title>Node3&#45;&gt;Node7</title>
<path fill="none" stroke="#404040" d="M208.7109,-298.4245C212.2663,-277.7652 213.1751,-256.2339 209,-236 208.5264,-233.7046 207.9575,-231.3881 207.3127,-229.0702"/>
<polygon fill="none" stroke="#404040" points="207.2775,-228.9625 201.6093,-224.5047 203.5441,-217.558 209.2123,-222.0157 207.2775,-228.9625"/>
<text text-anchor="middle" x="226.5" y="-255.5" font-family="Helvetica,sans-Serif" font-size="10.00" fill="#000000"> #actor</text>
</g>
<!-- Node4 -->
<g id="node4" class="node">
<title>Node4</title>
<g id="a_node4"><a xlink:href="classActor.html" target="_top" xlink:title="{Actor\n|&#45; components\l|+ Actor()\l+ ~Actor()\l+ onCreate()\l+ onDestroy()\l+ update()\l+ draw()\l+ AddComponent()\l+ AddComponent()\l+ GetComponent()\l+ RemoveComponent()\l+ RemoveAllComponents()\l+ ListComponents()\l}">
<polygon fill="none" stroke="#000000" points="318.5,-557.5 318.5,-735.5 453.5,-735.5 453.5,-557.5 318.5,-557.5"/>
<text text-anchor="middle" x="386" y="-723.5" font-family="Helvetica,sans-Serif" font-size="10.00" fill="#000000">Actor</text>
<polyline fill="none" stroke="#000000" points="318.5,-716.5 453.5,-716.5 "/>
<text text-anchor="start" x="326.5" y="-704.5" font-family="Helvetica,sans-Serif" font-size="10.00" fill="#000000">&#45; components</text>
<polyline fill="none" stroke="#000000" points="318.5,-697.5 453.5,-697.5 "/>
<text text-anchor="start" x="326.5" y="-685.5" font-family="Helvetica,sans-Serif" font-size="10.00" fill="#000000">+ Actor()</text>
<text text-anchor="start" x="326.5" y="-674.5" font-family="Helvetica,sans-Serif" font-size="10.00" fill="#000000">+ ~Actor()</text>
<text text-anchor="start" x="326.5" y="-663.5" font-family="Helvetica,sans-Serif" font-size="10.00" fill="#000000">+ onCreate()</text>
<text text-anchor="start" x="326.5" y="-652.5" font-family="Helvetica,sans-Serif" font-size="10.00" fill="#000000">+ onDestroy()</text>
<text text-anchor="start" x="326.5" y="-641.5" font-family="Helvetica,sans-Serif" font-size="10.00" fill="#000000">+ update()</text>
<text text-anchor="start" x="326.5" y="-630.5" font-family="Helvetica,sans-Serif" font-size="10.00" fill="#000000">+ draw()</text>
<text text-anchor="start" x="326.5" y="-619.5" font-family="Helvetica,sans-Serif" font-size="10.00" fill="#000000">+ AddComponent()</text>
<text text-anchor="start" x="326.5" y="-608.5" font-family="Helvetica,sans-Serif" font-size="10.00" fill="#000000">+ AddComponent()</text>
<text text-anchor="start" x="326.5" y="-597.5" font-family="Helvetica,sans-Serif" font-size="10.00" fill="#000000">+ GetComponent()</text>
<text text-anchor="start" x="326.5" y="-586.5" font-family="Helvetica,sans-Serif" font-size="10.00" fill="#000000">+ RemoveComponent()</text>
<text text-anchor="start" x="326.5" y="-575.5" font-family="Helvetica,sans-Serif" font-size="10.00" fill="#000000">+ RemoveAllComponents()</text>
<text text-anchor="start" x="326.5" y="-564.5" font-family="Helvetica,sans-Serif" font-size="10.00" fill="#000000">+ ListComponents()</text>
</a>
</g>
</g>
<!-- Node4&#45;&gt;Node3 -->
<g id="edge3" class="edge">
<title>Node4&#45;&gt;Node3</title>
<path fill="none" stroke="#191970" d="M314.0663,-549.3738C308.0794,-542.0386 302.0147,-534.8374 296,-528 270.458,-498.9644 239.5356,-468.4719 214.7166,-444.9905"/>
<polygon fill="none" stroke="#191970" points="311.5211,-551.7929 320.5262,-557.3749 316.9676,-547.3956 311.5211,-551.7929"/>
</g>
<!-- Node5 -->
<g id="node5" class="node">
<title>Node5</title>
<g id="a_node5"><a xlink:href="classComponent.html" target="_top" xlink:title="{Component\n|# isCreated\l|+ Component()\l+ ~Component()\l+ onCreate()\l+ onDestroy()\l+ update()\l+ draw()\l+ Component()\l+ ~Component()\l+ onCreate()\l+ onDestroy()\l+ update()\l+ draw()\l}">
<polygon fill="none" stroke="#000000" points="342,-794.5 342,-972.5 430,-972.5 430,-794.5 342,-794.5"/>
<text text-anchor="middle" x="386" y="-960.5" font-family="Helvetica,sans-Serif" font-size="10.00" fill="#000000">Component</text>
<polyline fill="none" stroke="#000000" points="342,-953.5 430,-953.5 "/>
<text text-anchor="start" x="350" y="-941.5" font-family="Helvetica,sans-Serif" font-size="10.00" fill="#000000"># isCreated</text>
<polyline fill="none" stroke="#000000" points="342,-934.5 430,-934.5 "/>
<text text-anchor="start" x="350" y="-922.5" font-family="Helvetica,sans-Serif" font-size="10.00" fill="#000000">+ Component()</text>
<text text-anchor="start" x="350" y="-911.5" font-family="Helvetica,sans-Serif" font-size="10.00" fill="#000000">+ ~Component()</text>
<text text-anchor="start" x="350" y="-900.5" font-family="Helvetica,sans-Serif" font-size="10.00" fill="#000000">+ onCreate()</text>
<text text-anchor="start" x="350" y="-889.5" font-family="Helvetica,sans-Serif" font-size="10.00" fill="#000000">+ onDestroy()</text>
<text text-anchor="start" x="350" y="-878.5" font-family="Helvetica,sans-Serif" font-size="10.00" fill="#000000">+ update()</text>
<text text-anchor="start" x="350" y="-867.5" font-family="Helvetica,sans-Serif" font-size="10.00" fill="#000000">+ draw()</text>
<text text-anchor="start" x="350" y="-856.5" font-family="Helvetica,sans-Serif" font-size="10.00" fill="#000000">+ Component()</text>
<text text-anchor="start" x="350" y="-845.5" font-family="Helvetica,sans-Serif" font-size="10.00" fill="#000000">+ ~Component()</text>
<text text-anchor="start" x="350" y="-834.5" font-family="Helvetica,sans-Serif" font-size="10.00" fill="#000000">+ onCreate()</text>
<text text-anchor="start" x="350" y="-823.5" font-family="Helvetica,sans-Serif" font-size="10.00" fill="#000000">+ onDestroy()</text>
<text text-anchor="start" x="350" y="-812.5" font-family="Helvetica,sans-Serif" font-size="10.00" fill="#000000">+ update()</text>
<text text-anchor="start" x="350" y="-801.5" font-family="Helvetica,sans-Serif" font-size="10.00" fill="#000000">+ draw()</text>
</a>
</g>
</g>
<!-- Node5&#45;&gt;Node4 -->
<g id="edge4" class="edge">
<title>Node5&#45;&gt;Node4</title>
<path fill="none" stroke="#191970" d="M386,-783.8184C386,-767.8404 386,-751.394 386,-735.6814"/>
<polygon fill="none" stroke="#191970" points="382.5001,-784.2381 386,-794.2382 389.5001,-784.2382 382.5001,-784.2381"/>
</g>
<!-- Node5&#45;&gt;Node5 -->
<g id="edge5" class="edge">
<title>Node5&#45;&gt;Node5</title>
<path fill="none" stroke="#404040" d="M430.0244,-905.1875C440.3686,-903.4049 448,-896.1758 448,-883.5 448,-876.1718 445.4494,-870.664 441.2985,-866.9767"/>
<polygon fill="none" stroke="#404040" points="440.9343,-866.8099 433.8136,-867.9479 430.0244,-861.8125 437.1452,-860.6746 440.9343,-866.8099"/>
<text text-anchor="middle" x="466" y="-881" font-family="Helvetica,sans-Serif" font-size="10.00" fill="#000000"> #parent</text>
</g>
<!-- Node6&#45;&gt;Node3 -->
<g id="edge8" class="edge">
<title>Node6&#45;&gt;Node3</title>
<path fill="none" stroke="#404040" d="M60.1124,-90.6577C59.0991,-125.9588 60.4237,-175.9302 72,-218 82.3097,-255.4667 100.9938,-293.9398 119.3037,-326.1022"/>
<polygon fill="none" stroke="#404040" points="119.4636,-326.3777 125.9346,-329.5598 125.4862,-336.757 119.0151,-333.5749 119.4636,-326.3777"/>
<text text-anchor="middle" x="103.5" y="-181" font-family="Helvetica,sans-Serif" font-size="10.00" fill="#000000"> &#45;outTransition</text>
<text text-anchor="middle" x="103.5" y="-170" font-family="Helvetica,sans-Serif" font-size="10.00" fill="#000000">&#45;inTransition</text>
</g>
<!-- Node7&#45;&gt;Node3 -->
<g id="edge12" class="edge">
<title>Node7&#45;&gt;Node3</title>
<path fill="none" stroke="#404040" d="M144.365,-210.6545C137.6875,-218.221 131.7224,-226.7856 128,-236 120.2338,-255.2244 119.7001,-276.2832 123.0655,-296.7929"/>
<polygon fill="none" stroke="#404040" points="123.1114,-297.0218 128.2138,-302.1174 125.4725,-308.7872 120.3701,-303.6915 123.1114,-297.0218"/>
<text text-anchor="middle" x="166.5" y="-272" font-family="Helvetica,sans-Serif" font-size="10.00" fill="#000000"> &#45;outAttackRange</text>
<text text-anchor="middle" x="166.5" y="-261" font-family="Helvetica,sans-Serif" font-size="10.00" fill="#000000">&#45;ifInRange</text>
<text text-anchor="middle" x="166.5" y="-250" font-family="Helvetica,sans-Serif" font-size="10.00" fill="#000000">&#45;outOfRange</text>
<text text-anchor="middle" x="166.5" y="-239" font-family="Helvetica,sans-Serif" font-size="10.00" fill="#000000">&#45;inAttackRange</text>
</g>
<!-- Node7&#45;&gt;Node6 -->
<g id="edge10" class="edge">
<title>Node7&#45;&gt;Node6</title>
<path fill="none" stroke="#404040" d="M147.696,-138.2456C136.7169,-126.2231 124.465,-112.8067 112.7662,-99.9961"/>
<polygon fill="none" stroke="#404040" points="112.4637,-99.6647 105.4639,-97.9315 104.3716,-90.8036 111.3713,-92.5368 112.4637,-99.6647"/>
<text text-anchor="middle" x="154" y="-112" font-family="Helvetica,sans-Serif" font-size="10.00" fill="#000000"> &#45;condition</text>
</g>
<!-- Node8 -->
<g id="node8" class="node">
<title>Node8</title>
<polygon fill="none" stroke="#bfbfbf" points="262,-618 262,-675 300,-675 300,-618 262,-618"/>
<text text-anchor="middle" x="281" y="-663" font-family="Helvetica,sans-Serif" font-size="10.00" fill="#000000">vec3</text>
<polyline fill="none" stroke="#bfbfbf" points="262,-656 300,-656 "/>
<text text-anchor="middle" x="281" y="-644" font-family="Helvetica,sans-Serif" font-size="10.00" fill="#000000"> </text>
<polyline fill="none" stroke="#bfbfbf" points="262,-637 300,-637 "/>
<text text-anchor="middle" x="281" y="-625" font-family="Helvetica,sans-Serif" font-size="10.00" fill="#000000"> </text>
</g>
<!-- Node8&#45;&gt;Node3 -->
<g id="edge13" class="edge">
<title>Node8&#45;&gt;Node3</title>
<path fill="none" stroke="#404040" d="M271.4396,-617.9437C265.2608,-600.1973 256.7609,-577.0279 248,-557 239.5202,-537.6147 229.7477,-517.2194 220.0509,-497.8639"/>
<polygon fill="none" stroke="#404040" points="219.9324,-497.6292 213.6566,-494.0775 214.5212,-486.9184 220.797,-490.4701 219.9324,-497.6292"/>
<text text-anchor="middle" x="265" y="-531" font-family="Helvetica,sans-Serif" font-size="10.00" fill="#000000"> &#45;npc_colour</text>
</g>
</g>
</svg>
        <g id="navigator" transform="translate(0 0)" fill="#404254">
                <rect fill="#f2f5e9" fill-opacity="0.5" stroke="#606060" stroke-width=".5" x="0" y="0" width="60" height="60"/>
                <use id="zoomplus" xlink:href="#zoomPlus" x="17" y="9" onmousedown="handleZoom(evt,'in')"/>
                <use id="zoomminus" xlink:href="#zoomMin" x="42" y="9" onmousedown="handleZoom(evt,'out')"/>
                <use id="reset" xlink:href="#resetDef" x="30" y="36" onmousedown="handleReset()"/>
                <g id="arrowUp" xlink:href="#dirArrow" transform="translate(30 24)" onmousedown="handlePan(0,-1)">
                  <use xlink:href="#rim" fill="#404040">
                        <set attributeName="fill" to="#808080" begin="arrowUp.mouseover" end="arrowUp.mouseout"/>
                  </use>
                  <path fill="none" stroke="white" stroke-width="1.5" d="M0,-3.0v7 M-2.5,-0.5L0,-3.0L2.5,-0.5"/>
                </g>
                <g id="arrowRight" xlink:href="#dirArrow" transform="rotate(90) translate(36 -43)" onmousedown="handlePan(1,0)">
                  <use xlink:href="#rim" fill="#404040">
                        <set attributeName="fill" to="#808080" begin="arrowRight.mouseover" end="arrowRight.mouseout"/>
                  </use>
                  <path fill="none" stroke="white" stroke-width="1.5" d="M0,-3.0v7 M-2.5,-0.5L0,-3.0L2.5,-0.5"/>
                </g>
                <g id="arrowDown" xlink:href="#dirArrow" transform="rotate(180) translate(-30 -48)" onmousedown="handlePan(0,1)">
                  <use xlink:href="#rim" fill="#404040">
                        <set attributeName="fill" to="#808080" begin="arrowDown.mouseover" end="arrowDown.mouseout"/>
                  </use>
                  <path fill="none" stroke="white" stroke-width="1.5" d="M0,-3.0v7 M-2.5,-0.5L0,-3.0L2.5,-0.5"/>
                </g>
                <g id="arrowLeft" xlink:href="#dirArrow" transform="rotate(270) translate(-36 17)" onmousedown="handlePan(-1,0)">
                  <use xlink:href="#rim" fill="#404040">
                        <set attributeName="fill" to="#808080" begin="arrowLeft.mouseover" end="arrowLeft.mouseout"/>
                  </use>
                  <path fill="none" stroke="white" stroke-width="1.5" d="M0,-3.0v7 M-2.5,-0.5L0,-3.0L2.5,-0.5"/>
                </g>
        </g>
        <svg viewBox="0 0 15 15" width="100%" height="30px" preserveAspectRatio="xMaxYMin meet">
         <g id="arrow_out" transform="scale(0.3 0.3)">
          <a xlink:href="classBStateMachine__coll__graph_org.svg" target="_base">
           <rect id="button" ry="5" rx="5" y="6" x="6" height="38" width="38"
                fill="#f2f5e9" fill-opacity="0.5" stroke="#606060" stroke-width="1.0"/>
           <path id="arrow"
             d="M 11.500037,31.436501 C 11.940474,20.09759 22.043105,11.32322 32.158766,21.979434 L 37.068811,17.246167 C 37.068811,17.246167 37.088388,32 37.088388,32 L 22.160133,31.978069 C 22.160133,31.978069 26.997745,27.140456 26.997745,27.140456 C 18.528582,18.264221 13.291696,25.230495 11.500037,31.436501 z"
             style="fill:#404040;"/>
          </a>
         </g>
        </svg>
</svg>
