<?xml version="1.0" encoding="UTF-8" standalone="no"?>
<!DOCTYPE svg PUBLIC "-//W3C//DTD SVG 1.1//EN"
 "http://www.w3.org/Graphics/SVG/1.1/DTD/svg11.dtd">
<!-- Generated by graphviz version 2.40.1 (20161225.0304)
 -->
<!-- Title: ConditionOutOfRange Pages: 1 -->
<svg width="136pt" height="193pt"
 viewBox="0.00 0.00 136.00 193.00" xmlns="http://www.w3.org/2000/svg" xmlns:xlink="http://www.w3.org/1999/xlink">
<g id="graph0" class="graph" transform="scale(1 1) rotate(0) translate(4 189)">
<title>ConditionOutOfRange</title>
<!-- Node0 -->
<g id="node1" class="node">
<title>Node0</title>
<polygon fill="#bfbfbf" stroke="#000000" points="0,-.5 0,-68.5 128,-68.5 128,-.5 0,-.5"/>
<text text-anchor="middle" x="64" y="-56.5" font-family="Helvetica,sans-Serif" font-size="10.00" fill="#000000">ConditionOutOfRange</text>
<polyline fill="none" stroke="#000000" points="0,-49.5 128,-49.5 "/>
<text text-anchor="start" x="8" y="-37.5" font-family="Helvetica,sans-Serif" font-size="10.00" fill="#000000">&#45; threshold</text>
<polyline fill="none" stroke="#000000" points="0,-30.5 128,-30.5 "/>
<text text-anchor="start" x="8" y="-18.5" font-family="Helvetica,sans-Serif" font-size="10.00" fill="#000000">+ ConditionOutOfRange()</text>
<text text-anchor="start" x="8" y="-7.5" font-family="Helvetica,sans-Serif" font-size="10.00" fill="#000000">+ test()</text>
</g>
<!-- Node1 -->
<g id="node2" class="node">
<title>Node1</title>
<g id="a_node2"><a xlink:href="classCondition.html" target="_top" xlink:title="{Condition\n|# actor\l|+ Condition()\l+ ~Condition()\l+ test()\l}">
<polygon fill="none" stroke="#000000" points="24.5,-105.5 24.5,-184.5 103.5,-184.5 103.5,-105.5 24.5,-105.5"/>
<text text-anchor="middle" x="64" y="-172.5" font-family="Helvetica,sans-Serif" font-size="10.00" fill="#000000">Condition</text>
<polyline fill="none" stroke="#000000" points="24.5,-165.5 103.5,-165.5 "/>
<text text-anchor="start" x="32.5" y="-153.5" font-family="Helvetica,sans-Serif" font-size="10.00" fill="#000000"># actor</text>
<polyline fill="none" stroke="#000000" points="24.5,-146.5 103.5,-146.5 "/>
<text text-anchor="start" x="32.5" y="-134.5" font-family="Helvetica,sans-Serif" font-size="10.00" fill="#000000">+ Condition()</text>
<text text-anchor="start" x="32.5" y="-123.5" font-family="Helvetica,sans-Serif" font-size="10.00" fill="#000000">+ ~Condition()</text>
<text text-anchor="start" x="32.5" y="-112.5" font-family="Helvetica,sans-Serif" font-size="10.00" fill="#000000">+ test()</text>
</a>
</g>
</g>
<!-- Node1&#45;&gt;Node0 -->
<g id="edge1" class="edge">
<title>Node1&#45;&gt;Node0</title>
<path fill="none" stroke="#191970" d="M64,-95.3742C64,-86.3552 64,-77.1343 64,-68.6861"/>
<polygon fill="none" stroke="#191970" points="60.5001,-95.419 64,-105.4191 67.5001,-95.4191 60.5001,-95.419"/>
</g>
</g>
</svg>
