<?xml version="1.0" encoding="UTF-8" standalone="no"?>
<!DOCTYPE svg PUBLIC "-//W3C//DTD SVG 1.1//EN"
 "http://www.w3.org/Graphics/SVG/1.1/DTD/svg11.dtd">
<!-- Generated by graphviz version 2.40.1 (20161225.0304)
 -->
<!-- Title: sprite Pages: 1 -->
<svg width="137pt" height="391pt"
 viewBox="0.00 0.00 136.50 391.00" xmlns="http://www.w3.org/2000/svg" xmlns:xlink="http://www.w3.org/1999/xlink">
<g id="graph0" class="graph" transform="scale(1 1) rotate(0) translate(4 387)">
<title>sprite</title>
<!-- Node1 -->
<g id="node1" class="node">
<title>Node1</title>
<polygon fill="#bfbfbf" stroke="#000000" points="0,-.5 0,-255.5 117,-255.5 117,-.5 0,-.5"/>
<text text-anchor="middle" x="58.5" y="-243.5" font-family="Helvetica,sans-Serif" font-size="10.00" fill="#000000">sprite</text>
<polyline fill="none" stroke="#000000" points="0,-236.5 117,-236.5 "/>
<text text-anchor="start" x="8" y="-224.5" font-family="Helvetica,sans-Serif" font-size="10.00" fill="#000000">&#45; smart_texture</text>
<text text-anchor="start" x="8" y="-213.5" font-family="Helvetica,sans-Serif" font-size="10.00" fill="#000000">&#45; texture_list</text>
<text text-anchor="start" x="8" y="-202.5" font-family="Helvetica,sans-Serif" font-size="10.00" fill="#000000">&#45; m_key</text>
<text text-anchor="start" x="8" y="-191.5" font-family="Helvetica,sans-Serif" font-size="10.00" fill="#000000">&#45; m_sprite_sheet</text>
<text text-anchor="start" x="8" y="-180.5" font-family="Helvetica,sans-Serif" font-size="10.00" fill="#000000">&#45; m_change_frames</text>
<text text-anchor="start" x="8" y="-169.5" font-family="Helvetica,sans-Serif" font-size="10.00" fill="#000000">&#45; m_x_num_frame</text>
<text text-anchor="start" x="8" y="-158.5" font-family="Helvetica,sans-Serif" font-size="10.00" fill="#000000">&#45; m_y_num_frame</text>
<text text-anchor="start" x="8" y="-147.5" font-family="Helvetica,sans-Serif" font-size="10.00" fill="#000000">&#45; m_incrementer</text>
<text text-anchor="start" x="8" y="-136.5" font-family="Helvetica,sans-Serif" font-size="10.00" fill="#000000">&#45; m_rotate</text>
<polyline fill="none" stroke="#000000" points="0,-129.5 117,-129.5 "/>
<text text-anchor="start" x="8" y="-117.5" font-family="Helvetica,sans-Serif" font-size="10.00" fill="#000000">+ sprite()</text>
<text text-anchor="start" x="8" y="-106.5" font-family="Helvetica,sans-Serif" font-size="10.00" fill="#000000">+ sprite()</text>
<text text-anchor="start" x="8" y="-95.5" font-family="Helvetica,sans-Serif" font-size="10.00" fill="#000000">+ ~sprite()</text>
<text text-anchor="start" x="8" y="-84.5" font-family="Helvetica,sans-Serif" font-size="10.00" fill="#000000">+ loadSmartTexture()</text>
<text text-anchor="start" x="8" y="-73.5" font-family="Helvetica,sans-Serif" font-size="10.00" fill="#000000">+ get_smart_texture()</text>
<text text-anchor="start" x="8" y="-62.5" font-family="Helvetica,sans-Serif" font-size="10.00" fill="#000000">+ set_texture()</text>
<text text-anchor="start" x="8" y="-51.5" font-family="Helvetica,sans-Serif" font-size="10.00" fill="#000000">+ get_key()</text>
<text text-anchor="start" x="8" y="-40.5" font-family="Helvetica,sans-Serif" font-size="10.00" fill="#000000">+ get_sprite_sheet()</text>
<text text-anchor="start" x="8" y="-29.5" font-family="Helvetica,sans-Serif" font-size="10.00" fill="#000000">+ get_change_frames()</text>
<text text-anchor="start" x="8" y="-18.5" font-family="Helvetica,sans-Serif" font-size="10.00" fill="#000000">+ get_num_x_frames()</text>
<text text-anchor="start" x="8" y="-7.5" font-family="Helvetica,sans-Serif" font-size="10.00" fill="#000000">and 17 more...</text>
</g>
<!-- Node2 -->
<g id="node2" class="node">
<title>Node2</title>
<polygon fill="none" stroke="#bfbfbf" points="2.5,-325.5 2.5,-382.5 40.5,-382.5 40.5,-325.5 2.5,-325.5"/>
<text text-anchor="middle" x="21.5" y="-370.5" font-family="Helvetica,sans-Serif" font-size="10.00" fill="#000000">vec2</text>
<polyline fill="none" stroke="#bfbfbf" points="2.5,-363.5 40.5,-363.5 "/>
<text text-anchor="middle" x="21.5" y="-351.5" font-family="Helvetica,sans-Serif" font-size="10.00" fill="#000000"> </text>
<polyline fill="none" stroke="#bfbfbf" points="2.5,-344.5 40.5,-344.5 "/>
<text text-anchor="middle" x="21.5" y="-332.5" font-family="Helvetica,sans-Serif" font-size="10.00" fill="#000000"> </text>
</g>
<!-- Node2&#45;&gt;Node1 -->
<g id="edge1" class="edge">
<title>Node2&#45;&gt;Node1</title>
<path fill="none" stroke="#404040" d="M20.2753,-325.3799C20.0185,-310.0768 20.3339,-290.9468 22.5,-274 22.7617,-271.9526 23.0415,-269.8924 23.3382,-267.8222"/>
<polygon fill="none" stroke="#404040" points="23.3526,-267.7298 20.3303,-261.1826 25.2114,-255.8747 28.2337,-262.4218 23.3526,-267.7298"/>
<text text-anchor="middle" x="48" y="-299" font-family="Helvetica,sans-Serif" font-size="10.00" fill="#000000"> &#45;m_size</text>
<text text-anchor="middle" x="48" y="-288" font-family="Helvetica,sans-Serif" font-size="10.00" fill="#000000">&#45;m_frames</text>
<text text-anchor="middle" x="48" y="-277" font-family="Helvetica,sans-Serif" font-size="10.00" fill="#000000">&#45;m_position</text>
</g>
<!-- Node3 -->
<g id="node3" class="node">
<title>Node3</title>
<polygon fill="none" stroke="#bfbfbf" points="76.5,-325.5 76.5,-382.5 114.5,-382.5 114.5,-325.5 76.5,-325.5"/>
<text text-anchor="middle" x="95.5" y="-370.5" font-family="Helvetica,sans-Serif" font-size="10.00" fill="#000000">vec3</text>
<polyline fill="none" stroke="#bfbfbf" points="76.5,-363.5 114.5,-363.5 "/>
<text text-anchor="middle" x="95.5" y="-351.5" font-family="Helvetica,sans-Serif" font-size="10.00" fill="#000000"> </text>
<polyline fill="none" stroke="#bfbfbf" points="76.5,-344.5 114.5,-344.5 "/>
<text text-anchor="middle" x="95.5" y="-332.5" font-family="Helvetica,sans-Serif" font-size="10.00" fill="#000000"> </text>
</g>
<!-- Node3&#45;&gt;Node1 -->
<g id="edge2" class="edge">
<title>Node3&#45;&gt;Node1</title>
<path fill="none" stroke="#404040" d="M90.8139,-325.3769C88.2755,-309.872 84.9309,-289.443 81.3563,-267.6087"/>
<polygon fill="none" stroke="#404040" points="81.3489,-267.5629 76.432,-262.288 79.41,-255.7205 84.3269,-260.9954 81.3489,-267.5629"/>
<text text-anchor="middle" x="108" y="-288" font-family="Helvetica,sans-Serif" font-size="10.00" fill="#000000"> &#45;m_color</text>
</g>
</g>
</svg>
