<?xml version="1.0" encoding="UTF-8" standalone="no"?>
<!DOCTYPE svg PUBLIC "-//W3C//DTD SVG 1.1//EN"
 "http://www.w3.org/Graphics/SVG/1.1/DTD/svg11.dtd">
<!-- Generated by graphviz version 2.40.1 (20161225.0304)
 -->
<!-- Title: EncodedInputStream&lt; UTF8&lt;&gt;, MemoryStream &gt; Pages: 1 -->
<svg width="152pt" height="496pt"
 viewBox="0.00 0.00 152.00 496.00" xmlns="http://www.w3.org/2000/svg" xmlns:xlink="http://www.w3.org/1999/xlink">
<g id="graph0" class="graph" transform="scale(1 1) rotate(0) translate(4 492)">
<title>EncodedInputStream&lt; UTF8&lt;&gt;, MemoryStream &gt;</title>
<!-- Node1 -->
<g id="node1" class="node">
<title>Node1</title>
<polygon fill="#bfbfbf" stroke="#000000" points="0,-.5 0,-167.5 144,-167.5 144,-.5 0,-.5"/>
<text text-anchor="start" x="8" y="-155.5" font-family="Helvetica,sans-Serif" font-size="10.00" fill="#000000">EncodedInputStream</text>
<text text-anchor="middle" x="72" y="-144.5" font-family="Helvetica,sans-Serif" font-size="10.00" fill="#000000">&lt; UTF8&lt;&gt;, MemoryStream &gt;</text>
<polyline fill="none" stroke="#000000" points="0,-137.5 144,-137.5 "/>
<text text-anchor="middle" x="72" y="-125.5" font-family="Helvetica,sans-Serif" font-size="10.00" fill="#000000"> </text>
<polyline fill="none" stroke="#000000" points="0,-118.5 144,-118.5 "/>
<text text-anchor="start" x="8" y="-106.5" font-family="Helvetica,sans-Serif" font-size="10.00" fill="#000000">+ EncodedInputStream()</text>
<text text-anchor="start" x="8" y="-95.5" font-family="Helvetica,sans-Serif" font-size="10.00" fill="#000000">+ Peek()</text>
<text text-anchor="start" x="8" y="-84.5" font-family="Helvetica,sans-Serif" font-size="10.00" fill="#000000">+ Take()</text>
<text text-anchor="start" x="8" y="-73.5" font-family="Helvetica,sans-Serif" font-size="10.00" fill="#000000">+ Tell()</text>
<text text-anchor="start" x="8" y="-62.5" font-family="Helvetica,sans-Serif" font-size="10.00" fill="#000000">+ Put()</text>
<text text-anchor="start" x="8" y="-51.5" font-family="Helvetica,sans-Serif" font-size="10.00" fill="#000000">+ Flush()</text>
<text text-anchor="start" x="8" y="-40.5" font-family="Helvetica,sans-Serif" font-size="10.00" fill="#000000">+ PutBegin()</text>
<text text-anchor="start" x="8" y="-29.5" font-family="Helvetica,sans-Serif" font-size="10.00" fill="#000000">+ PutEnd()</text>
<text text-anchor="start" x="8" y="-18.5" font-family="Helvetica,sans-Serif" font-size="10.00" fill="#000000">&#45; EncodedInputStream()</text>
<text text-anchor="start" x="8" y="-7.5" font-family="Helvetica,sans-Serif" font-size="10.00" fill="#000000">&#45; operator=()</text>
</g>
<!-- Node2 -->
<g id="node2" class="node">
<title>Node2</title>
<g id="a_node2"><a xlink:href="structMemoryStream.html" target="_top" xlink:title="Represents an in&#45;memory input byte stream. ">
<polygon fill="none" stroke="#000000" points="23,-215.5 23,-382.5 121,-382.5 121,-215.5 23,-215.5"/>
<text text-anchor="middle" x="72" y="-370.5" font-family="Helvetica,sans-Serif" font-size="10.00" fill="#000000">MemoryStream</text>
<polyline fill="none" stroke="#000000" points="23,-363.5 121,-363.5 "/>
<text text-anchor="start" x="31" y="-351.5" font-family="Helvetica,sans-Serif" font-size="10.00" fill="#000000">+ src_</text>
<text text-anchor="start" x="31" y="-340.5" font-family="Helvetica,sans-Serif" font-size="10.00" fill="#000000">+ begin_</text>
<text text-anchor="start" x="31" y="-329.5" font-family="Helvetica,sans-Serif" font-size="10.00" fill="#000000">+ end_</text>
<polyline fill="none" stroke="#000000" points="23,-322.5 121,-322.5 "/>
<text text-anchor="start" x="31" y="-310.5" font-family="Helvetica,sans-Serif" font-size="10.00" fill="#000000">+ MemoryStream()</text>
<text text-anchor="start" x="31" y="-299.5" font-family="Helvetica,sans-Serif" font-size="10.00" fill="#000000">+ Peek()</text>
<text text-anchor="start" x="31" y="-288.5" font-family="Helvetica,sans-Serif" font-size="10.00" fill="#000000">+ Take()</text>
<text text-anchor="start" x="31" y="-277.5" font-family="Helvetica,sans-Serif" font-size="10.00" fill="#000000">+ Tell()</text>
<text text-anchor="start" x="31" y="-266.5" font-family="Helvetica,sans-Serif" font-size="10.00" fill="#000000">+ PutBegin()</text>
<text text-anchor="start" x="31" y="-255.5" font-family="Helvetica,sans-Serif" font-size="10.00" fill="#000000">+ Put()</text>
<text text-anchor="start" x="31" y="-244.5" font-family="Helvetica,sans-Serif" font-size="10.00" fill="#000000">+ Flush()</text>
<text text-anchor="start" x="31" y="-233.5" font-family="Helvetica,sans-Serif" font-size="10.00" fill="#000000">+ PutEnd()</text>
<text text-anchor="start" x="31" y="-222.5" font-family="Helvetica,sans-Serif" font-size="10.00" fill="#000000">+ Peek4()</text>
</a>
</g>
</g>
<!-- Node2&#45;&gt;Node1 -->
<g id="edge1" class="edge">
<title>Node2&#45;&gt;Node1</title>
<path fill="none" stroke="#404040" d="M72,-215.2598C72,-203.621 72,-191.5912 72,-179.7536"/>
<polygon fill="none" stroke="#404040" points="72.0001,-179.5117 68,-173.5117 72,-167.5117 76,-173.5117 72.0001,-179.5117"/>
<text text-anchor="middle" x="83" y="-189" font-family="Helvetica,sans-Serif" font-size="10.00" fill="#000000"> +is_</text>
</g>
<!-- Node3 -->
<g id="node3" class="node">
<title>Node3</title>
<polygon fill="none" stroke="#bfbfbf" points="50.5,-430.5 50.5,-487.5 93.5,-487.5 93.5,-430.5 50.5,-430.5"/>
<text text-anchor="middle" x="72" y="-475.5" font-family="Helvetica,sans-Serif" font-size="10.00" fill="#000000">size_t</text>
<polyline fill="none" stroke="#bfbfbf" points="50.5,-468.5 93.5,-468.5 "/>
<text text-anchor="middle" x="72" y="-456.5" font-family="Helvetica,sans-Serif" font-size="10.00" fill="#000000"> </text>
<polyline fill="none" stroke="#bfbfbf" points="50.5,-449.5 93.5,-449.5 "/>
<text text-anchor="middle" x="72" y="-437.5" font-family="Helvetica,sans-Serif" font-size="10.00" fill="#000000"> </text>
</g>
<!-- Node3&#45;&gt;Node2 -->
<g id="edge2" class="edge">
<title>Node3&#45;&gt;Node2</title>
<path fill="none" stroke="#404040" d="M72,-430.3952C72,-420.0035 72,-407.6055 72,-394.637"/>
<polygon fill="none" stroke="#404040" points="72.0001,-394.6079 68,-388.608 72,-382.6079 76,-388.6079 72.0001,-394.6079"/>
<text text-anchor="middle" x="88.5" y="-404" font-family="Helvetica,sans-Serif" font-size="10.00" fill="#000000"> +size_</text>
</g>
</g>
</svg>
