<?xml version="1.0" encoding="UTF-8" standalone="no"?>
<!DOCTYPE svg PUBLIC "-//W3C//DTD SVG 1.1//EN"
 "http://www.w3.org/Graphics/SVG/1.1/DTD/svg11.dtd">
<!-- Generated by graphviz version 2.40.1 (20161225.0304)
 -->
<!-- Title: ConditionInRange Pages: 1 -->
<svg width="776pt" height="832pt"
 viewBox="0.00 0.00 775.51 832.00" xmlns="http://www.w3.org/2000/svg" xmlns:xlink="http://www.w3.org/1999/xlink">
<g id="graph0" class="graph" transform="scale(1 1) rotate(0) translate(4 828)">
<title>ConditionInRange</title>
<!-- Node2 -->
<g id="node1" class="node">
<title>Node2</title>
<polygon fill="#bfbfbf" stroke="#000000" points="126.5084,-474.5 126.5084,-542.5 236.5084,-542.5 236.5084,-474.5 126.5084,-474.5"/>
<text text-anchor="middle" x="181.5084" y="-530.5" font-family="Helvetica,sans-Serif" font-size="10.00" fill="#000000">ConditionInRange</text>
<polyline fill="none" stroke="#000000" points="126.5084,-523.5 236.5084,-523.5 "/>
<text text-anchor="start" x="134.5084" y="-511.5" font-family="Helvetica,sans-Serif" font-size="10.00" fill="#000000">&#45; threshold</text>
<polyline fill="none" stroke="#000000" points="126.5084,-504.5 236.5084,-504.5 "/>
<text text-anchor="start" x="134.5084" y="-492.5" font-family="Helvetica,sans-Serif" font-size="10.00" fill="#000000">+ ConditionInRange()</text>
<text text-anchor="start" x="134.5084" y="-481.5" font-family="Helvetica,sans-Serif" font-size="10.00" fill="#000000">+ test()</text>
</g>
<!-- Node3 -->
<g id="node2" class="node">
<title>Node3</title>
<g id="a_node2"><a xlink:href="classCondition.html" target="_top" xlink:title="{Condition\n||+ Condition()\l+ ~Condition()\l+ test()\l}">
<polygon fill="none" stroke="#000000" points="188.0084,-695 188.0084,-774 267.0084,-774 267.0084,-695 188.0084,-695"/>
<text text-anchor="middle" x="227.5084" y="-762" font-family="Helvetica,sans-Serif" font-size="10.00" fill="#000000">Condition</text>
<polyline fill="none" stroke="#000000" points="188.0084,-755 267.0084,-755 "/>
<text text-anchor="middle" x="227.5084" y="-743" font-family="Helvetica,sans-Serif" font-size="10.00" fill="#000000"> </text>
<polyline fill="none" stroke="#000000" points="188.0084,-736 267.0084,-736 "/>
<text text-anchor="start" x="196.0084" y="-724" font-family="Helvetica,sans-Serif" font-size="10.00" fill="#000000">+ Condition()</text>
<text text-anchor="start" x="196.0084" y="-713" font-family="Helvetica,sans-Serif" font-size="10.00" fill="#000000">+ ~Condition()</text>
<text text-anchor="start" x="196.0084" y="-702" font-family="Helvetica,sans-Serif" font-size="10.00" fill="#000000">+ test()</text>
</a>
</g>
</g>
<!-- Node3&#45;&gt;Node2 -->
<g id="edge1" class="edge">
<title>Node3&#45;&gt;Node2</title>
<path fill="none" stroke="#191970" d="M217.4065,-684.8691C208.6228,-641.7144 196.1303,-580.3378 188.436,-542.5356"/>
<polygon fill="none" stroke="#191970" points="214.0189,-685.7742 219.4432,-694.8752 220.8783,-684.378 214.0189,-685.7742"/>
</g>
<!-- Node4 -->
<g id="node3" class="node">
<title>Node4</title>
<g id="a_node3"><a xlink:href="classNPC__Actor.html" target="_top" xlink:title="{NPC_Actor\n|&#45; health\l&#45; npc_collision\l&#45; isWalking\l&#45; isRunning\l&#45; isAttacking\l|+ NPC_Actor()\l+ ~NPC_Actor()\l+ InitalizeActor()\l+ InitalizeActor()\l+ onCreate()\l+ onDestroy()\l+ basic_update()\l+ update()\l+ input()\l+ draw()\land 14 more...\l}">
<polygon fill="none" stroke="#000000" points="371.0084,-149.5 371.0084,-360.5 460.0084,-360.5 460.0084,-149.5 371.0084,-149.5"/>
<text text-anchor="middle" x="415.5084" y="-348.5" font-family="Helvetica,sans-Serif" font-size="10.00" fill="#000000">NPC_Actor</text>
<polyline fill="none" stroke="#000000" points="371.0084,-341.5 460.0084,-341.5 "/>
<text text-anchor="start" x="379.0084" y="-329.5" font-family="Helvetica,sans-Serif" font-size="10.00" fill="#000000">&#45; health</text>
<text text-anchor="start" x="379.0084" y="-318.5" font-family="Helvetica,sans-Serif" font-size="10.00" fill="#000000">&#45; npc_collision</text>
<text text-anchor="start" x="379.0084" y="-307.5" font-family="Helvetica,sans-Serif" font-size="10.00" fill="#000000">&#45; isWalking</text>
<text text-anchor="start" x="379.0084" y="-296.5" font-family="Helvetica,sans-Serif" font-size="10.00" fill="#000000">&#45; isRunning</text>
<text text-anchor="start" x="379.0084" y="-285.5" font-family="Helvetica,sans-Serif" font-size="10.00" fill="#000000">&#45; isAttacking</text>
<polyline fill="none" stroke="#000000" points="371.0084,-278.5 460.0084,-278.5 "/>
<text text-anchor="start" x="379.0084" y="-266.5" font-family="Helvetica,sans-Serif" font-size="10.00" fill="#000000">+ NPC_Actor()</text>
<text text-anchor="start" x="379.0084" y="-255.5" font-family="Helvetica,sans-Serif" font-size="10.00" fill="#000000">+ ~NPC_Actor()</text>
<text text-anchor="start" x="379.0084" y="-244.5" font-family="Helvetica,sans-Serif" font-size="10.00" fill="#000000">+ InitalizeActor()</text>
<text text-anchor="start" x="379.0084" y="-233.5" font-family="Helvetica,sans-Serif" font-size="10.00" fill="#000000">+ InitalizeActor()</text>
<text text-anchor="start" x="379.0084" y="-222.5" font-family="Helvetica,sans-Serif" font-size="10.00" fill="#000000">+ onCreate()</text>
<text text-anchor="start" x="379.0084" y="-211.5" font-family="Helvetica,sans-Serif" font-size="10.00" fill="#000000">+ onDestroy()</text>
<text text-anchor="start" x="379.0084" y="-200.5" font-family="Helvetica,sans-Serif" font-size="10.00" fill="#000000">+ basic_update()</text>
<text text-anchor="start" x="379.0084" y="-189.5" font-family="Helvetica,sans-Serif" font-size="10.00" fill="#000000">+ update()</text>
<text text-anchor="start" x="379.0084" y="-178.5" font-family="Helvetica,sans-Serif" font-size="10.00" fill="#000000">+ input()</text>
<text text-anchor="start" x="379.0084" y="-167.5" font-family="Helvetica,sans-Serif" font-size="10.00" fill="#000000">+ draw()</text>
<text text-anchor="start" x="379.0084" y="-156.5" font-family="Helvetica,sans-Serif" font-size="10.00" fill="#000000">and 14 more...</text>
</a>
</g>
</g>
<!-- Node3&#45;&gt;Node4 -->
<g id="edge13" class="edge">
<title>Node3&#45;&gt;Node4</title>
<path fill="none" stroke="#404040" d="M233.1573,-694.7149C244.5652,-615.5567 270.2243,-443.7815 281.5084,-419 300.7711,-376.6965 333.6876,-336.1797 362.0748,-306.0016"/>
<polygon fill="none" stroke="#404040" points="362.4182,-305.6432 363.6801,-298.5433 370.7191,-296.9774 369.4573,-304.0773 362.4182,-305.6432"/>
<text text-anchor="middle" x="320.0084" y="-522.5" font-family="Helvetica,sans-Serif" font-size="10.00" fill="#000000"> &#45;outAttackRange</text>
<text text-anchor="middle" x="320.0084" y="-511.5" font-family="Helvetica,sans-Serif" font-size="10.00" fill="#000000">&#45;ifInRange</text>
<text text-anchor="middle" x="320.0084" y="-500.5" font-family="Helvetica,sans-Serif" font-size="10.00" fill="#000000">&#45;outOfRange</text>
<text text-anchor="middle" x="320.0084" y="-489.5" font-family="Helvetica,sans-Serif" font-size="10.00" fill="#000000">&#45;inAttackRange</text>
</g>
<!-- Node9 -->
<g id="node8" class="node">
<title>Node9</title>
<g id="a_node8"><a xlink:href="classTransition.html" target="_top" xlink:title="{Transition\n||+ Transition()\l+ ~Transition()\l+ isTriggered()\l+ getTargetState()\l}">
<polygon fill="none" stroke="#000000" points="367.5084,-463.5 367.5084,-553.5 463.5084,-553.5 463.5084,-463.5 367.5084,-463.5"/>
<text text-anchor="middle" x="415.5084" y="-541.5" font-family="Helvetica,sans-Serif" font-size="10.00" fill="#000000">Transition</text>
<polyline fill="none" stroke="#000000" points="367.5084,-534.5 463.5084,-534.5 "/>
<text text-anchor="middle" x="415.5084" y="-522.5" font-family="Helvetica,sans-Serif" font-size="10.00" fill="#000000"> </text>
<polyline fill="none" stroke="#000000" points="367.5084,-515.5 463.5084,-515.5 "/>
<text text-anchor="start" x="375.5084" y="-503.5" font-family="Helvetica,sans-Serif" font-size="10.00" fill="#000000">+ Transition()</text>
<text text-anchor="start" x="375.5084" y="-492.5" font-family="Helvetica,sans-Serif" font-size="10.00" fill="#000000">+ ~Transition()</text>
<text text-anchor="start" x="375.5084" y="-481.5" font-family="Helvetica,sans-Serif" font-size="10.00" fill="#000000">+ isTriggered()</text>
<text text-anchor="start" x="375.5084" y="-470.5" font-family="Helvetica,sans-Serif" font-size="10.00" fill="#000000">+ getTargetState()</text>
</a>
</g>
</g>
<!-- Node3&#45;&gt;Node9 -->
<g id="edge12" class="edge">
<title>Node3&#45;&gt;Node9</title>
<path fill="none" stroke="#404040" d="M266.8123,-694.9071C292.481,-668.3427 326.1792,-632.0995 353.5084,-598 362.1943,-587.1624 371.0016,-575.173 379.1452,-563.5858"/>
<polygon fill="none" stroke="#404040" points="379.2706,-563.4051 379.4044,-556.1952 386.1111,-553.5457 385.9773,-560.7556 379.2706,-563.4051"/>
<text text-anchor="middle" x="359.5084" y="-619" font-family="Helvetica,sans-Serif" font-size="10.00" fill="#000000"> &#45;condition</text>
</g>
<!-- Node4&#45;&gt;Node3 -->
<g id="edge2" class="edge">
<title>Node4&#45;&gt;Node3</title>
<path fill="none" stroke="#404040" d="M370.757,-258.6926C286.9222,-268.3007 107.7256,-302.1766 30.5084,-419 -13.3591,-485.3681 -6.3999,-527.524 30.5084,-598 61.0035,-656.2301 128.8795,-694.5729 176.3893,-715.3989"/>
<polygon fill="none" stroke="#404040" points="176.6464,-715.5079 183.7321,-714.1688 187.6934,-720.1945 180.6077,-721.5335 176.6464,-715.5079"/>
<text text-anchor="middle" x="46.0084" y="-506" font-family="Helvetica,sans-Serif" font-size="10.00" fill="#000000"> #actor</text>
</g>
<!-- Node8 -->
<g id="node7" class="node">
<title>Node8</title>
<g id="a_node7"><a xlink:href="classBStateMachine.html" target="_top" xlink:title="{BStateMachine\n||+ BStateMachine()\l+ ~BStateMachine()\l+ setInitialState()\l+ update()\l+ getCurrentStateName()\l}">
<polygon fill="none" stroke="#000000" points="403.0084,-.5 403.0084,-101.5 530.0084,-101.5 530.0084,-.5 403.0084,-.5"/>
<text text-anchor="middle" x="466.5084" y="-89.5" font-family="Helvetica,sans-Serif" font-size="10.00" fill="#000000">BStateMachine</text>
<polyline fill="none" stroke="#000000" points="403.0084,-82.5 530.0084,-82.5 "/>
<text text-anchor="middle" x="466.5084" y="-70.5" font-family="Helvetica,sans-Serif" font-size="10.00" fill="#000000"> </text>
<polyline fill="none" stroke="#000000" points="403.0084,-63.5 530.0084,-63.5 "/>
<text text-anchor="start" x="411.0084" y="-51.5" font-family="Helvetica,sans-Serif" font-size="10.00" fill="#000000">+ BStateMachine()</text>
<text text-anchor="start" x="411.0084" y="-40.5" font-family="Helvetica,sans-Serif" font-size="10.00" fill="#000000">+ ~BStateMachine()</text>
<text text-anchor="start" x="411.0084" y="-29.5" font-family="Helvetica,sans-Serif" font-size="10.00" fill="#000000">+ setInitialState()</text>
<text text-anchor="start" x="411.0084" y="-18.5" font-family="Helvetica,sans-Serif" font-size="10.00" fill="#000000">+ update()</text>
<text text-anchor="start" x="411.0084" y="-7.5" font-family="Helvetica,sans-Serif" font-size="10.00" fill="#000000">+ getCurrentStateName()</text>
</a>
</g>
</g>
<!-- Node4&#45;&gt;Node8 -->
<g id="edge9" class="edge">
<title>Node4&#45;&gt;Node8</title>
<path fill="none" stroke="#404040" d="M408.0318,-149.279C409.3128,-139.2411 411.3847,-129.3352 414.5084,-120 415.3592,-117.4573 416.3448,-114.9333 417.4421,-112.4378"/>
<polygon fill="none" stroke="#404040" points="417.4585,-112.4054 416.6125,-105.244 422.8976,-101.7088 423.7436,-108.8701 417.4585,-112.4054"/>
<text text-anchor="middle" x="428.5084" y="-123" font-family="Helvetica,sans-Serif" font-size="10.00" fill="#000000"> &#45;actor</text>
</g>
<!-- Node5 -->
<g id="node4" class="node">
<title>Node5</title>
<g id="a_node4"><a xlink:href="classActor.html" target="_top" xlink:title="{Actor\n|&#45; components\l|+ Actor()\l+ ~Actor()\l+ onCreate()\l+ onDestroy()\l+ update()\l+ draw()\l+ AddComponent()\l+ AddComponent()\l+ GetComponent()\l+ RemoveComponent()\l+ RemoveAllComponents()\l+ ListComponents()\l}">
<polygon fill="none" stroke="#000000" points="482.0084,-419.5 482.0084,-597.5 617.0084,-597.5 617.0084,-419.5 482.0084,-419.5"/>
<text text-anchor="middle" x="549.5084" y="-585.5" font-family="Helvetica,sans-Serif" font-size="10.00" fill="#000000">Actor</text>
<polyline fill="none" stroke="#000000" points="482.0084,-578.5 617.0084,-578.5 "/>
<text text-anchor="start" x="490.0084" y="-566.5" font-family="Helvetica,sans-Serif" font-size="10.00" fill="#000000">&#45; components</text>
<polyline fill="none" stroke="#000000" points="482.0084,-559.5 617.0084,-559.5 "/>
<text text-anchor="start" x="490.0084" y="-547.5" font-family="Helvetica,sans-Serif" font-size="10.00" fill="#000000">+ Actor()</text>
<text text-anchor="start" x="490.0084" y="-536.5" font-family="Helvetica,sans-Serif" font-size="10.00" fill="#000000">+ ~Actor()</text>
<text text-anchor="start" x="490.0084" y="-525.5" font-family="Helvetica,sans-Serif" font-size="10.00" fill="#000000">+ onCreate()</text>
<text text-anchor="start" x="490.0084" y="-514.5" font-family="Helvetica,sans-Serif" font-size="10.00" fill="#000000">+ onDestroy()</text>
<text text-anchor="start" x="490.0084" y="-503.5" font-family="Helvetica,sans-Serif" font-size="10.00" fill="#000000">+ update()</text>
<text text-anchor="start" x="490.0084" y="-492.5" font-family="Helvetica,sans-Serif" font-size="10.00" fill="#000000">+ draw()</text>
<text text-anchor="start" x="490.0084" y="-481.5" font-family="Helvetica,sans-Serif" font-size="10.00" fill="#000000">+ AddComponent()</text>
<text text-anchor="start" x="490.0084" y="-470.5" font-family="Helvetica,sans-Serif" font-size="10.00" fill="#000000">+ AddComponent()</text>
<text text-anchor="start" x="490.0084" y="-459.5" font-family="Helvetica,sans-Serif" font-size="10.00" fill="#000000">+ GetComponent()</text>
<text text-anchor="start" x="490.0084" y="-448.5" font-family="Helvetica,sans-Serif" font-size="10.00" fill="#000000">+ RemoveComponent()</text>
<text text-anchor="start" x="490.0084" y="-437.5" font-family="Helvetica,sans-Serif" font-size="10.00" fill="#000000">+ RemoveAllComponents()</text>
<text text-anchor="start" x="490.0084" y="-426.5" font-family="Helvetica,sans-Serif" font-size="10.00" fill="#000000">+ ListComponents()</text>
</a>
</g>
</g>
<!-- Node5&#45;&gt;Node4 -->
<g id="edge3" class="edge">
<title>Node5&#45;&gt;Node4</title>
<path fill="none" stroke="#191970" d="M498.9578,-410.3391C493.4331,-399.7472 487.8703,-389.1398 482.5084,-379 475.3022,-365.3723 467.5851,-350.9423 460.0451,-336.9302"/>
<polygon fill="none" stroke="#191970" points="495.8607,-411.9697 503.5843,-419.222 502.0691,-408.7361 495.8607,-411.9697"/>
</g>
<!-- Node6 -->
<g id="node5" class="node">
<title>Node6</title>
<g id="a_node5"><a xlink:href="classComponent.html" target="_top" xlink:title="{Component\n|# isCreated\l|+ Component()\l+ ~Component()\l+ onCreate()\l+ onDestroy()\l+ update()\l+ draw()\l+ Component()\l+ ~Component()\l+ onCreate()\l+ onDestroy()\l+ update()\l+ draw()\l}">
<polygon fill="none" stroke="#000000" points="458.5084,-645.5 458.5084,-823.5 546.5084,-823.5 546.5084,-645.5 458.5084,-645.5"/>
<text text-anchor="middle" x="502.5084" y="-811.5" font-family="Helvetica,sans-Serif" font-size="10.00" fill="#000000">Component</text>
<polyline fill="none" stroke="#000000" points="458.5084,-804.5 546.5084,-804.5 "/>
<text text-anchor="start" x="466.5084" y="-792.5" font-family="Helvetica,sans-Serif" font-size="10.00" fill="#000000"># isCreated</text>
<polyline fill="none" stroke="#000000" points="458.5084,-785.5 546.5084,-785.5 "/>
<text text-anchor="start" x="466.5084" y="-773.5" font-family="Helvetica,sans-Serif" font-size="10.00" fill="#000000">+ Component()</text>
<text text-anchor="start" x="466.5084" y="-762.5" font-family="Helvetica,sans-Serif" font-size="10.00" fill="#000000">+ ~Component()</text>
<text text-anchor="start" x="466.5084" y="-751.5" font-family="Helvetica,sans-Serif" font-size="10.00" fill="#000000">+ onCreate()</text>
<text text-anchor="start" x="466.5084" y="-740.5" font-family="Helvetica,sans-Serif" font-size="10.00" fill="#000000">+ onDestroy()</text>
<text text-anchor="start" x="466.5084" y="-729.5" font-family="Helvetica,sans-Serif" font-size="10.00" fill="#000000">+ update()</text>
<text text-anchor="start" x="466.5084" y="-718.5" font-family="Helvetica,sans-Serif" font-size="10.00" fill="#000000">+ draw()</text>
<text text-anchor="start" x="466.5084" y="-707.5" font-family="Helvetica,sans-Serif" font-size="10.00" fill="#000000">+ Component()</text>
<text text-anchor="start" x="466.5084" y="-696.5" font-family="Helvetica,sans-Serif" font-size="10.00" fill="#000000">+ ~Component()</text>
<text text-anchor="start" x="466.5084" y="-685.5" font-family="Helvetica,sans-Serif" font-size="10.00" fill="#000000">+ onCreate()</text>
<text text-anchor="start" x="466.5084" y="-674.5" font-family="Helvetica,sans-Serif" font-size="10.00" fill="#000000">+ onDestroy()</text>
<text text-anchor="start" x="466.5084" y="-663.5" font-family="Helvetica,sans-Serif" font-size="10.00" fill="#000000">+ update()</text>
<text text-anchor="start" x="466.5084" y="-652.5" font-family="Helvetica,sans-Serif" font-size="10.00" fill="#000000">+ draw()</text>
</a>
</g>
</g>
<!-- Node6&#45;&gt;Node5 -->
<g id="edge4" class="edge">
<title>Node6&#45;&gt;Node5</title>
<path fill="none" stroke="#191970" d="M523.1613,-635.1902C525.7673,-622.6593 528.4207,-609.9005 530.9908,-597.5424"/>
<polygon fill="none" stroke="#191970" points="519.6935,-634.6756 521.0841,-645.1788 526.5469,-636.1009 519.6935,-634.6756"/>
</g>
<!-- Node6&#45;&gt;Node6 -->
<g id="edge5" class="edge">
<title>Node6&#45;&gt;Node6</title>
<path fill="none" stroke="#404040" d="M546.5328,-755.0847C556.877,-753.3928 564.5084,-746.5313 564.5084,-734.5 564.5084,-727.5444 561.9578,-722.3167 557.8069,-718.8169"/>
<polygon fill="none" stroke="#404040" points="557.5377,-718.6999 550.4404,-719.9759 546.5328,-713.9153 553.6302,-712.6393 557.5377,-718.6999"/>
<text text-anchor="middle" x="582.5084" y="-732" font-family="Helvetica,sans-Serif" font-size="10.00" fill="#000000"> #parent</text>
</g>
<!-- Node7 -->
<g id="node6" class="node">
<title>Node7</title>
<g id="a_node6"><a xlink:href="classBState.html" target="_top" xlink:title="{BState\n|&#45; transitions\l&#45; Stransitions\l&#45; name\l|+ BState()\l+ ~BState()\l+ getTransitions()\l+ getSTransitions()\l+ addTransition()\l+ addTransition()\l+ getName()\l}">
<polygon fill="none" stroke="#000000" points="618.5084,-662 618.5084,-807 718.5084,-807 718.5084,-662 618.5084,-662"/>
<text text-anchor="middle" x="668.5084" y="-795" font-family="Helvetica,sans-Serif" font-size="10.00" fill="#000000">BState</text>
<polyline fill="none" stroke="#000000" points="618.5084,-788 718.5084,-788 "/>
<text text-anchor="start" x="626.5084" y="-776" font-family="Helvetica,sans-Serif" font-size="10.00" fill="#000000">&#45; transitions</text>
<text text-anchor="start" x="626.5084" y="-765" font-family="Helvetica,sans-Serif" font-size="10.00" fill="#000000">&#45; Stransitions</text>
<text text-anchor="start" x="626.5084" y="-754" font-family="Helvetica,sans-Serif" font-size="10.00" fill="#000000">&#45; name</text>
<polyline fill="none" stroke="#000000" points="618.5084,-747 718.5084,-747 "/>
<text text-anchor="start" x="626.5084" y="-735" font-family="Helvetica,sans-Serif" font-size="10.00" fill="#000000">+ BState()</text>
<text text-anchor="start" x="626.5084" y="-724" font-family="Helvetica,sans-Serif" font-size="10.00" fill="#000000">+ ~BState()</text>
<text text-anchor="start" x="626.5084" y="-713" font-family="Helvetica,sans-Serif" font-size="10.00" fill="#000000">+ getTransitions()</text>
<text text-anchor="start" x="626.5084" y="-702" font-family="Helvetica,sans-Serif" font-size="10.00" fill="#000000">+ getSTransitions()</text>
<text text-anchor="start" x="626.5084" y="-691" font-family="Helvetica,sans-Serif" font-size="10.00" fill="#000000">+ addTransition()</text>
<text text-anchor="start" x="626.5084" y="-680" font-family="Helvetica,sans-Serif" font-size="10.00" fill="#000000">+ addTransition()</text>
<text text-anchor="start" x="626.5084" y="-669" font-family="Helvetica,sans-Serif" font-size="10.00" fill="#000000">+ getName()</text>
</a>
</g>
</g>
<!-- Node7&#45;&gt;Node4 -->
<g id="edge6" class="edge">
<title>Node7&#45;&gt;Node4</title>
<path fill="none" stroke="#404040" d="M665.1823,-661.8421C660.4211,-581.8153 649.5518,-459.1332 626.5084,-419 590.6409,-356.5318 520.6704,-309.5132 471.1547,-282.1812"/>
<polygon fill="none" stroke="#404040" points="470.8547,-282.0192 463.6747,-282.6893 460.2947,-276.3194 467.4746,-275.6493 470.8547,-282.0192"/>
<text text-anchor="middle" x="685.5084" y="-517" font-family="Helvetica,sans-Serif" font-size="10.00" fill="#000000"> &#45;attack</text>
<text text-anchor="middle" x="685.5084" y="-506" font-family="Helvetica,sans-Serif" font-size="10.00" fill="#000000">&#45;seekPlayer</text>
<text text-anchor="middle" x="685.5084" y="-495" font-family="Helvetica,sans-Serif" font-size="10.00" fill="#000000">&#45;wander</text>
</g>
<!-- Node7&#45;&gt;Node8 -->
<g id="edge8" class="edge">
<title>Node7&#45;&gt;Node8</title>
<path fill="none" stroke="#404040" d="M698.4534,-661.9879C705.4795,-641.639 711.951,-619.2589 715.5084,-598 728.6387,-519.5355 738.4446,-495.1776 715.5084,-419 678.7621,-296.955 585.7233,-179.153 524.3645,-110.9575"/>
<polygon fill="none" stroke="#404040" points="523.995,-110.5508 516.9998,-108.7995 515.9259,-101.6688 522.9211,-103.4201 523.995,-110.5508"/>
<text text-anchor="middle" x="737.5084" y="-393" font-family="Helvetica,sans-Serif" font-size="10.00" fill="#000000"> &#45;currentState</text>
<text text-anchor="middle" x="737.5084" y="-382" font-family="Helvetica,sans-Serif" font-size="10.00" fill="#000000">&#45;initialState</text>
</g>
<!-- Node7&#45;&gt;Node9 -->
<g id="edge11" class="edge">
<title>Node7&#45;&gt;Node9</title>
<path fill="none" stroke="#404040" d="M627.069,-661.9217C621.6903,-655.6936 615.8287,-649.9087 609.5084,-645 559.0006,-605.772 523.8623,-637.4254 473.5084,-598 461.7772,-588.8148 451.6903,-576.5611 443.3731,-564.0754"/>
<polygon fill="none" stroke="#404040" points="443.1777,-563.7635 436.6022,-560.8033 436.8057,-553.5951 443.3812,-556.5553 443.1777,-563.7635"/>
<text text-anchor="middle" x="600.0084" y="-619" font-family="Helvetica,sans-Serif" font-size="10.00" fill="#000000"> &#45;targetState</text>
</g>
<!-- Node8&#45;&gt;Node4 -->
<g id="edge7" class="edge">
<title>Node8&#45;&gt;Node4</title>
<path fill="none" stroke="#404040" d="M453.8356,-101.6911C451.0409,-112.8701 447.9682,-125.1608 444.8161,-137.7691"/>
<polygon fill="none" stroke="#404040" points="444.8152,-137.773 447.2406,-144.564 441.9047,-149.4147 439.4794,-142.6237 444.8152,-137.773"/>
<text text-anchor="middle" x="481.0084" y="-123" font-family="Helvetica,sans-Serif" font-size="10.00" fill="#000000"> &#45;stateMachine</text>
</g>
<!-- Node9&#45;&gt;Node4 -->
<g id="edge10" class="edge">
<title>Node9&#45;&gt;Node4</title>
<path fill="none" stroke="#404040" d="M415.5084,-463.4714C415.5084,-438.1133 415.5084,-405.1477 415.5084,-372.9438"/>
<polygon fill="none" stroke="#404040" points="415.5085,-372.6561 411.5085,-366.6562 415.5084,-360.6561 419.5085,-366.6561 415.5085,-372.6561"/>
<text text-anchor="middle" x="447.0084" y="-393" font-family="Helvetica,sans-Serif" font-size="10.00" fill="#000000"> &#45;outTransition</text>
<text text-anchor="middle" x="447.0084" y="-382" font-family="Helvetica,sans-Serif" font-size="10.00" fill="#000000">&#45;inTransition</text>
</g>
<!-- Node10 -->
<g id="node9" class="node">
<title>Node10</title>
<polygon fill="none" stroke="#bfbfbf" points="70.5084,-480 70.5084,-537 108.5084,-537 108.5084,-480 70.5084,-480"/>
<text text-anchor="middle" x="89.5084" y="-525" font-family="Helvetica,sans-Serif" font-size="10.00" fill="#000000">vec3</text>
<polyline fill="none" stroke="#bfbfbf" points="70.5084,-518 108.5084,-518 "/>
<text text-anchor="middle" x="89.5084" y="-506" font-family="Helvetica,sans-Serif" font-size="10.00" fill="#000000"> </text>
<polyline fill="none" stroke="#bfbfbf" points="70.5084,-499 108.5084,-499 "/>
<text text-anchor="middle" x="89.5084" y="-487" font-family="Helvetica,sans-Serif" font-size="10.00" fill="#000000"> </text>
</g>
<!-- Node10&#45;&gt;Node4 -->
<g id="edge14" class="edge">
<title>Node10&#45;&gt;Node4</title>
<path fill="none" stroke="#404040" d="M92.8816,-479.655C96.3628,-460.6849 103.389,-436.2669 117.5084,-419 181.2492,-341.05 292.284,-294.1822 359.3332,-271.573"/>
<polygon fill="none" stroke="#404040" points="359.5164,-271.5128 363.9652,-265.8376 370.915,-267.7614 366.4661,-273.4367 359.5164,-271.5128"/>
<text text-anchor="middle" x="182.5084" y="-387.5" font-family="Helvetica,sans-Serif" font-size="10.00" fill="#000000"> &#45;npc_colour</text>
</g>
</g>
</svg>
