<?xml version="1.0" encoding="UTF-8" standalone="no"?>
<!DOCTYPE svg PUBLIC "-//W3C//DTD SVG 1.1//EN"
 "http://www.w3.org/Graphics/SVG/1.1/DTD/svg11.dtd">
<!-- Generated by graphviz version 2.40.1 (20161225.0304)
 -->
<!-- Title: Orthographic_camera Pages: 1 -->
<svg width="253pt" height="303pt"
 viewBox="0.00 0.00 253.00 303.00" xmlns="http://www.w3.org/2000/svg" xmlns:xlink="http://www.w3.org/1999/xlink">
<g id="graph0" class="graph" transform="scale(1 1) rotate(0) translate(4 299)">
<title>Orthographic_camera</title>
<!-- Node1 -->
<g id="node1" class="node">
<title>Node1</title>
<polygon fill="#bfbfbf" stroke="#000000" points="71,-.5 71,-156.5 205,-156.5 205,-.5 71,-.5"/>
<text text-anchor="middle" x="138" y="-144.5" font-family="Helvetica,sans-Serif" font-size="10.00" fill="#000000">Orthographic_camera</text>
<polyline fill="none" stroke="#000000" points="71,-137.5 205,-137.5 "/>
<text text-anchor="start" x="79" y="-125.5" font-family="Helvetica,sans-Serif" font-size="10.00" fill="#000000">&#45; m_rotation</text>
<polyline fill="none" stroke="#000000" points="71,-118.5 205,-118.5 "/>
<text text-anchor="start" x="79" y="-106.5" font-family="Helvetica,sans-Serif" font-size="10.00" fill="#000000">+ Orthographic_camera()</text>
<text text-anchor="start" x="79" y="-95.5" font-family="Helvetica,sans-Serif" font-size="10.00" fill="#000000">+ ~Orthographic_camera()</text>
<text text-anchor="start" x="79" y="-84.5" font-family="Helvetica,sans-Serif" font-size="10.00" fill="#000000">+ GetPosition()</text>
<text text-anchor="start" x="79" y="-73.5" font-family="Helvetica,sans-Serif" font-size="10.00" fill="#000000">+ SetPosition()</text>
<text text-anchor="start" x="79" y="-62.5" font-family="Helvetica,sans-Serif" font-size="10.00" fill="#000000">+ GetRotation()</text>
<text text-anchor="start" x="79" y="-51.5" font-family="Helvetica,sans-Serif" font-size="10.00" fill="#000000">+ SetRotation()</text>
<text text-anchor="start" x="79" y="-40.5" font-family="Helvetica,sans-Serif" font-size="10.00" fill="#000000">+ GetScale()</text>
<text text-anchor="start" x="79" y="-29.5" font-family="Helvetica,sans-Serif" font-size="10.00" fill="#000000">+ SetScale()</text>
<text text-anchor="start" x="79" y="-18.5" font-family="Helvetica,sans-Serif" font-size="10.00" fill="#000000">+ return_matrix()</text>
<text text-anchor="start" x="79" y="-7.5" font-family="Helvetica,sans-Serif" font-size="10.00" fill="#000000">&#45; recalculate_view_matrix()</text>
</g>
<!-- Node2 -->
<g id="node2" class="node">
<title>Node2</title>
<polygon fill="none" stroke="#bfbfbf" points="0,-237.5 0,-294.5 38,-294.5 38,-237.5 0,-237.5"/>
<text text-anchor="middle" x="19" y="-282.5" font-family="Helvetica,sans-Serif" font-size="10.00" fill="#000000">mat4</text>
<polyline fill="none" stroke="#bfbfbf" points="0,-275.5 38,-275.5 "/>
<text text-anchor="middle" x="19" y="-263.5" font-family="Helvetica,sans-Serif" font-size="10.00" fill="#000000"> </text>
<polyline fill="none" stroke="#bfbfbf" points="0,-256.5 38,-256.5 "/>
<text text-anchor="middle" x="19" y="-244.5" font-family="Helvetica,sans-Serif" font-size="10.00" fill="#000000"> </text>
</g>
<!-- Node2&#45;&gt;Node1 -->
<g id="edge1" class="edge">
<title>Node2&#45;&gt;Node1</title>
<path fill="none" stroke="#404040" d="M20.6166,-237.426C22.6907,-218.6964 27.3899,-194.2147 38,-175 44.5847,-163.0752 53.1292,-151.7164 62.4486,-141.2541"/>
<polygon fill="none" stroke="#404040" points="62.6196,-141.0709 63.7899,-133.9554 70.8082,-132.2989 69.6379,-139.4145 62.6196,-141.0709"/>
<text text-anchor="middle" x="86" y="-211" font-family="Helvetica,sans-Serif" font-size="10.00" fill="#000000"> &#45;m_Projection_matrix</text>
<text text-anchor="middle" x="86" y="-200" font-family="Helvetica,sans-Serif" font-size="10.00" fill="#000000">&#45;m_View_matrix</text>
<text text-anchor="start" x="38" y="-189" font-family="Helvetica,sans-Serif" font-size="10.00" fill="#000000">&#45;m_View_Projection</text>
<text text-anchor="middle" x="86" y="-178" font-family="Helvetica,sans-Serif" font-size="10.00" fill="#000000">_matrix</text>
</g>
<!-- Node3 -->
<g id="node3" class="node">
<title>Node3</title>
<polygon fill="none" stroke="#bfbfbf" points="119,-237.5 119,-294.5 157,-294.5 157,-237.5 119,-237.5"/>
<text text-anchor="middle" x="138" y="-282.5" font-family="Helvetica,sans-Serif" font-size="10.00" fill="#000000">vec2</text>
<polyline fill="none" stroke="#bfbfbf" points="119,-275.5 157,-275.5 "/>
<text text-anchor="middle" x="138" y="-263.5" font-family="Helvetica,sans-Serif" font-size="10.00" fill="#000000"> </text>
<polyline fill="none" stroke="#bfbfbf" points="119,-256.5 157,-256.5 "/>
<text text-anchor="middle" x="138" y="-244.5" font-family="Helvetica,sans-Serif" font-size="10.00" fill="#000000"> </text>
</g>
<!-- Node3&#45;&gt;Node1 -->
<g id="edge2" class="edge">
<title>Node3&#45;&gt;Node1</title>
<path fill="none" stroke="#404040" d="M138,-237.114C138,-218.6636 138,-193.6389 138,-168.923"/>
<polygon fill="none" stroke="#404040" points="138.0001,-168.8446 134,-162.8446 138,-156.8446 142,-162.8446 138.0001,-168.8446"/>
<text text-anchor="middle" x="159.5" y="-194.5" font-family="Helvetica,sans-Serif" font-size="10.00" fill="#000000"> &#45;m_scale</text>
</g>
<!-- Node4 -->
<g id="node4" class="node">
<title>Node4</title>
<polygon fill="none" stroke="#bfbfbf" points="185,-237.5 185,-294.5 223,-294.5 223,-237.5 185,-237.5"/>
<text text-anchor="middle" x="204" y="-282.5" font-family="Helvetica,sans-Serif" font-size="10.00" fill="#000000">vec3</text>
<polyline fill="none" stroke="#bfbfbf" points="185,-275.5 223,-275.5 "/>
<text text-anchor="middle" x="204" y="-263.5" font-family="Helvetica,sans-Serif" font-size="10.00" fill="#000000"> </text>
<polyline fill="none" stroke="#bfbfbf" points="185,-256.5 223,-256.5 "/>
<text text-anchor="middle" x="204" y="-244.5" font-family="Helvetica,sans-Serif" font-size="10.00" fill="#000000"> </text>
</g>
<!-- Node4&#45;&gt;Node1 -->
<g id="edge3" class="edge">
<title>Node4&#45;&gt;Node1</title>
<path fill="none" stroke="#404040" d="M198.5309,-237.3159C194.7186,-219.1973 189.0561,-195.4335 182,-175 181.2224,-172.7483 180.4111,-170.4778 179.5714,-168.196"/>
<polygon fill="none" stroke="#404040" points="179.4689,-167.9293 173.5816,-163.7651 175.1612,-156.7291 181.0484,-160.8933 179.4689,-167.9293"/>
<text text-anchor="middle" x="219" y="-194.5" font-family="Helvetica,sans-Serif" font-size="10.00" fill="#000000"> &#45;m_positon</text>
</g>
</g>
</svg>
