<?xml version="1.0" encoding="UTF-8" standalone="no"?>
<!DOCTYPE svg PUBLIC "-//W3C//DTD SVG 1.1//EN"
 "http://www.w3.org/Graphics/SVG/1.1/DTD/svg11.dtd">
<!-- Generated by graphviz version 2.40.1 (20161225.0304)
 -->
<!-- Title: GenericValue&lt; Encoding, Allocator &gt; Pages: 1 -->
<!--zoomable 650 -->
<svg id="main" version="1.1" xmlns="http://www.w3.org/2000/svg" xmlns:xlink="http://www.w3.org/1999/xlink" xml:space="preserve" onload="init(evt)">
<style type="text/css"><![CDATA[
.edge:hover path { stroke: red; }
.edge:hover polygon { stroke: red; fill: red; }
]]></style>
<script type="text/javascript"><![CDATA[
var edges = document.getElementsByTagName('g');
if (edges && edges.length) {
  for (var i=0;i<edges.length;i++) {
    if (edges[i].id.substr(0,4)=='edge') {
      edges[i].setAttribute('class','edge');
    }
  }
}
]]></script>
        <defs>
                <circle id="rim" cx="0" cy="0" r="7"/>
                <circle id="rim2" cx="0" cy="0" r="3.5"/>
                <g id="zoomPlus">
                        <use xlink:href="#rim" fill="#404040">
                                <set attributeName="fill" to="#808080" begin="zoomplus.mouseover" end="zoomplus.mouseout"/>
                        </use>
                        <path d="M-4,0h8M0,-4v8" fill="none" stroke="white" stroke-width="1.5" pointer-events="none"/>
                </g>
                <g id="zoomMin">
                        <use xlink:href="#rim" fill="#404040">
                                <set attributeName="fill" to="#808080" begin="zoomminus.mouseover" end="zoomminus.mouseout"/>
                        </use>
                        <path d="M-4,0h8" fill="none" stroke="white" stroke-width="1.5" pointer-events="none"/>
                </g>
                <g id="dirArrow">
                        <path fill="none" stroke="white" stroke-width="1.5" d="M0,-3.0v7 M-2.5,-0.5L0,-3.0L2.5,-0.5"/>
                </g>
               <g id="resetDef">
                       <use xlink:href="#rim2" fill="#404040">
                               <set attributeName="fill" to="#808080" begin="reset.mouseover" end="reset.mouseout"/>
                       </use>
               </g>
        </defs>

<script type="text/javascript">
var viewWidth = 936;
var viewHeight = 650;
var sectionId = 'dynsection-1';
</script>
<script xlink:href="svgpan.js"/>
<svg id="graph" class="graph">
<g id="viewport">
<title>GenericValue&lt; Encoding, Allocator &gt;</title>
<!-- Node2 -->
<g id="node1" class="node">
<title>Node2</title>
<polygon fill="#bfbfbf" stroke="#000000" points="52.5,-254.5 52.5,-641.5 193.5,-641.5 193.5,-254.5 52.5,-254.5"/>
<text text-anchor="start" x="60.5" y="-629.5" font-family="Helvetica,sans-Serif" font-size="10.00" fill="#000000">GenericValue&lt; Encoding,</text>
<text text-anchor="middle" x="123" y="-618.5" font-family="Helvetica,sans-Serif" font-size="10.00" fill="#000000"> Allocator &gt;</text>
<polyline fill="none" stroke="#000000" points="52.5,-611.5 193.5,-611.5 "/>
<text text-anchor="start" x="60.5" y="-599.5" font-family="Helvetica,sans-Serif" font-size="10.00" fill="#000000">+ kDefaultArrayCapacity</text>
<text text-anchor="start" x="60.5" y="-588.5" font-family="Helvetica,sans-Serif" font-size="10.00" fill="#000000">+ kDefaultObjectCapacity</text>
<polyline fill="none" stroke="#000000" points="52.5,-581.5 193.5,-581.5 "/>
<text text-anchor="start" x="60.5" y="-569.5" font-family="Helvetica,sans-Serif" font-size="10.00" fill="#000000">+ RAPIDJSON_DISABLEIF</text>
<text text-anchor="start" x="60.5" y="-558.5" font-family="Helvetica,sans-Serif" font-size="10.00" fill="#000000">_RETURN()</text>
<text text-anchor="start" x="60.5" y="-547.5" font-family="Helvetica,sans-Serif" font-size="10.00" fill="#000000">+ GetStringPointer()</text>
<text text-anchor="start" x="60.5" y="-536.5" font-family="Helvetica,sans-Serif" font-size="10.00" fill="#000000">+ SetStringPointer()</text>
<text text-anchor="start" x="60.5" y="-525.5" font-family="Helvetica,sans-Serif" font-size="10.00" fill="#000000">+ GetElementsPointer()</text>
<text text-anchor="start" x="60.5" y="-514.5" font-family="Helvetica,sans-Serif" font-size="10.00" fill="#000000">+ SetElementsPointer()</text>
<text text-anchor="start" x="60.5" y="-503.5" font-family="Helvetica,sans-Serif" font-size="10.00" fill="#000000">+ GetMembersPointer()</text>
<text text-anchor="start" x="60.5" y="-492.5" font-family="Helvetica,sans-Serif" font-size="10.00" fill="#000000">+ SetMembersPointer()</text>
<text text-anchor="start" x="60.5" y="-481.5" font-family="Helvetica,sans-Serif" font-size="10.00" fill="#000000">+ DoAllocMembers()</text>
<text text-anchor="start" x="60.5" y="-470.5" font-family="Helvetica,sans-Serif" font-size="10.00" fill="#000000">+ DoReserveMembers()</text>
<text text-anchor="start" x="60.5" y="-459.5" font-family="Helvetica,sans-Serif" font-size="10.00" fill="#000000">+ DoFindMember()</text>
<text text-anchor="start" x="60.5" y="-448.5" font-family="Helvetica,sans-Serif" font-size="10.00" fill="#000000">and 12 more...</text>
<text text-anchor="start" x="60.5" y="-437.5" font-family="Helvetica,sans-Serif" font-size="10.00" fill="#000000">+ operator=()</text>
<text text-anchor="start" x="60.5" y="-426.5" font-family="Helvetica,sans-Serif" font-size="10.00" fill="#000000">+ operator=()</text>
<text text-anchor="start" x="60.5" y="-415.5" font-family="Helvetica,sans-Serif" font-size="10.00" fill="#000000">+ DataString()</text>
<text text-anchor="start" x="60.5" y="-404.5" font-family="Helvetica,sans-Serif" font-size="10.00" fill="#000000">+ DataStringLength()</text>
<text text-anchor="start" x="60.5" y="-393.5" font-family="Helvetica,sans-Serif" font-size="10.00" fill="#000000">* GenericValue()</text>
<text text-anchor="start" x="60.5" y="-382.5" font-family="Helvetica,sans-Serif" font-size="10.00" fill="#000000">* GenericValue()</text>
<text text-anchor="start" x="60.5" y="-371.5" font-family="Helvetica,sans-Serif" font-size="10.00" fill="#000000">* GenericValue()</text>
<text text-anchor="start" x="60.5" y="-360.5" font-family="Helvetica,sans-Serif" font-size="10.00" fill="#000000">* GenericValue()</text>
<text text-anchor="start" x="60.5" y="-349.5" font-family="Helvetica,sans-Serif" font-size="10.00" fill="#000000">* GenericValue()</text>
<text text-anchor="start" x="60.5" y="-338.5" font-family="Helvetica,sans-Serif" font-size="10.00" fill="#000000">* GenericValue()</text>
<text text-anchor="start" x="60.5" y="-327.5" font-family="Helvetica,sans-Serif" font-size="10.00" fill="#000000">* GenericValue()</text>
<text text-anchor="start" x="60.5" y="-316.5" font-family="Helvetica,sans-Serif" font-size="10.00" fill="#000000">* GenericValue()</text>
<text text-anchor="start" x="60.5" y="-305.5" font-family="Helvetica,sans-Serif" font-size="10.00" fill="#000000">* GenericValue()</text>
<text text-anchor="start" x="60.5" y="-294.5" font-family="Helvetica,sans-Serif" font-size="10.00" fill="#000000">* GenericValue()</text>
<text text-anchor="start" x="60.5" y="-283.5" font-family="Helvetica,sans-Serif" font-size="10.00" fill="#000000">and 8 more...</text>
<text text-anchor="start" x="60.5" y="-272.5" font-family="Helvetica,sans-Serif" font-size="10.00" fill="#000000">* operator=()</text>
<text text-anchor="start" x="60.5" y="-261.5" font-family="Helvetica,sans-Serif" font-size="10.00" fill="#000000">* operator=()</text>
</g>
<!-- Node5 -->
<g id="node4" class="node">
<title>Node5</title>
<g id="a_node4"><a xlink:href="structGenericValue_1_1ArrayData.html" target="_top" xlink:title="{GenericValue\&lt; Encoding,\l Allocator \&gt;::ArrayData\n|+ size\l+ capacity\l|}">
<polygon fill="none" stroke="#000000" points="0,-122 0,-201 128,-201 128,-122 0,-122"/>
<text text-anchor="start" x="8" y="-189" font-family="Helvetica,sans-Serif" font-size="10.00" fill="#000000">GenericValue&lt; Encoding,</text>
<text text-anchor="middle" x="64" y="-178" font-family="Helvetica,sans-Serif" font-size="10.00" fill="#000000"> Allocator &gt;::ArrayData</text>
<polyline fill="none" stroke="#000000" points="0,-171 128,-171 "/>
<text text-anchor="start" x="8" y="-159" font-family="Helvetica,sans-Serif" font-size="10.00" fill="#000000">+ size</text>
<text text-anchor="start" x="8" y="-148" font-family="Helvetica,sans-Serif" font-size="10.00" fill="#000000">+ capacity</text>
<polyline fill="none" stroke="#000000" points="0,-141 128,-141 "/>
<text text-anchor="middle" x="64" y="-129" font-family="Helvetica,sans-Serif" font-size="10.00" fill="#000000"> </text>
</a>
</g>
</g>
<!-- Node2&#45;&gt;Node5 -->
<g id="edge4" class="edge">
<title>Node2&#45;&gt;Node5</title>
<path fill="none" stroke="#404040" d="M83.0741,-254.1227C80.0423,-239.4004 77.1791,-225.4969 74.6376,-213.1556"/>
<polygon fill="none" stroke="#404040" points="74.6295,-213.1159 69.5015,-208.046 72.209,-201.3625 77.3371,-206.4323 74.6295,-213.1159"/>
<text text-anchor="middle" x="103.5" y="-228" font-family="Helvetica,sans-Serif" font-size="10.00" fill="#000000"> +elements</text>
</g>
<!-- Node3 -->
<g id="node2" class="node">
<title>Node3</title>
<g id="a_node2"><a xlink:href="unionGenericValue_1_1Data.html" target="_top" xlink:title="{GenericValue\&lt; Encoding,\l Allocator \&gt;::Data\n||}">
<polygon fill="none" stroke="#000000" points="362,-.5 362,-68.5 490,-68.5 490,-.5 362,-.5"/>
<text text-anchor="start" x="370" y="-56.5" font-family="Helvetica,sans-Serif" font-size="10.00" fill="#000000">GenericValue&lt; Encoding,</text>
<text text-anchor="middle" x="426" y="-45.5" font-family="Helvetica,sans-Serif" font-size="10.00" fill="#000000"> Allocator &gt;::Data</text>
<polyline fill="none" stroke="#000000" points="362,-38.5 490,-38.5 "/>
<text text-anchor="middle" x="426" y="-26.5" font-family="Helvetica,sans-Serif" font-size="10.00" fill="#000000"> </text>
<polyline fill="none" stroke="#000000" points="362,-19.5 490,-19.5 "/>
<text text-anchor="middle" x="426" y="-7.5" font-family="Helvetica,sans-Serif" font-size="10.00" fill="#000000"> </text>
</a>
</g>
</g>
<!-- Node3&#45;&gt;Node2 -->
<g id="edge1" class="edge">
<title>Node3&#45;&gt;Node2</title>
<path fill="none" stroke="#404040" d="M361.8639,-47.1412C295.3303,-61.5948 197.614,-87.032 173,-116 155.2867,-136.8466 143.841,-187.0381 136.448,-242.2535"/>
<polygon fill="none" stroke="#404040" points="136.4069,-242.5762 139.6138,-249.035 134.8852,-254.4793 131.6783,-248.0205 136.4069,-242.5762"/>
<text text-anchor="middle" x="190" y="-159" font-family="Helvetica,sans-Serif" font-size="10.00" fill="#000000"> +data_</text>
</g>
<!-- Node4 -->
<g id="node3" class="node">
<title>Node4</title>
<g id="a_node3"><a xlink:href="structGenericValue_1_1String.html" target="_top" xlink:title="{GenericValue\&lt; Encoding,\l Allocator \&gt;::String\n|+ length\l+ hashcode\l+ str\l|}">
<polygon fill="none" stroke="#000000" points="216,-116.5 216,-206.5 344,-206.5 344,-116.5 216,-116.5"/>
<text text-anchor="start" x="224" y="-194.5" font-family="Helvetica,sans-Serif" font-size="10.00" fill="#000000">GenericValue&lt; Encoding,</text>
<text text-anchor="middle" x="280" y="-183.5" font-family="Helvetica,sans-Serif" font-size="10.00" fill="#000000"> Allocator &gt;::String</text>
<polyline fill="none" stroke="#000000" points="216,-176.5 344,-176.5 "/>
<text text-anchor="start" x="224" y="-164.5" font-family="Helvetica,sans-Serif" font-size="10.00" fill="#000000">+ length</text>
<text text-anchor="start" x="224" y="-153.5" font-family="Helvetica,sans-Serif" font-size="10.00" fill="#000000">+ hashcode</text>
<text text-anchor="start" x="224" y="-142.5" font-family="Helvetica,sans-Serif" font-size="10.00" fill="#000000">+ str</text>
<polyline fill="none" stroke="#000000" points="216,-135.5 344,-135.5 "/>
<text text-anchor="middle" x="280" y="-123.5" font-family="Helvetica,sans-Serif" font-size="10.00" fill="#000000"> </text>
</a>
</g>
</g>
<!-- Node4&#45;&gt;Node3 -->
<g id="edge2" class="edge">
<title>Node4&#45;&gt;Node3</title>
<path fill="none" stroke="#404040" d="M331.8852,-116.367C346.6768,-103.5003 362.7339,-89.5329 377.3266,-76.8392"/>
<polygon fill="none" stroke="#404040" points="377.6227,-76.5817 379.5244,-69.6258 386.6766,-68.706 384.7749,-75.6618 377.6227,-76.5817"/>
<text text-anchor="middle" x="369.5" y="-90" font-family="Helvetica,sans-Serif" font-size="10.00" fill="#000000"> +s</text>
</g>
<!-- Node5&#45;&gt;Node3 -->
<g id="edge3" class="edge">
<title>Node5&#45;&gt;Node3</title>
<path fill="none" stroke="#404040" d="M93.438,-121.6593C104.994,-108.6921 119.2689,-95.4712 135,-87 171.2865,-67.4597 276.5269,-51.7785 349.9522,-42.8022"/>
<polygon fill="none" stroke="#404040" points="349.9875,-42.798 355.4672,-38.1105 361.9017,-41.3659 356.422,-46.0534 349.9875,-42.798"/>
<text text-anchor="middle" x="142.5" y="-90" font-family="Helvetica,sans-Serif" font-size="10.00" fill="#000000"> +a</text>
</g>
<!-- Node6 -->
<g id="node5" class="node">
<title>Node6</title>
<g id="a_node5"><a xlink:href="structGenericValue_1_1ObjectData.html" target="_top" xlink:title="{GenericValue\&lt; Encoding,\l Allocator \&gt;::ObjectData\n|+ size\l+ capacity\l|}">
<polygon fill="none" stroke="#000000" points="362,-122 362,-201 490,-201 490,-122 362,-122"/>
<text text-anchor="start" x="370" y="-189" font-family="Helvetica,sans-Serif" font-size="10.00" fill="#000000">GenericValue&lt; Encoding,</text>
<text text-anchor="middle" x="426" y="-178" font-family="Helvetica,sans-Serif" font-size="10.00" fill="#000000"> Allocator &gt;::ObjectData</text>
<polyline fill="none" stroke="#000000" points="362,-171 490,-171 "/>
<text text-anchor="start" x="370" y="-159" font-family="Helvetica,sans-Serif" font-size="10.00" fill="#000000">+ size</text>
<text text-anchor="start" x="370" y="-148" font-family="Helvetica,sans-Serif" font-size="10.00" fill="#000000">+ capacity</text>
<polyline fill="none" stroke="#000000" points="362,-141 490,-141 "/>
<text text-anchor="middle" x="426" y="-129" font-family="Helvetica,sans-Serif" font-size="10.00" fill="#000000"> </text>
</a>
</g>
</g>
<!-- Node6&#45;&gt;Node3 -->
<g id="edge5" class="edge">
<title>Node6&#45;&gt;Node3</title>
<path fill="none" stroke="#404040" d="M426,-121.6649C426,-108.7653 426,-94.3453 426,-81.0055"/>
<polygon fill="none" stroke="#404040" points="426.0001,-80.6315 422,-74.6316 426,-68.6315 430,-74.6315 426.0001,-80.6315"/>
<text text-anchor="middle" x="433.5" y="-90" font-family="Helvetica,sans-Serif" font-size="10.00" fill="#000000"> +o</text>
</g>
<!-- Node7 -->
<g id="node6" class="node">
<title>Node7</title>
<g id="a_node6"><a xlink:href="classGenericMember.html" target="_top" xlink:title="Name&#45;value pair in a JSON object value. ">
<polygon fill="none" stroke="#000000" points="352,-403 352,-493 490,-493 490,-403 352,-403"/>
<text text-anchor="start" x="360" y="-481" font-family="Helvetica,sans-Serif" font-size="10.00" fill="#000000">GenericMember&lt; Encoding,</text>
<text text-anchor="middle" x="421" y="-470" font-family="Helvetica,sans-Serif" font-size="10.00" fill="#000000"> Allocator &gt;</text>
<polyline fill="none" stroke="#000000" points="352,-463 490,-463 "/>
<text text-anchor="start" x="360" y="-451" font-family="Helvetica,sans-Serif" font-size="10.00" fill="#000000">+ name</text>
<text text-anchor="start" x="360" y="-440" font-family="Helvetica,sans-Serif" font-size="10.00" fill="#000000">+ value</text>
<polyline fill="none" stroke="#000000" points="352,-433 490,-433 "/>
<text text-anchor="start" x="360" y="-421" font-family="Helvetica,sans-Serif" font-size="10.00" fill="#000000">+ operator=()</text>
<text text-anchor="start" x="360" y="-410" font-family="Helvetica,sans-Serif" font-size="10.00" fill="#000000">&#45; GenericMember()</text>
</a>
</g>
</g>
<!-- Node7&#45;&gt;Node6 -->
<g id="edge6" class="edge">
<title>Node7&#45;&gt;Node6</title>
<path fill="none" stroke="#404040" d="M421.7868,-402.9192C422.6848,-351.4586 424.1513,-267.4309 425.0957,-213.3146"/>
<polygon fill="none" stroke="#404040" points="425.0969,-213.2407 421.2023,-207.1718 425.3064,-201.2425 429.2011,-207.3114 425.0969,-213.2407"/>
<text text-anchor="middle" x="450" y="-228" font-family="Helvetica,sans-Serif" font-size="10.00" fill="#000000"> +members</text>
</g>
<!-- Node8 -->
<g id="node7" class="node">
<title>Node8</title>
<g id="a_node7"><a xlink:href="unionGenericValue_1_1Number.html" target="_top" xlink:title="{GenericValue\&lt; Encoding,\l Allocator \&gt;::Number\n|+ i64\l+ u64\l+ d\l|}">
<polygon fill="none" stroke="#000000" points="508,-116.5 508,-206.5 636,-206.5 636,-116.5 508,-116.5"/>
<text text-anchor="start" x="516" y="-194.5" font-family="Helvetica,sans-Serif" font-size="10.00" fill="#000000">GenericValue&lt; Encoding,</text>
<text text-anchor="middle" x="572" y="-183.5" font-family="Helvetica,sans-Serif" font-size="10.00" fill="#000000"> Allocator &gt;::Number</text>
<polyline fill="none" stroke="#000000" points="508,-176.5 636,-176.5 "/>
<text text-anchor="start" x="516" y="-164.5" font-family="Helvetica,sans-Serif" font-size="10.00" fill="#000000">+ i64</text>
<text text-anchor="start" x="516" y="-153.5" font-family="Helvetica,sans-Serif" font-size="10.00" fill="#000000">+ u64</text>
<text text-anchor="start" x="516" y="-142.5" font-family="Helvetica,sans-Serif" font-size="10.00" fill="#000000">+ d</text>
<polyline fill="none" stroke="#000000" points="508,-135.5 636,-135.5 "/>
<text text-anchor="middle" x="572" y="-123.5" font-family="Helvetica,sans-Serif" font-size="10.00" fill="#000000"> </text>
</a>
</g>
</g>
<!-- Node8&#45;&gt;Node3 -->
<g id="edge7" class="edge">
<title>Node8&#45;&gt;Node3</title>
<path fill="none" stroke="#404040" d="M520.1148,-116.367C505.3232,-103.5003 489.2661,-89.5329 474.6734,-76.8392"/>
<polygon fill="none" stroke="#404040" points="474.3773,-76.5817 467.2251,-75.6618 465.3234,-68.706 472.4756,-69.6258 474.3773,-76.5817"/>
<text text-anchor="middle" x="506.5" y="-90" font-family="Helvetica,sans-Serif" font-size="10.00" fill="#000000"> +n</text>
</g>
<!-- Node9 -->
<g id="node8" class="node">
<title>Node9</title>
<g id="a_node8"><a xlink:href="structGenericValue_1_1Number_1_1U.html" target="_top" xlink:title="{GenericValue\&lt; Encoding,\l Allocator \&gt;::Number::U\n|+ u\l+ padding2\l|}">
<polygon fill="none" stroke="#000000" points="508,-408.5 508,-487.5 636,-487.5 636,-408.5 508,-408.5"/>
<text text-anchor="start" x="516" y="-475.5" font-family="Helvetica,sans-Serif" font-size="10.00" fill="#000000">GenericValue&lt; Encoding,</text>
<text text-anchor="middle" x="572" y="-464.5" font-family="Helvetica,sans-Serif" font-size="10.00" fill="#000000"> Allocator &gt;::Number::U</text>
<polyline fill="none" stroke="#000000" points="508,-457.5 636,-457.5 "/>
<text text-anchor="start" x="516" y="-445.5" font-family="Helvetica,sans-Serif" font-size="10.00" fill="#000000">+ u</text>
<text text-anchor="start" x="516" y="-434.5" font-family="Helvetica,sans-Serif" font-size="10.00" fill="#000000">+ padding2</text>
<polyline fill="none" stroke="#000000" points="508,-427.5 636,-427.5 "/>
<text text-anchor="middle" x="572" y="-415.5" font-family="Helvetica,sans-Serif" font-size="10.00" fill="#000000"> </text>
</a>
</g>
</g>
<!-- Node9&#45;&gt;Node8 -->
<g id="edge8" class="edge">
<title>Node9&#45;&gt;Node8</title>
<path fill="none" stroke="#404040" d="M572,-408.4642C572,-359.3714 572,-275.2513 572,-219.0167"/>
<polygon fill="none" stroke="#404040" points="572.0001,-218.7634 568,-212.7634 572,-206.7634 576,-212.7633 572.0001,-218.7634"/>
<text text-anchor="middle" x="579.5" y="-228" font-family="Helvetica,sans-Serif" font-size="10.00" fill="#000000"> +u</text>
</g>
<!-- Node10 -->
<g id="node9" class="node">
<title>Node10</title>
<g id="a_node9"><a xlink:href="structGenericValue_1_1Number_1_1I.html" target="_top" xlink:title="{GenericValue\&lt; Encoding,\l Allocator \&gt;::Number::I\n|+ i\l+ padding\l|}">
<polygon fill="none" stroke="#000000" points="654,-408.5 654,-487.5 782,-487.5 782,-408.5 654,-408.5"/>
<text text-anchor="start" x="662" y="-475.5" font-family="Helvetica,sans-Serif" font-size="10.00" fill="#000000">GenericValue&lt; Encoding,</text>
<text text-anchor="middle" x="718" y="-464.5" font-family="Helvetica,sans-Serif" font-size="10.00" fill="#000000"> Allocator &gt;::Number::I</text>
<polyline fill="none" stroke="#000000" points="654,-457.5 782,-457.5 "/>
<text text-anchor="start" x="662" y="-445.5" font-family="Helvetica,sans-Serif" font-size="10.00" fill="#000000">+ i</text>
<text text-anchor="start" x="662" y="-434.5" font-family="Helvetica,sans-Serif" font-size="10.00" fill="#000000">+ padding</text>
<polyline fill="none" stroke="#000000" points="654,-427.5 782,-427.5 "/>
<text text-anchor="middle" x="718" y="-415.5" font-family="Helvetica,sans-Serif" font-size="10.00" fill="#000000"> </text>
</a>
</g>
</g>
<!-- Node10&#45;&gt;Node8 -->
<g id="edge9" class="edge">
<title>Node10&#45;&gt;Node8</title>
<path fill="none" stroke="#404040" d="M706.9585,-408.1469C694.8815,-367.7799 673.3978,-304.2943 645,-254 637.7705,-241.1961 628.8462,-228.2904 619.7486,-216.3493"/>
<polygon fill="none" stroke="#404040" points="619.4921,-216.0214 612.6449,-213.7596 612.0992,-206.5691 618.9465,-208.831 619.4921,-216.0214"/>
<text text-anchor="middle" x="640" y="-228" font-family="Helvetica,sans-Serif" font-size="10.00" fill="#000000"> +i</text>
</g>
<!-- Node11 -->
<g id="node10" class="node">
<title>Node11</title>
<g id="a_node10"><a xlink:href="structGenericValue_1_1ShortString.html" target="_top" xlink:title="{GenericValue\&lt; Encoding,\l Allocator \&gt;::ShortString\n|+ str\l|+ SetLength()\l+ GetLength()\l+ Usable()\l}">
<polygon fill="none" stroke="#000000" points="654,-116.5 654,-206.5 782,-206.5 782,-116.5 654,-116.5"/>
<text text-anchor="start" x="662" y="-194.5" font-family="Helvetica,sans-Serif" font-size="10.00" fill="#000000">GenericValue&lt; Encoding,</text>
<text text-anchor="middle" x="718" y="-183.5" font-family="Helvetica,sans-Serif" font-size="10.00" fill="#000000"> Allocator &gt;::ShortString</text>
<polyline fill="none" stroke="#000000" points="654,-176.5 782,-176.5 "/>
<text text-anchor="start" x="662" y="-164.5" font-family="Helvetica,sans-Serif" font-size="10.00" fill="#000000">+ str</text>
<polyline fill="none" stroke="#000000" points="654,-157.5 782,-157.5 "/>
<text text-anchor="start" x="662" y="-145.5" font-family="Helvetica,sans-Serif" font-size="10.00" fill="#000000">+ SetLength()</text>
<text text-anchor="start" x="662" y="-134.5" font-family="Helvetica,sans-Serif" font-size="10.00" fill="#000000">+ GetLength()</text>
<text text-anchor="start" x="662" y="-123.5" font-family="Helvetica,sans-Serif" font-size="10.00" fill="#000000">+ Usable()</text>
</a>
</g>
</g>
<!-- Node11&#45;&gt;Node3 -->
<g id="edge10" class="edge">
<title>Node11&#45;&gt;Node3</title>
<path fill="none" stroke="#404040" d="M653.9154,-120.5828C650.9295,-118.9853 647.9486,-117.4492 645,-116 598.8092,-93.2977 544.6148,-73.0807 501.6939,-58.4613"/>
<polygon fill="none" stroke="#404040" points="501.5592,-58.416 494.596,-60.2904 490.1875,-54.5838 497.1508,-52.7093 501.5592,-58.416"/>
<text text-anchor="middle" x="615" y="-90" font-family="Helvetica,sans-Serif" font-size="10.00" fill="#000000"> +ss</text>
</g>
<!-- Node12 -->
<g id="node11" class="node">
<title>Node12</title>
<g id="a_node11"><a xlink:href="structGenericValue_1_1Flag.html" target="_top" xlink:title="{GenericValue\&lt; Encoding,\l Allocator \&gt;::Flag\n|+ payload\l+ flags\l|}">
<polygon fill="none" stroke="#000000" points="800,-122 800,-201 928,-201 928,-122 800,-122"/>
<text text-anchor="start" x="808" y="-189" font-family="Helvetica,sans-Serif" font-size="10.00" fill="#000000">GenericValue&lt; Encoding,</text>
<text text-anchor="middle" x="864" y="-178" font-family="Helvetica,sans-Serif" font-size="10.00" fill="#000000"> Allocator &gt;::Flag</text>
<polyline fill="none" stroke="#000000" points="800,-171 928,-171 "/>
<text text-anchor="start" x="808" y="-159" font-family="Helvetica,sans-Serif" font-size="10.00" fill="#000000">+ payload</text>
<text text-anchor="start" x="808" y="-148" font-family="Helvetica,sans-Serif" font-size="10.00" fill="#000000">+ flags</text>
<polyline fill="none" stroke="#000000" points="800,-141 928,-141 "/>
<text text-anchor="middle" x="864" y="-129" font-family="Helvetica,sans-Serif" font-size="10.00" fill="#000000"> </text>
</a>
</g>
</g>
<!-- Node12&#45;&gt;Node3 -->
<g id="edge11" class="edge">
<title>Node12&#45;&gt;Node3</title>
<path fill="none" stroke="#404040" d="M803.881,-121.9042C799.6017,-119.75 795.2844,-117.7538 791,-116 695.5158,-76.9152 577.938,-54.9505 502.4835,-43.9114"/>
<polygon fill="none" stroke="#404040" points="502.1639,-43.8658 495.6584,-46.9768 490.2846,-42.1682 496.7901,-39.0572 502.1639,-43.8658"/>
<text text-anchor="middle" x="739.5" y="-90" font-family="Helvetica,sans-Serif" font-size="10.00" fill="#000000"> +f</text>
</g>
</g>
</svg>
        <g id="navigator" transform="translate(0 0)" fill="#404254">
                <rect fill="#f2f5e9" fill-opacity="0.5" stroke="#606060" stroke-width=".5" x="0" y="0" width="60" height="60"/>
                <use id="zoomplus" xlink:href="#zoomPlus" x="17" y="9" onmousedown="handleZoom(evt,'in')"/>
                <use id="zoomminus" xlink:href="#zoomMin" x="42" y="9" onmousedown="handleZoom(evt,'out')"/>
                <use id="reset" xlink:href="#resetDef" x="30" y="36" onmousedown="handleReset()"/>
                <g id="arrowUp" xlink:href="#dirArrow" transform="translate(30 24)" onmousedown="handlePan(0,-1)">
                  <use xlink:href="#rim" fill="#404040">
                        <set attributeName="fill" to="#808080" begin="arrowUp.mouseover" end="arrowUp.mouseout"/>
                  </use>
                  <path fill="none" stroke="white" stroke-width="1.5" d="M0,-3.0v7 M-2.5,-0.5L0,-3.0L2.5,-0.5"/>
                </g>
                <g id="arrowRight" xlink:href="#dirArrow" transform="rotate(90) translate(36 -43)" onmousedown="handlePan(1,0)">
                  <use xlink:href="#rim" fill="#404040">
                        <set attributeName="fill" to="#808080" begin="arrowRight.mouseover" end="arrowRight.mouseout"/>
                  </use>
                  <path fill="none" stroke="white" stroke-width="1.5" d="M0,-3.0v7 M-2.5,-0.5L0,-3.0L2.5,-0.5"/>
                </g>
                <g id="arrowDown" xlink:href="#dirArrow" transform="rotate(180) translate(-30 -48)" onmousedown="handlePan(0,1)">
                  <use xlink:href="#rim" fill="#404040">
                        <set attributeName="fill" to="#808080" begin="arrowDown.mouseover" end="arrowDown.mouseout"/>
                  </use>
                  <path fill="none" stroke="white" stroke-width="1.5" d="M0,-3.0v7 M-2.5,-0.5L0,-3.0L2.5,-0.5"/>
                </g>
                <g id="arrowLeft" xlink:href="#dirArrow" transform="rotate(270) translate(-36 17)" onmousedown="handlePan(-1,0)">
                  <use xlink:href="#rim" fill="#404040">
                        <set attributeName="fill" to="#808080" begin="arrowLeft.mouseover" end="arrowLeft.mouseout"/>
                  </use>
                  <path fill="none" stroke="white" stroke-width="1.5" d="M0,-3.0v7 M-2.5,-0.5L0,-3.0L2.5,-0.5"/>
                </g>
        </g>
        <svg viewBox="0 0 15 15" width="100%" height="30px" preserveAspectRatio="xMaxYMin meet">
         <g id="arrow_out" transform="scale(0.3 0.3)">
          <a xlink:href="classGenericValue__coll__graph_org.svg" target="_base">
           <rect id="button" ry="5" rx="5" y="6" x="6" height="38" width="38"
                fill="#f2f5e9" fill-opacity="0.5" stroke="#606060" stroke-width="1.0"/>
           <path id="arrow"
             d="M 11.500037,31.436501 C 11.940474,20.09759 22.043105,11.32322 32.158766,21.979434 L 37.068811,17.246167 C 37.068811,17.246167 37.088388,32 37.088388,32 L 22.160133,31.978069 C 22.160133,31.978069 26.997745,27.140456 26.997745,27.140456 C 18.528582,18.264221 13.291696,25.230495 11.500037,31.436501 z"
             style="fill:#404040;"/>
          </a>
         </g>
        </svg>
</svg>
