<?xml version="1.0" encoding="UTF-8" standalone="no"?>
<!DOCTYPE svg PUBLIC "-//W3C//DTD SVG 1.1//EN"
 "http://www.w3.org/Graphics/SVG/1.1/DTD/svg11.dtd">
<!-- Generated by graphviz version 2.40.1 (20161225.0304)
 -->
<!-- Title: ConditionInRange Pages: 1 -->
<svg width="118pt" height="193pt"
 viewBox="0.00 0.00 118.00 193.00" xmlns="http://www.w3.org/2000/svg" xmlns:xlink="http://www.w3.org/1999/xlink">
<g id="graph0" class="graph" transform="scale(1 1) rotate(0) translate(4 189)">
<title>ConditionInRange</title>
<!-- Node0 -->
<g id="node1" class="node">
<title>Node0</title>
<polygon fill="#bfbfbf" stroke="#000000" points="0,-.5 0,-68.5 110,-68.5 110,-.5 0,-.5"/>
<text text-anchor="middle" x="55" y="-56.5" font-family="Helvetica,sans-Serif" font-size="10.00" fill="#000000">ConditionInRange</text>
<polyline fill="none" stroke="#000000" points="0,-49.5 110,-49.5 "/>
<text text-anchor="start" x="8" y="-37.5" font-family="Helvetica,sans-Serif" font-size="10.00" fill="#000000">&#45; threshold</text>
<polyline fill="none" stroke="#000000" points="0,-30.5 110,-30.5 "/>
<text text-anchor="start" x="8" y="-18.5" font-family="Helvetica,sans-Serif" font-size="10.00" fill="#000000">+ ConditionInRange()</text>
<text text-anchor="start" x="8" y="-7.5" font-family="Helvetica,sans-Serif" font-size="10.00" fill="#000000">+ test()</text>
</g>
<!-- Node1 -->
<g id="node2" class="node">
<title>Node1</title>
<g id="a_node2"><a xlink:href="classCondition.html" target="_top" xlink:title="{Condition\n|# actor\l|+ Condition()\l+ ~Condition()\l+ test()\l}">
<polygon fill="none" stroke="#000000" points="15.5,-105.5 15.5,-184.5 94.5,-184.5 94.5,-105.5 15.5,-105.5"/>
<text text-anchor="middle" x="55" y="-172.5" font-family="Helvetica,sans-Serif" font-size="10.00" fill="#000000">Condition</text>
<polyline fill="none" stroke="#000000" points="15.5,-165.5 94.5,-165.5 "/>
<text text-anchor="start" x="23.5" y="-153.5" font-family="Helvetica,sans-Serif" font-size="10.00" fill="#000000"># actor</text>
<polyline fill="none" stroke="#000000" points="15.5,-146.5 94.5,-146.5 "/>
<text text-anchor="start" x="23.5" y="-134.5" font-family="Helvetica,sans-Serif" font-size="10.00" fill="#000000">+ Condition()</text>
<text text-anchor="start" x="23.5" y="-123.5" font-family="Helvetica,sans-Serif" font-size="10.00" fill="#000000">+ ~Condition()</text>
<text text-anchor="start" x="23.5" y="-112.5" font-family="Helvetica,sans-Serif" font-size="10.00" fill="#000000">+ test()</text>
</a>
</g>
</g>
<!-- Node1&#45;&gt;Node0 -->
<g id="edge1" class="edge">
<title>Node1&#45;&gt;Node0</title>
<path fill="none" stroke="#191970" d="M55,-95.3742C55,-86.3552 55,-77.1343 55,-68.6861"/>
<polygon fill="none" stroke="#191970" points="51.5001,-95.419 55,-105.4191 58.5001,-95.4191 51.5001,-95.419"/>
</g>
</g>
</svg>
