<?xml version="1.0" encoding="UTF-8" standalone="no"?>
<!DOCTYPE svg PUBLIC "-//W3C//DTD SVG 1.1//EN"
 "http://www.w3.org/Graphics/SVG/1.1/DTD/svg11.dtd">
<!-- Generated by graphviz version 2.40.1 (20161225.0304)
 -->
<!-- Title: Transition Pages: 1 -->
<!--zoomable 865 -->
<svg id="main" version="1.1" xmlns="http://www.w3.org/2000/svg" xmlns:xlink="http://www.w3.org/1999/xlink" xml:space="preserve" onload="init(evt)">
<style type="text/css"><![CDATA[
.edge:hover path { stroke: red; }
.edge:hover polygon { stroke: red; fill: red; }
]]></style>
<script type="text/javascript"><![CDATA[
var edges = document.getElementsByTagName('g');
if (edges && edges.length) {
  for (var i=0;i<edges.length;i++) {
    if (edges[i].id.substr(0,4)=='edge') {
      edges[i].setAttribute('class','edge');
    }
  }
}
]]></script>
        <defs>
                <circle id="rim" cx="0" cy="0" r="7"/>
                <circle id="rim2" cx="0" cy="0" r="3.5"/>
                <g id="zoomPlus">
                        <use xlink:href="#rim" fill="#404040">
                                <set attributeName="fill" to="#808080" begin="zoomplus.mouseover" end="zoomplus.mouseout"/>
                        </use>
                        <path d="M-4,0h8M0,-4v8" fill="none" stroke="white" stroke-width="1.5" pointer-events="none"/>
                </g>
                <g id="zoomMin">
                        <use xlink:href="#rim" fill="#404040">
                                <set attributeName="fill" to="#808080" begin="zoomminus.mouseover" end="zoomminus.mouseout"/>
                        </use>
                        <path d="M-4,0h8" fill="none" stroke="white" stroke-width="1.5" pointer-events="none"/>
                </g>
                <g id="dirArrow">
                        <path fill="none" stroke="white" stroke-width="1.5" d="M0,-3.0v7 M-2.5,-0.5L0,-3.0L2.5,-0.5"/>
                </g>
               <g id="resetDef">
                       <use xlink:href="#rim2" fill="#404040">
                               <set attributeName="fill" to="#808080" begin="reset.mouseover" end="reset.mouseout"/>
                       </use>
               </g>
        </defs>

<script type="text/javascript">
var viewWidth = 503;
var viewHeight = 865;
var sectionId = 'dynsection-0';
</script>
<script xlink:href="svgpan.js"/>
<svg id="graph" class="graph">
<g id="viewport">
<title>Transition</title>
<!-- Node1 -->
<g id="node1" class="node">
<title>Node1</title>
<polygon fill="#bfbfbf" stroke="#000000" points="0,-496.5 0,-586.5 96,-586.5 96,-496.5 0,-496.5"/>
<text text-anchor="middle" x="48" y="-574.5" font-family="Helvetica,sans-Serif" font-size="10.00" fill="#000000">Transition</text>
<polyline fill="none" stroke="#000000" points="0,-567.5 96,-567.5 "/>
<text text-anchor="middle" x="48" y="-555.5" font-family="Helvetica,sans-Serif" font-size="10.00" fill="#000000"> </text>
<polyline fill="none" stroke="#000000" points="0,-548.5 96,-548.5 "/>
<text text-anchor="start" x="8" y="-536.5" font-family="Helvetica,sans-Serif" font-size="10.00" fill="#000000">+ Transition()</text>
<text text-anchor="start" x="8" y="-525.5" font-family="Helvetica,sans-Serif" font-size="10.00" fill="#000000">+ ~Transition()</text>
<text text-anchor="start" x="8" y="-514.5" font-family="Helvetica,sans-Serif" font-size="10.00" fill="#000000">+ isTriggered()</text>
<text text-anchor="start" x="8" y="-503.5" font-family="Helvetica,sans-Serif" font-size="10.00" fill="#000000">+ getTargetState()</text>
</g>
<!-- Node4 -->
<g id="node4" class="node">
<title>Node4</title>
<g id="a_node4"><a xlink:href="classNPC__Actor.html" target="_top" xlink:title="{NPC_Actor\n|&#45; health\l&#45; npc_collision\l&#45; isWalking\l&#45; isRunning\l&#45; isAttacking\l|+ NPC_Actor()\l+ ~NPC_Actor()\l+ InitalizeActor()\l+ InitalizeActor()\l+ onCreate()\l+ onDestroy()\l+ basic_update()\l+ update()\l+ input()\l+ draw()\land 14 more...\l}">
<polygon fill="none" stroke="#000000" points="157.5,-182.5 157.5,-393.5 246.5,-393.5 246.5,-182.5 157.5,-182.5"/>
<text text-anchor="middle" x="202" y="-381.5" font-family="Helvetica,sans-Serif" font-size="10.00" fill="#000000">NPC_Actor</text>
<polyline fill="none" stroke="#000000" points="157.5,-374.5 246.5,-374.5 "/>
<text text-anchor="start" x="165.5" y="-362.5" font-family="Helvetica,sans-Serif" font-size="10.00" fill="#000000">&#45; health</text>
<text text-anchor="start" x="165.5" y="-351.5" font-family="Helvetica,sans-Serif" font-size="10.00" fill="#000000">&#45; npc_collision</text>
<text text-anchor="start" x="165.5" y="-340.5" font-family="Helvetica,sans-Serif" font-size="10.00" fill="#000000">&#45; isWalking</text>
<text text-anchor="start" x="165.5" y="-329.5" font-family="Helvetica,sans-Serif" font-size="10.00" fill="#000000">&#45; isRunning</text>
<text text-anchor="start" x="165.5" y="-318.5" font-family="Helvetica,sans-Serif" font-size="10.00" fill="#000000">&#45; isAttacking</text>
<polyline fill="none" stroke="#000000" points="157.5,-311.5 246.5,-311.5 "/>
<text text-anchor="start" x="165.5" y="-299.5" font-family="Helvetica,sans-Serif" font-size="10.00" fill="#000000">+ NPC_Actor()</text>
<text text-anchor="start" x="165.5" y="-288.5" font-family="Helvetica,sans-Serif" font-size="10.00" fill="#000000">+ ~NPC_Actor()</text>
<text text-anchor="start" x="165.5" y="-277.5" font-family="Helvetica,sans-Serif" font-size="10.00" fill="#000000">+ InitalizeActor()</text>
<text text-anchor="start" x="165.5" y="-266.5" font-family="Helvetica,sans-Serif" font-size="10.00" fill="#000000">+ InitalizeActor()</text>
<text text-anchor="start" x="165.5" y="-255.5" font-family="Helvetica,sans-Serif" font-size="10.00" fill="#000000">+ onCreate()</text>
<text text-anchor="start" x="165.5" y="-244.5" font-family="Helvetica,sans-Serif" font-size="10.00" fill="#000000">+ onDestroy()</text>
<text text-anchor="start" x="165.5" y="-233.5" font-family="Helvetica,sans-Serif" font-size="10.00" fill="#000000">+ basic_update()</text>
<text text-anchor="start" x="165.5" y="-222.5" font-family="Helvetica,sans-Serif" font-size="10.00" fill="#000000">+ update()</text>
<text text-anchor="start" x="165.5" y="-211.5" font-family="Helvetica,sans-Serif" font-size="10.00" fill="#000000">+ input()</text>
<text text-anchor="start" x="165.5" y="-200.5" font-family="Helvetica,sans-Serif" font-size="10.00" fill="#000000">+ draw()</text>
<text text-anchor="start" x="165.5" y="-189.5" font-family="Helvetica,sans-Serif" font-size="10.00" fill="#000000">and 14 more...</text>
</a>
</g>
</g>
<!-- Node1&#45;&gt;Node4 -->
<g id="edge11" class="edge">
<title>Node1&#45;&gt;Node4</title>
<path fill="none" stroke="#404040" d="M58.5435,-496.457C65.7247,-470.651 76.7247,-438.276 92,-412 107.3762,-385.5505 128.952,-359.684 148.9265,-338.4778"/>
<polygon fill="none" stroke="#404040" points="149.0557,-338.3432 150.3255,-331.2447 157.3662,-329.6866 156.0965,-336.7851 149.0557,-338.3432"/>
<text text-anchor="middle" x="123.5" y="-426" font-family="Helvetica,sans-Serif" font-size="10.00" fill="#000000"> &#45;outTransition</text>
<text text-anchor="middle" x="123.5" y="-415" font-family="Helvetica,sans-Serif" font-size="10.00" fill="#000000">&#45;inTransition</text>
</g>
<!-- Node2 -->
<g id="node2" class="node">
<title>Node2</title>
<g id="a_node2"><a xlink:href="classBState.html" target="_top" xlink:title="{BState\n|&#45; transitions\l&#45; Stransitions\l&#45; name\l|+ BState()\l+ ~BState()\l+ getTransitions()\l+ getSTransitions()\l+ addTransition()\l+ addTransition()\l+ getName()\l}">
<polygon fill="none" stroke="#000000" points="308,-695 308,-840 408,-840 408,-695 308,-695"/>
<text text-anchor="middle" x="358" y="-828" font-family="Helvetica,sans-Serif" font-size="10.00" fill="#000000">BState</text>
<polyline fill="none" stroke="#000000" points="308,-821 408,-821 "/>
<text text-anchor="start" x="316" y="-809" font-family="Helvetica,sans-Serif" font-size="10.00" fill="#000000">&#45; transitions</text>
<text text-anchor="start" x="316" y="-798" font-family="Helvetica,sans-Serif" font-size="10.00" fill="#000000">&#45; Stransitions</text>
<text text-anchor="start" x="316" y="-787" font-family="Helvetica,sans-Serif" font-size="10.00" fill="#000000">&#45; name</text>
<polyline fill="none" stroke="#000000" points="308,-780 408,-780 "/>
<text text-anchor="start" x="316" y="-768" font-family="Helvetica,sans-Serif" font-size="10.00" fill="#000000">+ BState()</text>
<text text-anchor="start" x="316" y="-757" font-family="Helvetica,sans-Serif" font-size="10.00" fill="#000000">+ ~BState()</text>
<text text-anchor="start" x="316" y="-746" font-family="Helvetica,sans-Serif" font-size="10.00" fill="#000000">+ getTransitions()</text>
<text text-anchor="start" x="316" y="-735" font-family="Helvetica,sans-Serif" font-size="10.00" fill="#000000">+ getSTransitions()</text>
<text text-anchor="start" x="316" y="-724" font-family="Helvetica,sans-Serif" font-size="10.00" fill="#000000">+ addTransition()</text>
<text text-anchor="start" x="316" y="-713" font-family="Helvetica,sans-Serif" font-size="10.00" fill="#000000">+ addTransition()</text>
<text text-anchor="start" x="316" y="-702" font-family="Helvetica,sans-Serif" font-size="10.00" fill="#000000">+ getName()</text>
</a>
</g>
</g>
<!-- Node2&#45;&gt;Node1 -->
<g id="edge1" class="edge">
<title>Node2&#45;&gt;Node1</title>
<path fill="none" stroke="#404040" d="M317.411,-694.7131C311.8374,-688.4448 305.6985,-682.71 299,-678 226.4277,-626.9717 177.1685,-682.5977 105,-631 92.8242,-622.2947 82.6354,-610.0998 74.3989,-597.5072"/>
<polygon fill="none" stroke="#404040" points="74.1823,-597.1515 67.6445,-594.1088 67.9386,-586.9037 74.4764,-589.9464 74.1823,-597.1515"/>
<text text-anchor="middle" x="288.5" y="-652" font-family="Helvetica,sans-Serif" font-size="10.00" fill="#000000"> &#45;targetState</text>
</g>
<!-- Node2&#45;&gt;Node4 -->
<g id="edge7" class="edge">
<title>Node2&#45;&gt;Node4</title>
<path fill="none" stroke="#404040" d="M357.5993,-694.9634C355.054,-629.4362 345.7367,-531.3899 315,-452 300.6437,-414.9191 276.3826,-378.0583 254.0125,-348.7027"/>
<polygon fill="none" stroke="#404040" points="253.8742,-348.5245 247.0353,-346.2379 246.5156,-339.0455 253.3546,-341.3322 253.8742,-348.5245"/>
<text text-anchor="middle" x="379" y="-550" font-family="Helvetica,sans-Serif" font-size="10.00" fill="#000000"> &#45;attack</text>
<text text-anchor="middle" x="379" y="-539" font-family="Helvetica,sans-Serif" font-size="10.00" fill="#000000">&#45;seekPlayer</text>
<text text-anchor="middle" x="379" y="-528" font-family="Helvetica,sans-Serif" font-size="10.00" fill="#000000">&#45;wander</text>
</g>
<!-- Node7 -->
<g id="node7" class="node">
<title>Node7</title>
<g id="a_node7"><a xlink:href="classBStateMachine.html" target="_top" xlink:title="{BStateMachine\n||+ BStateMachine()\l+ ~BStateMachine()\l+ setInitialState()\l+ update()\l+ getCurrentStateName()\l}">
<polygon fill="none" stroke="#000000" points="238.5,-.5 238.5,-101.5 365.5,-101.5 365.5,-.5 238.5,-.5"/>
<text text-anchor="middle" x="302" y="-89.5" font-family="Helvetica,sans-Serif" font-size="10.00" fill="#000000">BStateMachine</text>
<polyline fill="none" stroke="#000000" points="238.5,-82.5 365.5,-82.5 "/>
<text text-anchor="middle" x="302" y="-70.5" font-family="Helvetica,sans-Serif" font-size="10.00" fill="#000000"> </text>
<polyline fill="none" stroke="#000000" points="238.5,-63.5 365.5,-63.5 "/>
<text text-anchor="start" x="246.5" y="-51.5" font-family="Helvetica,sans-Serif" font-size="10.00" fill="#000000">+ BStateMachine()</text>
<text text-anchor="start" x="246.5" y="-40.5" font-family="Helvetica,sans-Serif" font-size="10.00" fill="#000000">+ ~BStateMachine()</text>
<text text-anchor="start" x="246.5" y="-29.5" font-family="Helvetica,sans-Serif" font-size="10.00" fill="#000000">+ setInitialState()</text>
<text text-anchor="start" x="246.5" y="-18.5" font-family="Helvetica,sans-Serif" font-size="10.00" fill="#000000">+ update()</text>
<text text-anchor="start" x="246.5" y="-7.5" font-family="Helvetica,sans-Serif" font-size="10.00" fill="#000000">+ getCurrentStateName()</text>
</a>
</g>
</g>
<!-- Node2&#45;&gt;Node7 -->
<g id="edge9" class="edge">
<title>Node2&#45;&gt;Node7</title>
<path fill="none" stroke="#404040" d="M389.9783,-694.7809C397.4025,-674.5271 404.2311,-652.2466 408,-631 447.8348,-406.436 454.8366,-327.8713 361,-120 359.7517,-117.2346 358.3575,-114.495 356.8464,-111.7929"/>
<polygon fill="none" stroke="#404040" points="356.8343,-111.7734 350.2698,-108.7889 350.5,-101.5814 357.0645,-104.566 356.8343,-111.7734"/>
<text text-anchor="middle" x="465" y="-426" font-family="Helvetica,sans-Serif" font-size="10.00" fill="#000000"> &#45;currentState</text>
<text text-anchor="middle" x="465" y="-415" font-family="Helvetica,sans-Serif" font-size="10.00" fill="#000000">&#45;initialState</text>
</g>
<!-- Node3 -->
<g id="node3" class="node">
<title>Node3</title>
<g id="a_node3"><a xlink:href="classCondition.html" target="_top" xlink:title="{Condition\n||+ Condition()\l+ ~Condition()\l+ test()\l}">
<polygon fill="none" stroke="#000000" points="57.5,-11.5 57.5,-90.5 136.5,-90.5 136.5,-11.5 57.5,-11.5"/>
<text text-anchor="middle" x="97" y="-78.5" font-family="Helvetica,sans-Serif" font-size="10.00" fill="#000000">Condition</text>
<polyline fill="none" stroke="#000000" points="57.5,-71.5 136.5,-71.5 "/>
<text text-anchor="middle" x="97" y="-59.5" font-family="Helvetica,sans-Serif" font-size="10.00" fill="#000000"> </text>
<polyline fill="none" stroke="#000000" points="57.5,-52.5 136.5,-52.5 "/>
<text text-anchor="start" x="65.5" y="-40.5" font-family="Helvetica,sans-Serif" font-size="10.00" fill="#000000">+ Condition()</text>
<text text-anchor="start" x="65.5" y="-29.5" font-family="Helvetica,sans-Serif" font-size="10.00" fill="#000000">+ ~Condition()</text>
<text text-anchor="start" x="65.5" y="-18.5" font-family="Helvetica,sans-Serif" font-size="10.00" fill="#000000">+ test()</text>
</a>
</g>
</g>
<!-- Node3&#45;&gt;Node1 -->
<g id="edge2" class="edge">
<title>Node3&#45;&gt;Node1</title>
<path fill="none" stroke="#404040" d="M90.8849,-90.7246C89.5102,-100.2982 88.1266,-110.5042 87,-120 71.5943,-249.8451 58.7642,-402.8057 52.3712,-484.0293"/>
<polygon fill="none" stroke="#404040" points="52.3553,-484.2329 55.8752,-490.5266 51.4195,-496.1964 47.8996,-489.9027 52.3553,-484.2329"/>
<text text-anchor="middle" x="103" y="-285.5" font-family="Helvetica,sans-Serif" font-size="10.00" fill="#000000"> &#45;condition</text>
</g>
<!-- Node3&#45;&gt;Node4 -->
<g id="edge12" class="edge">
<title>Node3&#45;&gt;Node4</title>
<path fill="none" stroke="#404040" d="M115.6101,-90.6953C120.0433,-100.2699 124.7266,-110.4838 129,-120 136.7137,-137.1773 144.7644,-155.396 152.5836,-173.2554"/>
<polygon fill="none" stroke="#404040" points="152.612,-173.3205 158.6799,-177.2168 157.4171,-184.3165 151.3492,-180.4202 152.612,-173.3205"/>
<text text-anchor="middle" x="186.5" y="-156" font-family="Helvetica,sans-Serif" font-size="10.00" fill="#000000"> &#45;outAttackRange</text>
<text text-anchor="middle" x="186.5" y="-145" font-family="Helvetica,sans-Serif" font-size="10.00" fill="#000000">&#45;ifInRange</text>
<text text-anchor="middle" x="186.5" y="-134" font-family="Helvetica,sans-Serif" font-size="10.00" fill="#000000">&#45;outOfRange</text>
<text text-anchor="middle" x="186.5" y="-123" font-family="Helvetica,sans-Serif" font-size="10.00" fill="#000000">&#45;inAttackRange</text>
</g>
<!-- Node4&#45;&gt;Node3 -->
<g id="edge3" class="edge">
<title>Node4&#45;&gt;Node3</title>
<path fill="none" stroke="#404040" d="M157.4503,-249.4368C135.0343,-227.0447 110.1057,-196.8194 98,-164 90.9211,-144.8086 89.4425,-122.5057 90.1767,-102.8091"/>
<polygon fill="none" stroke="#404040" points="90.1895,-102.5962 86.5598,-96.3652 90.9155,-90.6182 94.5451,-96.8492 90.1895,-102.5962"/>
<text text-anchor="middle" x="113.5" y="-139.5" font-family="Helvetica,sans-Serif" font-size="10.00" fill="#000000"> #actor</text>
</g>
<!-- Node4&#45;&gt;Node7 -->
<g id="edge10" class="edge">
<title>Node4&#45;&gt;Node7</title>
<path fill="none" stroke="#404040" d="M224.1116,-182.0996C230.4181,-160.9526 238.2917,-139.3197 248,-120 249.2966,-117.4197 250.6979,-114.8426 252.1812,-112.2824"/>
<polygon fill="none" stroke="#404040" points="252.3192,-112.0619 252.1098,-104.8538 258.6829,-101.8882 258.8923,-109.0963 252.3192,-112.0619"/>
<text text-anchor="middle" x="262" y="-139.5" font-family="Helvetica,sans-Serif" font-size="10.00" fill="#000000"> &#45;actor</text>
</g>
<!-- Node5 -->
<g id="node5" class="node">
<title>Node5</title>
<g id="a_node5"><a xlink:href="classActor.html" target="_top" xlink:title="{Actor\n|&#45; components\l|+ Actor()\l+ ~Actor()\l+ onCreate()\l+ onDestroy()\l+ update()\l+ draw()\l+ AddComponent()\l+ AddComponent()\l+ GetComponent()\l+ RemoveComponent()\l+ RemoveAllComponents()\l+ ListComponents()\l}">
<polygon fill="none" stroke="#000000" points="170.5,-452.5 170.5,-630.5 305.5,-630.5 305.5,-452.5 170.5,-452.5"/>
<text text-anchor="middle" x="238" y="-618.5" font-family="Helvetica,sans-Serif" font-size="10.00" fill="#000000">Actor</text>
<polyline fill="none" stroke="#000000" points="170.5,-611.5 305.5,-611.5 "/>
<text text-anchor="start" x="178.5" y="-599.5" font-family="Helvetica,sans-Serif" font-size="10.00" fill="#000000">&#45; components</text>
<polyline fill="none" stroke="#000000" points="170.5,-592.5 305.5,-592.5 "/>
<text text-anchor="start" x="178.5" y="-580.5" font-family="Helvetica,sans-Serif" font-size="10.00" fill="#000000">+ Actor()</text>
<text text-anchor="start" x="178.5" y="-569.5" font-family="Helvetica,sans-Serif" font-size="10.00" fill="#000000">+ ~Actor()</text>
<text text-anchor="start" x="178.5" y="-558.5" font-family="Helvetica,sans-Serif" font-size="10.00" fill="#000000">+ onCreate()</text>
<text text-anchor="start" x="178.5" y="-547.5" font-family="Helvetica,sans-Serif" font-size="10.00" fill="#000000">+ onDestroy()</text>
<text text-anchor="start" x="178.5" y="-536.5" font-family="Helvetica,sans-Serif" font-size="10.00" fill="#000000">+ update()</text>
<text text-anchor="start" x="178.5" y="-525.5" font-family="Helvetica,sans-Serif" font-size="10.00" fill="#000000">+ draw()</text>
<text text-anchor="start" x="178.5" y="-514.5" font-family="Helvetica,sans-Serif" font-size="10.00" fill="#000000">+ AddComponent()</text>
<text text-anchor="start" x="178.5" y="-503.5" font-family="Helvetica,sans-Serif" font-size="10.00" fill="#000000">+ AddComponent()</text>
<text text-anchor="start" x="178.5" y="-492.5" font-family="Helvetica,sans-Serif" font-size="10.00" fill="#000000">+ GetComponent()</text>
<text text-anchor="start" x="178.5" y="-481.5" font-family="Helvetica,sans-Serif" font-size="10.00" fill="#000000">+ RemoveComponent()</text>
<text text-anchor="start" x="178.5" y="-470.5" font-family="Helvetica,sans-Serif" font-size="10.00" fill="#000000">+ RemoveAllComponents()</text>
<text text-anchor="start" x="178.5" y="-459.5" font-family="Helvetica,sans-Serif" font-size="10.00" fill="#000000">+ ListComponents()</text>
</a>
</g>
</g>
<!-- Node5&#45;&gt;Node4 -->
<g id="edge4" class="edge">
<title>Node5&#45;&gt;Node4</title>
<path fill="none" stroke="#191970" d="M227.023,-442.0943C225.7388,-431.9205 224.3889,-421.7469 223,-412 222.153,-406.0556 221.2456,-399.9574 220.3006,-393.8071"/>
<polygon fill="none" stroke="#191970" points="223.5787,-442.7599 228.2843,-452.2524 230.5253,-441.8973 223.5787,-442.7599"/>
</g>
<!-- Node6 -->
<g id="node6" class="node">
<title>Node6</title>
<g id="a_node6"><a xlink:href="classComponent.html" target="_top" xlink:title="{Component\n|# isCreated\l|+ Component()\l+ ~Component()\l+ onCreate()\l+ onDestroy()\l+ update()\l+ draw()\l+ Component()\l+ ~Component()\l+ onCreate()\l+ onDestroy()\l+ update()\l+ draw()\l}">
<polygon fill="none" stroke="#000000" points="148,-678.5 148,-856.5 236,-856.5 236,-678.5 148,-678.5"/>
<text text-anchor="middle" x="192" y="-844.5" font-family="Helvetica,sans-Serif" font-size="10.00" fill="#000000">Component</text>
<polyline fill="none" stroke="#000000" points="148,-837.5 236,-837.5 "/>
<text text-anchor="start" x="156" y="-825.5" font-family="Helvetica,sans-Serif" font-size="10.00" fill="#000000"># isCreated</text>
<polyline fill="none" stroke="#000000" points="148,-818.5 236,-818.5 "/>
<text text-anchor="start" x="156" y="-806.5" font-family="Helvetica,sans-Serif" font-size="10.00" fill="#000000">+ Component()</text>
<text text-anchor="start" x="156" y="-795.5" font-family="Helvetica,sans-Serif" font-size="10.00" fill="#000000">+ ~Component()</text>
<text text-anchor="start" x="156" y="-784.5" font-family="Helvetica,sans-Serif" font-size="10.00" fill="#000000">+ onCreate()</text>
<text text-anchor="start" x="156" y="-773.5" font-family="Helvetica,sans-Serif" font-size="10.00" fill="#000000">+ onDestroy()</text>
<text text-anchor="start" x="156" y="-762.5" font-family="Helvetica,sans-Serif" font-size="10.00" fill="#000000">+ update()</text>
<text text-anchor="start" x="156" y="-751.5" font-family="Helvetica,sans-Serif" font-size="10.00" fill="#000000">+ draw()</text>
<text text-anchor="start" x="156" y="-740.5" font-family="Helvetica,sans-Serif" font-size="10.00" fill="#000000">+ Component()</text>
<text text-anchor="start" x="156" y="-729.5" font-family="Helvetica,sans-Serif" font-size="10.00" fill="#000000">+ ~Component()</text>
<text text-anchor="start" x="156" y="-718.5" font-family="Helvetica,sans-Serif" font-size="10.00" fill="#000000">+ onCreate()</text>
<text text-anchor="start" x="156" y="-707.5" font-family="Helvetica,sans-Serif" font-size="10.00" fill="#000000">+ onDestroy()</text>
<text text-anchor="start" x="156" y="-696.5" font-family="Helvetica,sans-Serif" font-size="10.00" fill="#000000">+ update()</text>
<text text-anchor="start" x="156" y="-685.5" font-family="Helvetica,sans-Serif" font-size="10.00" fill="#000000">+ draw()</text>
</a>
</g>
</g>
<!-- Node6&#45;&gt;Node5 -->
<g id="edge5" class="edge">
<title>Node6&#45;&gt;Node5</title>
<path fill="none" stroke="#191970" d="M212.2135,-668.1902C214.764,-655.6593 217.361,-642.9005 219.8763,-630.5424"/>
<polygon fill="none" stroke="#191970" points="208.7453,-667.6816 210.1804,-678.1788 215.6047,-669.0778 208.7453,-667.6816"/>
</g>
<!-- Node6&#45;&gt;Node6 -->
<g id="edge6" class="edge">
<title>Node6&#45;&gt;Node6</title>
<path fill="none" stroke="#404040" d="M236.0244,-788.0847C246.3686,-786.3928 254,-779.5313 254,-767.5 254,-760.5444 251.4494,-755.3167 247.2985,-751.8169"/>
<polygon fill="none" stroke="#404040" points="247.0293,-751.6999 239.932,-752.9759 236.0244,-746.9153 243.1217,-745.6393 247.0293,-751.6999"/>
<text text-anchor="middle" x="272" y="-765" font-family="Helvetica,sans-Serif" font-size="10.00" fill="#000000"> #parent</text>
</g>
<!-- Node7&#45;&gt;Node4 -->
<g id="edge8" class="edge">
<title>Node7&#45;&gt;Node4</title>
<path fill="none" stroke="#404040" d="M296.2226,-101.634C292.9089,-121.542 287.7969,-144.3013 280,-164 272.9076,-181.9187 263.1802,-200.0935 252.999,-216.803"/>
<polygon fill="none" stroke="#404040" points="252.9834,-216.828 253.1934,-224.036 246.6206,-227.0022 246.4106,-219.7942 252.9834,-216.828"/>
<text text-anchor="middle" x="324.5" y="-139.5" font-family="Helvetica,sans-Serif" font-size="10.00" fill="#000000"> &#45;stateMachine</text>
</g>
<!-- Node8 -->
<g id="node8" class="node">
<title>Node8</title>
<polygon fill="none" stroke="#bfbfbf" points="114,-513 114,-570 152,-570 152,-513 114,-513"/>
<text text-anchor="middle" x="133" y="-558" font-family="Helvetica,sans-Serif" font-size="10.00" fill="#000000">vec3</text>
<polyline fill="none" stroke="#bfbfbf" points="114,-551 152,-551 "/>
<text text-anchor="middle" x="133" y="-539" font-family="Helvetica,sans-Serif" font-size="10.00" fill="#000000"> </text>
<polyline fill="none" stroke="#bfbfbf" points="114,-532 152,-532 "/>
<text text-anchor="middle" x="133" y="-520" font-family="Helvetica,sans-Serif" font-size="10.00" fill="#000000"> </text>
</g>
<!-- Node8&#45;&gt;Node4 -->
<g id="edge13" class="edge">
<title>Node8&#45;&gt;Node4</title>
<path fill="none" stroke="#404040" d="M139.6646,-512.8507C145.883,-486.542 155.5903,-446.521 165,-412 165.5839,-409.8579 166.1778,-407.6964 166.7802,-405.5202"/>
<polygon fill="none" stroke="#404040" points="166.8352,-405.3235 164.6021,-398.4669 170.0724,-393.7684 172.3055,-400.625 166.8352,-405.3235"/>
<text text-anchor="middle" x="192" y="-420.5" font-family="Helvetica,sans-Serif" font-size="10.00" fill="#000000"> &#45;npc_colour</text>
</g>
</g>
</svg>
        <g id="navigator" transform="translate(0 0)" fill="#404254">
                <rect fill="#f2f5e9" fill-opacity="0.5" stroke="#606060" stroke-width=".5" x="0" y="0" width="60" height="60"/>
                <use id="zoomplus" xlink:href="#zoomPlus" x="17" y="9" onmousedown="handleZoom(evt,'in')"/>
                <use id="zoomminus" xlink:href="#zoomMin" x="42" y="9" onmousedown="handleZoom(evt,'out')"/>
                <use id="reset" xlink:href="#resetDef" x="30" y="36" onmousedown="handleReset()"/>
                <g id="arrowUp" xlink:href="#dirArrow" transform="translate(30 24)" onmousedown="handlePan(0,-1)">
                  <use xlink:href="#rim" fill="#404040">
                        <set attributeName="fill" to="#808080" begin="arrowUp.mouseover" end="arrowUp.mouseout"/>
                  </use>
                  <path fill="none" stroke="white" stroke-width="1.5" d="M0,-3.0v7 M-2.5,-0.5L0,-3.0L2.5,-0.5"/>
                </g>
                <g id="arrowRight" xlink:href="#dirArrow" transform="rotate(90) translate(36 -43)" onmousedown="handlePan(1,0)">
                  <use xlink:href="#rim" fill="#404040">
                        <set attributeName="fill" to="#808080" begin="arrowRight.mouseover" end="arrowRight.mouseout"/>
                  </use>
                  <path fill="none" stroke="white" stroke-width="1.5" d="M0,-3.0v7 M-2.5,-0.5L0,-3.0L2.5,-0.5"/>
                </g>
                <g id="arrowDown" xlink:href="#dirArrow" transform="rotate(180) translate(-30 -48)" onmousedown="handlePan(0,1)">
                  <use xlink:href="#rim" fill="#404040">
                        <set attributeName="fill" to="#808080" begin="arrowDown.mouseover" end="arrowDown.mouseout"/>
                  </use>
                  <path fill="none" stroke="white" stroke-width="1.5" d="M0,-3.0v7 M-2.5,-0.5L0,-3.0L2.5,-0.5"/>
                </g>
                <g id="arrowLeft" xlink:href="#dirArrow" transform="rotate(270) translate(-36 17)" onmousedown="handlePan(-1,0)">
                  <use xlink:href="#rim" fill="#404040">
                        <set attributeName="fill" to="#808080" begin="arrowLeft.mouseover" end="arrowLeft.mouseout"/>
                  </use>
                  <path fill="none" stroke="white" stroke-width="1.5" d="M0,-3.0v7 M-2.5,-0.5L0,-3.0L2.5,-0.5"/>
                </g>
        </g>
        <svg viewBox="0 0 15 15" width="100%" height="30px" preserveAspectRatio="xMaxYMin meet">
         <g id="arrow_out" transform="scale(0.3 0.3)">
          <a xlink:href="classTransition__coll__graph_org.svg" target="_base">
           <rect id="button" ry="5" rx="5" y="6" x="6" height="38" width="38"
                fill="#f2f5e9" fill-opacity="0.5" stroke="#606060" stroke-width="1.0"/>
           <path id="arrow"
             d="M 11.500037,31.436501 C 11.940474,20.09759 22.043105,11.32322 32.158766,21.979434 L 37.068811,17.246167 C 37.068811,17.246167 37.088388,32 37.088388,32 L 22.160133,31.978069 C 22.160133,31.978069 26.997745,27.140456 26.997745,27.140456 C 18.528582,18.264221 13.291696,25.230495 11.500037,31.436501 z"
             style="fill:#404040;"/>
          </a>
         </g>
        </svg>
</svg>
