<?xml version="1.0" encoding="UTF-8" standalone="no"?>
<!DOCTYPE svg PUBLIC "-//W3C//DTD SVG 1.1//EN"
 "http://www.w3.org/Graphics/SVG/1.1/DTD/svg11.dtd">
<!-- Generated by graphviz version 2.40.1 (20161225.0304)
 -->
<!-- Title: GenericDocument&lt; Encoding, Allocator, StackAllocator &gt; Pages: 1 -->
<svg width="1289pt" height="1228pt"
 viewBox="0.00 0.00 1288.50 1228.00" xmlns="http://www.w3.org/2000/svg" xmlns:xlink="http://www.w3.org/1999/xlink">
<g id="graph0" class="graph" transform="scale(1 1) rotate(0) translate(4 1224)">
<title>GenericDocument&lt; Encoding, Allocator, StackAllocator &gt;</title>
<!-- Node2 -->
<g id="node1" class="node">
<title>Node2</title>
<polygon fill="#bfbfbf" stroke="#000000" points="138.5,-116.5 138.5,-679.5 286.5,-679.5 286.5,-116.5 138.5,-116.5"/>
<text text-anchor="start" x="146.5" y="-667.5" font-family="Helvetica,sans-Serif" font-size="10.00" fill="#000000">GenericDocument&lt; Encoding,</text>
<text text-anchor="middle" x="212.5" y="-656.5" font-family="Helvetica,sans-Serif" font-size="10.00" fill="#000000"> Allocator, StackAllocator &gt;</text>
<polyline fill="none" stroke="#000000" points="138.5,-649.5 286.5,-649.5 "/>
<text text-anchor="start" x="146.5" y="-637.5" font-family="Helvetica,sans-Serif" font-size="10.00" fill="#000000">&#45; allocator_</text>
<text text-anchor="start" x="146.5" y="-626.5" font-family="Helvetica,sans-Serif" font-size="10.00" fill="#000000">&#45; ownAllocator_</text>
<polyline fill="none" stroke="#000000" points="138.5,-619.5 286.5,-619.5 "/>
<text text-anchor="start" x="146.5" y="-607.5" font-family="Helvetica,sans-Serif" font-size="10.00" fill="#000000">+ GenericDocument()</text>
<text text-anchor="start" x="146.5" y="-596.5" font-family="Helvetica,sans-Serif" font-size="10.00" fill="#000000">+ GenericDocument()</text>
<text text-anchor="start" x="146.5" y="-585.5" font-family="Helvetica,sans-Serif" font-size="10.00" fill="#000000">+ ~GenericDocument()</text>
<text text-anchor="start" x="146.5" y="-574.5" font-family="Helvetica,sans-Serif" font-size="10.00" fill="#000000">+ Swap()</text>
<text text-anchor="start" x="146.5" y="-563.5" font-family="Helvetica,sans-Serif" font-size="10.00" fill="#000000">+ Populate()</text>
<text text-anchor="start" x="146.5" y="-552.5" font-family="Helvetica,sans-Serif" font-size="10.00" fill="#000000">+ GetAllocator()</text>
<text text-anchor="start" x="146.5" y="-541.5" font-family="Helvetica,sans-Serif" font-size="10.00" fill="#000000">+ GetStackCapacity()</text>
<text text-anchor="start" x="146.5" y="-530.5" font-family="Helvetica,sans-Serif" font-size="10.00" fill="#000000">+ Null()</text>
<text text-anchor="start" x="146.5" y="-519.5" font-family="Helvetica,sans-Serif" font-size="10.00" fill="#000000">+ Bool()</text>
<text text-anchor="start" x="146.5" y="-508.5" font-family="Helvetica,sans-Serif" font-size="10.00" fill="#000000">+ Int()</text>
<text text-anchor="start" x="146.5" y="-497.5" font-family="Helvetica,sans-Serif" font-size="10.00" fill="#000000">and 11 more...</text>
<text text-anchor="start" x="146.5" y="-486.5" font-family="Helvetica,sans-Serif" font-size="10.00" fill="#000000">+ ParseStream()</text>
<text text-anchor="start" x="146.5" y="-475.5" font-family="Helvetica,sans-Serif" font-size="10.00" fill="#000000">+ ParseStream()</text>
<text text-anchor="start" x="146.5" y="-464.5" font-family="Helvetica,sans-Serif" font-size="10.00" fill="#000000">+ ParseStream()</text>
<text text-anchor="start" x="146.5" y="-453.5" font-family="Helvetica,sans-Serif" font-size="10.00" fill="#000000">+ ParseInsitu()</text>
<text text-anchor="start" x="146.5" y="-442.5" font-family="Helvetica,sans-Serif" font-size="10.00" fill="#000000">+ ParseInsitu()</text>
<text text-anchor="start" x="146.5" y="-431.5" font-family="Helvetica,sans-Serif" font-size="10.00" fill="#000000">+ Parse()</text>
<text text-anchor="start" x="146.5" y="-420.5" font-family="Helvetica,sans-Serif" font-size="10.00" fill="#000000">+ Parse()</text>
<text text-anchor="start" x="146.5" y="-409.5" font-family="Helvetica,sans-Serif" font-size="10.00" fill="#000000">+ Parse()</text>
<text text-anchor="start" x="146.5" y="-398.5" font-family="Helvetica,sans-Serif" font-size="10.00" fill="#000000">+ Parse()</text>
<text text-anchor="start" x="146.5" y="-387.5" font-family="Helvetica,sans-Serif" font-size="10.00" fill="#000000">+ Parse()</text>
<text text-anchor="start" x="146.5" y="-376.5" font-family="Helvetica,sans-Serif" font-size="10.00" fill="#000000">+ Parse()</text>
<text text-anchor="start" x="146.5" y="-365.5" font-family="Helvetica,sans-Serif" font-size="10.00" fill="#000000">+ HasParseError()</text>
<text text-anchor="start" x="146.5" y="-354.5" font-family="Helvetica,sans-Serif" font-size="10.00" fill="#000000">+ GetParseError()</text>
<text text-anchor="start" x="146.5" y="-343.5" font-family="Helvetica,sans-Serif" font-size="10.00" fill="#000000">+ GetErrorOffset()</text>
<text text-anchor="start" x="146.5" y="-332.5" font-family="Helvetica,sans-Serif" font-size="10.00" fill="#000000">+ operator ParseResult()</text>
<text text-anchor="start" x="146.5" y="-321.5" font-family="Helvetica,sans-Serif" font-size="10.00" fill="#000000">&#45; GenericDocument()</text>
<text text-anchor="start" x="146.5" y="-310.5" font-family="Helvetica,sans-Serif" font-size="10.00" fill="#000000">&#45; operator=()</text>
<text text-anchor="start" x="146.5" y="-299.5" font-family="Helvetica,sans-Serif" font-size="10.00" fill="#000000">&#45; ClearStack()</text>
<text text-anchor="start" x="146.5" y="-288.5" font-family="Helvetica,sans-Serif" font-size="10.00" fill="#000000">&#45; Destroy()</text>
<text text-anchor="start" x="146.5" y="-277.5" font-family="Helvetica,sans-Serif" font-size="10.00" fill="#000000">* ParseStream()</text>
<text text-anchor="start" x="146.5" y="-266.5" font-family="Helvetica,sans-Serif" font-size="10.00" fill="#000000">* ParseStream()</text>
<text text-anchor="start" x="146.5" y="-255.5" font-family="Helvetica,sans-Serif" font-size="10.00" fill="#000000">* ParseStream()</text>
<text text-anchor="start" x="146.5" y="-244.5" font-family="Helvetica,sans-Serif" font-size="10.00" fill="#000000">* ParseInsitu()</text>
<text text-anchor="start" x="146.5" y="-233.5" font-family="Helvetica,sans-Serif" font-size="10.00" fill="#000000">* ParseInsitu()</text>
<text text-anchor="start" x="146.5" y="-222.5" font-family="Helvetica,sans-Serif" font-size="10.00" fill="#000000">* Parse()</text>
<text text-anchor="start" x="146.5" y="-211.5" font-family="Helvetica,sans-Serif" font-size="10.00" fill="#000000">* Parse()</text>
<text text-anchor="start" x="146.5" y="-200.5" font-family="Helvetica,sans-Serif" font-size="10.00" fill="#000000">* Parse()</text>
<text text-anchor="start" x="146.5" y="-189.5" font-family="Helvetica,sans-Serif" font-size="10.00" fill="#000000">* Parse()</text>
<text text-anchor="start" x="146.5" y="-178.5" font-family="Helvetica,sans-Serif" font-size="10.00" fill="#000000">* Parse()</text>
<text text-anchor="start" x="146.5" y="-167.5" font-family="Helvetica,sans-Serif" font-size="10.00" fill="#000000">* Parse()</text>
<text text-anchor="start" x="146.5" y="-156.5" font-family="Helvetica,sans-Serif" font-size="10.00" fill="#000000">* HasParseError()</text>
<text text-anchor="start" x="146.5" y="-145.5" font-family="Helvetica,sans-Serif" font-size="10.00" fill="#000000">* GetParseError()</text>
<text text-anchor="start" x="146.5" y="-134.5" font-family="Helvetica,sans-Serif" font-size="10.00" fill="#000000">* GetErrorOffset()</text>
<text text-anchor="start" x="146.5" y="-123.5" font-family="Helvetica,sans-Serif" font-size="10.00" fill="#000000">* operator ParseResult()</text>
</g>
<!-- Node3 -->
<g id="node2" class="node">
<title>Node3</title>
<g id="a_node2"><a xlink:href="classGenericValue.html" target="_top" xlink:title="Represents a JSON value. Use Value for UTF8 encoding and default allocator. ">
<polygon fill="none" stroke="#000000" points="469,-727.5 469,-1114.5 610,-1114.5 610,-727.5 469,-727.5"/>
<text text-anchor="start" x="477" y="-1102.5" font-family="Helvetica,sans-Serif" font-size="10.00" fill="#000000">GenericValue&lt; Encoding,</text>
<text text-anchor="middle" x="539.5" y="-1091.5" font-family="Helvetica,sans-Serif" font-size="10.00" fill="#000000"> Allocator &gt;</text>
<polyline fill="none" stroke="#000000" points="469,-1084.5 610,-1084.5 "/>
<text text-anchor="start" x="477" y="-1072.5" font-family="Helvetica,sans-Serif" font-size="10.00" fill="#000000">+ kDefaultArrayCapacity</text>
<text text-anchor="start" x="477" y="-1061.5" font-family="Helvetica,sans-Serif" font-size="10.00" fill="#000000">+ kDefaultObjectCapacity</text>
<polyline fill="none" stroke="#000000" points="469,-1054.5 610,-1054.5 "/>
<text text-anchor="start" x="477" y="-1042.5" font-family="Helvetica,sans-Serif" font-size="10.00" fill="#000000">+ RAPIDJSON_DISABLEIF</text>
<text text-anchor="start" x="477" y="-1031.5" font-family="Helvetica,sans-Serif" font-size="10.00" fill="#000000">_RETURN()</text>
<text text-anchor="start" x="477" y="-1020.5" font-family="Helvetica,sans-Serif" font-size="10.00" fill="#000000">+ GetStringPointer()</text>
<text text-anchor="start" x="477" y="-1009.5" font-family="Helvetica,sans-Serif" font-size="10.00" fill="#000000">+ SetStringPointer()</text>
<text text-anchor="start" x="477" y="-998.5" font-family="Helvetica,sans-Serif" font-size="10.00" fill="#000000">+ GetElementsPointer()</text>
<text text-anchor="start" x="477" y="-987.5" font-family="Helvetica,sans-Serif" font-size="10.00" fill="#000000">+ SetElementsPointer()</text>
<text text-anchor="start" x="477" y="-976.5" font-family="Helvetica,sans-Serif" font-size="10.00" fill="#000000">+ GetMembersPointer()</text>
<text text-anchor="start" x="477" y="-965.5" font-family="Helvetica,sans-Serif" font-size="10.00" fill="#000000">+ SetMembersPointer()</text>
<text text-anchor="start" x="477" y="-954.5" font-family="Helvetica,sans-Serif" font-size="10.00" fill="#000000">+ DoAllocMembers()</text>
<text text-anchor="start" x="477" y="-943.5" font-family="Helvetica,sans-Serif" font-size="10.00" fill="#000000">+ DoReserveMembers()</text>
<text text-anchor="start" x="477" y="-932.5" font-family="Helvetica,sans-Serif" font-size="10.00" fill="#000000">+ DoFindMember()</text>
<text text-anchor="start" x="477" y="-921.5" font-family="Helvetica,sans-Serif" font-size="10.00" fill="#000000">and 12 more...</text>
<text text-anchor="start" x="477" y="-910.5" font-family="Helvetica,sans-Serif" font-size="10.00" fill="#000000">+ operator=()</text>
<text text-anchor="start" x="477" y="-899.5" font-family="Helvetica,sans-Serif" font-size="10.00" fill="#000000">+ operator=()</text>
<text text-anchor="start" x="477" y="-888.5" font-family="Helvetica,sans-Serif" font-size="10.00" fill="#000000">+ DataString()</text>
<text text-anchor="start" x="477" y="-877.5" font-family="Helvetica,sans-Serif" font-size="10.00" fill="#000000">+ DataStringLength()</text>
<text text-anchor="start" x="477" y="-866.5" font-family="Helvetica,sans-Serif" font-size="10.00" fill="#000000">* GenericValue()</text>
<text text-anchor="start" x="477" y="-855.5" font-family="Helvetica,sans-Serif" font-size="10.00" fill="#000000">* GenericValue()</text>
<text text-anchor="start" x="477" y="-844.5" font-family="Helvetica,sans-Serif" font-size="10.00" fill="#000000">* GenericValue()</text>
<text text-anchor="start" x="477" y="-833.5" font-family="Helvetica,sans-Serif" font-size="10.00" fill="#000000">* GenericValue()</text>
<text text-anchor="start" x="477" y="-822.5" font-family="Helvetica,sans-Serif" font-size="10.00" fill="#000000">* GenericValue()</text>
<text text-anchor="start" x="477" y="-811.5" font-family="Helvetica,sans-Serif" font-size="10.00" fill="#000000">* GenericValue()</text>
<text text-anchor="start" x="477" y="-800.5" font-family="Helvetica,sans-Serif" font-size="10.00" fill="#000000">* GenericValue()</text>
<text text-anchor="start" x="477" y="-789.5" font-family="Helvetica,sans-Serif" font-size="10.00" fill="#000000">* GenericValue()</text>
<text text-anchor="start" x="477" y="-778.5" font-family="Helvetica,sans-Serif" font-size="10.00" fill="#000000">* GenericValue()</text>
<text text-anchor="start" x="477" y="-767.5" font-family="Helvetica,sans-Serif" font-size="10.00" fill="#000000">* GenericValue()</text>
<text text-anchor="start" x="477" y="-756.5" font-family="Helvetica,sans-Serif" font-size="10.00" fill="#000000">and 8 more...</text>
<text text-anchor="start" x="477" y="-745.5" font-family="Helvetica,sans-Serif" font-size="10.00" fill="#000000">* operator=()</text>
<text text-anchor="start" x="477" y="-734.5" font-family="Helvetica,sans-Serif" font-size="10.00" fill="#000000">* operator=()</text>
</a>
</g>
</g>
<!-- Node3&#45;&gt;Node2 -->
<g id="edge1" class="edge">
<title>Node3&#45;&gt;Node2</title>
<path fill="none" stroke="#191970" d="M461.03,-727.4289C460.8537,-727.2855 460.6771,-727.1425 460.5,-727 423.9577,-697.5865 393.7222,-737.5482 356.5,-709 328.1724,-687.2736 305.2132,-658.6477 286.662,-627.55"/>
<polygon fill="none" stroke="#191970" points="458.8815,-730.2006 468.6999,-734.1817 463.5072,-724.9466 458.8815,-730.2006"/>
</g>
<!-- Node6 -->
<g id="node5" class="node">
<title>Node6</title>
<g id="a_node5"><a xlink:href="structGenericValue_1_1ArrayData.html" target="_top" xlink:title="{GenericValue\&lt; Encoding,\l Allocator \&gt;::ArrayData\n|+ size\l+ capacity\l|}">
<polygon fill="none" stroke="#000000" points="568.5,-358.5 568.5,-437.5 696.5,-437.5 696.5,-358.5 568.5,-358.5"/>
<text text-anchor="start" x="576.5" y="-425.5" font-family="Helvetica,sans-Serif" font-size="10.00" fill="#000000">GenericValue&lt; Encoding,</text>
<text text-anchor="middle" x="632.5" y="-414.5" font-family="Helvetica,sans-Serif" font-size="10.00" fill="#000000"> Allocator &gt;::ArrayData</text>
<polyline fill="none" stroke="#000000" points="568.5,-407.5 696.5,-407.5 "/>
<text text-anchor="start" x="576.5" y="-395.5" font-family="Helvetica,sans-Serif" font-size="10.00" fill="#000000">+ size</text>
<text text-anchor="start" x="576.5" y="-384.5" font-family="Helvetica,sans-Serif" font-size="10.00" fill="#000000">+ capacity</text>
<polyline fill="none" stroke="#000000" points="568.5,-377.5 696.5,-377.5 "/>
<text text-anchor="middle" x="632.5" y="-365.5" font-family="Helvetica,sans-Serif" font-size="10.00" fill="#000000"> </text>
</a>
</g>
</g>
<!-- Node3&#45;&gt;Node6 -->
<g id="edge5" class="edge">
<title>Node3&#45;&gt;Node6</title>
<path fill="none" stroke="#404040" d="M573.9316,-727.3687C591.6288,-627.8456 611.8315,-514.2324 623.2859,-449.817"/>
<polygon fill="none" stroke="#404040" points="623.3558,-449.4234 620.4681,-442.8157 625.4568,-437.6087 628.3445,-444.2163 623.3558,-449.4234"/>
<text text-anchor="middle" x="602" y="-701" font-family="Helvetica,sans-Serif" font-size="10.00" fill="#000000"> +elements</text>
</g>
<!-- Node4 -->
<g id="node3" class="node">
<title>Node4</title>
<g id="a_node3"><a xlink:href="unionGenericValue_1_1Data.html" target="_top" xlink:title="{GenericValue\&lt; Encoding,\l Allocator \&gt;::Data\n||}">
<polygon fill="none" stroke="#000000" points="714.5,-.5 714.5,-68.5 842.5,-68.5 842.5,-.5 714.5,-.5"/>
<text text-anchor="start" x="722.5" y="-56.5" font-family="Helvetica,sans-Serif" font-size="10.00" fill="#000000">GenericValue&lt; Encoding,</text>
<text text-anchor="middle" x="778.5" y="-45.5" font-family="Helvetica,sans-Serif" font-size="10.00" fill="#000000"> Allocator &gt;::Data</text>
<polyline fill="none" stroke="#000000" points="714.5,-38.5 842.5,-38.5 "/>
<text text-anchor="middle" x="778.5" y="-26.5" font-family="Helvetica,sans-Serif" font-size="10.00" fill="#000000"> </text>
<polyline fill="none" stroke="#000000" points="714.5,-19.5 842.5,-19.5 "/>
<text text-anchor="middle" x="778.5" y="-7.5" font-family="Helvetica,sans-Serif" font-size="10.00" fill="#000000"> </text>
</a>
</g>
</g>
<!-- Node4&#45;&gt;Node3 -->
<g id="edge2" class="edge">
<title>Node4&#45;&gt;Node3</title>
<path fill="none" stroke="#404040" d="M714.2334,-38.0523C612.3542,-45.1758 421.026,-65.1344 379.5,-116 300.2386,-213.088 316.9511,-571.3902 379.5,-680 400.2716,-716.0678 433.1849,-695.5957 460.5,-727 460.679,-727.2058 460.8576,-727.412 461.0359,-727.6188"/>
<polygon fill="none" stroke="#404040" points="461.2549,-727.8891 468.1401,-730.0326 468.8097,-737.2125 461.9245,-735.0691 461.2549,-727.8891"/>
<text text-anchor="middle" x="396.5" y="-395.5" font-family="Helvetica,sans-Serif" font-size="10.00" fill="#000000"> +data_</text>
</g>
<!-- Node5 -->
<g id="node4" class="node">
<title>Node5</title>
<g id="a_node4"><a xlink:href="structGenericValue_1_1String.html" target="_top" xlink:title="{GenericValue\&lt; Encoding,\l Allocator \&gt;::String\n|+ length\l+ hashcode\l+ str\l|}">
<polygon fill="none" stroke="#000000" points="422.5,-353 422.5,-443 550.5,-443 550.5,-353 422.5,-353"/>
<text text-anchor="start" x="430.5" y="-431" font-family="Helvetica,sans-Serif" font-size="10.00" fill="#000000">GenericValue&lt; Encoding,</text>
<text text-anchor="middle" x="486.5" y="-420" font-family="Helvetica,sans-Serif" font-size="10.00" fill="#000000"> Allocator &gt;::String</text>
<polyline fill="none" stroke="#000000" points="422.5,-413 550.5,-413 "/>
<text text-anchor="start" x="430.5" y="-401" font-family="Helvetica,sans-Serif" font-size="10.00" fill="#000000">+ length</text>
<text text-anchor="start" x="430.5" y="-390" font-family="Helvetica,sans-Serif" font-size="10.00" fill="#000000">+ hashcode</text>
<text text-anchor="start" x="430.5" y="-379" font-family="Helvetica,sans-Serif" font-size="10.00" fill="#000000">+ str</text>
<polyline fill="none" stroke="#000000" points="422.5,-372 550.5,-372 "/>
<text text-anchor="middle" x="486.5" y="-360" font-family="Helvetica,sans-Serif" font-size="10.00" fill="#000000"> </text>
</a>
</g>
</g>
<!-- Node5&#45;&gt;Node4 -->
<g id="edge3" class="edge">
<title>Node5&#45;&gt;Node4</title>
<path fill="none" stroke="#404040" d="M485.9365,-352.9991C487.6,-291.8313 499.5459,-182.4682 559.5,-116 596.197,-75.3158 655.1259,-54.8753 702.616,-44.6421"/>
<polygon fill="none" stroke="#404040" points="702.6609,-44.6331 707.7489,-39.5231 714.4228,-42.2543 709.3348,-47.3643 702.6609,-44.6331"/>
<text text-anchor="middle" x="600" y="-90" font-family="Helvetica,sans-Serif" font-size="10.00" fill="#000000"> +s</text>
</g>
<!-- Node6&#45;&gt;Node4 -->
<g id="edge4" class="edge">
<title>Node6&#45;&gt;Node4</title>
<path fill="none" stroke="#404040" d="M636.7366,-358.4665C644.0916,-301.8719 662.7476,-195.7925 705.5,-116 712.7911,-102.392 722.8104,-89.21 733.0907,-77.5551"/>
<polygon fill="none" stroke="#404040" points="733.2329,-77.4 734.3407,-70.2745 741.3442,-68.5565 740.2364,-75.682 733.2329,-77.4"/>
<text text-anchor="middle" x="731" y="-90" font-family="Helvetica,sans-Serif" font-size="10.00" fill="#000000"> +a</text>
</g>
<!-- Node7 -->
<g id="node6" class="node">
<title>Node7</title>
<g id="a_node6"><a xlink:href="structGenericValue_1_1ObjectData.html" target="_top" xlink:title="{GenericValue\&lt; Encoding,\l Allocator \&gt;::ObjectData\n|+ size\l+ capacity\l|}">
<polygon fill="none" stroke="#000000" points="714.5,-358.5 714.5,-437.5 842.5,-437.5 842.5,-358.5 714.5,-358.5"/>
<text text-anchor="start" x="722.5" y="-425.5" font-family="Helvetica,sans-Serif" font-size="10.00" fill="#000000">GenericValue&lt; Encoding,</text>
<text text-anchor="middle" x="778.5" y="-414.5" font-family="Helvetica,sans-Serif" font-size="10.00" fill="#000000"> Allocator &gt;::ObjectData</text>
<polyline fill="none" stroke="#000000" points="714.5,-407.5 842.5,-407.5 "/>
<text text-anchor="start" x="722.5" y="-395.5" font-family="Helvetica,sans-Serif" font-size="10.00" fill="#000000">+ size</text>
<text text-anchor="start" x="722.5" y="-384.5" font-family="Helvetica,sans-Serif" font-size="10.00" fill="#000000">+ capacity</text>
<polyline fill="none" stroke="#000000" points="714.5,-377.5 842.5,-377.5 "/>
<text text-anchor="middle" x="778.5" y="-365.5" font-family="Helvetica,sans-Serif" font-size="10.00" fill="#000000"> </text>
</a>
</g>
</g>
<!-- Node7&#45;&gt;Node4 -->
<g id="edge6" class="edge">
<title>Node7&#45;&gt;Node4</title>
<path fill="none" stroke="#404040" d="M778.5,-358.4072C778.5,-290.7094 778.5,-153.0541 778.5,-80.9365"/>
<polygon fill="none" stroke="#404040" points="778.5001,-80.6844 774.5,-74.6845 778.5,-68.6844 782.5,-74.6844 778.5001,-80.6844"/>
<text text-anchor="middle" x="786" y="-90" font-family="Helvetica,sans-Serif" font-size="10.00" fill="#000000"> +o</text>
</g>
<!-- Node8 -->
<g id="node7" class="node">
<title>Node8</title>
<g id="a_node7"><a xlink:href="classGenericMember.html" target="_top" xlink:title="Name&#45;value pair in a JSON object value. ">
<polygon fill="none" stroke="#000000" points="704.5,-876 704.5,-966 842.5,-966 842.5,-876 704.5,-876"/>
<text text-anchor="start" x="712.5" y="-954" font-family="Helvetica,sans-Serif" font-size="10.00" fill="#000000">GenericMember&lt; Encoding,</text>
<text text-anchor="middle" x="773.5" y="-943" font-family="Helvetica,sans-Serif" font-size="10.00" fill="#000000"> Allocator &gt;</text>
<polyline fill="none" stroke="#000000" points="704.5,-936 842.5,-936 "/>
<text text-anchor="start" x="712.5" y="-924" font-family="Helvetica,sans-Serif" font-size="10.00" fill="#000000">+ name</text>
<text text-anchor="start" x="712.5" y="-913" font-family="Helvetica,sans-Serif" font-size="10.00" fill="#000000">+ value</text>
<polyline fill="none" stroke="#000000" points="704.5,-906 842.5,-906 "/>
<text text-anchor="start" x="712.5" y="-894" font-family="Helvetica,sans-Serif" font-size="10.00" fill="#000000">+ operator=()</text>
<text text-anchor="start" x="712.5" y="-883" font-family="Helvetica,sans-Serif" font-size="10.00" fill="#000000">&#45; GenericMember()</text>
</a>
</g>
</g>
<!-- Node8&#45;&gt;Node7 -->
<g id="edge7" class="edge">
<title>Node8&#45;&gt;Node7</title>
<path fill="none" stroke="#404040" d="M773.9306,-875.9567C774.855,-779.2689 777.0246,-552.3269 778.0044,-449.8431"/>
<polygon fill="none" stroke="#404040" points="778.0058,-449.6871 774.0634,-443.6491 778.1206,-437.6876 782.063,-443.7256 778.0058,-449.6871"/>
<text text-anchor="middle" x="800.5" y="-701" font-family="Helvetica,sans-Serif" font-size="10.00" fill="#000000"> +members</text>
</g>
<!-- Node9 -->
<g id="node8" class="node">
<title>Node9</title>
<g id="a_node8"><a xlink:href="unionGenericValue_1_1Number.html" target="_top" xlink:title="{GenericValue\&lt; Encoding,\l Allocator \&gt;::Number\n|+ i64\l+ u64\l+ d\l|}">
<polygon fill="none" stroke="#000000" points="860.5,-353 860.5,-443 988.5,-443 988.5,-353 860.5,-353"/>
<text text-anchor="start" x="868.5" y="-431" font-family="Helvetica,sans-Serif" font-size="10.00" fill="#000000">GenericValue&lt; Encoding,</text>
<text text-anchor="middle" x="924.5" y="-420" font-family="Helvetica,sans-Serif" font-size="10.00" fill="#000000"> Allocator &gt;::Number</text>
<polyline fill="none" stroke="#000000" points="860.5,-413 988.5,-413 "/>
<text text-anchor="start" x="868.5" y="-401" font-family="Helvetica,sans-Serif" font-size="10.00" fill="#000000">+ i64</text>
<text text-anchor="start" x="868.5" y="-390" font-family="Helvetica,sans-Serif" font-size="10.00" fill="#000000">+ u64</text>
<text text-anchor="start" x="868.5" y="-379" font-family="Helvetica,sans-Serif" font-size="10.00" fill="#000000">+ d</text>
<polyline fill="none" stroke="#000000" points="860.5,-372 988.5,-372 "/>
<text text-anchor="middle" x="924.5" y="-360" font-family="Helvetica,sans-Serif" font-size="10.00" fill="#000000"> </text>
</a>
</g>
</g>
<!-- Node9&#45;&gt;Node4 -->
<g id="edge8" class="edge">
<title>Node9&#45;&gt;Node4</title>
<path fill="none" stroke="#404040" d="M919.5192,-352.8619C911.685,-295.0839 892.879,-193.2294 851.5,-116 844.2089,-102.392 834.1896,-89.21 823.9093,-77.5551"/>
<polygon fill="none" stroke="#404040" points="823.7671,-77.4 816.7636,-75.682 815.6558,-68.5565 822.6593,-70.2745 823.7671,-77.4"/>
<text text-anchor="middle" x="846" y="-90" font-family="Helvetica,sans-Serif" font-size="10.00" fill="#000000"> +n</text>
</g>
<!-- Node10 -->
<g id="node9" class="node">
<title>Node10</title>
<g id="a_node9"><a xlink:href="structGenericValue_1_1Number_1_1U.html" target="_top" xlink:title="{GenericValue\&lt; Encoding,\l Allocator \&gt;::Number::U\n|+ u\l+ padding2\l|}">
<polygon fill="none" stroke="#000000" points="860.5,-881.5 860.5,-960.5 988.5,-960.5 988.5,-881.5 860.5,-881.5"/>
<text text-anchor="start" x="868.5" y="-948.5" font-family="Helvetica,sans-Serif" font-size="10.00" fill="#000000">GenericValue&lt; Encoding,</text>
<text text-anchor="middle" x="924.5" y="-937.5" font-family="Helvetica,sans-Serif" font-size="10.00" fill="#000000"> Allocator &gt;::Number::U</text>
<polyline fill="none" stroke="#000000" points="860.5,-930.5 988.5,-930.5 "/>
<text text-anchor="start" x="868.5" y="-918.5" font-family="Helvetica,sans-Serif" font-size="10.00" fill="#000000">+ u</text>
<text text-anchor="start" x="868.5" y="-907.5" font-family="Helvetica,sans-Serif" font-size="10.00" fill="#000000">+ padding2</text>
<polyline fill="none" stroke="#000000" points="860.5,-900.5 988.5,-900.5 "/>
<text text-anchor="middle" x="924.5" y="-888.5" font-family="Helvetica,sans-Serif" font-size="10.00" fill="#000000"> </text>
</a>
</g>
</g>
<!-- Node10&#45;&gt;Node9 -->
<g id="edge9" class="edge">
<title>Node10&#45;&gt;Node9</title>
<path fill="none" stroke="#404040" d="M924.5,-881.2607C924.5,-789.4262 924.5,-562.1887 924.5,-455.3049"/>
<polygon fill="none" stroke="#404040" points="924.5001,-455.191 920.5,-449.191 924.5,-443.191 928.5,-449.1909 924.5001,-455.191"/>
<text text-anchor="middle" x="932" y="-701" font-family="Helvetica,sans-Serif" font-size="10.00" fill="#000000"> +u</text>
</g>
<!-- Node11 -->
<g id="node10" class="node">
<title>Node11</title>
<g id="a_node10"><a xlink:href="structGenericValue_1_1Number_1_1I.html" target="_top" xlink:title="{GenericValue\&lt; Encoding,\l Allocator \&gt;::Number::I\n|+ i\l+ padding\l|}">
<polygon fill="none" stroke="#000000" points="1006.5,-881.5 1006.5,-960.5 1134.5,-960.5 1134.5,-881.5 1006.5,-881.5"/>
<text text-anchor="start" x="1014.5" y="-948.5" font-family="Helvetica,sans-Serif" font-size="10.00" fill="#000000">GenericValue&lt; Encoding,</text>
<text text-anchor="middle" x="1070.5" y="-937.5" font-family="Helvetica,sans-Serif" font-size="10.00" fill="#000000"> Allocator &gt;::Number::I</text>
<polyline fill="none" stroke="#000000" points="1006.5,-930.5 1134.5,-930.5 "/>
<text text-anchor="start" x="1014.5" y="-918.5" font-family="Helvetica,sans-Serif" font-size="10.00" fill="#000000">+ i</text>
<text text-anchor="start" x="1014.5" y="-907.5" font-family="Helvetica,sans-Serif" font-size="10.00" fill="#000000">+ padding</text>
<polyline fill="none" stroke="#000000" points="1006.5,-900.5 1134.5,-900.5 "/>
<text text-anchor="middle" x="1070.5" y="-888.5" font-family="Helvetica,sans-Serif" font-size="10.00" fill="#000000"> </text>
</a>
</g>
</g>
<!-- Node11&#45;&gt;Node9 -->
<g id="edge10" class="edge">
<title>Node11&#45;&gt;Node9</title>
<path fill="none" stroke="#404040" d="M1057.9895,-881.4848C1043.0384,-833.8639 1017.5301,-751.3429 997.5,-680 975.6766,-602.2698 952.6828,-511.8192 938.4652,-454.7419"/>
<polygon fill="none" stroke="#404040" points="938.4626,-454.7311 933.1335,-449.8731 935.5682,-443.0854 940.8973,-447.9434 938.4626,-454.7311"/>
<text text-anchor="middle" x="1010.5" y="-701" font-family="Helvetica,sans-Serif" font-size="10.00" fill="#000000"> +i</text>
</g>
<!-- Node12 -->
<g id="node11" class="node">
<title>Node12</title>
<g id="a_node11"><a xlink:href="structGenericValue_1_1ShortString.html" target="_top" xlink:title="{GenericValue\&lt; Encoding,\l Allocator \&gt;::ShortString\n|+ str\l|+ SetLength()\l+ GetLength()\l+ Usable()\l}">
<polygon fill="none" stroke="#000000" points="1006.5,-353 1006.5,-443 1134.5,-443 1134.5,-353 1006.5,-353"/>
<text text-anchor="start" x="1014.5" y="-431" font-family="Helvetica,sans-Serif" font-size="10.00" fill="#000000">GenericValue&lt; Encoding,</text>
<text text-anchor="middle" x="1070.5" y="-420" font-family="Helvetica,sans-Serif" font-size="10.00" fill="#000000"> Allocator &gt;::ShortString</text>
<polyline fill="none" stroke="#000000" points="1006.5,-413 1134.5,-413 "/>
<text text-anchor="start" x="1014.5" y="-401" font-family="Helvetica,sans-Serif" font-size="10.00" fill="#000000">+ str</text>
<polyline fill="none" stroke="#000000" points="1006.5,-394 1134.5,-394 "/>
<text text-anchor="start" x="1014.5" y="-382" font-family="Helvetica,sans-Serif" font-size="10.00" fill="#000000">+ SetLength()</text>
<text text-anchor="start" x="1014.5" y="-371" font-family="Helvetica,sans-Serif" font-size="10.00" fill="#000000">+ GetLength()</text>
<text text-anchor="start" x="1014.5" y="-360" font-family="Helvetica,sans-Serif" font-size="10.00" fill="#000000">+ Usable()</text>
</a>
</g>
</g>
<!-- Node12&#45;&gt;Node4 -->
<g id="edge11" class="edge">
<title>Node12&#45;&gt;Node4</title>
<path fill="none" stroke="#404040" d="M1071.0635,-352.9991C1069.4,-291.8313 1057.4541,-182.4682 997.5,-116 960.803,-75.3158 901.8741,-54.8753 854.384,-44.6421"/>
<polygon fill="none" stroke="#404040" points="854.3391,-44.6331 847.6652,-47.3643 842.5772,-42.2543 849.2511,-39.5231 854.3391,-44.6331"/>
<text text-anchor="middle" x="983.5" y="-90" font-family="Helvetica,sans-Serif" font-size="10.00" fill="#000000"> +ss</text>
</g>
<!-- Node13 -->
<g id="node12" class="node">
<title>Node13</title>
<g id="a_node12"><a xlink:href="structGenericValue_1_1Flag.html" target="_top" xlink:title="{GenericValue\&lt; Encoding,\l Allocator \&gt;::Flag\n|+ payload\l+ flags\l|}">
<polygon fill="none" stroke="#000000" points="1152.5,-358.5 1152.5,-437.5 1280.5,-437.5 1280.5,-358.5 1152.5,-358.5"/>
<text text-anchor="start" x="1160.5" y="-425.5" font-family="Helvetica,sans-Serif" font-size="10.00" fill="#000000">GenericValue&lt; Encoding,</text>
<text text-anchor="middle" x="1216.5" y="-414.5" font-family="Helvetica,sans-Serif" font-size="10.00" fill="#000000"> Allocator &gt;::Flag</text>
<polyline fill="none" stroke="#000000" points="1152.5,-407.5 1280.5,-407.5 "/>
<text text-anchor="start" x="1160.5" y="-395.5" font-family="Helvetica,sans-Serif" font-size="10.00" fill="#000000">+ payload</text>
<text text-anchor="start" x="1160.5" y="-384.5" font-family="Helvetica,sans-Serif" font-size="10.00" fill="#000000">+ flags</text>
<polyline fill="none" stroke="#000000" points="1152.5,-377.5 1280.5,-377.5 "/>
<text text-anchor="middle" x="1216.5" y="-365.5" font-family="Helvetica,sans-Serif" font-size="10.00" fill="#000000"> </text>
</a>
</g>
</g>
<!-- Node13&#45;&gt;Node4 -->
<g id="edge12" class="edge">
<title>Node13&#45;&gt;Node4</title>
<path fill="none" stroke="#404040" d="M1218.3036,-358.4793C1218.794,-297.4282 1210.2132,-180.5071 1143.5,-116 1102.9756,-76.8156 949.5029,-53.2921 854.9461,-42.2118"/>
<polygon fill="none" stroke="#404040" points="854.7879,-42.1937 848.3711,-45.4839 842.8661,-40.8262 849.2828,-37.536 854.7879,-42.1937"/>
<text text-anchor="middle" x="1118" y="-90" font-family="Helvetica,sans-Serif" font-size="10.00" fill="#000000"> +f</text>
</g>
<!-- Node14 -->
<g id="node13" class="node">
<title>Node14</title>
<g id="a_node13"><a xlink:href="structParseResult.html" target="_top" xlink:title="Result of parsing (wraps ParseErrorCode) ">
<polygon fill="none" stroke="#000000" points="0,-832 0,-1010 127,-1010 127,-832 0,-832"/>
<text text-anchor="middle" x="63.5" y="-998" font-family="Helvetica,sans-Serif" font-size="10.00" fill="#000000">ParseResult</text>
<polyline fill="none" stroke="#000000" points="0,-991 127,-991 "/>
<text text-anchor="start" x="8" y="-979" font-family="Helvetica,sans-Serif" font-size="10.00" fill="#000000">&#45; code_</text>
<polyline fill="none" stroke="#000000" points="0,-972 127,-972 "/>
<text text-anchor="start" x="8" y="-960" font-family="Helvetica,sans-Serif" font-size="10.00" fill="#000000">+ ParseResult()</text>
<text text-anchor="start" x="8" y="-949" font-family="Helvetica,sans-Serif" font-size="10.00" fill="#000000">+ ParseResult()</text>
<text text-anchor="start" x="8" y="-938" font-family="Helvetica,sans-Serif" font-size="10.00" fill="#000000">+ Code()</text>
<text text-anchor="start" x="8" y="-927" font-family="Helvetica,sans-Serif" font-size="10.00" fill="#000000">+ Offset()</text>
<text text-anchor="start" x="8" y="-916" font-family="Helvetica,sans-Serif" font-size="10.00" fill="#000000">+ operator BooleanType()</text>
<text text-anchor="start" x="8" y="-905" font-family="Helvetica,sans-Serif" font-size="10.00" fill="#000000">+ IsError()</text>
<text text-anchor="start" x="8" y="-894" font-family="Helvetica,sans-Serif" font-size="10.00" fill="#000000">+ operator==()</text>
<text text-anchor="start" x="8" y="-883" font-family="Helvetica,sans-Serif" font-size="10.00" fill="#000000">+ operator==()</text>
<text text-anchor="start" x="8" y="-872" font-family="Helvetica,sans-Serif" font-size="10.00" fill="#000000">+ operator!=()</text>
<text text-anchor="start" x="8" y="-861" font-family="Helvetica,sans-Serif" font-size="10.00" fill="#000000">+ operator!=()</text>
<text text-anchor="start" x="8" y="-850" font-family="Helvetica,sans-Serif" font-size="10.00" fill="#000000">+ Clear()</text>
<text text-anchor="start" x="8" y="-839" font-family="Helvetica,sans-Serif" font-size="10.00" fill="#000000">+ Set()</text>
</a>
</g>
</g>
<!-- Node14&#45;&gt;Node2 -->
<g id="edge13" class="edge">
<title>Node14&#45;&gt;Node2</title>
<path fill="none" stroke="#404040" d="M66.1387,-831.7589C68.9208,-790.5438 74.4816,-741.2603 85.5,-698 97.2752,-651.7684 115.0789,-603.4325 133.6598,-559.3984"/>
<polygon fill="none" stroke="#404040" points="133.6862,-559.3365 132.3629,-552.2478 138.3973,-548.2999 139.7206,-555.3885 133.6862,-559.3365"/>
<text text-anchor="middle" x="117.5" y="-701" font-family="Helvetica,sans-Serif" font-size="10.00" fill="#000000"> &#45;parseResult_</text>
</g>
<!-- Node15 -->
<g id="node14" class="node">
<title>Node15</title>
<polygon fill="none" stroke="#bfbfbf" points="142,-1162.5 142,-1219.5 185,-1219.5 185,-1162.5 142,-1162.5"/>
<text text-anchor="middle" x="163.5" y="-1207.5" font-family="Helvetica,sans-Serif" font-size="10.00" fill="#000000">size_t</text>
<polyline fill="none" stroke="#bfbfbf" points="142,-1200.5 185,-1200.5 "/>
<text text-anchor="middle" x="163.5" y="-1188.5" font-family="Helvetica,sans-Serif" font-size="10.00" fill="#000000"> </text>
<polyline fill="none" stroke="#bfbfbf" points="142,-1181.5 185,-1181.5 "/>
<text text-anchor="middle" x="163.5" y="-1169.5" font-family="Helvetica,sans-Serif" font-size="10.00" fill="#000000"> </text>
</g>
<!-- Node15&#45;&gt;Node2 -->
<g id="edge17" class="edge">
<title>Node15&#45;&gt;Node2</title>
<path fill="none" stroke="#404040" d="M163.0466,-1162.443C162.1104,-1089.7042 160.9303,-891.5623 172.5,-727 173.3172,-715.3771 174.2553,-703.5344 175.2902,-691.5794"/>
<polygon fill="none" stroke="#404040" points="175.2933,-691.5438 171.8406,-685.213 176.3565,-679.591 179.8092,-685.9218 175.2933,-691.5438"/>
<text text-anchor="middle" x="226.5" y="-918.5" font-family="Helvetica,sans-Serif" font-size="10.00" fill="#000000"> &#45;kDefaultStackCapacity</text>
</g>
<!-- Node15&#45;&gt;Node14 -->
<g id="edge14" class="edge">
<title>Node15&#45;&gt;Node14</title>
<path fill="none" stroke="#404040" d="M141.9628,-1176.1148C131.5452,-1167.8253 119.7548,-1156.6344 112.5,-1144 91.3466,-1107.1611 79.3168,-1062.0856 72.4789,-1022.1254"/>
<polygon fill="none" stroke="#404040" points="72.4633,-1022.0272 67.5625,-1016.7373 70.5606,-1010.179 75.4613,-1015.4689 72.4633,-1022.0272"/>
<text text-anchor="middle" x="131" y="-1136" font-family="Helvetica,sans-Serif" font-size="10.00" fill="#000000"> &#45;offset_</text>
</g>
<!-- Node16 -->
<g id="node15" class="node">
<title>Node16</title>
<g id="a_node15"><a xlink:href="classinternal_1_1Stack.html" target="_top" xlink:title="{internal::Stack\&lt; StackAllocator \&gt;\n|&#45; allocator_\l&#45; ownAllocator_\l&#45; stack_\l&#45; stackTop_\l&#45; stackEnd_\l|+ Stack()\l+ ~Stack()\l+ Swap()\l+ Clear()\l+ ShrinkToFit()\l+ Reserve()\l+ Push()\l+ PushUnsafe()\l+ Pop()\l+ Top()\land 10 more...\l&#45; Stack()\l&#45; Expand()\l&#45; Resize()\l&#45; Destroy()\l&#45; operator=()\l}">
<polygon fill="none" stroke="#000000" points="290,-788 290,-1054 451,-1054 451,-788 290,-788"/>
<text text-anchor="middle" x="370.5" y="-1042" font-family="Helvetica,sans-Serif" font-size="10.00" fill="#000000">internal::Stack&lt; StackAllocator &gt;</text>
<polyline fill="none" stroke="#000000" points="290,-1035 451,-1035 "/>
<text text-anchor="start" x="298" y="-1023" font-family="Helvetica,sans-Serif" font-size="10.00" fill="#000000">&#45; allocator_</text>
<text text-anchor="start" x="298" y="-1012" font-family="Helvetica,sans-Serif" font-size="10.00" fill="#000000">&#45; ownAllocator_</text>
<text text-anchor="start" x="298" y="-1001" font-family="Helvetica,sans-Serif" font-size="10.00" fill="#000000">&#45; stack_</text>
<text text-anchor="start" x="298" y="-990" font-family="Helvetica,sans-Serif" font-size="10.00" fill="#000000">&#45; stackTop_</text>
<text text-anchor="start" x="298" y="-979" font-family="Helvetica,sans-Serif" font-size="10.00" fill="#000000">&#45; stackEnd_</text>
<polyline fill="none" stroke="#000000" points="290,-972 451,-972 "/>
<text text-anchor="start" x="298" y="-960" font-family="Helvetica,sans-Serif" font-size="10.00" fill="#000000">+ Stack()</text>
<text text-anchor="start" x="298" y="-949" font-family="Helvetica,sans-Serif" font-size="10.00" fill="#000000">+ ~Stack()</text>
<text text-anchor="start" x="298" y="-938" font-family="Helvetica,sans-Serif" font-size="10.00" fill="#000000">+ Swap()</text>
<text text-anchor="start" x="298" y="-927" font-family="Helvetica,sans-Serif" font-size="10.00" fill="#000000">+ Clear()</text>
<text text-anchor="start" x="298" y="-916" font-family="Helvetica,sans-Serif" font-size="10.00" fill="#000000">+ ShrinkToFit()</text>
<text text-anchor="start" x="298" y="-905" font-family="Helvetica,sans-Serif" font-size="10.00" fill="#000000">+ Reserve()</text>
<text text-anchor="start" x="298" y="-894" font-family="Helvetica,sans-Serif" font-size="10.00" fill="#000000">+ Push()</text>
<text text-anchor="start" x="298" y="-883" font-family="Helvetica,sans-Serif" font-size="10.00" fill="#000000">+ PushUnsafe()</text>
<text text-anchor="start" x="298" y="-872" font-family="Helvetica,sans-Serif" font-size="10.00" fill="#000000">+ Pop()</text>
<text text-anchor="start" x="298" y="-861" font-family="Helvetica,sans-Serif" font-size="10.00" fill="#000000">+ Top()</text>
<text text-anchor="start" x="298" y="-850" font-family="Helvetica,sans-Serif" font-size="10.00" fill="#000000">and 10 more...</text>
<text text-anchor="start" x="298" y="-839" font-family="Helvetica,sans-Serif" font-size="10.00" fill="#000000">&#45; Stack()</text>
<text text-anchor="start" x="298" y="-828" font-family="Helvetica,sans-Serif" font-size="10.00" fill="#000000">&#45; Expand()</text>
<text text-anchor="start" x="298" y="-817" font-family="Helvetica,sans-Serif" font-size="10.00" fill="#000000">&#45; Resize()</text>
<text text-anchor="start" x="298" y="-806" font-family="Helvetica,sans-Serif" font-size="10.00" fill="#000000">&#45; Destroy()</text>
<text text-anchor="start" x="298" y="-795" font-family="Helvetica,sans-Serif" font-size="10.00" fill="#000000">&#45; operator=()</text>
</a>
</g>
</g>
<!-- Node15&#45;&gt;Node16 -->
<g id="edge16" class="edge">
<title>Node15&#45;&gt;Node16</title>
<path fill="none" stroke="#404040" d="M185.3696,-1180.5742C209.9495,-1167.9456 249.7725,-1144.6322 275.5,-1115 288.6538,-1099.8499 300.4587,-1082.5592 310.9042,-1064.6843"/>
<polygon fill="none" stroke="#404040" points="310.9828,-1064.5454 310.4595,-1057.3533 316.8971,-1054.1041 317.4204,-1061.2962 310.9828,-1064.5454"/>
<text text-anchor="middle" x="294" y="-1136" font-family="Helvetica,sans-Serif" font-size="10.00" fill="#000000"> &#45;initialCapacity_</text>
</g>
<!-- Node16&#45;&gt;Node2 -->
<g id="edge15" class="edge">
<title>Node16&#45;&gt;Node2</title>
<path fill="none" stroke="#404040" d="M315.2282,-787.9764C305.3488,-762.0104 295.628,-734.8264 287.5,-709 285.718,-703.3379 283.9541,-697.6064 282.2099,-691.8214"/>
<polygon fill="none" stroke="#404040" points="282.0783,-691.3787 276.534,-686.7678 278.6578,-679.8765 284.2021,-684.4874 282.0783,-691.3787"/>
<text text-anchor="middle" x="305.5" y="-701" font-family="Helvetica,sans-Serif" font-size="10.00" fill="#000000"> &#45;stack_</text>
</g>
</g>
</svg>
