<?xml version="1.0" encoding="UTF-8" standalone="no"?>
<!DOCTYPE svg PUBLIC "-//W3C//DTD SVG 1.1//EN"
 "http://www.w3.org/Graphics/SVG/1.1/DTD/svg11.dtd">
<!-- Generated by graphviz version 2.40.1 (20161225.0304)
 -->
<!-- Title: MemoryPoolAllocator&lt; BaseAllocator &gt; Pages: 1 -->
<!--zoomable 678 -->
<svg id="main" version="1.1" xmlns="http://www.w3.org/2000/svg" xmlns:xlink="http://www.w3.org/1999/xlink" xml:space="preserve" onload="init(evt)">
<style type="text/css"><![CDATA[
.edge:hover path { stroke: red; }
.edge:hover polygon { stroke: red; fill: red; }
]]></style>
<script type="text/javascript"><![CDATA[
var edges = document.getElementsByTagName('g');
if (edges && edges.length) {
  for (var i=0;i<edges.length;i++) {
    if (edges[i].id.substr(0,4)=='edge') {
      edges[i].setAttribute('class','edge');
    }
  }
}
]]></script>
        <defs>
                <circle id="rim" cx="0" cy="0" r="7"/>
                <circle id="rim2" cx="0" cy="0" r="3.5"/>
                <g id="zoomPlus">
                        <use xlink:href="#rim" fill="#404040">
                                <set attributeName="fill" to="#808080" begin="zoomplus.mouseover" end="zoomplus.mouseout"/>
                        </use>
                        <path d="M-4,0h8M0,-4v8" fill="none" stroke="white" stroke-width="1.5" pointer-events="none"/>
                </g>
                <g id="zoomMin">
                        <use xlink:href="#rim" fill="#404040">
                                <set attributeName="fill" to="#808080" begin="zoomminus.mouseover" end="zoomminus.mouseout"/>
                        </use>
                        <path d="M-4,0h8" fill="none" stroke="white" stroke-width="1.5" pointer-events="none"/>
                </g>
                <g id="dirArrow">
                        <path fill="none" stroke="white" stroke-width="1.5" d="M0,-3.0v7 M-2.5,-0.5L0,-3.0L2.5,-0.5"/>
                </g>
               <g id="resetDef">
                       <use xlink:href="#rim2" fill="#404040">
                               <set attributeName="fill" to="#808080" begin="reset.mouseover" end="reset.mouseout"/>
                       </use>
               </g>
        </defs>

<script type="text/javascript">
var viewWidth = 445;
var viewHeight = 678;
var sectionId = 'dynsection-0';
</script>
<script xlink:href="svgpan.js"/>
<svg id="graph" class="graph">
<g id="viewport">
<title>MemoryPoolAllocator&lt; BaseAllocator &gt;</title>
<!-- Node1 -->
<g id="node1" class="node">
<title>Node1</title>
<polygon fill="#bfbfbf" stroke="#000000" points="0,-.5 0,-277.5 131,-277.5 131,-.5 0,-.5"/>
<text text-anchor="start" x="8" y="-265.5" font-family="Helvetica,sans-Serif" font-size="10.00" fill="#000000">MemoryPoolAllocator</text>
<text text-anchor="middle" x="65.5" y="-254.5" font-family="Helvetica,sans-Serif" font-size="10.00" fill="#000000">&lt; BaseAllocator &gt;</text>
<polyline fill="none" stroke="#000000" points="0,-247.5 131,-247.5 "/>
<text text-anchor="start" x="8" y="-235.5" font-family="Helvetica,sans-Serif" font-size="10.00" fill="#000000">+ kNeedFree</text>
<text text-anchor="start" x="8" y="-224.5" font-family="Helvetica,sans-Serif" font-size="10.00" fill="#000000">+ kRefCounted</text>
<text text-anchor="start" x="8" y="-213.5" font-family="Helvetica,sans-Serif" font-size="10.00" fill="#000000">&#45; baseAllocator_</text>
<polyline fill="none" stroke="#000000" points="0,-206.5 131,-206.5 "/>
<text text-anchor="start" x="8" y="-194.5" font-family="Helvetica,sans-Serif" font-size="10.00" fill="#000000">+ MemoryPoolAllocator()</text>
<text text-anchor="start" x="8" y="-183.5" font-family="Helvetica,sans-Serif" font-size="10.00" fill="#000000">+ MemoryPoolAllocator()</text>
<text text-anchor="start" x="8" y="-172.5" font-family="Helvetica,sans-Serif" font-size="10.00" fill="#000000">+ MemoryPoolAllocator()</text>
<text text-anchor="start" x="8" y="-161.5" font-family="Helvetica,sans-Serif" font-size="10.00" fill="#000000">+ operator=()</text>
<text text-anchor="start" x="8" y="-150.5" font-family="Helvetica,sans-Serif" font-size="10.00" fill="#000000">+ ~MemoryPoolAllocator()</text>
<text text-anchor="start" x="8" y="-139.5" font-family="Helvetica,sans-Serif" font-size="10.00" fill="#000000">+ Clear()</text>
<text text-anchor="start" x="8" y="-128.5" font-family="Helvetica,sans-Serif" font-size="10.00" fill="#000000">+ Capacity()</text>
<text text-anchor="start" x="8" y="-117.5" font-family="Helvetica,sans-Serif" font-size="10.00" fill="#000000">+ Size()</text>
<text text-anchor="start" x="8" y="-106.5" font-family="Helvetica,sans-Serif" font-size="10.00" fill="#000000">+ Shared()</text>
<text text-anchor="start" x="8" y="-95.5" font-family="Helvetica,sans-Serif" font-size="10.00" fill="#000000">+ Malloc()</text>
<text text-anchor="start" x="8" y="-84.5" font-family="Helvetica,sans-Serif" font-size="10.00" fill="#000000">+ Realloc()</text>
<text text-anchor="start" x="8" y="-73.5" font-family="Helvetica,sans-Serif" font-size="10.00" fill="#000000">+ operator==()</text>
<text text-anchor="start" x="8" y="-62.5" font-family="Helvetica,sans-Serif" font-size="10.00" fill="#000000">+ operator!=()</text>
<text text-anchor="start" x="8" y="-51.5" font-family="Helvetica,sans-Serif" font-size="10.00" fill="#000000">+ Free()</text>
<text text-anchor="start" x="8" y="-40.5" font-family="Helvetica,sans-Serif" font-size="10.00" fill="#000000">&#45; AddChunk()</text>
<text text-anchor="start" x="8" y="-29.5" font-family="Helvetica,sans-Serif" font-size="10.00" fill="#000000">&#45; GetChunkHead()</text>
<text text-anchor="start" x="8" y="-18.5" font-family="Helvetica,sans-Serif" font-size="10.00" fill="#000000">&#45; GetChunkBuffer()</text>
<text text-anchor="start" x="8" y="-7.5" font-family="Helvetica,sans-Serif" font-size="10.00" fill="#000000">&#45; AlignBuffer()</text>
</g>
<!-- Node2 -->
<g id="node2" class="node">
<title>Node2</title>
<g id="a_node2"><a xlink:href="structMemoryPoolAllocator_1_1SharedData.html" target="_top" xlink:title="{MemoryPoolAllocator\l\&lt; BaseAllocator \&gt;::SharedData\n|+ ownBaseAllocator\l+ ownBuffer\l|}">
<polygon fill="none" stroke="#000000" points="90,-325.5 90,-404.5 243,-404.5 243,-325.5 90,-325.5"/>
<text text-anchor="start" x="98" y="-392.5" font-family="Helvetica,sans-Serif" font-size="10.00" fill="#000000">MemoryPoolAllocator</text>
<text text-anchor="middle" x="166.5" y="-381.5" font-family="Helvetica,sans-Serif" font-size="10.00" fill="#000000">&lt; BaseAllocator &gt;::SharedData</text>
<polyline fill="none" stroke="#000000" points="90,-374.5 243,-374.5 "/>
<text text-anchor="start" x="98" y="-362.5" font-family="Helvetica,sans-Serif" font-size="10.00" fill="#000000">+ ownBaseAllocator</text>
<text text-anchor="start" x="98" y="-351.5" font-family="Helvetica,sans-Serif" font-size="10.00" fill="#000000">+ ownBuffer</text>
<polyline fill="none" stroke="#000000" points="90,-344.5 243,-344.5 "/>
<text text-anchor="middle" x="166.5" y="-332.5" font-family="Helvetica,sans-Serif" font-size="10.00" fill="#000000"> </text>
</a>
</g>
</g>
<!-- Node2&#45;&gt;Node1 -->
<g id="edge1" class="edge">
<title>Node2&#45;&gt;Node1</title>
<path fill="none" stroke="#404040" d="M148.7916,-325.3752C143.9297,-314.4961 138.3533,-302.0183 132.4394,-288.7851"/>
<polygon fill="none" stroke="#404040" points="132.2967,-288.4658 126.1967,-284.62 127.4005,-277.5101 133.5005,-281.3559 132.2967,-288.4658"/>
<text text-anchor="middle" x="159" y="-299" font-family="Helvetica,sans-Serif" font-size="10.00" fill="#000000"> &#45;shared_</text>
</g>
<!-- Node3 -->
<g id="node3" class="node">
<title>Node3</title>
<g id="a_node3"><a xlink:href="structMemoryPoolAllocator_1_1ChunkHeader.html" target="_top" xlink:title="Chunk header for perpending to each chunk. ">
<polygon fill="none" stroke="#000000" points="230,-485.5 230,-553.5 391,-553.5 391,-485.5 230,-485.5"/>
<text text-anchor="start" x="238" y="-541.5" font-family="Helvetica,sans-Serif" font-size="10.00" fill="#000000">MemoryPoolAllocator</text>
<text text-anchor="middle" x="310.5" y="-530.5" font-family="Helvetica,sans-Serif" font-size="10.00" fill="#000000">&lt; BaseAllocator &gt;::ChunkHeader</text>
<polyline fill="none" stroke="#000000" points="230,-523.5 391,-523.5 "/>
<text text-anchor="middle" x="310.5" y="-511.5" font-family="Helvetica,sans-Serif" font-size="10.00" fill="#000000"> </text>
<polyline fill="none" stroke="#000000" points="230,-504.5 391,-504.5 "/>
<text text-anchor="middle" x="310.5" y="-492.5" font-family="Helvetica,sans-Serif" font-size="10.00" fill="#000000"> </text>
</a>
</g>
</g>
<!-- Node3&#45;&gt;Node2 -->
<g id="edge2" class="edge">
<title>Node3&#45;&gt;Node2</title>
<path fill="none" stroke="#404040" d="M278.5417,-485.2114C258.9379,-464.1782 233.5271,-436.9145 211.8622,-413.6699"/>
<polygon fill="none" stroke="#404040" points="211.6368,-413.428 204.6198,-411.7661 203.455,-404.6496 210.472,-406.3115 211.6368,-413.428"/>
<text text-anchor="middle" x="289" y="-442.5" font-family="Helvetica,sans-Serif" font-size="10.00" fill="#000000"> +chunkHead</text>
</g>
<!-- Node3&#45;&gt;Node3 -->
<g id="edge3" class="edge">
<title>Node3&#45;&gt;Node3</title>
<path fill="none" stroke="#404040" d="M391.2696,-529.7513C401.9299,-528.0031 409,-524.5859 409,-519.5 409,-516.6392 406.763,-514.3063 402.9083,-512.5016"/>
<polygon fill="none" stroke="#404040" points="402.8267,-512.4788 395.9714,-514.7161 391.2696,-509.2487 398.1249,-507.0114 402.8267,-512.4788"/>
<text text-anchor="middle" x="423" y="-517" font-family="Helvetica,sans-Serif" font-size="10.00" fill="#000000"> +next</text>
</g>
<!-- Node4 -->
<g id="node4" class="node">
<title>Node4</title>
<polygon fill="none" stroke="#bfbfbf" points="145,-612.5 145,-669.5 188,-669.5 188,-612.5 145,-612.5"/>
<text text-anchor="middle" x="166.5" y="-657.5" font-family="Helvetica,sans-Serif" font-size="10.00" fill="#000000">size_t</text>
<polyline fill="none" stroke="#bfbfbf" points="145,-650.5 188,-650.5 "/>
<text text-anchor="middle" x="166.5" y="-638.5" font-family="Helvetica,sans-Serif" font-size="10.00" fill="#000000"> </text>
<polyline fill="none" stroke="#bfbfbf" points="145,-631.5 188,-631.5 "/>
<text text-anchor="middle" x="166.5" y="-619.5" font-family="Helvetica,sans-Serif" font-size="10.00" fill="#000000"> </text>
</g>
<!-- Node4&#45;&gt;Node1 -->
<g id="edge6" class="edge">
<title>Node4&#45;&gt;Node1</title>
<path fill="none" stroke="#404040" d="M144.9889,-622.2553C113.1567,-592.9227 54.8633,-532.6909 32.5,-467 13.3866,-410.8554 15.1549,-346.4184 24.0311,-289.6024"/>
<polygon fill="none" stroke="#404040" points="24.0585,-289.4372 21.0975,-282.8621 26.0281,-277.5999 28.989,-284.1751 24.0585,-289.4372"/>
<text text-anchor="middle" x="97.5" y="-459" font-family="Helvetica,sans-Serif" font-size="10.00" fill="#000000"> &#45;kDefaultChunkCapacity</text>
<text text-anchor="middle" x="97.5" y="-448" font-family="Helvetica,sans-Serif" font-size="10.00" fill="#000000">&#45;SIZEOF_CHUNK_HEADER</text>
<text text-anchor="middle" x="97.5" y="-437" font-family="Helvetica,sans-Serif" font-size="10.00" fill="#000000">&#45;SIZEOF_SHARED_DATA</text>
<text text-anchor="middle" x="97.5" y="-426" font-family="Helvetica,sans-Serif" font-size="10.00" fill="#000000">&#45;chunk_capacity_</text>
</g>
<!-- Node4&#45;&gt;Node2 -->
<g id="edge5" class="edge">
<title>Node4&#45;&gt;Node2</title>
<path fill="none" stroke="#404040" d="M166.5,-612.2442C166.5,-566.0664 166.5,-474.7142 166.5,-416.9123"/>
<polygon fill="none" stroke="#404040" points="166.5001,-416.7616 162.5,-410.7616 166.5,-404.7616 170.5,-410.7615 166.5001,-416.7616"/>
<text text-anchor="middle" x="189" y="-517" font-family="Helvetica,sans-Serif" font-size="10.00" fill="#000000"> +refcount</text>
</g>
<!-- Node4&#45;&gt;Node3 -->
<g id="edge4" class="edge">
<title>Node4&#45;&gt;Node3</title>
<path fill="none" stroke="#404040" d="M188.0583,-622.8102C207.1904,-606.6675 235.8718,-582.4675 260.6669,-561.5467"/>
<polygon fill="none" stroke="#404040" points="260.78,-561.4512 262.7863,-554.5248 269.9515,-553.7128 267.9453,-560.6392 260.78,-561.4512"/>
<text text-anchor="middle" x="269.5" y="-586" font-family="Helvetica,sans-Serif" font-size="10.00" fill="#000000"> +capacity</text>
<text text-anchor="middle" x="269.5" y="-575" font-family="Helvetica,sans-Serif" font-size="10.00" fill="#000000">+size</text>
</g>
</g>
</svg>
        <g id="navigator" transform="translate(0 0)" fill="#404254">
                <rect fill="#f2f5e9" fill-opacity="0.5" stroke="#606060" stroke-width=".5" x="0" y="0" width="60" height="60"/>
                <use id="zoomplus" xlink:href="#zoomPlus" x="17" y="9" onmousedown="handleZoom(evt,'in')"/>
                <use id="zoomminus" xlink:href="#zoomMin" x="42" y="9" onmousedown="handleZoom(evt,'out')"/>
                <use id="reset" xlink:href="#resetDef" x="30" y="36" onmousedown="handleReset()"/>
                <g id="arrowUp" xlink:href="#dirArrow" transform="translate(30 24)" onmousedown="handlePan(0,-1)">
                  <use xlink:href="#rim" fill="#404040">
                        <set attributeName="fill" to="#808080" begin="arrowUp.mouseover" end="arrowUp.mouseout"/>
                  </use>
                  <path fill="none" stroke="white" stroke-width="1.5" d="M0,-3.0v7 M-2.5,-0.5L0,-3.0L2.5,-0.5"/>
                </g>
                <g id="arrowRight" xlink:href="#dirArrow" transform="rotate(90) translate(36 -43)" onmousedown="handlePan(1,0)">
                  <use xlink:href="#rim" fill="#404040">
                        <set attributeName="fill" to="#808080" begin="arrowRight.mouseover" end="arrowRight.mouseout"/>
                  </use>
                  <path fill="none" stroke="white" stroke-width="1.5" d="M0,-3.0v7 M-2.5,-0.5L0,-3.0L2.5,-0.5"/>
                </g>
                <g id="arrowDown" xlink:href="#dirArrow" transform="rotate(180) translate(-30 -48)" onmousedown="handlePan(0,1)">
                  <use xlink:href="#rim" fill="#404040">
                        <set attributeName="fill" to="#808080" begin="arrowDown.mouseover" end="arrowDown.mouseout"/>
                  </use>
                  <path fill="none" stroke="white" stroke-width="1.5" d="M0,-3.0v7 M-2.5,-0.5L0,-3.0L2.5,-0.5"/>
                </g>
                <g id="arrowLeft" xlink:href="#dirArrow" transform="rotate(270) translate(-36 17)" onmousedown="handlePan(-1,0)">
                  <use xlink:href="#rim" fill="#404040">
                        <set attributeName="fill" to="#808080" begin="arrowLeft.mouseover" end="arrowLeft.mouseout"/>
                  </use>
                  <path fill="none" stroke="white" stroke-width="1.5" d="M0,-3.0v7 M-2.5,-0.5L0,-3.0L2.5,-0.5"/>
                </g>
        </g>
        <svg viewBox="0 0 15 15" width="100%" height="30px" preserveAspectRatio="xMaxYMin meet">
         <g id="arrow_out" transform="scale(0.3 0.3)">
          <a xlink:href="classMemoryPoolAllocator__coll__graph_org.svg" target="_base">
           <rect id="button" ry="5" rx="5" y="6" x="6" height="38" width="38"
                fill="#f2f5e9" fill-opacity="0.5" stroke="#606060" stroke-width="1.0"/>
           <path id="arrow"
             d="M 11.500037,31.436501 C 11.940474,20.09759 22.043105,11.32322 32.158766,21.979434 L 37.068811,17.246167 C 37.068811,17.246167 37.088388,32 37.088388,32 L 22.160133,31.978069 C 22.160133,31.978069 26.997745,27.140456 26.997745,27.140456 C 18.528582,18.264221 13.291696,25.230495 11.500037,31.436501 z"
             style="fill:#404040;"/>
          </a>
         </g>
        </svg>
</svg>
