<?xml version="1.0" encoding="UTF-8" standalone="no"?>
<!DOCTYPE svg PUBLIC "-//W3C//DTD SVG 1.1//EN"
 "http://www.w3.org/Graphics/SVG/1.1/DTD/svg11.dtd">
<!-- Generated by graphviz version 2.40.1 (20161225.0304)
 -->
<!-- Title: /mnt/hdd/fnky/C0de/CAPSTONE/clean_build/include/BStateMachine/Condition.h Pages: 1 -->
<svg width="1179pt" height="406pt"
 viewBox="0.00 0.00 1179.00 406.00" xmlns="http://www.w3.org/2000/svg" xmlns:xlink="http://www.w3.org/1999/xlink">
<g id="graph0" class="graph" transform="scale(1 1) rotate(0) translate(4 402)">
<title>/mnt/hdd/fnky/C0de/CAPSTONE/clean_build/include/BStateMachine/Condition.h</title>
<!-- Node2 -->
<g id="node1" class="node">
<title>Node2</title>
<polygon fill="#bfbfbf" stroke="#000000" points="446,-345.5 446,-397.5 573,-397.5 573,-345.5 446,-345.5"/>
<text text-anchor="start" x="454" y="-385.5" font-family="Helvetica,sans-Serif" font-size="10.00" fill="#000000">/mnt/hdd/fnky/C0de</text>
<text text-anchor="start" x="454" y="-374.5" font-family="Helvetica,sans-Serif" font-size="10.00" fill="#000000">/CAPSTONE/clean_build</text>
<text text-anchor="start" x="454" y="-363.5" font-family="Helvetica,sans-Serif" font-size="10.00" fill="#000000">/include/BStateMachine</text>
<text text-anchor="middle" x="509.5" y="-352.5" font-family="Helvetica,sans-Serif" font-size="10.00" fill="#000000">/Condition.h</text>
</g>
<!-- Node3 -->
<g id="node2" class="node">
<title>Node3</title>
<g id="a_node2"><a xlink:href="BStateMachine_8h.html" target="_top" xlink:title="/mnt/hdd/fnky/C0de\l/CAPSTONE/clean_build\l/include/BStateMachine\l/BStateMachine.h">
<polygon fill="none" stroke="#000000" points="262,-167.5 262,-219.5 389,-219.5 389,-167.5 262,-167.5"/>
<text text-anchor="start" x="270" y="-207.5" font-family="Helvetica,sans-Serif" font-size="10.00" fill="#000000">/mnt/hdd/fnky/C0de</text>
<text text-anchor="start" x="270" y="-196.5" font-family="Helvetica,sans-Serif" font-size="10.00" fill="#000000">/CAPSTONE/clean_build</text>
<text text-anchor="start" x="270" y="-185.5" font-family="Helvetica,sans-Serif" font-size="10.00" fill="#000000">/include/BStateMachine</text>
<text text-anchor="middle" x="325.5" y="-174.5" font-family="Helvetica,sans-Serif" font-size="10.00" fill="#000000">/BStateMachine.h</text>
</a>
</g>
</g>
<!-- Node2&#45;&gt;Node3 -->
<g id="edge1" class="edge">
<title>Node2&#45;&gt;Node3</title>
<path fill="none" stroke="#191970" d="M435.6242,-360.5399C402.993,-351.9084 367.005,-336.4979 344.5,-309 324.0356,-283.9954 321.6624,-245.4962 322.8021,-219.911"/>
<polygon fill="#191970" stroke="#191970" points="435.0775,-364.0099 445.6248,-363.0069 436.7541,-357.2136 435.0775,-364.0099"/>
</g>
<!-- Node4 -->
<g id="node3" class="node">
<title>Node4</title>
<g id="a_node3"><a xlink:href="NPC__Actor_8h.html" target="_top" xlink:title="/mnt/hdd/fnky/C0de\l/CAPSTONE/clean_build\l/include/Actors/NPC_Actor.h">
<polygon fill="none" stroke="#000000" points="446,-89.5 446,-130.5 589,-130.5 589,-89.5 446,-89.5"/>
<text text-anchor="start" x="454" y="-118.5" font-family="Helvetica,sans-Serif" font-size="10.00" fill="#000000">/mnt/hdd/fnky/C0de</text>
<text text-anchor="start" x="454" y="-107.5" font-family="Helvetica,sans-Serif" font-size="10.00" fill="#000000">/CAPSTONE/clean_build</text>
<text text-anchor="middle" x="517.5" y="-96.5" font-family="Helvetica,sans-Serif" font-size="10.00" fill="#000000">/include/Actors/NPC_Actor.h</text>
</a>
</g>
</g>
<!-- Node2&#45;&gt;Node4 -->
<g id="edge15" class="edge">
<title>Node2&#45;&gt;Node4</title>
<path fill="none" stroke="#191970" d="M510.6054,-335.3669C512.3055,-279.7964 515.5074,-175.1341 516.8654,-130.7449"/>
<polygon fill="#191970" stroke="#191970" points="507.1038,-335.368 510.2963,-345.4704 514.1006,-335.5821 507.1038,-335.368"/>
</g>
<!-- Node12 -->
<g id="node11" class="node">
<title>Node12</title>
<g id="a_node11"><a xlink:href="ConditionInRange_8h.html" target="_top" xlink:title="/mnt/hdd/fnky/C0de\l/CAPSTONE/clean_build\l/include/BStateMachine\l/ConditionInRange.h">
<polygon fill="none" stroke="#000000" points="354,-256.5 354,-308.5 481,-308.5 481,-256.5 354,-256.5"/>
<text text-anchor="start" x="362" y="-296.5" font-family="Helvetica,sans-Serif" font-size="10.00" fill="#000000">/mnt/hdd/fnky/C0de</text>
<text text-anchor="start" x="362" y="-285.5" font-family="Helvetica,sans-Serif" font-size="10.00" fill="#000000">/CAPSTONE/clean_build</text>
<text text-anchor="start" x="362" y="-274.5" font-family="Helvetica,sans-Serif" font-size="10.00" fill="#000000">/include/BStateMachine</text>
<text text-anchor="middle" x="417.5" y="-263.5" font-family="Helvetica,sans-Serif" font-size="10.00" fill="#000000">/ConditionInRange.h</text>
</a>
</g>
</g>
<!-- Node2&#45;&gt;Node12 -->
<g id="edge11" class="edge">
<title>Node2&#45;&gt;Node12</title>
<path fill="none" stroke="#191970" d="M475.17,-338.2894C465.0082,-328.459 454.0328,-317.8415 444.4117,-308.5341"/>
<polygon fill="#191970" stroke="#191970" points="472.7737,-340.841 482.3946,-345.2784 477.6408,-335.8099 472.7737,-340.841"/>
</g>
<!-- Node13 -->
<g id="node12" class="node">
<title>Node13</title>
<g id="a_node12"><a xlink:href="ConditionOutOfRange_8h.html" target="_top" xlink:title="/mnt/hdd/fnky/C0de\l/CAPSTONE/clean_build\l/include/BStateMachine\l/ConditionOutOfRange.h">
<polygon fill="none" stroke="#000000" points="538,-167.5 538,-219.5 665,-219.5 665,-167.5 538,-167.5"/>
<text text-anchor="start" x="546" y="-207.5" font-family="Helvetica,sans-Serif" font-size="10.00" fill="#000000">/mnt/hdd/fnky/C0de</text>
<text text-anchor="start" x="546" y="-196.5" font-family="Helvetica,sans-Serif" font-size="10.00" fill="#000000">/CAPSTONE/clean_build</text>
<text text-anchor="start" x="546" y="-185.5" font-family="Helvetica,sans-Serif" font-size="10.00" fill="#000000">/include/BStateMachine</text>
<text text-anchor="middle" x="601.5" y="-174.5" font-family="Helvetica,sans-Serif" font-size="10.00" fill="#000000">/ConditionOutOfRange.h</text>
</a>
</g>
</g>
<!-- Node2&#45;&gt;Node13 -->
<g id="edge16" class="edge">
<title>Node2&#45;&gt;Node13</title>
<path fill="none" stroke="#191970" d="M526.3722,-336.1162C537.4762,-313.1327 552.4957,-282.6092 566.5,-256 572.8133,-244.0044 580.0955,-230.8932 586.3771,-219.7911"/>
<polygon fill="#191970" stroke="#191970" points="523.204,-334.6285 522.0184,-345.1568 529.5108,-337.6657 523.204,-334.6285"/>
</g>
<!-- Node14 -->
<g id="node13" class="node">
<title>Node14</title>
<g id="a_node13"><a xlink:href="Transition_8cpp.html" target="_top" xlink:title="/mnt/hdd/fnky/C0de\l/CAPSTONE/clean_build\l/src/BStateMachine/Transition.cpp">
<polygon fill="none" stroke="#000000" points="575,-262 575,-303 742,-303 742,-262 575,-262"/>
<text text-anchor="start" x="583" y="-291" font-family="Helvetica,sans-Serif" font-size="10.00" fill="#000000">/mnt/hdd/fnky/C0de</text>
<text text-anchor="start" x="583" y="-280" font-family="Helvetica,sans-Serif" font-size="10.00" fill="#000000">/CAPSTONE/clean_build</text>
<text text-anchor="middle" x="658.5" y="-269" font-family="Helvetica,sans-Serif" font-size="10.00" fill="#000000">/src/BStateMachine/Transition.cpp</text>
</a>
</g>
</g>
<!-- Node2&#45;&gt;Node14 -->
<g id="edge19" class="edge">
<title>Node2&#45;&gt;Node14</title>
<path fill="none" stroke="#191970" d="M562.0236,-340.1268C582.5446,-327.8693 605.5089,-314.1524 623.8833,-303.1771"/>
<polygon fill="#191970" stroke="#191970" points="560.1893,-337.1456 553.399,-345.2784 563.7789,-343.1552 560.1893,-337.1456"/>
</g>
<!-- Node3&#45;&gt;Node4 -->
<g id="edge2" class="edge">
<title>Node3&#45;&gt;Node4</title>
<path fill="none" stroke="#191970" d="M394.8929,-163.3213C419.879,-152.4549 447.4761,-140.4531 470.151,-130.5919"/>
<polygon fill="#191970" stroke="#191970" points="393.2347,-160.2257 385.4602,-167.4235 396.0264,-166.645 393.2347,-160.2257"/>
</g>
<!-- Node7 -->
<g id="node6" class="node">
<title>Node7</title>
<g id="a_node6"><a xlink:href="BStateMachine_8cpp.html" target="_top" xlink:title="/mnt/hdd/fnky/C0de\l/CAPSTONE/clean_build\l/src/BStateMachine/BStateMachine.cpp">
<polygon fill="none" stroke="#000000" points="0,-6 0,-47 191,-47 191,-6 0,-6"/>
<text text-anchor="start" x="8" y="-35" font-family="Helvetica,sans-Serif" font-size="10.00" fill="#000000">/mnt/hdd/fnky/C0de</text>
<text text-anchor="start" x="8" y="-24" font-family="Helvetica,sans-Serif" font-size="10.00" fill="#000000">/CAPSTONE/clean_build</text>
<text text-anchor="middle" x="95.5" y="-13" font-family="Helvetica,sans-Serif" font-size="10.00" fill="#000000">/src/BStateMachine/BStateMachine.cpp</text>
</a>
</g>
</g>
<!-- Node3&#45;&gt;Node7 -->
<g id="edge10" class="edge">
<title>Node3&#45;&gt;Node7</title>
<path fill="none" stroke="#191970" d="M281.2037,-161.337C234.8017,-127.6452 163.3031,-75.7309 123.9332,-47.145"/>
<polygon fill="#191970" stroke="#191970" points="279.4141,-164.3629 289.5625,-167.4063 283.527,-158.6986 279.4141,-164.3629"/>
</g>
<!-- Node5 -->
<g id="node4" class="node">
<title>Node5</title>
<g id="a_node4"><a xlink:href="NPC__Actor_8cpp.html" target="_top" xlink:title="/mnt/hdd/fnky/C0de\l/CAPSTONE/clean_build\l/src/Actors/NPC_Actor.cpp">
<polygon fill="none" stroke="#000000" points="374,-6 374,-47 511,-47 511,-6 374,-6"/>
<text text-anchor="start" x="382" y="-35" font-family="Helvetica,sans-Serif" font-size="10.00" fill="#000000">/mnt/hdd/fnky/C0de</text>
<text text-anchor="start" x="382" y="-24" font-family="Helvetica,sans-Serif" font-size="10.00" fill="#000000">/CAPSTONE/clean_build</text>
<text text-anchor="middle" x="442.5" y="-13" font-family="Helvetica,sans-Serif" font-size="10.00" fill="#000000">/src/Actors/NPC_Actor.cpp</text>
</a>
</g>
</g>
<!-- Node4&#45;&gt;Node5 -->
<g id="edge3" class="edge">
<title>Node4&#45;&gt;Node5</title>
<path fill="none" stroke="#191970" d="M492.1702,-81.7995C481.9902,-70.4658 470.4682,-57.6379 461.086,-47.1924"/>
<polygon fill="#191970" stroke="#191970" points="489.6745,-84.2587 498.9607,-89.3595 494.8822,-79.5811 489.6745,-84.2587"/>
</g>
<!-- Node6 -->
<g id="node5" class="node">
<title>Node6</title>
<g id="a_node5"><a xlink:href="Projectile__Actor_8cpp.html" target="_top" xlink:title="/mnt/hdd/fnky/C0de\l/CAPSTONE/clean_build\l/src/Actors/Projectile\l_Actor.cpp">
<polygon fill="none" stroke="#000000" points="529,-.5 529,-52.5 656,-52.5 656,-.5 529,-.5"/>
<text text-anchor="start" x="537" y="-40.5" font-family="Helvetica,sans-Serif" font-size="10.00" fill="#000000">/mnt/hdd/fnky/C0de</text>
<text text-anchor="start" x="537" y="-29.5" font-family="Helvetica,sans-Serif" font-size="10.00" fill="#000000">/CAPSTONE/clean_build</text>
<text text-anchor="start" x="537" y="-18.5" font-family="Helvetica,sans-Serif" font-size="10.00" fill="#000000">/src/Actors/Projectile</text>
<text text-anchor="middle" x="592.5" y="-7.5" font-family="Helvetica,sans-Serif" font-size="10.00" fill="#000000">_Actor.cpp</text>
</a>
</g>
</g>
<!-- Node4&#45;&gt;Node6 -->
<g id="edge4" class="edge">
<title>Node4&#45;&gt;Node6</title>
<path fill="none" stroke="#191970" d="M542.8916,-81.7307C551.3598,-72.3027 560.7508,-61.8474 569.0636,-52.5925"/>
<polygon fill="#191970" stroke="#191970" points="540.1178,-79.5811 536.0393,-89.3595 545.3255,-84.2587 540.1178,-79.5811"/>
</g>
<!-- Node4&#45;&gt;Node7 -->
<g id="edge5" class="edge">
<title>Node4&#45;&gt;Node7</title>
<path fill="none" stroke="#191970" d="M435.7557,-97.015C371.3356,-86.3805 279.3691,-70.3101 199.5,-53 191.0325,-51.1648 182.2097,-49.122 173.4402,-47.0075"/>
<polygon fill="#191970" stroke="#191970" points="435.4169,-100.5061 445.8521,-98.6744 436.5522,-93.5988 435.4169,-100.5061"/>
</g>
<!-- Node8 -->
<g id="node7" class="node">
<title>Node8</title>
<g id="a_node7"><a xlink:href="ConditionInRange_8cpp.html" target="_top" xlink:title="/mnt/hdd/fnky/C0de\l/CAPSTONE/clean_build\l/src/BStateMachine/Condition\lInRange.cpp">
<polygon fill="none" stroke="#000000" points="209,-.5 209,-52.5 356,-52.5 356,-.5 209,-.5"/>
<text text-anchor="start" x="217" y="-40.5" font-family="Helvetica,sans-Serif" font-size="10.00" fill="#000000">/mnt/hdd/fnky/C0de</text>
<text text-anchor="start" x="217" y="-29.5" font-family="Helvetica,sans-Serif" font-size="10.00" fill="#000000">/CAPSTONE/clean_build</text>
<text text-anchor="start" x="217" y="-18.5" font-family="Helvetica,sans-Serif" font-size="10.00" fill="#000000">/src/BStateMachine/Condition</text>
<text text-anchor="middle" x="282.5" y="-7.5" font-family="Helvetica,sans-Serif" font-size="10.00" fill="#000000">InRange.cpp</text>
</a>
</g>
</g>
<!-- Node4&#45;&gt;Node8 -->
<g id="edge6" class="edge">
<title>Node4&#45;&gt;Node8</title>
<path fill="none" stroke="#191970" d="M449.9208,-85.9878C420.4266,-75.508 385.7774,-63.1964 355.6759,-52.5008"/>
<polygon fill="#191970" stroke="#191970" points="449.1168,-89.4165 459.7116,-89.4667 451.4606,-82.8205 449.1168,-89.4165"/>
</g>
<!-- Node9 -->
<g id="node8" class="node">
<title>Node9</title>
<g id="a_node8"><a xlink:href="ConditionOutOfRange_8cpp.html" target="_top" xlink:title="/mnt/hdd/fnky/C0de\l/CAPSTONE/clean_build\l/src/BStateMachine/Condition\lOutOfRange.cpp">
<polygon fill="none" stroke="#000000" points="1024,-.5 1024,-52.5 1171,-52.5 1171,-.5 1024,-.5"/>
<text text-anchor="start" x="1032" y="-40.5" font-family="Helvetica,sans-Serif" font-size="10.00" fill="#000000">/mnt/hdd/fnky/C0de</text>
<text text-anchor="start" x="1032" y="-29.5" font-family="Helvetica,sans-Serif" font-size="10.00" fill="#000000">/CAPSTONE/clean_build</text>
<text text-anchor="start" x="1032" y="-18.5" font-family="Helvetica,sans-Serif" font-size="10.00" fill="#000000">/src/BStateMachine/Condition</text>
<text text-anchor="middle" x="1097.5" y="-7.5" font-family="Helvetica,sans-Serif" font-size="10.00" fill="#000000">OutOfRange.cpp</text>
</a>
</g>
</g>
<!-- Node4&#45;&gt;Node9 -->
<g id="edge7" class="edge">
<title>Node4&#45;&gt;Node9</title>
<path fill="none" stroke="#191970" d="M599.4193,-105.6232C698.7796,-99.1709 870.9262,-84.3093 1015.5,-53 1018.2782,-52.3983 1021.0957,-51.74 1023.9314,-51.0368"/>
<polygon fill="#191970" stroke="#191970" points="598.9058,-102.1488 589.1484,-106.277 599.3506,-109.1346 598.9058,-102.1488"/>
</g>
<!-- Node10 -->
<g id="node9" class="node">
<title>Node10</title>
<g id="a_node9"><a xlink:href="LoadingGameObjects_8cpp.html" target="_top" xlink:title="/mnt/hdd/fnky/C0de\l/CAPSTONE/clean_build\l/src/Loaders/LoadingGameObjects.cpp">
<polygon fill="none" stroke="#000000" points="674.5,-6 674.5,-47 860.5,-47 860.5,-6 674.5,-6"/>
<text text-anchor="start" x="682.5" y="-35" font-family="Helvetica,sans-Serif" font-size="10.00" fill="#000000">/mnt/hdd/fnky/C0de</text>
<text text-anchor="start" x="682.5" y="-24" font-family="Helvetica,sans-Serif" font-size="10.00" fill="#000000">/CAPSTONE/clean_build</text>
<text text-anchor="middle" x="767.5" y="-13" font-family="Helvetica,sans-Serif" font-size="10.00" fill="#000000">/src/Loaders/LoadingGameObjects.cpp</text>
</a>
</g>
</g>
<!-- Node4&#45;&gt;Node10 -->
<g id="edge8" class="edge">
<title>Node4&#45;&gt;Node10</title>
<path fill="none" stroke="#191970" d="M588.6868,-86.2236C625.6439,-73.8799 670.3577,-58.9455 705.8269,-47.0988"/>
<polygon fill="#191970" stroke="#191970" points="587.3532,-82.9789 578.9771,-89.4667 589.5708,-89.6184 587.3532,-82.9789"/>
</g>
<!-- Node11 -->
<g id="node10" class="node">
<title>Node11</title>
<g id="a_node10"><a xlink:href="game__play__state_8cpp.html" target="_top" xlink:title="/mnt/hdd/fnky/C0de\l/CAPSTONE/clean_build\l/src/States/game_play\l_state.cpp">
<polygon fill="none" stroke="#000000" points="879,-.5 879,-52.5 1006,-52.5 1006,-.5 879,-.5"/>
<text text-anchor="start" x="887" y="-40.5" font-family="Helvetica,sans-Serif" font-size="10.00" fill="#000000">/mnt/hdd/fnky/C0de</text>
<text text-anchor="start" x="887" y="-29.5" font-family="Helvetica,sans-Serif" font-size="10.00" fill="#000000">/CAPSTONE/clean_build</text>
<text text-anchor="start" x="887" y="-18.5" font-family="Helvetica,sans-Serif" font-size="10.00" fill="#000000">/src/States/game_play</text>
<text text-anchor="middle" x="942.5" y="-7.5" font-family="Helvetica,sans-Serif" font-size="10.00" fill="#000000">_state.cpp</text>
</a>
</g>
</g>
<!-- Node4&#45;&gt;Node11 -->
<g id="edge9" class="edge">
<title>Node4&#45;&gt;Node11</title>
<path fill="none" stroke="#191970" d="M599.4561,-101.1499C671.3783,-92.3392 778.4152,-76.6832 869.5,-53 872.5013,-52.2196 875.5525,-51.3656 878.6205,-50.4574"/>
<polygon fill="#191970" stroke="#191970" points="598.6136,-97.7262 589.1055,-102.4003 599.4532,-104.6756 598.6136,-97.7262"/>
</g>
<!-- Node12&#45;&gt;Node3 -->
<g id="edge12" class="edge">
<title>Node12&#45;&gt;Node3</title>
<path fill="none" stroke="#191970" d="M383.17,-249.2894C373.0082,-239.459 362.0328,-228.8415 352.4117,-219.5341"/>
<polygon fill="#191970" stroke="#191970" points="380.7737,-251.841 390.3946,-256.2784 385.6408,-246.8099 380.7737,-251.841"/>
</g>
<!-- Node12&#45;&gt;Node4 -->
<g id="edge13" class="edge">
<title>Node12&#45;&gt;Node4</title>
<path fill="none" stroke="#191970" d="M437.8746,-247.3537C458.1989,-212.2943 488.7375,-159.6152 505.4726,-130.7472"/>
<polygon fill="#191970" stroke="#191970" points="434.6752,-245.8942 432.6878,-256.301 440.7312,-249.4049 434.6752,-245.8942"/>
</g>
<!-- Node12&#45;&gt;Node8 -->
<g id="edge14" class="edge">
<title>Node12&#45;&gt;Node8</title>
<path fill="none" stroke="#191970" d="M415.9457,-245.923C413.8144,-222.4734 408.8705,-191.8787 397.5,-167 376.7975,-121.7029 337.8438,-78.8001 311.0537,-52.5907"/>
<polygon fill="#191970" stroke="#191970" points="412.4759,-246.4493 416.7399,-256.1482 419.4549,-245.9071 412.4759,-246.4493"/>
</g>
<!-- Node13&#45;&gt;Node4 -->
<g id="edge17" class="edge">
<title>Node13&#45;&gt;Node4</title>
<path fill="none" stroke="#191970" d="M567.8109,-160.0114C557.8407,-150.1005 547.2195,-139.5426 538.318,-130.6941"/>
<polygon fill="#191970" stroke="#191970" points="565.3622,-162.5124 574.9219,-167.0801 570.2972,-157.5479 565.3622,-162.5124"/>
</g>
<!-- Node13&#45;&gt;Node9 -->
<g id="edge18" class="edge">
<title>Node13&#45;&gt;Node9</title>
<path fill="none" stroke="#191970" d="M674.7628,-168.8329C768.4632,-137.2846 929.8141,-82.9588 1023.7488,-51.3315"/>
<polygon fill="#191970" stroke="#191970" points="673.4354,-165.5867 665.075,-172.0947 675.6691,-172.2207 673.4354,-165.5867"/>
</g>
</g>
</svg>
