<?xml version="1.0" encoding="UTF-8" standalone="no"?>
<!DOCTYPE svg PUBLIC "-//W3C//DTD SVG 1.1//EN"
 "http://www.w3.org/Graphics/SVG/1.1/DTD/svg11.dtd">
<!-- Generated by graphviz version 2.40.1 (20161225.0304)
 -->
<!-- Title: /mnt/hdd/fnky/C0de/CAPSTONE/clean_build/src/BStateMachine/ConditionInRange.cpp Pages: 1 -->
<svg width="1379pt" height="486pt"
 viewBox="0.00 0.00 1378.50 486.00" xmlns="http://www.w3.org/2000/svg" xmlns:xlink="http://www.w3.org/1999/xlink">
<g id="graph0" class="graph" transform="scale(1 1) rotate(0) translate(4 482)">
<title>/mnt/hdd/fnky/C0de/CAPSTONE/clean_build/src/BStateMachine/ConditionInRange.cpp</title>
<!-- Node0 -->
<g id="node1" class="node">
<title>Node0</title>
<polygon fill="#bfbfbf" stroke="#000000" points="553,-425.5 553,-477.5 700,-477.5 700,-425.5 553,-425.5"/>
<text text-anchor="start" x="561" y="-465.5" font-family="Helvetica,sans-Serif" font-size="10.00" fill="#000000">/mnt/hdd/fnky/C0de</text>
<text text-anchor="start" x="561" y="-454.5" font-family="Helvetica,sans-Serif" font-size="10.00" fill="#000000">/CAPSTONE/clean_build</text>
<text text-anchor="start" x="561" y="-443.5" font-family="Helvetica,sans-Serif" font-size="10.00" fill="#000000">/src/BStateMachine/Condition</text>
<text text-anchor="middle" x="626.5" y="-432.5" font-family="Helvetica,sans-Serif" font-size="10.00" fill="#000000">InRange.cpp</text>
</g>
<!-- Node1 -->
<g id="node2" class="node">
<title>Node1</title>
<g id="a_node2"><a xlink:href="ConditionInRange_8h.html" target="_top" xlink:title="../../include/BStateMachine\l/ConditionInRange.h">
<polygon fill="none" stroke="#000000" points="155,-112.5 155,-142.5 290,-142.5 290,-112.5 155,-112.5"/>
<text text-anchor="start" x="163" y="-130.5" font-family="Helvetica,sans-Serif" font-size="10.00" fill="#000000">../../include/BStateMachine</text>
<text text-anchor="middle" x="222.5" y="-119.5" font-family="Helvetica,sans-Serif" font-size="10.00" fill="#000000">/ConditionInRange.h</text>
</a>
</g>
</g>
<!-- Node0&#45;&gt;Node1 -->
<g id="edge1" class="edge">
<title>Node0&#45;&gt;Node1</title>
<path fill="none" stroke="#191970" d="M552.7677,-443.7714C426.3024,-428.4501 181.5,-388.8653 181.5,-312 181.5,-312 181.5,-312 181.5,-250.5 181.5,-214.8896 197.1579,-176.3186 209.1212,-152.0457"/>
<polygon fill="#191970" stroke="#191970" points="212.3747,-153.3702 213.805,-142.8724 206.1403,-150.187 212.3747,-153.3702"/>
</g>
<!-- Node4 -->
<g id="node5" class="node">
<title>Node4</title>
<g id="a_node5"><a xlink:href="NPC__Actor_8h.html" target="_top" xlink:title="../../include/Actors\l/NPC_Actor.h">
<polygon fill="none" stroke="#000000" points="578,-235.5 578,-265.5 675,-265.5 675,-235.5 578,-235.5"/>
<text text-anchor="start" x="586" y="-253.5" font-family="Helvetica,sans-Serif" font-size="10.00" fill="#000000">../../include/Actors</text>
<text text-anchor="middle" x="626.5" y="-242.5" font-family="Helvetica,sans-Serif" font-size="10.00" fill="#000000">/NPC_Actor.h</text>
</a>
</g>
</g>
<!-- Node0&#45;&gt;Node4 -->
<g id="edge4" class="edge">
<title>Node0&#45;&gt;Node4</title>
<path fill="none" stroke="#191970" d="M626.5,-425.2228C626.5,-386.3849 626.5,-314.1341 626.5,-275.8413"/>
<polygon fill="#191970" stroke="#191970" points="630.0001,-275.5588 626.5,-265.5588 623.0001,-275.5589 630.0001,-275.5588"/>
</g>
<!-- Node18 -->
<g id="node19" class="node">
<title>Node18</title>
<g id="a_node19"><a xlink:href="Player__Actor_8h.html" target="_top" xlink:title="../../include/Actors\l/Player_Actor.h">
<polygon fill="none" stroke="#000000" points="926,-358.5 926,-388.5 1023,-388.5 1023,-358.5 926,-358.5"/>
<text text-anchor="start" x="934" y="-376.5" font-family="Helvetica,sans-Serif" font-size="10.00" fill="#000000">../../include/Actors</text>
<text text-anchor="middle" x="974.5" y="-365.5" font-family="Helvetica,sans-Serif" font-size="10.00" fill="#000000">/Player_Actor.h</text>
</a>
</g>
</g>
<!-- Node0&#45;&gt;Node18 -->
<g id="edge28" class="edge">
<title>Node0&#45;&gt;Node18</title>
<path fill="none" stroke="#191970" d="M700.3018,-434.9582C764.6162,-420.5429 856.6355,-399.9179 915.9806,-386.6164"/>
<polygon fill="#191970" stroke="#191970" points="916.9481,-389.9865 925.9405,-384.384 915.417,-383.156 916.9481,-389.9865"/>
</g>
<!-- Node2 -->
<g id="node3" class="node">
<title>Node2</title>
<g id="a_node3"><a xlink:href="Condition_8h.html" target="_top" xlink:title="Condition.h">
<polygon fill="none" stroke="#000000" points="371.5,-56.5 371.5,-75.5 437.5,-75.5 437.5,-56.5 371.5,-56.5"/>
<text text-anchor="middle" x="404.5" y="-63.5" font-family="Helvetica,sans-Serif" font-size="10.00" fill="#000000">Condition.h</text>
</a>
</g>
</g>
<!-- Node1&#45;&gt;Node2 -->
<g id="edge2" class="edge">
<title>Node1&#45;&gt;Node2</title>
<path fill="none" stroke="#191970" d="M267.0222,-112.4554C297.5226,-102.149 337.545,-88.6249 366.5358,-78.8286"/>
<polygon fill="#191970" stroke="#191970" points="367.9432,-82.0475 376.2965,-75.5303 365.7022,-75.4159 367.9432,-82.0475"/>
</g>
<!-- Node3 -->
<g id="node4" class="node">
<title>Node3</title>
<polygon fill="none" stroke="#bfbfbf" points="790.5,-.5 790.5,-19.5 844.5,-19.5 844.5,-.5 790.5,-.5"/>
<text text-anchor="middle" x="817.5" y="-7.5" font-family="Helvetica,sans-Serif" font-size="10.00" fill="#000000">iostream</text>
</g>
<!-- Node2&#45;&gt;Node3 -->
<g id="edge3" class="edge">
<title>Node2&#45;&gt;Node3</title>
<path fill="none" stroke="#191970" d="M437.5994,-61.5119C513.6224,-51.2037 700.3017,-25.8913 780.2149,-15.0556"/>
<polygon fill="#191970" stroke="#191970" points="780.8744,-18.4983 790.3134,-13.6863 779.9337,-11.5618 780.8744,-18.4983"/>
</g>
<!-- Node4&#45;&gt;Node1 -->
<g id="edge25" class="edge">
<title>Node4&#45;&gt;Node1</title>
<path fill="none" stroke="#191970" d="M577.7306,-247.1278C479.0941,-239.867 263.153,-221.5695 238.5,-199 225.8457,-187.4152 222.0841,-168.1907 221.3575,-152.5922"/>
<polygon fill="#191970" stroke="#191970" points="224.8567,-152.4792 221.2673,-142.511 217.857,-152.5419 224.8567,-152.4792"/>
</g>
<!-- Node4&#45;&gt;Node2 -->
<g id="edge24" class="edge">
<title>Node4&#45;&gt;Node2</title>
<path fill="none" stroke="#191970" d="M577.7278,-245.5969C542.548,-239.7529 495.9108,-226.9634 464.5,-199 430.2593,-168.5173 414.445,-114.6649 408.1166,-85.7188"/>
<polygon fill="#191970" stroke="#191970" points="411.4877,-84.7303 406.077,-75.6212 404.6263,-86.1162 411.4877,-84.7303"/>
</g>
<!-- Node5 -->
<g id="node6" class="node">
<title>Node5</title>
<g id="a_node6"><a xlink:href="Components_2Component_8h.html" target="_top" xlink:title="../Components/Component.h">
<polygon fill="none" stroke="#000000" points="952,-118 952,-137 1095,-137 1095,-118 952,-118"/>
<text text-anchor="middle" x="1023.5" y="-125" font-family="Helvetica,sans-Serif" font-size="10.00" fill="#000000">../Components/Component.h</text>
</a>
</g>
</g>
<!-- Node4&#45;&gt;Node5 -->
<g id="edge5" class="edge">
<title>Node4&#45;&gt;Node5</title>
<path fill="none" stroke="#191970" d="M651.1449,-235.3582C681.8791,-216.7011 732.8853,-186.5394 753.5,-179 814.6767,-156.6258 887.3792,-143.4697 941.9221,-136.0626"/>
<polygon fill="#191970" stroke="#191970" points="942.433,-139.5256 951.8883,-134.7455 941.5159,-132.586 942.433,-139.5256"/>
</g>
<!-- Node6 -->
<g id="node7" class="node">
<title>Node6</title>
<polygon fill="none" stroke="#bfbfbf" points="1052.5,-56.5 1052.5,-75.5 1104.5,-75.5 1104.5,-56.5 1052.5,-56.5"/>
<text text-anchor="middle" x="1078.5" y="-63.5" font-family="Helvetica,sans-Serif" font-size="10.00" fill="#000000">memory</text>
</g>
<!-- Node4&#45;&gt;Node6 -->
<g id="edge14" class="edge">
<title>Node4&#45;&gt;Node6</title>
<path fill="none" stroke="#191970" d="M640.7842,-235.2983C656.6574,-219.2216 683.7316,-194.1346 711.5,-179 823.7405,-117.8255 973.7298,-84.8976 1041.9549,-72.2216"/>
<polygon fill="#191970" stroke="#191970" points="1042.9726,-75.594 1052.1843,-70.3599 1041.7191,-68.7071 1042.9726,-75.594"/>
</g>
<!-- Node7 -->
<g id="node8" class="node">
<title>Node7</title>
<g id="a_node8"><a xlink:href="Actor_8h.html" target="_top" xlink:title="Actor.h">
<polygon fill="none" stroke="#000000" points="1237.5,-179.5 1237.5,-198.5 1285.5,-198.5 1285.5,-179.5 1237.5,-179.5"/>
<text text-anchor="middle" x="1261.5" y="-186.5" font-family="Helvetica,sans-Serif" font-size="10.00" fill="#000000">Actor.h</text>
</a>
</g>
</g>
<!-- Node4&#45;&gt;Node7 -->
<g id="edge7" class="edge">
<title>Node4&#45;&gt;Node7</title>
<path fill="none" stroke="#191970" d="M675.0109,-245.8017C798.2011,-233.8707 1120.853,-202.6217 1227.0566,-192.3359"/>
<polygon fill="#191970" stroke="#191970" points="1227.6001,-195.7997 1237.2161,-191.3519 1226.9252,-188.8323 1227.6001,-195.7997"/>
</g>
<!-- Node9 -->
<g id="node10" class="node">
<title>Node9</title>
<polygon fill="none" stroke="#bfbfbf" points="762,-179.5 762,-198.5 855,-198.5 855,-179.5 762,-179.5"/>
<text text-anchor="middle" x="808.5" y="-186.5" font-family="Helvetica,sans-Serif" font-size="10.00" fill="#000000">box2d/b2_world.h</text>
</g>
<!-- Node4&#45;&gt;Node9 -->
<g id="edge11" class="edge">
<title>Node4&#45;&gt;Node9</title>
<path fill="none" stroke="#191970" d="M671.0222,-235.4554C701.5226,-225.149 741.545,-211.6249 770.5358,-201.8286"/>
<polygon fill="#191970" stroke="#191970" points="771.9432,-205.0475 780.2965,-198.5303 769.7022,-198.4159 771.9432,-205.0475"/>
</g>
<!-- Node10 -->
<g id="node11" class="node">
<title>Node10</title>
<polygon fill="none" stroke="#bfbfbf" points="911.5,-179.5 911.5,-198.5 981.5,-198.5 981.5,-179.5 911.5,-179.5"/>
<text text-anchor="middle" x="946.5" y="-186.5" font-family="Helvetica,sans-Serif" font-size="10.00" fill="#000000">glm/fwd.hpp</text>
</g>
<!-- Node4&#45;&gt;Node10 -->
<g id="edge12" class="edge">
<title>Node4&#45;&gt;Node10</title>
<path fill="none" stroke="#191970" d="M675.1011,-241.1595C736.5853,-229.343 841.6393,-209.1529 901.4089,-197.6659"/>
<polygon fill="#191970" stroke="#191970" points="902.1506,-201.0875 911.3103,-195.763 900.8294,-194.2133 902.1506,-201.0875"/>
</g>
<!-- Node11 -->
<g id="node12" class="node">
<title>Node11</title>
<polygon fill="none" stroke="#bfbfbf" points="473.5,-179.5 473.5,-198.5 543.5,-198.5 543.5,-179.5 473.5,-179.5"/>
<text text-anchor="middle" x="508.5" y="-186.5" font-family="Helvetica,sans-Serif" font-size="10.00" fill="#000000">glm/glm.hpp</text>
</g>
<!-- Node4&#45;&gt;Node11 -->
<g id="edge13" class="edge">
<title>Node4&#45;&gt;Node11</title>
<path fill="none" stroke="#191970" d="M597.634,-235.4554C578.8089,-225.644 554.389,-212.9167 535.8708,-203.2653"/>
<polygon fill="#191970" stroke="#191970" points="537.2713,-200.0484 526.7858,-198.5303 534.036,-206.2559 537.2713,-200.0484"/>
</g>
<!-- Node12 -->
<g id="node13" class="node">
<title>Node12</title>
<polygon fill="none" stroke="#bfbfbf" points="561.5,-179.5 561.5,-198.5 629.5,-198.5 629.5,-179.5 561.5,-179.5"/>
<text text-anchor="middle" x="595.5" y="-186.5" font-family="Helvetica,sans-Serif" font-size="10.00" fill="#000000">sys/types.h</text>
</g>
<!-- Node4&#45;&gt;Node12 -->
<g id="edge15" class="edge">
<title>Node4&#45;&gt;Node12</title>
<path fill="none" stroke="#191970" d="M618.8371,-235.2977C614.6684,-227.0277 609.4735,-216.7215 605.0439,-207.9339"/>
<polygon fill="#191970" stroke="#191970" points="608.0901,-206.2012 600.4635,-198.8469 601.8393,-209.3521 608.0901,-206.2012"/>
</g>
<!-- Node13 -->
<g id="node14" class="node">
<title>Node13</title>
<g id="a_node14"><a xlink:href="BState_8h.html" target="_top" xlink:title="../BStateMachine/BState.h">
<polygon fill="none" stroke="#000000" points="533.5,-118 533.5,-137 667.5,-137 667.5,-118 533.5,-118"/>
<text text-anchor="middle" x="600.5" y="-125" font-family="Helvetica,sans-Serif" font-size="10.00" fill="#000000">../BStateMachine/BState.h</text>
</a>
</g>
</g>
<!-- Node4&#45;&gt;Node13 -->
<g id="edge16" class="edge">
<title>Node4&#45;&gt;Node13</title>
<path fill="none" stroke="#191970" d="M633.1616,-235.3934C638.6874,-220.6993 644.7151,-197.891 638.5,-179 634.2564,-166.1016 625.4052,-153.7822 617.3124,-144.4282"/>
<polygon fill="#191970" stroke="#191970" points="619.8683,-142.0369 610.5305,-137.0313 614.7087,-146.7675 619.8683,-142.0369"/>
</g>
<!-- Node15 -->
<g id="node16" class="node">
<title>Node15</title>
<g id="a_node16"><a xlink:href="BStateMachine_8h.html" target="_top" xlink:title="../BStateMachine/BStateMachine.h">
<polygon fill="none" stroke="#000000" points="247.5,-179.5 247.5,-198.5 417.5,-198.5 417.5,-179.5 247.5,-179.5"/>
<text text-anchor="middle" x="332.5" y="-186.5" font-family="Helvetica,sans-Serif" font-size="10.00" fill="#000000">../BStateMachine/BStateMachine.h</text>
</a>
</g>
</g>
<!-- Node4&#45;&gt;Node15 -->
<g id="edge19" class="edge">
<title>Node4&#45;&gt;Node15</title>
<path fill="none" stroke="#191970" d="M577.9519,-240.3445C525.749,-229.4245 442.8892,-212.0916 388.1047,-200.6316"/>
<polygon fill="#191970" stroke="#191970" points="388.7204,-197.1847 378.2156,-198.563 387.2871,-204.0364 388.7204,-197.1847"/>
</g>
<!-- Node17 -->
<g id="node18" class="node">
<title>Node17</title>
<g id="a_node18"><a xlink:href="ConditionOutOfRange_8h.html" target="_top" xlink:title="../BStateMachine/Condition\lOutOfRange.h">
<polygon fill="none" stroke="#000000" points="0,-112.5 0,-142.5 137,-142.5 137,-112.5 0,-112.5"/>
<text text-anchor="start" x="8" y="-130.5" font-family="Helvetica,sans-Serif" font-size="10.00" fill="#000000">../BStateMachine/Condition</text>
<text text-anchor="middle" x="68.5" y="-119.5" font-family="Helvetica,sans-Serif" font-size="10.00" fill="#000000">OutOfRange.h</text>
</a>
</g>
</g>
<!-- Node4&#45;&gt;Node17 -->
<g id="edge26" class="edge">
<title>Node4&#45;&gt;Node17</title>
<path fill="none" stroke="#191970" d="M577.9562,-249.1107C501.1049,-245.8509 347.3371,-234.9962 222.5,-199 179.7628,-186.6769 133.9042,-164.0407 103.4512,-147.5301"/>
<polygon fill="#191970" stroke="#191970" points="104.9651,-144.3684 94.5154,-142.6209 101.5946,-150.5036 104.9651,-144.3684"/>
</g>
<!-- Node5&#45;&gt;Node6 -->
<g id="edge6" class="edge">
<title>Node5&#45;&gt;Node6</title>
<path fill="none" stroke="#191970" d="M1032.0938,-117.8906C1040.3597,-108.6478 1053.0426,-94.466 1063.0617,-83.2628"/>
<polygon fill="#191970" stroke="#191970" points="1065.7278,-85.5321 1069.7851,-75.7449 1060.51,-80.8657 1065.7278,-85.5321"/>
</g>
<!-- Node7&#45;&gt;Node3 -->
<g id="edge9" class="edge">
<title>Node7&#45;&gt;Node3</title>
<path fill="none" stroke="#191970" d="M1258.9005,-179.3021C1254.2152,-163.4366 1242.9839,-131.7281 1223.5,-112 1184.9507,-72.9676 1165.7021,-72.8677 1113.5,-56 1023.3544,-26.8719 911.6242,-15.9059 854.671,-12.0033"/>
<polygon fill="#191970" stroke="#191970" points="854.8978,-8.5107 844.6916,-11.354 854.4433,-15.4959 854.8978,-8.5107"/>
</g>
<!-- Node7&#45;&gt;Node5 -->
<g id="edge10" class="edge">
<title>Node7&#45;&gt;Node5</title>
<path fill="none" stroke="#191970" d="M1237.3695,-182.7646C1198.3419,-172.6797 1120.6817,-152.6121 1070.4635,-139.6355"/>
<polygon fill="#191970" stroke="#191970" points="1071.0543,-136.1733 1060.4967,-137.0601 1069.303,-142.9507 1071.0543,-136.1733"/>
</g>
<!-- Node8 -->
<g id="node9" class="node">
<title>Node8</title>
<polygon fill="none" stroke="#bfbfbf" points="1288.5,-118 1288.5,-137 1332.5,-137 1332.5,-118 1288.5,-118"/>
<text text-anchor="middle" x="1310.5" y="-125" font-family="Helvetica,sans-Serif" font-size="10.00" fill="#000000">vector</text>
</g>
<!-- Node7&#45;&gt;Node8 -->
<g id="edge8" class="edge">
<title>Node7&#45;&gt;Node8</title>
<path fill="none" stroke="#191970" d="M1269.1563,-179.3906C1276.4489,-170.2376 1287.6007,-156.2409 1296.4852,-145.09"/>
<polygon fill="#191970" stroke="#191970" points="1299.2417,-147.247 1302.7358,-137.2449 1293.767,-142.8849 1299.2417,-147.247"/>
</g>
<!-- Node13&#45;&gt;Node6 -->
<g id="edge18" class="edge">
<title>Node13&#45;&gt;Node6</title>
<path fill="none" stroke="#191970" d="M647.0861,-117.9768C658.3263,-115.8476 670.3198,-113.715 681.5,-112 813.9245,-91.6861 972.4371,-75.8466 1042.3485,-69.2884"/>
<polygon fill="#191970" stroke="#191970" points="1042.7669,-72.7646 1052.3992,-68.3524 1042.1177,-65.7948 1042.7669,-72.7646"/>
</g>
<!-- Node14 -->
<g id="node15" class="node">
<title>Node14</title>
<polygon fill="none" stroke="#bfbfbf" points="586,-56.5 586,-75.5 615,-75.5 615,-56.5 586,-56.5"/>
<text text-anchor="middle" x="600.5" y="-63.5" font-family="Helvetica,sans-Serif" font-size="10.00" fill="#000000">list</text>
</g>
<!-- Node13&#45;&gt;Node14 -->
<g id="edge17" class="edge">
<title>Node13&#45;&gt;Node14</title>
<path fill="none" stroke="#191970" d="M600.5,-117.8906C600.5,-109.3657 600.5,-96.6392 600.5,-85.9235"/>
<polygon fill="#191970" stroke="#191970" points="604.0001,-85.7448 600.5,-75.7449 597.0001,-85.7449 604.0001,-85.7448"/>
</g>
<!-- Node15&#45;&gt;Node1 -->
<g id="edge23" class="edge">
<title>Node15&#45;&gt;Node1</title>
<path fill="none" stroke="#191970" d="M315.3125,-179.3906C300.0807,-170.8747 277.3497,-158.166 258.196,-147.4573"/>
<polygon fill="#191970" stroke="#191970" points="259.8455,-144.3697 249.409,-142.5446 256.4295,-150.4796 259.8455,-144.3697"/>
</g>
<!-- Node15&#45;&gt;Node2 -->
<g id="edge22" class="edge">
<title>Node15&#45;&gt;Node2</title>
<path fill="none" stroke="#191970" d="M348.3059,-179.2247C360.2848,-171.0025 376.2182,-158.1746 385.5,-143 396.241,-125.4398 400.9166,-102.1295 402.9478,-85.7737"/>
<polygon fill="#191970" stroke="#191970" points="406.4407,-86.0212 403.9737,-75.7176 399.4768,-85.3107 406.4407,-86.0212"/>
</g>
<!-- Node15&#45;&gt;Node13 -->
<g id="edge20" class="edge">
<title>Node15&#45;&gt;Node13</title>
<path fill="none" stroke="#191970" d="M374.081,-179.4581C421.2205,-168.6406 498.1113,-150.9959 549.0057,-139.3168"/>
<polygon fill="#191970" stroke="#191970" points="549.8577,-142.7123 558.8215,-137.0643 548.292,-135.8897 549.8577,-142.7123"/>
</g>
<!-- Node16 -->
<g id="node17" class="node">
<title>Node16</title>
<g id="a_node17"><a xlink:href="Transition_8h.html" target="_top" xlink:title="Transition.h">
<polygon fill="none" stroke="#000000" points="308.5,-118 308.5,-137 376.5,-137 376.5,-118 308.5,-118"/>
<text text-anchor="middle" x="342.5" y="-125" font-family="Helvetica,sans-Serif" font-size="10.00" fill="#000000">Transition.h</text>
</a>
</g>
</g>
<!-- Node15&#45;&gt;Node16 -->
<g id="edge21" class="edge">
<title>Node15&#45;&gt;Node16</title>
<path fill="none" stroke="#191970" d="M334.0625,-179.3906C335.4487,-170.8657 337.518,-158.1392 339.2604,-147.4235"/>
<polygon fill="#191970" stroke="#191970" points="342.7651,-147.677 340.9155,-137.2449 335.8558,-146.5535 342.7651,-147.677"/>
</g>
<!-- Node17&#45;&gt;Node2 -->
<g id="edge27" class="edge">
<title>Node17&#45;&gt;Node2</title>
<path fill="none" stroke="#191970" d="M137.3317,-113.5632C140.0895,-113.0305 142.8204,-112.5076 145.5,-112 221.272,-97.6468 309.7757,-82.2139 361.2449,-73.3711"/>
<polygon fill="#191970" stroke="#191970" points="362.0746,-76.78 371.3389,-71.6398 360.8912,-69.8807 362.0746,-76.78"/>
</g>
<!-- Node18&#45;&gt;Node5 -->
<g id="edge29" class="edge">
<title>Node18&#45;&gt;Node5</title>
<path fill="none" stroke="#191970" d="M959.9697,-358.2739C929.0688,-323.9941 862.7822,-239.0703 902.5,-179 915.1665,-159.8428 936.5616,-147.7891 957.8698,-140.2144"/>
<polygon fill="#191970" stroke="#191970" points="959.1967,-143.4633 967.6223,-137.0399 957.03,-136.8071 959.1967,-143.4633"/>
</g>
<!-- Node18&#45;&gt;Node6 -->
<g id="edge43" class="edge">
<title>Node18&#45;&gt;Node6</title>
<path fill="none" stroke="#191970" d="M1023.0574,-368.7523C1128.8008,-357.0689 1370.5,-322.49 1370.5,-250.5 1370.5,-250.5 1370.5,-250.5 1370.5,-189 1370.5,-152.4311 1369.6598,-135.3304 1341.5,-112 1307.5193,-83.847 1178.6022,-72.126 1114.7639,-67.9677"/>
<polygon fill="#191970" stroke="#191970" points="1114.9335,-64.4715 1104.735,-67.342 1114.4976,-71.458 1114.9335,-64.4715"/>
</g>
<!-- Node18&#45;&gt;Node7 -->
<g id="edge30" class="edge">
<title>Node18&#45;&gt;Node7</title>
<path fill="none" stroke="#191970" d="M1023.0044,-370.2059C1087.6601,-362.9726 1200.3266,-339.8583 1255.5,-266 1267.7438,-249.6097 1267.5242,-225.4045 1265.3484,-208.5222"/>
<polygon fill="#191970" stroke="#191970" points="1268.8018,-207.9527 1263.7474,-198.6413 1261.8919,-209.0724 1268.8018,-207.9527"/>
</g>
<!-- Node18&#45;&gt;Node8 -->
<g id="edge45" class="edge">
<title>Node18&#45;&gt;Node8</title>
<path fill="none" stroke="#191970" d="M1023.1094,-366.5979C1084.2743,-357.3402 1185.338,-339.9749 1218.5,-322 1274.9949,-291.3779 1278.2833,-261.1804 1294.5,-199 1299.0533,-181.5412 1303.4728,-161.4788 1306.509,-147.0579"/>
<polygon fill="#191970" stroke="#191970" points="1309.936,-147.7689 1308.5404,-137.2664 1303.0819,-146.3469 1309.936,-147.7689"/>
</g>
<!-- Node18&#45;&gt;Node9 -->
<g id="edge44" class="edge">
<title>Node18&#45;&gt;Node9</title>
<path fill="none" stroke="#191970" d="M925.7808,-363.7251C900.2053,-356.2701 870.1802,-343.4879 850.5,-322 821.177,-289.9835 812.3261,-237.5738 809.6547,-209.0419"/>
<polygon fill="#191970" stroke="#191970" points="813.1181,-208.4281 808.8651,-198.7243 806.1385,-208.9623 813.1181,-208.4281"/>
</g>
<!-- Node18&#45;&gt;Node10 -->
<g id="edge42" class="edge">
<title>Node18&#45;&gt;Node10</title>
<path fill="none" stroke="#191970" d="M969.2694,-358.4308C962.4298,-337.8531 950.8127,-299.6681 946.5,-266 944.0125,-246.5807 944.3711,-224.1799 945.1335,-208.5644"/>
<polygon fill="#191970" stroke="#191970" points="948.6302,-208.7215 945.7251,-198.5327 941.6424,-208.3093 948.6302,-208.7215"/>
</g>
<!-- Node19 -->
<g id="node20" class="node">
<title>Node19</title>
<g id="a_node20"><a xlink:href="PickUps__Actor_8h.html" target="_top" xlink:title="PickUps_Actor.h">
<polygon fill="none" stroke="#000000" points="1001,-302.5 1001,-321.5 1092,-321.5 1092,-302.5 1001,-302.5"/>
<text text-anchor="middle" x="1046.5" y="-309.5" font-family="Helvetica,sans-Serif" font-size="10.00" fill="#000000">PickUps_Actor.h</text>
</a>
</g>
</g>
<!-- Node18&#45;&gt;Node19 -->
<g id="edge31" class="edge">
<title>Node18&#45;&gt;Node19</title>
<path fill="none" stroke="#191970" d="M992.2978,-358.2977C1002.9167,-349.2274 1016.4031,-337.7077 1027.2667,-328.4285"/>
<polygon fill="#191970" stroke="#191970" points="1029.6413,-331.0031 1034.9719,-321.8469 1025.0949,-325.6805 1029.6413,-331.0031"/>
</g>
<!-- Node19&#45;&gt;Node5 -->
<g id="edge32" class="edge">
<title>Node19&#45;&gt;Node5</title>
<path fill="none" stroke="#191970" d="M1030.882,-302.4791C1019.2528,-294.3972 1004.2668,-281.6339 997.5,-266 980.0934,-225.7841 999.773,-174.0422 1013.1635,-146.5908"/>
<polygon fill="#191970" stroke="#191970" points="1016.4604,-147.8307 1017.8971,-137.3337 1010.228,-144.6437 1016.4604,-147.8307"/>
</g>
<!-- Node19&#45;&gt;Node6 -->
<g id="edge40" class="edge">
<title>Node19&#45;&gt;Node6</title>
<path fill="none" stroke="#191970" d="M1092.0032,-304.4481C1132.2534,-296.7302 1186.5493,-283.417 1199.5,-266 1247.7277,-201.1399 1147.6781,-116.1481 1100.8758,-81.6061"/>
<polygon fill="#191970" stroke="#191970" points="1102.697,-78.6037 1092.5442,-75.5751 1098.5924,-84.274 1102.697,-78.6037"/>
</g>
<!-- Node19&#45;&gt;Node7 -->
<g id="edge33" class="edge">
<title>Node19&#45;&gt;Node7</title>
<path fill="none" stroke="#191970" d="M1092.0859,-305.6737C1140.2152,-298.1535 1211.9244,-284.2851 1232.5,-266 1248.9669,-251.3662 1256.1182,-226.4199 1259.2017,-208.8967"/>
<polygon fill="#191970" stroke="#191970" points="1262.7182,-209.0367 1260.6976,-198.6363 1255.7915,-208.0267 1262.7182,-209.0367"/>
</g>
<!-- Node19&#45;&gt;Node10 -->
<g id="edge39" class="edge">
<title>Node19&#45;&gt;Node10</title>
<path fill="none" stroke="#191970" d="M1016.9355,-302.3651C999.1683,-295.0916 977.545,-283.3534 964.5,-266 952.0334,-249.416 948.0128,-225.5783 946.8109,-208.8304"/>
<polygon fill="#191970" stroke="#191970" points="950.2946,-208.3818 946.3599,-198.5447 943.3014,-208.6885 950.2946,-208.3818"/>
</g>
<!-- Node20 -->
<g id="node21" class="node">
<title>Node20</title>
<g id="a_node21"><a xlink:href="Texture__Actor_8h.html" target="_top" xlink:title="Texture_Actor.h">
<polygon fill="none" stroke="#000000" points="1104.5,-241 1104.5,-260 1190.5,-260 1190.5,-241 1104.5,-241"/>
<text text-anchor="middle" x="1147.5" y="-248" font-family="Helvetica,sans-Serif" font-size="10.00" fill="#000000">Texture_Actor.h</text>
</a>
</g>
</g>
<!-- Node19&#45;&gt;Node20 -->
<g id="edge34" class="edge">
<title>Node19&#45;&gt;Node20</title>
<path fill="none" stroke="#191970" d="M1062.2813,-302.3906C1078.5875,-292.4616 1104.254,-276.833 1123.1614,-265.3201"/>
<polygon fill="#191970" stroke="#191970" points="1125.1087,-268.2322 1131.8296,-260.0419 1121.4681,-262.2533 1125.1087,-268.2322"/>
</g>
<!-- Node21 -->
<g id="node22" class="node">
<title>Node21</title>
<polygon fill="none" stroke="#bfbfbf" points="1006.5,-241 1006.5,-260 1086.5,-260 1086.5,-241 1006.5,-241"/>
<text text-anchor="middle" x="1046.5" y="-248" font-family="Helvetica,sans-Serif" font-size="10.00" fill="#000000">box2d/box2d.h</text>
</g>
<!-- Node19&#45;&gt;Node21 -->
<g id="edge41" class="edge">
<title>Node19&#45;&gt;Node21</title>
<path fill="none" stroke="#191970" d="M1046.5,-302.3906C1046.5,-293.8657 1046.5,-281.1392 1046.5,-270.4235"/>
<polygon fill="#191970" stroke="#191970" points="1050.0001,-270.2448 1046.5,-260.2449 1043.0001,-270.2449 1050.0001,-270.2448"/>
</g>
<!-- Node20&#45;&gt;Node5 -->
<g id="edge35" class="edge">
<title>Node20&#45;&gt;Node5</title>
<path fill="none" stroke="#191970" d="M1137.7699,-240.8484C1116.7631,-220.011 1066.9365,-170.5862 1040.56,-144.4224"/>
<polygon fill="#191970" stroke="#191970" points="1042.7494,-141.6643 1033.1849,-137.1068 1037.8197,-146.6341 1042.7494,-141.6643"/>
</g>
<!-- Node20&#45;&gt;Node6 -->
<g id="edge38" class="edge">
<title>Node20&#45;&gt;Node6</title>
<path fill="none" stroke="#191970" d="M1145.2594,-240.8445C1139.7807,-217.9297 1124.6672,-158.6888 1104.5,-112 1100.4213,-102.5575 1094.9278,-92.562 1090.0412,-84.3094"/>
<polygon fill="#191970" stroke="#191970" points="1092.8998,-82.2746 1084.7047,-75.5597 1086.9236,-85.9195 1092.8998,-82.2746"/>
</g>
<!-- Node20&#45;&gt;Node7 -->
<g id="edge36" class="edge">
<title>Node20&#45;&gt;Node7</title>
<path fill="none" stroke="#191970" d="M1165.3125,-240.8906C1183.9685,-230.8262 1213.4797,-214.9057 1234.8974,-203.3514"/>
<polygon fill="#191970" stroke="#191970" points="1236.6734,-206.3702 1243.8126,-198.5419 1233.3498,-200.2095 1236.6734,-206.3702"/>
</g>
<!-- Node20&#45;&gt;Node10 -->
<g id="edge37" class="edge">
<title>Node20&#45;&gt;Node10</title>
<path fill="none" stroke="#191970" d="M1116.0938,-240.8906C1081.4302,-230.2846 1025.5119,-213.1753 987.4375,-201.5257"/>
<polygon fill="#191970" stroke="#191970" points="988.2722,-198.1209 977.6857,-198.5419 986.2241,-204.8146 988.2722,-198.1209"/>
</g>
</g>
</svg>
