<?xml version="1.0" encoding="UTF-8" standalone="no"?>
<!DOCTYPE svg PUBLIC "-//W3C//DTD SVG 1.1//EN"
 "http://www.w3.org/Graphics/SVG/1.1/DTD/svg11.dtd">
<!-- Generated by graphviz version 2.40.1 (20161225.0304)
 -->
<!-- Title: /mnt/hdd/fnky/C0de/CAPSTONE/clean_build/include/rapidjson/internal/diyfp.h Pages: 1 -->
<svg width="587pt" height="462pt"
 viewBox="0.00 0.00 586.50 462.00" xmlns="http://www.w3.org/2000/svg" xmlns:xlink="http://www.w3.org/1999/xlink">
<g id="graph0" class="graph" transform="scale(1 1) rotate(0) translate(4 458)">
<title>/mnt/hdd/fnky/C0de/CAPSTONE/clean_build/include/rapidjson/internal/diyfp.h</title>
<!-- Node7 -->
<g id="node1" class="node">
<title>Node7</title>
<polygon fill="#bfbfbf" stroke="#000000" points="133,-401.5 133,-453.5 260,-453.5 260,-401.5 133,-401.5"/>
<text text-anchor="start" x="141" y="-441.5" font-family="Helvetica,sans-Serif" font-size="10.00" fill="#000000">/mnt/hdd/fnky/C0de</text>
<text text-anchor="start" x="141" y="-430.5" font-family="Helvetica,sans-Serif" font-size="10.00" fill="#000000">/CAPSTONE/clean_build</text>
<text text-anchor="start" x="141" y="-419.5" font-family="Helvetica,sans-Serif" font-size="10.00" fill="#000000">/include/rapidjson/internal</text>
<text text-anchor="middle" x="196.5" y="-408.5" font-family="Helvetica,sans-Serif" font-size="10.00" fill="#000000">/diyfp.h</text>
</g>
<!-- Node8 -->
<g id="node2" class="node">
<title>Node8</title>
<g id="a_node2"><a xlink:href="strtod_8h.html" target="_top" xlink:title="/mnt/hdd/fnky/C0de\l/CAPSTONE/clean_build\l/include/rapidjson/internal\l/strtod.h">
<polygon fill="none" stroke="#000000" points="61,-312.5 61,-364.5 188,-364.5 188,-312.5 61,-312.5"/>
<text text-anchor="start" x="69" y="-352.5" font-family="Helvetica,sans-Serif" font-size="10.00" fill="#000000">/mnt/hdd/fnky/C0de</text>
<text text-anchor="start" x="69" y="-341.5" font-family="Helvetica,sans-Serif" font-size="10.00" fill="#000000">/CAPSTONE/clean_build</text>
<text text-anchor="start" x="69" y="-330.5" font-family="Helvetica,sans-Serif" font-size="10.00" fill="#000000">/include/rapidjson/internal</text>
<text text-anchor="middle" x="124.5" y="-319.5" font-family="Helvetica,sans-Serif" font-size="10.00" fill="#000000">/strtod.h</text>
</a>
</g>
</g>
<!-- Node7&#45;&gt;Node8 -->
<g id="edge1" class="edge">
<title>Node7&#45;&gt;Node8</title>
<path fill="none" stroke="#191970" d="M168.9365,-393.4285C161.1808,-383.8416 152.8716,-373.5704 145.5613,-364.5341"/>
<polygon fill="#191970" stroke="#191970" points="166.2765,-395.7053 175.287,-401.2784 171.7186,-391.3026 166.2765,-395.7053"/>
</g>
<!-- Node16 -->
<g id="node10" class="node">
<title>Node16</title>
<g id="a_node10"><a xlink:href="dtoa_8h.html" target="_top" xlink:title="/mnt/hdd/fnky/C0de\l/CAPSTONE/clean_build\l/include/rapidjson/internal\l/dtoa.h">
<polygon fill="none" stroke="#000000" points="207,-312.5 207,-364.5 334,-364.5 334,-312.5 207,-312.5"/>
<text text-anchor="start" x="215" y="-352.5" font-family="Helvetica,sans-Serif" font-size="10.00" fill="#000000">/mnt/hdd/fnky/C0de</text>
<text text-anchor="start" x="215" y="-341.5" font-family="Helvetica,sans-Serif" font-size="10.00" fill="#000000">/CAPSTONE/clean_build</text>
<text text-anchor="start" x="215" y="-330.5" font-family="Helvetica,sans-Serif" font-size="10.00" fill="#000000">/include/rapidjson/internal</text>
<text text-anchor="middle" x="270.5" y="-319.5" font-family="Helvetica,sans-Serif" font-size="10.00" fill="#000000">/dtoa.h</text>
</a>
</g>
</g>
<!-- Node7&#45;&gt;Node16 -->
<g id="edge10" class="edge">
<title>Node7&#45;&gt;Node16</title>
<path fill="none" stroke="#191970" d="M224.8291,-393.4285C232.8002,-383.8416 241.3403,-373.5704 248.8536,-364.5341"/>
<polygon fill="#191970" stroke="#191970" points="222.0043,-391.3514 218.3022,-401.2784 227.3868,-395.8268 222.0043,-391.3514"/>
</g>
<!-- Node9 -->
<g id="node3" class="node">
<title>Node9</title>
<g id="a_node3"><a xlink:href="reader_8h.html" target="_top" xlink:title="/mnt/hdd/fnky/C0de\l/CAPSTONE/clean_build\l/include/rapidjson/reader.h">
<polygon fill="none" stroke="#000000" points="58,-234.5 58,-275.5 189,-275.5 189,-234.5 58,-234.5"/>
<text text-anchor="start" x="66" y="-263.5" font-family="Helvetica,sans-Serif" font-size="10.00" fill="#000000">/mnt/hdd/fnky/C0de</text>
<text text-anchor="start" x="66" y="-252.5" font-family="Helvetica,sans-Serif" font-size="10.00" fill="#000000">/CAPSTONE/clean_build</text>
<text text-anchor="middle" x="123.5" y="-241.5" font-family="Helvetica,sans-Serif" font-size="10.00" fill="#000000">/include/rapidjson/reader.h</text>
</a>
</g>
</g>
<!-- Node8&#45;&gt;Node9 -->
<g id="edge2" class="edge">
<title>Node8&#45;&gt;Node9</title>
<path fill="none" stroke="#191970" d="M124.0607,-301.8168C123.9535,-292.8649 123.8425,-283.5976 123.7478,-275.6941"/>
<polygon fill="#191970" stroke="#191970" points="120.564,-302.1227 124.1836,-312.0801 127.5635,-302.0388 120.564,-302.1227"/>
</g>
<!-- Node10 -->
<g id="node4" class="node">
<title>Node10</title>
<g id="a_node4"><a xlink:href="document_8h.html" target="_top" xlink:title="/mnt/hdd/fnky/C0de\l/CAPSTONE/clean_build\l/include/rapidjson/document.h">
<polygon fill="none" stroke="#000000" points="40.5,-156.5 40.5,-197.5 186.5,-197.5 186.5,-156.5 40.5,-156.5"/>
<text text-anchor="start" x="48.5" y="-185.5" font-family="Helvetica,sans-Serif" font-size="10.00" fill="#000000">/mnt/hdd/fnky/C0de</text>
<text text-anchor="start" x="48.5" y="-174.5" font-family="Helvetica,sans-Serif" font-size="10.00" fill="#000000">/CAPSTONE/clean_build</text>
<text text-anchor="middle" x="113.5" y="-163.5" font-family="Helvetica,sans-Serif" font-size="10.00" fill="#000000">/include/rapidjson/document.h</text>
</a>
</g>
</g>
<!-- Node9&#45;&gt;Node10 -->
<g id="edge3" class="edge">
<title>Node9&#45;&gt;Node10</title>
<path fill="none" stroke="#191970" d="M119.5358,-224.0789C118.3997,-215.2178 117.1891,-205.7747 116.1525,-197.6898"/>
<polygon fill="#191970" stroke="#191970" points="116.0769,-224.6237 120.8202,-234.0974 123.02,-223.7335 116.0769,-224.6237"/>
</g>
<!-- Node11 -->
<g id="node5" class="node">
<title>Node11</title>
<g id="a_node5"><a xlink:href="NetworkComponent_8h.html" target="_top" xlink:title="/mnt/hdd/fnky/C0de\l/CAPSTONE/clean_build\l/include/Components/NetworkComponent.h">
<polygon fill="none" stroke="#000000" points="235,-78.5 235,-119.5 442,-119.5 442,-78.5 235,-78.5"/>
<text text-anchor="start" x="243" y="-107.5" font-family="Helvetica,sans-Serif" font-size="10.00" fill="#000000">/mnt/hdd/fnky/C0de</text>
<text text-anchor="start" x="243" y="-96.5" font-family="Helvetica,sans-Serif" font-size="10.00" fill="#000000">/CAPSTONE/clean_build</text>
<text text-anchor="middle" x="338.5" y="-85.5" font-family="Helvetica,sans-Serif" font-size="10.00" fill="#000000">/include/Components/NetworkComponent.h</text>
</a>
</g>
</g>
<!-- Node10&#45;&gt;Node11 -->
<g id="edge4" class="edge">
<title>Node10&#45;&gt;Node11</title>
<path fill="none" stroke="#191970" d="M182.7317,-152.9997C213.5803,-142.3055 249.5497,-129.8361 279.1471,-119.5757"/>
<polygon fill="#191970" stroke="#191970" points="181.2124,-149.822 172.9104,-156.4044 183.5052,-156.4358 181.2124,-149.822"/>
</g>
<!-- Node14 -->
<g id="node8" class="node">
<title>Node14</title>
<g id="a_node8"><a xlink:href="pointer_8h.html" target="_top" xlink:title="/mnt/hdd/fnky/C0de\l/CAPSTONE/clean_build\l/include/rapidjson/pointer.h">
<polygon fill="none" stroke="#000000" points="0,-78.5 0,-119.5 133,-119.5 133,-78.5 0,-78.5"/>
<text text-anchor="start" x="8" y="-107.5" font-family="Helvetica,sans-Serif" font-size="10.00" fill="#000000">/mnt/hdd/fnky/C0de</text>
<text text-anchor="start" x="8" y="-96.5" font-family="Helvetica,sans-Serif" font-size="10.00" fill="#000000">/CAPSTONE/clean_build</text>
<text text-anchor="middle" x="66.5" y="-85.5" font-family="Helvetica,sans-Serif" font-size="10.00" fill="#000000">/include/rapidjson/pointer.h</text>
</a>
</g>
</g>
<!-- Node10&#45;&gt;Node14 -->
<g id="edge7" class="edge">
<title>Node10&#45;&gt;Node14</title>
<path fill="none" stroke="#191970" d="M95.7353,-147.5181C90.1496,-138.2482 84.1034,-128.2141 78.9669,-119.6898"/>
<polygon fill="#191970" stroke="#191970" points="92.7459,-149.3386 100.9049,-156.0974 98.7416,-145.7258 92.7459,-149.3386"/>
</g>
<!-- Node15 -->
<g id="node9" class="node">
<title>Node15</title>
<g id="a_node9"><a xlink:href="schema_8h.html" target="_top" xlink:title="/mnt/hdd/fnky/C0de\l/CAPSTONE/clean_build\l/include/rapidjson/schema.h">
<polygon fill="none" stroke="#000000" points="35.5,-.5 35.5,-41.5 173.5,-41.5 173.5,-.5 35.5,-.5"/>
<text text-anchor="start" x="43.5" y="-29.5" font-family="Helvetica,sans-Serif" font-size="10.00" fill="#000000">/mnt/hdd/fnky/C0de</text>
<text text-anchor="start" x="43.5" y="-18.5" font-family="Helvetica,sans-Serif" font-size="10.00" fill="#000000">/CAPSTONE/clean_build</text>
<text text-anchor="middle" x="104.5" y="-7.5" font-family="Helvetica,sans-Serif" font-size="10.00" fill="#000000">/include/rapidjson/schema.h</text>
</a>
</g>
</g>
<!-- Node10&#45;&gt;Node15 -->
<g id="edge9" class="edge">
<title>Node10&#45;&gt;Node15</title>
<path fill="none" stroke="#191970" d="M131.1011,-147.6057C135.3646,-139.005 139.3193,-129.3851 141.5,-120 145.7247,-101.8177 146.7998,-95.8985 141.5,-78 137.6144,-64.8776 129.6532,-51.944 122.1077,-41.7225"/>
<polygon fill="#191970" stroke="#191970" points="127.9906,-146.0009 126.4229,-156.4791 134.1827,-149.2655 127.9906,-146.0009"/>
</g>
<!-- Node12 -->
<g id="node6" class="node">
<title>Node12</title>
<g id="a_node6"><a xlink:href="NetworkComponent_8cpp.html" target="_top" xlink:title="/mnt/hdd/fnky/C0de\l/CAPSTONE/clean_build\l/src/Components/NetworkComponent.cpp">
<polygon fill="none" stroke="#000000" points="378.5,-.5 378.5,-41.5 578.5,-41.5 578.5,-.5 378.5,-.5"/>
<text text-anchor="start" x="386.5" y="-29.5" font-family="Helvetica,sans-Serif" font-size="10.00" fill="#000000">/mnt/hdd/fnky/C0de</text>
<text text-anchor="start" x="386.5" y="-18.5" font-family="Helvetica,sans-Serif" font-size="10.00" fill="#000000">/CAPSTONE/clean_build</text>
<text text-anchor="middle" x="478.5" y="-7.5" font-family="Helvetica,sans-Serif" font-size="10.00" fill="#000000">/src/Components/NetworkComponent.cpp</text>
</a>
</g>
</g>
<!-- Node11&#45;&gt;Node12 -->
<g id="edge5" class="edge">
<title>Node11&#45;&gt;Node12</title>
<path fill="none" stroke="#191970" d="M384.521,-73.3597C403.0645,-63.0283 424.1617,-51.2742 441.6623,-41.5239"/>
<polygon fill="#191970" stroke="#191970" points="382.6821,-70.3776 375.6499,-78.3022 386.089,-76.4926 382.6821,-70.3776"/>
</g>
<!-- Node13 -->
<g id="node7" class="node">
<title>Node13</title>
<g id="a_node7"><a xlink:href="game_8cpp.html" target="_top" xlink:title="/mnt/hdd/fnky/C0de\l/CAPSTONE/clean_build\l/src/Window/game.cpp">
<polygon fill="none" stroke="#000000" points="233,-.5 233,-41.5 360,-41.5 360,-.5 233,-.5"/>
<text text-anchor="start" x="241" y="-29.5" font-family="Helvetica,sans-Serif" font-size="10.00" fill="#000000">/mnt/hdd/fnky/C0de</text>
<text text-anchor="start" x="241" y="-18.5" font-family="Helvetica,sans-Serif" font-size="10.00" fill="#000000">/CAPSTONE/clean_build</text>
<text text-anchor="middle" x="296.5" y="-7.5" font-family="Helvetica,sans-Serif" font-size="10.00" fill="#000000">/src/Window/game.cpp</text>
</a>
</g>
</g>
<!-- Node11&#45;&gt;Node13 -->
<g id="edge6" class="edge">
<title>Node11&#45;&gt;Node13</title>
<path fill="none" stroke="#191970" d="M322.4706,-69.2312C317.5223,-60.0415 312.1834,-50.1263 307.6407,-41.6898"/>
<polygon fill="#191970" stroke="#191970" points="319.4221,-70.9521 327.2448,-78.0974 325.5854,-67.6333 319.4221,-70.9521"/>
</g>
<!-- Node14&#45;&gt;Node15 -->
<g id="edge8" class="edge">
<title>Node14&#45;&gt;Node15</title>
<path fill="none" stroke="#191970" d="M81.1428,-68.9438C85.5804,-59.8351 90.3531,-50.0384 94.4204,-41.6898"/>
<polygon fill="#191970" stroke="#191970" points="77.9166,-67.5746 76.6833,-78.0974 84.2095,-70.6404 77.9166,-67.5746"/>
</g>
<!-- Node17 -->
<g id="node11" class="node">
<title>Node17</title>
<g id="a_node11"><a xlink:href="writer_8h.html" target="_top" xlink:title="/mnt/hdd/fnky/C0de\l/CAPSTONE/clean_build\l/include/rapidjson/writer.h">
<polygon fill="none" stroke="#000000" points="216.5,-234.5 216.5,-275.5 344.5,-275.5 344.5,-234.5 216.5,-234.5"/>
<text text-anchor="start" x="224.5" y="-263.5" font-family="Helvetica,sans-Serif" font-size="10.00" fill="#000000">/mnt/hdd/fnky/C0de</text>
<text text-anchor="start" x="224.5" y="-252.5" font-family="Helvetica,sans-Serif" font-size="10.00" fill="#000000">/CAPSTONE/clean_build</text>
<text text-anchor="middle" x="280.5" y="-241.5" font-family="Helvetica,sans-Serif" font-size="10.00" fill="#000000">/include/rapidjson/writer.h</text>
</a>
</g>
</g>
<!-- Node16&#45;&gt;Node17 -->
<g id="edge11" class="edge">
<title>Node16&#45;&gt;Node17</title>
<path fill="none" stroke="#191970" d="M274.8582,-302.1086C275.9411,-293.0666 277.0648,-283.6836 278.0217,-275.6941"/>
<polygon fill="#191970" stroke="#191970" points="271.3781,-301.7348 273.6641,-312.0801 278.3284,-302.5672 271.3781,-301.7348"/>
</g>
<!-- Node17&#45;&gt;Node11 -->
<g id="edge12" class="edge">
<title>Node17&#45;&gt;Node11</title>
<path fill="none" stroke="#191970" d="M336.4466,-228.9002C348.091,-220.7246 358.838,-210.4888 365.5,-198 378.916,-172.8502 365.0151,-140.4658 352.7028,-119.7141"/>
<polygon fill="#191970" stroke="#191970" points="334.3268,-226.1038 327.8547,-234.492 338.1451,-231.9707 334.3268,-226.1038"/>
</g>
<!-- Node18 -->
<g id="node12" class="node">
<title>Node18</title>
<g id="a_node12"><a xlink:href="prettywriter_8h.html" target="_top" xlink:title="/mnt/hdd/fnky/C0de\l/CAPSTONE/clean_build\l/include/rapidjson/prettywriter.h">
<polygon fill="none" stroke="#000000" points="204.5,-156.5 204.5,-197.5 356.5,-197.5 356.5,-156.5 204.5,-156.5"/>
<text text-anchor="start" x="212.5" y="-185.5" font-family="Helvetica,sans-Serif" font-size="10.00" fill="#000000">/mnt/hdd/fnky/C0de</text>
<text text-anchor="start" x="212.5" y="-174.5" font-family="Helvetica,sans-Serif" font-size="10.00" fill="#000000">/CAPSTONE/clean_build</text>
<text text-anchor="middle" x="280.5" y="-163.5" font-family="Helvetica,sans-Serif" font-size="10.00" fill="#000000">/include/rapidjson/prettywriter.h</text>
</a>
</g>
</g>
<!-- Node17&#45;&gt;Node18 -->
<g id="edge13" class="edge">
<title>Node17&#45;&gt;Node18</title>
<path fill="none" stroke="#191970" d="M280.5,-224.0789C280.5,-215.2178 280.5,-205.7747 280.5,-197.6898"/>
<polygon fill="#191970" stroke="#191970" points="277.0001,-224.0974 280.5,-234.0974 284.0001,-224.0975 277.0001,-224.0974"/>
</g>
</g>
</svg>
