<?xml version="1.0" encoding="UTF-8" standalone="no"?>
<!DOCTYPE svg PUBLIC "-//W3C//DTD SVG 1.1//EN"
 "http://www.w3.org/Graphics/SVG/1.1/DTD/svg11.dtd">
<!-- Generated by graphviz version 2.40.1 (20161225.0304)
 -->
<!-- Title: /mnt/hdd/fnky/C0de/CAPSTONE/clean_build/include/rapidjson/internal/diyfp.h Pages: 1 -->
<svg width="199pt" height="229pt"
 viewBox="0.00 0.00 198.50 229.00" xmlns="http://www.w3.org/2000/svg" xmlns:xlink="http://www.w3.org/1999/xlink">
<g id="graph0" class="graph" transform="scale(1 1) rotate(0) translate(4 225)">
<title>/mnt/hdd/fnky/C0de/CAPSTONE/clean_build/include/rapidjson/internal/diyfp.h</title>
<!-- Node0 -->
<g id="node1" class="node">
<title>Node0</title>
<polygon fill="#bfbfbf" stroke="#000000" points="48,-168.5 48,-220.5 175,-220.5 175,-168.5 48,-168.5"/>
<text text-anchor="start" x="56" y="-208.5" font-family="Helvetica,sans-Serif" font-size="10.00" fill="#000000">/mnt/hdd/fnky/C0de</text>
<text text-anchor="start" x="56" y="-197.5" font-family="Helvetica,sans-Serif" font-size="10.00" fill="#000000">/CAPSTONE/clean_build</text>
<text text-anchor="start" x="56" y="-186.5" font-family="Helvetica,sans-Serif" font-size="10.00" fill="#000000">/include/rapidjson/internal</text>
<text text-anchor="middle" x="111.5" y="-175.5" font-family="Helvetica,sans-Serif" font-size="10.00" fill="#000000">/diyfp.h</text>
</g>
<!-- Node1 -->
<g id="node2" class="node">
<title>Node1</title>
<g id="a_node2"><a xlink:href="rapidjson_8h.html" target="_top" xlink:title="common definitions and configuration ">
<polygon fill="none" stroke="#000000" points="50,-56.5 50,-75.5 123,-75.5 123,-56.5 50,-56.5"/>
<text text-anchor="middle" x="86.5" y="-63.5" font-family="Helvetica,sans-Serif" font-size="10.00" fill="#000000">../rapidjson.h</text>
</a>
</g>
</g>
<!-- Node0&#45;&gt;Node1 -->
<g id="edge1" class="edge">
<title>Node0&#45;&gt;Node1</title>
<path fill="none" stroke="#191970" d="M95.7459,-168.3904C90.0675,-157.5362 84.3577,-144.5574 81.5,-132 77.9939,-116.5935 79.6966,-98.6969 82.0241,-85.4296"/>
<polygon fill="#191970" stroke="#191970" points="85.4744,-86.0255 84.0256,-75.5302 78.6132,-84.6383 85.4744,-86.0255"/>
</g>
<!-- Node5 -->
<g id="node6" class="node">
<title>Node5</title>
<g id="a_node6"><a xlink:href="clzll_8h.html" target="_top" xlink:title="clzll.h">
<polygon fill="none" stroke="#000000" points="90.5,-112.5 90.5,-131.5 132.5,-131.5 132.5,-112.5 90.5,-112.5"/>
<text text-anchor="middle" x="111.5" y="-119.5" font-family="Helvetica,sans-Serif" font-size="10.00" fill="#000000">clzll.h</text>
</a>
</g>
</g>
<!-- Node0&#45;&gt;Node5 -->
<g id="edge5" class="edge">
<title>Node0&#45;&gt;Node5</title>
<path fill="none" stroke="#191970" d="M111.5,-168.3258C111.5,-159.5142 111.5,-149.8397 111.5,-141.621"/>
<polygon fill="#191970" stroke="#191970" points="115.0001,-141.534 111.5,-131.534 108.0001,-141.534 115.0001,-141.534"/>
</g>
<!-- Node6 -->
<g id="node7" class="node">
<title>Node6</title>
<polygon fill="none" stroke="#bfbfbf" points="150.5,-112.5 150.5,-131.5 190.5,-131.5 190.5,-112.5 150.5,-112.5"/>
<text text-anchor="middle" x="170.5" y="-119.5" font-family="Helvetica,sans-Serif" font-size="10.00" fill="#000000">limits</text>
</g>
<!-- Node0&#45;&gt;Node6 -->
<g id="edge7" class="edge">
<title>Node0&#45;&gt;Node6</title>
<path fill="none" stroke="#191970" d="M132.8004,-168.3258C140.6231,-158.7131 149.2815,-148.0735 156.3258,-139.4174"/>
<polygon fill="#191970" stroke="#191970" points="159.144,-141.4995 162.7413,-131.534 153.7146,-137.0811 159.144,-141.4995"/>
</g>
<!-- Node2 -->
<g id="node3" class="node">
<title>Node2</title>
<polygon fill="none" stroke="#bfbfbf" points="0,-.5 0,-19.5 45,-19.5 45,-.5 0,-.5"/>
<text text-anchor="middle" x="22.5" y="-7.5" font-family="Helvetica,sans-Serif" font-size="10.00" fill="#000000">cstdlib</text>
</g>
<!-- Node1&#45;&gt;Node2 -->
<g id="edge2" class="edge">
<title>Node1&#45;&gt;Node2</title>
<path fill="none" stroke="#191970" d="M75.3521,-56.2455C65.9913,-48.0549 52.4142,-36.1749 41.3651,-26.5069"/>
<polygon fill="#191970" stroke="#191970" points="43.3508,-23.5937 33.5202,-19.6427 38.7412,-28.8618 43.3508,-23.5937"/>
</g>
<!-- Node3 -->
<g id="node4" class="node">
<title>Node3</title>
<polygon fill="none" stroke="#bfbfbf" points="63.5,-.5 63.5,-19.5 109.5,-19.5 109.5,-.5 63.5,-.5"/>
<text text-anchor="middle" x="86.5" y="-7.5" font-family="Helvetica,sans-Serif" font-size="10.00" fill="#000000">cstring</text>
</g>
<!-- Node1&#45;&gt;Node3 -->
<g id="edge3" class="edge">
<title>Node1&#45;&gt;Node3</title>
<path fill="none" stroke="#191970" d="M86.5,-56.2455C86.5,-48.9382 86.5,-38.6944 86.5,-29.7046"/>
<polygon fill="#191970" stroke="#191970" points="90.0001,-29.6426 86.5,-19.6427 83.0001,-29.6427 90.0001,-29.6426"/>
</g>
<!-- Node4 -->
<g id="node5" class="node">
<title>Node4</title>
<polygon fill="none" stroke="#bfbfbf" points="128,-.5 128,-19.5 177,-19.5 177,-.5 128,-.5"/>
<text text-anchor="middle" x="152.5" y="-7.5" font-family="Helvetica,sans-Serif" font-size="10.00" fill="#000000">cassert</text>
</g>
<!-- Node1&#45;&gt;Node4 -->
<g id="edge4" class="edge">
<title>Node1&#45;&gt;Node4</title>
<path fill="none" stroke="#191970" d="M97.9963,-56.2455C107.7442,-47.9746 121.9259,-35.9416 133.3798,-26.2232"/>
<polygon fill="#191970" stroke="#191970" points="135.7747,-28.7813 141.1354,-19.6427 131.2459,-23.4437 135.7747,-28.7813"/>
</g>
<!-- Node5&#45;&gt;Node1 -->
<g id="edge6" class="edge">
<title>Node5&#45;&gt;Node1</title>
<path fill="none" stroke="#191970" d="M107.1453,-112.2455C103.7756,-104.6973 99.007,-94.0158 94.9017,-84.8197"/>
<polygon fill="#191970" stroke="#191970" points="98.0773,-83.3473 90.8048,-75.6427 91.6853,-86.2009 98.0773,-83.3473"/>
</g>
</g>
</svg>
