<?xml version="1.0" encoding="UTF-8" standalone="no"?>
<!DOCTYPE svg PUBLIC "-//W3C//DTD SVG 1.1//EN"
 "http://www.w3.org/Graphics/SVG/1.1/DTD/svg11.dtd">
<!-- Generated by graphviz version 2.40.1 (20161225.0304)
 -->
<!-- Title: /mnt/hdd/fnky/C0de/CAPSTONE/clean_build/include/rapidjson/document.h Pages: 1 -->
<svg width="576pt" height="206pt"
 viewBox="0.00 0.00 576.00 206.00" xmlns="http://www.w3.org/2000/svg" xmlns:xlink="http://www.w3.org/1999/xlink">
<g id="graph0" class="graph" transform="scale(1 1) rotate(0) translate(4 202)">
<title>/mnt/hdd/fnky/C0de/CAPSTONE/clean_build/include/rapidjson/document.h</title>
<!-- Node29 -->
<g id="node1" class="node">
<title>Node29</title>
<polygon fill="#bfbfbf" stroke="#000000" points="364,-156.5 364,-197.5 510,-197.5 510,-156.5 364,-156.5"/>
<text text-anchor="start" x="372" y="-185.5" font-family="Helvetica,sans-Serif" font-size="10.00" fill="#000000">/mnt/hdd/fnky/C0de</text>
<text text-anchor="start" x="372" y="-174.5" font-family="Helvetica,sans-Serif" font-size="10.00" fill="#000000">/CAPSTONE/clean_build</text>
<text text-anchor="middle" x="437" y="-163.5" font-family="Helvetica,sans-Serif" font-size="10.00" fill="#000000">/include/rapidjson/document.h</text>
</g>
<!-- Node30 -->
<g id="node2" class="node">
<title>Node30</title>
<g id="a_node2"><a xlink:href="NetworkComponent_8h.html" target="_top" xlink:title="/mnt/hdd/fnky/C0de\l/CAPSTONE/clean_build\l/include/Components/NetworkComponent.h">
<polygon fill="none" stroke="#000000" points="145.5,-78.5 145.5,-119.5 352.5,-119.5 352.5,-78.5 145.5,-78.5"/>
<text text-anchor="start" x="153.5" y="-107.5" font-family="Helvetica,sans-Serif" font-size="10.00" fill="#000000">/mnt/hdd/fnky/C0de</text>
<text text-anchor="start" x="153.5" y="-96.5" font-family="Helvetica,sans-Serif" font-size="10.00" fill="#000000">/CAPSTONE/clean_build</text>
<text text-anchor="middle" x="249" y="-85.5" font-family="Helvetica,sans-Serif" font-size="10.00" fill="#000000">/include/Components/NetworkComponent.h</text>
</a>
</g>
</g>
<!-- Node29&#45;&gt;Node30 -->
<g id="edge1" class="edge">
<title>Node29&#45;&gt;Node30</title>
<path fill="none" stroke="#191970" d="M377.5667,-152.3415C352.1068,-141.7784 322.7163,-129.5844 298.4678,-119.5239"/>
<polygon fill="#191970" stroke="#191970" points="376.5352,-155.7028 387.113,-156.3022 379.2177,-149.2372 376.5352,-155.7028"/>
</g>
<!-- Node33 -->
<g id="node5" class="node">
<title>Node33</title>
<g id="a_node5"><a xlink:href="pointer_8h.html" target="_top" xlink:title="/mnt/hdd/fnky/C0de\l/CAPSTONE/clean_build\l/include/rapidjson/pointer.h">
<polygon fill="none" stroke="#000000" points="370.5,-78.5 370.5,-119.5 503.5,-119.5 503.5,-78.5 370.5,-78.5"/>
<text text-anchor="start" x="378.5" y="-107.5" font-family="Helvetica,sans-Serif" font-size="10.00" fill="#000000">/mnt/hdd/fnky/C0de</text>
<text text-anchor="start" x="378.5" y="-96.5" font-family="Helvetica,sans-Serif" font-size="10.00" fill="#000000">/CAPSTONE/clean_build</text>
<text text-anchor="middle" x="437" y="-85.5" font-family="Helvetica,sans-Serif" font-size="10.00" fill="#000000">/include/rapidjson/pointer.h</text>
</a>
</g>
</g>
<!-- Node29&#45;&gt;Node33 -->
<g id="edge4" class="edge">
<title>Node29&#45;&gt;Node33</title>
<path fill="none" stroke="#191970" d="M437,-146.0789C437,-137.2178 437,-127.7747 437,-119.6898"/>
<polygon fill="#191970" stroke="#191970" points="433.5001,-146.0974 437,-156.0974 440.5001,-146.0975 433.5001,-146.0974"/>
</g>
<!-- Node34 -->
<g id="node6" class="node">
<title>Node34</title>
<g id="a_node6"><a xlink:href="schema_8h.html" target="_top" xlink:title="/mnt/hdd/fnky/C0de\l/CAPSTONE/clean_build\l/include/rapidjson/schema.h">
<polygon fill="none" stroke="#000000" points="430,-.5 430,-41.5 568,-41.5 568,-.5 430,-.5"/>
<text text-anchor="start" x="438" y="-29.5" font-family="Helvetica,sans-Serif" font-size="10.00" fill="#000000">/mnt/hdd/fnky/C0de</text>
<text text-anchor="start" x="438" y="-18.5" font-family="Helvetica,sans-Serif" font-size="10.00" fill="#000000">/CAPSTONE/clean_build</text>
<text text-anchor="middle" x="499" y="-7.5" font-family="Helvetica,sans-Serif" font-size="10.00" fill="#000000">/include/rapidjson/schema.h</text>
</a>
</g>
</g>
<!-- Node29&#45;&gt;Node34 -->
<g id="edge6" class="edge">
<title>Node29&#45;&gt;Node34</title>
<path fill="none" stroke="#191970" d="M486.5029,-150.345C497.155,-142.113 507.0048,-131.9905 513,-120 525.4207,-95.1585 516.8468,-62.697 508.6697,-41.8442"/>
<polygon fill="#191970" stroke="#191970" points="484.3319,-147.595 478.2512,-156.2712 488.4152,-153.2807 484.3319,-147.595"/>
</g>
<!-- Node31 -->
<g id="node3" class="node">
<title>Node31</title>
<g id="a_node3"><a xlink:href="NetworkComponent_8cpp.html" target="_top" xlink:title="/mnt/hdd/fnky/C0de\l/CAPSTONE/clean_build\l/src/Components/NetworkComponent.cpp">
<polygon fill="none" stroke="#000000" points="0,-.5 0,-41.5 200,-41.5 200,-.5 0,-.5"/>
<text text-anchor="start" x="8" y="-29.5" font-family="Helvetica,sans-Serif" font-size="10.00" fill="#000000">/mnt/hdd/fnky/C0de</text>
<text text-anchor="start" x="8" y="-18.5" font-family="Helvetica,sans-Serif" font-size="10.00" fill="#000000">/CAPSTONE/clean_build</text>
<text text-anchor="middle" x="100" y="-7.5" font-family="Helvetica,sans-Serif" font-size="10.00" fill="#000000">/src/Components/NetworkComponent.cpp</text>
</a>
</g>
</g>
<!-- Node30&#45;&gt;Node31 -->
<g id="edge2" class="edge">
<title>Node30&#45;&gt;Node31</title>
<path fill="none" stroke="#191970" d="M200.5581,-73.6411C180.6935,-63.2422 158.0008,-51.3628 139.2058,-41.5239"/>
<polygon fill="#191970" stroke="#191970" points="198.9792,-76.7651 209.4619,-78.3022 202.2257,-70.5635 198.9792,-76.7651"/>
</g>
<!-- Node32 -->
<g id="node4" class="node">
<title>Node32</title>
<g id="a_node4"><a xlink:href="game_8cpp.html" target="_top" xlink:title="/mnt/hdd/fnky/C0de\l/CAPSTONE/clean_build\l/src/Window/game.cpp">
<polygon fill="none" stroke="#000000" points="218.5,-.5 218.5,-41.5 345.5,-41.5 345.5,-.5 218.5,-.5"/>
<text text-anchor="start" x="226.5" y="-29.5" font-family="Helvetica,sans-Serif" font-size="10.00" fill="#000000">/mnt/hdd/fnky/C0de</text>
<text text-anchor="start" x="226.5" y="-18.5" font-family="Helvetica,sans-Serif" font-size="10.00" fill="#000000">/CAPSTONE/clean_build</text>
<text text-anchor="middle" x="282" y="-7.5" font-family="Helvetica,sans-Serif" font-size="10.00" fill="#000000">/src/Window/game.cpp</text>
</a>
</g>
</g>
<!-- Node30&#45;&gt;Node32 -->
<g id="edge3" class="edge">
<title>Node30&#45;&gt;Node32</title>
<path fill="none" stroke="#191970" d="M261.8379,-68.6559C265.657,-59.629 269.7517,-49.9505 273.2466,-41.6898"/>
<polygon fill="#191970" stroke="#191970" points="258.5165,-67.524 257.8434,-78.0974 264.9632,-70.2515 258.5165,-67.524"/>
</g>
<!-- Node33&#45;&gt;Node34 -->
<g id="edge5" class="edge">
<title>Node33&#45;&gt;Node34</title>
<path fill="none" stroke="#191970" d="M459.9793,-70.0905C467.4733,-60.6626 475.6388,-50.3899 482.5543,-41.6898"/>
<polygon fill="#191970" stroke="#191970" points="457.0975,-68.0913 453.6149,-78.0974 462.5772,-72.447 457.0975,-68.0913"/>
</g>
</g>
</svg>
