<?xml version="1.0" encoding="UTF-8" standalone="no"?>
<!DOCTYPE svg PUBLIC "-//W3C//DTD SVG 1.1//EN"
 "http://www.w3.org/Graphics/SVG/1.1/DTD/svg11.dtd">
<!-- Generated by graphviz version 2.40.1 (20161225.0304)
 -->
<!-- Title: /mnt/hdd/fnky/C0de/CAPSTONE/clean_build/include/rapidjson/document.h Pages: 1 -->
<svg width="1095pt" height="442pt"
 viewBox="0.00 0.00 1095.00 442.00" xmlns="http://www.w3.org/2000/svg" xmlns:xlink="http://www.w3.org/1999/xlink">
<g id="graph0" class="graph" transform="scale(1 1) rotate(0) translate(4 438)">
<title>/mnt/hdd/fnky/C0de/CAPSTONE/clean_build/include/rapidjson/document.h</title>
<!-- Node0 -->
<g id="node1" class="node">
<title>Node0</title>
<polygon fill="#bfbfbf" stroke="#000000" points="748.5,-392.5 748.5,-433.5 894.5,-433.5 894.5,-392.5 748.5,-392.5"/>
<text text-anchor="start" x="756.5" y="-421.5" font-family="Helvetica,sans-Serif" font-size="10.00" fill="#000000">/mnt/hdd/fnky/C0de</text>
<text text-anchor="start" x="756.5" y="-410.5" font-family="Helvetica,sans-Serif" font-size="10.00" fill="#000000">/CAPSTONE/clean_build</text>
<text text-anchor="middle" x="821.5" y="-399.5" font-family="Helvetica,sans-Serif" font-size="10.00" fill="#000000">/include/rapidjson/document.h</text>
</g>
<!-- Node1 -->
<g id="node2" class="node">
<title>Node1</title>
<g id="a_node2"><a xlink:href="reader_8h.html" target="_top" xlink:title="reader.h">
<polygon fill="none" stroke="#000000" points="527.5,-336.5 527.5,-355.5 579.5,-355.5 579.5,-336.5 527.5,-336.5"/>
<text text-anchor="middle" x="553.5" y="-343.5" font-family="Helvetica,sans-Serif" font-size="10.00" fill="#000000">reader.h</text>
</a>
</g>
</g>
<!-- Node0&#45;&gt;Node1 -->
<g id="edge1" class="edge">
<title>Node0&#45;&gt;Node1</title>
<path fill="none" stroke="#191970" d="M748.2678,-394.692C696.8002,-381.825 630.1585,-365.1646 589.6797,-355.0449"/>
<polygon fill="#191970" stroke="#191970" points="590.2812,-351.5876 579.7309,-352.5577 588.5834,-358.3786 590.2812,-351.5876"/>
</g>
<!-- Node7 -->
<g id="node8" class="node">
<title>Node7</title>
<g id="a_node8"><a xlink:href="meta_8h.html" target="_top" xlink:title="internal/meta.h">
<polygon fill="none" stroke="#000000" points="613,-168.5 613,-187.5 694,-187.5 694,-168.5 613,-168.5"/>
<text text-anchor="middle" x="653.5" y="-175.5" font-family="Helvetica,sans-Serif" font-size="10.00" fill="#000000">internal/meta.h</text>
</a>
</g>
</g>
<!-- Node0&#45;&gt;Node7 -->
<g id="edge43" class="edge">
<title>Node0&#45;&gt;Node7</title>
<path fill="none" stroke="#191970" d="M804.4342,-392.1468C786.3109,-369.7608 757.0834,-332.9625 733.5,-300 707.7389,-263.9937 679.8599,-220.2792 664.7654,-196.1696"/>
<polygon fill="#191970" stroke="#191970" points="667.7259,-194.3025 659.465,-187.6687 661.786,-198.0062 667.7259,-194.3025"/>
</g>
<!-- Node9 -->
<g id="node10" class="node">
<title>Node9</title>
<polygon fill="none" stroke="#bfbfbf" points="446.5,-168.5 446.5,-187.5 486.5,-187.5 486.5,-168.5 446.5,-168.5"/>
<text text-anchor="middle" x="466.5" y="-175.5" font-family="Helvetica,sans-Serif" font-size="10.00" fill="#000000">limits</text>
</g>
<!-- Node0&#45;&gt;Node9 -->
<g id="edge50" class="edge">
<title>Node0&#45;&gt;Node9</title>
<path fill="none" stroke="#191970" d="M748.3987,-407.9431C669.759,-401.0347 551.5192,-385.9237 518.5,-356 472.6673,-314.4641 466.3403,-235.0172 466.0364,-197.9572"/>
<polygon fill="#191970" stroke="#191970" points="469.5365,-197.9269 466.0983,-187.9055 462.5367,-197.8837 469.5365,-197.9269"/>
</g>
<!-- Node12 -->
<g id="node13" class="node">
<title>Node12</title>
<g id="a_node13"><a xlink:href="encodedstream_8h.html" target="_top" xlink:title="encodedstream.h">
<polygon fill="none" stroke="#000000" points="742.5,-280.5 742.5,-299.5 834.5,-299.5 834.5,-280.5 742.5,-280.5"/>
<text text-anchor="middle" x="788.5" y="-287.5" font-family="Helvetica,sans-Serif" font-size="10.00" fill="#000000">encodedstream.h</text>
</a>
</g>
</g>
<!-- Node0&#45;&gt;Node12 -->
<g id="edge48" class="edge">
<title>Node0&#45;&gt;Node12</title>
<path fill="none" stroke="#191970" d="M815.9765,-392.4126C809.7639,-369.2565 799.7518,-331.9384 793.6825,-309.3165"/>
<polygon fill="#191970" stroke="#191970" points="797.0255,-308.2696 791.0537,-299.5182 790.2646,-310.0836 797.0255,-308.2696"/>
</g>
<!-- Node13 -->
<g id="node14" class="node">
<title>Node13</title>
<g id="a_node14"><a xlink:href="memorystream_8h.html" target="_top" xlink:title="memorystream.h">
<polygon fill="none" stroke="#000000" points="780.5,-224.5 780.5,-243.5 870.5,-243.5 870.5,-224.5 780.5,-224.5"/>
<text text-anchor="middle" x="825.5" y="-231.5" font-family="Helvetica,sans-Serif" font-size="10.00" fill="#000000">memorystream.h</text>
</a>
</g>
</g>
<!-- Node0&#45;&gt;Node13 -->
<g id="edge47" class="edge">
<title>Node0&#45;&gt;Node13</title>
<path fill="none" stroke="#191970" d="M829.4623,-392.2153C838.467,-365.9976 850.9639,-319.5569 843.5,-280 841.7559,-270.7566 838.2019,-260.9893 834.7091,-252.844"/>
<polygon fill="#191970" stroke="#191970" points="837.8024,-251.1923 830.4585,-243.5556 831.4372,-254.1052 837.8024,-251.1923"/>
</g>
<!-- Node25 -->
<g id="node26" class="node">
<title>Node25</title>
<g id="a_node26"><a xlink:href="strfunc_8h.html" target="_top" xlink:title="internal/strfunc.h">
<polygon fill="none" stroke="#000000" points="880,-336.5 880,-355.5 969,-355.5 969,-336.5 880,-336.5"/>
<text text-anchor="middle" x="924.5" y="-343.5" font-family="Helvetica,sans-Serif" font-size="10.00" fill="#000000">internal/strfunc.h</text>
</a>
</g>
</g>
<!-- Node0&#45;&gt;Node25 -->
<g id="edge44" class="edge">
<title>Node0&#45;&gt;Node25</title>
<path fill="none" stroke="#191970" d="M853.2438,-392.3511C868.663,-382.3212 886.8671,-370.4797 901.0157,-361.2762"/>
<polygon fill="#191970" stroke="#191970" points="903.1837,-364.0413 909.6578,-355.6546 899.3667,-358.1735 903.1837,-364.0413"/>
</g>
<!-- Node27 -->
<g id="node28" class="node">
<title>Node27</title>
<polygon fill="none" stroke="#bfbfbf" points="987,-336.5 987,-355.5 1022,-355.5 1022,-336.5 987,-336.5"/>
<text text-anchor="middle" x="1004.5" y="-343.5" font-family="Helvetica,sans-Serif" font-size="10.00" fill="#000000">new</text>
</g>
<!-- Node0&#45;&gt;Node27 -->
<g id="edge49" class="edge">
<title>Node0&#45;&gt;Node27</title>
<path fill="none" stroke="#191970" d="M879.0136,-392.4138C906.4379,-382.5289 939.9161,-370.3636 977.3061,-356.4089"/>
<polygon fill="#191970" stroke="#191970" points="978.7546,-359.604 986.895,-352.8228 976.3026,-353.0475 978.7546,-359.604"/>
</g>
<!-- Node28 -->
<g id="node29" class="node">
<title>Node28</title>
<polygon fill="none" stroke="#bfbfbf" points="1040,-336.5 1040,-355.5 1087,-355.5 1087,-336.5 1040,-336.5"/>
<text text-anchor="middle" x="1063.5" y="-343.5" font-family="Helvetica,sans-Serif" font-size="10.00" fill="#000000">iterator</text>
</g>
<!-- Node0&#45;&gt;Node28 -->
<g id="edge51" class="edge">
<title>Node0&#45;&gt;Node28</title>
<path fill="none" stroke="#191970" d="M894.5804,-393.8911C932.5893,-383.7813 980.0168,-370.9015 1030.0585,-356.3591"/>
<polygon fill="#191970" stroke="#191970" points="1031.1454,-359.688 1039.7647,-353.527 1029.1846,-352.9682 1031.1454,-359.688"/>
</g>
<!-- Node2 -->
<g id="node3" class="node">
<title>Node2</title>
<g id="a_node3"><a xlink:href="allocators_8h.html" target="_top" xlink:title="allocators.h">
<polygon fill="none" stroke="#000000" points="543,-224.5 543,-243.5 610,-243.5 610,-224.5 543,-224.5"/>
<text text-anchor="middle" x="576.5" y="-231.5" font-family="Helvetica,sans-Serif" font-size="10.00" fill="#000000">allocators.h</text>
</a>
</g>
</g>
<!-- Node1&#45;&gt;Node2 -->
<g id="edge2" class="edge">
<title>Node1&#45;&gt;Node2</title>
<path fill="none" stroke="#191970" d="M555.461,-336.4509C559.2292,-318.1013 567.5483,-277.5908 572.5224,-253.3693"/>
<polygon fill="#191970" stroke="#191970" points="575.9608,-254.0246 574.544,-243.5249 569.1039,-252.6164 575.9608,-254.0246"/>
</g>
<!-- Node1&#45;&gt;Node7 -->
<g id="edge21" class="edge">
<title>Node1&#45;&gt;Node7</title>
<path fill="none" stroke="#191970" d="M560.1988,-336.3541C572.507,-318.4815 599.3081,-278.8604 619.5,-244 628.5606,-228.3572 637.8983,-210.045 644.49,-196.6832"/>
<polygon fill="#191970" stroke="#191970" points="647.7036,-198.0784 648.9454,-187.5566 641.4132,-195.0075 647.7036,-198.0784"/>
</g>
<!-- Node1&#45;&gt;Node9 -->
<g id="edge40" class="edge">
<title>Node1&#45;&gt;Node9</title>
<path fill="none" stroke="#191970" d="M548.451,-336.1882C537.7795,-315.4577 512.1347,-265.6802 490.5,-224 485.7873,-214.9208 480.533,-204.8447 476.1449,-196.4427"/>
<polygon fill="#191970" stroke="#191970" points="479.2096,-194.7503 471.4759,-187.5087 473.0057,-197.9925 479.2096,-194.7503"/>
</g>
<!-- Node10 -->
<g id="node11" class="node">
<title>Node10</title>
<g id="a_node11"><a xlink:href="stream_8h.html" target="_top" xlink:title="stream.h">
<polygon fill="none" stroke="#000000" points="722,-168.5 722,-187.5 777,-187.5 777,-168.5 722,-168.5"/>
<text text-anchor="middle" x="749.5" y="-175.5" font-family="Helvetica,sans-Serif" font-size="10.00" fill="#000000">stream.h</text>
</a>
</g>
</g>
<!-- Node1&#45;&gt;Node10 -->
<g id="edge11" class="edge">
<title>Node1&#45;&gt;Node10</title>
<path fill="none" stroke="#191970" d="M564.5994,-336.4862C596.6554,-309.0096 689.6657,-229.2866 730.2178,-194.5276"/>
<polygon fill="#191970" stroke="#191970" points="732.7193,-196.9932 738.0341,-187.8279 728.1638,-191.6784 732.7193,-196.9932"/>
</g>
<!-- Node1&#45;&gt;Node12 -->
<g id="edge15" class="edge">
<title>Node1&#45;&gt;Node12</title>
<path fill="none" stroke="#191970" d="M579.547,-339.7931C617.8143,-330.674 689.9501,-313.4842 738.6203,-301.8862"/>
<polygon fill="#191970" stroke="#191970" points="739.7129,-305.2239 748.6292,-299.5011 738.0902,-298.4146 739.7129,-305.2239"/>
</g>
<!-- Node14 -->
<g id="node15" class="node">
<title>Node14</title>
<g id="a_node15"><a xlink:href="clzll_8h.html" target="_top" xlink:title="internal/clzll.h">
<polygon fill="none" stroke="#000000" points="351,-168.5 351,-187.5 428,-187.5 428,-168.5 351,-168.5"/>
<text text-anchor="middle" x="389.5" y="-175.5" font-family="Helvetica,sans-Serif" font-size="10.00" fill="#000000">internal/clzll.h</text>
</a>
</g>
</g>
<!-- Node1&#45;&gt;Node14 -->
<g id="edge19" class="edge">
<title>Node1&#45;&gt;Node14</title>
<path fill="none" stroke="#191970" d="M544.2128,-336.4862C517.6148,-309.2396 440.8644,-230.6172 406.4951,-195.4096"/>
<polygon fill="#191970" stroke="#191970" points="408.5838,-192.5388 399.0939,-187.8279 403.5748,-197.4285 408.5838,-192.5388"/>
</g>
<!-- Node15 -->
<g id="node16" class="node">
<title>Node15</title>
<g id="a_node16"><a xlink:href="stack_8h.html" target="_top" xlink:title="internal/stack.h">
<polygon fill="none" stroke="#000000" points="123,-280.5 123,-299.5 206,-299.5 206,-280.5 123,-280.5"/>
<text text-anchor="middle" x="164.5" y="-287.5" font-family="Helvetica,sans-Serif" font-size="10.00" fill="#000000">internal/stack.h</text>
</a>
</g>
</g>
<!-- Node1&#45;&gt;Node15 -->
<g id="edge22" class="edge">
<title>Node1&#45;&gt;Node15</title>
<path fill="none" stroke="#191970" d="M527.3726,-342.2387C463.8418,-333.0929 300.3315,-309.5541 216.2014,-297.4429"/>
<polygon fill="#191970" stroke="#191970" points="216.4984,-293.9496 206.1017,-295.9889 215.5009,-300.8782 216.4984,-293.9496"/>
</g>
<!-- Node18 -->
<g id="node19" class="node">
<title>Node18</title>
<g id="a_node19"><a xlink:href="strtod_8h.html" target="_top" xlink:title="internal/strtod.h">
<polygon fill="none" stroke="#000000" points="243.5,-280.5 243.5,-299.5 327.5,-299.5 327.5,-280.5 243.5,-280.5"/>
<text text-anchor="middle" x="285.5" y="-287.5" font-family="Helvetica,sans-Serif" font-size="10.00" fill="#000000">internal/strtod.h</text>
</a>
</g>
</g>
<!-- Node1&#45;&gt;Node18 -->
<g id="edge27" class="edge">
<title>Node1&#45;&gt;Node18</title>
<path fill="none" stroke="#191970" d="M527.3151,-340.5285C483.4547,-331.3637 394.3548,-312.7458 337.417,-300.8483"/>
<polygon fill="#191970" stroke="#191970" points="338.0303,-297.401 327.5258,-298.7815 336.5984,-304.253 338.0303,-297.401"/>
</g>
<!-- Node24 -->
<g id="node25" class="node">
<title>Node24</title>
<g id="a_node25"><a xlink:href="error_8h.html" target="_top" xlink:title="error/error.h">
<polygon fill="none" stroke="#000000" points="0,-280.5 0,-299.5 67,-299.5 67,-280.5 0,-280.5"/>
<text text-anchor="middle" x="33.5" y="-287.5" font-family="Helvetica,sans-Serif" font-size="10.00" fill="#000000">error/error.h</text>
</a>
</g>
</g>
<!-- Node1&#45;&gt;Node24 -->
<g id="edge41" class="edge">
<title>Node1&#45;&gt;Node24</title>
<path fill="none" stroke="#191970" d="M527.2563,-343.4205C459.114,-336.6856 270.9645,-317.8542 114.5,-300 102.5228,-298.6333 89.5603,-297.0705 77.5902,-295.5929"/>
<polygon fill="#191970" stroke="#191970" points="77.7316,-292.0837 67.3762,-294.3235 76.8681,-299.0302 77.7316,-292.0837"/>
</g>
<!-- Node3 -->
<g id="node4" class="node">
<title>Node3</title>
<g id="a_node4"><a xlink:href="rapidjson_8h.html" target="_top" xlink:title="common definitions and configuration ">
<polygon fill="none" stroke="#000000" points="315.5,-56.5 315.5,-75.5 379.5,-75.5 379.5,-56.5 315.5,-56.5"/>
<text text-anchor="middle" x="347.5" y="-63.5" font-family="Helvetica,sans-Serif" font-size="10.00" fill="#000000">rapidjson.h</text>
</a>
</g>
</g>
<!-- Node2&#45;&gt;Node3 -->
<g id="edge3" class="edge">
<title>Node2&#45;&gt;Node3</title>
<path fill="none" stroke="#191970" d="M577.5093,-224.4071C578.4433,-210.5191 578.1401,-184.6564 565.5,-168 522.3722,-111.1688 439.8028,-84.773 389.5862,-73.4945"/>
<polygon fill="#191970" stroke="#191970" points="390.203,-70.0473 379.6915,-71.3737 388.7359,-76.8919 390.203,-70.0473"/>
</g>
<!-- Node2&#45;&gt;Node7 -->
<g id="edge7" class="edge">
<title>Node2&#45;&gt;Node7</title>
<path fill="none" stroke="#191970" d="M589.9124,-224.2455C601.5057,-215.814 618.4748,-203.4729 631.9678,-193.6598"/>
<polygon fill="#191970" stroke="#191970" points="634.2126,-196.355 640.2413,-187.6427 630.0953,-190.6938 634.2126,-196.355"/>
</g>
<!-- Node8 -->
<g id="node9" class="node">
<title>Node8</title>
<polygon fill="none" stroke="#bfbfbf" points="504.5,-168.5 504.5,-187.5 556.5,-187.5 556.5,-168.5 504.5,-168.5"/>
<text text-anchor="middle" x="530.5" y="-175.5" font-family="Helvetica,sans-Serif" font-size="10.00" fill="#000000">memory</text>
</g>
<!-- Node2&#45;&gt;Node8 -->
<g id="edge9" class="edge">
<title>Node2&#45;&gt;Node8</title>
<path fill="none" stroke="#191970" d="M568.4874,-224.2455C562.0232,-216.3761 552.7615,-205.101 545.0017,-195.6542"/>
<polygon fill="#191970" stroke="#191970" points="547.4727,-193.1484 538.4208,-187.6427 542.0636,-197.5916 547.4727,-193.1484"/>
</g>
<!-- Node2&#45;&gt;Node9 -->
<g id="edge10" class="edge">
<title>Node2&#45;&gt;Node9</title>
<path fill="none" stroke="#191970" d="M557.3395,-224.2455C539.9889,-215.4125 514.2099,-202.2887 494.5417,-192.2758"/>
<polygon fill="#191970" stroke="#191970" points="495.9405,-189.0605 485.441,-187.6427 492.7647,-195.2986 495.9405,-189.0605"/>
</g>
<!-- Node4 -->
<g id="node5" class="node">
<title>Node4</title>
<polygon fill="none" stroke="#bfbfbf" points="261,-.5 261,-19.5 306,-19.5 306,-.5 261,-.5"/>
<text text-anchor="middle" x="283.5" y="-7.5" font-family="Helvetica,sans-Serif" font-size="10.00" fill="#000000">cstdlib</text>
</g>
<!-- Node3&#45;&gt;Node4 -->
<g id="edge4" class="edge">
<title>Node3&#45;&gt;Node4</title>
<path fill="none" stroke="#191970" d="M336.3521,-56.2455C326.9913,-48.0549 313.4142,-36.1749 302.3651,-26.5069"/>
<polygon fill="#191970" stroke="#191970" points="304.3508,-23.5937 294.5202,-19.6427 299.7412,-28.8618 304.3508,-23.5937"/>
</g>
<!-- Node5 -->
<g id="node6" class="node">
<title>Node5</title>
<polygon fill="none" stroke="#bfbfbf" points="324.5,-.5 324.5,-19.5 370.5,-19.5 370.5,-.5 324.5,-.5"/>
<text text-anchor="middle" x="347.5" y="-7.5" font-family="Helvetica,sans-Serif" font-size="10.00" fill="#000000">cstring</text>
</g>
<!-- Node3&#45;&gt;Node5 -->
<g id="edge5" class="edge">
<title>Node3&#45;&gt;Node5</title>
<path fill="none" stroke="#191970" d="M347.5,-56.2455C347.5,-48.9382 347.5,-38.6944 347.5,-29.7046"/>
<polygon fill="#191970" stroke="#191970" points="351.0001,-29.6426 347.5,-19.6427 344.0001,-29.6427 351.0001,-29.6426"/>
</g>
<!-- Node6 -->
<g id="node7" class="node">
<title>Node6</title>
<polygon fill="none" stroke="#bfbfbf" points="389,-.5 389,-19.5 438,-19.5 438,-.5 389,-.5"/>
<text text-anchor="middle" x="413.5" y="-7.5" font-family="Helvetica,sans-Serif" font-size="10.00" fill="#000000">cassert</text>
</g>
<!-- Node3&#45;&gt;Node6 -->
<g id="edge6" class="edge">
<title>Node3&#45;&gt;Node6</title>
<path fill="none" stroke="#191970" d="M358.9963,-56.2455C368.7442,-47.9746 382.9259,-35.9416 394.3798,-26.2232"/>
<polygon fill="#191970" stroke="#191970" points="396.7747,-28.7813 402.1354,-19.6427 392.2459,-23.4437 396.7747,-28.7813"/>
</g>
<!-- Node7&#45;&gt;Node3 -->
<g id="edge8" class="edge">
<title>Node7&#45;&gt;Node3</title>
<path fill="none" stroke="#191970" d="M648.2457,-168.076C639.8501,-153.2741 621.9402,-125.6918 598.5,-112 563.7843,-91.7221 452.127,-77.0753 390.079,-70.2678"/>
<polygon fill="#191970" stroke="#191970" points="390.15,-66.7553 379.833,-69.1654 389.4012,-73.7151 390.15,-66.7553"/>
</g>
<!-- Node10&#45;&gt;Node3 -->
<g id="edge12" class="edge">
<title>Node10&#45;&gt;Node3</title>
<path fill="none" stroke="#191970" d="M749.6368,-168.1553C749.2585,-153.4568 746.1916,-126.0079 729.5,-112 703.8234,-90.4517 483.5635,-74.4145 389.6449,-68.4937"/>
<polygon fill="#191970" stroke="#191970" points="389.8303,-64.9986 379.6322,-67.8708 389.3955,-71.9851 389.8303,-64.9986"/>
</g>
<!-- Node11 -->
<g id="node12" class="node">
<title>Node11</title>
<g id="a_node12"><a xlink:href="encodings_8h.html" target="_top" xlink:title="encodings.h">
<polygon fill="none" stroke="#000000" points="651,-112.5 651,-131.5 720,-131.5 720,-112.5 651,-112.5"/>
<text text-anchor="middle" x="685.5" y="-119.5" font-family="Helvetica,sans-Serif" font-size="10.00" fill="#000000">encodings.h</text>
</a>
</g>
</g>
<!-- Node10&#45;&gt;Node11 -->
<g id="edge13" class="edge">
<title>Node10&#45;&gt;Node11</title>
<path fill="none" stroke="#191970" d="M738.3521,-168.2455C728.9913,-160.0549 715.4142,-148.1749 704.3651,-138.5069"/>
<polygon fill="#191970" stroke="#191970" points="706.3508,-135.5937 696.5202,-131.6427 701.7412,-140.8618 706.3508,-135.5937"/>
</g>
<!-- Node11&#45;&gt;Node3 -->
<g id="edge14" class="edge">
<title>Node11&#45;&gt;Node3</title>
<path fill="none" stroke="#191970" d="M650.7374,-114.7113C645.9602,-113.7665 641.113,-112.8374 636.5,-112 548.9699,-96.1101 445.9727,-80.4365 389.6174,-72.1173"/>
<polygon fill="#191970" stroke="#191970" points="390.0547,-68.644 379.6517,-70.6511 389.0357,-75.5695 390.0547,-68.644"/>
</g>
<!-- Node12&#45;&gt;Node10 -->
<g id="edge16" class="edge">
<title>Node12&#45;&gt;Node10</title>
<path fill="none" stroke="#191970" d="M784.76,-280.1627C781.2524,-270.8713 775.9027,-256.5309 771.5,-244 766.0575,-228.5096 760.1917,-210.8603 755.8868,-197.7127"/>
<polygon fill="#191970" stroke="#191970" points="759.1069,-196.2977 752.6813,-187.8738 752.4512,-198.4661 759.1069,-196.2977"/>
</g>
<!-- Node12&#45;&gt;Node13 -->
<g id="edge17" class="edge">
<title>Node12&#45;&gt;Node13</title>
<path fill="none" stroke="#191970" d="M794.9449,-280.2455C800.0382,-272.5367 807.2908,-261.5598 813.452,-252.2348"/>
<polygon fill="#191970" stroke="#191970" points="816.5365,-253.9155 819.1289,-243.6427 810.6962,-250.0566 816.5365,-253.9155"/>
</g>
<!-- Node13&#45;&gt;Node10 -->
<g id="edge18" class="edge">
<title>Node13&#45;&gt;Node10</title>
<path fill="none" stroke="#191970" d="M812.2618,-224.2455C800.819,-215.814 784.0704,-203.4729 770.7525,-193.6598"/>
<polygon fill="#191970" stroke="#191970" points="772.7133,-190.757 762.5865,-187.6427 768.5609,-196.3924 772.7133,-190.757"/>
</g>
<!-- Node14&#45;&gt;Node3 -->
<g id="edge20" class="edge">
<title>Node14&#45;&gt;Node3</title>
<path fill="none" stroke="#191970" d="M385.9191,-168.4509C379.007,-150.0186 363.7095,-109.2254 354.6411,-85.043"/>
<polygon fill="#191970" stroke="#191970" points="357.8603,-83.6592 351.0718,-75.5249 351.306,-86.1171 357.8603,-83.6592"/>
</g>
<!-- Node15&#45;&gt;Node2 -->
<g id="edge23" class="edge">
<title>Node15&#45;&gt;Node2</title>
<path fill="none" stroke="#191970" d="M206.3191,-283.9687C215.5958,-282.6467 225.3802,-281.2647 234.5,-280 341.5847,-265.1497 467.6354,-248.3788 532.7054,-239.7737"/>
<polygon fill="#191970" stroke="#191970" points="533.5368,-243.1944 542.992,-238.4142 532.6196,-236.2547 533.5368,-243.1944"/>
</g>
<!-- Node16 -->
<g id="node17" class="node">
<title>Node16</title>
<g id="a_node17"><a xlink:href="swap_8h.html" target="_top" xlink:title="swap.h">
<polygon fill="none" stroke="#000000" points="37.5,-112.5 37.5,-131.5 85.5,-131.5 85.5,-112.5 37.5,-112.5"/>
<text text-anchor="middle" x="61.5" y="-119.5" font-family="Helvetica,sans-Serif" font-size="10.00" fill="#000000">swap.h</text>
</a>
</g>
</g>
<!-- Node15&#45;&gt;Node16 -->
<g id="edge24" class="edge">
<title>Node15&#45;&gt;Node16</title>
<path fill="none" stroke="#191970" d="M125.8271,-280.3469C106.5973,-273.4744 84.8756,-262.1464 72.5,-244 51.5203,-213.2375 54.093,-167.4855 57.8148,-141.6381"/>
<polygon fill="#191970" stroke="#191970" points="61.299,-142.0197 59.47,-131.5839 54.392,-140.8825 61.299,-142.0197"/>
</g>
<!-- Node17 -->
<g id="node18" class="node">
<title>Node17</title>
<polygon fill="none" stroke="#bfbfbf" points="81,-224.5 81,-243.5 130,-243.5 130,-224.5 81,-224.5"/>
<text text-anchor="middle" x="105.5" y="-231.5" font-family="Helvetica,sans-Serif" font-size="10.00" fill="#000000">cstddef</text>
</g>
<!-- Node15&#45;&gt;Node17 -->
<g id="edge26" class="edge">
<title>Node15&#45;&gt;Node17</title>
<path fill="none" stroke="#191970" d="M154.223,-280.2455C145.6782,-272.1352 133.3222,-260.4075 123.1915,-250.7919"/>
<polygon fill="#191970" stroke="#191970" points="125.3218,-247.9884 115.6592,-243.6427 120.5028,-253.0655 125.3218,-247.9884"/>
</g>
<!-- Node16&#45;&gt;Node3 -->
<g id="edge25" class="edge">
<title>Node16&#45;&gt;Node3</title>
<path fill="none" stroke="#191970" d="M85.5619,-114.5819C88.8859,-113.6572 92.2675,-112.7681 95.5,-112 168.6146,-94.6259 255.004,-80.1459 305.287,-72.3094"/>
<polygon fill="#191970" stroke="#191970" points="306.1025,-75.725 315.451,-70.7393 305.0339,-68.807 306.1025,-75.725"/>
</g>
<!-- Node18&#45;&gt;Node9 -->
<g id="edge39" class="edge">
<title>Node18&#45;&gt;Node9</title>
<path fill="none" stroke="#191970" d="M309.1175,-280.367C329.012,-271.8614 357.9178,-258.5733 381.5,-244 405.726,-229.0288 431.2378,-208.4869 447.9152,-194.3159"/>
<polygon fill="#191970" stroke="#191970" points="450.4811,-196.7254 455.7775,-187.5494 445.9149,-191.4197 450.4811,-196.7254"/>
</g>
<!-- Node19 -->
<g id="node20" class="node">
<title>Node19</title>
<g id="a_node20"><a xlink:href="ieee754_8h.html" target="_top" xlink:title="ieee754.h">
<polygon fill="none" stroke="#000000" points="175,-112.5 175,-131.5 234,-131.5 234,-112.5 175,-112.5"/>
<text text-anchor="middle" x="204.5" y="-119.5" font-family="Helvetica,sans-Serif" font-size="10.00" fill="#000000">ieee754.h</text>
</a>
</g>
</g>
<!-- Node18&#45;&gt;Node19 -->
<g id="edge28" class="edge">
<title>Node18&#45;&gt;Node19</title>
<path fill="none" stroke="#191970" d="M275.0164,-280.3049C266.0956,-271.5595 253.4927,-257.9603 245.5,-244 226.341,-210.5362 214.3813,-166.7499 208.6209,-141.7644"/>
<polygon fill="#191970" stroke="#191970" points="211.9759,-140.7252 206.4068,-131.7122 205.1398,-142.231 211.9759,-140.7252"/>
</g>
<!-- Node20 -->
<g id="node21" class="node">
<title>Node20</title>
<g id="a_node21"><a xlink:href="biginteger_8h.html" target="_top" xlink:title="biginteger.h">
<polygon fill="none" stroke="#000000" points="252,-112.5 252,-131.5 319,-131.5 319,-112.5 252,-112.5"/>
<text text-anchor="middle" x="285.5" y="-119.5" font-family="Helvetica,sans-Serif" font-size="10.00" fill="#000000">biginteger.h</text>
</a>
</g>
</g>
<!-- Node18&#45;&gt;Node20 -->
<g id="edge30" class="edge">
<title>Node18&#45;&gt;Node20</title>
<path fill="none" stroke="#191970" d="M276.1382,-280.3788C268.3766,-271.6808 257.925,-258.1096 253.5,-244 242.097,-207.6402 260.9842,-164.3375 274.2497,-140.333"/>
<polygon fill="#191970" stroke="#191970" points="277.3366,-141.9866 279.3187,-131.5788 271.2788,-138.4789 277.3366,-141.9866"/>
</g>
<!-- Node21 -->
<g id="node22" class="node">
<title>Node21</title>
<g id="a_node22"><a xlink:href="diyfp_8h.html" target="_top" xlink:title="diyfp.h">
<polygon fill="none" stroke="#000000" points="262.5,-224.5 262.5,-243.5 308.5,-243.5 308.5,-224.5 262.5,-224.5"/>
<text text-anchor="middle" x="285.5" y="-231.5" font-family="Helvetica,sans-Serif" font-size="10.00" fill="#000000">diyfp.h</text>
</a>
</g>
</g>
<!-- Node18&#45;&gt;Node21 -->
<g id="edge32" class="edge">
<title>Node18&#45;&gt;Node21</title>
<path fill="none" stroke="#191970" d="M285.5,-280.2455C285.5,-272.9382 285.5,-262.6944 285.5,-253.7046"/>
<polygon fill="#191970" stroke="#191970" points="289.0001,-253.6426 285.5,-243.6427 282.0001,-253.6427 289.0001,-253.6426"/>
</g>
<!-- Node22 -->
<g id="node23" class="node">
<title>Node22</title>
<g id="a_node23"><a xlink:href="pow10_8h.html" target="_top" xlink:title="pow10.h">
<polygon fill="none" stroke="#000000" points="104,-112.5 104,-131.5 157,-131.5 157,-112.5 104,-112.5"/>
<text text-anchor="middle" x="130.5" y="-119.5" font-family="Helvetica,sans-Serif" font-size="10.00" fill="#000000">pow10.h</text>
</a>
</g>
</g>
<!-- Node18&#45;&gt;Node22 -->
<g id="edge36" class="edge">
<title>Node18&#45;&gt;Node22</title>
<path fill="none" stroke="#191970" d="M272.9553,-280.3432C261.6527,-271.4079 244.8161,-257.5047 231.5,-244 197.283,-209.2984 162.0341,-164.1704 143.5826,-139.6856"/>
<polygon fill="#191970" stroke="#191970" points="146.3698,-137.5684 137.5777,-131.6565 140.7641,-141.7608 146.3698,-137.5684"/>
</g>
<!-- Node23 -->
<g id="node24" class="node">
<title>Node23</title>
<polygon fill="none" stroke="#bfbfbf" points="327,-224.5 327,-243.5 372,-243.5 372,-224.5 327,-224.5"/>
<text text-anchor="middle" x="349.5" y="-231.5" font-family="Helvetica,sans-Serif" font-size="10.00" fill="#000000">climits</text>
</g>
<!-- Node18&#45;&gt;Node23 -->
<g id="edge38" class="edge">
<title>Node18&#45;&gt;Node23</title>
<path fill="none" stroke="#191970" d="M296.6479,-280.2455C306.0087,-272.0549 319.5858,-260.1749 330.6349,-250.5069"/>
<polygon fill="#191970" stroke="#191970" points="333.2588,-252.8618 338.4798,-243.6427 328.6492,-247.5937 333.2588,-252.8618"/>
</g>
<!-- Node19&#45;&gt;Node3 -->
<g id="edge29" class="edge">
<title>Node19&#45;&gt;Node3</title>
<path fill="none" stroke="#191970" d="M229.0826,-112.3733C252.4496,-103.2226 287.7862,-89.3844 313.7784,-79.2057"/>
<polygon fill="#191970" stroke="#191970" points="315.203,-82.4066 323.2382,-75.5011 312.6505,-75.8886 315.203,-82.4066"/>
</g>
<!-- Node20&#45;&gt;Node3 -->
<g id="edge31" class="edge">
<title>Node20&#45;&gt;Node3</title>
<path fill="none" stroke="#191970" d="M296.2996,-112.2455C305.3678,-104.0549 318.5206,-92.1749 329.2245,-82.5069"/>
<polygon fill="#191970" stroke="#191970" points="331.7491,-84.9429 336.8242,-75.6427 327.0571,-79.7482 331.7491,-84.9429"/>
</g>
<!-- Node21&#45;&gt;Node3 -->
<g id="edge33" class="edge">
<title>Node21&#45;&gt;Node3</title>
<path fill="none" stroke="#191970" d="M290.0437,-224.3055C298.3542,-206.3537 316.272,-166.6089 328.5,-132 333.9618,-116.5415 339.0377,-98.6487 342.5666,-85.3961"/>
<polygon fill="#191970" stroke="#191970" points="346.0077,-86.07 345.1414,-75.5107 339.2338,-84.3055 346.0077,-86.07"/>
</g>
<!-- Node21&#45;&gt;Node9 -->
<g id="edge35" class="edge">
<title>Node21&#45;&gt;Node9</title>
<path fill="none" stroke="#191970" d="M308.5785,-227.005C311.9075,-225.9964 315.2914,-224.9715 318.5,-224 368.493,-208.8633 383.3283,-205.3743 436.6051,-188.2133"/>
<polygon fill="#191970" stroke="#191970" points="437.8143,-191.5008 446.2517,-185.0928 435.6598,-184.8406 437.8143,-191.5008"/>
</g>
<!-- Node21&#45;&gt;Node14 -->
<g id="edge34" class="edge">
<title>Node21&#45;&gt;Node14</title>
<path fill="none" stroke="#191970" d="M303.6154,-224.2455C319.945,-215.4527 344.171,-202.4079 362.7339,-192.4125"/>
<polygon fill="#191970" stroke="#191970" points="364.4468,-195.4654 371.5922,-187.6427 361.1281,-189.3021 364.4468,-195.4654"/>
</g>
<!-- Node22&#45;&gt;Node3 -->
<g id="edge37" class="edge">
<title>Node22&#45;&gt;Node3</title>
<path fill="none" stroke="#191970" d="M157.2185,-114.5076C160.3447,-113.6518 163.491,-112.8002 166.5,-112 214.0438,-99.3569 268.8147,-85.5411 305.5431,-76.3843"/>
<polygon fill="#191970" stroke="#191970" points="306.5444,-79.7419 315.4029,-73.93 304.8536,-72.9492 306.5444,-79.7419"/>
</g>
<!-- Node24&#45;&gt;Node3 -->
<g id="edge42" class="edge">
<title>Node24&#45;&gt;Node3</title>
<path fill="none" stroke="#191970" d="M29.3049,-280.4231C17.1789,-251.1003 -14.4091,-161.5405 28.5,-112 46.395,-91.3394 222.8088,-75.4198 305.3363,-69.0399"/>
<polygon fill="#191970" stroke="#191970" points="305.6851,-72.5236 315.3904,-68.2741 305.1534,-65.5438 305.6851,-72.5236"/>
</g>
<!-- Node25&#45;&gt;Node10 -->
<g id="edge45" class="edge">
<title>Node25&#45;&gt;Node10</title>
<path fill="none" stroke="#191970" d="M932.5047,-336.3506C942.3255,-323.2662 956.6145,-299.3135 947.5,-280 918.4576,-218.4596 835.7772,-193.3275 786.9281,-183.6289"/>
<polygon fill="#191970" stroke="#191970" points="787.5215,-180.1793 777.0492,-181.786 786.2378,-187.0606 787.5215,-180.1793"/>
</g>
<!-- Node26 -->
<g id="node27" class="node">
<title>Node26</title>
<polygon fill="none" stroke="#bfbfbf" points="890.5,-280.5 890.5,-299.5 938.5,-299.5 938.5,-280.5 890.5,-280.5"/>
<text text-anchor="middle" x="914.5" y="-287.5" font-family="Helvetica,sans-Serif" font-size="10.00" fill="#000000">cwchar</text>
</g>
<!-- Node25&#45;&gt;Node26 -->
<g id="edge46" class="edge">
<title>Node25&#45;&gt;Node26</title>
<path fill="none" stroke="#191970" d="M922.7581,-336.2455C921.4533,-328.9382 919.624,-318.6944 918.0187,-309.7046"/>
<polygon fill="#191970" stroke="#191970" points="921.4254,-308.8717 916.2219,-299.6427 914.5344,-310.1022 921.4254,-308.8717"/>
</g>
</g>
</svg>
