<?xml version="1.0" encoding="UTF-8" standalone="no"?>
<!DOCTYPE svg PUBLIC "-//W3C//DTD SVG 1.1//EN"
 "http://www.w3.org/Graphics/SVG/1.1/DTD/svg11.dtd">
<!-- Generated by graphviz version 2.40.1 (20161225.0304)
 -->
<!-- Title: /mnt/hdd/fnky/C0de/CAPSTONE/clean_build/include/Actors/Edge_Actor.h Pages: 1 -->
<svg width="289pt" height="218pt"
 viewBox="0.00 0.00 288.50 218.00" xmlns="http://www.w3.org/2000/svg" xmlns:xlink="http://www.w3.org/1999/xlink">
<g id="graph0" class="graph" transform="scale(1 1) rotate(0) translate(4 214)">
<title>/mnt/hdd/fnky/C0de/CAPSTONE/clean_build/include/Actors/Edge_Actor.h</title>
<!-- Node0 -->
<g id="node1" class="node">
<title>Node0</title>
<polygon fill="#bfbfbf" stroke="#000000" points="96.5,-168.5 96.5,-209.5 240.5,-209.5 240.5,-168.5 96.5,-168.5"/>
<text text-anchor="start" x="104.5" y="-197.5" font-family="Helvetica,sans-Serif" font-size="10.00" fill="#000000">/mnt/hdd/fnky/C0de</text>
<text text-anchor="start" x="104.5" y="-186.5" font-family="Helvetica,sans-Serif" font-size="10.00" fill="#000000">/CAPSTONE/clean_build</text>
<text text-anchor="middle" x="168.5" y="-175.5" font-family="Helvetica,sans-Serif" font-size="10.00" fill="#000000">/include/Actors/Edge_Actor.h</text>
</g>
<!-- Node1 -->
<g id="node2" class="node">
<title>Node1</title>
<g id="a_node2"><a xlink:href="Components_2Component_8h.html" target="_top" xlink:title="../Components/Component.h">
<polygon fill="none" stroke="#000000" points="0,-56.5 0,-75.5 143,-75.5 143,-56.5 0,-56.5"/>
<text text-anchor="middle" x="71.5" y="-63.5" font-family="Helvetica,sans-Serif" font-size="10.00" fill="#000000">../Components/Component.h</text>
</a>
</g>
</g>
<!-- Node0&#45;&gt;Node1 -->
<g id="edge1" class="edge">
<title>Node0&#45;&gt;Node1</title>
<path fill="none" stroke="#191970" d="M152.2644,-168.4126C133.5051,-144.625 102.9598,-105.8924 85.3,-83.499"/>
<polygon fill="#191970" stroke="#191970" points="87.9468,-81.203 79.0062,-75.5182 82.4503,-85.5376 87.9468,-81.203"/>
</g>
<!-- Node3 -->
<g id="node4" class="node">
<title>Node3</title>
<g id="a_node4"><a xlink:href="Actor_8h.html" target="_top" xlink:title="Actor.h">
<polygon fill="none" stroke="#000000" points="144.5,-112.5 144.5,-131.5 192.5,-131.5 192.5,-112.5 144.5,-112.5"/>
<text text-anchor="middle" x="168.5" y="-119.5" font-family="Helvetica,sans-Serif" font-size="10.00" fill="#000000">Actor.h</text>
</a>
</g>
</g>
<!-- Node0&#45;&gt;Node3 -->
<g id="edge3" class="edge">
<title>Node0&#45;&gt;Node3</title>
<path fill="none" stroke="#191970" d="M168.5,-168.168C168.5,-159.8226 168.5,-150.2471 168.5,-141.9879"/>
<polygon fill="#191970" stroke="#191970" points="172.0001,-141.7804 168.5,-131.7805 165.0001,-141.7805 172.0001,-141.7804"/>
</g>
<!-- Node6 -->
<g id="node7" class="node">
<title>Node6</title>
<polygon fill="none" stroke="#bfbfbf" points="210.5,-112.5 210.5,-131.5 280.5,-131.5 280.5,-112.5 210.5,-112.5"/>
<text text-anchor="middle" x="245.5" y="-119.5" font-family="Helvetica,sans-Serif" font-size="10.00" fill="#000000">glm/fwd.hpp</text>
</g>
<!-- Node0&#45;&gt;Node6 -->
<g id="edge7" class="edge">
<title>Node0&#45;&gt;Node6</title>
<path fill="none" stroke="#191970" d="M192.4412,-168.168C203.4491,-158.5897 216.3192,-147.3911 226.627,-138.422"/>
<polygon fill="#191970" stroke="#191970" points="229.0133,-140.9851 234.2598,-131.7805 224.4183,-135.7043 229.0133,-140.9851"/>
</g>
<!-- Node2 -->
<g id="node3" class="node">
<title>Node2</title>
<polygon fill="none" stroke="#bfbfbf" points="45.5,-.5 45.5,-19.5 97.5,-19.5 97.5,-.5 45.5,-.5"/>
<text text-anchor="middle" x="71.5" y="-7.5" font-family="Helvetica,sans-Serif" font-size="10.00" fill="#000000">memory</text>
</g>
<!-- Node1&#45;&gt;Node2 -->
<g id="edge2" class="edge">
<title>Node1&#45;&gt;Node2</title>
<path fill="none" stroke="#191970" d="M71.5,-56.2455C71.5,-48.9382 71.5,-38.6944 71.5,-29.7046"/>
<polygon fill="#191970" stroke="#191970" points="75.0001,-29.6426 71.5,-19.6427 68.0001,-29.6427 75.0001,-29.6426"/>
</g>
<!-- Node3&#45;&gt;Node1 -->
<g id="edge6" class="edge">
<title>Node3&#45;&gt;Node1</title>
<path fill="none" stroke="#191970" d="M151.6039,-112.2455C136.582,-103.5731 114.3957,-90.7645 97.179,-80.825"/>
<polygon fill="#191970" stroke="#191970" points="98.6128,-77.6114 88.2025,-75.6427 95.1129,-83.6737 98.6128,-77.6114"/>
</g>
<!-- Node4 -->
<g id="node5" class="node">
<title>Node4</title>
<polygon fill="none" stroke="#bfbfbf" points="161.5,-56.5 161.5,-75.5 205.5,-75.5 205.5,-56.5 161.5,-56.5"/>
<text text-anchor="middle" x="183.5" y="-63.5" font-family="Helvetica,sans-Serif" font-size="10.00" fill="#000000">vector</text>
</g>
<!-- Node3&#45;&gt;Node4 -->
<g id="edge4" class="edge">
<title>Node3&#45;&gt;Node4</title>
<path fill="none" stroke="#191970" d="M171.1128,-112.2455C173.0916,-104.8579 175.8744,-94.4689 178.3012,-85.4087"/>
<polygon fill="#191970" stroke="#191970" points="181.7105,-86.2078 180.9171,-75.6427 174.9489,-84.3966 181.7105,-86.2078"/>
</g>
<!-- Node5 -->
<g id="node6" class="node">
<title>Node5</title>
<polygon fill="none" stroke="#bfbfbf" points="223.5,-56.5 223.5,-75.5 277.5,-75.5 277.5,-56.5 223.5,-56.5"/>
<text text-anchor="middle" x="250.5" y="-63.5" font-family="Helvetica,sans-Serif" font-size="10.00" fill="#000000">iostream</text>
</g>
<!-- Node3&#45;&gt;Node5 -->
<g id="edge5" class="edge">
<title>Node3&#45;&gt;Node5</title>
<path fill="none" stroke="#191970" d="M182.7833,-112.2455C195.247,-103.7337 213.5451,-91.2375 227.9792,-81.3801"/>
<polygon fill="#191970" stroke="#191970" points="230.0962,-84.1726 236.3804,-75.6427 226.1485,-78.392 230.0962,-84.1726"/>
</g>
</g>
</svg>
