<?xml version="1.0" encoding="UTF-8" standalone="no"?>
<!DOCTYPE svg PUBLIC "-//W3C//DTD SVG 1.1//EN"
 "http://www.w3.org/Graphics/SVG/1.1/DTD/svg11.dtd">
<!-- Generated by graphviz version 2.40.1 (20161225.0304)
 -->
<!-- Title: /mnt/hdd/fnky/C0de/CAPSTONE/clean_build/include/rapidjson/encodedstream.h Pages: 1 -->
<svg width="185pt" height="330pt"
 viewBox="0.00 0.00 185.00 330.00" xmlns="http://www.w3.org/2000/svg" xmlns:xlink="http://www.w3.org/1999/xlink">
<g id="graph0" class="graph" transform="scale(1 1) rotate(0) translate(4 326)">
<title>/mnt/hdd/fnky/C0de/CAPSTONE/clean_build/include/rapidjson/encodedstream.h</title>
<!-- Node0 -->
<g id="node1" class="node">
<title>Node0</title>
<polygon fill="#bfbfbf" stroke="#000000" points="1.5,-280.5 1.5,-321.5 171.5,-321.5 171.5,-280.5 1.5,-280.5"/>
<text text-anchor="start" x="9.5" y="-309.5" font-family="Helvetica,sans-Serif" font-size="10.00" fill="#000000">/mnt/hdd/fnky/C0de</text>
<text text-anchor="start" x="9.5" y="-298.5" font-family="Helvetica,sans-Serif" font-size="10.00" fill="#000000">/CAPSTONE/clean_build</text>
<text text-anchor="middle" x="86.5" y="-287.5" font-family="Helvetica,sans-Serif" font-size="10.00" fill="#000000">/include/rapidjson/encodedstream.h</text>
</g>
<!-- Node1 -->
<g id="node2" class="node">
<title>Node1</title>
<g id="a_node2"><a xlink:href="stream_8h.html" target="_top" xlink:title="stream.h">
<polygon fill="none" stroke="#000000" points="59,-168.5 59,-187.5 114,-187.5 114,-168.5 59,-168.5"/>
<text text-anchor="middle" x="86.5" y="-175.5" font-family="Helvetica,sans-Serif" font-size="10.00" fill="#000000">stream.h</text>
</a>
</g>
</g>
<!-- Node0&#45;&gt;Node1 -->
<g id="edge1" class="edge">
<title>Node0&#45;&gt;Node1</title>
<path fill="none" stroke="#191970" d="M77.3527,-280.1754C71.682,-264.7343 66.0771,-243.1361 69.5,-224 71.1443,-214.8071 74.5005,-205.047 77.7997,-196.8935"/>
<polygon fill="#191970" stroke="#191970" points="81.0665,-198.1569 81.8151,-187.5885 74.6394,-195.3833 81.0665,-198.1569"/>
</g>
<!-- Node7 -->
<g id="node8" class="node">
<title>Node7</title>
<g id="a_node8"><a xlink:href="memorystream_8h.html" target="_top" xlink:title="memorystream.h">
<polygon fill="none" stroke="#000000" points="78.5,-224.5 78.5,-243.5 168.5,-243.5 168.5,-224.5 78.5,-224.5"/>
<text text-anchor="middle" x="123.5" y="-231.5" font-family="Helvetica,sans-Serif" font-size="10.00" fill="#000000">memorystream.h</text>
</a>
</g>
</g>
<!-- Node0&#45;&gt;Node7 -->
<g id="edge8" class="edge">
<title>Node0&#45;&gt;Node7</title>
<path fill="none" stroke="#191970" d="M98.0042,-280.168C102.8748,-271.3484 108.504,-261.155 113.2321,-252.5933"/>
<polygon fill="#191970" stroke="#191970" points="116.3284,-254.2263 118.0988,-243.7805 110.2007,-250.8424 116.3284,-254.2263"/>
</g>
<!-- Node2 -->
<g id="node3" class="node">
<title>Node2</title>
<g id="a_node3"><a xlink:href="rapidjson_8h.html" target="_top" xlink:title="common definitions and configuration ">
<polygon fill="none" stroke="#000000" points="54.5,-56.5 54.5,-75.5 118.5,-75.5 118.5,-56.5 54.5,-56.5"/>
<text text-anchor="middle" x="86.5" y="-63.5" font-family="Helvetica,sans-Serif" font-size="10.00" fill="#000000">rapidjson.h</text>
</a>
</g>
</g>
<!-- Node1&#45;&gt;Node2 -->
<g id="edge2" class="edge">
<title>Node1&#45;&gt;Node2</title>
<path fill="none" stroke="#191970" d="M83.1873,-168.2724C80.236,-159.0586 76.1383,-144.7706 74.5,-132 72.4855,-116.2972 75.994,-98.6611 79.7281,-85.5726"/>
<polygon fill="#191970" stroke="#191970" points="83.1432,-86.3794 82.8015,-75.7901 76.465,-84.2813 83.1432,-86.3794"/>
</g>
<!-- Node6 -->
<g id="node7" class="node">
<title>Node6</title>
<g id="a_node7"><a xlink:href="encodings_8h.html" target="_top" xlink:title="encodings.h">
<polygon fill="none" stroke="#000000" points="84,-112.5 84,-131.5 153,-131.5 153,-112.5 84,-112.5"/>
<text text-anchor="middle" x="118.5" y="-119.5" font-family="Helvetica,sans-Serif" font-size="10.00" fill="#000000">encodings.h</text>
</a>
</g>
</g>
<!-- Node1&#45;&gt;Node6 -->
<g id="edge6" class="edge">
<title>Node1&#45;&gt;Node6</title>
<path fill="none" stroke="#191970" d="M92.074,-168.2455C96.4331,-160.617 102.6211,-149.7881 107.9133,-140.5267"/>
<polygon fill="#191970" stroke="#191970" points="111.0673,-142.0616 112.9899,-131.6427 104.9896,-138.5886 111.0673,-142.0616"/>
</g>
<!-- Node3 -->
<g id="node4" class="node">
<title>Node3</title>
<polygon fill="none" stroke="#bfbfbf" points="0,-.5 0,-19.5 45,-19.5 45,-.5 0,-.5"/>
<text text-anchor="middle" x="22.5" y="-7.5" font-family="Helvetica,sans-Serif" font-size="10.00" fill="#000000">cstdlib</text>
</g>
<!-- Node2&#45;&gt;Node3 -->
<g id="edge3" class="edge">
<title>Node2&#45;&gt;Node3</title>
<path fill="none" stroke="#191970" d="M75.3521,-56.2455C65.9913,-48.0549 52.4142,-36.1749 41.3651,-26.5069"/>
<polygon fill="#191970" stroke="#191970" points="43.3508,-23.5937 33.5202,-19.6427 38.7412,-28.8618 43.3508,-23.5937"/>
</g>
<!-- Node4 -->
<g id="node5" class="node">
<title>Node4</title>
<polygon fill="none" stroke="#bfbfbf" points="63.5,-.5 63.5,-19.5 109.5,-19.5 109.5,-.5 63.5,-.5"/>
<text text-anchor="middle" x="86.5" y="-7.5" font-family="Helvetica,sans-Serif" font-size="10.00" fill="#000000">cstring</text>
</g>
<!-- Node2&#45;&gt;Node4 -->
<g id="edge4" class="edge">
<title>Node2&#45;&gt;Node4</title>
<path fill="none" stroke="#191970" d="M86.5,-56.2455C86.5,-48.9382 86.5,-38.6944 86.5,-29.7046"/>
<polygon fill="#191970" stroke="#191970" points="90.0001,-29.6426 86.5,-19.6427 83.0001,-29.6427 90.0001,-29.6426"/>
</g>
<!-- Node5 -->
<g id="node6" class="node">
<title>Node5</title>
<polygon fill="none" stroke="#bfbfbf" points="128,-.5 128,-19.5 177,-19.5 177,-.5 128,-.5"/>
<text text-anchor="middle" x="152.5" y="-7.5" font-family="Helvetica,sans-Serif" font-size="10.00" fill="#000000">cassert</text>
</g>
<!-- Node2&#45;&gt;Node5 -->
<g id="edge5" class="edge">
<title>Node2&#45;&gt;Node5</title>
<path fill="none" stroke="#191970" d="M97.9963,-56.2455C107.7442,-47.9746 121.9259,-35.9416 133.3798,-26.2232"/>
<polygon fill="#191970" stroke="#191970" points="135.7747,-28.7813 141.1354,-19.6427 131.2459,-23.4437 135.7747,-28.7813"/>
</g>
<!-- Node6&#45;&gt;Node2 -->
<g id="edge7" class="edge">
<title>Node6&#45;&gt;Node2</title>
<path fill="none" stroke="#191970" d="M112.926,-112.2455C108.5669,-104.617 102.3789,-93.7881 97.0867,-84.5267"/>
<polygon fill="#191970" stroke="#191970" points="100.0104,-82.5886 92.0101,-75.6427 93.9327,-86.0616 100.0104,-82.5886"/>
</g>
<!-- Node7&#45;&gt;Node1 -->
<g id="edge9" class="edge">
<title>Node7&#45;&gt;Node1</title>
<path fill="none" stroke="#191970" d="M117.0551,-224.2455C111.9618,-216.5367 104.7092,-205.5598 98.548,-196.2348"/>
<polygon fill="#191970" stroke="#191970" points="101.3038,-194.0566 92.8711,-187.6427 95.4635,-197.9155 101.3038,-194.0566"/>
</g>
</g>
</svg>
