<?xml version="1.0" encoding="UTF-8" standalone="no"?>
<!DOCTYPE svg PUBLIC "-//W3C//DTD SVG 1.1//EN"
 "http://www.w3.org/Graphics/SVG/1.1/DTD/svg11.dtd">
<!-- Generated by graphviz version 2.40.1 (20161225.0304)
 -->
<!-- Title: /mnt/hdd/fnky/C0de/CAPSTONE/clean_build/include/GameData/GameData.h Pages: 1 -->
<svg width="723pt" height="173pt"
 viewBox="0.00 0.00 723.00 173.00" xmlns="http://www.w3.org/2000/svg" xmlns:xlink="http://www.w3.org/1999/xlink">
<g id="graph0" class="graph" transform="scale(1 1) rotate(0) translate(4 169)">
<title>/mnt/hdd/fnky/C0de/CAPSTONE/clean_build/include/GameData/GameData.h</title>
<!-- Node0 -->
<g id="node1" class="node">
<title>Node0</title>
<polygon fill="#bfbfbf" stroke="#000000" points="302.5,-123.5 302.5,-164.5 461.5,-164.5 461.5,-123.5 302.5,-123.5"/>
<text text-anchor="start" x="310.5" y="-152.5" font-family="Helvetica,sans-Serif" font-size="10.00" fill="#000000">/mnt/hdd/fnky/C0de</text>
<text text-anchor="start" x="310.5" y="-141.5" font-family="Helvetica,sans-Serif" font-size="10.00" fill="#000000">/CAPSTONE/clean_build</text>
<text text-anchor="middle" x="382" y="-130.5" font-family="Helvetica,sans-Serif" font-size="10.00" fill="#000000">/include/GameData/GameData.h</text>
</g>
<!-- Node1 -->
<g id="node2" class="node">
<title>Node1</title>
<polygon fill="none" stroke="#bfbfbf" points="0,-62 0,-81 80,-81 80,-62 0,-62"/>
<text text-anchor="middle" x="40" y="-69" font-family="Helvetica,sans-Serif" font-size="10.00" fill="#000000">GLFW/glfw3.h</text>
</g>
<!-- Node0&#45;&gt;Node1 -->
<g id="edge1" class="edge">
<title>Node0&#45;&gt;Node1</title>
<path fill="none" stroke="#191970" d="M302.4884,-131.0643C243.2427,-120.8141 160.5638,-105.2163 89,-87 85.417,-86.088 81.7102,-85.0651 78.0134,-83.9911"/>
<polygon fill="#191970" stroke="#191970" points="78.9283,-80.6113 68.3434,-81.0701 76.904,-87.3123 78.9283,-80.6113"/>
</g>
<!-- Node2 -->
<g id="node3" class="node">
<title>Node2</title>
<polygon fill="none" stroke="#bfbfbf" points="397,-.5 397,-19.5 477,-19.5 477,-.5 397,-.5"/>
<text text-anchor="middle" x="437" y="-7.5" font-family="Helvetica,sans-Serif" font-size="10.00" fill="#000000">box2d/box2d.h</text>
</g>
<!-- Node0&#45;&gt;Node2 -->
<g id="edge2" class="edge">
<title>Node0&#45;&gt;Node2</title>
<path fill="none" stroke="#191970" d="M390.4732,-123.3562C401.0197,-97.6612 418.8891,-54.1247 429.1413,-29.1466"/>
<polygon fill="#191970" stroke="#191970" points="432.4659,-30.2642 433.0252,-19.6841 425.9902,-27.6062 432.4659,-30.2642"/>
</g>
<!-- Node3 -->
<g id="node4" class="node">
<title>Node3</title>
<polygon fill="none" stroke="#bfbfbf" points="569,-62 569,-81 615,-81 615,-62 569,-62"/>
<text text-anchor="middle" x="592" y="-69" font-family="Helvetica,sans-Serif" font-size="10.00" fill="#000000">cstdint</text>
</g>
<!-- Node0&#45;&gt;Node3 -->
<g id="edge3" class="edge">
<title>Node0&#45;&gt;Node3</title>
<path fill="none" stroke="#191970" d="M454.2723,-123.3917C486.9421,-113.4311 525.8048,-100.6774 560,-87 561.3612,-86.4555 562.7453,-85.8787 564.1363,-85.2802"/>
<polygon fill="#191970" stroke="#191970" points="565.5984,-88.4602 573.2469,-81.1288 562.6958,-82.0904 565.5984,-88.4602"/>
</g>
<!-- Node4 -->
<g id="node5" class="node">
<title>Node4</title>
<polygon fill="none" stroke="#bfbfbf" points="633,-62 633,-81 687,-81 687,-62 633,-62"/>
<text text-anchor="middle" x="660" y="-69" font-family="Helvetica,sans-Serif" font-size="10.00" fill="#000000">iostream</text>
</g>
<!-- Node0&#45;&gt;Node4 -->
<g id="edge4" class="edge">
<title>Node0&#45;&gt;Node4</title>
<path fill="none" stroke="#191970" d="M461.7167,-128.8976C509.3812,-118.9633 570.8197,-104.5611 624,-87 625.89,-86.3759 627.8181,-85.6921 629.7508,-84.9703"/>
<polygon fill="#191970" stroke="#191970" points="631.3175,-88.1132 639.2994,-81.1462 628.715,-81.6149 631.3175,-88.1132"/>
</g>
<!-- Node5 -->
<g id="node6" class="node">
<title>Node5</title>
<polygon fill="none" stroke="#bfbfbf" points="327,-.5 327,-19.5 379,-19.5 379,-.5 327,-.5"/>
<text text-anchor="middle" x="353" y="-7.5" font-family="Helvetica,sans-Serif" font-size="10.00" fill="#000000">memory</text>
</g>
<!-- Node0&#45;&gt;Node5 -->
<g id="edge5" class="edge">
<title>Node0&#45;&gt;Node5</title>
<path fill="none" stroke="#191970" d="M377.5323,-123.3562C371.9963,-97.7759 362.6334,-54.513 357.2163,-29.4823"/>
<polygon fill="#191970" stroke="#191970" points="360.6319,-28.7175 355.0958,-19.6841 353.7903,-30.1982 360.6319,-28.7175"/>
</g>
<!-- Node6 -->
<g id="node7" class="node">
<title>Node6</title>
<g id="a_node7"><a xlink:href="Orthographic__camera_8h.html" target="_top" xlink:title="../../include/Camera\l/Orthographic_camera.h">
<polygon fill="none" stroke="#000000" points="213.5,-56.5 213.5,-86.5 334.5,-86.5 334.5,-56.5 213.5,-56.5"/>
<text text-anchor="start" x="221.5" y="-74.5" font-family="Helvetica,sans-Serif" font-size="10.00" fill="#000000">../../include/Camera</text>
<text text-anchor="middle" x="274" y="-63.5" font-family="Helvetica,sans-Serif" font-size="10.00" fill="#000000">/Orthographic_camera.h</text>
</a>
</g>
</g>
<!-- Node0&#45;&gt;Node6 -->
<g id="edge6" class="edge">
<title>Node0&#45;&gt;Node6</title>
<path fill="none" stroke="#191970" d="M351.3404,-123.4183C336.8801,-113.7112 319.6548,-102.1479 305.1348,-92.4007"/>
<polygon fill="#191970" stroke="#191970" points="306.746,-89.2668 296.4925,-86.5991 302.8444,-95.0787 306.746,-89.2668"/>
</g>
<!-- Node9 -->
<g id="node10" class="node">
<title>Node9</title>
<g id="a_node10"><a xlink:href="state__machine_8h.html" target="_top" xlink:title="../../include/States\l/state_machine.h">
<polygon fill="none" stroke="#000000" points="98.5,-56.5 98.5,-86.5 195.5,-86.5 195.5,-56.5 98.5,-56.5"/>
<text text-anchor="start" x="106.5" y="-74.5" font-family="Helvetica,sans-Serif" font-size="10.00" fill="#000000">../../include/States</text>
<text text-anchor="middle" x="147" y="-63.5" font-family="Helvetica,sans-Serif" font-size="10.00" fill="#000000">/state_machine.h</text>
</a>
</g>
</g>
<!-- Node0&#45;&gt;Node9 -->
<g id="edge9" class="edge">
<title>Node0&#45;&gt;Node9</title>
<path fill="none" stroke="#191970" d="M315.287,-123.4183C280.5823,-112.7116 238.558,-99.7466 205.1862,-89.4511"/>
<polygon fill="#191970" stroke="#191970" points="206.1593,-86.0886 195.5719,-86.4849 204.0956,-92.7775 206.1593,-86.0886"/>
</g>
<!-- Node12 -->
<g id="node13" class="node">
<title>Node12</title>
<g id="a_node13"><a xlink:href="LoadingGameObjects_8h.html" target="_top" xlink:title="../../include/Loaders\l/LoadingGameObjects.h">
<polygon fill="none" stroke="#000000" points="429,-56.5 429,-86.5 551,-86.5 551,-56.5 429,-56.5"/>
<text text-anchor="start" x="437" y="-74.5" font-family="Helvetica,sans-Serif" font-size="10.00" fill="#000000">../../include/Loaders</text>
<text text-anchor="middle" x="490" y="-63.5" font-family="Helvetica,sans-Serif" font-size="10.00" fill="#000000">/LoadingGameObjects.h</text>
</a>
</g>
</g>
<!-- Node0&#45;&gt;Node12 -->
<g id="edge14" class="edge">
<title>Node0&#45;&gt;Node12</title>
<path fill="none" stroke="#191970" d="M412.6596,-123.4183C427.1199,-113.7112 444.3452,-102.1479 458.8652,-92.4007"/>
<polygon fill="#191970" stroke="#191970" points="461.1556,-95.0787 467.5075,-86.5991 457.254,-89.2668 461.1556,-95.0787"/>
</g>
<!-- Node7 -->
<g id="node8" class="node">
<title>Node7</title>
<polygon fill="none" stroke="#bfbfbf" points="177.5,-.5 177.5,-19.5 220.5,-19.5 220.5,-.5 177.5,-.5"/>
<text text-anchor="middle" x="199" y="-7.5" font-family="Helvetica,sans-Serif" font-size="10.00" fill="#000000">cstdio</text>
</g>
<!-- Node6&#45;&gt;Node7 -->
<g id="edge7" class="edge">
<title>Node6&#45;&gt;Node7</title>
<path fill="none" stroke="#191970" d="M255.4607,-56.2977C244.3992,-47.2274 230.3509,-35.7077 219.0347,-26.4285"/>
<polygon fill="#191970" stroke="#191970" points="220.9604,-23.4813 211.0084,-19.8469 216.5219,-28.8942 220.9604,-23.4813"/>
</g>
<!-- Node8 -->
<g id="node9" class="node">
<title>Node8</title>
<polygon fill="none" stroke="#bfbfbf" points="239,-.5 239,-19.5 309,-19.5 309,-.5 239,-.5"/>
<text text-anchor="middle" x="274" y="-7.5" font-family="Helvetica,sans-Serif" font-size="10.00" fill="#000000">glm/glm.hpp</text>
</g>
<!-- Node6&#45;&gt;Node8 -->
<g id="edge8" class="edge">
<title>Node6&#45;&gt;Node8</title>
<path fill="none" stroke="#191970" d="M274,-56.2977C274,-48.3834 274,-38.6043 274,-30.0759"/>
<polygon fill="#191970" stroke="#191970" points="277.5001,-29.8469 274,-19.8469 270.5001,-29.847 277.5001,-29.8469"/>
</g>
<!-- Node9&#45;&gt;Node5 -->
<g id="edge11" class="edge">
<title>Node9&#45;&gt;Node5</title>
<path fill="none" stroke="#191970" d="M195.5583,-57.0032C232.7489,-45.9002 283.2284,-30.8299 316.8984,-20.7779"/>
<polygon fill="#191970" stroke="#191970" points="318.1939,-24.0439 326.7748,-17.8294 316.1914,-17.3364 318.1939,-24.0439"/>
</g>
<!-- Node9&#45;&gt;Node7 -->
<g id="edge10" class="edge">
<title>Node9&#45;&gt;Node7</title>
<path fill="none" stroke="#191970" d="M159.8539,-56.2977C167.2224,-47.5831 176.5026,-36.6075 184.1777,-27.5302"/>
<polygon fill="#191970" stroke="#191970" points="186.8902,-29.743 190.6741,-19.8469 181.5448,-25.2233 186.8902,-29.743"/>
</g>
<!-- Node10 -->
<g id="node11" class="node">
<title>Node10</title>
<polygon fill="none" stroke="#bfbfbf" points="53.5,-.5 53.5,-19.5 94.5,-19.5 94.5,-.5 53.5,-.5"/>
<text text-anchor="middle" x="74" y="-7.5" font-family="Helvetica,sans-Serif" font-size="10.00" fill="#000000">stack</text>
</g>
<!-- Node9&#45;&gt;Node10 -->
<g id="edge12" class="edge">
<title>Node9&#45;&gt;Node10</title>
<path fill="none" stroke="#191970" d="M128.9551,-56.2977C118.1886,-47.2274 104.5149,-35.7077 93.5005,-26.4285"/>
<polygon fill="#191970" stroke="#191970" points="95.5911,-23.6132 85.6882,-19.8469 91.0809,-28.9667 95.5911,-23.6132"/>
</g>
<!-- Node11 -->
<g id="node12" class="node">
<title>Node11</title>
<g id="a_node12"><a xlink:href="state_8h.html" target="_top" xlink:title="state.h">
<polygon fill="none" stroke="#000000" points="112.5,-.5 112.5,-19.5 159.5,-19.5 159.5,-.5 112.5,-.5"/>
<text text-anchor="middle" x="136" y="-7.5" font-family="Helvetica,sans-Serif" font-size="10.00" fill="#000000">state.h</text>
</a>
</g>
</g>
<!-- Node9&#45;&gt;Node11 -->
<g id="edge13" class="edge">
<title>Node9&#45;&gt;Node11</title>
<path fill="none" stroke="#191970" d="M144.2809,-56.2977C142.8494,-48.2945 141.0769,-38.3843 139.5395,-29.7889"/>
<polygon fill="#191970" stroke="#191970" points="142.9673,-29.0744 137.7612,-19.8469 136.0767,-30.307 142.9673,-29.0744"/>
</g>
<!-- Node12&#45;&gt;Node2 -->
<g id="edge19" class="edge">
<title>Node12&#45;&gt;Node2</title>
<path fill="none" stroke="#191970" d="M476.8989,-56.2977C469.3887,-47.5831 459.93,-36.6075 452.1073,-27.5302"/>
<polygon fill="#191970" stroke="#191970" points="454.6655,-25.1372 445.486,-19.8469 449.3629,-29.707 454.6655,-25.1372"/>
</g>
<!-- Node12&#45;&gt;Node5 -->
<g id="edge15" class="edge">
<title>Node12&#45;&gt;Node5</title>
<path fill="none" stroke="#191970" d="M456.486,-56.4554C434.2288,-46.464 405.2353,-33.4487 383.6015,-23.7372"/>
<polygon fill="#191970" stroke="#191970" points="384.7865,-20.4327 374.2301,-19.5303 381.9197,-26.8187 384.7865,-20.4327"/>
</g>
<!-- Node13 -->
<g id="node14" class="node">
<title>Node13</title>
<polygon fill="none" stroke="#bfbfbf" points="495,-.5 495,-19.5 539,-19.5 539,-.5 495,-.5"/>
<text text-anchor="middle" x="517" y="-7.5" font-family="Helvetica,sans-Serif" font-size="10.00" fill="#000000">vector</text>
</g>
<!-- Node12&#45;&gt;Node13 -->
<g id="edge16" class="edge">
<title>Node12&#45;&gt;Node13</title>
<path fill="none" stroke="#191970" d="M496.6742,-56.2977C500.2659,-48.1166 504.7324,-37.943 508.5629,-29.2179"/>
<polygon fill="#191970" stroke="#191970" points="511.8618,-30.4104 512.677,-19.8469 505.4522,-27.5964 511.8618,-30.4104"/>
</g>
<!-- Node14 -->
<g id="node15" class="node">
<title>Node14</title>
<polygon fill="none" stroke="#bfbfbf" points="557.5,-.5 557.5,-19.5 640.5,-19.5 640.5,-.5 557.5,-.5"/>
<text text-anchor="middle" x="599" y="-7.5" font-family="Helvetica,sans-Serif" font-size="10.00" fill="#000000">unordered_map</text>
</g>
<!-- Node12&#45;&gt;Node14 -->
<g id="edge17" class="edge">
<title>Node12&#45;&gt;Node14</title>
<path fill="none" stroke="#191970" d="M516.6644,-56.4554C533.8941,-46.734 556.1975,-34.15 573.2446,-24.5317"/>
<polygon fill="#191970" stroke="#191970" points="575.1194,-27.4926 582.1089,-19.5303 571.6796,-21.3961 575.1194,-27.4926"/>
</g>
<!-- Node15 -->
<g id="node16" class="node">
<title>Node15</title>
<polygon fill="none" stroke="#bfbfbf" points="659,-.5 659,-19.5 715,-19.5 715,-.5 659,-.5"/>
<text text-anchor="middle" x="687" y="-7.5" font-family="Helvetica,sans-Serif" font-size="10.00" fill="#000000">tinyxml.h</text>
</g>
<!-- Node12&#45;&gt;Node15 -->
<g id="edge18" class="edge">
<title>Node12&#45;&gt;Node15</title>
<path fill="none" stroke="#191970" d="M538.1916,-56.4554C572.3164,-45.8023 617.4531,-31.7113 649.0325,-21.8528"/>
<polygon fill="#191970" stroke="#191970" points="650.2753,-25.1315 658.778,-18.8104 648.1893,-18.4495 650.2753,-25.1315"/>
</g>
</g>
</svg>
