<?xml version="1.0" encoding="UTF-8" standalone="no"?>
<!DOCTYPE svg PUBLIC "-//W3C//DTD SVG 1.1//EN"
 "http://www.w3.org/Graphics/SVG/1.1/DTD/svg11.dtd">
<!-- Generated by graphviz version 2.40.1 (20161225.0304)
 -->
<!-- Title: /mnt/hdd/fnky/C0de/CAPSTONE/clean_build/src/States/game_over_state.cpp Pages: 1 -->
<svg width="1736pt" height="374pt"
 viewBox="0.00 0.00 1736.01 374.00" xmlns="http://www.w3.org/2000/svg" xmlns:xlink="http://www.w3.org/1999/xlink">
<g id="graph0" class="graph" transform="scale(1 1) rotate(0) translate(4 370)">
<title>/mnt/hdd/fnky/C0de/CAPSTONE/clean_build/src/States/game_over_state.cpp</title>
<!-- Node0 -->
<g id="node1" class="node">
<title>Node0</title>
<polygon fill="#bfbfbf" stroke="#000000" points="1086.0092,-313.5 1086.0092,-365.5 1213.0092,-365.5 1213.0092,-313.5 1086.0092,-313.5"/>
<text text-anchor="start" x="1094.0092" y="-353.5" font-family="Helvetica,sans-Serif" font-size="10.00" fill="#000000">/mnt/hdd/fnky/C0de</text>
<text text-anchor="start" x="1094.0092" y="-342.5" font-family="Helvetica,sans-Serif" font-size="10.00" fill="#000000">/CAPSTONE/clean_build</text>
<text text-anchor="start" x="1094.0092" y="-331.5" font-family="Helvetica,sans-Serif" font-size="10.00" fill="#000000">/src/States/game_over</text>
<text text-anchor="middle" x="1149.5092" y="-320.5" font-family="Helvetica,sans-Serif" font-size="10.00" fill="#000000">_state.cpp</text>
</g>
<!-- Node1 -->
<g id="node2" class="node">
<title>Node1</title>
<g id="a_node2"><a xlink:href="TransformComponent_8h.html" target="_top" xlink:title="../../include/Components\l/TransformComponent.h">
<polygon fill="none" stroke="#000000" points="278.5092,-179.5 278.5092,-209.5 402.5092,-209.5 402.5092,-179.5 278.5092,-179.5"/>
<text text-anchor="start" x="286.5092" y="-197.5" font-family="Helvetica,sans-Serif" font-size="10.00" fill="#000000">../../include/Components</text>
<text text-anchor="middle" x="340.5092" y="-186.5" font-family="Helvetica,sans-Serif" font-size="10.00" fill="#000000">/TransformComponent.h</text>
</a>
</g>
</g>
<!-- Node0&#45;&gt;Node1 -->
<g id="edge1" class="edge">
<title>Node0&#45;&gt;Node1</title>
<path fill="none" stroke="#191970" d="M1085.9841,-328.9489C1012.9477,-316.7491 889.485,-295.9153 783.5092,-277 652.6223,-253.6383 500.2794,-224.9353 412.6529,-208.2789"/>
<polygon fill="#191970" stroke="#191970" points="413.2929,-204.8379 402.815,-206.4077 411.9849,-211.7146 413.2929,-204.8379"/>
</g>
<!-- Node6 -->
<g id="node7" class="node">
<title>Node6</title>
<g id="a_node7"><a xlink:href="ShaderComponent_8h.html" target="_top" xlink:title="../../include/Components\l/ShaderComponent.h">
<polygon fill="none" stroke="#000000" points="14.5092,-179.5 14.5092,-209.5 138.5092,-209.5 138.5092,-179.5 14.5092,-179.5"/>
<text text-anchor="start" x="22.5092" y="-197.5" font-family="Helvetica,sans-Serif" font-size="10.00" fill="#000000">../../include/Components</text>
<text text-anchor="middle" x="76.5092" y="-186.5" font-family="Helvetica,sans-Serif" font-size="10.00" fill="#000000">/ShaderComponent.h</text>
</a>
</g>
</g>
<!-- Node0&#45;&gt;Node6 -->
<g id="edge6" class="edge">
<title>Node0&#45;&gt;Node6</title>
<path fill="none" stroke="#191970" d="M1085.9094,-332.6698C986.4809,-321.8376 788.2275,-299.6191 620.5092,-277 451.2477,-254.1728 253.0584,-222.9886 148.9137,-206.2559"/>
<polygon fill="#191970" stroke="#191970" points="149.2561,-202.7661 138.8271,-204.6332 148.1442,-209.6772 149.2561,-202.7661"/>
</g>
<!-- Node9 -->
<g id="node10" class="node">
<title>Node9</title>
<g id="a_node10"><a xlink:href="RenderComponent_8h.html" target="_top" xlink:title="../../include/Components\l/RenderComponent.h">
<polygon fill="none" stroke="#000000" points="503.5092,-179.5 503.5092,-209.5 627.5092,-209.5 627.5092,-179.5 503.5092,-179.5"/>
<text text-anchor="start" x="511.5092" y="-197.5" font-family="Helvetica,sans-Serif" font-size="10.00" fill="#000000">../../include/Components</text>
<text text-anchor="middle" x="565.5092" y="-186.5" font-family="Helvetica,sans-Serif" font-size="10.00" fill="#000000">/RenderComponent.h</text>
</a>
</g>
</g>
<!-- Node0&#45;&gt;Node9 -->
<g id="edge11" class="edge">
<title>Node0&#45;&gt;Node9</title>
<path fill="none" stroke="#191970" d="M1085.8993,-323.7064C975.7378,-296.3547 750.2747,-240.375 635.6989,-211.9272"/>
<polygon fill="#191970" stroke="#191970" points="636.5177,-208.5243 625.9689,-209.5114 634.8308,-215.3181 636.5177,-208.5243"/>
</g>
<!-- Node11 -->
<g id="node12" class="node">
<title>Node11</title>
<polygon fill="none" stroke="#bfbfbf" points="1383.0092,-56.5 1383.0092,-75.5 1426.0092,-75.5 1426.0092,-56.5 1383.0092,-56.5"/>
<text text-anchor="middle" x="1404.5092" y="-63.5" font-family="Helvetica,sans-Serif" font-size="10.00" fill="#000000">cstdio</text>
</g>
<!-- Node0&#45;&gt;Node11 -->
<g id="edge60" class="edge">
<title>Node0&#45;&gt;Node11</title>
<path fill="none" stroke="#191970" d="M1213.3153,-329.8039C1307.1111,-311.7407 1479.219,-263.2138 1554.5092,-143 1561.8224,-131.3233 1562.6998,-123.0789 1554.5092,-112 1540.3879,-92.8991 1475.882,-78.4732 1436.2008,-71.2182"/>
<polygon fill="#191970" stroke="#191970" points="1436.6688,-67.7467 1426.2112,-69.4469 1435.4465,-74.6392 1436.6688,-67.7467"/>
</g>
<!-- Node20 -->
<g id="node21" class="node">
<title>Node20</title>
<g id="a_node21"><a xlink:href="Actor_8h.html" target="_top" xlink:title="../../include/Actors\l/Actor.h">
<polygon fill="none" stroke="#000000" points="803.0092,-179.5 803.0092,-209.5 900.0092,-209.5 900.0092,-179.5 803.0092,-179.5"/>
<text text-anchor="start" x="811.0092" y="-197.5" font-family="Helvetica,sans-Serif" font-size="10.00" fill="#000000">../../include/Actors</text>
<text text-anchor="middle" x="851.5092" y="-186.5" font-family="Helvetica,sans-Serif" font-size="10.00" fill="#000000">/Actor.h</text>
</a>
</g>
</g>
<!-- Node0&#45;&gt;Node20 -->
<g id="edge33" class="edge">
<title>Node0&#45;&gt;Node20</title>
<path fill="none" stroke="#191970" d="M1103.6912,-313.4917C1068.7363,-294.0256 1019.1555,-267.2158 974.5092,-246 950.1756,-234.4367 922.5475,-222.744 899.6487,-213.429"/>
<polygon fill="#191970" stroke="#191970" points="900.7308,-210.0914 890.1478,-209.5898 898.1081,-216.5815 900.7308,-210.0914"/>
</g>
<!-- Node22 -->
<g id="node23" class="node">
<title>Node22</title>
<g id="a_node23"><a xlink:href="GameData_8h.html" target="_top" xlink:title="../../include/GameData\l/GameData.h">
<polygon fill="none" stroke="#000000" points="1192.5092,-179.5 1192.5092,-209.5 1308.5092,-209.5 1308.5092,-179.5 1192.5092,-179.5"/>
<text text-anchor="start" x="1200.5092" y="-197.5" font-family="Helvetica,sans-Serif" font-size="10.00" fill="#000000">../../include/GameData</text>
<text text-anchor="middle" x="1250.5092" y="-186.5" font-family="Helvetica,sans-Serif" font-size="10.00" fill="#000000">/GameData.h</text>
</a>
</g>
</g>
<!-- Node0&#45;&gt;Node22 -->
<g id="edge37" class="edge">
<title>Node0&#45;&gt;Node22</title>
<path fill="none" stroke="#191970" d="M1167.7996,-313.2416C1186.6144,-286.2301 1215.6669,-244.5211 1233.8587,-218.4043"/>
<polygon fill="#191970" stroke="#191970" points="1236.9621,-220.0724 1239.8058,-209.8663 1231.2181,-216.0715 1236.9621,-220.0724"/>
</g>
<!-- Node31 -->
<g id="node32" class="node">
<title>Node31</title>
<g id="a_node32"><a xlink:href="game__over__state_8h.html" target="_top" xlink:title="../../include/States\l/game_over_state.h">
<polygon fill="none" stroke="#000000" points="1560.0092,-246.5 1560.0092,-276.5 1663.0092,-276.5 1663.0092,-246.5 1560.0092,-246.5"/>
<text text-anchor="start" x="1568.0092" y="-264.5" font-family="Helvetica,sans-Serif" font-size="10.00" fill="#000000">../../include/States</text>
<text text-anchor="middle" x="1611.5092" y="-253.5" font-family="Helvetica,sans-Serif" font-size="10.00" fill="#000000">/game_over_state.h</text>
</a>
</g>
</g>
<!-- Node0&#45;&gt;Node31 -->
<g id="edge57" class="edge">
<title>Node0&#45;&gt;Node31</title>
<path fill="none" stroke="#191970" d="M1213.2055,-330.9302C1291.6643,-320.0334 1428.8858,-299.865 1545.5092,-277 1546.953,-276.7169 1548.4131,-276.4246 1549.8846,-276.1245"/>
<polygon fill="#191970" stroke="#191970" points="1550.6469,-279.5407 1559.707,-274.0484 1549.1993,-272.692 1550.6469,-279.5407"/>
</g>
<!-- Node32 -->
<g id="node33" class="node">
<title>Node32</title>
<polygon fill="none" stroke="#bfbfbf" points="1681.0092,-252 1681.0092,-271 1728.0092,-271 1728.0092,-252 1681.0092,-252"/>
<text text-anchor="middle" x="1704.5092" y="-259" font-family="Helvetica,sans-Serif" font-size="10.00" fill="#000000">math.h</text>
</g>
<!-- Node0&#45;&gt;Node32 -->
<g id="edge61" class="edge">
<title>Node0&#45;&gt;Node32</title>
<path fill="none" stroke="#191970" d="M1213.09,-334.5533C1332.9097,-324.7944 1587.7152,-301.843 1672.5092,-277 1674.2198,-276.4988 1675.9515,-275.9135 1677.678,-275.2695"/>
<polygon fill="#191970" stroke="#191970" points="1679.5239,-278.2853 1687.3231,-271.1143 1676.7543,-271.8565 1679.5239,-278.2853"/>
</g>
<!-- Node2 -->
<g id="node3" class="node">
<title>Node2</title>
<g id="a_node3"><a xlink:href="Components_2Component_8h.html" target="_top" xlink:title="Component.h">
<polygon fill="none" stroke="#000000" points="634.0092,-118 634.0092,-137 709.0092,-137 709.0092,-118 634.0092,-118"/>
<text text-anchor="middle" x="671.5092" y="-125" font-family="Helvetica,sans-Serif" font-size="10.00" fill="#000000">Component.h</text>
</a>
</g>
</g>
<!-- Node1&#45;&gt;Node2 -->
<g id="edge2" class="edge">
<title>Node1&#45;&gt;Node2</title>
<path fill="none" stroke="#191970" d="M402.5357,-185.7979C460.4308,-177.0767 548.9913,-162.2002 624.5092,-143 627.9441,-142.1267 631.4924,-141.1324 635.0283,-140.0787"/>
<polygon fill="#191970" stroke="#191970" points="636.3577,-143.3301 644.8561,-137.0034 634.2672,-136.6496 636.3577,-143.3301"/>
</g>
<!-- Node4 -->
<g id="node5" class="node">
<title>Node4</title>
<polygon fill="none" stroke="#bfbfbf" points="265.5092,-56.5 265.5092,-75.5 335.5092,-75.5 335.5092,-56.5 265.5092,-56.5"/>
<text text-anchor="middle" x="300.5092" y="-63.5" font-family="Helvetica,sans-Serif" font-size="10.00" fill="#000000">glm/glm.hpp</text>
</g>
<!-- Node1&#45;&gt;Node4 -->
<g id="edge4" class="edge">
<title>Node1&#45;&gt;Node4</title>
<path fill="none" stroke="#191970" d="M278.496,-182.9267C237.4464,-173.8604 188.9598,-159.9599 176.5092,-143 168.3558,-131.8937 168.6414,-123.3104 176.5092,-112 185.9449,-98.4357 223.9639,-85.5838 255.4447,-76.9307"/>
<polygon fill="#191970" stroke="#191970" points="256.6338,-80.2358 265.3915,-74.2732 254.8269,-73.473 256.6338,-80.2358"/>
</g>
<!-- Node5 -->
<g id="node6" class="node">
<title>Node5</title>
<polygon fill="none" stroke="#bfbfbf" points="185.5092,-118 185.5092,-137 329.5092,-137 329.5092,-118 185.5092,-118"/>
<text text-anchor="middle" x="257.5092" y="-125" font-family="Helvetica,sans-Serif" font-size="10.00" fill="#000000">glm/gtc/matrix_transform.hpp</text>
</g>
<!-- Node1&#45;&gt;Node5 -->
<g id="edge5" class="edge">
<title>Node1&#45;&gt;Node5</title>
<path fill="none" stroke="#191970" d="M321.6752,-179.2967C308.4924,-168.6551 290.9077,-154.4602 277.4809,-143.6217"/>
<polygon fill="#191970" stroke="#191970" points="279.3256,-140.6128 269.346,-137.055 274.9287,-146.0596 279.3256,-140.6128"/>
</g>
<!-- Node3 -->
<g id="node4" class="node">
<title>Node3</title>
<polygon fill="none" stroke="#bfbfbf" points="918.5092,-56.5 918.5092,-75.5 970.5092,-75.5 970.5092,-56.5 918.5092,-56.5"/>
<text text-anchor="middle" x="944.5092" y="-63.5" font-family="Helvetica,sans-Serif" font-size="10.00" fill="#000000">memory</text>
</g>
<!-- Node2&#45;&gt;Node3 -->
<g id="edge3" class="edge">
<title>Node2&#45;&gt;Node3</title>
<path fill="none" stroke="#191970" d="M709.1821,-119.0133C761.7302,-107.1755 856.3943,-85.8501 908.2014,-74.1792"/>
<polygon fill="#191970" stroke="#191970" points="909.2846,-77.523 918.2709,-71.9108 907.7462,-70.6941 909.2846,-77.523"/>
</g>
<!-- Node6&#45;&gt;Node2 -->
<g id="edge7" class="edge">
<title>Node6&#45;&gt;Node2</title>
<path fill="none" stroke="#191970" d="M138.7413,-189.4453C272.2672,-178.4848 577.9462,-152.7363 624.5092,-143 628.3726,-142.1922 632.3629,-141.1752 636.3101,-140.0501"/>
<polygon fill="#191970" stroke="#191970" points="637.4078,-143.3743 645.9364,-137.0882 635.3493,-136.6838 637.4078,-143.3743"/>
</g>
<!-- Node6&#45;&gt;Node4 -->
<g id="edge9" class="edge">
<title>Node6&#45;&gt;Node4</title>
<path fill="none" stroke="#191970" d="M51.7564,-179.4737C27.0161,-162.6068 -4.7794,-134.6389 14.5092,-112 29.9092,-93.9252 178.2533,-77.4828 254.9976,-70.1021"/>
<polygon fill="#191970" stroke="#191970" points="255.7055,-73.5507 265.3301,-69.1215 255.0441,-66.582 255.7055,-73.5507"/>
</g>
<!-- Node7 -->
<g id="node8" class="node">
<title>Node7</title>
<polygon fill="none" stroke="#bfbfbf" points="331.5092,-.5 331.5092,-19.5 395.5092,-19.5 395.5092,-.5 331.5092,-.5"/>
<text text-anchor="middle" x="363.5092" y="-7.5" font-family="Helvetica,sans-Serif" font-size="10.00" fill="#000000">glad/glad.h</text>
</g>
<!-- Node6&#45;&gt;Node7 -->
<g id="edge8" class="edge">
<title>Node6&#45;&gt;Node7</title>
<path fill="none" stroke="#191970" d="M47.8595,-179.4804C20.8101,-163.3079 -13.0485,-136.5836 5.5092,-112 43.8603,-61.1958 235.1721,-28.1819 321.3289,-15.6618"/>
<polygon fill="#191970" stroke="#191970" points="321.8932,-19.1168 331.2972,-14.2368 320.9025,-12.1873 321.8932,-19.1168"/>
</g>
<!-- Node8 -->
<g id="node9" class="node">
<title>Node8</title>
<polygon fill="none" stroke="#bfbfbf" points="23.5092,-118 23.5092,-137 129.5092,-137 129.5092,-118 23.5092,-118"/>
<text text-anchor="middle" x="76.5092" y="-125" font-family="Helvetica,sans-Serif" font-size="10.00" fill="#000000">glm/gtc/type_ptr.hpp</text>
</g>
<!-- Node6&#45;&gt;Node8 -->
<g id="edge10" class="edge">
<title>Node6&#45;&gt;Node8</title>
<path fill="none" stroke="#191970" d="M76.5092,-179.2967C76.5092,-169.7699 76.5092,-157.3954 76.5092,-147.1306"/>
<polygon fill="#191970" stroke="#191970" points="80.0093,-147.0549 76.5092,-137.055 73.0093,-147.055 80.0093,-147.0549"/>
</g>
<!-- Node9&#45;&gt;Node2 -->
<g id="edge18" class="edge">
<title>Node9&#45;&gt;Node2</title>
<path fill="none" stroke="#191970" d="M589.2977,-179.4639C606.7627,-168.4247 630.3821,-153.4954 647.823,-142.4715"/>
<polygon fill="#191970" stroke="#191970" points="649.732,-145.4054 656.315,-137.1039 645.9919,-139.4883 649.732,-145.4054"/>
</g>
<!-- Node9&#45;&gt;Node3 -->
<g id="edge32" class="edge">
<title>Node9&#45;&gt;Node3</title>
<path fill="none" stroke="#191970" d="M619.9018,-179.4833C654.3701,-169.7009 699.7831,-156.3208 739.5092,-143 800.7811,-122.4546 871.0678,-95.2444 911.383,-79.2787"/>
<polygon fill="#191970" stroke="#191970" points="912.7207,-82.5134 920.7221,-75.5689 910.1364,-76.0079 912.7207,-82.5134"/>
</g>
<!-- Node9&#45;&gt;Node4 -->
<g id="edge15" class="edge">
<title>Node9&#45;&gt;Node4</title>
<path fill="none" stroke="#191970" d="M503.3441,-184.9176C466.2311,-177.3433 419.1519,-164.378 381.5092,-143 354.2511,-127.5196 329.1367,-100.9102 314.317,-83.3846"/>
<polygon fill="#191970" stroke="#191970" points="316.9638,-81.093 307.9045,-75.5994 311.5607,-85.5434 316.9638,-81.093"/>
</g>
<!-- Node9&#45;&gt;Node5 -->
<g id="edge16" class="edge">
<title>Node9&#45;&gt;Node5</title>
<path fill="none" stroke="#191970" d="M503.1808,-180.9416C446.8696,-168.692 364.8476,-150.8496 311.3339,-139.2086"/>
<polygon fill="#191970" stroke="#191970" points="311.8724,-135.744 301.357,-137.0383 310.3844,-142.584 311.8724,-135.744"/>
</g>
<!-- Node9&#45;&gt;Node7 -->
<g id="edge14" class="edge">
<title>Node9&#45;&gt;Node7</title>
<path fill="none" stroke="#191970" d="M503.2195,-184.8594C473.4972,-177.5739 439.1375,-164.9055 414.5092,-143 381.0682,-113.256 369.4208,-59.0979 365.4661,-29.9092"/>
<polygon fill="#191970" stroke="#191970" points="368.9118,-29.2422 364.2649,-19.7208 361.9599,-30.0619 368.9118,-29.2422"/>
</g>
<!-- Node10 -->
<g id="node11" class="node">
<title>Node10</title>
<polygon fill="none" stroke="#bfbfbf" points="714.5092,-56.5 714.5092,-75.5 760.5092,-75.5 760.5092,-56.5 714.5092,-56.5"/>
<text text-anchor="middle" x="737.5092" y="-63.5" font-family="Helvetica,sans-Serif" font-size="10.00" fill="#000000">cstdint</text>
</g>
<!-- Node9&#45;&gt;Node10 -->
<g id="edge12" class="edge">
<title>Node9&#45;&gt;Node10</title>
<path fill="none" stroke="#191970" d="M627.5611,-180.0809C664.1592,-170.3792 705.7444,-156.8676 718.5092,-143 732.8137,-127.4598 736.7974,-102.896 737.6929,-85.7026"/>
<polygon fill="#191970" stroke="#191970" points="741.1934,-85.7114 737.9128,-75.6373 734.1951,-85.5584 741.1934,-85.7114"/>
</g>
<!-- Node9&#45;&gt;Node11 -->
<g id="edge13" class="edge">
<title>Node9&#45;&gt;Node11</title>
<path fill="none" stroke="#191970" d="M627.6883,-190.3359C756.6792,-181.4109 1044.8648,-159.8785 1086.5092,-143 1107.0299,-134.683 1105.2691,-120.9782 1125.5092,-112 1169.4145,-92.5243 1309.2103,-75.9457 1372.6517,-69.2143"/>
<polygon fill="#191970" stroke="#191970" points="1373.2807,-72.6677 1382.8623,-68.1463 1372.5524,-65.7057 1373.2807,-72.6677"/>
</g>
<!-- Node12 -->
<g id="node13" class="node">
<title>Node12</title>
<polygon fill="none" stroke="#bfbfbf" points="424.0092,-118 424.0092,-137 459.0092,-137 459.0092,-118 424.0092,-118"/>
<text text-anchor="middle" x="441.5092" y="-125" font-family="Helvetica,sans-Serif" font-size="10.00" fill="#000000">map</text>
</g>
<!-- Node9&#45;&gt;Node12 -->
<g id="edge17" class="edge">
<title>Node9&#45;&gt;Node12</title>
<path fill="none" stroke="#191970" d="M537.6812,-179.4639C516.8756,-168.2222 488.6038,-152.9463 468.1019,-141.8686"/>
<polygon fill="#191970" stroke="#191970" points="469.7453,-138.7784 459.2836,-137.1039 466.4177,-144.9369 469.7453,-138.7784"/>
</g>
<!-- Node13 -->
<g id="node14" class="node">
<title>Node13</title>
<g id="a_node14"><a xlink:href="sprite_8h.html" target="_top" xlink:title="../Graphics/sprite.h">
<polygon fill="none" stroke="#000000" points="515.5092,-118 515.5092,-137 615.5092,-137 615.5092,-118 515.5092,-118"/>
<text text-anchor="middle" x="565.5092" y="-125" font-family="Helvetica,sans-Serif" font-size="10.00" fill="#000000">../Graphics/sprite.h</text>
</a>
</g>
</g>
<!-- Node9&#45;&gt;Node13 -->
<g id="edge19" class="edge">
<title>Node9&#45;&gt;Node13</title>
<path fill="none" stroke="#191970" d="M565.5092,-179.2967C565.5092,-169.7699 565.5092,-157.3954 565.5092,-147.1306"/>
<polygon fill="#191970" stroke="#191970" points="569.0093,-147.0549 565.5092,-137.055 562.0093,-147.055 569.0093,-147.0549"/>
</g>
<!-- Node17 -->
<g id="node18" class="node">
<title>Node17</title>
<g id="a_node18"><a xlink:href="texture_8h.html" target="_top" xlink:title="texture.h">
<polygon fill="none" stroke="#000000" points="392.0092,-56.5 392.0092,-75.5 447.0092,-75.5 447.0092,-56.5 392.0092,-56.5"/>
<text text-anchor="middle" x="419.5092" y="-63.5" font-family="Helvetica,sans-Serif" font-size="10.00" fill="#000000">texture.h</text>
</a>
</g>
</g>
<!-- Node9&#45;&gt;Node17 -->
<g id="edge31" class="edge">
<title>Node9&#45;&gt;Node17</title>
<path fill="none" stroke="#191970" d="M548.1848,-179.4329C536.4135,-169.1818 520.5001,-155.2973 506.5092,-143 482.8137,-122.1728 455.5974,-98.0527 438.0074,-82.4377"/>
<polygon fill="#191970" stroke="#191970" points="440.0045,-79.5302 430.2032,-75.507 435.3563,-84.7643 440.0045,-79.5302"/>
</g>
<!-- Node13&#45;&gt;Node3 -->
<g id="edge28" class="edge">
<title>Node13&#45;&gt;Node3</title>
<path fill="none" stroke="#191970" d="M599.6274,-117.9958C608.0466,-115.8417 617.0705,-113.6931 625.5092,-112 652.7884,-106.5267 830.236,-81.7914 908.0438,-71.0285"/>
<polygon fill="#191970" stroke="#191970" points="908.909,-74.4423 918.3356,-69.606 907.9505,-67.5082 908.909,-74.4423"/>
</g>
<!-- Node13&#45;&gt;Node4 -->
<g id="edge23" class="edge">
<title>Node13&#45;&gt;Node4</title>
<path fill="none" stroke="#191970" d="M524.3937,-117.9581C475.9749,-106.7213 395.8127,-88.1176 345.6933,-76.4861"/>
<polygon fill="#191970" stroke="#191970" points="346.315,-73.0374 335.7826,-74.1861 344.7325,-79.8562 346.315,-73.0374"/>
</g>
<!-- Node13&#45;&gt;Node10 -->
<g id="edge20" class="edge">
<title>Node13&#45;&gt;Node10</title>
<path fill="none" stroke="#191970" d="M592.3842,-117.8906C622.781,-107.022 672.2778,-89.324 704.8697,-77.6705"/>
<polygon fill="#191970" stroke="#191970" points="706.1641,-80.9248 714.4018,-74.2622 703.8072,-74.3335 706.1641,-80.9248"/>
</g>
<!-- Node14 -->
<g id="node15" class="node">
<title>Node14</title>
<polygon fill="none" stroke="#bfbfbf" points="524.5092,-56.5 524.5092,-75.5 570.5092,-75.5 570.5092,-56.5 524.5092,-56.5"/>
<text text-anchor="middle" x="547.5092" y="-63.5" font-family="Helvetica,sans-Serif" font-size="10.00" fill="#000000">stdio.h</text>
</g>
<!-- Node13&#45;&gt;Node14 -->
<g id="edge21" class="edge">
<title>Node13&#45;&gt;Node14</title>
<path fill="none" stroke="#191970" d="M562.6967,-117.8906C560.1754,-109.276 556.3982,-96.3708 553.2416,-85.5858"/>
<polygon fill="#191970" stroke="#191970" points="556.5295,-84.3591 550.3614,-75.7449 549.8114,-86.3254 556.5295,-84.3591"/>
</g>
<!-- Node15 -->
<g id="node16" class="node">
<title>Node15</title>
<polygon fill="none" stroke="#bfbfbf" points="588.5092,-56.5 588.5092,-75.5 658.5092,-75.5 658.5092,-56.5 588.5092,-56.5"/>
<text text-anchor="middle" x="623.5092" y="-63.5" font-family="Helvetica,sans-Serif" font-size="10.00" fill="#000000">glm/fwd.hpp</text>
</g>
<!-- Node13&#45;&gt;Node15 -->
<g id="edge22" class="edge">
<title>Node13&#45;&gt;Node15</title>
<path fill="none" stroke="#191970" d="M574.5717,-117.8906C583.2885,-108.6478 596.6632,-94.466 607.2288,-83.2628"/>
<polygon fill="#191970" stroke="#191970" points="610.0042,-85.4213 614.319,-75.7449 604.9116,-80.6186 610.0042,-85.4213"/>
</g>
<!-- Node16 -->
<g id="node17" class="node">
<title>Node16</title>
<polygon fill="none" stroke="#bfbfbf" points="761.5092,-.5 761.5092,-19.5 815.5092,-19.5 815.5092,-.5 761.5092,-.5"/>
<text text-anchor="middle" x="788.5092" y="-7.5" font-family="Helvetica,sans-Serif" font-size="10.00" fill="#000000">iostream</text>
</g>
<!-- Node13&#45;&gt;Node16 -->
<g id="edge24" class="edge">
<title>Node13&#45;&gt;Node16</title>
<path fill="none" stroke="#191970" d="M584.7777,-117.9992C605.3563,-107.7994 638.8799,-91.0307 667.5092,-76 700.4276,-58.7176 737.96,-38.1014 762.3795,-24.5645"/>
<polygon fill="#191970" stroke="#191970" points="764.3262,-27.487 771.3695,-19.5723 760.9278,-21.3673 764.3262,-27.487"/>
</g>
<!-- Node13&#45;&gt;Node17 -->
<g id="edge25" class="edge">
<title>Node13&#45;&gt;Node17</title>
<path fill="none" stroke="#191970" d="M542.6967,-117.8906C518.1611,-107.5554 478.965,-91.0447 451.3881,-79.4284"/>
<polygon fill="#191970" stroke="#191970" points="452.736,-76.1984 442.1615,-75.5419 450.0186,-82.6495 452.736,-76.1984"/>
</g>
<!-- Node18 -->
<g id="node19" class="node">
<title>Node18</title>
<polygon fill="none" stroke="#bfbfbf" points="465.0092,-56.5 465.0092,-75.5 506.0092,-75.5 506.0092,-56.5 465.0092,-56.5"/>
<text text-anchor="middle" x="485.5092" y="-63.5" font-family="Helvetica,sans-Serif" font-size="10.00" fill="#000000">string</text>
</g>
<!-- Node13&#45;&gt;Node18 -->
<g id="edge29" class="edge">
<title>Node13&#45;&gt;Node18</title>
<path fill="none" stroke="#191970" d="M553.0092,-117.8906C540.4457,-108.2324 520.8669,-93.1812 506.0244,-81.771"/>
<polygon fill="#191970" stroke="#191970" points="507.9827,-78.8618 497.9214,-75.5419 503.7164,-84.4115 507.9827,-78.8618"/>
</g>
<!-- Node19 -->
<g id="node20" class="node">
<title>Node19</title>
<polygon fill="none" stroke="#bfbfbf" points="779.0092,-56.5 779.0092,-75.5 862.0092,-75.5 862.0092,-56.5 779.0092,-56.5"/>
<text text-anchor="middle" x="820.5092" y="-63.5" font-family="Helvetica,sans-Serif" font-size="10.00" fill="#000000">unordered_map</text>
</g>
<!-- Node13&#45;&gt;Node19 -->
<g id="edge30" class="edge">
<title>Node13&#45;&gt;Node19</title>
<path fill="none" stroke="#191970" d="M601.9667,-117.9503C609.7297,-115.9538 617.8847,-113.8839 625.5092,-112 674.124,-99.988 729.731,-86.9383 769.0906,-77.817"/>
<polygon fill="#191970" stroke="#191970" points="770.031,-81.192 778.9846,-75.5276 768.4529,-74.3721 770.031,-81.192"/>
</g>
<!-- Node17&#45;&gt;Node7 -->
<g id="edge27" class="edge">
<title>Node17&#45;&gt;Node7</title>
<path fill="none" stroke="#191970" d="M409.7548,-56.2455C401.6444,-48.1352 389.9167,-36.4075 380.3011,-26.7919"/>
<polygon fill="#191970" stroke="#191970" points="382.6979,-24.2389 373.1519,-19.6427 377.7481,-29.1887 382.6979,-24.2389"/>
</g>
<!-- Node17&#45;&gt;Node16 -->
<g id="edge26" class="edge">
<title>Node17&#45;&gt;Node16</title>
<path fill="none" stroke="#191970" d="M447.3274,-57.8768C450.0799,-57.1924 452.8414,-56.5522 455.5092,-56 561.6676,-34.0262 689.0922,-19.722 751.0294,-13.5263"/>
<polygon fill="#191970" stroke="#191970" points="751.4964,-16.9974 761.1045,-12.5326 750.8092,-10.0312 751.4964,-16.9974"/>
</g>
<!-- Node20&#45;&gt;Node2 -->
<g id="edge36" class="edge">
<title>Node20&#45;&gt;Node2</title>
<path fill="none" stroke="#191970" d="M811.1137,-179.4639C779.7305,-167.7824 736.6448,-151.7449 706.672,-140.5884"/>
<polygon fill="#191970" stroke="#191970" points="707.6386,-137.2136 697.0458,-137.0053 705.1967,-143.7739 707.6386,-137.2136"/>
</g>
<!-- Node20&#45;&gt;Node16 -->
<g id="edge35" class="edge">
<title>Node20&#45;&gt;Node16</title>
<path fill="none" stroke="#191970" d="M859.6911,-179.135C872.8072,-152.1991 894.8151,-95.5623 871.5092,-56 861.5133,-39.0316 842.7551,-27.8801 825.5972,-20.8128"/>
<polygon fill="#191970" stroke="#191970" points="826.3501,-17.3566 815.7582,-17.1106 823.8849,-23.9082 826.3501,-17.3566"/>
</g>
<!-- Node21 -->
<g id="node22" class="node">
<title>Node21</title>
<polygon fill="none" stroke="#bfbfbf" points="988.5092,-56.5 988.5092,-75.5 1032.5092,-75.5 1032.5092,-56.5 988.5092,-56.5"/>
<text text-anchor="middle" x="1010.5092" y="-63.5" font-family="Helvetica,sans-Serif" font-size="10.00" fill="#000000">vector</text>
</g>
<!-- Node20&#45;&gt;Node21 -->
<g id="edge34" class="edge">
<title>Node20&#45;&gt;Node21</title>
<path fill="none" stroke="#191970" d="M867.9325,-179.4198C886.5665,-162.5046 918.0676,-134.4935 946.5092,-112 959.982,-101.3449 975.6306,-90.0787 988.0817,-81.3628"/>
<polygon fill="#191970" stroke="#191970" points="990.289,-84.0911 996.506,-75.5121 986.296,-78.3416 990.289,-84.0911"/>
</g>
<!-- Node22&#45;&gt;Node3 -->
<g id="edge42" class="edge">
<title>Node22&#45;&gt;Node3</title>
<path fill="none" stroke="#191970" d="M1192.3002,-188.6158C1108.5804,-179.5666 962.424,-161.3489 946.5092,-143 933.0685,-127.5035 935.0174,-102.9311 938.7385,-85.7237"/>
<polygon fill="#191970" stroke="#191970" points="942.2279,-86.2027 941.2958,-75.6489 935.443,-84.4804 942.2279,-86.2027"/>
</g>
<!-- Node22&#45;&gt;Node10 -->
<g id="edge40" class="edge">
<title>Node22&#45;&gt;Node10</title>
<path fill="none" stroke="#191970" d="M1192.3615,-188.9597C1127.7929,-181.9235 1020.8802,-167.6331 931.5092,-143 871.2211,-126.3829 804.053,-97.177 766.6793,-79.9071"/>
<polygon fill="#191970" stroke="#191970" points="767.9422,-76.6342 757.3999,-75.5807 764.9842,-82.9786 767.9422,-76.6342"/>
</g>
<!-- Node22&#45;&gt;Node16 -->
<g id="edge41" class="edge">
<title>Node22&#45;&gt;Node16</title>
<path fill="none" stroke="#191970" d="M1262.3002,-179.2379C1269.0838,-169.4664 1276.9486,-156.1862 1280.5092,-143 1290.9065,-104.4953 1290.332,-80.0421 1258.5092,-56 1224.2386,-30.1085 931.149,-15.7825 825.925,-11.4363"/>
<polygon fill="#191970" stroke="#191970" points="825.9004,-7.9325 815.7666,-11.0238 825.6163,-14.9268 825.9004,-7.9325"/>
</g>
<!-- Node23 -->
<g id="node24" class="node">
<title>Node23</title>
<polygon fill="none" stroke="#bfbfbf" points="1349.5092,-118 1349.5092,-137 1429.5092,-137 1429.5092,-118 1349.5092,-118"/>
<text text-anchor="middle" x="1389.5092" y="-125" font-family="Helvetica,sans-Serif" font-size="10.00" fill="#000000">GLFW/glfw3.h</text>
</g>
<!-- Node22&#45;&gt;Node23 -->
<g id="edge38" class="edge">
<title>Node22&#45;&gt;Node23</title>
<path fill="none" stroke="#191970" d="M1281.7035,-179.4639C1305.2361,-168.1209 1337.2894,-152.6707 1360.3187,-141.5703"/>
<polygon fill="#191970" stroke="#191970" points="1362.0963,-144.5989 1369.5847,-137.1039 1359.0568,-138.2932 1362.0963,-144.5989"/>
</g>
<!-- Node24 -->
<g id="node25" class="node">
<title>Node24</title>
<polygon fill="none" stroke="#bfbfbf" points="1169.5092,-56.5 1169.5092,-75.5 1249.5092,-75.5 1249.5092,-56.5 1169.5092,-56.5"/>
<text text-anchor="middle" x="1209.5092" y="-63.5" font-family="Helvetica,sans-Serif" font-size="10.00" fill="#000000">box2d/box2d.h</text>
</g>
<!-- Node22&#45;&gt;Node24 -->
<g id="edge39" class="edge">
<title>Node22&#45;&gt;Node24</title>
<path fill="none" stroke="#191970" d="M1258.1332,-179.4889C1265.693,-162.391 1274.7801,-133.9799 1264.5092,-112 1258.5629,-99.2749 1247.1734,-88.8307 1236.2942,-81.129"/>
<polygon fill="#191970" stroke="#191970" points="1238.0732,-78.1101 1227.7925,-75.5491 1234.2323,-83.9622 1238.0732,-78.1101"/>
</g>
<!-- Node25 -->
<g id="node26" class="node">
<title>Node25</title>
<g id="a_node26"><a xlink:href="Orthographic__camera_8h.html" target="_top" xlink:title="../../include/Camera\l/Orthographic_camera.h">
<polygon fill="none" stroke="#000000" points="1134.0092,-112.5 1134.0092,-142.5 1255.0092,-142.5 1255.0092,-112.5 1134.0092,-112.5"/>
<text text-anchor="start" x="1142.0092" y="-130.5" font-family="Helvetica,sans-Serif" font-size="10.00" fill="#000000">../../include/Camera</text>
<text text-anchor="middle" x="1194.5092" y="-119.5" font-family="Helvetica,sans-Serif" font-size="10.00" fill="#000000">/Orthographic_camera.h</text>
</a>
</g>
</g>
<!-- Node22&#45;&gt;Node25 -->
<g id="edge43" class="edge">
<title>Node22&#45;&gt;Node25</title>
<path fill="none" stroke="#191970" d="M1237.802,-179.2967C1230.7136,-170.816 1221.739,-160.0785 1213.8014,-150.5817"/>
<polygon fill="#191970" stroke="#191970" points="1216.2648,-148.0714 1207.1662,-142.6432 1210.8938,-152.5606 1216.2648,-148.0714"/>
</g>
<!-- Node26 -->
<g id="node27" class="node">
<title>Node26</title>
<g id="a_node27"><a xlink:href="state__machine_8h.html" target="_top" xlink:title="../../include/States\l/state_machine.h">
<polygon fill="none" stroke="#000000" points="1448.0092,-112.5 1448.0092,-142.5 1545.0092,-142.5 1545.0092,-112.5 1448.0092,-112.5"/>
<text text-anchor="start" x="1456.0092" y="-130.5" font-family="Helvetica,sans-Serif" font-size="10.00" fill="#000000">../../include/States</text>
<text text-anchor="middle" x="1496.5092" y="-119.5" font-family="Helvetica,sans-Serif" font-size="10.00" fill="#000000">/state_machine.h</text>
</a>
</g>
</g>
<!-- Node22&#45;&gt;Node26 -->
<g id="edge46" class="edge">
<title>Node22&#45;&gt;Node26</title>
<path fill="none" stroke="#191970" d="M1305.7164,-179.4639C1345.0244,-168.7581 1397.7656,-154.3936 1437.8339,-143.4807"/>
<polygon fill="#191970" stroke="#191970" points="1439.0031,-146.7898 1447.7318,-140.7849 1437.1635,-140.0358 1439.0031,-146.7898"/>
</g>
<!-- Node29 -->
<g id="node30" class="node">
<title>Node29</title>
<g id="a_node30"><a xlink:href="LoadingGameObjects_8h.html" target="_top" xlink:title="../../include/Loaders\l/LoadingGameObjects.h">
<polygon fill="none" stroke="#000000" points="955.5092,-112.5 955.5092,-142.5 1077.5092,-142.5 1077.5092,-112.5 955.5092,-112.5"/>
<text text-anchor="start" x="963.5092" y="-130.5" font-family="Helvetica,sans-Serif" font-size="10.00" fill="#000000">../../include/Loaders</text>
<text text-anchor="middle" x="1016.5092" y="-119.5" font-family="Helvetica,sans-Serif" font-size="10.00" fill="#000000">/LoadingGameObjects.h</text>
</a>
</g>
</g>
<!-- Node22&#45;&gt;Node29 -->
<g id="edge51" class="edge">
<title>Node22&#45;&gt;Node29</title>
<path fill="none" stroke="#191970" d="M1197.9951,-179.4639C1162.7421,-169.3701 1116.1304,-156.024 1078.9726,-145.3848"/>
<polygon fill="#191970" stroke="#191970" points="1079.8296,-141.9896 1069.2524,-142.6017 1077.9027,-148.7192 1079.8296,-141.9896"/>
</g>
<!-- Node25&#45;&gt;Node4 -->
<g id="edge45" class="edge">
<title>Node25&#45;&gt;Node4</title>
<path fill="none" stroke="#191970" d="M1133.796,-117.7928C1118.4028,-115.6054 1101.8748,-113.4923 1086.5092,-112 774.6788,-81.7144 694.6431,-102.9797 382.5092,-76 370.574,-74.9684 357.6972,-73.5453 345.764,-72.0961"/>
<polygon fill="#191970" stroke="#191970" points="345.9238,-68.589 335.5676,-70.8249 345.0578,-75.5352 345.9238,-68.589"/>
</g>
<!-- Node25&#45;&gt;Node11 -->
<g id="edge44" class="edge">
<title>Node25&#45;&gt;Node11</title>
<path fill="none" stroke="#191970" d="M1245.881,-112.4554C1285.7164,-100.7893 1339.6289,-85.0007 1373.224,-75.1621"/>
<polygon fill="#191970" stroke="#191970" points="1374.3465,-78.4804 1382.9597,-72.3109 1372.3791,-71.7626 1374.3465,-78.4804"/>
</g>
<!-- Node26&#45;&gt;Node3 -->
<g id="edge48" class="edge">
<title>Node26&#45;&gt;Node3</title>
<path fill="none" stroke="#191970" d="M1447.9178,-113.8234C1444.7473,-113.1453 1441.5911,-112.5281 1438.5092,-112 1240.0721,-77.9972 1182.7325,-111.1839 980.7891,-75.8961"/>
<polygon fill="#191970" stroke="#191970" points="981.2087,-72.4158 970.7497,-74.1067 979.9804,-79.3072 981.2087,-72.4158"/>
</g>
<!-- Node26&#45;&gt;Node11 -->
<g id="edge47" class="edge">
<title>Node26&#45;&gt;Node11</title>
<path fill="none" stroke="#191970" d="M1473.7676,-112.2977C1459.7126,-102.9022 1441.7262,-90.8787 1427.6057,-81.4395"/>
<polygon fill="#191970" stroke="#191970" points="1429.2235,-78.311 1418.9649,-75.6633 1425.3333,-84.1305 1429.2235,-78.311"/>
</g>
<!-- Node27 -->
<g id="node28" class="node">
<title>Node27</title>
<polygon fill="none" stroke="#bfbfbf" points="1476.0092,-56.5 1476.0092,-75.5 1517.0092,-75.5 1517.0092,-56.5 1476.0092,-56.5"/>
<text text-anchor="middle" x="1496.5092" y="-63.5" font-family="Helvetica,sans-Serif" font-size="10.00" fill="#000000">stack</text>
</g>
<!-- Node26&#45;&gt;Node27 -->
<g id="edge49" class="edge">
<title>Node26&#45;&gt;Node27</title>
<path fill="none" stroke="#191970" d="M1496.5092,-112.2977C1496.5092,-104.3834 1496.5092,-94.6043 1496.5092,-86.0759"/>
<polygon fill="#191970" stroke="#191970" points="1500.0093,-85.8469 1496.5092,-75.8469 1493.0093,-85.847 1500.0093,-85.8469"/>
</g>
<!-- Node28 -->
<g id="node29" class="node">
<title>Node28</title>
<g id="a_node29"><a xlink:href="state_8h.html" target="_top" xlink:title="state.h">
<polygon fill="none" stroke="#000000" points="1561.0092,-56.5 1561.0092,-75.5 1608.0092,-75.5 1608.0092,-56.5 1561.0092,-56.5"/>
<text text-anchor="middle" x="1584.5092" y="-63.5" font-family="Helvetica,sans-Serif" font-size="10.00" fill="#000000">state.h</text>
</a>
</g>
</g>
<!-- Node26&#45;&gt;Node28 -->
<g id="edge50" class="edge">
<title>Node26&#45;&gt;Node28</title>
<path fill="none" stroke="#191970" d="M1518.262,-112.2977C1531.706,-102.9022 1548.9104,-90.8787 1562.417,-81.4395"/>
<polygon fill="#191970" stroke="#191970" points="1564.4903,-84.2605 1570.6821,-75.6633 1560.4804,-78.5228 1564.4903,-84.2605"/>
</g>
<!-- Node29&#45;&gt;Node3 -->
<g id="edge52" class="edge">
<title>Node29&#45;&gt;Node3</title>
<path fill="none" stroke="#191970" d="M998.7115,-112.2977C988.0925,-103.2274 974.6061,-91.7077 963.7426,-82.4285"/>
<polygon fill="#191970" stroke="#191970" points="965.9143,-79.6805 956.0373,-75.8469 961.3679,-85.0031 965.9143,-79.6805"/>
</g>
<!-- Node29&#45;&gt;Node19 -->
<g id="edge54" class="edge">
<title>Node29&#45;&gt;Node19</title>
<path fill="none" stroke="#191970" d="M968.5622,-112.4554C935.4288,-102.059 891.8609,-88.3884 860.5784,-78.5727"/>
<polygon fill="#191970" stroke="#191970" points="861.4715,-75.1848 850.8823,-75.5303 859.3757,-81.8637 861.4715,-75.1848"/>
</g>
<!-- Node29&#45;&gt;Node21 -->
<g id="edge53" class="edge">
<title>Node29&#45;&gt;Node21</title>
<path fill="none" stroke="#191970" d="M1015.0261,-112.2977C1014.2539,-104.3834 1013.2999,-94.6043 1012.4678,-86.0759"/>
<polygon fill="#191970" stroke="#191970" points="1015.9244,-85.4598 1011.4699,-75.8469 1008.9575,-86.1396 1015.9244,-85.4598"/>
</g>
<!-- Node29&#45;&gt;Node24 -->
<g id="edge56" class="edge">
<title>Node29&#45;&gt;Node24</title>
<path fill="none" stroke="#191970" d="M1063.7223,-112.4554C1096.3486,-102.059 1139.2496,-88.3884 1170.0533,-78.5727"/>
<polygon fill="#191970" stroke="#191970" points="1171.1358,-81.9013 1179.6011,-75.5303 1169.0104,-75.2317 1171.1358,-81.9013"/>
</g>
<!-- Node30 -->
<g id="node31" class="node">
<title>Node30</title>
<polygon fill="none" stroke="#bfbfbf" points="1050.5092,-56.5 1050.5092,-75.5 1106.5092,-75.5 1106.5092,-56.5 1050.5092,-56.5"/>
<text text-anchor="middle" x="1078.5092" y="-63.5" font-family="Helvetica,sans-Serif" font-size="10.00" fill="#000000">tinyxml.h</text>
</g>
<!-- Node29&#45;&gt;Node30 -->
<g id="edge55" class="edge">
<title>Node29&#45;&gt;Node30</title>
<path fill="none" stroke="#191970" d="M1031.8351,-112.2977C1040.7999,-103.4052 1052.138,-92.1586 1061.3943,-82.9769"/>
<polygon fill="#191970" stroke="#191970" points="1063.9474,-85.3742 1068.5822,-75.8469 1059.0177,-80.4045 1063.9474,-85.3742"/>
</g>
<!-- Node31&#45;&gt;Node22 -->
<g id="edge59" class="edge">
<title>Node31&#45;&gt;Node22</title>
<path fill="none" stroke="#191970" d="M1559.7867,-251.9005C1496.4216,-240.1402 1388.876,-220.1803 1318.7751,-207.1698"/>
<polygon fill="#191970" stroke="#191970" points="1319.1845,-203.6861 1308.7137,-205.3025 1317.9071,-210.5686 1319.1845,-203.6861"/>
</g>
<!-- Node31&#45;&gt;Node28 -->
<g id="edge58" class="edge">
<title>Node31&#45;&gt;Node28</title>
<path fill="none" stroke="#191970" d="M1609.4354,-246.4841C1604.6148,-211.5793 1592.6543,-124.9766 1587.2443,-85.804"/>
<polygon fill="#191970" stroke="#191970" points="1590.7103,-85.3169 1585.8751,-75.8898 1583.7762,-86.2747 1590.7103,-85.3169"/>
</g>
</g>
</svg>
