<?xml version="1.0" encoding="UTF-8" standalone="no"?>
<!DOCTYPE svg PUBLIC "-//W3C//DTD SVG 1.1//EN"
 "http://www.w3.org/Graphics/SVG/1.1/DTD/svg11.dtd">
<!-- Generated by graphviz version 2.40.1 (20161225.0304)
 -->
<!-- Title: /mnt/hdd/fnky/C0de/CAPSTONE/clean_build/include/Window/game.h Pages: 1 -->
<!--zoomable 296 -->
<svg id="main" version="1.1" xmlns="http://www.w3.org/2000/svg" xmlns:xlink="http://www.w3.org/1999/xlink" xml:space="preserve" onload="init(evt)">
<style type="text/css"><![CDATA[
.edge:hover path { stroke: red; }
.edge:hover polygon { stroke: red; fill: red; }
]]></style>
<script type="text/javascript"><![CDATA[
var edges = document.getElementsByTagName('g');
if (edges && edges.length) {
  for (var i=0;i<edges.length;i++) {
    if (edges[i].id.substr(0,4)=='edge') {
      edges[i].setAttribute('class','edge');
    }
  }
}
]]></script>
        <defs>
                <circle id="rim" cx="0" cy="0" r="7"/>
                <circle id="rim2" cx="0" cy="0" r="3.5"/>
                <g id="zoomPlus">
                        <use xlink:href="#rim" fill="#404040">
                                <set attributeName="fill" to="#808080" begin="zoomplus.mouseover" end="zoomplus.mouseout"/>
                        </use>
                        <path d="M-4,0h8M0,-4v8" fill="none" stroke="white" stroke-width="1.5" pointer-events="none"/>
                </g>
                <g id="zoomMin">
                        <use xlink:href="#rim" fill="#404040">
                                <set attributeName="fill" to="#808080" begin="zoomminus.mouseover" end="zoomminus.mouseout"/>
                        </use>
                        <path d="M-4,0h8" fill="none" stroke="white" stroke-width="1.5" pointer-events="none"/>
                </g>
                <g id="dirArrow">
                        <path fill="none" stroke="white" stroke-width="1.5" d="M0,-3.0v7 M-2.5,-0.5L0,-3.0L2.5,-0.5"/>
                </g>
               <g id="resetDef">
                       <use xlink:href="#rim2" fill="#404040">
                               <set attributeName="fill" to="#808080" begin="reset.mouseover" end="reset.mouseout"/>
                       </use>
               </g>
        </defs>

<script type="text/javascript">
var viewWidth = 1706;
var viewHeight = 296;
var sectionId = 'dynsection-0';
</script>
<script xlink:href="svgpan.js"/>
<svg id="graph" class="graph">
<g id="viewport">
<title>/mnt/hdd/fnky/C0de/CAPSTONE/clean_build/include/Window/game.h</title>
<!-- Node0 -->
<g id="node1" class="node">
<title>Node0</title>
<polygon fill="#bfbfbf" stroke="#000000" points="1008.2814,-246.5 1008.2814,-287.5 1135.2814,-287.5 1135.2814,-246.5 1008.2814,-246.5"/>
<text text-anchor="start" x="1016.2814" y="-275.5" font-family="Helvetica,sans-Serif" font-size="10.00" fill="#000000">/mnt/hdd/fnky/C0de</text>
<text text-anchor="start" x="1016.2814" y="-264.5" font-family="Helvetica,sans-Serif" font-size="10.00" fill="#000000">/CAPSTONE/clean_build</text>
<text text-anchor="middle" x="1071.7814" y="-253.5" font-family="Helvetica,sans-Serif" font-size="10.00" fill="#000000">/include/Window/game.h</text>
</g>
<!-- Node1 -->
<g id="node2" class="node">
<title>Node1</title>
<polygon fill="none" stroke="#bfbfbf" points="153.7814,-.5 153.7814,-19.5 205.7814,-19.5 205.7814,-.5 153.7814,-.5"/>
<text text-anchor="middle" x="179.7814" y="-7.5" font-family="Helvetica,sans-Serif" font-size="10.00" fill="#000000">memory</text>
</g>
<!-- Node0&#45;&gt;Node1 -->
<g id="edge1" class="edge">
<title>Node0&#45;&gt;Node1</title>
<path fill="none" stroke="#191970" d="M1008.0953,-265.5318C837.5427,-261.1515 373.351,-246.1654 224.7814,-210 152.2576,-192.346 133.5221,-183.4347 70.7814,-143 30.8709,-117.2788 -20.1045,-93.6832 8.7814,-56 25.0918,-34.7222 98.5516,-21.0856 143.7176,-14.5549"/>
<polygon fill="#191970" stroke="#191970" points="144.2973,-18.008 153.7168,-13.1579 143.3287,-11.0753 144.2973,-18.008"/>
</g>
<!-- Node2 -->
<g id="node3" class="node">
<title>Node2</title>
<polygon fill="none" stroke="#bfbfbf" points="179.7814,-62 179.7814,-81 233.7814,-81 233.7814,-62 179.7814,-62"/>
<text text-anchor="middle" x="206.7814" y="-69" font-family="Helvetica,sans-Serif" font-size="10.00" fill="#000000">iostream</text>
</g>
<!-- Node0&#45;&gt;Node2 -->
<g id="edge2" class="edge">
<title>Node0&#45;&gt;Node2</title>
<path fill="none" stroke="#191970" d="M1008.2024,-265.2489C866.9042,-260.7384 530.8322,-246.417 423.7814,-210 342.3047,-182.2829 260.6223,-117.8999 225.1433,-87.6933"/>
<polygon fill="#191970" stroke="#191970" points="227.3839,-85.0038 217.5251,-81.1239 222.8125,-90.305 227.3839,-85.0038"/>
</g>
<!-- Node3 -->
<g id="node4" class="node">
<title>Node3</title>
<polygon fill="none" stroke="#bfbfbf" points="1048.7814,-62 1048.7814,-81 1094.7814,-81 1094.7814,-62 1048.7814,-62"/>
<text text-anchor="middle" x="1071.7814" y="-69" font-family="Helvetica,sans-Serif" font-size="10.00" fill="#000000">cstdint</text>
</g>
<!-- Node0&#45;&gt;Node3 -->
<g id="edge3" class="edge">
<title>Node0&#45;&gt;Node3</title>
<path fill="none" stroke="#191970" d="M1118.199,-246.2867C1133.2081,-237.2839 1148.3859,-225.2504 1157.7814,-210 1178.1487,-176.9406 1185.5715,-156.4081 1165.7814,-123 1152.6817,-100.8862 1126.3531,-87.643 1104.8844,-80.1358"/>
<polygon fill="#191970" stroke="#191970" points="1105.7135,-76.7257 1095.1219,-76.9882 1103.5654,-83.388 1105.7135,-76.7257"/>
</g>
<!-- Node4 -->
<g id="node5" class="node">
<title>Node4</title>
<polygon fill="none" stroke="#bfbfbf" points="1226.7814,-185 1226.7814,-204 1290.7814,-204 1290.7814,-185 1226.7814,-185"/>
<text text-anchor="middle" x="1258.7814" y="-192" font-family="Helvetica,sans-Serif" font-size="10.00" fill="#000000">glad/glad.h</text>
</g>
<!-- Node0&#45;&gt;Node4 -->
<g id="edge4" class="edge">
<title>Node0&#45;&gt;Node4</title>
<path fill="none" stroke="#191970" d="M1124.8679,-246.4183C1156.936,-233.9855 1196.858,-218.5077 1224.733,-207.7006"/>
<polygon fill="#191970" stroke="#191970" points="1225.9992,-210.9636 1234.0578,-204.0853 1223.4688,-204.4369 1225.9992,-210.9636"/>
</g>
<!-- Node5 -->
<g id="node6" class="node">
<title>Node5</title>
<polygon fill="none" stroke="#bfbfbf" points="836.7814,-62 836.7814,-81 916.7814,-81 916.7814,-62 836.7814,-62"/>
<text text-anchor="middle" x="876.7814" y="-69" font-family="Helvetica,sans-Serif" font-size="10.00" fill="#000000">GLFW/glfw3.h</text>
</g>
<!-- Node0&#45;&gt;Node5 -->
<g id="edge5" class="edge">
<title>Node0&#45;&gt;Node5</title>
<path fill="none" stroke="#191970" d="M1045.1469,-246.4612C1032.0146,-235.9725 1016.1641,-222.7588 1002.7814,-210 959.8968,-169.1148 914.2044,-116.2378 891.4429,-89.1722"/>
<polygon fill="#191970" stroke="#191970" points="893.9919,-86.7644 884.8912,-81.3396 888.6226,-91.2556 893.9919,-86.7644"/>
</g>
<!-- Node6 -->
<g id="node7" class="node">
<title>Node6</title>
<polygon fill="none" stroke="#bfbfbf" points="1308.7814,-185 1308.7814,-204 1352.7814,-204 1352.7814,-185 1308.7814,-185"/>
<text text-anchor="middle" x="1330.7814" y="-192" font-family="Helvetica,sans-Serif" font-size="10.00" fill="#000000">thread</text>
</g>
<!-- Node0&#45;&gt;Node6 -->
<g id="edge6" class="edge">
<title>Node0&#45;&gt;Node6</title>
<path fill="none" stroke="#191970" d="M1135.3167,-255.0133C1181.6868,-245.3324 1245.6333,-230.0307 1299.7814,-210 1301.1922,-209.4781 1302.6232,-208.9103 1304.0568,-208.3106"/>
<polygon fill="#191970" stroke="#191970" points="1305.7432,-211.3877 1313.3731,-204.0369 1302.8244,-205.0252 1305.7432,-211.3877"/>
</g>
<!-- Node7 -->
<g id="node8" class="node">
<title>Node7</title>
<polygon fill="none" stroke="#bfbfbf" points="1370.7814,-185 1370.7814,-204 1416.7814,-204 1416.7814,-185 1370.7814,-185"/>
<text text-anchor="middle" x="1393.7814" y="-192" font-family="Helvetica,sans-Serif" font-size="10.00" fill="#000000">chrono</text>
</g>
<!-- Node0&#45;&gt;Node7 -->
<g id="edge7" class="edge">
<title>Node0&#45;&gt;Node7</title>
<path fill="none" stroke="#191970" d="M1135.4972,-259.278C1195.0759,-250.9402 1285.9871,-235.3341 1361.7814,-210 1363.4316,-209.4484 1365.1064,-208.8304 1366.7804,-208.1672"/>
<polygon fill="#191970" stroke="#191970" points="1368.442,-211.2598 1376.1812,-204.024 1365.6189,-204.8543 1368.442,-211.2598"/>
</g>
<!-- Node8 -->
<g id="node9" class="node">
<title>Node8</title>
<polygon fill="none" stroke="#bfbfbf" points="1434.7814,-185 1434.7814,-204 1478.7814,-204 1478.7814,-185 1434.7814,-185"/>
<text text-anchor="middle" x="1456.7814" y="-192" font-family="Helvetica,sans-Serif" font-size="10.00" fill="#000000">mutex</text>
</g>
<!-- Node0&#45;&gt;Node8 -->
<g id="edge8" class="edge">
<title>Node0&#45;&gt;Node8</title>
<path fill="none" stroke="#191970" d="M1135.4821,-262.5956C1207.4167,-256.2894 1327.276,-241.733 1425.7814,-210 1427.3958,-209.4799 1429.0305,-208.8865 1430.6615,-208.2421"/>
<polygon fill="#191970" stroke="#191970" points="1432.099,-211.4333 1439.7945,-204.1511 1429.2374,-205.0449 1432.099,-211.4333"/>
</g>
<!-- Node9 -->
<g id="node10" class="node">
<title>Node9</title>
<polygon fill="none" stroke="#bfbfbf" points="1497.2814,-185 1497.2814,-204 1538.2814,-204 1538.2814,-185 1497.2814,-185"/>
<text text-anchor="middle" x="1517.7814" y="-192" font-family="Helvetica,sans-Serif" font-size="10.00" fill="#000000">future</text>
</g>
<!-- Node0&#45;&gt;Node9 -->
<g id="edge9" class="edge">
<title>Node0&#45;&gt;Node9</title>
<path fill="none" stroke="#191970" d="M1135.6192,-264.965C1218.5574,-260.8161 1367.0269,-248.2197 1487.7814,-210 1489.2485,-209.5356 1490.7302,-209.0035 1492.2081,-208.4225"/>
<polygon fill="#191970" stroke="#191970" points="1494.0717,-211.4188 1501.7097,-204.0763 1491.16,-205.0531 1494.0717,-211.4188"/>
</g>
<!-- Node10 -->
<g id="node11" class="node">
<title>Node10</title>
<polygon fill="none" stroke="#bfbfbf" points="1556.7814,-185 1556.7814,-204 1630.7814,-204 1630.7814,-185 1556.7814,-185"/>
<text text-anchor="middle" x="1593.7814" y="-192" font-family="Helvetica,sans-Serif" font-size="10.00" fill="#000000">bits/stdc++.h</text>
</g>
<!-- Node0&#45;&gt;Node10 -->
<g id="edge10" class="edge">
<title>Node0&#45;&gt;Node10</title>
<path fill="none" stroke="#191970" d="M1135.6249,-263.5385C1227.6419,-257.6088 1402.4602,-242.8163 1547.7814,-210 1551.257,-209.2151 1554.8394,-208.2667 1558.3984,-207.2302"/>
<polygon fill="#191970" stroke="#191970" points="1559.7641,-210.47 1568.2587,-204.1383 1557.6696,-203.7907 1559.7641,-210.47"/>
</g>
<!-- Node11 -->
<g id="node12" class="node">
<title>Node11</title>
<polygon fill="none" stroke="#bfbfbf" points="1649.2814,-185 1649.2814,-204 1698.2814,-204 1698.2814,-185 1649.2814,-185"/>
<text text-anchor="middle" x="1673.7814" y="-192" font-family="Helvetica,sans-Serif" font-size="10.00" fill="#000000">cstddef</text>
</g>
<!-- Node0&#45;&gt;Node11 -->
<g id="edge11" class="edge">
<title>Node0&#45;&gt;Node11</title>
<path fill="none" stroke="#191970" d="M1135.3078,-263.249C1262.8791,-255.2869 1546.0189,-235.3324 1639.7814,-210 1641.9694,-209.4088 1644.1935,-208.6904 1646.403,-207.8903"/>
<polygon fill="#191970" stroke="#191970" points="1647.9269,-211.0479 1655.8397,-204.0025 1645.2604,-204.5757 1647.9269,-211.0479"/>
</g>
<!-- Node12 -->
<g id="node13" class="node">
<title>Node12</title>
<polygon fill="none" stroke="#bfbfbf" points="1115.2814,-123.5 1115.2814,-142.5 1156.2814,-142.5 1156.2814,-123.5 1115.2814,-123.5"/>
<text text-anchor="middle" x="1135.7814" y="-130.5" font-family="Helvetica,sans-Serif" font-size="10.00" fill="#000000">ctime</text>
</g>
<!-- Node0&#45;&gt;Node12 -->
<g id="edge12" class="edge">
<title>Node0&#45;&gt;Node12</title>
<path fill="none" stroke="#191970" d="M1108.7401,-246.4136C1121.6718,-237.1219 1134.7171,-224.8624 1141.7814,-210 1150.3868,-191.8952 1146.8951,-168.6764 1142.5006,-152.4909"/>
<polygon fill="#191970" stroke="#191970" points="1145.7322,-151.0911 1139.4516,-142.5586 1139.0404,-153.1454 1145.7322,-151.0911"/>
</g>
<!-- Node13 -->
<g id="node14" class="node">
<title>Node13</title>
<g id="a_node14"><a xlink:href="GameData_8h.html" target="_top" xlink:title="../GameData/GameData.h">
<polygon fill="none" stroke="#000000" points="590.2814,-123.5 590.2814,-142.5 721.2814,-142.5 721.2814,-123.5 590.2814,-123.5"/>
<text text-anchor="middle" x="655.7814" y="-130.5" font-family="Helvetica,sans-Serif" font-size="10.00" fill="#000000">../GameData/GameData.h</text>
</a>
</g>
</g>
<!-- Node0&#45;&gt;Node13 -->
<g id="edge13" class="edge">
<title>Node0&#45;&gt;Node13</title>
<path fill="none" stroke="#191970" d="M1008.1146,-264.0677C883.9105,-257.6922 618.9851,-240.6254 591.7814,-210 582.6314,-199.6992 585.495,-191.26 591.7814,-179 598.7144,-165.4789 611.675,-155.0326 624.1295,-147.5377"/>
<polygon fill="#191970" stroke="#191970" points="625.9742,-150.5168 633.0153,-142.6001 622.5741,-144.3979 625.9742,-150.5168"/>
</g>
<!-- Node25 -->
<g id="node26" class="node">
<title>Node25</title>
<g id="a_node26"><a xlink:href="splash__state_8h.html" target="_top" xlink:title="../States/splash_state.h">
<polygon fill="none" stroke="#000000" points="1011.2814,-185 1011.2814,-204 1132.2814,-204 1132.2814,-185 1011.2814,-185"/>
<text text-anchor="middle" x="1071.7814" y="-192" font-family="Helvetica,sans-Serif" font-size="10.00" fill="#000000">../States/splash_state.h</text>
</a>
</g>
</g>
<!-- Node0&#45;&gt;Node25 -->
<g id="edge33" class="edge">
<title>Node0&#45;&gt;Node25</title>
<path fill="none" stroke="#191970" d="M1071.7814,-246.4183C1071.7814,-236.32 1071.7814,-224.213 1071.7814,-214.2314"/>
<polygon fill="#191970" stroke="#191970" points="1075.2815,-214.0853 1071.7814,-204.0853 1068.2815,-214.0854 1075.2815,-214.0853"/>
</g>
<!-- Node26 -->
<g id="node27" class="node">
<title>Node26</title>
<g id="a_node27"><a xlink:href="main__menu__state_8h.html" target="_top" xlink:title="../States/main_menu\l_state.h">
<polygon fill="none" stroke="#000000" points="601.2814,-179.5 601.2814,-209.5 708.2814,-209.5 708.2814,-179.5 601.2814,-179.5"/>
<text text-anchor="start" x="609.2814" y="-197.5" font-family="Helvetica,sans-Serif" font-size="10.00" fill="#000000">../States/main_menu</text>
<text text-anchor="middle" x="654.7814" y="-186.5" font-family="Helvetica,sans-Serif" font-size="10.00" fill="#000000">_state.h</text>
</a>
</g>
</g>
<!-- Node0&#45;&gt;Node26 -->
<g id="edge38" class="edge">
<title>Node0&#45;&gt;Node26</title>
<path fill="none" stroke="#191970" d="M1008.1914,-258.3566C939.2671,-248.6293 825.8661,-231.5838 718.3785,-210.0225"/>
<polygon fill="#191970" stroke="#191970" points="718.826,-206.5422 708.3305,-207.99 717.4381,-213.4032 718.826,-206.5422"/>
</g>
<!-- Node27 -->
<g id="node28" class="node">
<title>Node27</title>
<g id="a_node28"><a xlink:href="game__play__state_8h.html" target="_top" xlink:title="../States/game_play\l_state.h">
<polygon fill="none" stroke="#000000" points="726.7814,-179.5 726.7814,-209.5 830.7814,-209.5 830.7814,-179.5 726.7814,-179.5"/>
<text text-anchor="start" x="734.7814" y="-197.5" font-family="Helvetica,sans-Serif" font-size="10.00" fill="#000000">../States/game_play</text>
<text text-anchor="middle" x="778.7814" y="-186.5" font-family="Helvetica,sans-Serif" font-size="10.00" fill="#000000">_state.h</text>
</a>
</g>
</g>
<!-- Node0&#45;&gt;Node27 -->
<g id="edge41" class="edge">
<title>Node0&#45;&gt;Node27</title>
<path fill="none" stroke="#191970" d="M1008.2352,-251.5309C963.9616,-240.7201 903.2604,-225.8326 841.0183,-210.3"/>
<polygon fill="#191970" stroke="#191970" points="841.568,-206.8299 831.0179,-207.8021 839.8717,-213.6212 841.568,-206.8299"/>
</g>
<!-- Node29 -->
<g id="node30" class="node">
<title>Node29</title>
<g id="a_node30"><a xlink:href="game__over__state_8h.html" target="_top" xlink:title="../States/game_over\l_state.h">
<polygon fill="none" stroke="#000000" points="849.2814,-179.5 849.2814,-209.5 954.2814,-209.5 954.2814,-179.5 849.2814,-179.5"/>
<text text-anchor="start" x="857.2814" y="-197.5" font-family="Helvetica,sans-Serif" font-size="10.00" fill="#000000">../States/game_over</text>
<text text-anchor="middle" x="901.7814" y="-186.5" font-family="Helvetica,sans-Serif" font-size="10.00" fill="#000000">_state.h</text>
</a>
</g>
</g>
<!-- Node0&#45;&gt;Node29 -->
<g id="edge45" class="edge">
<title>Node0&#45;&gt;Node29</title>
<path fill="none" stroke="#191970" d="M1023.5209,-246.4183C999.3636,-236.116 970.3038,-223.7228 946.6352,-213.6289"/>
<polygon fill="#191970" stroke="#191970" points="947.7576,-210.3026 937.1862,-209.5991 945.0116,-216.7415 947.7576,-210.3026"/>
</g>
<!-- Node30 -->
<g id="node31" class="node">
<title>Node30</title>
<g id="a_node31"><a xlink:href="loading__play__state_8h.html" target="_top" xlink:title="../States/loading_play\l_state.h">
<polygon fill="none" stroke="#000000" points="433.2814,-179.5 433.2814,-209.5 544.2814,-209.5 544.2814,-179.5 433.2814,-179.5"/>
<text text-anchor="start" x="441.2814" y="-197.5" font-family="Helvetica,sans-Serif" font-size="10.00" fill="#000000">../States/loading_play</text>
<text text-anchor="middle" x="488.7814" y="-186.5" font-family="Helvetica,sans-Serif" font-size="10.00" fill="#000000">_state.h</text>
</a>
</g>
</g>
<!-- Node0&#45;&gt;Node30 -->
<g id="edge48" class="edge">
<title>Node0&#45;&gt;Node30</title>
<path fill="none" stroke="#191970" d="M1007.8989,-262.1187C910.5599,-254.1817 719.4557,-236.6364 558.7814,-210 557.3232,-209.7583 555.8496,-209.5056 554.3653,-209.2435"/>
<polygon fill="#191970" stroke="#191970" points="554.9335,-205.7892 544.4609,-207.394 553.6485,-212.6703 554.9335,-205.7892"/>
</g>
<!-- Node31 -->
<g id="node32" class="node">
<title>Node31</title>
<g id="a_node32"><a xlink:href="Actor_8h.html" target="_top" xlink:title="../Actors/Actor.h">
<polygon fill="none" stroke="#000000" points="80.2814,-123.5 80.2814,-142.5 169.2814,-142.5 169.2814,-123.5 80.2814,-123.5"/>
<text text-anchor="middle" x="124.7814" y="-130.5" font-family="Helvetica,sans-Serif" font-size="10.00" fill="#000000">../Actors/Actor.h</text>
</a>
</g>
</g>
<!-- Node0&#45;&gt;Node31 -->
<g id="edge51" class="edge">
<title>Node0&#45;&gt;Node31</title>
<path fill="none" stroke="#191970" d="M1008.1677,-264.5892C851.7735,-258.2729 451.8016,-239.653 321.7814,-210 259.338,-195.7589 190.5378,-165.1813 153.0274,-147.1378"/>
<polygon fill="#191970" stroke="#191970" points="154.2712,-143.8507 143.7479,-142.6215 151.2078,-150.1448 154.2712,-143.8507"/>
</g>
<!-- Node13&#45;&gt;Node1 -->
<g id="edge18" class="edge">
<title>Node13&#45;&gt;Node1</title>
<path fill="none" stroke="#191970" d="M590.226,-129.3439C497.9626,-123.4565 335.0056,-110.1289 280.7814,-87 260.7331,-78.4486 260.0335,-69.3201 242.7814,-56 229.325,-45.6105 213.9172,-34.3495 201.7073,-25.5697"/>
<polygon fill="#191970" stroke="#191970" points="203.6241,-22.6376 193.4554,-19.6632 199.5498,-28.3297 203.6241,-22.6376"/>
</g>
<!-- Node13&#45;&gt;Node2 -->
<g id="edge17" class="edge">
<title>Node13&#45;&gt;Node2</title>
<path fill="none" stroke="#191970" d="M590.2563,-130.6314C508.9239,-126.5496 366.4438,-115.6436 247.7814,-87 244.7716,-86.2735 241.6829,-85.3864 238.6163,-84.4081"/>
<polygon fill="#191970" stroke="#191970" points="239.6153,-81.0497 229.0204,-81.0574 237.3076,-87.6584 239.6153,-81.0497"/>
</g>
<!-- Node13&#45;&gt;Node3 -->
<g id="edge16" class="edge">
<title>Node13&#45;&gt;Node3</title>
<path fill="none" stroke="#191970" d="M720.3249,-123.4581C810.0085,-110.1996 969.0671,-86.6849 1038.1724,-76.4686"/>
<polygon fill="#191970" stroke="#191970" points="1039.086,-79.8717 1048.4666,-74.9468 1038.0622,-72.947 1039.086,-79.8717"/>
</g>
<!-- Node13&#45;&gt;Node5 -->
<g id="edge14" class="edge">
<title>Node13&#45;&gt;Node5</title>
<path fill="none" stroke="#191970" d="M690.3126,-123.3906C728.7496,-112.6944 790.9557,-95.3836 832.835,-83.7294"/>
<polygon fill="#191970" stroke="#191970" points="833.797,-87.0948 842.4926,-81.0419 831.9203,-80.351 833.797,-87.0948"/>
</g>
<!-- Node14 -->
<g id="node15" class="node">
<title>Node14</title>
<polygon fill="none" stroke="#bfbfbf" points="399.7814,-.5 399.7814,-19.5 479.7814,-19.5 479.7814,-.5 399.7814,-.5"/>
<text text-anchor="middle" x="439.7814" y="-7.5" font-family="Helvetica,sans-Serif" font-size="10.00" fill="#000000">box2d/box2d.h</text>
</g>
<!-- Node13&#45;&gt;Node14 -->
<g id="edge15" class="edge">
<title>Node13&#45;&gt;Node14</title>
<path fill="none" stroke="#191970" d="M590.0532,-125.0975C540.2273,-117.7832 477.2737,-105.2621 458.7814,-87 443.6726,-72.0794 439.8722,-47.1918 439.2385,-29.7607"/>
<polygon fill="#191970" stroke="#191970" points="442.7376,-29.5463 439.1923,-19.5623 435.7377,-29.5781 442.7376,-29.5463"/>
</g>
<!-- Node15 -->
<g id="node16" class="node">
<title>Node15</title>
<g id="a_node16"><a xlink:href="Orthographic__camera_8h.html" target="_top" xlink:title="../../include/Camera\l/Orthographic_camera.h">
<polygon fill="none" stroke="#000000" points="468.2814,-56.5 468.2814,-86.5 589.2814,-86.5 589.2814,-56.5 468.2814,-56.5"/>
<text text-anchor="start" x="476.2814" y="-74.5" font-family="Helvetica,sans-Serif" font-size="10.00" fill="#000000">../../include/Camera</text>
<text text-anchor="middle" x="528.7814" y="-63.5" font-family="Helvetica,sans-Serif" font-size="10.00" fill="#000000">/Orthographic_camera.h</text>
</a>
</g>
</g>
<!-- Node13&#45;&gt;Node15 -->
<g id="edge19" class="edge">
<title>Node13&#45;&gt;Node15</title>
<path fill="none" stroke="#191970" d="M635.9376,-123.3906C618.1131,-114.7591 591.3938,-101.8202 569.0958,-91.0224"/>
<polygon fill="#191970" stroke="#191970" points="570.3748,-87.7529 559.8491,-86.5446 567.3239,-94.0531 570.3748,-87.7529"/>
</g>
<!-- Node18 -->
<g id="node19" class="node">
<title>Node18</title>
<g id="a_node19"><a xlink:href="state__machine_8h.html" target="_top" xlink:title="../../include/States\l/state_machine.h">
<polygon fill="none" stroke="#000000" points="607.2814,-56.5 607.2814,-86.5 704.2814,-86.5 704.2814,-56.5 607.2814,-56.5"/>
<text text-anchor="start" x="615.2814" y="-74.5" font-family="Helvetica,sans-Serif" font-size="10.00" fill="#000000">../../include/States</text>
<text text-anchor="middle" x="655.7814" y="-63.5" font-family="Helvetica,sans-Serif" font-size="10.00" fill="#000000">/state_machine.h</text>
</a>
</g>
</g>
<!-- Node13&#45;&gt;Node18 -->
<g id="edge22" class="edge">
<title>Node13&#45;&gt;Node18</title>
<path fill="none" stroke="#191970" d="M655.7814,-123.3906C655.7814,-116.2234 655.7814,-106.0862 655.7814,-96.671"/>
<polygon fill="#191970" stroke="#191970" points="659.2815,-96.5446 655.7814,-86.5446 652.2815,-96.5446 659.2815,-96.5446"/>
</g>
<!-- Node21 -->
<g id="node22" class="node">
<title>Node21</title>
<g id="a_node22"><a xlink:href="LoadingGameObjects_8h.html" target="_top" xlink:title="../../include/Loaders\l/LoadingGameObjects.h">
<polygon fill="none" stroke="#000000" points="289.7814,-56.5 289.7814,-86.5 411.7814,-86.5 411.7814,-56.5 289.7814,-56.5"/>
<text text-anchor="start" x="297.7814" y="-74.5" font-family="Helvetica,sans-Serif" font-size="10.00" fill="#000000">../../include/Loaders</text>
<text text-anchor="middle" x="350.7814" y="-63.5" font-family="Helvetica,sans-Serif" font-size="10.00" fill="#000000">/LoadingGameObjects.h</text>
</a>
</g>
</g>
<!-- Node13&#45;&gt;Node21 -->
<g id="edge27" class="edge">
<title>Node13&#45;&gt;Node21</title>
<path fill="none" stroke="#191970" d="M607.7472,-123.4861C561.2045,-114.2457 488.6314,-99.7794 425.7814,-87 424.5354,-86.7467 423.2779,-86.4906 422.0115,-86.2324"/>
<polygon fill="#191970" stroke="#191970" points="422.6682,-82.7944 412.1697,-84.2203 421.2659,-89.6525 422.6682,-82.7944"/>
</g>
<!-- Node16 -->
<g id="node17" class="node">
<title>Node16</title>
<polygon fill="none" stroke="#bfbfbf" points="586.2814,-.5 586.2814,-19.5 629.2814,-19.5 629.2814,-.5 586.2814,-.5"/>
<text text-anchor="middle" x="607.7814" y="-7.5" font-family="Helvetica,sans-Serif" font-size="10.00" fill="#000000">cstdio</text>
</g>
<!-- Node15&#45;&gt;Node16 -->
<g id="edge20" class="edge">
<title>Node15&#45;&gt;Node16</title>
<path fill="none" stroke="#191970" d="M548.3095,-56.2977C560.0751,-47.1384 575.0489,-35.4816 587.0279,-26.1562"/>
<polygon fill="#191970" stroke="#191970" points="589.3916,-28.7516 595.1325,-19.8469 585.0916,-23.228 589.3916,-28.7516"/>
</g>
<!-- Node17 -->
<g id="node18" class="node">
<title>Node17</title>
<polygon fill="none" stroke="#bfbfbf" points="497.7814,-.5 497.7814,-19.5 567.7814,-19.5 567.7814,-.5 497.7814,-.5"/>
<text text-anchor="middle" x="532.7814" y="-7.5" font-family="Helvetica,sans-Serif" font-size="10.00" fill="#000000">glm/glm.hpp</text>
</g>
<!-- Node15&#45;&gt;Node17 -->
<g id="edge21" class="edge">
<title>Node15&#45;&gt;Node17</title>
<path fill="none" stroke="#191970" d="M529.7701,-56.2977C530.2849,-48.3834 530.9209,-38.6043 531.4756,-30.0759"/>
<polygon fill="#191970" stroke="#191970" points="534.9844,-30.053 532.1409,-19.8469 527.9992,-29.5986 534.9844,-30.053"/>
</g>
<!-- Node18&#45;&gt;Node1 -->
<g id="edge24" class="edge">
<title>Node18&#45;&gt;Node1</title>
<path fill="none" stroke="#191970" d="M607.1802,-57.879C604.012,-57.1873 600.8591,-56.5519 597.7814,-56 432.6977,-26.3981 384.6269,-50.6573 215.9892,-19.9154"/>
<polygon fill="#191970" stroke="#191970" points="216.5016,-16.4508 206.0301,-18.0621 215.2209,-23.3326 216.5016,-16.4508"/>
</g>
<!-- Node18&#45;&gt;Node16 -->
<g id="edge23" class="edge">
<title>Node18&#45;&gt;Node16</title>
<path fill="none" stroke="#191970" d="M643.9162,-56.2977C637.1839,-47.672 628.7228,-36.8312 621.6808,-27.8087"/>
<polygon fill="#191970" stroke="#191970" points="624.3786,-25.5766 615.4668,-19.8469 618.8604,-29.8836 624.3786,-25.5766"/>
</g>
<!-- Node19 -->
<g id="node20" class="node">
<title>Node19</title>
<polygon fill="none" stroke="#bfbfbf" points="647.2814,-.5 647.2814,-19.5 688.2814,-19.5 688.2814,-.5 647.2814,-.5"/>
<text text-anchor="middle" x="667.7814" y="-7.5" font-family="Helvetica,sans-Serif" font-size="10.00" fill="#000000">stack</text>
</g>
<!-- Node18&#45;&gt;Node19 -->
<g id="edge25" class="edge">
<title>Node18&#45;&gt;Node19</title>
<path fill="none" stroke="#191970" d="M658.7477,-56.2977C660.3093,-48.2945 662.243,-38.3843 663.9201,-29.7889"/>
<polygon fill="#191970" stroke="#191970" points="667.38,-30.3322 665.86,-19.8469 660.5096,-28.9915 667.38,-30.3322"/>
</g>
<!-- Node20 -->
<g id="node21" class="node">
<title>Node20</title>
<g id="a_node21"><a xlink:href="state_8h.html" target="_top" xlink:title="state.h">
<polygon fill="none" stroke="#000000" points="766.2814,-.5 766.2814,-19.5 813.2814,-19.5 813.2814,-.5 766.2814,-.5"/>
<text text-anchor="middle" x="789.7814" y="-7.5" font-family="Helvetica,sans-Serif" font-size="10.00" fill="#000000">state.h</text>
</a>
</g>
</g>
<!-- Node18&#45;&gt;Node20 -->
<g id="edge26" class="edge">
<title>Node18&#45;&gt;Node20</title>
<path fill="none" stroke="#191970" d="M688.5615,-56.4554C710.3313,-46.464 738.6899,-33.4487 759.85,-23.7372"/>
<polygon fill="#191970" stroke="#191970" points="761.3876,-26.8826 769.0161,-19.5303 758.4677,-20.5206 761.3876,-26.8826"/>
</g>
<!-- Node21&#45;&gt;Node1 -->
<g id="edge28" class="edge">
<title>Node21&#45;&gt;Node1</title>
<path fill="none" stroke="#191970" d="M308.9501,-56.4554C280.3302,-46.1623 242.7869,-32.6599 215.5568,-22.8666"/>
<polygon fill="#191970" stroke="#191970" points="216.6213,-19.53 206.0269,-19.4392 214.2523,-26.117 216.6213,-19.53"/>
</g>
<!-- Node21&#45;&gt;Node14 -->
<g id="edge32" class="edge">
<title>Node21&#45;&gt;Node14</title>
<path fill="none" stroke="#191970" d="M372.7814,-56.2977C386.3781,-46.9022 403.778,-34.8787 417.4381,-25.4395"/>
<polygon fill="#191970" stroke="#191970" points="419.5599,-28.2276 425.7971,-19.6633 415.5805,-22.4688 419.5599,-28.2276"/>
</g>
<!-- Node22 -->
<g id="node23" class="node">
<title>Node22</title>
<polygon fill="none" stroke="#bfbfbf" points="29.7814,-.5 29.7814,-19.5 73.7814,-19.5 73.7814,-.5 29.7814,-.5"/>
<text text-anchor="middle" x="51.7814" y="-7.5" font-family="Helvetica,sans-Serif" font-size="10.00" fill="#000000">vector</text>
</g>
<!-- Node21&#45;&gt;Node22 -->
<g id="edge29" class="edge">
<title>Node21&#45;&gt;Node22</title>
<path fill="none" stroke="#191970" d="M289.5527,-58.9062C227.1569,-46.0722 132.8004,-26.6644 83.8231,-16.5905"/>
<polygon fill="#191970" stroke="#191970" points="84.3056,-13.1166 73.8055,-14.53 82.8953,-19.973 84.3056,-13.1166"/>
</g>
<!-- Node23 -->
<g id="node24" class="node">
<title>Node23</title>
<polygon fill="none" stroke="#bfbfbf" points="298.2814,-.5 298.2814,-19.5 381.2814,-19.5 381.2814,-.5 298.2814,-.5"/>
<text text-anchor="middle" x="339.7814" y="-7.5" font-family="Helvetica,sans-Serif" font-size="10.00" fill="#000000">unordered_map</text>
</g>
<!-- Node21&#45;&gt;Node23 -->
<g id="edge30" class="edge">
<title>Node21&#45;&gt;Node23</title>
<path fill="none" stroke="#191970" d="M348.0623,-56.2977C346.6308,-48.2945 344.8582,-38.3843 343.3208,-29.7889"/>
<polygon fill="#191970" stroke="#191970" points="346.7487,-29.0744 341.5426,-19.8469 339.858,-30.307 346.7487,-29.0744"/>
</g>
<!-- Node24 -->
<g id="node25" class="node">
<title>Node24</title>
<polygon fill="none" stroke="#bfbfbf" points="223.7814,-.5 223.7814,-19.5 279.7814,-19.5 279.7814,-.5 223.7814,-.5"/>
<text text-anchor="middle" x="251.7814" y="-7.5" font-family="Helvetica,sans-Serif" font-size="10.00" fill="#000000">tinyxml.h</text>
</g>
<!-- Node21&#45;&gt;Node24 -->
<g id="edge31" class="edge">
<title>Node21&#45;&gt;Node24</title>
<path fill="none" stroke="#191970" d="M326.5632,-56.4554C311.204,-46.9141 291.4057,-34.6151 276.0389,-25.0691"/>
<polygon fill="#191970" stroke="#191970" points="277.4642,-21.8341 267.1229,-19.5303 273.7704,-27.7802 277.4642,-21.8341"/>
</g>
<!-- Node25&#45;&gt;Node3 -->
<g id="edge35" class="edge">
<title>Node25&#45;&gt;Node3</title>
<path fill="none" stroke="#191970" d="M1071.7814,-184.8484C1071.7814,-164.7295 1071.7814,-117.9608 1071.7814,-91.2098"/>
<polygon fill="#191970" stroke="#191970" points="1075.2815,-91.1067 1071.7814,-81.1068 1068.2815,-91.1068 1075.2815,-91.1067"/>
</g>
<!-- Node25&#45;&gt;Node12 -->
<g id="edge36" class="edge">
<title>Node25&#45;&gt;Node12</title>
<path fill="none" stroke="#191970" d="M1081.7814,-184.8906C1091.4933,-175.5581 1106.4453,-161.1902 1118.1555,-149.9374"/>
<polygon fill="#191970" stroke="#191970" points="1120.855,-152.1974 1125.6404,-142.7449 1116.0048,-147.15 1120.855,-152.1974"/>
</g>
<!-- Node25&#45;&gt;Node13 -->
<g id="edge37" class="edge">
<title>Node25&#45;&gt;Node13</title>
<path fill="none" stroke="#191970" d="M1010.8459,-185.4915C936.3963,-174.4851 810.4817,-155.8704 730.3292,-144.0209"/>
<polygon fill="#191970" stroke="#191970" points="730.7079,-140.5389 720.3036,-142.5387 729.6842,-147.4637 730.7079,-140.5389"/>
</g>
<!-- Node25&#45;&gt;Node20 -->
<g id="edge34" class="edge">
<title>Node25&#45;&gt;Node20</title>
<path fill="none" stroke="#191970" d="M1065.6618,-184.7899C1049.2784,-159.5951 1001.7714,-91.618 944.7814,-56 906.9788,-32.3739 856.4273,-20.3582 823.493,-14.6401"/>
<polygon fill="#191970" stroke="#191970" points="823.8915,-11.1589 813.4575,-12.9981 822.7611,-18.067 823.8915,-11.1589"/>
</g>
<!-- Node26&#45;&gt;Node13 -->
<g id="edge40" class="edge">
<title>Node26&#45;&gt;Node13</title>
<path fill="none" stroke="#191970" d="M655.0286,-179.2977C655.1572,-171.3834 655.3163,-161.6043 655.4549,-153.0759"/>
<polygon fill="#191970" stroke="#191970" points="658.9581,-152.9025 655.6213,-142.8469 651.959,-152.7887 658.9581,-152.9025"/>
</g>
<!-- Node26&#45;&gt;Node20 -->
<g id="edge39" class="edge">
<title>Node26&#45;&gt;Node20</title>
<path fill="none" stroke="#191970" d="M684.386,-179.3102C699.5181,-170.3748 717.3187,-157.9038 729.7814,-143 758.9024,-108.175 776.6551,-56.93 784.685,-29.3208"/>
<polygon fill="#191970" stroke="#191970" points="788.0617,-30.2415 787.3727,-19.6691 781.3183,-28.3636 788.0617,-30.2415"/>
</g>
<!-- Node27&#45;&gt;Node13 -->
<g id="edge44" class="edge">
<title>Node27&#45;&gt;Node13</title>
<path fill="none" stroke="#191970" d="M748.6922,-179.4554C728.9794,-169.599 703.3812,-156.7999 684.0467,-147.1327"/>
<polygon fill="#191970" stroke="#191970" points="685.3515,-143.872 674.842,-142.5303 682.221,-150.133 685.3515,-143.872"/>
</g>
<!-- Node27&#45;&gt;Node20 -->
<g id="edge43" class="edge">
<title>Node27&#45;&gt;Node20</title>
<path fill="none" stroke="#191970" d="M780.8815,-179.2068C782.2077,-168.9777 783.8424,-155.2059 784.7814,-143 787.8692,-102.8626 789.0699,-55.7583 789.5219,-29.7588"/>
<polygon fill="#191970" stroke="#191970" points="793.0224,-29.7466 789.6771,-19.6938 786.0233,-29.6387 793.0224,-29.7466"/>
</g>
<!-- Node28 -->
<g id="node29" class="node">
<title>Node28</title>
<polygon fill="none" stroke="#bfbfbf" points="836.7814,-123.5 836.7814,-142.5 906.7814,-142.5 906.7814,-123.5 836.7814,-123.5"/>
<text text-anchor="middle" x="871.7814" y="-130.5" font-family="Helvetica,sans-Serif" font-size="10.00" fill="#000000">glm/fwd.hpp</text>
</g>
<!-- Node27&#45;&gt;Node28 -->
<g id="edge42" class="edge">
<title>Node27&#45;&gt;Node28</title>
<path fill="none" stroke="#191970" d="M801.7701,-179.2977C815.978,-169.9022 834.1599,-157.8787 848.4339,-148.4395"/>
<polygon fill="#191970" stroke="#191970" points="850.758,-151.0986 857.1686,-142.6633 846.8969,-145.2598 850.758,-151.0986"/>
</g>
<!-- Node29&#45;&gt;Node13 -->
<g id="edge47" class="edge">
<title>Node29&#45;&gt;Node13</title>
<path fill="none" stroke="#191970" d="M849.0082,-181.3067C805.9683,-170.5467 745.676,-155.4737 703.9362,-145.0387"/>
<polygon fill="#191970" stroke="#191970" points="704.5604,-141.5871 694.01,-142.5572 702.8626,-148.3781 704.5604,-141.5871"/>
</g>
<!-- Node29&#45;&gt;Node20 -->
<g id="edge46" class="edge">
<title>Node29&#45;&gt;Node20</title>
<path fill="none" stroke="#191970" d="M911.1339,-179.1418C926.4975,-151.7174 952.8095,-93.6742 925.7814,-56 913.6814,-39.134 859.7568,-24.7426 823.5534,-16.7453"/>
<polygon fill="#191970" stroke="#191970" points="823.9194,-13.2442 813.4075,-14.5676 822.4503,-20.0883 823.9194,-13.2442"/>
</g>
<!-- Node30&#45;&gt;Node13 -->
<g id="edge50" class="edge">
<title>Node30&#45;&gt;Node13</title>
<path fill="none" stroke="#191970" d="M529.6342,-179.4554C557.3763,-169.239 593.7039,-155.8609 620.2468,-146.0861"/>
<polygon fill="#191970" stroke="#191970" points="621.7279,-149.2705 629.9023,-142.5303 619.3088,-142.7018 621.7279,-149.2705"/>
</g>
<!-- Node30&#45;&gt;Node20 -->
<g id="edge49" class="edge">
<title>Node30&#45;&gt;Node20</title>
<path fill="none" stroke="#191970" d="M504.0738,-179.4755C521.3367,-163.3106 550.925,-137.9212 580.7814,-123 635.176,-95.8155 660.1867,-117.5218 712.7814,-87 738.9589,-71.8086 762.5087,-45.5042 776.4798,-27.9273"/>
<polygon fill="#191970" stroke="#191970" points="779.5389,-29.6919 782.8758,-19.6363 773.9965,-25.4162 779.5389,-29.6919"/>
</g>
<!-- Node31&#45;&gt;Node2 -->
<g id="edge53" class="edge">
<title>Node31&#45;&gt;Node2</title>
<path fill="none" stroke="#191970" d="M137.5939,-123.3906C150.4715,-113.7324 170.5398,-98.6812 185.7534,-87.271"/>
<polygon fill="#191970" stroke="#191970" points="188.1588,-89.8419 194.0588,-81.0419 183.9588,-84.2419 188.1588,-89.8419"/>
</g>
<!-- Node31&#45;&gt;Node22 -->
<g id="edge52" class="edge">
<title>Node31&#45;&gt;Node22</title>
<path fill="none" stroke="#191970" d="M80.2255,-127.6007C54.7289,-121.9724 24.7273,-110.4773 8.7814,-87 -4.8709,-66.8997 14.9271,-42.1303 31.9497,-26.2047"/>
<polygon fill="#191970" stroke="#191970" points="34.2852,-28.8117 39.4455,-19.5584 29.6411,-23.574 34.2852,-28.8117"/>
</g>
<!-- Node32 -->
<g id="node33" class="node">
<title>Node32</title>
<g id="a_node33"><a xlink:href="Components_2Component_8h.html" target="_top" xlink:title="../Components/Component.h">
<polygon fill="none" stroke="#000000" points="18.2814,-62 18.2814,-81 161.2814,-81 161.2814,-62 18.2814,-62"/>
<text text-anchor="middle" x="89.7814" y="-69" font-family="Helvetica,sans-Serif" font-size="10.00" fill="#000000">../Components/Component.h</text>
</a>
</g>
</g>
<!-- Node31&#45;&gt;Node32 -->
<g id="edge54" class="edge">
<title>Node31&#45;&gt;Node32</title>
<path fill="none" stroke="#191970" d="M119.3126,-123.3906C114.2568,-114.5068 106.6042,-101.0601 100.356,-90.0811"/>
<polygon fill="#191970" stroke="#191970" points="103.3153,-88.2048 95.3272,-81.2449 97.2315,-91.6672 103.3153,-88.2048"/>
</g>
<!-- Node32&#45;&gt;Node1 -->
<g id="edge55" class="edge">
<title>Node32&#45;&gt;Node1</title>
<path fill="none" stroke="#191970" d="M103.8439,-61.8906C118.11,-52.1421 140.4164,-36.8994 157.1686,-25.4521"/>
<polygon fill="#191970" stroke="#191970" points="159.5358,-28.0736 165.8176,-19.5419 155.5865,-22.2941 159.5358,-28.0736"/>
</g>
</g>
</svg>
        <g id="navigator" transform="translate(0 0)" fill="#404254">
                <rect fill="#f2f5e9" fill-opacity="0.5" stroke="#606060" stroke-width=".5" x="0" y="0" width="60" height="60"/>
                <use id="zoomplus" xlink:href="#zoomPlus" x="17" y="9" onmousedown="handleZoom(evt,'in')"/>
                <use id="zoomminus" xlink:href="#zoomMin" x="42" y="9" onmousedown="handleZoom(evt,'out')"/>
                <use id="reset" xlink:href="#resetDef" x="30" y="36" onmousedown="handleReset()"/>
                <g id="arrowUp" xlink:href="#dirArrow" transform="translate(30 24)" onmousedown="handlePan(0,-1)">
                  <use xlink:href="#rim" fill="#404040">
                        <set attributeName="fill" to="#808080" begin="arrowUp.mouseover" end="arrowUp.mouseout"/>
                  </use>
                  <path fill="none" stroke="white" stroke-width="1.5" d="M0,-3.0v7 M-2.5,-0.5L0,-3.0L2.5,-0.5"/>
                </g>
                <g id="arrowRight" xlink:href="#dirArrow" transform="rotate(90) translate(36 -43)" onmousedown="handlePan(1,0)">
                  <use xlink:href="#rim" fill="#404040">
                        <set attributeName="fill" to="#808080" begin="arrowRight.mouseover" end="arrowRight.mouseout"/>
                  </use>
                  <path fill="none" stroke="white" stroke-width="1.5" d="M0,-3.0v7 M-2.5,-0.5L0,-3.0L2.5,-0.5"/>
                </g>
                <g id="arrowDown" xlink:href="#dirArrow" transform="rotate(180) translate(-30 -48)" onmousedown="handlePan(0,1)">
                  <use xlink:href="#rim" fill="#404040">
                        <set attributeName="fill" to="#808080" begin="arrowDown.mouseover" end="arrowDown.mouseout"/>
                  </use>
                  <path fill="none" stroke="white" stroke-width="1.5" d="M0,-3.0v7 M-2.5,-0.5L0,-3.0L2.5,-0.5"/>
                </g>
                <g id="arrowLeft" xlink:href="#dirArrow" transform="rotate(270) translate(-36 17)" onmousedown="handlePan(-1,0)">
                  <use xlink:href="#rim" fill="#404040">
                        <set attributeName="fill" to="#808080" begin="arrowLeft.mouseover" end="arrowLeft.mouseout"/>
                  </use>
                  <path fill="none" stroke="white" stroke-width="1.5" d="M0,-3.0v7 M-2.5,-0.5L0,-3.0L2.5,-0.5"/>
                </g>
        </g>
        <svg viewBox="0 0 15 15" width="100%" height="30px" preserveAspectRatio="xMaxYMin meet">
         <g id="arrow_out" transform="scale(0.3 0.3)">
          <a xlink:href="game_8h__incl_org.svg" target="_base">
           <rect id="button" ry="5" rx="5" y="6" x="6" height="38" width="38"
                fill="#f2f5e9" fill-opacity="0.5" stroke="#606060" stroke-width="1.0"/>
           <path id="arrow"
             d="M 11.500037,31.436501 C 11.940474,20.09759 22.043105,11.32322 32.158766,21.979434 L 37.068811,17.246167 C 37.068811,17.246167 37.088388,32 37.088388,32 L 22.160133,31.978069 C 22.160133,31.978069 26.997745,27.140456 26.997745,27.140456 C 18.528582,18.264221 13.291696,25.230495 11.500037,31.436501 z"
             style="fill:#404040;"/>
          </a>
         </g>
        </svg>
</svg>
