<?xml version="1.0" encoding="UTF-8" standalone="no"?>
<!DOCTYPE svg PUBLIC "-//W3C//DTD SVG 1.1//EN"
 "http://www.w3.org/Graphics/SVG/1.1/DTD/svg11.dtd">
<!-- Generated by graphviz version 2.40.1 (20161225.0304)
 -->
<!-- Title: /mnt/hdd/fnky/C0de/CAPSTONE/clean_build/include/Actors/Gun_Actor.h Pages: 1 -->
<svg width="747pt" height="228pt"
 viewBox="0.00 0.00 747.00 228.00" xmlns="http://www.w3.org/2000/svg" xmlns:xlink="http://www.w3.org/1999/xlink">
<g id="graph0" class="graph" transform="scale(1 1) rotate(0) translate(4 224)">
<title>/mnt/hdd/fnky/C0de/CAPSTONE/clean_build/include/Actors/Gun_Actor.h</title>
<!-- Node8 -->
<g id="node1" class="node">
<title>Node8</title>
<polygon fill="#bfbfbf" stroke="#000000" points="435.5,-178.5 435.5,-219.5 575.5,-219.5 575.5,-178.5 435.5,-178.5"/>
<text text-anchor="start" x="443.5" y="-207.5" font-family="Helvetica,sans-Serif" font-size="10.00" fill="#000000">/mnt/hdd/fnky/C0de</text>
<text text-anchor="start" x="443.5" y="-196.5" font-family="Helvetica,sans-Serif" font-size="10.00" fill="#000000">/CAPSTONE/clean_build</text>
<text text-anchor="middle" x="505.5" y="-185.5" font-family="Helvetica,sans-Serif" font-size="10.00" fill="#000000">/include/Actors/Gun_Actor.h</text>
</g>
<!-- Node9 -->
<g id="node2" class="node">
<title>Node9</title>
<g id="a_node2"><a xlink:href="Projectile__Acotr_8h.html" target="_top" xlink:title="/mnt/hdd/fnky/C0de\l/CAPSTONE/clean_build\l/include/Actors/Projectile\l_Acotr.h">
<polygon fill="none" stroke="#000000" points="317,-89.5 317,-141.5 444,-141.5 444,-89.5 317,-89.5"/>
<text text-anchor="start" x="325" y="-129.5" font-family="Helvetica,sans-Serif" font-size="10.00" fill="#000000">/mnt/hdd/fnky/C0de</text>
<text text-anchor="start" x="325" y="-118.5" font-family="Helvetica,sans-Serif" font-size="10.00" fill="#000000">/CAPSTONE/clean_build</text>
<text text-anchor="start" x="325" y="-107.5" font-family="Helvetica,sans-Serif" font-size="10.00" fill="#000000">/include/Actors/Projectile</text>
<text text-anchor="middle" x="380.5" y="-96.5" font-family="Helvetica,sans-Serif" font-size="10.00" fill="#000000">_Acotr.h</text>
</a>
</g>
</g>
<!-- Node8&#45;&gt;Node9 -->
<g id="edge1" class="edge">
<title>Node8&#45;&gt;Node9</title>
<path fill="none" stroke="#191970" d="M466.1207,-172.6946C451.267,-162.7724 434.3851,-151.4953 419.5607,-141.5925"/>
<polygon fill="#191970" stroke="#191970" points="464.3416,-175.7152 474.6011,-178.3595 468.2299,-169.8944 464.3416,-175.7152"/>
</g>
<!-- Node10 -->
<g id="node3" class="node">
<title>Node10</title>
<g id="a_node3"><a xlink:href="Gun__Actor_8cpp.html" target="_top" xlink:title="/mnt/hdd/fnky/C0de\l/CAPSTONE/clean_build\l/src/Actors/Gun_Actor.cpp">
<polygon fill="none" stroke="#000000" points="0,-6 0,-47 133,-47 133,-6 0,-6"/>
<text text-anchor="start" x="8" y="-35" font-family="Helvetica,sans-Serif" font-size="10.00" fill="#000000">/mnt/hdd/fnky/C0de</text>
<text text-anchor="start" x="8" y="-24" font-family="Helvetica,sans-Serif" font-size="10.00" fill="#000000">/CAPSTONE/clean_build</text>
<text text-anchor="middle" x="66.5" y="-13" font-family="Helvetica,sans-Serif" font-size="10.00" fill="#000000">/src/Actors/Gun_Actor.cpp</text>
</a>
</g>
</g>
<!-- Node8&#45;&gt;Node10 -->
<g id="edge8" class="edge">
<title>Node8&#45;&gt;Node10</title>
<path fill="none" stroke="#191970" d="M425.3109,-179.178C388.8937,-169.3474 345.5463,-156.4776 307.5,-142 233.5649,-113.8658 151.2116,-71.9741 104.4494,-47.13"/>
<polygon fill="#191970" stroke="#191970" points="424.824,-182.6705 435.3885,-181.8689 426.6299,-175.9075 424.824,-182.6705"/>
</g>
<!-- Node12 -->
<g id="node5" class="node">
<title>Node12</title>
<g id="a_node5"><a xlink:href="Player__Actor_8cpp.html" target="_top" xlink:title="/mnt/hdd/fnky/C0de\l/CAPSTONE/clean_build\l/src/Actors/Player_Actor.cpp">
<polygon fill="none" stroke="#000000" points="451,-6 451,-47 594,-47 594,-6 451,-6"/>
<text text-anchor="start" x="459" y="-35" font-family="Helvetica,sans-Serif" font-size="10.00" fill="#000000">/mnt/hdd/fnky/C0de</text>
<text text-anchor="start" x="459" y="-24" font-family="Helvetica,sans-Serif" font-size="10.00" fill="#000000">/CAPSTONE/clean_build</text>
<text text-anchor="middle" x="522.5" y="-13" font-family="Helvetica,sans-Serif" font-size="10.00" fill="#000000">/src/Actors/Player_Actor.cpp</text>
</a>
</g>
</g>
<!-- Node8&#45;&gt;Node12 -->
<g id="edge9" class="edge">
<title>Node8&#45;&gt;Node12</title>
<path fill="none" stroke="#191970" d="M508.5487,-168.0646C511.9953,-133.0915 517.5105,-77.1292 520.4686,-47.1128"/>
<polygon fill="#191970" stroke="#191970" points="505.0483,-167.8974 507.5506,-178.1925 512.0146,-168.584 505.0483,-167.8974"/>
</g>
<!-- Node14 -->
<g id="node7" class="node">
<title>Node14</title>
<g id="a_node7"><a xlink:href="game__play__state_8cpp.html" target="_top" xlink:title="/mnt/hdd/fnky/C0de\l/CAPSTONE/clean_build\l/src/States/game_play\l_state.cpp">
<polygon fill="none" stroke="#000000" points="612,-.5 612,-52.5 739,-52.5 739,-.5 612,-.5"/>
<text text-anchor="start" x="620" y="-40.5" font-family="Helvetica,sans-Serif" font-size="10.00" fill="#000000">/mnt/hdd/fnky/C0de</text>
<text text-anchor="start" x="620" y="-29.5" font-family="Helvetica,sans-Serif" font-size="10.00" fill="#000000">/CAPSTONE/clean_build</text>
<text text-anchor="start" x="620" y="-18.5" font-family="Helvetica,sans-Serif" font-size="10.00" fill="#000000">/src/States/game_play</text>
<text text-anchor="middle" x="675.5" y="-7.5" font-family="Helvetica,sans-Serif" font-size="10.00" fill="#000000">_state.cpp</text>
</a>
</g>
</g>
<!-- Node8&#45;&gt;Node14 -->
<g id="edge10" class="edge">
<title>Node8&#45;&gt;Node14</title>
<path fill="none" stroke="#191970" d="M518.6577,-168.988C531.4196,-140.8322 550.5569,-101.2716 562.5,-89 576.807,-74.2995 595.3225,-62.1232 613.2104,-52.5446"/>
<polygon fill="#191970" stroke="#191970" points="515.3316,-167.8515 514.4318,-178.4081 521.7183,-170.7167 515.3316,-167.8515"/>
</g>
<!-- Node15 -->
<g id="node8" class="node">
<title>Node15</title>
<g id="a_node8"><a xlink:href="Animated__Player__Actor_8cpp.html" target="_top" xlink:title="/mnt/hdd/fnky/C0de\l/CAPSTONE/clean_build\l/src/Actors/Animated_Player\l_Actor.cpp">
<polygon fill="none" stroke="#000000" points="571.5,-89.5 571.5,-141.5 713.5,-141.5 713.5,-89.5 571.5,-89.5"/>
<text text-anchor="start" x="579.5" y="-129.5" font-family="Helvetica,sans-Serif" font-size="10.00" fill="#000000">/mnt/hdd/fnky/C0de</text>
<text text-anchor="start" x="579.5" y="-118.5" font-family="Helvetica,sans-Serif" font-size="10.00" fill="#000000">/CAPSTONE/clean_build</text>
<text text-anchor="start" x="579.5" y="-107.5" font-family="Helvetica,sans-Serif" font-size="10.00" fill="#000000">/src/Actors/Animated_Player</text>
<text text-anchor="middle" x="642.5" y="-96.5" font-family="Helvetica,sans-Serif" font-size="10.00" fill="#000000">_Actor.cpp</text>
</a>
</g>
</g>
<!-- Node8&#45;&gt;Node15 -->
<g id="edge7" class="edge">
<title>Node8&#45;&gt;Node15</title>
<path fill="none" stroke="#191970" d="M548.2038,-172.9725C564.5933,-162.9833 583.29,-151.5878 599.6895,-141.5925"/>
<polygon fill="#191970" stroke="#191970" points="546.0826,-170.1664 539.3652,-178.3595 549.7257,-176.1437 546.0826,-170.1664"/>
</g>
<!-- Node9&#45;&gt;Node10 -->
<g id="edge2" class="edge">
<title>Node9&#45;&gt;Node10</title>
<path fill="none" stroke="#191970" d="M307.0472,-97.9851C259.5414,-86.2416 196.526,-69.8836 141.5,-53 135.559,-51.1771 129.3892,-49.1763 123.2546,-47.1164"/>
<polygon fill="#191970" stroke="#191970" points="306.3939,-101.4287 316.9405,-100.4196 308.0665,-94.6315 306.3939,-101.4287"/>
</g>
<!-- Node11 -->
<g id="node4" class="node">
<title>Node11</title>
<g id="a_node4"><a xlink:href="NPC__Actor_8cpp.html" target="_top" xlink:title="/mnt/hdd/fnky/C0de\l/CAPSTONE/clean_build\l/src/Actors/NPC_Actor.cpp">
<polygon fill="none" stroke="#000000" points="296,-6 296,-47 433,-47 433,-6 296,-6"/>
<text text-anchor="start" x="304" y="-35" font-family="Helvetica,sans-Serif" font-size="10.00" fill="#000000">/mnt/hdd/fnky/C0de</text>
<text text-anchor="start" x="304" y="-24" font-family="Helvetica,sans-Serif" font-size="10.00" fill="#000000">/CAPSTONE/clean_build</text>
<text text-anchor="middle" x="364.5" y="-13" font-family="Helvetica,sans-Serif" font-size="10.00" fill="#000000">/src/Actors/NPC_Actor.cpp</text>
</a>
</g>
</g>
<!-- Node9&#45;&gt;Node11 -->
<g id="edge3" class="edge">
<title>Node9&#45;&gt;Node11</title>
<path fill="none" stroke="#191970" d="M373.9622,-79.1335C372.0046,-68.2443 369.9261,-56.6825 368.2172,-47.1771"/>
<polygon fill="#191970" stroke="#191970" points="370.5718,-80.0555 375.786,-89.2784 377.4613,-78.8169 370.5718,-80.0555"/>
</g>
<!-- Node9&#45;&gt;Node12 -->
<g id="edge4" class="edge">
<title>Node9&#45;&gt;Node12</title>
<path fill="none" stroke="#191970" d="M430.8181,-83.9626C450.3083,-71.7469 472.0765,-58.1034 489.5096,-47.1771"/>
<polygon fill="#191970" stroke="#191970" points="428.9512,-81.002 422.3367,-89.2784 432.6687,-86.9333 428.9512,-81.002"/>
</g>
<!-- Node13 -->
<g id="node6" class="node">
<title>Node13</title>
<g id="a_node6"><a xlink:href="Projectile__Actor_8cpp.html" target="_top" xlink:title="/mnt/hdd/fnky/C0de\l/CAPSTONE/clean_build\l/src/Actors/Projectile\l_Actor.cpp">
<polygon fill="none" stroke="#000000" points="151,-.5 151,-52.5 278,-52.5 278,-.5 151,-.5"/>
<text text-anchor="start" x="159" y="-40.5" font-family="Helvetica,sans-Serif" font-size="10.00" fill="#000000">/mnt/hdd/fnky/C0de</text>
<text text-anchor="start" x="159" y="-29.5" font-family="Helvetica,sans-Serif" font-size="10.00" fill="#000000">/CAPSTONE/clean_build</text>
<text text-anchor="start" x="159" y="-18.5" font-family="Helvetica,sans-Serif" font-size="10.00" fill="#000000">/src/Actors/Projectile</text>
<text text-anchor="middle" x="214.5" y="-7.5" font-family="Helvetica,sans-Serif" font-size="10.00" fill="#000000">_Actor.cpp</text>
</a>
</g>
</g>
<!-- Node9&#45;&gt;Node13 -->
<g id="edge5" class="edge">
<title>Node9&#45;&gt;Node13</title>
<path fill="none" stroke="#191970" d="M322.5371,-84.4235C303.1182,-74.0122 281.6819,-62.5192 263.0581,-52.5341"/>
<polygon fill="#191970" stroke="#191970" points="321.1253,-87.6379 331.5924,-89.2784 324.433,-81.4686 321.1253,-87.6379"/>
</g>
<!-- Node9&#45;&gt;Node14 -->
<g id="edge6" class="edge">
<title>Node9&#45;&gt;Node14</title>
<path fill="none" stroke="#191970" d="M454.0287,-96.468C497.7157,-84.7695 554.0656,-68.9969 603.5,-53 606.288,-52.0978 609.1286,-51.155 611.9921,-50.1851"/>
<polygon fill="#191970" stroke="#191970" points="453.103,-93.0925 444.3423,-99.0507 454.9065,-99.8562 453.103,-93.0925"/>
</g>
</g>
</svg>
