<?xml version="1.0" encoding="UTF-8" standalone="no"?>
<!DOCTYPE svg PUBLIC "-//W3C//DTD SVG 1.1//EN"
 "http://www.w3.org/Graphics/SVG/1.1/DTD/svg11.dtd">
<!-- Generated by graphviz version 2.40.1 (20161225.0304)
 -->
<!-- Title: /mnt/hdd/fnky/C0de/CAPSTONE/clean_build/include/IMGUI/imgui.h Pages: 1 -->
<svg width="410pt" height="106pt"
 viewBox="0.00 0.00 410.00 106.00" xmlns="http://www.w3.org/2000/svg" xmlns:xlink="http://www.w3.org/1999/xlink">
<g id="graph0" class="graph" transform="scale(1 1) rotate(0) translate(4 102)">
<title>/mnt/hdd/fnky/C0de/CAPSTONE/clean_build/include/IMGUI/imgui.h</title>
<!-- Node0 -->
<g id="node1" class="node">
<title>Node0</title>
<polygon fill="#bfbfbf" stroke="#000000" points="139.5,-56.5 139.5,-97.5 266.5,-97.5 266.5,-56.5 139.5,-56.5"/>
<text text-anchor="start" x="147.5" y="-85.5" font-family="Helvetica,sans-Serif" font-size="10.00" fill="#000000">/mnt/hdd/fnky/C0de</text>
<text text-anchor="start" x="147.5" y="-74.5" font-family="Helvetica,sans-Serif" font-size="10.00" fill="#000000">/CAPSTONE/clean_build</text>
<text text-anchor="middle" x="203" y="-63.5" font-family="Helvetica,sans-Serif" font-size="10.00" fill="#000000">/include/IMGUI/imgui.h</text>
</g>
<!-- Node1 -->
<g id="node2" class="node">
<title>Node1</title>
<g id="a_node2"><a xlink:href="imconfig_8h.html" target="_top" xlink:title="imconfig.h">
<polygon fill="none" stroke="#000000" points="0,-.5 0,-19.5 62,-19.5 62,-.5 0,-.5"/>
<text text-anchor="middle" x="31" y="-7.5" font-family="Helvetica,sans-Serif" font-size="10.00" fill="#000000">imconfig.h</text>
</a>
</g>
</g>
<!-- Node0&#45;&gt;Node1 -->
<g id="edge1" class="edge">
<title>Node0&#45;&gt;Node1</title>
<path fill="none" stroke="#191970" d="M149.9909,-56.3511C122.4032,-45.6047 89.4769,-32.7788 65.2613,-23.346"/>
<polygon fill="#191970" stroke="#191970" points="66.3735,-20.0231 55.785,-19.6546 63.8326,-26.5457 66.3735,-20.0231"/>
</g>
<!-- Node2 -->
<g id="node3" class="node">
<title>Node2</title>
<polygon fill="none" stroke="#bfbfbf" points="80,-.5 80,-19.5 124,-19.5 124,-.5 80,-.5"/>
<text text-anchor="middle" x="102" y="-7.5" font-family="Helvetica,sans-Serif" font-size="10.00" fill="#000000">float.h</text>
</g>
<!-- Node0&#45;&gt;Node2 -->
<g id="edge2" class="edge">
<title>Node0&#45;&gt;Node2</title>
<path fill="none" stroke="#191970" d="M171.8725,-56.3511C156.7528,-46.3212 138.9022,-34.4797 125.0283,-25.2762"/>
<polygon fill="#191970" stroke="#191970" points="126.822,-22.266 116.554,-19.6546 122.9524,-28.0992 126.822,-22.266"/>
</g>
<!-- Node3 -->
<g id="node4" class="node">
<title>Node3</title>
<polygon fill="none" stroke="#bfbfbf" points="142,-.5 142,-19.5 194,-19.5 194,-.5 142,-.5"/>
<text text-anchor="middle" x="168" y="-7.5" font-family="Helvetica,sans-Serif" font-size="10.00" fill="#000000">stdarg.h</text>
</g>
<!-- Node0&#45;&gt;Node3 -->
<g id="edge3" class="edge">
<title>Node0&#45;&gt;Node3</title>
<path fill="none" stroke="#191970" d="M192.1176,-56.168C187.5599,-47.4433 182.2999,-37.374 177.8575,-28.87"/>
<polygon fill="#191970" stroke="#191970" points="180.8417,-27.0234 173.1092,-19.7805 174.6372,-30.2646 180.8417,-27.0234"/>
</g>
<!-- Node4 -->
<g id="node5" class="node">
<title>Node4</title>
<polygon fill="none" stroke="#bfbfbf" points="212,-.5 212,-19.5 264,-19.5 264,-.5 212,-.5"/>
<text text-anchor="middle" x="238" y="-7.5" font-family="Helvetica,sans-Serif" font-size="10.00" fill="#000000">stddef.h</text>
</g>
<!-- Node0&#45;&gt;Node4 -->
<g id="edge4" class="edge">
<title>Node0&#45;&gt;Node4</title>
<path fill="none" stroke="#191970" d="M213.8824,-56.168C218.4401,-47.4433 223.7001,-37.374 228.1425,-28.87"/>
<polygon fill="#191970" stroke="#191970" points="231.3628,-30.2646 232.8908,-19.7805 225.1583,-27.0234 231.3628,-30.2646"/>
</g>
<!-- Node5 -->
<g id="node6" class="node">
<title>Node5</title>
<polygon fill="none" stroke="#bfbfbf" points="282.5,-.5 282.5,-19.5 331.5,-19.5 331.5,-.5 282.5,-.5"/>
<text text-anchor="middle" x="307" y="-7.5" font-family="Helvetica,sans-Serif" font-size="10.00" fill="#000000">string.h</text>
</g>
<!-- Node0&#45;&gt;Node5 -->
<g id="edge5" class="edge">
<title>Node0&#45;&gt;Node5</title>
<path fill="none" stroke="#191970" d="M235.052,-56.3511C250.6209,-46.3212 269.0017,-34.4797 283.2877,-25.2762"/>
<polygon fill="#191970" stroke="#191970" points="285.5027,-28.0127 292.0137,-19.6546 281.7116,-22.1281 285.5027,-28.0127"/>
</g>
<!-- Node6 -->
<g id="node7" class="node">
<title>Node6</title>
<polygon fill="none" stroke="#bfbfbf" points="350,-.5 350,-19.5 402,-19.5 402,-.5 350,-.5"/>
<text text-anchor="middle" x="376" y="-7.5" font-family="Helvetica,sans-Serif" font-size="10.00" fill="#000000">assert.h</text>
</g>
<!-- Node0&#45;&gt;Node6 -->
<g id="edge6" class="edge">
<title>Node0&#45;&gt;Node6</title>
<path fill="none" stroke="#191970" d="M256.3173,-56.3511C284.0654,-45.6047 317.1831,-32.7788 341.5395,-23.346"/>
<polygon fill="#191970" stroke="#191970" points="343.0098,-26.5299 351.0709,-19.6546 340.4817,-20.0024 343.0098,-26.5299"/>
</g>
</g>
</svg>
