<?xml version="1.0" encoding="UTF-8" standalone="no"?>
<!DOCTYPE svg PUBLIC "-//W3C//DTD SVG 1.1//EN"
 "http://www.w3.org/Graphics/SVG/1.1/DTD/svg11.dtd">
<!-- Generated by graphviz version 2.40.1 (20161225.0304)
 -->
<!-- Title: /mnt/hdd/fnky/C0de/CAPSTONE/clean_build/src/IMGUI/imgui_draw.cpp Pages: 1 -->
<svg width="732pt" height="240pt"
 viewBox="0.00 0.00 732.00 240.00" xmlns="http://www.w3.org/2000/svg" xmlns:xlink="http://www.w3.org/1999/xlink">
<g id="graph0" class="graph" transform="scale(1 1) rotate(0) translate(4 236)">
<title>/mnt/hdd/fnky/C0de/CAPSTONE/clean_build/src/IMGUI/imgui_draw.cpp</title>
<!-- Node0 -->
<g id="node1" class="node">
<title>Node0</title>
<polygon fill="#bfbfbf" stroke="#000000" points="413.5,-190.5 413.5,-231.5 550.5,-231.5 550.5,-190.5 413.5,-190.5"/>
<text text-anchor="start" x="421.5" y="-219.5" font-family="Helvetica,sans-Serif" font-size="10.00" fill="#000000">/mnt/hdd/fnky/C0de</text>
<text text-anchor="start" x="421.5" y="-208.5" font-family="Helvetica,sans-Serif" font-size="10.00" fill="#000000">/CAPSTONE/clean_build</text>
<text text-anchor="middle" x="482" y="-197.5" font-family="Helvetica,sans-Serif" font-size="10.00" fill="#000000">/src/IMGUI/imgui_draw.cpp</text>
</g>
<!-- Node1 -->
<g id="node2" class="node">
<title>Node1</title>
<g id="a_node2"><a xlink:href="imgui_8h.html" target="_top" xlink:title="../../include/IMGUI\l/imgui.h">
<polygon fill="none" stroke="#000000" points="117,-56.5 117,-86.5 215,-86.5 215,-56.5 117,-56.5"/>
<text text-anchor="start" x="125" y="-74.5" font-family="Helvetica,sans-Serif" font-size="10.00" fill="#000000">../../include/IMGUI</text>
<text text-anchor="middle" x="166" y="-63.5" font-family="Helvetica,sans-Serif" font-size="10.00" fill="#000000">/imgui.h</text>
</a>
</g>
</g>
<!-- Node0&#45;&gt;Node1 -->
<g id="edge1" class="edge">
<title>Node0&#45;&gt;Node1</title>
<path fill="none" stroke="#191970" d="M432.485,-190.486C406.8891,-179.7826 375.188,-166.3719 347,-154 298.9585,-132.9142 244.1921,-107.7999 207.6021,-90.8647"/>
<polygon fill="#191970" stroke="#191970" points="208.7908,-87.5581 198.2461,-86.5293 205.8477,-93.9093 208.7908,-87.5581"/>
</g>
<!-- Node8 -->
<g id="node9" class="node">
<title>Node8</title>
<g id="a_node9"><a xlink:href="imgui__internal_8h.html" target="_top" xlink:title="../../include/IMGUI\l/imgui_internal.h">
<polygon fill="none" stroke="#000000" points="356,-123.5 356,-153.5 454,-153.5 454,-123.5 356,-123.5"/>
<text text-anchor="start" x="364" y="-141.5" font-family="Helvetica,sans-Serif" font-size="10.00" fill="#000000">../../include/IMGUI</text>
<text text-anchor="middle" x="405" y="-130.5" font-family="Helvetica,sans-Serif" font-size="10.00" fill="#000000">/imgui_internal.h</text>
</a>
</g>
</g>
<!-- Node0&#45;&gt;Node8 -->
<g id="edge8" class="edge">
<title>Node0&#45;&gt;Node8</title>
<path fill="none" stroke="#191970" d="M460.1409,-190.4183C450.2203,-181.0775 438.4743,-170.018 428.3779,-160.5117"/>
<polygon fill="#191970" stroke="#191970" points="430.7162,-157.906 421.0363,-153.5991 425.9176,-163.0025 430.7162,-157.906"/>
</g>
<!-- Node9 -->
<g id="node10" class="node">
<title>Node9</title>
<polygon fill="none" stroke="#bfbfbf" points="469,-62 469,-81 515,-81 515,-62 469,-62"/>
<text text-anchor="middle" x="492" y="-69" font-family="Helvetica,sans-Serif" font-size="10.00" fill="#000000">stdio.h</text>
</g>
<!-- Node0&#45;&gt;Node9 -->
<g id="edge16" class="edge">
<title>Node0&#45;&gt;Node9</title>
<path fill="none" stroke="#191970" d="M483.4755,-190.4163C485.3875,-163.7443 488.6985,-117.5566 490.5819,-91.2824"/>
<polygon fill="#191970" stroke="#191970" points="494.0911,-91.2788 491.3151,-81.0541 487.109,-90.7782 494.0911,-91.2788"/>
</g>
<!-- Node14 -->
<g id="node15" class="node">
<title>Node14</title>
<g id="a_node15"><a xlink:href="imstb__rectpack_8h.html" target="_top" xlink:title="../../include/IMGUI\l/imstb_rectpack.h">
<polygon fill="none" stroke="#000000" points="626,-123.5 626,-153.5 724,-153.5 724,-123.5 626,-123.5"/>
<text text-anchor="start" x="634" y="-141.5" font-family="Helvetica,sans-Serif" font-size="10.00" fill="#000000">../../include/IMGUI</text>
<text text-anchor="middle" x="675" y="-130.5" font-family="Helvetica,sans-Serif" font-size="10.00" fill="#000000">/imstb_rectpack.h</text>
</a>
</g>
</g>
<!-- Node0&#45;&gt;Node14 -->
<g id="edge17" class="edge">
<title>Node0&#45;&gt;Node14</title>
<path fill="none" stroke="#191970" d="M536.7898,-190.4183C564.5811,-179.9786 598.0877,-167.3919 625.1492,-157.2263"/>
<polygon fill="#191970" stroke="#191970" points="626.6746,-160.3922 634.8051,-153.5991 624.213,-153.8393 626.6746,-160.3922"/>
</g>
<!-- Node15 -->
<g id="node16" class="node">
<title>Node15</title>
<g id="a_node16"><a xlink:href="imstb__truetype_8h.html" target="_top" xlink:title="../../include/IMGUI\l/imstb_truetype.h">
<polygon fill="none" stroke="#000000" points="510,-123.5 510,-153.5 608,-153.5 608,-123.5 510,-123.5"/>
<text text-anchor="start" x="518" y="-141.5" font-family="Helvetica,sans-Serif" font-size="10.00" fill="#000000">../../include/IMGUI</text>
<text text-anchor="middle" x="559" y="-130.5" font-family="Helvetica,sans-Serif" font-size="10.00" fill="#000000">/imstb_truetype.h</text>
</a>
</g>
</g>
<!-- Node0&#45;&gt;Node15 -->
<g id="edge18" class="edge">
<title>Node0&#45;&gt;Node15</title>
<path fill="none" stroke="#191970" d="M503.8591,-190.4183C513.7797,-181.0775 525.5257,-170.018 535.6221,-160.5117"/>
<polygon fill="#191970" stroke="#191970" points="538.0824,-163.0025 542.9637,-153.5991 533.2838,-157.906 538.0824,-163.0025"/>
</g>
<!-- Node2 -->
<g id="node3" class="node">
<title>Node2</title>
<g id="a_node3"><a xlink:href="imconfig_8h.html" target="_top" xlink:title="imconfig.h">
<polygon fill="none" stroke="#000000" points="210,-.5 210,-19.5 272,-19.5 272,-.5 210,-.5"/>
<text text-anchor="middle" x="241" y="-7.5" font-family="Helvetica,sans-Serif" font-size="10.00" fill="#000000">imconfig.h</text>
</a>
</g>
</g>
<!-- Node1&#45;&gt;Node2 -->
<g id="edge2" class="edge">
<title>Node1&#45;&gt;Node2</title>
<path fill="none" stroke="#191970" d="M184.5393,-56.2977C195.6008,-47.2274 209.6491,-35.7077 220.9653,-26.4285"/>
<polygon fill="#191970" stroke="#191970" points="223.4781,-28.8942 228.9916,-19.8469 219.0396,-23.4813 223.4781,-28.8942"/>
</g>
<!-- Node3 -->
<g id="node4" class="node">
<title>Node3</title>
<polygon fill="none" stroke="#bfbfbf" points="290,-.5 290,-19.5 334,-19.5 334,-.5 290,-.5"/>
<text text-anchor="middle" x="312" y="-7.5" font-family="Helvetica,sans-Serif" font-size="10.00" fill="#000000">float.h</text>
</g>
<!-- Node1&#45;&gt;Node3 -->
<g id="edge3" class="edge">
<title>Node1&#45;&gt;Node3</title>
<path fill="none" stroke="#191970" d="M201.7156,-56.4554C225.7965,-46.3118 257.2765,-33.0513 280.4366,-23.2955"/>
<polygon fill="#191970" stroke="#191970" points="281.9501,-26.4559 289.8071,-19.3484 279.2327,-20.0049 281.9501,-26.4559"/>
</g>
<!-- Node4 -->
<g id="node5" class="node">
<title>Node4</title>
<polygon fill="none" stroke="#bfbfbf" points="0,-.5 0,-19.5 52,-19.5 52,-.5 0,-.5"/>
<text text-anchor="middle" x="26" y="-7.5" font-family="Helvetica,sans-Serif" font-size="10.00" fill="#000000">stdarg.h</text>
</g>
<!-- Node1&#45;&gt;Node4 -->
<g id="edge4" class="edge">
<title>Node1&#45;&gt;Node4</title>
<path fill="none" stroke="#191970" d="M131.7521,-56.4554C108.9051,-46.419 79.1121,-33.3314 56.9733,-23.6061"/>
<polygon fill="#191970" stroke="#191970" points="58.2583,-20.3478 47.695,-19.5303 55.4429,-26.7567 58.2583,-20.3478"/>
</g>
<!-- Node5 -->
<g id="node6" class="node">
<title>Node5</title>
<polygon fill="none" stroke="#bfbfbf" points="70,-.5 70,-19.5 122,-19.5 122,-.5 70,-.5"/>
<text text-anchor="middle" x="96" y="-7.5" font-family="Helvetica,sans-Serif" font-size="10.00" fill="#000000">stddef.h</text>
</g>
<!-- Node1&#45;&gt;Node5 -->
<g id="edge5" class="edge">
<title>Node1&#45;&gt;Node5</title>
<path fill="none" stroke="#191970" d="M148.6966,-56.2977C138.4738,-47.3163 125.5177,-35.9334 115.0104,-26.702"/>
<polygon fill="#191970" stroke="#191970" points="117.0305,-23.8178 107.2079,-19.8469 112.4103,-29.0766 117.0305,-23.8178"/>
</g>
<!-- Node6 -->
<g id="node7" class="node">
<title>Node6</title>
<polygon fill="none" stroke="#bfbfbf" points="383.5,-.5 383.5,-19.5 432.5,-19.5 432.5,-.5 383.5,-.5"/>
<text text-anchor="middle" x="408" y="-7.5" font-family="Helvetica,sans-Serif" font-size="10.00" fill="#000000">string.h</text>
</g>
<!-- Node1&#45;&gt;Node6 -->
<g id="edge6" class="edge">
<title>Node1&#45;&gt;Node6</title>
<path fill="none" stroke="#191970" d="M215.033,-58.3367C218.066,-57.541 221.0737,-56.7568 224,-56 276.0136,-42.5491 336.4683,-27.5584 373.476,-18.4545"/>
<polygon fill="#191970" stroke="#191970" points="374.3898,-21.8341 383.2658,-16.049 372.7195,-15.0363 374.3898,-21.8341"/>
</g>
<!-- Node7 -->
<g id="node8" class="node">
<title>Node7</title>
<polygon fill="none" stroke="#bfbfbf" points="140,-.5 140,-19.5 192,-19.5 192,-.5 140,-.5"/>
<text text-anchor="middle" x="166" y="-7.5" font-family="Helvetica,sans-Serif" font-size="10.00" fill="#000000">assert.h</text>
</g>
<!-- Node1&#45;&gt;Node7 -->
<g id="edge7" class="edge">
<title>Node1&#45;&gt;Node7</title>
<path fill="none" stroke="#191970" d="M166,-56.2977C166,-48.3834 166,-38.6043 166,-30.0759"/>
<polygon fill="#191970" stroke="#191970" points="169.5001,-29.8469 166,-19.8469 162.5001,-29.847 169.5001,-29.8469"/>
</g>
<!-- Node8&#45;&gt;Node1 -->
<g id="edge9" class="edge">
<title>Node8&#45;&gt;Node1</title>
<path fill="none" stroke="#191970" d="M355.7688,-124.6988C317.7706,-114.0466 265.071,-99.2731 224.8472,-87.9969"/>
<polygon fill="#191970" stroke="#191970" points="225.7409,-84.6126 215.1673,-85.2833 223.8513,-91.3527 225.7409,-84.6126"/>
</g>
<!-- Node8&#45;&gt;Node9 -->
<g id="edge10" class="edge">
<title>Node8&#45;&gt;Node9</title>
<path fill="none" stroke="#191970" d="M424.7416,-123.2967C438.6915,-112.5537 457.3435,-98.1895 471.4668,-87.3129"/>
<polygon fill="#191970" stroke="#191970" points="473.8055,-89.9295 479.5928,-81.055 469.5344,-84.3835 473.8055,-89.9295"/>
</g>
<!-- Node10 -->
<g id="node11" class="node">
<title>Node10</title>
<polygon fill="none" stroke="#bfbfbf" points="299,-62 299,-81 347,-81 347,-62 299,-62"/>
<text text-anchor="middle" x="323" y="-69" font-family="Helvetica,sans-Serif" font-size="10.00" fill="#000000">stdlib.h</text>
</g>
<!-- Node8&#45;&gt;Node10 -->
<g id="edge11" class="edge">
<title>Node8&#45;&gt;Node10</title>
<path fill="none" stroke="#191970" d="M386.3929,-123.2967C373.3689,-112.6551 355.9961,-98.4602 342.731,-87.6217"/>
<polygon fill="#191970" stroke="#191970" points="344.6525,-84.6719 334.6941,-81.055 340.2234,-90.0926 344.6525,-84.6719"/>
</g>
<!-- Node11 -->
<g id="node12" class="node">
<title>Node11</title>
<polygon fill="none" stroke="#bfbfbf" points="533.5,-62 533.5,-81 580.5,-81 580.5,-62 533.5,-62"/>
<text text-anchor="middle" x="557" y="-69" font-family="Helvetica,sans-Serif" font-size="10.00" fill="#000000">math.h</text>
</g>
<!-- Node8&#45;&gt;Node11 -->
<g id="edge12" class="edge">
<title>Node8&#45;&gt;Node11</title>
<path fill="none" stroke="#191970" d="M440.5331,-123.4595C464.2518,-113.3371 496.0926,-99.5892 524,-87 525.1684,-86.4729 526.3584,-85.9323 527.5593,-85.3835"/>
<polygon fill="#191970" stroke="#191970" points="529.1953,-88.483 536.801,-81.1071 526.2556,-82.1302 529.1953,-88.483"/>
</g>
<!-- Node12 -->
<g id="node13" class="node">
<title>Node12</title>
<polygon fill="none" stroke="#bfbfbf" points="233,-62 233,-81 281,-81 281,-62 233,-62"/>
<text text-anchor="middle" x="257" y="-69" font-family="Helvetica,sans-Serif" font-size="10.00" fill="#000000">limits.h</text>
</g>
<!-- Node8&#45;&gt;Node12 -->
<g id="edge13" class="edge">
<title>Node8&#45;&gt;Node12</title>
<path fill="none" stroke="#191970" d="M370.9613,-123.4498C348.034,-113.2651 317.1412,-99.4501 290,-87 288.835,-86.4656 287.6478,-85.9187 286.4492,-85.3647"/>
<polygon fill="#191970" stroke="#191970" points="287.7604,-82.1145 277.2175,-81.0666 284.8057,-88.4604 287.7604,-82.1145"/>
</g>
<!-- Node13 -->
<g id="node14" class="node">
<title>Node13</title>
<g id="a_node14"><a xlink:href="imstb__textedit_8h.html" target="_top" xlink:title="imstb_textedit.h">
<polygon fill="none" stroke="#000000" points="365,-62 365,-81 451,-81 451,-62 365,-62"/>
<text text-anchor="middle" x="408" y="-69" font-family="Helvetica,sans-Serif" font-size="10.00" fill="#000000">imstb_textedit.h</text>
</a>
</g>
</g>
<!-- Node8&#45;&gt;Node13 -->
<g id="edge14" class="edge">
<title>Node8&#45;&gt;Node13</title>
<path fill="none" stroke="#191970" d="M405.6807,-123.2967C406.1073,-113.7699 406.6614,-101.3954 407.121,-91.1306"/>
<polygon fill="#191970" stroke="#191970" points="410.6213,-91.2016 407.5722,-81.055 403.6283,-90.8884 410.6213,-91.2016"/>
</g>
<!-- Node13&#45;&gt;Node6 -->
<g id="edge15" class="edge">
<title>Node13&#45;&gt;Node6</title>
<path fill="none" stroke="#191970" d="M408,-61.8906C408,-53.3657 408,-40.6392 408,-29.9235"/>
<polygon fill="#191970" stroke="#191970" points="411.5001,-29.7448 408,-19.7449 404.5001,-29.7449 411.5001,-29.7448"/>
</g>
<!-- Node15&#45;&gt;Node6 -->
<g id="edge20" class="edge">
<title>Node15&#45;&gt;Node6</title>
<path fill="none" stroke="#191970" d="M572.812,-123.4605C587.2883,-105.8211 605.8871,-76.4021 590,-56 572.1289,-33.0501 490.695,-19.7403 443.0271,-13.785"/>
<polygon fill="#191970" stroke="#191970" points="443.1797,-10.2782 432.8333,-12.559 442.3437,-17.2281 443.1797,-10.2782"/>
</g>
<!-- Node15&#45;&gt;Node11 -->
<g id="edge19" class="edge">
<title>Node15&#45;&gt;Node11</title>
<path fill="none" stroke="#191970" d="M558.5462,-123.2967C558.2618,-113.7699 557.8924,-101.3954 557.586,-91.1306"/>
<polygon fill="#191970" stroke="#191970" points="561.0821,-90.9461 557.2852,-81.055 554.0853,-91.155 561.0821,-90.9461"/>
</g>
</g>
</svg>
