<?xml version="1.0" encoding="UTF-8" standalone="no"?>
<!DOCTYPE svg PUBLIC "-//W3C//DTD SVG 1.1//EN"
 "http://www.w3.org/Graphics/SVG/1.1/DTD/svg11.dtd">
<!-- Generated by graphviz version 2.40.1 (20161225.0304)
 -->
<!-- Title: /mnt/hdd/fnky/C0de/CAPSTONE/clean_build/include/IMGUI/imgui_internal.h Pages: 1 -->
<svg width="566pt" height="162pt"
 viewBox="0.00 0.00 566.00 162.00" xmlns="http://www.w3.org/2000/svg" xmlns:xlink="http://www.w3.org/1999/xlink">
<g id="graph0" class="graph" transform="scale(1 1) rotate(0) translate(4 158)">
<title>/mnt/hdd/fnky/C0de/CAPSTONE/clean_build/include/IMGUI/imgui_internal.h</title>
<!-- Node0 -->
<g id="node1" class="node">
<title>Node0</title>
<polygon fill="#bfbfbf" stroke="#000000" points="254,-112.5 254,-153.5 408,-153.5 408,-112.5 254,-112.5"/>
<text text-anchor="start" x="262" y="-141.5" font-family="Helvetica,sans-Serif" font-size="10.00" fill="#000000">/mnt/hdd/fnky/C0de</text>
<text text-anchor="start" x="262" y="-130.5" font-family="Helvetica,sans-Serif" font-size="10.00" fill="#000000">/CAPSTONE/clean_build</text>
<text text-anchor="middle" x="331" y="-119.5" font-family="Helvetica,sans-Serif" font-size="10.00" fill="#000000">/include/IMGUI/imgui_internal.h</text>
</g>
<!-- Node1 -->
<g id="node2" class="node">
<title>Node1</title>
<g id="a_node2"><a xlink:href="imgui_8h.html" target="_top" xlink:title="imgui.h">
<polygon fill="none" stroke="#000000" points="144,-56.5 144,-75.5 192,-75.5 192,-56.5 144,-56.5"/>
<text text-anchor="middle" x="168" y="-63.5" font-family="Helvetica,sans-Serif" font-size="10.00" fill="#000000">imgui.h</text>
</a>
</g>
</g>
<!-- Node0&#45;&gt;Node1 -->
<g id="edge1" class="edge">
<title>Node0&#45;&gt;Node1</title>
<path fill="none" stroke="#191970" d="M280.7646,-112.3511C254.7367,-101.6525 223.6943,-88.8928 200.7751,-79.472"/>
<polygon fill="#191970" stroke="#191970" points="202.0679,-76.2193 191.4881,-75.6546 199.4066,-82.6937 202.0679,-76.2193"/>
</g>
<!-- Node8 -->
<g id="node9" class="node">
<title>Node8</title>
<polygon fill="none" stroke="#bfbfbf" points="210,-56.5 210,-75.5 256,-75.5 256,-56.5 210,-56.5"/>
<text text-anchor="middle" x="233" y="-63.5" font-family="Helvetica,sans-Serif" font-size="10.00" fill="#000000">stdio.h</text>
</g>
<!-- Node0&#45;&gt;Node8 -->
<g id="edge8" class="edge">
<title>Node0&#45;&gt;Node8</title>
<path fill="none" stroke="#191970" d="M300.7971,-112.3511C286.2662,-102.4167 269.1358,-90.7051 255.7299,-81.5398"/>
<polygon fill="#191970" stroke="#191970" points="257.3522,-78.4092 247.1217,-75.6546 253.4015,-84.1878 257.3522,-78.4092"/>
</g>
<!-- Node9 -->
<g id="node10" class="node">
<title>Node9</title>
<polygon fill="none" stroke="#bfbfbf" points="274,-56.5 274,-75.5 322,-75.5 322,-56.5 274,-56.5"/>
<text text-anchor="middle" x="298" y="-63.5" font-family="Helvetica,sans-Serif" font-size="10.00" fill="#000000">stdlib.h</text>
</g>
<!-- Node0&#45;&gt;Node9 -->
<g id="edge9" class="edge">
<title>Node0&#45;&gt;Node9</title>
<path fill="none" stroke="#191970" d="M320.7395,-112.168C316.4422,-103.4433 311.4827,-93.374 307.2942,-84.87"/>
<polygon fill="#191970" stroke="#191970" points="310.3756,-83.2049 302.8172,-75.7805 304.096,-86.2979 310.3756,-83.2049"/>
</g>
<!-- Node10 -->
<g id="node11" class="node">
<title>Node10</title>
<polygon fill="none" stroke="#bfbfbf" points="340.5,-56.5 340.5,-75.5 387.5,-75.5 387.5,-56.5 340.5,-56.5"/>
<text text-anchor="middle" x="364" y="-63.5" font-family="Helvetica,sans-Serif" font-size="10.00" fill="#000000">math.h</text>
</g>
<!-- Node0&#45;&gt;Node10 -->
<g id="edge10" class="edge">
<title>Node0&#45;&gt;Node10</title>
<path fill="none" stroke="#191970" d="M341.2605,-112.168C345.5578,-103.4433 350.5173,-93.374 354.7058,-84.87"/>
<polygon fill="#191970" stroke="#191970" points="357.904,-86.2979 359.1828,-75.7805 351.6244,-83.2049 357.904,-86.2979"/>
</g>
<!-- Node11 -->
<g id="node12" class="node">
<title>Node11</title>
<polygon fill="none" stroke="#bfbfbf" points="406,-56.5 406,-75.5 454,-75.5 454,-56.5 406,-56.5"/>
<text text-anchor="middle" x="430" y="-63.5" font-family="Helvetica,sans-Serif" font-size="10.00" fill="#000000">limits.h</text>
</g>
<!-- Node0&#45;&gt;Node11 -->
<g id="edge11" class="edge">
<title>Node0&#45;&gt;Node11</title>
<path fill="none" stroke="#191970" d="M361.5111,-112.3511C376.3314,-102.3212 393.8285,-90.4797 407.4278,-81.2762"/>
<polygon fill="#191970" stroke="#191970" points="409.4142,-84.1581 415.7342,-75.6546 405.4908,-78.3609 409.4142,-84.1581"/>
</g>
<!-- Node12 -->
<g id="node13" class="node">
<title>Node12</title>
<g id="a_node13"><a xlink:href="imstb__textedit_8h.html" target="_top" xlink:title="imstb_textedit.h">
<polygon fill="none" stroke="#000000" points="472,-56.5 472,-75.5 558,-75.5 558,-56.5 472,-56.5"/>
<text text-anchor="middle" x="515" y="-63.5" font-family="Helvetica,sans-Serif" font-size="10.00" fill="#000000">imstb_textedit.h</text>
</a>
</g>
</g>
<!-- Node0&#45;&gt;Node12 -->
<g id="edge12" class="edge">
<title>Node0&#45;&gt;Node12</title>
<path fill="none" stroke="#191970" d="M387.4565,-112.4425C417.4318,-101.5275 453.3558,-88.4465 479.4285,-78.9527"/>
<polygon fill="#191970" stroke="#191970" points="480.7069,-82.212 488.9058,-75.5017 478.3118,-75.6345 480.7069,-82.212"/>
</g>
<!-- Node2 -->
<g id="node3" class="node">
<title>Node2</title>
<g id="a_node3"><a xlink:href="imconfig_8h.html" target="_top" xlink:title="imconfig.h">
<polygon fill="none" stroke="#000000" points="0,-.5 0,-19.5 62,-19.5 62,-.5 0,-.5"/>
<text text-anchor="middle" x="31" y="-7.5" font-family="Helvetica,sans-Serif" font-size="10.00" fill="#000000">imconfig.h</text>
</a>
</g>
</g>
<!-- Node1&#45;&gt;Node2 -->
<g id="edge2" class="edge">
<title>Node1&#45;&gt;Node2</title>
<path fill="none" stroke="#191970" d="M144.4489,-56.3733C122.1609,-47.2629 88.5063,-33.5062 63.6363,-23.3404"/>
<polygon fill="#191970" stroke="#191970" points="64.8247,-20.0451 54.2438,-19.5011 62.1761,-26.5247 64.8247,-20.0451"/>
</g>
<!-- Node3 -->
<g id="node4" class="node">
<title>Node3</title>
<polygon fill="none" stroke="#bfbfbf" points="80,-.5 80,-19.5 124,-19.5 124,-.5 80,-.5"/>
<text text-anchor="middle" x="102" y="-7.5" font-family="Helvetica,sans-Serif" font-size="10.00" fill="#000000">float.h</text>
</g>
<!-- Node1&#45;&gt;Node3 -->
<g id="edge3" class="edge">
<title>Node1&#45;&gt;Node3</title>
<path fill="none" stroke="#191970" d="M156.5037,-56.2455C146.7558,-47.9746 132.5741,-35.9416 121.1202,-26.2232"/>
<polygon fill="#191970" stroke="#191970" points="123.2541,-23.4437 113.3646,-19.6427 118.7253,-28.7813 123.2541,-23.4437"/>
</g>
<!-- Node4 -->
<g id="node5" class="node">
<title>Node4</title>
<polygon fill="none" stroke="#bfbfbf" points="142,-.5 142,-19.5 194,-19.5 194,-.5 142,-.5"/>
<text text-anchor="middle" x="168" y="-7.5" font-family="Helvetica,sans-Serif" font-size="10.00" fill="#000000">stdarg.h</text>
</g>
<!-- Node1&#45;&gt;Node4 -->
<g id="edge4" class="edge">
<title>Node1&#45;&gt;Node4</title>
<path fill="none" stroke="#191970" d="M168,-56.2455C168,-48.9382 168,-38.6944 168,-29.7046"/>
<polygon fill="#191970" stroke="#191970" points="171.5001,-29.6426 168,-19.6427 164.5001,-29.6427 171.5001,-29.6426"/>
</g>
<!-- Node5 -->
<g id="node6" class="node">
<title>Node5</title>
<polygon fill="none" stroke="#bfbfbf" points="212,-.5 212,-19.5 264,-19.5 264,-.5 212,-.5"/>
<text text-anchor="middle" x="238" y="-7.5" font-family="Helvetica,sans-Serif" font-size="10.00" fill="#000000">stddef.h</text>
</g>
<!-- Node1&#45;&gt;Node5 -->
<g id="edge5" class="edge">
<title>Node1&#45;&gt;Node5</title>
<path fill="none" stroke="#191970" d="M180.1931,-56.2455C190.6321,-47.8943 205.8655,-35.7076 218.074,-25.9408"/>
<polygon fill="#191970" stroke="#191970" points="220.3244,-28.6227 225.9467,-19.6427 215.9515,-23.1566 220.3244,-28.6227"/>
</g>
<!-- Node6 -->
<g id="node7" class="node">
<title>Node6</title>
<polygon fill="none" stroke="#bfbfbf" points="421.5,-.5 421.5,-19.5 470.5,-19.5 470.5,-.5 421.5,-.5"/>
<text text-anchor="middle" x="446" y="-7.5" font-family="Helvetica,sans-Serif" font-size="10.00" fill="#000000">string.h</text>
</g>
<!-- Node1&#45;&gt;Node6 -->
<g id="edge6" class="edge">
<title>Node1&#45;&gt;Node6</title>
<path fill="none" stroke="#191970" d="M192.0672,-58.377C195.0619,-57.5261 198.0925,-56.7112 201,-56 275.2569,-37.8348 363.6842,-22.8369 411.3728,-15.2839"/>
<polygon fill="#191970" stroke="#191970" points="412.1334,-18.7075 421.47,-13.6999 411.0484,-11.7921 412.1334,-18.7075"/>
</g>
<!-- Node7 -->
<g id="node8" class="node">
<title>Node7</title>
<polygon fill="none" stroke="#bfbfbf" points="282,-.5 282,-19.5 334,-19.5 334,-.5 282,-.5"/>
<text text-anchor="middle" x="308" y="-7.5" font-family="Helvetica,sans-Serif" font-size="10.00" fill="#000000">assert.h</text>
</g>
<!-- Node1&#45;&gt;Node7 -->
<g id="edge7" class="edge">
<title>Node1&#45;&gt;Node7</title>
<path fill="none" stroke="#191970" d="M192.0669,-56.3733C214.8428,-47.2629 249.2344,-33.5062 274.649,-23.3404"/>
<polygon fill="#191970" stroke="#191970" points="276.2623,-26.4648 284.2472,-19.5011 273.6625,-19.9654 276.2623,-26.4648"/>
</g>
<!-- Node12&#45;&gt;Node6 -->
<g id="edge13" class="edge">
<title>Node12&#45;&gt;Node6</title>
<path fill="none" stroke="#191970" d="M502.9811,-56.2455C492.7902,-47.9746 477.9638,-35.9416 465.9893,-26.2232"/>
<polygon fill="#191970" stroke="#191970" points="467.8514,-23.2268 457.8812,-19.6427 463.4402,-28.662 467.8514,-23.2268"/>
</g>
</g>
</svg>
