<?xml version="1.0" encoding="UTF-8" standalone="no"?>
<!DOCTYPE svg PUBLIC "-//W3C//DTD SVG 1.1//EN"
 "http://www.w3.org/Graphics/SVG/1.1/DTD/svg11.dtd">
<!-- Generated by graphviz version 2.40.1 (20161225.0304)
 -->
<!-- Title: /mnt/hdd/fnky/C0de/CAPSTONE/clean_build/src/IMGUI/imgui_tables.cpp Pages: 1 -->
<svg width="661pt" height="240pt"
 viewBox="0.00 0.00 660.50 240.00" xmlns="http://www.w3.org/2000/svg" xmlns:xlink="http://www.w3.org/1999/xlink">
<g id="graph0" class="graph" transform="scale(1 1) rotate(0) translate(4 236)">
<title>/mnt/hdd/fnky/C0de/CAPSTONE/clean_build/src/IMGUI/imgui_tables.cpp</title>
<!-- Node0 -->
<g id="node1" class="node">
<title>Node0</title>
<polygon fill="#bfbfbf" stroke="#000000" points="285,-190.5 285,-231.5 427,-231.5 427,-190.5 285,-190.5"/>
<text text-anchor="start" x="293" y="-219.5" font-family="Helvetica,sans-Serif" font-size="10.00" fill="#000000">/mnt/hdd/fnky/C0de</text>
<text text-anchor="start" x="293" y="-208.5" font-family="Helvetica,sans-Serif" font-size="10.00" fill="#000000">/CAPSTONE/clean_build</text>
<text text-anchor="middle" x="356" y="-197.5" font-family="Helvetica,sans-Serif" font-size="10.00" fill="#000000">/src/IMGUI/imgui_tables.cpp</text>
</g>
<!-- Node1 -->
<g id="node2" class="node">
<title>Node1</title>
<g id="a_node2"><a xlink:href="imgui_8h.html" target="_top" xlink:title="../../include/IMGUI\l/imgui.h">
<polygon fill="none" stroke="#000000" points="119,-56.5 119,-86.5 217,-86.5 217,-56.5 119,-56.5"/>
<text text-anchor="start" x="127" y="-74.5" font-family="Helvetica,sans-Serif" font-size="10.00" fill="#000000">../../include/IMGUI</text>
<text text-anchor="middle" x="168" y="-63.5" font-family="Helvetica,sans-Serif" font-size="10.00" fill="#000000">/imgui.h</text>
</a>
</g>
</g>
<!-- Node0&#45;&gt;Node1 -->
<g id="edge1" class="edge">
<title>Node0&#45;&gt;Node1</title>
<path fill="none" stroke="#191970" d="M328.26,-190.4163C292.895,-164.1747 232.0714,-119.0423 196.3953,-92.5699"/>
<polygon fill="#191970" stroke="#191970" points="198.4422,-89.7305 188.3259,-86.5822 194.2709,-95.3519 198.4422,-89.7305"/>
</g>
<!-- Node8 -->
<g id="node9" class="node">
<title>Node8</title>
<g id="a_node9"><a xlink:href="imgui__internal_8h.html" target="_top" xlink:title="../../include/IMGUI\l/imgui_internal.h">
<polygon fill="none" stroke="#000000" points="307,-123.5 307,-153.5 405,-153.5 405,-123.5 307,-123.5"/>
<text text-anchor="start" x="315" y="-141.5" font-family="Helvetica,sans-Serif" font-size="10.00" fill="#000000">../../include/IMGUI</text>
<text text-anchor="middle" x="356" y="-130.5" font-family="Helvetica,sans-Serif" font-size="10.00" fill="#000000">/imgui_internal.h</text>
</a>
</g>
</g>
<!-- Node0&#45;&gt;Node8 -->
<g id="edge8" class="edge">
<title>Node0&#45;&gt;Node8</title>
<path fill="none" stroke="#191970" d="M356,-190.4183C356,-182.0849 356,-172.3834 356,-163.6373"/>
<polygon fill="#191970" stroke="#191970" points="359.5001,-163.5991 356,-153.5991 352.5001,-163.5991 359.5001,-163.5991"/>
</g>
<!-- Node14 -->
<g id="node15" class="node">
<title>Node14</title>
<g id="a_node15"><a xlink:href="stdint_8h.html" target="_top" xlink:title="stdint.h">
<polygon fill="none" stroke="#000000" points="534.5,-129 534.5,-148 583.5,-148 583.5,-129 534.5,-129"/>
<text text-anchor="middle" x="559" y="-136" font-family="Helvetica,sans-Serif" font-size="10.00" fill="#000000">stdint.h</text>
</a>
</g>
</g>
<!-- Node0&#45;&gt;Node14 -->
<g id="edge16" class="edge">
<title>Node0&#45;&gt;Node14</title>
<path fill="none" stroke="#191970" d="M413.6287,-190.4183C449.4351,-177.6303 494.2615,-161.6209 524.5994,-150.7859"/>
<polygon fill="#191970" stroke="#191970" points="526.0583,-153.9815 534.2985,-147.322 523.7039,-147.3893 526.0583,-153.9815"/>
</g>
<!-- Node2 -->
<g id="node3" class="node">
<title>Node2</title>
<g id="a_node3"><a xlink:href="imconfig_8h.html" target="_top" xlink:title="imconfig.h">
<polygon fill="none" stroke="#000000" points="0,-.5 0,-19.5 62,-19.5 62,-.5 0,-.5"/>
<text text-anchor="middle" x="31" y="-7.5" font-family="Helvetica,sans-Serif" font-size="10.00" fill="#000000">imconfig.h</text>
</a>
</g>
</g>
<!-- Node1&#45;&gt;Node2 -->
<g id="edge2" class="edge">
<title>Node1&#45;&gt;Node2</title>
<path fill="none" stroke="#191970" d="M134.486,-56.4554C112.2288,-46.464 83.2353,-33.4487 61.6015,-23.7372"/>
<polygon fill="#191970" stroke="#191970" points="62.7865,-20.4327 52.2301,-19.5303 59.9197,-26.8187 62.7865,-20.4327"/>
</g>
<!-- Node3 -->
<g id="node4" class="node">
<title>Node3</title>
<polygon fill="none" stroke="#bfbfbf" points="80,-.5 80,-19.5 124,-19.5 124,-.5 80,-.5"/>
<text text-anchor="middle" x="102" y="-7.5" font-family="Helvetica,sans-Serif" font-size="10.00" fill="#000000">float.h</text>
</g>
<!-- Node1&#45;&gt;Node3 -->
<g id="edge3" class="edge">
<title>Node1&#45;&gt;Node3</title>
<path fill="none" stroke="#191970" d="M151.6854,-56.2977C142.0467,-47.3163 129.8309,-35.9334 119.9241,-26.702"/>
<polygon fill="#191970" stroke="#191970" points="122.2696,-24.1036 112.5674,-19.8469 117.4975,-29.2249 122.2696,-24.1036"/>
</g>
<!-- Node4 -->
<g id="node5" class="node">
<title>Node4</title>
<polygon fill="none" stroke="#bfbfbf" points="142,-.5 142,-19.5 194,-19.5 194,-.5 142,-.5"/>
<text text-anchor="middle" x="168" y="-7.5" font-family="Helvetica,sans-Serif" font-size="10.00" fill="#000000">stdarg.h</text>
</g>
<!-- Node1&#45;&gt;Node4 -->
<g id="edge4" class="edge">
<title>Node1&#45;&gt;Node4</title>
<path fill="none" stroke="#191970" d="M168,-56.2977C168,-48.3834 168,-38.6043 168,-30.0759"/>
<polygon fill="#191970" stroke="#191970" points="171.5001,-29.8469 168,-19.8469 164.5001,-29.847 171.5001,-29.8469"/>
</g>
<!-- Node5 -->
<g id="node6" class="node">
<title>Node5</title>
<polygon fill="none" stroke="#bfbfbf" points="212,-.5 212,-19.5 264,-19.5 264,-.5 212,-.5"/>
<text text-anchor="middle" x="238" y="-7.5" font-family="Helvetica,sans-Serif" font-size="10.00" fill="#000000">stddef.h</text>
</g>
<!-- Node1&#45;&gt;Node5 -->
<g id="edge5" class="edge">
<title>Node1&#45;&gt;Node5</title>
<path fill="none" stroke="#191970" d="M185.3034,-56.2977C195.5262,-47.3163 208.4823,-35.9334 218.9896,-26.702"/>
<polygon fill="#191970" stroke="#191970" points="221.5897,-29.0766 226.7921,-19.8469 216.9695,-23.8178 221.5897,-29.0766"/>
</g>
<!-- Node6 -->
<g id="node7" class="node">
<title>Node6</title>
<polygon fill="none" stroke="#bfbfbf" points="401.5,-.5 401.5,-19.5 450.5,-19.5 450.5,-.5 401.5,-.5"/>
<text text-anchor="middle" x="426" y="-7.5" font-family="Helvetica,sans-Serif" font-size="10.00" fill="#000000">string.h</text>
</g>
<!-- Node1&#45;&gt;Node6 -->
<g id="edge6" class="edge">
<title>Node1&#45;&gt;Node6</title>
<path fill="none" stroke="#191970" d="M217.0165,-58.2714C220.0536,-57.4918 223.0666,-56.7291 226,-56 283.8906,-41.6119 351.6045,-26.3683 391.5314,-17.5423"/>
<polygon fill="#191970" stroke="#191970" points="392.2899,-20.9592 401.3017,-15.3881 390.7827,-14.1234 392.2899,-20.9592"/>
</g>
<!-- Node7 -->
<g id="node8" class="node">
<title>Node7</title>
<polygon fill="none" stroke="#bfbfbf" points="282,-.5 282,-19.5 334,-19.5 334,-.5 282,-.5"/>
<text text-anchor="middle" x="308" y="-7.5" font-family="Helvetica,sans-Serif" font-size="10.00" fill="#000000">assert.h</text>
</g>
<!-- Node1&#45;&gt;Node7 -->
<g id="edge7" class="edge">
<title>Node1&#45;&gt;Node7</title>
<path fill="none" stroke="#191970" d="M202.2479,-56.4554C225.0949,-46.419 254.8879,-33.3314 277.0267,-23.6061"/>
<polygon fill="#191970" stroke="#191970" points="278.5571,-26.7567 286.305,-19.5303 275.7417,-20.3478 278.5571,-26.7567"/>
</g>
<!-- Node8&#45;&gt;Node1 -->
<g id="edge9" class="edge">
<title>Node8&#45;&gt;Node1</title>
<path fill="none" stroke="#191970" d="M313.8091,-123.4639C286.0889,-113.5849 249.6269,-100.5905 220.0999,-90.0675"/>
<polygon fill="#191970" stroke="#191970" points="220.9696,-86.6619 210.3749,-86.6017 218.6196,-93.2557 220.9696,-86.6619"/>
</g>
<!-- Node9 -->
<g id="node10" class="node">
<title>Node9</title>
<polygon fill="none" stroke="#bfbfbf" points="235,-62 235,-81 281,-81 281,-62 235,-62"/>
<text text-anchor="middle" x="258" y="-69" font-family="Helvetica,sans-Serif" font-size="10.00" fill="#000000">stdio.h</text>
</g>
<!-- Node8&#45;&gt;Node9 -->
<g id="edge10" class="edge">
<title>Node8&#45;&gt;Node9</title>
<path fill="none" stroke="#191970" d="M333.7623,-123.2967C317.7522,-112.351 296.2437,-97.6462 280.2344,-86.701"/>
<polygon fill="#191970" stroke="#191970" points="282.2064,-83.8095 271.9759,-81.055 278.2557,-89.5881 282.2064,-83.8095"/>
</g>
<!-- Node10 -->
<g id="node11" class="node">
<title>Node10</title>
<polygon fill="none" stroke="#bfbfbf" points="299,-62 299,-81 347,-81 347,-62 299,-62"/>
<text text-anchor="middle" x="323" y="-69" font-family="Helvetica,sans-Serif" font-size="10.00" fill="#000000">stdlib.h</text>
</g>
<!-- Node8&#45;&gt;Node10 -->
<g id="edge11" class="edge">
<title>Node8&#45;&gt;Node10</title>
<path fill="none" stroke="#191970" d="M348.5118,-123.2967C343.6697,-113.4658 337.3341,-100.6026 332.188,-90.1545"/>
<polygon fill="#191970" stroke="#191970" points="335.2645,-88.4794 327.7062,-81.055 328.9849,-91.5724 335.2645,-88.4794"/>
</g>
<!-- Node11 -->
<g id="node12" class="node">
<title>Node11</title>
<polygon fill="none" stroke="#bfbfbf" points="365.5,-62 365.5,-81 412.5,-81 412.5,-62 365.5,-62"/>
<text text-anchor="middle" x="389" y="-69" font-family="Helvetica,sans-Serif" font-size="10.00" fill="#000000">math.h</text>
</g>
<!-- Node8&#45;&gt;Node11 -->
<g id="edge12" class="edge">
<title>Node8&#45;&gt;Node11</title>
<path fill="none" stroke="#191970" d="M363.4882,-123.2967C368.3303,-113.4658 374.6659,-100.6026 379.812,-90.1545"/>
<polygon fill="#191970" stroke="#191970" points="383.0151,-91.5724 384.2938,-81.055 376.7355,-88.4794 383.0151,-91.5724"/>
</g>
<!-- Node12 -->
<g id="node13" class="node">
<title>Node12</title>
<polygon fill="none" stroke="#bfbfbf" points="535,-62 535,-81 583,-81 583,-62 535,-62"/>
<text text-anchor="middle" x="559" y="-69" font-family="Helvetica,sans-Serif" font-size="10.00" fill="#000000">limits.h</text>
</g>
<!-- Node8&#45;&gt;Node12 -->
<g id="edge13" class="edge">
<title>Node8&#45;&gt;Node12</title>
<path fill="none" stroke="#191970" d="M405.365,-125.5878C439.6395,-116.1289 486.1273,-102.3109 526,-87 527.4034,-86.4611 528.8304,-85.8888 530.2646,-85.2939"/>
<polygon fill="#191970" stroke="#191970" points="531.9188,-88.3898 539.6591,-81.1552 529.0967,-81.9839 531.9188,-88.3898"/>
</g>
<!-- Node13 -->
<g id="node14" class="node">
<title>Node13</title>
<g id="a_node14"><a xlink:href="imstb__textedit_8h.html" target="_top" xlink:title="imstb_textedit.h">
<polygon fill="none" stroke="#000000" points="431,-62 431,-81 517,-81 517,-62 431,-62"/>
<text text-anchor="middle" x="474" y="-69" font-family="Helvetica,sans-Serif" font-size="10.00" fill="#000000">imstb_textedit.h</text>
</a>
</g>
</g>
<!-- Node8&#45;&gt;Node13 -->
<g id="edge14" class="edge">
<title>Node8&#45;&gt;Node13</title>
<path fill="none" stroke="#191970" d="M382.4815,-123.4639C402.102,-112.3234 428.7,-97.2212 448.1649,-86.1691"/>
<polygon fill="#191970" stroke="#191970" points="450.1178,-89.0851 457.0856,-81.1039 446.6615,-82.9979 450.1178,-89.0851"/>
</g>
<!-- Node13&#45;&gt;Node6 -->
<g id="edge15" class="edge">
<title>Node13&#45;&gt;Node6</title>
<path fill="none" stroke="#191970" d="M466.5,-61.8906C459.4262,-52.8273 448.6458,-39.0149 439.9854,-27.9188"/>
<polygon fill="#191970" stroke="#191970" points="442.5176,-25.4746 433.6057,-19.7449 436.9994,-29.7815 442.5176,-25.4746"/>
</g>
<!-- Node14&#45;&gt;Node12 -->
<g id="edge17" class="edge">
<title>Node14&#45;&gt;Node12</title>
<path fill="none" stroke="#191970" d="M559,-128.9005C559,-119.149 559,-103.7597 559,-91.3695"/>
<polygon fill="#191970" stroke="#191970" points="562.5001,-91.0816 559,-81.0817 555.5001,-91.0817 562.5001,-91.0816"/>
</g>
<!-- Node15 -->
<g id="node16" class="node">
<title>Node15</title>
<polygon fill="none" stroke="#bfbfbf" points="601.5,-62 601.5,-81 652.5,-81 652.5,-62 601.5,-62"/>
<text text-anchor="middle" x="627" y="-69" font-family="Helvetica,sans-Serif" font-size="10.00" fill="#000000">wchar.h</text>
</g>
<!-- Node14&#45;&gt;Node15 -->
<g id="edge18" class="edge">
<title>Node14&#45;&gt;Node15</title>
<path fill="none" stroke="#191970" d="M568.7427,-128.9005C579.4477,-118.353 596.847,-101.2096 609.8479,-88.3998"/>
<polygon fill="#191970" stroke="#191970" points="612.6085,-90.5933 617.2753,-81.0817 607.6956,-85.607 612.6085,-90.5933"/>
</g>
</g>
</svg>
