<?xml version="1.0" encoding="UTF-8" standalone="no"?>
<!DOCTYPE svg PUBLIC "-//W3C//DTD SVG 1.1//EN"
 "http://www.w3.org/Graphics/SVG/1.1/DTD/svg11.dtd">
<!-- Generated by graphviz version 2.40.1 (20161225.0304)
 -->
<!-- Title: /mnt/hdd/fnky/C0de/CAPSTONE/clean_build/include/IMGUI/imgui.h Pages: 1 -->
<!--zoomable 228 -->
<svg id="main" version="1.1" xmlns="http://www.w3.org/2000/svg" xmlns:xlink="http://www.w3.org/1999/xlink" xml:space="preserve" onload="init(evt)">
<style type="text/css"><![CDATA[
.edge:hover path { stroke: red; }
.edge:hover polygon { stroke: red; fill: red; }
]]></style>
<script type="text/javascript"><![CDATA[
var edges = document.getElementsByTagName('g');
if (edges && edges.length) {
  for (var i=0;i<edges.length;i++) {
    if (edges[i].id.substr(0,4)=='edge') {
      edges[i].setAttribute('class','edge');
    }
  }
}
]]></script>
        <defs>
                <circle id="rim" cx="0" cy="0" r="7"/>
                <circle id="rim2" cx="0" cy="0" r="3.5"/>
                <g id="zoomPlus">
                        <use xlink:href="#rim" fill="#404040">
                                <set attributeName="fill" to="#808080" begin="zoomplus.mouseover" end="zoomplus.mouseout"/>
                        </use>
                        <path d="M-4,0h8M0,-4v8" fill="none" stroke="white" stroke-width="1.5" pointer-events="none"/>
                </g>
                <g id="zoomMin">
                        <use xlink:href="#rim" fill="#404040">
                                <set attributeName="fill" to="#808080" begin="zoomminus.mouseover" end="zoomminus.mouseout"/>
                        </use>
                        <path d="M-4,0h8" fill="none" stroke="white" stroke-width="1.5" pointer-events="none"/>
                </g>
                <g id="dirArrow">
                        <path fill="none" stroke="white" stroke-width="1.5" d="M0,-3.0v7 M-2.5,-0.5L0,-3.0L2.5,-0.5"/>
                </g>
               <g id="resetDef">
                       <use xlink:href="#rim2" fill="#404040">
                               <set attributeName="fill" to="#808080" begin="reset.mouseover" end="reset.mouseout"/>
                       </use>
               </g>
        </defs>

<script type="text/javascript">
var viewWidth = 1053;
var viewHeight = 228;
var sectionId = 'dynsection-1';
</script>
<script xlink:href="svgpan.js"/>
<svg id="graph" class="graph">
<g id="viewport">
<title>/mnt/hdd/fnky/C0de/CAPSTONE/clean_build/include/IMGUI/imgui.h</title>
<!-- Node7 -->
<g id="node1" class="node">
<title>Node7</title>
<polygon fill="#bfbfbf" stroke="#000000" points="407,-178.5 407,-219.5 534,-219.5 534,-178.5 407,-178.5"/>
<text text-anchor="start" x="415" y="-207.5" font-family="Helvetica,sans-Serif" font-size="10.00" fill="#000000">/mnt/hdd/fnky/C0de</text>
<text text-anchor="start" x="415" y="-196.5" font-family="Helvetica,sans-Serif" font-size="10.00" fill="#000000">/CAPSTONE/clean_build</text>
<text text-anchor="middle" x="470.5" y="-185.5" font-family="Helvetica,sans-Serif" font-size="10.00" fill="#000000">/include/IMGUI/imgui.h</text>
</g>
<!-- Node8 -->
<g id="node2" class="node">
<title>Node8</title>
<g id="a_node2"><a xlink:href="imgui__impl__glfw_8h.html" target="_top" xlink:title="/mnt/hdd/fnky/C0de\l/CAPSTONE/clean_build\l/include/IMGUI/imgui_impl\l_glfw.h">
<polygon fill="none" stroke="#000000" points="101.5,-89.5 101.5,-141.5 233.5,-141.5 233.5,-89.5 101.5,-89.5"/>
<text text-anchor="start" x="109.5" y="-129.5" font-family="Helvetica,sans-Serif" font-size="10.00" fill="#000000">/mnt/hdd/fnky/C0de</text>
<text text-anchor="start" x="109.5" y="-118.5" font-family="Helvetica,sans-Serif" font-size="10.00" fill="#000000">/CAPSTONE/clean_build</text>
<text text-anchor="start" x="109.5" y="-107.5" font-family="Helvetica,sans-Serif" font-size="10.00" fill="#000000">/include/IMGUI/imgui_impl</text>
<text text-anchor="middle" x="167.5" y="-96.5" font-family="Helvetica,sans-Serif" font-size="10.00" fill="#000000">_glfw.h</text>
</a>
</g>
</g>
<!-- Node7&#45;&gt;Node8 -->
<g id="edge1" class="edge">
<title>Node7&#45;&gt;Node8</title>
<path fill="none" stroke="#191970" d="M396.7847,-181.5258C353.167,-170.8465 296.9509,-156.4912 247.5,-142 243.007,-140.6834 238.3873,-139.2818 233.7427,-137.8372"/>
<polygon fill="#191970" stroke="#191970" points="396.1945,-184.9843 406.739,-183.9528 397.8527,-178.1835 396.1945,-184.9843"/>
</g>
<!-- Node9 -->
<g id="node3" class="node">
<title>Node9</title>
<g id="a_node3"><a xlink:href="imgui__impl__glfw_8cpp.html" target="_top" xlink:title="/mnt/hdd/fnky/C0de\l/CAPSTONE/clean_build\l/src/IMGUI/imgui_impl\l_glfw.cpp">
<polygon fill="none" stroke="#000000" points="0,-.5 0,-52.5 127,-52.5 127,-.5 0,-.5"/>
<text text-anchor="start" x="8" y="-40.5" font-family="Helvetica,sans-Serif" font-size="10.00" fill="#000000">/mnt/hdd/fnky/C0de</text>
<text text-anchor="start" x="8" y="-29.5" font-family="Helvetica,sans-Serif" font-size="10.00" fill="#000000">/CAPSTONE/clean_build</text>
<text text-anchor="start" x="8" y="-18.5" font-family="Helvetica,sans-Serif" font-size="10.00" fill="#000000">/src/IMGUI/imgui_impl</text>
<text text-anchor="middle" x="63.5" y="-7.5" font-family="Helvetica,sans-Serif" font-size="10.00" fill="#000000">_glfw.cpp</text>
</a>
</g>
</g>
<!-- Node7&#45;&gt;Node9 -->
<g id="edge14" class="edge">
<title>Node7&#45;&gt;Node9</title>
<path fill="none" stroke="#191970" d="M396.6097,-192.2618C292.9954,-182.1555 114.6405,-162.1042 92.5,-142 67.7043,-119.4848 62.6776,-79.2133 62.3292,-52.6745"/>
<polygon fill="#191970" stroke="#191970" points="396.413,-195.7591 406.7035,-193.238 397.0869,-188.7916 396.413,-195.7591"/>
</g>
<!-- Node10 -->
<g id="node4" class="node">
<title>Node10</title>
<g id="a_node4"><a xlink:href="main__menu__state_8cpp.html" target="_top" xlink:title="/mnt/hdd/fnky/C0de\l/CAPSTONE/clean_build\l/src/States/main_menu\l_state.cpp">
<polygon fill="none" stroke="#000000" points="145,-.5 145,-52.5 272,-52.5 272,-.5 145,-.5"/>
<text text-anchor="start" x="153" y="-40.5" font-family="Helvetica,sans-Serif" font-size="10.00" fill="#000000">/mnt/hdd/fnky/C0de</text>
<text text-anchor="start" x="153" y="-29.5" font-family="Helvetica,sans-Serif" font-size="10.00" fill="#000000">/CAPSTONE/clean_build</text>
<text text-anchor="start" x="153" y="-18.5" font-family="Helvetica,sans-Serif" font-size="10.00" fill="#000000">/src/States/main_menu</text>
<text text-anchor="middle" x="208.5" y="-7.5" font-family="Helvetica,sans-Serif" font-size="10.00" fill="#000000">_state.cpp</text>
</a>
</g>
</g>
<!-- Node7&#45;&gt;Node10 -->
<g id="edge18" class="edge">
<title>Node7&#45;&gt;Node10</title>
<path fill="none" stroke="#191970" d="M396.7751,-189.5688C359.0048,-181.7755 314.0362,-167.6222 280.5,-142 272.3323,-135.7598 242.0054,-84.6442 223.4152,-52.5386"/>
<polygon fill="#191970" stroke="#191970" points="396.2296,-193.0283 406.715,-191.5093 397.571,-186.158 396.2296,-193.0283"/>
</g>
<!-- Node11 -->
<g id="node5" class="node">
<title>Node11</title>
<g id="a_node5"><a xlink:href="imgui__impl__opengl3_8h.html" target="_top" xlink:title="/mnt/hdd/fnky/C0de\l/CAPSTONE/clean_build\l/include/IMGUI/imgui_impl\l_opengl3.h">
<polygon fill="none" stroke="#000000" points="289.5,-89.5 289.5,-141.5 421.5,-141.5 421.5,-89.5 289.5,-89.5"/>
<text text-anchor="start" x="297.5" y="-129.5" font-family="Helvetica,sans-Serif" font-size="10.00" fill="#000000">/mnt/hdd/fnky/C0de</text>
<text text-anchor="start" x="297.5" y="-118.5" font-family="Helvetica,sans-Serif" font-size="10.00" fill="#000000">/CAPSTONE/clean_build</text>
<text text-anchor="start" x="297.5" y="-107.5" font-family="Helvetica,sans-Serif" font-size="10.00" fill="#000000">/include/IMGUI/imgui_impl</text>
<text text-anchor="middle" x="355.5" y="-96.5" font-family="Helvetica,sans-Serif" font-size="10.00" fill="#000000">_opengl3.h</text>
</a>
</g>
</g>
<!-- Node7&#45;&gt;Node11 -->
<g id="edge4" class="edge">
<title>Node7&#45;&gt;Node11</title>
<path fill="none" stroke="#191970" d="M433.8874,-172.4161C420.3155,-162.5617 404.9469,-151.4027 391.4358,-141.5925"/>
<polygon fill="#191970" stroke="#191970" points="431.9247,-175.3162 442.073,-178.3595 436.0375,-169.6519 431.9247,-175.3162"/>
</g>
<!-- Node12 -->
<g id="node6" class="node">
<title>Node12</title>
<g id="a_node6"><a xlink:href="imgui__impl__opengl3_8cpp.html" target="_top" xlink:title="/mnt/hdd/fnky/C0de\l/CAPSTONE/clean_build\l/src/IMGUI/imgui_impl\l_opengl3.cpp">
<polygon fill="none" stroke="#000000" points="290,-.5 290,-52.5 417,-52.5 417,-.5 290,-.5"/>
<text text-anchor="start" x="298" y="-40.5" font-family="Helvetica,sans-Serif" font-size="10.00" fill="#000000">/mnt/hdd/fnky/C0de</text>
<text text-anchor="start" x="298" y="-29.5" font-family="Helvetica,sans-Serif" font-size="10.00" fill="#000000">/CAPSTONE/clean_build</text>
<text text-anchor="start" x="298" y="-18.5" font-family="Helvetica,sans-Serif" font-size="10.00" fill="#000000">/src/IMGUI/imgui_impl</text>
<text text-anchor="middle" x="353.5" y="-7.5" font-family="Helvetica,sans-Serif" font-size="10.00" fill="#000000">_opengl3.cpp</text>
</a>
</g>
</g>
<!-- Node7&#45;&gt;Node12 -->
<g id="edge15" class="edge">
<title>Node7&#45;&gt;Node12</title>
<path fill="none" stroke="#191970" d="M464.1596,-168.6568C458.2243,-145.3118 447.6488,-113.0785 430.5,-89 420.6117,-75.116 406.856,-62.6234 393.7028,-52.5225"/>
<polygon fill="#191970" stroke="#191970" points="460.7567,-169.4759 466.496,-178.3816 467.563,-167.8406 460.7567,-169.4759"/>
</g>
<!-- Node13 -->
<g id="node7" class="node">
<title>Node13</title>
<g id="a_node7"><a xlink:href="imgui__internal_8h.html" target="_top" xlink:title="/mnt/hdd/fnky/C0de\l/CAPSTONE/clean_build\l/include/IMGUI/imgui_internal.h">
<polygon fill="none" stroke="#000000" points="571.5,-95 571.5,-136 725.5,-136 725.5,-95 571.5,-95"/>
<text text-anchor="start" x="579.5" y="-124" font-family="Helvetica,sans-Serif" font-size="10.00" fill="#000000">/mnt/hdd/fnky/C0de</text>
<text text-anchor="start" x="579.5" y="-113" font-family="Helvetica,sans-Serif" font-size="10.00" fill="#000000">/CAPSTONE/clean_build</text>
<text text-anchor="middle" x="648.5" y="-102" font-family="Helvetica,sans-Serif" font-size="10.00" fill="#000000">/include/IMGUI/imgui_internal.h</text>
</a>
</g>
</g>
<!-- Node7&#45;&gt;Node13 -->
<g id="edge7" class="edge">
<title>Node7&#45;&gt;Node13</title>
<path fill="none" stroke="#191970" d="M523.778,-174.0072C549.6075,-161.8906 580.2499,-147.5162 604.698,-136.0476"/>
<polygon fill="#191970" stroke="#191970" points="522.0669,-170.9439 514.5,-178.3595 525.0398,-177.2812 522.0669,-170.9439"/>
</g>
<!-- Node14 -->
<g id="node8" class="node">
<title>Node14</title>
<g id="a_node8"><a xlink:href="imgui_8cpp.html" target="_top" xlink:title="/mnt/hdd/fnky/C0de\l/CAPSTONE/clean_build\l/src/IMGUI/imgui.cpp">
<polygon fill="none" stroke="#000000" points="435,-6 435,-47 562,-47 562,-6 435,-6"/>
<text text-anchor="start" x="443" y="-35" font-family="Helvetica,sans-Serif" font-size="10.00" fill="#000000">/mnt/hdd/fnky/C0de</text>
<text text-anchor="start" x="443" y="-24" font-family="Helvetica,sans-Serif" font-size="10.00" fill="#000000">/CAPSTONE/clean_build</text>
<text text-anchor="middle" x="498.5" y="-13" font-family="Helvetica,sans-Serif" font-size="10.00" fill="#000000">/src/IMGUI/imgui.cpp</text>
</a>
</g>
</g>
<!-- Node7&#45;&gt;Node14 -->
<g id="edge12" class="edge">
<title>Node7&#45;&gt;Node14</title>
<path fill="none" stroke="#191970" d="M475.5214,-168.0646C481.1982,-133.0915 490.2819,-77.1292 495.1542,-47.1128"/>
<polygon fill="#191970" stroke="#191970" points="472.025,-167.7609 473.8775,-178.1925 478.9345,-168.8825 472.025,-167.7609"/>
</g>
<!-- Node15 -->
<g id="node9" class="node">
<title>Node15</title>
<g id="a_node9"><a xlink:href="imgui__draw_8cpp.html" target="_top" xlink:title="/mnt/hdd/fnky/C0de\l/CAPSTONE/clean_build\l/src/IMGUI/imgui_draw.cpp">
<polygon fill="none" stroke="#000000" points="580,-6 580,-47 717,-47 717,-6 580,-6"/>
<text text-anchor="start" x="588" y="-35" font-family="Helvetica,sans-Serif" font-size="10.00" fill="#000000">/mnt/hdd/fnky/C0de</text>
<text text-anchor="start" x="588" y="-24" font-family="Helvetica,sans-Serif" font-size="10.00" fill="#000000">/CAPSTONE/clean_build</text>
<text text-anchor="middle" x="648.5" y="-13" font-family="Helvetica,sans-Serif" font-size="10.00" fill="#000000">/src/IMGUI/imgui_draw.cpp</text>
</a>
</g>
</g>
<!-- Node7&#45;&gt;Node15 -->
<g id="edge13" class="edge">
<title>Node7&#45;&gt;Node15</title>
<path fill="none" stroke="#191970" d="M491.4857,-170.1419C509.0884,-146.9182 535.6027,-114.1259 562.5,-89 579.0898,-73.5028 599.5909,-58.4693 616.4151,-47.0315"/>
<polygon fill="#191970" stroke="#191970" points="488.6177,-168.1326 485.4194,-178.2332 494.2184,-172.3316 488.6177,-168.1326"/>
</g>
<!-- Node16 -->
<g id="node10" class="node">
<title>Node16</title>
<g id="a_node10"><a xlink:href="imgui__tables_8cpp.html" target="_top" xlink:title="/mnt/hdd/fnky/C0de\l/CAPSTONE/clean_build\l/src/IMGUI/imgui_tables.cpp">
<polygon fill="none" stroke="#000000" points="735.5,-6 735.5,-47 877.5,-47 877.5,-6 735.5,-6"/>
<text text-anchor="start" x="743.5" y="-35" font-family="Helvetica,sans-Serif" font-size="10.00" fill="#000000">/mnt/hdd/fnky/C0de</text>
<text text-anchor="start" x="743.5" y="-24" font-family="Helvetica,sans-Serif" font-size="10.00" fill="#000000">/CAPSTONE/clean_build</text>
<text text-anchor="middle" x="806.5" y="-13" font-family="Helvetica,sans-Serif" font-size="10.00" fill="#000000">/src/IMGUI/imgui_tables.cpp</text>
</a>
</g>
</g>
<!-- Node7&#45;&gt;Node16 -->
<g id="edge16" class="edge">
<title>Node7&#45;&gt;Node16</title>
<path fill="none" stroke="#191970" d="M544.3649,-189.5984C611.4266,-179.9062 704.3134,-163.2333 734.5,-142 768.1286,-118.3456 789.3056,-73.4883 799.4217,-47.1785"/>
<polygon fill="#191970" stroke="#191970" points="543.6612,-186.1632 534.2533,-191.0355 544.6463,-193.0935 543.6612,-186.1632"/>
</g>
<!-- Node17 -->
<g id="node11" class="node">
<title>Node17</title>
<g id="a_node11"><a xlink:href="imgui__widgets_8cpp.html" target="_top" xlink:title="/mnt/hdd/fnky/C0de\l/CAPSTONE/clean_build\l/src/IMGUI/imgui_widgets.cpp">
<polygon fill="none" stroke="#000000" points="896,-6 896,-47 1045,-47 1045,-6 896,-6"/>
<text text-anchor="start" x="904" y="-35" font-family="Helvetica,sans-Serif" font-size="10.00" fill="#000000">/mnt/hdd/fnky/C0de</text>
<text text-anchor="start" x="904" y="-24" font-family="Helvetica,sans-Serif" font-size="10.00" fill="#000000">/CAPSTONE/clean_build</text>
<text text-anchor="middle" x="970.5" y="-13" font-family="Helvetica,sans-Serif" font-size="10.00" fill="#000000">/src/IMGUI/imgui_widgets.cpp</text>
</a>
</g>
</g>
<!-- Node7&#45;&gt;Node17 -->
<g id="edge17" class="edge">
<title>Node7&#45;&gt;Node17</title>
<path fill="none" stroke="#191970" d="M544.2464,-192.0823C606.3626,-184.6088 696.7856,-169.8261 771.5,-142 836.4484,-117.8111 904.7667,-73.3576 942.0548,-47.218"/>
<polygon fill="#191970" stroke="#191970" points="543.669,-188.6259 534.1431,-193.2635 544.4819,-195.5786 543.669,-188.6259"/>
</g>
<!-- Node8&#45;&gt;Node9 -->
<g id="edge2" class="edge">
<title>Node8&#45;&gt;Node9</title>
<path fill="none" stroke="#191970" d="M129.0265,-82.5755C117.4459,-72.6653 104.9035,-61.9319 93.9219,-52.5341"/>
<polygon fill="#191970" stroke="#191970" points="126.9857,-85.4357 136.8591,-89.2784 131.537,-80.1173 126.9857,-85.4357"/>
</g>
<!-- Node8&#45;&gt;Node10 -->
<g id="edge3" class="edge">
<title>Node8&#45;&gt;Node10</title>
<path fill="none" stroke="#191970" d="M183.8606,-79.9856C188.084,-70.8176 192.5521,-61.1186 196.5067,-52.5341"/>
<polygon fill="#191970" stroke="#191970" points="180.5849,-78.7314 179.5796,-89.2784 186.9427,-81.6603 180.5849,-78.7314"/>
</g>
<!-- Node11&#45;&gt;Node10 -->
<g id="edge6" class="edge">
<title>Node11&#45;&gt;Node10</title>
<path fill="none" stroke="#191970" d="M303.4702,-83.9989C286.4602,-73.7004 267.7686,-62.3837 251.5002,-52.5341"/>
<polygon fill="#191970" stroke="#191970" points="301.8232,-87.0933 312.1902,-89.2784 305.4486,-81.1052 301.8232,-87.0933"/>
</g>
<!-- Node11&#45;&gt;Node12 -->
<g id="edge5" class="edge">
<title>Node11&#45;&gt;Node12</title>
<path fill="none" stroke="#191970" d="M354.6824,-79.1155C354.4822,-70.2061 354.2719,-60.8475 354.085,-52.5341"/>
<polygon fill="#191970" stroke="#191970" points="351.1869,-79.3596 354.9108,-89.2784 358.1851,-79.2023 351.1869,-79.3596"/>
</g>
<!-- Node13&#45;&gt;Node14 -->
<g id="edge8" class="edge">
<title>Node13&#45;&gt;Node14</title>
<path fill="none" stroke="#191970" d="M604.8887,-89.6239C582.0437,-76.0692 554.4579,-59.7017 533.1014,-47.0301"/>
<polygon fill="#191970" stroke="#191970" points="603.3239,-92.7652 613.71,-94.8579 606.8958,-86.7451 603.3239,-92.7652"/>
</g>
<!-- Node13&#45;&gt;Node15 -->
<g id="edge9" class="edge">
<title>Node13&#45;&gt;Node15</title>
<path fill="none" stroke="#191970" d="M648.5,-84.844C648.5,-72.3522 648.5,-58.2439 648.5,-47.0301"/>
<polygon fill="#191970" stroke="#191970" points="645.0001,-84.8579 648.5,-94.8579 652.0001,-84.8579 645.0001,-84.8579"/>
</g>
<!-- Node13&#45;&gt;Node16 -->
<g id="edge10" class="edge">
<title>Node13&#45;&gt;Node16</title>
<path fill="none" stroke="#191970" d="M694.1181,-89.8037C718.2434,-76.2142 747.4582,-59.7577 770.0532,-47.0301"/>
<polygon fill="#191970" stroke="#191970" points="692.1406,-86.9005 685.1455,-94.8579 695.5761,-92.9995 692.1406,-86.9005"/>
</g>
<!-- Node13&#45;&gt;Node17 -->
<g id="edge11" class="edge">
<title>Node13&#45;&gt;Node17</title>
<path fill="none" stroke="#191970" d="M735.4336,-93.7559C780.6328,-82.1765 836.6965,-67.386 886.5,-53 892.9641,-51.1328 899.6877,-49.1246 906.3905,-47.0791"/>
<polygon fill="#191970" stroke="#191970" points="734.4887,-90.3848 725.6664,-96.2515 736.2216,-97.1669 734.4887,-90.3848"/>
</g>
</g>
</svg>
        <g id="navigator" transform="translate(0 0)" fill="#404254">
                <rect fill="#f2f5e9" fill-opacity="0.5" stroke="#606060" stroke-width=".5" x="0" y="0" width="60" height="60"/>
                <use id="zoomplus" xlink:href="#zoomPlus" x="17" y="9" onmousedown="handleZoom(evt,'in')"/>
                <use id="zoomminus" xlink:href="#zoomMin" x="42" y="9" onmousedown="handleZoom(evt,'out')"/>
                <use id="reset" xlink:href="#resetDef" x="30" y="36" onmousedown="handleReset()"/>
                <g id="arrowUp" xlink:href="#dirArrow" transform="translate(30 24)" onmousedown="handlePan(0,-1)">
                  <use xlink:href="#rim" fill="#404040">
                        <set attributeName="fill" to="#808080" begin="arrowUp.mouseover" end="arrowUp.mouseout"/>
                  </use>
                  <path fill="none" stroke="white" stroke-width="1.5" d="M0,-3.0v7 M-2.5,-0.5L0,-3.0L2.5,-0.5"/>
                </g>
                <g id="arrowRight" xlink:href="#dirArrow" transform="rotate(90) translate(36 -43)" onmousedown="handlePan(1,0)">
                  <use xlink:href="#rim" fill="#404040">
                        <set attributeName="fill" to="#808080" begin="arrowRight.mouseover" end="arrowRight.mouseout"/>
                  </use>
                  <path fill="none" stroke="white" stroke-width="1.5" d="M0,-3.0v7 M-2.5,-0.5L0,-3.0L2.5,-0.5"/>
                </g>
                <g id="arrowDown" xlink:href="#dirArrow" transform="rotate(180) translate(-30 -48)" onmousedown="handlePan(0,1)">
                  <use xlink:href="#rim" fill="#404040">
                        <set attributeName="fill" to="#808080" begin="arrowDown.mouseover" end="arrowDown.mouseout"/>
                  </use>
                  <path fill="none" stroke="white" stroke-width="1.5" d="M0,-3.0v7 M-2.5,-0.5L0,-3.0L2.5,-0.5"/>
                </g>
                <g id="arrowLeft" xlink:href="#dirArrow" transform="rotate(270) translate(-36 17)" onmousedown="handlePan(-1,0)">
                  <use xlink:href="#rim" fill="#404040">
                        <set attributeName="fill" to="#808080" begin="arrowLeft.mouseover" end="arrowLeft.mouseout"/>
                  </use>
                  <path fill="none" stroke="white" stroke-width="1.5" d="M0,-3.0v7 M-2.5,-0.5L0,-3.0L2.5,-0.5"/>
                </g>
        </g>
        <svg viewBox="0 0 15 15" width="100%" height="30px" preserveAspectRatio="xMaxYMin meet">
         <g id="arrow_out" transform="scale(0.3 0.3)">
          <a xlink:href="imgui_8h__dep__incl_org.svg" target="_base">
           <rect id="button" ry="5" rx="5" y="6" x="6" height="38" width="38"
                fill="#f2f5e9" fill-opacity="0.5" stroke="#606060" stroke-width="1.0"/>
           <path id="arrow"
             d="M 11.500037,31.436501 C 11.940474,20.09759 22.043105,11.32322 32.158766,21.979434 L 37.068811,17.246167 C 37.068811,17.246167 37.088388,32 37.088388,32 L 22.160133,31.978069 C 22.160133,31.978069 26.997745,27.140456 26.997745,27.140456 C 18.528582,18.264221 13.291696,25.230495 11.500037,31.436501 z"
             style="fill:#404040;"/>
          </a>
         </g>
        </svg>
</svg>
