<?xml version="1.0" encoding="UTF-8" standalone="no"?>
<!DOCTYPE svg PUBLIC "-//W3C//DTD SVG 1.1//EN"
 "http://www.w3.org/Graphics/SVG/1.1/DTD/svg11.dtd">
<!-- Generated by graphviz version 2.40.1 (20161225.0304)
 -->
<!-- Title: /mnt/hdd/fnky/C0de/CAPSTONE/clean_build/src/IMGUI/imgui_impl_glfw.cpp Pages: 1 -->
<svg width="410pt" height="251pt"
 viewBox="0.00 0.00 410.00 251.00" xmlns="http://www.w3.org/2000/svg" xmlns:xlink="http://www.w3.org/1999/xlink">
<g id="graph0" class="graph" transform="scale(1 1) rotate(0) translate(4 247)">
<title>/mnt/hdd/fnky/C0de/CAPSTONE/clean_build/src/IMGUI/imgui_impl_glfw.cpp</title>
<!-- Node0 -->
<g id="node1" class="node">
<title>Node0</title>
<polygon fill="#bfbfbf" stroke="#000000" points="178.5,-190.5 178.5,-242.5 305.5,-242.5 305.5,-190.5 178.5,-190.5"/>
<text text-anchor="start" x="186.5" y="-230.5" font-family="Helvetica,sans-Serif" font-size="10.00" fill="#000000">/mnt/hdd/fnky/C0de</text>
<text text-anchor="start" x="186.5" y="-219.5" font-family="Helvetica,sans-Serif" font-size="10.00" fill="#000000">/CAPSTONE/clean_build</text>
<text text-anchor="start" x="186.5" y="-208.5" font-family="Helvetica,sans-Serif" font-size="10.00" fill="#000000">/src/IMGUI/imgui_impl</text>
<text text-anchor="middle" x="242" y="-197.5" font-family="Helvetica,sans-Serif" font-size="10.00" fill="#000000">_glfw.cpp</text>
</g>
<!-- Node1 -->
<g id="node2" class="node">
<title>Node1</title>
<g id="a_node2"><a xlink:href="imgui_8h.html" target="_top" xlink:title="../../include/IMGUI\l/imgui.h">
<polygon fill="none" stroke="#000000" points="154,-56.5 154,-86.5 252,-86.5 252,-56.5 154,-56.5"/>
<text text-anchor="start" x="162" y="-74.5" font-family="Helvetica,sans-Serif" font-size="10.00" fill="#000000">../../include/IMGUI</text>
<text text-anchor="middle" x="203" y="-63.5" font-family="Helvetica,sans-Serif" font-size="10.00" fill="#000000">/imgui.h</text>
</a>
</g>
</g>
<!-- Node0&#45;&gt;Node1 -->
<g id="edge1" class="edge">
<title>Node0&#45;&gt;Node1</title>
<path fill="none" stroke="#191970" d="M209.355,-190.2042C199.2417,-180.0795 189.3546,-167.6418 184,-154 176.5929,-135.1289 182.683,-112.6438 189.8764,-95.9171"/>
<polygon fill="#191970" stroke="#191970" points="193.0723,-97.3453 194.1455,-86.8049 186.7335,-94.3755 193.0723,-97.3453"/>
</g>
<!-- Node8 -->
<g id="node9" class="node">
<title>Node8</title>
<g id="a_node9"><a xlink:href="imgui__impl__glfw_8h.html" target="_top" xlink:title="../../include/IMGUI\l/imgui_impl_glfw.h">
<polygon fill="none" stroke="#000000" points="193,-123.5 193,-153.5 291,-153.5 291,-123.5 193,-123.5"/>
<text text-anchor="start" x="201" y="-141.5" font-family="Helvetica,sans-Serif" font-size="10.00" fill="#000000">../../include/IMGUI</text>
<text text-anchor="middle" x="242" y="-130.5" font-family="Helvetica,sans-Serif" font-size="10.00" fill="#000000">/imgui_impl_glfw.h</text>
</a>
</g>
</g>
<!-- Node0&#45;&gt;Node8 -->
<g id="edge8" class="edge">
<title>Node0&#45;&gt;Node8</title>
<path fill="none" stroke="#191970" d="M242,-190.0928C242,-181.516 242,-172.0289 242,-163.5538"/>
<polygon fill="#191970" stroke="#191970" points="245.5001,-163.5045 242,-153.5046 238.5001,-163.5046 245.5001,-163.5045"/>
</g>
<!-- Node9 -->
<g id="node10" class="node">
<title>Node9</title>
<polygon fill="none" stroke="#bfbfbf" points="309,-129 309,-148 389,-148 389,-129 309,-129"/>
<text text-anchor="middle" x="349" y="-136" font-family="Helvetica,sans-Serif" font-size="10.00" fill="#000000">GLFW/glfw3.h</text>
</g>
<!-- Node0&#45;&gt;Node9 -->
<g id="edge10" class="edge">
<title>Node0&#45;&gt;Node9</title>
<path fill="none" stroke="#191970" d="M277.9271,-190.3101C294.4181,-178.2887 313.4149,-164.4405 327.6175,-154.0873"/>
<polygon fill="#191970" stroke="#191970" points="329.7567,-156.8591 335.7757,-148.1401 325.6331,-151.2026 329.7567,-156.8591"/>
</g>
<!-- Node2 -->
<g id="node3" class="node">
<title>Node2</title>
<g id="a_node3"><a xlink:href="imconfig_8h.html" target="_top" xlink:title="imconfig.h">
<polygon fill="none" stroke="#000000" points="0,-.5 0,-19.5 62,-19.5 62,-.5 0,-.5"/>
<text text-anchor="middle" x="31" y="-7.5" font-family="Helvetica,sans-Serif" font-size="10.00" fill="#000000">imconfig.h</text>
</a>
</g>
</g>
<!-- Node1&#45;&gt;Node2 -->
<g id="edge2" class="edge">
<title>Node1&#45;&gt;Node2</title>
<path fill="none" stroke="#191970" d="M160.9241,-56.4554C132.2254,-46.194 94.6063,-32.7429 67.2377,-22.9571"/>
<polygon fill="#191970" stroke="#191970" points="68.2485,-19.6015 57.6539,-19.5303 65.8917,-26.1929 68.2485,-19.6015"/>
</g>
<!-- Node3 -->
<g id="node4" class="node">
<title>Node3</title>
<polygon fill="none" stroke="#bfbfbf" points="80,-.5 80,-19.5 124,-19.5 124,-.5 80,-.5"/>
<text text-anchor="middle" x="102" y="-7.5" font-family="Helvetica,sans-Serif" font-size="10.00" fill="#000000">float.h</text>
</g>
<!-- Node1&#45;&gt;Node3 -->
<g id="edge3" class="edge">
<title>Node1&#45;&gt;Node3</title>
<path fill="none" stroke="#191970" d="M178.2926,-56.4554C162.4753,-46.8241 142.0433,-34.3828 126.3051,-24.7996"/>
<polygon fill="#191970" stroke="#191970" points="128.0129,-21.7418 117.6514,-19.5303 124.3723,-27.7206 128.0129,-21.7418"/>
</g>
<!-- Node4 -->
<g id="node5" class="node">
<title>Node4</title>
<polygon fill="none" stroke="#bfbfbf" points="142,-.5 142,-19.5 194,-19.5 194,-.5 142,-.5"/>
<text text-anchor="middle" x="168" y="-7.5" font-family="Helvetica,sans-Serif" font-size="10.00" fill="#000000">stdarg.h</text>
</g>
<!-- Node1&#45;&gt;Node4 -->
<g id="edge4" class="edge">
<title>Node1&#45;&gt;Node4</title>
<path fill="none" stroke="#191970" d="M194.3483,-56.2977C189.5912,-47.9388 183.6502,-37.4997 178.6143,-28.6509"/>
<polygon fill="#191970" stroke="#191970" points="181.5921,-26.8069 173.6039,-19.8469 175.5083,-30.2692 181.5921,-26.8069"/>
</g>
<!-- Node5 -->
<g id="node6" class="node">
<title>Node5</title>
<polygon fill="none" stroke="#bfbfbf" points="212,-.5 212,-19.5 264,-19.5 264,-.5 212,-.5"/>
<text text-anchor="middle" x="238" y="-7.5" font-family="Helvetica,sans-Serif" font-size="10.00" fill="#000000">stddef.h</text>
</g>
<!-- Node1&#45;&gt;Node5 -->
<g id="edge5" class="edge">
<title>Node1&#45;&gt;Node5</title>
<path fill="none" stroke="#191970" d="M211.6517,-56.2977C216.4088,-47.9388 222.3498,-37.4997 227.3857,-28.6509"/>
<polygon fill="#191970" stroke="#191970" points="230.4917,-30.2692 232.3961,-19.8469 224.4079,-26.8069 230.4917,-30.2692"/>
</g>
<!-- Node6 -->
<g id="node7" class="node">
<title>Node6</title>
<polygon fill="none" stroke="#bfbfbf" points="282.5,-.5 282.5,-19.5 331.5,-19.5 331.5,-.5 282.5,-.5"/>
<text text-anchor="middle" x="307" y="-7.5" font-family="Helvetica,sans-Serif" font-size="10.00" fill="#000000">string.h</text>
</g>
<!-- Node1&#45;&gt;Node6 -->
<g id="edge6" class="edge">
<title>Node1&#45;&gt;Node6</title>
<path fill="none" stroke="#191970" d="M228.4413,-56.4554C244.7284,-46.8241 265.7673,-34.3828 281.973,-24.7996"/>
<polygon fill="#191970" stroke="#191970" points="284.0576,-27.6331 290.8837,-19.5303 280.4945,-21.6078 284.0576,-27.6331"/>
</g>
<!-- Node7 -->
<g id="node8" class="node">
<title>Node7</title>
<polygon fill="none" stroke="#bfbfbf" points="350,-.5 350,-19.5 402,-19.5 402,-.5 350,-.5"/>
<text text-anchor="middle" x="376" y="-7.5" font-family="Helvetica,sans-Serif" font-size="10.00" fill="#000000">assert.h</text>
</g>
<!-- Node1&#45;&gt;Node7 -->
<g id="edge7" class="edge">
<title>Node1&#45;&gt;Node7</title>
<path fill="none" stroke="#191970" d="M245.3206,-56.4554C274.4533,-46.099 312.7254,-32.4936 340.3136,-22.6862"/>
<polygon fill="#191970" stroke="#191970" points="341.7075,-25.9053 349.9575,-19.2579 339.3628,-19.3097 341.7075,-25.9053"/>
</g>
<!-- Node8&#45;&gt;Node1 -->
<g id="edge9" class="edge">
<title>Node8&#45;&gt;Node1</title>
<path fill="none" stroke="#191970" d="M233.1503,-123.2967C228.3634,-115.0729 222.3412,-104.7272 216.9401,-95.4483"/>
<polygon fill="#191970" stroke="#191970" points="219.8703,-93.5249 211.8147,-86.6432 213.8206,-97.0464 219.8703,-93.5249"/>
</g>
</g>
</svg>
