<?xml version="1.0" encoding="UTF-8" standalone="no"?>
<!DOCTYPE svg PUBLIC "-//W3C//DTD SVG 1.1//EN"
 "http://www.w3.org/Graphics/SVG/1.1/DTD/svg11.dtd">
<!-- Generated by graphviz version 2.40.1 (20161225.0304)
 -->
<!-- Title: /mnt/hdd/fnky/C0de/CAPSTONE/clean_build/include/IMGUI/imstb_textedit.h Pages: 1 -->
<svg width="618pt" height="206pt"
 viewBox="0.00 0.00 618.00 206.00" xmlns="http://www.w3.org/2000/svg" xmlns:xlink="http://www.w3.org/1999/xlink">
<g id="graph0" class="graph" transform="scale(1 1) rotate(0) translate(4 202)">
<title>/mnt/hdd/fnky/C0de/CAPSTONE/clean_build/include/IMGUI/imstb_textedit.h</title>
<!-- Node2 -->
<g id="node1" class="node">
<title>Node2</title>
<polygon fill="#bfbfbf" stroke="#000000" points="346,-156.5 346,-197.5 501,-197.5 501,-156.5 346,-156.5"/>
<text text-anchor="start" x="354" y="-185.5" font-family="Helvetica,sans-Serif" font-size="10.00" fill="#000000">/mnt/hdd/fnky/C0de</text>
<text text-anchor="start" x="354" y="-174.5" font-family="Helvetica,sans-Serif" font-size="10.00" fill="#000000">/CAPSTONE/clean_build</text>
<text text-anchor="middle" x="423.5" y="-163.5" font-family="Helvetica,sans-Serif" font-size="10.00" fill="#000000">/include/IMGUI/imstb_textedit.h</text>
</g>
<!-- Node3 -->
<g id="node2" class="node">
<title>Node3</title>
<g id="a_node2"><a xlink:href="imgui__internal_8h.html" target="_top" xlink:title="/mnt/hdd/fnky/C0de\l/CAPSTONE/clean_build\l/include/IMGUI/imgui_internal.h">
<polygon fill="none" stroke="#000000" points="294.5,-78.5 294.5,-119.5 448.5,-119.5 448.5,-78.5 294.5,-78.5"/>
<text text-anchor="start" x="302.5" y="-107.5" font-family="Helvetica,sans-Serif" font-size="10.00" fill="#000000">/mnt/hdd/fnky/C0de</text>
<text text-anchor="start" x="302.5" y="-96.5" font-family="Helvetica,sans-Serif" font-size="10.00" fill="#000000">/CAPSTONE/clean_build</text>
<text text-anchor="middle" x="371.5" y="-85.5" font-family="Helvetica,sans-Serif" font-size="10.00" fill="#000000">/include/IMGUI/imgui_internal.h</text>
</a>
</g>
</g>
<!-- Node2&#45;&gt;Node3 -->
<g id="edge1" class="edge">
<title>Node2&#45;&gt;Node3</title>
<path fill="none" stroke="#191970" d="M403.8454,-147.5181C397.6655,-138.2482 390.9761,-128.2141 385.2932,-119.6898"/>
<polygon fill="#191970" stroke="#191970" points="401.1057,-149.7184 409.565,-156.0974 406.9301,-145.8354 401.1057,-149.7184"/>
</g>
<!-- Node7 -->
<g id="node6" class="node">
<title>Node7</title>
<g id="a_node6"><a xlink:href="imgui__widgets_8cpp.html" target="_top" xlink:title="/mnt/hdd/fnky/C0de\l/CAPSTONE/clean_build\l/src/IMGUI/imgui_widgets.cpp">
<polygon fill="none" stroke="#000000" points="461,-.5 461,-41.5 610,-41.5 610,-.5 461,-.5"/>
<text text-anchor="start" x="469" y="-29.5" font-family="Helvetica,sans-Serif" font-size="10.00" fill="#000000">/mnt/hdd/fnky/C0de</text>
<text text-anchor="start" x="469" y="-18.5" font-family="Helvetica,sans-Serif" font-size="10.00" fill="#000000">/CAPSTONE/clean_build</text>
<text text-anchor="middle" x="535.5" y="-7.5" font-family="Helvetica,sans-Serif" font-size="10.00" fill="#000000">/src/IMGUI/imgui_widgets.cpp</text>
</a>
</g>
</g>
<!-- Node2&#45;&gt;Node7 -->
<g id="edge6" class="edge">
<title>Node2&#45;&gt;Node7</title>
<path fill="none" stroke="#191970" d="M444.2692,-148.0714C466.4198,-117.2189 500.9539,-69.1178 520.5658,-41.8013"/>
<polygon fill="#191970" stroke="#191970" points="441.3617,-146.1199 438.3727,-156.2844 447.048,-150.2024 441.3617,-146.1199"/>
</g>
<!-- Node4 -->
<g id="node3" class="node">
<title>Node4</title>
<g id="a_node3"><a xlink:href="imgui_8cpp.html" target="_top" xlink:title="/mnt/hdd/fnky/C0de\l/CAPSTONE/clean_build\l/src/IMGUI/imgui.cpp">
<polygon fill="none" stroke="#000000" points="0,-.5 0,-41.5 127,-41.5 127,-.5 0,-.5"/>
<text text-anchor="start" x="8" y="-29.5" font-family="Helvetica,sans-Serif" font-size="10.00" fill="#000000">/mnt/hdd/fnky/C0de</text>
<text text-anchor="start" x="8" y="-18.5" font-family="Helvetica,sans-Serif" font-size="10.00" fill="#000000">/CAPSTONE/clean_build</text>
<text text-anchor="middle" x="63.5" y="-7.5" font-family="Helvetica,sans-Serif" font-size="10.00" fill="#000000">/src/IMGUI/imgui.cpp</text>
</a>
</g>
</g>
<!-- Node3&#45;&gt;Node4 -->
<g id="edge2" class="edge">
<title>Node3&#45;&gt;Node4</title>
<path fill="none" stroke="#191970" d="M284.531,-79.0216C239.8594,-68.5 184.6307,-55.0904 135.5,-42 132.732,-41.2625 129.908,-40.4967 127.0581,-39.7128"/>
<polygon fill="#191970" stroke="#191970" points="283.9428,-82.4787 294.4782,-81.3579 285.5434,-75.6641 283.9428,-82.4787"/>
</g>
<!-- Node5 -->
<g id="node4" class="node">
<title>Node5</title>
<g id="a_node4"><a xlink:href="imgui__draw_8cpp.html" target="_top" xlink:title="/mnt/hdd/fnky/C0de\l/CAPSTONE/clean_build\l/src/IMGUI/imgui_draw.cpp">
<polygon fill="none" stroke="#000000" points="145,-.5 145,-41.5 282,-41.5 282,-.5 145,-.5"/>
<text text-anchor="start" x="153" y="-29.5" font-family="Helvetica,sans-Serif" font-size="10.00" fill="#000000">/mnt/hdd/fnky/C0de</text>
<text text-anchor="start" x="153" y="-18.5" font-family="Helvetica,sans-Serif" font-size="10.00" fill="#000000">/CAPSTONE/clean_build</text>
<text text-anchor="middle" x="213.5" y="-7.5" font-family="Helvetica,sans-Serif" font-size="10.00" fill="#000000">/src/IMGUI/imgui_draw.cpp</text>
</a>
</g>
</g>
<!-- Node3&#45;&gt;Node5 -->
<g id="edge3" class="edge">
<title>Node3&#45;&gt;Node5</title>
<path fill="none" stroke="#191970" d="M320.4165,-73.7816C299.2844,-63.3493 275.094,-51.4072 255.074,-41.5239"/>
<polygon fill="#191970" stroke="#191970" points="319.0575,-77.0139 329.5737,-78.3022 322.1562,-70.7371 319.0575,-77.0139"/>
</g>
<!-- Node6 -->
<g id="node5" class="node">
<title>Node6</title>
<g id="a_node5"><a xlink:href="imgui__tables_8cpp.html" target="_top" xlink:title="/mnt/hdd/fnky/C0de\l/CAPSTONE/clean_build\l/src/IMGUI/imgui_tables.cpp">
<polygon fill="none" stroke="#000000" points="300.5,-.5 300.5,-41.5 442.5,-41.5 442.5,-.5 300.5,-.5"/>
<text text-anchor="start" x="308.5" y="-29.5" font-family="Helvetica,sans-Serif" font-size="10.00" fill="#000000">/mnt/hdd/fnky/C0de</text>
<text text-anchor="start" x="308.5" y="-18.5" font-family="Helvetica,sans-Serif" font-size="10.00" fill="#000000">/CAPSTONE/clean_build</text>
<text text-anchor="middle" x="371.5" y="-7.5" font-family="Helvetica,sans-Serif" font-size="10.00" fill="#000000">/src/IMGUI/imgui_tables.cpp</text>
</a>
</g>
</g>
<!-- Node3&#45;&gt;Node6 -->
<g id="edge4" class="edge">
<title>Node3&#45;&gt;Node6</title>
<path fill="none" stroke="#191970" d="M371.5,-68.0789C371.5,-59.2178 371.5,-49.7747 371.5,-41.6898"/>
<polygon fill="#191970" stroke="#191970" points="368.0001,-68.0974 371.5,-78.0974 375.0001,-68.0975 368.0001,-68.0974"/>
</g>
<!-- Node3&#45;&gt;Node7 -->
<g id="edge5" class="edge">
<title>Node3&#45;&gt;Node7</title>
<path fill="none" stroke="#191970" d="M424.2284,-73.9218C446.2326,-63.4564 471.4738,-51.4515 492.3473,-41.5239"/>
<polygon fill="#191970" stroke="#191970" points="422.5458,-70.8464 415.0184,-78.3022 425.5524,-77.1678 422.5458,-70.8464"/>
</g>
</g>
</svg>
