<?xml version="1.0" encoding="UTF-8" standalone="no"?>
<!DOCTYPE svg PUBLIC "-//W3C//DTD SVG 1.1//EN"
 "http://www.w3.org/Graphics/SVG/1.1/DTD/svg11.dtd">
<!-- Generated by graphviz version 2.40.1 (20161225.0304)
 -->
<!-- Title: Graphical Class Hierarchy Pages: 1 -->
<svg width="404pt" height="138pt"
 viewBox="0.00 0.00 404.00 137.50" xmlns="http://www.w3.org/2000/svg" xmlns:xlink="http://www.w3.org/1999/xlink">
<g id="graph0" class="graph" transform="scale(1 1) rotate(0) translate(4 133.5)">
<title>Graphical Class Hierarchy</title>
<!-- Node114 -->
<g id="node1" class="node">
<title>Node114</title>
<g id="a_node1"><a xlink:href="classinternal_1_1ISchemaStateFactory.html" target="_top" xlink:title="internal::ISchemaStateFactory\l\&lt; SchemaDocumentType::SchemaType \&gt;">
<polygon fill="none" stroke="#000000" points="0,-99 0,-129 201,-129 201,-99 0,-99"/>
<text text-anchor="start" x="8" y="-117" font-family="Helvetica,sans-Serif" font-size="10.00" fill="#000000">internal::ISchemaStateFactory</text>
<text text-anchor="middle" x="100.5" y="-106" font-family="Helvetica,sans-Serif" font-size="10.00" fill="#000000">&lt; SchemaDocumentType::SchemaType &gt;</text>
</a>
</g>
</g>
<!-- Node1 -->
<g id="node2" class="node">
<title>Node1</title>
<g id="a_node2"><a xlink:href="classGenericSchemaValidator.html" target="_top" xlink:title="JSON Schema Validator. ">
<polygon fill="none" stroke="#000000" points="237,-49.5 237,-90.5 396,-90.5 396,-49.5 237,-49.5"/>
<text text-anchor="start" x="245" y="-78.5" font-family="Helvetica,sans-Serif" font-size="10.00" fill="#000000">GenericSchemaValidator</text>
<text text-anchor="start" x="245" y="-67.5" font-family="Helvetica,sans-Serif" font-size="10.00" fill="#000000">&lt; SchemaDocumentType,</text>
<text text-anchor="middle" x="316.5" y="-56.5" font-family="Helvetica,sans-Serif" font-size="10.00" fill="#000000"> OutputHandler, StateAllocator &gt;</text>
</a>
</g>
</g>
<!-- Node114&#45;&gt;Node1 -->
<g id="edge1" class="edge">
<title>Node114&#45;&gt;Node1</title>
<path fill="none" stroke="#191970" d="M184.2852,-96.9326C201.557,-93.4143 219.6999,-89.7185 236.821,-86.2309"/>
<polygon fill="#191970" stroke="#191970" points="183.3309,-93.5551 174.2308,-98.9808 184.7282,-100.4142 183.3309,-93.5551"/>
</g>
<!-- Node113 -->
<g id="node3" class="node">
<title>Node113</title>
<g id="a_node3"><a xlink:href="classinternal_1_1ISchemaValidator.html" target="_top" xlink:title="internal::ISchemaValidator">
<polygon fill="none" stroke="#000000" points="35,-60.5 35,-79.5 166,-79.5 166,-60.5 35,-60.5"/>
<text text-anchor="middle" x="100.5" y="-67.5" font-family="Helvetica,sans-Serif" font-size="10.00" fill="#000000">internal::ISchemaValidator</text>
</a>
</g>
</g>
<!-- Node113&#45;&gt;Node1 -->
<g id="edge2" class="edge">
<title>Node113&#45;&gt;Node1</title>
<path fill="none" stroke="#191970" d="M176.2526,-70C195.8011,-70 216.9014,-70 236.6515,-70"/>
<polygon fill="#191970" stroke="#191970" points="176.1869,-66.5001 166.1869,-70 176.1868,-73.5001 176.1869,-66.5001"/>
</g>
<!-- Node0 -->
<g id="node4" class="node">
<title>Node0</title>
<g id="a_node4"><a xlink:href="classinternal_1_1IValidationErrorHandler.html" target="_top" xlink:title="internal::IValidationError\lHandler\&lt; SchemaDocumentType\l::SchemaType \&gt;">
<polygon fill="none" stroke="#000000" points="19.5,-.5 19.5,-41.5 181.5,-41.5 181.5,-.5 19.5,-.5"/>
<text text-anchor="start" x="27.5" y="-29.5" font-family="Helvetica,sans-Serif" font-size="10.00" fill="#000000">internal::IValidationError</text>
<text text-anchor="start" x="27.5" y="-18.5" font-family="Helvetica,sans-Serif" font-size="10.00" fill="#000000">Handler&lt; SchemaDocumentType</text>
<text text-anchor="middle" x="100.5" y="-7.5" font-family="Helvetica,sans-Serif" font-size="10.00" fill="#000000">::SchemaType &gt;</text>
</a>
</g>
</g>
<!-- Node0&#45;&gt;Node1 -->
<g id="edge3" class="edge">
<title>Node0&#45;&gt;Node1</title>
<path fill="none" stroke="#191970" d="M191.3805,-41.6164C206.4673,-45.0389 222.0114,-48.5651 236.7946,-51.9187"/>
<polygon fill="#191970" stroke="#191970" points="192.0715,-38.1843 181.545,-39.3852 190.5229,-45.0109 192.0715,-38.1843"/>
</g>
</g>
</svg>
