<?xml version="1.0" encoding="UTF-8" standalone="no"?>
<!DOCTYPE svg PUBLIC "-//W3C//DTD SVG 1.1//EN"
 "http://www.w3.org/Graphics/SVG/1.1/DTD/svg11.dtd">
<!-- Generated by graphviz version 2.40.1 (20161225.0304)
 -->
<!-- Title: Graphical Class Hierarchy Pages: 1 -->
<svg width="215pt" height="66pt"
 viewBox="0.00 0.00 215.00 66.00" xmlns="http://www.w3.org/2000/svg" xmlns:xlink="http://www.w3.org/1999/xlink">
<g id="graph0" class="graph" transform="scale(1 1) rotate(0) translate(4 62)">
<title>Graphical Class Hierarchy</title>
<!-- Node0 -->
<g id="node1" class="node">
<title>Node0</title>
<g id="a_node1"><a xlink:href="classCondition.html" target="_top" xlink:title="Condition">
<polygon fill="none" stroke="#000000" points="0,-19.5 0,-38.5 58,-38.5 58,-19.5 0,-19.5"/>
<text text-anchor="middle" x="29" y="-26.5" font-family="Helvetica,sans-Serif" font-size="10.00" fill="#000000">Condition</text>
</a>
</g>
</g>
<!-- Node1 -->
<g id="node2" class="node">
<title>Node1</title>
<g id="a_node2"><a xlink:href="classConditionInRange.html" target="_top" xlink:title="ConditionInRange">
<polygon fill="none" stroke="#000000" points="103,-38.5 103,-57.5 198,-57.5 198,-38.5 103,-38.5"/>
<text text-anchor="middle" x="150.5" y="-45.5" font-family="Helvetica,sans-Serif" font-size="10.00" fill="#000000">ConditionInRange</text>
</a>
</g>
</g>
<!-- Node0&#45;&gt;Node1 -->
<g id="edge1" class="edge">
<title>Node0&#45;&gt;Node1</title>
<path fill="none" stroke="#191970" d="M68.2349,-35.1355C79.2051,-36.851 91.2502,-38.7346 102.6585,-40.5186"/>
<polygon fill="#191970" stroke="#191970" points="68.523,-31.6381 58.1023,-33.551 67.4414,-38.554 68.523,-31.6381"/>
</g>
<!-- Node2 -->
<g id="node3" class="node">
<title>Node2</title>
<g id="a_node3"><a xlink:href="classConditionOutOfRange.html" target="_top" xlink:title="ConditionOutOfRange">
<polygon fill="none" stroke="#000000" points="94,-.5 94,-19.5 207,-19.5 207,-.5 94,-.5"/>
<text text-anchor="middle" x="150.5" y="-7.5" font-family="Helvetica,sans-Serif" font-size="10.00" fill="#000000">ConditionOutOfRange</text>
</a>
</g>
</g>
<!-- Node0&#45;&gt;Node2 -->
<g id="edge2" class="edge">
<title>Node0&#45;&gt;Node2</title>
<path fill="none" stroke="#191970" d="M68.0314,-22.8963C76.1643,-21.6245 84.8953,-20.2592 93.5243,-18.9098"/>
<polygon fill="#191970" stroke="#191970" points="67.4414,-19.446 58.1023,-24.449 68.523,-26.3619 67.4414,-19.446"/>
</g>
</g>
</svg>
