<?xml version="1.0" encoding="UTF-8" standalone="no"?>
<!DOCTYPE svg PUBLIC "-//W3C//DTD SVG 1.1//EN"
 "http://www.w3.org/Graphics/SVG/1.1/DTD/svg11.dtd">
<!-- Generated by graphviz version 2.40.1 (20161225.0304)
 -->
<!-- Title: Graphical Class Hierarchy Pages: 1 -->
<svg width="177pt" height="180pt"
 viewBox="0.00 0.00 177.00 180.00" xmlns="http://www.w3.org/2000/svg" xmlns:xlink="http://www.w3.org/1999/xlink">
<g id="graph0" class="graph" transform="scale(1 1) rotate(0) translate(4 176)">
<title>Graphical Class Hierarchy</title>
<!-- Node0 -->
<g id="node1" class="node">
<title>Node0</title>
<g id="a_node1"><a xlink:href="classState.html" target="_top" xlink:title="State">
<polygon fill="none" stroke="#000000" points="0,-76.5 0,-95.5 40,-95.5 40,-76.5 0,-76.5"/>
<text text-anchor="middle" x="20" y="-83.5" font-family="Helvetica,sans-Serif" font-size="10.00" fill="#000000">State</text>
</a>
</g>
</g>
<!-- Node1 -->
<g id="node2" class="node">
<title>Node1</title>
<g id="a_node2"><a xlink:href="classGameOverState.html" target="_top" xlink:title="GameOverState">
<polygon fill="none" stroke="#000000" points="79,-152.5 79,-171.5 166,-171.5 166,-152.5 79,-152.5"/>
<text text-anchor="middle" x="122.5" y="-159.5" font-family="Helvetica,sans-Serif" font-size="10.00" fill="#000000">GameOverState</text>
</a>
</g>
</g>
<!-- Node0&#45;&gt;Node1 -->
<g id="edge1" class="edge">
<title>Node0&#45;&gt;Node1</title>
<path fill="none" stroke="#191970" d="M33.8327,-103.4759C44.338,-115.8293 59.715,-132.0709 76,-143 81.3585,-146.5962 87.5046,-149.7009 93.5351,-152.2978"/>
<polygon fill="#191970" stroke="#191970" points="36.4488,-101.147 27.3868,-95.6578 31.0478,-105.6001 36.4488,-101.147"/>
</g>
<!-- Node2 -->
<g id="node3" class="node">
<title>Node2</title>
<g id="a_node3"><a xlink:href="classGamePlayState.html" target="_top" xlink:title="GamePlayState">
<polygon fill="none" stroke="#000000" points="79.5,-114.5 79.5,-133.5 165.5,-133.5 165.5,-114.5 79.5,-114.5"/>
<text text-anchor="middle" x="122.5" y="-121.5" font-family="Helvetica,sans-Serif" font-size="10.00" fill="#000000">GamePlayState</text>
</a>
</g>
</g>
<!-- Node0&#45;&gt;Node2 -->
<g id="edge2" class="edge">
<title>Node0&#45;&gt;Node2</title>
<path fill="none" stroke="#191970" d="M49.9949,-97.1201C64.8523,-102.6282 82.6063,-109.2101 96.8271,-114.4822"/>
<polygon fill="#191970" stroke="#191970" points="50.8438,-93.702 40.2507,-93.5076 48.4104,-100.2655 50.8438,-93.702"/>
</g>
<!-- Node3 -->
<g id="node4" class="node">
<title>Node3</title>
<g id="a_node4"><a xlink:href="classLoadingPlayState.html" target="_top" xlink:title="LoadingPlayState">
<polygon fill="none" stroke="#000000" points="76,-76.5 76,-95.5 169,-95.5 169,-76.5 76,-76.5"/>
<text text-anchor="middle" x="122.5" y="-83.5" font-family="Helvetica,sans-Serif" font-size="10.00" fill="#000000">LoadingPlayState</text>
</a>
</g>
</g>
<!-- Node0&#45;&gt;Node3 -->
<g id="edge3" class="edge">
<title>Node0&#45;&gt;Node3</title>
<path fill="none" stroke="#191970" d="M50.2913,-86C58.3615,-86 67.2693,-86 75.9923,-86"/>
<polygon fill="#191970" stroke="#191970" points="50.2507,-82.5001 40.2507,-86 50.2507,-89.5001 50.2507,-82.5001"/>
</g>
<!-- Node4 -->
<g id="node5" class="node">
<title>Node4</title>
<g id="a_node5"><a xlink:href="classMainMenuState.html" target="_top" xlink:title="MainMenuState">
<polygon fill="none" stroke="#000000" points="80,-38.5 80,-57.5 165,-57.5 165,-38.5 80,-38.5"/>
<text text-anchor="middle" x="122.5" y="-45.5" font-family="Helvetica,sans-Serif" font-size="10.00" fill="#000000">MainMenuState</text>
</a>
</g>
</g>
<!-- Node0&#45;&gt;Node4 -->
<g id="edge4" class="edge">
<title>Node0&#45;&gt;Node4</title>
<path fill="none" stroke="#191970" d="M49.9949,-74.8799C64.8523,-69.3718 82.6063,-62.7899 96.8271,-57.5178"/>
<polygon fill="#191970" stroke="#191970" points="48.4104,-71.7345 40.2507,-78.4924 50.8438,-78.298 48.4104,-71.7345"/>
</g>
<!-- Node5 -->
<g id="node6" class="node">
<title>Node5</title>
<g id="a_node6"><a xlink:href="classSplashState.html" target="_top" xlink:title="SplashState">
<polygon fill="none" stroke="#000000" points="87.5,-.5 87.5,-19.5 157.5,-19.5 157.5,-.5 87.5,-.5"/>
<text text-anchor="middle" x="122.5" y="-7.5" font-family="Helvetica,sans-Serif" font-size="10.00" fill="#000000">SplashState</text>
</a>
</g>
</g>
<!-- Node0&#45;&gt;Node5 -->
<g id="edge5" class="edge">
<title>Node0&#45;&gt;Node5</title>
<path fill="none" stroke="#191970" d="M33.8327,-68.5241C44.338,-56.1707 59.715,-39.9291 76,-29 81.3585,-25.4038 87.5046,-22.2991 93.5351,-19.7022"/>
<polygon fill="#191970" stroke="#191970" points="31.0478,-66.3999 27.3868,-76.3422 36.4488,-70.853 31.0478,-66.3999"/>
</g>
</g>
</svg>
