<?xml version="1.0" encoding="UTF-8" standalone="no"?>
<!DOCTYPE svg PUBLIC "-//W3C//DTD SVG 1.1//EN"
 "http://www.w3.org/Graphics/SVG/1.1/DTD/svg11.dtd">
<!-- Generated by graphviz version 2.40.1 (20161225.0304)
 -->
<!-- Title: Graphical Class Hierarchy Pages: 1 -->
<svg width="256pt" height="88pt"
 viewBox="0.00 0.00 256.00 88.00" xmlns="http://www.w3.org/2000/svg" xmlns:xlink="http://www.w3.org/1999/xlink">
<g id="graph0" class="graph" transform="scale(1 1) rotate(0) translate(4 84)">
<title>Graphical Class Hierarchy</title>
<!-- Node309 -->
<g id="node1" class="node">
<title>Node309</title>
<polygon fill="none" stroke="#bfbfbf" points="0,-30 0,-49 62,-49 62,-30 0,-30"/>
<text text-anchor="middle" x="31" y="-37" font-family="Helvetica,sans-Serif" font-size="10.00" fill="#000000">FalseType</text>
</g>
<!-- Node0 -->
<g id="node2" class="node">
<title>Node0</title>
<g id="a_node2"><a xlink:href="structinternal_1_1IsGenericValueImpl.html" target="_top" xlink:title="internal::IsGenericValue\lImpl\&lt; T, Encoding, Allocator \&gt;">
<polygon fill="none" stroke="#000000" points="98,-49.5 98,-79.5 248,-79.5 248,-49.5 98,-49.5"/>
<text text-anchor="start" x="106" y="-67.5" font-family="Helvetica,sans-Serif" font-size="10.00" fill="#000000">internal::IsGenericValue</text>
<text text-anchor="middle" x="173" y="-56.5" font-family="Helvetica,sans-Serif" font-size="10.00" fill="#000000">Impl&lt; T, Encoding, Allocator &gt;</text>
</a>
</g>
</g>
<!-- Node309&#45;&gt;Node0 -->
<g id="edge1" class="edge">
<title>Node309&#45;&gt;Node0</title>
<path fill="none" stroke="#191970" d="M72.1169,-46.7389C80.2813,-48.1763 89.0905,-49.7272 97.9839,-51.2929"/>
<polygon fill="#191970" stroke="#191970" points="72.6179,-43.2733 62.1625,-44.9864 71.4041,-50.1673 72.6179,-43.2733"/>
</g>
<!-- Node311 -->
<g id="node3" class="node">
<title>Node311</title>
<g id="a_node3"><a xlink:href="structinternal_1_1IsRefCounted.html" target="_top" xlink:title="internal::IsRefCounted\l\&lt; typename, typename \&gt;">
<polygon fill="none" stroke="#000000" points="110,-.5 110,-30.5 236,-30.5 236,-.5 110,-.5"/>
<text text-anchor="start" x="118" y="-18.5" font-family="Helvetica,sans-Serif" font-size="10.00" fill="#000000">internal::IsRefCounted</text>
<text text-anchor="middle" x="173" y="-7.5" font-family="Helvetica,sans-Serif" font-size="10.00" fill="#000000">&lt; typename, typename &gt;</text>
</a>
</g>
</g>
<!-- Node309&#45;&gt;Node311 -->
<g id="edge2" class="edge">
<title>Node309&#45;&gt;Node311</title>
<path fill="none" stroke="#191970" d="M72.1377,-32.5471C83.9308,-30.5539 97.0681,-28.3336 109.8607,-26.1714"/>
<polygon fill="#191970" stroke="#191970" points="71.4394,-29.1155 62.1625,-34.2331 72.606,-36.0176 71.4394,-29.1155"/>
</g>
</g>
</svg>
