<?xml version="1.0" encoding="UTF-8" standalone="no"?>
<!DOCTYPE svg PUBLIC "-//W3C//DTD SVG 1.1//EN"
 "http://www.w3.org/Graphics/SVG/1.1/DTD/svg11.dtd">
<!-- Generated by graphviz version 2.40.1 (20161225.0304)
 -->
<!-- Title: Graphical Class Hierarchy Pages: 1 -->
<svg width="258pt" height="78pt"
 viewBox="0.00 0.00 258.00 77.50" xmlns="http://www.w3.org/2000/svg" xmlns:xlink="http://www.w3.org/1999/xlink">
<g id="graph0" class="graph" transform="scale(1 1) rotate(0) translate(4 73.5)">
<title>Graphical Class Hierarchy</title>
<!-- Node360 -->
<g id="node1" class="node">
<title>Node360</title>
<polygon fill="none" stroke="#bfbfbf" points="0,-28 0,-47 53,-47 53,-28 0,-28"/>
<text text-anchor="middle" x="26.5" y="-35" font-family="Helvetica,sans-Serif" font-size="10.00" fill="#000000">allocator</text>
</g>
<!-- Node0 -->
<g id="node2" class="node">
<title>Node0</title>
<g id="a_node2"><a xlink:href="classStdAllocator.html" target="_top" xlink:title="StdAllocator\&lt; T, BaseAllocator \&gt;">
<polygon fill="none" stroke="#000000" points="89,-50 89,-69 250,-69 250,-50 89,-50"/>
<text text-anchor="middle" x="169.5" y="-57" font-family="Helvetica,sans-Serif" font-size="10.00" fill="#000000">StdAllocator&lt; T, BaseAllocator &gt;</text>
</a>
</g>
</g>
<!-- Node360&#45;&gt;Node0 -->
<g id="edge1" class="edge">
<title>Node360&#45;&gt;Node0</title>
<path fill="none" stroke="#191970" d="M63.3413,-43.1679C76.8015,-45.2387 92.4234,-47.6421 107.4751,-49.9577"/>
<polygon fill="#191970" stroke="#191970" points="63.478,-39.6478 53.0621,-41.5865 62.4136,-46.5664 63.478,-39.6478"/>
</g>
<!-- Node362 -->
<g id="node3" class="node">
<title>Node362</title>
<g id="a_node3"><a xlink:href="classStdAllocator_3_01void_00_01BaseAllocator_01_4.html" target="_top" xlink:title="StdAllocator\&lt; void,\l BaseAllocator \&gt;">
<polygon fill="none" stroke="#000000" points="119.5,-.5 119.5,-30.5 219.5,-30.5 219.5,-.5 119.5,-.5"/>
<text text-anchor="start" x="127.5" y="-18.5" font-family="Helvetica,sans-Serif" font-size="10.00" fill="#000000">StdAllocator&lt; void,</text>
<text text-anchor="middle" x="169.5" y="-7.5" font-family="Helvetica,sans-Serif" font-size="10.00" fill="#000000"> BaseAllocator &gt;</text>
</a>
</g>
</g>
<!-- Node360&#45;&gt;Node362 -->
<g id="edge2" class="edge">
<title>Node360&#45;&gt;Node362</title>
<path fill="none" stroke="#191970" d="M63.1941,-31.8548C80.2746,-29.227 100.8602,-26.06 119.349,-23.2155"/>
<polygon fill="#191970" stroke="#191970" points="62.4136,-28.4336 53.0621,-33.4135 63.478,-35.3522 62.4136,-28.4336"/>
</g>
</g>
</svg>
