<?xml version="1.0" encoding="UTF-8" standalone="no"?>
<!DOCTYPE svg PUBLIC "-//W3C//DTD SVG 1.1//EN"
 "http://www.w3.org/Graphics/SVG/1.1/DTD/svg11.dtd">
<!-- Generated by graphviz version 2.40.1 (20161225.0304)
 -->
<!-- Title: /mnt/hdd/fnky/C0de/CAPSTONE/clean_build/include/rapidjson/internal/itoa.h Pages: 1 -->
<svg width="536pt" height="384pt"
 viewBox="0.00 0.00 536.00 384.00" xmlns="http://www.w3.org/2000/svg" xmlns:xlink="http://www.w3.org/1999/xlink">
<g id="graph0" class="graph" transform="scale(1 1) rotate(0) translate(4 380)">
<title>/mnt/hdd/fnky/C0de/CAPSTONE/clean_build/include/rapidjson/internal/itoa.h</title>
<!-- Node5 -->
<g id="node1" class="node">
<title>Node5</title>
<polygon fill="#bfbfbf" stroke="#000000" points="300.5,-323.5 300.5,-375.5 427.5,-375.5 427.5,-323.5 300.5,-323.5"/>
<text text-anchor="start" x="308.5" y="-363.5" font-family="Helvetica,sans-Serif" font-size="10.00" fill="#000000">/mnt/hdd/fnky/C0de</text>
<text text-anchor="start" x="308.5" y="-352.5" font-family="Helvetica,sans-Serif" font-size="10.00" fill="#000000">/CAPSTONE/clean_build</text>
<text text-anchor="start" x="308.5" y="-341.5" font-family="Helvetica,sans-Serif" font-size="10.00" fill="#000000">/include/rapidjson/internal</text>
<text text-anchor="middle" x="364" y="-330.5" font-family="Helvetica,sans-Serif" font-size="10.00" fill="#000000">/itoa.h</text>
</g>
<!-- Node6 -->
<g id="node2" class="node">
<title>Node6</title>
<g id="a_node2"><a xlink:href="dtoa_8h.html" target="_top" xlink:title="/mnt/hdd/fnky/C0de\l/CAPSTONE/clean_build\l/include/rapidjson/internal\l/dtoa.h">
<polygon fill="none" stroke="#000000" points="208.5,-234.5 208.5,-286.5 335.5,-286.5 335.5,-234.5 208.5,-234.5"/>
<text text-anchor="start" x="216.5" y="-274.5" font-family="Helvetica,sans-Serif" font-size="10.00" fill="#000000">/mnt/hdd/fnky/C0de</text>
<text text-anchor="start" x="216.5" y="-263.5" font-family="Helvetica,sans-Serif" font-size="10.00" fill="#000000">/CAPSTONE/clean_build</text>
<text text-anchor="start" x="216.5" y="-252.5" font-family="Helvetica,sans-Serif" font-size="10.00" fill="#000000">/include/rapidjson/internal</text>
<text text-anchor="middle" x="272" y="-241.5" font-family="Helvetica,sans-Serif" font-size="10.00" fill="#000000">/dtoa.h</text>
</a>
</g>
</g>
<!-- Node5&#45;&gt;Node6 -->
<g id="edge1" class="edge">
<title>Node5&#45;&gt;Node6</title>
<path fill="none" stroke="#191970" d="M329.67,-316.2894C319.5082,-306.459 308.5328,-295.8415 298.9117,-286.5341"/>
<polygon fill="#191970" stroke="#191970" points="327.2737,-318.841 336.8946,-323.2784 332.1408,-313.8099 327.2737,-318.841"/>
</g>
<!-- Node7 -->
<g id="node3" class="node">
<title>Node7</title>
<g id="a_node3"><a xlink:href="writer_8h.html" target="_top" xlink:title="/mnt/hdd/fnky/C0de\l/CAPSTONE/clean_build\l/include/rapidjson/writer.h">
<polygon fill="none" stroke="#000000" points="226,-156.5 226,-197.5 354,-197.5 354,-156.5 226,-156.5"/>
<text text-anchor="start" x="234" y="-185.5" font-family="Helvetica,sans-Serif" font-size="10.00" fill="#000000">/mnt/hdd/fnky/C0de</text>
<text text-anchor="start" x="234" y="-174.5" font-family="Helvetica,sans-Serif" font-size="10.00" fill="#000000">/CAPSTONE/clean_build</text>
<text text-anchor="middle" x="290" y="-163.5" font-family="Helvetica,sans-Serif" font-size="10.00" fill="#000000">/include/rapidjson/writer.h</text>
</a>
</g>
</g>
<!-- Node5&#45;&gt;Node7 -->
<g id="edge7" class="edge">
<title>Node5&#45;&gt;Node7</title>
<path fill="none" stroke="#191970" d="M363.5383,-313.0621C361.939,-289.4247 357.3349,-258.5687 345,-234 338.0895,-220.2357 326.6984,-207.605 316.0698,-197.7506"/>
<polygon fill="#191970" stroke="#191970" points="360.0597,-313.5631 364.0787,-323.3661 367.0501,-313.1965 360.0597,-313.5631"/>
</g>
<!-- Node12 -->
<g id="node8" class="node">
<title>Node12</title>
<g id="a_node8"><a xlink:href="pointer_8h.html" target="_top" xlink:title="/mnt/hdd/fnky/C0de\l/CAPSTONE/clean_build\l/include/rapidjson/pointer.h">
<polygon fill="none" stroke="#000000" points="392.5,-240 392.5,-281 525.5,-281 525.5,-240 392.5,-240"/>
<text text-anchor="start" x="400.5" y="-269" font-family="Helvetica,sans-Serif" font-size="10.00" fill="#000000">/mnt/hdd/fnky/C0de</text>
<text text-anchor="start" x="400.5" y="-258" font-family="Helvetica,sans-Serif" font-size="10.00" fill="#000000">/CAPSTONE/clean_build</text>
<text text-anchor="middle" x="459" y="-247" font-family="Helvetica,sans-Serif" font-size="10.00" fill="#000000">/include/rapidjson/pointer.h</text>
</a>
</g>
</g>
<!-- Node5&#45;&gt;Node12 -->
<g id="edge8" class="edge">
<title>Node5&#45;&gt;Node12</title>
<path fill="none" stroke="#191970" d="M399.6037,-316.1449C412.1324,-304.4075 425.8413,-291.5645 436.9289,-281.1771"/>
<polygon fill="#191970" stroke="#191970" points="396.8942,-313.8873 391.9893,-323.2784 401.68,-318.9958 396.8942,-313.8873"/>
</g>
<!-- Node6&#45;&gt;Node7 -->
<g id="edge2" class="edge">
<title>Node6&#45;&gt;Node7</title>
<path fill="none" stroke="#191970" d="M279.8448,-224.1086C281.794,-215.0666 283.8167,-205.6836 285.539,-197.6941"/>
<polygon fill="#191970" stroke="#191970" points="276.3813,-223.5671 277.6953,-234.0801 283.2241,-225.0422 276.3813,-223.5671"/>
</g>
<!-- Node8 -->
<g id="node4" class="node">
<title>Node8</title>
<g id="a_node4"><a xlink:href="NetworkComponent_8h.html" target="_top" xlink:title="/mnt/hdd/fnky/C0de\l/CAPSTONE/clean_build\l/include/Components/NetworkComponent.h">
<polygon fill="none" stroke="#000000" points="87.5,-78.5 87.5,-119.5 294.5,-119.5 294.5,-78.5 87.5,-78.5"/>
<text text-anchor="start" x="95.5" y="-107.5" font-family="Helvetica,sans-Serif" font-size="10.00" fill="#000000">/mnt/hdd/fnky/C0de</text>
<text text-anchor="start" x="95.5" y="-96.5" font-family="Helvetica,sans-Serif" font-size="10.00" fill="#000000">/CAPSTONE/clean_build</text>
<text text-anchor="middle" x="191" y="-85.5" font-family="Helvetica,sans-Serif" font-size="10.00" fill="#000000">/include/Components/NetworkComponent.h</text>
</a>
</g>
</g>
<!-- Node7&#45;&gt;Node8 -->
<g id="edge3" class="edge">
<title>Node7&#45;&gt;Node8</title>
<path fill="none" stroke="#191970" d="M255.6577,-149.9424C242.9927,-139.9639 228.8624,-128.831 217.0495,-119.5239"/>
<polygon fill="#191970" stroke="#191970" points="253.7087,-152.8627 263.7297,-156.3022 258.0409,-147.3642 253.7087,-152.8627"/>
</g>
<!-- Node11 -->
<g id="node7" class="node">
<title>Node11</title>
<g id="a_node7"><a xlink:href="prettywriter_8h.html" target="_top" xlink:title="/mnt/hdd/fnky/C0de\l/CAPSTONE/clean_build\l/include/rapidjson/prettywriter.h">
<polygon fill="none" stroke="#000000" points="313,-78.5 313,-119.5 465,-119.5 465,-78.5 313,-78.5"/>
<text text-anchor="start" x="321" y="-107.5" font-family="Helvetica,sans-Serif" font-size="10.00" fill="#000000">/mnt/hdd/fnky/C0de</text>
<text text-anchor="start" x="321" y="-96.5" font-family="Helvetica,sans-Serif" font-size="10.00" fill="#000000">/CAPSTONE/clean_build</text>
<text text-anchor="middle" x="389" y="-85.5" font-family="Helvetica,sans-Serif" font-size="10.00" fill="#000000">/include/rapidjson/prettywriter.h</text>
</a>
</g>
</g>
<!-- Node7&#45;&gt;Node11 -->
<g id="edge6" class="edge">
<title>Node7&#45;&gt;Node11</title>
<path fill="none" stroke="#191970" d="M324.3423,-149.9424C337.0073,-139.9639 351.1376,-128.831 362.9505,-119.5239"/>
<polygon fill="#191970" stroke="#191970" points="321.9591,-147.3642 316.2703,-156.3022 326.2913,-152.8627 321.9591,-147.3642"/>
</g>
<!-- Node9 -->
<g id="node5" class="node">
<title>Node9</title>
<g id="a_node5"><a xlink:href="NetworkComponent_8cpp.html" target="_top" xlink:title="/mnt/hdd/fnky/C0de\l/CAPSTONE/clean_build\l/src/Components/NetworkComponent.cpp">
<polygon fill="none" stroke="#000000" points="0,-.5 0,-41.5 200,-41.5 200,-.5 0,-.5"/>
<text text-anchor="start" x="8" y="-29.5" font-family="Helvetica,sans-Serif" font-size="10.00" fill="#000000">/mnt/hdd/fnky/C0de</text>
<text text-anchor="start" x="8" y="-18.5" font-family="Helvetica,sans-Serif" font-size="10.00" fill="#000000">/CAPSTONE/clean_build</text>
<text text-anchor="middle" x="100" y="-7.5" font-family="Helvetica,sans-Serif" font-size="10.00" fill="#000000">/src/Components/NetworkComponent.cpp</text>
</a>
</g>
</g>
<!-- Node8&#45;&gt;Node9 -->
<g id="edge4" class="edge">
<title>Node8&#45;&gt;Node9</title>
<path fill="none" stroke="#191970" d="M158.9309,-71.5122C147.4883,-61.7043 134.8009,-50.8293 124.1381,-41.6898"/>
<polygon fill="#191970" stroke="#191970" points="156.7433,-74.2469 166.6137,-78.0974 161.2989,-68.9321 156.7433,-74.2469"/>
</g>
<!-- Node10 -->
<g id="node6" class="node">
<title>Node10</title>
<g id="a_node6"><a xlink:href="game_8cpp.html" target="_top" xlink:title="/mnt/hdd/fnky/C0de\l/CAPSTONE/clean_build\l/src/Window/game.cpp">
<polygon fill="none" stroke="#000000" points="218.5,-.5 218.5,-41.5 345.5,-41.5 345.5,-.5 218.5,-.5"/>
<text text-anchor="start" x="226.5" y="-29.5" font-family="Helvetica,sans-Serif" font-size="10.00" fill="#000000">/mnt/hdd/fnky/C0de</text>
<text text-anchor="start" x="226.5" y="-18.5" font-family="Helvetica,sans-Serif" font-size="10.00" fill="#000000">/CAPSTONE/clean_build</text>
<text text-anchor="middle" x="282" y="-7.5" font-family="Helvetica,sans-Serif" font-size="10.00" fill="#000000">/src/Window/game.cpp</text>
</a>
</g>
</g>
<!-- Node8&#45;&gt;Node10 -->
<g id="edge5" class="edge">
<title>Node8&#45;&gt;Node10</title>
<path fill="none" stroke="#191970" d="M223.0691,-71.5122C234.5117,-61.7043 247.1991,-50.8293 257.8619,-41.6898"/>
<polygon fill="#191970" stroke="#191970" points="220.7011,-68.9321 215.3863,-78.0974 225.2567,-74.2469 220.7011,-68.9321"/>
</g>
<!-- Node13 -->
<g id="node9" class="node">
<title>Node13</title>
<g id="a_node9"><a xlink:href="schema_8h.html" target="_top" xlink:title="/mnt/hdd/fnky/C0de\l/CAPSTONE/clean_build\l/include/rapidjson/schema.h">
<polygon fill="none" stroke="#000000" points="390,-156.5 390,-197.5 528,-197.5 528,-156.5 390,-156.5"/>
<text text-anchor="start" x="398" y="-185.5" font-family="Helvetica,sans-Serif" font-size="10.00" fill="#000000">/mnt/hdd/fnky/C0de</text>
<text text-anchor="start" x="398" y="-174.5" font-family="Helvetica,sans-Serif" font-size="10.00" fill="#000000">/CAPSTONE/clean_build</text>
<text text-anchor="middle" x="459" y="-163.5" font-family="Helvetica,sans-Serif" font-size="10.00" fill="#000000">/include/rapidjson/schema.h</text>
</a>
</g>
</g>
<!-- Node12&#45;&gt;Node13 -->
<g id="edge9" class="edge">
<title>Node12&#45;&gt;Node13</title>
<path fill="none" stroke="#191970" d="M459,-229.6593C459,-219.0064 459,-207.3344 459,-197.6924"/>
<polygon fill="#191970" stroke="#191970" points="455.5001,-229.8595 459,-239.8595 462.5001,-229.8596 455.5001,-229.8595"/>
</g>
</g>
</svg>
