<?xml version="1.0" encoding="UTF-8" standalone="no"?>
<!DOCTYPE svg PUBLIC "-//W3C//DTD SVG 1.1//EN"
 "http://www.w3.org/Graphics/SVG/1.1/DTD/svg11.dtd">
<!-- Generated by graphviz version 2.40.1 (20161225.0304)
 -->
<!-- Title: /mnt/hdd/fnky/C0de/CAPSTONE/clean_build/src/Loaders/LoadingGameObjects.cpp Pages: 1 -->
<svg width="2977pt" height="363pt"
 viewBox="0.00 0.00 2977.09 363.00" xmlns="http://www.w3.org/2000/svg" xmlns:xlink="http://www.w3.org/1999/xlink">
<g id="graph0" class="graph" transform="scale(1 1) rotate(0) translate(4 359)">
<title>/mnt/hdd/fnky/C0de/CAPSTONE/clean_build/src/Loaders/LoadingGameObjects.cpp</title>
<!-- Node0 -->
<g id="node1" class="node">
<title>Node0</title>
<polygon fill="#bfbfbf" stroke="#000000" points="1741.5646,-313.5 1741.5646,-354.5 1927.5646,-354.5 1927.5646,-313.5 1741.5646,-313.5"/>
<text text-anchor="start" x="1749.5646" y="-342.5" font-family="Helvetica,sans-Serif" font-size="10.00" fill="#000000">/mnt/hdd/fnky/C0de</text>
<text text-anchor="start" x="1749.5646" y="-331.5" font-family="Helvetica,sans-Serif" font-size="10.00" fill="#000000">/CAPSTONE/clean_build</text>
<text text-anchor="middle" x="1834.5646" y="-320.5" font-family="Helvetica,sans-Serif" font-size="10.00" fill="#000000">/src/Loaders/LoadingGameObjects.cpp</text>
</g>
<!-- Node1 -->
<g id="node2" class="node">
<title>Node1</title>
<g id="a_node2"><a xlink:href="LoadingGameObjects_8h.html" target="_top" xlink:title="../../include/Loaders\l/LoadingGameObjects.h">
<polygon fill="none" stroke="#000000" points="247.5646,-179.5 247.5646,-209.5 369.5646,-209.5 369.5646,-179.5 247.5646,-179.5"/>
<text text-anchor="start" x="255.5646" y="-197.5" font-family="Helvetica,sans-Serif" font-size="10.00" fill="#000000">../../include/Loaders</text>
<text text-anchor="middle" x="308.5646" y="-186.5" font-family="Helvetica,sans-Serif" font-size="10.00" fill="#000000">/LoadingGameObjects.h</text>
</a>
</g>
</g>
<!-- Node0&#45;&gt;Node1 -->
<g id="edge1" class="edge">
<title>Node0&#45;&gt;Node1</title>
<path fill="none" stroke="#191970" d="M1741.4127,-333.38C1446.4872,-330.9822 545.374,-320.1668 421.5646,-277 385.7699,-264.52 351.6227,-236.5962 330.4168,-216.6962"/>
<polygon fill="#191970" stroke="#191970" points="332.5803,-213.9208 322.9467,-209.5112 327.7277,-218.9659 332.5803,-213.9208"/>
</g>
<!-- Node2 -->
<g id="node3" class="node">
<title>Node2</title>
<polygon fill="none" stroke="#bfbfbf" points="1956.5646,-56.5 1956.5646,-75.5 2008.5646,-75.5 2008.5646,-56.5 1956.5646,-56.5"/>
<text text-anchor="middle" x="1982.5646" y="-63.5" font-family="Helvetica,sans-Serif" font-size="10.00" fill="#000000">memory</text>
</g>
<!-- Node0&#45;&gt;Node2 -->
<g id="edge56" class="edge">
<title>Node0&#45;&gt;Node2</title>
<path fill="none" stroke="#191970" d="M1853.0291,-313.4824C1861.9579,-302.9989 1872.467,-289.7836 1880.5646,-277 1922.955,-210.0793 1959.8644,-122.9056 1975.1109,-84.9921"/>
<polygon fill="#191970" stroke="#191970" points="1978.378,-86.248 1978.8233,-75.6626 1971.874,-83.6599 1978.378,-86.248"/>
</g>
<!-- Node7 -->
<g id="node8" class="node">
<title>Node7</title>
<g id="a_node8"><a xlink:href="TransformComponent_8h.html" target="_top" xlink:title="../../include/Components\l/TransformComponent.h">
<polygon fill="none" stroke="#000000" points="1727.5646,-246.5 1727.5646,-276.5 1851.5646,-276.5 1851.5646,-246.5 1727.5646,-246.5"/>
<text text-anchor="start" x="1735.5646" y="-264.5" font-family="Helvetica,sans-Serif" font-size="10.00" fill="#000000">../../include/Components</text>
<text text-anchor="middle" x="1789.5646" y="-253.5" font-family="Helvetica,sans-Serif" font-size="10.00" fill="#000000">/TransformComponent.h</text>
</a>
</g>
</g>
<!-- Node0&#45;&gt;Node7 -->
<g id="edge7" class="edge">
<title>Node0&#45;&gt;Node7</title>
<path fill="none" stroke="#191970" d="M1821.7898,-313.4183C1816.3331,-304.627 1809.9314,-294.3132 1804.2779,-285.2047"/>
<polygon fill="#191970" stroke="#191970" points="1807.1839,-283.2497 1798.9365,-276.5991 1801.2364,-286.9413 1807.1839,-283.2497"/>
</g>
<!-- Node11 -->
<g id="node12" class="node">
<title>Node11</title>
<g id="a_node12"><a xlink:href="PhysicsComponent_8h.html" target="_top" xlink:title="../../include/Components\l/PhysicsComponent.h">
<polygon fill="none" stroke="#000000" points="957.5646,-246.5 957.5646,-276.5 1081.5646,-276.5 1081.5646,-246.5 957.5646,-246.5"/>
<text text-anchor="start" x="965.5646" y="-264.5" font-family="Helvetica,sans-Serif" font-size="10.00" fill="#000000">../../include/Components</text>
<text text-anchor="middle" x="1019.5646" y="-253.5" font-family="Helvetica,sans-Serif" font-size="10.00" fill="#000000">/PhysicsComponent.h</text>
</a>
</g>
</g>
<!-- Node0&#45;&gt;Node11 -->
<g id="edge12" class="edge">
<title>Node0&#45;&gt;Node11</title>
<path fill="none" stroke="#191970" d="M1741.4189,-326.8284C1611.4713,-316.6597 1368.4363,-297.0481 1161.5646,-277 1138.875,-274.8011 1114.1715,-272.1829 1091.8257,-269.73"/>
<polygon fill="#191970" stroke="#191970" points="1092.064,-266.2352 1081.7404,-268.6168 1091.2959,-273.1929 1092.064,-266.2352"/>
</g>
<!-- Node15 -->
<g id="node16" class="node">
<title>Node15</title>
<polygon fill="none" stroke="#bfbfbf" points="1109.0646,-185 1109.0646,-204 1202.0646,-204 1202.0646,-185 1109.0646,-185"/>
<text text-anchor="middle" x="1155.5646" y="-192" font-family="Helvetica,sans-Serif" font-size="10.00" fill="#000000">box2d/b2_world.h</text>
</g>
<!-- Node0&#45;&gt;Node15 -->
<g id="edge54" class="edge">
<title>Node0&#45;&gt;Node15</title>
<path fill="none" stroke="#191970" d="M1741.3574,-324.9704C1658.8038,-316.0049 1535.3284,-300.2227 1429.5646,-277 1342.9529,-257.9825 1243.914,-225.3769 1191.8846,-207.3773"/>
<polygon fill="#191970" stroke="#191970" points="1193.0214,-204.0671 1182.4265,-204.0867 1190.7211,-210.6784 1193.0214,-204.0671"/>
</g>
<!-- Node17 -->
<g id="node18" class="node">
<title>Node17</title>
<polygon fill="none" stroke="#bfbfbf" points="1048.0646,-185 1048.0646,-204 1091.0646,-204 1091.0646,-185 1048.0646,-185"/>
<text text-anchor="middle" x="1069.5646" y="-192" font-family="Helvetica,sans-Serif" font-size="10.00" fill="#000000">cstdio</text>
</g>
<!-- Node0&#45;&gt;Node17 -->
<g id="edge55" class="edge">
<title>Node0&#45;&gt;Node17</title>
<path fill="none" stroke="#191970" d="M1741.0992,-329.4285C1635.7795,-322.9827 1459.9145,-308.3115 1311.5646,-277 1215.2936,-256.6806 1191.7336,-247.0028 1100.5646,-210 1099.2056,-209.4484 1097.8243,-208.8613 1096.4374,-208.2506"/>
<polygon fill="#191970" stroke="#191970" points="1097.917,-205.0787 1087.3772,-204 1094.9439,-211.416 1097.917,-205.0787"/>
</g>
<!-- Node18 -->
<g id="node19" class="node">
<title>Node18</title>
<g id="a_node19"><a xlink:href="RenderComponent_8h.html" target="_top" xlink:title="../../include/Components\l/RenderComponent.h">
<polygon fill="none" stroke="#000000" points="1438.5646,-246.5 1438.5646,-276.5 1562.5646,-276.5 1562.5646,-246.5 1438.5646,-246.5"/>
<text text-anchor="start" x="1446.5646" y="-264.5" font-family="Helvetica,sans-Serif" font-size="10.00" fill="#000000">../../include/Components</text>
<text text-anchor="middle" x="1500.5646" y="-253.5" font-family="Helvetica,sans-Serif" font-size="10.00" fill="#000000">/RenderComponent.h</text>
</a>
</g>
</g>
<!-- Node0&#45;&gt;Node18 -->
<g id="edge23" class="edge">
<title>Node0&#45;&gt;Node18</title>
<path fill="none" stroke="#191970" d="M1741.527,-313.8047C1688.1649,-302.2216 1622.177,-287.8979 1572.7554,-277.1702"/>
<polygon fill="#191970" stroke="#191970" points="1573.3012,-273.7072 1562.7863,-275.0062 1571.8163,-280.5479 1573.3012,-273.7072"/>
</g>
<!-- Node26 -->
<g id="node27" class="node">
<title>Node26</title>
<g id="a_node27"><a xlink:href="texture_8h.html" target="_top" xlink:title="texture.h">
<polygon fill="none" stroke="#000000" points="1117.0646,-118 1117.0646,-137 1172.0646,-137 1172.0646,-118 1117.0646,-118"/>
<text text-anchor="middle" x="1144.5646" y="-125" font-family="Helvetica,sans-Serif" font-size="10.00" fill="#000000">texture.h</text>
</a>
</g>
</g>
<!-- Node0&#45;&gt;Node26 -->
<g id="edge98" class="edge">
<title>Node0&#45;&gt;Node26</title>
<path fill="none" stroke="#191970" d="M1741.377,-332.8969C1445.0879,-328.415 539.1549,-306.8375 454.5646,-210 349.1784,-89.3557 -381.8283,-241.7805 938.5646,-143 997.293,-138.6064 1065.4361,-133.472 1106.7535,-130.3548"/>
<polygon fill="#191970" stroke="#191970" points="1107.2014,-133.831 1116.9097,-129.5884 1106.6746,-126.8509 1107.2014,-133.831"/>
</g>
<!-- Node27 -->
<g id="node28" class="node">
<title>Node27</title>
<polygon fill="none" stroke="#bfbfbf" points="1786.0646,-118 1786.0646,-137 1827.0646,-137 1827.0646,-118 1786.0646,-118"/>
<text text-anchor="middle" x="1806.5646" y="-125" font-family="Helvetica,sans-Serif" font-size="10.00" fill="#000000">string</text>
</g>
<!-- Node0&#45;&gt;Node27 -->
<g id="edge57" class="edge">
<title>Node0&#45;&gt;Node27</title>
<path fill="none" stroke="#191970" d="M1846.4112,-313.2739C1862.2425,-282.6549 1886.0599,-224.095 1865.5646,-179 1858.7083,-163.9144 1845.0081,-151.5202 1832.5343,-142.674"/>
<polygon fill="#191970" stroke="#191970" points="1834.4587,-139.7504 1824.1937,-137.1269 1830.5822,-145.5791 1834.4587,-139.7504"/>
</g>
<!-- Node28 -->
<g id="node29" class="node">
<title>Node28</title>
<g id="a_node29"><a xlink:href="AIComponent_8h.html" target="_top" xlink:title="../../include/Components\l/AIComponent.h">
<polygon fill="none" stroke="#000000" points="105.5646,-179.5 105.5646,-209.5 229.5646,-209.5 229.5646,-179.5 105.5646,-179.5"/>
<text text-anchor="start" x="113.5646" y="-197.5" font-family="Helvetica,sans-Serif" font-size="10.00" fill="#000000">../../include/Components</text>
<text text-anchor="middle" x="167.5646" y="-186.5" font-family="Helvetica,sans-Serif" font-size="10.00" fill="#000000">/AIComponent.h</text>
</a>
</g>
</g>
<!-- Node0&#45;&gt;Node28 -->
<g id="edge45" class="edge">
<title>Node0&#45;&gt;Node28</title>
<path fill="none" stroke="#191970" d="M1741.4104,-332.3298C1439.1243,-326.6407 497.3163,-306.7086 363.5646,-277 305.0882,-264.0114 242.0042,-234.3475 203.6425,-214.363"/>
<polygon fill="#191970" stroke="#191970" points="204.9176,-211.0785 194.44,-209.5068 201.6506,-217.2694 204.9176,-211.0785"/>
</g>
<!-- Node31 -->
<g id="node32" class="node">
<title>Node31</title>
<polygon fill="none" stroke="#bfbfbf" points="1945.5646,-252 1945.5646,-271 1985.5646,-271 1985.5646,-252 1945.5646,-252"/>
<text text-anchor="middle" x="1965.5646" y="-259" font-family="Helvetica,sans-Serif" font-size="10.00" fill="#000000">utility</text>
</g>
<!-- Node0&#45;&gt;Node31 -->
<g id="edge58" class="edge">
<title>Node0&#45;&gt;Node31</title>
<path fill="none" stroke="#191970" d="M1871.7536,-313.4183C1893.3355,-301.4741 1919.9954,-286.7196 1939.372,-275.9959"/>
<polygon fill="#191970" stroke="#191970" points="1941.1902,-278.99 1948.2449,-271.0853 1937.8006,-272.8653 1941.1902,-278.99"/>
</g>
<!-- Node32 -->
<g id="node33" class="node">
<title>Node32</title>
<g id="a_node33"><a xlink:href="Texture__Actor_8h.html" target="_top" xlink:title="../../include/Actors\l/Texture_Actor.h">
<polygon fill="none" stroke="#000000" points="2273.0646,-246.5 2273.0646,-276.5 2370.0646,-276.5 2370.0646,-246.5 2273.0646,-246.5"/>
<text text-anchor="start" x="2281.0646" y="-264.5" font-family="Helvetica,sans-Serif" font-size="10.00" fill="#000000">../../include/Actors</text>
<text text-anchor="middle" x="2321.5646" y="-253.5" font-family="Helvetica,sans-Serif" font-size="10.00" fill="#000000">/Texture_Actor.h</text>
</a>
</g>
</g>
<!-- Node0&#45;&gt;Node32 -->
<g id="edge59" class="edge">
<title>Node0&#45;&gt;Node32</title>
<path fill="none" stroke="#191970" d="M1927.6643,-324.4013C2013.8808,-314.8229 2145.4574,-298.4522 2258.5646,-277 2260.0171,-276.7245 2261.4862,-276.4365 2262.9665,-276.1381"/>
<polygon fill="#191970" stroke="#191970" points="2263.7866,-279.542 2272.8391,-274.0373 2262.3296,-272.6953 2263.7866,-279.542"/>
</g>
<!-- Node33 -->
<g id="node34" class="node">
<title>Node33</title>
<g id="a_node34"><a xlink:href="Actor_8h.html" target="_top" xlink:title="Actor.h">
<polygon fill="none" stroke="#000000" points="2124.5646,-185 2124.5646,-204 2172.5646,-204 2172.5646,-185 2124.5646,-185"/>
<text text-anchor="middle" x="2148.5646" y="-192" font-family="Helvetica,sans-Serif" font-size="10.00" fill="#000000">Actor.h</text>
</a>
</g>
</g>
<!-- Node0&#45;&gt;Node33 -->
<g id="edge67" class="edge">
<title>Node0&#45;&gt;Node33</title>
<path fill="none" stroke="#191970" d="M1927.9538,-326.7405C2037.3849,-317.2678 2206.3256,-299.247 2225.5646,-277 2246.8185,-252.4231 2208.2193,-225.0658 2178.3961,-208.8449"/>
<polygon fill="#191970" stroke="#191970" points="2179.9807,-205.7239 2169.4984,-204.1838 2176.7324,-211.9246 2179.9807,-205.7239"/>
</g>
<!-- Node34 -->
<g id="node35" class="node">
<title>Node34</title>
<g id="a_node35"><a xlink:href="NPC__Actor_8h.html" target="_top" xlink:title="../../include/Actors\l/NPC_Actor.h">
<polygon fill="none" stroke="#000000" points="2418.0646,-246.5 2418.0646,-276.5 2515.0646,-276.5 2515.0646,-246.5 2418.0646,-246.5"/>
<text text-anchor="start" x="2426.0646" y="-264.5" font-family="Helvetica,sans-Serif" font-size="10.00" fill="#000000">../../include/Actors</text>
<text text-anchor="middle" x="2466.5646" y="-253.5" font-family="Helvetica,sans-Serif" font-size="10.00" fill="#000000">/NPC_Actor.h</text>
</a>
</g>
</g>
<!-- Node0&#45;&gt;Node34 -->
<g id="edge68" class="edge">
<title>Node0&#45;&gt;Node34</title>
<path fill="none" stroke="#191970" d="M1927.8734,-326.303C2036.6031,-316.8568 2221.5443,-299.3104 2379.5646,-277 2388.7127,-275.7084 2398.3709,-274.1668 2407.7931,-272.5643"/>
<polygon fill="#191970" stroke="#191970" points="2408.6359,-275.9704 2417.8892,-270.8104 2407.4377,-269.0737 2408.6359,-275.9704"/>
</g>
<!-- Node43 -->
<g id="node44" class="node">
<title>Node43</title>
<g id="a_node44"><a xlink:href="Platform__Actor_8h.html" target="_top" xlink:title="../../include/Actors\l/Platform_Actor.h">
<polygon fill="none" stroke="#000000" points="2119.0646,-246.5 2119.0646,-276.5 2216.0646,-276.5 2216.0646,-246.5 2119.0646,-246.5"/>
<text text-anchor="start" x="2127.0646" y="-264.5" font-family="Helvetica,sans-Serif" font-size="10.00" fill="#000000">../../include/Actors</text>
<text text-anchor="middle" x="2167.5646" y="-253.5" font-family="Helvetica,sans-Serif" font-size="10.00" fill="#000000">/Platform_Actor.h</text>
</a>
</g>
</g>
<!-- Node0&#45;&gt;Node43 -->
<g id="edge90" class="edge">
<title>Node0&#45;&gt;Node43</title>
<path fill="none" stroke="#191970" d="M1927.8271,-316.2309C1978.8418,-306.1572 2043.3505,-292.8469 2108.7248,-277.374"/>
<polygon fill="#191970" stroke="#191970" points="2109.8813,-280.6965 2118.7979,-274.9741 2108.259,-273.8871 2109.8813,-280.6965"/>
</g>
<!-- Node44 -->
<g id="node45" class="node">
<title>Node44</title>
<g id="a_node45"><a xlink:href="Edge__Actor_8h.html" target="_top" xlink:title="../../include/Actors\l/Edge_Actor.h">
<polygon fill="none" stroke="#000000" points="2004.0646,-246.5 2004.0646,-276.5 2101.0646,-276.5 2101.0646,-246.5 2004.0646,-246.5"/>
<text text-anchor="start" x="2012.0646" y="-264.5" font-family="Helvetica,sans-Serif" font-size="10.00" fill="#000000">../../include/Actors</text>
<text text-anchor="middle" x="2052.5646" y="-253.5" font-family="Helvetica,sans-Serif" font-size="10.00" fill="#000000">/Edge_Actor.h</text>
</a>
</g>
</g>
<!-- Node0&#45;&gt;Node44 -->
<g id="edge94" class="edge">
<title>Node0&#45;&gt;Node44</title>
<path fill="none" stroke="#191970" d="M1896.4515,-313.4183C1928.2558,-302.8412 1966.6866,-290.0603 1997.4592,-279.8263"/>
<polygon fill="#191970" stroke="#191970" points="1998.7787,-283.0761 2007.1632,-276.5991 1996.5696,-276.4338 1998.7787,-283.0761"/>
</g>
<!-- Node1&#45;&gt;Node2 -->
<g id="edge2" class="edge">
<title>Node1&#45;&gt;Node2</title>
<path fill="none" stroke="#191970" d="M369.7937,-185.6568C386.5616,-183.3563 404.7494,-180.9724 421.5646,-179 726.2575,-143.2591 802.6428,-134.9567 1108.5646,-112 1433.246,-87.6356 1826.7421,-71.8299 1946.3669,-67.3255"/>
<polygon fill="#191970" stroke="#191970" points="1946.5781,-70.8201 1956.4403,-66.9486 1946.3164,-63.825 1946.5781,-70.8201"/>
</g>
<!-- Node3 -->
<g id="node4" class="node">
<title>Node3</title>
<polygon fill="none" stroke="#bfbfbf" points="1330.5646,-118 1330.5646,-137 1374.5646,-137 1374.5646,-118 1330.5646,-118"/>
<text text-anchor="middle" x="1352.5646" y="-125" font-family="Helvetica,sans-Serif" font-size="10.00" fill="#000000">vector</text>
</g>
<!-- Node1&#45;&gt;Node3 -->
<g id="edge3" class="edge">
<title>Node1&#45;&gt;Node3</title>
<path fill="none" stroke="#191970" d="M369.5765,-187.1387C395.7135,-184.2146 426.602,-181.0627 454.5646,-179 646.8748,-164.8139 1134.85,-191.1882 1321.5646,-143 1323.4873,-142.5038 1325.4294,-141.8779 1327.354,-141.1641"/>
<polygon fill="#191970" stroke="#191970" points="1328.9257,-144.2962 1336.6597,-137.0549 1326.098,-137.8927 1328.9257,-144.2962"/>
</g>
<!-- Node4 -->
<g id="node5" class="node">
<title>Node4</title>
<polygon fill="none" stroke="#bfbfbf" points="308.0646,-118 308.0646,-137 391.0646,-137 391.0646,-118 308.0646,-118"/>
<text text-anchor="middle" x="349.5646" y="-125" font-family="Helvetica,sans-Serif" font-size="10.00" fill="#000000">unordered_map</text>
</g>
<!-- Node1&#45;&gt;Node4 -->
<g id="edge4" class="edge">
<title>Node1&#45;&gt;Node4</title>
<path fill="none" stroke="#191970" d="M317.8682,-179.2967C323.946,-169.3645 331.9181,-156.3371 338.3465,-145.8321"/>
<polygon fill="#191970" stroke="#191970" points="341.4832,-147.4115 343.7175,-137.055 335.5125,-143.7578 341.4832,-147.4115"/>
</g>
<!-- Node5 -->
<g id="node6" class="node">
<title>Node5</title>
<polygon fill="none" stroke="#bfbfbf" points="233.5646,-118 233.5646,-137 289.5646,-137 289.5646,-118 233.5646,-118"/>
<text text-anchor="middle" x="261.5646" y="-125" font-family="Helvetica,sans-Serif" font-size="10.00" fill="#000000">tinyxml.h</text>
</g>
<!-- Node1&#45;&gt;Node5 -->
<g id="edge5" class="edge">
<title>Node1&#45;&gt;Node5</title>
<path fill="none" stroke="#191970" d="M297.8996,-179.2967C290.8612,-169.2631 281.6069,-156.0709 274.1994,-145.5113"/>
<polygon fill="#191970" stroke="#191970" points="276.8755,-143.2316 268.2674,-137.055 271.1449,-147.2516 276.8755,-143.2316"/>
</g>
<!-- Node6 -->
<g id="node7" class="node">
<title>Node6</title>
<polygon fill="none" stroke="#bfbfbf" points="150.5646,-56.5 150.5646,-75.5 230.5646,-75.5 230.5646,-56.5 150.5646,-56.5"/>
<text text-anchor="middle" x="190.5646" y="-63.5" font-family="Helvetica,sans-Serif" font-size="10.00" fill="#000000">box2d/box2d.h</text>
</g>
<!-- Node1&#45;&gt;Node6 -->
<g id="edge6" class="edge">
<title>Node1&#45;&gt;Node6</title>
<path fill="none" stroke="#191970" d="M274.0702,-179.4248C257.3751,-170.7372 238.0738,-158.4553 224.5646,-143 209.8909,-126.2124 200.6308,-102.0835 195.5437,-85.3276"/>
<polygon fill="#191970" stroke="#191970" points="198.8656,-84.2112 192.7884,-75.5326 192.1271,-86.1068 198.8656,-84.2112"/>
</g>
<!-- Node8 -->
<g id="node9" class="node">
<title>Node8</title>
<g id="a_node9"><a xlink:href="Components_2Component_8h.html" target="_top" xlink:title="Component.h">
<polygon fill="none" stroke="#000000" points="2011.0646,-118 2011.0646,-137 2086.0646,-137 2086.0646,-118 2011.0646,-118"/>
<text text-anchor="middle" x="2048.5646" y="-125" font-family="Helvetica,sans-Serif" font-size="10.00" fill="#000000">Component.h</text>
</a>
</g>
</g>
<!-- Node7&#45;&gt;Node8 -->
<g id="edge8" class="edge">
<title>Node7&#45;&gt;Node8</title>
<path fill="none" stroke="#191970" d="M1818.7717,-246.389C1869.1266,-220.3367 1971.6094,-167.3147 2020.8865,-141.8199"/>
<polygon fill="#191970" stroke="#191970" points="2022.728,-144.808 2030.0013,-137.1042 2019.5113,-138.5908 2022.728,-144.808"/>
</g>
<!-- Node9 -->
<g id="node10" class="node">
<title>Node9</title>
<polygon fill="none" stroke="#bfbfbf" points="1532.5646,-118 1532.5646,-137 1602.5646,-137 1602.5646,-118 1532.5646,-118"/>
<text text-anchor="middle" x="1567.5646" y="-125" font-family="Helvetica,sans-Serif" font-size="10.00" fill="#000000">glm/glm.hpp</text>
</g>
<!-- Node7&#45;&gt;Node9 -->
<g id="edge10" class="edge">
<title>Node7&#45;&gt;Node9</title>
<path fill="none" stroke="#191970" d="M1813.5791,-246.4513C1837.5752,-229.5644 1868.3932,-201.5785 1849.5646,-179 1819.9443,-143.4805 1684.6927,-132.3908 1612.8019,-128.9804"/>
<polygon fill="#191970" stroke="#191970" points="1612.8203,-125.4779 1602.6749,-128.531 1612.5098,-132.471 1612.8203,-125.4779"/>
</g>
<!-- Node10 -->
<g id="node11" class="node">
<title>Node10</title>
<polygon fill="none" stroke="#bfbfbf" points="1696.5646,-185 1696.5646,-204 1840.5646,-204 1840.5646,-185 1696.5646,-185"/>
<text text-anchor="middle" x="1768.5646" y="-192" font-family="Helvetica,sans-Serif" font-size="10.00" fill="#000000">glm/gtc/matrix_transform.hpp</text>
</g>
<!-- Node7&#45;&gt;Node10 -->
<g id="edge11" class="edge">
<title>Node7&#45;&gt;Node10</title>
<path fill="none" stroke="#191970" d="M1784.7994,-246.2967C1781.7816,-236.6685 1777.8522,-224.1318 1774.6151,-213.8038"/>
<polygon fill="#191970" stroke="#191970" points="1777.8902,-212.5504 1771.5595,-204.055 1771.2106,-214.6441 1777.8902,-212.5504"/>
</g>
<!-- Node8&#45;&gt;Node2 -->
<g id="edge9" class="edge">
<title>Node8&#45;&gt;Node2</title>
<path fill="none" stroke="#191970" d="M2038.2521,-117.8906C2028.1404,-108.4683 2012.5204,-93.9134 2000.3939,-82.6137"/>
<polygon fill="#191970" stroke="#191970" points="2002.7247,-80.0015 1993.0225,-75.7449 1997.9526,-85.1228 2002.7247,-80.0015"/>
</g>
<!-- Node11&#45;&gt;Node2 -->
<g id="edge22" class="edge">
<title>Node11&#45;&gt;Node2</title>
<path fill="none" stroke="#191970" d="M1018.8522,-246.1787C1018.8692,-227.7055 1021.8378,-196.9131 1039.5646,-179 1085.3614,-132.7219 1119.717,-163.3442 1181.5646,-143 1216.2177,-131.6012 1222.0071,-120.1505 1257.5646,-112 1390.8868,-81.4397 1818.747,-69.6431 1946.3273,-66.7527"/>
<polygon fill="#191970" stroke="#191970" points="1946.4422,-70.2511 1956.362,-66.5298 1946.2867,-63.2528 1946.4422,-70.2511"/>
</g>
<!-- Node11&#45;&gt;Node6 -->
<g id="edge21" class="edge">
<title>Node11&#45;&gt;Node6</title>
<path fill="none" stroke="#191970" d="M957.4974,-259.1082C819.4604,-253.3251 495.914,-237.0338 454.5646,-210 412.9409,-182.7869 440.4112,-141.7547 400.5646,-112 375.7011,-93.4336 294.537,-79.5789 240.7017,-72.1482"/>
<polygon fill="#191970" stroke="#191970" points="241.0342,-68.6614 230.6558,-70.792 240.0976,-75.5985 241.0342,-68.6614"/>
</g>
<!-- Node11&#45;&gt;Node8 -->
<g id="edge20" class="edge">
<title>Node11&#45;&gt;Node8</title>
<path fill="none" stroke="#191970" d="M1081.598,-256.8975C1190.2987,-248.4575 1410.7556,-229.5667 1485.5646,-210 1519.6661,-201.0806 1524.4394,-187.8282 1558.5646,-179 1641.5127,-157.5414 1894.6984,-138.1304 2000.8936,-130.7028"/>
<polygon fill="#191970" stroke="#191970" points="2001.2681,-134.1853 2011.0017,-130.001 2000.7833,-127.2021 2001.2681,-134.1853"/>
</g>
<!-- Node11&#45;&gt;Node9 -->
<g id="edge19" class="edge">
<title>Node11&#45;&gt;Node9</title>
<path fill="none" stroke="#191970" d="M1081.5996,-257.502C1182.792,-250.3906 1378.6177,-234.0002 1443.5646,-210 1484.8572,-194.7409 1526.0698,-163.2898 1549.046,-143.932"/>
<polygon fill="#191970" stroke="#191970" points="1551.6183,-146.3363 1556.9211,-137.164 1547.0558,-141.0275 1551.6183,-146.3363"/>
</g>
<!-- Node12 -->
<g id="node13" class="node">
<title>Node12</title>
<polygon fill="none" stroke="#bfbfbf" points="734.0646,-185 734.0646,-204 869.0646,-204 869.0646,-185 734.0646,-185"/>
<text text-anchor="middle" x="801.5646" y="-192" font-family="Helvetica,sans-Serif" font-size="10.00" fill="#000000">box2d/b2_polygon_shape.h</text>
</g>
<!-- Node11&#45;&gt;Node12 -->
<g id="edge13" class="edge">
<title>Node11&#45;&gt;Node12</title>
<path fill="none" stroke="#191970" d="M970.6412,-246.4639C931.9716,-234.5792 878.6318,-218.1858 842.2712,-207.0108"/>
<polygon fill="#191970" stroke="#191970" points="843.0793,-203.5976 832.4923,-204.0053 841.0228,-210.2887 843.0793,-203.5976"/>
</g>
<!-- Node13 -->
<g id="node14" class="node">
<title>Node13</title>
<polygon fill="none" stroke="#bfbfbf" points="887.5646,-185 887.5646,-204 991.5646,-204 991.5646,-185 887.5646,-185"/>
<text text-anchor="middle" x="939.5646" y="-192" font-family="Helvetica,sans-Serif" font-size="10.00" fill="#000000">box2d/b2_settings.h</text>
</g>
<!-- Node11&#45;&gt;Node13 -->
<g id="edge14" class="edge">
<title>Node11&#45;&gt;Node13</title>
<path fill="none" stroke="#191970" d="M1001.4114,-246.2967C988.705,-235.6551 971.7559,-221.4602 958.8144,-210.6217"/>
<polygon fill="#191970" stroke="#191970" points="960.8873,-207.7924 950.9735,-204.055 956.3928,-213.159 960.8873,-207.7924"/>
</g>
<!-- Node14 -->
<g id="node15" class="node">
<title>Node14</title>
<polygon fill="none" stroke="#bfbfbf" points="463.5646,-185 463.5646,-204 557.5646,-204 557.5646,-185 463.5646,-185"/>
<text text-anchor="middle" x="510.5646" y="-192" font-family="Helvetica,sans-Serif" font-size="10.00" fill="#000000">box2d/b2_types.h</text>
</g>
<!-- Node11&#45;&gt;Node14 -->
<g id="edge15" class="edge">
<title>Node11&#45;&gt;Node14</title>
<path fill="none" stroke="#191970" d="M957.5498,-257.5432C869.8561,-251.2487 704.8774,-236.8317 566.5646,-210 561.743,-209.0646 556.7299,-207.9244 551.7724,-206.6911"/>
<polygon fill="#191970" stroke="#191970" points="552.3148,-203.2151 541.7541,-204.0646 550.5395,-209.9862 552.3148,-203.2151"/>
</g>
<!-- Node11&#45;&gt;Node15 -->
<g id="edge16" class="edge">
<title>Node11&#45;&gt;Node15</title>
<path fill="none" stroke="#191970" d="M1050.0857,-246.4639C1073.1103,-235.1209 1104.4719,-219.6707 1127.0041,-208.5703"/>
<polygon fill="#191970" stroke="#191970" points="1128.6464,-211.6629 1136.0701,-204.1039 1125.5528,-205.3836 1128.6464,-211.6629"/>
</g>
<!-- Node16 -->
<g id="node17" class="node">
<title>Node16</title>
<polygon fill="none" stroke="#bfbfbf" points="575.5646,-185 575.5646,-204 715.5646,-204 715.5646,-185 575.5646,-185"/>
<text text-anchor="middle" x="645.5646" y="-192" font-family="Helvetica,sans-Serif" font-size="10.00" fill="#000000">box2d/b2_world_callbacks.h</text>
</g>
<!-- Node11&#45;&gt;Node16 -->
<g id="edge17" class="edge">
<title>Node11&#45;&gt;Node16</title>
<path fill="none" stroke="#191970" d="M957.5619,-250.9719C898.0218,-240.7832 805.5707,-224.7567 725.5646,-210 718.741,-208.7414 711.5955,-207.3961 704.5019,-206.0436"/>
<polygon fill="#191970" stroke="#191970" points="704.6701,-202.5121 694.1898,-204.066 703.3516,-209.3869 704.6701,-202.5121"/>
</g>
<!-- Node11&#45;&gt;Node17 -->
<g id="edge18" class="edge">
<title>Node11&#45;&gt;Node17</title>
<path fill="none" stroke="#191970" d="M1030.9104,-246.2967C1038.4737,-236.1618 1048.4422,-222.804 1056.3615,-212.1921"/>
<polygon fill="#191970" stroke="#191970" points="1059.2582,-214.1626 1062.434,-204.055 1053.6481,-209.976 1059.2582,-214.1626"/>
</g>
<!-- Node18&#45;&gt;Node2 -->
<g id="edge44" class="edge">
<title>Node18&#45;&gt;Node2</title>
<path fill="none" stroke="#191970" d="M1540.9937,-246.4166C1562.7981,-237.3945 1589.6505,-224.809 1611.5646,-210 1628.2376,-198.7328 1628.0754,-190.5345 1644.5646,-179 1698.8001,-141.0612 1715.2476,-134.3031 1777.5646,-112 1835.0259,-91.4348 1904.9476,-78.1016 1946.4949,-71.3321"/>
<polygon fill="#191970" stroke="#191970" points="1947.0961,-74.7805 1956.4216,-69.752 1945.9957,-67.8675 1947.0961,-74.7805"/>
</g>
<!-- Node18&#45;&gt;Node8 -->
<g id="edge30" class="edge">
<title>Node18&#45;&gt;Node8</title>
<path fill="none" stroke="#191970" d="M1553.7159,-246.4398C1581.5668,-237.5786 1615.7765,-225.1359 1644.5646,-210 1665.4178,-199.0361 1665.7133,-187.8081 1687.5646,-179 1743.5082,-156.4496 1916.1809,-138.9362 2000.8138,-131.4553"/>
<polygon fill="#191970" stroke="#191970" points="2001.2717,-134.9287 2010.9293,-130.572 2000.6627,-127.9553 2001.2717,-134.9287"/>
</g>
<!-- Node18&#45;&gt;Node9 -->
<g id="edge27" class="edge">
<title>Node18&#45;&gt;Node9</title>
<path fill="none" stroke="#191970" d="M1508.1201,-246.389C1520.4407,-221.7478 1544.8248,-172.9796 1558.2164,-146.1965"/>
<polygon fill="#191970" stroke="#191970" points="1561.4208,-147.6137 1562.7625,-137.1042 1555.1598,-144.4832 1561.4208,-147.6137"/>
</g>
<!-- Node18&#45;&gt;Node10 -->
<g id="edge28" class="edge">
<title>Node18&#45;&gt;Node10</title>
<path fill="none" stroke="#191970" d="M1560.709,-246.4639C1609.0604,-234.3761 1676.0686,-217.624 1720.7954,-206.4423"/>
<polygon fill="#191970" stroke="#191970" points="1721.6909,-209.8262 1730.5435,-204.0053 1719.9931,-203.0352 1721.6909,-209.8262"/>
</g>
<!-- Node18&#45;&gt;Node17 -->
<g id="edge25" class="edge">
<title>Node18&#45;&gt;Node17</title>
<path fill="none" stroke="#191970" d="M1438.4544,-256.063C1342.3537,-247.219 1162.2661,-228.8061 1100.5646,-210 1098.9026,-209.4934 1097.2212,-208.904 1095.5458,-208.2567"/>
<polygon fill="#191970" stroke="#191970" points="1096.7535,-204.9632 1086.1944,-204.093 1093.9062,-211.358 1096.7535,-204.9632"/>
</g>
<!-- Node19 -->
<g id="node20" class="node">
<title>Node19</title>
<polygon fill="none" stroke="#bfbfbf" points="1266.5646,-118 1266.5646,-137 1312.5646,-137 1312.5646,-118 1266.5646,-118"/>
<text text-anchor="middle" x="1289.5646" y="-125" font-family="Helvetica,sans-Serif" font-size="10.00" fill="#000000">cstdint</text>
</g>
<!-- Node18&#45;&gt;Node19 -->
<g id="edge24" class="edge">
<title>Node18&#45;&gt;Node19</title>
<path fill="none" stroke="#191970" d="M1438.3017,-249.0108C1395.1618,-239.2925 1342.5472,-224.9784 1325.5646,-210 1306.95,-193.5822 1297.576,-165.7801 1293.1416,-147.0395"/>
<polygon fill="#191970" stroke="#191970" points="1296.5564,-146.27 1291.069,-137.2069 1289.7069,-147.7138 1296.5564,-146.27"/>
</g>
<!-- Node20 -->
<g id="node21" class="node">
<title>Node20</title>
<polygon fill="none" stroke="#bfbfbf" points="1170.5646,-56.5 1170.5646,-75.5 1234.5646,-75.5 1234.5646,-56.5 1170.5646,-56.5"/>
<text text-anchor="middle" x="1202.5646" y="-63.5" font-family="Helvetica,sans-Serif" font-size="10.00" fill="#000000">glad/glad.h</text>
</g>
<!-- Node18&#45;&gt;Node20 -->
<g id="edge26" class="edge">
<title>Node18&#45;&gt;Node20</title>
<path fill="none" stroke="#191970" d="M1438.0767,-250.5285C1387.7257,-240.7791 1321.788,-225.6787 1299.5646,-210 1253.7583,-177.6833 1223.3132,-116.3235 1210.0851,-85.1739"/>
<polygon fill="#191970" stroke="#191970" points="1213.2953,-83.7773 1206.2617,-75.8539 1206.819,-86.4341 1213.2953,-83.7773"/>
</g>
<!-- Node21 -->
<g id="node22" class="node">
<title>Node21</title>
<polygon fill="none" stroke="#bfbfbf" points="1567.0646,-185 1567.0646,-204 1602.0646,-204 1602.0646,-185 1567.0646,-185"/>
<text text-anchor="middle" x="1584.5646" y="-192" font-family="Helvetica,sans-Serif" font-size="10.00" fill="#000000">map</text>
</g>
<!-- Node18&#45;&gt;Node21 -->
<g id="edge29" class="edge">
<title>Node18&#45;&gt;Node21</title>
<path fill="none" stroke="#191970" d="M1519.6255,-246.2967C1533.0943,-235.5537 1551.1031,-221.1895 1564.7395,-210.3129"/>
<polygon fill="#191970" stroke="#191970" points="1566.9499,-213.0268 1572.5852,-204.055 1562.585,-207.5544 1566.9499,-213.0268"/>
</g>
<!-- Node22 -->
<g id="node23" class="node">
<title>Node22</title>
<g id="a_node23"><a xlink:href="sprite_8h.html" target="_top" xlink:title="../Graphics/sprite.h">
<polygon fill="none" stroke="#000000" points="1334.5646,-185 1334.5646,-204 1434.5646,-204 1434.5646,-185 1334.5646,-185"/>
<text text-anchor="middle" x="1384.5646" y="-192" font-family="Helvetica,sans-Serif" font-size="10.00" fill="#000000">../Graphics/sprite.h</text>
</a>
</g>
</g>
<!-- Node18&#45;&gt;Node22 -->
<g id="edge31" class="edge">
<title>Node18&#45;&gt;Node22</title>
<path fill="none" stroke="#191970" d="M1474.532,-246.4639C1455.244,-235.3234 1429.0968,-220.2212 1409.9618,-209.1691"/>
<polygon fill="#191970" stroke="#191970" points="1411.6022,-206.0747 1401.1923,-204.1039 1408.1011,-212.1363 1411.6022,-206.0747"/>
</g>
<!-- Node18&#45;&gt;Node26 -->
<g id="edge43" class="edge">
<title>Node18&#45;&gt;Node26</title>
<path fill="none" stroke="#191970" d="M1438.3483,-256.046C1387.1677,-249.8081 1313.6981,-236.7582 1254.5646,-210 1249.616,-207.7607 1196.0883,-166.9935 1165.5688,-143.6218"/>
<polygon fill="#191970" stroke="#191970" points="1167.3383,-140.5683 1157.2722,-137.2629 1163.08,-146.1241 1167.3383,-140.5683"/>
</g>
<!-- Node22&#45;&gt;Node2 -->
<g id="edge40" class="edge">
<title>Node22&#45;&gt;Node2</title>
<path fill="none" stroke="#191970" d="M1389.8745,-184.9855C1400.4632,-167.0599 1426.0951,-128.5972 1459.5646,-112 1502.9752,-90.4731 1835.1094,-72.9705 1946.3729,-67.6592"/>
<polygon fill="#191970" stroke="#191970" points="1946.6102,-71.152 1956.4337,-67.1835 1946.2795,-64.1598 1946.6102,-71.152"/>
</g>
<!-- Node22&#45;&gt;Node4 -->
<g id="edge42" class="edge">
<title>Node22&#45;&gt;Node4</title>
<path fill="none" stroke="#191970" d="M1334.2555,-189.5954C1299.7521,-186.3292 1252.9127,-182.0868 1211.5646,-179 904.7935,-156.0985 535.9984,-136.8231 401.6961,-130.0742"/>
<polygon fill="#191970" stroke="#191970" points="401.4694,-126.5585 391.3067,-129.5536 401.119,-133.5497 401.4694,-126.5585"/>
</g>
<!-- Node22&#45;&gt;Node9 -->
<g id="edge35" class="edge">
<title>Node22&#45;&gt;Node9</title>
<path fill="none" stroke="#191970" d="M1410.7841,-184.9005C1442.5827,-173.2584 1496.3298,-153.5805 1531.8821,-140.5641"/>
<polygon fill="#191970" stroke="#191970" points="1533.2067,-143.8064 1541.3938,-137.0817 1530.8001,-137.2331 1533.2067,-143.8064"/>
</g>
<!-- Node22&#45;&gt;Node19 -->
<g id="edge32" class="edge">
<title>Node22&#45;&gt;Node19</title>
<path fill="none" stroke="#191970" d="M1370.9534,-184.9005C1355.4336,-173.9549 1329.8423,-155.9064 1311.4979,-142.9688"/>
<polygon fill="#191970" stroke="#191970" points="1313.3399,-139.9849 1303.1506,-137.0817 1309.3054,-145.7054 1313.3399,-139.9849"/>
</g>
<!-- Node23 -->
<g id="node24" class="node">
<title>Node23</title>
<polygon fill="none" stroke="#bfbfbf" points="1468.5646,-118 1468.5646,-137 1514.5646,-137 1514.5646,-118 1468.5646,-118"/>
<text text-anchor="middle" x="1491.5646" y="-125" font-family="Helvetica,sans-Serif" font-size="10.00" fill="#000000">stdio.h</text>
</g>
<!-- Node22&#45;&gt;Node23 -->
<g id="edge33" class="edge">
<title>Node22&#45;&gt;Node23</title>
<path fill="none" stroke="#191970" d="M1399.8951,-184.9005C1417.6138,-173.8057 1446.9874,-155.4128 1467.7014,-142.4424"/>
<polygon fill="#191970" stroke="#191970" points="1469.6445,-145.3553 1476.2626,-137.0817 1465.9295,-139.4224 1469.6445,-145.3553"/>
</g>
<!-- Node24 -->
<g id="node25" class="node">
<title>Node24</title>
<polygon fill="none" stroke="#bfbfbf" points="2203.5646,-118 2203.5646,-137 2273.5646,-137 2273.5646,-118 2203.5646,-118"/>
<text text-anchor="middle" x="2238.5646" y="-125" font-family="Helvetica,sans-Serif" font-size="10.00" fill="#000000">glm/fwd.hpp</text>
</g>
<!-- Node22&#45;&gt;Node24 -->
<g id="edge34" class="edge">
<title>Node22&#45;&gt;Node24</title>
<path fill="none" stroke="#191970" d="M1434.7945,-189.7321C1469.5364,-186.5064 1516.8389,-182.2567 1558.5646,-179 1797.0417,-160.3868 1857.2764,-163.8927 2095.5646,-143 2128.3548,-140.125 2165.2895,-136.1014 2193.4076,-132.8741"/>
<polygon fill="#191970" stroke="#191970" points="2193.8124,-136.3508 2203.344,-131.7248 2193.008,-129.3971 2193.8124,-136.3508"/>
</g>
<!-- Node25 -->
<g id="node26" class="node">
<title>Node25</title>
<polygon fill="none" stroke="#bfbfbf" points="1375.5646,-.5 1375.5646,-19.5 1429.5646,-19.5 1429.5646,-.5 1375.5646,-.5"/>
<text text-anchor="middle" x="1402.5646" y="-7.5" font-family="Helvetica,sans-Serif" font-size="10.00" fill="#000000">iostream</text>
</g>
<!-- Node22&#45;&gt;Node25 -->
<g id="edge36" class="edge">
<title>Node22&#45;&gt;Node25</title>
<path fill="none" stroke="#191970" d="M1385.507,-184.8402C1388.338,-155.8223 1396.8077,-69.0088 1400.6416,-29.7113"/>
<polygon fill="#191970" stroke="#191970" points="1404.1439,-29.8568 1401.6315,-19.5641 1397.177,-29.177 1404.1439,-29.8568"/>
</g>
<!-- Node22&#45;&gt;Node26 -->
<g id="edge37" class="edge">
<title>Node22&#45;&gt;Node26</title>
<path fill="none" stroke="#191970" d="M1350.4333,-184.9717C1305.9171,-172.5442 1228.2928,-150.8741 1182.141,-137.9901"/>
<polygon fill="#191970" stroke="#191970" points="1182.8104,-134.5432 1172.2375,-135.2254 1180.9281,-141.2854 1182.8104,-134.5432"/>
</g>
<!-- Node22&#45;&gt;Node27 -->
<g id="edge41" class="edge">
<title>Node22&#45;&gt;Node27</title>
<path fill="none" stroke="#191970" d="M1434.6307,-186.5511C1522.889,-172.5385 1703.6369,-143.8416 1775.8059,-132.3835"/>
<polygon fill="#191970" stroke="#191970" points="1776.7071,-135.7843 1786.0346,-130.7595 1775.6094,-128.8709 1776.7071,-135.7843"/>
</g>
<!-- Node26&#45;&gt;Node20 -->
<g id="edge39" class="edge">
<title>Node26&#45;&gt;Node20</title>
<path fill="none" stroke="#191970" d="M1153.6271,-117.8906C1162.3439,-108.6478 1175.7186,-94.466 1186.2842,-83.2628"/>
<polygon fill="#191970" stroke="#191970" points="1189.0596,-85.4213 1193.3743,-75.7449 1183.967,-80.6186 1189.0596,-85.4213"/>
</g>
<!-- Node26&#45;&gt;Node25 -->
<g id="edge38" class="edge">
<title>Node26&#45;&gt;Node25</title>
<path fill="none" stroke="#191970" d="M1143.8157,-117.5642C1143.2375,-102.0633 1144.596,-72.2245 1161.5646,-56 1190.2449,-28.5774 1304.8303,-16.7054 1365.0884,-12.274"/>
<polygon fill="#191970" stroke="#191970" points="1365.5945,-15.7472 1375.3244,-11.5545 1365.1036,-8.7644 1365.5945,-15.7472"/>
</g>
<!-- Node28&#45;&gt;Node4 -->
<g id="edge50" class="edge">
<title>Node28&#45;&gt;Node4</title>
<path fill="none" stroke="#191970" d="M208.409,-179.4639C240.1408,-167.7824 283.7053,-151.7449 314.0112,-140.5884"/>
<polygon fill="#191970" stroke="#191970" points="315.5691,-143.7445 323.7443,-137.0053 313.1508,-137.1755 315.5691,-143.7445"/>
</g>
<!-- Node28&#45;&gt;Node6 -->
<g id="edge48" class="edge">
<title>Node28&#45;&gt;Node6</title>
<path fill="none" stroke="#191970" d="M170.2933,-179.2548C174.4602,-155.9744 182.4098,-111.5607 187.0185,-85.8117"/>
<polygon fill="#191970" stroke="#191970" points="190.5053,-86.196 188.822,-75.7358 183.6148,-84.9627 190.5053,-86.196"/>
</g>
<!-- Node28&#45;&gt;Node8 -->
<g id="edge46" class="edge">
<title>Node28&#45;&gt;Node8</title>
<path fill="none" stroke="#191970" d="M229.7875,-180.2071C232.7464,-179.7508 235.6832,-179.3437 238.5646,-179 591.2651,-136.9256 1481.7683,-159.9558 1836.5646,-143 1892.9238,-140.3066 1957.5826,-135.3016 2000.5242,-131.7069"/>
<polygon fill="#191970" stroke="#191970" points="2001.0164,-135.1779 2010.6863,-130.8486 2000.4272,-128.2027 2001.0164,-135.1779"/>
</g>
<!-- Node28&#45;&gt;Node9 -->
<g id="edge47" class="edge">
<title>Node28&#45;&gt;Node9</title>
<path fill="none" stroke="#191970" d="M229.7899,-180.2267C232.7482,-179.7652 235.6842,-179.3516 238.5646,-179 522.1272,-144.3844 1242.6854,-195.0851 1523.5646,-143 1527.2874,-142.3097 1531.1179,-141.3545 1534.8926,-140.2544"/>
<polygon fill="#191970" stroke="#191970" points="1536.2133,-143.5054 1544.6417,-137.0856 1534.0495,-136.8482 1536.2133,-143.5054"/>
</g>
<!-- Node28&#45;&gt;Node25 -->
<g id="edge49" class="edge">
<title>Node28&#45;&gt;Node25</title>
<path fill="none" stroke="#191970" d="M105.1752,-181.5707C67.2036,-172.2941 23.8882,-158.6946 12.5646,-143 -10.7715,-110.6559 1.9895,-79.0125 34.5646,-56 90.4227,-16.5394 1152.3307,-10.8503 1365.4893,-10.1049"/>
<polygon fill="#191970" stroke="#191970" points="1365.562,-13.6048 1375.5502,-10.0713 1365.5385,-6.6048 1365.562,-13.6048"/>
</g>
<!-- Node29 -->
<g id="node30" class="node">
<title>Node29</title>
<g id="a_node30"><a xlink:href="BFS__graph_8h.html" target="_top" xlink:title="../Graphs/BFS_graph.h">
<polygon fill="none" stroke="#000000" points="22.0646,-118 22.0646,-137 139.0646,-137 139.0646,-118 22.0646,-118"/>
<text text-anchor="middle" x="80.5646" y="-125" font-family="Helvetica,sans-Serif" font-size="10.00" fill="#000000">../Graphs/BFS_graph.h</text>
</a>
</g>
</g>
<!-- Node28&#45;&gt;Node29 -->
<g id="edge51" class="edge">
<title>Node28&#45;&gt;Node29</title>
<path fill="none" stroke="#191970" d="M147.823,-179.2967C133.8732,-168.5537 115.2211,-154.1895 101.0978,-143.3129"/>
<polygon fill="#191970" stroke="#191970" points="103.0302,-140.3835 92.9718,-137.055 98.7592,-145.9295 103.0302,-140.3835"/>
</g>
<!-- Node29&#45;&gt;Node6 -->
<g id="edge53" class="edge">
<title>Node29&#45;&gt;Node6</title>
<path fill="none" stroke="#191970" d="M97.7521,-117.8906C115.6728,-107.8713 143.9741,-92.0483 164.617,-80.5071"/>
<polygon fill="#191970" stroke="#191970" points="166.4774,-83.4769 173.4978,-75.5419 163.0613,-77.367 166.4774,-83.4769"/>
</g>
<!-- Node30 -->
<g id="node31" class="node">
<title>Node30</title>
<polygon fill="none" stroke="#bfbfbf" points="43.5646,-56.5 43.5646,-75.5 117.5646,-75.5 117.5646,-56.5 43.5646,-56.5"/>
<text text-anchor="middle" x="80.5646" y="-63.5" font-family="Helvetica,sans-Serif" font-size="10.00" fill="#000000">bits/stdc++.h</text>
</g>
<!-- Node29&#45;&gt;Node30 -->
<g id="edge52" class="edge">
<title>Node29&#45;&gt;Node30</title>
<path fill="none" stroke="#191970" d="M80.5646,-117.8906C80.5646,-109.3657 80.5646,-96.6392 80.5646,-85.9235"/>
<polygon fill="#191970" stroke="#191970" points="84.0647,-85.7448 80.5646,-75.7449 77.0647,-85.7449 84.0647,-85.7448"/>
</g>
<!-- Node32&#45;&gt;Node2 -->
<g id="edge66" class="edge">
<title>Node32&#45;&gt;Node2</title>
<path fill="none" stroke="#191970" d="M2322.9711,-246.4819C2324.9427,-215.4109 2324.3992,-144.2826 2282.5646,-112 2241.993,-80.692 2089.8767,-70.4039 2019.1473,-67.2679"/>
<polygon fill="#191970" stroke="#191970" points="2019.062,-63.7614 2008.9242,-66.8396 2018.7689,-70.7552 2019.062,-63.7614"/>
</g>
<!-- Node32&#45;&gt;Node8 -->
<g id="edge60" class="edge">
<title>Node32&#45;&gt;Node8</title>
<path fill="none" stroke="#191970" d="M2298.4307,-246.2793C2271.1845,-228.7315 2224.222,-199.657 2181.5646,-179 2150.4034,-163.91 2113.6039,-149.94 2086.622,-140.3684"/>
<polygon fill="#191970" stroke="#191970" points="2087.749,-137.0547 2077.1541,-137.0472 2085.4318,-143.6601 2087.749,-137.0547"/>
</g>
<!-- Node32&#45;&gt;Node24 -->
<g id="edge65" class="edge">
<title>Node32&#45;&gt;Node24</title>
<path fill="none" stroke="#191970" d="M2317.9668,-246.2952C2313.4164,-229.0194 2304.4572,-200.4455 2290.5646,-179 2281.9769,-165.7434 2269.4677,-153.2177 2258.8706,-143.8389"/>
<polygon fill="#191970" stroke="#191970" points="2261.1139,-141.1521 2251.2363,-137.3203 2256.5685,-146.4755 2261.1139,-141.1521"/>
</g>
<!-- Node32&#45;&gt;Node33 -->
<g id="edge61" class="edge">
<title>Node32&#45;&gt;Node33</title>
<path fill="none" stroke="#191970" d="M2281.3029,-246.4159C2254.4158,-236.2751 2218.2986,-222.5231 2186.5646,-210 2184.9243,-209.3527 2183.246,-208.6857 2181.5523,-208.0088"/>
<polygon fill="#191970" stroke="#191970" points="2182.4257,-204.5872 2171.8424,-204.093 2179.8076,-211.0791 2182.4257,-204.5872"/>
</g>
<!-- Node33&#45;&gt;Node3 -->
<g id="edge62" class="edge">
<title>Node33&#45;&gt;Node3</title>
<path fill="none" stroke="#191970" d="M2124.4051,-193.3015C2035.6409,-188.769 1719.2028,-171.4745 1459.5646,-143 1434.3451,-140.2342 1405.9285,-136.0681 1384.7212,-132.7514"/>
<polygon fill="#191970" stroke="#191970" points="1385.0644,-129.2622 1374.6398,-131.1539 1383.9688,-136.1759 1385.0644,-129.2622"/>
</g>
<!-- Node33&#45;&gt;Node8 -->
<g id="edge64" class="edge">
<title>Node33&#45;&gt;Node8</title>
<path fill="none" stroke="#191970" d="M2134.2371,-184.9005C2117.8261,-173.9052 2090.7171,-155.7422 2071.3895,-142.7927"/>
<polygon fill="#191970" stroke="#191970" points="2073.1215,-139.7402 2062.8656,-137.0817 2069.2251,-145.5556 2073.1215,-139.7402"/>
</g>
<!-- Node33&#45;&gt;Node25 -->
<g id="edge63" class="edge">
<title>Node33&#45;&gt;Node25</title>
<path fill="none" stroke="#191970" d="M2143.8669,-184.7816C2135.6618,-168.4645 2117.4864,-135.0841 2095.5646,-112 2066.1773,-81.0546 2057.6727,-70.5799 2017.5646,-56 1963.3595,-36.2956 1564.72,-17.1733 1439.8531,-11.6122"/>
<polygon fill="#191970" stroke="#191970" points="1439.793,-8.1062 1429.6481,-11.1609 1439.4836,-15.0994 1439.793,-8.1062"/>
</g>
<!-- Node34&#45;&gt;Node2 -->
<g id="edge74" class="edge">
<title>Node34&#45;&gt;Node2</title>
<path fill="none" stroke="#191970" d="M2463.6096,-246.4394C2459.4213,-228.5088 2450.2218,-198.5395 2432.5646,-179 2390.3032,-132.2335 2367.4702,-131.6076 2307.5646,-112 2206.6596,-78.973 2080.4853,-69.6542 2019.2697,-67.0282"/>
<polygon fill="#191970" stroke="#191970" points="2019.095,-63.5187 2008.9654,-66.6238 2018.8204,-70.5133 2019.095,-63.5187"/>
</g>
<!-- Node34&#45;&gt;Node8 -->
<g id="edge69" class="edge">
<title>Node34&#45;&gt;Node8</title>
<path fill="none" stroke="#191970" d="M2423.5343,-246.3947C2374.9139,-229.4569 2293.3263,-201.4257 2222.5646,-179 2178.421,-165.0101 2127.6053,-150.107 2092.3329,-139.9516"/>
<polygon fill="#191970" stroke="#191970" points="2092.9408,-136.4847 2082.3632,-137.0884 2091.0085,-143.2128 2092.9408,-136.4847"/>
</g>
<!-- Node34&#45;&gt;Node9 -->
<g id="edge73" class="edge">
<title>Node34&#45;&gt;Node9</title>
<path fill="none" stroke="#191970" d="M2417.8398,-252.7051C2350.7865,-240.4 2236.2995,-218.5904 2218.5646,-210 2199.257,-200.6478 2201.4027,-187.1669 2181.5646,-179 2168.4143,-173.5863 1753.2222,-141.6143 1613.1741,-130.9557"/>
<polygon fill="#191970" stroke="#191970" points="1613.0372,-127.4353 1602.8006,-130.1669 1612.5064,-134.4152 1613.0372,-127.4353"/>
</g>
<!-- Node34&#45;&gt;Node15 -->
<g id="edge71" class="edge">
<title>Node34&#45;&gt;Node15</title>
<path fill="none" stroke="#191970" d="M2417.964,-251.5834C2405.4978,-249.3865 2392.0755,-247.3214 2379.5646,-246 1913.4396,-196.7694 1793.3661,-239.2915 1325.5646,-210 1287.9319,-207.6436 1245.7151,-203.8009 1212.7662,-200.5313"/>
<polygon fill="#191970" stroke="#191970" points="1212.7112,-197.0083 1202.4117,-199.4925 1212.0123,-203.9733 1212.7112,-197.0083"/>
</g>
<!-- Node34&#45;&gt;Node24 -->
<g id="edge72" class="edge">
<title>Node34&#45;&gt;Node24</title>
<path fill="none" stroke="#191970" d="M2459.0575,-246.4131C2449.087,-227.8864 2429.7602,-196.7441 2404.5646,-179 2368.4136,-153.5405 2319.2594,-140.3535 2283.8328,-133.731"/>
<polygon fill="#191970" stroke="#191970" points="2284.2246,-130.2461 2273.7687,-131.9562 2283.0089,-137.1398 2284.2246,-130.2461"/>
</g>
<!-- Node34&#45;&gt;Node33 -->
<g id="edge70" class="edge">
<title>Node34&#45;&gt;Node33</title>
<path fill="none" stroke="#191970" d="M2417.9935,-252.8335C2340.7905,-239.0202 2197.6089,-213.2308 2186.5646,-210 2184.2567,-209.3248 2181.8968,-208.5583 2179.5388,-207.7362"/>
<polygon fill="#191970" stroke="#191970" points="2180.5857,-204.3904 2169.9939,-204.1358 2178.1151,-210.94 2180.5857,-204.3904"/>
</g>
<!-- Node35 -->
<g id="node36" class="node">
<title>Node35</title>
<polygon fill="none" stroke="#bfbfbf" points="2494.5646,-185 2494.5646,-204 2562.5646,-204 2562.5646,-185 2494.5646,-185"/>
<text text-anchor="middle" x="2528.5646" y="-192" font-family="Helvetica,sans-Serif" font-size="10.00" fill="#000000">sys/types.h</text>
</g>
<!-- Node34&#45;&gt;Node35 -->
<g id="edge75" class="edge">
<title>Node34&#45;&gt;Node35</title>
<path fill="none" stroke="#191970" d="M2480.6334,-246.2967C2490.1995,-235.9591 2502.8684,-222.2684 2512.7789,-211.5588"/>
<polygon fill="#191970" stroke="#191970" points="2515.4997,-213.7718 2519.7227,-204.055 2510.3619,-209.0175 2515.4997,-213.7718"/>
</g>
<!-- Node36 -->
<g id="node37" class="node">
<title>Node36</title>
<g id="a_node37"><a xlink:href="BState_8h.html" target="_top" xlink:title="../BStateMachine/BState.h">
<polygon fill="none" stroke="#000000" points="2418.5646,-118 2418.5646,-137 2552.5646,-137 2552.5646,-118 2418.5646,-118"/>
<text text-anchor="middle" x="2485.5646" y="-125" font-family="Helvetica,sans-Serif" font-size="10.00" fill="#000000">../BStateMachine/BState.h</text>
</a>
</g>
</g>
<!-- Node34&#45;&gt;Node36 -->
<g id="edge76" class="edge">
<title>Node34&#45;&gt;Node36</title>
<path fill="none" stroke="#191970" d="M2515.2476,-250.0725C2536.379,-242.4353 2559.1059,-229.9874 2571.5646,-210 2578.8528,-198.3077 2578.358,-190.9865 2571.5646,-179 2561.6456,-161.4987 2543.15,-149.3022 2525.8454,-141.1882"/>
<polygon fill="#191970" stroke="#191970" points="2526.9829,-137.8664 2516.4164,-137.0927 2524.1941,-144.2869 2526.9829,-137.8664"/>
</g>
<!-- Node38 -->
<g id="node39" class="node">
<title>Node38</title>
<g id="a_node39"><a xlink:href="BStateMachine_8h.html" target="_top" xlink:title="../BStateMachine/BStateMachine.h">
<polygon fill="none" stroke="#000000" points="2675.5646,-185 2675.5646,-204 2845.5646,-204 2845.5646,-185 2675.5646,-185"/>
<text text-anchor="middle" x="2760.5646" y="-192" font-family="Helvetica,sans-Serif" font-size="10.00" fill="#000000">../BStateMachine/BStateMachine.h</text>
</a>
</g>
</g>
<!-- Node34&#45;&gt;Node38 -->
<g id="edge79" class="edge">
<title>Node34&#45;&gt;Node38</title>
<path fill="none" stroke="#191970" d="M2515.1127,-250.4363C2568.5439,-238.2598 2654.0917,-218.7642 2708.7797,-206.3013"/>
<polygon fill="#191970" stroke="#191970" points="2709.645,-209.6939 2718.6173,-204.0594 2708.0896,-202.8689 2709.645,-209.6939"/>
</g>
<!-- Node40 -->
<g id="node41" class="node">
<title>Node40</title>
<g id="a_node41"><a xlink:href="Condition_8h.html" target="_top" xlink:title="Condition.h">
<polygon fill="none" stroke="#000000" points="2789.5646,-56.5 2789.5646,-75.5 2855.5646,-75.5 2855.5646,-56.5 2789.5646,-56.5"/>
<text text-anchor="middle" x="2822.5646" y="-63.5" font-family="Helvetica,sans-Serif" font-size="10.00" fill="#000000">Condition.h</text>
</a>
</g>
</g>
<!-- Node34&#45;&gt;Node40 -->
<g id="edge86" class="edge">
<title>Node34&#45;&gt;Node40</title>
<path fill="none" stroke="#191970" d="M2515.3039,-258.8419C2610.2902,-253.1109 2816.5678,-237.8076 2881.5646,-210 2924.8338,-191.4881 2943.3967,-185.5226 2963.5646,-143 2969.4688,-130.5514 2971.6563,-123.1513 2963.5646,-112 2951.8498,-95.8556 2902.6696,-82.4039 2865.6636,-74.2989"/>
<polygon fill="#191970" stroke="#191970" points="2866.0995,-70.8134 2855.5902,-72.1569 2864.6435,-77.6603 2866.0995,-70.8134"/>
</g>
<!-- Node41 -->
<g id="node42" class="node">
<title>Node41</title>
<g id="a_node42"><a xlink:href="ConditionInRange_8h.html" target="_top" xlink:title="ConditionInRange.h">
<polygon fill="none" stroke="#000000" points="2851.0646,-118 2851.0646,-137 2954.0646,-137 2954.0646,-118 2851.0646,-118"/>
<text text-anchor="middle" x="2902.5646" y="-125" font-family="Helvetica,sans-Serif" font-size="10.00" fill="#000000">ConditionInRange.h</text>
</a>
</g>
</g>
<!-- Node34&#45;&gt;Node41 -->
<g id="edge87" class="edge">
<title>Node34&#45;&gt;Node41</title>
<path fill="none" stroke="#191970" d="M2515.2245,-260.298C2606.6798,-257.1993 2799.9299,-246.4156 2854.5646,-210 2876.9021,-195.1114 2890.1904,-166.0289 2896.9373,-146.6789"/>
<polygon fill="#191970" stroke="#191970" points="2900.2939,-147.6736 2900.0285,-137.082 2893.631,-145.5273 2900.2939,-147.6736"/>
</g>
<!-- Node42 -->
<g id="node43" class="node">
<title>Node42</title>
<g id="a_node43"><a xlink:href="ConditionOutOfRange_8h.html" target="_top" xlink:title="../BStateMachine/Condition\lOutOfRange.h">
<polygon fill="none" stroke="#000000" points="2571.0646,-112.5 2571.0646,-142.5 2708.0646,-142.5 2708.0646,-112.5 2571.0646,-112.5"/>
<text text-anchor="start" x="2579.0646" y="-130.5" font-family="Helvetica,sans-Serif" font-size="10.00" fill="#000000">../BStateMachine/Condition</text>
<text text-anchor="middle" x="2639.5646" y="-119.5" font-family="Helvetica,sans-Serif" font-size="10.00" fill="#000000">OutOfRange.h</text>
</a>
</g>
</g>
<!-- Node34&#45;&gt;Node42 -->
<g id="edge88" class="edge">
<title>Node34&#45;&gt;Node42</title>
<path fill="none" stroke="#191970" d="M2515.0686,-248.3779C2538.8155,-240.1882 2566.706,-227.7622 2587.5646,-210 2606.1628,-194.1627 2620.3146,-169.9715 2629.1244,-151.8736"/>
<polygon fill="#191970" stroke="#191970" points="2632.4226,-153.0814 2633.4635,-142.5379 2626.0747,-150.1311 2632.4226,-153.0814"/>
</g>
<!-- Node36&#45;&gt;Node2 -->
<g id="edge78" class="edge">
<title>Node36&#45;&gt;Node2</title>
<path fill="none" stroke="#191970" d="M2438.9868,-117.9224C2427.7463,-115.7952 2415.7505,-113.6771 2404.5646,-112 2262.505,-90.7006 2092.1338,-75.1688 2018.9155,-68.9693"/>
<polygon fill="#191970" stroke="#191970" points="2019.0905,-65.4717 2008.8327,-68.1227 2018.5047,-72.4472 2019.0905,-65.4717"/>
</g>
<!-- Node37 -->
<g id="node38" class="node">
<title>Node37</title>
<polygon fill="none" stroke="#bfbfbf" points="2471.0646,-56.5 2471.0646,-75.5 2500.0646,-75.5 2500.0646,-56.5 2471.0646,-56.5"/>
<text text-anchor="middle" x="2485.5646" y="-63.5" font-family="Helvetica,sans-Serif" font-size="10.00" fill="#000000">list</text>
</g>
<!-- Node36&#45;&gt;Node37 -->
<g id="edge77" class="edge">
<title>Node36&#45;&gt;Node37</title>
<path fill="none" stroke="#191970" d="M2485.5646,-117.8906C2485.5646,-109.3657 2485.5646,-96.6392 2485.5646,-85.9235"/>
<polygon fill="#191970" stroke="#191970" points="2489.0647,-85.7448 2485.5646,-75.7449 2482.0647,-85.7449 2489.0647,-85.7448"/>
</g>
<!-- Node38&#45;&gt;Node36 -->
<g id="edge80" class="edge">
<title>Node38&#45;&gt;Node36</title>
<path fill="none" stroke="#191970" d="M2721.4559,-184.9717C2672.4194,-173.0246 2588.3229,-152.5357 2534.9108,-139.5225"/>
<polygon fill="#191970" stroke="#191970" points="2535.528,-136.0706 2524.9837,-137.1039 2533.871,-142.8716 2535.528,-136.0706"/>
</g>
<!-- Node39 -->
<g id="node40" class="node">
<title>Node39</title>
<g id="a_node40"><a xlink:href="Transition_8h.html" target="_top" xlink:title="Transition.h">
<polygon fill="none" stroke="#000000" points="2726.5646,-118 2726.5646,-137 2794.5646,-137 2794.5646,-118 2726.5646,-118"/>
<text text-anchor="middle" x="2760.5646" y="-125" font-family="Helvetica,sans-Serif" font-size="10.00" fill="#000000">Transition.h</text>
</a>
</g>
</g>
<!-- Node38&#45;&gt;Node39 -->
<g id="edge81" class="edge">
<title>Node38&#45;&gt;Node39</title>
<path fill="none" stroke="#191970" d="M2760.5646,-184.9005C2760.5646,-175.149 2760.5646,-159.7597 2760.5646,-147.3695"/>
<polygon fill="#191970" stroke="#191970" points="2764.0647,-147.0816 2760.5646,-137.0817 2757.0647,-147.0817 2764.0647,-147.0816"/>
</g>
<!-- Node38&#45;&gt;Node40 -->
<g id="edge82" class="edge">
<title>Node38&#45;&gt;Node40</title>
<path fill="none" stroke="#191970" d="M2770.9888,-184.8549C2780.8188,-175.1874 2795.2495,-159.4179 2803.5646,-143 2812.7257,-124.9117 2817.6342,-102.155 2820.1513,-86.0858"/>
<polygon fill="#191970" stroke="#191970" points="2823.6806,-86.1153 2821.588,-75.7292 2816.747,-85.1534 2823.6806,-86.1153"/>
</g>
<!-- Node38&#45;&gt;Node41 -->
<g id="edge84" class="edge">
<title>Node38&#45;&gt;Node41</title>
<path fill="none" stroke="#191970" d="M2780.9098,-184.9005C2805.0569,-173.5072 2845.515,-154.4178 2873.0891,-141.4075"/>
<polygon fill="#191970" stroke="#191970" points="2874.7069,-144.5142 2882.2572,-137.0817 2871.7198,-138.1835 2874.7069,-144.5142"/>
</g>
<!-- Node40&#45;&gt;Node25 -->
<g id="edge83" class="edge">
<title>Node40&#45;&gt;Node25</title>
<path fill="none" stroke="#191970" d="M2789.5542,-64.6982C2599.0162,-57.184 1641.3044,-19.4151 1439.8061,-11.4687"/>
<polygon fill="#191970" stroke="#191970" points="1439.8553,-7.968 1429.7252,-11.0711 1439.5794,-14.9626 1439.8553,-7.968"/>
</g>
<!-- Node41&#45;&gt;Node40 -->
<g id="edge85" class="edge">
<title>Node41&#45;&gt;Node40</title>
<path fill="none" stroke="#191970" d="M2890.0646,-117.8906C2877.5011,-108.2324 2857.9223,-93.1812 2843.0798,-81.771"/>
<polygon fill="#191970" stroke="#191970" points="2845.0381,-78.8618 2834.9768,-75.5419 2840.7718,-84.4115 2845.0381,-78.8618"/>
</g>
<!-- Node42&#45;&gt;Node40 -->
<g id="edge89" class="edge">
<title>Node42&#45;&gt;Node40</title>
<path fill="none" stroke="#191970" d="M2684.3315,-112.4554C2714.9994,-102.149 2755.2418,-88.6249 2784.3918,-78.8286"/>
<polygon fill="#191970" stroke="#191970" points="2785.842,-82.0336 2794.2061,-75.5303 2783.6121,-75.3983 2785.842,-82.0336"/>
</g>
<!-- Node43&#45;&gt;Node8 -->
<g id="edge91" class="edge">
<title>Node43&#45;&gt;Node8</title>
<path fill="none" stroke="#191970" d="M2151.1805,-246.1557C2140.7081,-236.1361 2126.9967,-222.6172 2115.5646,-210 2096.1526,-188.5756 2075.4038,-162.4712 2062.2267,-145.4418"/>
<polygon fill="#191970" stroke="#191970" points="2064.9426,-143.2319 2056.0733,-137.4365 2059.3927,-147.4979 2064.9426,-143.2319"/>
</g>
<!-- Node43&#45;&gt;Node24 -->
<g id="edge93" class="edge">
<title>Node43&#45;&gt;Node24</title>
<path fill="none" stroke="#191970" d="M2175.5712,-246.389C2188.6273,-221.7478 2214.4672,-172.9796 2228.6583,-146.1965"/>
<polygon fill="#191970" stroke="#191970" points="2231.8866,-147.5791 2233.4758,-137.1042 2225.7012,-144.3018 2231.8866,-147.5791"/>
</g>
<!-- Node43&#45;&gt;Node33 -->
<g id="edge92" class="edge">
<title>Node43&#45;&gt;Node33</title>
<path fill="none" stroke="#191970" d="M2163.2532,-246.2967C2160.5229,-236.6685 2156.9677,-224.1318 2154.0388,-213.8038"/>
<polygon fill="#191970" stroke="#191970" points="2157.3698,-212.7207 2151.2742,-204.055 2150.6353,-214.6305 2157.3698,-212.7207"/>
</g>
<!-- Node44&#45;&gt;Node8 -->
<g id="edge95" class="edge">
<title>Node44&#45;&gt;Node8</title>
<path fill="none" stroke="#191970" d="M2049.5635,-246.2484C2047.7105,-236.0369 2045.5119,-222.269 2044.5646,-210 2042.9144,-188.6257 2044.5557,-164.0803 2046.207,-147.357"/>
<polygon fill="#191970" stroke="#191970" points="2049.7137,-147.483 2047.3114,-137.1641 2042.7545,-146.7288 2049.7137,-147.483"/>
</g>
<!-- Node44&#45;&gt;Node24 -->
<g id="edge97" class="edge">
<title>Node44&#45;&gt;Node24</title>
<path fill="none" stroke="#191970" d="M2060.7218,-246.4836C2071.2581,-228.3178 2091.1738,-197.8352 2115.5646,-179 2138.7769,-161.0749 2169.1364,-148.279 2193.885,-139.9255"/>
<polygon fill="#191970" stroke="#191970" points="2194.9836,-143.2487 2203.4143,-136.8321 2192.8222,-136.5908 2194.9836,-143.2487"/>
</g>
<!-- Node44&#45;&gt;Node33 -->
<g id="edge96" class="edge">
<title>Node44&#45;&gt;Node33</title>
<path fill="none" stroke="#191970" d="M2074.3485,-246.2967C2089.8866,-235.4524 2110.7117,-220.9182 2126.347,-210.006"/>
<polygon fill="#191970" stroke="#191970" points="2128.6767,-212.6483 2134.8739,-204.055 2124.6704,-206.908 2128.6767,-212.6483"/>
</g>
</g>
</svg>
