<?xml version="1.0" encoding="UTF-8" standalone="no"?>
<!DOCTYPE svg PUBLIC "-//W3C//DTD SVG 1.1//EN"
 "http://www.w3.org/Graphics/SVG/1.1/DTD/svg11.dtd">
<!-- Generated by graphviz version 2.40.1 (20161225.0304)
 -->
<!-- Title: /mnt/hdd/fnky/C0de/CAPSTONE/clean_build/include/Loaders/LoadingGameObjects.h Pages: 1 -->
<svg width="396pt" height="117pt"
 viewBox="0.00 0.00 396.00 117.00" xmlns="http://www.w3.org/2000/svg" xmlns:xlink="http://www.w3.org/1999/xlink">
<g id="graph0" class="graph" transform="scale(1 1) rotate(0) translate(4 113)">
<title>/mnt/hdd/fnky/C0de/CAPSTONE/clean_build/include/Loaders/LoadingGameObjects.h</title>
<!-- Node0 -->
<g id="node1" class="node">
<title>Node0</title>
<polygon fill="#bfbfbf" stroke="#000000" points="98.5,-56.5 98.5,-108.5 249.5,-108.5 249.5,-56.5 98.5,-56.5"/>
<text text-anchor="start" x="106.5" y="-96.5" font-family="Helvetica,sans-Serif" font-size="10.00" fill="#000000">/mnt/hdd/fnky/C0de</text>
<text text-anchor="start" x="106.5" y="-85.5" font-family="Helvetica,sans-Serif" font-size="10.00" fill="#000000">/CAPSTONE/clean_build</text>
<text text-anchor="start" x="106.5" y="-74.5" font-family="Helvetica,sans-Serif" font-size="10.00" fill="#000000">/include/Loaders/LoadingGame</text>
<text text-anchor="middle" x="174" y="-63.5" font-family="Helvetica,sans-Serif" font-size="10.00" fill="#000000">Objects.h</text>
</g>
<!-- Node1 -->
<g id="node2" class="node">
<title>Node1</title>
<polygon fill="none" stroke="#bfbfbf" points="0,-.5 0,-19.5 52,-19.5 52,-.5 0,-.5"/>
<text text-anchor="middle" x="26" y="-7.5" font-family="Helvetica,sans-Serif" font-size="10.00" fill="#000000">memory</text>
</g>
<!-- Node0&#45;&gt;Node1 -->
<g id="edge1" class="edge">
<title>Node0&#45;&gt;Node1</title>
<path fill="none" stroke="#191970" d="M120.5686,-56.3258C98.288,-45.4114 73.3052,-33.1731 54.615,-24.0175"/>
<polygon fill="#191970" stroke="#191970" points="55.9826,-20.7901 45.4625,-19.534 52.9032,-27.0764 55.9826,-20.7901"/>
</g>
<!-- Node2 -->
<g id="node3" class="node">
<title>Node2</title>
<polygon fill="none" stroke="#bfbfbf" points="70,-.5 70,-19.5 114,-19.5 114,-.5 70,-.5"/>
<text text-anchor="middle" x="92" y="-7.5" font-family="Helvetica,sans-Serif" font-size="10.00" fill="#000000">vector</text>
</g>
<!-- Node0&#45;&gt;Node2 -->
<g id="edge2" class="edge">
<title>Node0&#45;&gt;Node2</title>
<path fill="none" stroke="#191970" d="M144.3961,-56.3258C133.0708,-46.3126 120.4852,-35.1851 110.4879,-26.346"/>
<polygon fill="#191970" stroke="#191970" points="112.5933,-23.5357 102.7833,-19.534 107.9567,-28.7799 112.5933,-23.5357"/>
</g>
<!-- Node3 -->
<g id="node4" class="node">
<title>Node3</title>
<polygon fill="none" stroke="#bfbfbf" points="132.5,-.5 132.5,-19.5 215.5,-19.5 215.5,-.5 132.5,-.5"/>
<text text-anchor="middle" x="174" y="-7.5" font-family="Helvetica,sans-Serif" font-size="10.00" fill="#000000">unordered_map</text>
</g>
<!-- Node0&#45;&gt;Node3 -->
<g id="edge3" class="edge">
<title>Node0&#45;&gt;Node3</title>
<path fill="none" stroke="#191970" d="M174,-56.3258C174,-47.5142 174,-37.8397 174,-29.621"/>
<polygon fill="#191970" stroke="#191970" points="177.5001,-29.534 174,-19.534 170.5001,-29.534 177.5001,-29.534"/>
</g>
<!-- Node4 -->
<g id="node5" class="node">
<title>Node4</title>
<polygon fill="none" stroke="#bfbfbf" points="234,-.5 234,-19.5 290,-19.5 290,-.5 234,-.5"/>
<text text-anchor="middle" x="262" y="-7.5" font-family="Helvetica,sans-Serif" font-size="10.00" fill="#000000">tinyxml.h</text>
</g>
<!-- Node0&#45;&gt;Node4 -->
<g id="edge4" class="edge">
<title>Node0&#45;&gt;Node4</title>
<path fill="none" stroke="#191970" d="M205.77,-56.3258C218.0456,-46.2124 231.7008,-34.9624 242.4804,-26.0815"/>
<polygon fill="#191970" stroke="#191970" points="244.9352,-28.594 250.4277,-19.534 240.4841,-23.1913 244.9352,-28.594"/>
</g>
<!-- Node5 -->
<g id="node6" class="node">
<title>Node5</title>
<polygon fill="none" stroke="#bfbfbf" points="308,-.5 308,-19.5 388,-19.5 388,-.5 308,-.5"/>
<text text-anchor="middle" x="348" y="-7.5" font-family="Helvetica,sans-Serif" font-size="10.00" fill="#000000">box2d/box2d.h</text>
</g>
<!-- Node0&#45;&gt;Node5 -->
<g id="edge5" class="edge">
<title>Node0&#45;&gt;Node5</title>
<path fill="none" stroke="#191970" d="M236.818,-56.3258C263.6135,-45.161 293.7335,-32.6111 315.8582,-23.3924"/>
<polygon fill="#191970" stroke="#191970" points="317.2338,-26.611 325.1184,-19.534 314.5414,-20.1494 317.2338,-26.611"/>
</g>
</g>
</svg>
