<?xml version="1.0" encoding="UTF-8" standalone="no"?>
<!DOCTYPE svg PUBLIC "-//W3C//DTD SVG 1.1//EN"
 "http://www.w3.org/Graphics/SVG/1.1/DTD/svg11.dtd">
<!-- Generated by graphviz version 2.40.1 (20161225.0304)
 -->
<!-- Title: /mnt/hdd/fnky/C0de/CAPSTONE/clean_build/include/Loaders/LoadingGameObjects.h Pages: 1 -->
<svg width="1536pt" height="395pt"
 viewBox="0.00 0.00 1536.00 395.00" xmlns="http://www.w3.org/2000/svg" xmlns:xlink="http://www.w3.org/1999/xlink">
<g id="graph0" class="graph" transform="scale(1 1) rotate(0) translate(4 391)">
<title>/mnt/hdd/fnky/C0de/CAPSTONE/clean_build/include/Loaders/LoadingGameObjects.h</title>
<!-- Node6 -->
<g id="node1" class="node">
<title>Node6</title>
<polygon fill="#bfbfbf" stroke="#000000" points="1217,-334.5 1217,-386.5 1368,-386.5 1368,-334.5 1217,-334.5"/>
<text text-anchor="start" x="1225" y="-374.5" font-family="Helvetica,sans-Serif" font-size="10.00" fill="#000000">/mnt/hdd/fnky/C0de</text>
<text text-anchor="start" x="1225" y="-363.5" font-family="Helvetica,sans-Serif" font-size="10.00" fill="#000000">/CAPSTONE/clean_build</text>
<text text-anchor="start" x="1225" y="-352.5" font-family="Helvetica,sans-Serif" font-size="10.00" fill="#000000">/include/Loaders/LoadingGame</text>
<text text-anchor="middle" x="1292.5" y="-341.5" font-family="Helvetica,sans-Serif" font-size="10.00" fill="#000000">Objects.h</text>
</g>
<!-- Node7 -->
<g id="node2" class="node">
<title>Node7</title>
<g id="a_node2"><a xlink:href="GameData_8h.html" target="_top" xlink:title="/mnt/hdd/fnky/C0de\l/CAPSTONE/clean_build\l/include/GameData/GameData.h">
<polygon fill="none" stroke="#000000" points="683,-256.5 683,-297.5 842,-297.5 842,-256.5 683,-256.5"/>
<text text-anchor="start" x="691" y="-285.5" font-family="Helvetica,sans-Serif" font-size="10.00" fill="#000000">/mnt/hdd/fnky/C0de</text>
<text text-anchor="start" x="691" y="-274.5" font-family="Helvetica,sans-Serif" font-size="10.00" fill="#000000">/CAPSTONE/clean_build</text>
<text text-anchor="middle" x="762.5" y="-263.5" font-family="Helvetica,sans-Serif" font-size="10.00" fill="#000000">/include/GameData/GameData.h</text>
</a>
</g>
</g>
<!-- Node6&#45;&gt;Node7 -->
<g id="edge1" class="edge">
<title>Node6&#45;&gt;Node7</title>
<path fill="none" stroke="#191970" d="M1206.7049,-346.9832C1105.9975,-331.1171 940.3203,-305.0151 842.2858,-289.57"/>
<polygon fill="#191970" stroke="#191970" points="1206.4227,-350.4819 1216.8456,-348.5809 1207.5121,-343.5671 1206.4227,-350.4819"/>
</g>
<!-- Node16 -->
<g id="node11" class="node">
<title>Node16</title>
<g id="a_node11"><a xlink:href="game__play__state_8cpp.html" target="_top" xlink:title="/mnt/hdd/fnky/C0de\l/CAPSTONE/clean_build\l/src/States/game_play\l_state.cpp">
<polygon fill="none" stroke="#000000" points="1115,-78.5 1115,-130.5 1242,-130.5 1242,-78.5 1115,-78.5"/>
<text text-anchor="start" x="1123" y="-118.5" font-family="Helvetica,sans-Serif" font-size="10.00" fill="#000000">/mnt/hdd/fnky/C0de</text>
<text text-anchor="start" x="1123" y="-107.5" font-family="Helvetica,sans-Serif" font-size="10.00" fill="#000000">/CAPSTONE/clean_build</text>
<text text-anchor="start" x="1123" y="-96.5" font-family="Helvetica,sans-Serif" font-size="10.00" fill="#000000">/src/States/game_play</text>
<text text-anchor="middle" x="1178.5" y="-85.5" font-family="Helvetica,sans-Serif" font-size="10.00" fill="#000000">_state.cpp</text>
</a>
</g>
</g>
<!-- Node6&#45;&gt;Node16 -->
<g id="edge31" class="edge">
<title>Node6&#45;&gt;Node16</title>
<path fill="none" stroke="#191970" d="M1286.5961,-324.4313C1278.9116,-284.1043 1262.9743,-217.7966 1234.5,-167 1227.1624,-153.9101 1216.664,-141.236 1206.736,-130.762"/>
<polygon fill="#191970" stroke="#191970" points="1283.168,-325.142 1288.4181,-334.3446 1290.0527,-323.8766 1283.168,-325.142"/>
</g>
<!-- Node25 -->
<g id="node20" class="node">
<title>Node25</title>
<g id="a_node20"><a xlink:href="LoadingGameObjects_8cpp.html" target="_top" xlink:title="/mnt/hdd/fnky/C0de\l/CAPSTONE/clean_build\l/src/Loaders/LoadingGameObjects.cpp">
<polygon fill="none" stroke="#000000" points="1320.5,-256.5 1320.5,-297.5 1506.5,-297.5 1506.5,-256.5 1320.5,-256.5"/>
<text text-anchor="start" x="1328.5" y="-285.5" font-family="Helvetica,sans-Serif" font-size="10.00" fill="#000000">/mnt/hdd/fnky/C0de</text>
<text text-anchor="start" x="1328.5" y="-274.5" font-family="Helvetica,sans-Serif" font-size="10.00" fill="#000000">/CAPSTONE/clean_build</text>
<text text-anchor="middle" x="1413.5" y="-263.5" font-family="Helvetica,sans-Serif" font-size="10.00" fill="#000000">/src/Loaders/LoadingGameObjects.cpp</text>
</a>
</g>
</g>
<!-- Node6&#45;&gt;Node25 -->
<g id="edge30" class="edge">
<title>Node6&#45;&gt;Node25</title>
<path fill="none" stroke="#191970" d="M1338.6918,-328.6238C1353.8018,-318.1967 1370.175,-306.8978 1383.7403,-297.5367"/>
<polygon fill="#191970" stroke="#191970" points="1336.6958,-325.7487 1330.4532,-334.3092 1340.6716,-331.5101 1336.6958,-325.7487"/>
</g>
<!-- Node8 -->
<g id="node3" class="node">
<title>Node8</title>
<g id="a_node3"><a xlink:href="NetworkComponent_8h.html" target="_top" xlink:title="/mnt/hdd/fnky/C0de\l/CAPSTONE/clean_build\l/include/Components/NetworkComponent.h">
<polygon fill="none" stroke="#000000" points="1321,-173 1321,-214 1528,-214 1528,-173 1321,-173"/>
<text text-anchor="start" x="1329" y="-202" font-family="Helvetica,sans-Serif" font-size="10.00" fill="#000000">/mnt/hdd/fnky/C0de</text>
<text text-anchor="start" x="1329" y="-191" font-family="Helvetica,sans-Serif" font-size="10.00" fill="#000000">/CAPSTONE/clean_build</text>
<text text-anchor="middle" x="1424.5" y="-180" font-family="Helvetica,sans-Serif" font-size="10.00" fill="#000000">/include/Components/NetworkComponent.h</text>
</a>
</g>
</g>
<!-- Node7&#45;&gt;Node8 -->
<g id="edge2" class="edge">
<title>Node7&#45;&gt;Node8</title>
<path fill="none" stroke="#191970" d="M852.6232,-268.3881C953.9687,-258.346 1123.3617,-240.4858 1268.5,-220 1285.5011,-217.6004 1303.4991,-214.7929 1320.9941,-211.9198"/>
<polygon fill="#191970" stroke="#191970" points="852.0337,-264.9292 842.426,-269.3948 852.7216,-271.8953 852.0337,-264.9292"/>
</g>
<!-- Node11 -->
<g id="node6" class="node">
<title>Node11</title>
<g id="a_node6"><a xlink:href="game__over__state_8h.html" target="_top" xlink:title="/mnt/hdd/fnky/C0de\l/CAPSTONE/clean_build\l/include/States/game_over\l_state.h">
<polygon fill="none" stroke="#000000" points="216,-167.5 216,-219.5 349,-219.5 349,-167.5 216,-167.5"/>
<text text-anchor="start" x="224" y="-207.5" font-family="Helvetica,sans-Serif" font-size="10.00" fill="#000000">/mnt/hdd/fnky/C0de</text>
<text text-anchor="start" x="224" y="-196.5" font-family="Helvetica,sans-Serif" font-size="10.00" fill="#000000">/CAPSTONE/clean_build</text>
<text text-anchor="start" x="224" y="-185.5" font-family="Helvetica,sans-Serif" font-size="10.00" fill="#000000">/include/States/game_over</text>
<text text-anchor="middle" x="282.5" y="-174.5" font-family="Helvetica,sans-Serif" font-size="10.00" fill="#000000">_state.h</text>
</a>
</g>
</g>
<!-- Node7&#45;&gt;Node11 -->
<g id="edge5" class="edge">
<title>Node7&#45;&gt;Node11</title>
<path fill="none" stroke="#191970" d="M672.418,-268.6623C591.0021,-260.0579 468.226,-244.415 363.5,-220 358.8889,-218.925 354.165,-217.7047 349.4285,-216.3922"/>
<polygon fill="#191970" stroke="#191970" points="672.3236,-272.1713 682.6328,-269.7278 673.0499,-265.2091 672.3236,-272.1713"/>
</g>
<!-- Node12 -->
<g id="node7" class="node">
<title>Node12</title>
<g id="a_node7"><a xlink:href="game_8h.html" target="_top" xlink:title="/mnt/hdd/fnky/C0de\l/CAPSTONE/clean_build\l/include/Window/game.h">
<polygon fill="none" stroke="#000000" points="406,-84 406,-125 533,-125 533,-84 406,-84"/>
<text text-anchor="start" x="414" y="-113" font-family="Helvetica,sans-Serif" font-size="10.00" fill="#000000">/mnt/hdd/fnky/C0de</text>
<text text-anchor="start" x="414" y="-102" font-family="Helvetica,sans-Serif" font-size="10.00" fill="#000000">/CAPSTONE/clean_build</text>
<text text-anchor="middle" x="469.5" y="-91" font-family="Helvetica,sans-Serif" font-size="10.00" fill="#000000">/include/Window/game.h</text>
</a>
</g>
</g>
<!-- Node7&#45;&gt;Node12 -->
<g id="edge22" class="edge">
<title>Node7&#45;&gt;Node12</title>
<path fill="none" stroke="#191970" d="M672.5122,-269.0675C569.9998,-259.1022 414.2857,-240.77 396.5,-220 381.1788,-202.108 386.6511,-188.3977 396.5,-167 404.3827,-149.874 419.5297,-135.6896 433.9922,-125.1867"/>
<polygon fill="#191970" stroke="#191970" points="672.2798,-272.5612 682.5691,-270.0349 672.9502,-265.5933 672.2798,-272.5612"/>
</g>
<!-- Node14 -->
<g id="node9" class="node">
<title>Node14</title>
<g id="a_node9"><a xlink:href="game__over__state_8cpp.html" target="_top" xlink:title="/mnt/hdd/fnky/C0de\l/CAPSTONE/clean_build\l/src/States/game_over\l_state.cpp">
<polygon fill="none" stroke="#000000" points="216,-78.5 216,-130.5 343,-130.5 343,-78.5 216,-78.5"/>
<text text-anchor="start" x="224" y="-118.5" font-family="Helvetica,sans-Serif" font-size="10.00" fill="#000000">/mnt/hdd/fnky/C0de</text>
<text text-anchor="start" x="224" y="-107.5" font-family="Helvetica,sans-Serif" font-size="10.00" fill="#000000">/CAPSTONE/clean_build</text>
<text text-anchor="start" x="224" y="-96.5" font-family="Helvetica,sans-Serif" font-size="10.00" fill="#000000">/src/States/game_over</text>
<text text-anchor="middle" x="279.5" y="-85.5" font-family="Helvetica,sans-Serif" font-size="10.00" fill="#000000">_state.cpp</text>
</a>
</g>
</g>
<!-- Node7&#45;&gt;Node14 -->
<g id="edge25" class="edge">
<title>Node7&#45;&gt;Node14</title>
<path fill="none" stroke="#191970" d="M672.9528,-273.0047C486.9463,-264.2713 74.2255,-242.4586 53.5,-220 37.525,-202.6892 39.2352,-185.7451 53.5,-167 63.5613,-153.7786 152.6946,-132.0037 215.9608,-117.9609"/>
<polygon fill="#191970" stroke="#191970" points="672.8331,-276.5028 682.9856,-273.4734 673.1598,-269.5104 672.8331,-276.5028"/>
</g>
<!-- Node15 -->
<g id="node10" class="node">
<title>Node15</title>
<g id="a_node10"><a xlink:href="game__play__state_8h.html" target="_top" xlink:title="/mnt/hdd/fnky/C0de\l/CAPSTONE/clean_build\l/include/States/game_play\l_state.h">
<polygon fill="none" stroke="#000000" points="696.5,-167.5 696.5,-219.5 828.5,-219.5 828.5,-167.5 696.5,-167.5"/>
<text text-anchor="start" x="704.5" y="-207.5" font-family="Helvetica,sans-Serif" font-size="10.00" fill="#000000">/mnt/hdd/fnky/C0de</text>
<text text-anchor="start" x="704.5" y="-196.5" font-family="Helvetica,sans-Serif" font-size="10.00" fill="#000000">/CAPSTONE/clean_build</text>
<text text-anchor="start" x="704.5" y="-185.5" font-family="Helvetica,sans-Serif" font-size="10.00" fill="#000000">/include/States/game_play</text>
<text text-anchor="middle" x="762.5" y="-174.5" font-family="Helvetica,sans-Serif" font-size="10.00" fill="#000000">_state.h</text>
</a>
</g>
</g>
<!-- Node7&#45;&gt;Node15 -->
<g id="edge10" class="edge">
<title>Node7&#45;&gt;Node15</title>
<path fill="none" stroke="#191970" d="M762.5,-246.1618C762.5,-237.4305 762.5,-228.0145 762.5,-219.5925"/>
<polygon fill="#191970" stroke="#191970" points="759.0001,-246.3595 762.5,-256.3595 766.0001,-246.3596 759.0001,-246.3595"/>
</g>
<!-- Node7&#45;&gt;Node16 -->
<g id="edge26" class="edge">
<title>Node7&#45;&gt;Node16</title>
<path fill="none" stroke="#191970" d="M852.2733,-272.0153C977.7154,-264.119 1192.8336,-246.8235 1216.5,-220 1238.7059,-194.8317 1218.6692,-156.3722 1200.2969,-130.8405"/>
<polygon fill="#191970" stroke="#191970" points="852.0484,-268.5224 842.2848,-272.6361 852.4827,-275.5089 852.0484,-268.5224"/>
</g>
<!-- Node17 -->
<g id="node12" class="node">
<title>Node17</title>
<g id="a_node12"><a xlink:href="loading__play__state_8h.html" target="_top" xlink:title="/mnt/hdd/fnky/C0de\l/CAPSTONE/clean_build\l/include/States/loading\l_play_state.h">
<polygon fill="none" stroke="#000000" points="406,-167.5 406,-219.5 533,-219.5 533,-167.5 406,-167.5"/>
<text text-anchor="start" x="414" y="-207.5" font-family="Helvetica,sans-Serif" font-size="10.00" fill="#000000">/mnt/hdd/fnky/C0de</text>
<text text-anchor="start" x="414" y="-196.5" font-family="Helvetica,sans-Serif" font-size="10.00" fill="#000000">/CAPSTONE/clean_build</text>
<text text-anchor="start" x="414" y="-185.5" font-family="Helvetica,sans-Serif" font-size="10.00" fill="#000000">/include/States/loading</text>
<text text-anchor="middle" x="469.5" y="-174.5" font-family="Helvetica,sans-Serif" font-size="10.00" fill="#000000">_play_state.h</text>
</a>
</g>
</g>
<!-- Node7&#45;&gt;Node17 -->
<g id="edge13" class="edge">
<title>Node7&#45;&gt;Node17</title>
<path fill="none" stroke="#191970" d="M673.1025,-256.107C632.6497,-246.0994 584.3924,-233.3878 541.5,-220 538.8299,-219.1666 536.1133,-218.2916 533.376,-217.3874"/>
<polygon fill="#191970" stroke="#191970" points="672.3958,-259.5374 682.9423,-258.5262 674.0671,-252.7398 672.3958,-259.5374"/>
</g>
<!-- Node18 -->
<g id="node13" class="node">
<title>Node18</title>
<g id="a_node13"><a xlink:href="loading__play__state_8cpp.html" target="_top" xlink:title="/mnt/hdd/fnky/C0de\l/CAPSTONE/clean_build\l/src/States/loading_play\l_state.cpp">
<polygon fill="none" stroke="#000000" points="664,-78.5 664,-130.5 791,-130.5 791,-78.5 664,-78.5"/>
<text text-anchor="start" x="672" y="-118.5" font-family="Helvetica,sans-Serif" font-size="10.00" fill="#000000">/mnt/hdd/fnky/C0de</text>
<text text-anchor="start" x="672" y="-107.5" font-family="Helvetica,sans-Serif" font-size="10.00" fill="#000000">/CAPSTONE/clean_build</text>
<text text-anchor="start" x="672" y="-96.5" font-family="Helvetica,sans-Serif" font-size="10.00" fill="#000000">/src/States/loading_play</text>
<text text-anchor="middle" x="727.5" y="-85.5" font-family="Helvetica,sans-Serif" font-size="10.00" fill="#000000">_state.cpp</text>
</a>
</g>
</g>
<!-- Node7&#45;&gt;Node18 -->
<g id="edge27" class="edge">
<title>Node7&#45;&gt;Node18</title>
<path fill="none" stroke="#191970" d="M811.0552,-250.4721C821.6854,-242.199 831.5351,-232.0254 837.5,-220 847.9672,-198.8978 849.3481,-187.3589 837.5,-167 827.0598,-149.0603 809.3382,-135.8486 791.1337,-126.3188"/>
<polygon fill="#191970" stroke="#191970" points="808.875,-247.7295 802.8255,-256.4274 812.9787,-253.4005 808.875,-247.7295"/>
</g>
<!-- Node19 -->
<g id="node14" class="node">
<title>Node19</title>
<g id="a_node14"><a xlink:href="main__menu__state_8h.html" target="_top" xlink:title="/mnt/hdd/fnky/C0de\l/CAPSTONE/clean_build\l/include/States/main_menu\l_state.h">
<polygon fill="none" stroke="#000000" points="63,-167.5 63,-219.5 198,-219.5 198,-167.5 63,-167.5"/>
<text text-anchor="start" x="71" y="-207.5" font-family="Helvetica,sans-Serif" font-size="10.00" fill="#000000">/mnt/hdd/fnky/C0de</text>
<text text-anchor="start" x="71" y="-196.5" font-family="Helvetica,sans-Serif" font-size="10.00" fill="#000000">/CAPSTONE/clean_build</text>
<text text-anchor="start" x="71" y="-185.5" font-family="Helvetica,sans-Serif" font-size="10.00" fill="#000000">/include/States/main_menu</text>
<text text-anchor="middle" x="130.5" y="-174.5" font-family="Helvetica,sans-Serif" font-size="10.00" fill="#000000">_state.h</text>
</a>
</g>
</g>
<!-- Node7&#45;&gt;Node19 -->
<g id="edge16" class="edge">
<title>Node7&#45;&gt;Node19</title>
<path fill="none" stroke="#191970" d="M672.7188,-274.2272C561.9418,-269.3393 368.3894,-256.0031 206.5,-220 203.7719,-219.3933 201.0063,-218.7197 198.2255,-217.9932"/>
<polygon fill="#191970" stroke="#191970" points="672.7077,-277.7298 682.8482,-274.6607 673.007,-270.7362 672.7077,-277.7298"/>
</g>
<!-- Node20 -->
<g id="node15" class="node">
<title>Node20</title>
<g id="a_node15"><a xlink:href="main__menu__state_8cpp.html" target="_top" xlink:title="/mnt/hdd/fnky/C0de\l/CAPSTONE/clean_build\l/src/States/main_menu\l_state.cpp">
<polygon fill="none" stroke="#000000" points="0,-78.5 0,-130.5 127,-130.5 127,-78.5 0,-78.5"/>
<text text-anchor="start" x="8" y="-118.5" font-family="Helvetica,sans-Serif" font-size="10.00" fill="#000000">/mnt/hdd/fnky/C0de</text>
<text text-anchor="start" x="8" y="-107.5" font-family="Helvetica,sans-Serif" font-size="10.00" fill="#000000">/CAPSTONE/clean_build</text>
<text text-anchor="start" x="8" y="-96.5" font-family="Helvetica,sans-Serif" font-size="10.00" fill="#000000">/src/States/main_menu</text>
<text text-anchor="middle" x="63.5" y="-85.5" font-family="Helvetica,sans-Serif" font-size="10.00" fill="#000000">_state.cpp</text>
</a>
</g>
</g>
<!-- Node7&#45;&gt;Node20 -->
<g id="edge28" class="edge">
<title>Node7&#45;&gt;Node20</title>
<path fill="none" stroke="#191970" d="M672.4695,-273.1384C483.2166,-264.5843 59.7327,-242.9701 38.5,-220 16.2178,-195.8946 31.554,-156.8038 46.1895,-130.8755"/>
<polygon fill="#191970" stroke="#191970" points="672.5266,-276.6444 682.6738,-273.5973 672.8411,-269.6515 672.5266,-276.6444"/>
</g>
<!-- Node21 -->
<g id="node16" class="node">
<title>Node21</title>
<g id="a_node16"><a xlink:href="splash__state_8h.html" target="_top" xlink:title="/mnt/hdd/fnky/C0de\l/CAPSTONE/clean_build\l/include/States/splash\l_state.h">
<polygon fill="none" stroke="#000000" points="551,-167.5 551,-219.5 678,-219.5 678,-167.5 551,-167.5"/>
<text text-anchor="start" x="559" y="-207.5" font-family="Helvetica,sans-Serif" font-size="10.00" fill="#000000">/mnt/hdd/fnky/C0de</text>
<text text-anchor="start" x="559" y="-196.5" font-family="Helvetica,sans-Serif" font-size="10.00" fill="#000000">/CAPSTONE/clean_build</text>
<text text-anchor="start" x="559" y="-185.5" font-family="Helvetica,sans-Serif" font-size="10.00" fill="#000000">/include/States/splash</text>
<text text-anchor="middle" x="614.5" y="-174.5" font-family="Helvetica,sans-Serif" font-size="10.00" fill="#000000">_state.h</text>
</a>
</g>
</g>
<!-- Node7&#45;&gt;Node21 -->
<g id="edge19" class="edge">
<title>Node7&#45;&gt;Node21</title>
<path fill="none" stroke="#191970" d="M716.8586,-251.2496C699.0362,-241.1944 678.6281,-229.6804 660.7478,-219.5925"/>
<polygon fill="#191970" stroke="#191970" points="715.4864,-254.494 725.9157,-256.3595 718.9261,-248.3974 715.4864,-254.494"/>
</g>
<!-- Node22 -->
<g id="node17" class="node">
<title>Node22</title>
<g id="a_node17"><a xlink:href="splash__state_8cpp.html" target="_top" xlink:title="/mnt/hdd/fnky/C0de\l/CAPSTONE/clean_build\l/src/States/splash_state.cpp">
<polygon fill="none" stroke="#000000" points="906.5,-84 906.5,-125 1048.5,-125 1048.5,-84 906.5,-84"/>
<text text-anchor="start" x="914.5" y="-113" font-family="Helvetica,sans-Serif" font-size="10.00" fill="#000000">/mnt/hdd/fnky/C0de</text>
<text text-anchor="start" x="914.5" y="-102" font-family="Helvetica,sans-Serif" font-size="10.00" fill="#000000">/CAPSTONE/clean_build</text>
<text text-anchor="middle" x="977.5" y="-91" font-family="Helvetica,sans-Serif" font-size="10.00" fill="#000000">/src/States/splash_state.cpp</text>
</a>
</g>
</g>
<!-- Node7&#45;&gt;Node22 -->
<g id="edge29" class="edge">
<title>Node7&#45;&gt;Node22</title>
<path fill="none" stroke="#191970" d="M852.328,-271.4787C973.0299,-263.129 1175.1143,-245.5104 1197.5,-220 1213.0366,-202.2947 1211.6992,-185.7949 1197.5,-167 1188.2104,-154.7038 1109.2774,-134.3355 1048.5873,-120.208"/>
<polygon fill="#191970" stroke="#191970" points="852.0851,-267.9871 842.347,-272.1609 852.5625,-274.9708 852.0851,-267.9871"/>
</g>
<!-- Node23 -->
<g id="node18" class="node">
<title>Node23</title>
<g id="a_node18"><a xlink:href="Animated__Player__Actor_8cpp.html" target="_top" xlink:title="/mnt/hdd/fnky/C0de\l/CAPSTONE/clean_build\l/src/Actors/Animated_Player\l_Actor.cpp">
<polygon fill="none" stroke="#000000" points="884.5,-167.5 884.5,-219.5 1026.5,-219.5 1026.5,-167.5 884.5,-167.5"/>
<text text-anchor="start" x="892.5" y="-207.5" font-family="Helvetica,sans-Serif" font-size="10.00" fill="#000000">/mnt/hdd/fnky/C0de</text>
<text text-anchor="start" x="892.5" y="-196.5" font-family="Helvetica,sans-Serif" font-size="10.00" fill="#000000">/CAPSTONE/clean_build</text>
<text text-anchor="start" x="892.5" y="-185.5" font-family="Helvetica,sans-Serif" font-size="10.00" fill="#000000">/src/Actors/Animated_Player</text>
<text text-anchor="middle" x="955.5" y="-174.5" font-family="Helvetica,sans-Serif" font-size="10.00" fill="#000000">_Actor.cpp</text>
</a>
</g>
</g>
<!-- Node7&#45;&gt;Node23 -->
<g id="edge23" class="edge">
<title>Node7&#45;&gt;Node23</title>
<path fill="none" stroke="#191970" d="M819.4742,-252.3506C843.3025,-242.0414 871.0178,-230.0506 895.1903,-219.5925"/>
<polygon fill="#191970" stroke="#191970" points="817.996,-249.1765 810.2079,-256.3595 820.7755,-255.601 817.996,-249.1765"/>
</g>
<!-- Node24 -->
<g id="node19" class="node">
<title>Node24</title>
<g id="a_node19"><a xlink:href="Player__Actor_8cpp.html" target="_top" xlink:title="/mnt/hdd/fnky/C0de\l/CAPSTONE/clean_build\l/src/Actors/Player_Actor.cpp">
<polygon fill="none" stroke="#000000" points="1045,-173 1045,-214 1188,-214 1188,-173 1045,-173"/>
<text text-anchor="start" x="1053" y="-202" font-family="Helvetica,sans-Serif" font-size="10.00" fill="#000000">/mnt/hdd/fnky/C0de</text>
<text text-anchor="start" x="1053" y="-191" font-family="Helvetica,sans-Serif" font-size="10.00" fill="#000000">/CAPSTONE/clean_build</text>
<text text-anchor="middle" x="1116.5" y="-180" font-family="Helvetica,sans-Serif" font-size="10.00" fill="#000000">/src/Actors/Player_Actor.cpp</text>
</a>
</g>
</g>
<!-- Node7&#45;&gt;Node24 -->
<g id="edge24" class="edge">
<title>Node7&#45;&gt;Node24</title>
<path fill="none" stroke="#191970" d="M852.3383,-260.832C905.8699,-250.5567 974.9648,-236.1691 1035.5,-220 1042.2186,-218.2055 1049.2004,-216.1766 1056.1224,-214.06"/>
<polygon fill="#191970" stroke="#191970" points="851.3561,-257.4561 842.1885,-262.7668 852.667,-264.3323 851.3561,-257.4561"/>
</g>
<!-- Node9 -->
<g id="node4" class="node">
<title>Node9</title>
<g id="a_node4"><a xlink:href="NetworkComponent_8cpp.html" target="_top" xlink:title="/mnt/hdd/fnky/C0de\l/CAPSTONE/clean_build\l/src/Components/NetworkComponent.cpp">
<polygon fill="none" stroke="#000000" points="1260.5,-84 1260.5,-125 1460.5,-125 1460.5,-84 1260.5,-84"/>
<text text-anchor="start" x="1268.5" y="-113" font-family="Helvetica,sans-Serif" font-size="10.00" fill="#000000">/mnt/hdd/fnky/C0de</text>
<text text-anchor="start" x="1268.5" y="-102" font-family="Helvetica,sans-Serif" font-size="10.00" fill="#000000">/CAPSTONE/clean_build</text>
<text text-anchor="middle" x="1360.5" y="-91" font-family="Helvetica,sans-Serif" font-size="10.00" fill="#000000">/src/Components/NetworkComponent.cpp</text>
</a>
</g>
</g>
<!-- Node8&#45;&gt;Node9 -->
<g id="edge3" class="edge">
<title>Node8&#45;&gt;Node9</title>
<path fill="none" stroke="#191970" d="M1403.7935,-164.7051C1394.4921,-151.7702 1383.7303,-136.8046 1375.2633,-125.0301"/>
<polygon fill="#191970" stroke="#191970" points="1400.9764,-166.7825 1409.6563,-172.8579 1406.6596,-162.6957 1400.9764,-166.7825"/>
</g>
<!-- Node10 -->
<g id="node5" class="node">
<title>Node10</title>
<g id="a_node5"><a xlink:href="game_8cpp.html" target="_top" xlink:title="/mnt/hdd/fnky/C0de\l/CAPSTONE/clean_build\l/src/Window/game.cpp">
<polygon fill="none" stroke="#000000" points="956,-.5 956,-41.5 1083,-41.5 1083,-.5 956,-.5"/>
<text text-anchor="start" x="964" y="-29.5" font-family="Helvetica,sans-Serif" font-size="10.00" fill="#000000">/mnt/hdd/fnky/C0de</text>
<text text-anchor="start" x="964" y="-18.5" font-family="Helvetica,sans-Serif" font-size="10.00" fill="#000000">/CAPSTONE/clean_build</text>
<text text-anchor="middle" x="1019.5" y="-7.5" font-family="Helvetica,sans-Serif" font-size="10.00" fill="#000000">/src/Window/game.cpp</text>
</a>
</g>
</g>
<!-- Node8&#45;&gt;Node10 -->
<g id="edge4" class="edge">
<title>Node8&#45;&gt;Node10</title>
<path fill="none" stroke="#191970" d="M1450.5576,-165.0933C1470.5959,-139.7533 1491.4553,-102.9118 1469.5,-78 1444.3772,-49.4942 1201.3663,-31.5725 1083.2808,-24.478"/>
<polygon fill="#191970" stroke="#191970" points="1447.794,-162.9434 1444.1359,-172.8867 1453.1963,-167.3949 1447.794,-162.9434"/>
</g>
<!-- Node11&#45;&gt;Node12 -->
<g id="edge6" class="edge">
<title>Node11&#45;&gt;Node12</title>
<path fill="none" stroke="#191970" d="M346.487,-163.0463C372.7934,-150.5262 402.5727,-136.3531 426.2419,-125.0881"/>
<polygon fill="#191970" stroke="#191970" points="344.868,-159.9406 337.3426,-167.3984 347.8763,-166.2612 344.868,-159.9406"/>
</g>
<!-- Node11&#45;&gt;Node14 -->
<g id="edge9" class="edge">
<title>Node11&#45;&gt;Node14</title>
<path fill="none" stroke="#191970" d="M281.2736,-157.1155C280.9732,-148.2061 280.6578,-138.8475 280.3776,-130.5341"/>
<polygon fill="#191970" stroke="#191970" points="277.7811,-157.4021 281.6161,-167.2784 284.7772,-157.1662 277.7811,-157.4021"/>
</g>
<!-- Node12&#45;&gt;Node10 -->
<g id="edge8" class="edge">
<title>Node12&#45;&gt;Node10</title>
<path fill="none" stroke="#191970" d="M543.0169,-93.3388C651.55,-76.8615 852.8649,-46.2982 955.5951,-30.7019"/>
<polygon fill="#191970" stroke="#191970" points="542.4906,-89.8785 533.1293,-94.8399 543.5414,-96.7992 542.4906,-89.8785"/>
</g>
<!-- Node13 -->
<g id="node8" class="node">
<title>Node13</title>
<g id="a_node8"><a xlink:href="main_8cpp.html" target="_top" xlink:title="/mnt/hdd/fnky/C0de\l/CAPSTONE/clean_build\l/src/main.cpp">
<polygon fill="none" stroke="#000000" points="406,-.5 406,-41.5 533,-41.5 533,-.5 406,-.5"/>
<text text-anchor="start" x="414" y="-29.5" font-family="Helvetica,sans-Serif" font-size="10.00" fill="#000000">/mnt/hdd/fnky/C0de</text>
<text text-anchor="start" x="414" y="-18.5" font-family="Helvetica,sans-Serif" font-size="10.00" fill="#000000">/CAPSTONE/clean_build</text>
<text text-anchor="middle" x="469.5" y="-7.5" font-family="Helvetica,sans-Serif" font-size="10.00" fill="#000000">/src/main.cpp</text>
</a>
</g>
</g>
<!-- Node12&#45;&gt;Node13 -->
<g id="edge7" class="edge">
<title>Node12&#45;&gt;Node13</title>
<path fill="none" stroke="#191970" d="M469.5,-73.6593C469.5,-63.0064 469.5,-51.3344 469.5,-41.6924"/>
<polygon fill="#191970" stroke="#191970" points="466.0001,-73.8595 469.5,-83.8595 473.0001,-73.8596 466.0001,-73.8595"/>
</g>
<!-- Node15&#45;&gt;Node12 -->
<g id="edge11" class="edge">
<title>Node15&#45;&gt;Node12</title>
<path fill="none" stroke="#191970" d="M686.7998,-167.0954C686.6998,-167.0636 686.5999,-167.0318 686.5,-167 635.316,-150.7191 576.7678,-133.9643 533.396,-121.9056"/>
<polygon fill="#191970" stroke="#191970" points="685.6609,-170.4055 696.2529,-170.1597 687.8195,-163.7466 685.6609,-170.4055"/>
</g>
<!-- Node15&#45;&gt;Node16 -->
<g id="edge12" class="edge">
<title>Node15&#45;&gt;Node16</title>
<path fill="none" stroke="#191970" d="M838.5446,-175.2818C850.8818,-172.437 863.5333,-169.5859 875.5,-167 956.0959,-149.5842 976.7779,-147.8211 1057.5,-131 1076.1316,-127.1175 1096.3419,-122.7524 1114.8128,-118.7023"/>
<polygon fill="#191970" stroke="#191970" points="837.6874,-171.8876 828.7368,-177.5567 839.2691,-178.7066 837.6874,-171.8876"/>
</g>
<!-- Node17&#45;&gt;Node12 -->
<g id="edge14" class="edge">
<title>Node17&#45;&gt;Node12</title>
<path fill="none" stroke="#191970" d="M469.5,-157.1335C469.5,-146.2443 469.5,-134.6825 469.5,-125.1771"/>
<polygon fill="#191970" stroke="#191970" points="466.0001,-157.2784 469.5,-167.2784 473.0001,-157.2785 466.0001,-157.2784"/>
</g>
<!-- Node17&#45;&gt;Node18 -->
<g id="edge15" class="edge">
<title>Node17&#45;&gt;Node18</title>
<path fill="none" stroke="#191970" d="M542.7691,-166.5823C588.014,-150.7244 630.0676,-136.5944 663.6433,-125.4581"/>
<polygon fill="#191970" stroke="#191970" points="541.3415,-163.3741 533.0678,-169.992 543.6626,-169.9781 541.3415,-163.3741"/>
</g>
<!-- Node19&#45;&gt;Node12 -->
<g id="edge17" class="edge">
<title>Node19&#45;&gt;Node12</title>
<path fill="none" stroke="#191970" d="M207.9678,-166.7068C256.0766,-153.2792 344.7288,-132.7398 405.7268,-118.8664"/>
<polygon fill="#191970" stroke="#191970" points="206.9943,-163.3448 198.3418,-169.4592 208.9188,-170.0751 206.9943,-163.3448"/>
</g>
<!-- Node19&#45;&gt;Node20 -->
<g id="edge18" class="edge">
<title>Node19&#45;&gt;Node20</title>
<path fill="none" stroke="#191970" d="M104.634,-159.1407C97.479,-149.6363 89.8333,-139.4801 83.0987,-130.5341"/>
<polygon fill="#191970" stroke="#191970" points="101.9495,-161.3942 110.7602,-167.2784 107.542,-157.1842 101.9495,-161.3942"/>
</g>
<!-- Node21&#45;&gt;Node12 -->
<g id="edge20" class="edge">
<title>Node21&#45;&gt;Node12</title>
<path fill="none" stroke="#191970" d="M563.1188,-161.9626C543.2169,-149.7469 520.9887,-136.1034 503.1874,-125.1771"/>
<polygon fill="#191970" stroke="#191970" points="561.4259,-165.0302 571.7795,-167.2784 565.0877,-159.0643 561.4259,-165.0302"/>
</g>
<!-- Node21&#45;&gt;Node22 -->
<g id="edge21" class="edge">
<title>Node21&#45;&gt;Node22</title>
<path fill="none" stroke="#191970" d="M687.7821,-167.0711C767.7981,-144.4399 849.4078,-127.7106 906.2154,-117.0602"/>
<polygon fill="#191970" stroke="#191970" points="686.6852,-163.7444 678.0338,-169.8603 688.6108,-170.4744 686.6852,-163.7444"/>
</g>
</g>
</svg>
