<?xml version="1.0" encoding="UTF-8" standalone="no"?>
<!DOCTYPE svg PUBLIC "-//W3C//DTD SVG 1.1//EN"
 "http://www.w3.org/Graphics/SVG/1.1/DTD/svg11.dtd">
<!-- Generated by graphviz version 2.40.1 (20161225.0304)
 -->
<!-- Title: /mnt/hdd/fnky/C0de/CAPSTONE/clean_build/src/States/main_menu_state.cpp Pages: 1 -->
<svg width="2278pt" height="374pt"
 viewBox="0.00 0.00 2277.50 374.00" xmlns="http://www.w3.org/2000/svg" xmlns:xlink="http://www.w3.org/1999/xlink">
<g id="graph0" class="graph" transform="scale(1 1) rotate(0) translate(4 370)">
<title>/mnt/hdd/fnky/C0de/CAPSTONE/clean_build/src/States/main_menu_state.cpp</title>
<!-- Node0 -->
<g id="node1" class="node">
<title>Node0</title>
<polygon fill="#bfbfbf" stroke="#000000" points="1222.5,-313.5 1222.5,-365.5 1349.5,-365.5 1349.5,-313.5 1222.5,-313.5"/>
<text text-anchor="start" x="1230.5" y="-353.5" font-family="Helvetica,sans-Serif" font-size="10.00" fill="#000000">/mnt/hdd/fnky/C0de</text>
<text text-anchor="start" x="1230.5" y="-342.5" font-family="Helvetica,sans-Serif" font-size="10.00" fill="#000000">/CAPSTONE/clean_build</text>
<text text-anchor="start" x="1230.5" y="-331.5" font-family="Helvetica,sans-Serif" font-size="10.00" fill="#000000">/src/States/main_menu</text>
<text text-anchor="middle" x="1286" y="-320.5" font-family="Helvetica,sans-Serif" font-size="10.00" fill="#000000">_state.cpp</text>
</g>
<!-- Node1 -->
<g id="node2" class="node">
<title>Node1</title>
<polygon fill="none" stroke="#bfbfbf" points="736.5,-252 736.5,-271 783.5,-271 783.5,-252 736.5,-252"/>
<text text-anchor="middle" x="760" y="-259" font-family="Helvetica,sans-Serif" font-size="10.00" fill="#000000">AL/al.h</text>
</g>
<!-- Node0&#45;&gt;Node1 -->
<g id="edge1" class="edge">
<title>Node0&#45;&gt;Node1</title>
<path fill="none" stroke="#191970" d="M1222.4646,-337.7628C1127.3168,-333.7588 942.9638,-320.5464 793,-277 791.0852,-276.444 789.1421,-275.7901 787.2064,-275.0709"/>
<polygon fill="#191970" stroke="#191970" points="788.3318,-271.7469 777.7579,-271.0808 785.6085,-278.1955 788.3318,-271.7469"/>
</g>
<!-- Node2 -->
<g id="node3" class="node">
<title>Node2</title>
<polygon fill="none" stroke="#bfbfbf" points="802,-252 802,-271 858,-271 858,-252 802,-252"/>
<text text-anchor="middle" x="830" y="-259" font-family="Helvetica,sans-Serif" font-size="10.00" fill="#000000">AL/alut.h</text>
</g>
<!-- Node0&#45;&gt;Node2 -->
<g id="edge2" class="edge">
<title>Node0&#45;&gt;Node2</title>
<path fill="none" stroke="#191970" d="M1222.1516,-334.9374C1139.0989,-327.8822 990.0779,-311.3798 867,-277 864.6796,-276.3518 862.3106,-275.5958 859.9486,-274.7729"/>
<polygon fill="#191970" stroke="#191970" points="861.0105,-271.4316 850.4203,-271.1185 858.5038,-277.9674 861.0105,-271.4316"/>
</g>
<!-- Node3 -->
<g id="node4" class="node">
<title>Node3</title>
<g id="a_node4"><a xlink:href="imgui_8h.html" target="_top" xlink:title="../../include/IMGUI\l/imgui.h">
<polygon fill="none" stroke="#000000" points="258,-179.5 258,-209.5 356,-209.5 356,-179.5 258,-179.5"/>
<text text-anchor="start" x="266" y="-197.5" font-family="Helvetica,sans-Serif" font-size="10.00" fill="#000000">../../include/IMGUI</text>
<text text-anchor="middle" x="307" y="-186.5" font-family="Helvetica,sans-Serif" font-size="10.00" fill="#000000">/imgui.h</text>
</a>
</g>
</g>
<!-- Node0&#45;&gt;Node3 -->
<g id="edge3" class="edge">
<title>Node0&#45;&gt;Node3</title>
<path fill="none" stroke="#191970" d="M1222.2114,-315.7999C1198.031,-305.5052 1170.8424,-292.2847 1148,-277 1131.2757,-265.8092 1133.4765,-253.9722 1115,-246 993.5784,-193.6092 652.9506,-218.7768 521,-210 468.6977,-206.5211 409.2344,-202.1834 366.2859,-198.9823"/>
<polygon fill="#191970" stroke="#191970" points="366.5201,-195.4901 356.2871,-198.2353 365.9985,-202.4706 366.5201,-195.4901"/>
</g>
<!-- Node10 -->
<g id="node11" class="node">
<title>Node10</title>
<g id="a_node11"><a xlink:href="imgui__impl__glfw_8h.html" target="_top" xlink:title="../../include/IMGUI\l/imgui_impl_glfw.h">
<polygon fill="none" stroke="#000000" points="876,-246.5 876,-276.5 974,-276.5 974,-246.5 876,-246.5"/>
<text text-anchor="start" x="884" y="-264.5" font-family="Helvetica,sans-Serif" font-size="10.00" fill="#000000">../../include/IMGUI</text>
<text text-anchor="middle" x="925" y="-253.5" font-family="Helvetica,sans-Serif" font-size="10.00" fill="#000000">/imgui_impl_glfw.h</text>
</a>
</g>
</g>
<!-- Node0&#45;&gt;Node10 -->
<g id="edge10" class="edge">
<title>Node0&#45;&gt;Node10</title>
<path fill="none" stroke="#191970" d="M1222.4475,-327.3613C1161.1851,-315.4212 1065.9676,-296.2345 984,-277 983.9001,-276.9766 983.8001,-276.9531 983.7001,-276.9296"/>
<polygon fill="#191970" stroke="#191970" points="984.7493,-273.5824 974.2069,-274.635 983.1047,-280.3865 984.7493,-273.5824"/>
</g>
<!-- Node11 -->
<g id="node12" class="node">
<title>Node11</title>
<g id="a_node12"><a xlink:href="imgui__impl__opengl3_8h.html" target="_top" xlink:title="../../include/IMGUI\l/imgui_impl_opengl3.h">
<polygon fill="none" stroke="#000000" points="992.5,-246.5 992.5,-276.5 1105.5,-276.5 1105.5,-246.5 992.5,-246.5"/>
<text text-anchor="start" x="1000.5" y="-264.5" font-family="Helvetica,sans-Serif" font-size="10.00" fill="#000000">../../include/IMGUI</text>
<text text-anchor="middle" x="1049" y="-253.5" font-family="Helvetica,sans-Serif" font-size="10.00" fill="#000000">/imgui_impl_opengl3.h</text>
</a>
</g>
</g>
<!-- Node0&#45;&gt;Node11 -->
<g id="edge12" class="edge">
<title>Node0&#45;&gt;Node11</title>
<path fill="none" stroke="#191970" d="M1222.4883,-318.5974C1185.6412,-306.4705 1139.6797,-291.3439 1104.3227,-279.7075"/>
<polygon fill="#191970" stroke="#191970" points="1105.2407,-276.325 1094.6477,-276.5233 1103.0523,-282.9741 1105.2407,-276.325"/>
</g>
<!-- Node12 -->
<g id="node13" class="node">
<title>Node12</title>
<g id="a_node13"><a xlink:href="TransformComponent_8h.html" target="_top" xlink:title="../../include/Components\l/TransformComponent.h">
<polygon fill="none" stroke="#000000" points="779,-179.5 779,-209.5 903,-209.5 903,-179.5 779,-179.5"/>
<text text-anchor="start" x="787" y="-197.5" font-family="Helvetica,sans-Serif" font-size="10.00" fill="#000000">../../include/Components</text>
<text text-anchor="middle" x="841" y="-186.5" font-family="Helvetica,sans-Serif" font-size="10.00" fill="#000000">/TransformComponent.h</text>
</a>
</g>
</g>
<!-- Node0&#45;&gt;Node12 -->
<g id="edge14" class="edge">
<title>Node0&#45;&gt;Node12</title>
<path fill="none" stroke="#191970" d="M1259.4496,-313.1148C1232.8775,-286.9668 1194.7212,-250.2128 1186,-246 1139.185,-223.3858 999.9698,-207.9394 913.3616,-200.2188"/>
<polygon fill="#191970" stroke="#191970" points="913.5984,-196.7262 903.3306,-199.3381 912.9861,-203.6993 913.5984,-196.7262"/>
</g>
<!-- Node14 -->
<g id="node15" class="node">
<title>Node14</title>
<polygon fill="none" stroke="#bfbfbf" points="1378,-56.5 1378,-75.5 1430,-75.5 1430,-56.5 1378,-56.5"/>
<text text-anchor="middle" x="1404" y="-63.5" font-family="Helvetica,sans-Serif" font-size="10.00" fill="#000000">memory</text>
</g>
<!-- Node0&#45;&gt;Node14 -->
<g id="edge76" class="edge">
<title>Node0&#45;&gt;Node14</title>
<path fill="none" stroke="#191970" d="M1297.3143,-313.2757C1320.9645,-258.4594 1375.1478,-132.8735 1395.7994,-85.0074"/>
<polygon fill="#191970" stroke="#191970" points="1399.134,-86.1134 1399.8819,-75.545 1392.7067,-83.3403 1399.134,-86.1134"/>
</g>
<!-- Node17 -->
<g id="node18" class="node">
<title>Node17</title>
<g id="a_node18"><a xlink:href="ShaderComponent_8h.html" target="_top" xlink:title="../../include/Components\l/ShaderComponent.h">
<polygon fill="none" stroke="#000000" points="530,-179.5 530,-209.5 654,-209.5 654,-179.5 530,-179.5"/>
<text text-anchor="start" x="538" y="-197.5" font-family="Helvetica,sans-Serif" font-size="10.00" fill="#000000">../../include/Components</text>
<text text-anchor="middle" x="592" y="-186.5" font-family="Helvetica,sans-Serif" font-size="10.00" fill="#000000">/ShaderComponent.h</text>
</a>
</g>
</g>
<!-- Node0&#45;&gt;Node17 -->
<g id="edge19" class="edge">
<title>Node0&#45;&gt;Node17</title>
<path fill="none" stroke="#191970" d="M1241.4091,-313.2862C1223.8214,-302.5219 1203.6441,-289.6348 1186,-277 1168.2791,-264.3102 1168.1731,-254.2528 1148,-246 1142.4532,-243.7308 813.4496,-214.2142 664.2179,-200.9173"/>
<polygon fill="#191970" stroke="#191970" points="664.4932,-197.4281 654.222,-200.027 663.8721,-204.4005 664.4932,-197.4281"/>
</g>
<!-- Node20 -->
<g id="node21" class="node">
<title>Node20</title>
<g id="a_node21"><a xlink:href="RenderComponent_8h.html" target="_top" xlink:title="../../include/Components\l/RenderComponent.h">
<polygon fill="none" stroke="#000000" points="1028,-179.5 1028,-209.5 1152,-209.5 1152,-179.5 1028,-179.5"/>
<text text-anchor="start" x="1036" y="-197.5" font-family="Helvetica,sans-Serif" font-size="10.00" fill="#000000">../../include/Components</text>
<text text-anchor="middle" x="1090" y="-186.5" font-family="Helvetica,sans-Serif" font-size="10.00" fill="#000000">/RenderComponent.h</text>
</a>
</g>
</g>
<!-- Node0&#45;&gt;Node20 -->
<g id="edge24" class="edge">
<title>Node0&#45;&gt;Node20</title>
<path fill="none" stroke="#191970" d="M1274.2121,-313.249C1263.694,-292.47 1246.4851,-264.038 1224,-246 1205.8802,-231.4639 1183.1916,-220.6857 1161.6632,-212.856"/>
<polygon fill="#191970" stroke="#191970" points="1162.7953,-209.5442 1152.2005,-209.5712 1160.4996,-216.1571 1162.7953,-209.5442"/>
</g>
<!-- Node22 -->
<g id="node23" class="node">
<title>Node22</title>
<polygon fill="none" stroke="#bfbfbf" points="1790.5,-56.5 1790.5,-75.5 1833.5,-75.5 1833.5,-56.5 1790.5,-56.5"/>
<text text-anchor="middle" x="1812" y="-63.5" font-family="Helvetica,sans-Serif" font-size="10.00" fill="#000000">cstdio</text>
</g>
<!-- Node0&#45;&gt;Node22 -->
<g id="edge74" class="edge">
<title>Node0&#45;&gt;Node22</title>
<path fill="none" stroke="#191970" d="M1349.819,-337.0022C1445.4429,-332.0279 1630.9187,-317.5923 1783,-277 1931.973,-237.2373 2017.5856,-271.3682 2103,-143 2195.7517,-3.6047 2272.8391,-171.9783 1843.4581,-75.7296"/>
<polygon fill="#191970" stroke="#191970" points="1844.0726,-72.2801 1833.5461,-73.4811 1842.5241,-79.1067 1844.0726,-72.2801"/>
</g>
<!-- Node31 -->
<g id="node32" class="node">
<title>Node31</title>
<g id="a_node32"><a xlink:href="Actor_8h.html" target="_top" xlink:title="../../include/Actors\l/Actor.h">
<polygon fill="none" stroke="#000000" points="1198.5,-179.5 1198.5,-209.5 1295.5,-209.5 1295.5,-179.5 1198.5,-179.5"/>
<text text-anchor="start" x="1206.5" y="-197.5" font-family="Helvetica,sans-Serif" font-size="10.00" fill="#000000">../../include/Actors</text>
<text text-anchor="middle" x="1247" y="-186.5" font-family="Helvetica,sans-Serif" font-size="10.00" fill="#000000">/Actor.h</text>
</a>
</g>
</g>
<!-- Node0&#45;&gt;Node31 -->
<g id="edge46" class="edge">
<title>Node0&#45;&gt;Node31</title>
<path fill="none" stroke="#191970" d="M1279.5003,-313.2436C1274.7947,-294.4707 1268.198,-268.629 1262,-246 1259.6214,-237.3158 1256.8999,-227.8451 1254.4337,-219.4208"/>
<polygon fill="#191970" stroke="#191970" points="1257.7784,-218.3885 1251.5924,-209.7871 1251.0643,-220.3688 1257.7784,-218.3885"/>
</g>
<!-- Node33 -->
<g id="node34" class="node">
<title>Node33</title>
<g id="a_node34"><a xlink:href="GameData_8h.html" target="_top" xlink:title="../../include/GameData\l/GameData.h">
<polygon fill="none" stroke="#000000" points="1609,-179.5 1609,-209.5 1725,-209.5 1725,-179.5 1609,-179.5"/>
<text text-anchor="start" x="1617" y="-197.5" font-family="Helvetica,sans-Serif" font-size="10.00" fill="#000000">../../include/GameData</text>
<text text-anchor="middle" x="1667" y="-186.5" font-family="Helvetica,sans-Serif" font-size="10.00" fill="#000000">/GameData.h</text>
</a>
</g>
</g>
<!-- Node0&#45;&gt;Node33 -->
<g id="edge50" class="edge">
<title>Node0&#45;&gt;Node33</title>
<path fill="none" stroke="#191970" d="M1349.7708,-315.2303C1425.2847,-286.4914 1549.4204,-239.2481 1617.8701,-213.1977"/>
<polygon fill="#191970" stroke="#191970" points="1619.4516,-216.3408 1627.5528,-209.5127 1616.9618,-209.7986 1619.4516,-216.3408"/>
</g>
<!-- Node34 -->
<g id="node35" class="node">
<title>Node34</title>
<polygon fill="none" stroke="#bfbfbf" points="2014,-118 2014,-137 2094,-137 2094,-118 2014,-118"/>
<text text-anchor="middle" x="2054" y="-125" font-family="Helvetica,sans-Serif" font-size="10.00" fill="#000000">GLFW/glfw3.h</text>
</g>
<!-- Node0&#45;&gt;Node34 -->
<g id="edge73" class="edge">
<title>Node0&#45;&gt;Node34</title>
<path fill="none" stroke="#191970" d="M1349.7961,-335.781C1436.8557,-329.5195 1597.1281,-313.746 1729,-277 1802.0818,-256.6358 1817.0377,-241.6206 1886,-210 1935.7337,-187.1961 1992.723,-158.6996 2025.9082,-141.864"/>
<polygon fill="#191970" stroke="#191970" points="2027.6824,-144.8884 2035.0098,-137.236 2024.5096,-138.6487 2027.6824,-144.8884"/>
</g>
<!-- Node42 -->
<g id="node43" class="node">
<title>Node42</title>
<g id="a_node43"><a xlink:href="main__menu__state_8h.html" target="_top" xlink:title="../../include/States\l/main_menu_state.h">
<polygon fill="none" stroke="#000000" points="1614.5,-246.5 1614.5,-276.5 1719.5,-276.5 1719.5,-246.5 1614.5,-246.5"/>
<text text-anchor="start" x="1622.5" y="-264.5" font-family="Helvetica,sans-Serif" font-size="10.00" fill="#000000">../../include/States</text>
<text text-anchor="middle" x="1667" y="-253.5" font-family="Helvetica,sans-Serif" font-size="10.00" fill="#000000">/main_menu_state.h</text>
</a>
</g>
</g>
<!-- Node0&#45;&gt;Node42 -->
<g id="edge70" class="edge">
<title>Node0&#45;&gt;Node42</title>
<path fill="none" stroke="#191970" d="M1349.7708,-326.4446C1420.5398,-311.9564 1534.0124,-288.7258 1604.3335,-274.3294"/>
<polygon fill="#191970" stroke="#191970" points="1605.2906,-277.7061 1614.3854,-272.2715 1603.8866,-270.8483 1605.2906,-277.7061"/>
</g>
<!-- Node43 -->
<g id="node44" class="node">
<title>Node43</title>
<polygon fill="none" stroke="#bfbfbf" points="2102,-252 2102,-271 2148,-271 2148,-252 2102,-252"/>
<text text-anchor="middle" x="2125" y="-259" font-family="Helvetica,sans-Serif" font-size="10.00" fill="#000000">chrono</text>
</g>
<!-- Node0&#45;&gt;Node43 -->
<g id="edge75" class="edge">
<title>Node0&#45;&gt;Node43</title>
<path fill="none" stroke="#191970" d="M1349.5312,-337.1595C1513.5437,-330.7002 1948.0963,-310.8279 2088,-277 2090.638,-276.3622 2093.3301,-275.5593 2095.9989,-274.6566"/>
<polygon fill="#191970" stroke="#191970" points="2097.3249,-277.8969 2105.4231,-271.0653 2094.8322,-271.3557 2097.3249,-277.8969"/>
</g>
<!-- Node44 -->
<g id="node45" class="node">
<title>Node44</title>
<polygon fill="none" stroke="#bfbfbf" points="2166,-252 2166,-271 2210,-271 2210,-252 2166,-252"/>
<text text-anchor="middle" x="2188" y="-259" font-family="Helvetica,sans-Serif" font-size="10.00" fill="#000000">mutex</text>
</g>
<!-- Node0&#45;&gt;Node44 -->
<g id="edge77" class="edge">
<title>Node0&#45;&gt;Node44</title>
<path fill="none" stroke="#191970" d="M1349.7149,-338.1451C1523.8291,-333.9324 2004.7624,-318.7466 2157,-277 2158.7155,-276.5296 2160.4482,-275.9611 2162.1712,-275.3235"/>
<polygon fill="#191970" stroke="#191970" points="2163.9991,-278.3434 2171.7471,-271.1171 2161.1838,-271.9345 2163.9991,-278.3434"/>
</g>
<!-- Node45 -->
<g id="node46" class="node">
<title>Node45</title>
<polygon fill="none" stroke="#bfbfbf" points="2228.5,-252 2228.5,-271 2269.5,-271 2269.5,-252 2228.5,-252"/>
<text text-anchor="middle" x="2249" y="-259" font-family="Helvetica,sans-Serif" font-size="10.00" fill="#000000">future</text>
</g>
<!-- Node0&#45;&gt;Node45 -->
<g id="edge78" class="edge">
<title>Node0&#45;&gt;Node45</title>
<path fill="none" stroke="#191970" d="M1349.6424,-338.6054C1532.1641,-335.5082 2054.8025,-322.7773 2219,-277 2220.6694,-276.5346 2222.3533,-275.9699 2224.0261,-275.3352"/>
<polygon fill="#191970" stroke="#191970" points="2225.6388,-278.4472 2233.307,-271.1364 2222.7533,-272.0696 2225.6388,-278.4472"/>
</g>
<!-- Node4 -->
<g id="node5" class="node">
<title>Node4</title>
<g id="a_node5"><a xlink:href="imconfig_8h.html" target="_top" xlink:title="imconfig.h">
<polygon fill="none" stroke="#000000" points="0,-118 0,-137 62,-137 62,-118 0,-118"/>
<text text-anchor="middle" x="31" y="-125" font-family="Helvetica,sans-Serif" font-size="10.00" fill="#000000">imconfig.h</text>
</a>
</g>
</g>
<!-- Node3&#45;&gt;Node4 -->
<g id="edge4" class="edge">
<title>Node3&#45;&gt;Node4</title>
<path fill="none" stroke="#191970" d="M257.6195,-186.0301C209.4759,-177.234 134.4497,-162.091 71,-143 68.5663,-142.2677 66.0706,-141.4553 63.5728,-140.597"/>
<polygon fill="#191970" stroke="#191970" points="64.6486,-137.264 54.0546,-137.1325 62.2543,-143.8418 64.6486,-137.264"/>
</g>
<!-- Node5 -->
<g id="node6" class="node">
<title>Node5</title>
<polygon fill="none" stroke="#bfbfbf" points="80,-118 80,-137 124,-137 124,-118 80,-118"/>
<text text-anchor="middle" x="102" y="-125" font-family="Helvetica,sans-Serif" font-size="10.00" fill="#000000">float.h</text>
</g>
<!-- Node3&#45;&gt;Node5 -->
<g id="edge5" class="edge">
<title>Node3&#45;&gt;Node5</title>
<path fill="none" stroke="#191970" d="M257.8481,-182.428C222.5653,-173.1676 174.1754,-159.2412 133,-143 131.6356,-142.4618 130.25,-141.8856 128.8596,-141.2835"/>
<polygon fill="#191970" stroke="#191970" points="130.3308,-138.1078 119.7877,-137.0623 127.3777,-144.4544 130.3308,-138.1078"/>
</g>
<!-- Node6 -->
<g id="node7" class="node">
<title>Node6</title>
<polygon fill="none" stroke="#bfbfbf" points="142,-118 142,-137 194,-137 194,-118 142,-118"/>
<text text-anchor="middle" x="168" y="-125" font-family="Helvetica,sans-Serif" font-size="10.00" fill="#000000">stdarg.h</text>
</g>
<!-- Node3&#45;&gt;Node6 -->
<g id="edge6" class="edge">
<title>Node3&#45;&gt;Node6</title>
<path fill="none" stroke="#191970" d="M275.8057,-179.4639C252.2732,-168.1209 220.2198,-152.6707 197.1906,-141.5703"/>
<polygon fill="#191970" stroke="#191970" points="198.4524,-138.2932 187.9246,-137.1039 195.413,-144.5989 198.4524,-138.2932"/>
</g>
<!-- Node7 -->
<g id="node8" class="node">
<title>Node7</title>
<polygon fill="none" stroke="#bfbfbf" points="212,-118 212,-137 264,-137 264,-118 212,-118"/>
<text text-anchor="middle" x="238" y="-125" font-family="Helvetica,sans-Serif" font-size="10.00" fill="#000000">stddef.h</text>
</g>
<!-- Node3&#45;&gt;Node7 -->
<g id="edge7" class="edge">
<title>Node3&#45;&gt;Node7</title>
<path fill="none" stroke="#191970" d="M291.3428,-179.2967C280.5923,-168.8578 266.3206,-154.9997 255.2445,-144.2446"/>
<polygon fill="#191970" stroke="#191970" points="257.4527,-141.5103 247.8402,-137.055 252.5763,-146.5323 257.4527,-141.5103"/>
</g>
<!-- Node8 -->
<g id="node9" class="node">
<title>Node8</title>
<polygon fill="none" stroke="#bfbfbf" points="282.5,-118 282.5,-137 331.5,-137 331.5,-118 282.5,-118"/>
<text text-anchor="middle" x="307" y="-125" font-family="Helvetica,sans-Serif" font-size="10.00" fill="#000000">string.h</text>
</g>
<!-- Node3&#45;&gt;Node8 -->
<g id="edge8" class="edge">
<title>Node3&#45;&gt;Node8</title>
<path fill="none" stroke="#191970" d="M307,-179.2967C307,-169.7699 307,-157.3954 307,-147.1306"/>
<polygon fill="#191970" stroke="#191970" points="310.5001,-147.0549 307,-137.055 303.5001,-147.055 310.5001,-147.0549"/>
</g>
<!-- Node9 -->
<g id="node10" class="node">
<title>Node9</title>
<polygon fill="none" stroke="#bfbfbf" points="350,-118 350,-137 402,-137 402,-118 350,-118"/>
<text text-anchor="middle" x="376" y="-125" font-family="Helvetica,sans-Serif" font-size="10.00" fill="#000000">assert.h</text>
</g>
<!-- Node3&#45;&gt;Node9 -->
<g id="edge9" class="edge">
<title>Node3&#45;&gt;Node9</title>
<path fill="none" stroke="#191970" d="M322.6572,-179.2967C333.4077,-168.8578 347.6794,-154.9997 358.7555,-144.2446"/>
<polygon fill="#191970" stroke="#191970" points="361.4237,-146.5323 366.1598,-137.055 356.5473,-141.5103 361.4237,-146.5323"/>
</g>
<!-- Node10&#45;&gt;Node3 -->
<g id="edge11" class="edge">
<title>Node10&#45;&gt;Node3</title>
<path fill="none" stroke="#191970" d="M875.7667,-247.7346C872.8115,-247.0978 869.8731,-246.5122 867,-246 771.992,-229.0623 489.7662,-207.5725 366.133,-198.6619"/>
<polygon fill="#191970" stroke="#191970" points="366.3149,-195.166 356.0898,-197.9406 365.8134,-202.1481 366.3149,-195.166"/>
</g>
<!-- Node11&#45;&gt;Node3 -->
<g id="edge13" class="edge">
<title>Node11&#45;&gt;Node3</title>
<path fill="none" stroke="#191970" d="M992.2276,-247.5791C989.1151,-246.9998 986.0243,-246.4675 983,-246 952.7663,-241.3269 525.662,-210.2685 366.3454,-198.7705"/>
<polygon fill="#191970" stroke="#191970" points="366.4717,-195.2706 356.2458,-198.0419 365.968,-202.2525 366.4717,-195.2706"/>
</g>
<!-- Node13 -->
<g id="node14" class="node">
<title>Node13</title>
<g id="a_node14"><a xlink:href="Components_2Component_8h.html" target="_top" xlink:title="Component.h">
<polygon fill="none" stroke="#000000" points="1052.5,-118 1052.5,-137 1127.5,-137 1127.5,-118 1052.5,-118"/>
<text text-anchor="middle" x="1090" y="-125" font-family="Helvetica,sans-Serif" font-size="10.00" fill="#000000">Component.h</text>
</a>
</g>
</g>
<!-- Node12&#45;&gt;Node13 -->
<g id="edge15" class="edge">
<title>Node12&#45;&gt;Node13</title>
<path fill="none" stroke="#191970" d="M903.1859,-179.8206C943.2845,-170.0661 996.4476,-156.5929 1043,-143 1045.9562,-142.1368 1049.0061,-141.2115 1052.0653,-140.2583"/>
<polygon fill="#191970" stroke="#191970" points="1053.3038,-143.537 1061.7654,-137.1612 1051.1746,-136.8686 1053.3038,-143.537"/>
</g>
<!-- Node15 -->
<g id="node16" class="node">
<title>Node15</title>
<polygon fill="none" stroke="#bfbfbf" points="762,-56.5 762,-75.5 832,-75.5 832,-56.5 762,-56.5"/>
<text text-anchor="middle" x="797" y="-63.5" font-family="Helvetica,sans-Serif" font-size="10.00" fill="#000000">glm/glm.hpp</text>
</g>
<!-- Node12&#45;&gt;Node15 -->
<g id="edge17" class="edge">
<title>Node12&#45;&gt;Node15</title>
<path fill="none" stroke="#191970" d="M778.6005,-186.0495C728.8094,-177.8767 664.8594,-163.6739 649,-143 618.3608,-103.0594 697.5379,-81.8604 751.5442,-72.3645"/>
<polygon fill="#191970" stroke="#191970" points="752.3528,-75.7779 761.6364,-70.6725 751.1953,-68.8742 752.3528,-75.7779"/>
</g>
<!-- Node16 -->
<g id="node17" class="node">
<title>Node16</title>
<polygon fill="none" stroke="#bfbfbf" points="658,-118 658,-137 802,-137 802,-118 658,-118"/>
<text text-anchor="middle" x="730" y="-125" font-family="Helvetica,sans-Serif" font-size="10.00" fill="#000000">glm/gtc/matrix_transform.hpp</text>
</g>
<!-- Node12&#45;&gt;Node16 -->
<g id="edge18" class="edge">
<title>Node12&#45;&gt;Node16</title>
<path fill="none" stroke="#191970" d="M816.0894,-179.4639C797.7167,-168.3741 772.84,-153.3584 754.5526,-142.32"/>
<polygon fill="#191970" stroke="#191970" points="756.281,-139.2751 745.911,-137.1039 752.6636,-145.268 756.281,-139.2751"/>
</g>
<!-- Node13&#45;&gt;Node14 -->
<g id="edge16" class="edge">
<title>Node13&#45;&gt;Node14</title>
<path fill="none" stroke="#191970" d="M1127.7004,-120.6398C1193.8336,-108.5935 1327.0095,-84.2761 1367.7763,-75.9464"/>
<polygon fill="#191970" stroke="#191970" points="1368.6599,-79.3364 1377.6974,-73.8072 1367.1843,-72.4937 1368.6599,-79.3364"/>
</g>
<!-- Node17&#45;&gt;Node13 -->
<g id="edge20" class="edge">
<title>Node17&#45;&gt;Node13</title>
<path fill="none" stroke="#191970" d="M654.3984,-188.969C760.2195,-179.3219 970.452,-158.9284 1043,-143 1046.6558,-142.1973 1050.4284,-141.219 1054.1721,-140.1481"/>
<polygon fill="#191970" stroke="#191970" points="1055.3841,-143.4372 1063.9147,-137.1539 1053.3277,-136.7461 1055.3841,-143.4372"/>
</g>
<!-- Node17&#45;&gt;Node15 -->
<g id="edge22" class="edge">
<title>Node17&#45;&gt;Node15</title>
<path fill="none" stroke="#191970" d="M596.6713,-179.3553C603.1777,-160.7689 616.7437,-129.5651 639,-112 671.4167,-86.4161 717.5988,-75.058 751.6664,-70.0173"/>
<polygon fill="#191970" stroke="#191970" points="752.3794,-73.4529 761.8216,-68.647 751.4433,-66.5158 752.3794,-73.4529"/>
</g>
<!-- Node18 -->
<g id="node19" class="node">
<title>Node18</title>
<polygon fill="none" stroke="#bfbfbf" points="702,-.5 702,-19.5 766,-19.5 766,-.5 702,-.5"/>
<text text-anchor="middle" x="734" y="-7.5" font-family="Helvetica,sans-Serif" font-size="10.00" fill="#000000">glad/glad.h</text>
</g>
<!-- Node17&#45;&gt;Node18 -->
<g id="edge21" class="edge">
<title>Node17&#45;&gt;Node18</title>
<path fill="none" stroke="#191970" d="M592.5987,-179.4078C593.9094,-161.9808 598.0429,-133.0197 611,-112 634.9338,-73.1732 678.8594,-42.1464 707.2256,-24.9157"/>
<polygon fill="#191970" stroke="#191970" points="709.3718,-27.7127 716.1976,-19.6097 705.8085,-21.6875 709.3718,-27.7127"/>
</g>
<!-- Node19 -->
<g id="node20" class="node">
<title>Node19</title>
<polygon fill="none" stroke="#bfbfbf" points="420,-118 420,-137 526,-137 526,-118 420,-118"/>
<text text-anchor="middle" x="473" y="-125" font-family="Helvetica,sans-Serif" font-size="10.00" fill="#000000">glm/gtc/type_ptr.hpp</text>
</g>
<!-- Node17&#45;&gt;Node19 -->
<g id="edge23" class="edge">
<title>Node17&#45;&gt;Node19</title>
<path fill="none" stroke="#191970" d="M565.2941,-179.4639C545.4173,-168.2728 518.4399,-153.0838 498.7868,-142.0186"/>
<polygon fill="#191970" stroke="#191970" points="500.4887,-138.9602 490.0577,-137.1039 497.0544,-145.0599 500.4887,-138.9602"/>
</g>
<!-- Node20&#45;&gt;Node13 -->
<g id="edge31" class="edge">
<title>Node20&#45;&gt;Node13</title>
<path fill="none" stroke="#191970" d="M1090,-179.2967C1090,-169.7699 1090,-157.3954 1090,-147.1306"/>
<polygon fill="#191970" stroke="#191970" points="1093.5001,-147.0549 1090,-137.055 1086.5001,-147.055 1093.5001,-147.0549"/>
</g>
<!-- Node20&#45;&gt;Node14 -->
<g id="edge45" class="edge">
<title>Node20&#45;&gt;Node14</title>
<path fill="none" stroke="#191970" d="M1132.5293,-179.487C1160.1762,-169.5449 1196.9158,-155.9887 1229,-143 1280.6061,-122.1082 1339.7124,-95.5381 1374.3371,-79.699"/>
<polygon fill="#191970" stroke="#191970" points="1375.7969,-82.8801 1383.4273,-75.5297 1372.8786,-76.5174 1375.7969,-82.8801"/>
</g>
<!-- Node20&#45;&gt;Node15 -->
<g id="edge28" class="edge">
<title>Node20&#45;&gt;Node15</title>
<path fill="none" stroke="#191970" d="M1027.966,-184.8113C988.4579,-177.0476 936.9992,-163.9178 895,-143 863.2816,-127.2026 832.04,-100.1061 813.6452,-82.6316"/>
<polygon fill="#191970" stroke="#191970" points="815.9797,-80.02 806.3629,-75.5737 811.1079,-85.0466 815.9797,-80.02"/>
</g>
<!-- Node20&#45;&gt;Node16 -->
<g id="edge29" class="edge">
<title>Node20&#45;&gt;Node16</title>
<path fill="none" stroke="#191970" d="M1027.7038,-182.906C961.4184,-170.5695 857.211,-151.1754 791.3062,-138.9098"/>
<polygon fill="#191970" stroke="#191970" points="791.5411,-135.3934 781.0695,-137.0046 790.2602,-142.2753 791.5411,-135.3934"/>
</g>
<!-- Node20&#45;&gt;Node18 -->
<g id="edge27" class="edge">
<title>Node20&#45;&gt;Node18</title>
<path fill="none" stroke="#191970" d="M1027.8456,-190.5263C976.4303,-185.1621 902.7412,-172.5657 845,-143 826.7981,-133.6799 827.3116,-124.333 811,-112 786.7992,-93.7021 771.308,-100.1932 753,-76 742.8942,-62.6456 738.1582,-44.0781 735.9417,-30.0376"/>
<polygon fill="#191970" stroke="#191970" points="739.3899,-29.4093 734.6498,-19.934 732.4465,-30.2972 739.3899,-29.4093"/>
</g>
<!-- Node21 -->
<g id="node22" class="node">
<title>Node21</title>
<polygon fill="none" stroke="#bfbfbf" points="1174,-56.5 1174,-75.5 1220,-75.5 1220,-56.5 1174,-56.5"/>
<text text-anchor="middle" x="1197" y="-63.5" font-family="Helvetica,sans-Serif" font-size="10.00" fill="#000000">cstdint</text>
</g>
<!-- Node20&#45;&gt;Node21 -->
<g id="edge25" class="edge">
<title>Node20&#45;&gt;Node21</title>
<path fill="none" stroke="#191970" d="M1104.3019,-179.4548C1113.7829,-169.3304 1126.3841,-155.5821 1137,-143 1153.627,-123.2935 1171.6827,-99.8144 1183.5964,-84.0069"/>
<polygon fill="#191970" stroke="#191970" points="1186.6463,-85.7735 1189.844,-75.6727 1181.0453,-81.5748 1186.6463,-85.7735"/>
</g>
<!-- Node20&#45;&gt;Node22 -->
<g id="edge26" class="edge">
<title>Node20&#45;&gt;Node22</title>
<path fill="none" stroke="#191970" d="M1152.0328,-184.016C1164.5743,-182.1415 1177.6888,-180.3566 1190,-179 1311.0856,-165.6575 1626.3799,-194.0191 1737,-143 1764.5437,-130.2966 1787.3455,-102.6841 1800.3234,-84.2156"/>
<polygon fill="#191970" stroke="#191970" points="1803.3413,-86.0005 1806.0355,-75.7539 1797.5395,-82.084 1803.3413,-86.0005"/>
</g>
<!-- Node23 -->
<g id="node24" class="node">
<title>Node23</title>
<polygon fill="none" stroke="#bfbfbf" points="1184.5,-118 1184.5,-137 1219.5,-137 1219.5,-118 1184.5,-118"/>
<text text-anchor="middle" x="1202" y="-125" font-family="Helvetica,sans-Serif" font-size="10.00" fill="#000000">map</text>
</g>
<!-- Node20&#45;&gt;Node23 -->
<g id="edge30" class="edge">
<title>Node20&#45;&gt;Node23</title>
<path fill="none" stroke="#191970" d="M1115.135,-179.4639C1133.6732,-168.3741 1158.774,-153.3584 1177.2262,-142.32"/>
<polygon fill="#191970" stroke="#191970" points="1179.1608,-145.2412 1185.9457,-137.1039 1175.5672,-139.2341 1179.1608,-145.2412"/>
</g>
<!-- Node24 -->
<g id="node25" class="node">
<title>Node24</title>
<g id="a_node25"><a xlink:href="sprite_8h.html" target="_top" xlink:title="../Graphics/sprite.h">
<polygon fill="none" stroke="#000000" points="934,-118 934,-137 1034,-137 1034,-118 934,-118"/>
<text text-anchor="middle" x="984" y="-125" font-family="Helvetica,sans-Serif" font-size="10.00" fill="#000000">../Graphics/sprite.h</text>
</a>
</g>
</g>
<!-- Node20&#45;&gt;Node24 -->
<g id="edge32" class="edge">
<title>Node20&#45;&gt;Node24</title>
<path fill="none" stroke="#191970" d="M1066.2115,-179.4639C1048.7465,-168.4247 1025.1271,-153.4954 1007.6862,-142.4715"/>
<polygon fill="#191970" stroke="#191970" points="1009.5173,-139.4883 999.1943,-137.1039 1005.7772,-145.4054 1009.5173,-139.4883"/>
</g>
<!-- Node28 -->
<g id="node29" class="node">
<title>Node28</title>
<g id="a_node29"><a xlink:href="texture_8h.html" target="_top" xlink:title="texture.h">
<polygon fill="none" stroke="#000000" points="850.5,-56.5 850.5,-75.5 905.5,-75.5 905.5,-56.5 850.5,-56.5"/>
<text text-anchor="middle" x="878" y="-63.5" font-family="Helvetica,sans-Serif" font-size="10.00" fill="#000000">texture.h</text>
</a>
</g>
</g>
<!-- Node20&#45;&gt;Node28 -->
<g id="edge44" class="edge">
<title>Node20&#45;&gt;Node28</title>
<path fill="none" stroke="#191970" d="M1027.8311,-185.9736C994.6043,-178.8966 954.5722,-166.0772 925,-143 905.7773,-127.9992 892.5523,-102.7654 885.1395,-85.2932"/>
<polygon fill="#191970" stroke="#191970" points="888.2229,-83.5753 881.2734,-75.5781 881.719,-86.1636 888.2229,-83.5753"/>
</g>
<!-- Node24&#45;&gt;Node14 -->
<g id="edge41" class="edge">
<title>Node24&#45;&gt;Node14</title>
<path fill="none" stroke="#191970" d="M1017.4499,-117.9599C1026.0486,-115.7558 1035.3229,-113.593 1044,-112 1183.7286,-86.348 1224.5818,-103.2615 1367.7116,-75.9668"/>
<polygon fill="#191970" stroke="#191970" points="1368.5951,-79.3606 1377.7421,-74.0143 1367.2575,-72.4896 1368.5951,-79.3606"/>
</g>
<!-- Node24&#45;&gt;Node15 -->
<g id="edge36" class="edge">
<title>Node24&#45;&gt;Node15</title>
<path fill="none" stroke="#191970" d="M954.7813,-117.8906C922.6693,-107.3298 870.951,-90.3208 835.5392,-78.6747"/>
<polygon fill="#191970" stroke="#191970" points="836.6065,-75.3413 826.0136,-75.5419 834.4196,-81.9909 836.6065,-75.3413"/>
</g>
<!-- Node24&#45;&gt;Node21 -->
<g id="edge33" class="edge">
<title>Node24&#45;&gt;Node21</title>
<path fill="none" stroke="#191970" d="M1017.2813,-117.8906C1057.3214,-106.3297 1124.1237,-87.0417 1164.0263,-75.5206"/>
<polygon fill="#191970" stroke="#191970" points="1165.1632,-78.8354 1173.7998,-72.6987 1163.2213,-72.1101 1165.1632,-78.8354"/>
</g>
<!-- Node25 -->
<g id="node26" class="node">
<title>Node25</title>
<polygon fill="none" stroke="#bfbfbf" points="1072,-56.5 1072,-75.5 1118,-75.5 1118,-56.5 1072,-56.5"/>
<text text-anchor="middle" x="1095" y="-63.5" font-family="Helvetica,sans-Serif" font-size="10.00" fill="#000000">stdio.h</text>
</g>
<!-- Node24&#45;&gt;Node25 -->
<g id="edge34" class="edge">
<title>Node24&#45;&gt;Node25</title>
<path fill="none" stroke="#191970" d="M1001.3438,-117.8906C1019.4273,-107.8713 1047.9859,-92.0483 1068.8165,-80.5071"/>
<polygon fill="#191970" stroke="#191970" points="1070.7271,-83.4498 1077.778,-75.5419 1067.3346,-77.3268 1070.7271,-83.4498"/>
</g>
<!-- Node26 -->
<g id="node27" class="node">
<title>Node26</title>
<polygon fill="none" stroke="#bfbfbf" points="924,-56.5 924,-75.5 994,-75.5 994,-56.5 924,-56.5"/>
<text text-anchor="middle" x="959" y="-63.5" font-family="Helvetica,sans-Serif" font-size="10.00" fill="#000000">glm/fwd.hpp</text>
</g>
<!-- Node24&#45;&gt;Node26 -->
<g id="edge35" class="edge">
<title>Node24&#45;&gt;Node26</title>
<path fill="none" stroke="#191970" d="M980.0938,-117.8906C976.5554,-109.1862 971.2364,-96.1015 966.825,-85.2494"/>
<polygon fill="#191970" stroke="#191970" points="969.9695,-83.6907 962.9613,-75.7449 963.4848,-86.3268 969.9695,-83.6907"/>
</g>
<!-- Node27 -->
<g id="node28" class="node">
<title>Node27</title>
<polygon fill="none" stroke="#bfbfbf" points="1170,-.5 1170,-19.5 1224,-19.5 1224,-.5 1170,-.5"/>
<text text-anchor="middle" x="1197" y="-7.5" font-family="Helvetica,sans-Serif" font-size="10.00" fill="#000000">iostream</text>
</g>
<!-- Node24&#45;&gt;Node27 -->
<g id="edge37" class="edge">
<title>Node24&#45;&gt;Node27</title>
<path fill="none" stroke="#191970" d="M1023.5719,-117.9731C1053.4237,-109.697 1094.6226,-95.888 1127,-76 1148.4151,-62.8456 1168.839,-42.3536 1182.0385,-27.694"/>
<polygon fill="#191970" stroke="#191970" points="1184.9672,-29.6627 1188.9283,-19.8362 1179.7039,-25.0478 1184.9672,-29.6627"/>
</g>
<!-- Node24&#45;&gt;Node28 -->
<g id="edge38" class="edge">
<title>Node24&#45;&gt;Node28</title>
<path fill="none" stroke="#191970" d="M967.4375,-117.8906C950.2463,-107.9165 923.1418,-92.1908 903.2734,-80.6633"/>
<polygon fill="#191970" stroke="#191970" points="904.8523,-77.533 894.4462,-75.5419 901.3394,-83.5877 904.8523,-77.533"/>
</g>
<!-- Node29 -->
<g id="node30" class="node">
<title>Node29</title>
<polygon fill="none" stroke="#bfbfbf" points="1012.5,-56.5 1012.5,-75.5 1053.5,-75.5 1053.5,-56.5 1012.5,-56.5"/>
<text text-anchor="middle" x="1033" y="-63.5" font-family="Helvetica,sans-Serif" font-size="10.00" fill="#000000">string</text>
</g>
<!-- Node24&#45;&gt;Node29 -->
<g id="edge42" class="edge">
<title>Node24&#45;&gt;Node29</title>
<path fill="none" stroke="#191970" d="M991.6563,-117.8906C998.9489,-108.7376 1010.1007,-94.7409 1018.9852,-83.59"/>
<polygon fill="#191970" stroke="#191970" points="1021.7417,-85.747 1025.2358,-75.7449 1016.267,-81.3849 1021.7417,-85.747"/>
</g>
<!-- Node30 -->
<g id="node31" class="node">
<title>Node30</title>
<polygon fill="none" stroke="#bfbfbf" points="1276.5,-56.5 1276.5,-75.5 1359.5,-75.5 1359.5,-56.5 1276.5,-56.5"/>
<text text-anchor="middle" x="1318" y="-63.5" font-family="Helvetica,sans-Serif" font-size="10.00" fill="#000000">unordered_map</text>
</g>
<!-- Node24&#45;&gt;Node30 -->
<g id="edge43" class="edge">
<title>Node24&#45;&gt;Node30</title>
<path fill="none" stroke="#191970" d="M1018.7792,-117.972C1027.0155,-115.8667 1035.7919,-113.7458 1044,-112 1121.0606,-95.6098 1211.3265,-81.4089 1266.5778,-73.2756"/>
<polygon fill="#191970" stroke="#191970" points="1267.0874,-76.7384 1276.4759,-71.8284 1266.0747,-69.812 1267.0874,-76.7384"/>
</g>
<!-- Node28&#45;&gt;Node18 -->
<g id="edge40" class="edge">
<title>Node28&#45;&gt;Node18</title>
<path fill="none" stroke="#191970" d="M853.2455,-56.3733C829.7151,-47.2226 794.1313,-33.3844 767.9574,-23.2057"/>
<polygon fill="#191970" stroke="#191970" points="769.0201,-19.8636 758.4315,-19.5011 766.4829,-26.3877 769.0201,-19.8636"/>
</g>
<!-- Node28&#45;&gt;Node27 -->
<g id="edge39" class="edge">
<title>Node28&#45;&gt;Node27</title>
<path fill="none" stroke="#191970" d="M905.8057,-58.1578C908.8969,-57.3836 912.0082,-56.6465 915,-56 1002.0478,-37.1887 1105.6947,-22.1385 1159.8478,-14.8258"/>
<polygon fill="#191970" stroke="#191970" points="1160.5514,-18.2629 1169.9989,-13.4676 1159.623,-11.3247 1160.5514,-18.2629"/>
</g>
<!-- Node31&#45;&gt;Node13 -->
<g id="edge49" class="edge">
<title>Node31&#45;&gt;Node13</title>
<path fill="none" stroke="#191970" d="M1211.7661,-179.4639C1184.8302,-167.969 1148.0106,-152.2561 1121.9311,-141.1266"/>
<polygon fill="#191970" stroke="#191970" points="1123.076,-137.8099 1112.5047,-137.1039 1120.3284,-144.2482 1123.076,-137.8099"/>
</g>
<!-- Node31&#45;&gt;Node27 -->
<g id="edge48" class="edge">
<title>Node31&#45;&gt;Node27</title>
<path fill="none" stroke="#191970" d="M1247.3405,-179.3763C1247.4314,-153.2851 1245.4214,-98.5245 1229,-56 1225.0881,-45.8697 1218.5036,-35.8279 1212.3209,-27.7235"/>
<polygon fill="#191970" stroke="#191970" points="1214.9162,-25.3661 1205.9153,-19.7772 1209.4664,-29.7592 1214.9162,-25.3661"/>
</g>
<!-- Node32 -->
<g id="node33" class="node">
<title>Node32</title>
<polygon fill="none" stroke="#bfbfbf" points="1502,-56.5 1502,-75.5 1546,-75.5 1546,-56.5 1502,-56.5"/>
<text text-anchor="middle" x="1524" y="-63.5" font-family="Helvetica,sans-Serif" font-size="10.00" fill="#000000">vector</text>
</g>
<!-- Node31&#45;&gt;Node32 -->
<g id="edge47" class="edge">
<title>Node31&#45;&gt;Node32</title>
<path fill="none" stroke="#191970" d="M1279.59,-179.3816C1333.8472,-154.2117 1441.8935,-104.0891 1494.2238,-79.8131"/>
<polygon fill="#191970" stroke="#191970" points="1495.7226,-82.9762 1503.3211,-75.5929 1492.7768,-76.6262 1495.7226,-82.9762"/>
</g>
<!-- Node33&#45;&gt;Node14 -->
<g id="edge55" class="edge">
<title>Node33&#45;&gt;Node14</title>
<path fill="none" stroke="#191970" d="M1608.7709,-184.8786C1555.7951,-175.2881 1482.2821,-159.6265 1458,-143 1436.8276,-128.5028 1421.2997,-102.7866 1412.4652,-85.0893"/>
<polygon fill="#191970" stroke="#191970" points="1415.4839,-83.2855 1408.045,-75.7415 1409.1557,-86.278 1415.4839,-83.2855"/>
</g>
<!-- Node33&#45;&gt;Node21 -->
<g id="edge53" class="edge">
<title>Node33&#45;&gt;Node21</title>
<path fill="none" stroke="#191970" d="M1608.8481,-184.0889C1559.5416,-174.7944 1487.1373,-160.0424 1425,-143 1354.3517,-123.6233 1273.5205,-94.6671 1229.5985,-78.3441"/>
<polygon fill="#191970" stroke="#191970" points="1230.6213,-74.99 1220.0287,-74.7701 1228.1722,-81.5476 1230.6213,-74.99"/>
</g>
<!-- Node33&#45;&gt;Node27 -->
<g id="edge54" class="edge">
<title>Node33&#45;&gt;Node27</title>
<path fill="none" stroke="#191970" d="M1725.0148,-188.7688C1791.9861,-181.1891 1897.0336,-166.038 1929,-143 1963.2307,-118.3301 1995.9325,-86.7125 1967,-56 1941.6105,-29.0485 1385.2551,-14.3296 1234.428,-10.8252"/>
<polygon fill="#191970" stroke="#191970" points="1234.3599,-7.3228 1224.2822,-10.5923 1234.1992,-14.321 1234.3599,-7.3228"/>
</g>
<!-- Node33&#45;&gt;Node34 -->
<g id="edge51" class="edge">
<title>Node33&#45;&gt;Node34</title>
<path fill="none" stroke="#191970" d="M1725.1623,-187.7631C1791.9482,-179.5065 1904.5856,-163.9842 2000,-143 2004.4057,-142.0311 2008.9821,-140.9063 2013.5236,-139.7137"/>
<polygon fill="#191970" stroke="#191970" points="2014.6097,-143.0452 2023.3304,-137.0285 2012.761,-136.2937 2014.6097,-143.0452"/>
</g>
<!-- Node35 -->
<g id="node36" class="node">
<title>Node35</title>
<polygon fill="none" stroke="#bfbfbf" points="1692,-56.5 1692,-75.5 1772,-75.5 1772,-56.5 1692,-56.5"/>
<text text-anchor="middle" x="1732" y="-63.5" font-family="Helvetica,sans-Serif" font-size="10.00" fill="#000000">box2d/box2d.h</text>
</g>
<!-- Node33&#45;&gt;Node35 -->
<g id="edge52" class="edge">
<title>Node33&#45;&gt;Node35</title>
<path fill="none" stroke="#191970" d="M1699.4543,-179.3708C1713.727,-170.8631 1729.0331,-158.7522 1737,-143 1746.0389,-125.1284 1742.8154,-101.8704 1738.5691,-85.612"/>
<polygon fill="#191970" stroke="#191970" points="1741.8059,-84.2166 1735.604,-75.6267 1735.0955,-86.2093 1741.8059,-84.2166"/>
</g>
<!-- Node36 -->
<g id="node37" class="node">
<title>Node36</title>
<g id="a_node37"><a xlink:href="Orthographic__camera_8h.html" target="_top" xlink:title="../../include/Camera\l/Orthographic_camera.h">
<polygon fill="none" stroke="#000000" points="1466.5,-112.5 1466.5,-142.5 1587.5,-142.5 1587.5,-112.5 1466.5,-112.5"/>
<text text-anchor="start" x="1474.5" y="-130.5" font-family="Helvetica,sans-Serif" font-size="10.00" fill="#000000">../../include/Camera</text>
<text text-anchor="middle" x="1527" y="-119.5" font-family="Helvetica,sans-Serif" font-size="10.00" fill="#000000">/Orthographic_camera.h</text>
</a>
</g>
</g>
<!-- Node33&#45;&gt;Node36 -->
<g id="edge56" class="edge">
<title>Node33&#45;&gt;Node36</title>
<path fill="none" stroke="#191970" d="M1635.5813,-179.4639C1615.637,-169.9191 1589.6161,-157.4663 1568.0471,-147.144"/>
<polygon fill="#191970" stroke="#191970" points="1569.3294,-143.8775 1558.7983,-142.7177 1566.3076,-150.1917 1569.3294,-143.8775"/>
</g>
<!-- Node37 -->
<g id="node38" class="node">
<title>Node37</title>
<g id="a_node38"><a xlink:href="state__machine_8h.html" target="_top" xlink:title="../../include/States\l/state_machine.h">
<polygon fill="none" stroke="#000000" points="1822.5,-112.5 1822.5,-142.5 1919.5,-142.5 1919.5,-112.5 1822.5,-112.5"/>
<text text-anchor="start" x="1830.5" y="-130.5" font-family="Helvetica,sans-Serif" font-size="10.00" fill="#000000">../../include/States</text>
<text text-anchor="middle" x="1871" y="-119.5" font-family="Helvetica,sans-Serif" font-size="10.00" fill="#000000">/state_machine.h</text>
</a>
</g>
</g>
<!-- Node33&#45;&gt;Node37 -->
<g id="edge59" class="edge">
<title>Node33&#45;&gt;Node37</title>
<path fill="none" stroke="#191970" d="M1712.7816,-179.4639C1743.1226,-169.499 1783.1149,-156.3642 1815.3002,-145.7936"/>
<polygon fill="#191970" stroke="#191970" points="1816.6102,-149.0473 1825.0187,-142.6017 1814.4259,-142.3968 1816.6102,-149.0473"/>
</g>
<!-- Node40 -->
<g id="node41" class="node">
<title>Node40</title>
<g id="a_node41"><a xlink:href="LoadingGameObjects_8h.html" target="_top" xlink:title="../../include/Loaders\l/LoadingGameObjects.h">
<polygon fill="none" stroke="#000000" points="1606,-112.5 1606,-142.5 1728,-142.5 1728,-112.5 1606,-112.5"/>
<text text-anchor="start" x="1614" y="-130.5" font-family="Helvetica,sans-Serif" font-size="10.00" fill="#000000">../../include/Loaders</text>
<text text-anchor="middle" x="1667" y="-119.5" font-family="Helvetica,sans-Serif" font-size="10.00" fill="#000000">/LoadingGameObjects.h</text>
</a>
</g>
</g>
<!-- Node33&#45;&gt;Node40 -->
<g id="edge64" class="edge">
<title>Node33&#45;&gt;Node40</title>
<path fill="none" stroke="#191970" d="M1667,-179.2967C1667,-171.5013 1667,-161.7991 1667,-152.9064"/>
<polygon fill="#191970" stroke="#191970" points="1670.5001,-152.6431 1667,-142.6432 1663.5001,-152.6432 1670.5001,-152.6431"/>
</g>
<!-- Node36&#45;&gt;Node15 -->
<g id="edge58" class="edge">
<title>Node36&#45;&gt;Node15</title>
<path fill="none" stroke="#191970" d="M1466.4733,-124.0694C1325.97,-115.9294 979.9156,-94.8213 842.585,-75.8237"/>
<polygon fill="#191970" stroke="#191970" points="842.6802,-72.3015 832.284,-74.3434 841.6845,-79.2303 842.6802,-72.3015"/>
</g>
<!-- Node36&#45;&gt;Node22 -->
<g id="edge57" class="edge">
<title>Node36&#45;&gt;Node22</title>
<path fill="none" stroke="#191970" d="M1587.6866,-113.9661C1590.8349,-113.2941 1593.9537,-112.6352 1597,-112 1675.5468,-95.6224 1698.6205,-96.7174 1780.6611,-75.8386"/>
<polygon fill="#191970" stroke="#191970" points="1781.6058,-79.2096 1790.4158,-73.3244 1779.8587,-72.4311 1781.6058,-79.2096"/>
</g>
<!-- Node37&#45;&gt;Node14 -->
<g id="edge61" class="edge">
<title>Node37&#45;&gt;Node14</title>
<path fill="none" stroke="#191970" d="M1822.3444,-121.0925C1728.2509,-108.7011 1523.3076,-81.7118 1440.1476,-70.7603"/>
<polygon fill="#191970" stroke="#191970" points="1440.5352,-67.2812 1430.1638,-69.4456 1439.6212,-74.2213 1440.5352,-67.2812"/>
</g>
<!-- Node37&#45;&gt;Node22 -->
<g id="edge60" class="edge">
<title>Node37&#45;&gt;Node22</title>
<path fill="none" stroke="#191970" d="M1856.4157,-112.2977C1847.97,-103.4941 1837.3108,-92.3833 1828.5516,-83.2529"/>
<polygon fill="#191970" stroke="#191970" points="1830.8952,-80.6402 1821.4466,-75.8469 1825.8439,-85.4862 1830.8952,-80.6402"/>
</g>
<!-- Node38 -->
<g id="node39" class="node">
<title>Node38</title>
<polygon fill="none" stroke="#bfbfbf" points="1851.5,-56.5 1851.5,-75.5 1892.5,-75.5 1892.5,-56.5 1851.5,-56.5"/>
<text text-anchor="middle" x="1872" y="-63.5" font-family="Helvetica,sans-Serif" font-size="10.00" fill="#000000">stack</text>
</g>
<!-- Node37&#45;&gt;Node38 -->
<g id="edge62" class="edge">
<title>Node37&#45;&gt;Node38</title>
<path fill="none" stroke="#191970" d="M1871.2472,-112.2977C1871.3759,-104.3834 1871.5349,-94.6043 1871.6736,-86.0759"/>
<polygon fill="#191970" stroke="#191970" points="1875.1767,-85.9025 1871.8399,-75.8469 1868.1777,-85.7887 1875.1767,-85.9025"/>
</g>
<!-- Node39 -->
<g id="node40" class="node">
<title>Node39</title>
<g id="a_node40"><a xlink:href="state_8h.html" target="_top" xlink:title="state.h">
<polygon fill="none" stroke="#000000" points="1910.5,-56.5 1910.5,-75.5 1957.5,-75.5 1957.5,-56.5 1910.5,-56.5"/>
<text text-anchor="middle" x="1934" y="-63.5" font-family="Helvetica,sans-Serif" font-size="10.00" fill="#000000">state.h</text>
</a>
</g>
</g>
<!-- Node37&#45;&gt;Node39 -->
<g id="edge63" class="edge">
<title>Node37&#45;&gt;Node39</title>
<path fill="none" stroke="#191970" d="M1886.573,-112.2977C1895.6825,-103.4052 1907.2034,-92.1586 1916.6091,-82.9769"/>
<polygon fill="#191970" stroke="#191970" points="1919.202,-85.3368 1923.9129,-75.8469 1914.3122,-80.3278 1919.202,-85.3368"/>
</g>
<!-- Node40&#45;&gt;Node14 -->
<g id="edge65" class="edge">
<title>Node40&#45;&gt;Node14</title>
<path fill="none" stroke="#191970" d="M1605.6701,-113.1586C1554.3481,-101.1574 1482.8594,-84.4405 1440.2223,-74.4702"/>
<polygon fill="#191970" stroke="#191970" points="1440.8259,-71.017 1430.2916,-72.148 1439.232,-77.8332 1440.8259,-71.017"/>
</g>
<!-- Node40&#45;&gt;Node30 -->
<g id="edge67" class="edge">
<title>Node40&#45;&gt;Node30</title>
<path fill="none" stroke="#191970" d="M1605.962,-113.7534C1602.9351,-113.1442 1599.9351,-112.5561 1597,-112 1499.3545,-93.4984 1471.7292,-93.8317 1369.8236,-76.0868"/>
<polygon fill="#191970" stroke="#191970" points="1370.18,-72.5959 1359.7251,-74.3119 1368.9682,-79.4902 1370.18,-72.5959"/>
</g>
<!-- Node40&#45;&gt;Node32 -->
<g id="edge66" class="edge">
<title>Node40&#45;&gt;Node32</title>
<path fill="none" stroke="#191970" d="M1632.0183,-112.4554C1608.6816,-102.419 1578.2502,-89.3314 1555.637,-79.6061"/>
<polygon fill="#191970" stroke="#191970" points="1556.7292,-76.2659 1546.1599,-75.5303 1553.9636,-82.6965 1556.7292,-76.2659"/>
</g>
<!-- Node40&#45;&gt;Node35 -->
<g id="edge69" class="edge">
<title>Node40&#45;&gt;Node35</title>
<path fill="none" stroke="#191970" d="M1683.0674,-112.2977C1692.466,-103.4052 1704.3527,-92.1586 1714.057,-82.9769"/>
<polygon fill="#191970" stroke="#191970" points="1716.7342,-85.2621 1721.5927,-75.8469 1711.9232,-80.1774 1716.7342,-85.2621"/>
</g>
<!-- Node41 -->
<g id="node42" class="node">
<title>Node41</title>
<polygon fill="none" stroke="#bfbfbf" points="1618,-56.5 1618,-75.5 1674,-75.5 1674,-56.5 1618,-56.5"/>
<text text-anchor="middle" x="1646" y="-63.5" font-family="Helvetica,sans-Serif" font-size="10.00" fill="#000000">tinyxml.h</text>
</g>
<!-- Node40&#45;&gt;Node41 -->
<g id="edge68" class="edge">
<title>Node40&#45;&gt;Node41</title>
<path fill="none" stroke="#191970" d="M1661.809,-112.2977C1659.0458,-104.2055 1655.6169,-94.1639 1652.6595,-85.5029"/>
<polygon fill="#191970" stroke="#191970" points="1655.9061,-84.1794 1649.3624,-75.8469 1649.2816,-86.4415 1655.9061,-84.1794"/>
</g>
<!-- Node42&#45;&gt;Node33 -->
<g id="edge72" class="edge">
<title>Node42&#45;&gt;Node33</title>
<path fill="none" stroke="#191970" d="M1667,-246.2967C1667,-238.5013 1667,-228.7991 1667,-219.9064"/>
<polygon fill="#191970" stroke="#191970" points="1670.5001,-219.6431 1667,-209.6432 1663.5001,-219.6432 1670.5001,-219.6431"/>
</g>
<!-- Node42&#45;&gt;Node39 -->
<g id="edge71" class="edge">
<title>Node42&#45;&gt;Node39</title>
<path fill="none" stroke="#191970" d="M1719.7564,-253.9389C1781.3047,-242.0548 1880.7706,-212.68 1929,-143 1940.522,-126.3535 1940.1828,-102.5271 1937.9712,-85.7989"/>
<polygon fill="#191970" stroke="#191970" points="1941.3563,-84.8181 1936.2638,-75.5274 1934.4511,-85.9661 1941.3563,-84.8181"/>
</g>
</g>
</svg>
