<?xml version="1.0" encoding="UTF-8" standalone="no"?>
<!DOCTYPE svg PUBLIC "-//W3C//DTD SVG 1.1//EN"
 "http://www.w3.org/Graphics/SVG/1.1/DTD/svg11.dtd">
<!-- Generated by graphviz version 2.40.1 (20161225.0304)
 -->
<!-- Title: /mnt/hdd/fnky/C0de/CAPSTONE/clean_build/src/main.cpp Pages: 1 -->
<!--zoomable 352 -->
<svg id="main" version="1.1" xmlns="http://www.w3.org/2000/svg" xmlns:xlink="http://www.w3.org/1999/xlink" xml:space="preserve" onload="init(evt)">
<style type="text/css"><![CDATA[
.edge:hover path { stroke: red; }
.edge:hover polygon { stroke: red; fill: red; }
]]></style>
<script type="text/javascript"><![CDATA[
var edges = document.getElementsByTagName('g');
if (edges && edges.length) {
  for (var i=0;i<edges.length;i++) {
    if (edges[i].id.substr(0,4)=='edge') {
      edges[i].setAttribute('class','edge');
    }
  }
}
]]></script>
        <defs>
                <circle id="rim" cx="0" cy="0" r="7"/>
                <circle id="rim2" cx="0" cy="0" r="3.5"/>
                <g id="zoomPlus">
                        <use xlink:href="#rim" fill="#404040">
                                <set attributeName="fill" to="#808080" begin="zoomplus.mouseover" end="zoomplus.mouseout"/>
                        </use>
                        <path d="M-4,0h8M0,-4v8" fill="none" stroke="white" stroke-width="1.5" pointer-events="none"/>
                </g>
                <g id="zoomMin">
                        <use xlink:href="#rim" fill="#404040">
                                <set attributeName="fill" to="#808080" begin="zoomminus.mouseover" end="zoomminus.mouseout"/>
                        </use>
                        <path d="M-4,0h8" fill="none" stroke="white" stroke-width="1.5" pointer-events="none"/>
                </g>
                <g id="dirArrow">
                        <path fill="none" stroke="white" stroke-width="1.5" d="M0,-3.0v7 M-2.5,-0.5L0,-3.0L2.5,-0.5"/>
                </g>
               <g id="resetDef">
                       <use xlink:href="#rim2" fill="#404040">
                               <set attributeName="fill" to="#808080" begin="reset.mouseover" end="reset.mouseout"/>
                       </use>
               </g>
        </defs>

<script type="text/javascript">
var viewWidth = 1571;
var viewHeight = 352;
var sectionId = 'dynsection-0';
</script>
<script xlink:href="svgpan.js"/>
<svg id="graph" class="graph">
<g id="viewport">
<title>/mnt/hdd/fnky/C0de/CAPSTONE/clean_build/src/main.cpp</title>
<!-- Node0 -->
<g id="node1" class="node">
<title>Node0</title>
<polygon fill="#bfbfbf" stroke="#000000" points="1435.5,-302.5 1435.5,-343.5 1562.5,-343.5 1562.5,-302.5 1435.5,-302.5"/>
<text text-anchor="start" x="1443.5" y="-331.5" font-family="Helvetica,sans-Serif" font-size="10.00" fill="#000000">/mnt/hdd/fnky/C0de</text>
<text text-anchor="start" x="1443.5" y="-320.5" font-family="Helvetica,sans-Serif" font-size="10.00" fill="#000000">/CAPSTONE/clean_build</text>
<text text-anchor="middle" x="1499" y="-309.5" font-family="Helvetica,sans-Serif" font-size="10.00" fill="#000000">/src/main.cpp</text>
</g>
<!-- Node1 -->
<g id="node2" class="node">
<title>Node1</title>
<g id="a_node2"><a xlink:href="game_8h.html" target="_top" xlink:title="../include/Window/game.h">
<polygon fill="none" stroke="#000000" points="899,-246.5 899,-265.5 1029,-265.5 1029,-246.5 899,-246.5"/>
<text text-anchor="middle" x="964" y="-253.5" font-family="Helvetica,sans-Serif" font-size="10.00" fill="#000000">../include/Window/game.h</text>
</a>
</g>
</g>
<!-- Node0&#45;&gt;Node1 -->
<g id="edge1" class="edge">
<title>Node0&#45;&gt;Node1</title>
<path fill="none" stroke="#191970" d="M1435.263,-315.018C1336.0838,-302.5974 1145.239,-278.6972 1039.3771,-265.4397"/>
<polygon fill="#191970" stroke="#191970" points="1039.761,-261.9606 1029.4036,-264.1907 1038.8911,-268.9063 1039.761,-261.9606"/>
</g>
<!-- Node2 -->
<g id="node3" class="node">
<title>Node2</title>
<polygon fill="none" stroke="#bfbfbf" points="1060,-.5 1060,-19.5 1112,-19.5 1112,-.5 1060,-.5"/>
<text text-anchor="middle" x="1086" y="-7.5" font-family="Helvetica,sans-Serif" font-size="10.00" fill="#000000">memory</text>
</g>
<!-- Node0&#45;&gt;Node2 -->
<g id="edge58" class="edge">
<title>Node0&#45;&gt;Node2</title>
<path fill="none" stroke="#191970" d="M1512.6627,-302.1432C1527.4668,-277.4891 1549,-234.7164 1549,-194.5 1549,-194.5 1549,-194.5 1549,-133 1549,-44.8637 1231.6513,-18.357 1122.4199,-11.8439"/>
<polygon fill="#191970" stroke="#191970" points="1122.4037,-8.3373 1112.2195,-11.2582 1122.0024,-15.3258 1122.4037,-8.3373"/>
</g>
<!-- Node7 -->
<g id="node8" class="node">
<title>Node7</title>
<polygon fill="none" stroke="#bfbfbf" points="1477,-185 1477,-204 1521,-204 1521,-185 1477,-185"/>
<text text-anchor="middle" x="1499" y="-192" font-family="Helvetica,sans-Serif" font-size="10.00" fill="#000000">thread</text>
</g>
<!-- Node0&#45;&gt;Node7 -->
<g id="edge57" class="edge">
<title>Node0&#45;&gt;Node7</title>
<path fill="none" stroke="#191970" d="M1499,-302.3543C1499,-278.101 1499,-238.1521 1499,-214.2799"/>
<polygon fill="#191970" stroke="#191970" points="1502.5001,-214.2737 1499,-204.2738 1495.5001,-214.2738 1502.5001,-214.2737"/>
</g>
<!-- Node1&#45;&gt;Node2 -->
<g id="edge2" class="edge">
<title>Node1&#45;&gt;Node2</title>
<path fill="none" stroke="#191970" d="M1000.2523,-246.4566C1025.0824,-238.9082 1058.0799,-226.8242 1084,-210 1100.2119,-199.4772 1199.6037,-104.8564 1207,-87 1212.2725,-74.271 1214.8221,-67.342 1207,-56 1197.0124,-41.518 1153.9875,-27.5453 1122.0685,-18.8751"/>
<polygon fill="#191970" stroke="#191970" points="1122.7139,-15.4255 1112.1513,-16.2525 1120.9242,-22.1928 1122.7139,-15.4255"/>
</g>
<!-- Node3 -->
<g id="node4" class="node">
<title>Node3</title>
<polygon fill="none" stroke="#bfbfbf" points="945,-62 945,-81 999,-81 999,-62 945,-62"/>
<text text-anchor="middle" x="972" y="-69" font-family="Helvetica,sans-Serif" font-size="10.00" fill="#000000">iostream</text>
</g>
<!-- Node1&#45;&gt;Node3 -->
<g id="edge3" class="edge">
<title>Node1&#45;&gt;Node3</title>
<path fill="none" stroke="#191970" d="M964.4189,-246.3402C965.6771,-217.3223 969.4414,-130.5088 971.1453,-91.2113"/>
<polygon fill="#191970" stroke="#191970" points="974.6487,-91.2064 971.5853,-81.0641 967.6553,-90.9031 974.6487,-91.2064"/>
</g>
<!-- Node4 -->
<g id="node5" class="node">
<title>Node4</title>
<polygon fill="none" stroke="#bfbfbf" points="881,-62 881,-81 927,-81 927,-62 881,-62"/>
<text text-anchor="middle" x="904" y="-69" font-family="Helvetica,sans-Serif" font-size="10.00" fill="#000000">cstdint</text>
</g>
<!-- Node1&#45;&gt;Node4 -->
<g id="edge4" class="edge">
<title>Node1&#45;&gt;Node4</title>
<path fill="none" stroke="#191970" d="M960.8586,-246.3402C951.3814,-217.1978 922.9472,-129.7626 910.2465,-90.708"/>
<polygon fill="#191970" stroke="#191970" points="913.5314,-89.4915 907.1103,-81.0641 906.8745,-91.6563 913.5314,-89.4915"/>
</g>
<!-- Node5 -->
<g id="node6" class="node">
<title>Node5</title>
<polygon fill="none" stroke="#bfbfbf" points="1011,-185 1011,-204 1075,-204 1075,-185 1011,-185"/>
<text text-anchor="middle" x="1043" y="-192" font-family="Helvetica,sans-Serif" font-size="10.00" fill="#000000">glad/glad.h</text>
</g>
<!-- Node1&#45;&gt;Node5 -->
<g id="edge5" class="edge">
<title>Node1&#45;&gt;Node5</title>
<path fill="none" stroke="#191970" d="M976.3438,-246.3906C988.7503,-236.7324 1008.0843,-221.6812 1022.7413,-210.271"/>
<polygon fill="#191970" stroke="#191970" points="1025.0021,-212.9466 1030.7429,-204.0419 1020.7021,-207.423 1025.0021,-212.9466"/>
</g>
<!-- Node6 -->
<g id="node7" class="node">
<title>Node6</title>
<polygon fill="none" stroke="#bfbfbf" points="236,-62 236,-81 316,-81 316,-62 236,-62"/>
<text text-anchor="middle" x="276" y="-69" font-family="Helvetica,sans-Serif" font-size="10.00" fill="#000000">GLFW/glfw3.h</text>
</g>
<!-- Node1&#45;&gt;Node6 -->
<g id="edge6" class="edge">
<title>Node1&#45;&gt;Node6</title>
<path fill="none" stroke="#191970" d="M898.9154,-253.7432C734.8505,-247.7605 315.8238,-230.538 294,-210 261.6035,-179.5123 266.3973,-121.5874 271.7143,-91.2115"/>
<polygon fill="#191970" stroke="#191970" points="275.155,-91.8531 273.6289,-81.3687 268.2838,-90.5164 275.155,-91.8531"/>
</g>
<!-- Node1&#45;&gt;Node7 -->
<g id="edge7" class="edge">
<title>Node1&#45;&gt;Node7</title>
<path fill="none" stroke="#191970" d="M1029.2107,-252.9472C1146.0291,-246.9958 1386.3147,-232.4288 1467,-210 1468.9181,-209.4668 1470.8607,-208.822 1472.7913,-208.1021"/>
<polygon fill="#191970" stroke="#191970" points="1474.3836,-211.2269 1482.1742,-204.0466 1471.6063,-204.8014 1474.3836,-211.2269"/>
</g>
<!-- Node8 -->
<g id="node9" class="node">
<title>Node8</title>
<polygon fill="none" stroke="#bfbfbf" points="1131,-185 1131,-204 1177,-204 1177,-185 1131,-185"/>
<text text-anchor="middle" x="1154" y="-192" font-family="Helvetica,sans-Serif" font-size="10.00" fill="#000000">chrono</text>
</g>
<!-- Node1&#45;&gt;Node8 -->
<g id="edge8" class="edge">
<title>Node1&#45;&gt;Node8</title>
<path fill="none" stroke="#191970" d="M999.5879,-246.4404C1030.8176,-237.7819 1077.3152,-224.234 1117,-210 1118.8683,-209.3299 1120.7793,-208.6168 1122.7001,-207.8788"/>
<polygon fill="#191970" stroke="#191970" points="1124.2525,-211.0275 1132.2362,-204.0624 1121.6516,-204.5286 1124.2525,-211.0275"/>
</g>
<!-- Node9 -->
<g id="node10" class="node">
<title>Node9</title>
<polygon fill="none" stroke="#bfbfbf" points="1195,-185 1195,-204 1239,-204 1239,-185 1195,-185"/>
<text text-anchor="middle" x="1217" y="-192" font-family="Helvetica,sans-Serif" font-size="10.00" fill="#000000">mutex</text>
</g>
<!-- Node1&#45;&gt;Node9 -->
<g id="edge9" class="edge">
<title>Node1&#45;&gt;Node9</title>
<path fill="none" stroke="#191970" d="M1029.3104,-247.0389C1074.1825,-239.7816 1134.684,-227.8056 1186,-210 1187.6024,-209.444 1189.2277,-208.8225 1190.8515,-208.1567"/>
<polygon fill="#191970" stroke="#191970" points="1192.3148,-211.3363 1199.9647,-204.0062 1189.4134,-204.9659 1192.3148,-211.3363"/>
</g>
<!-- Node10 -->
<g id="node11" class="node">
<title>Node10</title>
<polygon fill="none" stroke="#bfbfbf" points="1257.5,-185 1257.5,-204 1298.5,-204 1298.5,-185 1257.5,-185"/>
<text text-anchor="middle" x="1278" y="-192" font-family="Helvetica,sans-Serif" font-size="10.00" fill="#000000">future</text>
</g>
<!-- Node1&#45;&gt;Node10 -->
<g id="edge10" class="edge">
<title>Node1&#45;&gt;Node10</title>
<path fill="none" stroke="#191970" d="M1029.1113,-251.3371C1087.5892,-245.7779 1175.1913,-234.0258 1248,-210 1249.4266,-209.5292 1250.8682,-208.9974 1252.3074,-208.4215"/>
<polygon fill="#191970" stroke="#191970" points="1253.9615,-211.5134 1261.589,-204.1601 1251.0407,-205.1519 1253.9615,-211.5134"/>
</g>
<!-- Node11 -->
<g id="node12" class="node">
<title>Node11</title>
<polygon fill="none" stroke="#bfbfbf" points="1317,-185 1317,-204 1391,-204 1391,-185 1317,-185"/>
<text text-anchor="middle" x="1354" y="-192" font-family="Helvetica,sans-Serif" font-size="10.00" fill="#000000">bits/stdc++.h</text>
</g>
<!-- Node1&#45;&gt;Node11 -->
<g id="edge11" class="edge">
<title>Node1&#45;&gt;Node11</title>
<path fill="none" stroke="#191970" d="M1029.123,-250.8845C1098.5979,-244.5888 1211.5557,-231.9388 1307,-210 1310.6478,-209.1615 1314.415,-208.1596 1318.1555,-207.0741"/>
<polygon fill="#191970" stroke="#191970" points="1319.3754,-210.3604 1327.8937,-204.0605 1317.3059,-203.6733 1319.3754,-210.3604"/>
</g>
<!-- Node12 -->
<g id="node13" class="node">
<title>Node12</title>
<polygon fill="none" stroke="#bfbfbf" points="1409.5,-185 1409.5,-204 1458.5,-204 1458.5,-185 1409.5,-185"/>
<text text-anchor="middle" x="1434" y="-192" font-family="Helvetica,sans-Serif" font-size="10.00" fill="#000000">cstddef</text>
</g>
<!-- Node1&#45;&gt;Node12 -->
<g id="edge12" class="edge">
<title>Node1&#45;&gt;Node12</title>
<path fill="none" stroke="#191970" d="M1029.0708,-251.7139C1133.0283,-244.4326 1331.8027,-228.612 1400,-210 1401.9714,-209.462 1403.9724,-208.8217 1405.9659,-208.1124"/>
<polygon fill="#191970" stroke="#191970" points="1407.7594,-211.1611 1415.6989,-204.1457 1405.1175,-204.6787 1407.7594,-211.1611"/>
</g>
<!-- Node13 -->
<g id="node14" class="node">
<title>Node13</title>
<polygon fill="none" stroke="#bfbfbf" points="823.5,-123.5 823.5,-142.5 864.5,-142.5 864.5,-123.5 823.5,-123.5"/>
<text text-anchor="middle" x="844" y="-130.5" font-family="Helvetica,sans-Serif" font-size="10.00" fill="#000000">ctime</text>
</g>
<!-- Node1&#45;&gt;Node13 -->
<g id="edge13" class="edge">
<title>Node1&#45;&gt;Node13</title>
<path fill="none" stroke="#191970" d="M944.6154,-246.4204C929.358,-238.2209 908.2043,-225.3289 893,-210 875.9972,-192.8579 861.8753,-168.8427 853.2285,-152.2094"/>
<polygon fill="#191970" stroke="#191970" points="856.188,-150.303 848.5754,-142.9342 849.9312,-153.4419 856.188,-150.303"/>
</g>
<!-- Node14 -->
<g id="node15" class="node">
<title>Node14</title>
<g id="a_node15"><a xlink:href="GameData_8h.html" target="_top" xlink:title="../GameData/GameData.h">
<polygon fill="none" stroke="#000000" points="577.5,-123.5 577.5,-142.5 708.5,-142.5 708.5,-123.5 577.5,-123.5"/>
<text text-anchor="middle" x="643" y="-130.5" font-family="Helvetica,sans-Serif" font-size="10.00" fill="#000000">../GameData/GameData.h</text>
</a>
</g>
</g>
<!-- Node1&#45;&gt;Node14 -->
<g id="edge14" class="edge">
<title>Node1&#45;&gt;Node14</title>
<path fill="none" stroke="#191970" d="M898.8776,-249.1698C834.6012,-241.5536 741.5079,-227.9127 710,-210 685.4342,-196.034 665.4753,-169.5888 653.9162,-151.6309"/>
<polygon fill="#191970" stroke="#191970" points="656.6118,-149.3341 648.3828,-142.6607 650.6541,-153.0092 656.6118,-149.3341"/>
</g>
<!-- Node26 -->
<g id="node27" class="node">
<title>Node26</title>
<g id="a_node27"><a xlink:href="splash__state_8h.html" target="_top" xlink:title="../States/splash_state.h">
<polygon fill="none" stroke="#000000" points="719.5,-185 719.5,-204 840.5,-204 840.5,-185 719.5,-185"/>
<text text-anchor="middle" x="780" y="-192" font-family="Helvetica,sans-Serif" font-size="10.00" fill="#000000">../States/splash_state.h</text>
</a>
</g>
</g>
<!-- Node1&#45;&gt;Node26 -->
<g id="edge34" class="edge">
<title>Node1&#45;&gt;Node26</title>
<path fill="none" stroke="#191970" d="M935.25,-246.3906C903.7883,-235.8749 853.1992,-218.966 818.3686,-207.3243"/>
<polygon fill="#191970" stroke="#191970" points="819.1419,-203.8925 808.5481,-204.0419 816.9228,-210.5315 819.1419,-203.8925"/>
</g>
<!-- Node27 -->
<g id="node28" class="node">
<title>Node27</title>
<g id="a_node28"><a xlink:href="main__menu__state_8h.html" target="_top" xlink:title="../States/main_menu\l_state.h">
<polygon fill="none" stroke="#000000" points="555.5,-179.5 555.5,-209.5 662.5,-209.5 662.5,-179.5 555.5,-179.5"/>
<text text-anchor="start" x="563.5" y="-197.5" font-family="Helvetica,sans-Serif" font-size="10.00" fill="#000000">../States/main_menu</text>
<text text-anchor="middle" x="609" y="-186.5" font-family="Helvetica,sans-Serif" font-size="10.00" fill="#000000">_state.h</text>
</a>
</g>
</g>
<!-- Node1&#45;&gt;Node27 -->
<g id="edge39" class="edge">
<title>Node1&#45;&gt;Node27</title>
<path fill="none" stroke="#191970" d="M898.816,-246.7898C840.5063,-238.257 752.7957,-224.6965 677,-210 675.5513,-209.7191 674.0864,-209.4298 672.6101,-209.1336"/>
<polygon fill="#191970" stroke="#191970" points="673.2552,-205.693 662.7533,-207.0928 671.836,-212.5476 673.2552,-205.693"/>
</g>
<!-- Node28 -->
<g id="node29" class="node">
<title>Node28</title>
<g id="a_node29"><a xlink:href="game__play__state_8h.html" target="_top" xlink:title="../States/game_play\l_state.h">
<polygon fill="none" stroke="#000000" points="0,-179.5 0,-209.5 104,-209.5 104,-179.5 0,-179.5"/>
<text text-anchor="start" x="8" y="-197.5" font-family="Helvetica,sans-Serif" font-size="10.00" fill="#000000">../States/game_play</text>
<text text-anchor="middle" x="52" y="-186.5" font-family="Helvetica,sans-Serif" font-size="10.00" fill="#000000">_state.h</text>
</a>
</g>
</g>
<!-- Node1&#45;&gt;Node28 -->
<g id="edge42" class="edge">
<title>Node1&#45;&gt;Node28</title>
<path fill="none" stroke="#191970" d="M898.8255,-253.9452C727.7128,-248.3119 268.5152,-231.5939 118,-210 116.7221,-209.8167 115.4325,-209.6206 114.1345,-209.4132"/>
<polygon fill="#191970" stroke="#191970" points="114.5352,-205.9296 104.0769,-207.6252 113.31,-212.8215 114.5352,-205.9296"/>
</g>
<!-- Node30 -->
<g id="node31" class="node">
<title>Node30</title>
<g id="a_node31"><a xlink:href="game__over__state_8h.html" target="_top" xlink:title="../States/game_over\l_state.h">
<polygon fill="none" stroke="#000000" points="303.5,-179.5 303.5,-209.5 408.5,-209.5 408.5,-179.5 303.5,-179.5"/>
<text text-anchor="start" x="311.5" y="-197.5" font-family="Helvetica,sans-Serif" font-size="10.00" fill="#000000">../States/game_over</text>
<text text-anchor="middle" x="356" y="-186.5" font-family="Helvetica,sans-Serif" font-size="10.00" fill="#000000">_state.h</text>
</a>
</g>
</g>
<!-- Node1&#45;&gt;Node30 -->
<g id="edge46" class="edge">
<title>Node1&#45;&gt;Node30</title>
<path fill="none" stroke="#191970" d="M898.7308,-253.9895C797.642,-250.1107 597.0809,-239.3679 418.8705,-210.157"/>
<polygon fill="#191970" stroke="#191970" points="419.2266,-206.6683 408.7879,-208.4804 418.0783,-213.5735 419.2266,-206.6683"/>
</g>
<!-- Node31 -->
<g id="node32" class="node">
<title>Node31</title>
<g id="a_node32"><a xlink:href="loading__play__state_8h.html" target="_top" xlink:title="../States/loading_play\l_state.h">
<polygon fill="none" stroke="#000000" points="426.5,-179.5 426.5,-209.5 537.5,-209.5 537.5,-179.5 426.5,-179.5"/>
<text text-anchor="start" x="434.5" y="-197.5" font-family="Helvetica,sans-Serif" font-size="10.00" fill="#000000">../States/loading_play</text>
<text text-anchor="middle" x="482" y="-186.5" font-family="Helvetica,sans-Serif" font-size="10.00" fill="#000000">_state.h</text>
</a>
</g>
</g>
<!-- Node1&#45;&gt;Node31 -->
<g id="edge49" class="edge">
<title>Node1&#45;&gt;Node31</title>
<path fill="none" stroke="#191970" d="M898.8309,-251.4264C818.3813,-245.2009 677.2593,-232.3946 547.8485,-210.2027"/>
<polygon fill="#191970" stroke="#191970" points="548.211,-206.7133 537.7593,-208.4491 547.0122,-213.6099 548.211,-206.7133"/>
</g>
<!-- Node32 -->
<g id="node33" class="node">
<title>Node32</title>
<g id="a_node33"><a xlink:href="Actor_8h.html" target="_top" xlink:title="../Actors/Actor.h">
<polygon fill="none" stroke="#000000" points="979.5,-123.5 979.5,-142.5 1068.5,-142.5 1068.5,-123.5 979.5,-123.5"/>
<text text-anchor="middle" x="1024" y="-130.5" font-family="Helvetica,sans-Serif" font-size="10.00" fill="#000000">../Actors/Actor.h</text>
</a>
</g>
</g>
<!-- Node1&#45;&gt;Node32 -->
<g id="edge52" class="edge">
<title>Node1&#45;&gt;Node32</title>
<path fill="none" stroke="#191970" d="M968.7081,-246.3484C978.6536,-225.9601 1001.9496,-178.2033 1014.9044,-151.6459"/>
<polygon fill="#191970" stroke="#191970" points="1018.0752,-153.129 1019.3138,-142.6068 1011.7838,-150.06 1018.0752,-153.129"/>
</g>
<!-- Node14&#45;&gt;Node2 -->
<g id="edge19" class="edge">
<title>Node14&#45;&gt;Node2</title>
<path fill="none" stroke="#191970" d="M708.7201,-124.6234C746.763,-117.984 794.7334,-106.47 834,-87 853.5272,-77.3176 852.3551,-65.4415 872,-56 903.0668,-41.0691 997.5625,-24.2004 1049.9935,-15.6376"/>
<polygon fill="#191970" stroke="#191970" points="1050.574,-19.0893 1059.8876,-14.0388 1049.4573,-12.1789 1050.574,-19.0893"/>
</g>
<!-- Node14&#45;&gt;Node3 -->
<g id="edge18" class="edge">
<title>Node14&#45;&gt;Node3</title>
<path fill="none" stroke="#191970" d="M708.6104,-127.45C768.6734,-121.2576 859.5696,-109.0728 936,-87 938.1778,-86.3711 940.3984,-85.6433 942.6138,-84.8532"/>
<polygon fill="#191970" stroke="#191970" points="944.1208,-88.0215 952.1442,-81.1022 941.5571,-81.5078 944.1208,-88.0215"/>
</g>
<!-- Node14&#45;&gt;Node4 -->
<g id="edge17" class="edge">
<title>Node14&#45;&gt;Node4</title>
<path fill="none" stroke="#191970" d="M705.6176,-123.4944C750.9957,-115.799 813.5164,-103.5225 867,-87 869.1626,-86.3319 871.3725,-85.5836 873.5827,-84.7863"/>
<polygon fill="#191970" stroke="#191970" points="875.0787,-87.96 883.1299,-81.0731 872.5413,-81.436 875.0787,-87.96"/>
</g>
<!-- Node14&#45;&gt;Node6 -->
<g id="edge15" class="edge">
<title>Node14&#45;&gt;Node6</title>
<path fill="none" stroke="#191970" d="M586.0589,-123.4581C514.8194,-111.5201 393.9611,-91.2673 326.0897,-79.8938"/>
<polygon fill="#191970" stroke="#191970" points="326.5109,-76.4156 316.07,-78.2147 325.354,-83.3194 326.5109,-76.4156"/>
</g>
<!-- Node15 -->
<g id="node16" class="node">
<title>Node15</title>
<polygon fill="none" stroke="#bfbfbf" points="638,-.5 638,-19.5 718,-19.5 718,-.5 638,-.5"/>
<text text-anchor="middle" x="678" y="-7.5" font-family="Helvetica,sans-Serif" font-size="10.00" fill="#000000">box2d/box2d.h</text>
</g>
<!-- Node14&#45;&gt;Node15 -->
<g id="edge16" class="edge">
<title>Node14&#45;&gt;Node15</title>
<path fill="none" stroke="#191970" d="M645.7464,-123.3484C651.4968,-103.1397 664.8984,-56.0427 672.4931,-29.3528"/>
<polygon fill="#191970" stroke="#191970" points="675.8958,-30.1829 675.2664,-19.6068 669.163,-28.267 675.8958,-30.1829"/>
</g>
<!-- Node16 -->
<g id="node17" class="node">
<title>Node16</title>
<g id="a_node17"><a xlink:href="Orthographic__camera_8h.html" target="_top" xlink:title="../../include/Camera\l/Orthographic_camera.h">
<polygon fill="none" stroke="#000000" points="525.5,-56.5 525.5,-86.5 646.5,-86.5 646.5,-56.5 525.5,-56.5"/>
<text text-anchor="start" x="533.5" y="-74.5" font-family="Helvetica,sans-Serif" font-size="10.00" fill="#000000">../../include/Camera</text>
<text text-anchor="middle" x="586" y="-63.5" font-family="Helvetica,sans-Serif" font-size="10.00" fill="#000000">/Orthographic_camera.h</text>
</a>
</g>
</g>
<!-- Node14&#45;&gt;Node16 -->
<g id="edge20" class="edge">
<title>Node14&#45;&gt;Node16</title>
<path fill="none" stroke="#191970" d="M634.0938,-123.3906C626.8081,-115.5298 616.2113,-104.0964 606.8177,-93.9612"/>
<polygon fill="#191970" stroke="#191970" points="609.3085,-91.4997 599.9438,-86.5446 604.1744,-96.2581 609.3085,-91.4997"/>
</g>
<!-- Node19 -->
<g id="node20" class="node">
<title>Node19</title>
<g id="a_node20"><a xlink:href="state__machine_8h.html" target="_top" xlink:title="../../include/States\l/state_machine.h">
<polygon fill="none" stroke="#000000" points="410.5,-56.5 410.5,-86.5 507.5,-86.5 507.5,-56.5 410.5,-56.5"/>
<text text-anchor="start" x="418.5" y="-74.5" font-family="Helvetica,sans-Serif" font-size="10.00" fill="#000000">../../include/States</text>
<text text-anchor="middle" x="459" y="-63.5" font-family="Helvetica,sans-Serif" font-size="10.00" fill="#000000">/state_machine.h</text>
</a>
</g>
</g>
<!-- Node14&#45;&gt;Node19 -->
<g id="edge23" class="edge">
<title>Node14&#45;&gt;Node19</title>
<path fill="none" stroke="#191970" d="M614.25,-123.3906C587.3879,-114.4123 546.5825,-100.7735 513.5466,-89.7316"/>
<polygon fill="#191970" stroke="#191970" points="514.6052,-86.3952 504.0115,-86.5446 512.3862,-93.0342 514.6052,-86.3952"/>
</g>
<!-- Node22 -->
<g id="node23" class="node">
<title>Node22</title>
<g id="a_node23"><a xlink:href="LoadingGameObjects_8h.html" target="_top" xlink:title="../../include/Loaders\l/LoadingGameObjects.h">
<polygon fill="none" stroke="#000000" points="703,-56.5 703,-86.5 825,-86.5 825,-56.5 703,-56.5"/>
<text text-anchor="start" x="711" y="-74.5" font-family="Helvetica,sans-Serif" font-size="10.00" fill="#000000">../../include/Loaders</text>
<text text-anchor="middle" x="764" y="-63.5" font-family="Helvetica,sans-Serif" font-size="10.00" fill="#000000">/LoadingGameObjects.h</text>
</a>
</g>
</g>
<!-- Node14&#45;&gt;Node22 -->
<g id="edge28" class="edge">
<title>Node14&#45;&gt;Node22</title>
<path fill="none" stroke="#191970" d="M661.9063,-123.3906C678.8128,-114.7976 704.1185,-101.9356 725.3054,-91.1671"/>
<polygon fill="#191970" stroke="#191970" points="727.0713,-94.1957 734.4001,-86.5446 723.8996,-87.9555 727.0713,-94.1957"/>
</g>
<!-- Node17 -->
<g id="node18" class="node">
<title>Node17</title>
<polygon fill="none" stroke="#bfbfbf" points="488.5,-.5 488.5,-19.5 531.5,-19.5 531.5,-.5 488.5,-.5"/>
<text text-anchor="middle" x="510" y="-7.5" font-family="Helvetica,sans-Serif" font-size="10.00" fill="#000000">cstdio</text>
</g>
<!-- Node16&#45;&gt;Node17 -->
<g id="edge21" class="edge">
<title>Node16&#45;&gt;Node17</title>
<path fill="none" stroke="#191970" d="M567.2135,-56.2977C555.8947,-47.1384 541.4895,-35.4816 529.9654,-26.1562"/>
<polygon fill="#191970" stroke="#191970" points="532.1439,-23.4167 522.1686,-19.8469 527.7405,-28.8583 532.1439,-23.4167"/>
</g>
<!-- Node18 -->
<g id="node19" class="node">
<title>Node18</title>
<polygon fill="none" stroke="#bfbfbf" points="550,-.5 550,-19.5 620,-19.5 620,-.5 550,-.5"/>
<text text-anchor="middle" x="585" y="-7.5" font-family="Helvetica,sans-Serif" font-size="10.00" fill="#000000">glm/glm.hpp</text>
</g>
<!-- Node16&#45;&gt;Node18 -->
<g id="edge22" class="edge">
<title>Node16&#45;&gt;Node18</title>
<path fill="none" stroke="#191970" d="M585.7528,-56.2977C585.6241,-48.3834 585.4651,-38.6043 585.3264,-30.0759"/>
<polygon fill="#191970" stroke="#191970" points="588.8223,-29.7887 585.1601,-19.8469 581.8233,-29.9025 588.8223,-29.7887"/>
</g>
<!-- Node19&#45;&gt;Node2 -->
<g id="edge25" class="edge">
<title>Node19&#45;&gt;Node2</title>
<path fill="none" stroke="#191970" d="M507.6794,-57.5992C510.4828,-57.0059 513.2706,-56.4659 516,-56 733.4365,-18.8871 791.5784,-42.5866 1011,-20 1023.5321,-18.71 1037.2006,-16.983 1049.3951,-15.3276"/>
<polygon fill="#191970" stroke="#191970" points="1050.2417,-18.7438 1059.6665,-13.904 1049.2806,-11.8101 1050.2417,-18.7438"/>
</g>
<!-- Node19&#45;&gt;Node17 -->
<g id="edge24" class="edge">
<title>Node19&#45;&gt;Node17</title>
<path fill="none" stroke="#191970" d="M471.6067,-56.2977C478.7598,-47.672 487.7497,-36.8312 495.2318,-27.8087"/>
<polygon fill="#191970" stroke="#191970" points="498.145,-29.7787 501.8343,-19.8469 492.7567,-25.3103 498.145,-29.7787"/>
</g>
<!-- Node20 -->
<g id="node21" class="node">
<title>Node20</title>
<polygon fill="none" stroke="#bfbfbf" points="429.5,-.5 429.5,-19.5 470.5,-19.5 470.5,-.5 429.5,-.5"/>
<text text-anchor="middle" x="450" y="-7.5" font-family="Helvetica,sans-Serif" font-size="10.00" fill="#000000">stack</text>
</g>
<!-- Node19&#45;&gt;Node20 -->
<g id="edge26" class="edge">
<title>Node19&#45;&gt;Node20</title>
<path fill="none" stroke="#191970" d="M456.7753,-56.2977C455.6041,-48.2945 454.1538,-38.3843 452.8959,-29.7889"/>
<polygon fill="#191970" stroke="#191970" points="456.3522,-29.2347 451.441,-19.8469 449.426,-30.2484 456.3522,-29.2347"/>
</g>
<!-- Node21 -->
<g id="node22" class="node">
<title>Node21</title>
<g id="a_node22"><a xlink:href="state_8h.html" target="_top" xlink:title="state.h">
<polygon fill="none" stroke="#000000" points="252.5,-.5 252.5,-19.5 299.5,-19.5 299.5,-.5 252.5,-.5"/>
<text text-anchor="middle" x="276" y="-7.5" font-family="Helvetica,sans-Serif" font-size="10.00" fill="#000000">state.h</text>
</a>
</g>
</g>
<!-- Node19&#45;&gt;Node21 -->
<g id="edge27" class="edge">
<title>Node19&#45;&gt;Node21</title>
<path fill="none" stroke="#191970" d="M414.2332,-56.4554C381.8614,-45.5764 338.8219,-31.1123 309.4207,-21.2315"/>
<polygon fill="#191970" stroke="#191970" points="310.2237,-17.8091 299.6297,-17.9411 307.9938,-24.4444 310.2237,-17.8091"/>
</g>
<!-- Node22&#45;&gt;Node2 -->
<g id="edge29" class="edge">
<title>Node22&#45;&gt;Node2</title>
<path fill="none" stroke="#191970" d="M825.3751,-58.7134C829.9836,-57.7846 834.5641,-56.8713 839,-56 913.7665,-41.3135 1001.5035,-25.2519 1049.6982,-16.5299"/>
<polygon fill="#191970" stroke="#191970" points="1050.4295,-19.9545 1059.6477,-14.732 1049.1847,-13.0661 1050.4295,-19.9545"/>
</g>
<!-- Node22&#45;&gt;Node15 -->
<g id="edge33" class="edge">
<title>Node22&#45;&gt;Node15</title>
<path fill="none" stroke="#191970" d="M742.7416,-56.2977C729.7282,-46.9917 713.1097,-35.1075 699.9683,-25.7099"/>
<polygon fill="#191970" stroke="#191970" points="701.6829,-22.6332 691.5129,-19.6633 697.6111,-28.3271 701.6829,-22.6332"/>
</g>
<!-- Node23 -->
<g id="node24" class="node">
<title>Node23</title>
<polygon fill="none" stroke="#bfbfbf" points="958,-.5 958,-19.5 1002,-19.5 1002,-.5 958,-.5"/>
<text text-anchor="middle" x="980" y="-7.5" font-family="Helvetica,sans-Serif" font-size="10.00" fill="#000000">vector</text>
</g>
<!-- Node22&#45;&gt;Node23 -->
<g id="edge30" class="edge">
<title>Node22&#45;&gt;Node23</title>
<path fill="none" stroke="#191970" d="M816.8395,-56.4554C857.8131,-44.7893 913.2659,-29.0007 947.8209,-19.1621"/>
<polygon fill="#191970" stroke="#191970" points="949.1755,-22.4156 957.8348,-16.3109 947.2586,-15.6832 949.1755,-22.4156"/>
</g>
<!-- Node24 -->
<g id="node25" class="node">
<title>Node24</title>
<polygon fill="none" stroke="#bfbfbf" points="810.5,-.5 810.5,-19.5 893.5,-19.5 893.5,-.5 810.5,-.5"/>
<text text-anchor="middle" x="852" y="-7.5" font-family="Helvetica,sans-Serif" font-size="10.00" fill="#000000">unordered_map</text>
</g>
<!-- Node22&#45;&gt;Node24 -->
<g id="edge31" class="edge">
<title>Node22&#45;&gt;Node24</title>
<path fill="none" stroke="#191970" d="M785.7528,-56.2977C799.1968,-46.9022 816.4011,-34.8787 829.9078,-25.4395"/>
<polygon fill="#191970" stroke="#191970" points="831.9811,-28.2605 838.1729,-19.6633 827.9712,-22.5228 831.9811,-28.2605"/>
</g>
<!-- Node25 -->
<g id="node26" class="node">
<title>Node25</title>
<polygon fill="none" stroke="#bfbfbf" points="736,-.5 736,-19.5 792,-19.5 792,-.5 736,-.5"/>
<text text-anchor="middle" x="764" y="-7.5" font-family="Helvetica,sans-Serif" font-size="10.00" fill="#000000">tinyxml.h</text>
</g>
<!-- Node22&#45;&gt;Node25 -->
<g id="edge32" class="edge">
<title>Node22&#45;&gt;Node25</title>
<path fill="none" stroke="#191970" d="M764,-56.2977C764,-48.3834 764,-38.6043 764,-30.0759"/>
<polygon fill="#191970" stroke="#191970" points="767.5001,-29.8469 764,-19.8469 760.5001,-29.847 767.5001,-29.8469"/>
</g>
<!-- Node26&#45;&gt;Node4 -->
<g id="edge36" class="edge">
<title>Node26&#45;&gt;Node4</title>
<path fill="none" stroke="#191970" d="M782.6176,-184.63C786.984,-169.7454 796.9944,-141.3473 814,-123 823.1961,-113.0783 852.6144,-97.0561 875.341,-85.516"/>
<polygon fill="#191970" stroke="#191970" points="876.9151,-88.6421 884.2833,-81.029 873.7756,-82.3856 876.9151,-88.6421"/>
</g>
<!-- Node26&#45;&gt;Node13 -->
<g id="edge37" class="edge">
<title>Node26&#45;&gt;Node13</title>
<path fill="none" stroke="#191970" d="M790,-184.8906C799.7119,-175.5581 814.6639,-161.1902 826.3741,-149.9374"/>
<polygon fill="#191970" stroke="#191970" points="829.0736,-152.1974 833.859,-142.7449 824.2234,-147.15 829.0736,-152.1974"/>
</g>
<!-- Node26&#45;&gt;Node14 -->
<g id="edge38" class="edge">
<title>Node26&#45;&gt;Node14</title>
<path fill="none" stroke="#191970" d="M758.5938,-184.8906C735.7717,-174.6457 699.4321,-158.3326 673.5943,-146.7339"/>
<polygon fill="#191970" stroke="#191970" points="674.8123,-143.4443 664.2559,-142.5419 671.9455,-149.8303 674.8123,-143.4443"/>
</g>
<!-- Node26&#45;&gt;Node21 -->
<g id="edge35" class="edge">
<title>Node26&#45;&gt;Node21</title>
<path fill="none" stroke="#191970" d="M726.2779,-184.9556C651.0263,-170.3352 511.1038,-138.5423 401,-87 380.7076,-77.5006 329.3313,-44.7319 299.1368,-25.1355"/>
<polygon fill="#191970" stroke="#191970" points="300.7945,-22.0385 290.504,-19.5171 296.9762,-27.9054 300.7945,-22.0385"/>
</g>
<!-- Node27&#45;&gt;Node14 -->
<g id="edge41" class="edge">
<title>Node27&#45;&gt;Node14</title>
<path fill="none" stroke="#191970" d="M617.4045,-179.2977C622.0257,-170.9388 627.7969,-160.4997 632.6889,-151.6509"/>
<polygon fill="#191970" stroke="#191970" points="635.7809,-153.292 637.5562,-142.8469 629.6548,-149.9051 635.7809,-153.292"/>
</g>
<!-- Node27&#45;&gt;Node21 -->
<g id="edge40" class="edge">
<title>Node27&#45;&gt;Node21</title>
<path fill="none" stroke="#191970" d="M555.4196,-181.1564C552.2355,-180.4136 549.0775,-179.6895 546,-179 467.2395,-161.3547 431.9769,-192.209 368,-143 333.8117,-116.7035 350.6889,-90.6471 325,-56 316.83,-44.981 305.8302,-34.3815 296.3225,-26.14"/>
<polygon fill="#191970" stroke="#191970" points="298.3733,-23.2921 288.4601,-19.5532 293.878,-28.658 298.3733,-23.2921"/>
</g>
<!-- Node28&#45;&gt;Node14 -->
<g id="edge45" class="edge">
<title>Node28&#45;&gt;Node14</title>
<path fill="none" stroke="#191970" d="M104.1881,-189.0693C208.9983,-178.1626 445.443,-153.558 567.2736,-140.8802"/>
<polygon fill="#191970" stroke="#191970" points="567.6872,-144.3561 577.2712,-139.8398 566.9627,-137.3937 567.6872,-144.3561"/>
</g>
<!-- Node28&#45;&gt;Node21 -->
<g id="edge44" class="edge">
<title>Node28&#45;&gt;Node21</title>
<path fill="none" stroke="#191970" d="M38.5946,-179.3985C26.9025,-164.3014 13.4742,-140.8289 25,-123 73.6256,-47.7826 185.5857,-22.1337 242.0814,-13.7895"/>
<polygon fill="#191970" stroke="#191970" points="242.8535,-17.2162 252.2818,-12.3832 241.8974,-10.2818 242.8535,-17.2162"/>
</g>
<!-- Node29 -->
<g id="node30" class="node">
<title>Node29</title>
<polygon fill="none" stroke="#bfbfbf" points="34,-123.5 34,-142.5 104,-142.5 104,-123.5 34,-123.5"/>
<text text-anchor="middle" x="69" y="-130.5" font-family="Helvetica,sans-Serif" font-size="10.00" fill="#000000">glm/fwd.hpp</text>
</g>
<!-- Node28&#45;&gt;Node29 -->
<g id="edge43" class="edge">
<title>Node28&#45;&gt;Node29</title>
<path fill="none" stroke="#191970" d="M56.2022,-179.2977C58.4391,-171.2055 61.2149,-161.1639 63.609,-152.5029"/>
<polygon fill="#191970" stroke="#191970" points="66.9872,-153.418 66.2781,-142.8469 60.2402,-151.5529 66.9872,-153.418"/>
</g>
<!-- Node30&#45;&gt;Node14 -->
<g id="edge48" class="edge">
<title>Node30&#45;&gt;Node14</title>
<path fill="none" stroke="#191970" d="M408.5337,-180.9808C411.3944,-180.2979 414.2305,-179.6333 417,-179 472.8843,-166.2204 536.948,-153.3474 582.5629,-144.4826"/>
<polygon fill="#191970" stroke="#191970" points="583.4323,-147.8794 592.5844,-142.5419 582.1013,-141.0071 583.4323,-147.8794"/>
</g>
<!-- Node30&#45;&gt;Node21 -->
<g id="edge47" class="edge">
<title>Node30&#45;&gt;Node21</title>
<path fill="none" stroke="#191970" d="M303.2357,-184.6922C261.1527,-175.6705 207.154,-160.9844 194,-143 171.1729,-111.7905 174.46,-89.3661 194,-56 204.5095,-38.0542 224.8685,-26.5774 242.6702,-19.5755"/>
<polygon fill="#191970" stroke="#191970" points="243.9978,-22.8175 252.2181,-16.1333 241.6237,-16.2323 243.9978,-22.8175"/>
</g>
<!-- Node31&#45;&gt;Node14 -->
<g id="edge51" class="edge">
<title>Node31&#45;&gt;Node14</title>
<path fill="none" stroke="#191970" d="M521.385,-179.4554C548.0127,-169.284 582.8444,-155.9787 608.4034,-146.2155"/>
<polygon fill="#191970" stroke="#191970" points="609.958,-149.3684 618.0507,-142.5303 607.4601,-142.8292 609.958,-149.3684"/>
</g>
<!-- Node31&#45;&gt;Node21 -->
<g id="edge50" class="edge">
<title>Node31&#45;&gt;Node21</title>
<path fill="none" stroke="#191970" d="M426.5516,-179.4501C358.1718,-159.5729 248.3303,-122.8761 227,-87 219.9589,-75.1573 221.5272,-68.6442 227,-56 232.2337,-43.9081 242.3842,-33.5335 252.0955,-25.7139"/>
<polygon fill="#191970" stroke="#191970" points="254.4671,-28.3109 260.382,-19.5209 250.2766,-22.7038 254.4671,-28.3109"/>
</g>
<!-- Node32&#45;&gt;Node3 -->
<g id="edge54" class="edge">
<title>Node32&#45;&gt;Node3</title>
<path fill="none" stroke="#191970" d="M1015.875,-123.3906C1008.1358,-114.2376 996.3013,-100.2409 986.8728,-89.09"/>
<polygon fill="#191970" stroke="#191970" points="989.3689,-86.6213 980.2396,-81.2449 984.0235,-91.1409 989.3689,-86.6213"/>
</g>
<!-- Node32&#45;&gt;Node23 -->
<g id="edge53" class="edge">
<title>Node32&#45;&gt;Node23</title>
<path fill="none" stroke="#191970" d="M1023.0485,-123.2122C1021.36,-108.2817 1017.121,-79.1151 1008,-56 1004.1603,-46.2692 998.3282,-36.2571 992.9788,-28.0684"/>
<polygon fill="#191970" stroke="#191970" points="995.8033,-25.9981 987.2762,-19.7101 990.0209,-29.9432 995.8033,-25.9981"/>
</g>
<!-- Node33 -->
<g id="node34" class="node">
<title>Node33</title>
<g id="a_node34"><a xlink:href="Components_2Component_8h.html" target="_top" xlink:title="../Components/Component.h">
<polygon fill="none" stroke="#000000" points="1055.5,-62 1055.5,-81 1198.5,-81 1198.5,-62 1055.5,-62"/>
<text text-anchor="middle" x="1127" y="-69" font-family="Helvetica,sans-Serif" font-size="10.00" fill="#000000">../Components/Component.h</text>
</a>
</g>
</g>
<!-- Node32&#45;&gt;Node33 -->
<g id="edge55" class="edge">
<title>Node32&#45;&gt;Node33</title>
<path fill="none" stroke="#191970" d="M1040.0938,-123.3906C1056.7228,-113.4616 1082.8976,-97.833 1102.1794,-86.3201"/>
<polygon fill="#191970" stroke="#191970" points="1104.2276,-89.1736 1111.0193,-81.0419 1100.639,-83.1634 1104.2276,-89.1736"/>
</g>
<!-- Node33&#45;&gt;Node2 -->
<g id="edge56" class="edge">
<title>Node33&#45;&gt;Node2</title>
<path fill="none" stroke="#191970" d="M1120.5938,-61.8906C1114.6114,-52.917 1105.5253,-39.2879 1098.1661,-28.2491"/>
<polygon fill="#191970" stroke="#191970" points="1100.9558,-26.1239 1092.4966,-19.7449 1095.1314,-30.0068 1100.9558,-26.1239"/>
</g>
</g>
</svg>
        <g id="navigator" transform="translate(0 0)" fill="#404254">
                <rect fill="#f2f5e9" fill-opacity="0.5" stroke="#606060" stroke-width=".5" x="0" y="0" width="60" height="60"/>
                <use id="zoomplus" xlink:href="#zoomPlus" x="17" y="9" onmousedown="handleZoom(evt,'in')"/>
                <use id="zoomminus" xlink:href="#zoomMin" x="42" y="9" onmousedown="handleZoom(evt,'out')"/>
                <use id="reset" xlink:href="#resetDef" x="30" y="36" onmousedown="handleReset()"/>
                <g id="arrowUp" xlink:href="#dirArrow" transform="translate(30 24)" onmousedown="handlePan(0,-1)">
                  <use xlink:href="#rim" fill="#404040">
                        <set attributeName="fill" to="#808080" begin="arrowUp.mouseover" end="arrowUp.mouseout"/>
                  </use>
                  <path fill="none" stroke="white" stroke-width="1.5" d="M0,-3.0v7 M-2.5,-0.5L0,-3.0L2.5,-0.5"/>
                </g>
                <g id="arrowRight" xlink:href="#dirArrow" transform="rotate(90) translate(36 -43)" onmousedown="handlePan(1,0)">
                  <use xlink:href="#rim" fill="#404040">
                        <set attributeName="fill" to="#808080" begin="arrowRight.mouseover" end="arrowRight.mouseout"/>
                  </use>
                  <path fill="none" stroke="white" stroke-width="1.5" d="M0,-3.0v7 M-2.5,-0.5L0,-3.0L2.5,-0.5"/>
                </g>
                <g id="arrowDown" xlink:href="#dirArrow" transform="rotate(180) translate(-30 -48)" onmousedown="handlePan(0,1)">
                  <use xlink:href="#rim" fill="#404040">
                        <set attributeName="fill" to="#808080" begin="arrowDown.mouseover" end="arrowDown.mouseout"/>
                  </use>
                  <path fill="none" stroke="white" stroke-width="1.5" d="M0,-3.0v7 M-2.5,-0.5L0,-3.0L2.5,-0.5"/>
                </g>
                <g id="arrowLeft" xlink:href="#dirArrow" transform="rotate(270) translate(-36 17)" onmousedown="handlePan(-1,0)">
                  <use xlink:href="#rim" fill="#404040">
                        <set attributeName="fill" to="#808080" begin="arrowLeft.mouseover" end="arrowLeft.mouseout"/>
                  </use>
                  <path fill="none" stroke="white" stroke-width="1.5" d="M0,-3.0v7 M-2.5,-0.5L0,-3.0L2.5,-0.5"/>
                </g>
        </g>
        <svg viewBox="0 0 15 15" width="100%" height="30px" preserveAspectRatio="xMaxYMin meet">
         <g id="arrow_out" transform="scale(0.3 0.3)">
          <a xlink:href="main_8cpp__incl_org.svg" target="_base">
           <rect id="button" ry="5" rx="5" y="6" x="6" height="38" width="38"
                fill="#f2f5e9" fill-opacity="0.5" stroke="#606060" stroke-width="1.0"/>
           <path id="arrow"
             d="M 11.500037,31.436501 C 11.940474,20.09759 22.043105,11.32322 32.158766,21.979434 L 37.068811,17.246167 C 37.068811,17.246167 37.088388,32 37.088388,32 L 22.160133,31.978069 C 22.160133,31.978069 26.997745,27.140456 26.997745,27.140456 C 18.528582,18.264221 13.291696,25.230495 11.500037,31.436501 z"
             style="fill:#404040;"/>
          </a>
         </g>
        </svg>
</svg>
