<?xml version="1.0" encoding="UTF-8" standalone="no"?>
<!DOCTYPE svg PUBLIC "-//W3C//DTD SVG 1.1//EN"
 "http://www.w3.org/Graphics/SVG/1.1/DTD/svg11.dtd">
<!-- Generated by graphviz version 2.40.1 (20161225.0304)
 -->
<!-- Title: /mnt/hdd/fnky/C0de/CAPSTONE/clean_build/include/rapidjson/memorystream.h Pages: 1 -->
<!--zoomable 440 -->
<svg id="main" version="1.1" xmlns="http://www.w3.org/2000/svg" xmlns:xlink="http://www.w3.org/1999/xlink" xml:space="preserve" onload="init(evt)">
<style type="text/css"><![CDATA[
.edge:hover path { stroke: red; }
.edge:hover polygon { stroke: red; fill: red; }
]]></style>
<script type="text/javascript"><![CDATA[
var edges = document.getElementsByTagName('g');
if (edges && edges.length) {
  for (var i=0;i<edges.length;i++) {
    if (edges[i].id.substr(0,4)=='edge') {
      edges[i].setAttribute('class','edge');
    }
  }
}
]]></script>
        <defs>
                <circle id="rim" cx="0" cy="0" r="7"/>
                <circle id="rim2" cx="0" cy="0" r="3.5"/>
                <g id="zoomPlus">
                        <use xlink:href="#rim" fill="#404040">
                                <set attributeName="fill" to="#808080" begin="zoomplus.mouseover" end="zoomplus.mouseout"/>
                        </use>
                        <path d="M-4,0h8M0,-4v8" fill="none" stroke="white" stroke-width="1.5" pointer-events="none"/>
                </g>
                <g id="zoomMin">
                        <use xlink:href="#rim" fill="#404040">
                                <set attributeName="fill" to="#808080" begin="zoomminus.mouseover" end="zoomminus.mouseout"/>
                        </use>
                        <path d="M-4,0h8" fill="none" stroke="white" stroke-width="1.5" pointer-events="none"/>
                </g>
                <g id="dirArrow">
                        <path fill="none" stroke="white" stroke-width="1.5" d="M0,-3.0v7 M-2.5,-0.5L0,-3.0L2.5,-0.5"/>
                </g>
               <g id="resetDef">
                       <use xlink:href="#rim2" fill="#404040">
                               <set attributeName="fill" to="#808080" begin="reset.mouseover" end="reset.mouseout"/>
                       </use>
               </g>
        </defs>

<script type="text/javascript">
var viewWidth = 576;
var viewHeight = 440;
var sectionId = 'dynsection-1';
</script>
<script xlink:href="svgpan.js"/>
<svg id="graph" class="graph">
<g id="viewport">
<title>/mnt/hdd/fnky/C0de/CAPSTONE/clean_build/include/rapidjson/memorystream.h</title>
<!-- Node7 -->
<g id="node1" class="node">
<title>Node7</title>
<polygon fill="#bfbfbf" stroke="#000000" points="333.5,-390.5 333.5,-431.5 502.5,-431.5 502.5,-390.5 333.5,-390.5"/>
<text text-anchor="start" x="341.5" y="-419.5" font-family="Helvetica,sans-Serif" font-size="10.00" fill="#000000">/mnt/hdd/fnky/C0de</text>
<text text-anchor="start" x="341.5" y="-408.5" font-family="Helvetica,sans-Serif" font-size="10.00" fill="#000000">/CAPSTONE/clean_build</text>
<text text-anchor="middle" x="418" y="-397.5" font-family="Helvetica,sans-Serif" font-size="10.00" fill="#000000">/include/rapidjson/memorystream.h</text>
</g>
<!-- Node8 -->
<g id="node2" class="node">
<title>Node8</title>
<g id="a_node2"><a xlink:href="encodedstream_8h.html" target="_top" xlink:title="/mnt/hdd/fnky/C0de\l/CAPSTONE/clean_build\l/include/rapidjson/encodedstream.h">
<polygon fill="none" stroke="#000000" points="277,-312.5 277,-353.5 447,-353.5 447,-312.5 277,-312.5"/>
<text text-anchor="start" x="285" y="-341.5" font-family="Helvetica,sans-Serif" font-size="10.00" fill="#000000">/mnt/hdd/fnky/C0de</text>
<text text-anchor="start" x="285" y="-330.5" font-family="Helvetica,sans-Serif" font-size="10.00" fill="#000000">/CAPSTONE/clean_build</text>
<text text-anchor="middle" x="362" y="-319.5" font-family="Helvetica,sans-Serif" font-size="10.00" fill="#000000">/include/rapidjson/encodedstream.h</text>
</a>
</g>
</g>
<!-- Node7&#45;&gt;Node8 -->
<g id="edge1" class="edge">
<title>Node7&#45;&gt;Node8</title>
<path fill="none" stroke="#191970" d="M397.0392,-381.8046C390.3268,-372.4552 383.0373,-362.302 376.8542,-353.6898"/>
<polygon fill="#191970" stroke="#191970" points="394.3178,-384.0154 402.993,-390.0974 400.0041,-379.9329 394.3178,-384.0154"/>
</g>
<!-- Node10 -->
<g id="node4" class="node">
<title>Node10</title>
<g id="a_node4"><a xlink:href="document_8h.html" target="_top" xlink:title="/mnt/hdd/fnky/C0de\l/CAPSTONE/clean_build\l/include/rapidjson/document.h">
<polygon fill="none" stroke="#000000" points="364,-156.5 364,-197.5 510,-197.5 510,-156.5 364,-156.5"/>
<text text-anchor="start" x="372" y="-185.5" font-family="Helvetica,sans-Serif" font-size="10.00" fill="#000000">/mnt/hdd/fnky/C0de</text>
<text text-anchor="start" x="372" y="-174.5" font-family="Helvetica,sans-Serif" font-size="10.00" fill="#000000">/CAPSTONE/clean_build</text>
<text text-anchor="middle" x="437" y="-163.5" font-family="Helvetica,sans-Serif" font-size="10.00" fill="#000000">/include/rapidjson/document.h</text>
</a>
</g>
</g>
<!-- Node7&#45;&gt;Node10 -->
<g id="edge11" class="edge">
<title>Node7&#45;&gt;Node10</title>
<path fill="none" stroke="#191970" d="M442.0762,-381.9546C447.7635,-373.4552 453.0328,-363.8 456,-354 472.5686,-299.2777 455.268,-231.2112 444.3971,-197.6647"/>
<polygon fill="#191970" stroke="#191970" points="439.0428,-380.1797 436.077,-390.351 444.7384,-384.2492 439.0428,-380.1797"/>
</g>
<!-- Node9 -->
<g id="node3" class="node">
<title>Node9</title>
<g id="a_node3"><a xlink:href="reader_8h.html" target="_top" xlink:title="/mnt/hdd/fnky/C0de\l/CAPSTONE/clean_build\l/include/rapidjson/reader.h">
<polygon fill="none" stroke="#000000" points="277.5,-234.5 277.5,-275.5 408.5,-275.5 408.5,-234.5 277.5,-234.5"/>
<text text-anchor="start" x="285.5" y="-263.5" font-family="Helvetica,sans-Serif" font-size="10.00" fill="#000000">/mnt/hdd/fnky/C0de</text>
<text text-anchor="start" x="285.5" y="-252.5" font-family="Helvetica,sans-Serif" font-size="10.00" fill="#000000">/CAPSTONE/clean_build</text>
<text text-anchor="middle" x="343" y="-241.5" font-family="Helvetica,sans-Serif" font-size="10.00" fill="#000000">/include/rapidjson/reader.h</text>
</a>
</g>
</g>
<!-- Node8&#45;&gt;Node9 -->
<g id="edge2" class="edge">
<title>Node8&#45;&gt;Node9</title>
<path fill="none" stroke="#191970" d="M354.5383,-302.3676C352.3595,-293.4232 350.0306,-283.8626 348.0398,-275.6898"/>
<polygon fill="#191970" stroke="#191970" points="351.141,-303.2099 356.9083,-312.0974 357.9421,-301.5532 351.141,-303.2099"/>
</g>
<!-- Node8&#45;&gt;Node10 -->
<g id="edge10" class="edge">
<title>Node8&#45;&gt;Node10</title>
<path fill="none" stroke="#191970" d="M394.8761,-305.2416C403.2309,-296.6603 411.4134,-286.6413 417,-276 430.041,-251.1596 434.5933,-218.6978 436.1735,-197.8447"/>
<polygon fill="#191970" stroke="#191970" points="392.2618,-302.9024 387.5505,-312.3922 397.1513,-307.9117 392.2618,-302.9024"/>
</g>
<!-- Node9&#45;&gt;Node10 -->
<g id="edge3" class="edge">
<title>Node9&#45;&gt;Node10</title>
<path fill="none" stroke="#191970" d="M376.1263,-227.5122C387.9461,-217.7043 401.0519,-206.8293 412.0661,-197.6898"/>
<polygon fill="#191970" stroke="#191970" points="373.6509,-225.0182 368.1903,-234.0974 378.1209,-230.4051 373.6509,-225.0182"/>
</g>
<!-- Node11 -->
<g id="node5" class="node">
<title>Node11</title>
<g id="a_node5"><a xlink:href="NetworkComponent_8h.html" target="_top" xlink:title="/mnt/hdd/fnky/C0de\l/CAPSTONE/clean_build\l/include/Components/NetworkComponent.h">
<polygon fill="none" stroke="#000000" points="145.5,-78.5 145.5,-119.5 352.5,-119.5 352.5,-78.5 145.5,-78.5"/>
<text text-anchor="start" x="153.5" y="-107.5" font-family="Helvetica,sans-Serif" font-size="10.00" fill="#000000">/mnt/hdd/fnky/C0de</text>
<text text-anchor="start" x="153.5" y="-96.5" font-family="Helvetica,sans-Serif" font-size="10.00" fill="#000000">/CAPSTONE/clean_build</text>
<text text-anchor="middle" x="249" y="-85.5" font-family="Helvetica,sans-Serif" font-size="10.00" fill="#000000">/include/Components/NetworkComponent.h</text>
</a>
</g>
</g>
<!-- Node10&#45;&gt;Node11 -->
<g id="edge4" class="edge">
<title>Node10&#45;&gt;Node11</title>
<path fill="none" stroke="#191970" d="M377.5667,-152.3415C352.1068,-141.7784 322.7163,-129.5844 298.4678,-119.5239"/>
<polygon fill="#191970" stroke="#191970" points="376.5352,-155.7028 387.113,-156.3022 379.2177,-149.2372 376.5352,-155.7028"/>
</g>
<!-- Node14 -->
<g id="node8" class="node">
<title>Node14</title>
<g id="a_node8"><a xlink:href="pointer_8h.html" target="_top" xlink:title="/mnt/hdd/fnky/C0de\l/CAPSTONE/clean_build\l/include/rapidjson/pointer.h">
<polygon fill="none" stroke="#000000" points="370.5,-78.5 370.5,-119.5 503.5,-119.5 503.5,-78.5 370.5,-78.5"/>
<text text-anchor="start" x="378.5" y="-107.5" font-family="Helvetica,sans-Serif" font-size="10.00" fill="#000000">/mnt/hdd/fnky/C0de</text>
<text text-anchor="start" x="378.5" y="-96.5" font-family="Helvetica,sans-Serif" font-size="10.00" fill="#000000">/CAPSTONE/clean_build</text>
<text text-anchor="middle" x="437" y="-85.5" font-family="Helvetica,sans-Serif" font-size="10.00" fill="#000000">/include/rapidjson/pointer.h</text>
</a>
</g>
</g>
<!-- Node10&#45;&gt;Node14 -->
<g id="edge7" class="edge">
<title>Node10&#45;&gt;Node14</title>
<path fill="none" stroke="#191970" d="M437,-146.0789C437,-137.2178 437,-127.7747 437,-119.6898"/>
<polygon fill="#191970" stroke="#191970" points="433.5001,-146.0974 437,-156.0974 440.5001,-146.0975 433.5001,-146.0974"/>
</g>
<!-- Node15 -->
<g id="node9" class="node">
<title>Node15</title>
<g id="a_node9"><a xlink:href="schema_8h.html" target="_top" xlink:title="/mnt/hdd/fnky/C0de\l/CAPSTONE/clean_build\l/include/rapidjson/schema.h">
<polygon fill="none" stroke="#000000" points="430,-.5 430,-41.5 568,-41.5 568,-.5 430,-.5"/>
<text text-anchor="start" x="438" y="-29.5" font-family="Helvetica,sans-Serif" font-size="10.00" fill="#000000">/mnt/hdd/fnky/C0de</text>
<text text-anchor="start" x="438" y="-18.5" font-family="Helvetica,sans-Serif" font-size="10.00" fill="#000000">/CAPSTONE/clean_build</text>
<text text-anchor="middle" x="499" y="-7.5" font-family="Helvetica,sans-Serif" font-size="10.00" fill="#000000">/include/rapidjson/schema.h</text>
</a>
</g>
</g>
<!-- Node10&#45;&gt;Node15 -->
<g id="edge9" class="edge">
<title>Node10&#45;&gt;Node15</title>
<path fill="none" stroke="#191970" d="M485.5552,-150.4721C496.1854,-142.199 506.0351,-132.0254 512,-120 524.3249,-95.1527 516.1655,-62.6927 508.3128,-41.8418"/>
<polygon fill="#191970" stroke="#191970" points="483.375,-147.7295 477.3255,-156.4274 487.4787,-153.4005 483.375,-147.7295"/>
</g>
<!-- Node12 -->
<g id="node6" class="node">
<title>Node12</title>
<g id="a_node6"><a xlink:href="NetworkComponent_8cpp.html" target="_top" xlink:title="/mnt/hdd/fnky/C0de\l/CAPSTONE/clean_build\l/src/Components/NetworkComponent.cpp">
<polygon fill="none" stroke="#000000" points="0,-.5 0,-41.5 200,-41.5 200,-.5 0,-.5"/>
<text text-anchor="start" x="8" y="-29.5" font-family="Helvetica,sans-Serif" font-size="10.00" fill="#000000">/mnt/hdd/fnky/C0de</text>
<text text-anchor="start" x="8" y="-18.5" font-family="Helvetica,sans-Serif" font-size="10.00" fill="#000000">/CAPSTONE/clean_build</text>
<text text-anchor="middle" x="100" y="-7.5" font-family="Helvetica,sans-Serif" font-size="10.00" fill="#000000">/src/Components/NetworkComponent.cpp</text>
</a>
</g>
</g>
<!-- Node11&#45;&gt;Node12 -->
<g id="edge5" class="edge">
<title>Node11&#45;&gt;Node12</title>
<path fill="none" stroke="#191970" d="M200.5581,-73.6411C180.6935,-63.2422 158.0008,-51.3628 139.2058,-41.5239"/>
<polygon fill="#191970" stroke="#191970" points="198.9792,-76.7651 209.4619,-78.3022 202.2257,-70.5635 198.9792,-76.7651"/>
</g>
<!-- Node13 -->
<g id="node7" class="node">
<title>Node13</title>
<g id="a_node7"><a xlink:href="game_8cpp.html" target="_top" xlink:title="/mnt/hdd/fnky/C0de\l/CAPSTONE/clean_build\l/src/Window/game.cpp">
<polygon fill="none" stroke="#000000" points="218.5,-.5 218.5,-41.5 345.5,-41.5 345.5,-.5 218.5,-.5"/>
<text text-anchor="start" x="226.5" y="-29.5" font-family="Helvetica,sans-Serif" font-size="10.00" fill="#000000">/mnt/hdd/fnky/C0de</text>
<text text-anchor="start" x="226.5" y="-18.5" font-family="Helvetica,sans-Serif" font-size="10.00" fill="#000000">/CAPSTONE/clean_build</text>
<text text-anchor="middle" x="282" y="-7.5" font-family="Helvetica,sans-Serif" font-size="10.00" fill="#000000">/src/Window/game.cpp</text>
</a>
</g>
</g>
<!-- Node11&#45;&gt;Node13 -->
<g id="edge6" class="edge">
<title>Node11&#45;&gt;Node13</title>
<path fill="none" stroke="#191970" d="M261.8379,-68.6559C265.657,-59.629 269.7517,-49.9505 273.2466,-41.6898"/>
<polygon fill="#191970" stroke="#191970" points="258.5165,-67.524 257.8434,-78.0974 264.9632,-70.2515 258.5165,-67.524"/>
</g>
<!-- Node14&#45;&gt;Node15 -->
<g id="edge8" class="edge">
<title>Node14&#45;&gt;Node15</title>
<path fill="none" stroke="#191970" d="M459.9793,-70.0905C467.4733,-60.6626 475.6388,-50.3899 482.5543,-41.6898"/>
<polygon fill="#191970" stroke="#191970" points="457.0975,-68.0913 453.6149,-78.0974 462.5772,-72.447 457.0975,-68.0913"/>
</g>
</g>
</svg>
        <g id="navigator" transform="translate(0 0)" fill="#404254">
                <rect fill="#f2f5e9" fill-opacity="0.5" stroke="#606060" stroke-width=".5" x="0" y="0" width="60" height="60"/>
                <use id="zoomplus" xlink:href="#zoomPlus" x="17" y="9" onmousedown="handleZoom(evt,'in')"/>
                <use id="zoomminus" xlink:href="#zoomMin" x="42" y="9" onmousedown="handleZoom(evt,'out')"/>
                <use id="reset" xlink:href="#resetDef" x="30" y="36" onmousedown="handleReset()"/>
                <g id="arrowUp" xlink:href="#dirArrow" transform="translate(30 24)" onmousedown="handlePan(0,-1)">
                  <use xlink:href="#rim" fill="#404040">
                        <set attributeName="fill" to="#808080" begin="arrowUp.mouseover" end="arrowUp.mouseout"/>
                  </use>
                  <path fill="none" stroke="white" stroke-width="1.5" d="M0,-3.0v7 M-2.5,-0.5L0,-3.0L2.5,-0.5"/>
                </g>
                <g id="arrowRight" xlink:href="#dirArrow" transform="rotate(90) translate(36 -43)" onmousedown="handlePan(1,0)">
                  <use xlink:href="#rim" fill="#404040">
                        <set attributeName="fill" to="#808080" begin="arrowRight.mouseover" end="arrowRight.mouseout"/>
                  </use>
                  <path fill="none" stroke="white" stroke-width="1.5" d="M0,-3.0v7 M-2.5,-0.5L0,-3.0L2.5,-0.5"/>
                </g>
                <g id="arrowDown" xlink:href="#dirArrow" transform="rotate(180) translate(-30 -48)" onmousedown="handlePan(0,1)">
                  <use xlink:href="#rim" fill="#404040">
                        <set attributeName="fill" to="#808080" begin="arrowDown.mouseover" end="arrowDown.mouseout"/>
                  </use>
                  <path fill="none" stroke="white" stroke-width="1.5" d="M0,-3.0v7 M-2.5,-0.5L0,-3.0L2.5,-0.5"/>
                </g>
                <g id="arrowLeft" xlink:href="#dirArrow" transform="rotate(270) translate(-36 17)" onmousedown="handlePan(-1,0)">
                  <use xlink:href="#rim" fill="#404040">
                        <set attributeName="fill" to="#808080" begin="arrowLeft.mouseover" end="arrowLeft.mouseout"/>
                  </use>
                  <path fill="none" stroke="white" stroke-width="1.5" d="M0,-3.0v7 M-2.5,-0.5L0,-3.0L2.5,-0.5"/>
                </g>
        </g>
        <svg viewBox="0 0 15 15" width="100%" height="30px" preserveAspectRatio="xMaxYMin meet">
         <g id="arrow_out" transform="scale(0.3 0.3)">
          <a xlink:href="memorystream_8h__dep__incl_org.svg" target="_base">
           <rect id="button" ry="5" rx="5" y="6" x="6" height="38" width="38"
                fill="#f2f5e9" fill-opacity="0.5" stroke="#606060" stroke-width="1.0"/>
           <path id="arrow"
             d="M 11.500037,31.436501 C 11.940474,20.09759 22.043105,11.32322 32.158766,21.979434 L 37.068811,17.246167 C 37.068811,17.246167 37.088388,32 37.088388,32 L 22.160133,31.978069 C 22.160133,31.978069 26.997745,27.140456 26.997745,27.140456 C 18.528582,18.264221 13.291696,25.230495 11.500037,31.436501 z"
             style="fill:#404040;"/>
          </a>
         </g>
        </svg>
</svg>
