<?xml version="1.0" encoding="UTF-8" standalone="no"?>
<!DOCTYPE svg PUBLIC "-//W3C//DTD SVG 1.1//EN"
 "http://www.w3.org/Graphics/SVG/1.1/DTD/svg11.dtd">
<!-- Generated by graphviz version 2.40.1 (20161225.0304)
 -->
<!-- Title: /mnt/hdd/fnky/C0de/CAPSTONE/clean_build/include/rapidjson/internal/meta.h Pages: 1 -->
<svg width="1006pt" height="551pt"
 viewBox="0.00 0.00 1005.50 551.00" xmlns="http://www.w3.org/2000/svg" xmlns:xlink="http://www.w3.org/1999/xlink">
<g id="graph0" class="graph" transform="scale(1 1) rotate(0) translate(4 547)">
<title>/mnt/hdd/fnky/C0de/CAPSTONE/clean_build/include/rapidjson/internal/meta.h</title>
<!-- Node5 -->
<g id="node1" class="node">
<title>Node5</title>
<polygon fill="#bfbfbf" stroke="#000000" points="257.5,-490.5 257.5,-542.5 384.5,-542.5 384.5,-490.5 257.5,-490.5"/>
<text text-anchor="start" x="265.5" y="-530.5" font-family="Helvetica,sans-Serif" font-size="10.00" fill="#000000">/mnt/hdd/fnky/C0de</text>
<text text-anchor="start" x="265.5" y="-519.5" font-family="Helvetica,sans-Serif" font-size="10.00" fill="#000000">/CAPSTONE/clean_build</text>
<text text-anchor="start" x="265.5" y="-508.5" font-family="Helvetica,sans-Serif" font-size="10.00" fill="#000000">/include/rapidjson/internal</text>
<text text-anchor="middle" x="321" y="-497.5" font-family="Helvetica,sans-Serif" font-size="10.00" fill="#000000">/meta.h</text>
</g>
<!-- Node6 -->
<g id="node2" class="node">
<title>Node6</title>
<g id="a_node2"><a xlink:href="allocators_8h.html" target="_top" xlink:title="/mnt/hdd/fnky/C0de\l/CAPSTONE/clean_build\l/include/rapidjson/allocators.h">
<polygon fill="none" stroke="#000000" points="401,-412.5 401,-453.5 547,-453.5 547,-412.5 401,-412.5"/>
<text text-anchor="start" x="409" y="-441.5" font-family="Helvetica,sans-Serif" font-size="10.00" fill="#000000">/mnt/hdd/fnky/C0de</text>
<text text-anchor="start" x="409" y="-430.5" font-family="Helvetica,sans-Serif" font-size="10.00" fill="#000000">/CAPSTONE/clean_build</text>
<text text-anchor="middle" x="474" y="-419.5" font-family="Helvetica,sans-Serif" font-size="10.00" fill="#000000">/include/rapidjson/allocators.h</text>
</a>
</g>
</g>
<!-- Node5&#45;&gt;Node6 -->
<g id="edge1" class="edge">
<title>Node5&#45;&gt;Node6</title>
<path fill="none" stroke="#191970" d="M377.8195,-485.4907C397.3609,-474.8259 418.7406,-463.1579 436.3699,-453.5367"/>
<polygon fill="#191970" stroke="#191970" points="376.0915,-482.4463 368.9904,-490.3092 379.4449,-488.5908 376.0915,-482.4463"/>
</g>
<!-- Node7 -->
<g id="node3" class="node">
<title>Node7</title>
<g id="a_node3"><a xlink:href="reader_8h.html" target="_top" xlink:title="/mnt/hdd/fnky/C0de\l/CAPSTONE/clean_build\l/include/rapidjson/reader.h">
<polygon fill="none" stroke="#000000" points="330.5,-240 330.5,-281 461.5,-281 461.5,-240 330.5,-240"/>
<text text-anchor="start" x="338.5" y="-269" font-family="Helvetica,sans-Serif" font-size="10.00" fill="#000000">/mnt/hdd/fnky/C0de</text>
<text text-anchor="start" x="338.5" y="-258" font-family="Helvetica,sans-Serif" font-size="10.00" fill="#000000">/CAPSTONE/clean_build</text>
<text text-anchor="middle" x="396" y="-247" font-family="Helvetica,sans-Serif" font-size="10.00" fill="#000000">/include/rapidjson/reader.h</text>
</a>
</g>
</g>
<!-- Node5&#45;&gt;Node7 -->
<g id="edge22" class="edge">
<title>Node5&#45;&gt;Node7</title>
<path fill="none" stroke="#191970" d="M331.6492,-480.1509C347.5957,-425.7201 377.1643,-324.7925 389.9022,-281.3139"/>
<polygon fill="#191970" stroke="#191970" points="328.1966,-479.487 328.7438,-490.0677 334.9142,-481.4551 328.1966,-479.487"/>
</g>
<!-- Node8 -->
<g id="node4" class="node">
<title>Node8</title>
<g id="a_node4"><a xlink:href="document_8h.html" target="_top" xlink:title="/mnt/hdd/fnky/C0de\l/CAPSTONE/clean_build\l/include/rapidjson/document.h">
<polygon fill="none" stroke="#000000" points="240,-156.5 240,-197.5 386,-197.5 386,-156.5 240,-156.5"/>
<text text-anchor="start" x="248" y="-185.5" font-family="Helvetica,sans-Serif" font-size="10.00" fill="#000000">/mnt/hdd/fnky/C0de</text>
<text text-anchor="start" x="248" y="-174.5" font-family="Helvetica,sans-Serif" font-size="10.00" fill="#000000">/CAPSTONE/clean_build</text>
<text text-anchor="middle" x="313" y="-163.5" font-family="Helvetica,sans-Serif" font-size="10.00" fill="#000000">/include/rapidjson/document.h</text>
</a>
</g>
</g>
<!-- Node5&#45;&gt;Node8 -->
<g id="edge23" class="edge">
<title>Node5&#45;&gt;Node8</title>
<path fill="none" stroke="#191970" d="M298.636,-481.2928C294.2488,-472.6831 290.2973,-463.2713 288,-454 264.4828,-359.0925 267.9363,-329.6971 288,-234 290.6386,-221.4147 296.2261,-208.2133 301.4508,-197.6879"/>
<polygon fill="#191970" stroke="#191970" points="295.6646,-483.1554 303.51,-490.2758 301.8173,-479.817 295.6646,-483.1554"/>
</g>
<!-- Node15 -->
<g id="node11" class="node">
<title>Node15</title>
<g id="a_node11"><a xlink:href="writer_8h.html" target="_top" xlink:title="/mnt/hdd/fnky/C0de\l/CAPSTONE/clean_build\l/include/rapidjson/writer.h">
<polygon fill="none" stroke="#000000" points="426,-156.5 426,-197.5 554,-197.5 554,-156.5 426,-156.5"/>
<text text-anchor="start" x="434" y="-185.5" font-family="Helvetica,sans-Serif" font-size="10.00" fill="#000000">/mnt/hdd/fnky/C0de</text>
<text text-anchor="start" x="434" y="-174.5" font-family="Helvetica,sans-Serif" font-size="10.00" fill="#000000">/CAPSTONE/clean_build</text>
<text text-anchor="middle" x="490" y="-163.5" font-family="Helvetica,sans-Serif" font-size="10.00" fill="#000000">/include/rapidjson/writer.h</text>
</a>
</g>
</g>
<!-- Node5&#45;&gt;Node15 -->
<g id="edge24" class="edge">
<title>Node5&#45;&gt;Node15</title>
<path fill="none" stroke="#191970" d="M308.8906,-480.7182C291.7393,-422.8706 267.9719,-307.8482 321,-234 333.6875,-216.3311 383.3534,-200.8875 425.5864,-190.5486"/>
<polygon fill="#191970" stroke="#191970" points="305.6117,-481.9643 311.8903,-490.4983 312.304,-479.9116 305.6117,-481.9643"/>
</g>
<!-- Node6&#45;&gt;Node7 -->
<g id="edge2" class="edge">
<title>Node6&#45;&gt;Node7</title>
<path fill="none" stroke="#191970" d="M460.4187,-402.9643C444.6351,-368.0583 419.0102,-311.388 405.3206,-281.1128"/>
<polygon fill="#191970" stroke="#191970" points="457.2821,-404.5227 464.5914,-412.1925 463.6603,-401.6386 457.2821,-404.5227"/>
</g>
<!-- Node14 -->
<g id="node10" class="node">
<title>Node14</title>
<g id="a_node10"><a xlink:href="stack_8h.html" target="_top" xlink:title="/mnt/hdd/fnky/C0de\l/CAPSTONE/clean_build\l/include/rapidjson/internal\l/stack.h">
<polygon fill="none" stroke="#000000" points="478.5,-323.5 478.5,-375.5 605.5,-375.5 605.5,-323.5 478.5,-323.5"/>
<text text-anchor="start" x="486.5" y="-363.5" font-family="Helvetica,sans-Serif" font-size="10.00" fill="#000000">/mnt/hdd/fnky/C0de</text>
<text text-anchor="start" x="486.5" y="-352.5" font-family="Helvetica,sans-Serif" font-size="10.00" fill="#000000">/CAPSTONE/clean_build</text>
<text text-anchor="start" x="486.5" y="-341.5" font-family="Helvetica,sans-Serif" font-size="10.00" fill="#000000">/include/rapidjson/internal</text>
<text text-anchor="middle" x="542" y="-330.5" font-family="Helvetica,sans-Serif" font-size="10.00" fill="#000000">/stack.h</text>
</a>
</g>
</g>
<!-- Node6&#45;&gt;Node14 -->
<g id="edge10" class="edge">
<title>Node6&#45;&gt;Node14</title>
<path fill="none" stroke="#191970" d="M497.2523,-404.4475C504.8698,-395.0938 513.2894,-384.7549 520.751,-375.5925"/>
<polygon fill="#191970" stroke="#191970" points="494.4098,-402.3953 490.809,-412.3595 499.8376,-406.8156 494.4098,-402.3953"/>
</g>
<!-- Node18 -->
<g id="node14" class="node">
<title>Node18</title>
<g id="a_node14"><a xlink:href="regex_8h.html" target="_top" xlink:title="/mnt/hdd/fnky/C0de\l/CAPSTONE/clean_build\l/include/rapidjson/internal\l/regex.h">
<polygon fill="none" stroke="#000000" points="870.5,-234.5 870.5,-286.5 997.5,-286.5 997.5,-234.5 870.5,-234.5"/>
<text text-anchor="start" x="878.5" y="-274.5" font-family="Helvetica,sans-Serif" font-size="10.00" fill="#000000">/mnt/hdd/fnky/C0de</text>
<text text-anchor="start" x="878.5" y="-263.5" font-family="Helvetica,sans-Serif" font-size="10.00" fill="#000000">/CAPSTONE/clean_build</text>
<text text-anchor="start" x="878.5" y="-252.5" font-family="Helvetica,sans-Serif" font-size="10.00" fill="#000000">/include/rapidjson/internal</text>
<text text-anchor="middle" x="934" y="-241.5" font-family="Helvetica,sans-Serif" font-size="10.00" fill="#000000">/regex.h</text>
</a>
</g>
</g>
<!-- Node6&#45;&gt;Node18 -->
<g id="edge21" class="edge">
<title>Node6&#45;&gt;Node18</title>
<path fill="none" stroke="#191970" d="M538.6262,-408.7652C626.5877,-375.7796 783.0323,-317.1129 870.4376,-284.3359"/>
<polygon fill="#191970" stroke="#191970" points="537.1642,-405.5754 529.0298,-412.3638 539.6221,-412.1297 537.1642,-405.5754"/>
</g>
<!-- Node7&#45;&gt;Node8 -->
<g id="edge3" class="edge">
<title>Node7&#45;&gt;Node8</title>
<path fill="none" stroke="#191970" d="M368.2929,-232.626C356.948,-221.2127 344.0513,-208.2384 333.5685,-197.6924"/>
<polygon fill="#191970" stroke="#191970" points="365.951,-235.2347 375.4831,-239.8595 370.9156,-230.2998 365.951,-235.2347"/>
</g>
<!-- Node9 -->
<g id="node5" class="node">
<title>Node9</title>
<g id="a_node5"><a xlink:href="NetworkComponent_8h.html" target="_top" xlink:title="/mnt/hdd/fnky/C0de\l/CAPSTONE/clean_build\l/include/Components/NetworkComponent.h">
<polygon fill="none" stroke="#000000" points="21.5,-78.5 21.5,-119.5 228.5,-119.5 228.5,-78.5 21.5,-78.5"/>
<text text-anchor="start" x="29.5" y="-107.5" font-family="Helvetica,sans-Serif" font-size="10.00" fill="#000000">/mnt/hdd/fnky/C0de</text>
<text text-anchor="start" x="29.5" y="-96.5" font-family="Helvetica,sans-Serif" font-size="10.00" fill="#000000">/CAPSTONE/clean_build</text>
<text text-anchor="middle" x="125" y="-85.5" font-family="Helvetica,sans-Serif" font-size="10.00" fill="#000000">/include/Components/NetworkComponent.h</text>
</a>
</g>
</g>
<!-- Node8&#45;&gt;Node9 -->
<g id="edge4" class="edge">
<title>Node8&#45;&gt;Node9</title>
<path fill="none" stroke="#191970" d="M253.5667,-152.3415C228.1068,-141.7784 198.7163,-129.5844 174.4678,-119.5239"/>
<polygon fill="#191970" stroke="#191970" points="252.5352,-155.7028 263.113,-156.3022 255.2177,-149.2372 252.5352,-155.7028"/>
</g>
<!-- Node12 -->
<g id="node8" class="node">
<title>Node12</title>
<g id="a_node8"><a xlink:href="pointer_8h.html" target="_top" xlink:title="/mnt/hdd/fnky/C0de\l/CAPSTONE/clean_build\l/include/rapidjson/pointer.h">
<polygon fill="none" stroke="#000000" points="246.5,-78.5 246.5,-119.5 379.5,-119.5 379.5,-78.5 246.5,-78.5"/>
<text text-anchor="start" x="254.5" y="-107.5" font-family="Helvetica,sans-Serif" font-size="10.00" fill="#000000">/mnt/hdd/fnky/C0de</text>
<text text-anchor="start" x="254.5" y="-96.5" font-family="Helvetica,sans-Serif" font-size="10.00" fill="#000000">/CAPSTONE/clean_build</text>
<text text-anchor="middle" x="313" y="-85.5" font-family="Helvetica,sans-Serif" font-size="10.00" fill="#000000">/include/rapidjson/pointer.h</text>
</a>
</g>
</g>
<!-- Node8&#45;&gt;Node12 -->
<g id="edge7" class="edge">
<title>Node8&#45;&gt;Node12</title>
<path fill="none" stroke="#191970" d="M313,-146.0789C313,-137.2178 313,-127.7747 313,-119.6898"/>
<polygon fill="#191970" stroke="#191970" points="309.5001,-146.0974 313,-156.0974 316.5001,-146.0975 309.5001,-146.0974"/>
</g>
<!-- Node13 -->
<g id="node9" class="node">
<title>Node13</title>
<g id="a_node9"><a xlink:href="schema_8h.html" target="_top" xlink:title="/mnt/hdd/fnky/C0de\l/CAPSTONE/clean_build\l/include/rapidjson/schema.h">
<polygon fill="none" stroke="#000000" points="455,-.5 455,-41.5 593,-41.5 593,-.5 455,-.5"/>
<text text-anchor="start" x="463" y="-29.5" font-family="Helvetica,sans-Serif" font-size="10.00" fill="#000000">/mnt/hdd/fnky/C0de</text>
<text text-anchor="start" x="463" y="-18.5" font-family="Helvetica,sans-Serif" font-size="10.00" fill="#000000">/CAPSTONE/clean_build</text>
<text text-anchor="middle" x="524" y="-7.5" font-family="Helvetica,sans-Serif" font-size="10.00" fill="#000000">/include/rapidjson/schema.h</text>
</a>
</g>
</g>
<!-- Node8&#45;&gt;Node13 -->
<g id="edge9" class="edge">
<title>Node8&#45;&gt;Node13</title>
<path fill="none" stroke="#191970" d="M351.6089,-150.269C363.955,-141.1439 377.4157,-130.5654 389,-120 407.5991,-103.0368 407.4788,-93.8934 427,-78 443.9649,-64.1879 464.6519,-51.5512 482.557,-41.7052"/>
<polygon fill="#191970" stroke="#191970" points="349.3003,-147.6204 343.2763,-156.3361 353.4206,-153.2793 349.3003,-147.6204"/>
</g>
<!-- Node10 -->
<g id="node6" class="node">
<title>Node10</title>
<g id="a_node6"><a xlink:href="NetworkComponent_8cpp.html" target="_top" xlink:title="/mnt/hdd/fnky/C0de\l/CAPSTONE/clean_build\l/src/Components/NetworkComponent.cpp">
<polygon fill="none" stroke="#000000" points="0,-.5 0,-41.5 200,-41.5 200,-.5 0,-.5"/>
<text text-anchor="start" x="8" y="-29.5" font-family="Helvetica,sans-Serif" font-size="10.00" fill="#000000">/mnt/hdd/fnky/C0de</text>
<text text-anchor="start" x="8" y="-18.5" font-family="Helvetica,sans-Serif" font-size="10.00" fill="#000000">/CAPSTONE/clean_build</text>
<text text-anchor="middle" x="100" y="-7.5" font-family="Helvetica,sans-Serif" font-size="10.00" fill="#000000">/src/Components/NetworkComponent.cpp</text>
</a>
</g>
</g>
<!-- Node9&#45;&gt;Node10 -->
<g id="edge5" class="edge">
<title>Node9&#45;&gt;Node10</title>
<path fill="none" stroke="#191970" d="M115.1819,-68.3676C112.3151,-59.4232 109.2508,-49.8626 106.6313,-41.6898"/>
<polygon fill="#191970" stroke="#191970" points="111.9152,-69.6429 118.3005,-78.0974 118.5812,-67.5063 111.9152,-69.6429"/>
</g>
<!-- Node11 -->
<g id="node7" class="node">
<title>Node11</title>
<g id="a_node7"><a xlink:href="game_8cpp.html" target="_top" xlink:title="/mnt/hdd/fnky/C0de\l/CAPSTONE/clean_build\l/src/Window/game.cpp">
<polygon fill="none" stroke="#000000" points="218.5,-.5 218.5,-41.5 345.5,-41.5 345.5,-.5 218.5,-.5"/>
<text text-anchor="start" x="226.5" y="-29.5" font-family="Helvetica,sans-Serif" font-size="10.00" fill="#000000">/mnt/hdd/fnky/C0de</text>
<text text-anchor="start" x="226.5" y="-18.5" font-family="Helvetica,sans-Serif" font-size="10.00" fill="#000000">/CAPSTONE/clean_build</text>
<text text-anchor="middle" x="282" y="-7.5" font-family="Helvetica,sans-Serif" font-size="10.00" fill="#000000">/src/Window/game.cpp</text>
</a>
</g>
</g>
<!-- Node9&#45;&gt;Node11 -->
<g id="edge6" class="edge">
<title>Node9&#45;&gt;Node11</title>
<path fill="none" stroke="#191970" d="M175.7601,-73.7816C196.7585,-63.3493 220.7958,-51.4072 240.6892,-41.5239"/>
<polygon fill="#191970" stroke="#191970" points="174.0593,-70.7184 166.6609,-78.3022 177.1739,-76.9873 174.0593,-70.7184"/>
</g>
<!-- Node12&#45;&gt;Node13 -->
<g id="edge8" class="edge">
<title>Node12&#45;&gt;Node13</title>
<path fill="none" stroke="#191970" d="M378.2999,-74.8607C407.145,-64.1976 440.7046,-51.7917 468.3402,-41.5757"/>
<polygon fill="#191970" stroke="#191970" points="376.8798,-71.6541 368.7138,-78.4044 379.307,-78.2198 376.8798,-71.6541"/>
</g>
<!-- Node14&#45;&gt;Node7 -->
<g id="edge11" class="edge">
<title>Node14&#45;&gt;Node7</title>
<path fill="none" stroke="#191970" d="M490.2644,-317.9626C470.2253,-305.7469 447.8438,-292.1034 429.9198,-281.1771"/>
<polygon fill="#191970" stroke="#191970" points="488.6245,-321.0619 498.9848,-323.2784 492.268,-315.0848 488.6245,-321.0619"/>
</g>
<!-- Node14&#45;&gt;Node15 -->
<g id="edge12" class="edge">
<title>Node14&#45;&gt;Node15</title>
<path fill="none" stroke="#191970" d="M520.9,-314.2016C516.4198,-305.5388 512.1099,-296.1265 509,-287 498.7485,-256.9155 493.8341,-220.2327 491.6259,-197.7524"/>
<polygon fill="#191970" stroke="#191970" points="517.9552,-316.115 525.7796,-323.2584 524.1177,-312.7948 517.9552,-316.115"/>
</g>
<!-- Node17 -->
<g id="node13" class="node">
<title>Node17</title>
<g id="a_node13"><a xlink:href="stringbuffer_8h.html" target="_top" xlink:title="/mnt/hdd/fnky/C0de\l/CAPSTONE/clean_build\l/include/rapidjson/stringbuffer.h">
<polygon fill="none" stroke="#000000" points="518,-240 518,-281 670,-281 670,-240 518,-240"/>
<text text-anchor="start" x="526" y="-269" font-family="Helvetica,sans-Serif" font-size="10.00" fill="#000000">/mnt/hdd/fnky/C0de</text>
<text text-anchor="start" x="526" y="-258" font-family="Helvetica,sans-Serif" font-size="10.00" fill="#000000">/CAPSTONE/clean_build</text>
<text text-anchor="middle" x="594" y="-247" font-family="Helvetica,sans-Serif" font-size="10.00" fill="#000000">/include/rapidjson/stringbuffer.h</text>
</a>
</g>
</g>
<!-- Node14&#45;&gt;Node17 -->
<g id="edge15" class="edge">
<title>Node14&#45;&gt;Node17</title>
<path fill="none" stroke="#191970" d="M562.4629,-314.477C569.0509,-303.2014 576.1363,-291.0745 581.919,-281.1771"/>
<polygon fill="#191970" stroke="#191970" points="559.3433,-312.8785 557.3205,-323.2784 565.3873,-316.4098 559.3433,-312.8785"/>
</g>
<!-- Node14&#45;&gt;Node18 -->
<g id="edge18" class="edge">
<title>Node14&#45;&gt;Node18</title>
<path fill="none" stroke="#191970" d="M615.794,-338.3724C680.9377,-327.7626 778.156,-310.0033 861,-287 864.1179,-286.1342 867.2928,-285.1979 870.4866,-284.2118"/>
<polygon fill="#191970" stroke="#191970" points="614.9362,-334.9655 605.6214,-340.0136 616.0512,-341.8761 614.9362,-334.9655"/>
</g>
<!-- Node19 -->
<g id="node15" class="node">
<title>Node19</title>
<g id="a_node15"><a xlink:href="memorybuffer_8h.html" target="_top" xlink:title="/mnt/hdd/fnky/C0de\l/CAPSTONE/clean_build\l/include/rapidjson/memorybuffer.h">
<polygon fill="none" stroke="#000000" points="688,-240 688,-281 852,-281 852,-240 688,-240"/>
<text text-anchor="start" x="696" y="-269" font-family="Helvetica,sans-Serif" font-size="10.00" fill="#000000">/mnt/hdd/fnky/C0de</text>
<text text-anchor="start" x="696" y="-258" font-family="Helvetica,sans-Serif" font-size="10.00" fill="#000000">/CAPSTONE/clean_build</text>
<text text-anchor="middle" x="770" y="-247" font-family="Helvetica,sans-Serif" font-size="10.00" fill="#000000">/include/rapidjson/memorybuffer.h</text>
</a>
</g>
</g>
<!-- Node14&#45;&gt;Node19 -->
<g id="edge20" class="edge">
<title>Node14&#45;&gt;Node19</title>
<path fill="none" stroke="#191970" d="M615.1748,-320.9362C648.378,-307.9753 686.9048,-292.9363 717.22,-281.1027"/>
<polygon fill="#191970" stroke="#191970" points="613.5534,-317.8118 605.5107,-324.7085 616.0989,-324.3326 613.5534,-317.8118"/>
</g>
<!-- Node15&#45;&gt;Node9 -->
<g id="edge13" class="edge">
<title>Node15&#45;&gt;Node9</title>
<path fill="none" stroke="#191970" d="M415.6721,-160.4987C408.6862,-158.9692 401.7111,-157.4501 395,-156 338.2217,-143.7315 274.6589,-130.2979 223.4754,-119.5549"/>
<polygon fill="#191970" stroke="#191970" points="415.3678,-164.0152 425.8857,-162.7404 416.8685,-157.1779 415.3678,-164.0152"/>
</g>
<!-- Node16 -->
<g id="node12" class="node">
<title>Node16</title>
<g id="a_node12"><a xlink:href="prettywriter_8h.html" target="_top" xlink:title="/mnt/hdd/fnky/C0de\l/CAPSTONE/clean_build\l/include/rapidjson/prettywriter.h">
<polygon fill="none" stroke="#000000" points="436,-78.5 436,-119.5 588,-119.5 588,-78.5 436,-78.5"/>
<text text-anchor="start" x="444" y="-107.5" font-family="Helvetica,sans-Serif" font-size="10.00" fill="#000000">/mnt/hdd/fnky/C0de</text>
<text text-anchor="start" x="444" y="-96.5" font-family="Helvetica,sans-Serif" font-size="10.00" fill="#000000">/CAPSTONE/clean_build</text>
<text text-anchor="middle" x="512" y="-85.5" font-family="Helvetica,sans-Serif" font-size="10.00" fill="#000000">/include/rapidjson/prettywriter.h</text>
</a>
</g>
</g>
<!-- Node15&#45;&gt;Node16 -->
<g id="edge14" class="edge">
<title>Node15&#45;&gt;Node16</title>
<path fill="none" stroke="#191970" d="M498.6399,-146.3676C501.1627,-137.4232 503.8593,-127.8626 506.1644,-119.6898"/>
<polygon fill="#191970" stroke="#191970" points="495.2417,-145.5228 495.8956,-156.0974 501.9788,-147.4231 495.2417,-145.5228"/>
</g>
<!-- Node17&#45;&gt;Node13 -->
<g id="edge17" class="edge">
<title>Node17&#45;&gt;Node13</title>
<path fill="none" stroke="#191970" d="M602.5714,-229.8646C611.3979,-192.0622 620.8148,-126.8097 597,-78 589.6671,-62.9709 576.2444,-50.7457 562.89,-41.5266"/>
<polygon fill="#191970" stroke="#191970" points="599.1268,-229.2148 600.1256,-239.7625 605.9224,-230.8941 599.1268,-229.2148"/>
</g>
<!-- Node17&#45;&gt;Node15 -->
<g id="edge16" class="edge">
<title>Node17&#45;&gt;Node15</title>
<path fill="none" stroke="#191970" d="M560.0929,-233.2765C545.684,-221.7079 529.1579,-208.4393 515.7726,-197.6924"/>
<polygon fill="#191970" stroke="#191970" points="558.3032,-236.3281 568.2921,-239.8595 562.6856,-230.8697 558.3032,-236.3281"/>
</g>
<!-- Node18&#45;&gt;Node13 -->
<g id="edge19" class="edge">
<title>Node18&#45;&gt;Node13</title>
<path fill="none" stroke="#191970" d="M880.6021,-229.3078C795.403,-179.539 631.0067,-83.5075 559.1059,-41.507"/>
<polygon fill="#191970" stroke="#191970" points="878.9422,-232.3915 889.3423,-234.4134 882.473,-226.3472 878.9422,-232.3915"/>
</g>
</g>
</svg>
