<?xml version="1.0" encoding="UTF-8" standalone="no"?>
<!DOCTYPE svg PUBLIC "-//W3C//DTD SVG 1.1//EN"
 "http://www.w3.org/Graphics/SVG/1.1/DTD/svg11.dtd">
<!-- Generated by graphviz version 2.40.1 (20161225.0304)
 -->
<!-- Title: /mnt/hdd/fnky/C0de/CAPSTONE/clean_build/include/Actors/NPC_Actor.h Pages: 1 -->
<!--zoomable 285 -->
<svg id="main" version="1.1" xmlns="http://www.w3.org/2000/svg" xmlns:xlink="http://www.w3.org/1999/xlink" xml:space="preserve" onload="init(evt)">
<style type="text/css"><![CDATA[
.edge:hover path { stroke: red; }
.edge:hover polygon { stroke: red; fill: red; }
]]></style>
<script type="text/javascript"><![CDATA[
var edges = document.getElementsByTagName('g');
if (edges && edges.length) {
  for (var i=0;i<edges.length;i++) {
    if (edges[i].id.substr(0,4)=='edge') {
      edges[i].setAttribute('class','edge');
    }
  }
}
]]></script>
        <defs>
                <circle id="rim" cx="0" cy="0" r="7"/>
                <circle id="rim2" cx="0" cy="0" r="3.5"/>
                <g id="zoomPlus">
                        <use xlink:href="#rim" fill="#404040">
                                <set attributeName="fill" to="#808080" begin="zoomplus.mouseover" end="zoomplus.mouseout"/>
                        </use>
                        <path d="M-4,0h8M0,-4v8" fill="none" stroke="white" stroke-width="1.5" pointer-events="none"/>
                </g>
                <g id="zoomMin">
                        <use xlink:href="#rim" fill="#404040">
                                <set attributeName="fill" to="#808080" begin="zoomminus.mouseover" end="zoomminus.mouseout"/>
                        </use>
                        <path d="M-4,0h8" fill="none" stroke="white" stroke-width="1.5" pointer-events="none"/>
                </g>
                <g id="dirArrow">
                        <path fill="none" stroke="white" stroke-width="1.5" d="M0,-3.0v7 M-2.5,-0.5L0,-3.0L2.5,-0.5"/>
                </g>
               <g id="resetDef">
                       <use xlink:href="#rim2" fill="#404040">
                               <set attributeName="fill" to="#808080" begin="reset.mouseover" end="reset.mouseout"/>
                       </use>
               </g>
        </defs>

<script type="text/javascript">
var viewWidth = 1089;
var viewHeight = 285;
var sectionId = 'dynsection-0';
</script>
<script xlink:href="svgpan.js"/>
<svg id="graph" class="graph">
<g id="viewport">
<title>/mnt/hdd/fnky/C0de/CAPSTONE/clean_build/include/Actors/NPC_Actor.h</title>
<!-- Node0 -->
<g id="node1" class="node">
<title>Node0</title>
<polygon fill="#bfbfbf" stroke="#000000" points="568.0661,-235.5 568.0661,-276.5 711.0661,-276.5 711.0661,-235.5 568.0661,-235.5"/>
<text text-anchor="start" x="576.0661" y="-264.5" font-family="Helvetica,sans-Serif" font-size="10.00" fill="#000000">/mnt/hdd/fnky/C0de</text>
<text text-anchor="start" x="576.0661" y="-253.5" font-family="Helvetica,sans-Serif" font-size="10.00" fill="#000000">/CAPSTONE/clean_build</text>
<text text-anchor="middle" x="639.5661" y="-242.5" font-family="Helvetica,sans-Serif" font-size="10.00" fill="#000000">/include/Actors/NPC_Actor.h</text>
</g>
<!-- Node1 -->
<g id="node2" class="node">
<title>Node1</title>
<g id="a_node2"><a xlink:href="Components_2Component_8h.html" target="_top" xlink:title="../Components/Component.h">
<polygon fill="none" stroke="#000000" points="15.0661,-118 15.0661,-137 158.0661,-137 158.0661,-118 15.0661,-118"/>
<text text-anchor="middle" x="86.5661" y="-125" font-family="Helvetica,sans-Serif" font-size="10.00" fill="#000000">../Components/Component.h</text>
</a>
</g>
</g>
<!-- Node0&#45;&gt;Node1 -->
<g id="edge1" class="edge">
<title>Node0&#45;&gt;Node1</title>
<path fill="none" stroke="#191970" d="M567.8606,-251.7932C456.422,-244.4765 247.3217,-227.4106 178.5661,-199 148.5219,-186.5854 119.9439,-161.5815 102.8307,-144.6863"/>
<polygon fill="#191970" stroke="#191970" points="104.9047,-141.8041 95.3945,-137.1344 99.9169,-146.7155 104.9047,-141.8041"/>
</g>
<!-- Node2 -->
<g id="node3" class="node">
<title>Node2</title>
<polygon fill="none" stroke="#bfbfbf" points="60.5661,-56.5 60.5661,-75.5 112.5661,-75.5 112.5661,-56.5 60.5661,-56.5"/>
<text text-anchor="middle" x="86.5661" y="-63.5" font-family="Helvetica,sans-Serif" font-size="10.00" fill="#000000">memory</text>
</g>
<!-- Node0&#45;&gt;Node2 -->
<g id="edge10" class="edge">
<title>Node0&#45;&gt;Node2</title>
<path fill="none" stroke="#191970" d="M567.9304,-253.998C470.1545,-249.8718 290.0886,-237.2856 141.5661,-199 78.2672,-182.683 41.9395,-197.3136 5.5661,-143 -2.1004,-131.5522 -1.3652,-123.9073 5.5661,-112 15.3595,-95.1758 33.8521,-84.0029 50.6977,-76.8865"/>
<polygon fill="#191970" stroke="#191970" points="52.284,-80.0257 60.3475,-73.1532 49.7583,-73.4972 52.284,-80.0257"/>
</g>
<!-- Node3 -->
<g id="node4" class="node">
<title>Node3</title>
<g id="a_node4"><a xlink:href="Actor_8h.html" target="_top" xlink:title="Actor.h">
<polygon fill="none" stroke="#000000" points="187.5661,-179.5 187.5661,-198.5 235.5661,-198.5 235.5661,-179.5 187.5661,-179.5"/>
<text text-anchor="middle" x="211.5661" y="-186.5" font-family="Helvetica,sans-Serif" font-size="10.00" fill="#000000">Actor.h</text>
</a>
</g>
</g>
<!-- Node0&#45;&gt;Node3 -->
<g id="edge3" class="edge">
<title>Node0&#45;&gt;Node3</title>
<path fill="none" stroke="#191970" d="M567.9285,-244.7857C474.6718,-230.1871 315.4035,-205.2549 245.8063,-194.36"/>
<polygon fill="#191970" stroke="#191970" points="246.2391,-190.8852 235.8181,-192.7965 245.1564,-197.801 246.2391,-190.8852"/>
</g>
<!-- Node6 -->
<g id="node7" class="node">
<title>Node6</title>
<polygon fill="none" stroke="#bfbfbf" points="725.0661,-179.5 725.0661,-198.5 818.0661,-198.5 818.0661,-179.5 725.0661,-179.5"/>
<text text-anchor="middle" x="771.5661" y="-186.5" font-family="Helvetica,sans-Serif" font-size="10.00" fill="#000000">box2d/b2_world.h</text>
</g>
<!-- Node0&#45;&gt;Node6 -->
<g id="edge7" class="edge">
<title>Node0&#45;&gt;Node6</title>
<path fill="none" stroke="#191970" d="M680.2475,-235.3511C700.7608,-224.9391 725.1201,-212.5748 743.5189,-203.2361"/>
<polygon fill="#191970" stroke="#191970" points="745.2121,-206.3018 752.545,-198.6546 742.0437,-200.0598 745.2121,-206.3018"/>
</g>
<!-- Node7 -->
<g id="node8" class="node">
<title>Node7</title>
<polygon fill="none" stroke="#bfbfbf" points="836.5661,-179.5 836.5661,-198.5 906.5661,-198.5 906.5661,-179.5 836.5661,-179.5"/>
<text text-anchor="middle" x="871.5661" y="-186.5" font-family="Helvetica,sans-Serif" font-size="10.00" fill="#000000">glm/fwd.hpp</text>
</g>
<!-- Node0&#45;&gt;Node7 -->
<g id="edge8" class="edge">
<title>Node0&#45;&gt;Node7</title>
<path fill="none" stroke="#191970" d="M710.7504,-235.4425C749.3778,-224.2871 795.8399,-210.8692 828.8691,-201.3306"/>
<polygon fill="#191970" stroke="#191970" points="830.0285,-204.6389 838.6647,-198.5017 828.0862,-197.9137 830.0285,-204.6389"/>
</g>
<!-- Node8 -->
<g id="node9" class="node">
<title>Node8</title>
<polygon fill="none" stroke="#bfbfbf" points="924.5661,-179.5 924.5661,-198.5 994.5661,-198.5 994.5661,-179.5 924.5661,-179.5"/>
<text text-anchor="middle" x="959.5661" y="-186.5" font-family="Helvetica,sans-Serif" font-size="10.00" fill="#000000">glm/glm.hpp</text>
</g>
<!-- Node0&#45;&gt;Node8 -->
<g id="edge9" class="edge">
<title>Node0&#45;&gt;Node8</title>
<path fill="none" stroke="#191970" d="M711.1307,-241.6252C764.4995,-230.8117 839.458,-215.4274 914.4205,-199.2196"/>
<polygon fill="#191970" stroke="#191970" points="915.4837,-202.5705 924.5155,-197.0318 914.0011,-195.7293 915.4837,-202.5705"/>
</g>
<!-- Node9 -->
<g id="node10" class="node">
<title>Node9</title>
<polygon fill="none" stroke="#bfbfbf" points="1012.5661,-179.5 1012.5661,-198.5 1080.5661,-198.5 1080.5661,-179.5 1012.5661,-179.5"/>
<text text-anchor="middle" x="1046.5661" y="-186.5" font-family="Helvetica,sans-Serif" font-size="10.00" fill="#000000">sys/types.h</text>
</g>
<!-- Node0&#45;&gt;Node9 -->
<g id="edge11" class="edge">
<title>Node0&#45;&gt;Node9</title>
<path fill="none" stroke="#191970" d="M711.3213,-246.3445C782.7039,-236.3802 895.5449,-219.6627 1002.362,-199.1299"/>
<polygon fill="#191970" stroke="#191970" points="1003.195,-202.5337 1012.3469,-197.1959 1001.8638,-195.6615 1003.195,-202.5337"/>
</g>
<!-- Node10 -->
<g id="node11" class="node">
<title>Node10</title>
<g id="a_node11"><a xlink:href="BState_8h.html" target="_top" xlink:title="../BStateMachine/BState.h">
<polygon fill="none" stroke="#000000" points="276.5661,-118 276.5661,-137 410.5661,-137 410.5661,-118 276.5661,-118"/>
<text text-anchor="middle" x="343.5661" y="-125" font-family="Helvetica,sans-Serif" font-size="10.00" fill="#000000">../BStateMachine/BState.h</text>
</a>
</g>
</g>
<!-- Node0&#45;&gt;Node10 -->
<g id="edge12" class="edge">
<title>Node0&#45;&gt;Node10</title>
<path fill="none" stroke="#191970" d="M567.8286,-248.1175C521.4129,-240.6318 461.019,-226.2662 413.5661,-199 389.9277,-185.4175 368.9647,-161.6174 356.2805,-145.2318"/>
<polygon fill="#191970" stroke="#191970" points="358.9157,-142.9115 350.1211,-137.0034 353.3118,-147.1064 358.9157,-142.9115"/>
</g>
<!-- Node12 -->
<g id="node13" class="node">
<title>Node12</title>
<g id="a_node13"><a xlink:href="BStateMachine_8h.html" target="_top" xlink:title="../BStateMachine/BStateMachine.h">
<polygon fill="none" stroke="#000000" points="422.5661,-179.5 422.5661,-198.5 592.5661,-198.5 592.5661,-179.5 422.5661,-179.5"/>
<text text-anchor="middle" x="507.5661" y="-186.5" font-family="Helvetica,sans-Serif" font-size="10.00" fill="#000000">../BStateMachine/BStateMachine.h</text>
</a>
</g>
</g>
<!-- Node0&#45;&gt;Node12 -->
<g id="edge15" class="edge">
<title>Node0&#45;&gt;Node12</title>
<path fill="none" stroke="#191970" d="M598.8846,-235.3511C578.3714,-224.9391 554.012,-212.5748 535.6133,-203.2361"/>
<polygon fill="#191970" stroke="#191970" points="537.0884,-200.0598 526.5872,-198.6546 533.9201,-206.3018 537.0884,-200.0598"/>
</g>
<!-- Node14 -->
<g id="node15" class="node">
<title>Node14</title>
<g id="a_node15"><a xlink:href="Condition_8h.html" target="_top" xlink:title="Condition.h">
<polygon fill="none" stroke="#000000" points="571.5661,-56.5 571.5661,-75.5 637.5661,-75.5 637.5661,-56.5 571.5661,-56.5"/>
<text text-anchor="middle" x="604.5661" y="-63.5" font-family="Helvetica,sans-Serif" font-size="10.00" fill="#000000">Condition.h</text>
</a>
</g>
</g>
<!-- Node0&#45;&gt;Node14 -->
<g id="edge22" class="edge">
<title>Node0&#45;&gt;Node14</title>
<path fill="none" stroke="#191970" d="M655.589,-235.4099C669.9276,-218.2151 692.3692,-194.1473 716.5661,-179 758.0256,-153.0462 792.1946,-182.8441 820.5661,-143 828.5577,-131.7768 829.2346,-122.709 820.5661,-112 799.2759,-85.6984 704.6546,-73.7978 647.9485,-68.9433"/>
<polygon fill="#191970" stroke="#191970" points="648.0794,-65.4424 637.8277,-68.1169 647.5097,-72.4192 648.0794,-65.4424"/>
</g>
<!-- Node15 -->
<g id="node16" class="node">
<title>Node15</title>
<g id="a_node16"><a xlink:href="ConditionInRange_8h.html" target="_top" xlink:title="ConditionInRange.h">
<polygon fill="none" stroke="#000000" points="553.0661,-118 553.0661,-137 656.0661,-137 656.0661,-118 553.0661,-118"/>
<text text-anchor="middle" x="604.5661" y="-125" font-family="Helvetica,sans-Serif" font-size="10.00" fill="#000000">ConditionInRange.h</text>
</a>
</g>
</g>
<!-- Node0&#45;&gt;Node15 -->
<g id="edge23" class="edge">
<title>Node0&#45;&gt;Node15</title>
<path fill="none" stroke="#191970" d="M633.9427,-235.3543C627.3069,-210.9912 616.3572,-170.7903 609.8656,-146.9568"/>
<polygon fill="#191970" stroke="#191970" points="613.2332,-146.0025 607.2282,-137.2738 606.4793,-147.8421 613.2332,-146.0025"/>
</g>
<!-- Node16 -->
<g id="node17" class="node">
<title>Node16</title>
<g id="a_node17"><a xlink:href="ConditionOutOfRange_8h.html" target="_top" xlink:title="../BStateMachine/Condition\lOutOfRange.h">
<polygon fill="none" stroke="#000000" points="674.0661,-112.5 674.0661,-142.5 811.0661,-142.5 811.0661,-112.5 674.0661,-112.5"/>
<text text-anchor="start" x="682.0661" y="-130.5" font-family="Helvetica,sans-Serif" font-size="10.00" fill="#000000">../BStateMachine/Condition</text>
<text text-anchor="middle" x="742.5661" y="-119.5" font-family="Helvetica,sans-Serif" font-size="10.00" fill="#000000">OutOfRange.h</text>
</a>
</g>
</g>
<!-- Node0&#45;&gt;Node16 -->
<g id="edge24" class="edge">
<title>Node0&#45;&gt;Node16</title>
<path fill="none" stroke="#191970" d="M648.5657,-235.4861C656.2558,-219.2272 668.3193,-196.4247 682.5661,-179 691.4794,-168.0985 702.8831,-157.6647 713.3503,-149.074"/>
<polygon fill="#191970" stroke="#191970" points="715.8329,-151.5714 721.4785,-142.606 711.4743,-146.0939 715.8329,-151.5714"/>
</g>
<!-- Node1&#45;&gt;Node2 -->
<g id="edge2" class="edge">
<title>Node1&#45;&gt;Node2</title>
<path fill="none" stroke="#191970" d="M86.5661,-117.8906C86.5661,-109.3657 86.5661,-96.6392 86.5661,-85.9235"/>
<polygon fill="#191970" stroke="#191970" points="90.0662,-85.7448 86.5661,-75.7449 83.0662,-85.7449 90.0662,-85.7448"/>
</g>
<!-- Node3&#45;&gt;Node1 -->
<g id="edge6" class="edge">
<title>Node3&#45;&gt;Node1</title>
<path fill="none" stroke="#191970" d="M192.0348,-179.3906C171.3952,-169.2359 138.6385,-153.1196 115.1059,-141.5416"/>
<polygon fill="#191970" stroke="#191970" points="116.4781,-138.3161 105.9602,-137.0419 113.3879,-144.5971 116.4781,-138.3161"/>
</g>
<!-- Node4 -->
<g id="node5" class="node">
<title>Node4</title>
<polygon fill="none" stroke="#bfbfbf" points="214.5661,-118 214.5661,-137 258.5661,-137 258.5661,-118 214.5661,-118"/>
<text text-anchor="middle" x="236.5661" y="-125" font-family="Helvetica,sans-Serif" font-size="10.00" fill="#000000">vector</text>
</g>
<!-- Node3&#45;&gt;Node4 -->
<g id="edge4" class="edge">
<title>Node3&#45;&gt;Node4</title>
<path fill="none" stroke="#191970" d="M215.4723,-179.3906C219.0107,-170.6862 224.3297,-157.6015 228.7411,-146.7494"/>
<polygon fill="#191970" stroke="#191970" points="232.0812,-147.8268 232.6048,-137.2449 225.5966,-145.1907 232.0812,-147.8268"/>
</g>
<!-- Node5 -->
<g id="node6" class="node">
<title>Node5</title>
<polygon fill="none" stroke="#bfbfbf" points="368.5661,-.5 368.5661,-19.5 422.5661,-19.5 422.5661,-.5 368.5661,-.5"/>
<text text-anchor="middle" x="395.5661" y="-7.5" font-family="Helvetica,sans-Serif" font-size="10.00" fill="#000000">iostream</text>
</g>
<!-- Node3&#45;&gt;Node5 -->
<g id="edge5" class="edge">
<title>Node3&#45;&gt;Node5</title>
<path fill="none" stroke="#191970" d="M207.4038,-179.1781C201.5418,-163.6882 192.9014,-133.1732 205.5661,-112 238.7094,-56.5899 313.4235,-29.5455 358.6582,-17.7952"/>
<polygon fill="#191970" stroke="#191970" points="359.5198,-21.1877 368.3849,-15.386 357.8367,-14.393 359.5198,-21.1877"/>
</g>
<!-- Node10&#45;&gt;Node2 -->
<g id="edge14" class="edge">
<title>Node10&#45;&gt;Node2</title>
<path fill="none" stroke="#191970" d="M303.6918,-117.9581C254.1723,-106.1081 170.4164,-86.0654 122.6992,-74.6466"/>
<polygon fill="#191970" stroke="#191970" points="123.3453,-71.2025 112.8053,-72.279 121.7161,-78.0103 123.3453,-71.2025"/>
</g>
<!-- Node11 -->
<g id="node12" class="node">
<title>Node11</title>
<polygon fill="none" stroke="#bfbfbf" points="329.0661,-56.5 329.0661,-75.5 358.0661,-75.5 358.0661,-56.5 329.0661,-56.5"/>
<text text-anchor="middle" x="343.5661" y="-63.5" font-family="Helvetica,sans-Serif" font-size="10.00" fill="#000000">list</text>
</g>
<!-- Node10&#45;&gt;Node11 -->
<g id="edge13" class="edge">
<title>Node10&#45;&gt;Node11</title>
<path fill="none" stroke="#191970" d="M343.5661,-117.8906C343.5661,-109.3657 343.5661,-96.6392 343.5661,-85.9235"/>
<polygon fill="#191970" stroke="#191970" points="347.0662,-85.7448 343.5661,-75.7449 340.0662,-85.7449 347.0662,-85.7448"/>
</g>
<!-- Node12&#45;&gt;Node10 -->
<g id="edge16" class="edge">
<title>Node12&#45;&gt;Node10</title>
<path fill="none" stroke="#191970" d="M481.9411,-179.3906C454.1398,-168.9652 409.5817,-152.2559 378.5667,-140.6252"/>
<polygon fill="#191970" stroke="#191970" points="379.6034,-137.276 369.0111,-137.0419 377.1455,-143.8303 379.6034,-137.276"/>
</g>
<!-- Node13 -->
<g id="node14" class="node">
<title>Node13</title>
<g id="a_node14"><a xlink:href="Transition_8h.html" target="_top" xlink:title="Transition.h">
<polygon fill="none" stroke="#000000" points="428.5661,-118 428.5661,-137 496.5661,-137 496.5661,-118 428.5661,-118"/>
<text text-anchor="middle" x="462.5661" y="-125" font-family="Helvetica,sans-Serif" font-size="10.00" fill="#000000">Transition.h</text>
</a>
</g>
</g>
<!-- Node12&#45;&gt;Node13 -->
<g id="edge17" class="edge">
<title>Node12&#45;&gt;Node13</title>
<path fill="none" stroke="#191970" d="M500.5348,-179.3906C493.9031,-170.3273 483.7965,-156.5149 475.6774,-145.4188"/>
<polygon fill="#191970" stroke="#191970" points="478.4262,-143.2484 469.6965,-137.2449 472.777,-147.382 478.4262,-143.2484"/>
</g>
<!-- Node12&#45;&gt;Node14 -->
<g id="edge18" class="edge">
<title>Node12&#45;&gt;Node14</title>
<path fill="none" stroke="#191970" d="M510.6163,-179.1797C515.7718,-163.6919 527.3572,-133.1797 544.5661,-112 554.3279,-99.9857 567.8296,-89.2783 579.5535,-81.2235"/>
<polygon fill="#191970" stroke="#191970" points="581.6573,-84.0287 588.0809,-75.6032 577.8051,-78.184 581.6573,-84.0287"/>
</g>
<!-- Node12&#45;&gt;Node15 -->
<g id="edge20" class="edge">
<title>Node12&#45;&gt;Node15</title>
<path fill="none" stroke="#191970" d="M522.7223,-179.3906C538.2404,-169.5519 562.5853,-154.1167 580.6945,-142.6351"/>
<polygon fill="#191970" stroke="#191970" points="582.9448,-145.3526 589.5163,-137.0419 579.1965,-139.4407 582.9448,-145.3526"/>
</g>
<!-- Node14&#45;&gt;Node5 -->
<g id="edge19" class="edge">
<title>Node14&#45;&gt;Node5</title>
<path fill="none" stroke="#191970" d="M571.4494,-57.1266C533.6484,-46.9981 471.9767,-30.4737 432.6096,-19.9255"/>
<polygon fill="#191970" stroke="#191970" points="433.4317,-16.5224 422.8665,-17.315 431.62,-23.2839 433.4317,-16.5224"/>
</g>
<!-- Node15&#45;&gt;Node14 -->
<g id="edge21" class="edge">
<title>Node15&#45;&gt;Node14</title>
<path fill="none" stroke="#191970" d="M604.5661,-117.8906C604.5661,-109.3657 604.5661,-96.6392 604.5661,-85.9235"/>
<polygon fill="#191970" stroke="#191970" points="608.0662,-85.7448 604.5661,-75.7449 601.0662,-85.7449 608.0662,-85.7448"/>
</g>
<!-- Node16&#45;&gt;Node14 -->
<g id="edge25" class="edge">
<title>Node16&#45;&gt;Node14</title>
<path fill="none" stroke="#191970" d="M708.8075,-112.4554C686.2868,-102.419 656.9194,-89.3314 635.0969,-79.6061"/>
<polygon fill="#191970" stroke="#191970" points="636.5099,-76.4041 625.9512,-75.5303 633.6605,-82.7979 636.5099,-76.4041"/>
</g>
</g>
</svg>
        <g id="navigator" transform="translate(0 0)" fill="#404254">
                <rect fill="#f2f5e9" fill-opacity="0.5" stroke="#606060" stroke-width=".5" x="0" y="0" width="60" height="60"/>
                <use id="zoomplus" xlink:href="#zoomPlus" x="17" y="9" onmousedown="handleZoom(evt,'in')"/>
                <use id="zoomminus" xlink:href="#zoomMin" x="42" y="9" onmousedown="handleZoom(evt,'out')"/>
                <use id="reset" xlink:href="#resetDef" x="30" y="36" onmousedown="handleReset()"/>
                <g id="arrowUp" xlink:href="#dirArrow" transform="translate(30 24)" onmousedown="handlePan(0,-1)">
                  <use xlink:href="#rim" fill="#404040">
                        <set attributeName="fill" to="#808080" begin="arrowUp.mouseover" end="arrowUp.mouseout"/>
                  </use>
                  <path fill="none" stroke="white" stroke-width="1.5" d="M0,-3.0v7 M-2.5,-0.5L0,-3.0L2.5,-0.5"/>
                </g>
                <g id="arrowRight" xlink:href="#dirArrow" transform="rotate(90) translate(36 -43)" onmousedown="handlePan(1,0)">
                  <use xlink:href="#rim" fill="#404040">
                        <set attributeName="fill" to="#808080" begin="arrowRight.mouseover" end="arrowRight.mouseout"/>
                  </use>
                  <path fill="none" stroke="white" stroke-width="1.5" d="M0,-3.0v7 M-2.5,-0.5L0,-3.0L2.5,-0.5"/>
                </g>
                <g id="arrowDown" xlink:href="#dirArrow" transform="rotate(180) translate(-30 -48)" onmousedown="handlePan(0,1)">
                  <use xlink:href="#rim" fill="#404040">
                        <set attributeName="fill" to="#808080" begin="arrowDown.mouseover" end="arrowDown.mouseout"/>
                  </use>
                  <path fill="none" stroke="white" stroke-width="1.5" d="M0,-3.0v7 M-2.5,-0.5L0,-3.0L2.5,-0.5"/>
                </g>
                <g id="arrowLeft" xlink:href="#dirArrow" transform="rotate(270) translate(-36 17)" onmousedown="handlePan(-1,0)">
                  <use xlink:href="#rim" fill="#404040">
                        <set attributeName="fill" to="#808080" begin="arrowLeft.mouseover" end="arrowLeft.mouseout"/>
                  </use>
                  <path fill="none" stroke="white" stroke-width="1.5" d="M0,-3.0v7 M-2.5,-0.5L0,-3.0L2.5,-0.5"/>
                </g>
        </g>
        <svg viewBox="0 0 15 15" width="100%" height="30px" preserveAspectRatio="xMaxYMin meet">
         <g id="arrow_out" transform="scale(0.3 0.3)">
          <a xlink:href="NPC__Actor_8h__incl_org.svg" target="_base">
           <rect id="button" ry="5" rx="5" y="6" x="6" height="38" width="38"
                fill="#f2f5e9" fill-opacity="0.5" stroke="#606060" stroke-width="1.0"/>
           <path id="arrow"
             d="M 11.500037,31.436501 C 11.940474,20.09759 22.043105,11.32322 32.158766,21.979434 L 37.068811,17.246167 C 37.068811,17.246167 37.088388,32 37.088388,32 L 22.160133,31.978069 C 22.160133,31.978069 26.997745,27.140456 26.997745,27.140456 C 18.528582,18.264221 13.291696,25.230495 11.500037,31.436501 z"
             style="fill:#404040;"/>
          </a>
         </g>
        </svg>
</svg>
