<?xml version="1.0" encoding="UTF-8" standalone="no"?>
<!DOCTYPE svg PUBLIC "-//W3C//DTD SVG 1.1//EN"
 "http://www.w3.org/Graphics/SVG/1.1/DTD/svg11.dtd">
<!-- Generated by graphviz version 2.40.1 (20161225.0304)
 -->
<!-- Title: /mnt/hdd/fnky/C0de/CAPSTONE/clean_build/include/Camera/Orthographic_camera.h Pages: 1 -->
<svg width="1513pt" height="406pt"
 viewBox="0.00 0.00 1513.00 406.00" xmlns="http://www.w3.org/2000/svg" xmlns:xlink="http://www.w3.org/1999/xlink">
<g id="graph0" class="graph" transform="scale(1 1) rotate(0) translate(4 402)">
<title>/mnt/hdd/fnky/C0de/CAPSTONE/clean_build/include/Camera/Orthographic_camera.h</title>
<!-- Node3 -->
<g id="node1" class="node">
<title>Node3</title>
<polygon fill="#bfbfbf" stroke="#000000" points="759.5,-345.5 759.5,-397.5 905.5,-397.5 905.5,-345.5 759.5,-345.5"/>
<text text-anchor="start" x="767.5" y="-385.5" font-family="Helvetica,sans-Serif" font-size="10.00" fill="#000000">/mnt/hdd/fnky/C0de</text>
<text text-anchor="start" x="767.5" y="-374.5" font-family="Helvetica,sans-Serif" font-size="10.00" fill="#000000">/CAPSTONE/clean_build</text>
<text text-anchor="start" x="767.5" y="-363.5" font-family="Helvetica,sans-Serif" font-size="10.00" fill="#000000">/include/Camera/Orthographic</text>
<text text-anchor="middle" x="832.5" y="-352.5" font-family="Helvetica,sans-Serif" font-size="10.00" fill="#000000">_camera.h</text>
</g>
<!-- Node4 -->
<g id="node2" class="node">
<title>Node4</title>
<g id="a_node2"><a xlink:href="GameData_8h.html" target="_top" xlink:title="/mnt/hdd/fnky/C0de\l/CAPSTONE/clean_build\l/include/GameData/GameData.h">
<polygon fill="none" stroke="#000000" points="672,-262 672,-303 831,-303 831,-262 672,-262"/>
<text text-anchor="start" x="680" y="-291" font-family="Helvetica,sans-Serif" font-size="10.00" fill="#000000">/mnt/hdd/fnky/C0de</text>
<text text-anchor="start" x="680" y="-280" font-family="Helvetica,sans-Serif" font-size="10.00" fill="#000000">/CAPSTONE/clean_build</text>
<text text-anchor="middle" x="751.5" y="-269" font-family="Helvetica,sans-Serif" font-size="10.00" fill="#000000">/include/GameData/GameData.h</text>
</a>
</g>
</g>
<!-- Node3&#45;&gt;Node4 -->
<g id="edge1" class="edge">
<title>Node3&#45;&gt;Node4</title>
<path fill="none" stroke="#191970" d="M801.8406,-337.8125C791.2404,-326.1654 779.683,-313.4665 770.3185,-303.1771"/>
<polygon fill="#191970" stroke="#191970" points="799.3161,-340.2386 808.6354,-345.2784 804.493,-335.527 799.3161,-340.2386"/>
</g>
<!-- Node22 -->
<g id="node20" class="node">
<title>Node22</title>
<g id="a_node20"><a xlink:href="Orthographic__camera_8cpp.html" target="_top" xlink:title="/mnt/hdd/fnky/C0de\l/CAPSTONE/clean_build\l/src/Camera/Orthographic\l_camera.cpp">
<polygon fill="none" stroke="#000000" points="849,-256.5 849,-308.5 978,-308.5 978,-256.5 849,-256.5"/>
<text text-anchor="start" x="857" y="-296.5" font-family="Helvetica,sans-Serif" font-size="10.00" fill="#000000">/mnt/hdd/fnky/C0de</text>
<text text-anchor="start" x="857" y="-285.5" font-family="Helvetica,sans-Serif" font-size="10.00" fill="#000000">/CAPSTONE/clean_build</text>
<text text-anchor="start" x="857" y="-274.5" font-family="Helvetica,sans-Serif" font-size="10.00" fill="#000000">/src/Camera/Orthographic</text>
<text text-anchor="middle" x="913.5" y="-263.5" font-family="Helvetica,sans-Serif" font-size="10.00" fill="#000000">_camera.cpp</text>
</a>
</g>
</g>
<!-- Node3&#45;&gt;Node22 -->
<g id="edge30" class="edge">
<title>Node3&#45;&gt;Node22</title>
<path fill="none" stroke="#191970" d="M863.2473,-337.7159C872.047,-328.0472 881.4997,-317.6608 889.806,-308.5341"/>
<polygon fill="#191970" stroke="#191970" points="860.507,-335.527 856.3646,-345.2784 865.6839,-340.2386 860.507,-335.527"/>
</g>
<!-- Node5 -->
<g id="node3" class="node">
<title>Node5</title>
<g id="a_node3"><a xlink:href="NetworkComponent_8h.html" target="_top" xlink:title="/mnt/hdd/fnky/C0de\l/CAPSTONE/clean_build\l/include/Components/NetworkComponent.h">
<polygon fill="none" stroke="#000000" points="0,-173 0,-214 207,-214 207,-173 0,-173"/>
<text text-anchor="start" x="8" y="-202" font-family="Helvetica,sans-Serif" font-size="10.00" fill="#000000">/mnt/hdd/fnky/C0de</text>
<text text-anchor="start" x="8" y="-191" font-family="Helvetica,sans-Serif" font-size="10.00" fill="#000000">/CAPSTONE/clean_build</text>
<text text-anchor="middle" x="103.5" y="-180" font-family="Helvetica,sans-Serif" font-size="10.00" fill="#000000">/include/Components/NetworkComponent.h</text>
</a>
</g>
</g>
<!-- Node4&#45;&gt;Node5 -->
<g id="edge2" class="edge">
<title>Node4&#45;&gt;Node5</title>
<path fill="none" stroke="#191970" d="M661.6705,-274.7662C555.9248,-265.0025 375.2256,-246.253 221.5,-220 211.3586,-218.2681 200.7764,-216.2283 190.2936,-214.0619"/>
<polygon fill="#191970" stroke="#191970" points="661.3887,-278.255 671.6666,-275.683 662.028,-271.2842 661.3887,-278.255"/>
</g>
<!-- Node8 -->
<g id="node6" class="node">
<title>Node8</title>
<g id="a_node6"><a xlink:href="game__over__state_8h.html" target="_top" xlink:title="/mnt/hdd/fnky/C0de\l/CAPSTONE/clean_build\l/include/States/game_over\l_state.h">
<polygon fill="none" stroke="#000000" points="264,-167.5 264,-219.5 397,-219.5 397,-167.5 264,-167.5"/>
<text text-anchor="start" x="272" y="-207.5" font-family="Helvetica,sans-Serif" font-size="10.00" fill="#000000">/mnt/hdd/fnky/C0de</text>
<text text-anchor="start" x="272" y="-196.5" font-family="Helvetica,sans-Serif" font-size="10.00" fill="#000000">/CAPSTONE/clean_build</text>
<text text-anchor="start" x="272" y="-185.5" font-family="Helvetica,sans-Serif" font-size="10.00" fill="#000000">/include/States/game_over</text>
<text text-anchor="middle" x="330.5" y="-174.5" font-family="Helvetica,sans-Serif" font-size="10.00" fill="#000000">_state.h</text>
</a>
</g>
</g>
<!-- Node4&#45;&gt;Node8 -->
<g id="edge5" class="edge">
<title>Node4&#45;&gt;Node8</title>
<path fill="none" stroke="#191970" d="M661.8766,-269.3983C592.9048,-258.505 495.4908,-241.356 411.5,-220 406.7679,-218.7968 401.9098,-217.4634 397.0369,-216.0535"/>
<polygon fill="#191970" stroke="#191970" points="661.4201,-272.8694 671.8414,-270.9599 662.5039,-265.9538 661.4201,-272.8694"/>
</g>
<!-- Node9 -->
<g id="node7" class="node">
<title>Node9</title>
<g id="a_node7"><a xlink:href="game_8h.html" target="_top" xlink:title="/mnt/hdd/fnky/C0de\l/CAPSTONE/clean_build\l/include/Window/game.h">
<polygon fill="none" stroke="#000000" points="550,-84 550,-125 677,-125 677,-84 550,-84"/>
<text text-anchor="start" x="558" y="-113" font-family="Helvetica,sans-Serif" font-size="10.00" fill="#000000">/mnt/hdd/fnky/C0de</text>
<text text-anchor="start" x="558" y="-102" font-family="Helvetica,sans-Serif" font-size="10.00" fill="#000000">/CAPSTONE/clean_build</text>
<text text-anchor="middle" x="613.5" y="-91" font-family="Helvetica,sans-Serif" font-size="10.00" fill="#000000">/include/Window/game.h</text>
</a>
</g>
</g>
<!-- Node4&#45;&gt;Node9 -->
<g id="edge22" class="edge">
<title>Node4&#45;&gt;Node9</title>
<path fill="none" stroke="#191970" d="M678.2519,-257.3976C660.848,-248.1768 644.0125,-235.9529 632.5,-220 612.2836,-191.9862 610.5385,-150.2451 611.6475,-125.3619"/>
<polygon fill="#191970" stroke="#191970" points="676.8688,-260.6189 687.3797,-261.9496 679.9928,-254.3547 676.8688,-260.6189"/>
</g>
<!-- Node11 -->
<g id="node9" class="node">
<title>Node11</title>
<g id="a_node9"><a xlink:href="game__over__state_8cpp.html" target="_top" xlink:title="/mnt/hdd/fnky/C0de\l/CAPSTONE/clean_build\l/src/States/game_over\l_state.cpp">
<polygon fill="none" stroke="#000000" points="260,-78.5 260,-130.5 387,-130.5 387,-78.5 260,-78.5"/>
<text text-anchor="start" x="268" y="-118.5" font-family="Helvetica,sans-Serif" font-size="10.00" fill="#000000">/mnt/hdd/fnky/C0de</text>
<text text-anchor="start" x="268" y="-107.5" font-family="Helvetica,sans-Serif" font-size="10.00" fill="#000000">/CAPSTONE/clean_build</text>
<text text-anchor="start" x="268" y="-96.5" font-family="Helvetica,sans-Serif" font-size="10.00" fill="#000000">/src/States/game_over</text>
<text text-anchor="middle" x="323.5" y="-85.5" font-family="Helvetica,sans-Serif" font-size="10.00" fill="#000000">_state.cpp</text>
</a>
</g>
</g>
<!-- Node4&#45;&gt;Node11 -->
<g id="edge25" class="edge">
<title>Node4&#45;&gt;Node11</title>
<path fill="none" stroke="#191970" d="M661.9973,-277.5712C526.1896,-269.1665 280.9662,-250.0029 254.5,-220 238.9174,-202.3351 244.9511,-188.5333 254.5,-167 260.79,-152.8158 272.0656,-140.4806 283.7031,-130.6024"/>
<polygon fill="#191970" stroke="#191970" points="661.7873,-281.0648 671.9824,-278.1819 662.2148,-274.0778 661.7873,-281.0648"/>
</g>
<!-- Node12 -->
<g id="node10" class="node">
<title>Node12</title>
<g id="a_node10"><a xlink:href="game__play__state_8h.html" target="_top" xlink:title="/mnt/hdd/fnky/C0de\l/CAPSTONE/clean_build\l/include/States/game_play\l_state.h">
<polygon fill="none" stroke="#000000" points="453.5,-167.5 453.5,-219.5 585.5,-219.5 585.5,-167.5 453.5,-167.5"/>
<text text-anchor="start" x="461.5" y="-207.5" font-family="Helvetica,sans-Serif" font-size="10.00" fill="#000000">/mnt/hdd/fnky/C0de</text>
<text text-anchor="start" x="461.5" y="-196.5" font-family="Helvetica,sans-Serif" font-size="10.00" fill="#000000">/CAPSTONE/clean_build</text>
<text text-anchor="start" x="461.5" y="-185.5" font-family="Helvetica,sans-Serif" font-size="10.00" fill="#000000">/include/States/game_play</text>
<text text-anchor="middle" x="519.5" y="-174.5" font-family="Helvetica,sans-Serif" font-size="10.00" fill="#000000">_state.h</text>
</a>
</g>
</g>
<!-- Node4&#45;&gt;Node12 -->
<g id="edge10" class="edge">
<title>Node4&#45;&gt;Node12</title>
<path fill="none" stroke="#191970" d="M688.328,-258.2659C656.4707,-246.0448 617.8538,-231.2306 585.5975,-218.8564"/>
<polygon fill="#191970" stroke="#191970" points="687.393,-261.6559 697.9832,-261.9699 689.9003,-255.1203 687.393,-261.6559"/>
</g>
<!-- Node13 -->
<g id="node11" class="node">
<title>Node13</title>
<g id="a_node11"><a xlink:href="game__play__state_8cpp.html" target="_top" xlink:title="/mnt/hdd/fnky/C0de\l/CAPSTONE/clean_build\l/src/States/game_play\l_state.cpp">
<polygon fill="none" stroke="#000000" points="405,-78.5 405,-130.5 532,-130.5 532,-78.5 405,-78.5"/>
<text text-anchor="start" x="413" y="-118.5" font-family="Helvetica,sans-Serif" font-size="10.00" fill="#000000">/mnt/hdd/fnky/C0de</text>
<text text-anchor="start" x="413" y="-107.5" font-family="Helvetica,sans-Serif" font-size="10.00" fill="#000000">/CAPSTONE/clean_build</text>
<text text-anchor="start" x="413" y="-96.5" font-family="Helvetica,sans-Serif" font-size="10.00" fill="#000000">/src/States/game_play</text>
<text text-anchor="middle" x="468.5" y="-85.5" font-family="Helvetica,sans-Serif" font-size="10.00" fill="#000000">_state.cpp</text>
</a>
</g>
</g>
<!-- Node4&#45;&gt;Node13 -->
<g id="edge26" class="edge">
<title>Node4&#45;&gt;Node13</title>
<path fill="none" stroke="#191970" d="M661.8134,-276.5626C581.2409,-269.1377 471.56,-253.124 444.5,-220 423.8983,-194.7815 438.1459,-156.3341 451.9008,-130.8188"/>
<polygon fill="#191970" stroke="#191970" points="661.712,-280.0673 671.9832,-277.4688 662.3333,-273.095 661.712,-280.0673"/>
</g>
<!-- Node14 -->
<g id="node12" class="node">
<title>Node14</title>
<g id="a_node12"><a xlink:href="loading__play__state_8h.html" target="_top" xlink:title="/mnt/hdd/fnky/C0de\l/CAPSTONE/clean_build\l/include/States/loading\l_play_state.h">
<polygon fill="none" stroke="#000000" points="642,-167.5 642,-219.5 769,-219.5 769,-167.5 642,-167.5"/>
<text text-anchor="start" x="650" y="-207.5" font-family="Helvetica,sans-Serif" font-size="10.00" fill="#000000">/mnt/hdd/fnky/C0de</text>
<text text-anchor="start" x="650" y="-196.5" font-family="Helvetica,sans-Serif" font-size="10.00" fill="#000000">/CAPSTONE/clean_build</text>
<text text-anchor="start" x="650" y="-185.5" font-family="Helvetica,sans-Serif" font-size="10.00" fill="#000000">/include/States/loading</text>
<text text-anchor="middle" x="705.5" y="-174.5" font-family="Helvetica,sans-Serif" font-size="10.00" fill="#000000">_play_state.h</text>
</a>
</g>
</g>
<!-- Node4&#45;&gt;Node14 -->
<g id="edge13" class="edge">
<title>Node4&#45;&gt;Node14</title>
<path fill="none" stroke="#191970" d="M736.1819,-252.8628C730.6527,-242.165 724.4543,-230.1724 719.0838,-219.7816"/>
<polygon fill="#191970" stroke="#191970" points="733.1302,-254.5814 740.8311,-261.8579 739.3487,-251.3673 733.1302,-254.5814"/>
</g>
<!-- Node15 -->
<g id="node13" class="node">
<title>Node15</title>
<g id="a_node13"><a xlink:href="loading__play__state_8cpp.html" target="_top" xlink:title="/mnt/hdd/fnky/C0de\l/CAPSTONE/clean_build\l/src/States/loading_play\l_state.cpp">
<polygon fill="none" stroke="#000000" points="718,-78.5 718,-130.5 845,-130.5 845,-78.5 718,-78.5"/>
<text text-anchor="start" x="726" y="-118.5" font-family="Helvetica,sans-Serif" font-size="10.00" fill="#000000">/mnt/hdd/fnky/C0de</text>
<text text-anchor="start" x="726" y="-107.5" font-family="Helvetica,sans-Serif" font-size="10.00" fill="#000000">/CAPSTONE/clean_build</text>
<text text-anchor="start" x="726" y="-96.5" font-family="Helvetica,sans-Serif" font-size="10.00" fill="#000000">/src/States/loading_play</text>
<text text-anchor="middle" x="781.5" y="-85.5" font-family="Helvetica,sans-Serif" font-size="10.00" fill="#000000">_state.cpp</text>
</a>
</g>
</g>
<!-- Node4&#45;&gt;Node15 -->
<g id="edge27" class="edge">
<title>Node4&#45;&gt;Node15</title>
<path fill="none" stroke="#191970" d="M766.427,-252.7704C770.8215,-242.6269 775.0933,-231.0515 777.5,-220 784.0747,-189.8089 784.1867,-154.1446 783.2322,-130.5175"/>
<polygon fill="#191970" stroke="#191970" points="763.1867,-251.4411 762.2331,-261.9929 769.5588,-254.3388 763.1867,-251.4411"/>
</g>
<!-- Node16 -->
<g id="node14" class="node">
<title>Node16</title>
<g id="a_node14"><a xlink:href="main__menu__state_8h.html" target="_top" xlink:title="/mnt/hdd/fnky/C0de\l/CAPSTONE/clean_build\l/include/States/main_menu\l_state.h">
<polygon fill="none" stroke="#000000" points="826,-167.5 826,-219.5 961,-219.5 961,-167.5 826,-167.5"/>
<text text-anchor="start" x="834" y="-207.5" font-family="Helvetica,sans-Serif" font-size="10.00" fill="#000000">/mnt/hdd/fnky/C0de</text>
<text text-anchor="start" x="834" y="-196.5" font-family="Helvetica,sans-Serif" font-size="10.00" fill="#000000">/CAPSTONE/clean_build</text>
<text text-anchor="start" x="834" y="-185.5" font-family="Helvetica,sans-Serif" font-size="10.00" fill="#000000">/include/States/main_menu</text>
<text text-anchor="middle" x="893.5" y="-174.5" font-family="Helvetica,sans-Serif" font-size="10.00" fill="#000000">_state.h</text>
</a>
</g>
</g>
<!-- Node4&#45;&gt;Node16 -->
<g id="edge16" class="edge">
<title>Node4&#45;&gt;Node16</title>
<path fill="none" stroke="#191970" d="M792.9649,-256.5114C811.4907,-244.9002 833.2812,-231.2428 851.8309,-219.6166"/>
<polygon fill="#191970" stroke="#191970" points="791.0491,-253.5815 784.4346,-261.8579 794.7666,-259.5128 791.0491,-253.5815"/>
</g>
<!-- Node17 -->
<g id="node15" class="node">
<title>Node17</title>
<g id="a_node15"><a xlink:href="main__menu__state_8cpp.html" target="_top" xlink:title="/mnt/hdd/fnky/C0de\l/CAPSTONE/clean_build\l/src/States/main_menu\l_state.cpp">
<polygon fill="none" stroke="#000000" points="875,-78.5 875,-130.5 1002,-130.5 1002,-78.5 875,-78.5"/>
<text text-anchor="start" x="883" y="-118.5" font-family="Helvetica,sans-Serif" font-size="10.00" fill="#000000">/mnt/hdd/fnky/C0de</text>
<text text-anchor="start" x="883" y="-107.5" font-family="Helvetica,sans-Serif" font-size="10.00" fill="#000000">/CAPSTONE/clean_build</text>
<text text-anchor="start" x="883" y="-96.5" font-family="Helvetica,sans-Serif" font-size="10.00" fill="#000000">/src/States/main_menu</text>
<text text-anchor="middle" x="938.5" y="-85.5" font-family="Helvetica,sans-Serif" font-size="10.00" fill="#000000">_state.cpp</text>
</a>
</g>
</g>
<!-- Node4&#45;&gt;Node17 -->
<g id="edge28" class="edge">
<title>Node4&#45;&gt;Node17</title>
<path fill="none" stroke="#191970" d="M828.8094,-259.1135C832.4211,-258.0542 835.9985,-257.0119 839.5,-256 897.0954,-239.3555 933.2024,-267.7153 969.5,-220 989.3607,-193.892 972.8973,-156.0147 957.382,-130.841"/>
<polygon fill="#191970" stroke="#191970" points="827.7989,-255.7624 819.197,-261.9477 829.7787,-262.4766 827.7989,-255.7624"/>
</g>
<!-- Node18 -->
<g id="node16" class="node">
<title>Node18</title>
<g id="a_node16"><a xlink:href="splash__state_8h.html" target="_top" xlink:title="/mnt/hdd/fnky/C0de\l/CAPSTONE/clean_build\l/include/States/splash\l_state.h">
<polygon fill="none" stroke="#000000" points="1018,-167.5 1018,-219.5 1145,-219.5 1145,-167.5 1018,-167.5"/>
<text text-anchor="start" x="1026" y="-207.5" font-family="Helvetica,sans-Serif" font-size="10.00" fill="#000000">/mnt/hdd/fnky/C0de</text>
<text text-anchor="start" x="1026" y="-196.5" font-family="Helvetica,sans-Serif" font-size="10.00" fill="#000000">/CAPSTONE/clean_build</text>
<text text-anchor="start" x="1026" y="-185.5" font-family="Helvetica,sans-Serif" font-size="10.00" fill="#000000">/include/States/splash</text>
<text text-anchor="middle" x="1081.5" y="-174.5" font-family="Helvetica,sans-Serif" font-size="10.00" fill="#000000">_state.h</text>
</a>
</g>
</g>
<!-- Node4&#45;&gt;Node18 -->
<g id="edge19" class="edge">
<title>Node4&#45;&gt;Node18</title>
<path fill="none" stroke="#191970" d="M827.2983,-259.2751C831.4173,-258.1379 835.5043,-257.0386 839.5,-256 911.7245,-237.2275 931.6151,-240.0338 1003.5,-220 1008.1841,-218.6946 1012.9999,-217.2684 1017.8297,-215.7767"/>
<polygon fill="#191970" stroke="#191970" points="826.336,-255.9099 817.6571,-261.9866 828.2312,-262.6485 826.336,-255.9099"/>
</g>
<!-- Node19 -->
<g id="node17" class="node">
<title>Node19</title>
<g id="a_node17"><a xlink:href="splash__state_8cpp.html" target="_top" xlink:title="/mnt/hdd/fnky/C0de\l/CAPSTONE/clean_build\l/src/States/splash_state.cpp">
<polygon fill="none" stroke="#000000" points="1026.5,-84 1026.5,-125 1168.5,-125 1168.5,-84 1026.5,-84"/>
<text text-anchor="start" x="1034.5" y="-113" font-family="Helvetica,sans-Serif" font-size="10.00" fill="#000000">/mnt/hdd/fnky/C0de</text>
<text text-anchor="start" x="1034.5" y="-102" font-family="Helvetica,sans-Serif" font-size="10.00" fill="#000000">/CAPSTONE/clean_build</text>
<text text-anchor="middle" x="1097.5" y="-91" font-family="Helvetica,sans-Serif" font-size="10.00" fill="#000000">/src/States/splash_state.cpp</text>
</a>
</g>
</g>
<!-- Node4&#45;&gt;Node19 -->
<g id="edge29" class="edge">
<title>Node4&#45;&gt;Node19</title>
<path fill="none" stroke="#191970" d="M825.0609,-259.298C829.9239,-258.0897 834.7678,-256.9748 839.5,-256 908.5069,-241.7855 1107.594,-272.5721 1154.5,-220 1179.8077,-191.6352 1146.3678,-150.0094 1121.0443,-125.243"/>
<polygon fill="#191970" stroke="#191970" points="823.8782,-255.9891 815.0817,-261.8944 825.6408,-262.7636 823.8782,-255.9891"/>
</g>
<!-- Node20 -->
<g id="node18" class="node">
<title>Node20</title>
<g id="a_node18"><a xlink:href="Animated__Player__Actor_8cpp.html" target="_top" xlink:title="/mnt/hdd/fnky/C0de\l/CAPSTONE/clean_build\l/src/Actors/Animated_Player\l_Actor.cpp">
<polygon fill="none" stroke="#000000" points="1201.5,-167.5 1201.5,-219.5 1343.5,-219.5 1343.5,-167.5 1201.5,-167.5"/>
<text text-anchor="start" x="1209.5" y="-207.5" font-family="Helvetica,sans-Serif" font-size="10.00" fill="#000000">/mnt/hdd/fnky/C0de</text>
<text text-anchor="start" x="1209.5" y="-196.5" font-family="Helvetica,sans-Serif" font-size="10.00" fill="#000000">/CAPSTONE/clean_build</text>
<text text-anchor="start" x="1209.5" y="-185.5" font-family="Helvetica,sans-Serif" font-size="10.00" fill="#000000">/src/Actors/Animated_Player</text>
<text text-anchor="middle" x="1272.5" y="-174.5" font-family="Helvetica,sans-Serif" font-size="10.00" fill="#000000">_Actor.cpp</text>
</a>
</g>
</g>
<!-- Node4&#45;&gt;Node20 -->
<g id="edge23" class="edge">
<title>Node4&#45;&gt;Node20</title>
<path fill="none" stroke="#191970" d="M824.3708,-259.4058C829.4643,-258.1471 834.5427,-256.9935 839.5,-256 991.9605,-225.4453 1035.1898,-251.295 1187.5,-220 1192.0424,-219.0667 1196.6874,-217.9882 1201.3487,-216.8114"/>
<polygon fill="#191970" stroke="#191970" points="823.3871,-256.0451 814.5849,-261.9418 825.1432,-262.8212 823.3871,-256.0451"/>
</g>
<!-- Node21 -->
<g id="node19" class="node">
<title>Node21</title>
<g id="a_node19"><a xlink:href="Player__Actor_8cpp.html" target="_top" xlink:title="/mnt/hdd/fnky/C0de\l/CAPSTONE/clean_build\l/src/Actors/Player_Actor.cpp">
<polygon fill="none" stroke="#000000" points="1362,-173 1362,-214 1505,-214 1505,-173 1362,-173"/>
<text text-anchor="start" x="1370" y="-202" font-family="Helvetica,sans-Serif" font-size="10.00" fill="#000000">/mnt/hdd/fnky/C0de</text>
<text text-anchor="start" x="1370" y="-191" font-family="Helvetica,sans-Serif" font-size="10.00" fill="#000000">/CAPSTONE/clean_build</text>
<text text-anchor="middle" x="1433.5" y="-180" font-family="Helvetica,sans-Serif" font-size="10.00" fill="#000000">/src/Actors/Player_Actor.cpp</text>
</a>
</g>
</g>
<!-- Node4&#45;&gt;Node21 -->
<g id="edge24" class="edge">
<title>Node4&#45;&gt;Node21</title>
<path fill="none" stroke="#191970" d="M823.3382,-259.4555C828.7736,-258.1463 834.2033,-256.9708 839.5,-256 1064.3155,-214.7931 1128.1883,-263.8664 1352.5,-220 1360.3413,-218.4666 1368.4786,-216.4009 1376.4381,-214.0959"/>
<polygon fill="#191970" stroke="#191970" points="822.4027,-256.082 813.5756,-261.9413 824.1301,-262.8655 822.4027,-256.082"/>
</g>
<!-- Node6 -->
<g id="node4" class="node">
<title>Node6</title>
<g id="a_node4"><a xlink:href="NetworkComponent_8cpp.html" target="_top" xlink:title="/mnt/hdd/fnky/C0de\l/CAPSTONE/clean_build\l/src/Components/NetworkComponent.cpp">
<polygon fill="none" stroke="#000000" points="3.5,-84 3.5,-125 203.5,-125 203.5,-84 3.5,-84"/>
<text text-anchor="start" x="11.5" y="-113" font-family="Helvetica,sans-Serif" font-size="10.00" fill="#000000">/mnt/hdd/fnky/C0de</text>
<text text-anchor="start" x="11.5" y="-102" font-family="Helvetica,sans-Serif" font-size="10.00" fill="#000000">/CAPSTONE/clean_build</text>
<text text-anchor="middle" x="103.5" y="-91" font-family="Helvetica,sans-Serif" font-size="10.00" fill="#000000">/src/Components/NetworkComponent.cpp</text>
</a>
</g>
</g>
<!-- Node5&#45;&gt;Node6 -->
<g id="edge3" class="edge">
<title>Node5&#45;&gt;Node6</title>
<path fill="none" stroke="#191970" d="M103.5,-162.844C103.5,-150.3522 103.5,-136.2439 103.5,-125.0301"/>
<polygon fill="#191970" stroke="#191970" points="100.0001,-162.8579 103.5,-172.8579 107.0001,-162.8579 100.0001,-162.8579"/>
</g>
<!-- Node7 -->
<g id="node5" class="node">
<title>Node7</title>
<g id="a_node5"><a xlink:href="game_8cpp.html" target="_top" xlink:title="/mnt/hdd/fnky/C0de\l/CAPSTONE/clean_build\l/src/Window/game.cpp">
<polygon fill="none" stroke="#000000" points="287,-.5 287,-41.5 414,-41.5 414,-.5 287,-.5"/>
<text text-anchor="start" x="295" y="-29.5" font-family="Helvetica,sans-Serif" font-size="10.00" fill="#000000">/mnt/hdd/fnky/C0de</text>
<text text-anchor="start" x="295" y="-18.5" font-family="Helvetica,sans-Serif" font-size="10.00" fill="#000000">/CAPSTONE/clean_build</text>
<text text-anchor="middle" x="350.5" y="-7.5" font-family="Helvetica,sans-Serif" font-size="10.00" fill="#000000">/src/Window/game.cpp</text>
</a>
</g>
</g>
<!-- Node5&#45;&gt;Node7 -->
<g id="edge4" class="edge">
<title>Node5&#45;&gt;Node7</title>
<path fill="none" stroke="#191970" d="M157.9793,-168.2249C176.4397,-158.1695 196.4336,-145.5146 212.5,-131 234.0075,-111.5699 228.9677,-97.4025 250.5,-78 266.6074,-63.4858 287.0242,-51.0358 305.2043,-41.5073"/>
<polygon fill="#191970" stroke="#191970" points="156.2614,-165.1741 149.0641,-172.9491 159.539,-171.3594 156.2614,-165.1741"/>
</g>
<!-- Node8&#45;&gt;Node9 -->
<g id="edge6" class="edge">
<title>Node8&#45;&gt;Node9</title>
<path fill="none" stroke="#191970" d="M406.7077,-171.9925C446.7156,-160.4058 496.45,-145.5364 540.5,-131 546.1336,-129.1409 551.9872,-127.1381 557.8187,-125.0958"/>
<polygon fill="#191970" stroke="#191970" points="405.6553,-168.6533 397.0184,-174.7895 407.5968,-175.3786 405.6553,-168.6533"/>
</g>
<!-- Node8&#45;&gt;Node11 -->
<g id="edge9" class="edge">
<title>Node8&#45;&gt;Node11</title>
<path fill="none" stroke="#191970" d="M327.6383,-157.1155C326.9376,-148.2061 326.2015,-138.8475 325.5476,-130.5341"/>
<polygon fill="#191970" stroke="#191970" points="324.1642,-157.5837 328.4376,-167.2784 331.1427,-157.0348 324.1642,-157.5837"/>
</g>
<!-- Node9&#45;&gt;Node7 -->
<g id="edge8" class="edge">
<title>Node9&#45;&gt;Node7</title>
<path fill="none" stroke="#191970" d="M548.2688,-80.6132C545.6489,-79.7195 543.0518,-78.8452 540.5,-78 498.6542,-64.1402 451.1542,-49.8902 414.1157,-39.1052"/>
<polygon fill="#191970" stroke="#191970" points="547.2197,-83.9537 557.8145,-83.9169 549.5092,-77.3387 547.2197,-83.9537"/>
</g>
<!-- Node10 -->
<g id="node8" class="node">
<title>Node10</title>
<g id="a_node8"><a xlink:href="main_8cpp.html" target="_top" xlink:title="/mnt/hdd/fnky/C0de\l/CAPSTONE/clean_build\l/src/main.cpp">
<polygon fill="none" stroke="#000000" points="550,-.5 550,-41.5 677,-41.5 677,-.5 550,-.5"/>
<text text-anchor="start" x="558" y="-29.5" font-family="Helvetica,sans-Serif" font-size="10.00" fill="#000000">/mnt/hdd/fnky/C0de</text>
<text text-anchor="start" x="558" y="-18.5" font-family="Helvetica,sans-Serif" font-size="10.00" fill="#000000">/CAPSTONE/clean_build</text>
<text text-anchor="middle" x="613.5" y="-7.5" font-family="Helvetica,sans-Serif" font-size="10.00" fill="#000000">/src/main.cpp</text>
</a>
</g>
</g>
<!-- Node9&#45;&gt;Node10 -->
<g id="edge7" class="edge">
<title>Node9&#45;&gt;Node10</title>
<path fill="none" stroke="#191970" d="M613.5,-73.6593C613.5,-63.0064 613.5,-51.3344 613.5,-41.6924"/>
<polygon fill="#191970" stroke="#191970" points="610.0001,-73.8595 613.5,-83.8595 617.0001,-73.8596 610.0001,-73.8595"/>
</g>
<!-- Node12&#45;&gt;Node9 -->
<g id="edge11" class="edge">
<title>Node12&#45;&gt;Node9</title>
<path fill="none" stroke="#191970" d="M554.7289,-160.1449C567.1258,-148.4075 580.6903,-135.5645 591.6613,-125.1771"/>
<polygon fill="#191970" stroke="#191970" points="552.0499,-157.8615 547.1947,-167.2784 556.8626,-162.9447 552.0499,-157.8615"/>
</g>
<!-- Node12&#45;&gt;Node13 -->
<g id="edge12" class="edge">
<title>Node12&#45;&gt;Node13</title>
<path fill="none" stroke="#191970" d="M499.4804,-158.5639C494.1298,-149.2264 488.4412,-139.2993 483.4184,-130.5341"/>
<polygon fill="#191970" stroke="#191970" points="496.4655,-160.3422 504.4742,-167.2784 502.539,-156.8618 496.4655,-160.3422"/>
</g>
<!-- Node14&#45;&gt;Node9 -->
<g id="edge14" class="edge">
<title>Node14&#45;&gt;Node9</title>
<path fill="none" stroke="#191970" d="M671.0206,-160.1449C658.8876,-148.4075 645.6116,-135.5645 634.8741,-125.1771"/>
<polygon fill="#191970" stroke="#191970" points="668.7737,-162.8411 678.3946,-167.2784 673.6408,-157.8099 668.7737,-162.8411"/>
</g>
<!-- Node14&#45;&gt;Node15 -->
<g id="edge15" class="edge">
<title>Node14&#45;&gt;Node15</title>
<path fill="none" stroke="#191970" d="M734.5948,-159.4285C742.7813,-149.8416 751.5522,-139.5704 759.2686,-130.5341"/>
<polygon fill="#191970" stroke="#191970" points="731.7237,-157.4009 727.8914,-167.2784 737.0469,-161.9466 731.7237,-157.4009"/>
</g>
<!-- Node16&#45;&gt;Node9 -->
<g id="edge17" class="edge">
<title>Node16&#45;&gt;Node9</title>
<path fill="none" stroke="#191970" d="M815.9999,-168.866C772.3451,-154.9901 718.4887,-137.8714 677.2936,-124.7772"/>
<polygon fill="#191970" stroke="#191970" points="815.1294,-172.2618 825.7198,-171.9556 817.2499,-165.5907 815.1294,-172.2618"/>
</g>
<!-- Node16&#45;&gt;Node17 -->
<g id="edge18" class="edge">
<title>Node16&#45;&gt;Node17</title>
<path fill="none" stroke="#191970" d="M911.3104,-158.2749C915.9889,-149.0219 920.9505,-139.209 925.3367,-130.5341"/>
<polygon fill="#191970" stroke="#191970" points="908.1469,-156.775 906.7581,-167.2784 914.3938,-159.9336 908.1469,-156.775"/>
</g>
<!-- Node18&#45;&gt;Node9 -->
<g id="edge20" class="edge">
<title>Node18&#45;&gt;Node9</title>
<path fill="none" stroke="#191970" d="M1007.6852,-174.9839C994.9927,-172.1018 981.8987,-169.3164 969.5,-167 854.3934,-145.4947 823.1571,-154.7857 708.5,-131 698.2729,-128.8784 687.5257,-126.2632 677.087,-123.5102"/>
<polygon fill="#191970" stroke="#191970" points="1007.2263,-178.4699 1017.7573,-177.309 1008.8008,-171.6493 1007.2263,-178.4699"/>
</g>
<!-- Node18&#45;&gt;Node19 -->
<g id="edge21" class="edge">
<title>Node18&#45;&gt;Node19</title>
<path fill="none" stroke="#191970" d="M1088.0378,-157.1335C1089.9954,-146.2443 1092.0739,-134.6825 1093.7828,-125.1771"/>
<polygon fill="#191970" stroke="#191970" points="1084.5387,-156.8169 1086.214,-167.2784 1091.4282,-158.0555 1084.5387,-156.8169"/>
</g>
</g>
</svg>
