<?xml version="1.0" encoding="UTF-8" standalone="no"?>
<!DOCTYPE svg PUBLIC "-//W3C//DTD SVG 1.1//EN"
 "http://www.w3.org/Graphics/SVG/1.1/DTD/svg11.dtd">
<!-- Generated by graphviz version 2.40.1 (20161225.0304)
 -->
<!-- Title: /mnt/hdd/fnky/C0de/CAPSTONE/clean_build/src/Camera/Orthographic_camera.cpp Pages: 1 -->
<svg width="712pt" height="184pt"
 viewBox="0.00 0.00 712.00 184.00" xmlns="http://www.w3.org/2000/svg" xmlns:xlink="http://www.w3.org/1999/xlink">
<g id="graph0" class="graph" transform="scale(1 1) rotate(0) translate(4 180)">
<title>/mnt/hdd/fnky/C0de/CAPSTONE/clean_build/src/Camera/Orthographic_camera.cpp</title>
<!-- Node0 -->
<g id="node1" class="node">
<title>Node0</title>
<polygon fill="#bfbfbf" stroke="#000000" points="333,-123.5 333,-175.5 462,-175.5 462,-123.5 333,-123.5"/>
<text text-anchor="start" x="341" y="-163.5" font-family="Helvetica,sans-Serif" font-size="10.00" fill="#000000">/mnt/hdd/fnky/C0de</text>
<text text-anchor="start" x="341" y="-152.5" font-family="Helvetica,sans-Serif" font-size="10.00" fill="#000000">/CAPSTONE/clean_build</text>
<text text-anchor="start" x="341" y="-141.5" font-family="Helvetica,sans-Serif" font-size="10.00" fill="#000000">/src/Camera/Orthographic</text>
<text text-anchor="middle" x="397.5" y="-130.5" font-family="Helvetica,sans-Serif" font-size="10.00" fill="#000000">_camera.cpp</text>
</g>
<!-- Node1 -->
<g id="node2" class="node">
<title>Node1</title>
<g id="a_node2"><a xlink:href="Orthographic__camera_8h.html" target="_top" xlink:title="../../include/Camera\l/Orthographic_camera.h">
<polygon fill="none" stroke="#000000" points="0,-56.5 0,-86.5 121,-86.5 121,-56.5 0,-56.5"/>
<text text-anchor="start" x="8" y="-74.5" font-family="Helvetica,sans-Serif" font-size="10.00" fill="#000000">../../include/Camera</text>
<text text-anchor="middle" x="60.5" y="-63.5" font-family="Helvetica,sans-Serif" font-size="10.00" fill="#000000">/Orthographic_camera.h</text>
</a>
</g>
</g>
<!-- Node0&#45;&gt;Node1 -->
<g id="edge1" class="edge">
<title>Node0&#45;&gt;Node1</title>
<path fill="none" stroke="#191970" d="M332.9218,-134.5531C275.1982,-121.1928 190.7796,-101.6537 131.2472,-87.8747"/>
<polygon fill="#191970" stroke="#191970" points="131.7067,-84.3886 121.175,-85.5435 130.1282,-91.2083 131.7067,-84.3886"/>
</g>
<!-- Node4 -->
<g id="node5" class="node">
<title>Node4</title>
<polygon fill="none" stroke="#bfbfbf" points="139,-56.5 139,-86.5 238,-86.5 238,-56.5 139,-56.5"/>
<text text-anchor="start" x="147" y="-74.5" font-family="Helvetica,sans-Serif" font-size="10.00" fill="#000000">glm/ext/matrix_clip</text>
<text text-anchor="middle" x="188.5" y="-63.5" font-family="Helvetica,sans-Serif" font-size="10.00" fill="#000000">_space.hpp</text>
</g>
<!-- Node0&#45;&gt;Node4 -->
<g id="edge4" class="edge">
<title>Node0&#45;&gt;Node4</title>
<path fill="none" stroke="#191970" d="M332.8024,-125.3545C302.4532,-114.028 266.8381,-100.7362 238.5839,-90.1916"/>
<polygon fill="#191970" stroke="#191970" points="239.5104,-86.8016 228.9178,-86.5841 237.0628,-93.3598 239.5104,-86.8016"/>
</g>
<!-- Node5 -->
<g id="node6" class="node">
<title>Node5</title>
<polygon fill="none" stroke="#bfbfbf" points="256.5,-62 256.5,-81 400.5,-81 400.5,-62 256.5,-62"/>
<text text-anchor="middle" x="328.5" y="-69" font-family="Helvetica,sans-Serif" font-size="10.00" fill="#000000">glm/ext/matrix_transform.hpp</text>
</g>
<!-- Node0&#45;&gt;Node5 -->
<g id="edge5" class="edge">
<title>Node0&#45;&gt;Node5</title>
<path fill="none" stroke="#191970" d="M374.1397,-123.0928C364.1213,-111.7675 352.6988,-98.8552 343.7872,-88.7812"/>
<polygon fill="#191970" stroke="#191970" points="346.2253,-86.2548 336.978,-81.0839 340.9823,-90.8929 346.2253,-86.2548"/>
</g>
<!-- Node6 -->
<g id="node7" class="node">
<title>Node6</title>
<polygon fill="none" stroke="#bfbfbf" points="419,-56.5 419,-86.5 516,-86.5 516,-56.5 419,-56.5"/>
<text text-anchor="start" x="427" y="-74.5" font-family="Helvetica,sans-Serif" font-size="10.00" fill="#000000">glm/ext/quaternion</text>
<text text-anchor="middle" x="467.5" y="-63.5" font-family="Helvetica,sans-Serif" font-size="10.00" fill="#000000">_common.hpp</text>
</g>
<!-- Node0&#45;&gt;Node6 -->
<g id="edge6" class="edge">
<title>Node0&#45;&gt;Node6</title>
<path fill="none" stroke="#191970" d="M421.1988,-123.0928C429.6657,-113.6583 439.1209,-103.1224 447.2686,-94.0436"/>
<polygon fill="#191970" stroke="#191970" points="449.9601,-96.2847 454.0344,-86.5046 444.7504,-91.6093 449.9601,-96.2847"/>
</g>
<!-- Node7 -->
<g id="node8" class="node">
<title>Node7</title>
<polygon fill="none" stroke="#bfbfbf" points="534.5,-62 534.5,-81 604.5,-81 604.5,-62 534.5,-62"/>
<text text-anchor="middle" x="569.5" y="-69" font-family="Helvetica,sans-Serif" font-size="10.00" fill="#000000">glm/fwd.hpp</text>
</g>
<!-- Node0&#45;&gt;Node7 -->
<g id="edge7" class="edge">
<title>Node0&#45;&gt;Node7</title>
<path fill="none" stroke="#191970" d="M455.252,-123.3101C483.2613,-110.6083 515.7677,-95.867 538.9287,-85.3637"/>
<polygon fill="#191970" stroke="#191970" points="540.5806,-88.4578 548.2423,-81.1401 537.6895,-82.0827 540.5806,-88.4578"/>
</g>
<!-- Node8 -->
<g id="node9" class="node">
<title>Node8</title>
<polygon fill="none" stroke="#bfbfbf" points="623,-62 623,-81 704,-81 704,-62 623,-62"/>
<text text-anchor="middle" x="663.5" y="-69" font-family="Helvetica,sans-Serif" font-size="10.00" fill="#000000">glm/matrix.hpp</text>
</g>
<!-- Node0&#45;&gt;Node8 -->
<g id="edge8" class="edge">
<title>Node0&#45;&gt;Node8</title>
<path fill="none" stroke="#191970" d="M462.3385,-131.0856C505.2845,-118.8034 562.8291,-102.1834 613.5,-87 616.6776,-86.0479 619.9655,-85.0521 623.2676,-84.0446"/>
<polygon fill="#191970" stroke="#191970" points="624.5891,-87.3002 633.1208,-81.0184 622.5339,-80.6086 624.5891,-87.3002"/>
</g>
<!-- Node2 -->
<g id="node3" class="node">
<title>Node2</title>
<polygon fill="none" stroke="#bfbfbf" points="2,-.5 2,-19.5 45,-19.5 45,-.5 2,-.5"/>
<text text-anchor="middle" x="23.5" y="-7.5" font-family="Helvetica,sans-Serif" font-size="10.00" fill="#000000">cstdio</text>
</g>
<!-- Node1&#45;&gt;Node2 -->
<g id="edge2" class="edge">
<title>Node1&#45;&gt;Node2</title>
<path fill="none" stroke="#191970" d="M51.3539,-56.2977C46.3249,-47.9388 40.0445,-37.4997 34.7209,-28.6509"/>
<polygon fill="#191970" stroke="#191970" points="37.5785,-26.6114 29.4242,-19.8469 31.5803,-30.2201 37.5785,-26.6114"/>
</g>
<!-- Node3 -->
<g id="node4" class="node">
<title>Node3</title>
<polygon fill="none" stroke="#bfbfbf" points="63.5,-.5 63.5,-19.5 133.5,-19.5 133.5,-.5 63.5,-.5"/>
<text text-anchor="middle" x="98.5" y="-7.5" font-family="Helvetica,sans-Serif" font-size="10.00" fill="#000000">glm/glm.hpp</text>
</g>
<!-- Node1&#45;&gt;Node3 -->
<g id="edge3" class="edge">
<title>Node1&#45;&gt;Node3</title>
<path fill="none" stroke="#191970" d="M69.8933,-56.2977C75.1131,-47.8498 81.6457,-37.2773 87.15,-28.369"/>
<polygon fill="#191970" stroke="#191970" points="90.1368,-30.1938 92.4157,-19.8469 84.1818,-26.5143 90.1368,-30.1938"/>
</g>
</g>
</svg>
