<?xml version="1.0" encoding="UTF-8" standalone="no"?>
<!DOCTYPE svg PUBLIC "-//W3C//DTD SVG 1.1//EN"
 "http://www.w3.org/Graphics/SVG/1.1/DTD/svg11.dtd">
<!-- Generated by graphviz version 2.40.1 (20161225.0304)
 -->
<!-- Title: /mnt/hdd/fnky/C0de/CAPSTONE/clean_build/include/Actors/PickUps_Actor.h Pages: 1 -->
<svg width="537pt" height="285pt"
 viewBox="0.00 0.00 537.00 285.00" xmlns="http://www.w3.org/2000/svg" xmlns:xlink="http://www.w3.org/1999/xlink">
<g id="graph0" class="graph" transform="scale(1 1) rotate(0) translate(4 281)">
<title>/mnt/hdd/fnky/C0de/CAPSTONE/clean_build/include/Actors/PickUps_Actor.h</title>
<!-- Node0 -->
<g id="node1" class="node">
<title>Node0</title>
<polygon fill="#bfbfbf" stroke="#000000" points="259.5,-224.5 259.5,-276.5 386.5,-276.5 386.5,-224.5 259.5,-224.5"/>
<text text-anchor="start" x="267.5" y="-264.5" font-family="Helvetica,sans-Serif" font-size="10.00" fill="#000000">/mnt/hdd/fnky/C0de</text>
<text text-anchor="start" x="267.5" y="-253.5" font-family="Helvetica,sans-Serif" font-size="10.00" fill="#000000">/CAPSTONE/clean_build</text>
<text text-anchor="start" x="267.5" y="-242.5" font-family="Helvetica,sans-Serif" font-size="10.00" fill="#000000">/include/Actors/PickUps</text>
<text text-anchor="middle" x="323" y="-231.5" font-family="Helvetica,sans-Serif" font-size="10.00" fill="#000000">_Actor.h</text>
</g>
<!-- Node1 -->
<g id="node2" class="node">
<title>Node1</title>
<g id="a_node2"><a xlink:href="Components_2Component_8h.html" target="_top" xlink:title="../Components/Component.h">
<polygon fill="none" stroke="#000000" points="134.5,-56.5 134.5,-75.5 277.5,-75.5 277.5,-56.5 134.5,-56.5"/>
<text text-anchor="middle" x="206" y="-63.5" font-family="Helvetica,sans-Serif" font-size="10.00" fill="#000000">../Components/Component.h</text>
</a>
</g>
</g>
<!-- Node0&#45;&gt;Node1 -->
<g id="edge1" class="edge">
<title>Node0&#45;&gt;Node1</title>
<path fill="none" stroke="#191970" d="M274.3382,-224.4905C260.1218,-214.7563 245.7911,-202.4827 236,-188 214.7173,-156.5194 208.508,-111.3838 206.7128,-85.7586"/>
<polygon fill="#191970" stroke="#191970" points="210.2077,-85.5674 206.1712,-75.7716 203.2179,-85.9465 210.2077,-85.5674"/>
</g>
<!-- Node2 -->
<g id="node3" class="node">
<title>Node2</title>
<polygon fill="none" stroke="#bfbfbf" points="280,-.5 280,-19.5 332,-19.5 332,-.5 280,-.5"/>
<text text-anchor="middle" x="306" y="-7.5" font-family="Helvetica,sans-Serif" font-size="10.00" fill="#000000">memory</text>
</g>
<!-- Node0&#45;&gt;Node2 -->
<g id="edge13" class="edge">
<title>Node0&#45;&gt;Node2</title>
<path fill="none" stroke="#191970" d="M354.6173,-224.3002C383.1675,-197.2539 418.3786,-153.3 402,-112 387.294,-74.9177 352.0159,-43.4768 328.5691,-25.6739"/>
<polygon fill="#191970" stroke="#191970" points="330.3581,-22.6447 320.2298,-19.5352 326.2083,-28.2821 330.3581,-22.6447"/>
</g>
<!-- Node3 -->
<g id="node4" class="node">
<title>Node3</title>
<g id="a_node4"><a xlink:href="Actor_8h.html" target="_top" xlink:title="Actor.h">
<polygon fill="none" stroke="#000000" points="141,-112.5 141,-131.5 189,-131.5 189,-112.5 141,-112.5"/>
<text text-anchor="middle" x="165" y="-119.5" font-family="Helvetica,sans-Serif" font-size="10.00" fill="#000000">Actor.h</text>
</a>
</g>
</g>
<!-- Node0&#45;&gt;Node3 -->
<g id="edge3" class="edge">
<title>Node0&#45;&gt;Node3</title>
<path fill="none" stroke="#191970" d="M259.4252,-225.7565C239.7872,-216.0308 219.1089,-203.4426 203,-188 189.1753,-174.7471 178.8298,-155.3628 172.452,-141.028"/>
<polygon fill="#191970" stroke="#191970" points="175.6112,-139.5108 168.5163,-131.6423 169.1558,-142.2178 175.6112,-139.5108"/>
</g>
<!-- Node6 -->
<g id="node7" class="node">
<title>Node6</title>
<g id="a_node7"><a xlink:href="Texture__Actor_8h.html" target="_top" xlink:title="Texture_Actor.h">
<polygon fill="none" stroke="#000000" points="245,-168.5 245,-187.5 331,-187.5 331,-168.5 245,-168.5"/>
<text text-anchor="middle" x="288" y="-175.5" font-family="Helvetica,sans-Serif" font-size="10.00" fill="#000000">Texture_Actor.h</text>
</a>
</g>
</g>
<!-- Node0&#45;&gt;Node6 -->
<g id="edge7" class="edge">
<title>Node0&#45;&gt;Node6</title>
<path fill="none" stroke="#191970" d="M310.3642,-224.3258C305.9653,-215.2138 301.1209,-205.179 297.0689,-196.7857"/>
<polygon fill="#191970" stroke="#191970" points="300.1021,-195.0179 292.6026,-187.534 293.7982,-198.0612 300.1021,-195.0179"/>
</g>
<!-- Node7 -->
<g id="node8" class="node">
<title>Node7</title>
<polygon fill="none" stroke="#bfbfbf" points="323,-112.5 323,-131.5 393,-131.5 393,-112.5 323,-112.5"/>
<text text-anchor="middle" x="358" y="-119.5" font-family="Helvetica,sans-Serif" font-size="10.00" fill="#000000">glm/fwd.hpp</text>
</g>
<!-- Node0&#45;&gt;Node7 -->
<g id="edge12" class="edge">
<title>Node0&#45;&gt;Node7</title>
<path fill="none" stroke="#191970" d="M330.0828,-224.4961C336.7812,-199.9033 346.6811,-163.5564 352.7153,-141.4024"/>
<polygon fill="#191970" stroke="#191970" points="356.1575,-142.0825 355.4086,-131.5142 349.4035,-140.2428 356.1575,-142.0825"/>
</g>
<!-- Node8 -->
<g id="node9" class="node">
<title>Node8</title>
<polygon fill="none" stroke="#bfbfbf" points="449,-168.5 449,-187.5 529,-187.5 529,-168.5 449,-168.5"/>
<text text-anchor="middle" x="489" y="-175.5" font-family="Helvetica,sans-Serif" font-size="10.00" fill="#000000">box2d/box2d.h</text>
</g>
<!-- Node0&#45;&gt;Node8 -->
<g id="edge14" class="edge">
<title>Node0&#45;&gt;Node8</title>
<path fill="none" stroke="#191970" d="M382.9298,-224.3258C408.2641,-213.2612 436.7133,-200.8361 457.7662,-191.6413"/>
<polygon fill="#191970" stroke="#191970" points="459.4072,-194.7439 467.1704,-187.534 456.6055,-188.329 459.4072,-194.7439"/>
</g>
<!-- Node1&#45;&gt;Node2 -->
<g id="edge2" class="edge">
<title>Node1&#45;&gt;Node2</title>
<path fill="none" stroke="#191970" d="M223.4187,-56.2455C239.0485,-47.4928 262.2019,-34.527 280.0185,-24.5496"/>
<polygon fill="#191970" stroke="#191970" points="281.766,-27.5825 288.7809,-19.6427 278.3457,-21.475 281.766,-27.5825"/>
</g>
<!-- Node3&#45;&gt;Node1 -->
<g id="edge6" class="edge">
<title>Node3&#45;&gt;Node1</title>
<path fill="none" stroke="#191970" d="M172.1417,-112.2455C177.8444,-104.4564 185.99,-93.3308 192.8625,-83.9439"/>
<polygon fill="#191970" stroke="#191970" points="195.8568,-85.7789 198.9402,-75.6427 190.2087,-81.6437 195.8568,-85.7789"/>
</g>
<!-- Node4 -->
<g id="node5" class="node">
<title>Node4</title>
<polygon fill="none" stroke="#bfbfbf" points="72,-56.5 72,-75.5 116,-75.5 116,-56.5 72,-56.5"/>
<text text-anchor="middle" x="94" y="-63.5" font-family="Helvetica,sans-Serif" font-size="10.00" fill="#000000">vector</text>
</g>
<!-- Node3&#45;&gt;Node4 -->
<g id="edge4" class="edge">
<title>Node3&#45;&gt;Node4</title>
<path fill="none" stroke="#191970" d="M152.6327,-112.2455C142.0446,-103.8943 126.5936,-91.7076 114.2107,-81.9408"/>
<polygon fill="#191970" stroke="#191970" points="116.2447,-79.0875 106.2255,-75.6427 111.9097,-84.5837 116.2447,-79.0875"/>
</g>
<!-- Node5 -->
<g id="node6" class="node">
<title>Node5</title>
<polygon fill="none" stroke="#bfbfbf" points="0,-56.5 0,-75.5 54,-75.5 54,-56.5 0,-56.5"/>
<text text-anchor="middle" x="27" y="-63.5" font-family="Helvetica,sans-Serif" font-size="10.00" fill="#000000">iostream</text>
</g>
<!-- Node3&#45;&gt;Node5 -->
<g id="edge5" class="edge">
<title>Node3&#45;&gt;Node5</title>
<path fill="none" stroke="#191970" d="M141.277,-112.3733C118.8263,-103.2629 84.9261,-89.5062 59.8745,-79.3404"/>
<polygon fill="#191970" stroke="#191970" points="60.9957,-76.0182 50.4135,-75.5011 58.3635,-82.5045 60.9957,-76.0182"/>
</g>
<!-- Node6&#45;&gt;Node1 -->
<g id="edge8" class="edge">
<title>Node6&#45;&gt;Node1</title>
<path fill="none" stroke="#191970" d="M281.0087,-168.4509C267.2716,-149.688 236.5704,-107.7548 219.0014,-83.758"/>
<polygon fill="#191970" stroke="#191970" points="221.705,-81.5259 212.9736,-75.5249 216.057,-85.6611 221.705,-81.5259"/>
</g>
<!-- Node6&#45;&gt;Node2 -->
<g id="edge11" class="edge">
<title>Node6&#45;&gt;Node2</title>
<path fill="none" stroke="#191970" d="M289.0193,-168.4862C291.8647,-141.9293 299.9394,-66.5651 303.8394,-30.1655"/>
<polygon fill="#191970" stroke="#191970" points="307.3617,-30.1439 304.947,-19.8279 300.4015,-29.3981 307.3617,-30.1439"/>
</g>
<!-- Node6&#45;&gt;Node3 -->
<g id="edge9" class="edge">
<title>Node6&#45;&gt;Node3</title>
<path fill="none" stroke="#191970" d="M266.8555,-168.3733C247.1108,-159.3838 217.4302,-145.8706 195.1945,-135.7471"/>
<polygon fill="#191970" stroke="#191970" points="196.42,-132.4594 185.8685,-131.5011 193.5194,-138.8302 196.42,-132.4594"/>
</g>
<!-- Node6&#45;&gt;Node7 -->
<g id="edge10" class="edge">
<title>Node6&#45;&gt;Node7</title>
<path fill="none" stroke="#191970" d="M300.1931,-168.2455C310.6321,-159.8943 325.8655,-147.7076 338.074,-137.9408"/>
<polygon fill="#191970" stroke="#191970" points="340.3244,-140.6227 345.9467,-131.6427 335.9515,-135.1566 340.3244,-140.6227"/>
</g>
</g>
</svg>
