<?xml version="1.0" encoding="UTF-8" standalone="no"?>
<!DOCTYPE svg PUBLIC "-//W3C//DTD SVG 1.1//EN"
 "http://www.w3.org/Graphics/SVG/1.1/DTD/svg11.dtd">
<!-- Generated by graphviz version 2.40.1 (20161225.0304)
 -->
<!-- Title: /mnt/hdd/fnky/C0de/CAPSTONE/clean_build/src/Actors/PickUps_Actor.cpp Pages: 1 -->
<!--zoomable 352 -->
<svg id="main" version="1.1" xmlns="http://www.w3.org/2000/svg" xmlns:xlink="http://www.w3.org/1999/xlink" xml:space="preserve" onload="init(evt)">
<style type="text/css"><![CDATA[
.edge:hover path { stroke: red; }
.edge:hover polygon { stroke: red; fill: red; }
]]></style>
<script type="text/javascript"><![CDATA[
var edges = document.getElementsByTagName('g');
if (edges && edges.length) {
  for (var i=0;i<edges.length;i++) {
    if (edges[i].id.substr(0,4)=='edge') {
      edges[i].setAttribute('class','edge');
    }
  }
}
]]></script>
        <defs>
                <circle id="rim" cx="0" cy="0" r="7"/>
                <circle id="rim2" cx="0" cy="0" r="3.5"/>
                <g id="zoomPlus">
                        <use xlink:href="#rim" fill="#404040">
                                <set attributeName="fill" to="#808080" begin="zoomplus.mouseover" end="zoomplus.mouseout"/>
                        </use>
                        <path d="M-4,0h8M0,-4v8" fill="none" stroke="white" stroke-width="1.5" pointer-events="none"/>
                </g>
                <g id="zoomMin">
                        <use xlink:href="#rim" fill="#404040">
                                <set attributeName="fill" to="#808080" begin="zoomminus.mouseover" end="zoomminus.mouseout"/>
                        </use>
                        <path d="M-4,0h8" fill="none" stroke="white" stroke-width="1.5" pointer-events="none"/>
                </g>
                <g id="dirArrow">
                        <path fill="none" stroke="white" stroke-width="1.5" d="M0,-3.0v7 M-2.5,-0.5L0,-3.0L2.5,-0.5"/>
                </g>
               <g id="resetDef">
                       <use xlink:href="#rim2" fill="#404040">
                               <set attributeName="fill" to="#808080" begin="reset.mouseover" end="reset.mouseout"/>
                       </use>
               </g>
        </defs>

<script type="text/javascript">
var viewWidth = 2056;
var viewHeight = 352;
var sectionId = 'dynsection-0';
</script>
<script xlink:href="svgpan.js"/>
<svg id="graph" class="graph">
<g id="viewport">
<title>/mnt/hdd/fnky/C0de/CAPSTONE/clean_build/src/Actors/PickUps_Actor.cpp</title>
<!-- Node0 -->
<g id="node1" class="node">
<title>Node0</title>
<polygon fill="#bfbfbf" stroke="#000000" points="440.3784,-302.5 440.3784,-343.5 592.3784,-343.5 592.3784,-302.5 440.3784,-302.5"/>
<text text-anchor="start" x="448.3784" y="-331.5" font-family="Helvetica,sans-Serif" font-size="10.00" fill="#000000">/mnt/hdd/fnky/C0de</text>
<text text-anchor="start" x="448.3784" y="-320.5" font-family="Helvetica,sans-Serif" font-size="10.00" fill="#000000">/CAPSTONE/clean_build</text>
<text text-anchor="middle" x="516.3784" y="-309.5" font-family="Helvetica,sans-Serif" font-size="10.00" fill="#000000">/src/Actors/PickUps_Actor.cpp</text>
</g>
<!-- Node1 -->
<g id="node2" class="node">
<title>Node1</title>
<g id="a_node2"><a xlink:href="Shader__Actor_8h.html" target="_top" xlink:title="../../include/Actors\l/Shader_Actor.h">
<polygon fill="none" stroke="#000000" points="210.8784,-168.5 210.8784,-198.5 307.8784,-198.5 307.8784,-168.5 210.8784,-168.5"/>
<text text-anchor="start" x="218.8784" y="-186.5" font-family="Helvetica,sans-Serif" font-size="10.00" fill="#000000">../../include/Actors</text>
<text text-anchor="middle" x="259.3784" y="-175.5" font-family="Helvetica,sans-Serif" font-size="10.00" fill="#000000">/Shader_Actor.h</text>
</a>
</g>
</g>
<!-- Node0&#45;&gt;Node1 -->
<g id="edge1" class="edge">
<title>Node0&#45;&gt;Node1</title>
<path fill="none" stroke="#191970" d="M478.4572,-302.4163C429.3986,-275.7872 344.5019,-229.7052 296.0574,-203.4094"/>
<polygon fill="#191970" stroke="#191970" points="297.6228,-200.2768 287.1643,-198.5822 294.2834,-206.4289 297.6228,-200.2768"/>
</g>
<!-- Node3 -->
<g id="node4" class="node">
<title>Node3</title>
<polygon fill="none" stroke="#bfbfbf" points="449.3784,-.5 449.3784,-19.5 501.3784,-19.5 501.3784,-.5 449.3784,-.5"/>
<text text-anchor="middle" x="475.3784" y="-7.5" font-family="Helvetica,sans-Serif" font-size="10.00" fill="#000000">memory</text>
</g>
<!-- Node0&#45;&gt;Node3 -->
<g id="edge63" class="edge">
<title>Node0&#45;&gt;Node3</title>
<path fill="none" stroke="#191970" d="M592.6124,-320.1008C902.1236,-307.8362 2048.3784,-257.4249 2048.3784,-183.5 2048.3784,-183.5 2048.3784,-183.5 2048.3784,-122 2048.3784,-42.3305 747.5987,-14.9406 511.8024,-10.63"/>
<polygon fill="#191970" stroke="#191970" points="511.7552,-7.1287 501.6936,-10.4475 511.6288,-14.1275 511.7552,-7.1287"/>
</g>
<!-- Node8 -->
<g id="node9" class="node">
<title>Node8</title>
<g id="a_node9"><a xlink:href="PickUps__Actor_8h.html" target="_top" xlink:title="../../include/Actors\l/PickUps_Actor.h">
<polygon fill="none" stroke="#000000" points="95.8784,-235.5 95.8784,-265.5 192.8784,-265.5 192.8784,-235.5 95.8784,-235.5"/>
<text text-anchor="start" x="103.8784" y="-253.5" font-family="Helvetica,sans-Serif" font-size="10.00" fill="#000000">../../include/Actors</text>
<text text-anchor="middle" x="144.3784" y="-242.5" font-family="Helvetica,sans-Serif" font-size="10.00" fill="#000000">/PickUps_Actor.h</text>
</a>
</g>
</g>
<!-- Node0&#45;&gt;Node8 -->
<g id="edge10" class="edge">
<title>Node0&#45;&gt;Node8</title>
<path fill="none" stroke="#191970" d="M440.201,-308.1536C369.8838,-294.4493 266.941,-274.3865 202.8848,-261.9025"/>
<polygon fill="#191970" stroke="#191970" points="203.4339,-258.4437 192.949,-259.966 202.0948,-265.3144 203.4339,-258.4437"/>
</g>
<!-- Node11 -->
<g id="node12" class="node">
<title>Node11</title>
<g id="a_node12"><a xlink:href="TransformComponent_8h.html" target="_top" xlink:title="../../include/Components\l/TransformComponent.h">
<polygon fill="none" stroke="#000000" points="454.3784,-235.5 454.3784,-265.5 578.3784,-265.5 578.3784,-235.5 454.3784,-235.5"/>
<text text-anchor="start" x="462.3784" y="-253.5" font-family="Helvetica,sans-Serif" font-size="10.00" fill="#000000">../../include/Components</text>
<text text-anchor="middle" x="516.3784" y="-242.5" font-family="Helvetica,sans-Serif" font-size="10.00" fill="#000000">/TransformComponent.h</text>
</a>
</g>
</g>
<!-- Node0&#45;&gt;Node11 -->
<g id="edge21" class="edge">
<title>Node0&#45;&gt;Node11</title>
<path fill="none" stroke="#191970" d="M516.3784,-302.4183C516.3784,-294.0849 516.3784,-284.3834 516.3784,-275.6373"/>
<polygon fill="#191970" stroke="#191970" points="519.8785,-275.5991 516.3784,-265.5991 512.8785,-275.5991 519.8785,-275.5991"/>
</g>
<!-- Node14 -->
<g id="node15" class="node">
<title>Node14</title>
<g id="a_node15"><a xlink:href="ShaderComponent_8h.html" target="_top" xlink:title="../../include/Components\l/ShaderComponent.h">
<polygon fill="none" stroke="#000000" points="326.3784,-168.5 326.3784,-198.5 450.3784,-198.5 450.3784,-168.5 326.3784,-168.5"/>
<text text-anchor="start" x="334.3784" y="-186.5" font-family="Helvetica,sans-Serif" font-size="10.00" fill="#000000">../../include/Components</text>
<text text-anchor="middle" x="388.3784" y="-175.5" font-family="Helvetica,sans-Serif" font-size="10.00" fill="#000000">/ShaderComponent.h</text>
</a>
</g>
</g>
<!-- Node0&#45;&gt;Node14 -->
<g id="edge25" class="edge">
<title>Node0&#45;&gt;Node14</title>
<path fill="none" stroke="#191970" d="M486.7592,-302.2839C473.3477,-292.1614 457.7624,-279.3074 445.3784,-266 428.6671,-248.0425 413.0836,-224.8593 402.4491,-207.6432"/>
<polygon fill="#191970" stroke="#191970" points="405.247,-205.5063 397.0745,-198.7638 399.2585,-209.1311 405.247,-205.5063"/>
</g>
<!-- Node17 -->
<g id="node18" class="node">
<title>Node17</title>
<g id="a_node18"><a xlink:href="RenderComponent_8h.html" target="_top" xlink:title="../../include/Components\l/RenderComponent.h">
<polygon fill="none" stroke="#000000" points="784.3784,-235.5 784.3784,-265.5 908.3784,-265.5 908.3784,-235.5 784.3784,-235.5"/>
<text text-anchor="start" x="792.3784" y="-253.5" font-family="Helvetica,sans-Serif" font-size="10.00" fill="#000000">../../include/Components</text>
<text text-anchor="middle" x="846.3784" y="-242.5" font-family="Helvetica,sans-Serif" font-size="10.00" fill="#000000">/RenderComponent.h</text>
</a>
</g>
</g>
<!-- Node0&#45;&gt;Node17 -->
<g id="edge30" class="edge">
<title>Node0&#45;&gt;Node17</title>
<path fill="none" stroke="#191970" d="M592.5014,-306.276C647.2448,-294.2491 720.5925,-278.1348 774.3708,-266.3198"/>
<polygon fill="#191970" stroke="#191970" points="775.1598,-269.7301 784.1758,-264.1657 773.6577,-262.8931 775.1598,-269.7301"/>
</g>
<!-- Node26 -->
<g id="node27" class="node">
<title>Node26</title>
<g id="a_node27"><a xlink:href="PhysicsComponent_8h.html" target="_top" xlink:title="../../include/Components\l/PhysicsComponent.h">
<polygon fill="none" stroke="#000000" points="1290.3784,-235.5 1290.3784,-265.5 1414.3784,-265.5 1414.3784,-235.5 1290.3784,-235.5"/>
<text text-anchor="start" x="1298.3784" y="-253.5" font-family="Helvetica,sans-Serif" font-size="10.00" fill="#000000">../../include/Components</text>
<text text-anchor="middle" x="1352.3784" y="-242.5" font-family="Helvetica,sans-Serif" font-size="10.00" fill="#000000">/PhysicsComponent.h</text>
</a>
</g>
</g>
<!-- Node0&#45;&gt;Node26 -->
<g id="edge52" class="edge">
<title>Node0&#45;&gt;Node26</title>
<path fill="none" stroke="#191970" d="M592.4128,-316.4061C752.7133,-302.5045 1123.4463,-270.3536 1280.2565,-256.7546"/>
<polygon fill="#191970" stroke="#191970" points="1280.6113,-260.2371 1290.2714,-255.8861 1280.0064,-253.2632 1280.6113,-260.2371"/>
</g>
<!-- Node2 -->
<g id="node3" class="node">
<title>Node2</title>
<g id="a_node3"><a xlink:href="Components_2Component_8h.html" target="_top" xlink:title="../Components/Component.h">
<polygon fill="none" stroke="#000000" points="293.8784,-56.5 293.8784,-75.5 436.8784,-75.5 436.8784,-56.5 293.8784,-56.5"/>
<text text-anchor="middle" x="365.3784" y="-63.5" font-family="Helvetica,sans-Serif" font-size="10.00" fill="#000000">../Components/Component.h</text>
</a>
</g>
</g>
<!-- Node1&#45;&gt;Node2 -->
<g id="edge2" class="edge">
<title>Node1&#45;&gt;Node2</title>
<path fill="none" stroke="#191970" d="M273.2361,-168.1389C293.0283,-146.1994 329.275,-106.0203 349.9156,-83.1404"/>
<polygon fill="#191970" stroke="#191970" points="352.6549,-85.329 356.7545,-75.5595 347.4573,-80.6401 352.6549,-85.329"/>
</g>
<!-- Node1&#45;&gt;Node3 -->
<g id="edge9" class="edge">
<title>Node1&#45;&gt;Node3</title>
<path fill="none" stroke="#191970" d="M257.6988,-168.1872C255.6936,-141.5831 255.7411,-86.7353 285.3784,-56 306.3385,-34.2633 389.9591,-20.5196 439.0037,-14.1593"/>
<polygon fill="#191970" stroke="#191970" points="439.717,-17.5973 449.2029,-12.8782 438.8446,-10.6519 439.717,-17.5973"/>
</g>
<!-- Node4 -->
<g id="node5" class="node">
<title>Node4</title>
<g id="a_node5"><a xlink:href="Actor_8h.html" target="_top" xlink:title="Actor.h">
<polygon fill="none" stroke="#000000" points="101.3784,-112.5 101.3784,-131.5 149.3784,-131.5 149.3784,-112.5 101.3784,-112.5"/>
<text text-anchor="middle" x="125.3784" y="-119.5" font-family="Helvetica,sans-Serif" font-size="10.00" fill="#000000">Actor.h</text>
</a>
</g>
</g>
<!-- Node1&#45;&gt;Node4 -->
<g id="edge4" class="edge">
<title>Node1&#45;&gt;Node4</title>
<path fill="none" stroke="#191970" d="M226.5983,-168.4554C204.8285,-158.464 176.4699,-145.4487 155.3098,-135.7372"/>
<polygon fill="#191970" stroke="#191970" points="156.6921,-132.5206 146.1437,-131.5303 153.7722,-138.8826 156.6921,-132.5206"/>
</g>
<!-- Node7 -->
<g id="node8" class="node">
<title>Node7</title>
<polygon fill="none" stroke="#bfbfbf" points="167.3784,-112.5 167.3784,-131.5 237.3784,-131.5 237.3784,-112.5 167.3784,-112.5"/>
<text text-anchor="middle" x="202.3784" y="-119.5" font-family="Helvetica,sans-Serif" font-size="10.00" fill="#000000">glm/fwd.hpp</text>
</g>
<!-- Node1&#45;&gt;Node7 -->
<g id="edge8" class="edge">
<title>Node1&#45;&gt;Node7</title>
<path fill="none" stroke="#191970" d="M245.2885,-168.2977C237.1291,-159.4941 226.8312,-148.3833 218.3689,-139.2529"/>
<polygon fill="#191970" stroke="#191970" points="220.8695,-136.8021 211.5048,-131.8469 215.7355,-141.5604 220.8695,-136.8021"/>
</g>
<!-- Node2&#45;&gt;Node3 -->
<g id="edge3" class="edge">
<title>Node2&#45;&gt;Node3</title>
<path fill="none" stroke="#191970" d="M384.5389,-56.2455C401.8895,-47.4125 427.6685,-34.2887 447.3367,-24.2758"/>
<polygon fill="#191970" stroke="#191970" points="449.1137,-27.2986 456.4374,-19.6427 445.9379,-21.0605 449.1137,-27.2986"/>
</g>
<!-- Node4&#45;&gt;Node2 -->
<g id="edge7" class="edge">
<title>Node4&#45;&gt;Node2</title>
<path fill="none" stroke="#191970" d="M149.4692,-114.4703C152.4599,-113.6034 155.4831,-112.7592 158.3784,-112 208.3829,-98.8875 265.8118,-86.3197 307.475,-77.6442"/>
<polygon fill="#191970" stroke="#191970" points="308.3635,-81.0346 317.4461,-75.5796 306.9441,-74.18 308.3635,-81.0346"/>
</g>
<!-- Node5 -->
<g id="node6" class="node">
<title>Node5</title>
<polygon fill="none" stroke="#bfbfbf" points="103.3784,-56.5 103.3784,-75.5 147.3784,-75.5 147.3784,-56.5 103.3784,-56.5"/>
<text text-anchor="middle" x="125.3784" y="-63.5" font-family="Helvetica,sans-Serif" font-size="10.00" fill="#000000">vector</text>
</g>
<!-- Node4&#45;&gt;Node5 -->
<g id="edge5" class="edge">
<title>Node4&#45;&gt;Node5</title>
<path fill="none" stroke="#191970" d="M125.3784,-112.2455C125.3784,-104.9382 125.3784,-94.6944 125.3784,-85.7046"/>
<polygon fill="#191970" stroke="#191970" points="128.8785,-85.6426 125.3784,-75.6427 121.8785,-85.6427 128.8785,-85.6426"/>
</g>
<!-- Node6 -->
<g id="node7" class="node">
<title>Node6</title>
<polygon fill="none" stroke="#bfbfbf" points="944.3784,-56.5 944.3784,-75.5 998.3784,-75.5 998.3784,-56.5 944.3784,-56.5"/>
<text text-anchor="middle" x="971.3784" y="-63.5" font-family="Helvetica,sans-Serif" font-size="10.00" fill="#000000">iostream</text>
</g>
<!-- Node4&#45;&gt;Node6 -->
<g id="edge6" class="edge">
<title>Node4&#45;&gt;Node6</title>
<path fill="none" stroke="#191970" d="M149.7294,-113.9158C152.6205,-113.1663 155.549,-112.5014 158.3784,-112 310.4968,-85.0449 795.4436,-70.5871 934.0507,-66.9344"/>
<polygon fill="#191970" stroke="#191970" points="934.2611,-70.4302 944.1665,-66.6709 934.0788,-63.4326 934.2611,-70.4302"/>
</g>
<!-- Node8&#45;&gt;Node2 -->
<g id="edge11" class="edge">
<title>Node8&#45;&gt;Node2</title>
<path fill="none" stroke="#191970" d="M95.814,-243.4086C69.0256,-236.7454 37.9225,-223.8627 21.3784,-199 13.7458,-187.5296 16.2218,-180.7764 21.3784,-168 34.3189,-135.9376 44.7173,-127.9798 75.3784,-112 110.6739,-93.6049 210.8126,-80.5356 283.5556,-73.1392"/>
<polygon fill="#191970" stroke="#191970" points="284.0259,-76.6097 293.6286,-72.1332 283.3302,-69.6444 284.0259,-76.6097"/>
</g>
<!-- Node8&#45;&gt;Node3 -->
<g id="edge19" class="edge">
<title>Node8&#45;&gt;Node3</title>
<path fill="none" stroke="#191970" d="M95.7267,-237.7441C62.3257,-227.8898 22.3009,-213.5222 12.3784,-199 -22.1431,-148.4755 21.16,-91.6107 74.3784,-56 104.4151,-35.9012 346.4527,-18.3233 439.3005,-12.2556"/>
<polygon fill="#191970" stroke="#191970" points="439.5967,-15.7438 449.35,-11.6058 439.145,-8.7584 439.5967,-15.7438"/>
</g>
<!-- Node8&#45;&gt;Node4 -->
<g id="edge12" class="edge">
<title>Node8&#45;&gt;Node4</title>
<path fill="none" stroke="#191970" d="M142.1242,-235.2548C138.682,-211.9744 132.115,-167.5607 128.3078,-141.8117"/>
<polygon fill="#191970" stroke="#191970" points="131.7431,-141.1163 126.8179,-131.7358 124.8184,-142.1402 131.7431,-141.1163"/>
</g>
<!-- Node8&#45;&gt;Node7 -->
<g id="edge18" class="edge">
<title>Node8&#45;&gt;Node7</title>
<path fill="none" stroke="#191970" d="M151.2595,-235.2548C161.8616,-211.7656 182.1744,-166.7623 193.7468,-141.1235"/>
<polygon fill="#191970" stroke="#191970" points="197.0601,-142.2903 197.984,-131.7358 190.6799,-139.4105 197.0601,-142.2903"/>
</g>
<!-- Node9 -->
<g id="node10" class="node">
<title>Node9</title>
<g id="a_node10"><a xlink:href="Texture__Actor_8h.html" target="_top" xlink:title="Texture_Actor.h">
<polygon fill="none" stroke="#000000" points="30.3784,-174 30.3784,-193 116.3784,-193 116.3784,-174 30.3784,-174"/>
<text text-anchor="middle" x="73.3784" y="-181" font-family="Helvetica,sans-Serif" font-size="10.00" fill="#000000">Texture_Actor.h</text>
</a>
</g>
</g>
<!-- Node8&#45;&gt;Node9 -->
<g id="edge13" class="edge">
<title>Node8&#45;&gt;Node9</title>
<path fill="none" stroke="#191970" d="M128.2674,-235.2967C117.0979,-224.7564 102.2344,-210.7303 90.7917,-199.9323"/>
<polygon fill="#191970" stroke="#191970" points="93.179,-197.3727 83.5038,-193.055 88.3747,-202.4638 93.179,-197.3727"/>
</g>
<!-- Node10 -->
<g id="node11" class="node">
<title>Node10</title>
<polygon fill="none" stroke="#bfbfbf" points="1030.3784,-174 1030.3784,-193 1110.3784,-193 1110.3784,-174 1030.3784,-174"/>
<text text-anchor="middle" x="1070.3784" y="-181" font-family="Helvetica,sans-Serif" font-size="10.00" fill="#000000">box2d/box2d.h</text>
</g>
<!-- Node8&#45;&gt;Node10 -->
<g id="edge20" class="edge">
<title>Node8&#45;&gt;Node10</title>
<path fill="none" stroke="#191970" d="M193.1148,-247.837C360.371,-238.6525 905.0391,-208.3514 983.3784,-199 995.3989,-197.5651 1008.2746,-195.5422 1020.3364,-193.4301"/>
<polygon fill="#191970" stroke="#191970" points="1021.0193,-196.8635 1030.2403,-191.6459 1019.7781,-189.9744 1021.0193,-196.8635"/>
</g>
<!-- Node9&#45;&gt;Node2 -->
<g id="edge14" class="edge">
<title>Node9&#45;&gt;Node2</title>
<path fill="none" stroke="#191970" d="M72.9025,-173.9951C72.6917,-158.5441 74.7204,-128.0909 92.3784,-112 119.8057,-87.0068 213.462,-75.4285 283.4775,-70.1751"/>
<polygon fill="#191970" stroke="#191970" points="283.9024,-73.6537 293.6254,-69.445 283.4,-66.6717 283.9024,-73.6537"/>
</g>
<!-- Node9&#45;&gt;Node3 -->
<g id="edge17" class="edge">
<title>Node9&#45;&gt;Node3</title>
<path fill="none" stroke="#191970" d="M71.2956,-173.7867C66.6863,-149.3087 58.6744,-84.9864 94.3784,-56 120.9045,-34.4647 349.5429,-17.9067 439.3646,-12.1763"/>
<polygon fill="#191970" stroke="#191970" points="439.5995,-15.6686 449.3598,-11.5469 439.1596,-8.6824 439.5995,-15.6686"/>
</g>
<!-- Node9&#45;&gt;Node4 -->
<g id="edge15" class="edge">
<title>Node9&#45;&gt;Node4</title>
<path fill="none" stroke="#191970" d="M81.5034,-173.8906C89.2426,-164.7376 101.0772,-150.7409 110.5056,-139.59"/>
<polygon fill="#191970" stroke="#191970" points="113.3549,-141.6409 117.1389,-131.7449 108.0095,-137.1213 113.3549,-141.6409"/>
</g>
<!-- Node9&#45;&gt;Node7 -->
<g id="edge16" class="edge">
<title>Node9&#45;&gt;Node7</title>
<path fill="none" stroke="#191970" d="M93.5347,-173.8906C114.9294,-163.6908 148.9404,-147.4763 173.2486,-135.8875"/>
<polygon fill="#191970" stroke="#191970" points="174.8432,-139.0047 182.3637,-131.5419 171.8308,-132.686 174.8432,-139.0047"/>
</g>
<!-- Node11&#45;&gt;Node2 -->
<g id="edge22" class="edge">
<title>Node11&#45;&gt;Node2</title>
<path fill="none" stroke="#191970" d="M514.6602,-235.2357C510.7749,-203.2145 500.3871,-130.4563 484.3784,-112 470.4094,-95.8952 450.1228,-85.398 430.2438,-78.5682"/>
<polygon fill="#191970" stroke="#191970" points="431.1371,-75.18 420.5472,-75.5016 429.0263,-81.8541 431.1371,-75.18"/>
</g>
<!-- Node12 -->
<g id="node13" class="node">
<title>Node12</title>
<polygon fill="none" stroke="#bfbfbf" points="674.3784,-112.5 674.3784,-131.5 744.3784,-131.5 744.3784,-112.5 674.3784,-112.5"/>
<text text-anchor="middle" x="709.3784" y="-119.5" font-family="Helvetica,sans-Serif" font-size="10.00" fill="#000000">glm/glm.hpp</text>
</g>
<!-- Node11&#45;&gt;Node12 -->
<g id="edge23" class="edge">
<title>Node11&#45;&gt;Node12</title>
<path fill="none" stroke="#191970" d="M515.4887,-235.2256C515.2902,-216.7996 517.894,-186.0549 535.3784,-168 544.4597,-158.6224 615.8313,-141.886 664.2989,-131.3943"/>
<polygon fill="#191970" stroke="#191970" points="665.2205,-134.7762 674.2631,-129.2551 663.7512,-127.9322 665.2205,-134.7762"/>
</g>
<!-- Node13 -->
<g id="node14" class="node">
<title>Node13</title>
<polygon fill="none" stroke="#bfbfbf" points="544.3784,-174 544.3784,-193 688.3784,-193 688.3784,-174 544.3784,-174"/>
<text text-anchor="middle" x="616.3784" y="-181" font-family="Helvetica,sans-Serif" font-size="10.00" fill="#000000">glm/gtc/matrix_transform.hpp</text>
</g>
<!-- Node11&#45;&gt;Node13 -->
<g id="edge24" class="edge">
<title>Node11&#45;&gt;Node13</title>
<path fill="none" stroke="#191970" d="M539.07,-235.2967C555.4068,-224.351 577.3543,-209.6462 593.6903,-198.701"/>
<polygon fill="#191970" stroke="#191970" points="595.7577,-201.5289 602.1173,-193.055 591.8614,-195.7135 595.7577,-201.5289"/>
</g>
<!-- Node14&#45;&gt;Node2 -->
<g id="edge26" class="edge">
<title>Node14&#45;&gt;Node2</title>
<path fill="none" stroke="#191970" d="M377.3645,-168.1204C371.0297,-158.3048 363.6888,-145.0194 360.3784,-132 356.4848,-116.6869 358.2162,-98.7833 360.6534,-85.4896"/>
<polygon fill="#191970" stroke="#191970" points="364.1072,-86.0739 362.7586,-75.5652 357.2596,-84.6212 364.1072,-86.0739"/>
</g>
<!-- Node14&#45;&gt;Node12 -->
<g id="edge28" class="edge">
<title>Node14&#45;&gt;Node12</title>
<path fill="none" stroke="#191970" d="M450.5434,-171.9894C505.7056,-161.7135 588.4631,-146.1457 660.3784,-132 661.6483,-131.7502 662.9364,-131.4956 664.2363,-131.2376"/>
<polygon fill="#191970" stroke="#191970" points="665.2091,-134.6124 674.3268,-129.2163 663.8341,-127.7487 665.2091,-134.6124"/>
</g>
<!-- Node15 -->
<g id="node16" class="node">
<title>Node15</title>
<polygon fill="none" stroke="#bfbfbf" points="1059.3784,-56.5 1059.3784,-75.5 1123.3784,-75.5 1123.3784,-56.5 1059.3784,-56.5"/>
<text text-anchor="middle" x="1091.3784" y="-63.5" font-family="Helvetica,sans-Serif" font-size="10.00" fill="#000000">glad/glad.h</text>
</g>
<!-- Node14&#45;&gt;Node15 -->
<g id="edge27" class="edge">
<title>Node14&#45;&gt;Node15</title>
<path fill="none" stroke="#191970" d="M437.4288,-168.4901C492.4178,-152.2156 584.4899,-126.6142 665.3784,-112 815.7831,-84.8262 855.4908,-93.0342 1007.3784,-76 1020.8524,-74.4889 1035.5325,-72.7672 1048.7966,-71.1832"/>
<polygon fill="#191970" stroke="#191970" points="1049.5687,-74.6158 1059.0804,-69.9492 1048.7346,-67.6657 1049.5687,-74.6158"/>
</g>
<!-- Node16 -->
<g id="node17" class="node">
<title>Node16</title>
<polygon fill="none" stroke="#bfbfbf" points="369.3784,-112.5 369.3784,-131.5 475.3784,-131.5 475.3784,-112.5 369.3784,-112.5"/>
<text text-anchor="middle" x="422.3784" y="-119.5" font-family="Helvetica,sans-Serif" font-size="10.00" fill="#000000">glm/gtc/type_ptr.hpp</text>
</g>
<!-- Node14&#45;&gt;Node16 -->
<g id="edge29" class="edge">
<title>Node14&#45;&gt;Node16</title>
<path fill="none" stroke="#191970" d="M396.7829,-168.2977C401.4041,-159.9388 407.1753,-149.4997 412.0673,-140.6509"/>
<polygon fill="#191970" stroke="#191970" points="415.1593,-142.292 416.9346,-131.8469 409.0332,-138.9051 415.1593,-142.292"/>
</g>
<!-- Node17&#45;&gt;Node2 -->
<g id="edge37" class="edge">
<title>Node17&#45;&gt;Node2</title>
<path fill="none" stroke="#191970" d="M808.5859,-235.4125C786.8217,-226.0916 759.3217,-213.2166 736.3784,-199 717.5568,-187.3373 716.9686,-178.3197 697.3784,-168 671.3937,-154.3118 492.6646,-102.3797 408.7354,-78.3433"/>
<polygon fill="#191970" stroke="#191970" points="409.5637,-74.94 398.9867,-75.5548 407.6385,-81.67 409.5637,-74.94"/>
</g>
<!-- Node17&#45;&gt;Node3 -->
<g id="edge51" class="edge">
<title>Node17&#45;&gt;Node3</title>
<path fill="none" stroke="#191970" d="M839.8418,-235.3358C831.0521,-216.7293 813.6724,-185.5047 789.3784,-168 742.819,-134.4522 717.6201,-155.7495 665.3784,-132 599.2056,-101.9172 529.2098,-51.4058 495.6475,-25.8434"/>
<polygon fill="#191970" stroke="#191970" points="497.613,-22.9397 487.5515,-19.6206 493.3471,-28.4897 497.613,-22.9397"/>
</g>
<!-- Node17&#45;&gt;Node12 -->
<g id="edge34" class="edge">
<title>Node17&#45;&gt;Node12</title>
<path fill="none" stroke="#191970" d="M845.8213,-235.2008C844.37,-217.0352 839.358,-186.8346 822.3784,-168 812.3241,-156.8473 778.7452,-143.9382 750.7835,-134.6392"/>
<polygon fill="#191970" stroke="#191970" points="751.7675,-131.2788 741.1752,-131.5094 749.5994,-137.9346 751.7675,-131.2788"/>
</g>
<!-- Node17&#45;&gt;Node13 -->
<g id="edge35" class="edge">
<title>Node17&#45;&gt;Node13</title>
<path fill="none" stroke="#191970" d="M794.7619,-235.4639C753.7895,-223.5284 697.2065,-207.0456 658.8349,-195.8678"/>
<polygon fill="#191970" stroke="#191970" points="659.5883,-192.4418 649.0085,-193.0053 657.6305,-199.1625 659.5883,-192.4418"/>
</g>
<!-- Node17&#45;&gt;Node15 -->
<g id="edge33" class="edge">
<title>Node17&#45;&gt;Node15</title>
<path fill="none" stroke="#191970" d="M908.4803,-245.4296C984.2303,-238.29 1106.9475,-223.353 1145.3784,-199 1182.501,-175.4761 1216.1576,-148.9595 1192.3784,-112 1179.4186,-91.8568 1155.2291,-80.4296 1133.7721,-74.0032"/>
<polygon fill="#191970" stroke="#191970" points="1134.406,-70.5489 1123.8386,-71.3115 1132.5751,-77.3052 1134.406,-70.5489"/>
</g>
<!-- Node18 -->
<g id="node19" class="node">
<title>Node18</title>
<polygon fill="none" stroke="#bfbfbf" points="1137.3784,-112.5 1137.3784,-131.5 1183.3784,-131.5 1183.3784,-112.5 1137.3784,-112.5"/>
<text text-anchor="middle" x="1160.3784" y="-119.5" font-family="Helvetica,sans-Serif" font-size="10.00" fill="#000000">cstdint</text>
</g>
<!-- Node17&#45;&gt;Node18 -->
<g id="edge31" class="edge">
<title>Node17&#45;&gt;Node18</title>
<path fill="none" stroke="#191970" d="M908.4709,-245.0317C978.4058,-237.8096 1086.591,-223.1064 1119.3784,-199 1138.5665,-184.8923 1149.6517,-159.062 1155.3485,-141.2342"/>
<polygon fill="#191970" stroke="#191970" points="1158.725,-142.1576 1158.1623,-131.5778 1152.0044,-140.1994 1158.725,-142.1576"/>
</g>
<!-- Node19 -->
<g id="node20" class="node">
<title>Node19</title>
<polygon fill="none" stroke="#bfbfbf" points="1204.8784,-174 1204.8784,-193 1247.8784,-193 1247.8784,-174 1204.8784,-174"/>
<text text-anchor="middle" x="1226.3784" y="-181" font-family="Helvetica,sans-Serif" font-size="10.00" fill="#000000">cstdio</text>
</g>
<!-- Node17&#45;&gt;Node19 -->
<g id="edge32" class="edge">
<title>Node17&#45;&gt;Node19</title>
<path fill="none" stroke="#191970" d="M908.6035,-246.038C978.3,-239.9286 1094.1172,-226.4289 1190.3784,-199 1192.5584,-198.3788 1194.7807,-197.6568 1196.9973,-196.8708"/>
<polygon fill="#191970" stroke="#191970" points="1198.5006,-200.0407 1206.5302,-193.1287 1195.9428,-193.5248 1198.5006,-200.0407"/>
</g>
<!-- Node20 -->
<g id="node21" class="node">
<title>Node20</title>
<polygon fill="none" stroke="#bfbfbf" points="744.8784,-174 744.8784,-193 779.8784,-193 779.8784,-174 744.8784,-174"/>
<text text-anchor="middle" x="762.3784" y="-181" font-family="Helvetica,sans-Serif" font-size="10.00" fill="#000000">map</text>
</g>
<!-- Node17&#45;&gt;Node20 -->
<g id="edge36" class="edge">
<title>Node17&#45;&gt;Node20</title>
<path fill="none" stroke="#191970" d="M827.3175,-235.2967C813.8487,-224.5537 795.8399,-210.1895 782.2036,-199.3129"/>
<polygon fill="#191970" stroke="#191970" points="784.358,-196.5544 774.3578,-193.055 779.9931,-202.0268 784.358,-196.5544"/>
</g>
<!-- Node21 -->
<g id="node22" class="node">
<title>Node21</title>
<g id="a_node22"><a xlink:href="sprite_8h.html" target="_top" xlink:title="../Graphics/sprite.h">
<polygon fill="none" stroke="#000000" points="874.3784,-174 874.3784,-193 974.3784,-193 974.3784,-174 874.3784,-174"/>
<text text-anchor="middle" x="924.3784" y="-181" font-family="Helvetica,sans-Serif" font-size="10.00" fill="#000000">../Graphics/sprite.h</text>
</a>
</g>
</g>
<!-- Node17&#45;&gt;Node21 -->
<g id="edge38" class="edge">
<title>Node17&#45;&gt;Node21</title>
<path fill="none" stroke="#191970" d="M864.0778,-235.2967C876.4666,-224.6551 892.9919,-210.4602 905.6099,-199.6217"/>
<polygon fill="#191970" stroke="#191970" points="907.9496,-202.2259 913.2547,-193.055 903.3884,-196.9159 907.9496,-202.2259"/>
</g>
<!-- Node23 -->
<g id="node24" class="node">
<title>Node23</title>
<g id="a_node24"><a xlink:href="texture_8h.html" target="_top" xlink:title="texture.h">
<polygon fill="none" stroke="#000000" points="1063.8784,-112.5 1063.8784,-131.5 1118.8784,-131.5 1118.8784,-112.5 1063.8784,-112.5"/>
<text text-anchor="middle" x="1091.3784" y="-119.5" font-family="Helvetica,sans-Serif" font-size="10.00" fill="#000000">texture.h</text>
</a>
</g>
</g>
<!-- Node17&#45;&gt;Node23 -->
<g id="edge50" class="edge">
<title>Node17&#45;&gt;Node23</title>
<path fill="none" stroke="#191970" d="M898.2567,-235.428C924.6623,-226.6721 956.7262,-214.3285 983.3784,-199 1002.2724,-188.1335 1003.8032,-180.8909 1021.3784,-168 1036.1458,-157.1686 1053.3243,-145.8617 1066.9678,-137.1684"/>
<polygon fill="#191970" stroke="#191970" points="1069.1897,-139.9048 1075.7756,-131.6055 1065.4517,-133.9864 1069.1897,-139.9048"/>
</g>
<!-- Node21&#45;&gt;Node3 -->
<g id="edge47" class="edge">
<title>Node21&#45;&gt;Node3</title>
<path fill="none" stroke="#191970" d="M897.5016,-173.928C870.5929,-164.132 828.1571,-148.1032 792.3784,-132 774.615,-124.0051 771.0117,-120.2779 753.3784,-112 696.0612,-85.0924 681.7795,-77.9272 622.3784,-56 585.0146,-42.2076 541.3696,-28.8936 511.3993,-20.1698"/>
<polygon fill="#191970" stroke="#191970" points="511.9799,-16.6945 501.4014,-17.2823 510.0375,-23.4197 511.9799,-16.6945"/>
</g>
<!-- Node21&#45;&gt;Node6 -->
<g id="edge43" class="edge">
<title>Node21&#45;&gt;Node6</title>
<path fill="none" stroke="#191970" d="M930.4015,-173.9384C936.5723,-163.8255 946.1234,-147.2541 952.3784,-132 958.5986,-116.8307 963.6182,-98.9165 966.9325,-85.5821"/>
<polygon fill="#191970" stroke="#191970" points="970.3931,-86.1579 969.3042,-75.6191 963.5834,-84.5367 970.3931,-86.1579"/>
</g>
<!-- Node21&#45;&gt;Node7 -->
<g id="edge41" class="edge">
<title>Node21&#45;&gt;Node7</title>
<path fill="none" stroke="#191970" d="M874.0986,-177.2902C848.7196,-174.2669 817.4397,-170.7095 789.3784,-168 587.6353,-148.5201 346.2735,-131.621 247.6832,-124.9904"/>
<polygon fill="#191970" stroke="#191970" points="247.6953,-121.4835 237.4836,-124.3069 247.2271,-128.4678 247.6953,-121.4835"/>
</g>
<!-- Node21&#45;&gt;Node12 -->
<g id="edge42" class="edge">
<title>Node21&#45;&gt;Node12</title>
<path fill="none" stroke="#191970" d="M890.7847,-173.8906C853.4701,-163.2169 793.1292,-145.9566 752.3898,-134.3033"/>
<polygon fill="#191970" stroke="#191970" points="753.3132,-130.9271 742.7363,-131.5419 751.3881,-137.6572 753.3132,-130.9271"/>
</g>
<!-- Node21&#45;&gt;Node18 -->
<g id="edge39" class="edge">
<title>Node21&#45;&gt;Node18</title>
<path fill="none" stroke="#191970" d="M964.8095,-173.9948C1003.9988,-164.6257 1065.33,-149.5538 1127.389,-132.1725"/>
<polygon fill="#191970" stroke="#191970" points="1128.677,-135.4459 1137.3521,-129.3636 1126.7775,-128.7086 1128.677,-135.4459"/>
</g>
<!-- Node22 -->
<g id="node23" class="node">
<title>Node22</title>
<polygon fill="none" stroke="#bfbfbf" points="999.3784,-112.5 999.3784,-131.5 1045.3784,-131.5 1045.3784,-112.5 999.3784,-112.5"/>
<text text-anchor="middle" x="1022.3784" y="-119.5" font-family="Helvetica,sans-Serif" font-size="10.00" fill="#000000">stdio.h</text>
</g>
<!-- Node21&#45;&gt;Node22 -->
<g id="edge40" class="edge">
<title>Node21&#45;&gt;Node22</title>
<path fill="none" stroke="#191970" d="M939.6909,-173.8906C955.4408,-164.0067 980.1907,-148.4749 998.5121,-136.9773"/>
<polygon fill="#191970" stroke="#191970" points="1000.5636,-139.8221 1007.1734,-131.5419 996.8427,-133.8929 1000.5636,-139.8221"/>
</g>
<!-- Node21&#45;&gt;Node23 -->
<g id="edge44" class="edge">
<title>Node21&#45;&gt;Node23</title>
<path fill="none" stroke="#191970" d="M950.4722,-173.8906C978.782,-163.4652 1024.1552,-146.7559 1055.7376,-135.1252"/>
<polygon fill="#191970" stroke="#191970" points="1057.2935,-138.2821 1065.4679,-131.5419 1054.8744,-131.7133 1057.2935,-138.2821"/>
</g>
<!-- Node24 -->
<g id="node25" class="node">
<title>Node24</title>
<polygon fill="none" stroke="#bfbfbf" points="800.8784,-112.5 800.8784,-131.5 841.8784,-131.5 841.8784,-112.5 800.8784,-112.5"/>
<text text-anchor="middle" x="821.3784" y="-119.5" font-family="Helvetica,sans-Serif" font-size="10.00" fill="#000000">string</text>
</g>
<!-- Node21&#45;&gt;Node24 -->
<g id="edge48" class="edge">
<title>Node21&#45;&gt;Node24</title>
<path fill="none" stroke="#191970" d="M908.2847,-173.8906C891.6556,-163.9616 865.4808,-148.333 846.199,-136.8201"/>
<polygon fill="#191970" stroke="#191970" points="847.7394,-133.6634 837.3591,-131.5419 844.1508,-139.6736 847.7394,-133.6634"/>
</g>
<!-- Node25 -->
<g id="node26" class="node">
<title>Node25</title>
<polygon fill="none" stroke="#bfbfbf" points="859.8784,-112.5 859.8784,-131.5 942.8784,-131.5 942.8784,-112.5 859.8784,-112.5"/>
<text text-anchor="middle" x="901.3784" y="-119.5" font-family="Helvetica,sans-Serif" font-size="10.00" fill="#000000">unordered_map</text>
</g>
<!-- Node21&#45;&gt;Node25 -->
<g id="edge49" class="edge">
<title>Node21&#45;&gt;Node25</title>
<path fill="none" stroke="#191970" d="M920.7847,-173.8906C917.5294,-165.1862 912.6359,-152.1015 908.5774,-141.2494"/>
<polygon fill="#191970" stroke="#191970" points="911.804,-139.8852 905.0228,-131.7449 905.2475,-142.3373 911.804,-139.8852"/>
</g>
<!-- Node23&#45;&gt;Node6 -->
<g id="edge45" class="edge">
<title>Node23&#45;&gt;Node6</title>
<path fill="none" stroke="#191970" d="M1070.7497,-112.3733C1051.4866,-103.3838 1022.5298,-89.8706 1000.8365,-79.7471"/>
<polygon fill="#191970" stroke="#191970" points="1002.2799,-76.5584 991.738,-75.5011 999.3197,-82.9017 1002.2799,-76.5584"/>
</g>
<!-- Node23&#45;&gt;Node15 -->
<g id="edge46" class="edge">
<title>Node23&#45;&gt;Node15</title>
<path fill="none" stroke="#191970" d="M1091.3784,-112.2455C1091.3784,-104.9382 1091.3784,-94.6944 1091.3784,-85.7046"/>
<polygon fill="#191970" stroke="#191970" points="1094.8785,-85.6426 1091.3784,-75.6427 1087.8785,-85.6427 1094.8785,-85.6426"/>
</g>
<!-- Node26&#45;&gt;Node2 -->
<g id="edge60" class="edge">
<title>Node26&#45;&gt;Node2</title>
<path fill="none" stroke="#191970" d="M1343.6319,-235.3308C1332.8337,-217.5667 1313.0878,-188.0278 1290.3784,-168 1252.7546,-134.8188 1240.4866,-126.2177 1192.3784,-112 1122.3109,-91.2926 642.2567,-74.4716 447.3552,-68.4176"/>
<polygon fill="#191970" stroke="#191970" points="447.2744,-64.9136 437.1711,-68.1031 447.0582,-71.9102 447.2744,-64.9136"/>
</g>
<!-- Node26&#45;&gt;Node3 -->
<g id="edge62" class="edge">
<title>Node26&#45;&gt;Node3</title>
<path fill="none" stroke="#191970" d="M1348.9638,-235.2777C1344.3327,-217.4626 1334.5937,-187.8747 1317.3784,-168 1254.4486,-95.349 1223.9965,-85.0594 1132.3784,-56 1015.2076,-18.8357 631.4039,-11.6502 511.5029,-10.3019"/>
<polygon fill="#191970" stroke="#191970" points="511.4188,-6.8009 501.3824,-10.1951 511.3449,-13.8005 511.4188,-6.8009"/>
</g>
<!-- Node26&#45;&gt;Node10 -->
<g id="edge61" class="edge">
<title>Node26&#45;&gt;Node10</title>
<path fill="none" stroke="#191970" d="M1290.1432,-235.7136C1239.1119,-223.5892 1167.8136,-206.6495 1120.4258,-195.3907"/>
<polygon fill="#191970" stroke="#191970" points="1121.2308,-191.9846 1110.6926,-193.0782 1119.6127,-198.795 1121.2308,-191.9846"/>
</g>
<!-- Node26&#45;&gt;Node12 -->
<g id="edge59" class="edge">
<title>Node26&#45;&gt;Node12</title>
<path fill="none" stroke="#191970" d="M1337.3904,-235.3703C1315.5544,-213.7112 1275.6161,-175.6288 1257.3784,-168 1161.7638,-128.0048 895.5177,-142.201 792.3784,-132 780.0789,-130.7835 766.7781,-129.2698 754.503,-127.7913"/>
<polygon fill="#191970" stroke="#191970" points="754.8288,-124.3051 744.4777,-126.5648 753.9787,-131.2533 754.8288,-124.3051"/>
</g>
<!-- Node26&#45;&gt;Node19 -->
<g id="edge58" class="edge">
<title>Node26&#45;&gt;Node19</title>
<path fill="none" stroke="#191970" d="M1324.1016,-235.4639C1302.9604,-224.2222 1274.2326,-208.9463 1253.4,-197.8686"/>
<polygon fill="#191970" stroke="#191970" points="1254.9121,-194.7087 1244.4395,-193.1039 1251.6256,-200.8892 1254.9121,-194.7087"/>
</g>
<!-- Node27 -->
<g id="node28" class="node">
<title>Node27</title>
<polygon fill="none" stroke="#bfbfbf" points="1762.8784,-174 1762.8784,-193 1897.8784,-193 1897.8784,-174 1762.8784,-174"/>
<text text-anchor="middle" x="1830.3784" y="-181" font-family="Helvetica,sans-Serif" font-size="10.00" fill="#000000">box2d/b2_polygon_shape.h</text>
</g>
<!-- Node26&#45;&gt;Node27 -->
<g id="edge53" class="edge">
<title>Node26&#45;&gt;Node27</title>
<path fill="none" stroke="#191970" d="M1414.403,-243.9154C1493.3718,-235.2153 1633.9095,-218.6707 1753.3784,-199 1760.5937,-197.812 1768.1648,-196.4416 1775.6261,-195.0173"/>
<polygon fill="#191970" stroke="#191970" points="1776.5443,-198.4042 1785.6888,-193.0538 1775.2036,-191.5338 1776.5443,-198.4042"/>
</g>
<!-- Node28 -->
<g id="node29" class="node">
<title>Node28</title>
<polygon fill="none" stroke="#bfbfbf" points="1916.3784,-174 1916.3784,-193 2020.3784,-193 2020.3784,-174 1916.3784,-174"/>
<text text-anchor="middle" x="1968.3784" y="-181" font-family="Helvetica,sans-Serif" font-size="10.00" fill="#000000">box2d/b2_settings.h</text>
</g>
<!-- Node26&#45;&gt;Node28 -->
<g id="edge54" class="edge">
<title>Node26&#45;&gt;Node28</title>
<path fill="none" stroke="#191970" d="M1414.3884,-247.9114C1517.3967,-242.9053 1730.0051,-229.5715 1907.3784,-199 1913.104,-198.0132 1919.0827,-196.7676 1924.9624,-195.4133"/>
<polygon fill="#191970" stroke="#191970" points="1925.8046,-198.8106 1934.7018,-193.0581 1924.1592,-192.0067 1925.8046,-198.8106"/>
</g>
<!-- Node29 -->
<g id="node30" class="node">
<title>Node29</title>
<polygon fill="none" stroke="#bfbfbf" points="1380.3784,-174 1380.3784,-193 1474.3784,-193 1474.3784,-174 1380.3784,-174"/>
<text text-anchor="middle" x="1427.3784" y="-181" font-family="Helvetica,sans-Serif" font-size="10.00" fill="#000000">box2d/b2_types.h</text>
</g>
<!-- Node26&#45;&gt;Node29 -->
<g id="edge55" class="edge">
<title>Node26&#45;&gt;Node29</title>
<path fill="none" stroke="#191970" d="M1369.3971,-235.2967C1381.1959,-224.7564 1396.8968,-210.7303 1408.9841,-199.9323"/>
<polygon fill="#191970" stroke="#191970" points="1411.5567,-202.3273 1416.6825,-193.055 1406.8932,-197.107 1411.5567,-202.3273"/>
</g>
<!-- Node30 -->
<g id="node31" class="node">
<title>Node30</title>
<polygon fill="none" stroke="#bfbfbf" points="1492.8784,-174 1492.8784,-193 1585.8784,-193 1585.8784,-174 1492.8784,-174"/>
<text text-anchor="middle" x="1539.3784" y="-181" font-family="Helvetica,sans-Serif" font-size="10.00" fill="#000000">box2d/b2_world.h</text>
</g>
<!-- Node26&#45;&gt;Node30 -->
<g id="edge56" class="edge">
<title>Node26&#45;&gt;Node30</title>
<path fill="none" stroke="#191970" d="M1394.3449,-235.4639C1427.0902,-223.7316 1472.0992,-207.6054 1503.2536,-196.4431"/>
<polygon fill="#191970" stroke="#191970" points="1504.6153,-199.6732 1512.8487,-193.0053 1502.2542,-193.0834 1504.6153,-199.6732"/>
</g>
<!-- Node31 -->
<g id="node32" class="node">
<title>Node31</title>
<polygon fill="none" stroke="#bfbfbf" points="1604.3784,-174 1604.3784,-193 1744.3784,-193 1744.3784,-174 1604.3784,-174"/>
<text text-anchor="middle" x="1674.3784" y="-181" font-family="Helvetica,sans-Serif" font-size="10.00" fill="#000000">box2d/b2_world_callbacks.h</text>
</g>
<!-- Node26&#45;&gt;Node31 -->
<g id="edge57" class="edge">
<title>Node26&#45;&gt;Node31</title>
<path fill="none" stroke="#191970" d="M1414.4632,-237.5817C1473.597,-225.2775 1561.7972,-206.9253 1618.7075,-195.0837"/>
<polygon fill="#191970" stroke="#191970" points="1619.5297,-198.4877 1628.607,-193.0239 1618.1036,-191.6345 1619.5297,-198.4877"/>
</g>
</g>
</svg>
        <g id="navigator" transform="translate(0 0)" fill="#404254">
                <rect fill="#f2f5e9" fill-opacity="0.5" stroke="#606060" stroke-width=".5" x="0" y="0" width="60" height="60"/>
                <use id="zoomplus" xlink:href="#zoomPlus" x="17" y="9" onmousedown="handleZoom(evt,'in')"/>
                <use id="zoomminus" xlink:href="#zoomMin" x="42" y="9" onmousedown="handleZoom(evt,'out')"/>
                <use id="reset" xlink:href="#resetDef" x="30" y="36" onmousedown="handleReset()"/>
                <g id="arrowUp" xlink:href="#dirArrow" transform="translate(30 24)" onmousedown="handlePan(0,-1)">
                  <use xlink:href="#rim" fill="#404040">
                        <set attributeName="fill" to="#808080" begin="arrowUp.mouseover" end="arrowUp.mouseout"/>
                  </use>
                  <path fill="none" stroke="white" stroke-width="1.5" d="M0,-3.0v7 M-2.5,-0.5L0,-3.0L2.5,-0.5"/>
                </g>
                <g id="arrowRight" xlink:href="#dirArrow" transform="rotate(90) translate(36 -43)" onmousedown="handlePan(1,0)">
                  <use xlink:href="#rim" fill="#404040">
                        <set attributeName="fill" to="#808080" begin="arrowRight.mouseover" end="arrowRight.mouseout"/>
                  </use>
                  <path fill="none" stroke="white" stroke-width="1.5" d="M0,-3.0v7 M-2.5,-0.5L0,-3.0L2.5,-0.5"/>
                </g>
                <g id="arrowDown" xlink:href="#dirArrow" transform="rotate(180) translate(-30 -48)" onmousedown="handlePan(0,1)">
                  <use xlink:href="#rim" fill="#404040">
                        <set attributeName="fill" to="#808080" begin="arrowDown.mouseover" end="arrowDown.mouseout"/>
                  </use>
                  <path fill="none" stroke="white" stroke-width="1.5" d="M0,-3.0v7 M-2.5,-0.5L0,-3.0L2.5,-0.5"/>
                </g>
                <g id="arrowLeft" xlink:href="#dirArrow" transform="rotate(270) translate(-36 17)" onmousedown="handlePan(-1,0)">
                  <use xlink:href="#rim" fill="#404040">
                        <set attributeName="fill" to="#808080" begin="arrowLeft.mouseover" end="arrowLeft.mouseout"/>
                  </use>
                  <path fill="none" stroke="white" stroke-width="1.5" d="M0,-3.0v7 M-2.5,-0.5L0,-3.0L2.5,-0.5"/>
                </g>
        </g>
        <svg viewBox="0 0 15 15" width="100%" height="30px" preserveAspectRatio="xMaxYMin meet">
         <g id="arrow_out" transform="scale(0.3 0.3)">
          <a xlink:href="PickUps__Actor_8cpp__incl_org.svg" target="_base">
           <rect id="button" ry="5" rx="5" y="6" x="6" height="38" width="38"
                fill="#f2f5e9" fill-opacity="0.5" stroke="#606060" stroke-width="1.0"/>
           <path id="arrow"
             d="M 11.500037,31.436501 C 11.940474,20.09759 22.043105,11.32322 32.158766,21.979434 L 37.068811,17.246167 C 37.068811,17.246167 37.088388,32 37.088388,32 L 22.160133,31.978069 C 22.160133,31.978069 26.997745,27.140456 26.997745,27.140456 C 18.528582,18.264221 13.291696,25.230495 11.500037,31.436501 z"
             style="fill:#404040;"/>
          </a>
         </g>
        </svg>
</svg>
