<?xml version="1.0" encoding="UTF-8" standalone="no"?>
<!DOCTYPE svg PUBLIC "-//W3C//DTD SVG 1.1//EN"
 "http://www.w3.org/Graphics/SVG/1.1/DTD/svg11.dtd">
<!-- Generated by graphviz version 2.40.1 (20161225.0304)
 -->
<!-- Title: /mnt/hdd/fnky/C0de/CAPSTONE/clean_build/include/Actors/Player_Actor.h Pages: 1 -->
<svg width="683pt" height="341pt"
 viewBox="0.00 0.00 682.50 341.00" xmlns="http://www.w3.org/2000/svg" xmlns:xlink="http://www.w3.org/1999/xlink">
<g id="graph0" class="graph" transform="scale(1 1) rotate(0) translate(4 337)">
<title>/mnt/hdd/fnky/C0de/CAPSTONE/clean_build/include/Actors/Player_Actor.h</title>
<!-- Node0 -->
<g id="node1" class="node">
<title>Node0</title>
<polygon fill="#bfbfbf" stroke="#000000" points="256.5,-280.5 256.5,-332.5 383.5,-332.5 383.5,-280.5 256.5,-280.5"/>
<text text-anchor="start" x="264.5" y="-320.5" font-family="Helvetica,sans-Serif" font-size="10.00" fill="#000000">/mnt/hdd/fnky/C0de</text>
<text text-anchor="start" x="264.5" y="-309.5" font-family="Helvetica,sans-Serif" font-size="10.00" fill="#000000">/CAPSTONE/clean_build</text>
<text text-anchor="start" x="264.5" y="-298.5" font-family="Helvetica,sans-Serif" font-size="10.00" fill="#000000">/include/Actors/Player</text>
<text text-anchor="middle" x="320" y="-287.5" font-family="Helvetica,sans-Serif" font-size="10.00" fill="#000000">_Actor.h</text>
</g>
<!-- Node1 -->
<g id="node2" class="node">
<title>Node1</title>
<g id="a_node2"><a xlink:href="Components_2Component_8h.html" target="_top" xlink:title="../Components/Component.h">
<polygon fill="none" stroke="#000000" points="134.5,-56.5 134.5,-75.5 277.5,-75.5 277.5,-56.5 134.5,-56.5"/>
<text text-anchor="middle" x="206" y="-63.5" font-family="Helvetica,sans-Serif" font-size="10.00" fill="#000000">../Components/Component.h</text>
</a>
</g>
</g>
<!-- Node0&#45;&gt;Node1 -->
<g id="edge1" class="edge">
<title>Node0&#45;&gt;Node1</title>
<path fill="none" stroke="#191970" d="M284.9425,-280.3888C258.5302,-258.6951 223.7644,-225.4135 205,-188 188.4564,-155.0145 194.8931,-110.4222 200.694,-85.2979"/>
<polygon fill="#191970" stroke="#191970" points="204.1074,-86.0752 203.151,-75.5236 197.3186,-84.3686 204.1074,-86.0752"/>
</g>
<!-- Node2 -->
<g id="node3" class="node">
<title>Node2</title>
<polygon fill="none" stroke="#bfbfbf" points="380,-.5 380,-19.5 432,-19.5 432,-.5 380,-.5"/>
<text text-anchor="middle" x="406" y="-7.5" font-family="Helvetica,sans-Serif" font-size="10.00" fill="#000000">memory</text>
</g>
<!-- Node0&#45;&gt;Node2 -->
<g id="edge19" class="edge">
<title>Node0&#45;&gt;Node2</title>
<path fill="none" stroke="#191970" d="M383.6683,-298.8983C452.6553,-286.6959 553,-255.6081 553,-178 553,-178 553,-178 553,-122 553,-66.3382 485.49,-34.6821 441.9705,-20.0581"/>
<polygon fill="#191970" stroke="#191970" points="442.8719,-16.6716 432.2807,-16.9474 440.7322,-23.3366 442.8719,-16.6716"/>
</g>
<!-- Node3 -->
<g id="node4" class="node">
<title>Node3</title>
<g id="a_node4"><a xlink:href="Actor_8h.html" target="_top" xlink:title="Actor.h">
<polygon fill="none" stroke="#000000" points="61,-112.5 61,-131.5 109,-131.5 109,-112.5 61,-112.5"/>
<text text-anchor="middle" x="85" y="-119.5" font-family="Helvetica,sans-Serif" font-size="10.00" fill="#000000">Actor.h</text>
</a>
</g>
</g>
<!-- Node0&#45;&gt;Node3 -->
<g id="edge3" class="edge">
<title>Node0&#45;&gt;Node3</title>
<path fill="none" stroke="#191970" d="M256.4293,-295.1617C201.8435,-284.1292 128.9007,-265.8593 109,-244 83.3145,-215.7866 81.6564,-168.3754 83.0914,-141.725"/>
<polygon fill="#191970" stroke="#191970" points="86.5863,-141.9222 83.8347,-131.6909 79.6054,-141.405 86.5863,-141.9222"/>
</g>
<!-- Node4 -->
<g id="node5" class="node">
<title>Node4</title>
<polygon fill="none" stroke="#bfbfbf" points="0,-56.5 0,-75.5 44,-75.5 44,-56.5 0,-56.5"/>
<text text-anchor="middle" x="22" y="-63.5" font-family="Helvetica,sans-Serif" font-size="10.00" fill="#000000">vector</text>
</g>
<!-- Node0&#45;&gt;Node4 -->
<g id="edge21" class="edge">
<title>Node0&#45;&gt;Node4</title>
<path fill="none" stroke="#191970" d="M256.2274,-295.6138C197.5755,-284.4557 116.1604,-265.7014 92,-244 44.5374,-201.368 28.8888,-122.4702 24.0346,-85.7525"/>
<polygon fill="#191970" stroke="#191970" points="27.5073,-85.3153 22.8514,-75.7983 20.5563,-86.1416 27.5073,-85.3153"/>
</g>
<!-- Node6 -->
<g id="node7" class="node">
<title>Node6</title>
<g id="a_node7"><a xlink:href="PickUps__Actor_8h.html" target="_top" xlink:title="PickUps_Actor.h">
<polygon fill="none" stroke="#000000" points="274.5,-224.5 274.5,-243.5 365.5,-243.5 365.5,-224.5 274.5,-224.5"/>
<text text-anchor="middle" x="320" y="-231.5" font-family="Helvetica,sans-Serif" font-size="10.00" fill="#000000">PickUps_Actor.h</text>
</a>
</g>
</g>
<!-- Node0&#45;&gt;Node6 -->
<g id="edge7" class="edge">
<title>Node0&#45;&gt;Node6</title>
<path fill="none" stroke="#191970" d="M320,-280.3258C320,-271.5142 320,-261.8397 320,-253.621"/>
<polygon fill="#191970" stroke="#191970" points="323.5001,-253.534 320,-243.534 316.5001,-253.534 323.5001,-253.534"/>
</g>
<!-- Node8 -->
<g id="node9" class="node">
<title>Node8</title>
<polygon fill="none" stroke="#bfbfbf" points="379,-112.5 379,-131.5 449,-131.5 449,-112.5 379,-112.5"/>
<text text-anchor="middle" x="414" y="-119.5" font-family="Helvetica,sans-Serif" font-size="10.00" fill="#000000">glm/fwd.hpp</text>
</g>
<!-- Node0&#45;&gt;Node8 -->
<g id="edge18" class="edge">
<title>Node0&#45;&gt;Node8</title>
<path fill="none" stroke="#191970" d="M358.1892,-280.3428C385.5941,-259.0809 420.3397,-226.3848 436,-188 442.4617,-172.1618 435.0407,-153.648 427.1198,-140.2664"/>
<polygon fill="#191970" stroke="#191970" points="429.8361,-138.0228 421.4551,-131.5413 423.9649,-141.8346 429.8361,-138.0228"/>
</g>
<!-- Node10 -->
<g id="node11" class="node">
<title>Node10</title>
<polygon fill="none" stroke="#bfbfbf" points="581.5,-224.5 581.5,-243.5 674.5,-243.5 674.5,-224.5 581.5,-224.5"/>
<text text-anchor="middle" x="628" y="-231.5" font-family="Helvetica,sans-Serif" font-size="10.00" fill="#000000">box2d/b2_world.h</text>
</g>
<!-- Node0&#45;&gt;Node10 -->
<g id="edge20" class="edge">
<title>Node0&#45;&gt;Node10</title>
<path fill="none" stroke="#191970" d="M383.8178,-291.478C441.2577,-277.9572 524.5418,-258.353 577.4748,-245.8931"/>
<polygon fill="#191970" stroke="#191970" points="578.384,-249.2748 587.316,-243.5766 576.7801,-242.4611 578.384,-249.2748"/>
</g>
<!-- Node1&#45;&gt;Node2 -->
<g id="edge2" class="edge">
<title>Node1&#45;&gt;Node2</title>
<path fill="none" stroke="#191970" d="M240.3812,-56.3733C276.5202,-46.2543 333.13,-30.4036 369.9018,-20.1075"/>
<polygon fill="#191970" stroke="#191970" points="371.0279,-23.4269 379.7138,-17.3601 369.1404,-16.6861 371.0279,-23.4269"/>
</g>
<!-- Node3&#45;&gt;Node1 -->
<g id="edge6" class="edge">
<title>Node3&#45;&gt;Node1</title>
<path fill="none" stroke="#191970" d="M105.8006,-112.3733C125.2243,-103.3838 154.4224,-89.8706 176.2964,-79.7471"/>
<polygon fill="#191970" stroke="#191970" points="177.8656,-82.8776 185.4708,-75.5011 174.9255,-76.5249 177.8656,-82.8776"/>
</g>
<!-- Node3&#45;&gt;Node4 -->
<g id="edge4" class="edge">
<title>Node3&#45;&gt;Node4</title>
<path fill="none" stroke="#191970" d="M74.0262,-112.2455C64.8118,-104.0549 51.4468,-92.1749 40.5703,-82.5069"/>
<polygon fill="#191970" stroke="#191970" points="42.6474,-79.6704 32.848,-75.6427 37.9968,-84.9023 42.6474,-79.6704"/>
</g>
<!-- Node5 -->
<g id="node6" class="node">
<title>Node5</title>
<polygon fill="none" stroke="#bfbfbf" points="62,-56.5 62,-75.5 116,-75.5 116,-56.5 62,-56.5"/>
<text text-anchor="middle" x="89" y="-63.5" font-family="Helvetica,sans-Serif" font-size="10.00" fill="#000000">iostream</text>
</g>
<!-- Node3&#45;&gt;Node5 -->
<g id="edge5" class="edge">
<title>Node3&#45;&gt;Node5</title>
<path fill="none" stroke="#191970" d="M85.6967,-112.2455C86.2187,-104.9382 86.9504,-94.6944 87.5925,-85.7046"/>
<polygon fill="#191970" stroke="#191970" points="91.0898,-85.8667 88.3112,-75.6427 84.1076,-85.3679 91.0898,-85.8667"/>
</g>
<!-- Node6&#45;&gt;Node1 -->
<g id="edge8" class="edge">
<title>Node6&#45;&gt;Node1</title>
<path fill="none" stroke="#191970" d="M274.4264,-224.4585C253.8902,-217.7544 231.3103,-206.5427 218,-188 196.27,-157.7278 198.6508,-111.7954 202.3265,-85.785"/>
<polygon fill="#191970" stroke="#191970" points="205.8221,-86.0934 203.9694,-75.6619 198.9125,-84.972 205.8221,-86.0934"/>
</g>
<!-- Node6&#45;&gt;Node2 -->
<g id="edge16" class="edge">
<title>Node6&#45;&gt;Node2</title>
<path fill="none" stroke="#191970" d="M365.591,-225.0976C389.2261,-218.4131 417.0346,-207.0261 436,-188 454.8782,-169.0613 453.0242,-158.2736 458,-132 465.4459,-92.6834 438.8152,-50.521 420.9449,-27.4976"/>
<polygon fill="#191970" stroke="#191970" points="423.6194,-25.2386 414.6142,-19.6567 418.173,-29.6359 423.6194,-25.2386"/>
</g>
<!-- Node6&#45;&gt;Node3 -->
<g id="edge9" class="edge">
<title>Node6&#45;&gt;Node3</title>
<path fill="none" stroke="#191970" d="M284.0498,-224.4702C256.2651,-216.4649 217.2363,-203.8067 185,-188 155.8463,-173.7049 125.0666,-152.3046 105.4827,-137.7785"/>
<polygon fill="#191970" stroke="#191970" points="107.4142,-134.8519 97.3185,-131.6383 103.2067,-140.4463 107.4142,-134.8519"/>
</g>
<!-- Node7 -->
<g id="node8" class="node">
<title>Node7</title>
<g id="a_node8"><a xlink:href="Texture__Actor_8h.html" target="_top" xlink:title="Texture_Actor.h">
<polygon fill="none" stroke="#000000" points="227,-168.5 227,-187.5 313,-187.5 313,-168.5 227,-168.5"/>
<text text-anchor="middle" x="270" y="-175.5" font-family="Helvetica,sans-Serif" font-size="10.00" fill="#000000">Texture_Actor.h</text>
</a>
</g>
</g>
<!-- Node6&#45;&gt;Node7 -->
<g id="edge10" class="edge">
<title>Node6&#45;&gt;Node7</title>
<path fill="none" stroke="#191970" d="M311.2907,-224.2455C304.1927,-216.2958 293.9916,-204.8706 285.505,-195.3656"/>
<polygon fill="#191970" stroke="#191970" points="287.8805,-192.771 278.6095,-187.6427 282.6589,-197.4331 287.8805,-192.771"/>
</g>
<!-- Node6&#45;&gt;Node8 -->
<g id="edge15" class="edge">
<title>Node6&#45;&gt;Node8</title>
<path fill="none" stroke="#191970" d="M365.5016,-224.7777C385.8259,-218.1477 407.8863,-206.9062 420,-188 428.8044,-174.2587 426.0102,-155.4828 421.7674,-141.47"/>
<polygon fill="#191970" stroke="#191970" points="425.0081,-140.1335 418.4087,-131.845 418.3989,-142.4399 425.0081,-140.1335"/>
</g>
<!-- Node9 -->
<g id="node10" class="node">
<title>Node9</title>
<polygon fill="none" stroke="#bfbfbf" points="331,-168.5 331,-187.5 411,-187.5 411,-168.5 331,-168.5"/>
<text text-anchor="middle" x="371" y="-175.5" font-family="Helvetica,sans-Serif" font-size="10.00" fill="#000000">box2d/box2d.h</text>
</g>
<!-- Node6&#45;&gt;Node9 -->
<g id="edge17" class="edge">
<title>Node6&#45;&gt;Node9</title>
<path fill="none" stroke="#191970" d="M328.8835,-224.2455C336.1966,-216.2155 346.7391,-204.6394 355.4467,-195.0781"/>
<polygon fill="#191970" stroke="#191970" points="358.0727,-197.3928 362.2183,-187.6427 352.8972,-192.6795 358.0727,-197.3928"/>
</g>
<!-- Node7&#45;&gt;Node1 -->
<g id="edge11" class="edge">
<title>Node7&#45;&gt;Node1</title>
<path fill="none" stroke="#191970" d="M264.5434,-168.4509C253.9162,-149.8533 230.2811,-108.4919 216.5122,-84.3964"/>
<polygon fill="#191970" stroke="#191970" points="219.4431,-82.4708 211.4428,-75.5249 213.3654,-85.9438 219.4431,-82.4708"/>
</g>
<!-- Node7&#45;&gt;Node2 -->
<g id="edge14" class="edge">
<title>Node7&#45;&gt;Node2</title>
<path fill="none" stroke="#191970" d="M277.7016,-168.4862C299.6654,-141.3545 362.8688,-63.2798 391.5439,-27.8576"/>
<polygon fill="#191970" stroke="#191970" points="394.4724,-29.8026 398.0441,-19.8279 389.0317,-25.3981 394.4724,-29.8026"/>
</g>
<!-- Node7&#45;&gt;Node3 -->
<g id="edge12" class="edge">
<title>Node7&#45;&gt;Node3</title>
<path fill="none" stroke="#191970" d="M238.1974,-168.3733C204.9609,-158.3125 153.0059,-142.5856 118.979,-132.2855"/>
<polygon fill="#191970" stroke="#191970" points="119.6202,-128.8229 109.0351,-129.2755 117.5922,-135.5226 119.6202,-128.8229"/>
</g>
<!-- Node7&#45;&gt;Node8 -->
<g id="edge13" class="edge">
<title>Node7&#45;&gt;Node8</title>
<path fill="none" stroke="#191970" d="M294.7545,-168.3733C318.2849,-159.2226 353.8687,-145.3844 380.0426,-135.2057"/>
<polygon fill="#191970" stroke="#191970" points="381.5171,-138.3877 389.5685,-131.5011 378.9799,-131.8636 381.5171,-138.3877"/>
</g>
</g>
</svg>
