<?xml version="1.0" encoding="UTF-8" standalone="no"?>
<!DOCTYPE svg PUBLIC "-//W3C//DTD SVG 1.1//EN"
 "http://www.w3.org/Graphics/SVG/1.1/DTD/svg11.dtd">
<!-- Generated by graphviz version 2.40.1 (20161225.0304)
 -->
<!-- Title: /mnt/hdd/fnky/C0de/CAPSTONE/clean_build/include/rapidjson/pointer.h Pages: 1 -->
<!--zoomable 498 -->
<svg id="main" version="1.1" xmlns="http://www.w3.org/2000/svg" xmlns:xlink="http://www.w3.org/1999/xlink" xml:space="preserve" onload="init(evt)">
<style type="text/css"><![CDATA[
.edge:hover path { stroke: red; }
.edge:hover polygon { stroke: red; fill: red; }
]]></style>
<script type="text/javascript"><![CDATA[
var edges = document.getElementsByTagName('g');
if (edges && edges.length) {
  for (var i=0;i<edges.length;i++) {
    if (edges[i].id.substr(0,4)=='edge') {
      edges[i].setAttribute('class','edge');
    }
  }
}
]]></script>
        <defs>
                <circle id="rim" cx="0" cy="0" r="7"/>
                <circle id="rim2" cx="0" cy="0" r="3.5"/>
                <g id="zoomPlus">
                        <use xlink:href="#rim" fill="#404040">
                                <set attributeName="fill" to="#808080" begin="zoomplus.mouseover" end="zoomplus.mouseout"/>
                        </use>
                        <path d="M-4,0h8M0,-4v8" fill="none" stroke="white" stroke-width="1.5" pointer-events="none"/>
                </g>
                <g id="zoomMin">
                        <use xlink:href="#rim" fill="#404040">
                                <set attributeName="fill" to="#808080" begin="zoomminus.mouseover" end="zoomminus.mouseout"/>
                        </use>
                        <path d="M-4,0h8" fill="none" stroke="white" stroke-width="1.5" pointer-events="none"/>
                </g>
                <g id="dirArrow">
                        <path fill="none" stroke="white" stroke-width="1.5" d="M0,-3.0v7 M-2.5,-0.5L0,-3.0L2.5,-0.5"/>
                </g>
               <g id="resetDef">
                       <use xlink:href="#rim2" fill="#404040">
                               <set attributeName="fill" to="#808080" begin="reset.mouseover" end="reset.mouseout"/>
                       </use>
               </g>
        </defs>

<script type="text/javascript">
var viewWidth = 1019;
var viewHeight = 498;
var sectionId = 'dynsection-0';
</script>
<script xlink:href="svgpan.js"/>
<svg id="graph" class="graph">
<g id="viewport">
<title>/mnt/hdd/fnky/C0de/CAPSTONE/clean_build/include/rapidjson/pointer.h</title>
<!-- Node0 -->
<g id="node1" class="node">
<title>Node0</title>
<polygon fill="#bfbfbf" stroke="#000000" points="595,-448.5 595,-489.5 728,-489.5 728,-448.5 595,-448.5"/>
<text text-anchor="start" x="603" y="-477.5" font-family="Helvetica,sans-Serif" font-size="10.00" fill="#000000">/mnt/hdd/fnky/C0de</text>
<text text-anchor="start" x="603" y="-466.5" font-family="Helvetica,sans-Serif" font-size="10.00" fill="#000000">/CAPSTONE/clean_build</text>
<text text-anchor="middle" x="661.5" y="-455.5" font-family="Helvetica,sans-Serif" font-size="10.00" fill="#000000">/include/rapidjson/pointer.h</text>
</g>
<!-- Node1 -->
<g id="node2" class="node">
<title>Node1</title>
<g id="a_node2"><a xlink:href="document_8h.html" target="_top" xlink:title="document.h">
<polygon fill="none" stroke="#000000" points="409.5,-392.5 409.5,-411.5 477.5,-411.5 477.5,-392.5 409.5,-392.5"/>
<text text-anchor="middle" x="443.5" y="-399.5" font-family="Helvetica,sans-Serif" font-size="10.00" fill="#000000">document.h</text>
</a>
</g>
</g>
<!-- Node0&#45;&gt;Node1 -->
<g id="edge1" class="edge">
<title>Node0&#45;&gt;Node1</title>
<path fill="none" stroke="#191970" d="M594.9083,-448.5337C558.7526,-437.4217 515.2216,-424.0429 484.1337,-414.4883"/>
<polygon fill="#191970" stroke="#191970" points="485.0896,-411.1206 474.5026,-411.5283 483.0331,-417.8117 485.0896,-411.1206"/>
</g>
<!-- Node25 -->
<g id="node26" class="node">
<title>Node25</title>
<g id="a_node26"><a xlink:href="error_8h.html" target="_top" xlink:title="error/error.h">
<polygon fill="none" stroke="#000000" points="883,-280.5 883,-299.5 950,-299.5 950,-280.5 883,-280.5"/>
<text text-anchor="middle" x="916.5" y="-287.5" font-family="Helvetica,sans-Serif" font-size="10.00" fill="#000000">error/error.h</text>
</a>
</g>
</g>
<!-- Node0&#45;&gt;Node25 -->
<g id="edge57" class="edge">
<title>Node0&#45;&gt;Node25</title>
<path fill="none" stroke="#191970" d="M713.5227,-448.3505C757.9595,-428.9994 821.9004,-396.9405 868.5,-356 884.0666,-342.3238 897.513,-322.7332 906.1812,-308.4494"/>
<polygon fill="#191970" stroke="#191970" points="909.3606,-309.9458 911.3861,-299.5464 903.3175,-306.4128 909.3606,-309.9458"/>
</g>
<!-- Node30 -->
<g id="node31" class="node">
<title>Node30</title>
<g id="a_node31"><a xlink:href="uri_8h.html" target="_top" xlink:title="uri.h">
<polygon fill="none" stroke="#000000" points="192,-392.5 192,-411.5 227,-411.5 227,-392.5 192,-392.5"/>
<text text-anchor="middle" x="209.5" y="-399.5" font-family="Helvetica,sans-Serif" font-size="10.00" fill="#000000">uri.h</text>
</a>
</g>
</g>
<!-- Node0&#45;&gt;Node30 -->
<g id="edge53" class="edge">
<title>Node0&#45;&gt;Node30</title>
<path fill="none" stroke="#191970" d="M594.8058,-459.1139C494.1072,-444.1873 307.5554,-416.5348 237.2633,-406.1154"/>
<polygon fill="#191970" stroke="#191970" points="237.4162,-402.5999 227.011,-404.5957 236.3897,-409.5242 237.4162,-402.5999"/>
</g>
<!-- Node31 -->
<g id="node32" class="node">
<title>Node31</title>
<g id="a_node32"><a xlink:href="itoa_8h.html" target="_top" xlink:title="internal/itoa.h">
<polygon fill="none" stroke="#000000" points="936,-392.5 936,-411.5 1011,-411.5 1011,-392.5 936,-392.5"/>
<text text-anchor="middle" x="973.5" y="-399.5" font-family="Helvetica,sans-Serif" font-size="10.00" fill="#000000">internal/itoa.h</text>
</a>
</g>
</g>
<!-- Node0&#45;&gt;Node31 -->
<g id="edge55" class="edge">
<title>Node0&#45;&gt;Node31</title>
<path fill="none" stroke="#191970" d="M728.0491,-454.709C787.5675,-441.9278 873.3237,-423.5122 926.1214,-412.1743"/>
<polygon fill="#191970" stroke="#191970" points="926.8609,-415.5953 935.9031,-410.0737 925.3911,-408.7514 926.8609,-415.5953"/>
</g>
<!-- Node2 -->
<g id="node3" class="node">
<title>Node2</title>
<g id="a_node3"><a xlink:href="reader_8h.html" target="_top" xlink:title="reader.h">
<polygon fill="none" stroke="#000000" points="417.5,-336.5 417.5,-355.5 469.5,-355.5 469.5,-336.5 417.5,-336.5"/>
<text text-anchor="middle" x="443.5" y="-343.5" font-family="Helvetica,sans-Serif" font-size="10.00" fill="#000000">reader.h</text>
</a>
</g>
</g>
<!-- Node1&#45;&gt;Node2 -->
<g id="edge2" class="edge">
<title>Node1&#45;&gt;Node2</title>
<path fill="none" stroke="#191970" d="M443.5,-392.2455C443.5,-384.9382 443.5,-374.6944 443.5,-365.7046"/>
<polygon fill="#191970" stroke="#191970" points="447.0001,-365.6426 443.5,-355.6427 440.0001,-365.6427 447.0001,-365.6426"/>
</g>
<!-- Node8 -->
<g id="node9" class="node">
<title>Node8</title>
<g id="a_node9"><a xlink:href="meta_8h.html" target="_top" xlink:title="internal/meta.h">
<polygon fill="none" stroke="#000000" points="349,-168.5 349,-187.5 430,-187.5 430,-168.5 349,-168.5"/>
<text text-anchor="middle" x="389.5" y="-175.5" font-family="Helvetica,sans-Serif" font-size="10.00" fill="#000000">internal/meta.h</text>
</a>
</g>
</g>
<!-- Node1&#45;&gt;Node8 -->
<g id="edge44" class="edge">
<title>Node1&#45;&gt;Node8</title>
<path fill="none" stroke="#191970" d="M423.8272,-392.477C395.2716,-377.4116 343.4655,-345.0943 322.5,-300 316.8558,-287.8599 309.1856,-250.8379 323.5,-224 330.7461,-210.4143 343.9908,-199.9991 356.7239,-192.543"/>
<polygon fill="#191970" stroke="#191970" points="358.677,-195.466 365.812,-187.6339 355.3502,-189.3071 358.677,-195.466"/>
</g>
<!-- Node10 -->
<g id="node11" class="node">
<title>Node10</title>
<polygon fill="none" stroke="#bfbfbf" points="652.5,-168.5 652.5,-187.5 692.5,-187.5 692.5,-168.5 652.5,-168.5"/>
<text text-anchor="middle" x="672.5" y="-175.5" font-family="Helvetica,sans-Serif" font-size="10.00" fill="#000000">limits</text>
</g>
<!-- Node1&#45;&gt;Node10 -->
<g id="edge51" class="edge">
<title>Node1&#45;&gt;Node10</title>
<path fill="none" stroke="#191970" d="M477.7291,-396.7226C555.2761,-383.9941 740.4302,-348.9968 776.5,-300 790.7121,-280.6944 771.3327,-240.3919 757.5,-224 743.0737,-206.9046 720.6219,-195.1398 702.4154,-187.7896"/>
<polygon fill="#191970" stroke="#191970" points="703.4068,-184.4226 692.8154,-184.1546 700.928,-190.969 703.4068,-184.4226"/>
</g>
<!-- Node13 -->
<g id="node14" class="node">
<title>Node13</title>
<g id="a_node14"><a xlink:href="encodedstream_8h.html" target="_top" xlink:title="encodedstream.h">
<polygon fill="none" stroke="#000000" points="145.5,-280.5 145.5,-299.5 237.5,-299.5 237.5,-280.5 145.5,-280.5"/>
<text text-anchor="middle" x="191.5" y="-287.5" font-family="Helvetica,sans-Serif" font-size="10.00" fill="#000000">encodedstream.h</text>
</a>
</g>
</g>
<!-- Node1&#45;&gt;Node13 -->
<g id="edge49" class="edge">
<title>Node1&#45;&gt;Node13</title>
<path fill="none" stroke="#191970" d="M409.3234,-399.8896C369.0646,-396.0892 301.3608,-385.4873 251.5,-356 231.4106,-344.1193 214.179,-323.351 203.4036,-308.2783"/>
<polygon fill="#191970" stroke="#191970" points="206.1035,-306.0268 197.5609,-299.7598 200.3309,-309.9862 206.1035,-306.0268"/>
</g>
<!-- Node14 -->
<g id="node15" class="node">
<title>Node14</title>
<g id="a_node15"><a xlink:href="memorystream_8h.html" target="_top" xlink:title="memorystream.h">
<polygon fill="none" stroke="#000000" points="72.5,-224.5 72.5,-243.5 162.5,-243.5 162.5,-224.5 72.5,-224.5"/>
<text text-anchor="middle" x="117.5" y="-231.5" font-family="Helvetica,sans-Serif" font-size="10.00" fill="#000000">memorystream.h</text>
</a>
</g>
</g>
<!-- Node1&#45;&gt;Node14 -->
<g id="edge48" class="edge">
<title>Node1&#45;&gt;Node14</title>
<path fill="none" stroke="#191970" d="M409.199,-398.7474C364.9259,-393.6789 286.1419,-381.6775 223.5,-356 180.9515,-338.559 163.9465,-336.8952 136.5,-300 126.5042,-286.563 121.7575,-268.0036 119.5089,-253.9872"/>
<polygon fill="#191970" stroke="#191970" points="122.9575,-253.3658 118.1886,-243.9049 116.0168,-254.2747 122.9575,-253.3658"/>
</g>
<!-- Node26 -->
<g id="node27" class="node">
<title>Node26</title>
<g id="a_node27"><a xlink:href="strfunc_8h.html" target="_top" xlink:title="internal/strfunc.h">
<polygon fill="none" stroke="#000000" points="0,-336.5 0,-355.5 89,-355.5 89,-336.5 0,-336.5"/>
<text text-anchor="middle" x="44.5" y="-343.5" font-family="Helvetica,sans-Serif" font-size="10.00" fill="#000000">internal/strfunc.h</text>
</a>
</g>
</g>
<!-- Node1&#45;&gt;Node26 -->
<g id="edge45" class="edge">
<title>Node1&#45;&gt;Node26</title>
<path fill="none" stroke="#191970" d="M409.1811,-397.7421C347.776,-390.0379 215.0892,-373.0005 103.5,-356 102.2001,-355.802 100.8846,-355.5991 99.5581,-355.3923"/>
<polygon fill="#191970" stroke="#191970" points="99.6794,-351.8674 89.2525,-353.7466 98.5755,-358.7798 99.6794,-351.8674"/>
</g>
<!-- Node28 -->
<g id="node29" class="node">
<title>Node28</title>
<polygon fill="none" stroke="#bfbfbf" points="488,-336.5 488,-355.5 523,-355.5 523,-336.5 488,-336.5"/>
<text text-anchor="middle" x="505.5" y="-343.5" font-family="Helvetica,sans-Serif" font-size="10.00" fill="#000000">new</text>
</g>
<!-- Node1&#45;&gt;Node28 -->
<g id="edge50" class="edge">
<title>Node1&#45;&gt;Node28</title>
<path fill="none" stroke="#191970" d="M454.2996,-392.2455C463.3678,-384.0549 476.5206,-372.1749 487.2245,-362.5069"/>
<polygon fill="#191970" stroke="#191970" points="489.7491,-364.9429 494.8242,-355.6427 485.0571,-359.7482 489.7491,-364.9429"/>
</g>
<!-- Node29 -->
<g id="node30" class="node">
<title>Node29</title>
<polygon fill="none" stroke="#bfbfbf" points="541,-336.5 541,-355.5 588,-355.5 588,-336.5 541,-336.5"/>
<text text-anchor="middle" x="564.5" y="-343.5" font-family="Helvetica,sans-Serif" font-size="10.00" fill="#000000">iterator</text>
</g>
<!-- Node1&#45;&gt;Node29 -->
<g id="edge52" class="edge">
<title>Node1&#45;&gt;Node29</title>
<path fill="none" stroke="#191970" d="M464.3006,-392.3733C483.7243,-383.3838 512.9224,-369.8706 534.7964,-359.7471"/>
<polygon fill="#191970" stroke="#191970" points="536.3656,-362.8776 543.9708,-355.5011 533.4255,-356.5249 536.3656,-362.8776"/>
</g>
<!-- Node3 -->
<g id="node4" class="node">
<title>Node3</title>
<g id="a_node4"><a xlink:href="allocators_8h.html" target="_top" xlink:title="allocators.h">
<polygon fill="none" stroke="#000000" points="439,-224.5 439,-243.5 506,-243.5 506,-224.5 439,-224.5"/>
<text text-anchor="middle" x="472.5" y="-231.5" font-family="Helvetica,sans-Serif" font-size="10.00" fill="#000000">allocators.h</text>
</a>
</g>
</g>
<!-- Node2&#45;&gt;Node3 -->
<g id="edge3" class="edge">
<title>Node2&#45;&gt;Node3</title>
<path fill="none" stroke="#191970" d="M446.7104,-336.1882C449.6911,-326.9149 454.159,-312.5867 457.5,-300 461.5981,-284.5613 465.5735,-266.9088 468.4009,-253.7468"/>
<polygon fill="#191970" stroke="#191970" points="471.8398,-254.4018 470.4835,-243.8941 464.9911,-252.9541 471.8398,-254.4018"/>
</g>
<!-- Node2&#45;&gt;Node8 -->
<g id="edge22" class="edge">
<title>Node2&#45;&gt;Node8</title>
<path fill="none" stroke="#191970" d="M440.6024,-336.1338C436.7853,-323.2084 429.8154,-299.8525 423.5,-280 414.2906,-251.0502 403.0491,-217.6845 396.0814,-197.2182"/>
<polygon fill="#191970" stroke="#191970" points="399.3185,-195.8668 392.7754,-187.5339 392.6939,-198.1284 399.3185,-195.8668"/>
</g>
<!-- Node2&#45;&gt;Node10 -->
<g id="edge41" class="edge">
<title>Node2&#45;&gt;Node10</title>
<path fill="none" stroke="#191970" d="M458.0801,-336.4507C471.5096,-327.4771 491.8196,-313.4512 508.5,-300 547.4349,-268.6026 551.0535,-253.4247 591.5,-224 608.0072,-211.9911 627.9287,-200.6411 643.8842,-192.22"/>
<polygon fill="#191970" stroke="#191970" points="645.4968,-195.3264 652.7645,-187.6173 642.2756,-189.1116 645.4968,-195.3264"/>
</g>
<!-- Node11 -->
<g id="node12" class="node">
<title>Node11</title>
<g id="a_node12"><a xlink:href="stream_8h.html" target="_top" xlink:title="stream.h">
<polygon fill="none" stroke="#000000" points="182,-168.5 182,-187.5 237,-187.5 237,-168.5 182,-168.5"/>
<text text-anchor="middle" x="209.5" y="-175.5" font-family="Helvetica,sans-Serif" font-size="10.00" fill="#000000">stream.h</text>
</a>
</g>
</g>
<!-- Node2&#45;&gt;Node11 -->
<g id="edge12" class="edge">
<title>Node2&#45;&gt;Node11</title>
<path fill="none" stroke="#191970" d="M417.3076,-339.7994C391.6252,-332.8889 352.1228,-319.9839 322.5,-300 279.2537,-270.8255 240.7595,-222.0543 221.8548,-195.8858"/>
<polygon fill="#191970" stroke="#191970" points="224.6484,-193.7746 216.0092,-187.6415 218.9382,-197.8234 224.6484,-193.7746"/>
</g>
<!-- Node2&#45;&gt;Node13 -->
<g id="edge16" class="edge">
<title>Node2&#45;&gt;Node13</title>
<path fill="none" stroke="#191970" d="M417.4807,-340.2179C376.8409,-331.1869 297.472,-313.5493 244.4565,-301.7681"/>
<polygon fill="#191970" stroke="#191970" points="245.073,-298.3198 234.5519,-299.5671 243.5545,-305.1531 245.073,-298.3198"/>
</g>
<!-- Node15 -->
<g id="node16" class="node">
<title>Node15</title>
<g id="a_node16"><a xlink:href="clzll_8h.html" target="_top" xlink:title="internal/clzll.h">
<polygon fill="none" stroke="#000000" points="557,-168.5 557,-187.5 634,-187.5 634,-168.5 557,-168.5"/>
<text text-anchor="middle" x="595.5" y="-175.5" font-family="Helvetica,sans-Serif" font-size="10.00" fill="#000000">internal/clzll.h</text>
</a>
</g>
</g>
<!-- Node2&#45;&gt;Node15 -->
<g id="edge20" class="edge">
<title>Node2&#45;&gt;Node15</title>
<path fill="none" stroke="#191970" d="M452.1077,-336.4862C476.7594,-309.2396 547.894,-230.6172 579.7485,-195.4096"/>
<polygon fill="#191970" stroke="#191970" points="582.4943,-197.5915 586.6081,-187.8279 577.3036,-192.8951 582.4943,-197.5915"/>
</g>
<!-- Node16 -->
<g id="node17" class="node">
<title>Node16</title>
<g id="a_node17"><a xlink:href="stack_8h.html" target="_top" xlink:title="internal/stack.h">
<polygon fill="none" stroke="#000000" points="332,-280.5 332,-299.5 415,-299.5 415,-280.5 332,-280.5"/>
<text text-anchor="middle" x="373.5" y="-287.5" font-family="Helvetica,sans-Serif" font-size="10.00" fill="#000000">internal/stack.h</text>
</a>
</g>
</g>
<!-- Node2&#45;&gt;Node16 -->
<g id="edge23" class="edge">
<title>Node2&#45;&gt;Node16</title>
<path fill="none" stroke="#191970" d="M431.3069,-336.2455C420.8679,-327.8943 405.6345,-315.7076 393.426,-305.9408"/>
<polygon fill="#191970" stroke="#191970" points="395.5485,-303.1566 385.5533,-299.6427 391.1756,-308.6227 395.5485,-303.1566"/>
</g>
<!-- Node19 -->
<g id="node20" class="node">
<title>Node19</title>
<g id="a_node20"><a xlink:href="strtod_8h.html" target="_top" xlink:title="internal/strtod.h">
<polygon fill="none" stroke="#000000" points="683.5,-280.5 683.5,-299.5 767.5,-299.5 767.5,-280.5 683.5,-280.5"/>
<text text-anchor="middle" x="725.5" y="-287.5" font-family="Helvetica,sans-Serif" font-size="10.00" fill="#000000">internal/strtod.h</text>
</a>
</g>
</g>
<!-- Node2&#45;&gt;Node19 -->
<g id="edge28" class="edge">
<title>Node2&#45;&gt;Node19</title>
<path fill="none" stroke="#191970" d="M469.8036,-338.1974C472.7276,-337.4158 475.6704,-336.6662 478.5,-336 545.2328,-320.2896 623.1277,-306.5309 673.3246,-298.2493"/>
<polygon fill="#191970" stroke="#191970" points="673.9894,-301.6871 683.2922,-296.6168 672.858,-294.7792 673.9894,-301.6871"/>
</g>
<!-- Node2&#45;&gt;Node25 -->
<g id="edge42" class="edge">
<title>Node2&#45;&gt;Node25</title>
<path fill="none" stroke="#191970" d="M469.7547,-337.9694C472.6878,-337.2305 475.6461,-336.5532 478.5,-336 553.2922,-321.502 777.054,-301.7012 872.5376,-293.6387"/>
<polygon fill="#191970" stroke="#191970" points="873.049,-297.1081 882.7205,-292.7824 872.4623,-290.1328 873.049,-297.1081"/>
</g>
<!-- Node4 -->
<g id="node5" class="node">
<title>Node4</title>
<g id="a_node5"><a xlink:href="rapidjson_8h.html" target="_top" xlink:title="common definitions and configuration ">
<polygon fill="none" stroke="#000000" points="605.5,-56.5 605.5,-75.5 669.5,-75.5 669.5,-56.5 605.5,-56.5"/>
<text text-anchor="middle" x="637.5" y="-63.5" font-family="Helvetica,sans-Serif" font-size="10.00" fill="#000000">rapidjson.h</text>
</a>
</g>
</g>
<!-- Node3&#45;&gt;Node4 -->
<g id="edge4" class="edge">
<title>Node3&#45;&gt;Node4</title>
<path fill="none" stroke="#191970" d="M481.8439,-224.4862C508.7169,-197.1246 586.4749,-117.9528 620.8367,-82.9663"/>
<polygon fill="#191970" stroke="#191970" points="623.3376,-85.4149 627.8476,-75.8279 618.3434,-80.5099 623.3376,-85.4149"/>
</g>
<!-- Node3&#45;&gt;Node8 -->
<g id="edge8" class="edge">
<title>Node3&#45;&gt;Node8</title>
<path fill="none" stroke="#191970" d="M458.0425,-224.2455C445.4268,-215.7337 426.9056,-203.2375 412.2955,-193.3801"/>
<polygon fill="#191970" stroke="#191970" points="414.0391,-190.3343 403.7918,-187.6427 410.1239,-196.1371 414.0391,-190.3343"/>
</g>
<!-- Node9 -->
<g id="node10" class="node">
<title>Node9</title>
<polygon fill="none" stroke="#bfbfbf" points="448.5,-168.5 448.5,-187.5 500.5,-187.5 500.5,-168.5 448.5,-168.5"/>
<text text-anchor="middle" x="474.5" y="-175.5" font-family="Helvetica,sans-Serif" font-size="10.00" fill="#000000">memory</text>
</g>
<!-- Node3&#45;&gt;Node9 -->
<g id="edge10" class="edge">
<title>Node3&#45;&gt;Node9</title>
<path fill="none" stroke="#191970" d="M472.8484,-224.2455C473.1093,-216.9382 473.4752,-206.6944 473.7963,-197.7046"/>
<polygon fill="#191970" stroke="#191970" points="477.2964,-197.7613 474.1556,-187.6427 470.3008,-197.5113 477.2964,-197.7613"/>
</g>
<!-- Node3&#45;&gt;Node10 -->
<g id="edge11" class="edge">
<title>Node3&#45;&gt;Node10</title>
<path fill="none" stroke="#191970" d="M506.2081,-225.489C540.6252,-216.6563 595.5182,-202.1739 642.5,-188 642.5986,-187.9703 642.6973,-187.9404 642.7961,-187.9105"/>
<polygon fill="#191970" stroke="#191970" points="643.7347,-191.2845 652.2172,-184.9364 641.6274,-184.6093 643.7347,-191.2845"/>
</g>
<!-- Node5 -->
<g id="node6" class="node">
<title>Node5</title>
<polygon fill="none" stroke="#bfbfbf" points="551,-.5 551,-19.5 596,-19.5 596,-.5 551,-.5"/>
<text text-anchor="middle" x="573.5" y="-7.5" font-family="Helvetica,sans-Serif" font-size="10.00" fill="#000000">cstdlib</text>
</g>
<!-- Node4&#45;&gt;Node5 -->
<g id="edge5" class="edge">
<title>Node4&#45;&gt;Node5</title>
<path fill="none" stroke="#191970" d="M626.3521,-56.2455C616.9913,-48.0549 603.4142,-36.1749 592.3651,-26.5069"/>
<polygon fill="#191970" stroke="#191970" points="594.3508,-23.5937 584.5202,-19.6427 589.7412,-28.8618 594.3508,-23.5937"/>
</g>
<!-- Node6 -->
<g id="node7" class="node">
<title>Node6</title>
<polygon fill="none" stroke="#bfbfbf" points="614.5,-.5 614.5,-19.5 660.5,-19.5 660.5,-.5 614.5,-.5"/>
<text text-anchor="middle" x="637.5" y="-7.5" font-family="Helvetica,sans-Serif" font-size="10.00" fill="#000000">cstring</text>
</g>
<!-- Node4&#45;&gt;Node6 -->
<g id="edge6" class="edge">
<title>Node4&#45;&gt;Node6</title>
<path fill="none" stroke="#191970" d="M637.5,-56.2455C637.5,-48.9382 637.5,-38.6944 637.5,-29.7046"/>
<polygon fill="#191970" stroke="#191970" points="641.0001,-29.6426 637.5,-19.6427 634.0001,-29.6427 641.0001,-29.6426"/>
</g>
<!-- Node7 -->
<g id="node8" class="node">
<title>Node7</title>
<polygon fill="none" stroke="#bfbfbf" points="679,-.5 679,-19.5 728,-19.5 728,-.5 679,-.5"/>
<text text-anchor="middle" x="703.5" y="-7.5" font-family="Helvetica,sans-Serif" font-size="10.00" fill="#000000">cassert</text>
</g>
<!-- Node4&#45;&gt;Node7 -->
<g id="edge7" class="edge">
<title>Node4&#45;&gt;Node7</title>
<path fill="none" stroke="#191970" d="M648.9963,-56.2455C658.7442,-47.9746 672.9259,-35.9416 684.3798,-26.2232"/>
<polygon fill="#191970" stroke="#191970" points="686.7747,-28.7813 692.1354,-19.6427 682.2459,-23.4437 686.7747,-28.7813"/>
</g>
<!-- Node8&#45;&gt;Node4 -->
<g id="edge9" class="edge">
<title>Node8&#45;&gt;Node4</title>
<path fill="none" stroke="#191970" d="M406.1423,-168.3336C429.7821,-154.8071 474.6469,-129.8852 514.5,-112 542.2876,-99.5295 574.5696,-87.5474 599.0878,-78.94"/>
<polygon fill="#191970" stroke="#191970" points="600.4515,-82.1715 608.7479,-75.582 598.153,-75.5596 600.4515,-82.1715"/>
</g>
<!-- Node11&#45;&gt;Node4 -->
<g id="edge13" class="edge">
<title>Node11&#45;&gt;Node4</title>
<path fill="none" stroke="#191970" d="M216.4041,-168.3934C227.7111,-153.4887 251.719,-125.1431 279.5,-112 334.7039,-85.8833 513.3784,-72.8699 595.5054,-68.1464"/>
<polygon fill="#191970" stroke="#191970" points="595.708,-71.6407 605.496,-67.5855 595.3155,-64.6517 595.708,-71.6407"/>
</g>
<!-- Node12 -->
<g id="node13" class="node">
<title>Node12</title>
<g id="a_node13"><a xlink:href="encodings_8h.html" target="_top" xlink:title="encodings.h">
<polygon fill="none" stroke="#000000" points="289,-112.5 289,-131.5 358,-131.5 358,-112.5 289,-112.5"/>
<text text-anchor="middle" x="323.5" y="-119.5" font-family="Helvetica,sans-Serif" font-size="10.00" fill="#000000">encodings.h</text>
</a>
</g>
</g>
<!-- Node11&#45;&gt;Node12 -->
<g id="edge14" class="edge">
<title>Node11&#45;&gt;Node12</title>
<path fill="none" stroke="#191970" d="M229.0973,-168.3733C247.2331,-159.4644 274.4135,-146.1127 294.9587,-136.0203"/>
<polygon fill="#191970" stroke="#191970" points="296.7261,-139.0517 304.1584,-131.5011 293.6397,-132.7688 296.7261,-139.0517"/>
</g>
<!-- Node12&#45;&gt;Node4 -->
<g id="edge15" class="edge">
<title>Node12&#45;&gt;Node4</title>
<path fill="none" stroke="#191970" d="M358.0017,-115.8468C415.9521,-105.5117 532.6343,-84.7022 595.3466,-73.5178"/>
<polygon fill="#191970" stroke="#191970" points="596.0689,-76.9443 605.299,-71.7429 594.8398,-70.053 596.0689,-76.9443"/>
</g>
<!-- Node13&#45;&gt;Node11 -->
<g id="edge17" class="edge">
<title>Node13&#45;&gt;Node11</title>
<path fill="none" stroke="#191970" d="M193.0347,-280.4509C195.9704,-262.184 202.4358,-221.9553 206.3343,-197.6976"/>
<polygon fill="#191970" stroke="#191970" points="209.838,-197.9536 207.9692,-187.5249 202.9267,-196.8428 209.838,-197.9536"/>
</g>
<!-- Node13&#45;&gt;Node14 -->
<g id="edge18" class="edge">
<title>Node13&#45;&gt;Node14</title>
<path fill="none" stroke="#191970" d="M178.6102,-280.2455C167.5746,-271.8943 151.4708,-259.7076 138.5647,-249.9408"/>
<polygon fill="#191970" stroke="#191970" points="140.3283,-246.8862 130.2421,-243.6427 136.1041,-252.4681 140.3283,-246.8862"/>
</g>
<!-- Node14&#45;&gt;Node11 -->
<g id="edge19" class="edge">
<title>Node14&#45;&gt;Node11</title>
<path fill="none" stroke="#191970" d="M133.5252,-224.2455C147.6408,-215.6534 168.4263,-203.0014 184.6899,-193.1018"/>
<polygon fill="#191970" stroke="#191970" points="186.9363,-195.8319 193.6585,-187.6427 183.2966,-189.8525 186.9363,-195.8319"/>
</g>
<!-- Node15&#45;&gt;Node4 -->
<g id="edge21" class="edge">
<title>Node15&#45;&gt;Node4</title>
<path fill="none" stroke="#191970" d="M599.0809,-168.4509C605.993,-150.0186 621.2905,-109.2254 630.3589,-85.043"/>
<polygon fill="#191970" stroke="#191970" points="633.694,-86.1171 633.9282,-75.5249 627.1397,-83.6592 633.694,-86.1171"/>
</g>
<!-- Node16&#45;&gt;Node3 -->
<g id="edge24" class="edge">
<title>Node16&#45;&gt;Node3</title>
<path fill="none" stroke="#191970" d="M390.7445,-280.2455C406.0761,-271.5731 428.7199,-258.7645 446.2916,-248.825"/>
<polygon fill="#191970" stroke="#191970" points="448.4724,-251.6126 455.4531,-243.6427 445.0259,-245.5198 448.4724,-251.6126"/>
</g>
<!-- Node17 -->
<g id="node18" class="node">
<title>Node17</title>
<g id="a_node18"><a xlink:href="swap_8h.html" target="_top" xlink:title="swap.h">
<polygon fill="none" stroke="#000000" points="398.5,-112.5 398.5,-131.5 446.5,-131.5 446.5,-112.5 398.5,-112.5"/>
<text text-anchor="middle" x="422.5" y="-119.5" font-family="Helvetica,sans-Serif" font-size="10.00" fill="#000000">swap.h</text>
</a>
</g>
</g>
<!-- Node16&#45;&gt;Node17 -->
<g id="edge25" class="edge">
<title>Node16&#45;&gt;Node17</title>
<path fill="none" stroke="#191970" d="M357.0823,-280.2212C345.2924,-272.1641 330.3253,-259.5536 323.5,-244 313.8172,-221.9347 335.0786,-173.5635 339.5,-168 352.0956,-152.1508 371.7232,-140.9183 388.7298,-133.5222"/>
<polygon fill="#191970" stroke="#191970" points="390.4212,-136.6128 398.3672,-129.6049 387.7853,-130.1281 390.4212,-136.6128"/>
</g>
<!-- Node18 -->
<g id="node19" class="node">
<title>Node18</title>
<polygon fill="none" stroke="#bfbfbf" points="333,-224.5 333,-243.5 382,-243.5 382,-224.5 333,-224.5"/>
<text text-anchor="middle" x="357.5" y="-231.5" font-family="Helvetica,sans-Serif" font-size="10.00" fill="#000000">cstddef</text>
</g>
<!-- Node16&#45;&gt;Node18 -->
<g id="edge27" class="edge">
<title>Node16&#45;&gt;Node18</title>
<path fill="none" stroke="#191970" d="M370.713,-280.2455C368.6023,-272.8579 365.634,-262.4689 363.0453,-253.4087"/>
<polygon fill="#191970" stroke="#191970" points="366.3677,-252.2964 360.255,-243.6427 359.637,-254.2195 366.3677,-252.2964"/>
</g>
<!-- Node17&#45;&gt;Node4 -->
<g id="edge26" class="edge">
<title>Node17&#45;&gt;Node4</title>
<path fill="none" stroke="#191970" d="M446.7453,-115.6849C482.8122,-106.2908 551.095,-88.5055 595.4248,-76.9591"/>
<polygon fill="#191970" stroke="#191970" points="596.5265,-80.289 605.3214,-74.3814 594.7621,-73.515 596.5265,-80.289"/>
</g>
<!-- Node19&#45;&gt;Node10 -->
<g id="edge40" class="edge">
<title>Node19&#45;&gt;Node10</title>
<path fill="none" stroke="#191970" d="M717.4623,-280.3115C710.358,-271.3549 700.1233,-257.4382 693.5,-244 686.1907,-229.1699 680.675,-211.2305 677.1348,-197.8001"/>
<polygon fill="#191970" stroke="#191970" points="680.4437,-196.6034 674.6296,-187.7463 673.6514,-198.2959 680.4437,-196.6034"/>
</g>
<!-- Node20 -->
<g id="node21" class="node">
<title>Node20</title>
<g id="a_node21"><a xlink:href="ieee754_8h.html" target="_top" xlink:title="ieee754.h">
<polygon fill="none" stroke="#000000" points="756,-112.5 756,-131.5 815,-131.5 815,-112.5 756,-112.5"/>
<text text-anchor="middle" x="785.5" y="-119.5" font-family="Helvetica,sans-Serif" font-size="10.00" fill="#000000">ieee754.h</text>
</a>
</g>
</g>
<!-- Node19&#45;&gt;Node20 -->
<g id="edge29" class="edge">
<title>Node19&#45;&gt;Node20</title>
<path fill="none" stroke="#191970" d="M739.6032,-280.4664C750.5749,-272.2056 765.1325,-259.2072 772.5,-244 788.5268,-210.9196 788.8535,-166.9998 787.3643,-141.8866"/>
<polygon fill="#191970" stroke="#191970" points="790.8442,-141.4864 786.6022,-131.7779 783.864,-142.0128 790.8442,-141.4864"/>
</g>
<!-- Node21 -->
<g id="node22" class="node">
<title>Node21</title>
<g id="a_node22"><a xlink:href="biginteger_8h.html" target="_top" xlink:title="biginteger.h">
<polygon fill="none" stroke="#000000" points="833,-112.5 833,-131.5 900,-131.5 900,-112.5 833,-112.5"/>
<text text-anchor="middle" x="866.5" y="-119.5" font-family="Helvetica,sans-Serif" font-size="10.00" fill="#000000">biginteger.h</text>
</a>
</g>
</g>
<!-- Node19&#45;&gt;Node21 -->
<g id="edge31" class="edge">
<title>Node19&#45;&gt;Node21</title>
<path fill="none" stroke="#191970" d="M742.6675,-280.464C756.6675,-272.1112 776.3685,-258.9871 790.5,-244 820.5927,-212.0854 845.192,-166.478 857.6538,-141.0292"/>
<polygon fill="#191970" stroke="#191970" points="860.9362,-142.2781 862.0961,-131.7469 854.6221,-139.2562 860.9362,-142.2781"/>
</g>
<!-- Node22 -->
<g id="node23" class="node">
<title>Node22</title>
<g id="a_node23"><a xlink:href="diyfp_8h.html" target="_top" xlink:title="diyfp.h">
<polygon fill="none" stroke="#000000" points="702.5,-224.5 702.5,-243.5 748.5,-243.5 748.5,-224.5 702.5,-224.5"/>
<text text-anchor="middle" x="725.5" y="-231.5" font-family="Helvetica,sans-Serif" font-size="10.00" fill="#000000">diyfp.h</text>
</a>
</g>
</g>
<!-- Node19&#45;&gt;Node22 -->
<g id="edge33" class="edge">
<title>Node19&#45;&gt;Node22</title>
<path fill="none" stroke="#191970" d="M725.5,-280.2455C725.5,-272.9382 725.5,-262.6944 725.5,-253.7046"/>
<polygon fill="#191970" stroke="#191970" points="729.0001,-253.6426 725.5,-243.6427 722.0001,-253.6427 729.0001,-253.6426"/>
</g>
<!-- Node23 -->
<g id="node24" class="node">
<title>Node23</title>
<g id="a_node24"><a xlink:href="pow10_8h.html" target="_top" xlink:title="pow10.h">
<polygon fill="none" stroke="#000000" points="685,-112.5 685,-131.5 738,-131.5 738,-112.5 685,-112.5"/>
<text text-anchor="middle" x="711.5" y="-119.5" font-family="Helvetica,sans-Serif" font-size="10.00" fill="#000000">pow10.h</text>
</a>
</g>
</g>
<!-- Node19&#45;&gt;Node23 -->
<g id="edge37" class="edge">
<title>Node19&#45;&gt;Node23</title>
<path fill="none" stroke="#191970" d="M734.8618,-280.3788C742.6234,-271.6808 753.075,-258.1096 757.5,-244 760.16,-235.5184 759.2211,-232.7207 757.5,-224 751.3585,-192.8815 734.338,-159.9641 722.8146,-140.2019"/>
<polygon fill="#191970" stroke="#191970" points="725.8149,-138.3997 717.6709,-131.6228 719.8113,-141.9992 725.8149,-138.3997"/>
</g>
<!-- Node24 -->
<g id="node25" class="node">
<title>Node24</title>
<polygon fill="none" stroke="#bfbfbf" points="601,-224.5 601,-243.5 646,-243.5 646,-224.5 601,-224.5"/>
<text text-anchor="middle" x="623.5" y="-231.5" font-family="Helvetica,sans-Serif" font-size="10.00" fill="#000000">climits</text>
</g>
<!-- Node19&#45;&gt;Node24 -->
<g id="edge39" class="edge">
<title>Node19&#45;&gt;Node24</title>
<path fill="none" stroke="#191970" d="M707.733,-280.2455C691.7905,-271.4928 668.1741,-258.527 650.0011,-248.5496"/>
<polygon fill="#191970" stroke="#191970" points="651.5137,-245.3873 641.0634,-243.6427 648.1448,-251.5233 651.5137,-245.3873"/>
</g>
<!-- Node20&#45;&gt;Node4 -->
<g id="edge30" class="edge">
<title>Node20&#45;&gt;Node4</title>
<path fill="none" stroke="#191970" d="M760.0579,-112.3733C735.7674,-103.1822 698.9792,-89.2624 672.0457,-79.0713"/>
<polygon fill="#191970" stroke="#191970" points="673.2016,-75.7666 662.6101,-75.5011 670.7243,-82.3136 673.2016,-75.7666"/>
</g>
<!-- Node21&#45;&gt;Node4 -->
<g id="edge32" class="edge">
<title>Node21&#45;&gt;Node4</title>
<path fill="none" stroke="#191970" d="M832.7103,-113.737C791.9657,-103.7733 723.4785,-87.0253 679.4082,-76.2483"/>
<polygon fill="#191970" stroke="#191970" points="680.124,-72.8203 669.5788,-73.8446 678.4612,-79.6199 680.124,-72.8203"/>
</g>
<!-- Node22&#45;&gt;Node4 -->
<g id="edge34" class="edge">
<title>Node22&#45;&gt;Node4</title>
<path fill="none" stroke="#191970" d="M722.8763,-224.2478C719.1216,-211.0469 711.5446,-186.9626 701.5,-168 692.2615,-150.5592 686.2159,-148.5741 675.5,-132 665.4318,-116.4277 654.99,-98.1087 647.6058,-84.7264"/>
<polygon fill="#191970" stroke="#191970" points="650.4769,-82.6813 642.6119,-75.5825 644.3334,-86.0366 650.4769,-82.6813"/>
</g>
<!-- Node22&#45;&gt;Node10 -->
<g id="edge36" class="edge">
<title>Node22&#45;&gt;Node10</title>
<path fill="none" stroke="#191970" d="M716.2681,-224.2455C708.6683,-216.2155 697.7123,-204.6394 688.6632,-195.0781"/>
<polygon fill="#191970" stroke="#191970" points="691.042,-192.4998 681.6261,-187.6427 685.9579,-197.3115 691.042,-192.4998"/>
</g>
<!-- Node22&#45;&gt;Node15 -->
<g id="edge35" class="edge">
<title>Node22&#45;&gt;Node15</title>
<path fill="none" stroke="#191970" d="M703.1522,-224.3733C682.0967,-215.3032 650.3505,-201.6279 626.7825,-191.4755"/>
<polygon fill="#191970" stroke="#191970" points="628.125,-188.243 617.5562,-187.5011 625.3556,-194.6719 628.125,-188.243"/>
</g>
<!-- Node23&#45;&gt;Node4 -->
<g id="edge38" class="edge">
<title>Node23&#45;&gt;Node4</title>
<path fill="none" stroke="#191970" d="M698.6102,-112.2455C687.5746,-103.8943 671.4708,-91.7076 658.5647,-81.9408"/>
<polygon fill="#191970" stroke="#191970" points="660.3283,-78.8862 650.2421,-75.6427 656.1041,-84.4681 660.3283,-78.8862"/>
</g>
<!-- Node25&#45;&gt;Node4 -->
<g id="edge43" class="edge">
<title>Node25&#45;&gt;Node4</title>
<path fill="none" stroke="#191970" d="M919.721,-280.3875C928.915,-250.9625 951.9288,-161.1394 908.5,-112 878.9667,-78.5832 748.1029,-69.4415 679.6137,-66.9411"/>
<polygon fill="#191970" stroke="#191970" points="679.6926,-63.4419 669.5813,-66.6061 679.4589,-70.438 679.6926,-63.4419"/>
</g>
<!-- Node26&#45;&gt;Node11 -->
<g id="edge46" class="edge">
<title>Node26&#45;&gt;Node11</title>
<path fill="none" stroke="#191970" d="M41.1873,-336.2724C38.236,-327.0586 34.1383,-312.7706 32.5,-300 27.8581,-263.8169 35.2545,-247.0859 63.5,-224 94.5583,-198.6151 139.7463,-187.1732 171.6056,-182.0572"/>
<polygon fill="#191970" stroke="#191970" points="172.473,-185.4675 181.8594,-180.5537 171.4574,-178.5416 172.473,-185.4675"/>
</g>
<!-- Node27 -->
<g id="node28" class="node">
<title>Node27</title>
<polygon fill="none" stroke="#bfbfbf" points="41.5,-280.5 41.5,-299.5 89.5,-299.5 89.5,-280.5 41.5,-280.5"/>
<text text-anchor="middle" x="65.5" y="-287.5" font-family="Helvetica,sans-Serif" font-size="10.00" fill="#000000">cwchar</text>
</g>
<!-- Node26&#45;&gt;Node27 -->
<g id="edge47" class="edge">
<title>Node26&#45;&gt;Node27</title>
<path fill="none" stroke="#191970" d="M48.1579,-336.2455C50.9584,-328.7776 54.909,-318.2427 58.3324,-309.1137"/>
<polygon fill="#191970" stroke="#191970" points="61.6499,-310.2349 61.884,-299.6427 55.0955,-307.777 61.6499,-310.2349"/>
</g>
<!-- Node30&#45;&gt;Node26 -->
<g id="edge54" class="edge">
<title>Node30&#45;&gt;Node26</title>
<path fill="none" stroke="#191970" d="M191.8421,-396.007C165.8885,-387.1985 116.8063,-370.5403 82.4491,-358.8797"/>
<polygon fill="#191970" stroke="#191970" points="83.3358,-355.4846 72.7414,-355.585 81.086,-362.1132 83.3358,-355.4846"/>
</g>
<!-- Node31&#45;&gt;Node4 -->
<g id="edge56" class="edge">
<title>Node31&#45;&gt;Node4</title>
<path fill="none" stroke="#191970" d="M974.2164,-392.4181C975.5989,-373.0718 978.5,-327.9544 978.5,-290 978.5,-290 978.5,-290 978.5,-178 978.5,-141.4662 960.7561,-130.9149 929.5,-112 888.3121,-87.0747 750.6569,-73.9766 680.0562,-68.7577"/>
<polygon fill="#191970" stroke="#191970" points="679.9609,-65.2419 669.7357,-68.0157 679.4589,-72.2238 679.9609,-65.2419"/>
</g>
</g>
</svg>
        <g id="navigator" transform="translate(0 0)" fill="#404254">
                <rect fill="#f2f5e9" fill-opacity="0.5" stroke="#606060" stroke-width=".5" x="0" y="0" width="60" height="60"/>
                <use id="zoomplus" xlink:href="#zoomPlus" x="17" y="9" onmousedown="handleZoom(evt,'in')"/>
                <use id="zoomminus" xlink:href="#zoomMin" x="42" y="9" onmousedown="handleZoom(evt,'out')"/>
                <use id="reset" xlink:href="#resetDef" x="30" y="36" onmousedown="handleReset()"/>
                <g id="arrowUp" xlink:href="#dirArrow" transform="translate(30 24)" onmousedown="handlePan(0,-1)">
                  <use xlink:href="#rim" fill="#404040">
                        <set attributeName="fill" to="#808080" begin="arrowUp.mouseover" end="arrowUp.mouseout"/>
                  </use>
                  <path fill="none" stroke="white" stroke-width="1.5" d="M0,-3.0v7 M-2.5,-0.5L0,-3.0L2.5,-0.5"/>
                </g>
                <g id="arrowRight" xlink:href="#dirArrow" transform="rotate(90) translate(36 -43)" onmousedown="handlePan(1,0)">
                  <use xlink:href="#rim" fill="#404040">
                        <set attributeName="fill" to="#808080" begin="arrowRight.mouseover" end="arrowRight.mouseout"/>
                  </use>
                  <path fill="none" stroke="white" stroke-width="1.5" d="M0,-3.0v7 M-2.5,-0.5L0,-3.0L2.5,-0.5"/>
                </g>
                <g id="arrowDown" xlink:href="#dirArrow" transform="rotate(180) translate(-30 -48)" onmousedown="handlePan(0,1)">
                  <use xlink:href="#rim" fill="#404040">
                        <set attributeName="fill" to="#808080" begin="arrowDown.mouseover" end="arrowDown.mouseout"/>
                  </use>
                  <path fill="none" stroke="white" stroke-width="1.5" d="M0,-3.0v7 M-2.5,-0.5L0,-3.0L2.5,-0.5"/>
                </g>
                <g id="arrowLeft" xlink:href="#dirArrow" transform="rotate(270) translate(-36 17)" onmousedown="handlePan(-1,0)">
                  <use xlink:href="#rim" fill="#404040">
                        <set attributeName="fill" to="#808080" begin="arrowLeft.mouseover" end="arrowLeft.mouseout"/>
                  </use>
                  <path fill="none" stroke="white" stroke-width="1.5" d="M0,-3.0v7 M-2.5,-0.5L0,-3.0L2.5,-0.5"/>
                </g>
        </g>
        <svg viewBox="0 0 15 15" width="100%" height="30px" preserveAspectRatio="xMaxYMin meet">
         <g id="arrow_out" transform="scale(0.3 0.3)">
          <a xlink:href="pointer_8h__incl_org.svg" target="_base">
           <rect id="button" ry="5" rx="5" y="6" x="6" height="38" width="38"
                fill="#f2f5e9" fill-opacity="0.5" stroke="#606060" stroke-width="1.0"/>
           <path id="arrow"
             d="M 11.500037,31.436501 C 11.940474,20.09759 22.043105,11.32322 32.158766,21.979434 L 37.068811,17.246167 C 37.068811,17.246167 37.088388,32 37.088388,32 L 22.160133,31.978069 C 22.160133,31.978069 26.997745,27.140456 26.997745,27.140456 C 18.528582,18.264221 13.291696,25.230495 11.500037,31.436501 z"
             style="fill:#404040;"/>
          </a>
         </g>
        </svg>
</svg>
