<?xml version="1.0" encoding="UTF-8" standalone="no"?>
<!DOCTYPE svg PUBLIC "-//W3C//DTD SVG 1.1//EN"
 "http://www.w3.org/Graphics/SVG/1.1/DTD/svg11.dtd">
<!-- Generated by graphviz version 2.40.1 (20161225.0304)
 -->
<!-- Title: /mnt/hdd/fnky/C0de/CAPSTONE/clean_build/include/rapidjson/prettywriter.h Pages: 1 -->
<!--zoomable 442 -->
<svg id="main" version="1.1" xmlns="http://www.w3.org/2000/svg" xmlns:xlink="http://www.w3.org/1999/xlink" xml:space="preserve" onload="init(evt)">
<style type="text/css"><![CDATA[
.edge:hover path { stroke: red; }
.edge:hover polygon { stroke: red; fill: red; }
]]></style>
<script type="text/javascript"><![CDATA[
var edges = document.getElementsByTagName('g');
if (edges && edges.length) {
  for (var i=0;i<edges.length;i++) {
    if (edges[i].id.substr(0,4)=='edge') {
      edges[i].setAttribute('class','edge');
    }
  }
}
]]></script>
        <defs>
                <circle id="rim" cx="0" cy="0" r="7"/>
                <circle id="rim2" cx="0" cy="0" r="3.5"/>
                <g id="zoomPlus">
                        <use xlink:href="#rim" fill="#404040">
                                <set attributeName="fill" to="#808080" begin="zoomplus.mouseover" end="zoomplus.mouseout"/>
                        </use>
                        <path d="M-4,0h8M0,-4v8" fill="none" stroke="white" stroke-width="1.5" pointer-events="none"/>
                </g>
                <g id="zoomMin">
                        <use xlink:href="#rim" fill="#404040">
                                <set attributeName="fill" to="#808080" begin="zoomminus.mouseover" end="zoomminus.mouseout"/>
                        </use>
                        <path d="M-4,0h8" fill="none" stroke="white" stroke-width="1.5" pointer-events="none"/>
                </g>
                <g id="dirArrow">
                        <path fill="none" stroke="white" stroke-width="1.5" d="M0,-3.0v7 M-2.5,-0.5L0,-3.0L2.5,-0.5"/>
                </g>
               <g id="resetDef">
                       <use xlink:href="#rim2" fill="#404040">
                               <set attributeName="fill" to="#808080" begin="reset.mouseover" end="reset.mouseout"/>
                       </use>
               </g>
        </defs>

<script type="text/javascript">
var viewWidth = 762;
var viewHeight = 442;
var sectionId = 'dynsection-0';
</script>
<script xlink:href="svgpan.js"/>
<svg id="graph" class="graph">
<g id="viewport">
<title>/mnt/hdd/fnky/C0de/CAPSTONE/clean_build/include/rapidjson/prettywriter.h</title>
<!-- Node0 -->
<g id="node1" class="node">
<title>Node0</title>
<polygon fill="#bfbfbf" stroke="#000000" points="398,-392.5 398,-433.5 550,-433.5 550,-392.5 398,-392.5"/>
<text text-anchor="start" x="406" y="-421.5" font-family="Helvetica,sans-Serif" font-size="10.00" fill="#000000">/mnt/hdd/fnky/C0de</text>
<text text-anchor="start" x="406" y="-410.5" font-family="Helvetica,sans-Serif" font-size="10.00" fill="#000000">/CAPSTONE/clean_build</text>
<text text-anchor="middle" x="474" y="-399.5" font-family="Helvetica,sans-Serif" font-size="10.00" fill="#000000">/include/rapidjson/prettywriter.h</text>
</g>
<!-- Node1 -->
<g id="node2" class="node">
<title>Node1</title>
<g id="a_node2"><a xlink:href="writer_8h.html" target="_top" xlink:title="writer.h">
<polygon fill="none" stroke="#000000" points="449.5,-336.5 449.5,-355.5 498.5,-355.5 498.5,-336.5 449.5,-336.5"/>
<text text-anchor="middle" x="474" y="-343.5" font-family="Helvetica,sans-Serif" font-size="10.00" fill="#000000">writer.h</text>
</a>
</g>
</g>
<!-- Node0&#45;&gt;Node1 -->
<g id="edge1" class="edge">
<title>Node0&#45;&gt;Node1</title>
<path fill="none" stroke="#191970" d="M474,-392.168C474,-383.8226 474,-374.2471 474,-365.9879"/>
<polygon fill="#191970" stroke="#191970" points="477.5001,-365.7804 474,-355.7805 470.5001,-365.7805 477.5001,-365.7804"/>
</g>
<!-- Node2 -->
<g id="node3" class="node">
<title>Node2</title>
<g id="a_node3"><a xlink:href="stream_8h.html" target="_top" xlink:title="stream.h">
<polygon fill="none" stroke="#000000" points="444.5,-224.5 444.5,-243.5 499.5,-243.5 499.5,-224.5 444.5,-224.5"/>
<text text-anchor="middle" x="472" y="-231.5" font-family="Helvetica,sans-Serif" font-size="10.00" fill="#000000">stream.h</text>
</a>
</g>
</g>
<!-- Node1&#45;&gt;Node2 -->
<g id="edge2" class="edge">
<title>Node1&#45;&gt;Node2</title>
<path fill="none" stroke="#191970" d="M473.8295,-336.4509C473.5033,-318.184 472.7849,-277.9553 472.3517,-253.6976"/>
<polygon fill="#191970" stroke="#191970" points="475.8482,-253.4608 472.1701,-243.5249 468.8493,-253.5858 475.8482,-253.4608"/>
</g>
<!-- Node8 -->
<g id="node9" class="node">
<title>Node8</title>
<g id="a_node9"><a xlink:href="clzll_8h.html" target="_top" xlink:title="internal/clzll.h">
<polygon fill="none" stroke="#000000" points="332.5,-112.5 332.5,-131.5 409.5,-131.5 409.5,-112.5 332.5,-112.5"/>
<text text-anchor="middle" x="371" y="-119.5" font-family="Helvetica,sans-Serif" font-size="10.00" fill="#000000">internal/clzll.h</text>
</a>
</g>
</g>
<!-- Node1&#45;&gt;Node8 -->
<g id="edge9" class="edge">
<title>Node1&#45;&gt;Node8</title>
<path fill="none" stroke="#191970" d="M449.142,-343.544C422.7047,-339.4564 382.1198,-328.6201 363,-300 330.1414,-250.8145 350.8336,-175.7952 363.4101,-140.9773"/>
<polygon fill="#191970" stroke="#191970" points="366.7172,-142.1269 366.9843,-131.5355 360.1706,-139.6486 366.7172,-142.1269"/>
</g>
<!-- Node9 -->
<g id="node10" class="node">
<title>Node9</title>
<g id="a_node10"><a xlink:href="meta_8h.html" target="_top" xlink:title="internal/meta.h">
<polygon fill="none" stroke="#000000" points="66.5,-112.5 66.5,-131.5 147.5,-131.5 147.5,-112.5 66.5,-112.5"/>
<text text-anchor="middle" x="107" y="-119.5" font-family="Helvetica,sans-Serif" font-size="10.00" fill="#000000">internal/meta.h</text>
</a>
</g>
</g>
<!-- Node1&#45;&gt;Node9 -->
<g id="edge11" class="edge">
<title>Node1&#45;&gt;Node9</title>
<path fill="none" stroke="#191970" d="M449.3261,-341.9544C415.5984,-335.8364 353.7286,-322.4934 305,-300 229.1358,-264.9807 211.1947,-248.9138 154,-188 140.0744,-173.1689 126.8827,-154.0308 118.04,-140.1855"/>
<polygon fill="#191970" stroke="#191970" points="120.9222,-138.1929 112.6575,-131.5638 114.9844,-141.9 120.9222,-138.1929"/>
</g>
<!-- Node10 -->
<g id="node11" class="node">
<title>Node10</title>
<g id="a_node11"><a xlink:href="stack_8h.html" target="_top" xlink:title="internal/stack.h">
<polygon fill="none" stroke="#000000" points="232.5,-224.5 232.5,-243.5 315.5,-243.5 315.5,-224.5 232.5,-224.5"/>
<text text-anchor="middle" x="274" y="-231.5" font-family="Helvetica,sans-Serif" font-size="10.00" fill="#000000">internal/stack.h</text>
</a>
</g>
</g>
<!-- Node1&#45;&gt;Node10 -->
<g id="edge13" class="edge">
<title>Node1&#45;&gt;Node10</title>
<path fill="none" stroke="#191970" d="M449.2648,-342.3895C419.0439,-337.0602 367.3363,-324.901 330,-300 311.3352,-287.5518 295.3945,-267.1756 285.3486,-252.3522"/>
<polygon fill="#191970" stroke="#191970" points="288.0132,-250.0293 279.6289,-243.5521 282.144,-253.8441 288.0132,-250.0293"/>
</g>
<!-- Node16 -->
<g id="node17" class="node">
<title>Node16</title>
<g id="a_node17"><a xlink:href="strfunc_8h.html" target="_top" xlink:title="internal/strfunc.h">
<polygon fill="none" stroke="#000000" points="502.5,-280.5 502.5,-299.5 591.5,-299.5 591.5,-280.5 502.5,-280.5"/>
<text text-anchor="middle" x="547" y="-287.5" font-family="Helvetica,sans-Serif" font-size="10.00" fill="#000000">internal/strfunc.h</text>
</a>
</g>
</g>
<!-- Node1&#45;&gt;Node16 -->
<g id="edge22" class="edge">
<title>Node1&#45;&gt;Node16</title>
<path fill="none" stroke="#191970" d="M486.7156,-336.2455C497.602,-327.8943 513.4883,-315.7076 526.22,-305.9408"/>
<polygon fill="#191970" stroke="#191970" points="528.6261,-308.5063 534.4301,-299.6427 524.3654,-302.9523 528.6261,-308.5063"/>
</g>
<!-- Node18 -->
<g id="node19" class="node">
<title>Node18</title>
<g id="a_node19"><a xlink:href="dtoa_8h.html" target="_top" xlink:title="internal/dtoa.h">
<polygon fill="none" stroke="#000000" points="584,-224.5 584,-243.5 662,-243.5 662,-224.5 584,-224.5"/>
<text text-anchor="middle" x="623" y="-231.5" font-family="Helvetica,sans-Serif" font-size="10.00" fill="#000000">internal/dtoa.h</text>
</a>
</g>
</g>
<!-- Node1&#45;&gt;Node18 -->
<g id="edge25" class="edge">
<title>Node1&#45;&gt;Node18</title>
<path fill="none" stroke="#191970" d="M498.7025,-343.4695C527.1272,-339.273 573.4216,-328.298 601,-300 613.0916,-287.5929 618.5399,-268.3693 620.9935,-253.8629"/>
<polygon fill="#191970" stroke="#191970" points="624.4716,-254.2597 622.3464,-243.8802 617.535,-253.3196 624.4716,-254.2597"/>
</g>
<!-- Node19 -->
<g id="node20" class="node">
<title>Node19</title>
<g id="a_node20"><a xlink:href="itoa_8h.html" target="_top" xlink:title="itoa.h">
<polygon fill="none" stroke="#000000" points="669.5,-168.5 669.5,-187.5 710.5,-187.5 710.5,-168.5 669.5,-168.5"/>
<text text-anchor="middle" x="690" y="-175.5" font-family="Helvetica,sans-Serif" font-size="10.00" fill="#000000">itoa.h</text>
</a>
</g>
</g>
<!-- Node1&#45;&gt;Node19 -->
<g id="edge34" class="edge">
<title>Node1&#45;&gt;Node19</title>
<path fill="none" stroke="#191970" d="M498.6078,-342.4417C529.2724,-337.1196 582.3417,-324.9211 621,-300 649.0438,-281.9215 654.8697,-273.2078 671,-244 678.926,-229.6481 683.819,-211.6732 686.6505,-198.1075"/>
<polygon fill="#191970" stroke="#191970" points="690.1567,-198.4003 688.5655,-187.9257 683.2774,-197.1064 690.1567,-198.4003"/>
</g>
<!-- Node22 -->
<g id="node23" class="node">
<title>Node22</title>
<g id="a_node23"><a xlink:href="stringbuffer_8h.html" target="_top" xlink:title="stringbuffer.h">
<polygon fill="none" stroke="#000000" points="372,-280.5 372,-299.5 446,-299.5 446,-280.5 372,-280.5"/>
<text text-anchor="middle" x="409" y="-287.5" font-family="Helvetica,sans-Serif" font-size="10.00" fill="#000000">stringbuffer.h</text>
</a>
</g>
</g>
<!-- Node1&#45;&gt;Node22 -->
<g id="edge35" class="edge">
<title>Node1&#45;&gt;Node22</title>
<path fill="none" stroke="#191970" d="M462.6779,-336.2455C453.0777,-327.9746 439.1108,-315.9416 427.8305,-306.2232"/>
<polygon fill="#191970" stroke="#191970" points="430.053,-303.5182 420.1924,-299.6427 425.484,-308.8214 430.053,-303.5182"/>
</g>
<!-- Node23 -->
<g id="node24" class="node">
<title>Node23</title>
<polygon fill="none" stroke="#bfbfbf" points="718.5,-280.5 718.5,-299.5 753.5,-299.5 753.5,-280.5 718.5,-280.5"/>
<text text-anchor="middle" x="736" y="-287.5" font-family="Helvetica,sans-Serif" font-size="10.00" fill="#000000">new</text>
</g>
<!-- Node1&#45;&gt;Node23 -->
<g id="edge38" class="edge">
<title>Node1&#45;&gt;Node23</title>
<path fill="none" stroke="#191970" d="M498.7003,-341.9417C541.0295,-334.7909 630.0238,-318.9003 704,-300 705.4803,-299.6218 706.9935,-299.216 708.5173,-298.7923"/>
<polygon fill="#191970" stroke="#191970" points="709.8963,-302.0341 718.4901,-295.8376 707.9078,-295.3225 709.8963,-302.0341"/>
</g>
<!-- Node3 -->
<g id="node4" class="node">
<title>Node3</title>
<g id="a_node4"><a xlink:href="rapidjson_8h.html" target="_top" xlink:title="common definitions and configuration ">
<polygon fill="none" stroke="#000000" points="406,-56.5 406,-75.5 470,-75.5 470,-56.5 406,-56.5"/>
<text text-anchor="middle" x="438" y="-63.5" font-family="Helvetica,sans-Serif" font-size="10.00" fill="#000000">rapidjson.h</text>
</a>
</g>
</g>
<!-- Node2&#45;&gt;Node3 -->
<g id="edge3" class="edge">
<title>Node2&#45;&gt;Node3</title>
<path fill="none" stroke="#191970" d="M485.6828,-224.3359C513.5112,-203.4755 571.8805,-152.8153 545,-112 530.5489,-90.0575 503.2017,-78.5388 479.7727,-72.5153"/>
<polygon fill="#191970" stroke="#191970" points="480.5525,-69.1034 470.0206,-70.2559 478.9725,-75.9228 480.5525,-69.1034"/>
</g>
<!-- Node7 -->
<g id="node8" class="node">
<title>Node7</title>
<g id="a_node8"><a xlink:href="encodings_8h.html" target="_top" xlink:title="encodings.h">
<polygon fill="none" stroke="#000000" points="466.5,-112.5 466.5,-131.5 535.5,-131.5 535.5,-112.5 466.5,-112.5"/>
<text text-anchor="middle" x="501" y="-119.5" font-family="Helvetica,sans-Serif" font-size="10.00" fill="#000000">encodings.h</text>
</a>
</g>
</g>
<!-- Node2&#45;&gt;Node7 -->
<g id="edge7" class="edge">
<title>Node2&#45;&gt;Node7</title>
<path fill="none" stroke="#191970" d="M474.4725,-224.4509C479.2238,-206.1013 489.7131,-165.5908 495.9847,-141.3693"/>
<polygon fill="#191970" stroke="#191970" points="499.4153,-142.083 498.5337,-131.5249 492.6388,-140.3283 499.4153,-142.083"/>
</g>
<!-- Node4 -->
<g id="node5" class="node">
<title>Node4</title>
<polygon fill="none" stroke="#bfbfbf" points="351.5,-.5 351.5,-19.5 396.5,-19.5 396.5,-.5 351.5,-.5"/>
<text text-anchor="middle" x="374" y="-7.5" font-family="Helvetica,sans-Serif" font-size="10.00" fill="#000000">cstdlib</text>
</g>
<!-- Node3&#45;&gt;Node4 -->
<g id="edge4" class="edge">
<title>Node3&#45;&gt;Node4</title>
<path fill="none" stroke="#191970" d="M426.8521,-56.2455C417.4913,-48.0549 403.9142,-36.1749 392.8651,-26.5069"/>
<polygon fill="#191970" stroke="#191970" points="394.8508,-23.5937 385.0202,-19.6427 390.2412,-28.8618 394.8508,-23.5937"/>
</g>
<!-- Node5 -->
<g id="node6" class="node">
<title>Node5</title>
<polygon fill="none" stroke="#bfbfbf" points="415,-.5 415,-19.5 461,-19.5 461,-.5 415,-.5"/>
<text text-anchor="middle" x="438" y="-7.5" font-family="Helvetica,sans-Serif" font-size="10.00" fill="#000000">cstring</text>
</g>
<!-- Node3&#45;&gt;Node5 -->
<g id="edge5" class="edge">
<title>Node3&#45;&gt;Node5</title>
<path fill="none" stroke="#191970" d="M438,-56.2455C438,-48.9382 438,-38.6944 438,-29.7046"/>
<polygon fill="#191970" stroke="#191970" points="441.5001,-29.6426 438,-19.6427 434.5001,-29.6427 441.5001,-29.6426"/>
</g>
<!-- Node6 -->
<g id="node7" class="node">
<title>Node6</title>
<polygon fill="none" stroke="#bfbfbf" points="479.5,-.5 479.5,-19.5 528.5,-19.5 528.5,-.5 479.5,-.5"/>
<text text-anchor="middle" x="504" y="-7.5" font-family="Helvetica,sans-Serif" font-size="10.00" fill="#000000">cassert</text>
</g>
<!-- Node3&#45;&gt;Node6 -->
<g id="edge6" class="edge">
<title>Node3&#45;&gt;Node6</title>
<path fill="none" stroke="#191970" d="M449.4963,-56.2455C459.2442,-47.9746 473.4259,-35.9416 484.8798,-26.2232"/>
<polygon fill="#191970" stroke="#191970" points="487.2747,-28.7813 492.6354,-19.6427 482.7459,-23.4437 487.2747,-28.7813"/>
</g>
<!-- Node7&#45;&gt;Node3 -->
<g id="edge8" class="edge">
<title>Node7&#45;&gt;Node3</title>
<path fill="none" stroke="#191970" d="M490.0262,-112.2455C480.8118,-104.0549 467.4468,-92.1749 456.5703,-82.5069"/>
<polygon fill="#191970" stroke="#191970" points="458.6474,-79.6704 448.848,-75.6427 453.9968,-84.9023 458.6474,-79.6704"/>
</g>
<!-- Node8&#45;&gt;Node3 -->
<g id="edge10" class="edge">
<title>Node8&#45;&gt;Node3</title>
<path fill="none" stroke="#191970" d="M382.6705,-112.2455C392.5661,-103.9746 406.9627,-91.9416 418.5901,-82.2232"/>
<polygon fill="#191970" stroke="#191970" points="421.035,-84.7413 426.4632,-75.6427 416.5458,-79.3703 421.035,-84.7413"/>
</g>
<!-- Node9&#45;&gt;Node3 -->
<g id="edge12" class="edge">
<title>Node9&#45;&gt;Node3</title>
<path fill="none" stroke="#191970" d="M147.537,-114.5599C152.4086,-113.6864 157.3151,-112.8163 162,-112 244.7247,-97.5866 341.5716,-81.6649 395.7519,-72.8433"/>
<polygon fill="#191970" stroke="#191970" points="396.3722,-76.2885 405.6806,-71.2285 395.2484,-69.3793 396.3722,-76.2885"/>
</g>
<!-- Node11 -->
<g id="node12" class="node">
<title>Node11</title>
<g id="a_node12"><a xlink:href="allocators_8h.html" target="_top" xlink:title="../allocators.h">
<polygon fill="none" stroke="#000000" points="163,-168.5 163,-187.5 239,-187.5 239,-168.5 163,-168.5"/>
<text text-anchor="middle" x="201" y="-175.5" font-family="Helvetica,sans-Serif" font-size="10.00" fill="#000000">../allocators.h</text>
</a>
</g>
</g>
<!-- Node10&#45;&gt;Node11 -->
<g id="edge14" class="edge">
<title>Node10&#45;&gt;Node11</title>
<path fill="none" stroke="#191970" d="M261.2844,-224.2455C250.398,-215.8943 234.5117,-203.7076 221.78,-193.9408"/>
<polygon fill="#191970" stroke="#191970" points="223.6346,-190.9523 213.5699,-187.6427 219.3739,-196.5063 223.6346,-190.9523"/>
</g>
<!-- Node14 -->
<g id="node15" class="node">
<title>Node14</title>
<g id="a_node15"><a xlink:href="swap_8h.html" target="_top" xlink:title="swap.h">
<polygon fill="none" stroke="#000000" points="0,-112.5 0,-131.5 48,-131.5 48,-112.5 0,-112.5"/>
<text text-anchor="middle" x="24" y="-119.5" font-family="Helvetica,sans-Serif" font-size="10.00" fill="#000000">swap.h</text>
</a>
</g>
</g>
<!-- Node10&#45;&gt;Node14 -->
<g id="edge19" class="edge">
<title>Node10&#45;&gt;Node14</title>
<path fill="none" stroke="#191970" d="M246.506,-224.381C221.9684,-215.5796 185.1987,-201.8547 154,-188 117.3268,-171.7142 76.2211,-150.2887 50.2363,-136.3345"/>
<polygon fill="#191970" stroke="#191970" points="51.8456,-133.2258 41.3833,-131.5549 48.52,-139.3855 51.8456,-133.2258"/>
</g>
<!-- Node15 -->
<g id="node16" class="node">
<title>Node15</title>
<polygon fill="none" stroke="#bfbfbf" points="257.5,-168.5 257.5,-187.5 306.5,-187.5 306.5,-168.5 257.5,-168.5"/>
<text text-anchor="middle" x="282" y="-175.5" font-family="Helvetica,sans-Serif" font-size="10.00" fill="#000000">cstddef</text>
</g>
<!-- Node10&#45;&gt;Node15 -->
<g id="edge21" class="edge">
<title>Node10&#45;&gt;Node15</title>
<path fill="none" stroke="#191970" d="M275.3935,-224.2455C276.4374,-216.9382 277.9008,-206.6944 279.1851,-197.7046"/>
<polygon fill="#191970" stroke="#191970" points="282.673,-198.0372 280.6225,-187.6427 275.7434,-197.0472 282.673,-198.0372"/>
</g>
<!-- Node11&#45;&gt;Node3 -->
<g id="edge15" class="edge">
<title>Node11&#45;&gt;Node3</title>
<path fill="none" stroke="#191970" d="M196.2342,-168.2198C190.1215,-154.0986 181.7877,-127.9481 195,-112 219.9879,-81.8381 332.781,-71.3038 395.5342,-67.7403"/>
<polygon fill="#191970" stroke="#191970" points="396.0961,-71.2155 405.8961,-67.1894 395.7244,-64.2253 396.0961,-71.2155"/>
</g>
<!-- Node11&#45;&gt;Node9 -->
<g id="edge16" class="edge">
<title>Node11&#45;&gt;Node9</title>
<path fill="none" stroke="#191970" d="M184.6264,-168.2455C170.0692,-159.5731 148.569,-146.7645 131.8848,-136.825"/>
<polygon fill="#191970" stroke="#191970" points="133.5683,-133.7539 123.1859,-131.6427 129.9856,-139.7676 133.5683,-133.7539"/>
</g>
<!-- Node12 -->
<g id="node13" class="node">
<title>Node12</title>
<polygon fill="none" stroke="#bfbfbf" points="204,-112.5 204,-131.5 256,-131.5 256,-112.5 204,-112.5"/>
<text text-anchor="middle" x="230" y="-119.5" font-family="Helvetica,sans-Serif" font-size="10.00" fill="#000000">memory</text>
</g>
<!-- Node11&#45;&gt;Node12 -->
<g id="edge17" class="edge">
<title>Node11&#45;&gt;Node12</title>
<path fill="none" stroke="#191970" d="M206.0514,-168.2455C210.0019,-160.617 215.6097,-149.7881 220.4058,-140.5267"/>
<polygon fill="#191970" stroke="#191970" points="223.5159,-142.1321 225.0065,-131.6427 217.2999,-138.9131 223.5159,-142.1321"/>
</g>
<!-- Node13 -->
<g id="node14" class="node">
<title>Node13</title>
<polygon fill="none" stroke="#bfbfbf" points="274,-112.5 274,-131.5 314,-131.5 314,-112.5 274,-112.5"/>
<text text-anchor="middle" x="294" y="-119.5" font-family="Helvetica,sans-Serif" font-size="10.00" fill="#000000">limits</text>
</g>
<!-- Node11&#45;&gt;Node13 -->
<g id="edge18" class="edge">
<title>Node11&#45;&gt;Node13</title>
<path fill="none" stroke="#191970" d="M217.1994,-168.2455C231.6018,-159.5731 252.8732,-146.7645 269.3799,-136.825"/>
<polygon fill="#191970" stroke="#191970" points="271.225,-139.7996 277.9863,-131.6427 267.614,-133.8028 271.225,-139.7996"/>
</g>
<!-- Node14&#45;&gt;Node3 -->
<g id="edge20" class="edge">
<title>Node14&#45;&gt;Node3</title>
<path fill="none" stroke="#191970" d="M48.025,-114.1915C51.027,-113.3724 54.0708,-112.6157 57,-112 178.3993,-86.4806 324.7507,-73.7491 395.5402,-68.7033"/>
<polygon fill="#191970" stroke="#191970" points="396.0985,-72.1729 405.831,-67.9863 395.6119,-65.1899 396.0985,-72.1729"/>
</g>
<!-- Node16&#45;&gt;Node2 -->
<g id="edge23" class="edge">
<title>Node16&#45;&gt;Node2</title>
<path fill="none" stroke="#191970" d="M533.936,-280.2455C522.6438,-271.814 506.1155,-259.4729 492.9729,-249.6598"/>
<polygon fill="#191970" stroke="#191970" points="495.0211,-246.8211 484.9143,-243.6427 490.8331,-252.4301 495.0211,-246.8211"/>
</g>
<!-- Node17 -->
<g id="node18" class="node">
<title>Node17</title>
<polygon fill="none" stroke="#bfbfbf" points="518,-224.5 518,-243.5 566,-243.5 566,-224.5 518,-224.5"/>
<text text-anchor="middle" x="542" y="-231.5" font-family="Helvetica,sans-Serif" font-size="10.00" fill="#000000">cwchar</text>
</g>
<!-- Node16&#45;&gt;Node17 -->
<g id="edge24" class="edge">
<title>Node16&#45;&gt;Node17</title>
<path fill="none" stroke="#191970" d="M546.1291,-280.2455C545.4766,-272.9382 544.562,-262.6944 543.7593,-253.7046"/>
<polygon fill="#191970" stroke="#191970" points="547.2365,-253.2918 542.861,-243.6427 540.2642,-253.9143 547.2365,-253.2918"/>
</g>
<!-- Node18&#45;&gt;Node19 -->
<g id="edge26" class="edge">
<title>Node18&#45;&gt;Node19</title>
<path fill="none" stroke="#191970" d="M634.6705,-224.2455C644.5661,-215.9746 658.9627,-203.9416 670.5901,-194.2232"/>
<polygon fill="#191970" stroke="#191970" points="673.035,-196.7413 678.4632,-187.6427 668.5458,-191.3703 673.035,-196.7413"/>
</g>
<!-- Node20 -->
<g id="node21" class="node">
<title>Node20</title>
<g id="a_node21"><a xlink:href="diyfp_8h.html" target="_top" xlink:title="diyfp.h">
<polygon fill="none" stroke="#000000" points="393,-168.5 393,-187.5 439,-187.5 439,-168.5 393,-168.5"/>
<text text-anchor="middle" x="416" y="-175.5" font-family="Helvetica,sans-Serif" font-size="10.00" fill="#000000">diyfp.h</text>
</a>
</g>
</g>
<!-- Node18&#45;&gt;Node20 -->
<g id="edge28" class="edge">
<title>Node18&#45;&gt;Node20</title>
<path fill="none" stroke="#191970" d="M587.4154,-224.3733C548.638,-213.8827 487.0885,-197.2317 449.2538,-186.9962"/>
<polygon fill="#191970" stroke="#191970" points="449.8171,-183.5228 439.25,-184.2899 447.989,-190.2799 449.8171,-183.5228"/>
</g>
<!-- Node21 -->
<g id="node22" class="node">
<title>Node21</title>
<g id="a_node22"><a xlink:href="ieee754_8h.html" target="_top" xlink:title="ieee754.h">
<polygon fill="none" stroke="#000000" points="592.5,-168.5 592.5,-187.5 651.5,-187.5 651.5,-168.5 592.5,-168.5"/>
<text text-anchor="middle" x="622" y="-175.5" font-family="Helvetica,sans-Serif" font-size="10.00" fill="#000000">ieee754.h</text>
</a>
</g>
</g>
<!-- Node18&#45;&gt;Node21 -->
<g id="edge32" class="edge">
<title>Node18&#45;&gt;Node21</title>
<path fill="none" stroke="#191970" d="M622.8258,-224.2455C622.6953,-216.9382 622.5124,-206.6944 622.3519,-197.7046"/>
<polygon fill="#191970" stroke="#191970" points="625.8503,-197.5786 622.1722,-187.6427 618.8514,-197.7036 625.8503,-197.5786"/>
</g>
<!-- Node19&#45;&gt;Node3 -->
<g id="edge27" class="edge">
<title>Node19&#45;&gt;Node3</title>
<path fill="none" stroke="#191970" d="M679.6061,-168.2773C663.8019,-153.9872 632.2515,-127.3503 601,-112 562.1336,-92.9094 514.0435,-80.5605 480.2034,-73.5143"/>
<polygon fill="#191970" stroke="#191970" points="480.6791,-70.0399 470.1848,-71.4962 479.2967,-76.902 480.6791,-70.0399"/>
</g>
<!-- Node20&#45;&gt;Node3 -->
<g id="edge29" class="edge">
<title>Node20&#45;&gt;Node3</title>
<path fill="none" stroke="#191970" d="M417.8757,-168.4509C421.4801,-150.1013 429.4375,-109.5908 434.1953,-85.3693"/>
<polygon fill="#191970" stroke="#191970" points="437.6359,-86.012 436.129,-75.5249 430.7671,-84.6627 437.6359,-86.012"/>
</g>
<!-- Node20&#45;&gt;Node8 -->
<g id="edge30" class="edge">
<title>Node20&#45;&gt;Node8</title>
<path fill="none" stroke="#191970" d="M408.1616,-168.2455C401.838,-160.3761 392.7776,-149.101 385.1864,-139.6542"/>
<polygon fill="#191970" stroke="#191970" points="387.7408,-137.2454 378.7486,-131.6427 382.2842,-141.6302 387.7408,-137.2454"/>
</g>
<!-- Node20&#45;&gt;Node13 -->
<g id="edge31" class="edge">
<title>Node20&#45;&gt;Node13</title>
<path fill="none" stroke="#191970" d="M395.0275,-168.3733C375.3246,-159.3293 345.6467,-145.7067 323.5489,-135.5634"/>
<polygon fill="#191970" stroke="#191970" points="324.8419,-132.3059 314.2935,-131.315 321.9217,-138.6677 324.8419,-132.3059"/>
</g>
<!-- Node21&#45;&gt;Node3 -->
<g id="edge33" class="edge">
<title>Node21&#45;&gt;Node3</title>
<path fill="none" stroke="#191970" d="M618.097,-168.4468C611.7731,-154.1291 597.9508,-127.1707 578,-112 549.3991,-90.2518 510.0445,-78.5215 480.3429,-72.3628"/>
<polygon fill="#191970" stroke="#191970" points="480.7567,-68.8779 470.2731,-70.4095 479.4236,-75.7498 480.7567,-68.8779"/>
</g>
<!-- Node22&#45;&gt;Node2 -->
<g id="edge36" class="edge">
<title>Node22&#45;&gt;Node2</title>
<path fill="none" stroke="#191970" d="M419.9738,-280.2455C429.1882,-272.0549 442.5532,-260.1749 453.4297,-250.5069"/>
<polygon fill="#191970" stroke="#191970" points="456.0032,-252.9023 461.152,-243.6427 451.3526,-247.6704 456.0032,-252.9023"/>
</g>
<!-- Node22&#45;&gt;Node10 -->
<g id="edge37" class="edge">
<title>Node22&#45;&gt;Node10</title>
<path fill="none" stroke="#191970" d="M385.7927,-280.3733C363.8301,-271.2629 330.6668,-257.5062 306.1599,-247.3404"/>
<polygon fill="#191970" stroke="#191970" points="307.4824,-244.0999 296.9045,-243.5011 304.8003,-250.5657 307.4824,-244.0999"/>
</g>
</g>
</svg>
        <g id="navigator" transform="translate(0 0)" fill="#404254">
                <rect fill="#f2f5e9" fill-opacity="0.5" stroke="#606060" stroke-width=".5" x="0" y="0" width="60" height="60"/>
                <use id="zoomplus" xlink:href="#zoomPlus" x="17" y="9" onmousedown="handleZoom(evt,'in')"/>
                <use id="zoomminus" xlink:href="#zoomMin" x="42" y="9" onmousedown="handleZoom(evt,'out')"/>
                <use id="reset" xlink:href="#resetDef" x="30" y="36" onmousedown="handleReset()"/>
                <g id="arrowUp" xlink:href="#dirArrow" transform="translate(30 24)" onmousedown="handlePan(0,-1)">
                  <use xlink:href="#rim" fill="#404040">
                        <set attributeName="fill" to="#808080" begin="arrowUp.mouseover" end="arrowUp.mouseout"/>
                  </use>
                  <path fill="none" stroke="white" stroke-width="1.5" d="M0,-3.0v7 M-2.5,-0.5L0,-3.0L2.5,-0.5"/>
                </g>
                <g id="arrowRight" xlink:href="#dirArrow" transform="rotate(90) translate(36 -43)" onmousedown="handlePan(1,0)">
                  <use xlink:href="#rim" fill="#404040">
                        <set attributeName="fill" to="#808080" begin="arrowRight.mouseover" end="arrowRight.mouseout"/>
                  </use>
                  <path fill="none" stroke="white" stroke-width="1.5" d="M0,-3.0v7 M-2.5,-0.5L0,-3.0L2.5,-0.5"/>
                </g>
                <g id="arrowDown" xlink:href="#dirArrow" transform="rotate(180) translate(-30 -48)" onmousedown="handlePan(0,1)">
                  <use xlink:href="#rim" fill="#404040">
                        <set attributeName="fill" to="#808080" begin="arrowDown.mouseover" end="arrowDown.mouseout"/>
                  </use>
                  <path fill="none" stroke="white" stroke-width="1.5" d="M0,-3.0v7 M-2.5,-0.5L0,-3.0L2.5,-0.5"/>
                </g>
                <g id="arrowLeft" xlink:href="#dirArrow" transform="rotate(270) translate(-36 17)" onmousedown="handlePan(-1,0)">
                  <use xlink:href="#rim" fill="#404040">
                        <set attributeName="fill" to="#808080" begin="arrowLeft.mouseover" end="arrowLeft.mouseout"/>
                  </use>
                  <path fill="none" stroke="white" stroke-width="1.5" d="M0,-3.0v7 M-2.5,-0.5L0,-3.0L2.5,-0.5"/>
                </g>
        </g>
        <svg viewBox="0 0 15 15" width="100%" height="30px" preserveAspectRatio="xMaxYMin meet">
         <g id="arrow_out" transform="scale(0.3 0.3)">
          <a xlink:href="prettywriter_8h__incl_org.svg" target="_base">
           <rect id="button" ry="5" rx="5" y="6" x="6" height="38" width="38"
                fill="#f2f5e9" fill-opacity="0.5" stroke="#606060" stroke-width="1.0"/>
           <path id="arrow"
             d="M 11.500037,31.436501 C 11.940474,20.09759 22.043105,11.32322 32.158766,21.979434 L 37.068811,17.246167 C 37.068811,17.246167 37.088388,32 37.088388,32 L 22.160133,31.978069 C 22.160133,31.978069 26.997745,27.140456 26.997745,27.140456 C 18.528582,18.264221 13.291696,25.230495 11.500037,31.436501 z"
             style="fill:#404040;"/>
          </a>
         </g>
        </svg>
</svg>
