<?xml version="1.0" encoding="UTF-8" standalone="no"?>
<!DOCTYPE svg PUBLIC "-//W3C//DTD SVG 1.1//EN"
 "http://www.w3.org/Graphics/SVG/1.1/DTD/svg11.dtd">
<!-- Generated by graphviz version 2.40.1 (20161225.0304)
 -->
<!-- Title: /mnt/hdd/fnky/C0de/CAPSTONE/clean_build/include/Actors/Projectile_Acotr.h Pages: 1 -->
<!--zoomable 397 -->
<svg id="main" version="1.1" xmlns="http://www.w3.org/2000/svg" xmlns:xlink="http://www.w3.org/1999/xlink" xml:space="preserve" onload="init(evt)">
<style type="text/css"><![CDATA[
.edge:hover path { stroke: red; }
.edge:hover polygon { stroke: red; fill: red; }
]]></style>
<script type="text/javascript"><![CDATA[
var edges = document.getElementsByTagName('g');
if (edges && edges.length) {
  for (var i=0;i<edges.length;i++) {
    if (edges[i].id.substr(0,4)=='edge') {
      edges[i].setAttribute('class','edge');
    }
  }
}
]]></script>
        <defs>
                <circle id="rim" cx="0" cy="0" r="7"/>
                <circle id="rim2" cx="0" cy="0" r="3.5"/>
                <g id="zoomPlus">
                        <use xlink:href="#rim" fill="#404040">
                                <set attributeName="fill" to="#808080" begin="zoomplus.mouseover" end="zoomplus.mouseout"/>
                        </use>
                        <path d="M-4,0h8M0,-4v8" fill="none" stroke="white" stroke-width="1.5" pointer-events="none"/>
                </g>
                <g id="zoomMin">
                        <use xlink:href="#rim" fill="#404040">
                                <set attributeName="fill" to="#808080" begin="zoomminus.mouseover" end="zoomminus.mouseout"/>
                        </use>
                        <path d="M-4,0h8" fill="none" stroke="white" stroke-width="1.5" pointer-events="none"/>
                </g>
                <g id="dirArrow">
                        <path fill="none" stroke="white" stroke-width="1.5" d="M0,-3.0v7 M-2.5,-0.5L0,-3.0L2.5,-0.5"/>
                </g>
               <g id="resetDef">
                       <use xlink:href="#rim2" fill="#404040">
                               <set attributeName="fill" to="#808080" begin="reset.mouseover" end="reset.mouseout"/>
                       </use>
               </g>
        </defs>

<script type="text/javascript">
var viewWidth = 698;
var viewHeight = 397;
var sectionId = 'dynsection-0';
</script>
<script xlink:href="svgpan.js"/>
<svg id="graph" class="graph">
<g id="viewport">
<title>/mnt/hdd/fnky/C0de/CAPSTONE/clean_build/include/Actors/Projectile_Acotr.h</title>
<!-- Node0 -->
<g id="node1" class="node">
<title>Node0</title>
<polygon fill="#bfbfbf" stroke="#000000" points="288.5,-336.5 288.5,-388.5 415.5,-388.5 415.5,-336.5 288.5,-336.5"/>
<text text-anchor="start" x="296.5" y="-376.5" font-family="Helvetica,sans-Serif" font-size="10.00" fill="#000000">/mnt/hdd/fnky/C0de</text>
<text text-anchor="start" x="296.5" y="-365.5" font-family="Helvetica,sans-Serif" font-size="10.00" fill="#000000">/CAPSTONE/clean_build</text>
<text text-anchor="start" x="296.5" y="-354.5" font-family="Helvetica,sans-Serif" font-size="10.00" fill="#000000">/include/Actors/Projectile</text>
<text text-anchor="middle" x="352" y="-343.5" font-family="Helvetica,sans-Serif" font-size="10.00" fill="#000000">_Acotr.h</text>
</g>
<!-- Node1 -->
<g id="node2" class="node">
<title>Node1</title>
<g id="a_node2"><a xlink:href="Components_2Component_8h.html" target="_top" xlink:title="../Components/Component.h">
<polygon fill="none" stroke="#000000" points="61.5,-56.5 61.5,-75.5 204.5,-75.5 204.5,-56.5 61.5,-56.5"/>
<text text-anchor="middle" x="133" y="-63.5" font-family="Helvetica,sans-Serif" font-size="10.00" fill="#000000">../Components/Component.h</text>
</a>
</g>
</g>
<!-- Node0&#45;&gt;Node1 -->
<g id="edge1" class="edge">
<title>Node0&#45;&gt;Node1</title>
<path fill="none" stroke="#191970" d="M288.2555,-352.6432C186.8187,-335.1384 0,-294.6646 0,-234 0,-234 0,-234 0,-178 0,-128.0478 55.5705,-95.8768 94.8708,-79.371"/>
<polygon fill="#191970" stroke="#191970" points="96.4966,-82.4897 104.4682,-75.5108 93.8844,-75.9953 96.4966,-82.4897"/>
</g>
<!-- Node2 -->
<g id="node3" class="node">
<title>Node2</title>
<polygon fill="none" stroke="#bfbfbf" points="414,-.5 414,-19.5 466,-19.5 466,-.5 414,-.5"/>
<text text-anchor="middle" x="440" y="-7.5" font-family="Helvetica,sans-Serif" font-size="10.00" fill="#000000">memory</text>
</g>
<!-- Node0&#45;&gt;Node2 -->
<g id="edge32" class="edge">
<title>Node0&#45;&gt;Node2</title>
<path fill="none" stroke="#191970" d="M415.5752,-351.7302C513.4856,-333.3174 690,-292.0698 690,-234 690,-234 690,-234 690,-122 690,-84.9295 670.209,-76.0056 639,-56 612.3141,-38.8938 525.8446,-23.2453 476.1093,-15.3616"/>
<polygon fill="#191970" stroke="#191970" points="476.5084,-11.8816 466.0886,-13.7994 475.4301,-18.7981 476.5084,-11.8816"/>
</g>
<!-- Node3 -->
<g id="node4" class="node">
<title>Node3</title>
<g id="a_node4"><a xlink:href="Actor_8h.html" target="_top" xlink:title="Actor.h">
<polygon fill="none" stroke="#000000" points="259,-112.5 259,-131.5 307,-131.5 307,-112.5 259,-112.5"/>
<text text-anchor="middle" x="283" y="-119.5" font-family="Helvetica,sans-Serif" font-size="10.00" fill="#000000">Actor.h</text>
</a>
</g>
</g>
<!-- Node0&#45;&gt;Node3 -->
<g id="edge3" class="edge">
<title>Node0&#45;&gt;Node3</title>
<path fill="none" stroke="#191970" d="M333.5519,-336.4945C317.9853,-313.3052 296.3233,-277.8822 284,-244 275.3583,-220.2401 276.2309,-213.184 274,-188 273.2156,-179.1458 273.1426,-176.8474 274,-168 274.8418,-159.3132 276.5579,-149.8313 278.268,-141.7451"/>
<polygon fill="#191970" stroke="#191970" points="281.7274,-142.3146 280.5135,-131.7895 274.899,-140.7743 281.7274,-142.3146"/>
</g>
<!-- Node6 -->
<g id="node7" class="node">
<title>Node6</title>
<g id="a_node7"><a xlink:href="Player__Actor_8h.html" target="_top" xlink:title="Player_Actor.h">
<polygon fill="none" stroke="#000000" points="367.5,-280.5 367.5,-299.5 448.5,-299.5 448.5,-280.5 367.5,-280.5"/>
<text text-anchor="middle" x="408" y="-287.5" font-family="Helvetica,sans-Serif" font-size="10.00" fill="#000000">Player_Actor.h</text>
</a>
</g>
</g>
<!-- Node0&#45;&gt;Node6 -->
<g id="edge7" class="edge">
<title>Node0&#45;&gt;Node6</title>
<path fill="none" stroke="#191970" d="M372.2173,-336.3258C379.565,-326.8132 387.6893,-316.2951 394.3371,-307.6886"/>
<polygon fill="#191970" stroke="#191970" points="397.2928,-309.5876 400.6358,-299.534 391.7529,-305.3085 397.2928,-309.5876"/>
</g>
<!-- Node9 -->
<g id="node10" class="node">
<title>Node9</title>
<polygon fill="none" stroke="#bfbfbf" points="488,-112.5 488,-131.5 558,-131.5 558,-112.5 488,-112.5"/>
<text text-anchor="middle" x="523" y="-119.5" font-family="Helvetica,sans-Serif" font-size="10.00" fill="#000000">glm/fwd.hpp</text>
</g>
<!-- Node0&#45;&gt;Node9 -->
<g id="edge31" class="edge">
<title>Node0&#45;&gt;Node9</title>
<path fill="none" stroke="#191970" d="M415.707,-338.5072C457.2432,-319.4062 508.7988,-288.4437 537,-244 555.2534,-215.2336 555.113,-201.0888 547,-168 544.6257,-158.3164 539.8179,-148.4071 535.1247,-140.2776"/>
<polygon fill="#191970" stroke="#191970" points="538.0472,-138.3486 529.8208,-131.672 532.0881,-142.0214 538.0472,-138.3486"/>
</g>
<!-- Node12 -->
<g id="node13" class="node">
<title>Node12</title>
<g id="a_node13"><a xlink:href="Gun__Actor_8h.html" target="_top" xlink:title="Gun_Actor.h">
<polygon fill="none" stroke="#000000" points="104.5,-168.5 104.5,-187.5 175.5,-187.5 175.5,-168.5 104.5,-168.5"/>
<text text-anchor="middle" x="140" y="-175.5" font-family="Helvetica,sans-Serif" font-size="10.00" fill="#000000">Gun_Actor.h</text>
</a>
</g>
</g>
<!-- Node0&#45;&gt;Node12 -->
<g id="edge25" class="edge">
<title>Node0&#45;&gt;Node12</title>
<path fill="none" stroke="#191970" d="M288.2596,-337.9731C267.3945,-328.1042 244.9788,-315.3748 227,-300 191.9174,-269.9986 163.6703,-222.9728 149.6381,-196.9377"/>
<polygon fill="#191970" stroke="#191970" points="152.5694,-194.9917 144.8188,-187.7682 146.3731,-198.2484 152.5694,-194.9917"/>
</g>
<!-- Node1&#45;&gt;Node2 -->
<g id="edge2" class="edge">
<title>Node1&#45;&gt;Node2</title>
<path fill="none" stroke="#191970" d="M185.4264,-56.4369C247.56,-45.1031 349.4671,-26.5141 403.5795,-16.6435"/>
<polygon fill="#191970" stroke="#191970" points="404.5292,-20.0281 413.7388,-14.7903 403.273,-13.1417 404.5292,-20.0281"/>
</g>
<!-- Node3&#45;&gt;Node1 -->
<g id="edge6" class="edge">
<title>Node3&#45;&gt;Node1</title>
<path fill="none" stroke="#191970" d="M258.8999,-113.0026C234.305,-103.8205 195.8828,-89.4763 167.9495,-79.0478"/>
<polygon fill="#191970" stroke="#191970" points="169.1389,-75.756 158.5464,-75.5373 166.6906,-82.3139 169.1389,-75.756"/>
</g>
<!-- Node4 -->
<g id="node5" class="node">
<title>Node4</title>
<polygon fill="none" stroke="#bfbfbf" points="535,-56.5 535,-75.5 579,-75.5 579,-56.5 535,-56.5"/>
<text text-anchor="middle" x="557" y="-63.5" font-family="Helvetica,sans-Serif" font-size="10.00" fill="#000000">vector</text>
</g>
<!-- Node3&#45;&gt;Node4 -->
<g id="edge4" class="edge">
<title>Node3&#45;&gt;Node4</title>
<path fill="none" stroke="#191970" d="M307.3157,-117.0304C356.7789,-106.9211 469.1204,-83.9608 524.668,-72.608"/>
<polygon fill="#191970" stroke="#191970" points="525.5716,-75.9958 534.6682,-70.5642 524.1699,-69.1375 525.5716,-75.9958"/>
</g>
<!-- Node5 -->
<g id="node6" class="node">
<title>Node5</title>
<polygon fill="none" stroke="#bfbfbf" points="256,-56.5 256,-75.5 310,-75.5 310,-56.5 256,-56.5"/>
<text text-anchor="middle" x="283" y="-63.5" font-family="Helvetica,sans-Serif" font-size="10.00" fill="#000000">iostream</text>
</g>
<!-- Node3&#45;&gt;Node5 -->
<g id="edge5" class="edge">
<title>Node3&#45;&gt;Node5</title>
<path fill="none" stroke="#191970" d="M283,-112.2455C283,-104.9382 283,-94.6944 283,-85.7046"/>
<polygon fill="#191970" stroke="#191970" points="286.5001,-85.6426 283,-75.6427 279.5001,-85.6427 286.5001,-85.6426"/>
</g>
<!-- Node6&#45;&gt;Node1 -->
<g id="edge8" class="edge">
<title>Node6&#45;&gt;Node1</title>
<path fill="none" stroke="#191970" d="M367.2481,-283.3023C287.8327,-269.3307 117.1249,-234.4761 83,-188 75.5346,-177.8326 72.0102,-144.827 87,-112 92.37,-100.2399 102.1348,-89.7996 111.2905,-81.85"/>
<polygon fill="#191970" stroke="#191970" points="113.5051,-84.5604 119.0539,-75.5347 109.0878,-79.1302 113.5051,-84.5604"/>
</g>
<!-- Node6&#45;&gt;Node2 -->
<g id="edge22" class="edge">
<title>Node6&#45;&gt;Node2</title>
<path fill="none" stroke="#191970" d="M447.7459,-280.4751C516.8862,-262.7381 652,-222.3966 652,-178 652,-178 652,-178 652,-122 652,-43.6595 537.4234,-19.9731 476.7337,-12.9217"/>
<polygon fill="#191970" stroke="#191970" points="476.7358,-9.4022 466.4213,-11.8232 475.9943,-16.3628 476.7358,-9.4022"/>
</g>
<!-- Node6&#45;&gt;Node3 -->
<g id="edge9" class="edge">
<title>Node6&#45;&gt;Node3</title>
<path fill="none" stroke="#191970" d="M367.3471,-283.189C343.679,-277.0368 315.3659,-265.4868 299,-244 276.3368,-214.2455 277.1899,-168.1226 279.993,-141.9401"/>
<polygon fill="#191970" stroke="#191970" points="283.5,-142.1071 281.2956,-131.7442 276.5564,-141.2199 283.5,-142.1071"/>
</g>
<!-- Node6&#45;&gt;Node4 -->
<g id="edge24" class="edge">
<title>Node6&#45;&gt;Node4</title>
<path fill="none" stroke="#191970" d="M448.6447,-285.4678C477.1844,-280.1773 514.1902,-268.732 537,-244 577.7881,-199.7746 573.427,-171.8185 567,-112 566.0637,-103.285 564.1567,-93.7985 562.2568,-85.7166"/>
<polygon fill="#191970" stroke="#191970" points="565.5899,-84.6187 559.7621,-75.7707 558.8002,-86.3218 565.5899,-84.6187"/>
</g>
<!-- Node7 -->
<g id="node8" class="node">
<title>Node7</title>
<g id="a_node8"><a xlink:href="PickUps__Actor_8h.html" target="_top" xlink:title="PickUps_Actor.h">
<polygon fill="none" stroke="#000000" points="307.5,-224.5 307.5,-243.5 398.5,-243.5 398.5,-224.5 307.5,-224.5"/>
<text text-anchor="middle" x="353" y="-231.5" font-family="Helvetica,sans-Serif" font-size="10.00" fill="#000000">PickUps_Actor.h</text>
</a>
</g>
</g>
<!-- Node6&#45;&gt;Node7 -->
<g id="edge10" class="edge">
<title>Node6&#45;&gt;Node7</title>
<path fill="none" stroke="#191970" d="M398.4197,-280.2455C390.4542,-272.1352 378.9359,-260.4075 369.4921,-250.7919"/>
<polygon fill="#191970" stroke="#191970" points="371.9747,-248.3247 362.4705,-243.6427 366.9805,-253.2297 371.9747,-248.3247"/>
</g>
<!-- Node6&#45;&gt;Node9 -->
<g id="edge21" class="edge">
<title>Node6&#45;&gt;Node9</title>
<path fill="none" stroke="#191970" d="M448.7629,-284.2768C473.4267,-278.5114 503.0936,-266.9854 519,-244 540.2093,-213.3517 534.1644,-167.2327 528.3028,-141.3656"/>
<polygon fill="#191970" stroke="#191970" points="531.6904,-140.4845 525.8819,-131.6238 524.897,-142.1728 531.6904,-140.4845"/>
</g>
<!-- Node11 -->
<g id="node12" class="node">
<title>Node11</title>
<polygon fill="none" stroke="#bfbfbf" points="416.5,-224.5 416.5,-243.5 509.5,-243.5 509.5,-224.5 416.5,-224.5"/>
<text text-anchor="middle" x="463" y="-231.5" font-family="Helvetica,sans-Serif" font-size="10.00" fill="#000000">box2d/b2_world.h</text>
</g>
<!-- Node6&#45;&gt;Node11 -->
<g id="edge23" class="edge">
<title>Node6&#45;&gt;Node11</title>
<path fill="none" stroke="#191970" d="M417.5803,-280.2455C425.5458,-272.1352 437.0641,-260.4075 446.5079,-250.7919"/>
<polygon fill="#191970" stroke="#191970" points="449.0195,-253.2297 453.5295,-243.6427 444.0253,-248.3247 449.0195,-253.2297"/>
</g>
<!-- Node7&#45;&gt;Node1 -->
<g id="edge11" class="edge">
<title>Node7&#45;&gt;Node1</title>
<path fill="none" stroke="#191970" d="M307.4535,-232.648C240.7699,-229.6008 121.5832,-219.7421 95,-188 69.39,-157.42 98.4993,-109.6141 118.0972,-83.8641"/>
<polygon fill="#191970" stroke="#191970" points="121.0653,-85.7536 124.5273,-75.7403 115.5766,-81.4092 121.0653,-85.7536"/>
</g>
<!-- Node7&#45;&gt;Node2 -->
<g id="edge19" class="edge">
<title>Node7&#45;&gt;Node2</title>
<path fill="none" stroke="#191970" d="M390.682,-224.3393C409.2713,-217.4646 430.0152,-206.137 441,-188 471.3365,-137.9112 456.2147,-64.4477 446.31,-29.6574"/>
<polygon fill="#191970" stroke="#191970" points="449.5763,-28.3656 443.3418,-19.7994 442.8736,-30.3838 449.5763,-28.3656"/>
</g>
<!-- Node7&#45;&gt;Node3 -->
<g id="edge12" class="edge">
<title>Node7&#45;&gt;Node3</title>
<path fill="none" stroke="#191970" d="M347.0318,-224.4509C335.3567,-205.7707 309.3274,-164.1238 294.2976,-140.0761"/>
<polygon fill="#191970" stroke="#191970" points="297.2211,-138.1499 288.9531,-131.5249 291.2851,-141.8599 297.2211,-138.1499"/>
</g>
<!-- Node8 -->
<g id="node9" class="node">
<title>Node8</title>
<g id="a_node9"><a xlink:href="Texture__Actor_8h.html" target="_top" xlink:title="Texture_Actor.h">
<polygon fill="none" stroke="#000000" points="346,-168.5 346,-187.5 432,-187.5 432,-168.5 346,-168.5"/>
<text text-anchor="middle" x="389" y="-175.5" font-family="Helvetica,sans-Serif" font-size="10.00" fill="#000000">Texture_Actor.h</text>
</a>
</g>
</g>
<!-- Node7&#45;&gt;Node8 -->
<g id="edge13" class="edge">
<title>Node7&#45;&gt;Node8</title>
<path fill="none" stroke="#191970" d="M359.2707,-224.2455C364.2264,-216.5367 371.283,-205.5598 377.2776,-196.2348"/>
<polygon fill="#191970" stroke="#191970" points="380.3376,-197.9471 382.8011,-187.6427 374.4494,-194.1618 380.3376,-197.9471"/>
</g>
<!-- Node7&#45;&gt;Node9 -->
<g id="edge18" class="edge">
<title>Node7&#45;&gt;Node9</title>
<path fill="none" stroke="#191970" d="M394.8652,-224.4323C419.6256,-217.3039 450.612,-205.6959 474,-188 490.804,-175.2857 504.5248,-155.2814 513.1286,-140.6264"/>
<polygon fill="#191970" stroke="#191970" points="516.1845,-142.3326 518.0247,-131.8988 510.0796,-138.9078 516.1845,-142.3326"/>
</g>
<!-- Node10 -->
<g id="node11" class="node">
<title>Node10</title>
<polygon fill="none" stroke="#bfbfbf" points="161,-112.5 161,-131.5 241,-131.5 241,-112.5 161,-112.5"/>
<text text-anchor="middle" x="201" y="-119.5" font-family="Helvetica,sans-Serif" font-size="10.00" fill="#000000">box2d/box2d.h</text>
</g>
<!-- Node7&#45;&gt;Node10 -->
<g id="edge20" class="edge">
<title>Node7&#45;&gt;Node10</title>
<path fill="none" stroke="#191970" d="M340.0406,-224.4509C313.7914,-205.1094 254.1274,-161.1465 222.1584,-137.5904"/>
<polygon fill="#191970" stroke="#191970" points="224.0534,-134.6392 213.9266,-131.5249 219.901,-140.2746 224.0534,-134.6392"/>
</g>
<!-- Node8&#45;&gt;Node1 -->
<g id="edge14" class="edge">
<title>Node8&#45;&gt;Node1</title>
<path fill="none" stroke="#191970" d="M381.1025,-168.317C368.7527,-153.8297 343.4268,-126.6528 316,-112 284.7086,-95.2825 247.1425,-84.4771 214.2104,-77.5734"/>
<polygon fill="#191970" stroke="#191970" points="214.6442,-74.0908 204.1509,-75.554 213.2664,-80.9538 214.6442,-74.0908"/>
</g>
<!-- Node8&#45;&gt;Node2 -->
<g id="edge17" class="edge">
<title>Node8&#45;&gt;Node2</title>
<path fill="none" stroke="#191970" d="M391.8881,-168.4862C399.9849,-141.8144 423.0268,-65.9117 434.0212,-29.695"/>
<polygon fill="#191970" stroke="#191970" points="437.4607,-30.4134 437.0165,-19.8279 430.7626,-28.38 437.4607,-30.4134"/>
</g>
<!-- Node8&#45;&gt;Node3 -->
<g id="edge15" class="edge">
<title>Node8&#45;&gt;Node3</title>
<path fill="none" stroke="#191970" d="M370.5362,-168.2455C353.8926,-159.4527 329.2007,-146.4079 310.2808,-136.4125"/>
<polygon fill="#191970" stroke="#191970" points="311.7291,-133.2193 301.2522,-131.6427 308.4592,-139.4086 311.7291,-133.2193"/>
</g>
<!-- Node8&#45;&gt;Node9 -->
<g id="edge16" class="edge">
<title>Node8&#45;&gt;Node9</title>
<path fill="none" stroke="#191970" d="M412.0354,-168.3733C433.7388,-159.3032 466.4618,-145.6279 490.755,-135.4755"/>
<polygon fill="#191970" stroke="#191970" points="492.3881,-138.5865 500.2652,-131.5011 489.6889,-132.1278 492.3881,-138.5865"/>
</g>
<!-- Node12&#45;&gt;Node1 -->
<g id="edge26" class="edge">
<title>Node12&#45;&gt;Node1</title>
<path fill="none" stroke="#191970" d="M139.4032,-168.4509C138.2615,-150.184 135.7472,-109.9553 134.2311,-85.6976"/>
<polygon fill="#191970" stroke="#191970" points="137.7124,-85.2871 133.5953,-75.5249 130.726,-85.7238 137.7124,-85.2871"/>
</g>
<!-- Node12&#45;&gt;Node2 -->
<g id="edge29" class="edge">
<title>Node12&#45;&gt;Node2</title>
<path fill="none" stroke="#191970" d="M123.976,-168.4869C90.1682,-147.2834 17.3958,-94.9491 52,-56 75.1584,-29.9339 311.403,-16.0652 403.5101,-11.6154"/>
<polygon fill="#191970" stroke="#191970" points="403.9273,-15.0997 413.7507,-11.131 403.5965,-8.1075 403.9273,-15.0997"/>
</g>
<!-- Node12&#45;&gt;Node3 -->
<g id="edge27" class="edge">
<title>Node12&#45;&gt;Node3</title>
<path fill="none" stroke="#191970" d="M164.5826,-168.3733C187.9496,-159.2226 223.2862,-145.3844 249.2784,-135.2057"/>
<polygon fill="#191970" stroke="#191970" points="250.703,-138.4066 258.7382,-131.5011 248.1505,-131.8886 250.703,-138.4066"/>
</g>
<!-- Node12&#45;&gt;Node9 -->
<g id="edge28" class="edge">
<title>Node12&#45;&gt;Node9</title>
<path fill="none" stroke="#191970" d="M175.6878,-172.7819C245.5679,-162.5645 400.3371,-139.9351 477.4676,-128.6575"/>
<polygon fill="#191970" stroke="#191970" points="478.4305,-132.054 487.8189,-127.144 477.4177,-125.1276 478.4305,-132.054"/>
</g>
<!-- Node12&#45;&gt;Node10 -->
<g id="edge30" class="edge">
<title>Node12&#45;&gt;Node10</title>
<path fill="none" stroke="#191970" d="M150.6254,-168.2455C159.5473,-160.0549 172.488,-148.1749 183.0192,-138.5069"/>
<polygon fill="#191970" stroke="#191970" points="185.4968,-140.9837 190.4964,-131.6427 180.7629,-135.8271 185.4968,-140.9837"/>
</g>
</g>
</svg>
        <g id="navigator" transform="translate(0 0)" fill="#404254">
                <rect fill="#f2f5e9" fill-opacity="0.5" stroke="#606060" stroke-width=".5" x="0" y="0" width="60" height="60"/>
                <use id="zoomplus" xlink:href="#zoomPlus" x="17" y="9" onmousedown="handleZoom(evt,'in')"/>
                <use id="zoomminus" xlink:href="#zoomMin" x="42" y="9" onmousedown="handleZoom(evt,'out')"/>
                <use id="reset" xlink:href="#resetDef" x="30" y="36" onmousedown="handleReset()"/>
                <g id="arrowUp" xlink:href="#dirArrow" transform="translate(30 24)" onmousedown="handlePan(0,-1)">
                  <use xlink:href="#rim" fill="#404040">
                        <set attributeName="fill" to="#808080" begin="arrowUp.mouseover" end="arrowUp.mouseout"/>
                  </use>
                  <path fill="none" stroke="white" stroke-width="1.5" d="M0,-3.0v7 M-2.5,-0.5L0,-3.0L2.5,-0.5"/>
                </g>
                <g id="arrowRight" xlink:href="#dirArrow" transform="rotate(90) translate(36 -43)" onmousedown="handlePan(1,0)">
                  <use xlink:href="#rim" fill="#404040">
                        <set attributeName="fill" to="#808080" begin="arrowRight.mouseover" end="arrowRight.mouseout"/>
                  </use>
                  <path fill="none" stroke="white" stroke-width="1.5" d="M0,-3.0v7 M-2.5,-0.5L0,-3.0L2.5,-0.5"/>
                </g>
                <g id="arrowDown" xlink:href="#dirArrow" transform="rotate(180) translate(-30 -48)" onmousedown="handlePan(0,1)">
                  <use xlink:href="#rim" fill="#404040">
                        <set attributeName="fill" to="#808080" begin="arrowDown.mouseover" end="arrowDown.mouseout"/>
                  </use>
                  <path fill="none" stroke="white" stroke-width="1.5" d="M0,-3.0v7 M-2.5,-0.5L0,-3.0L2.5,-0.5"/>
                </g>
                <g id="arrowLeft" xlink:href="#dirArrow" transform="rotate(270) translate(-36 17)" onmousedown="handlePan(-1,0)">
                  <use xlink:href="#rim" fill="#404040">
                        <set attributeName="fill" to="#808080" begin="arrowLeft.mouseover" end="arrowLeft.mouseout"/>
                  </use>
                  <path fill="none" stroke="white" stroke-width="1.5" d="M0,-3.0v7 M-2.5,-0.5L0,-3.0L2.5,-0.5"/>
                </g>
        </g>
        <svg viewBox="0 0 15 15" width="100%" height="30px" preserveAspectRatio="xMaxYMin meet">
         <g id="arrow_out" transform="scale(0.3 0.3)">
          <a xlink:href="Projectile__Acotr_8h__incl_org.svg" target="_base">
           <rect id="button" ry="5" rx="5" y="6" x="6" height="38" width="38"
                fill="#f2f5e9" fill-opacity="0.5" stroke="#606060" stroke-width="1.0"/>
           <path id="arrow"
             d="M 11.500037,31.436501 C 11.940474,20.09759 22.043105,11.32322 32.158766,21.979434 L 37.068811,17.246167 C 37.068811,17.246167 37.088388,32 37.088388,32 L 22.160133,31.978069 C 22.160133,31.978069 26.997745,27.140456 26.997745,27.140456 C 18.528582,18.264221 13.291696,25.230495 11.500037,31.436501 z"
             style="fill:#404040;"/>
          </a>
         </g>
        </svg>
</svg>
