<?xml version="1.0" encoding="UTF-8" standalone="no"?>
<!DOCTYPE svg PUBLIC "-//W3C//DTD SVG 1.1//EN"
 "http://www.w3.org/Graphics/SVG/1.1/DTD/svg11.dtd">
<!-- Generated by graphviz version 2.40.1 (20161225.0304)
 -->
<!-- Title: /mnt/hdd/fnky/C0de/CAPSTONE/clean_build/include/Components/RenderComponent.h Pages: 1 -->
<!--zoomable 139 -->
<svg id="main" version="1.1" xmlns="http://www.w3.org/2000/svg" xmlns:xlink="http://www.w3.org/1999/xlink" xml:space="preserve" onload="init(evt)">
<style type="text/css"><![CDATA[
.edge:hover path { stroke: red; }
.edge:hover polygon { stroke: red; fill: red; }
]]></style>
<script type="text/javascript"><![CDATA[
var edges = document.getElementsByTagName('g');
if (edges && edges.length) {
  for (var i=0;i<edges.length;i++) {
    if (edges[i].id.substr(0,4)=='edge') {
      edges[i].setAttribute('class','edge');
    }
  }
}
]]></script>
        <defs>
                <circle id="rim" cx="0" cy="0" r="7"/>
                <circle id="rim2" cx="0" cy="0" r="3.5"/>
                <g id="zoomPlus">
                        <use xlink:href="#rim" fill="#404040">
                                <set attributeName="fill" to="#808080" begin="zoomplus.mouseover" end="zoomplus.mouseout"/>
                        </use>
                        <path d="M-4,0h8M0,-4v8" fill="none" stroke="white" stroke-width="1.5" pointer-events="none"/>
                </g>
                <g id="zoomMin">
                        <use xlink:href="#rim" fill="#404040">
                                <set attributeName="fill" to="#808080" begin="zoomminus.mouseover" end="zoomminus.mouseout"/>
                        </use>
                        <path d="M-4,0h8" fill="none" stroke="white" stroke-width="1.5" pointer-events="none"/>
                </g>
                <g id="dirArrow">
                        <path fill="none" stroke="white" stroke-width="1.5" d="M0,-3.0v7 M-2.5,-0.5L0,-3.0L2.5,-0.5"/>
                </g>
               <g id="resetDef">
                       <use xlink:href="#rim2" fill="#404040">
                               <set attributeName="fill" to="#808080" begin="reset.mouseover" end="reset.mouseout"/>
                       </use>
               </g>
        </defs>

<script type="text/javascript">
var viewWidth = 2608;
var viewHeight = 139;
var sectionId = 'dynsection-1';
</script>
<script xlink:href="svgpan.js"/>
<svg id="graph" class="graph">
<g id="viewport">
<title>/mnt/hdd/fnky/C0de/CAPSTONE/clean_build/include/Components/RenderComponent.h</title>
<!-- Node16 -->
<g id="node1" class="node">
<title>Node16</title>
<polygon fill="#bfbfbf" stroke="#000000" points="1178.5,-89.5 1178.5,-130.5 1380.5,-130.5 1380.5,-89.5 1178.5,-89.5"/>
<text text-anchor="start" x="1186.5" y="-118.5" font-family="Helvetica,sans-Serif" font-size="10.00" fill="#000000">/mnt/hdd/fnky/C0de</text>
<text text-anchor="start" x="1186.5" y="-107.5" font-family="Helvetica,sans-Serif" font-size="10.00" fill="#000000">/CAPSTONE/clean_build</text>
<text text-anchor="middle" x="1279.5" y="-96.5" font-family="Helvetica,sans-Serif" font-size="10.00" fill="#000000">/include/Components/RenderComponent.h</text>
</g>
<!-- Node17 -->
<g id="node2" class="node">
<title>Node17</title>
<g id="a_node2"><a xlink:href="Animate__Actor_8cpp.html" target="_top" xlink:title="/mnt/hdd/fnky/C0de\l/CAPSTONE/clean_build\l/src/Actors/Animate_Actor.cpp">
<polygon fill="none" stroke="#000000" points="0,-6 0,-47 151,-47 151,-6 0,-6"/>
<text text-anchor="start" x="8" y="-35" font-family="Helvetica,sans-Serif" font-size="10.00" fill="#000000">/mnt/hdd/fnky/C0de</text>
<text text-anchor="start" x="8" y="-24" font-family="Helvetica,sans-Serif" font-size="10.00" fill="#000000">/CAPSTONE/clean_build</text>
<text text-anchor="middle" x="75.5" y="-13" font-family="Helvetica,sans-Serif" font-size="10.00" fill="#000000">/src/Actors/Animate_Actor.cpp</text>
</a>
</g>
</g>
<!-- Node16&#45;&gt;Node17 -->
<g id="edge1" class="edge">
<title>Node16&#45;&gt;Node17</title>
<path fill="none" stroke="#191970" d="M1167.9883,-107.877C924.4438,-102.661 351.529,-87.0819 160.5,-53 152.1305,-51.5068 143.4339,-49.432 134.937,-47.0945"/>
<polygon fill="#191970" stroke="#191970" points="1168.2048,-111.3823 1178.2768,-108.0954 1168.3534,-104.3839 1168.2048,-111.3823"/>
</g>
<!-- Node18 -->
<g id="node3" class="node">
<title>Node18</title>
<g id="a_node3"><a xlink:href="Animated__Player__Actor_8cpp.html" target="_top" xlink:title="/mnt/hdd/fnky/C0de\l/CAPSTONE/clean_build\l/src/Actors/Animated_Player\l_Actor.cpp">
<polygon fill="none" stroke="#000000" points="169.5,-.5 169.5,-52.5 311.5,-52.5 311.5,-.5 169.5,-.5"/>
<text text-anchor="start" x="177.5" y="-40.5" font-family="Helvetica,sans-Serif" font-size="10.00" fill="#000000">/mnt/hdd/fnky/C0de</text>
<text text-anchor="start" x="177.5" y="-29.5" font-family="Helvetica,sans-Serif" font-size="10.00" fill="#000000">/CAPSTONE/clean_build</text>
<text text-anchor="start" x="177.5" y="-18.5" font-family="Helvetica,sans-Serif" font-size="10.00" fill="#000000">/src/Actors/Animated_Player</text>
<text text-anchor="middle" x="240.5" y="-7.5" font-family="Helvetica,sans-Serif" font-size="10.00" fill="#000000">_Actor.cpp</text>
</a>
</g>
</g>
<!-- Node16&#45;&gt;Node18 -->
<g id="edge2" class="edge">
<title>Node16&#45;&gt;Node18</title>
<path fill="none" stroke="#191970" d="M1168.1684,-107.0208C951.3877,-100.6201 479.9241,-83.5977 320.5,-53 317.6262,-52.4484 314.7132,-51.8213 311.7846,-51.1338"/>
<polygon fill="#191970" stroke="#191970" points="1168.1982,-110.5231 1178.2965,-107.3176 1168.4033,-103.5261 1168.1982,-110.5231"/>
</g>
<!-- Node19 -->
<g id="node4" class="node">
<title>Node19</title>
<g id="a_node4"><a xlink:href="Edge__Actor_8cpp.html" target="_top" xlink:title="/mnt/hdd/fnky/C0de\l/CAPSTONE/clean_build\l/src/Actors/Edge_Actor.cpp">
<polygon fill="none" stroke="#000000" points="330,-6 330,-47 467,-47 467,-6 330,-6"/>
<text text-anchor="start" x="338" y="-35" font-family="Helvetica,sans-Serif" font-size="10.00" fill="#000000">/mnt/hdd/fnky/C0de</text>
<text text-anchor="start" x="338" y="-24" font-family="Helvetica,sans-Serif" font-size="10.00" fill="#000000">/CAPSTONE/clean_build</text>
<text text-anchor="middle" x="398.5" y="-13" font-family="Helvetica,sans-Serif" font-size="10.00" fill="#000000">/src/Actors/Edge_Actor.cpp</text>
</a>
</g>
</g>
<!-- Node16&#45;&gt;Node19 -->
<g id="edge3" class="edge">
<title>Node16&#45;&gt;Node19</title>
<path fill="none" stroke="#191970" d="M1167.9657,-105.6849C979.1964,-97.78 604.6664,-79.3337 475.5,-53 468.0196,-51.4749 460.2689,-49.4141 452.6948,-47.1115"/>
<polygon fill="#191970" stroke="#191970" points="1168.0569,-109.1916 1178.1938,-106.1105 1168.348,-102.1977 1168.0569,-109.1916"/>
</g>
<!-- Node20 -->
<g id="node5" class="node">
<title>Node20</title>
<g id="a_node5"><a xlink:href="Gun__Actor_8cpp.html" target="_top" xlink:title="/mnt/hdd/fnky/C0de\l/CAPSTONE/clean_build\l/src/Actors/Gun_Actor.cpp">
<polygon fill="none" stroke="#000000" points="485,-6 485,-47 618,-47 618,-6 485,-6"/>
<text text-anchor="start" x="493" y="-35" font-family="Helvetica,sans-Serif" font-size="10.00" fill="#000000">/mnt/hdd/fnky/C0de</text>
<text text-anchor="start" x="493" y="-24" font-family="Helvetica,sans-Serif" font-size="10.00" fill="#000000">/CAPSTONE/clean_build</text>
<text text-anchor="middle" x="551.5" y="-13" font-family="Helvetica,sans-Serif" font-size="10.00" fill="#000000">/src/Actors/Gun_Actor.cpp</text>
</a>
</g>
</g>
<!-- Node16&#45;&gt;Node20 -->
<g id="edge4" class="edge">
<title>Node16&#45;&gt;Node20</title>
<path fill="none" stroke="#191970" d="M1167.9288,-103.6727C1009.2964,-94.0926 726.6911,-74.7066 626.5,-53 619.2118,-51.421 611.6613,-49.329 604.2833,-47.0108"/>
<polygon fill="#191970" stroke="#191970" points="1168.0032,-107.1834 1178.1951,-104.2895 1168.423,-100.196 1168.0032,-107.1834"/>
</g>
<!-- Node21 -->
<g id="node6" class="node">
<title>Node21</title>
<g id="a_node6"><a xlink:href="NPC__Actor_8cpp.html" target="_top" xlink:title="/mnt/hdd/fnky/C0de\l/CAPSTONE/clean_build\l/src/Actors/NPC_Actor.cpp">
<polygon fill="none" stroke="#000000" points="636,-6 636,-47 773,-47 773,-6 636,-6"/>
<text text-anchor="start" x="644" y="-35" font-family="Helvetica,sans-Serif" font-size="10.00" fill="#000000">/mnt/hdd/fnky/C0de</text>
<text text-anchor="start" x="644" y="-24" font-family="Helvetica,sans-Serif" font-size="10.00" fill="#000000">/CAPSTONE/clean_build</text>
<text text-anchor="middle" x="704.5" y="-13" font-family="Helvetica,sans-Serif" font-size="10.00" fill="#000000">/src/Actors/NPC_Actor.cpp</text>
</a>
</g>
</g>
<!-- Node16&#45;&gt;Node21 -->
<g id="edge5" class="edge">
<title>Node16&#45;&gt;Node21</title>
<path fill="none" stroke="#191970" d="M1168.2288,-104.0459C1066.7526,-97.0135 913.1739,-82.3377 782.5,-53 775.2437,-51.3709 767.717,-49.3102 760.3291,-47.0605"/>
<polygon fill="#191970" stroke="#191970" points="1168.2822,-107.5576 1178.4965,-104.7437 1168.7569,-100.5737 1168.2822,-107.5576"/>
</g>
<!-- Node22 -->
<g id="node7" class="node">
<title>Node22</title>
<g id="a_node7"><a xlink:href="PickUps__Actor_8cpp.html" target="_top" xlink:title="/mnt/hdd/fnky/C0de\l/CAPSTONE/clean_build\l/src/Actors/PickUps_Actor.cpp">
<polygon fill="none" stroke="#000000" points="791.5,-6 791.5,-47 943.5,-47 943.5,-6 791.5,-6"/>
<text text-anchor="start" x="799.5" y="-35" font-family="Helvetica,sans-Serif" font-size="10.00" fill="#000000">/mnt/hdd/fnky/C0de</text>
<text text-anchor="start" x="799.5" y="-24" font-family="Helvetica,sans-Serif" font-size="10.00" fill="#000000">/CAPSTONE/clean_build</text>
<text text-anchor="middle" x="867.5" y="-13" font-family="Helvetica,sans-Serif" font-size="10.00" fill="#000000">/src/Actors/PickUps_Actor.cpp</text>
</a>
</g>
</g>
<!-- Node16&#45;&gt;Node22 -->
<g id="edge6" class="edge">
<title>Node16&#45;&gt;Node22</title>
<path fill="none" stroke="#191970" d="M1168.2079,-94.2672C1104.6133,-84.3647 1023.61,-70.2057 952.5,-53 945.2885,-51.2551 937.793,-49.2329 930.3736,-47.0987"/>
<polygon fill="#191970" stroke="#191970" points="1167.8437,-97.7524 1178.2608,-95.8198 1168.9122,-90.8344 1167.8437,-97.7524"/>
</g>
<!-- Node23 -->
<g id="node8" class="node">
<title>Node23</title>
<g id="a_node8"><a xlink:href="Platform__Actor_8cpp.html" target="_top" xlink:title="/mnt/hdd/fnky/C0de\l/CAPSTONE/clean_build\l/src/Actors/Platform_Actor.cpp">
<polygon fill="none" stroke="#000000" points="961.5,-6 961.5,-47 1113.5,-47 1113.5,-6 961.5,-6"/>
<text text-anchor="start" x="969.5" y="-35" font-family="Helvetica,sans-Serif" font-size="10.00" fill="#000000">/mnt/hdd/fnky/C0de</text>
<text text-anchor="start" x="969.5" y="-24" font-family="Helvetica,sans-Serif" font-size="10.00" fill="#000000">/CAPSTONE/clean_build</text>
<text text-anchor="middle" x="1037.5" y="-13" font-family="Helvetica,sans-Serif" font-size="10.00" fill="#000000">/src/Actors/Platform_Actor.cpp</text>
</a>
</g>
</g>
<!-- Node16&#45;&gt;Node23 -->
<g id="edge7" class="edge">
<title>Node16&#45;&gt;Node23</title>
<path fill="none" stroke="#191970" d="M1210.1341,-86.0659C1174.4485,-73.7529 1131.3876,-58.8951 1097.1995,-47.0988"/>
<polygon fill="#191970" stroke="#191970" points="1209.3955,-89.5135 1219.9902,-89.4667 1211.6787,-82.8963 1209.3955,-89.5135"/>
</g>
<!-- Node24 -->
<g id="node9" class="node">
<title>Node24</title>
<g id="a_node9"><a xlink:href="Player__Actor_8cpp.html" target="_top" xlink:title="/mnt/hdd/fnky/C0de\l/CAPSTONE/clean_build\l/src/Actors/Player_Actor.cpp">
<polygon fill="none" stroke="#000000" points="1132,-6 1132,-47 1275,-47 1275,-6 1132,-6"/>
<text text-anchor="start" x="1140" y="-35" font-family="Helvetica,sans-Serif" font-size="10.00" fill="#000000">/mnt/hdd/fnky/C0de</text>
<text text-anchor="start" x="1140" y="-24" font-family="Helvetica,sans-Serif" font-size="10.00" fill="#000000">/CAPSTONE/clean_build</text>
<text text-anchor="middle" x="1203.5" y="-13" font-family="Helvetica,sans-Serif" font-size="10.00" fill="#000000">/src/Actors/Player_Actor.cpp</text>
</a>
</g>
</g>
<!-- Node16&#45;&gt;Node24 -->
<g id="edge8" class="edge">
<title>Node16&#45;&gt;Node24</title>
<path fill="none" stroke="#191970" d="M1253.8325,-81.7995C1243.5168,-70.4658 1231.8411,-57.6379 1222.3338,-47.1924"/>
<polygon fill="#191970" stroke="#191970" points="1251.3939,-84.32 1260.7135,-89.3595 1256.5707,-79.6082 1251.3939,-84.32"/>
</g>
<!-- Node25 -->
<g id="node10" class="node">
<title>Node25</title>
<g id="a_node10"><a xlink:href="Projectile__Actor_8cpp.html" target="_top" xlink:title="/mnt/hdd/fnky/C0de\l/CAPSTONE/clean_build\l/src/Actors/Projectile\l_Actor.cpp">
<polygon fill="none" stroke="#000000" points="1293,-.5 1293,-52.5 1420,-52.5 1420,-.5 1293,-.5"/>
<text text-anchor="start" x="1301" y="-40.5" font-family="Helvetica,sans-Serif" font-size="10.00" fill="#000000">/mnt/hdd/fnky/C0de</text>
<text text-anchor="start" x="1301" y="-29.5" font-family="Helvetica,sans-Serif" font-size="10.00" fill="#000000">/CAPSTONE/clean_build</text>
<text text-anchor="start" x="1301" y="-18.5" font-family="Helvetica,sans-Serif" font-size="10.00" fill="#000000">/src/Actors/Projectile</text>
<text text-anchor="middle" x="1356.5" y="-7.5" font-family="Helvetica,sans-Serif" font-size="10.00" fill="#000000">_Actor.cpp</text>
</a>
</g>
</g>
<!-- Node16&#45;&gt;Node25 -->
<g id="edge9" class="edge">
<title>Node16&#45;&gt;Node25</title>
<path fill="none" stroke="#191970" d="M1305.5687,-81.7307C1314.2627,-72.3027 1323.9042,-61.8474 1332.4386,-52.5925"/>
<polygon fill="#191970" stroke="#191970" points="1302.7399,-79.6354 1298.5337,-89.3595 1307.8859,-84.3808 1302.7399,-79.6354"/>
</g>
<!-- Node26 -->
<g id="node11" class="node">
<title>Node26</title>
<g id="a_node11"><a xlink:href="Texture__Actor_8cpp.html" target="_top" xlink:title="/mnt/hdd/fnky/C0de\l/CAPSTONE/clean_build\l/src/Actors/Texture_Actor.cpp">
<polygon fill="none" stroke="#000000" points="1438.5,-6 1438.5,-47 1586.5,-47 1586.5,-6 1438.5,-6"/>
<text text-anchor="start" x="1446.5" y="-35" font-family="Helvetica,sans-Serif" font-size="10.00" fill="#000000">/mnt/hdd/fnky/C0de</text>
<text text-anchor="start" x="1446.5" y="-24" font-family="Helvetica,sans-Serif" font-size="10.00" fill="#000000">/CAPSTONE/clean_build</text>
<text text-anchor="middle" x="1512.5" y="-13" font-family="Helvetica,sans-Serif" font-size="10.00" fill="#000000">/src/Actors/Texture_Actor.cpp</text>
</a>
</g>
</g>
<!-- Node16&#45;&gt;Node26 -->
<g id="edge10" class="edge">
<title>Node16&#45;&gt;Node26</title>
<path fill="none" stroke="#191970" d="M1346.2862,-86.0659C1380.6447,-73.7529 1422.104,-58.8951 1455.0207,-47.0988"/>
<polygon fill="#191970" stroke="#191970" points="1345.0296,-82.7982 1336.7966,-89.4667 1347.3912,-89.3878 1345.0296,-82.7982"/>
</g>
<!-- Node27 -->
<g id="node12" class="node">
<title>Node27</title>
<g id="a_node12"><a xlink:href="RenderComponent_8cpp.html" target="_top" xlink:title="/mnt/hdd/fnky/C0de\l/CAPSTONE/clean_build\l/src/Components/RenderComponent.cpp">
<polygon fill="none" stroke="#000000" points="1605,-6 1605,-47 1800,-47 1800,-6 1605,-6"/>
<text text-anchor="start" x="1613" y="-35" font-family="Helvetica,sans-Serif" font-size="10.00" fill="#000000">/mnt/hdd/fnky/C0de</text>
<text text-anchor="start" x="1613" y="-24" font-family="Helvetica,sans-Serif" font-size="10.00" fill="#000000">/CAPSTONE/clean_build</text>
<text text-anchor="middle" x="1702.5" y="-13" font-family="Helvetica,sans-Serif" font-size="10.00" fill="#000000">/src/Components/RenderComponent.cpp</text>
</a>
</g>
</g>
<!-- Node16&#45;&gt;Node27 -->
<g id="edge11" class="edge">
<title>Node16&#45;&gt;Node27</title>
<path fill="none" stroke="#191970" d="M1390.5052,-91.7741C1451.2456,-81.35 1527.7228,-67.4901 1595.5,-53 1604.1088,-51.1595 1613.0785,-49.1249 1622.0016,-47.0252"/>
<polygon fill="#191970" stroke="#191970" points="1389.7786,-88.3474 1380.5114,-93.4826 1390.9582,-95.2473 1389.7786,-88.3474"/>
</g>
<!-- Node28 -->
<g id="node13" class="node">
<title>Node28</title>
<g id="a_node13"><a xlink:href="LoadingGameObjects_8cpp.html" target="_top" xlink:title="/mnt/hdd/fnky/C0de\l/CAPSTONE/clean_build\l/src/Loaders/LoadingGameObjects.cpp">
<polygon fill="none" stroke="#000000" points="1817.5,-6 1817.5,-47 2003.5,-47 2003.5,-6 1817.5,-6"/>
<text text-anchor="start" x="1825.5" y="-35" font-family="Helvetica,sans-Serif" font-size="10.00" fill="#000000">/mnt/hdd/fnky/C0de</text>
<text text-anchor="start" x="1825.5" y="-24" font-family="Helvetica,sans-Serif" font-size="10.00" fill="#000000">/CAPSTONE/clean_build</text>
<text text-anchor="middle" x="1910.5" y="-13" font-family="Helvetica,sans-Serif" font-size="10.00" fill="#000000">/src/Loaders/LoadingGameObjects.cpp</text>
</a>
</g>
</g>
<!-- Node16&#45;&gt;Node28 -->
<g id="edge12" class="edge">
<title>Node16&#45;&gt;Node28</title>
<path fill="none" stroke="#191970" d="M1391.0028,-102.8745C1498.739,-94.8464 1666.2173,-79.3491 1809.5,-53 1818.5929,-51.3278 1828.0714,-49.2702 1837.4209,-47.047"/>
<polygon fill="#191970" stroke="#191970" points="1390.482,-99.4033 1380.766,-103.6282 1390.9961,-106.3844 1390.482,-99.4033"/>
</g>
<!-- Node29 -->
<g id="node14" class="node">
<title>Node29</title>
<g id="a_node14"><a xlink:href="game__over__state_8cpp.html" target="_top" xlink:title="/mnt/hdd/fnky/C0de\l/CAPSTONE/clean_build\l/src/States/game_over\l_state.cpp">
<polygon fill="none" stroke="#000000" points="2022,-.5 2022,-52.5 2149,-52.5 2149,-.5 2022,-.5"/>
<text text-anchor="start" x="2030" y="-40.5" font-family="Helvetica,sans-Serif" font-size="10.00" fill="#000000">/mnt/hdd/fnky/C0de</text>
<text text-anchor="start" x="2030" y="-29.5" font-family="Helvetica,sans-Serif" font-size="10.00" fill="#000000">/CAPSTONE/clean_build</text>
<text text-anchor="start" x="2030" y="-18.5" font-family="Helvetica,sans-Serif" font-size="10.00" fill="#000000">/src/States/game_over</text>
<text text-anchor="middle" x="2085.5" y="-7.5" font-family="Helvetica,sans-Serif" font-size="10.00" fill="#000000">_state.cpp</text>
</a>
</g>
</g>
<!-- Node16&#45;&gt;Node29 -->
<g id="edge13" class="edge">
<title>Node16&#45;&gt;Node29</title>
<path fill="none" stroke="#191970" d="M1390.648,-105.0404C1565.5736,-96.6127 1897.0774,-77.9533 2012.5,-53 2015.531,-52.3447 2018.6067,-51.5933 2021.6944,-50.7683"/>
<polygon fill="#191970" stroke="#191970" points="1390.4616,-101.5452 1380.6405,-105.5196 1390.7965,-108.5372 1390.4616,-101.5452"/>
</g>
<!-- Node30 -->
<g id="node15" class="node">
<title>Node30</title>
<g id="a_node15"><a xlink:href="game__play__state_8cpp.html" target="_top" xlink:title="/mnt/hdd/fnky/C0de\l/CAPSTONE/clean_build\l/src/States/game_play\l_state.cpp">
<polygon fill="none" stroke="#000000" points="2167,-.5 2167,-52.5 2294,-52.5 2294,-.5 2167,-.5"/>
<text text-anchor="start" x="2175" y="-40.5" font-family="Helvetica,sans-Serif" font-size="10.00" fill="#000000">/mnt/hdd/fnky/C0de</text>
<text text-anchor="start" x="2175" y="-29.5" font-family="Helvetica,sans-Serif" font-size="10.00" fill="#000000">/CAPSTONE/clean_build</text>
<text text-anchor="start" x="2175" y="-18.5" font-family="Helvetica,sans-Serif" font-size="10.00" fill="#000000">/src/States/game_play</text>
<text text-anchor="middle" x="2230.5" y="-7.5" font-family="Helvetica,sans-Serif" font-size="10.00" fill="#000000">_state.cpp</text>
</a>
</g>
</g>
<!-- Node16&#45;&gt;Node30 -->
<g id="edge14" class="edge">
<title>Node16&#45;&gt;Node30</title>
<path fill="none" stroke="#191970" d="M1390.6659,-106.773C1593.2959,-100.2301 2015.0558,-83.381 2158.5,-53 2161.2365,-52.4204 2164.0084,-51.7576 2166.7917,-51.0291"/>
<polygon fill="#191970" stroke="#191970" points="1390.4762,-103.2772 1380.5934,-107.0956 1390.7003,-110.2736 1390.4762,-103.2772"/>
</g>
<!-- Node31 -->
<g id="node16" class="node">
<title>Node31</title>
<g id="a_node16"><a xlink:href="main__menu__state_8cpp.html" target="_top" xlink:title="/mnt/hdd/fnky/C0de\l/CAPSTONE/clean_build\l/src/States/main_menu\l_state.cpp">
<polygon fill="none" stroke="#000000" points="2312,-.5 2312,-52.5 2439,-52.5 2439,-.5 2312,-.5"/>
<text text-anchor="start" x="2320" y="-40.5" font-family="Helvetica,sans-Serif" font-size="10.00" fill="#000000">/mnt/hdd/fnky/C0de</text>
<text text-anchor="start" x="2320" y="-29.5" font-family="Helvetica,sans-Serif" font-size="10.00" fill="#000000">/CAPSTONE/clean_build</text>
<text text-anchor="start" x="2320" y="-18.5" font-family="Helvetica,sans-Serif" font-size="10.00" fill="#000000">/src/States/main_menu</text>
<text text-anchor="middle" x="2375.5" y="-7.5" font-family="Helvetica,sans-Serif" font-size="10.00" fill="#000000">_state.cpp</text>
</a>
</g>
</g>
<!-- Node16&#45;&gt;Node31 -->
<g id="edge15" class="edge">
<title>Node16&#45;&gt;Node31</title>
<path fill="none" stroke="#191970" d="M1391.185,-107.958C1619.374,-103.1018 2131.9979,-88.5046 2303.5,-53 2306.2391,-52.433 2309.0133,-51.7806 2311.7984,-51.0608"/>
<polygon fill="#191970" stroke="#191970" points="1390.7917,-104.4654 1380.8675,-108.175 1390.9389,-111.4638 1390.7917,-104.4654"/>
</g>
<!-- Node32 -->
<g id="node17" class="node">
<title>Node32</title>
<g id="a_node17"><a xlink:href="splash__state_8cpp.html" target="_top" xlink:title="/mnt/hdd/fnky/C0de\l/CAPSTONE/clean_build\l/src/States/splash_state.cpp">
<polygon fill="none" stroke="#000000" points="2457.5,-6 2457.5,-47 2599.5,-47 2599.5,-6 2457.5,-6"/>
<text text-anchor="start" x="2465.5" y="-35" font-family="Helvetica,sans-Serif" font-size="10.00" fill="#000000">/mnt/hdd/fnky/C0de</text>
<text text-anchor="start" x="2465.5" y="-24" font-family="Helvetica,sans-Serif" font-size="10.00" fill="#000000">/CAPSTONE/clean_build</text>
<text text-anchor="middle" x="2528.5" y="-13" font-family="Helvetica,sans-Serif" font-size="10.00" fill="#000000">/src/States/splash_state.cpp</text>
</a>
</g>
</g>
<!-- Node16&#45;&gt;Node32 -->
<g id="edge16" class="edge">
<title>Node16&#45;&gt;Node32</title>
<path fill="none" stroke="#191970" d="M1390.9882,-108.4096C1642.5447,-104.1969 2247.9085,-90.3929 2448.5,-53 2456.5546,-51.4985 2464.9135,-49.3859 2473.058,-47.0013"/>
<polygon fill="#191970" stroke="#191970" points="1390.6741,-104.9142 1380.7334,-108.5792 1390.79,-111.9132 1390.6741,-104.9142"/>
</g>
</g>
</svg>
        <g id="navigator" transform="translate(0 0)" fill="#404254">
                <rect fill="#f2f5e9" fill-opacity="0.5" stroke="#606060" stroke-width=".5" x="0" y="0" width="60" height="60"/>
                <use id="zoomplus" xlink:href="#zoomPlus" x="17" y="9" onmousedown="handleZoom(evt,'in')"/>
                <use id="zoomminus" xlink:href="#zoomMin" x="42" y="9" onmousedown="handleZoom(evt,'out')"/>
                <use id="reset" xlink:href="#resetDef" x="30" y="36" onmousedown="handleReset()"/>
                <g id="arrowUp" xlink:href="#dirArrow" transform="translate(30 24)" onmousedown="handlePan(0,-1)">
                  <use xlink:href="#rim" fill="#404040">
                        <set attributeName="fill" to="#808080" begin="arrowUp.mouseover" end="arrowUp.mouseout"/>
                  </use>
                  <path fill="none" stroke="white" stroke-width="1.5" d="M0,-3.0v7 M-2.5,-0.5L0,-3.0L2.5,-0.5"/>
                </g>
                <g id="arrowRight" xlink:href="#dirArrow" transform="rotate(90) translate(36 -43)" onmousedown="handlePan(1,0)">
                  <use xlink:href="#rim" fill="#404040">
                        <set attributeName="fill" to="#808080" begin="arrowRight.mouseover" end="arrowRight.mouseout"/>
                  </use>
                  <path fill="none" stroke="white" stroke-width="1.5" d="M0,-3.0v7 M-2.5,-0.5L0,-3.0L2.5,-0.5"/>
                </g>
                <g id="arrowDown" xlink:href="#dirArrow" transform="rotate(180) translate(-30 -48)" onmousedown="handlePan(0,1)">
                  <use xlink:href="#rim" fill="#404040">
                        <set attributeName="fill" to="#808080" begin="arrowDown.mouseover" end="arrowDown.mouseout"/>
                  </use>
                  <path fill="none" stroke="white" stroke-width="1.5" d="M0,-3.0v7 M-2.5,-0.5L0,-3.0L2.5,-0.5"/>
                </g>
                <g id="arrowLeft" xlink:href="#dirArrow" transform="rotate(270) translate(-36 17)" onmousedown="handlePan(-1,0)">
                  <use xlink:href="#rim" fill="#404040">
                        <set attributeName="fill" to="#808080" begin="arrowLeft.mouseover" end="arrowLeft.mouseout"/>
                  </use>
                  <path fill="none" stroke="white" stroke-width="1.5" d="M0,-3.0v7 M-2.5,-0.5L0,-3.0L2.5,-0.5"/>
                </g>
        </g>
        <svg viewBox="0 0 15 15" width="100%" height="30px" preserveAspectRatio="xMaxYMin meet">
         <g id="arrow_out" transform="scale(0.3 0.3)">
          <a xlink:href="RenderComponent_8h__dep__incl_org.svg" target="_base">
           <rect id="button" ry="5" rx="5" y="6" x="6" height="38" width="38"
                fill="#f2f5e9" fill-opacity="0.5" stroke="#606060" stroke-width="1.0"/>
           <path id="arrow"
             d="M 11.500037,31.436501 C 11.940474,20.09759 22.043105,11.32322 32.158766,21.979434 L 37.068811,17.246167 C 37.068811,17.246167 37.088388,32 37.088388,32 L 22.160133,31.978069 C 22.160133,31.978069 26.997745,27.140456 26.997745,27.140456 C 18.528582,18.264221 13.291696,25.230495 11.500037,31.436501 z"
             style="fill:#404040;"/>
          </a>
         </g>
        </svg>
</svg>
