<?xml version="1.0" encoding="UTF-8" standalone="no"?>
<!DOCTYPE svg PUBLIC "-//W3C//DTD SVG 1.1//EN"
 "http://www.w3.org/Graphics/SVG/1.1/DTD/svg11.dtd">
<!-- Generated by graphviz version 2.40.1 (20161225.0304)
 -->
<!-- Title: /mnt/hdd/fnky/C0de/CAPSTONE/clean_build/include/Components/RenderComponent.h Pages: 1 -->
<svg width="910pt" height="218pt"
 viewBox="0.00 0.00 909.50 218.00" xmlns="http://www.w3.org/2000/svg" xmlns:xlink="http://www.w3.org/1999/xlink">
<g id="graph0" class="graph" transform="scale(1 1) rotate(0) translate(4 214)">
<title>/mnt/hdd/fnky/C0de/CAPSTONE/clean_build/include/Components/RenderComponent.h</title>
<!-- Node0 -->
<g id="node1" class="node">
<title>Node0</title>
<polygon fill="#bfbfbf" stroke="#000000" points="317,-168.5 317,-209.5 519,-209.5 519,-168.5 317,-168.5"/>
<text text-anchor="start" x="325" y="-197.5" font-family="Helvetica,sans-Serif" font-size="10.00" fill="#000000">/mnt/hdd/fnky/C0de</text>
<text text-anchor="start" x="325" y="-186.5" font-family="Helvetica,sans-Serif" font-size="10.00" fill="#000000">/CAPSTONE/clean_build</text>
<text text-anchor="middle" x="418" y="-175.5" font-family="Helvetica,sans-Serif" font-size="10.00" fill="#000000">/include/Components/RenderComponent.h</text>
</g>
<!-- Node1 -->
<g id="node2" class="node">
<title>Node1</title>
<polygon fill="none" stroke="#bfbfbf" points="0,-56.5 0,-75.5 46,-75.5 46,-56.5 0,-56.5"/>
<text text-anchor="middle" x="23" y="-63.5" font-family="Helvetica,sans-Serif" font-size="10.00" fill="#000000">cstdint</text>
</g>
<!-- Node0&#45;&gt;Node1 -->
<g id="edge1" class="edge">
<title>Node0&#45;&gt;Node1</title>
<path fill="none" stroke="#191970" d="M316.8551,-172.4638C268.3601,-163.0951 209.8876,-149.6705 159,-132 119.0339,-118.1219 75.4741,-95.5515 48.694,-80.7388"/>
<polygon fill="#191970" stroke="#191970" points="50.0602,-77.4926 39.6245,-75.6629 46.6415,-83.601 50.0602,-77.4926"/>
</g>
<!-- Node2 -->
<g id="node3" class="node">
<title>Node2</title>
<polygon fill="none" stroke="#bfbfbf" points="642.5,-112.5 642.5,-131.5 685.5,-131.5 685.5,-112.5 642.5,-112.5"/>
<text text-anchor="middle" x="664" y="-119.5" font-family="Helvetica,sans-Serif" font-size="10.00" fill="#000000">cstdio</text>
</g>
<!-- Node0&#45;&gt;Node2 -->
<g id="edge2" class="edge">
<title>Node0&#45;&gt;Node2</title>
<path fill="none" stroke="#191970" d="M494.3382,-168.3959C534.1878,-157.6108 583.7388,-144.1541 628,-132 629.4465,-131.6028 630.9254,-131.1957 632.4191,-130.7839"/>
<polygon fill="#191970" stroke="#191970" points="633.5991,-134.089 642.3037,-128.049 631.7325,-127.3424 633.5991,-134.089"/>
</g>
<!-- Node3 -->
<g id="node4" class="node">
<title>Node3</title>
<polygon fill="none" stroke="#bfbfbf" points="596,-.5 596,-19.5 660,-19.5 660,-.5 596,-.5"/>
<text text-anchor="middle" x="628" y="-7.5" font-family="Helvetica,sans-Serif" font-size="10.00" fill="#000000">glad/glad.h</text>
</g>
<!-- Node0&#45;&gt;Node3 -->
<g id="edge3" class="edge">
<title>Node0&#45;&gt;Node3</title>
<path fill="none" stroke="#191970" d="M504.1375,-168.4847C552.3571,-152.0873 608.3843,-123.6928 637,-76 645.4395,-61.9342 641.7637,-43.1934 636.8073,-29.2764"/>
<polygon fill="#191970" stroke="#191970" points="639.9411,-27.6898 632.9469,-19.7316 633.4517,-30.3144 639.9411,-27.6898"/>
</g>
<!-- Node4 -->
<g id="node5" class="node">
<title>Node4</title>
<polygon fill="none" stroke="#bfbfbf" points="64,-56.5 64,-75.5 134,-75.5 134,-56.5 64,-56.5"/>
<text text-anchor="middle" x="99" y="-63.5" font-family="Helvetica,sans-Serif" font-size="10.00" fill="#000000">glm/glm.hpp</text>
</g>
<!-- Node0&#45;&gt;Node4 -->
<g id="edge4" class="edge">
<title>Node0&#45;&gt;Node4</title>
<path fill="none" stroke="#191970" d="M316.8668,-170.7937C278.0528,-161.8242 233.9843,-149.1633 196,-132 166.7042,-118.7626 136.6621,-96.7613 117.929,-81.8336"/>
<polygon fill="#191970" stroke="#191970" points="120.1314,-79.1134 110.1611,-75.5297 115.7204,-84.5488 120.1314,-79.1134"/>
</g>
<!-- Node5 -->
<g id="node6" class="node">
<title>Node5</title>
<polygon fill="none" stroke="#bfbfbf" points="704,-112.5 704,-131.5 848,-131.5 848,-112.5 704,-112.5"/>
<text text-anchor="middle" x="776" y="-119.5" font-family="Helvetica,sans-Serif" font-size="10.00" fill="#000000">glm/gtc/matrix_transform.hpp</text>
</g>
<!-- Node0&#45;&gt;Node5 -->
<g id="edge5" class="edge">
<title>Node0&#45;&gt;Node5</title>
<path fill="none" stroke="#191970" d="M519.1529,-170.0691C582.2835,-158.2542 661.4584,-143.4365 715.0922,-133.3989"/>
<polygon fill="#191970" stroke="#191970" points="715.9473,-136.7998 725.1327,-131.5198 714.6595,-129.9192 715.9473,-136.7998"/>
</g>
<!-- Node6 -->
<g id="node7" class="node">
<title>Node6</title>
<polygon fill="none" stroke="#bfbfbf" points="866.5,-112.5 866.5,-131.5 901.5,-131.5 901.5,-112.5 866.5,-112.5"/>
<text text-anchor="middle" x="884" y="-119.5" font-family="Helvetica,sans-Serif" font-size="10.00" fill="#000000">map</text>
</g>
<!-- Node0&#45;&gt;Node6 -->
<g id="edge6" class="edge">
<title>Node0&#45;&gt;Node6</title>
<path fill="none" stroke="#191970" d="M519.0085,-182.3873C606.3986,-175.1743 735.9733,-160.9015 856.6744,-131.5612"/>
<polygon fill="#191970" stroke="#191970" points="857.5912,-134.9401 866.4601,-129.1442 855.9126,-128.1443 857.5912,-134.9401"/>
</g>
<!-- Node7 -->
<g id="node8" class="node">
<title>Node7</title>
<g id="a_node8"><a xlink:href="Components_2Component_8h.html" target="_top" xlink:title="Component.h">
<polygon fill="none" stroke="#000000" points="227.5,-112.5 227.5,-131.5 302.5,-131.5 302.5,-112.5 227.5,-112.5"/>
<text text-anchor="middle" x="265" y="-119.5" font-family="Helvetica,sans-Serif" font-size="10.00" fill="#000000">Component.h</text>
</a>
</g>
</g>
<!-- Node0&#45;&gt;Node7 -->
<g id="edge7" class="edge">
<title>Node0&#45;&gt;Node7</title>
<path fill="none" stroke="#191970" d="M370.8465,-168.3511C346.6335,-157.748 317.7974,-145.1204 296.3424,-135.7251"/>
<polygon fill="#191970" stroke="#191970" points="297.6113,-132.46 287.0472,-131.6546 294.8034,-138.8721 297.6113,-132.46"/>
</g>
<!-- Node8 -->
<g id="node9" class="node">
<title>Node8</title>
<polygon fill="none" stroke="#bfbfbf" points="152,-56.5 152,-75.5 204,-75.5 204,-56.5 152,-56.5"/>
<text text-anchor="middle" x="178" y="-63.5" font-family="Helvetica,sans-Serif" font-size="10.00" fill="#000000">memory</text>
</g>
<!-- Node0&#45;&gt;Node8 -->
<g id="edge22" class="edge">
<title>Node0&#45;&gt;Node8</title>
<path fill="none" stroke="#191970" d="M316.9172,-175.5084C282.9484,-167.1871 246.4881,-153.7372 218,-132 202.2487,-119.9813 191.3479,-99.8257 184.9495,-84.9437"/>
<polygon fill="#191970" stroke="#191970" points="188.1959,-83.6354 181.235,-75.6481 181.6957,-86.2329 188.1959,-83.6354"/>
</g>
<!-- Node9 -->
<g id="node10" class="node">
<title>Node9</title>
<g id="a_node10"><a xlink:href="sprite_8h.html" target="_top" xlink:title="../Graphics/sprite.h">
<polygon fill="none" stroke="#000000" points="329,-112.5 329,-131.5 429,-131.5 429,-112.5 329,-112.5"/>
<text text-anchor="middle" x="379" y="-119.5" font-family="Helvetica,sans-Serif" font-size="10.00" fill="#000000">../Graphics/sprite.h</text>
</a>
</g>
</g>
<!-- Node0&#45;&gt;Node9 -->
<g id="edge9" class="edge">
<title>Node0&#45;&gt;Node9</title>
<path fill="none" stroke="#191970" d="M405.8739,-168.168C400.7401,-159.3484 394.8066,-149.155 389.823,-140.5933"/>
<polygon fill="#191970" stroke="#191970" points="392.7487,-138.6622 384.6931,-131.7805 386.699,-142.1837 392.7487,-138.6622"/>
</g>
<!-- Node13 -->
<g id="node14" class="node">
<title>Node13</title>
<g id="a_node14"><a xlink:href="texture_8h.html" target="_top" xlink:title="texture.h">
<polygon fill="none" stroke="#000000" points="572.5,-56.5 572.5,-75.5 627.5,-75.5 627.5,-56.5 572.5,-56.5"/>
<text text-anchor="middle" x="600" y="-63.5" font-family="Helvetica,sans-Serif" font-size="10.00" fill="#000000">texture.h</text>
</a>
</g>
</g>
<!-- Node0&#45;&gt;Node13 -->
<g id="edge21" class="edge">
<title>Node0&#45;&gt;Node13</title>
<path fill="none" stroke="#191970" d="M448.4627,-168.4126C484.9065,-143.783 545.0575,-103.1315 577.533,-81.1837"/>
<polygon fill="#191970" stroke="#191970" points="579.5907,-84.0175 585.9162,-75.5182 575.6711,-78.2178 579.5907,-84.0175"/>
</g>
<!-- Node7&#45;&gt;Node8 -->
<g id="edge8" class="edge">
<title>Node7&#45;&gt;Node8</title>
<path fill="none" stroke="#191970" d="M249.8458,-112.2455C236.4973,-103.6534 216.8414,-91.0014 201.4617,-81.1018"/>
<polygon fill="#191970" stroke="#191970" points="203.2836,-78.1121 192.9806,-75.6427 199.4949,-83.9982 203.2836,-78.1121"/>
</g>
<!-- Node9&#45;&gt;Node1 -->
<g id="edge10" class="edge">
<title>Node9&#45;&gt;Node1</title>
<path fill="none" stroke="#191970" d="M328.8719,-114.5917C322.8505,-113.7126 316.7874,-112.8325 311,-112 200.494,-96.1048 168.8716,-100.921 56.3481,-76.0181"/>
<polygon fill="#191970" stroke="#191970" points="56.8229,-72.5377 46.2992,-73.7637 55.2905,-79.368 56.8229,-72.5377"/>
</g>
<!-- Node9&#45;&gt;Node4 -->
<g id="edge13" class="edge">
<title>Node9&#45;&gt;Node4</title>
<path fill="none" stroke="#191970" d="M328.7274,-112.6682C283.0355,-104.0813 213.513,-90.754 143.8685,-76.1378"/>
<polygon fill="#191970" stroke="#191970" points="144.5498,-72.7046 134.043,-74.0672 143.1063,-79.5541 144.5498,-72.7046"/>
</g>
<!-- Node9&#45;&gt;Node8 -->
<g id="edge18" class="edge">
<title>Node9&#45;&gt;Node8</title>
<path fill="none" stroke="#191970" d="M344.3224,-112.4771C312.7581,-103.7899 264.6146,-90.4922 214.1493,-76.3099"/>
<polygon fill="#191970" stroke="#191970" points="214.9411,-72.8968 204.3669,-73.5577 213.0453,-79.6352 214.9411,-72.8968"/>
</g>
<!-- Node10 -->
<g id="node11" class="node">
<title>Node10</title>
<polygon fill="none" stroke="#bfbfbf" points="222,-56.5 222,-75.5 268,-75.5 268,-56.5 222,-56.5"/>
<text text-anchor="middle" x="245" y="-63.5" font-family="Helvetica,sans-Serif" font-size="10.00" fill="#000000">stdio.h</text>
</g>
<!-- Node9&#45;&gt;Node10 -->
<g id="edge11" class="edge">
<title>Node9&#45;&gt;Node10</title>
<path fill="none" stroke="#191970" d="M355.9646,-112.3733C334.2612,-103.3032 301.5382,-89.6279 277.245,-79.4755"/>
<polygon fill="#191970" stroke="#191970" points="278.3111,-76.1278 267.7348,-75.5011 275.6119,-82.5865 278.3111,-76.1278"/>
</g>
<!-- Node11 -->
<g id="node12" class="node">
<title>Node11</title>
<polygon fill="none" stroke="#bfbfbf" points="286,-56.5 286,-75.5 356,-75.5 356,-56.5 286,-56.5"/>
<text text-anchor="middle" x="321" y="-63.5" font-family="Helvetica,sans-Serif" font-size="10.00" fill="#000000">glm/fwd.hpp</text>
</g>
<!-- Node9&#45;&gt;Node11 -->
<g id="edge12" class="edge">
<title>Node9&#45;&gt;Node11</title>
<path fill="none" stroke="#191970" d="M368.8972,-112.2455C360.4972,-104.1352 348.3506,-92.4075 338.3916,-82.7919"/>
<polygon fill="#191970" stroke="#191970" points="340.6122,-80.0707 330.9871,-75.6427 335.75,-85.1066 340.6122,-80.0707"/>
</g>
<!-- Node12 -->
<g id="node13" class="node">
<title>Node12</title>
<polygon fill="none" stroke="#bfbfbf" points="455,-.5 455,-19.5 509,-19.5 509,-.5 455,-.5"/>
<text text-anchor="middle" x="482" y="-7.5" font-family="Helvetica,sans-Serif" font-size="10.00" fill="#000000">iostream</text>
</g>
<!-- Node9&#45;&gt;Node12 -->
<g id="edge14" class="edge">
<title>Node9&#45;&gt;Node12</title>
<path fill="none" stroke="#191970" d="M380.3687,-112.4556C382.7787,-98.6281 388.9267,-72.8399 403,-56 414.6309,-42.0827 431.6208,-31.424 446.8672,-23.8881"/>
<polygon fill="#191970" stroke="#191970" points="448.4862,-26.9951 456.0715,-19.5983 445.529,-20.6504 448.4862,-26.9951"/>
</g>
<!-- Node9&#45;&gt;Node13 -->
<g id="edge15" class="edge">
<title>Node9&#45;&gt;Node13</title>
<path fill="none" stroke="#191970" d="M418.1793,-112.4337C453.3553,-103.7939 506.6613,-90.576 562.1246,-76.1943"/>
<polygon fill="#191970" stroke="#191970" points="563.3371,-79.4955 572.1347,-73.5919 561.5758,-72.7207 563.3371,-79.4955"/>
</g>
<!-- Node14 -->
<g id="node15" class="node">
<title>Node14</title>
<polygon fill="none" stroke="#bfbfbf" points="412.5,-56.5 412.5,-75.5 453.5,-75.5 453.5,-56.5 412.5,-56.5"/>
<text text-anchor="middle" x="433" y="-63.5" font-family="Helvetica,sans-Serif" font-size="10.00" fill="#000000">string</text>
</g>
<!-- Node9&#45;&gt;Node14 -->
<g id="edge19" class="edge">
<title>Node9&#45;&gt;Node14</title>
<path fill="none" stroke="#191970" d="M388.4061,-112.2455C396.1493,-104.2155 407.312,-92.6394 416.5318,-83.0781"/>
<polygon fill="#191970" stroke="#191970" points="419.2798,-85.2706 423.7017,-75.6427 414.2409,-80.4117 419.2798,-85.2706"/>
</g>
<!-- Node15 -->
<g id="node16" class="node">
<title>Node15</title>
<polygon fill="none" stroke="#bfbfbf" points="471.5,-56.5 471.5,-75.5 554.5,-75.5 554.5,-56.5 471.5,-56.5"/>
<text text-anchor="middle" x="513" y="-63.5" font-family="Helvetica,sans-Serif" font-size="10.00" fill="#000000">unordered_map</text>
</g>
<!-- Node9&#45;&gt;Node15 -->
<g id="edge20" class="edge">
<title>Node9&#45;&gt;Node15</title>
<path fill="none" stroke="#191970" d="M402.0354,-112.3733C423.7388,-103.3032 456.4618,-89.6279 480.755,-79.4755"/>
<polygon fill="#191970" stroke="#191970" points="482.3881,-82.5865 490.2652,-75.5011 479.6889,-76.1278 482.3881,-82.5865"/>
</g>
<!-- Node13&#45;&gt;Node3 -->
<g id="edge17" class="edge">
<title>Node13&#45;&gt;Node3</title>
<path fill="none" stroke="#191970" d="M604.8772,-56.2455C608.6513,-48.6973 613.9921,-38.0158 618.5901,-28.8197"/>
<polygon fill="#191970" stroke="#191970" points="621.837,-30.1522 623.1787,-19.6427 615.576,-27.0217 621.837,-30.1522"/>
</g>
<!-- Node13&#45;&gt;Node12 -->
<g id="edge16" class="edge">
<title>Node13&#45;&gt;Node12</title>
<path fill="none" stroke="#191970" d="M579.7151,-56.3733C560.8579,-47.4241 532.554,-33.9917 511.2545,-23.8835"/>
<polygon fill="#191970" stroke="#191970" points="512.5551,-20.6266 502.0202,-19.5011 509.5539,-26.9506 512.5551,-20.6266"/>
</g>
</g>
</svg>
