<?xml version="1.0" encoding="UTF-8" standalone="no"?>
<!DOCTYPE svg PUBLIC "-//W3C//DTD SVG 1.1//EN"
 "http://www.w3.org/Graphics/SVG/1.1/DTD/svg11.dtd">
<!-- Generated by graphviz version 2.40.1 (20161225.0304)
 -->
<!-- Title: /mnt/hdd/fnky/C0de/CAPSTONE/clean_build/include/rapidjson/schema.h Pages: 1 -->
<!--zoomable 554 -->
<svg id="main" version="1.1" xmlns="http://www.w3.org/2000/svg" xmlns:xlink="http://www.w3.org/1999/xlink" xml:space="preserve" onload="init(evt)">
<style type="text/css"><![CDATA[
.edge:hover path { stroke: red; }
.edge:hover polygon { stroke: red; fill: red; }
]]></style>
<script type="text/javascript"><![CDATA[
var edges = document.getElementsByTagName('g');
if (edges && edges.length) {
  for (var i=0;i<edges.length;i++) {
    if (edges[i].id.substr(0,4)=='edge') {
      edges[i].setAttribute('class','edge');
    }
  }
}
]]></script>
        <defs>
                <circle id="rim" cx="0" cy="0" r="7"/>
                <circle id="rim2" cx="0" cy="0" r="3.5"/>
                <g id="zoomPlus">
                        <use xlink:href="#rim" fill="#404040">
                                <set attributeName="fill" to="#808080" begin="zoomplus.mouseover" end="zoomplus.mouseout"/>
                        </use>
                        <path d="M-4,0h8M0,-4v8" fill="none" stroke="white" stroke-width="1.5" pointer-events="none"/>
                </g>
                <g id="zoomMin">
                        <use xlink:href="#rim" fill="#404040">
                                <set attributeName="fill" to="#808080" begin="zoomminus.mouseover" end="zoomminus.mouseout"/>
                        </use>
                        <path d="M-4,0h8" fill="none" stroke="white" stroke-width="1.5" pointer-events="none"/>
                </g>
                <g id="dirArrow">
                        <path fill="none" stroke="white" stroke-width="1.5" d="M0,-3.0v7 M-2.5,-0.5L0,-3.0L2.5,-0.5"/>
                </g>
               <g id="resetDef">
                       <use xlink:href="#rim2" fill="#404040">
                               <set attributeName="fill" to="#808080" begin="reset.mouseover" end="reset.mouseout"/>
                       </use>
               </g>
        </defs>

<script type="text/javascript">
var viewWidth = 1101;
var viewHeight = 554;
var sectionId = 'dynsection-0';
</script>
<script xlink:href="svgpan.js"/>
<svg id="graph" class="graph">
<g id="viewport">
<title>/mnt/hdd/fnky/C0de/CAPSTONE/clean_build/include/rapidjson/schema.h</title>
<!-- Node0 -->
<g id="node1" class="node">
<title>Node0</title>
<polygon fill="#bfbfbf" stroke="#000000" points="632.5,-504.5 632.5,-545.5 770.5,-545.5 770.5,-504.5 632.5,-504.5"/>
<text text-anchor="start" x="640.5" y="-533.5" font-family="Helvetica,sans-Serif" font-size="10.00" fill="#000000">/mnt/hdd/fnky/C0de</text>
<text text-anchor="start" x="640.5" y="-522.5" font-family="Helvetica,sans-Serif" font-size="10.00" fill="#000000">/CAPSTONE/clean_build</text>
<text text-anchor="middle" x="701.5" y="-511.5" font-family="Helvetica,sans-Serif" font-size="10.00" fill="#000000">/include/rapidjson/schema.h</text>
</g>
<!-- Node1 -->
<g id="node2" class="node">
<title>Node1</title>
<g id="a_node2"><a xlink:href="document_8h.html" target="_top" xlink:title="document.h">
<polygon fill="none" stroke="#000000" points="590.5,-392.5 590.5,-411.5 658.5,-411.5 658.5,-392.5 590.5,-392.5"/>
<text text-anchor="middle" x="624.5" y="-399.5" font-family="Helvetica,sans-Serif" font-size="10.00" fill="#000000">document.h</text>
</a>
</g>
</g>
<!-- Node0&#45;&gt;Node1 -->
<g id="edge1" class="edge">
<title>Node0&#45;&gt;Node1</title>
<path fill="none" stroke="#191970" d="M688.6119,-504.4126C673.8523,-480.8355 649.9017,-442.5767 635.8292,-420.0973"/>
<polygon fill="#191970" stroke="#191970" points="638.7314,-418.1371 630.4585,-411.5182 632.7981,-421.8515 638.7314,-418.1371"/>
</g>
<!-- Node30 -->
<g id="node31" class="node">
<title>Node30</title>
<g id="a_node31"><a xlink:href="pointer_8h.html" target="_top" xlink:title="pointer.h">
<polygon fill="none" stroke="#000000" points="729.5,-448.5 729.5,-467.5 783.5,-467.5 783.5,-448.5 729.5,-448.5"/>
<text text-anchor="middle" x="756.5" y="-455.5" font-family="Helvetica,sans-Serif" font-size="10.00" fill="#000000">pointer.h</text>
</a>
</g>
</g>
<!-- Node0&#45;&gt;Node30 -->
<g id="edge53" class="edge">
<title>Node0&#45;&gt;Node30</title>
<path fill="none" stroke="#191970" d="M718.6009,-504.168C726.0744,-495.0639 734.7496,-484.4959 741.9127,-475.7699"/>
<polygon fill="#191970" stroke="#191970" points="744.8315,-477.7305 748.4713,-467.7805 739.421,-473.289 744.8315,-477.7305"/>
</g>
<!-- Node31 -->
<g id="node32" class="node">
<title>Node31</title>
<g id="a_node32"><a xlink:href="uri_8h.html" target="_top" xlink:title="uri.h">
<polygon fill="none" stroke="#000000" points="739,-392.5 739,-411.5 774,-411.5 774,-392.5 739,-392.5"/>
<text text-anchor="middle" x="756.5" y="-399.5" font-family="Helvetica,sans-Serif" font-size="10.00" fill="#000000">uri.h</text>
</a>
</g>
</g>
<!-- Node0&#45;&gt;Node31 -->
<g id="edge65" class="edge">
<title>Node0&#45;&gt;Node31</title>
<path fill="none" stroke="#191970" d="M704.1904,-504.2497C706.8273,-488.2702 711.7623,-465.9515 720.5,-448 725.5069,-437.7135 733.0919,-427.56 740.0106,-419.42"/>
<polygon fill="#191970" stroke="#191970" points="742.8082,-421.5412 746.8433,-411.7449 737.5798,-416.8867 742.8082,-421.5412"/>
</g>
<!-- Node33 -->
<g id="node34" class="node">
<title>Node33</title>
<g id="a_node34"><a xlink:href="stringbuffer_8h.html" target="_top" xlink:title="stringbuffer.h">
<polygon fill="none" stroke="#000000" points="137.5,-336.5 137.5,-355.5 211.5,-355.5 211.5,-336.5 137.5,-336.5"/>
<text text-anchor="middle" x="174.5" y="-343.5" font-family="Helvetica,sans-Serif" font-size="10.00" fill="#000000">stringbuffer.h</text>
</a>
</g>
</g>
<!-- Node0&#45;&gt;Node33 -->
<g id="edge60" class="edge">
<title>Node0&#45;&gt;Node33</title>
<path fill="none" stroke="#191970" d="M641.0464,-504.4664C531.3363,-467.2025 302.4708,-389.4664 212.2379,-358.818"/>
<polygon fill="#191970" stroke="#191970" points="213.2826,-355.4765 202.6882,-355.5744 211.0313,-362.1046 213.2826,-355.4765"/>
</g>
<!-- Node34 -->
<g id="node35" class="node">
<title>Node34</title>
<g id="a_node35"><a xlink:href="en_8h.html" target="_top" xlink:title="error/en.h">
<polygon fill="none" stroke="#000000" points="801.5,-448.5 801.5,-467.5 859.5,-467.5 859.5,-448.5 801.5,-448.5"/>
<text text-anchor="middle" x="830.5" y="-455.5" font-family="Helvetica,sans-Serif" font-size="10.00" fill="#000000">error/en.h</text>
</a>
</g>
</g>
<!-- Node0&#45;&gt;Node34 -->
<g id="edge63" class="edge">
<title>Node0&#45;&gt;Node34</title>
<path fill="none" stroke="#191970" d="M741.2569,-504.3511C761.12,-494.0346 784.6732,-481.8015 802.5939,-472.4939"/>
<polygon fill="#191970" stroke="#191970" points="804.65,-475.3699 811.9112,-467.6546 801.4236,-469.1578 804.65,-475.3699"/>
</g>
<!-- Node35 -->
<g id="node36" class="node">
<title>Node35</title>
<polygon fill="none" stroke="#bfbfbf" points="877.5,-448.5 877.5,-467.5 921.5,-467.5 921.5,-448.5 877.5,-448.5"/>
<text text-anchor="middle" x="899.5" y="-455.5" font-family="Helvetica,sans-Serif" font-size="10.00" fill="#000000">cmath</text>
</g>
<!-- Node0&#45;&gt;Node35 -->
<g id="edge66" class="edge">
<title>Node0&#45;&gt;Node35</title>
<path fill="none" stroke="#191970" d="M762.2521,-504.4425C797.0801,-492.6572 839.371,-478.3467 867.7225,-468.753"/>
<polygon fill="#191970" stroke="#191970" points="869.1469,-471.966 877.4974,-465.4453 866.9032,-465.3353 869.1469,-471.966"/>
</g>
<!-- Node36 -->
<g id="node37" class="node">
<title>Node36</title>
<g id="a_node37"><a xlink:href="regex_8h.html" target="_top" xlink:title="internal/regex.h">
<polygon fill="none" stroke="#000000" points="36,-336.5 36,-355.5 119,-355.5 119,-336.5 36,-336.5"/>
<text text-anchor="middle" x="77.5" y="-343.5" font-family="Helvetica,sans-Serif" font-size="10.00" fill="#000000">internal/regex.h</text>
</a>
</g>
</g>
<!-- Node0&#45;&gt;Node36 -->
<g id="edge67" class="edge">
<title>Node0&#45;&gt;Node36</title>
<path fill="none" stroke="#191970" d="M632.2953,-508.0508C588.3932,-497.0963 530.4633,-482.2686 479.5,-468 345.8451,-430.5796 188.7599,-381.3779 116.9335,-358.5881"/>
<polygon fill="#191970" stroke="#191970" points="117.966,-355.2438 107.3756,-355.5516 115.8464,-361.9152 117.966,-355.2438"/>
</g>
<!-- Node2 -->
<g id="node3" class="node">
<title>Node2</title>
<g id="a_node3"><a xlink:href="reader_8h.html" target="_top" xlink:title="reader.h">
<polygon fill="none" stroke="#000000" points="501.5,-336.5 501.5,-355.5 553.5,-355.5 553.5,-336.5 501.5,-336.5"/>
<text text-anchor="middle" x="527.5" y="-343.5" font-family="Helvetica,sans-Serif" font-size="10.00" fill="#000000">reader.h</text>
</a>
</g>
</g>
<!-- Node1&#45;&gt;Node2 -->
<g id="edge2" class="edge">
<title>Node1&#45;&gt;Node2</title>
<path fill="none" stroke="#191970" d="M607.6039,-392.2455C592.582,-383.5731 570.3957,-370.7645 553.179,-360.825"/>
<polygon fill="#191970" stroke="#191970" points="554.6128,-357.6114 544.2025,-355.6427 551.1129,-363.6737 554.6128,-357.6114"/>
</g>
<!-- Node8 -->
<g id="node9" class="node">
<title>Node8</title>
<g id="a_node9"><a xlink:href="meta_8h.html" target="_top" xlink:title="internal/meta.h">
<polygon fill="none" stroke="#000000" points="214,-168.5 214,-187.5 295,-187.5 295,-168.5 214,-168.5"/>
<text text-anchor="middle" x="254.5" y="-175.5" font-family="Helvetica,sans-Serif" font-size="10.00" fill="#000000">internal/meta.h</text>
</a>
</g>
</g>
<!-- Node1&#45;&gt;Node8 -->
<g id="edge44" class="edge">
<title>Node1&#45;&gt;Node8</title>
<path fill="none" stroke="#191970" d="M590.3983,-400.1284C546.1026,-396.5314 467.3697,-386.0964 407.5,-356 340.2597,-322.1984 323.7162,-305.613 280.5,-244 270.5672,-229.8389 263.7073,-211.3499 259.5383,-197.5446"/>
<polygon fill="#191970" stroke="#191970" points="262.8337,-196.3334 256.7644,-187.6493 256.0935,-198.2229 262.8337,-196.3334"/>
</g>
<!-- Node10 -->
<g id="node11" class="node">
<title>Node10</title>
<polygon fill="none" stroke="#bfbfbf" points="581.5,-168.5 581.5,-187.5 621.5,-187.5 621.5,-168.5 581.5,-168.5"/>
<text text-anchor="middle" x="601.5" y="-175.5" font-family="Helvetica,sans-Serif" font-size="10.00" fill="#000000">limits</text>
</g>
<!-- Node1&#45;&gt;Node10 -->
<g id="edge51" class="edge">
<title>Node1&#45;&gt;Node10</title>
<path fill="none" stroke="#191970" d="M623.5117,-392.375C620.0246,-358.4133 608.2508,-243.7472 603.5063,-197.5392"/>
<polygon fill="#191970" stroke="#191970" points="606.9878,-197.1793 602.4846,-187.5891 600.0244,-197.8944 606.9878,-197.1793"/>
</g>
<!-- Node13 -->
<g id="node14" class="node">
<title>Node13</title>
<g id="a_node14"><a xlink:href="encodedstream_8h.html" target="_top" xlink:title="encodedstream.h">
<polygon fill="none" stroke="#000000" points="367.5,-280.5 367.5,-299.5 459.5,-299.5 459.5,-280.5 367.5,-280.5"/>
<text text-anchor="middle" x="413.5" y="-287.5" font-family="Helvetica,sans-Serif" font-size="10.00" fill="#000000">encodedstream.h</text>
</a>
</g>
</g>
<!-- Node1&#45;&gt;Node13 -->
<g id="edge49" class="edge">
<title>Node1&#45;&gt;Node13</title>
<path fill="none" stroke="#191970" d="M590.2471,-393.7272C562.7177,-386.2328 523.6413,-373.651 492.5,-356 468.8865,-342.6158 445.4862,-321.8829 430.3571,-307.2315"/>
<polygon fill="#191970" stroke="#191970" points="432.4229,-304.3514 422.8542,-299.8027 427.4977,-309.3257 432.4229,-304.3514"/>
</g>
<!-- Node14 -->
<g id="node15" class="node">
<title>Node14</title>
<g id="a_node15"><a xlink:href="memorystream_8h.html" target="_top" xlink:title="memorystream.h">
<polygon fill="none" stroke="#000000" points="331.5,-224.5 331.5,-243.5 421.5,-243.5 421.5,-224.5 331.5,-224.5"/>
<text text-anchor="middle" x="376.5" y="-231.5" font-family="Helvetica,sans-Serif" font-size="10.00" fill="#000000">memorystream.h</text>
</a>
</g>
</g>
<!-- Node1&#45;&gt;Node14 -->
<g id="edge48" class="edge">
<title>Node1&#45;&gt;Node14</title>
<path fill="none" stroke="#191970" d="M590.3176,-394.3951C524.1787,-378.8635 383.0277,-341.4473 358.5,-300 349.7521,-285.2176 356.6332,-266.0731 364.2763,-252.2131"/>
<polygon fill="#191970" stroke="#191970" points="367.3181,-253.9469 369.5067,-243.5805 361.3312,-250.3195 367.3181,-253.9469"/>
</g>
<!-- Node26 -->
<g id="node27" class="node">
<title>Node26</title>
<g id="a_node27"><a xlink:href="strfunc_8h.html" target="_top" xlink:title="internal/strfunc.h">
<polygon fill="none" stroke="#000000" points="748,-336.5 748,-355.5 837,-355.5 837,-336.5 748,-336.5"/>
<text text-anchor="middle" x="792.5" y="-343.5" font-family="Helvetica,sans-Serif" font-size="10.00" fill="#000000">internal/strfunc.h</text>
</a>
</g>
</g>
<!-- Node1&#45;&gt;Node26 -->
<g id="edge45" class="edge">
<title>Node1&#45;&gt;Node26</title>
<path fill="none" stroke="#191970" d="M653.3802,-392.3733C681.3161,-383.0613 723.8142,-368.8953 754.4869,-358.671"/>
<polygon fill="#191970" stroke="#191970" points="755.6166,-361.9839 763.9966,-355.5011 753.403,-355.3431 755.6166,-361.9839"/>
</g>
<!-- Node28 -->
<g id="node29" class="node">
<title>Node28</title>
<polygon fill="none" stroke="#bfbfbf" points="630,-336.5 630,-355.5 665,-355.5 665,-336.5 630,-336.5"/>
<text text-anchor="middle" x="647.5" y="-343.5" font-family="Helvetica,sans-Serif" font-size="10.00" fill="#000000">new</text>
</g>
<!-- Node1&#45;&gt;Node28 -->
<g id="edge50" class="edge">
<title>Node1&#45;&gt;Node28</title>
<path fill="none" stroke="#191970" d="M628.5063,-392.2455C631.5735,-384.7776 635.9003,-374.2427 639.6497,-365.1137"/>
<polygon fill="#191970" stroke="#191970" points="642.9779,-366.2226 643.5396,-355.6427 636.5028,-363.5631 642.9779,-366.2226"/>
</g>
<!-- Node29 -->
<g id="node30" class="node">
<title>Node29</title>
<polygon fill="none" stroke="#bfbfbf" points="683,-336.5 683,-355.5 730,-355.5 730,-336.5 683,-336.5"/>
<text text-anchor="middle" x="706.5" y="-343.5" font-family="Helvetica,sans-Serif" font-size="10.00" fill="#000000">iterator</text>
</g>
<!-- Node1&#45;&gt;Node29 -->
<g id="edge52" class="edge">
<title>Node1&#45;&gt;Node29</title>
<path fill="none" stroke="#191970" d="M638.7833,-392.2455C651.247,-383.7337 669.5451,-371.2375 683.9792,-361.3801"/>
<polygon fill="#191970" stroke="#191970" points="686.0962,-364.1726 692.3804,-355.6427 682.1485,-358.392 686.0962,-364.1726"/>
</g>
<!-- Node3 -->
<g id="node4" class="node">
<title>Node3</title>
<g id="a_node4"><a xlink:href="allocators_8h.html" target="_top" xlink:title="allocators.h">
<polygon fill="none" stroke="#000000" points="88,-224.5 88,-243.5 155,-243.5 155,-224.5 88,-224.5"/>
<text text-anchor="middle" x="121.5" y="-231.5" font-family="Helvetica,sans-Serif" font-size="10.00" fill="#000000">allocators.h</text>
</a>
</g>
</g>
<!-- Node2&#45;&gt;Node3 -->
<g id="edge3" class="edge">
<title>Node2&#45;&gt;Node3</title>
<path fill="none" stroke="#191970" d="M501.4879,-340.8493C462.8434,-333.0233 388.0965,-317.2165 325.5,-300 266.1482,-283.6759 198.3526,-260.9019 157.787,-246.8221"/>
<polygon fill="#191970" stroke="#191970" points="158.9231,-243.5117 148.3282,-243.5252 156.6191,-250.1216 158.9231,-243.5117"/>
</g>
<!-- Node2&#45;&gt;Node8 -->
<g id="edge22" class="edge">
<title>Node2&#45;&gt;Node8</title>
<path fill="none" stroke="#191970" d="M501.2446,-343.6951C466.2661,-339.5973 403.563,-328.5869 358.5,-300 316.0093,-273.0449 281.6634,-223.3131 265.1511,-196.4205"/>
<polygon fill="#191970" stroke="#191970" points="268.03,-194.4152 259.8925,-187.6306 262.023,-198.009 268.03,-194.4152"/>
</g>
<!-- Node2&#45;&gt;Node10 -->
<g id="edge41" class="edge">
<title>Node2&#45;&gt;Node10</title>
<path fill="none" stroke="#191970" d="M531.6906,-336.4862C543.4895,-309.6994 577.1608,-233.2565 593.0301,-197.2289"/>
<polygon fill="#191970" stroke="#191970" points="596.343,-198.3903 597.1711,-187.8279 589.9369,-195.5686 596.343,-198.3903"/>
</g>
<!-- Node11 -->
<g id="node12" class="node">
<title>Node11</title>
<g id="a_node12"><a xlink:href="stream_8h.html" target="_top" xlink:title="stream.h">
<polygon fill="none" stroke="#000000" points="435,-168.5 435,-187.5 490,-187.5 490,-168.5 435,-168.5"/>
<text text-anchor="middle" x="462.5" y="-175.5" font-family="Helvetica,sans-Serif" font-size="10.00" fill="#000000">stream.h</text>
</a>
</g>
</g>
<!-- Node2&#45;&gt;Node11 -->
<g id="edge12" class="edge">
<title>Node2&#45;&gt;Node11</title>
<path fill="none" stroke="#191970" d="M523.8191,-336.4862C513.4551,-309.6994 483.879,-233.2565 469.9398,-197.2289"/>
<polygon fill="#191970" stroke="#191970" points="473.1751,-195.8912 466.3025,-187.8279 466.6467,-198.4171 473.1751,-195.8912"/>
</g>
<!-- Node2&#45;&gt;Node13 -->
<g id="edge16" class="edge">
<title>Node2&#45;&gt;Node13</title>
<path fill="none" stroke="#191970" d="M507.9027,-336.3733C489.7669,-327.4644 462.5865,-314.1127 442.0413,-304.0203"/>
<polygon fill="#191970" stroke="#191970" points="443.3603,-300.7688 432.8416,-299.5011 440.2739,-307.0517 443.3603,-300.7688"/>
</g>
<!-- Node15 -->
<g id="node16" class="node">
<title>Node15</title>
<g id="a_node16"><a xlink:href="clzll_8h.html" target="_top" xlink:title="internal/clzll.h">
<polygon fill="none" stroke="#000000" points="884,-168.5 884,-187.5 961,-187.5 961,-168.5 884,-168.5"/>
<text text-anchor="middle" x="922.5" y="-175.5" font-family="Helvetica,sans-Serif" font-size="10.00" fill="#000000">internal/clzll.h</text>
</a>
</g>
</g>
<!-- Node2&#45;&gt;Node15 -->
<g id="edge20" class="edge">
<title>Node2&#45;&gt;Node15</title>
<path fill="none" stroke="#191970" d="M553.6421,-342.5006C611.398,-334.6015 748.2512,-314.9151 792.5,-300 843.7366,-282.7295 865.3752,-285.106 900.5,-244 911.6442,-230.9581 917.1945,-212.072 919.9276,-197.8411"/>
<polygon fill="#191970" stroke="#191970" points="923.438,-198.0553 921.5686,-187.6267 916.5267,-196.9449 923.438,-198.0553"/>
</g>
<!-- Node16 -->
<g id="node17" class="node">
<title>Node16</title>
<g id="a_node17"><a xlink:href="stack_8h.html" target="_top" xlink:title="internal/stack.h">
<polygon fill="none" stroke="#000000" points="0,-280.5 0,-299.5 83,-299.5 83,-280.5 0,-280.5"/>
<text text-anchor="middle" x="41.5" y="-287.5" font-family="Helvetica,sans-Serif" font-size="10.00" fill="#000000">internal/stack.h</text>
</a>
</g>
</g>
<!-- Node2&#45;&gt;Node16 -->
<g id="edge23" class="edge">
<title>Node2&#45;&gt;Node16</title>
<path fill="none" stroke="#191970" d="M501.3705,-342.9892C424.2663,-334.1048 196.6584,-307.8783 93.4412,-295.985"/>
<polygon fill="#191970" stroke="#191970" points="93.5929,-292.4794 83.258,-294.8116 92.7916,-299.4334 93.5929,-292.4794"/>
</g>
<!-- Node19 -->
<g id="node20" class="node">
<title>Node19</title>
<g id="a_node20"><a xlink:href="strtod_8h.html" target="_top" xlink:title="internal/strtod.h">
<polygon fill="none" stroke="#000000" points="699.5,-280.5 699.5,-299.5 783.5,-299.5 783.5,-280.5 699.5,-280.5"/>
<text text-anchor="middle" x="741.5" y="-287.5" font-family="Helvetica,sans-Serif" font-size="10.00" fill="#000000">internal/strtod.h</text>
</a>
</g>
</g>
<!-- Node2&#45;&gt;Node19 -->
<g id="edge28" class="edge">
<title>Node2&#45;&gt;Node19</title>
<path fill="none" stroke="#191970" d="M553.7406,-339.1333C588.9456,-329.9208 652.0363,-313.4111 695.2915,-302.0919"/>
<polygon fill="#191970" stroke="#191970" points="696.2278,-305.4649 705.0159,-299.5472 694.4556,-298.6929 696.2278,-305.4649"/>
</g>
<!-- Node25 -->
<g id="node26" class="node">
<title>Node25</title>
<g id="a_node26"><a xlink:href="error_8h.html" target="_top" xlink:title="error/error.h">
<polygon fill="none" stroke="#000000" points="933,-280.5 933,-299.5 1000,-299.5 1000,-280.5 933,-280.5"/>
<text text-anchor="middle" x="966.5" y="-287.5" font-family="Helvetica,sans-Serif" font-size="10.00" fill="#000000">error/error.h</text>
</a>
</g>
</g>
<!-- Node2&#45;&gt;Node25 -->
<g id="edge42" class="edge">
<title>Node2&#45;&gt;Node25</title>
<path fill="none" stroke="#191970" d="M553.6094,-343.1405C631.1586,-334.6246 858.2549,-309.5152 922.7039,-299.8419"/>
<polygon fill="#191970" stroke="#191970" points="923.455,-303.2661 932.7724,-298.2228 922.3435,-296.3549 923.455,-303.2661"/>
</g>
<!-- Node4 -->
<g id="node5" class="node">
<title>Node4</title>
<g id="a_node5"><a xlink:href="rapidjson_8h.html" target="_top" xlink:title="common definitions and configuration ">
<polygon fill="none" stroke="#000000" points="651.5,-56.5 651.5,-75.5 715.5,-75.5 715.5,-56.5 651.5,-56.5"/>
<text text-anchor="middle" x="683.5" y="-63.5" font-family="Helvetica,sans-Serif" font-size="10.00" fill="#000000">rapidjson.h</text>
</a>
</g>
</g>
<!-- Node3&#45;&gt;Node4 -->
<g id="edge4" class="edge">
<title>Node3&#45;&gt;Node4</title>
<path fill="none" stroke="#191970" d="M131.4147,-224.207C146.2029,-210.0698 175.4252,-183.8996 204.5,-168 272.0767,-131.0456 293.6324,-130.0857 368.5,-112 464.7363,-88.7523 580.5304,-75.5158 641.3885,-69.6631"/>
<polygon fill="#191970" stroke="#191970" points="641.7572,-73.1439 651.3847,-68.721 641.1003,-66.1748 641.7572,-73.1439"/>
</g>
<!-- Node3&#45;&gt;Node8 -->
<g id="edge8" class="edge">
<title>Node3&#45;&gt;Node8</title>
<path fill="none" stroke="#191970" d="M144.3635,-224.3733C165.905,-215.3032 198.3838,-201.6279 222.4956,-191.4755"/>
<polygon fill="#191970" stroke="#191970" points="224.0767,-194.6075 231.9348,-187.5011 221.3603,-188.156 224.0767,-194.6075"/>
</g>
<!-- Node9 -->
<g id="node10" class="node">
<title>Node9</title>
<polygon fill="none" stroke="#bfbfbf" points="95.5,-168.5 95.5,-187.5 147.5,-187.5 147.5,-168.5 95.5,-168.5"/>
<text text-anchor="middle" x="121.5" y="-175.5" font-family="Helvetica,sans-Serif" font-size="10.00" fill="#000000">memory</text>
</g>
<!-- Node3&#45;&gt;Node9 -->
<g id="edge10" class="edge">
<title>Node3&#45;&gt;Node9</title>
<path fill="none" stroke="#191970" d="M121.5,-224.2455C121.5,-216.9382 121.5,-206.6944 121.5,-197.7046"/>
<polygon fill="#191970" stroke="#191970" points="125.0001,-197.6426 121.5,-187.6427 118.0001,-197.6427 125.0001,-197.6426"/>
</g>
<!-- Node3&#45;&gt;Node10 -->
<g id="edge11" class="edge">
<title>Node3&#45;&gt;Node10</title>
<path fill="none" stroke="#191970" d="M155.2527,-230.0622C244.5791,-219.6408 486.1262,-191.4603 571.2834,-181.5253"/>
<polygon fill="#191970" stroke="#191970" points="571.8005,-184.9888 581.3276,-180.3535 570.9893,-178.0359 571.8005,-184.9888"/>
</g>
<!-- Node5 -->
<g id="node6" class="node">
<title>Node5</title>
<polygon fill="none" stroke="#bfbfbf" points="597,-.5 597,-19.5 642,-19.5 642,-.5 597,-.5"/>
<text text-anchor="middle" x="619.5" y="-7.5" font-family="Helvetica,sans-Serif" font-size="10.00" fill="#000000">cstdlib</text>
</g>
<!-- Node4&#45;&gt;Node5 -->
<g id="edge5" class="edge">
<title>Node4&#45;&gt;Node5</title>
<path fill="none" stroke="#191970" d="M672.3521,-56.2455C662.9913,-48.0549 649.4142,-36.1749 638.3651,-26.5069"/>
<polygon fill="#191970" stroke="#191970" points="640.3508,-23.5937 630.5202,-19.6427 635.7412,-28.8618 640.3508,-23.5937"/>
</g>
<!-- Node6 -->
<g id="node7" class="node">
<title>Node6</title>
<polygon fill="none" stroke="#bfbfbf" points="660.5,-.5 660.5,-19.5 706.5,-19.5 706.5,-.5 660.5,-.5"/>
<text text-anchor="middle" x="683.5" y="-7.5" font-family="Helvetica,sans-Serif" font-size="10.00" fill="#000000">cstring</text>
</g>
<!-- Node4&#45;&gt;Node6 -->
<g id="edge6" class="edge">
<title>Node4&#45;&gt;Node6</title>
<path fill="none" stroke="#191970" d="M683.5,-56.2455C683.5,-48.9382 683.5,-38.6944 683.5,-29.7046"/>
<polygon fill="#191970" stroke="#191970" points="687.0001,-29.6426 683.5,-19.6427 680.0001,-29.6427 687.0001,-29.6426"/>
</g>
<!-- Node7 -->
<g id="node8" class="node">
<title>Node7</title>
<polygon fill="none" stroke="#bfbfbf" points="725,-.5 725,-19.5 774,-19.5 774,-.5 725,-.5"/>
<text text-anchor="middle" x="749.5" y="-7.5" font-family="Helvetica,sans-Serif" font-size="10.00" fill="#000000">cassert</text>
</g>
<!-- Node4&#45;&gt;Node7 -->
<g id="edge7" class="edge">
<title>Node4&#45;&gt;Node7</title>
<path fill="none" stroke="#191970" d="M694.9963,-56.2455C704.7442,-47.9746 718.9259,-35.9416 730.3798,-26.2232"/>
<polygon fill="#191970" stroke="#191970" points="732.7747,-28.7813 738.1354,-19.6427 728.2459,-23.4437 732.7747,-28.7813"/>
</g>
<!-- Node8&#45;&gt;Node4 -->
<g id="edge9" class="edge">
<title>Node8&#45;&gt;Node4</title>
<path fill="none" stroke="#191970" d="M276.4382,-168.383C309.4856,-154.2278 374.2699,-127.7608 431.5,-112 503.9533,-92.0469 590.5544,-78.3926 641.0577,-71.4154"/>
<polygon fill="#191970" stroke="#191970" points="641.8309,-74.8426 651.2686,-70.028 640.8884,-67.9063 641.8309,-74.8426"/>
</g>
<!-- Node11&#45;&gt;Node4 -->
<g id="edge13" class="edge">
<title>Node11&#45;&gt;Node4</title>
<path fill="none" stroke="#191970" d="M481.3423,-168.4509C520.3228,-148.6961 609.9849,-103.2565 655.6604,-80.1088"/>
<polygon fill="#191970" stroke="#191970" points="657.3676,-83.1674 664.7054,-75.5249 654.2032,-76.9235 657.3676,-83.1674"/>
</g>
<!-- Node12 -->
<g id="node13" class="node">
<title>Node12</title>
<g id="a_node13"><a xlink:href="encodings_8h.html" target="_top" xlink:title="encodings.h">
<polygon fill="none" stroke="#000000" points="441,-112.5 441,-131.5 510,-131.5 510,-112.5 441,-112.5"/>
<text text-anchor="middle" x="475.5" y="-119.5" font-family="Helvetica,sans-Serif" font-size="10.00" fill="#000000">encodings.h</text>
</a>
</g>
</g>
<!-- Node11&#45;&gt;Node12 -->
<g id="edge14" class="edge">
<title>Node11&#45;&gt;Node12</title>
<path fill="none" stroke="#191970" d="M464.7644,-168.2455C466.4794,-160.8579 468.8912,-150.4689 470.9944,-141.4087"/>
<polygon fill="#191970" stroke="#191970" points="474.4095,-142.1751 473.2615,-131.6427 467.5908,-140.5922 474.4095,-142.1751"/>
</g>
<!-- Node12&#45;&gt;Node4 -->
<g id="edge15" class="edge">
<title>Node12&#45;&gt;Node4</title>
<path fill="none" stroke="#191970" d="M510.3145,-112.6269C546.4098,-102.9089 602.854,-87.7124 641.4252,-77.3278"/>
<polygon fill="#191970" stroke="#191970" points="642.5639,-80.646 651.3101,-74.6665 640.744,-73.8867 642.5639,-80.646"/>
</g>
<!-- Node13&#45;&gt;Node11 -->
<g id="edge17" class="edge">
<title>Node13&#45;&gt;Node11</title>
<path fill="none" stroke="#191970" d="M417.6777,-280.4509C425.778,-261.936 443.7492,-220.8591 454.3106,-196.7187"/>
<polygon fill="#191970" stroke="#191970" points="457.5312,-198.0894 458.3329,-187.5249 451.1181,-195.2836 457.5312,-198.0894"/>
</g>
<!-- Node13&#45;&gt;Node14 -->
<g id="edge18" class="edge">
<title>Node13&#45;&gt;Node14</title>
<path fill="none" stroke="#191970" d="M407.0551,-280.2455C401.9618,-272.5367 394.7092,-261.5598 388.548,-252.2348"/>
<polygon fill="#191970" stroke="#191970" points="391.3038,-250.0566 382.8711,-243.6427 385.4635,-253.9155 391.3038,-250.0566"/>
</g>
<!-- Node14&#45;&gt;Node11 -->
<g id="edge19" class="edge">
<title>Node14&#45;&gt;Node11</title>
<path fill="none" stroke="#191970" d="M391.4801,-224.2455C404.6751,-215.6534 424.1051,-203.0014 439.3079,-193.1018"/>
<polygon fill="#191970" stroke="#191970" points="441.2215,-196.0325 447.6916,-187.6427 437.4017,-190.1665 441.2215,-196.0325"/>
</g>
<!-- Node15&#45;&gt;Node4 -->
<g id="edge21" class="edge">
<title>Node15&#45;&gt;Node4</title>
<path fill="none" stroke="#191970" d="M917.4252,-168.2524C909.3197,-153.6808 892.0415,-126.3953 869.5,-112 825.4921,-83.896 765.5204,-72.9621 725.7083,-68.7084"/>
<polygon fill="#191970" stroke="#191970" points="725.8357,-65.2043 715.544,-67.7206 725.1586,-72.1715 725.8357,-65.2043"/>
</g>
<!-- Node16&#45;&gt;Node3 -->
<g id="edge24" class="edge">
<title>Node16&#45;&gt;Node3</title>
<path fill="none" stroke="#191970" d="M55.4349,-280.2455C67.5947,-271.7337 85.4464,-259.2375 99.5285,-249.3801"/>
<polygon fill="#191970" stroke="#191970" points="101.5395,-252.2447 107.7248,-243.6427 97.5253,-246.51 101.5395,-252.2447"/>
</g>
<!-- Node17 -->
<g id="node18" class="node">
<title>Node17</title>
<g id="a_node18"><a xlink:href="swap_8h.html" target="_top" xlink:title="swap.h">
<polygon fill="none" stroke="#000000" points="36.5,-112.5 36.5,-131.5 84.5,-131.5 84.5,-112.5 36.5,-112.5"/>
<text text-anchor="middle" x="60.5" y="-119.5" font-family="Helvetica,sans-Serif" font-size="10.00" fill="#000000">swap.h</text>
</a>
</g>
</g>
<!-- Node16&#45;&gt;Node17 -->
<g id="edge25" class="edge">
<title>Node16&#45;&gt;Node17</title>
<path fill="none" stroke="#191970" d="M32.7139,-280.2709C25.4314,-271.5036 15.6295,-257.8915 11.5,-244 8.9671,-235.4796 9.5262,-232.667 11.5,-224 18.6229,-192.7231 36.5934,-159.8494 48.6761,-140.1396"/>
<polygon fill="#191970" stroke="#191970" points="51.6953,-141.9133 54.0614,-131.586 45.7716,-138.1837 51.6953,-141.9133"/>
</g>
<!-- Node18 -->
<g id="node19" class="node">
<title>Node18</title>
<polygon fill="none" stroke="#bfbfbf" points="21,-224.5 21,-243.5 70,-243.5 70,-224.5 21,-224.5"/>
<text text-anchor="middle" x="45.5" y="-231.5" font-family="Helvetica,sans-Serif" font-size="10.00" fill="#000000">cstddef</text>
</g>
<!-- Node16&#45;&gt;Node18 -->
<g id="edge27" class="edge">
<title>Node16&#45;&gt;Node18</title>
<path fill="none" stroke="#191970" d="M42.1967,-280.2455C42.7187,-272.9382 43.4504,-262.6944 44.0925,-253.7046"/>
<polygon fill="#191970" stroke="#191970" points="47.5898,-253.8667 44.8112,-243.6427 40.6076,-253.3679 47.5898,-253.8667"/>
</g>
<!-- Node17&#45;&gt;Node4 -->
<g id="edge26" class="edge">
<title>Node17&#45;&gt;Node4</title>
<path fill="none" stroke="#191970" d="M84.9155,-119.6595C106.3978,-117.609 138.5209,-114.5645 166.5,-112 342.8405,-95.8372 553.0951,-77.383 641.2892,-69.6791"/>
<polygon fill="#191970" stroke="#191970" points="641.7713,-73.1504 651.429,-68.7938 641.1624,-66.1769 641.7713,-73.1504"/>
</g>
<!-- Node19&#45;&gt;Node10 -->
<g id="edge40" class="edge">
<title>Node19&#45;&gt;Node10</title>
<path fill="none" stroke="#191970" d="M734.5054,-280.1105C724.4008,-266.3191 704.6039,-241.0843 683.5,-224 667.3796,-210.95 647.0607,-199.5222 630.6824,-191.3212"/>
<polygon fill="#191970" stroke="#191970" points="632.079,-188.1085 621.5559,-186.8776 629.0147,-194.4021 632.079,-188.1085"/>
</g>
<!-- Node20 -->
<g id="node21" class="node">
<title>Node20</title>
<g id="a_node21"><a xlink:href="ieee754_8h.html" target="_top" xlink:title="ieee754.h">
<polygon fill="none" stroke="#000000" points="683,-112.5 683,-131.5 742,-131.5 742,-112.5 683,-112.5"/>
<text text-anchor="middle" x="712.5" y="-119.5" font-family="Helvetica,sans-Serif" font-size="10.00" fill="#000000">ieee754.h</text>
</a>
</g>
</g>
<!-- Node19&#45;&gt;Node20 -->
<g id="edge29" class="edge">
<title>Node19&#45;&gt;Node20</title>
<path fill="none" stroke="#191970" d="M741.5494,-280.3619C741.4571,-259.5523 740.1592,-208.9848 730.5,-168 728.3422,-158.8443 724.729,-149.0896 721.3037,-140.93"/>
<polygon fill="#191970" stroke="#191970" points="724.4306,-139.3466 717.1892,-131.6128 718.0272,-142.1744 724.4306,-139.3466"/>
</g>
<!-- Node21 -->
<g id="node22" class="node">
<title>Node21</title>
<g id="a_node22"><a xlink:href="biginteger_8h.html" target="_top" xlink:title="biginteger.h">
<polygon fill="none" stroke="#000000" points="760,-112.5 760,-131.5 827,-131.5 827,-112.5 760,-112.5"/>
<text text-anchor="middle" x="793.5" y="-119.5" font-family="Helvetica,sans-Serif" font-size="10.00" fill="#000000">biginteger.h</text>
</a>
</g>
</g>
<!-- Node19&#45;&gt;Node21 -->
<g id="edge31" class="edge">
<title>Node19&#45;&gt;Node21</title>
<path fill="none" stroke="#191970" d="M744.4447,-280.4862C752.7003,-253.8144 776.194,-177.9117 787.4039,-141.695"/>
<polygon fill="#191970" stroke="#191970" points="790.8446,-142.4157 790.458,-131.8279 784.1576,-140.3458 790.8446,-142.4157"/>
</g>
<!-- Node22 -->
<g id="node23" class="node">
<title>Node22</title>
<g id="a_node23"><a xlink:href="diyfp_8h.html" target="_top" xlink:title="diyfp.h">
<polygon fill="none" stroke="#000000" points="845.5,-224.5 845.5,-243.5 891.5,-243.5 891.5,-224.5 845.5,-224.5"/>
<text text-anchor="middle" x="868.5" y="-231.5" font-family="Helvetica,sans-Serif" font-size="10.00" fill="#000000">diyfp.h</text>
</a>
</g>
</g>
<!-- Node19&#45;&gt;Node22 -->
<g id="edge33" class="edge">
<title>Node19&#45;&gt;Node22</title>
<path fill="none" stroke="#191970" d="M763.3321,-280.3733C783.8103,-271.3435 814.6399,-257.7494 837.6319,-247.6111"/>
<polygon fill="#191970" stroke="#191970" points="839.215,-250.7383 846.9528,-243.5011 836.3907,-244.3333 839.215,-250.7383"/>
</g>
<!-- Node23 -->
<g id="node24" class="node">
<title>Node23</title>
<g id="a_node24"><a xlink:href="pow10_8h.html" target="_top" xlink:title="pow10.h">
<polygon fill="none" stroke="#000000" points="669,-168.5 669,-187.5 722,-187.5 722,-168.5 669,-168.5"/>
<text text-anchor="middle" x="695.5" y="-175.5" font-family="Helvetica,sans-Serif" font-size="10.00" fill="#000000">pow10.h</text>
</a>
</g>
</g>
<!-- Node19&#45;&gt;Node23 -->
<g id="edge37" class="edge">
<title>Node19&#45;&gt;Node23</title>
<path fill="none" stroke="#191970" d="M738.3669,-280.4891C734.0348,-267.5616 725.8057,-243.786 717.5,-224 713.6999,-214.9473 709.0633,-205.1048 705.0283,-196.8559"/>
<polygon fill="#191970" stroke="#191970" points="708.0854,-195.1428 700.5014,-187.7446 701.8165,-198.2575 708.0854,-195.1428"/>
</g>
<!-- Node24 -->
<g id="node25" class="node">
<title>Node24</title>
<polygon fill="none" stroke="#bfbfbf" points="630,-224.5 630,-243.5 675,-243.5 675,-224.5 630,-224.5"/>
<text text-anchor="middle" x="652.5" y="-231.5" font-family="Helvetica,sans-Serif" font-size="10.00" fill="#000000">climits</text>
</g>
<!-- Node19&#45;&gt;Node24 -->
<g id="edge39" class="edge">
<title>Node19&#45;&gt;Node24</title>
<path fill="none" stroke="#191970" d="M725.9974,-280.2455C712.342,-271.6534 692.2343,-259.0014 676.5011,-249.1018"/>
<polygon fill="#191970" stroke="#191970" points="678.1529,-246.006 667.825,-243.6427 674.4249,-251.9307 678.1529,-246.006"/>
</g>
<!-- Node20&#45;&gt;Node4 -->
<g id="edge30" class="edge">
<title>Node20&#45;&gt;Node4</title>
<path fill="none" stroke="#191970" d="M707.4486,-112.2455C703.4981,-104.617 697.8903,-93.7881 693.0942,-84.5267"/>
<polygon fill="#191970" stroke="#191970" points="696.2001,-82.9131 688.4935,-75.6427 689.9841,-86.1321 696.2001,-82.9131"/>
</g>
<!-- Node21&#45;&gt;Node4 -->
<g id="edge32" class="edge">
<title>Node21&#45;&gt;Node4</title>
<path fill="none" stroke="#191970" d="M774.3395,-112.2455C756.9889,-103.4125 731.2099,-90.2887 711.5417,-80.2758"/>
<polygon fill="#191970" stroke="#191970" points="712.9405,-77.0605 702.441,-75.6427 709.7647,-83.2986 712.9405,-77.0605"/>
</g>
<!-- Node22&#45;&gt;Node4 -->
<g id="edge34" class="edge">
<title>Node22&#45;&gt;Node4</title>
<path fill="none" stroke="#191970" d="M868.8354,-224.2502C869.0705,-201.3763 866.3718,-143.8025 835.5,-112 820.2188,-96.2581 765.194,-82.3111 725.7458,-74.011"/>
<polygon fill="#191970" stroke="#191970" points="726.3344,-70.5589 715.8346,-71.9744 724.9254,-77.4157 726.3344,-70.5589"/>
</g>
<!-- Node22&#45;&gt;Node10 -->
<g id="edge36" class="edge">
<title>Node22&#45;&gt;Node10</title>
<path fill="none" stroke="#191970" d="M845.2726,-229.1283C796.8622,-218.9749 685.2197,-195.5592 631.4774,-184.2874"/>
<polygon fill="#191970" stroke="#191970" points="632.0423,-180.8298 621.5368,-182.2025 630.6054,-187.6807 632.0423,-180.8298"/>
</g>
<!-- Node22&#45;&gt;Node15 -->
<g id="edge35" class="edge">
<title>Node22&#45;&gt;Node15</title>
<path fill="none" stroke="#191970" d="M877.9061,-224.2455C885.6493,-216.2155 896.812,-204.6394 906.0318,-195.0781"/>
<polygon fill="#191970" stroke="#191970" points="908.7798,-197.2706 913.2017,-187.6427 903.7409,-192.4117 908.7798,-197.2706"/>
</g>
<!-- Node23&#45;&gt;Node4 -->
<g id="edge38" class="edge">
<title>Node23&#45;&gt;Node4</title>
<path fill="none" stroke="#191970" d="M689.2417,-168.2433C683.8644,-159.2409 676.5157,-145.2951 673.5,-132 670.0151,-116.6363 673.0509,-98.9792 676.6649,-85.7964"/>
<polygon fill="#191970" stroke="#191970" points="680.107,-86.511 679.7063,-75.9237 673.4173,-84.4501 680.107,-86.511"/>
</g>
<!-- Node25&#45;&gt;Node4 -->
<g id="edge43" class="edge">
<title>Node25&#45;&gt;Node4</title>
<path fill="none" stroke="#191970" d="M969.7173,-280.4796C976.369,-259.0393 989.4951,-205.889 970.5,-168 951.8561,-130.8116 933.356,-129.2479 895.5,-112 839.9748,-86.7017 769.8207,-75.0004 725.7922,-69.8184"/>
<polygon fill="#191970" stroke="#191970" points="726.0545,-66.326 715.7277,-68.6942 725.2773,-73.2828 726.0545,-66.326"/>
</g>
<!-- Node26&#45;&gt;Node11 -->
<g id="edge46" class="edge">
<title>Node26&#45;&gt;Node11</title>
<path fill="none" stroke="#191970" d="M770.0118,-336.3799C749.2078,-327.3575 717.5136,-313.2997 690.5,-300 615.9844,-263.3135 530.0927,-215.935 488.1853,-192.4789"/>
<polygon fill="#191970" stroke="#191970" points="489.8896,-189.4219 479.4557,-187.5824 486.4652,-195.5271 489.8896,-189.4219"/>
</g>
<!-- Node27 -->
<g id="node28" class="node">
<title>Node27</title>
<polygon fill="none" stroke="#bfbfbf" points="866.5,-280.5 866.5,-299.5 914.5,-299.5 914.5,-280.5 866.5,-280.5"/>
<text text-anchor="middle" x="890.5" y="-287.5" font-family="Helvetica,sans-Serif" font-size="10.00" fill="#000000">cwchar</text>
</g>
<!-- Node26&#45;&gt;Node27 -->
<g id="edge47" class="edge">
<title>Node26&#45;&gt;Node27</title>
<path fill="none" stroke="#191970" d="M809.5703,-336.2455C824.747,-327.5731 847.1621,-314.7645 864.5563,-304.825"/>
<polygon fill="#191970" stroke="#191970" points="866.6794,-307.643 873.6253,-299.6427 863.2064,-301.5653 866.6794,-307.643"/>
</g>
<!-- Node30&#45;&gt;Node1 -->
<g id="edge54" class="edge">
<title>Node30&#45;&gt;Node1</title>
<path fill="none" stroke="#191970" d="M733.8084,-448.3733C712.4289,-439.3032 680.1943,-425.6279 656.2638,-415.4755"/>
<polygon fill="#191970" stroke="#191970" points="657.4683,-412.1846 646.8955,-411.5011 654.7344,-418.6287 657.4683,-412.1846"/>
</g>
<!-- Node30&#45;&gt;Node25 -->
<g id="edge59" class="edge">
<title>Node30&#45;&gt;Node25</title>
<path fill="none" stroke="#191970" d="M768.3922,-448.4862C802.891,-420.8872 903.2811,-340.5751 946.4179,-306.0657"/>
<polygon fill="#191970" stroke="#191970" points="948.8557,-308.5977 954.4779,-299.6177 944.4828,-303.1316 948.8557,-308.5977"/>
</g>
<!-- Node30&#45;&gt;Node31 -->
<g id="edge55" class="edge">
<title>Node30&#45;&gt;Node31</title>
<path fill="none" stroke="#191970" d="M756.5,-448.2455C756.5,-440.9382 756.5,-430.6944 756.5,-421.7046"/>
<polygon fill="#191970" stroke="#191970" points="760.0001,-421.6426 756.5,-411.6427 753.0001,-421.6427 760.0001,-421.6426"/>
</g>
<!-- Node32 -->
<g id="node33" class="node">
<title>Node32</title>
<g id="a_node33"><a xlink:href="itoa_8h.html" target="_top" xlink:title="internal/itoa.h">
<polygon fill="none" stroke="#000000" points="1018,-112.5 1018,-131.5 1093,-131.5 1093,-112.5 1018,-112.5"/>
<text text-anchor="middle" x="1055.5" y="-119.5" font-family="Helvetica,sans-Serif" font-size="10.00" fill="#000000">internal/itoa.h</text>
</a>
</g>
</g>
<!-- Node30&#45;&gt;Node32 -->
<g id="edge57" class="edge">
<title>Node30&#45;&gt;Node32</title>
<path fill="none" stroke="#191970" d="M783.569,-450.359C854.7098,-429.896 1041.5,-373.5449 1041.5,-346 1041.5,-346 1041.5,-346 1041.5,-234 1041.5,-201.311 1047.4446,-163.6669 1051.5866,-141.4058"/>
<polygon fill="#191970" stroke="#191970" points="1055.0324,-142.0207 1053.4941,-131.5381 1048.1597,-140.692 1055.0324,-142.0207"/>
</g>
<!-- Node31&#45;&gt;Node26 -->
<g id="edge56" class="edge">
<title>Node31&#45;&gt;Node26</title>
<path fill="none" stroke="#191970" d="M762.7707,-392.2455C767.7264,-384.5367 774.783,-373.5598 780.7776,-364.2348"/>
<polygon fill="#191970" stroke="#191970" points="783.8376,-365.9471 786.3011,-355.6427 777.9494,-362.1618 783.8376,-365.9471"/>
</g>
<!-- Node32&#45;&gt;Node4 -->
<g id="edge58" class="edge">
<title>Node32&#45;&gt;Node4</title>
<path fill="none" stroke="#191970" d="M1017.7641,-114.5263C1012.9691,-113.6405 1008.1238,-112.7765 1003.5,-112 904.345,-95.3487 787.2687,-79.4769 725.9037,-71.4471"/>
<polygon fill="#191970" stroke="#191970" points="726.1958,-67.9556 715.8272,-70.1336 725.2909,-74.8969 726.1958,-67.9556"/>
</g>
<!-- Node33&#45;&gt;Node11 -->
<g id="edge61" class="edge">
<title>Node33&#45;&gt;Node11</title>
<path fill="none" stroke="#191970" d="M183.6128,-336.3366C205.496,-313.6495 263.5813,-256.4502 322.5,-224 355.1755,-206.0036 396.0459,-193.5848 425.1761,-186.2282"/>
<polygon fill="#191970" stroke="#191970" points="426.0752,-189.6115 434.9576,-183.8363 424.4124,-182.8119 426.0752,-189.6115"/>
</g>
<!-- Node33&#45;&gt;Node16 -->
<g id="edge62" class="edge">
<title>Node33&#45;&gt;Node16</title>
<path fill="none" stroke="#191970" d="M151.6365,-336.3733C130.095,-327.3032 97.6162,-313.6279 73.5044,-303.4755"/>
<polygon fill="#191970" stroke="#191970" points="74.6397,-300.156 64.0652,-299.5011 71.9233,-306.6075 74.6397,-300.156"/>
</g>
<!-- Node34&#45;&gt;Node25 -->
<g id="edge64" class="edge">
<title>Node34&#45;&gt;Node25</title>
<path fill="none" stroke="#191970" d="M848.0705,-448.407C862.1219,-440.1116 881.6887,-427.0958 895.5,-412 924.578,-380.2175 947.1987,-334.5608 958.5201,-309.0681"/>
<polygon fill="#191970" stroke="#191970" points="961.7849,-310.3361 962.5434,-299.7685 955.3604,-307.5566 961.7849,-310.3361"/>
</g>
<!-- Node36&#45;&gt;Node3 -->
<g id="edge68" class="edge">
<title>Node36&#45;&gt;Node3</title>
<path fill="none" stroke="#191970" d="M81.2514,-336.4509C88.4927,-318.0186 104.5186,-277.2254 114.0188,-253.043"/>
<polygon fill="#191970" stroke="#191970" points="117.3591,-254.1122 117.7581,-243.5249 110.8439,-251.5526 117.3591,-254.1122"/>
</g>
<!-- Node36&#45;&gt;Node11 -->
<g id="edge69" class="edge">
<title>Node36&#45;&gt;Node11</title>
<path fill="none" stroke="#191970" d="M91.0815,-336.345C123.539,-313.6759 208.778,-256.5128 287.5,-224 333.0857,-205.1727 388.5786,-192.1369 424.6809,-184.8702"/>
<polygon fill="#191970" stroke="#191970" points="425.6393,-188.2489 434.7771,-182.8869 424.2899,-181.3802 425.6393,-188.2489"/>
</g>
<!-- Node36&#45;&gt;Node16 -->
<g id="edge70" class="edge">
<title>Node36&#45;&gt;Node16</title>
<path fill="none" stroke="#191970" d="M71.2293,-336.2455C66.2736,-328.5367 59.217,-317.5598 53.2224,-308.2348"/>
<polygon fill="#191970" stroke="#191970" points="56.0506,-306.1618 47.6989,-299.6427 50.1624,-309.9471 56.0506,-306.1618"/>
</g>
</g>
</svg>
        <g id="navigator" transform="translate(0 0)" fill="#404254">
                <rect fill="#f2f5e9" fill-opacity="0.5" stroke="#606060" stroke-width=".5" x="0" y="0" width="60" height="60"/>
                <use id="zoomplus" xlink:href="#zoomPlus" x="17" y="9" onmousedown="handleZoom(evt,'in')"/>
                <use id="zoomminus" xlink:href="#zoomMin" x="42" y="9" onmousedown="handleZoom(evt,'out')"/>
                <use id="reset" xlink:href="#resetDef" x="30" y="36" onmousedown="handleReset()"/>
                <g id="arrowUp" xlink:href="#dirArrow" transform="translate(30 24)" onmousedown="handlePan(0,-1)">
                  <use xlink:href="#rim" fill="#404040">
                        <set attributeName="fill" to="#808080" begin="arrowUp.mouseover" end="arrowUp.mouseout"/>
                  </use>
                  <path fill="none" stroke="white" stroke-width="1.5" d="M0,-3.0v7 M-2.5,-0.5L0,-3.0L2.5,-0.5"/>
                </g>
                <g id="arrowRight" xlink:href="#dirArrow" transform="rotate(90) translate(36 -43)" onmousedown="handlePan(1,0)">
                  <use xlink:href="#rim" fill="#404040">
                        <set attributeName="fill" to="#808080" begin="arrowRight.mouseover" end="arrowRight.mouseout"/>
                  </use>
                  <path fill="none" stroke="white" stroke-width="1.5" d="M0,-3.0v7 M-2.5,-0.5L0,-3.0L2.5,-0.5"/>
                </g>
                <g id="arrowDown" xlink:href="#dirArrow" transform="rotate(180) translate(-30 -48)" onmousedown="handlePan(0,1)">
                  <use xlink:href="#rim" fill="#404040">
                        <set attributeName="fill" to="#808080" begin="arrowDown.mouseover" end="arrowDown.mouseout"/>
                  </use>
                  <path fill="none" stroke="white" stroke-width="1.5" d="M0,-3.0v7 M-2.5,-0.5L0,-3.0L2.5,-0.5"/>
                </g>
                <g id="arrowLeft" xlink:href="#dirArrow" transform="rotate(270) translate(-36 17)" onmousedown="handlePan(-1,0)">
                  <use xlink:href="#rim" fill="#404040">
                        <set attributeName="fill" to="#808080" begin="arrowLeft.mouseover" end="arrowLeft.mouseout"/>
                  </use>
                  <path fill="none" stroke="white" stroke-width="1.5" d="M0,-3.0v7 M-2.5,-0.5L0,-3.0L2.5,-0.5"/>
                </g>
        </g>
        <svg viewBox="0 0 15 15" width="100%" height="30px" preserveAspectRatio="xMaxYMin meet">
         <g id="arrow_out" transform="scale(0.3 0.3)">
          <a xlink:href="schema_8h__incl_org.svg" target="_base">
           <rect id="button" ry="5" rx="5" y="6" x="6" height="38" width="38"
                fill="#f2f5e9" fill-opacity="0.5" stroke="#606060" stroke-width="1.0"/>
           <path id="arrow"
             d="M 11.500037,31.436501 C 11.940474,20.09759 22.043105,11.32322 32.158766,21.979434 L 37.068811,17.246167 C 37.068811,17.246167 37.088388,32 37.088388,32 L 22.160133,31.978069 C 22.160133,31.978069 26.997745,27.140456 26.997745,27.140456 C 18.528582,18.264221 13.291696,25.230495 11.500037,31.436501 z"
             style="fill:#404040;"/>
          </a>
         </g>
        </svg>
</svg>
