<?xml version="1.0" encoding="UTF-8" standalone="no"?>
<!DOCTYPE svg PUBLIC "-//W3C//DTD SVG 1.1//EN"
 "http://www.w3.org/Graphics/SVG/1.1/DTD/svg11.dtd">
<!-- Generated by graphviz version 2.40.1 (20161225.0304)
 -->
<!-- Title: /mnt/hdd/fnky/C0de/CAPSTONE/clean_build/include/Actors/Shader_Actor.h Pages: 1 -->
<svg width="1904pt" height="150pt"
 viewBox="0.00 0.00 1904.00 150.00" xmlns="http://www.w3.org/2000/svg" xmlns:xlink="http://www.w3.org/1999/xlink">
<g id="graph0" class="graph" transform="scale(1 1) rotate(0) translate(4 146)">
<title>/mnt/hdd/fnky/C0de/CAPSTONE/clean_build/include/Actors/Shader_Actor.h</title>
<!-- Node7 -->
<g id="node1" class="node">
<title>Node7</title>
<polygon fill="#bfbfbf" stroke="#000000" points="889,-89.5 889,-141.5 1016,-141.5 1016,-89.5 889,-89.5"/>
<text text-anchor="start" x="897" y="-129.5" font-family="Helvetica,sans-Serif" font-size="10.00" fill="#000000">/mnt/hdd/fnky/C0de</text>
<text text-anchor="start" x="897" y="-118.5" font-family="Helvetica,sans-Serif" font-size="10.00" fill="#000000">/CAPSTONE/clean_build</text>
<text text-anchor="start" x="897" y="-107.5" font-family="Helvetica,sans-Serif" font-size="10.00" fill="#000000">/include/Actors/Shader</text>
<text text-anchor="middle" x="952.5" y="-96.5" font-family="Helvetica,sans-Serif" font-size="10.00" fill="#000000">_Actor.h</text>
</g>
<!-- Node8 -->
<g id="node2" class="node">
<title>Node8</title>
<g id="a_node2"><a xlink:href="Animate__Actor_8cpp.html" target="_top" xlink:title="/mnt/hdd/fnky/C0de\l/CAPSTONE/clean_build\l/src/Actors/Animate_Actor.cpp">
<polygon fill="none" stroke="#000000" points="0,-6 0,-47 151,-47 151,-6 0,-6"/>
<text text-anchor="start" x="8" y="-35" font-family="Helvetica,sans-Serif" font-size="10.00" fill="#000000">/mnt/hdd/fnky/C0de</text>
<text text-anchor="start" x="8" y="-24" font-family="Helvetica,sans-Serif" font-size="10.00" fill="#000000">/CAPSTONE/clean_build</text>
<text text-anchor="middle" x="75.5" y="-13" font-family="Helvetica,sans-Serif" font-size="10.00" fill="#000000">/src/Actors/Animate_Actor.cpp</text>
</a>
</g>
</g>
<!-- Node7&#45;&gt;Node8 -->
<g id="edge1" class="edge">
<title>Node7&#45;&gt;Node8</title>
<path fill="none" stroke="#191970" d="M878.6714,-111.7866C709.3085,-102.9257 296.9543,-79.3112 160.5,-53 152.3039,-51.4196 143.7835,-49.3269 135.4403,-47.0082"/>
<polygon fill="#191970" stroke="#191970" points="878.5737,-115.2861 888.7423,-112.311 878.9379,-108.2956 878.5737,-115.2861"/>
</g>
<!-- Node9 -->
<g id="node3" class="node">
<title>Node9</title>
<g id="a_node3"><a xlink:href="Animated__Player__Actor_8cpp.html" target="_top" xlink:title="/mnt/hdd/fnky/C0de\l/CAPSTONE/clean_build\l/src/Actors/Animated_Player\l_Actor.cpp">
<polygon fill="none" stroke="#000000" points="169.5,-.5 169.5,-52.5 311.5,-52.5 311.5,-.5 169.5,-.5"/>
<text text-anchor="start" x="177.5" y="-40.5" font-family="Helvetica,sans-Serif" font-size="10.00" fill="#000000">/mnt/hdd/fnky/C0de</text>
<text text-anchor="start" x="177.5" y="-29.5" font-family="Helvetica,sans-Serif" font-size="10.00" fill="#000000">/CAPSTONE/clean_build</text>
<text text-anchor="start" x="177.5" y="-18.5" font-family="Helvetica,sans-Serif" font-size="10.00" fill="#000000">/src/Actors/Animated_Player</text>
<text text-anchor="middle" x="240.5" y="-7.5" font-family="Helvetica,sans-Serif" font-size="10.00" fill="#000000">_Actor.cpp</text>
</a>
</g>
</g>
<!-- Node7&#45;&gt;Node9 -->
<g id="edge2" class="edge">
<title>Node7&#45;&gt;Node9</title>
<path fill="none" stroke="#191970" d="M878.9354,-113.4933C760.2335,-109.0825 519.6173,-95.2787 320.5,-53 317.6376,-52.3922 314.7342,-51.7177 311.8136,-50.9905"/>
<polygon fill="#191970" stroke="#191970" points="878.8802,-116.9935 888.9996,-113.8556 879.132,-109.9981 878.8802,-116.9935"/>
</g>
<!-- Node10 -->
<g id="node4" class="node">
<title>Node10</title>
<g id="a_node4"><a xlink:href="Edge__Actor_8cpp.html" target="_top" xlink:title="/mnt/hdd/fnky/C0de\l/CAPSTONE/clean_build\l/src/Actors/Edge_Actor.cpp">
<polygon fill="none" stroke="#000000" points="330,-6 330,-47 467,-47 467,-6 330,-6"/>
<text text-anchor="start" x="338" y="-35" font-family="Helvetica,sans-Serif" font-size="10.00" fill="#000000">/mnt/hdd/fnky/C0de</text>
<text text-anchor="start" x="338" y="-24" font-family="Helvetica,sans-Serif" font-size="10.00" fill="#000000">/CAPSTONE/clean_build</text>
<text text-anchor="middle" x="398.5" y="-13" font-family="Helvetica,sans-Serif" font-size="10.00" fill="#000000">/src/Actors/Edge_Actor.cpp</text>
</a>
</g>
</g>
<!-- Node7&#45;&gt;Node10 -->
<g id="edge3" class="edge">
<title>Node7&#45;&gt;Node10</title>
<path fill="none" stroke="#191970" d="M878.8616,-110.4704C784.4427,-102.9718 616.1144,-86.0533 475.5,-53 468.4811,-51.3501 461.2029,-49.3059 454.0471,-47.0899"/>
<polygon fill="#191970" stroke="#191970" points="878.6413,-113.9638 888.8834,-111.2529 879.1862,-106.985 878.6413,-113.9638"/>
</g>
<!-- Node11 -->
<g id="node5" class="node">
<title>Node11</title>
<g id="a_node5"><a xlink:href="Gun__Actor_8cpp.html" target="_top" xlink:title="/mnt/hdd/fnky/C0de\l/CAPSTONE/clean_build\l/src/Actors/Gun_Actor.cpp">
<polygon fill="none" stroke="#000000" points="485,-6 485,-47 618,-47 618,-6 485,-6"/>
<text text-anchor="start" x="493" y="-35" font-family="Helvetica,sans-Serif" font-size="10.00" fill="#000000">/mnt/hdd/fnky/C0de</text>
<text text-anchor="start" x="493" y="-24" font-family="Helvetica,sans-Serif" font-size="10.00" fill="#000000">/CAPSTONE/clean_build</text>
<text text-anchor="middle" x="551.5" y="-13" font-family="Helvetica,sans-Serif" font-size="10.00" fill="#000000">/src/Actors/Gun_Actor.cpp</text>
</a>
</g>
</g>
<!-- Node7&#45;&gt;Node11 -->
<g id="edge4" class="edge">
<title>Node7&#45;&gt;Node11</title>
<path fill="none" stroke="#191970" d="M878.7766,-104.6117C812.2287,-94.0179 711.9455,-76.1453 626.5,-53 620.1019,-51.2669 613.4664,-49.2521 606.9074,-47.1221"/>
<polygon fill="#191970" stroke="#191970" points="878.3287,-108.0842 888.7519,-106.1854 879.4195,-101.1697 878.3287,-108.0842"/>
</g>
<!-- Node12 -->
<g id="node6" class="node">
<title>Node12</title>
<g id="a_node6"><a xlink:href="NPC__Actor_8cpp.html" target="_top" xlink:title="/mnt/hdd/fnky/C0de\l/CAPSTONE/clean_build\l/src/Actors/NPC_Actor.cpp">
<polygon fill="none" stroke="#000000" points="636,-6 636,-47 773,-47 773,-6 636,-6"/>
<text text-anchor="start" x="644" y="-35" font-family="Helvetica,sans-Serif" font-size="10.00" fill="#000000">/mnt/hdd/fnky/C0de</text>
<text text-anchor="start" x="644" y="-24" font-family="Helvetica,sans-Serif" font-size="10.00" fill="#000000">/CAPSTONE/clean_build</text>
<text text-anchor="middle" x="704.5" y="-13" font-family="Helvetica,sans-Serif" font-size="10.00" fill="#000000">/src/Actors/NPC_Actor.cpp</text>
</a>
</g>
</g>
<!-- Node7&#45;&gt;Node12 -->
<g id="edge5" class="edge">
<title>Node7&#45;&gt;Node12</title>
<path fill="none" stroke="#191970" d="M879.1113,-89.1629C841.6795,-75.7298 796.82,-59.631 761.9433,-47.1147"/>
<polygon fill="#191970" stroke="#191970" points="878.3614,-92.6123 888.9559,-92.6959 880.7259,-86.0237 878.3614,-92.6123"/>
</g>
<!-- Node13 -->
<g id="node7" class="node">
<title>Node13</title>
<g id="a_node7"><a xlink:href="PickUps__Actor_8cpp.html" target="_top" xlink:title="/mnt/hdd/fnky/C0de\l/CAPSTONE/clean_build\l/src/Actors/PickUps_Actor.cpp">
<polygon fill="none" stroke="#000000" points="791.5,-6 791.5,-47 943.5,-47 943.5,-6 791.5,-6"/>
<text text-anchor="start" x="799.5" y="-35" font-family="Helvetica,sans-Serif" font-size="10.00" fill="#000000">/mnt/hdd/fnky/C0de</text>
<text text-anchor="start" x="799.5" y="-24" font-family="Helvetica,sans-Serif" font-size="10.00" fill="#000000">/CAPSTONE/clean_build</text>
<text text-anchor="middle" x="867.5" y="-13" font-family="Helvetica,sans-Serif" font-size="10.00" fill="#000000">/src/Actors/PickUps_Actor.cpp</text>
</a>
</g>
</g>
<!-- Node7&#45;&gt;Node13 -->
<g id="edge6" class="edge">
<title>Node7&#45;&gt;Node13</title>
<path fill="none" stroke="#191970" d="M920.3265,-81.8125C909.2029,-70.1654 897.0747,-57.4665 887.2478,-47.1771"/>
<polygon fill="#191970" stroke="#191970" points="918.0191,-84.464 927.4569,-89.2784 923.0813,-79.6293 918.0191,-84.464"/>
</g>
<!-- Node14 -->
<g id="node8" class="node">
<title>Node14</title>
<g id="a_node8"><a xlink:href="Platform__Actor_8cpp.html" target="_top" xlink:title="/mnt/hdd/fnky/C0de\l/CAPSTONE/clean_build\l/src/Actors/Platform_Actor.cpp">
<polygon fill="none" stroke="#000000" points="961.5,-6 961.5,-47 1113.5,-47 1113.5,-6 961.5,-6"/>
<text text-anchor="start" x="969.5" y="-35" font-family="Helvetica,sans-Serif" font-size="10.00" fill="#000000">/mnt/hdd/fnky/C0de</text>
<text text-anchor="start" x="969.5" y="-24" font-family="Helvetica,sans-Serif" font-size="10.00" fill="#000000">/CAPSTONE/clean_build</text>
<text text-anchor="middle" x="1037.5" y="-13" font-family="Helvetica,sans-Serif" font-size="10.00" fill="#000000">/src/Actors/Platform_Actor.cpp</text>
</a>
</g>
</g>
<!-- Node7&#45;&gt;Node14 -->
<g id="edge7" class="edge">
<title>Node7&#45;&gt;Node14</title>
<path fill="none" stroke="#191970" d="M984.6735,-81.8125C995.7971,-70.1654 1007.9253,-57.4665 1017.7522,-47.1771"/>
<polygon fill="#191970" stroke="#191970" points="981.9187,-79.6293 977.5431,-89.2784 986.9809,-84.464 981.9187,-79.6293"/>
</g>
<!-- Node15 -->
<g id="node9" class="node">
<title>Node15</title>
<g id="a_node9"><a xlink:href="Player__Actor_8cpp.html" target="_top" xlink:title="/mnt/hdd/fnky/C0de\l/CAPSTONE/clean_build\l/src/Actors/Player_Actor.cpp">
<polygon fill="none" stroke="#000000" points="1132,-6 1132,-47 1275,-47 1275,-6 1132,-6"/>
<text text-anchor="start" x="1140" y="-35" font-family="Helvetica,sans-Serif" font-size="10.00" fill="#000000">/mnt/hdd/fnky/C0de</text>
<text text-anchor="start" x="1140" y="-24" font-family="Helvetica,sans-Serif" font-size="10.00" fill="#000000">/CAPSTONE/clean_build</text>
<text text-anchor="middle" x="1203.5" y="-13" font-family="Helvetica,sans-Serif" font-size="10.00" fill="#000000">/src/Actors/Player_Actor.cpp</text>
</a>
</g>
</g>
<!-- Node7&#45;&gt;Node15 -->
<g id="edge8" class="edge">
<title>Node7&#45;&gt;Node15</title>
<path fill="none" stroke="#191970" d="M1025.6807,-89.5515C1063.8289,-76.0248 1109.8331,-59.7126 1145.4907,-47.069"/>
<polygon fill="#191970" stroke="#191970" points="1024.4177,-86.2857 1016.1624,-92.9265 1026.7571,-92.8832 1024.4177,-86.2857"/>
</g>
<!-- Node16 -->
<g id="node10" class="node">
<title>Node16</title>
<g id="a_node10"><a xlink:href="Projectile__Actor_8cpp.html" target="_top" xlink:title="/mnt/hdd/fnky/C0de\l/CAPSTONE/clean_build\l/src/Actors/Projectile\l_Actor.cpp">
<polygon fill="none" stroke="#000000" points="1293,-.5 1293,-52.5 1420,-52.5 1420,-.5 1293,-.5"/>
<text text-anchor="start" x="1301" y="-40.5" font-family="Helvetica,sans-Serif" font-size="10.00" fill="#000000">/mnt/hdd/fnky/C0de</text>
<text text-anchor="start" x="1301" y="-29.5" font-family="Helvetica,sans-Serif" font-size="10.00" fill="#000000">/CAPSTONE/clean_build</text>
<text text-anchor="start" x="1301" y="-18.5" font-family="Helvetica,sans-Serif" font-size="10.00" fill="#000000">/src/Actors/Projectile</text>
<text text-anchor="middle" x="1356.5" y="-7.5" font-family="Helvetica,sans-Serif" font-size="10.00" fill="#000000">_Actor.cpp</text>
</a>
</g>
</g>
<!-- Node7&#45;&gt;Node16 -->
<g id="edge9" class="edge">
<title>Node7&#45;&gt;Node16</title>
<path fill="none" stroke="#191970" d="M1026.4061,-105.2018C1094.2235,-94.9022 1197.1145,-77.1256 1284.5,-53 1287.1963,-52.2556 1289.9347,-51.455 1292.6902,-50.6125"/>
<polygon fill="#191970" stroke="#191970" points="1025.6148,-101.7813 1016.246,-106.7287 1026.6552,-108.7036 1025.6148,-101.7813"/>
</g>
<!-- Node17 -->
<g id="node11" class="node">
<title>Node17</title>
<g id="a_node11"><a xlink:href="Shader__Actor_8cpp.html" target="_top" xlink:title="/mnt/hdd/fnky/C0de\l/CAPSTONE/clean_build\l/src/Actors/Shader_Actor.cpp">
<polygon fill="none" stroke="#000000" points="1438.5,-6 1438.5,-47 1584.5,-47 1584.5,-6 1438.5,-6"/>
<text text-anchor="start" x="1446.5" y="-35" font-family="Helvetica,sans-Serif" font-size="10.00" fill="#000000">/mnt/hdd/fnky/C0de</text>
<text text-anchor="start" x="1446.5" y="-24" font-family="Helvetica,sans-Serif" font-size="10.00" fill="#000000">/CAPSTONE/clean_build</text>
<text text-anchor="middle" x="1511.5" y="-13" font-family="Helvetica,sans-Serif" font-size="10.00" fill="#000000">/src/Actors/Shader_Actor.cpp</text>
</a>
</g>
</g>
<!-- Node7&#45;&gt;Node17 -->
<g id="edge10" class="edge">
<title>Node7&#45;&gt;Node17</title>
<path fill="none" stroke="#191970" d="M1026.0418,-110.0508C1120.3589,-102.1095 1288.5798,-84.7243 1429.5,-53 1436.9438,-51.3242 1444.6762,-49.2644 1452.2867,-47.0401"/>
<polygon fill="#191970" stroke="#191970" points="1025.7074,-106.5664 1016.0311,-110.8815 1026.2864,-113.5424 1025.7074,-106.5664"/>
</g>
<!-- Node18 -->
<g id="node12" class="node">
<title>Node18</title>
<g id="a_node12"><a xlink:href="Texture__Actor_8cpp.html" target="_top" xlink:title="/mnt/hdd/fnky/C0de\l/CAPSTONE/clean_build\l/src/Actors/Texture_Actor.cpp">
<polygon fill="none" stroke="#000000" points="1602.5,-6 1602.5,-47 1750.5,-47 1750.5,-6 1602.5,-6"/>
<text text-anchor="start" x="1610.5" y="-35" font-family="Helvetica,sans-Serif" font-size="10.00" fill="#000000">/mnt/hdd/fnky/C0de</text>
<text text-anchor="start" x="1610.5" y="-24" font-family="Helvetica,sans-Serif" font-size="10.00" fill="#000000">/CAPSTONE/clean_build</text>
<text text-anchor="middle" x="1676.5" y="-13" font-family="Helvetica,sans-Serif" font-size="10.00" fill="#000000">/src/Actors/Texture_Actor.cpp</text>
</a>
</g>
</g>
<!-- Node7&#45;&gt;Node18 -->
<g id="edge11" class="edge">
<title>Node7&#45;&gt;Node18</title>
<path fill="none" stroke="#191970" d="M1026.5841,-113.3631C1146.7339,-108.7646 1391.0506,-94.6969 1593.5,-53 1601.3521,-51.3828 1609.5106,-49.2993 1617.5119,-47.012"/>
<polygon fill="#191970" stroke="#191970" points="1026.2622,-109.8725 1016.3991,-113.7415 1026.5222,-116.8677 1026.2622,-109.8725"/>
</g>
<!-- Node19 -->
<g id="node13" class="node">
<title>Node19</title>
<g id="a_node13"><a xlink:href="game__play__state_8cpp.html" target="_top" xlink:title="/mnt/hdd/fnky/C0de\l/CAPSTONE/clean_build\l/src/States/game_play\l_state.cpp">
<polygon fill="none" stroke="#000000" points="1769,-.5 1769,-52.5 1896,-52.5 1896,-.5 1769,-.5"/>
<text text-anchor="start" x="1777" y="-40.5" font-family="Helvetica,sans-Serif" font-size="10.00" fill="#000000">/mnt/hdd/fnky/C0de</text>
<text text-anchor="start" x="1777" y="-29.5" font-family="Helvetica,sans-Serif" font-size="10.00" fill="#000000">/CAPSTONE/clean_build</text>
<text text-anchor="start" x="1777" y="-18.5" font-family="Helvetica,sans-Serif" font-size="10.00" fill="#000000">/src/States/game_play</text>
<text text-anchor="middle" x="1832.5" y="-7.5" font-family="Helvetica,sans-Serif" font-size="10.00" fill="#000000">_state.cpp</text>
</a>
</g>
</g>
<!-- Node7&#45;&gt;Node19 -->
<g id="edge12" class="edge">
<title>Node7&#45;&gt;Node19</title>
<path fill="none" stroke="#191970" d="M1026.2464,-112.3448C1198.0139,-104.5828 1620.6881,-82.987 1759.5,-53 1762.5311,-52.3452 1765.6069,-51.5941 1768.6947,-50.7694"/>
<polygon fill="#191970" stroke="#191970" points="1025.8712,-108.858 1016.0382,-112.8031 1026.1852,-115.851 1025.8712,-108.858"/>
</g>
</g>
</svg>
