<?xml version="1.0" encoding="UTF-8" standalone="no"?>
<!DOCTYPE svg PUBLIC "-//W3C//DTD SVG 1.1//EN"
 "http://www.w3.org/Graphics/SVG/1.1/DTD/svg11.dtd">
<!-- Generated by graphviz version 2.40.1 (20161225.0304)
 -->
<!-- Title: /mnt/hdd/fnky/C0de/CAPSTONE/clean_build/src/Actors/Shader_Actor.cpp Pages: 1 -->
<!--zoomable 285 -->
<svg id="main" version="1.1" xmlns="http://www.w3.org/2000/svg" xmlns:xlink="http://www.w3.org/1999/xlink" xml:space="preserve" onload="init(evt)">
<style type="text/css"><![CDATA[
.edge:hover path { stroke: red; }
.edge:hover polygon { stroke: red; fill: red; }
]]></style>
<script type="text/javascript"><![CDATA[
var edges = document.getElementsByTagName('g');
if (edges && edges.length) {
  for (var i=0;i<edges.length;i++) {
    if (edges[i].id.substr(0,4)=='edge') {
      edges[i].setAttribute('class','edge');
    }
  }
}
]]></script>
        <defs>
                <circle id="rim" cx="0" cy="0" r="7"/>
                <circle id="rim2" cx="0" cy="0" r="3.5"/>
                <g id="zoomPlus">
                        <use xlink:href="#rim" fill="#404040">
                                <set attributeName="fill" to="#808080" begin="zoomplus.mouseover" end="zoomplus.mouseout"/>
                        </use>
                        <path d="M-4,0h8M0,-4v8" fill="none" stroke="white" stroke-width="1.5" pointer-events="none"/>
                </g>
                <g id="zoomMin">
                        <use xlink:href="#rim" fill="#404040">
                                <set attributeName="fill" to="#808080" begin="zoomminus.mouseover" end="zoomminus.mouseout"/>
                        </use>
                        <path d="M-4,0h8" fill="none" stroke="white" stroke-width="1.5" pointer-events="none"/>
                </g>
                <g id="dirArrow">
                        <path fill="none" stroke="white" stroke-width="1.5" d="M0,-3.0v7 M-2.5,-0.5L0,-3.0L2.5,-0.5"/>
                </g>
               <g id="resetDef">
                       <use xlink:href="#rim2" fill="#404040">
                               <set attributeName="fill" to="#808080" begin="reset.mouseover" end="reset.mouseout"/>
                       </use>
               </g>
        </defs>

<script type="text/javascript">
var viewWidth = 677;
var viewHeight = 285;
var sectionId = 'dynsection-0';
</script>
<script xlink:href="svgpan.js"/>
<svg id="graph" class="graph">
<g id="viewport">
<title>/mnt/hdd/fnky/C0de/CAPSTONE/clean_build/src/Actors/Shader_Actor.cpp</title>
<!-- Node0 -->
<g id="node1" class="node">
<title>Node0</title>
<polygon fill="#bfbfbf" stroke="#000000" points="254.0111,-235.5 254.0111,-276.5 400.0111,-276.5 400.0111,-235.5 254.0111,-235.5"/>
<text text-anchor="start" x="262.0111" y="-264.5" font-family="Helvetica,sans-Serif" font-size="10.00" fill="#000000">/mnt/hdd/fnky/C0de</text>
<text text-anchor="start" x="262.0111" y="-253.5" font-family="Helvetica,sans-Serif" font-size="10.00" fill="#000000">/CAPSTONE/clean_build</text>
<text text-anchor="middle" x="327.0111" y="-242.5" font-family="Helvetica,sans-Serif" font-size="10.00" fill="#000000">/src/Actors/Shader_Actor.cpp</text>
</g>
<!-- Node1 -->
<g id="node2" class="node">
<title>Node1</title>
<g id="a_node2"><a xlink:href="Shader__Actor_8h.html" target="_top" xlink:title="../../include/Actors\l/Shader_Actor.h">
<polygon fill="none" stroke="#000000" points="95.5111,-168.5 95.5111,-198.5 192.5111,-198.5 192.5111,-168.5 95.5111,-168.5"/>
<text text-anchor="start" x="103.5111" y="-186.5" font-family="Helvetica,sans-Serif" font-size="10.00" fill="#000000">../../include/Actors</text>
<text text-anchor="middle" x="144.0111" y="-175.5" font-family="Helvetica,sans-Serif" font-size="10.00" fill="#000000">/Shader_Actor.h</text>
</a>
</g>
</g>
<!-- Node0&#45;&gt;Node1 -->
<g id="edge1" class="edge">
<title>Node0&#45;&gt;Node1</title>
<path fill="none" stroke="#191970" d="M275.0601,-235.4183C248.8244,-225.0244 217.2169,-212.5023 191.6169,-202.3602"/>
<polygon fill="#191970" stroke="#191970" points="192.7095,-199.0285 182.1233,-198.5991 190.1312,-205.5363 192.7095,-199.0285"/>
</g>
<!-- Node3 -->
<g id="node4" class="node">
<title>Node3</title>
<polygon fill="none" stroke="#bfbfbf" points="201.0111,-.5 201.0111,-19.5 253.0111,-19.5 253.0111,-.5 201.0111,-.5"/>
<text text-anchor="middle" x="227.0111" y="-7.5" font-family="Helvetica,sans-Serif" font-size="10.00" fill="#000000">memory</text>
</g>
<!-- Node0&#45;&gt;Node3 -->
<g id="edge15" class="edge">
<title>Node0&#45;&gt;Node3</title>
<path fill="none" stroke="#191970" d="M330.7107,-235.2969C336.4601,-196.6251 343.4091,-112.2501 307.0111,-56 296.6796,-40.0334 278.7289,-28.9836 262.4462,-21.7238"/>
<polygon fill="#191970" stroke="#191970" points="263.7013,-18.4555 253.1221,-17.8787 261.0326,-24.9268 263.7013,-18.4555"/>
</g>
<!-- Node8 -->
<g id="node9" class="node">
<title>Node8</title>
<g id="a_node9"><a xlink:href="ShaderComponent_8h.html" target="_top" xlink:title="../../include/Components\l/ShaderComponent.h">
<polygon fill="none" stroke="#000000" points="363.0111,-168.5 363.0111,-198.5 487.0111,-198.5 487.0111,-168.5 363.0111,-168.5"/>
<text text-anchor="start" x="371.0111" y="-186.5" font-family="Helvetica,sans-Serif" font-size="10.00" fill="#000000">../../include/Components</text>
<text text-anchor="middle" x="425.0111" y="-175.5" font-family="Helvetica,sans-Serif" font-size="10.00" fill="#000000">/ShaderComponent.h</text>
</a>
</g>
</g>
<!-- Node0&#45;&gt;Node8 -->
<g id="edge10" class="edge">
<title>Node0&#45;&gt;Node8</title>
<path fill="none" stroke="#191970" d="M354.8318,-235.4183C367.8294,-225.8028 383.2889,-214.3659 396.3856,-204.677"/>
<polygon fill="#191970" stroke="#191970" points="398.6436,-207.3602 404.6013,-198.5991 394.4805,-201.7328 398.6436,-207.3602"/>
</g>
<!-- Node2 -->
<g id="node3" class="node">
<title>Node2</title>
<g id="a_node3"><a xlink:href="Components_2Component_8h.html" target="_top" xlink:title="../Components/Component.h">
<polygon fill="none" stroke="#000000" points="155.5111,-56.5 155.5111,-75.5 298.5111,-75.5 298.5111,-56.5 155.5111,-56.5"/>
<text text-anchor="middle" x="227.0111" y="-63.5" font-family="Helvetica,sans-Serif" font-size="10.00" fill="#000000">../Components/Component.h</text>
</a>
</g>
</g>
<!-- Node1&#45;&gt;Node2 -->
<g id="edge2" class="edge">
<title>Node1&#45;&gt;Node2</title>
<path fill="none" stroke="#191970" d="M154.8619,-168.1389C170.2236,-146.3919 198.2445,-106.7238 214.4753,-83.7465"/>
<polygon fill="#191970" stroke="#191970" points="217.3476,-85.7466 220.2584,-75.5595 211.6301,-81.7079 217.3476,-85.7466"/>
</g>
<!-- Node1&#45;&gt;Node3 -->
<g id="edge9" class="edge">
<title>Node1&#45;&gt;Node3</title>
<path fill="none" stroke="#191970" d="M95.5018,-174.2604C70.2517,-166.9674 40.9819,-154.1693 23.0111,-132 1.5193,-105.487 -9.4497,-82.5381 12.0111,-56 34.1089,-28.6741 135.6479,-16.8596 190.9167,-12.3797"/>
<polygon fill="#191970" stroke="#191970" points="191.2913,-15.8613 200.9926,-11.6027 190.7531,-8.882 191.2913,-15.8613"/>
</g>
<!-- Node4 -->
<g id="node5" class="node">
<title>Node4</title>
<g id="a_node5"><a xlink:href="Actor_8h.html" target="_top" xlink:title="Actor.h">
<polygon fill="none" stroke="#000000" points="120.0111,-112.5 120.0111,-131.5 168.0111,-131.5 168.0111,-112.5 120.0111,-112.5"/>
<text text-anchor="middle" x="144.0111" y="-119.5" font-family="Helvetica,sans-Serif" font-size="10.00" fill="#000000">Actor.h</text>
</a>
</g>
</g>
<!-- Node1&#45;&gt;Node4 -->
<g id="edge4" class="edge">
<title>Node1&#45;&gt;Node4</title>
<path fill="none" stroke="#191970" d="M144.0111,-168.2977C144.0111,-160.3834 144.0111,-150.6043 144.0111,-142.0759"/>
<polygon fill="#191970" stroke="#191970" points="147.5112,-141.8469 144.0111,-131.8469 140.5112,-141.847 147.5112,-141.8469"/>
</g>
<!-- Node7 -->
<g id="node8" class="node">
<title>Node7</title>
<polygon fill="none" stroke="#bfbfbf" points="32.0111,-112.5 32.0111,-131.5 102.0111,-131.5 102.0111,-112.5 32.0111,-112.5"/>
<text text-anchor="middle" x="67.0111" y="-119.5" font-family="Helvetica,sans-Serif" font-size="10.00" fill="#000000">glm/fwd.hpp</text>
</g>
<!-- Node1&#45;&gt;Node7 -->
<g id="edge8" class="edge">
<title>Node1&#45;&gt;Node7</title>
<path fill="none" stroke="#191970" d="M124.9774,-168.2977C113.5096,-159.1384 98.9149,-147.4816 87.2392,-138.1562"/>
<polygon fill="#191970" stroke="#191970" points="89.3377,-135.3529 79.3398,-131.8469 84.9692,-140.8225 89.3377,-135.3529"/>
</g>
<!-- Node2&#45;&gt;Node3 -->
<g id="edge3" class="edge">
<title>Node2&#45;&gt;Node3</title>
<path fill="none" stroke="#191970" d="M227.0111,-56.2455C227.0111,-48.9382 227.0111,-38.6944 227.0111,-29.7046"/>
<polygon fill="#191970" stroke="#191970" points="230.5112,-29.6426 227.0111,-19.6427 223.5112,-29.6427 230.5112,-29.6426"/>
</g>
<!-- Node4&#45;&gt;Node2 -->
<g id="edge7" class="edge">
<title>Node4&#45;&gt;Node2</title>
<path fill="none" stroke="#191970" d="M158.4686,-112.2455C171.0843,-103.7337 189.6055,-91.2375 204.2156,-81.3801"/>
<polygon fill="#191970" stroke="#191970" points="206.3872,-84.1371 212.7193,-75.6427 202.472,-78.3343 206.3872,-84.1371"/>
</g>
<!-- Node5 -->
<g id="node6" class="node">
<title>Node5</title>
<polygon fill="none" stroke="#bfbfbf" points="93.0111,-56.5 93.0111,-75.5 137.0111,-75.5 137.0111,-56.5 93.0111,-56.5"/>
<text text-anchor="middle" x="115.0111" y="-63.5" font-family="Helvetica,sans-Serif" font-size="10.00" fill="#000000">vector</text>
</g>
<!-- Node4&#45;&gt;Node5 -->
<g id="edge5" class="edge">
<title>Node4&#45;&gt;Node5</title>
<path fill="none" stroke="#191970" d="M138.9597,-112.2455C135.0092,-104.617 129.4014,-93.7881 124.6053,-84.5267"/>
<polygon fill="#191970" stroke="#191970" points="127.7112,-82.9131 120.0046,-75.6427 121.4952,-86.1321 127.7112,-82.9131"/>
</g>
<!-- Node6 -->
<g id="node7" class="node">
<title>Node6</title>
<polygon fill="none" stroke="#bfbfbf" points="21.0111,-56.5 21.0111,-75.5 75.0111,-75.5 75.0111,-56.5 21.0111,-56.5"/>
<text text-anchor="middle" x="48.0111" y="-63.5" font-family="Helvetica,sans-Serif" font-size="10.00" fill="#000000">iostream</text>
</g>
<!-- Node4&#45;&gt;Node6 -->
<g id="edge6" class="edge">
<title>Node4&#45;&gt;Node6</title>
<path fill="none" stroke="#191970" d="M127.2892,-112.2455C112.4222,-103.5731 90.4645,-90.7645 73.4253,-80.825"/>
<polygon fill="#191970" stroke="#191970" points="74.9428,-77.6582 64.5414,-75.6427 71.4156,-83.7047 74.9428,-77.6582"/>
</g>
<!-- Node8&#45;&gt;Node2 -->
<g id="edge11" class="edge">
<title>Node8&#45;&gt;Node2</title>
<path fill="none" stroke="#191970" d="M399.5314,-168.3795C361.4019,-145.7521 289.9389,-103.3435 252.0614,-80.8657"/>
<polygon fill="#191970" stroke="#191970" points="253.5818,-77.6981 243.1959,-75.6046 250.0094,-83.718 253.5818,-77.6981"/>
</g>
<!-- Node9 -->
<g id="node10" class="node">
<title>Node9</title>
<polygon fill="none" stroke="#bfbfbf" points="393.0111,-112.5 393.0111,-131.5 457.0111,-131.5 457.0111,-112.5 393.0111,-112.5"/>
<text text-anchor="middle" x="425.0111" y="-119.5" font-family="Helvetica,sans-Serif" font-size="10.00" fill="#000000">glad/glad.h</text>
</g>
<!-- Node8&#45;&gt;Node9 -->
<g id="edge12" class="edge">
<title>Node8&#45;&gt;Node9</title>
<path fill="none" stroke="#191970" d="M425.0111,-168.2977C425.0111,-160.3834 425.0111,-150.6043 425.0111,-142.0759"/>
<polygon fill="#191970" stroke="#191970" points="428.5112,-141.8469 425.0111,-131.8469 421.5112,-141.847 428.5112,-141.8469"/>
</g>
<!-- Node10 -->
<g id="node11" class="node">
<title>Node10</title>
<polygon fill="none" stroke="#bfbfbf" points="475.0111,-112.5 475.0111,-131.5 545.0111,-131.5 545.0111,-112.5 475.0111,-112.5"/>
<text text-anchor="middle" x="510.0111" y="-119.5" font-family="Helvetica,sans-Serif" font-size="10.00" fill="#000000">glm/glm.hpp</text>
</g>
<!-- Node8&#45;&gt;Node10 -->
<g id="edge13" class="edge">
<title>Node8&#45;&gt;Node10</title>
<path fill="none" stroke="#191970" d="M446.0223,-168.2977C458.8045,-159.0495 475.1057,-147.2551 488.0559,-137.8853"/>
<polygon fill="#191970" stroke="#191970" points="490.3514,-140.5445 496.4015,-131.8469 486.2481,-134.8732 490.3514,-140.5445"/>
</g>
<!-- Node11 -->
<g id="node12" class="node">
<title>Node11</title>
<polygon fill="none" stroke="#bfbfbf" points="563.0111,-112.5 563.0111,-131.5 669.0111,-131.5 669.0111,-112.5 563.0111,-112.5"/>
<text text-anchor="middle" x="616.0111" y="-119.5" font-family="Helvetica,sans-Serif" font-size="10.00" fill="#000000">glm/gtc/type_ptr.hpp</text>
</g>
<!-- Node8&#45;&gt;Node11 -->
<g id="edge14" class="edge">
<title>Node8&#45;&gt;Node11</title>
<path fill="none" stroke="#191970" d="M471.735,-168.4554C503.8834,-158.104 546.1122,-144.5067 576.5675,-134.7004"/>
<polygon fill="#191970" stroke="#191970" points="577.9669,-137.9269 586.4129,-131.5303 575.8214,-131.2638 577.9669,-137.9269"/>
</g>
</g>
</svg>
        <g id="navigator" transform="translate(0 0)" fill="#404254">
                <rect fill="#f2f5e9" fill-opacity="0.5" stroke="#606060" stroke-width=".5" x="0" y="0" width="60" height="60"/>
                <use id="zoomplus" xlink:href="#zoomPlus" x="17" y="9" onmousedown="handleZoom(evt,'in')"/>
                <use id="zoomminus" xlink:href="#zoomMin" x="42" y="9" onmousedown="handleZoom(evt,'out')"/>
                <use id="reset" xlink:href="#resetDef" x="30" y="36" onmousedown="handleReset()"/>
                <g id="arrowUp" xlink:href="#dirArrow" transform="translate(30 24)" onmousedown="handlePan(0,-1)">
                  <use xlink:href="#rim" fill="#404040">
                        <set attributeName="fill" to="#808080" begin="arrowUp.mouseover" end="arrowUp.mouseout"/>
                  </use>
                  <path fill="none" stroke="white" stroke-width="1.5" d="M0,-3.0v7 M-2.5,-0.5L0,-3.0L2.5,-0.5"/>
                </g>
                <g id="arrowRight" xlink:href="#dirArrow" transform="rotate(90) translate(36 -43)" onmousedown="handlePan(1,0)">
                  <use xlink:href="#rim" fill="#404040">
                        <set attributeName="fill" to="#808080" begin="arrowRight.mouseover" end="arrowRight.mouseout"/>
                  </use>
                  <path fill="none" stroke="white" stroke-width="1.5" d="M0,-3.0v7 M-2.5,-0.5L0,-3.0L2.5,-0.5"/>
                </g>
                <g id="arrowDown" xlink:href="#dirArrow" transform="rotate(180) translate(-30 -48)" onmousedown="handlePan(0,1)">
                  <use xlink:href="#rim" fill="#404040">
                        <set attributeName="fill" to="#808080" begin="arrowDown.mouseover" end="arrowDown.mouseout"/>
                  </use>
                  <path fill="none" stroke="white" stroke-width="1.5" d="M0,-3.0v7 M-2.5,-0.5L0,-3.0L2.5,-0.5"/>
                </g>
                <g id="arrowLeft" xlink:href="#dirArrow" transform="rotate(270) translate(-36 17)" onmousedown="handlePan(-1,0)">
                  <use xlink:href="#rim" fill="#404040">
                        <set attributeName="fill" to="#808080" begin="arrowLeft.mouseover" end="arrowLeft.mouseout"/>
                  </use>
                  <path fill="none" stroke="white" stroke-width="1.5" d="M0,-3.0v7 M-2.5,-0.5L0,-3.0L2.5,-0.5"/>
                </g>
        </g>
        <svg viewBox="0 0 15 15" width="100%" height="30px" preserveAspectRatio="xMaxYMin meet">
         <g id="arrow_out" transform="scale(0.3 0.3)">
          <a xlink:href="Shader__Actor_8cpp__incl_org.svg" target="_base">
           <rect id="button" ry="5" rx="5" y="6" x="6" height="38" width="38"
                fill="#f2f5e9" fill-opacity="0.5" stroke="#606060" stroke-width="1.0"/>
           <path id="arrow"
             d="M 11.500037,31.436501 C 11.940474,20.09759 22.043105,11.32322 32.158766,21.979434 L 37.068811,17.246167 C 37.068811,17.246167 37.088388,32 37.088388,32 L 22.160133,31.978069 C 22.160133,31.978069 26.997745,27.140456 26.997745,27.140456 C 18.528582,18.264221 13.291696,25.230495 11.500037,31.436501 z"
             style="fill:#404040;"/>
          </a>
         </g>
        </svg>
</svg>
