<?xml version="1.0" encoding="UTF-8" standalone="no"?>
<!DOCTYPE svg PUBLIC "-//W3C//DTD SVG 1.1//EN"
 "http://www.w3.org/Graphics/SVG/1.1/DTD/svg11.dtd">
<!-- Generated by graphviz version 2.40.1 (20161225.0304)
 -->
<!-- Title: /mnt/hdd/fnky/C0de/CAPSTONE/clean_build/include/Components/ShaderComponent.h Pages: 1 -->
<svg width="378pt" height="162pt"
 viewBox="0.00 0.00 377.50 162.00" xmlns="http://www.w3.org/2000/svg" xmlns:xlink="http://www.w3.org/1999/xlink">
<g id="graph0" class="graph" transform="scale(1 1) rotate(0) translate(4 158)">
<title>/mnt/hdd/fnky/C0de/CAPSTONE/clean_build/include/Components/ShaderComponent.h</title>
<!-- Node0 -->
<g id="node1" class="node">
<title>Node0</title>
<polygon fill="#bfbfbf" stroke="#000000" points="67,-112.5 67,-153.5 268,-153.5 268,-112.5 67,-112.5"/>
<text text-anchor="start" x="75" y="-141.5" font-family="Helvetica,sans-Serif" font-size="10.00" fill="#000000">/mnt/hdd/fnky/C0de</text>
<text text-anchor="start" x="75" y="-130.5" font-family="Helvetica,sans-Serif" font-size="10.00" fill="#000000">/CAPSTONE/clean_build</text>
<text text-anchor="middle" x="167.5" y="-119.5" font-family="Helvetica,sans-Serif" font-size="10.00" fill="#000000">/include/Components/ShaderComponent.h</text>
</g>
<!-- Node1 -->
<g id="node2" class="node">
<title>Node1</title>
<g id="a_node2"><a xlink:href="Components_2Component_8h.html" target="_top" xlink:title="Component.h">
<polygon fill="none" stroke="#000000" points="0,-56.5 0,-75.5 75,-75.5 75,-56.5 0,-56.5"/>
<text text-anchor="middle" x="37.5" y="-63.5" font-family="Helvetica,sans-Serif" font-size="10.00" fill="#000000">Component.h</text>
</a>
</g>
</g>
<!-- Node0&#45;&gt;Node1 -->
<g id="edge1" class="edge">
<title>Node0&#45;&gt;Node1</title>
<path fill="none" stroke="#191970" d="M127.435,-112.3511C107.2325,-101.9391 83.2422,-89.5748 65.1222,-80.2361"/>
<polygon fill="#191970" stroke="#191970" points="66.7252,-77.1248 56.2329,-75.6546 63.5184,-83.347 66.7252,-77.1248"/>
</g>
<!-- Node3 -->
<g id="node4" class="node">
<title>Node3</title>
<polygon fill="none" stroke="#bfbfbf" points="93.5,-56.5 93.5,-75.5 157.5,-75.5 157.5,-56.5 93.5,-56.5"/>
<text text-anchor="middle" x="125.5" y="-63.5" font-family="Helvetica,sans-Serif" font-size="10.00" fill="#000000">glad/glad.h</text>
</g>
<!-- Node0&#45;&gt;Node3 -->
<g id="edge3" class="edge">
<title>Node0&#45;&gt;Node3</title>
<path fill="none" stroke="#191970" d="M154.4412,-112.168C148.853,-103.2536 142.385,-92.9356 136.9827,-84.3177"/>
<polygon fill="#191970" stroke="#191970" points="139.9079,-82.3944 131.631,-75.7805 133.9769,-86.1123 139.9079,-82.3944"/>
</g>
<!-- Node4 -->
<g id="node5" class="node">
<title>Node4</title>
<polygon fill="none" stroke="#bfbfbf" points="175.5,-56.5 175.5,-75.5 245.5,-75.5 245.5,-56.5 175.5,-56.5"/>
<text text-anchor="middle" x="210.5" y="-63.5" font-family="Helvetica,sans-Serif" font-size="10.00" fill="#000000">glm/glm.hpp</text>
</g>
<!-- Node0&#45;&gt;Node4 -->
<g id="edge4" class="edge">
<title>Node0&#45;&gt;Node4</title>
<path fill="none" stroke="#191970" d="M180.8698,-112.168C186.591,-103.2536 193.213,-92.9356 198.7439,-84.3177"/>
<polygon fill="#191970" stroke="#191970" points="201.7673,-86.0868 204.223,-75.7805 195.8762,-82.3059 201.7673,-86.0868"/>
</g>
<!-- Node5 -->
<g id="node6" class="node">
<title>Node5</title>
<polygon fill="none" stroke="#bfbfbf" points="263.5,-56.5 263.5,-75.5 369.5,-75.5 369.5,-56.5 263.5,-56.5"/>
<text text-anchor="middle" x="316.5" y="-63.5" font-family="Helvetica,sans-Serif" font-size="10.00" fill="#000000">glm/gtc/type_ptr.hpp</text>
</g>
<!-- Node0&#45;&gt;Node5 -->
<g id="edge5" class="edge">
<title>Node0&#45;&gt;Node5</title>
<path fill="none" stroke="#191970" d="M213.4207,-112.3511C236.8945,-101.7958 264.83,-89.2342 285.6942,-79.8523"/>
<polygon fill="#191970" stroke="#191970" points="287.3443,-82.9479 295.0292,-75.6546 284.4735,-76.5637 287.3443,-82.9479"/>
</g>
<!-- Node2 -->
<g id="node3" class="node">
<title>Node2</title>
<polygon fill="none" stroke="#bfbfbf" points="11.5,-.5 11.5,-19.5 63.5,-19.5 63.5,-.5 11.5,-.5"/>
<text text-anchor="middle" x="37.5" y="-7.5" font-family="Helvetica,sans-Serif" font-size="10.00" fill="#000000">memory</text>
</g>
<!-- Node1&#45;&gt;Node2 -->
<g id="edge2" class="edge">
<title>Node1&#45;&gt;Node2</title>
<path fill="none" stroke="#191970" d="M37.5,-56.2455C37.5,-48.9382 37.5,-38.6944 37.5,-29.7046"/>
<polygon fill="#191970" stroke="#191970" points="41.0001,-29.6426 37.5,-19.6427 34.0001,-29.6427 41.0001,-29.6426"/>
</g>
</g>
</svg>
