<?xml version="1.0" encoding="UTF-8" standalone="no"?>
<!DOCTYPE svg PUBLIC "-//W3C//DTD SVG 1.1//EN"
 "http://www.w3.org/Graphics/SVG/1.1/DTD/svg11.dtd">
<!-- Generated by graphviz version 2.40.1 (20161225.0304)
 -->
<!-- Title: /mnt/hdd/fnky/C0de/CAPSTONE/clean_build/src/Graphics/sprite.cpp Pages: 1 -->
<svg width="1152pt" height="229pt"
 viewBox="0.00 0.00 1151.50 229.00" xmlns="http://www.w3.org/2000/svg" xmlns:xlink="http://www.w3.org/1999/xlink">
<g id="graph0" class="graph" transform="scale(1 1) rotate(0) translate(4 225)">
<title>/mnt/hdd/fnky/C0de/CAPSTONE/clean_build/src/Graphics/sprite.cpp</title>
<!-- Node0 -->
<g id="node1" class="node">
<title>Node0</title>
<polygon fill="#bfbfbf" stroke="#000000" points="807,-179.5 807,-220.5 934,-220.5 934,-179.5 807,-179.5"/>
<text text-anchor="start" x="815" y="-208.5" font-family="Helvetica,sans-Serif" font-size="10.00" fill="#000000">/mnt/hdd/fnky/C0de</text>
<text text-anchor="start" x="815" y="-197.5" font-family="Helvetica,sans-Serif" font-size="10.00" fill="#000000">/CAPSTONE/clean_build</text>
<text text-anchor="middle" x="870.5" y="-186.5" font-family="Helvetica,sans-Serif" font-size="10.00" fill="#000000">/src/Graphics/sprite.cpp</text>
</g>
<!-- Node1 -->
<g id="node2" class="node">
<title>Node1</title>
<g id="a_node2"><a xlink:href="sprite_8h.html" target="_top" xlink:title="../../include/Graphics\l/sprite.h">
<polygon fill="none" stroke="#000000" points="776,-112.5 776,-142.5 883,-142.5 883,-112.5 776,-112.5"/>
<text text-anchor="start" x="784" y="-130.5" font-family="Helvetica,sans-Serif" font-size="10.00" fill="#000000">../../include/Graphics</text>
<text text-anchor="middle" x="829.5" y="-119.5" font-family="Helvetica,sans-Serif" font-size="10.00" fill="#000000">/sprite.h</text>
</a>
</g>
</g>
<!-- Node0&#45;&gt;Node1 -->
<g id="edge1" class="edge">
<title>Node0&#45;&gt;Node1</title>
<path fill="none" stroke="#191970" d="M858.8607,-179.4183C853.9408,-170.7186 848.1778,-160.5279 843.0666,-151.4897"/>
<polygon fill="#191970" stroke="#191970" points="846.008,-149.5807 838.0388,-142.5991 839.9148,-153.0265 846.008,-149.5807"/>
</g>
<!-- Node7 -->
<g id="node8" class="node">
<title>Node7</title>
<g id="a_node8"><a xlink:href="texture_8h.html" target="_top" xlink:title="texture.h">
<polygon fill="none" stroke="#000000" points="1018,-56.5 1018,-75.5 1073,-75.5 1073,-56.5 1018,-56.5"/>
<text text-anchor="middle" x="1045.5" y="-63.5" font-family="Helvetica,sans-Serif" font-size="10.00" fill="#000000">texture.h</text>
</a>
</g>
</g>
<!-- Node0&#45;&gt;Node7 -->
<g id="edge13" class="edge">
<title>Node0&#45;&gt;Node7</title>
<path fill="none" stroke="#191970" d="M897.4602,-179.3562C932.5152,-152.5141 992.9975,-106.2019 1024.7148,-81.9156"/>
<polygon fill="#191970" stroke="#191970" points="1027.041,-84.5426 1032.8528,-75.6841 1022.7853,-78.9848 1027.041,-84.5426"/>
</g>
<!-- Node9 -->
<g id="node10" class="node">
<title>Node9</title>
<polygon fill="none" stroke="#bfbfbf" points="1091.5,-56.5 1091.5,-75.5 1143.5,-75.5 1143.5,-56.5 1091.5,-56.5"/>
<text text-anchor="middle" x="1117.5" y="-63.5" font-family="Helvetica,sans-Serif" font-size="10.00" fill="#000000">memory</text>
</g>
<!-- Node0&#45;&gt;Node9 -->
<g id="edge14" class="edge">
<title>Node0&#45;&gt;Node9</title>
<path fill="none" stroke="#191970" d="M910.9015,-179.4799C931.7721,-168.7747 957.599,-155.3645 980.5,-143 1019.5865,-121.8967 1064.3667,-96.4931 1091.7906,-80.7938"/>
<polygon fill="#191970" stroke="#191970" points="1093.795,-83.679 1100.7291,-75.6684 1090.313,-77.6065 1093.795,-83.679"/>
</g>
<!-- Node12 -->
<g id="node13" class="node">
<title>Node12</title>
<g id="a_node13"><a xlink:href="stb__image_8h.html" target="_top" xlink:title="../../include/Graphics\l/stb_image.h">
<polygon fill="none" stroke="#000000" points="245,-112.5 245,-142.5 352,-142.5 352,-112.5 245,-112.5"/>
<text text-anchor="start" x="253" y="-130.5" font-family="Helvetica,sans-Serif" font-size="10.00" fill="#000000">../../include/Graphics</text>
<text text-anchor="middle" x="298.5" y="-119.5" font-family="Helvetica,sans-Serif" font-size="10.00" fill="#000000">/stb_image.h</text>
</a>
</g>
</g>
<!-- Node0&#45;&gt;Node12 -->
<g id="edge15" class="edge">
<title>Node0&#45;&gt;Node12</title>
<path fill="none" stroke="#191970" d="M806.8251,-191.9293C696.8362,-177.9884 472.4874,-149.5526 362.3661,-135.5949"/>
<polygon fill="#191970" stroke="#191970" points="362.7543,-132.1162 352.3936,-134.3309 361.8741,-139.0606 362.7543,-132.1162"/>
</g>
<!-- Node2 -->
<g id="node3" class="node">
<title>Node2</title>
<polygon fill="none" stroke="#bfbfbf" points="777.5,-56.5 777.5,-75.5 823.5,-75.5 823.5,-56.5 777.5,-56.5"/>
<text text-anchor="middle" x="800.5" y="-63.5" font-family="Helvetica,sans-Serif" font-size="10.00" fill="#000000">cstdint</text>
</g>
<!-- Node1&#45;&gt;Node2 -->
<g id="edge2" class="edge">
<title>Node1&#45;&gt;Node2</title>
<path fill="none" stroke="#191970" d="M822.3315,-112.2977C818.4318,-104.0277 813.572,-93.7215 809.4282,-84.9339"/>
<polygon fill="#191970" stroke="#191970" points="812.5741,-83.399 805.1433,-75.8469 806.2427,-86.3846 812.5741,-83.399"/>
</g>
<!-- Node3 -->
<g id="node4" class="node">
<title>Node3</title>
<polygon fill="none" stroke="#bfbfbf" points="514.5,-56.5 514.5,-75.5 560.5,-75.5 560.5,-56.5 514.5,-56.5"/>
<text text-anchor="middle" x="537.5" y="-63.5" font-family="Helvetica,sans-Serif" font-size="10.00" fill="#000000">stdio.h</text>
</g>
<!-- Node1&#45;&gt;Node3 -->
<g id="edge3" class="edge">
<title>Node1&#45;&gt;Node3</title>
<path fill="none" stroke="#191970" d="M775.5525,-117.6542C723.7878,-107.9595 643.5149,-92.2775 574.5,-76 573.225,-75.6993 571.9272,-75.3857 570.6178,-75.0629"/>
<polygon fill="#191970" stroke="#191970" points="571.0905,-71.5708 560.5341,-72.4725 569.3487,-78.3506 571.0905,-71.5708"/>
</g>
<!-- Node4 -->
<g id="node5" class="node">
<title>Node4</title>
<polygon fill="none" stroke="#bfbfbf" points="841.5,-56.5 841.5,-75.5 911.5,-75.5 911.5,-56.5 841.5,-56.5"/>
<text text-anchor="middle" x="876.5" y="-63.5" font-family="Helvetica,sans-Serif" font-size="10.00" fill="#000000">glm/fwd.hpp</text>
</g>
<!-- Node1&#45;&gt;Node4 -->
<g id="edge4" class="edge">
<title>Node1&#45;&gt;Node4</title>
<path fill="none" stroke="#191970" d="M841.118,-112.2977C847.71,-103.672 855.9948,-92.8312 862.8901,-83.8087"/>
<polygon fill="#191970" stroke="#191970" points="865.6835,-85.9176 868.9747,-75.8469 860.1217,-81.6671 865.6835,-85.9176"/>
</g>
<!-- Node5 -->
<g id="node6" class="node">
<title>Node5</title>
<polygon fill="none" stroke="#bfbfbf" points="929.5,-56.5 929.5,-75.5 999.5,-75.5 999.5,-56.5 929.5,-56.5"/>
<text text-anchor="middle" x="964.5" y="-63.5" font-family="Helvetica,sans-Serif" font-size="10.00" fill="#000000">glm/glm.hpp</text>
</g>
<!-- Node1&#45;&gt;Node5 -->
<g id="edge5" class="edge">
<title>Node1&#45;&gt;Node5</title>
<path fill="none" stroke="#191970" d="M862.5247,-112.4554C884.457,-102.464 913.0273,-89.4487 934.3453,-79.7372"/>
<polygon fill="#191970" stroke="#191970" points="935.9306,-82.8611 943.5798,-75.5303 933.0286,-76.4909 935.9306,-82.8611"/>
</g>
<!-- Node6 -->
<g id="node7" class="node">
<title>Node6</title>
<polygon fill="none" stroke="#bfbfbf" points="751.5,-.5 751.5,-19.5 805.5,-19.5 805.5,-.5 751.5,-.5"/>
<text text-anchor="middle" x="778.5" y="-7.5" font-family="Helvetica,sans-Serif" font-size="10.00" fill="#000000">iostream</text>
</g>
<!-- Node1&#45;&gt;Node6 -->
<g id="edge6" class="edge">
<title>Node1&#45;&gt;Node6</title>
<path fill="none" stroke="#191970" d="M775.9039,-122.6221C717.0566,-116.0266 628.1446,-101.982 607.5,-76 570.1658,-29.0135 680.6393,-15.437 741.4079,-11.545"/>
<polygon fill="#191970" stroke="#191970" points="741.6376,-15.0376 751.4172,-10.9622 741.2307,-8.0495 741.6376,-15.0376"/>
</g>
<!-- Node1&#45;&gt;Node7 -->
<g id="edge7" class="edge">
<title>Node1&#45;&gt;Node7</title>
<path fill="none" stroke="#191970" d="M882.3395,-112.4554C921.3299,-101.354 973.4318,-86.5194 1008.1605,-76.6314"/>
<polygon fill="#191970" stroke="#191970" points="1009.2484,-79.9608 1017.9077,-73.8561 1007.3315,-73.2284 1009.2484,-79.9608"/>
</g>
<!-- Node1&#45;&gt;Node9 -->
<g id="edge10" class="edge">
<title>Node1&#45;&gt;Node9</title>
<path fill="none" stroke="#191970" d="M883.0733,-117.8428C932.2591,-108.6953 1007.3411,-94.0262 1081.2407,-76.178"/>
<polygon fill="#191970" stroke="#191970" points="1082.2978,-79.5229 1091.1849,-73.755 1080.6406,-72.7219 1082.2978,-79.5229"/>
</g>
<!-- Node10 -->
<g id="node11" class="node">
<title>Node10</title>
<polygon fill="none" stroke="#bfbfbf" points="617,-56.5 617,-75.5 658,-75.5 658,-56.5 617,-56.5"/>
<text text-anchor="middle" x="637.5" y="-63.5" font-family="Helvetica,sans-Serif" font-size="10.00" fill="#000000">string</text>
</g>
<!-- Node1&#45;&gt;Node10 -->
<g id="edge11" class="edge">
<title>Node1&#45;&gt;Node10</title>
<path fill="none" stroke="#191970" d="M780.535,-112.3943C750.3281,-102.9919 710.5697,-90.4678 667.5845,-76.3102"/>
<polygon fill="#191970" stroke="#191970" points="668.6659,-72.9815 658.0727,-73.168 666.4701,-79.6282 668.6659,-72.9815"/>
</g>
<!-- Node11 -->
<g id="node12" class="node">
<title>Node11</title>
<polygon fill="none" stroke="#bfbfbf" points="676,-56.5 676,-75.5 759,-75.5 759,-56.5 676,-56.5"/>
<text text-anchor="middle" x="717.5" y="-63.5" font-family="Helvetica,sans-Serif" font-size="10.00" fill="#000000">unordered_map</text>
</g>
<!-- Node1&#45;&gt;Node11 -->
<g id="edge12" class="edge">
<title>Node1&#45;&gt;Node11</title>
<path fill="none" stroke="#191970" d="M802.1017,-112.4554C784.3978,-102.734 761.4805,-90.15 743.9642,-80.5317"/>
<polygon fill="#191970" stroke="#191970" points="745.3061,-77.2756 734.856,-75.5303 741.9369,-83.4115 745.3061,-77.2756"/>
</g>
<!-- Node7&#45;&gt;Node6 -->
<g id="edge8" class="edge">
<title>Node7&#45;&gt;Node6</title>
<path fill="none" stroke="#191970" d="M1017.67,-58.2654C1014.5834,-57.471 1011.4798,-56.6998 1008.5,-56 940.8287,-40.1067 861.1392,-24.9558 815.5481,-16.6239"/>
<polygon fill="#191970" stroke="#191970" points="816.0015,-13.1491 805.5367,-14.8039 814.7494,-20.0362 816.0015,-13.1491"/>
</g>
<!-- Node8 -->
<g id="node9" class="node">
<title>Node8</title>
<polygon fill="none" stroke="#bfbfbf" points="1013.5,-.5 1013.5,-19.5 1077.5,-19.5 1077.5,-.5 1013.5,-.5"/>
<text text-anchor="middle" x="1045.5" y="-7.5" font-family="Helvetica,sans-Serif" font-size="10.00" fill="#000000">glad/glad.h</text>
</g>
<!-- Node7&#45;&gt;Node8 -->
<g id="edge9" class="edge">
<title>Node7&#45;&gt;Node8</title>
<path fill="none" stroke="#191970" d="M1045.5,-56.2455C1045.5,-48.9382 1045.5,-38.6944 1045.5,-29.7046"/>
<polygon fill="#191970" stroke="#191970" points="1049.0001,-29.6426 1045.5,-19.6427 1042.0001,-29.6427 1049.0001,-29.6426"/>
</g>
<!-- Node12&#45;&gt;Node3 -->
<g id="edge16" class="edge">
<title>Node12&#45;&gt;Node3</title>
<path fill="none" stroke="#191970" d="M352.3405,-115.0261C391.9619,-105.6367 447.3363,-92.0795 504.5339,-76.1595"/>
<polygon fill="#191970" stroke="#191970" points="505.7918,-79.4419 514.4763,-73.3732 503.9028,-72.7016 505.7918,-79.4419"/>
</g>
<!-- Node13 -->
<g id="node14" class="node">
<title>Node13</title>
<polygon fill="none" stroke="#bfbfbf" points="308.5,-56.5 308.5,-75.5 356.5,-75.5 356.5,-56.5 308.5,-56.5"/>
<text text-anchor="middle" x="332.5" y="-63.5" font-family="Helvetica,sans-Serif" font-size="10.00" fill="#000000">stdlib.h</text>
</g>
<!-- Node12&#45;&gt;Node13 -->
<g id="edge17" class="edge">
<title>Node12&#45;&gt;Node13</title>
<path fill="none" stroke="#191970" d="M306.9045,-112.2977C311.5257,-103.9388 317.2969,-93.4997 322.1889,-84.6509"/>
<polygon fill="#191970" stroke="#191970" points="325.2809,-86.292 327.0562,-75.8469 319.1548,-82.9051 325.2809,-86.292"/>
</g>
<!-- Node14 -->
<g id="node15" class="node">
<title>Node14</title>
<polygon fill="none" stroke="#bfbfbf" points="374.5,-56.5 374.5,-75.5 426.5,-75.5 426.5,-56.5 374.5,-56.5"/>
<text text-anchor="middle" x="400.5" y="-63.5" font-family="Helvetica,sans-Serif" font-size="10.00" fill="#000000">stdarg.h</text>
</g>
<!-- Node12&#45;&gt;Node14 -->
<g id="edge18" class="edge">
<title>Node12&#45;&gt;Node14</title>
<path fill="none" stroke="#191970" d="M323.452,-112.4554C339.4259,-102.8241 360.0602,-90.3828 375.9543,-80.7996"/>
<polygon fill="#191970" stroke="#191970" points="377.937,-83.6912 384.6936,-75.5303 374.3226,-77.6965 377.937,-83.6912"/>
</g>
<!-- Node15 -->
<g id="node16" class="node">
<title>Node15</title>
<polygon fill="none" stroke="#bfbfbf" points="444.5,-56.5 444.5,-75.5 496.5,-75.5 496.5,-56.5 444.5,-56.5"/>
<text text-anchor="middle" x="470.5" y="-63.5" font-family="Helvetica,sans-Serif" font-size="10.00" fill="#000000">stddef.h</text>
</g>
<!-- Node12&#45;&gt;Node15 -->
<g id="edge19" class="edge">
<title>Node12&#45;&gt;Node15</title>
<path fill="none" stroke="#191970" d="M340.5759,-112.4554C369.4517,-102.1306 407.3585,-88.5768 434.7679,-78.7763"/>
<polygon fill="#191970" stroke="#191970" points="436.1172,-82.0109 444.355,-75.3484 433.7604,-75.4196 436.1172,-82.0109"/>
</g>
<!-- Node16 -->
<g id="node17" class="node">
<title>Node16</title>
<polygon fill="none" stroke="#bfbfbf" points="0,-56.5 0,-75.5 49,-75.5 49,-56.5 0,-56.5"/>
<text text-anchor="middle" x="24.5" y="-63.5" font-family="Helvetica,sans-Serif" font-size="10.00" fill="#000000">string.h</text>
</g>
<!-- Node12&#45;&gt;Node16 -->
<g id="edge20" class="edge">
<title>Node12&#45;&gt;Node16</title>
<path fill="none" stroke="#191970" d="M244.7104,-116.2758C196.9994,-106.1859 125.4678,-90.7298 63.5,-76 62.0549,-75.6565 60.581,-75.3011 59.093,-74.9382"/>
<polygon fill="#191970" stroke="#191970" points="59.7746,-71.5011 49.225,-72.4797 58.0823,-78.2935 59.7746,-71.5011"/>
</g>
<!-- Node17 -->
<g id="node18" class="node">
<title>Node17</title>
<polygon fill="none" stroke="#bfbfbf" points="53.5,-.5 53.5,-19.5 101.5,-19.5 101.5,-.5 53.5,-.5"/>
<text text-anchor="middle" x="77.5" y="-7.5" font-family="Helvetica,sans-Serif" font-size="10.00" fill="#000000">limits.h</text>
</g>
<!-- Node12&#45;&gt;Node17 -->
<g id="edge21" class="edge">
<title>Node12&#45;&gt;Node17</title>
<path fill="none" stroke="#191970" d="M244.8213,-119.9452C192.3812,-111.5169 117.4792,-96.3455 96.5,-76 84.0859,-63.9609 79.6395,-44.3798 78.1174,-29.6662"/>
<polygon fill="#191970" stroke="#191970" points="81.6016,-29.3122 77.4399,-19.569 74.6173,-29.7809 81.6016,-29.3122"/>
</g>
<!-- Node18 -->
<g id="node19" class="node">
<title>Node18</title>
<polygon fill="none" stroke="#bfbfbf" points="173,-56.5 173,-75.5 220,-75.5 220,-56.5 173,-56.5"/>
<text text-anchor="middle" x="196.5" y="-63.5" font-family="Helvetica,sans-Serif" font-size="10.00" fill="#000000">math.h</text>
</g>
<!-- Node12&#45;&gt;Node18 -->
<g id="edge22" class="edge">
<title>Node12&#45;&gt;Node18</title>
<path fill="none" stroke="#191970" d="M273.548,-112.4554C257.5741,-102.8241 236.9398,-90.3828 221.0457,-80.7996"/>
<polygon fill="#191970" stroke="#191970" points="222.6774,-77.6965 212.3064,-75.5303 219.063,-83.6912 222.6774,-77.6965"/>
</g>
<!-- Node19 -->
<g id="node20" class="node">
<title>Node19</title>
<polygon fill="none" stroke="#bfbfbf" points="238.5,-56.5 238.5,-75.5 290.5,-75.5 290.5,-56.5 238.5,-56.5"/>
<text text-anchor="middle" x="264.5" y="-63.5" font-family="Helvetica,sans-Serif" font-size="10.00" fill="#000000">assert.h</text>
</g>
<!-- Node12&#45;&gt;Node19 -->
<g id="edge23" class="edge">
<title>Node12&#45;&gt;Node19</title>
<path fill="none" stroke="#191970" d="M290.0955,-112.2977C285.4743,-103.9388 279.7031,-93.4997 274.8111,-84.6509"/>
<polygon fill="#191970" stroke="#191970" points="277.8452,-82.9051 269.9438,-75.8469 271.7191,-86.292 277.8452,-82.9051"/>
</g>
<!-- Node20 -->
<g id="node21" class="node">
<title>Node20</title>
<g id="a_node21"><a xlink:href="stdint_8h.html" target="_top" xlink:title="stdint.h">
<polygon fill="none" stroke="#000000" points="106,-56.5 106,-75.5 155,-75.5 155,-56.5 106,-56.5"/>
<text text-anchor="middle" x="130.5" y="-63.5" font-family="Helvetica,sans-Serif" font-size="10.00" fill="#000000">stdint.h</text>
</a>
</g>
</g>
<!-- Node12&#45;&gt;Node20 -->
<g id="edge24" class="edge">
<title>Node12&#45;&gt;Node20</title>
<path fill="none" stroke="#191970" d="M257.4026,-112.4554C228.9775,-102.0498 191.5927,-88.3643 164.7741,-78.5468"/>
<polygon fill="#191970" stroke="#191970" points="165.6475,-75.1394 155.0537,-74.9884 163.2411,-81.7128 165.6475,-75.1394"/>
</g>
<!-- Node20&#45;&gt;Node17 -->
<g id="edge25" class="edge">
<title>Node20&#45;&gt;Node17</title>
<path fill="none" stroke="#191970" d="M121.2681,-56.2455C113.6683,-48.2155 102.7123,-36.6394 93.6632,-27.0781"/>
<polygon fill="#191970" stroke="#191970" points="96.042,-24.4998 86.6261,-19.6427 90.9579,-29.3115 96.042,-24.4998"/>
</g>
<!-- Node21 -->
<g id="node22" class="node">
<title>Node21</title>
<polygon fill="none" stroke="#bfbfbf" points="120,-.5 120,-19.5 171,-19.5 171,-.5 120,-.5"/>
<text text-anchor="middle" x="145.5" y="-7.5" font-family="Helvetica,sans-Serif" font-size="10.00" fill="#000000">wchar.h</text>
</g>
<!-- Node20&#45;&gt;Node21 -->
<g id="edge26" class="edge">
<title>Node20&#45;&gt;Node21</title>
<path fill="none" stroke="#191970" d="M133.1128,-56.2455C135.0916,-48.8579 137.8744,-38.4689 140.3012,-29.4087"/>
<polygon fill="#191970" stroke="#191970" points="143.7105,-30.2078 142.9171,-19.6427 136.9489,-28.3966 143.7105,-30.2078"/>
</g>
</g>
</svg>
