<?xml version="1.0" encoding="UTF-8" standalone="no"?>
<!DOCTYPE svg PUBLIC "-//W3C//DTD SVG 1.1//EN"
 "http://www.w3.org/Graphics/SVG/1.1/DTD/svg11.dtd">
<!-- Generated by graphviz version 2.40.1 (20161225.0304)
 -->
<!-- Title: /mnt/hdd/fnky/C0de/CAPSTONE/clean_build/include/Graphics/sprite.h Pages: 1 -->
<svg width="2608pt" height="217pt"
 viewBox="0.00 0.00 2607.50 217.00" xmlns="http://www.w3.org/2000/svg" xmlns:xlink="http://www.w3.org/1999/xlink">
<g id="graph0" class="graph" transform="scale(1 1) rotate(0) translate(4 213)">
<title>/mnt/hdd/fnky/C0de/CAPSTONE/clean_build/include/Graphics/sprite.h</title>
<!-- Node11 -->
<g id="node1" class="node">
<title>Node11</title>
<polygon fill="#bfbfbf" stroke="#000000" points="1306.5,-167.5 1306.5,-208.5 1434.5,-208.5 1434.5,-167.5 1306.5,-167.5"/>
<text text-anchor="start" x="1314.5" y="-196.5" font-family="Helvetica,sans-Serif" font-size="10.00" fill="#000000">/mnt/hdd/fnky/C0de</text>
<text text-anchor="start" x="1314.5" y="-185.5" font-family="Helvetica,sans-Serif" font-size="10.00" fill="#000000">/CAPSTONE/clean_build</text>
<text text-anchor="middle" x="1370.5" y="-174.5" font-family="Helvetica,sans-Serif" font-size="10.00" fill="#000000">/include/Graphics/sprite.h</text>
</g>
<!-- Node12 -->
<g id="node2" class="node">
<title>Node12</title>
<g id="a_node2"><a xlink:href="RenderComponent_8h.html" target="_top" xlink:title="/mnt/hdd/fnky/C0de\l/CAPSTONE/clean_build\l/include/Components/RenderComponent.h">
<polygon fill="none" stroke="#000000" points="1178.5,-89.5 1178.5,-130.5 1380.5,-130.5 1380.5,-89.5 1178.5,-89.5"/>
<text text-anchor="start" x="1186.5" y="-118.5" font-family="Helvetica,sans-Serif" font-size="10.00" fill="#000000">/mnt/hdd/fnky/C0de</text>
<text text-anchor="start" x="1186.5" y="-107.5" font-family="Helvetica,sans-Serif" font-size="10.00" fill="#000000">/CAPSTONE/clean_build</text>
<text text-anchor="middle" x="1279.5" y="-96.5" font-family="Helvetica,sans-Serif" font-size="10.00" fill="#000000">/include/Components/RenderComponent.h</text>
</a>
</g>
</g>
<!-- Node11&#45;&gt;Node12 -->
<g id="edge1" class="edge">
<title>Node11&#45;&gt;Node12</title>
<path fill="none" stroke="#191970" d="M1338.4309,-160.5122C1326.9883,-150.7043 1314.3009,-139.8293 1303.6381,-130.6898"/>
<polygon fill="#191970" stroke="#191970" points="1336.2433,-163.2469 1346.1137,-167.0974 1340.7989,-157.9321 1336.2433,-163.2469"/>
</g>
<!-- Node29 -->
<g id="node19" class="node">
<title>Node29</title>
<g id="a_node19"><a xlink:href="sprite_8cpp.html" target="_top" xlink:title="/mnt/hdd/fnky/C0de\l/CAPSTONE/clean_build\l/src/Graphics/sprite.cpp">
<polygon fill="none" stroke="#000000" points="1399,-89.5 1399,-130.5 1526,-130.5 1526,-89.5 1399,-89.5"/>
<text text-anchor="start" x="1407" y="-118.5" font-family="Helvetica,sans-Serif" font-size="10.00" fill="#000000">/mnt/hdd/fnky/C0de</text>
<text text-anchor="start" x="1407" y="-107.5" font-family="Helvetica,sans-Serif" font-size="10.00" fill="#000000">/CAPSTONE/clean_build</text>
<text text-anchor="middle" x="1462.5" y="-96.5" font-family="Helvetica,sans-Serif" font-size="10.00" fill="#000000">/src/Graphics/sprite.cpp</text>
</a>
</g>
</g>
<!-- Node11&#45;&gt;Node29 -->
<g id="edge18" class="edge">
<title>Node11&#45;&gt;Node29</title>
<path fill="none" stroke="#191970" d="M1402.9215,-160.5122C1414.4898,-150.7043 1427.3167,-139.8293 1438.0966,-130.6898"/>
<polygon fill="#191970" stroke="#191970" points="1400.5185,-157.9609 1395.1543,-167.0974 1405.0453,-163.3002 1400.5185,-157.9609"/>
</g>
<!-- Node13 -->
<g id="node3" class="node">
<title>Node13</title>
<g id="a_node3"><a xlink:href="Animate__Actor_8cpp.html" target="_top" xlink:title="/mnt/hdd/fnky/C0de\l/CAPSTONE/clean_build\l/src/Actors/Animate_Actor.cpp">
<polygon fill="none" stroke="#000000" points="0,-6 0,-47 151,-47 151,-6 0,-6"/>
<text text-anchor="start" x="8" y="-35" font-family="Helvetica,sans-Serif" font-size="10.00" fill="#000000">/mnt/hdd/fnky/C0de</text>
<text text-anchor="start" x="8" y="-24" font-family="Helvetica,sans-Serif" font-size="10.00" fill="#000000">/CAPSTONE/clean_build</text>
<text text-anchor="middle" x="75.5" y="-13" font-family="Helvetica,sans-Serif" font-size="10.00" fill="#000000">/src/Actors/Animate_Actor.cpp</text>
</a>
</g>
</g>
<!-- Node12&#45;&gt;Node13 -->
<g id="edge2" class="edge">
<title>Node12&#45;&gt;Node13</title>
<path fill="none" stroke="#191970" d="M1167.9883,-107.877C924.4438,-102.661 351.529,-87.0819 160.5,-53 152.1305,-51.5068 143.4339,-49.432 134.937,-47.0945"/>
<polygon fill="#191970" stroke="#191970" points="1168.2048,-111.3823 1178.2768,-108.0954 1168.3534,-104.3839 1168.2048,-111.3823"/>
</g>
<!-- Node14 -->
<g id="node4" class="node">
<title>Node14</title>
<g id="a_node4"><a xlink:href="Animated__Player__Actor_8cpp.html" target="_top" xlink:title="/mnt/hdd/fnky/C0de\l/CAPSTONE/clean_build\l/src/Actors/Animated_Player\l_Actor.cpp">
<polygon fill="none" stroke="#000000" points="169.5,-.5 169.5,-52.5 311.5,-52.5 311.5,-.5 169.5,-.5"/>
<text text-anchor="start" x="177.5" y="-40.5" font-family="Helvetica,sans-Serif" font-size="10.00" fill="#000000">/mnt/hdd/fnky/C0de</text>
<text text-anchor="start" x="177.5" y="-29.5" font-family="Helvetica,sans-Serif" font-size="10.00" fill="#000000">/CAPSTONE/clean_build</text>
<text text-anchor="start" x="177.5" y="-18.5" font-family="Helvetica,sans-Serif" font-size="10.00" fill="#000000">/src/Actors/Animated_Player</text>
<text text-anchor="middle" x="240.5" y="-7.5" font-family="Helvetica,sans-Serif" font-size="10.00" fill="#000000">_Actor.cpp</text>
</a>
</g>
</g>
<!-- Node12&#45;&gt;Node14 -->
<g id="edge3" class="edge">
<title>Node12&#45;&gt;Node14</title>
<path fill="none" stroke="#191970" d="M1168.1684,-107.0208C951.3877,-100.6201 479.9241,-83.5977 320.5,-53 317.6262,-52.4484 314.7132,-51.8213 311.7846,-51.1338"/>
<polygon fill="#191970" stroke="#191970" points="1168.1982,-110.5231 1178.2965,-107.3176 1168.4033,-103.5261 1168.1982,-110.5231"/>
</g>
<!-- Node15 -->
<g id="node5" class="node">
<title>Node15</title>
<g id="a_node5"><a xlink:href="Edge__Actor_8cpp.html" target="_top" xlink:title="/mnt/hdd/fnky/C0de\l/CAPSTONE/clean_build\l/src/Actors/Edge_Actor.cpp">
<polygon fill="none" stroke="#000000" points="330,-6 330,-47 467,-47 467,-6 330,-6"/>
<text text-anchor="start" x="338" y="-35" font-family="Helvetica,sans-Serif" font-size="10.00" fill="#000000">/mnt/hdd/fnky/C0de</text>
<text text-anchor="start" x="338" y="-24" font-family="Helvetica,sans-Serif" font-size="10.00" fill="#000000">/CAPSTONE/clean_build</text>
<text text-anchor="middle" x="398.5" y="-13" font-family="Helvetica,sans-Serif" font-size="10.00" fill="#000000">/src/Actors/Edge_Actor.cpp</text>
</a>
</g>
</g>
<!-- Node12&#45;&gt;Node15 -->
<g id="edge4" class="edge">
<title>Node12&#45;&gt;Node15</title>
<path fill="none" stroke="#191970" d="M1167.9657,-105.6849C979.1964,-97.78 604.6664,-79.3337 475.5,-53 468.0196,-51.4749 460.2689,-49.4141 452.6948,-47.1115"/>
<polygon fill="#191970" stroke="#191970" points="1168.0569,-109.1916 1178.1938,-106.1105 1168.348,-102.1977 1168.0569,-109.1916"/>
</g>
<!-- Node16 -->
<g id="node6" class="node">
<title>Node16</title>
<g id="a_node6"><a xlink:href="Gun__Actor_8cpp.html" target="_top" xlink:title="/mnt/hdd/fnky/C0de\l/CAPSTONE/clean_build\l/src/Actors/Gun_Actor.cpp">
<polygon fill="none" stroke="#000000" points="485,-6 485,-47 618,-47 618,-6 485,-6"/>
<text text-anchor="start" x="493" y="-35" font-family="Helvetica,sans-Serif" font-size="10.00" fill="#000000">/mnt/hdd/fnky/C0de</text>
<text text-anchor="start" x="493" y="-24" font-family="Helvetica,sans-Serif" font-size="10.00" fill="#000000">/CAPSTONE/clean_build</text>
<text text-anchor="middle" x="551.5" y="-13" font-family="Helvetica,sans-Serif" font-size="10.00" fill="#000000">/src/Actors/Gun_Actor.cpp</text>
</a>
</g>
</g>
<!-- Node12&#45;&gt;Node16 -->
<g id="edge5" class="edge">
<title>Node12&#45;&gt;Node16</title>
<path fill="none" stroke="#191970" d="M1167.9288,-103.6727C1009.2964,-94.0926 726.6911,-74.7066 626.5,-53 619.2118,-51.421 611.6613,-49.329 604.2833,-47.0108"/>
<polygon fill="#191970" stroke="#191970" points="1168.0032,-107.1834 1178.1951,-104.2895 1168.423,-100.196 1168.0032,-107.1834"/>
</g>
<!-- Node17 -->
<g id="node7" class="node">
<title>Node17</title>
<g id="a_node7"><a xlink:href="NPC__Actor_8cpp.html" target="_top" xlink:title="/mnt/hdd/fnky/C0de\l/CAPSTONE/clean_build\l/src/Actors/NPC_Actor.cpp">
<polygon fill="none" stroke="#000000" points="636,-6 636,-47 773,-47 773,-6 636,-6"/>
<text text-anchor="start" x="644" y="-35" font-family="Helvetica,sans-Serif" font-size="10.00" fill="#000000">/mnt/hdd/fnky/C0de</text>
<text text-anchor="start" x="644" y="-24" font-family="Helvetica,sans-Serif" font-size="10.00" fill="#000000">/CAPSTONE/clean_build</text>
<text text-anchor="middle" x="704.5" y="-13" font-family="Helvetica,sans-Serif" font-size="10.00" fill="#000000">/src/Actors/NPC_Actor.cpp</text>
</a>
</g>
</g>
<!-- Node12&#45;&gt;Node17 -->
<g id="edge6" class="edge">
<title>Node12&#45;&gt;Node17</title>
<path fill="none" stroke="#191970" d="M1168.2288,-104.0459C1066.7526,-97.0135 913.1739,-82.3377 782.5,-53 775.2437,-51.3709 767.717,-49.3102 760.3291,-47.0605"/>
<polygon fill="#191970" stroke="#191970" points="1168.2822,-107.5576 1178.4965,-104.7437 1168.7569,-100.5737 1168.2822,-107.5576"/>
</g>
<!-- Node18 -->
<g id="node8" class="node">
<title>Node18</title>
<g id="a_node8"><a xlink:href="PickUps__Actor_8cpp.html" target="_top" xlink:title="/mnt/hdd/fnky/C0de\l/CAPSTONE/clean_build\l/src/Actors/PickUps_Actor.cpp">
<polygon fill="none" stroke="#000000" points="791.5,-6 791.5,-47 943.5,-47 943.5,-6 791.5,-6"/>
<text text-anchor="start" x="799.5" y="-35" font-family="Helvetica,sans-Serif" font-size="10.00" fill="#000000">/mnt/hdd/fnky/C0de</text>
<text text-anchor="start" x="799.5" y="-24" font-family="Helvetica,sans-Serif" font-size="10.00" fill="#000000">/CAPSTONE/clean_build</text>
<text text-anchor="middle" x="867.5" y="-13" font-family="Helvetica,sans-Serif" font-size="10.00" fill="#000000">/src/Actors/PickUps_Actor.cpp</text>
</a>
</g>
</g>
<!-- Node12&#45;&gt;Node18 -->
<g id="edge7" class="edge">
<title>Node12&#45;&gt;Node18</title>
<path fill="none" stroke="#191970" d="M1168.2079,-94.2672C1104.6133,-84.3647 1023.61,-70.2057 952.5,-53 945.2885,-51.2551 937.793,-49.2329 930.3736,-47.0987"/>
<polygon fill="#191970" stroke="#191970" points="1167.8437,-97.7524 1178.2608,-95.8198 1168.9122,-90.8344 1167.8437,-97.7524"/>
</g>
<!-- Node19 -->
<g id="node9" class="node">
<title>Node19</title>
<g id="a_node9"><a xlink:href="Platform__Actor_8cpp.html" target="_top" xlink:title="/mnt/hdd/fnky/C0de\l/CAPSTONE/clean_build\l/src/Actors/Platform_Actor.cpp">
<polygon fill="none" stroke="#000000" points="961.5,-6 961.5,-47 1113.5,-47 1113.5,-6 961.5,-6"/>
<text text-anchor="start" x="969.5" y="-35" font-family="Helvetica,sans-Serif" font-size="10.00" fill="#000000">/mnt/hdd/fnky/C0de</text>
<text text-anchor="start" x="969.5" y="-24" font-family="Helvetica,sans-Serif" font-size="10.00" fill="#000000">/CAPSTONE/clean_build</text>
<text text-anchor="middle" x="1037.5" y="-13" font-family="Helvetica,sans-Serif" font-size="10.00" fill="#000000">/src/Actors/Platform_Actor.cpp</text>
</a>
</g>
</g>
<!-- Node12&#45;&gt;Node19 -->
<g id="edge8" class="edge">
<title>Node12&#45;&gt;Node19</title>
<path fill="none" stroke="#191970" d="M1210.1341,-86.0659C1174.4485,-73.7529 1131.3876,-58.8951 1097.1995,-47.0988"/>
<polygon fill="#191970" stroke="#191970" points="1209.3955,-89.5135 1219.9902,-89.4667 1211.6787,-82.8963 1209.3955,-89.5135"/>
</g>
<!-- Node20 -->
<g id="node10" class="node">
<title>Node20</title>
<g id="a_node10"><a xlink:href="Player__Actor_8cpp.html" target="_top" xlink:title="/mnt/hdd/fnky/C0de\l/CAPSTONE/clean_build\l/src/Actors/Player_Actor.cpp">
<polygon fill="none" stroke="#000000" points="1132,-6 1132,-47 1275,-47 1275,-6 1132,-6"/>
<text text-anchor="start" x="1140" y="-35" font-family="Helvetica,sans-Serif" font-size="10.00" fill="#000000">/mnt/hdd/fnky/C0de</text>
<text text-anchor="start" x="1140" y="-24" font-family="Helvetica,sans-Serif" font-size="10.00" fill="#000000">/CAPSTONE/clean_build</text>
<text text-anchor="middle" x="1203.5" y="-13" font-family="Helvetica,sans-Serif" font-size="10.00" fill="#000000">/src/Actors/Player_Actor.cpp</text>
</a>
</g>
</g>
<!-- Node12&#45;&gt;Node20 -->
<g id="edge9" class="edge">
<title>Node12&#45;&gt;Node20</title>
<path fill="none" stroke="#191970" d="M1253.8325,-81.7995C1243.5168,-70.4658 1231.8411,-57.6379 1222.3338,-47.1924"/>
<polygon fill="#191970" stroke="#191970" points="1251.3939,-84.32 1260.7135,-89.3595 1256.5707,-79.6082 1251.3939,-84.32"/>
</g>
<!-- Node21 -->
<g id="node11" class="node">
<title>Node21</title>
<g id="a_node11"><a xlink:href="Projectile__Actor_8cpp.html" target="_top" xlink:title="/mnt/hdd/fnky/C0de\l/CAPSTONE/clean_build\l/src/Actors/Projectile\l_Actor.cpp">
<polygon fill="none" stroke="#000000" points="1293,-.5 1293,-52.5 1420,-52.5 1420,-.5 1293,-.5"/>
<text text-anchor="start" x="1301" y="-40.5" font-family="Helvetica,sans-Serif" font-size="10.00" fill="#000000">/mnt/hdd/fnky/C0de</text>
<text text-anchor="start" x="1301" y="-29.5" font-family="Helvetica,sans-Serif" font-size="10.00" fill="#000000">/CAPSTONE/clean_build</text>
<text text-anchor="start" x="1301" y="-18.5" font-family="Helvetica,sans-Serif" font-size="10.00" fill="#000000">/src/Actors/Projectile</text>
<text text-anchor="middle" x="1356.5" y="-7.5" font-family="Helvetica,sans-Serif" font-size="10.00" fill="#000000">_Actor.cpp</text>
</a>
</g>
</g>
<!-- Node12&#45;&gt;Node21 -->
<g id="edge10" class="edge">
<title>Node12&#45;&gt;Node21</title>
<path fill="none" stroke="#191970" d="M1305.5687,-81.7307C1314.2627,-72.3027 1323.9042,-61.8474 1332.4386,-52.5925"/>
<polygon fill="#191970" stroke="#191970" points="1302.7399,-79.6354 1298.5337,-89.3595 1307.8859,-84.3808 1302.7399,-79.6354"/>
</g>
<!-- Node22 -->
<g id="node12" class="node">
<title>Node22</title>
<g id="a_node12"><a xlink:href="Texture__Actor_8cpp.html" target="_top" xlink:title="/mnt/hdd/fnky/C0de\l/CAPSTONE/clean_build\l/src/Actors/Texture_Actor.cpp">
<polygon fill="none" stroke="#000000" points="1438.5,-6 1438.5,-47 1586.5,-47 1586.5,-6 1438.5,-6"/>
<text text-anchor="start" x="1446.5" y="-35" font-family="Helvetica,sans-Serif" font-size="10.00" fill="#000000">/mnt/hdd/fnky/C0de</text>
<text text-anchor="start" x="1446.5" y="-24" font-family="Helvetica,sans-Serif" font-size="10.00" fill="#000000">/CAPSTONE/clean_build</text>
<text text-anchor="middle" x="1512.5" y="-13" font-family="Helvetica,sans-Serif" font-size="10.00" fill="#000000">/src/Actors/Texture_Actor.cpp</text>
</a>
</g>
</g>
<!-- Node12&#45;&gt;Node22 -->
<g id="edge11" class="edge">
<title>Node12&#45;&gt;Node22</title>
<path fill="none" stroke="#191970" d="M1346.2862,-86.0659C1380.6447,-73.7529 1422.104,-58.8951 1455.0207,-47.0988"/>
<polygon fill="#191970" stroke="#191970" points="1345.0296,-82.7982 1336.7966,-89.4667 1347.3912,-89.3878 1345.0296,-82.7982"/>
</g>
<!-- Node23 -->
<g id="node13" class="node">
<title>Node23</title>
<g id="a_node13"><a xlink:href="RenderComponent_8cpp.html" target="_top" xlink:title="/mnt/hdd/fnky/C0de\l/CAPSTONE/clean_build\l/src/Components/RenderComponent.cpp">
<polygon fill="none" stroke="#000000" points="1605,-6 1605,-47 1800,-47 1800,-6 1605,-6"/>
<text text-anchor="start" x="1613" y="-35" font-family="Helvetica,sans-Serif" font-size="10.00" fill="#000000">/mnt/hdd/fnky/C0de</text>
<text text-anchor="start" x="1613" y="-24" font-family="Helvetica,sans-Serif" font-size="10.00" fill="#000000">/CAPSTONE/clean_build</text>
<text text-anchor="middle" x="1702.5" y="-13" font-family="Helvetica,sans-Serif" font-size="10.00" fill="#000000">/src/Components/RenderComponent.cpp</text>
</a>
</g>
</g>
<!-- Node12&#45;&gt;Node23 -->
<g id="edge12" class="edge">
<title>Node12&#45;&gt;Node23</title>
<path fill="none" stroke="#191970" d="M1390.1923,-89.0561C1390.2949,-89.0374 1390.3975,-89.0187 1390.5,-89 1481.504,-72.4017 1504.9944,-72.1305 1595.5,-53 1604.113,-51.1794 1613.0855,-49.1575 1622.0101,-47.0654"/>
<polygon fill="#191970" stroke="#191970" points="1389.7246,-85.5834 1380.5199,-90.8298 1390.9872,-92.4686 1389.7246,-85.5834"/>
</g>
<!-- Node24 -->
<g id="node14" class="node">
<title>Node24</title>
<g id="a_node14"><a xlink:href="LoadingGameObjects_8cpp.html" target="_top" xlink:title="/mnt/hdd/fnky/C0de\l/CAPSTONE/clean_build\l/src/Loaders/LoadingGameObjects.cpp">
<polygon fill="none" stroke="#000000" points="1817.5,-6 1817.5,-47 2003.5,-47 2003.5,-6 1817.5,-6"/>
<text text-anchor="start" x="1825.5" y="-35" font-family="Helvetica,sans-Serif" font-size="10.00" fill="#000000">/mnt/hdd/fnky/C0de</text>
<text text-anchor="start" x="1825.5" y="-24" font-family="Helvetica,sans-Serif" font-size="10.00" fill="#000000">/CAPSTONE/clean_build</text>
<text text-anchor="middle" x="1910.5" y="-13" font-family="Helvetica,sans-Serif" font-size="10.00" fill="#000000">/src/Loaders/LoadingGameObjects.cpp</text>
</a>
</g>
</g>
<!-- Node12&#45;&gt;Node24 -->
<g id="edge13" class="edge">
<title>Node12&#45;&gt;Node24</title>
<path fill="none" stroke="#191970" d="M1390.9034,-89.0356C1577.4608,-64.3254 1628.56,-84.2739 1809.5,-53 1818.8783,-51.379 1828.6577,-49.3084 1838.2794,-47.0407"/>
<polygon fill="#191970" stroke="#191970" points="1390.1995,-85.5988 1380.7578,-90.4054 1391.1362,-92.5358 1390.1995,-85.5988"/>
</g>
<!-- Node25 -->
<g id="node15" class="node">
<title>Node25</title>
<g id="a_node15"><a xlink:href="game__over__state_8cpp.html" target="_top" xlink:title="/mnt/hdd/fnky/C0de\l/CAPSTONE/clean_build\l/src/States/game_over\l_state.cpp">
<polygon fill="none" stroke="#000000" points="2022,-.5 2022,-52.5 2149,-52.5 2149,-.5 2022,-.5"/>
<text text-anchor="start" x="2030" y="-40.5" font-family="Helvetica,sans-Serif" font-size="10.00" fill="#000000">/mnt/hdd/fnky/C0de</text>
<text text-anchor="start" x="2030" y="-29.5" font-family="Helvetica,sans-Serif" font-size="10.00" fill="#000000">/CAPSTONE/clean_build</text>
<text text-anchor="start" x="2030" y="-18.5" font-family="Helvetica,sans-Serif" font-size="10.00" fill="#000000">/src/States/game_over</text>
<text text-anchor="middle" x="2085.5" y="-7.5" font-family="Helvetica,sans-Serif" font-size="10.00" fill="#000000">_state.cpp</text>
</a>
</g>
</g>
<!-- Node12&#45;&gt;Node25 -->
<g id="edge14" class="edge">
<title>Node12&#45;&gt;Node25</title>
<path fill="none" stroke="#191970" d="M1391.0721,-89.042C1667.2187,-56.4854 1744.5906,-108.15 2012.5,-53 2015.5374,-52.3747 2018.6182,-51.6479 2021.7102,-50.8429"/>
<polygon fill="#191970" stroke="#191970" points="1390.2514,-85.6155 1380.7425,-90.2879 1391.0897,-92.5651 1390.2514,-85.6155"/>
</g>
<!-- Node26 -->
<g id="node16" class="node">
<title>Node26</title>
<g id="a_node16"><a xlink:href="game__play__state_8cpp.html" target="_top" xlink:title="/mnt/hdd/fnky/C0de\l/CAPSTONE/clean_build\l/src/States/game_play\l_state.cpp">
<polygon fill="none" stroke="#000000" points="2167,-.5 2167,-52.5 2294,-52.5 2294,-.5 2167,-.5"/>
<text text-anchor="start" x="2175" y="-40.5" font-family="Helvetica,sans-Serif" font-size="10.00" fill="#000000">/mnt/hdd/fnky/C0de</text>
<text text-anchor="start" x="2175" y="-29.5" font-family="Helvetica,sans-Serif" font-size="10.00" fill="#000000">/CAPSTONE/clean_build</text>
<text text-anchor="start" x="2175" y="-18.5" font-family="Helvetica,sans-Serif" font-size="10.00" fill="#000000">/src/States/game_play</text>
<text text-anchor="middle" x="2230.5" y="-7.5" font-family="Helvetica,sans-Serif" font-size="10.00" fill="#000000">_state.cpp</text>
</a>
</g>
</g>
<!-- Node12&#45;&gt;Node26 -->
<g id="edge15" class="edge">
<title>Node12&#45;&gt;Node26</title>
<path fill="none" stroke="#191970" d="M1390.893,-89.0695C1731.7289,-50.5282 1826.8573,-120.1426 2158.5,-53 2161.2415,-52.445 2164.0178,-51.8027 2166.8046,-51.0912"/>
<polygon fill="#191970" stroke="#191970" points="1390.2697,-85.6182 1380.7369,-90.2416 1391.0723,-92.572 1390.2697,-85.6182"/>
</g>
<!-- Node27 -->
<g id="node17" class="node">
<title>Node27</title>
<g id="a_node17"><a xlink:href="main__menu__state_8cpp.html" target="_top" xlink:title="/mnt/hdd/fnky/C0de\l/CAPSTONE/clean_build\l/src/States/main_menu\l_state.cpp">
<polygon fill="none" stroke="#000000" points="2312,-.5 2312,-52.5 2439,-52.5 2439,-.5 2312,-.5"/>
<text text-anchor="start" x="2320" y="-40.5" font-family="Helvetica,sans-Serif" font-size="10.00" fill="#000000">/mnt/hdd/fnky/C0de</text>
<text text-anchor="start" x="2320" y="-29.5" font-family="Helvetica,sans-Serif" font-size="10.00" fill="#000000">/CAPSTONE/clean_build</text>
<text text-anchor="start" x="2320" y="-18.5" font-family="Helvetica,sans-Serif" font-size="10.00" fill="#000000">/src/States/main_menu</text>
<text text-anchor="middle" x="2375.5" y="-7.5" font-family="Helvetica,sans-Serif" font-size="10.00" fill="#000000">_state.cpp</text>
</a>
</g>
</g>
<!-- Node12&#45;&gt;Node27 -->
<g id="edge16" class="edge">
<title>Node12&#45;&gt;Node27</title>
<path fill="none" stroke="#191970" d="M1390.9624,-89.0658C1795.86,-44.596 1908.4916,-131.4447 2303.5,-53 2306.2436,-52.4552 2309.0215,-51.8214 2311.8098,-51.1169"/>
<polygon fill="#191970" stroke="#191970" points="1390.2821,-85.62 1380.7333,-90.2102 1391.0605,-92.5766 1390.2821,-85.62"/>
</g>
<!-- Node28 -->
<g id="node18" class="node">
<title>Node28</title>
<g id="a_node18"><a xlink:href="splash__state_8cpp.html" target="_top" xlink:title="/mnt/hdd/fnky/C0de\l/CAPSTONE/clean_build\l/src/States/splash_state.cpp">
<polygon fill="none" stroke="#000000" points="2457.5,-6 2457.5,-47 2599.5,-47 2599.5,-6 2457.5,-6"/>
<text text-anchor="start" x="2465.5" y="-35" font-family="Helvetica,sans-Serif" font-size="10.00" fill="#000000">/mnt/hdd/fnky/C0de</text>
<text text-anchor="start" x="2465.5" y="-24" font-family="Helvetica,sans-Serif" font-size="10.00" fill="#000000">/CAPSTONE/clean_build</text>
<text text-anchor="middle" x="2528.5" y="-13" font-family="Helvetica,sans-Serif" font-size="10.00" fill="#000000">/src/States/splash_state.cpp</text>
</a>
</g>
</g>
<!-- Node12&#45;&gt;Node28 -->
<g id="edge17" class="edge">
<title>Node12&#45;&gt;Node28</title>
<path fill="none" stroke="#191970" d="M1390.8183,-89.083C1859.9434,-38.5063 1988.631,-135.231 2448.5,-53 2456.5655,-51.5578 2464.9304,-49.4785 2473.0779,-47.1098"/>
<polygon fill="#191970" stroke="#191970" points="1390.2904,-85.6198 1380.7308,-90.1875 1391.0523,-92.5782 1390.2904,-85.6198"/>
</g>
</g>
</svg>
