<?xml version="1.0" encoding="UTF-8" standalone="no"?>
<!DOCTYPE svg PUBLIC "-//W3C//DTD SVG 1.1//EN"
 "http://www.w3.org/Graphics/SVG/1.1/DTD/svg11.dtd">
<!-- Generated by graphviz version 2.40.1 (20161225.0304)
 -->
<!-- Title: /mnt/hdd/fnky/C0de/CAPSTONE/clean_build/src/States/state_machine.cpp Pages: 1 -->
<svg width="246pt" height="173pt"
 viewBox="0.00 0.00 246.00 173.00" xmlns="http://www.w3.org/2000/svg" xmlns:xlink="http://www.w3.org/1999/xlink">
<g id="graph0" class="graph" transform="scale(1 1) rotate(0) translate(4 169)">
<title>/mnt/hdd/fnky/C0de/CAPSTONE/clean_build/src/States/state_machine.cpp</title>
<!-- Node0 -->
<g id="node1" class="node">
<title>Node0</title>
<polygon fill="#bfbfbf" stroke="#000000" points="23.5,-123.5 23.5,-164.5 173.5,-164.5 173.5,-123.5 23.5,-123.5"/>
<text text-anchor="start" x="31.5" y="-152.5" font-family="Helvetica,sans-Serif" font-size="10.00" fill="#000000">/mnt/hdd/fnky/C0de</text>
<text text-anchor="start" x="31.5" y="-141.5" font-family="Helvetica,sans-Serif" font-size="10.00" fill="#000000">/CAPSTONE/clean_build</text>
<text text-anchor="middle" x="98.5" y="-130.5" font-family="Helvetica,sans-Serif" font-size="10.00" fill="#000000">/src/States/state_machine.cpp</text>
</g>
<!-- Node1 -->
<g id="node2" class="node">
<title>Node1</title>
<g id="a_node2"><a xlink:href="state__machine_8h.html" target="_top" xlink:title="../../include/States\l/state_machine.h">
<polygon fill="none" stroke="#000000" points="50,-56.5 50,-86.5 147,-86.5 147,-56.5 50,-56.5"/>
<text text-anchor="start" x="58" y="-74.5" font-family="Helvetica,sans-Serif" font-size="10.00" fill="#000000">../../include/States</text>
<text text-anchor="middle" x="98.5" y="-63.5" font-family="Helvetica,sans-Serif" font-size="10.00" fill="#000000">/state_machine.h</text>
</a>
</g>
</g>
<!-- Node0&#45;&gt;Node1 -->
<g id="edge1" class="edge">
<title>Node0&#45;&gt;Node1</title>
<path fill="none" stroke="#191970" d="M98.5,-123.4183C98.5,-115.0849 98.5,-105.3834 98.5,-96.6373"/>
<polygon fill="#191970" stroke="#191970" points="102.0001,-96.5991 98.5,-86.5991 95.0001,-96.5991 102.0001,-96.5991"/>
</g>
<!-- Node2 -->
<g id="node3" class="node">
<title>Node2</title>
<polygon fill="none" stroke="#bfbfbf" points="0,-.5 0,-19.5 43,-19.5 43,-.5 0,-.5"/>
<text text-anchor="middle" x="21.5" y="-7.5" font-family="Helvetica,sans-Serif" font-size="10.00" fill="#000000">cstdio</text>
</g>
<!-- Node0&#45;&gt;Node2 -->
<g id="edge6" class="edge">
<title>Node0&#45;&gt;Node2</title>
<path fill="none" stroke="#191970" d="M72.3656,-123.3615C61.3808,-113.44 49.3545,-100.7257 41.5,-87 31.2445,-69.0785 26.1463,-45.8288 23.6794,-29.5861"/>
<polygon fill="#191970" stroke="#191970" points="27.1414,-29.0671 22.3609,-19.6121 20.2017,-29.9846 27.1414,-29.0671"/>
</g>
<!-- Node6 -->
<g id="node7" class="node">
<title>Node6</title>
<polygon fill="none" stroke="#bfbfbf" points="165.5,-62 165.5,-81 227.5,-81 227.5,-62 165.5,-62"/>
<text text-anchor="middle" x="196.5" y="-69" font-family="Helvetica,sans-Serif" font-size="10.00" fill="#000000">type_traits</text>
</g>
<!-- Node0&#45;&gt;Node6 -->
<g id="edge7" class="edge">
<title>Node0&#45;&gt;Node6</title>
<path fill="none" stroke="#191970" d="M126.3207,-123.4183C141.8789,-111.9085 160.9646,-97.789 175.303,-87.1815"/>
<polygon fill="#191970" stroke="#191970" points="177.5856,-89.8465 183.5433,-81.0853 173.4224,-84.219 177.5856,-89.8465"/>
</g>
<!-- Node1&#45;&gt;Node2 -->
<g id="edge2" class="edge">
<title>Node1&#45;&gt;Node2</title>
<path fill="none" stroke="#191970" d="M79.4663,-56.2977C67.9985,-47.1384 53.4038,-35.4816 41.7281,-26.1562"/>
<polygon fill="#191970" stroke="#191970" points="43.8266,-23.3529 33.8287,-19.8469 39.4581,-28.8225 43.8266,-23.3529"/>
</g>
<!-- Node3 -->
<g id="node4" class="node">
<title>Node3</title>
<polygon fill="none" stroke="#bfbfbf" points="61.5,-.5 61.5,-19.5 113.5,-19.5 113.5,-.5 61.5,-.5"/>
<text text-anchor="middle" x="87.5" y="-7.5" font-family="Helvetica,sans-Serif" font-size="10.00" fill="#000000">memory</text>
</g>
<!-- Node1&#45;&gt;Node3 -->
<g id="edge3" class="edge">
<title>Node1&#45;&gt;Node3</title>
<path fill="none" stroke="#191970" d="M95.7809,-56.2977C94.3494,-48.2945 92.5769,-38.3843 91.0395,-29.7889"/>
<polygon fill="#191970" stroke="#191970" points="94.4673,-29.0744 89.2612,-19.8469 87.5767,-30.307 94.4673,-29.0744"/>
</g>
<!-- Node4 -->
<g id="node5" class="node">
<title>Node4</title>
<polygon fill="none" stroke="#bfbfbf" points="132,-.5 132,-19.5 173,-19.5 173,-.5 132,-.5"/>
<text text-anchor="middle" x="152.5" y="-7.5" font-family="Helvetica,sans-Serif" font-size="10.00" fill="#000000">stack</text>
</g>
<!-- Node1&#45;&gt;Node4 -->
<g id="edge4" class="edge">
<title>Node1&#45;&gt;Node4</title>
<path fill="none" stroke="#191970" d="M111.8483,-56.2977C119.5002,-47.5831 129.1373,-36.6075 137.1076,-27.5302"/>
<polygon fill="#191970" stroke="#191970" points="139.8859,-29.6707 143.8539,-19.8469 134.6258,-25.052 139.8859,-29.6707"/>
</g>
<!-- Node5 -->
<g id="node6" class="node">
<title>Node5</title>
<g id="a_node6"><a xlink:href="state_8h.html" target="_top" xlink:title="state.h">
<polygon fill="none" stroke="#000000" points="191,-.5 191,-19.5 238,-19.5 238,-.5 191,-.5"/>
<text text-anchor="middle" x="214.5" y="-7.5" font-family="Helvetica,sans-Serif" font-size="10.00" fill="#000000">state.h</text>
</a>
</g>
</g>
<!-- Node1&#45;&gt;Node5 -->
<g id="edge5" class="edge">
<title>Node1&#45;&gt;Node5</title>
<path fill="none" stroke="#191970" d="M126.8768,-56.4554C145.3828,-46.644 169.3888,-33.9167 187.5931,-24.2653"/>
<polygon fill="#191970" stroke="#191970" points="189.3285,-27.3068 196.5241,-19.5303 186.0495,-21.1222 189.3285,-27.3068"/>
</g>
</g>
</svg>
