<?xml version="1.0" encoding="UTF-8" standalone="no"?>
<!DOCTYPE svg PUBLIC "-//W3C//DTD SVG 1.1//EN"
 "http://www.w3.org/Graphics/SVG/1.1/DTD/svg11.dtd">
<!-- Generated by graphviz version 2.40.1 (20161225.0304)
 -->
<!-- Title: /mnt/hdd/fnky/C0de/CAPSTONE/clean_build/include/States/state_machine.h Pages: 1 -->
<!--zoomable 395 -->
<svg id="main" version="1.1" xmlns="http://www.w3.org/2000/svg" xmlns:xlink="http://www.w3.org/1999/xlink" xml:space="preserve" onload="init(evt)">
<style type="text/css"><![CDATA[
.edge:hover path { stroke: red; }
.edge:hover polygon { stroke: red; fill: red; }
]]></style>
<script type="text/javascript"><![CDATA[
var edges = document.getElementsByTagName('g');
if (edges && edges.length) {
  for (var i=0;i<edges.length;i++) {
    if (edges[i].id.substr(0,4)=='edge') {
      edges[i].setAttribute('class','edge');
    }
  }
}
]]></script>
        <defs>
                <circle id="rim" cx="0" cy="0" r="7"/>
                <circle id="rim2" cx="0" cy="0" r="3.5"/>
                <g id="zoomPlus">
                        <use xlink:href="#rim" fill="#404040">
                                <set attributeName="fill" to="#808080" begin="zoomplus.mouseover" end="zoomplus.mouseout"/>
                        </use>
                        <path d="M-4,0h8M0,-4v8" fill="none" stroke="white" stroke-width="1.5" pointer-events="none"/>
                </g>
                <g id="zoomMin">
                        <use xlink:href="#rim" fill="#404040">
                                <set attributeName="fill" to="#808080" begin="zoomminus.mouseover" end="zoomminus.mouseout"/>
                        </use>
                        <path d="M-4,0h8" fill="none" stroke="white" stroke-width="1.5" pointer-events="none"/>
                </g>
                <g id="dirArrow">
                        <path fill="none" stroke="white" stroke-width="1.5" d="M0,-3.0v7 M-2.5,-0.5L0,-3.0L2.5,-0.5"/>
                </g>
               <g id="resetDef">
                       <use xlink:href="#rim2" fill="#404040">
                               <set attributeName="fill" to="#808080" begin="reset.mouseover" end="reset.mouseout"/>
                       </use>
               </g>
        </defs>

<script type="text/javascript">
var viewWidth = 1513;
var viewHeight = 395;
var sectionId = 'dynsection-1';
</script>
<script xlink:href="svgpan.js"/>
<svg id="graph" class="graph">
<g id="viewport">
<title>/mnt/hdd/fnky/C0de/CAPSTONE/clean_build/include/States/state_machine.h</title>
<!-- Node5 -->
<g id="node1" class="node">
<title>Node5</title>
<polygon fill="#bfbfbf" stroke="#000000" points="774,-334.5 774,-386.5 901,-386.5 901,-334.5 774,-334.5"/>
<text text-anchor="start" x="782" y="-374.5" font-family="Helvetica,sans-Serif" font-size="10.00" fill="#000000">/mnt/hdd/fnky/C0de</text>
<text text-anchor="start" x="782" y="-363.5" font-family="Helvetica,sans-Serif" font-size="10.00" fill="#000000">/CAPSTONE/clean_build</text>
<text text-anchor="start" x="782" y="-352.5" font-family="Helvetica,sans-Serif" font-size="10.00" fill="#000000">/include/States/state</text>
<text text-anchor="middle" x="837.5" y="-341.5" font-family="Helvetica,sans-Serif" font-size="10.00" fill="#000000">_machine.h</text>
</g>
<!-- Node6 -->
<g id="node2" class="node">
<title>Node6</title>
<g id="a_node2"><a xlink:href="GameData_8h.html" target="_top" xlink:title="/mnt/hdd/fnky/C0de\l/CAPSTONE/clean_build\l/include/GameData/GameData.h">
<polygon fill="none" stroke="#000000" points="672,-256.5 672,-297.5 831,-297.5 831,-256.5 672,-256.5"/>
<text text-anchor="start" x="680" y="-285.5" font-family="Helvetica,sans-Serif" font-size="10.00" fill="#000000">/mnt/hdd/fnky/C0de</text>
<text text-anchor="start" x="680" y="-274.5" font-family="Helvetica,sans-Serif" font-size="10.00" fill="#000000">/CAPSTONE/clean_build</text>
<text text-anchor="middle" x="751.5" y="-263.5" font-family="Helvetica,sans-Serif" font-size="10.00" fill="#000000">/include/GameData/GameData.h</text>
</a>
</g>
</g>
<!-- Node5&#45;&gt;Node6 -->
<g id="edge1" class="edge">
<title>Node5&#45;&gt;Node6</title>
<path fill="none" stroke="#191970" d="M803.0088,-327.0114C792.8011,-317.1005 781.9271,-306.5426 772.8137,-297.6941"/>
<polygon fill="#191970" stroke="#191970" points="800.6763,-329.6251 810.2891,-334.0801 805.5526,-324.6029 800.6763,-329.6251"/>
</g>
<!-- Node24 -->
<g id="node20" class="node">
<title>Node24</title>
<g id="a_node20"><a xlink:href="state__machine_8cpp.html" target="_top" xlink:title="/mnt/hdd/fnky/C0de\l/CAPSTONE/clean_build\l/src/States/state_machine.cpp">
<polygon fill="none" stroke="#000000" points="848.5,-256.5 848.5,-297.5 998.5,-297.5 998.5,-256.5 848.5,-256.5"/>
<text text-anchor="start" x="856.5" y="-285.5" font-family="Helvetica,sans-Serif" font-size="10.00" fill="#000000">/mnt/hdd/fnky/C0de</text>
<text text-anchor="start" x="856.5" y="-274.5" font-family="Helvetica,sans-Serif" font-size="10.00" fill="#000000">/CAPSTONE/clean_build</text>
<text text-anchor="middle" x="923.5" y="-263.5" font-family="Helvetica,sans-Serif" font-size="10.00" fill="#000000">/src/States/state_machine.cpp</text>
</a>
</g>
</g>
<!-- Node5&#45;&gt;Node24 -->
<g id="edge30" class="edge">
<title>Node5&#45;&gt;Node24</title>
<path fill="none" stroke="#191970" d="M871.9912,-327.0114C882.1989,-317.1005 893.0729,-306.5426 902.1863,-297.6941"/>
<polygon fill="#191970" stroke="#191970" points="869.4474,-324.6029 864.7109,-334.0801 874.3237,-329.6251 869.4474,-324.6029"/>
</g>
<!-- Node7 -->
<g id="node3" class="node">
<title>Node7</title>
<g id="a_node3"><a xlink:href="NetworkComponent_8h.html" target="_top" xlink:title="/mnt/hdd/fnky/C0de\l/CAPSTONE/clean_build\l/include/Components/NetworkComponent.h">
<polygon fill="none" stroke="#000000" points="0,-173 0,-214 207,-214 207,-173 0,-173"/>
<text text-anchor="start" x="8" y="-202" font-family="Helvetica,sans-Serif" font-size="10.00" fill="#000000">/mnt/hdd/fnky/C0de</text>
<text text-anchor="start" x="8" y="-191" font-family="Helvetica,sans-Serif" font-size="10.00" fill="#000000">/CAPSTONE/clean_build</text>
<text text-anchor="middle" x="103.5" y="-180" font-family="Helvetica,sans-Serif" font-size="10.00" fill="#000000">/include/Components/NetworkComponent.h</text>
</a>
</g>
</g>
<!-- Node6&#45;&gt;Node7 -->
<g id="edge2" class="edge">
<title>Node6&#45;&gt;Node7</title>
<path fill="none" stroke="#191970" d="M661.6546,-270.4722C555.8939,-262.0649 375.1805,-245.4357 221.5,-220 211.1427,-218.2858 200.3299,-216.2303 189.6346,-214.0322"/>
<polygon fill="#191970" stroke="#191970" points="661.408,-273.9635 671.6521,-271.2601 661.9581,-266.9851 661.408,-273.9635"/>
</g>
<!-- Node10 -->
<g id="node6" class="node">
<title>Node10</title>
<g id="a_node6"><a xlink:href="game__over__state_8h.html" target="_top" xlink:title="/mnt/hdd/fnky/C0de\l/CAPSTONE/clean_build\l/include/States/game_over\l_state.h">
<polygon fill="none" stroke="#000000" points="264,-167.5 264,-219.5 397,-219.5 397,-167.5 264,-167.5"/>
<text text-anchor="start" x="272" y="-207.5" font-family="Helvetica,sans-Serif" font-size="10.00" fill="#000000">/mnt/hdd/fnky/C0de</text>
<text text-anchor="start" x="272" y="-196.5" font-family="Helvetica,sans-Serif" font-size="10.00" fill="#000000">/CAPSTONE/clean_build</text>
<text text-anchor="start" x="272" y="-185.5" font-family="Helvetica,sans-Serif" font-size="10.00" fill="#000000">/include/States/game_over</text>
<text text-anchor="middle" x="330.5" y="-174.5" font-family="Helvetica,sans-Serif" font-size="10.00" fill="#000000">_state.h</text>
</a>
</g>
</g>
<!-- Node6&#45;&gt;Node10 -->
<g id="edge5" class="edge">
<title>Node6&#45;&gt;Node10</title>
<path fill="none" stroke="#191970" d="M661.8385,-265.7142C592.8466,-256.1303 495.424,-240.6394 411.5,-220 406.7586,-218.834 401.8937,-217.5282 397.0158,-216.1381"/>
<polygon fill="#191970" stroke="#191970" points="661.4227,-269.1899 671.8064,-267.0853 662.3766,-262.2552 661.4227,-269.1899"/>
</g>
<!-- Node11 -->
<g id="node7" class="node">
<title>Node11</title>
<g id="a_node7"><a xlink:href="game_8h.html" target="_top" xlink:title="/mnt/hdd/fnky/C0de\l/CAPSTONE/clean_build\l/include/Window/game.h">
<polygon fill="none" stroke="#000000" points="550,-84 550,-125 677,-125 677,-84 550,-84"/>
<text text-anchor="start" x="558" y="-113" font-family="Helvetica,sans-Serif" font-size="10.00" fill="#000000">/mnt/hdd/fnky/C0de</text>
<text text-anchor="start" x="558" y="-102" font-family="Helvetica,sans-Serif" font-size="10.00" fill="#000000">/CAPSTONE/clean_build</text>
<text text-anchor="middle" x="613.5" y="-91" font-family="Helvetica,sans-Serif" font-size="10.00" fill="#000000">/include/Window/game.h</text>
</a>
</g>
</g>
<!-- Node6&#45;&gt;Node11 -->
<g id="edge22" class="edge">
<title>Node6&#45;&gt;Node11</title>
<path fill="none" stroke="#191970" d="M671.3169,-251.7276C656.4745,-243.7247 642.5172,-233.3544 632.5,-220 611.6482,-192.2015 610.1756,-150.006 611.4966,-125.0502"/>
<polygon fill="#191970" stroke="#191970" points="670.1381,-255.052 680.6455,-256.4102 673.2784,-248.796 670.1381,-255.052"/>
</g>
<!-- Node13 -->
<g id="node9" class="node">
<title>Node13</title>
<g id="a_node9"><a xlink:href="game__over__state_8cpp.html" target="_top" xlink:title="/mnt/hdd/fnky/C0de\l/CAPSTONE/clean_build\l/src/States/game_over\l_state.cpp">
<polygon fill="none" stroke="#000000" points="260,-78.5 260,-130.5 387,-130.5 387,-78.5 260,-78.5"/>
<text text-anchor="start" x="268" y="-118.5" font-family="Helvetica,sans-Serif" font-size="10.00" fill="#000000">/mnt/hdd/fnky/C0de</text>
<text text-anchor="start" x="268" y="-107.5" font-family="Helvetica,sans-Serif" font-size="10.00" fill="#000000">/CAPSTONE/clean_build</text>
<text text-anchor="start" x="268" y="-96.5" font-family="Helvetica,sans-Serif" font-size="10.00" fill="#000000">/src/States/game_over</text>
<text text-anchor="middle" x="323.5" y="-85.5" font-family="Helvetica,sans-Serif" font-size="10.00" fill="#000000">_state.cpp</text>
</a>
</g>
</g>
<!-- Node6&#45;&gt;Node13 -->
<g id="edge25" class="edge">
<title>Node6&#45;&gt;Node13</title>
<path fill="none" stroke="#191970" d="M661.3495,-273.0531C525.447,-266.1666 281.0503,-249.7694 254.5,-220 238.8213,-202.4204 244.9511,-188.5333 254.5,-167 260.79,-152.8158 272.0656,-140.4806 283.7031,-130.6024"/>
<polygon fill="#191970" stroke="#191970" points="661.5824,-276.569 671.7445,-273.5721 661.9315,-269.5777 661.5824,-276.569"/>
</g>
<!-- Node14 -->
<g id="node10" class="node">
<title>Node14</title>
<g id="a_node10"><a xlink:href="game__play__state_8h.html" target="_top" xlink:title="/mnt/hdd/fnky/C0de\l/CAPSTONE/clean_build\l/include/States/game_play\l_state.h">
<polygon fill="none" stroke="#000000" points="453.5,-167.5 453.5,-219.5 585.5,-219.5 585.5,-167.5 453.5,-167.5"/>
<text text-anchor="start" x="461.5" y="-207.5" font-family="Helvetica,sans-Serif" font-size="10.00" fill="#000000">/mnt/hdd/fnky/C0de</text>
<text text-anchor="start" x="461.5" y="-196.5" font-family="Helvetica,sans-Serif" font-size="10.00" fill="#000000">/CAPSTONE/clean_build</text>
<text text-anchor="start" x="461.5" y="-185.5" font-family="Helvetica,sans-Serif" font-size="10.00" fill="#000000">/include/States/game_play</text>
<text text-anchor="middle" x="519.5" y="-174.5" font-family="Helvetica,sans-Serif" font-size="10.00" fill="#000000">_state.h</text>
</a>
</g>
</g>
<!-- Node6&#45;&gt;Node14 -->
<g id="edge10" class="edge">
<title>Node6&#45;&gt;Node14</title>
<path fill="none" stroke="#191970" d="M684.9906,-253.0623C653.8655,-241.86 616.8898,-228.5519 585.792,-217.3594"/>
<polygon fill="#191970" stroke="#191970" points="683.8548,-256.3733 694.4493,-256.4667 686.2254,-249.7869 683.8548,-256.3733"/>
</g>
<!-- Node15 -->
<g id="node11" class="node">
<title>Node15</title>
<g id="a_node11"><a xlink:href="game__play__state_8cpp.html" target="_top" xlink:title="/mnt/hdd/fnky/C0de\l/CAPSTONE/clean_build\l/src/States/game_play\l_state.cpp">
<polygon fill="none" stroke="#000000" points="405,-78.5 405,-130.5 532,-130.5 532,-78.5 405,-78.5"/>
<text text-anchor="start" x="413" y="-118.5" font-family="Helvetica,sans-Serif" font-size="10.00" fill="#000000">/mnt/hdd/fnky/C0de</text>
<text text-anchor="start" x="413" y="-107.5" font-family="Helvetica,sans-Serif" font-size="10.00" fill="#000000">/CAPSTONE/clean_build</text>
<text text-anchor="start" x="413" y="-96.5" font-family="Helvetica,sans-Serif" font-size="10.00" fill="#000000">/src/States/game_play</text>
<text text-anchor="middle" x="468.5" y="-85.5" font-family="Helvetica,sans-Serif" font-size="10.00" fill="#000000">_state.cpp</text>
</a>
</g>
</g>
<!-- Node6&#45;&gt;Node15 -->
<g id="edge26" class="edge">
<title>Node6&#45;&gt;Node15</title>
<path fill="none" stroke="#191970" d="M661.5312,-272.7045C581.0559,-266.7529 471.7116,-252.729 444.5,-220 423.6814,-194.9602 437.9816,-156.4696 451.8074,-130.8958"/>
<polygon fill="#191970" stroke="#191970" points="661.4674,-276.2087 671.6899,-273.4247 661.9625,-269.2262 661.4674,-276.2087"/>
</g>
<!-- Node16 -->
<g id="node12" class="node">
<title>Node16</title>
<g id="a_node12"><a xlink:href="loading__play__state_8h.html" target="_top" xlink:title="/mnt/hdd/fnky/C0de\l/CAPSTONE/clean_build\l/include/States/loading\l_play_state.h">
<polygon fill="none" stroke="#000000" points="642,-167.5 642,-219.5 769,-219.5 769,-167.5 642,-167.5"/>
<text text-anchor="start" x="650" y="-207.5" font-family="Helvetica,sans-Serif" font-size="10.00" fill="#000000">/mnt/hdd/fnky/C0de</text>
<text text-anchor="start" x="650" y="-196.5" font-family="Helvetica,sans-Serif" font-size="10.00" fill="#000000">/CAPSTONE/clean_build</text>
<text text-anchor="start" x="650" y="-185.5" font-family="Helvetica,sans-Serif" font-size="10.00" fill="#000000">/include/States/loading</text>
<text text-anchor="middle" x="705.5" y="-174.5" font-family="Helvetica,sans-Serif" font-size="10.00" fill="#000000">_play_state.h</text>
</a>
</g>
</g>
<!-- Node6&#45;&gt;Node16 -->
<g id="edge13" class="edge">
<title>Node6&#45;&gt;Node16</title>
<path fill="none" stroke="#191970" d="M735.3006,-247.5945C730.2729,-238.4682 724.7689,-228.4772 719.8743,-219.5925"/>
<polygon fill="#191970" stroke="#191970" points="732.2383,-249.2895 740.1292,-256.3595 738.3695,-245.9119 732.2383,-249.2895"/>
</g>
<!-- Node17 -->
<g id="node13" class="node">
<title>Node17</title>
<g id="a_node13"><a xlink:href="loading__play__state_8cpp.html" target="_top" xlink:title="/mnt/hdd/fnky/C0de\l/CAPSTONE/clean_build\l/src/States/loading_play\l_state.cpp">
<polygon fill="none" stroke="#000000" points="718,-78.5 718,-130.5 845,-130.5 845,-78.5 718,-78.5"/>
<text text-anchor="start" x="726" y="-118.5" font-family="Helvetica,sans-Serif" font-size="10.00" fill="#000000">/mnt/hdd/fnky/C0de</text>
<text text-anchor="start" x="726" y="-107.5" font-family="Helvetica,sans-Serif" font-size="10.00" fill="#000000">/CAPSTONE/clean_build</text>
<text text-anchor="start" x="726" y="-96.5" font-family="Helvetica,sans-Serif" font-size="10.00" fill="#000000">/src/States/loading_play</text>
<text text-anchor="middle" x="781.5" y="-85.5" font-family="Helvetica,sans-Serif" font-size="10.00" fill="#000000">_state.cpp</text>
</a>
</g>
</g>
<!-- Node6&#45;&gt;Node17 -->
<g id="edge27" class="edge">
<title>Node6&#45;&gt;Node17</title>
<path fill="none" stroke="#191970" d="M767.7697,-247.1578C771.679,-238.6261 775.3443,-229.1537 777.5,-220 784.5828,-189.924 784.5916,-154.2364 783.4742,-130.5724"/>
<polygon fill="#191970" stroke="#191970" points="764.5387,-245.7991 763.3197,-256.3235 770.8358,-248.8564 764.5387,-245.7991"/>
</g>
<!-- Node18 -->
<g id="node14" class="node">
<title>Node18</title>
<g id="a_node14"><a xlink:href="main__menu__state_8h.html" target="_top" xlink:title="/mnt/hdd/fnky/C0de\l/CAPSTONE/clean_build\l/include/States/main_menu\l_state.h">
<polygon fill="none" stroke="#000000" points="826,-167.5 826,-219.5 961,-219.5 961,-167.5 826,-167.5"/>
<text text-anchor="start" x="834" y="-207.5" font-family="Helvetica,sans-Serif" font-size="10.00" fill="#000000">/mnt/hdd/fnky/C0de</text>
<text text-anchor="start" x="834" y="-196.5" font-family="Helvetica,sans-Serif" font-size="10.00" fill="#000000">/CAPSTONE/clean_build</text>
<text text-anchor="start" x="834" y="-185.5" font-family="Helvetica,sans-Serif" font-size="10.00" fill="#000000">/include/States/main_menu</text>
<text text-anchor="middle" x="893.5" y="-174.5" font-family="Helvetica,sans-Serif" font-size="10.00" fill="#000000">_state.h</text>
</a>
</g>
</g>
<!-- Node6&#45;&gt;Node18 -->
<g id="edge16" class="edge">
<title>Node6&#45;&gt;Node18</title>
<path fill="none" stroke="#191970" d="M795.2911,-251.2496C812.3909,-241.1944 831.9717,-229.6804 849.1271,-219.5925"/>
<polygon fill="#191970" stroke="#191970" points="793.4471,-248.2736 786.6011,-256.3595 796.9954,-254.3077 793.4471,-248.2736"/>
</g>
<!-- Node19 -->
<g id="node15" class="node">
<title>Node19</title>
<g id="a_node15"><a xlink:href="main__menu__state_8cpp.html" target="_top" xlink:title="/mnt/hdd/fnky/C0de\l/CAPSTONE/clean_build\l/src/States/main_menu\l_state.cpp">
<polygon fill="none" stroke="#000000" points="875,-78.5 875,-130.5 1002,-130.5 1002,-78.5 875,-78.5"/>
<text text-anchor="start" x="883" y="-118.5" font-family="Helvetica,sans-Serif" font-size="10.00" fill="#000000">/mnt/hdd/fnky/C0de</text>
<text text-anchor="start" x="883" y="-107.5" font-family="Helvetica,sans-Serif" font-size="10.00" fill="#000000">/CAPSTONE/clean_build</text>
<text text-anchor="start" x="883" y="-96.5" font-family="Helvetica,sans-Serif" font-size="10.00" fill="#000000">/src/States/main_menu</text>
<text text-anchor="middle" x="938.5" y="-85.5" font-family="Helvetica,sans-Serif" font-size="10.00" fill="#000000">_state.cpp</text>
</a>
</g>
</g>
<!-- Node6&#45;&gt;Node19 -->
<g id="edge28" class="edge">
<title>Node6&#45;&gt;Node19</title>
<path fill="none" stroke="#191970" d="M841.0184,-254.8941C900.2285,-240.0645 967.3733,-222.7543 969.5,-220 989.5483,-194.0357 973.0409,-156.1248 957.4645,-130.9042"/>
<polygon fill="#191970" stroke="#191970" points="840.0685,-251.5238 831.216,-257.3448 841.7664,-258.3147 840.0685,-251.5238"/>
</g>
<!-- Node20 -->
<g id="node16" class="node">
<title>Node20</title>
<g id="a_node16"><a xlink:href="splash__state_8h.html" target="_top" xlink:title="/mnt/hdd/fnky/C0de\l/CAPSTONE/clean_build\l/include/States/splash\l_state.h">
<polygon fill="none" stroke="#000000" points="1018,-167.5 1018,-219.5 1145,-219.5 1145,-167.5 1018,-167.5"/>
<text text-anchor="start" x="1026" y="-207.5" font-family="Helvetica,sans-Serif" font-size="10.00" fill="#000000">/mnt/hdd/fnky/C0de</text>
<text text-anchor="start" x="1026" y="-196.5" font-family="Helvetica,sans-Serif" font-size="10.00" fill="#000000">/CAPSTONE/clean_build</text>
<text text-anchor="start" x="1026" y="-185.5" font-family="Helvetica,sans-Serif" font-size="10.00" fill="#000000">/include/States/splash</text>
<text text-anchor="middle" x="1081.5" y="-174.5" font-family="Helvetica,sans-Serif" font-size="10.00" fill="#000000">_state.h</text>
</a>
</g>
</g>
<!-- Node6&#45;&gt;Node20 -->
<g id="edge19" class="edge">
<title>Node6&#45;&gt;Node20</title>
<path fill="none" stroke="#191970" d="M841.2354,-255.6403C914.0025,-239.36 934.7039,-239.173 1003.5,-220 1008.1841,-218.6946 1012.9999,-217.2684 1017.8297,-215.7767"/>
<polygon fill="#191970" stroke="#191970" points="840.09,-252.311 831.1102,-257.9336 841.6364,-259.1381 840.09,-252.311"/>
</g>
<!-- Node21 -->
<g id="node17" class="node">
<title>Node21</title>
<g id="a_node17"><a xlink:href="splash__state_8cpp.html" target="_top" xlink:title="/mnt/hdd/fnky/C0de\l/CAPSTONE/clean_build\l/src/States/splash_state.cpp">
<polygon fill="none" stroke="#000000" points="1026.5,-84 1026.5,-125 1168.5,-125 1168.5,-84 1026.5,-84"/>
<text text-anchor="start" x="1034.5" y="-113" font-family="Helvetica,sans-Serif" font-size="10.00" fill="#000000">/mnt/hdd/fnky/C0de</text>
<text text-anchor="start" x="1034.5" y="-102" font-family="Helvetica,sans-Serif" font-size="10.00" fill="#000000">/CAPSTONE/clean_build</text>
<text text-anchor="middle" x="1097.5" y="-91" font-family="Helvetica,sans-Serif" font-size="10.00" fill="#000000">/src/States/splash_state.cpp</text>
</a>
</g>
</g>
<!-- Node6&#45;&gt;Node21 -->
<g id="edge29" class="edge">
<title>Node6&#45;&gt;Node21</title>
<path fill="none" stroke="#191970" d="M840.9514,-256.1093C924.5599,-245.9744 1109.472,-270.4671 1154.5,-220 1179.8077,-191.6352 1146.3678,-150.0094 1121.0443,-125.243"/>
<polygon fill="#191970" stroke="#191970" points="840.4209,-252.6496 831.0359,-257.5662 841.4385,-259.5753 840.4209,-252.6496"/>
</g>
<!-- Node22 -->
<g id="node18" class="node">
<title>Node22</title>
<g id="a_node18"><a xlink:href="Animated__Player__Actor_8cpp.html" target="_top" xlink:title="/mnt/hdd/fnky/C0de\l/CAPSTONE/clean_build\l/src/Actors/Animated_Player\l_Actor.cpp">
<polygon fill="none" stroke="#000000" points="1201.5,-167.5 1201.5,-219.5 1343.5,-219.5 1343.5,-167.5 1201.5,-167.5"/>
<text text-anchor="start" x="1209.5" y="-207.5" font-family="Helvetica,sans-Serif" font-size="10.00" fill="#000000">/mnt/hdd/fnky/C0de</text>
<text text-anchor="start" x="1209.5" y="-196.5" font-family="Helvetica,sans-Serif" font-size="10.00" fill="#000000">/CAPSTONE/clean_build</text>
<text text-anchor="start" x="1209.5" y="-185.5" font-family="Helvetica,sans-Serif" font-size="10.00" fill="#000000">/src/Actors/Animated_Player</text>
<text text-anchor="middle" x="1272.5" y="-174.5" font-family="Helvetica,sans-Serif" font-size="10.00" fill="#000000">_Actor.cpp</text>
</a>
</g>
</g>
<!-- Node6&#45;&gt;Node22 -->
<g id="edge23" class="edge">
<title>Node6&#45;&gt;Node22</title>
<path fill="none" stroke="#191970" d="M841.2919,-255.8135C994.6583,-230.7927 1038.4621,-250.6226 1187.5,-220 1192.0424,-219.0667 1196.6874,-217.9882 1201.3487,-216.8114"/>
<polygon fill="#191970" stroke="#191970" points="840.316,-252.428 831.0292,-257.5275 841.4691,-259.3323 840.316,-252.428"/>
</g>
<!-- Node23 -->
<g id="node19" class="node">
<title>Node23</title>
<g id="a_node19"><a xlink:href="Player__Actor_8cpp.html" target="_top" xlink:title="/mnt/hdd/fnky/C0de\l/CAPSTONE/clean_build\l/src/Actors/Player_Actor.cpp">
<polygon fill="none" stroke="#000000" points="1362,-173 1362,-214 1505,-214 1505,-173 1362,-173"/>
<text text-anchor="start" x="1370" y="-202" font-family="Helvetica,sans-Serif" font-size="10.00" fill="#000000">/mnt/hdd/fnky/C0de</text>
<text text-anchor="start" x="1370" y="-191" font-family="Helvetica,sans-Serif" font-size="10.00" fill="#000000">/CAPSTONE/clean_build</text>
<text text-anchor="middle" x="1433.5" y="-180" font-family="Helvetica,sans-Serif" font-size="10.00" fill="#000000">/src/Actors/Player_Actor.cpp</text>
</a>
</g>
</g>
<!-- Node6&#45;&gt;Node23 -->
<g id="edge24" class="edge">
<title>Node6&#45;&gt;Node23</title>
<path fill="none" stroke="#191970" d="M841.2016,-255.8738C1067.2936,-222.5836 1131.4741,-263.2238 1352.5,-220 1360.3413,-218.4666 1368.4786,-216.4009 1376.4381,-214.0959"/>
<polygon fill="#191970" stroke="#191970" points="840.3774,-252.4583 831.0098,-257.408 841.4195,-259.3803 840.3774,-252.4583"/>
</g>
<!-- Node8 -->
<g id="node4" class="node">
<title>Node8</title>
<g id="a_node4"><a xlink:href="NetworkComponent_8cpp.html" target="_top" xlink:title="/mnt/hdd/fnky/C0de\l/CAPSTONE/clean_build\l/src/Components/NetworkComponent.cpp">
<polygon fill="none" stroke="#000000" points="3.5,-84 3.5,-125 203.5,-125 203.5,-84 3.5,-84"/>
<text text-anchor="start" x="11.5" y="-113" font-family="Helvetica,sans-Serif" font-size="10.00" fill="#000000">/mnt/hdd/fnky/C0de</text>
<text text-anchor="start" x="11.5" y="-102" font-family="Helvetica,sans-Serif" font-size="10.00" fill="#000000">/CAPSTONE/clean_build</text>
<text text-anchor="middle" x="103.5" y="-91" font-family="Helvetica,sans-Serif" font-size="10.00" fill="#000000">/src/Components/NetworkComponent.cpp</text>
</a>
</g>
</g>
<!-- Node7&#45;&gt;Node8 -->
<g id="edge3" class="edge">
<title>Node7&#45;&gt;Node8</title>
<path fill="none" stroke="#191970" d="M103.5,-162.844C103.5,-150.3522 103.5,-136.2439 103.5,-125.0301"/>
<polygon fill="#191970" stroke="#191970" points="100.0001,-162.8579 103.5,-172.8579 107.0001,-162.8579 100.0001,-162.8579"/>
</g>
<!-- Node9 -->
<g id="node5" class="node">
<title>Node9</title>
<g id="a_node5"><a xlink:href="game_8cpp.html" target="_top" xlink:title="/mnt/hdd/fnky/C0de\l/CAPSTONE/clean_build\l/src/Window/game.cpp">
<polygon fill="none" stroke="#000000" points="287,-.5 287,-41.5 414,-41.5 414,-.5 287,-.5"/>
<text text-anchor="start" x="295" y="-29.5" font-family="Helvetica,sans-Serif" font-size="10.00" fill="#000000">/mnt/hdd/fnky/C0de</text>
<text text-anchor="start" x="295" y="-18.5" font-family="Helvetica,sans-Serif" font-size="10.00" fill="#000000">/CAPSTONE/clean_build</text>
<text text-anchor="middle" x="350.5" y="-7.5" font-family="Helvetica,sans-Serif" font-size="10.00" fill="#000000">/src/Window/game.cpp</text>
</a>
</g>
</g>
<!-- Node7&#45;&gt;Node9 -->
<g id="edge4" class="edge">
<title>Node7&#45;&gt;Node9</title>
<path fill="none" stroke="#191970" d="M157.9793,-168.2249C176.4397,-158.1695 196.4336,-145.5146 212.5,-131 234.0075,-111.5699 228.9677,-97.4025 250.5,-78 266.6074,-63.4858 287.0242,-51.0358 305.2043,-41.5073"/>
<polygon fill="#191970" stroke="#191970" points="156.2614,-165.1741 149.0641,-172.9491 159.539,-171.3594 156.2614,-165.1741"/>
</g>
<!-- Node10&#45;&gt;Node11 -->
<g id="edge6" class="edge">
<title>Node10&#45;&gt;Node11</title>
<path fill="none" stroke="#191970" d="M406.7077,-171.9925C446.7156,-160.4058 496.45,-145.5364 540.5,-131 546.1336,-129.1409 551.9872,-127.1381 557.8187,-125.0958"/>
<polygon fill="#191970" stroke="#191970" points="405.6553,-168.6533 397.0184,-174.7895 407.5968,-175.3786 405.6553,-168.6533"/>
</g>
<!-- Node10&#45;&gt;Node13 -->
<g id="edge9" class="edge">
<title>Node10&#45;&gt;Node13</title>
<path fill="none" stroke="#191970" d="M327.6383,-157.1155C326.9376,-148.2061 326.2015,-138.8475 325.5476,-130.5341"/>
<polygon fill="#191970" stroke="#191970" points="324.1642,-157.5837 328.4376,-167.2784 331.1427,-157.0348 324.1642,-157.5837"/>
</g>
<!-- Node11&#45;&gt;Node9 -->
<g id="edge8" class="edge">
<title>Node11&#45;&gt;Node9</title>
<path fill="none" stroke="#191970" d="M548.2688,-80.6132C545.6489,-79.7195 543.0518,-78.8452 540.5,-78 498.6542,-64.1402 451.1542,-49.8902 414.1157,-39.1052"/>
<polygon fill="#191970" stroke="#191970" points="547.2197,-83.9537 557.8145,-83.9169 549.5092,-77.3387 547.2197,-83.9537"/>
</g>
<!-- Node12 -->
<g id="node8" class="node">
<title>Node12</title>
<g id="a_node8"><a xlink:href="main_8cpp.html" target="_top" xlink:title="/mnt/hdd/fnky/C0de\l/CAPSTONE/clean_build\l/src/main.cpp">
<polygon fill="none" stroke="#000000" points="550,-.5 550,-41.5 677,-41.5 677,-.5 550,-.5"/>
<text text-anchor="start" x="558" y="-29.5" font-family="Helvetica,sans-Serif" font-size="10.00" fill="#000000">/mnt/hdd/fnky/C0de</text>
<text text-anchor="start" x="558" y="-18.5" font-family="Helvetica,sans-Serif" font-size="10.00" fill="#000000">/CAPSTONE/clean_build</text>
<text text-anchor="middle" x="613.5" y="-7.5" font-family="Helvetica,sans-Serif" font-size="10.00" fill="#000000">/src/main.cpp</text>
</a>
</g>
</g>
<!-- Node11&#45;&gt;Node12 -->
<g id="edge7" class="edge">
<title>Node11&#45;&gt;Node12</title>
<path fill="none" stroke="#191970" d="M613.5,-73.6593C613.5,-63.0064 613.5,-51.3344 613.5,-41.6924"/>
<polygon fill="#191970" stroke="#191970" points="610.0001,-73.8595 613.5,-83.8595 617.0001,-73.8596 610.0001,-73.8595"/>
</g>
<!-- Node14&#45;&gt;Node11 -->
<g id="edge11" class="edge">
<title>Node14&#45;&gt;Node11</title>
<path fill="none" stroke="#191970" d="M554.7289,-160.1449C567.1258,-148.4075 580.6903,-135.5645 591.6613,-125.1771"/>
<polygon fill="#191970" stroke="#191970" points="552.0499,-157.8615 547.1947,-167.2784 556.8626,-162.9447 552.0499,-157.8615"/>
</g>
<!-- Node14&#45;&gt;Node15 -->
<g id="edge12" class="edge">
<title>Node14&#45;&gt;Node15</title>
<path fill="none" stroke="#191970" d="M499.4804,-158.5639C494.1298,-149.2264 488.4412,-139.2993 483.4184,-130.5341"/>
<polygon fill="#191970" stroke="#191970" points="496.4655,-160.3422 504.4742,-167.2784 502.539,-156.8618 496.4655,-160.3422"/>
</g>
<!-- Node16&#45;&gt;Node11 -->
<g id="edge14" class="edge">
<title>Node16&#45;&gt;Node11</title>
<path fill="none" stroke="#191970" d="M671.0206,-160.1449C658.8876,-148.4075 645.6116,-135.5645 634.8741,-125.1771"/>
<polygon fill="#191970" stroke="#191970" points="668.7737,-162.8411 678.3946,-167.2784 673.6408,-157.8099 668.7737,-162.8411"/>
</g>
<!-- Node16&#45;&gt;Node17 -->
<g id="edge15" class="edge">
<title>Node16&#45;&gt;Node17</title>
<path fill="none" stroke="#191970" d="M734.5948,-159.4285C742.7813,-149.8416 751.5522,-139.5704 759.2686,-130.5341"/>
<polygon fill="#191970" stroke="#191970" points="731.7237,-157.4009 727.8914,-167.2784 737.0469,-161.9466 731.7237,-157.4009"/>
</g>
<!-- Node18&#45;&gt;Node11 -->
<g id="edge17" class="edge">
<title>Node18&#45;&gt;Node11</title>
<path fill="none" stroke="#191970" d="M815.9999,-168.866C772.3451,-154.9901 718.4887,-137.8714 677.2936,-124.7772"/>
<polygon fill="#191970" stroke="#191970" points="815.1294,-172.2618 825.7198,-171.9556 817.2499,-165.5907 815.1294,-172.2618"/>
</g>
<!-- Node18&#45;&gt;Node19 -->
<g id="edge18" class="edge">
<title>Node18&#45;&gt;Node19</title>
<path fill="none" stroke="#191970" d="M911.3104,-158.2749C915.9889,-149.0219 920.9505,-139.209 925.3367,-130.5341"/>
<polygon fill="#191970" stroke="#191970" points="908.1469,-156.775 906.7581,-167.2784 914.3938,-159.9336 908.1469,-156.775"/>
</g>
<!-- Node20&#45;&gt;Node11 -->
<g id="edge20" class="edge">
<title>Node20&#45;&gt;Node11</title>
<path fill="none" stroke="#191970" d="M1007.6852,-174.9839C994.9927,-172.1018 981.8987,-169.3164 969.5,-167 854.3934,-145.4947 823.1571,-154.7857 708.5,-131 698.2729,-128.8784 687.5257,-126.2632 677.087,-123.5102"/>
<polygon fill="#191970" stroke="#191970" points="1007.2263,-178.4699 1017.7573,-177.309 1008.8008,-171.6493 1007.2263,-178.4699"/>
</g>
<!-- Node20&#45;&gt;Node21 -->
<g id="edge21" class="edge">
<title>Node20&#45;&gt;Node21</title>
<path fill="none" stroke="#191970" d="M1088.0378,-157.1335C1089.9954,-146.2443 1092.0739,-134.6825 1093.7828,-125.1771"/>
<polygon fill="#191970" stroke="#191970" points="1084.5387,-156.8169 1086.214,-167.2784 1091.4282,-158.0555 1084.5387,-156.8169"/>
</g>
</g>
</svg>
        <g id="navigator" transform="translate(0 0)" fill="#404254">
                <rect fill="#f2f5e9" fill-opacity="0.5" stroke="#606060" stroke-width=".5" x="0" y="0" width="60" height="60"/>
                <use id="zoomplus" xlink:href="#zoomPlus" x="17" y="9" onmousedown="handleZoom(evt,'in')"/>
                <use id="zoomminus" xlink:href="#zoomMin" x="42" y="9" onmousedown="handleZoom(evt,'out')"/>
                <use id="reset" xlink:href="#resetDef" x="30" y="36" onmousedown="handleReset()"/>
                <g id="arrowUp" xlink:href="#dirArrow" transform="translate(30 24)" onmousedown="handlePan(0,-1)">
                  <use xlink:href="#rim" fill="#404040">
                        <set attributeName="fill" to="#808080" begin="arrowUp.mouseover" end="arrowUp.mouseout"/>
                  </use>
                  <path fill="none" stroke="white" stroke-width="1.5" d="M0,-3.0v7 M-2.5,-0.5L0,-3.0L2.5,-0.5"/>
                </g>
                <g id="arrowRight" xlink:href="#dirArrow" transform="rotate(90) translate(36 -43)" onmousedown="handlePan(1,0)">
                  <use xlink:href="#rim" fill="#404040">
                        <set attributeName="fill" to="#808080" begin="arrowRight.mouseover" end="arrowRight.mouseout"/>
                  </use>
                  <path fill="none" stroke="white" stroke-width="1.5" d="M0,-3.0v7 M-2.5,-0.5L0,-3.0L2.5,-0.5"/>
                </g>
                <g id="arrowDown" xlink:href="#dirArrow" transform="rotate(180) translate(-30 -48)" onmousedown="handlePan(0,1)">
                  <use xlink:href="#rim" fill="#404040">
                        <set attributeName="fill" to="#808080" begin="arrowDown.mouseover" end="arrowDown.mouseout"/>
                  </use>
                  <path fill="none" stroke="white" stroke-width="1.5" d="M0,-3.0v7 M-2.5,-0.5L0,-3.0L2.5,-0.5"/>
                </g>
                <g id="arrowLeft" xlink:href="#dirArrow" transform="rotate(270) translate(-36 17)" onmousedown="handlePan(-1,0)">
                  <use xlink:href="#rim" fill="#404040">
                        <set attributeName="fill" to="#808080" begin="arrowLeft.mouseover" end="arrowLeft.mouseout"/>
                  </use>
                  <path fill="none" stroke="white" stroke-width="1.5" d="M0,-3.0v7 M-2.5,-0.5L0,-3.0L2.5,-0.5"/>
                </g>
        </g>
        <svg viewBox="0 0 15 15" width="100%" height="30px" preserveAspectRatio="xMaxYMin meet">
         <g id="arrow_out" transform="scale(0.3 0.3)">
          <a xlink:href="state__machine_8h__dep__incl_org.svg" target="_base">
           <rect id="button" ry="5" rx="5" y="6" x="6" height="38" width="38"
                fill="#f2f5e9" fill-opacity="0.5" stroke="#606060" stroke-width="1.0"/>
           <path id="arrow"
             d="M 11.500037,31.436501 C 11.940474,20.09759 22.043105,11.32322 32.158766,21.979434 L 37.068811,17.246167 C 37.068811,17.246167 37.088388,32 37.088388,32 L 22.160133,31.978069 C 22.160133,31.978069 26.997745,27.140456 26.997745,27.140456 C 18.528582,18.264221 13.291696,25.230495 11.500037,31.436501 z"
             style="fill:#404040;"/>
          </a>
         </g>
        </svg>
</svg>
