<?xml version="1.0" encoding="UTF-8" standalone="no"?>
<!DOCTYPE svg PUBLIC "-//W3C//DTD SVG 1.1//EN"
 "http://www.w3.org/Graphics/SVG/1.1/DTD/svg11.dtd">
<!-- Generated by graphviz version 2.40.1 (20161225.0304)
 -->
<!-- Title: /mnt/hdd/fnky/C0de/CAPSTONE/clean_build/include/States/state.h Pages: 1 -->
<!--zoomable 473 -->
<svg id="main" version="1.1" xmlns="http://www.w3.org/2000/svg" xmlns:xlink="http://www.w3.org/1999/xlink" xml:space="preserve" onload="init(evt)">
<style type="text/css"><![CDATA[
.edge:hover path { stroke: red; }
.edge:hover polygon { stroke: red; fill: red; }
]]></style>
<script type="text/javascript"><![CDATA[
var edges = document.getElementsByTagName('g');
if (edges && edges.length) {
  for (var i=0;i<edges.length;i++) {
    if (edges[i].id.substr(0,4)=='edge') {
      edges[i].setAttribute('class','edge');
    }
  }
}
]]></script>
        <defs>
                <circle id="rim" cx="0" cy="0" r="7"/>
                <circle id="rim2" cx="0" cy="0" r="3.5"/>
                <g id="zoomPlus">
                        <use xlink:href="#rim" fill="#404040">
                                <set attributeName="fill" to="#808080" begin="zoomplus.mouseover" end="zoomplus.mouseout"/>
                        </use>
                        <path d="M-4,0h8M0,-4v8" fill="none" stroke="white" stroke-width="1.5" pointer-events="none"/>
                </g>
                <g id="zoomMin">
                        <use xlink:href="#rim" fill="#404040">
                                <set attributeName="fill" to="#808080" begin="zoomminus.mouseover" end="zoomminus.mouseout"/>
                        </use>
                        <path d="M-4,0h8" fill="none" stroke="white" stroke-width="1.5" pointer-events="none"/>
                </g>
                <g id="dirArrow">
                        <path fill="none" stroke="white" stroke-width="1.5" d="M0,-3.0v7 M-2.5,-0.5L0,-3.0L2.5,-0.5"/>
                </g>
               <g id="resetDef">
                       <use xlink:href="#rim2" fill="#404040">
                               <set attributeName="fill" to="#808080" begin="reset.mouseover" end="reset.mouseout"/>
                       </use>
               </g>
        </defs>

<script type="text/javascript">
var viewWidth = 1518;
var viewHeight = 473;
var sectionId = 'dynsection-0';
</script>
<script xlink:href="svgpan.js"/>
<svg id="graph" class="graph">
<g id="viewport">
<title>/mnt/hdd/fnky/C0de/CAPSTONE/clean_build/include/States/state.h</title>
<!-- Node1 -->
<g id="node1" class="node">
<title>Node1</title>
<polygon fill="#bfbfbf" stroke="#000000" points="959,-423.5 959,-464.5 1086,-464.5 1086,-423.5 959,-423.5"/>
<text text-anchor="start" x="967" y="-452.5" font-family="Helvetica,sans-Serif" font-size="10.00" fill="#000000">/mnt/hdd/fnky/C0de</text>
<text text-anchor="start" x="967" y="-441.5" font-family="Helvetica,sans-Serif" font-size="10.00" fill="#000000">/CAPSTONE/clean_build</text>
<text text-anchor="middle" x="1022.5" y="-430.5" font-family="Helvetica,sans-Serif" font-size="10.00" fill="#000000">/include/States/state.h</text>
</g>
<!-- Node2 -->
<g id="node2" class="node">
<title>Node2</title>
<g id="a_node2"><a xlink:href="state__machine_8h.html" target="_top" xlink:title="/mnt/hdd/fnky/C0de\l/CAPSTONE/clean_build\l/include/States/state\l_machine.h">
<polygon fill="none" stroke="#000000" points="908,-334.5 908,-386.5 1035,-386.5 1035,-334.5 908,-334.5"/>
<text text-anchor="start" x="916" y="-374.5" font-family="Helvetica,sans-Serif" font-size="10.00" fill="#000000">/mnt/hdd/fnky/C0de</text>
<text text-anchor="start" x="916" y="-363.5" font-family="Helvetica,sans-Serif" font-size="10.00" fill="#000000">/CAPSTONE/clean_build</text>
<text text-anchor="start" x="916" y="-352.5" font-family="Helvetica,sans-Serif" font-size="10.00" fill="#000000">/include/States/state</text>
<text text-anchor="middle" x="971.5" y="-341.5" font-family="Helvetica,sans-Serif" font-size="10.00" fill="#000000">_machine.h</text>
</a>
</g>
</g>
<!-- Node1&#45;&gt;Node2 -->
<g id="edge1" class="edge">
<title>Node1&#45;&gt;Node2</title>
<path fill="none" stroke="#191970" d="M1004.5398,-414.5945C998.9656,-405.4682 992.8633,-395.4772 987.4368,-386.5925"/>
<polygon fill="#191970" stroke="#191970" points="1001.6938,-416.6498 1009.8933,-423.3595 1007.6677,-413.0011 1001.6938,-416.6498"/>
</g>
<!-- Node7 -->
<g id="node7" class="node">
<title>Node7</title>
<g id="a_node7"><a xlink:href="game__over__state_8h.html" target="_top" xlink:title="/mnt/hdd/fnky/C0de\l/CAPSTONE/clean_build\l/include/States/game_over\l_state.h">
<polygon fill="none" stroke="#000000" points="44,-167.5 44,-219.5 177,-219.5 177,-167.5 44,-167.5"/>
<text text-anchor="start" x="52" y="-207.5" font-family="Helvetica,sans-Serif" font-size="10.00" fill="#000000">/mnt/hdd/fnky/C0de</text>
<text text-anchor="start" x="52" y="-196.5" font-family="Helvetica,sans-Serif" font-size="10.00" fill="#000000">/CAPSTONE/clean_build</text>
<text text-anchor="start" x="52" y="-185.5" font-family="Helvetica,sans-Serif" font-size="10.00" fill="#000000">/include/States/game_over</text>
<text text-anchor="middle" x="110.5" y="-174.5" font-family="Helvetica,sans-Serif" font-size="10.00" fill="#000000">_state.h</text>
</a>
</g>
</g>
<!-- Node1&#45;&gt;Node7 -->
<g id="edge32" class="edge">
<title>Node1&#45;&gt;Node7</title>
<path fill="none" stroke="#191970" d="M948.8202,-427.597C900.5348,-416.631 836.1077,-401.5892 779.5,-387 513.9425,-318.5591 446.9251,-302.8362 185.5,-220 182.7354,-219.124 179.9197,-218.2134 177.0799,-217.2798"/>
<polygon fill="#191970" stroke="#191970" points="948.344,-431.0778 958.8702,-429.8736 949.8905,-424.2507 948.344,-431.0778"/>
</g>
<!-- Node11 -->
<g id="node11" class="node">
<title>Node11</title>
<g id="a_node11"><a xlink:href="game__play__state_8h.html" target="_top" xlink:title="/mnt/hdd/fnky/C0de\l/CAPSTONE/clean_build\l/include/States/game_play\l_state.h">
<polygon fill="none" stroke="#000000" points="458.5,-167.5 458.5,-219.5 590.5,-219.5 590.5,-167.5 458.5,-167.5"/>
<text text-anchor="start" x="466.5" y="-207.5" font-family="Helvetica,sans-Serif" font-size="10.00" fill="#000000">/mnt/hdd/fnky/C0de</text>
<text text-anchor="start" x="466.5" y="-196.5" font-family="Helvetica,sans-Serif" font-size="10.00" fill="#000000">/CAPSTONE/clean_build</text>
<text text-anchor="start" x="466.5" y="-185.5" font-family="Helvetica,sans-Serif" font-size="10.00" fill="#000000">/include/States/game_play</text>
<text text-anchor="middle" x="524.5" y="-174.5" font-family="Helvetica,sans-Serif" font-size="10.00" fill="#000000">_state.h</text>
</a>
</g>
</g>
<!-- Node1&#45;&gt;Node11 -->
<g id="edge33" class="edge">
<title>Node1&#45;&gt;Node11</title>
<path fill="none" stroke="#191970" d="M968.0155,-419.1153C946.3544,-409.1801 921.2251,-397.6018 898.5,-387 814.7228,-347.916 792.6259,-340.4442 710.5,-298 661.3078,-272.5765 606.1375,-241.2084 568.7478,-219.5092"/>
<polygon fill="#191970" stroke="#191970" points="966.8361,-422.4248 977.3851,-423.4096 969.7527,-416.0613 966.8361,-422.4248"/>
</g>
<!-- Node13 -->
<g id="node13" class="node">
<title>Node13</title>
<g id="a_node13"><a xlink:href="loading__play__state_8h.html" target="_top" xlink:title="/mnt/hdd/fnky/C0de\l/CAPSTONE/clean_build\l/include/States/loading\l_play_state.h">
<polygon fill="none" stroke="#000000" points="1199,-167.5 1199,-219.5 1326,-219.5 1326,-167.5 1199,-167.5"/>
<text text-anchor="start" x="1207" y="-207.5" font-family="Helvetica,sans-Serif" font-size="10.00" fill="#000000">/mnt/hdd/fnky/C0de</text>
<text text-anchor="start" x="1207" y="-196.5" font-family="Helvetica,sans-Serif" font-size="10.00" fill="#000000">/CAPSTONE/clean_build</text>
<text text-anchor="start" x="1207" y="-185.5" font-family="Helvetica,sans-Serif" font-size="10.00" fill="#000000">/include/States/loading</text>
<text text-anchor="middle" x="1262.5" y="-174.5" font-family="Helvetica,sans-Serif" font-size="10.00" fill="#000000">_play_state.h</text>
</a>
</g>
</g>
<!-- Node1&#45;&gt;Node13 -->
<g id="edge34" class="edge">
<title>Node1&#45;&gt;Node13</title>
<path fill="none" stroke="#191970" d="M1049.6387,-415.674C1096.5023,-366.7602 1191.9317,-267.1557 1237.3673,-219.7322"/>
<polygon fill="#191970" stroke="#191970" points="1046.9403,-413.4312 1042.5495,-423.0734 1051.9949,-418.2739 1046.9403,-413.4312"/>
</g>
<!-- Node15 -->
<g id="node15" class="node">
<title>Node15</title>
<g id="a_node15"><a xlink:href="main__menu__state_8h.html" target="_top" xlink:title="/mnt/hdd/fnky/C0de\l/CAPSTONE/clean_build\l/include/States/main_menu\l_state.h">
<polygon fill="none" stroke="#000000" points="1007,-167.5 1007,-219.5 1142,-219.5 1142,-167.5 1007,-167.5"/>
<text text-anchor="start" x="1015" y="-207.5" font-family="Helvetica,sans-Serif" font-size="10.00" fill="#000000">/mnt/hdd/fnky/C0de</text>
<text text-anchor="start" x="1015" y="-196.5" font-family="Helvetica,sans-Serif" font-size="10.00" fill="#000000">/CAPSTONE/clean_build</text>
<text text-anchor="start" x="1015" y="-185.5" font-family="Helvetica,sans-Serif" font-size="10.00" fill="#000000">/include/States/main_menu</text>
<text text-anchor="middle" x="1074.5" y="-174.5" font-family="Helvetica,sans-Serif" font-size="10.00" fill="#000000">_state.h</text>
</a>
</g>
</g>
<!-- Node1&#45;&gt;Node15 -->
<g id="edge35" class="edge">
<title>Node1&#45;&gt;Node15</title>
<path fill="none" stroke="#191970" d="M1034.8392,-413.8707C1038.0104,-405.2958 1041.1783,-395.8731 1043.5,-387 1058.873,-328.2485 1067.8794,-257.3521 1071.9236,-219.811"/>
<polygon fill="#191970" stroke="#191970" points="1031.4734,-412.8733 1031.1656,-423.4637 1038.0104,-415.3767 1031.4734,-412.8733"/>
</g>
<!-- Node17 -->
<g id="node17" class="node">
<title>Node17</title>
<g id="a_node17"><a xlink:href="splash__state_8h.html" target="_top" xlink:title="/mnt/hdd/fnky/C0de\l/CAPSTONE/clean_build\l/include/States/splash\l_state.h">
<polygon fill="none" stroke="#000000" points="1383,-167.5 1383,-219.5 1510,-219.5 1510,-167.5 1383,-167.5"/>
<text text-anchor="start" x="1391" y="-207.5" font-family="Helvetica,sans-Serif" font-size="10.00" fill="#000000">/mnt/hdd/fnky/C0de</text>
<text text-anchor="start" x="1391" y="-196.5" font-family="Helvetica,sans-Serif" font-size="10.00" fill="#000000">/CAPSTONE/clean_build</text>
<text text-anchor="start" x="1391" y="-185.5" font-family="Helvetica,sans-Serif" font-size="10.00" fill="#000000">/include/States/splash</text>
<text text-anchor="middle" x="1446.5" y="-174.5" font-family="Helvetica,sans-Serif" font-size="10.00" fill="#000000">_state.h</text>
</a>
</g>
</g>
<!-- Node1&#45;&gt;Node17 -->
<g id="edge36" class="edge">
<title>Node1&#45;&gt;Node17</title>
<path fill="none" stroke="#191970" d="M1066.5468,-417.9771C1147.9095,-369.9078 1320.8741,-267.72 1402.3295,-219.596"/>
<polygon fill="#191970" stroke="#191970" points="1064.3878,-415.1874 1057.5584,-423.2874 1067.9484,-421.2141 1064.3878,-415.1874"/>
</g>
<!-- Node3 -->
<g id="node3" class="node">
<title>Node3</title>
<g id="a_node3"><a xlink:href="GameData_8h.html" target="_top" xlink:title="/mnt/hdd/fnky/C0de\l/CAPSTONE/clean_build\l/include/GameData/GameData.h">
<polygon fill="none" stroke="#000000" points="720,-256.5 720,-297.5 879,-297.5 879,-256.5 720,-256.5"/>
<text text-anchor="start" x="728" y="-285.5" font-family="Helvetica,sans-Serif" font-size="10.00" fill="#000000">/mnt/hdd/fnky/C0de</text>
<text text-anchor="start" x="728" y="-274.5" font-family="Helvetica,sans-Serif" font-size="10.00" fill="#000000">/CAPSTONE/clean_build</text>
<text text-anchor="middle" x="799.5" y="-263.5" font-family="Helvetica,sans-Serif" font-size="10.00" fill="#000000">/include/GameData/GameData.h</text>
</a>
</g>
</g>
<!-- Node2&#45;&gt;Node3 -->
<g id="edge2" class="edge">
<title>Node2&#45;&gt;Node3</title>
<path fill="none" stroke="#191970" d="M908.514,-329.9225C886.3067,-319.1416 861.8894,-307.2879 841.8031,-297.5367"/>
<polygon fill="#191970" stroke="#191970" points="907.0255,-333.0905 917.55,-334.3092 910.0826,-326.7933 907.0255,-333.0905"/>
</g>
<!-- Node21 -->
<g id="node21" class="node">
<title>Node21</title>
<g id="a_node21"><a xlink:href="state__machine_8cpp.html" target="_top" xlink:title="/mnt/hdd/fnky/C0de\l/CAPSTONE/clean_build\l/src/States/state_machine.cpp">
<polygon fill="none" stroke="#000000" points="896.5,-256.5 896.5,-297.5 1046.5,-297.5 1046.5,-256.5 896.5,-256.5"/>
<text text-anchor="start" x="904.5" y="-285.5" font-family="Helvetica,sans-Serif" font-size="10.00" fill="#000000">/mnt/hdd/fnky/C0de</text>
<text text-anchor="start" x="904.5" y="-274.5" font-family="Helvetica,sans-Serif" font-size="10.00" fill="#000000">/CAPSTONE/clean_build</text>
<text text-anchor="middle" x="971.5" y="-263.5" font-family="Helvetica,sans-Serif" font-size="10.00" fill="#000000">/src/States/state_machine.cpp</text>
</a>
</g>
</g>
<!-- Node2&#45;&gt;Node21 -->
<g id="edge31" class="edge">
<title>Node2&#45;&gt;Node21</title>
<path fill="none" stroke="#191970" d="M971.5,-323.8168C971.5,-314.8649 971.5,-305.5976 971.5,-297.6941"/>
<polygon fill="#191970" stroke="#191970" points="968.0001,-324.08 971.5,-334.0801 975.0001,-324.0801 968.0001,-324.08"/>
</g>
<!-- Node4 -->
<g id="node4" class="node">
<title>Node4</title>
<g id="a_node4"><a xlink:href="NetworkComponent_8h.html" target="_top" xlink:title="/mnt/hdd/fnky/C0de\l/CAPSTONE/clean_build\l/include/Components/NetworkComponent.h">
<polygon fill="none" stroke="#000000" points="195,-173 195,-214 402,-214 402,-173 195,-173"/>
<text text-anchor="start" x="203" y="-202" font-family="Helvetica,sans-Serif" font-size="10.00" fill="#000000">/mnt/hdd/fnky/C0de</text>
<text text-anchor="start" x="203" y="-191" font-family="Helvetica,sans-Serif" font-size="10.00" fill="#000000">/CAPSTONE/clean_build</text>
<text text-anchor="middle" x="298.5" y="-180" font-family="Helvetica,sans-Serif" font-size="10.00" fill="#000000">/include/Components/NetworkComponent.h</text>
</a>
</g>
</g>
<!-- Node3&#45;&gt;Node4 -->
<g id="edge3" class="edge">
<title>Node3&#45;&gt;Node4</title>
<path fill="none" stroke="#191970" d="M709.7484,-265.5323C631.9335,-255.1393 516.4302,-238.6312 416.5,-220 406.7989,-218.1913 396.6825,-216.1535 386.6303,-214.0317"/>
<polygon fill="#191970" stroke="#191970" points="709.6228,-269.0463 719.9969,-266.8948 710.5454,-262.1073 709.6228,-269.0463"/>
</g>
<!-- Node3&#45;&gt;Node7 -->
<g id="edge6" class="edge">
<title>Node3&#45;&gt;Node7</title>
<path fill="none" stroke="#191970" d="M709.6381,-271.3957C564.0172,-261.8531 282.9557,-241.3948 185.5,-220 182.8023,-219.4078 180.0683,-218.7463 177.3203,-218.0301"/>
<polygon fill="#191970" stroke="#191970" points="709.6778,-274.9056 719.8844,-272.0638 710.1333,-267.9205 709.6778,-274.9056"/>
</g>
<!-- Node8 -->
<g id="node8" class="node">
<title>Node8</title>
<g id="a_node8"><a xlink:href="game_8h.html" target="_top" xlink:title="/mnt/hdd/fnky/C0de\l/CAPSTONE/clean_build\l/include/Window/game.h">
<polygon fill="none" stroke="#000000" points="915,-84 915,-125 1042,-125 1042,-84 915,-84"/>
<text text-anchor="start" x="923" y="-113" font-family="Helvetica,sans-Serif" font-size="10.00" fill="#000000">/mnt/hdd/fnky/C0de</text>
<text text-anchor="start" x="923" y="-102" font-family="Helvetica,sans-Serif" font-size="10.00" fill="#000000">/CAPSTONE/clean_build</text>
<text text-anchor="middle" x="978.5" y="-91" font-family="Helvetica,sans-Serif" font-size="10.00" fill="#000000">/include/Window/game.h</text>
</a>
</g>
</g>
<!-- Node3&#45;&gt;Node8 -->
<g id="edge23" class="edge">
<title>Node3&#45;&gt;Node8</title>
<path fill="none" stroke="#191970" d="M888.7882,-253.8379C919.8114,-244.0391 949.3935,-232.1016 959.5,-220 981.7748,-193.3281 982.7693,-150.7541 980.9741,-125.4228"/>
<polygon fill="#191970" stroke="#191970" points="887.6626,-250.5222 879.134,-256.8081 889.7211,-257.2127 887.6626,-250.5222"/>
</g>
<!-- Node10 -->
<g id="node10" class="node">
<title>Node10</title>
<g id="a_node10"><a xlink:href="game__over__state_8cpp.html" target="_top" xlink:title="/mnt/hdd/fnky/C0de\l/CAPSTONE/clean_build\l/src/States/game_over\l_state.cpp">
<polygon fill="none" stroke="#000000" points="0,-78.5 0,-130.5 127,-130.5 127,-78.5 0,-78.5"/>
<text text-anchor="start" x="8" y="-118.5" font-family="Helvetica,sans-Serif" font-size="10.00" fill="#000000">/mnt/hdd/fnky/C0de</text>
<text text-anchor="start" x="8" y="-107.5" font-family="Helvetica,sans-Serif" font-size="10.00" fill="#000000">/CAPSTONE/clean_build</text>
<text text-anchor="start" x="8" y="-96.5" font-family="Helvetica,sans-Serif" font-size="10.00" fill="#000000">/src/States/game_over</text>
<text text-anchor="middle" x="63.5" y="-85.5" font-family="Helvetica,sans-Serif" font-size="10.00" fill="#000000">_state.cpp</text>
</a>
</g>
</g>
<!-- Node3&#45;&gt;Node10 -->
<g id="edge26" class="edge">
<title>Node3&#45;&gt;Node10</title>
<path fill="none" stroke="#191970" d="M709.7406,-273.546C512.5468,-265.5225 57.182,-244.4349 34.5,-220 11.9953,-195.7561 28.9496,-156.6999 44.83,-130.817"/>
<polygon fill="#191970" stroke="#191970" points="709.6553,-277.0453 719.7887,-273.9526 709.9384,-270.0511 709.6553,-277.0453"/>
</g>
<!-- Node3&#45;&gt;Node11 -->
<g id="edge11" class="edge">
<title>Node3&#45;&gt;Node11</title>
<path fill="none" stroke="#191970" d="M713.3652,-253.7125C677.9434,-243.809 636.6023,-231.8293 599.5,-220 596.6054,-219.0771 593.6545,-218.1172 590.6782,-217.1333"/>
<polygon fill="#191970" stroke="#191970" points="712.6181,-257.1376 723.1906,-256.4489 714.4962,-250.3942 712.6181,-257.1376"/>
</g>
<!-- Node12 -->
<g id="node12" class="node">
<title>Node12</title>
<g id="a_node12"><a xlink:href="game__play__state_8cpp.html" target="_top" xlink:title="/mnt/hdd/fnky/C0de\l/CAPSTONE/clean_build\l/src/States/game_play\l_state.cpp">
<polygon fill="none" stroke="#000000" points="458,-78.5 458,-130.5 585,-130.5 585,-78.5 458,-78.5"/>
<text text-anchor="start" x="466" y="-118.5" font-family="Helvetica,sans-Serif" font-size="10.00" fill="#000000">/mnt/hdd/fnky/C0de</text>
<text text-anchor="start" x="466" y="-107.5" font-family="Helvetica,sans-Serif" font-size="10.00" fill="#000000">/CAPSTONE/clean_build</text>
<text text-anchor="start" x="466" y="-96.5" font-family="Helvetica,sans-Serif" font-size="10.00" fill="#000000">/src/States/game_play</text>
<text text-anchor="middle" x="521.5" y="-85.5" font-family="Helvetica,sans-Serif" font-size="10.00" fill="#000000">_state.cpp</text>
</a>
</g>
</g>
<!-- Node3&#45;&gt;Node12 -->
<g id="edge27" class="edge">
<title>Node3&#45;&gt;Node12</title>
<path fill="none" stroke="#191970" d="M709.4681,-268.3726C611.4213,-258.0492 466.2311,-239.6763 449.5,-220 434.241,-202.0549 439.7242,-188.4312 449.5,-167 456.026,-152.6932 467.6237,-140.3978 479.6302,-130.5912"/>
<polygon fill="#191970" stroke="#191970" points="709.3836,-271.8827 719.6926,-269.4381 710.1092,-264.9204 709.3836,-271.8827"/>
</g>
<!-- Node3&#45;&gt;Node13 -->
<g id="edge14" class="edge">
<title>Node3&#45;&gt;Node13</title>
<path fill="none" stroke="#191970" d="M889.0646,-255.8293C1020.2152,-233.3332 1058.0228,-248.8232 1184.5,-220 1189.2411,-218.9195 1194.0987,-217.6586 1198.9582,-216.2843"/>
<polygon fill="#191970" stroke="#191970" points="888.2835,-252.4128 879.0403,-257.5908 889.4951,-259.3072 888.2835,-252.4128"/>
</g>
<!-- Node14 -->
<g id="node14" class="node">
<title>Node14</title>
<g id="a_node14"><a xlink:href="loading__play__state_8cpp.html" target="_top" xlink:title="/mnt/hdd/fnky/C0de\l/CAPSTONE/clean_build\l/src/States/loading_play\l_state.cpp">
<polygon fill="none" stroke="#000000" points="1122,-78.5 1122,-130.5 1249,-130.5 1249,-78.5 1122,-78.5"/>
<text text-anchor="start" x="1130" y="-118.5" font-family="Helvetica,sans-Serif" font-size="10.00" fill="#000000">/mnt/hdd/fnky/C0de</text>
<text text-anchor="start" x="1130" y="-107.5" font-family="Helvetica,sans-Serif" font-size="10.00" fill="#000000">/CAPSTONE/clean_build</text>
<text text-anchor="start" x="1130" y="-96.5" font-family="Helvetica,sans-Serif" font-size="10.00" fill="#000000">/src/States/loading_play</text>
<text text-anchor="middle" x="1185.5" y="-85.5" font-family="Helvetica,sans-Serif" font-size="10.00" fill="#000000">_state.cpp</text>
</a>
</g>
</g>
<!-- Node3&#45;&gt;Node14 -->
<g id="edge28" class="edge">
<title>Node3&#45;&gt;Node14</title>
<path fill="none" stroke="#191970" d="M888.9885,-256.0489C960.2413,-246.26 1107.7263,-256.4909 1150.5,-220 1176.3229,-197.9702 1183.4795,-157.5697 1185.2535,-130.8708"/>
<polygon fill="#191970" stroke="#191970" points="888.3682,-252.6036 879.0504,-257.6464 889.4792,-259.5149 888.3682,-252.6036"/>
</g>
<!-- Node3&#45;&gt;Node15 -->
<g id="edge17" class="edge">
<title>Node3&#45;&gt;Node15</title>
<path fill="none" stroke="#191970" d="M880.7024,-253.5153C915.2284,-243.4013 955.8925,-231.319 992.5,-220 997.2168,-218.5416 1002.0802,-217.0188 1006.9739,-215.4725"/>
<polygon fill="#191970" stroke="#191970" points="879.2827,-250.2839 870.6672,-256.4503 881.2477,-257.0024 879.2827,-250.2839"/>
</g>
<!-- Node16 -->
<g id="node16" class="node">
<title>Node16</title>
<g id="a_node16"><a xlink:href="main__menu__state_8cpp.html" target="_top" xlink:title="/mnt/hdd/fnky/C0de\l/CAPSTONE/clean_build\l/src/States/main_menu\l_state.cpp">
<polygon fill="none" stroke="#000000" points="743,-78.5 743,-130.5 870,-130.5 870,-78.5 743,-78.5"/>
<text text-anchor="start" x="751" y="-118.5" font-family="Helvetica,sans-Serif" font-size="10.00" fill="#000000">/mnt/hdd/fnky/C0de</text>
<text text-anchor="start" x="751" y="-107.5" font-family="Helvetica,sans-Serif" font-size="10.00" fill="#000000">/CAPSTONE/clean_build</text>
<text text-anchor="start" x="751" y="-96.5" font-family="Helvetica,sans-Serif" font-size="10.00" fill="#000000">/src/States/main_menu</text>
<text text-anchor="middle" x="806.5" y="-85.5" font-family="Helvetica,sans-Serif" font-size="10.00" fill="#000000">_state.cpp</text>
</a>
</g>
</g>
<!-- Node3&#45;&gt;Node16 -->
<g id="edge29" class="edge">
<title>Node3&#45;&gt;Node16</title>
<path fill="none" stroke="#191970" d="M798.5828,-246.1916C798.1496,-224.1238 798.0089,-193.7094 799.5,-167 800.1694,-155.0083 801.556,-141.7825 802.9198,-130.5972"/>
<polygon fill="#191970" stroke="#191970" points="795.0862,-246.3839 798.8131,-256.3016 802.0843,-246.2245 795.0862,-246.3839"/>
</g>
<!-- Node3&#45;&gt;Node17 -->
<g id="edge20" class="edge">
<title>Node3&#45;&gt;Node17</title>
<path fill="none" stroke="#191970" d="M888.9071,-255.9127C1101.1472,-224.201 1161.6244,-262.1742 1368.5,-220 1373.1245,-219.0572 1377.8528,-217.9172 1382.5814,-216.6464"/>
<polygon fill="#191970" stroke="#191970" points="888.3689,-252.4543 879.0124,-257.4248 889.4264,-259.3739 888.3689,-252.4543"/>
</g>
<!-- Node18 -->
<g id="node18" class="node">
<title>Node18</title>
<g id="a_node18"><a xlink:href="splash__state_8cpp.html" target="_top" xlink:title="/mnt/hdd/fnky/C0de\l/CAPSTONE/clean_build\l/src/States/splash_state.cpp">
<polygon fill="none" stroke="#000000" points="1329.5,-84 1329.5,-125 1471.5,-125 1471.5,-84 1329.5,-84"/>
<text text-anchor="start" x="1337.5" y="-113" font-family="Helvetica,sans-Serif" font-size="10.00" fill="#000000">/mnt/hdd/fnky/C0de</text>
<text text-anchor="start" x="1337.5" y="-102" font-family="Helvetica,sans-Serif" font-size="10.00" fill="#000000">/CAPSTONE/clean_build</text>
<text text-anchor="middle" x="1400.5" y="-91" font-family="Helvetica,sans-Serif" font-size="10.00" fill="#000000">/src/States/splash_state.cpp</text>
</a>
</g>
</g>
<!-- Node3&#45;&gt;Node18 -->
<g id="edge30" class="edge">
<title>Node3&#45;&gt;Node18</title>
<path fill="none" stroke="#191970" d="M889.149,-256.0302C1001.7715,-242.3099 1252.9327,-271.8237 1334.5,-220 1352.2389,-208.7296 1378.1138,-155.1069 1391.5906,-125.048"/>
<polygon fill="#191970" stroke="#191970" points="888.4354,-252.5957 879.0157,-257.4453 889.4037,-259.5285 888.4354,-252.5957"/>
</g>
<!-- Node19 -->
<g id="node19" class="node">
<title>Node19</title>
<g id="a_node19"><a xlink:href="Animated__Player__Actor_8cpp.html" target="_top" xlink:title="/mnt/hdd/fnky/C0de\l/CAPSTONE/clean_build\l/src/Actors/Animated_Player\l_Actor.cpp">
<polygon fill="none" stroke="#000000" points="808.5,-167.5 808.5,-219.5 950.5,-219.5 950.5,-167.5 808.5,-167.5"/>
<text text-anchor="start" x="816.5" y="-207.5" font-family="Helvetica,sans-Serif" font-size="10.00" fill="#000000">/mnt/hdd/fnky/C0de</text>
<text text-anchor="start" x="816.5" y="-196.5" font-family="Helvetica,sans-Serif" font-size="10.00" fill="#000000">/CAPSTONE/clean_build</text>
<text text-anchor="start" x="816.5" y="-185.5" font-family="Helvetica,sans-Serif" font-size="10.00" fill="#000000">/src/Actors/Animated_Player</text>
<text text-anchor="middle" x="879.5" y="-174.5" font-family="Helvetica,sans-Serif" font-size="10.00" fill="#000000">_Actor.cpp</text>
</a>
</g>
</g>
<!-- Node3&#45;&gt;Node19 -->
<g id="edge24" class="edge">
<title>Node3&#45;&gt;Node19</title>
<path fill="none" stroke="#191970" d="M826.3137,-249.0132C835.4167,-239.512 845.5455,-228.94 854.5012,-219.5925"/>
<polygon fill="#191970" stroke="#191970" points="823.6661,-246.7174 819.2753,-256.3595 828.7207,-251.5601 823.6661,-246.7174"/>
</g>
<!-- Node20 -->
<g id="node20" class="node">
<title>Node20</title>
<g id="a_node20"><a xlink:href="Player__Actor_8cpp.html" target="_top" xlink:title="/mnt/hdd/fnky/C0de\l/CAPSTONE/clean_build\l/src/Actors/Player_Actor.cpp">
<polygon fill="none" stroke="#000000" points="609,-173 609,-214 752,-214 752,-173 609,-173"/>
<text text-anchor="start" x="617" y="-202" font-family="Helvetica,sans-Serif" font-size="10.00" fill="#000000">/mnt/hdd/fnky/C0de</text>
<text text-anchor="start" x="617" y="-191" font-family="Helvetica,sans-Serif" font-size="10.00" fill="#000000">/CAPSTONE/clean_build</text>
<text text-anchor="middle" x="680.5" y="-180" font-family="Helvetica,sans-Serif" font-size="10.00" fill="#000000">/src/Actors/Player_Actor.cpp</text>
</a>
</g>
</g>
<!-- Node3&#45;&gt;Node20 -->
<g id="edge25" class="edge">
<title>Node3&#45;&gt;Node20</title>
<path fill="none" stroke="#191970" d="M761.6243,-250.4234C744.9236,-238.7048 725.5919,-225.1401 709.9898,-214.1924"/>
<polygon fill="#191970" stroke="#191970" points="759.888,-253.4807 770.0843,-256.3595 763.9088,-247.7506 759.888,-253.4807"/>
</g>
<!-- Node5 -->
<g id="node5" class="node">
<title>Node5</title>
<g id="a_node5"><a xlink:href="NetworkComponent_8cpp.html" target="_top" xlink:title="/mnt/hdd/fnky/C0de\l/CAPSTONE/clean_build\l/src/Components/NetworkComponent.cpp">
<polygon fill="none" stroke="#000000" points="198.5,-84 198.5,-125 398.5,-125 398.5,-84 198.5,-84"/>
<text text-anchor="start" x="206.5" y="-113" font-family="Helvetica,sans-Serif" font-size="10.00" fill="#000000">/mnt/hdd/fnky/C0de</text>
<text text-anchor="start" x="206.5" y="-102" font-family="Helvetica,sans-Serif" font-size="10.00" fill="#000000">/CAPSTONE/clean_build</text>
<text text-anchor="middle" x="298.5" y="-91" font-family="Helvetica,sans-Serif" font-size="10.00" fill="#000000">/src/Components/NetworkComponent.cpp</text>
</a>
</g>
</g>
<!-- Node4&#45;&gt;Node5 -->
<g id="edge4" class="edge">
<title>Node4&#45;&gt;Node5</title>
<path fill="none" stroke="#191970" d="M298.5,-162.844C298.5,-150.3522 298.5,-136.2439 298.5,-125.0301"/>
<polygon fill="#191970" stroke="#191970" points="295.0001,-162.8579 298.5,-172.8579 302.0001,-162.8579 295.0001,-162.8579"/>
</g>
<!-- Node6 -->
<g id="node6" class="node">
<title>Node6</title>
<g id="a_node6"><a xlink:href="game_8cpp.html" target="_top" xlink:title="/mnt/hdd/fnky/C0de\l/CAPSTONE/clean_build\l/src/Window/game.cpp">
<polygon fill="none" stroke="#000000" points="568,-.5 568,-41.5 695,-41.5 695,-.5 568,-.5"/>
<text text-anchor="start" x="576" y="-29.5" font-family="Helvetica,sans-Serif" font-size="10.00" fill="#000000">/mnt/hdd/fnky/C0de</text>
<text text-anchor="start" x="576" y="-18.5" font-family="Helvetica,sans-Serif" font-size="10.00" fill="#000000">/CAPSTONE/clean_build</text>
<text text-anchor="middle" x="631.5" y="-7.5" font-family="Helvetica,sans-Serif" font-size="10.00" fill="#000000">/src/Window/game.cpp</text>
</a>
</g>
</g>
<!-- Node4&#45;&gt;Node6 -->
<g id="edge5" class="edge">
<title>Node4&#45;&gt;Node6</title>
<path fill="none" stroke="#191970" d="M352.2069,-168.1548C370.7721,-158.0264 391.0307,-145.343 407.5,-131 429.9582,-111.4413 424.0416,-94.9913 448.5,-78 484.0275,-53.319 530.6633,-39.0058 567.9638,-30.8953"/>
<polygon fill="#191970" stroke="#191970" points="350.438,-165.1313 343.2531,-172.9177 353.7255,-171.3113 350.438,-165.1313"/>
</g>
<!-- Node7&#45;&gt;Node8 -->
<g id="edge7" class="edge">
<title>Node7&#45;&gt;Node8</title>
<path fill="none" stroke="#191970" d="M187.2275,-166.8833C489.8921,-108.5338 577.0778,-178.2445 878.5,-131 890.3883,-129.1366 902.9035,-126.4335 914.9031,-123.4577"/>
<polygon fill="#191970" stroke="#191970" points="186.4316,-163.4726 177.291,-168.8297 187.7773,-170.342 186.4316,-163.4726"/>
</g>
<!-- Node7&#45;&gt;Node10 -->
<g id="edge10" class="edge">
<title>Node7&#45;&gt;Node10</title>
<path fill="none" stroke="#191970" d="M91.898,-158.2749C87.0116,-149.0219 81.8295,-139.209 77.2484,-130.5341"/>
<polygon fill="#191970" stroke="#191970" points="88.8879,-160.0701 96.6527,-167.2784 95.0778,-156.8013 88.8879,-160.0701"/>
</g>
<!-- Node8&#45;&gt;Node6 -->
<g id="edge9" class="edge">
<title>Node8&#45;&gt;Node6</title>
<path fill="none" stroke="#191970" d="M905.1532,-84.7734C896.186,-82.4473 887.1416,-80.1415 878.5,-78 816.347,-62.5975 745.0555,-46.2905 695.0908,-35.0826"/>
<polygon fill="#191970" stroke="#191970" points="904.2708,-88.1603 914.8306,-87.2987 906.0383,-81.3871 904.2708,-88.1603"/>
</g>
<!-- Node9 -->
<g id="node9" class="node">
<title>Node9</title>
<g id="a_node9"><a xlink:href="main_8cpp.html" target="_top" xlink:title="/mnt/hdd/fnky/C0de\l/CAPSTONE/clean_build\l/src/main.cpp">
<polygon fill="none" stroke="#000000" points="915,-.5 915,-41.5 1042,-41.5 1042,-.5 915,-.5"/>
<text text-anchor="start" x="923" y="-29.5" font-family="Helvetica,sans-Serif" font-size="10.00" fill="#000000">/mnt/hdd/fnky/C0de</text>
<text text-anchor="start" x="923" y="-18.5" font-family="Helvetica,sans-Serif" font-size="10.00" fill="#000000">/CAPSTONE/clean_build</text>
<text text-anchor="middle" x="978.5" y="-7.5" font-family="Helvetica,sans-Serif" font-size="10.00" fill="#000000">/src/main.cpp</text>
</a>
</g>
</g>
<!-- Node8&#45;&gt;Node9 -->
<g id="edge8" class="edge">
<title>Node8&#45;&gt;Node9</title>
<path fill="none" stroke="#191970" d="M978.5,-73.6593C978.5,-63.0064 978.5,-51.3344 978.5,-41.6924"/>
<polygon fill="#191970" stroke="#191970" points="975.0001,-73.8595 978.5,-83.8595 982.0001,-73.8596 975.0001,-73.8595"/>
</g>
<!-- Node11&#45;&gt;Node8 -->
<g id="edge12" class="edge">
<title>Node11&#45;&gt;Node8</title>
<path fill="none" stroke="#191970" d="M600.291,-167.0264C722.9394,-138.8513 758.925,-154.4538 878.5,-131 890.3084,-128.6839 902.7856,-125.7649 914.7725,-122.7173"/>
<polygon fill="#191970" stroke="#191970" points="599.4611,-163.626 590.5258,-169.3191 601.0611,-170.4407 599.4611,-163.626"/>
</g>
<!-- Node11&#45;&gt;Node12 -->
<g id="edge13" class="edge">
<title>Node11&#45;&gt;Node12</title>
<path fill="none" stroke="#191970" d="M523.2736,-157.1155C522.9732,-148.2061 522.6578,-138.8475 522.3776,-130.5341"/>
<polygon fill="#191970" stroke="#191970" points="519.7811,-157.4021 523.6161,-167.2784 526.7772,-157.1662 519.7811,-157.4021"/>
</g>
<!-- Node13&#45;&gt;Node8 -->
<g id="edge15" class="edge">
<title>Node13&#45;&gt;Node8</title>
<path fill="none" stroke="#191970" d="M1188.9524,-170.4516C1143.4224,-156.1834 1085.551,-138.0477 1042.0224,-124.4067"/>
<polygon fill="#191970" stroke="#191970" points="1188.1758,-173.876 1198.7649,-173.5267 1190.2691,-167.1963 1188.1758,-173.876"/>
</g>
<!-- Node13&#45;&gt;Node14 -->
<g id="edge16" class="edge">
<title>Node13&#45;&gt;Node14</title>
<path fill="none" stroke="#191970" d="M1233.2711,-159.7159C1224.906,-150.0472 1215.92,-139.6608 1208.0239,-130.5341"/>
<polygon fill="#191970" stroke="#191970" points="1230.6242,-162.0059 1239.8139,-167.2784 1235.9179,-157.4259 1230.6242,-162.0059"/>
</g>
<!-- Node15&#45;&gt;Node8 -->
<g id="edge18" class="edge">
<title>Node15&#45;&gt;Node8</title>
<path fill="none" stroke="#191970" d="M1038.8795,-160.4768C1026.1225,-148.6501 1012.1134,-135.6625 1000.8034,-125.1771"/>
<polygon fill="#191970" stroke="#191970" points="1036.5031,-163.0464 1046.2161,-167.2784 1041.2622,-157.9131 1036.5031,-163.0464"/>
</g>
<!-- Node15&#45;&gt;Node16 -->
<g id="edge19" class="edge">
<title>Node15&#45;&gt;Node16</title>
<path fill="none" stroke="#191970" d="M997.3689,-167.8856C957.1413,-154.5264 908.5182,-138.3792 870.416,-125.7258"/>
<polygon fill="#191970" stroke="#191970" points="996.2788,-171.2115 1006.8723,-171.0415 998.485,-164.5682 996.2788,-171.2115"/>
</g>
<!-- Node17&#45;&gt;Node8 -->
<g id="edge21" class="edge">
<title>Node17&#45;&gt;Node8</title>
<path fill="none" stroke="#191970" d="M1372.637,-175.2338C1359.95,-172.3229 1346.8704,-169.4632 1334.5,-167 1236.469,-147.4801 1210.8762,-148.6985 1112.5,-131 1089.5104,-126.864 1064.374,-121.9876 1042.1464,-117.5529"/>
<polygon fill="#191970" stroke="#191970" points="1372.1739,-178.7193 1382.7065,-177.5726 1373.7577,-171.9008 1372.1739,-178.7193"/>
</g>
<!-- Node17&#45;&gt;Node18 -->
<g id="edge22" class="edge">
<title>Node17&#45;&gt;Node18</title>
<path fill="none" stroke="#191970" d="M1428.225,-158.1418C1422.4464,-146.9615 1416.2519,-134.9765 1411.187,-125.1771"/>
<polygon fill="#191970" stroke="#191970" points="1425.2465,-160.0019 1432.9473,-167.2784 1431.465,-156.7878 1425.2465,-160.0019"/>
</g>
</g>
</svg>
        <g id="navigator" transform="translate(0 0)" fill="#404254">
                <rect fill="#f2f5e9" fill-opacity="0.5" stroke="#606060" stroke-width=".5" x="0" y="0" width="60" height="60"/>
                <use id="zoomplus" xlink:href="#zoomPlus" x="17" y="9" onmousedown="handleZoom(evt,'in')"/>
                <use id="zoomminus" xlink:href="#zoomMin" x="42" y="9" onmousedown="handleZoom(evt,'out')"/>
                <use id="reset" xlink:href="#resetDef" x="30" y="36" onmousedown="handleReset()"/>
                <g id="arrowUp" xlink:href="#dirArrow" transform="translate(30 24)" onmousedown="handlePan(0,-1)">
                  <use xlink:href="#rim" fill="#404040">
                        <set attributeName="fill" to="#808080" begin="arrowUp.mouseover" end="arrowUp.mouseout"/>
                  </use>
                  <path fill="none" stroke="white" stroke-width="1.5" d="M0,-3.0v7 M-2.5,-0.5L0,-3.0L2.5,-0.5"/>
                </g>
                <g id="arrowRight" xlink:href="#dirArrow" transform="rotate(90) translate(36 -43)" onmousedown="handlePan(1,0)">
                  <use xlink:href="#rim" fill="#404040">
                        <set attributeName="fill" to="#808080" begin="arrowRight.mouseover" end="arrowRight.mouseout"/>
                  </use>
                  <path fill="none" stroke="white" stroke-width="1.5" d="M0,-3.0v7 M-2.5,-0.5L0,-3.0L2.5,-0.5"/>
                </g>
                <g id="arrowDown" xlink:href="#dirArrow" transform="rotate(180) translate(-30 -48)" onmousedown="handlePan(0,1)">
                  <use xlink:href="#rim" fill="#404040">
                        <set attributeName="fill" to="#808080" begin="arrowDown.mouseover" end="arrowDown.mouseout"/>
                  </use>
                  <path fill="none" stroke="white" stroke-width="1.5" d="M0,-3.0v7 M-2.5,-0.5L0,-3.0L2.5,-0.5"/>
                </g>
                <g id="arrowLeft" xlink:href="#dirArrow" transform="rotate(270) translate(-36 17)" onmousedown="handlePan(-1,0)">
                  <use xlink:href="#rim" fill="#404040">
                        <set attributeName="fill" to="#808080" begin="arrowLeft.mouseover" end="arrowLeft.mouseout"/>
                  </use>
                  <path fill="none" stroke="white" stroke-width="1.5" d="M0,-3.0v7 M-2.5,-0.5L0,-3.0L2.5,-0.5"/>
                </g>
        </g>
        <svg viewBox="0 0 15 15" width="100%" height="30px" preserveAspectRatio="xMaxYMin meet">
         <g id="arrow_out" transform="scale(0.3 0.3)">
          <a xlink:href="state_8h__dep__incl_org.svg" target="_base">
           <rect id="button" ry="5" rx="5" y="6" x="6" height="38" width="38"
                fill="#f2f5e9" fill-opacity="0.5" stroke="#606060" stroke-width="1.0"/>
           <path id="arrow"
             d="M 11.500037,31.436501 C 11.940474,20.09759 22.043105,11.32322 32.158766,21.979434 L 37.068811,17.246167 C 37.068811,17.246167 37.088388,32 37.088388,32 L 22.160133,31.978069 C 22.160133,31.978069 26.997745,27.140456 26.997745,27.140456 C 18.528582,18.264221 13.291696,25.230495 11.500037,31.436501 z"
             style="fill:#404040;"/>
          </a>
         </g>
        </svg>
</svg>
