<?xml version="1.0" encoding="UTF-8" standalone="no"?>
<!DOCTYPE svg PUBLIC "-//W3C//DTD SVG 1.1//EN"
 "http://www.w3.org/Graphics/SVG/1.1/DTD/svg11.dtd">
<!-- Generated by graphviz version 2.40.1 (20161225.0304)
 -->
<!-- Title: /mnt/hdd/fnky/C0de/CAPSTONE/clean_build/include/rapidjson/stream.h Pages: 1 -->
<svg width="1786pt" height="540pt"
 viewBox="0.00 0.00 1786.00 540.00" xmlns="http://www.w3.org/2000/svg" xmlns:xlink="http://www.w3.org/1999/xlink">
<g id="graph0" class="graph" transform="scale(1 1) rotate(0) translate(4 536)">
<title>/mnt/hdd/fnky/C0de/CAPSTONE/clean_build/include/rapidjson/stream.h</title>
<!-- Node6 -->
<g id="node1" class="node">
<title>Node6</title>
<polygon fill="#bfbfbf" stroke="#000000" points="558.5,-490.5 558.5,-531.5 692.5,-531.5 692.5,-490.5 558.5,-490.5"/>
<text text-anchor="start" x="566.5" y="-519.5" font-family="Helvetica,sans-Serif" font-size="10.00" fill="#000000">/mnt/hdd/fnky/C0de</text>
<text text-anchor="start" x="566.5" y="-508.5" font-family="Helvetica,sans-Serif" font-size="10.00" fill="#000000">/CAPSTONE/clean_build</text>
<text text-anchor="middle" x="625.5" y="-497.5" font-family="Helvetica,sans-Serif" font-size="10.00" fill="#000000">/include/rapidjson/stream.h</text>
</g>
<!-- Node7 -->
<g id="node2" class="node">
<title>Node7</title>
<g id="a_node2"><a xlink:href="reader_8h.html" target="_top" xlink:title="/mnt/hdd/fnky/C0de\l/CAPSTONE/clean_build\l/include/rapidjson/reader.h">
<polygon fill="none" stroke="#000000" points="143,-240 143,-281 274,-281 274,-240 143,-240"/>
<text text-anchor="start" x="151" y="-269" font-family="Helvetica,sans-Serif" font-size="10.00" fill="#000000">/mnt/hdd/fnky/C0de</text>
<text text-anchor="start" x="151" y="-258" font-family="Helvetica,sans-Serif" font-size="10.00" fill="#000000">/CAPSTONE/clean_build</text>
<text text-anchor="middle" x="208.5" y="-247" font-family="Helvetica,sans-Serif" font-size="10.00" fill="#000000">/include/rapidjson/reader.h</text>
</a>
</g>
</g>
<!-- Node6&#45;&gt;Node7 -->
<g id="edge1" class="edge">
<title>Node6&#45;&gt;Node7</title>
<path fill="none" stroke="#191970" d="M548.2374,-504.0975C455.9814,-494.9809 307.8212,-477.3151 257.5,-454 209.4728,-431.7477 189.4864,-424.1495 167.5,-376 157.7157,-354.5727 160.7577,-345.57 167.5,-323 172.0688,-307.706 181.7121,-292.6805 190.4989,-281.196"/>
<polygon fill="#191970" stroke="#191970" points="548.0761,-507.5983 558.3689,-505.0866 548.7563,-500.6315 548.0761,-507.5983"/>
</g>
<!-- Node14 -->
<g id="node9" class="node">
<title>Node14</title>
<g id="a_node9"><a xlink:href="encodedstream_8h.html" target="_top" xlink:title="/mnt/hdd/fnky/C0de\l/CAPSTONE/clean_build\l/include/rapidjson/encodedstream.h">
<polygon fill="none" stroke="#000000" points="176.5,-329 176.5,-370 346.5,-370 346.5,-329 176.5,-329"/>
<text text-anchor="start" x="184.5" y="-358" font-family="Helvetica,sans-Serif" font-size="10.00" fill="#000000">/mnt/hdd/fnky/C0de</text>
<text text-anchor="start" x="184.5" y="-347" font-family="Helvetica,sans-Serif" font-size="10.00" fill="#000000">/CAPSTONE/clean_build</text>
<text text-anchor="middle" x="261.5" y="-336" font-family="Helvetica,sans-Serif" font-size="10.00" fill="#000000">/include/rapidjson/encodedstream.h</text>
</a>
</g>
</g>
<!-- Node6&#45;&gt;Node14 -->
<g id="edge9" class="edge">
<title>Node6&#45;&gt;Node14</title>
<path fill="none" stroke="#191970" d="M547.9921,-508.314C458.0617,-503.52 317.3741,-490.2846 280.5,-454 258.4188,-432.2719 257.1366,-394.0575 258.8642,-370.3526"/>
<polygon fill="#191970" stroke="#191970" points="547.9896,-511.8183 558.1547,-508.8315 548.3457,-504.8274 547.9896,-511.8183"/>
</g>
<!-- Node15 -->
<g id="node10" class="node">
<title>Node15</title>
<g id="a_node10"><a xlink:href="memorystream_8h.html" target="_top" xlink:title="/mnt/hdd/fnky/C0de\l/CAPSTONE/clean_build\l/include/rapidjson/memorystream.h">
<polygon fill="none" stroke="#000000" points="290,-412.5 290,-453.5 459,-453.5 459,-412.5 290,-412.5"/>
<text text-anchor="start" x="298" y="-441.5" font-family="Helvetica,sans-Serif" font-size="10.00" fill="#000000">/mnt/hdd/fnky/C0de</text>
<text text-anchor="start" x="298" y="-430.5" font-family="Helvetica,sans-Serif" font-size="10.00" fill="#000000">/CAPSTONE/clean_build</text>
<text text-anchor="middle" x="374.5" y="-419.5" font-family="Helvetica,sans-Serif" font-size="10.00" fill="#000000">/include/rapidjson/memorystream.h</text>
</a>
</g>
</g>
<!-- Node6&#45;&gt;Node15 -->
<g id="edge12" class="edge">
<title>Node6&#45;&gt;Node15</title>
<path fill="none" stroke="#191970" d="M549.6061,-487.4154C514.8983,-476.6297 474.1577,-463.9693 440.7115,-453.5757"/>
<polygon fill="#191970" stroke="#191970" points="548.6362,-490.7791 559.2244,-490.4044 550.7135,-484.0944 548.6362,-490.7791"/>
</g>
<!-- Node16 -->
<g id="node11" class="node">
<title>Node16</title>
<g id="a_node11"><a xlink:href="strfunc_8h.html" target="_top" xlink:title="/mnt/hdd/fnky/C0de\l/CAPSTONE/clean_build\l/include/rapidjson/internal\l/strfunc.h">
<polygon fill="none" stroke="#000000" points="394,-234.5 394,-286.5 521,-286.5 521,-234.5 394,-234.5"/>
<text text-anchor="start" x="402" y="-274.5" font-family="Helvetica,sans-Serif" font-size="10.00" fill="#000000">/mnt/hdd/fnky/C0de</text>
<text text-anchor="start" x="402" y="-263.5" font-family="Helvetica,sans-Serif" font-size="10.00" fill="#000000">/CAPSTONE/clean_build</text>
<text text-anchor="start" x="402" y="-252.5" font-family="Helvetica,sans-Serif" font-size="10.00" fill="#000000">/include/rapidjson/internal</text>
<text text-anchor="middle" x="457.5" y="-241.5" font-family="Helvetica,sans-Serif" font-size="10.00" fill="#000000">/strfunc.h</text>
</a>
</g>
</g>
<!-- Node6&#45;&gt;Node16 -->
<g id="edge15" class="edge">
<title>Node6&#45;&gt;Node16</title>
<path fill="none" stroke="#191970" d="M572.6791,-485.181C559.2218,-476.694 545.6979,-466.2384 535.5,-454 493.1842,-403.2173 471.5609,-326.5004 462.6325,-286.6342"/>
<polygon fill="#191970" stroke="#191970" points="571.1039,-488.3179 581.4772,-490.4729 574.7119,-482.3193 571.1039,-488.3179"/>
</g>
<!-- Node17 -->
<g id="node12" class="node">
<title>Node17</title>
<g id="a_node12"><a xlink:href="writer_8h.html" target="_top" xlink:title="/mnt/hdd/fnky/C0de\l/CAPSTONE/clean_build\l/include/rapidjson/writer.h">
<polygon fill="none" stroke="#000000" points="539.5,-156.5 539.5,-197.5 667.5,-197.5 667.5,-156.5 539.5,-156.5"/>
<text text-anchor="start" x="547.5" y="-185.5" font-family="Helvetica,sans-Serif" font-size="10.00" fill="#000000">/mnt/hdd/fnky/C0de</text>
<text text-anchor="start" x="547.5" y="-174.5" font-family="Helvetica,sans-Serif" font-size="10.00" fill="#000000">/CAPSTONE/clean_build</text>
<text text-anchor="middle" x="603.5" y="-163.5" font-family="Helvetica,sans-Serif" font-size="10.00" fill="#000000">/include/rapidjson/writer.h</text>
</a>
</g>
</g>
<!-- Node6&#45;&gt;Node17 -->
<g id="edge23" class="edge">
<title>Node6&#45;&gt;Node17</title>
<path fill="none" stroke="#191970" d="M615.1755,-480.5764C601.2971,-437.9182 577.3449,-357.6257 568.5,-287 565.5728,-263.627 562.0959,-256.6683 568.5,-234 572.1938,-220.9251 579.822,-207.8955 587.0167,-197.6008"/>
<polygon fill="#191970" stroke="#191970" points="611.9366,-481.9307 618.3889,-490.3342 618.5853,-479.7412 611.9366,-481.9307"/>
</g>
<!-- Node20 -->
<g id="node15" class="node">
<title>Node20</title>
<g id="a_node15"><a xlink:href="stringbuffer_8h.html" target="_top" xlink:title="/mnt/hdd/fnky/C0de\l/CAPSTONE/clean_build\l/include/rapidjson/stringbuffer.h">
<polygon fill="none" stroke="#000000" points="577.5,-240 577.5,-281 729.5,-281 729.5,-240 577.5,-240"/>
<text text-anchor="start" x="585.5" y="-269" font-family="Helvetica,sans-Serif" font-size="10.00" fill="#000000">/mnt/hdd/fnky/C0de</text>
<text text-anchor="start" x="585.5" y="-258" font-family="Helvetica,sans-Serif" font-size="10.00" fill="#000000">/CAPSTONE/clean_build</text>
<text text-anchor="middle" x="653.5" y="-247" font-family="Helvetica,sans-Serif" font-size="10.00" fill="#000000">/include/rapidjson/stringbuffer.h</text>
</a>
</g>
</g>
<!-- Node6&#45;&gt;Node20 -->
<g id="edge24" class="edge">
<title>Node6&#45;&gt;Node20</title>
<path fill="none" stroke="#191970" d="M624.0593,-480.302C623.4959,-460.7176 623.4092,-434.8175 625.5,-412 629.8201,-364.8544 641.5515,-310.4789 648.3806,-281.4087"/>
<polygon fill="#191970" stroke="#191970" points="620.5674,-480.5995 624.4106,-490.4728 627.5633,-480.3579 620.5674,-480.5995"/>
</g>
<!-- Node21 -->
<g id="node16" class="node">
<title>Node21</title>
<g id="a_node16"><a xlink:href="cursorstreamwrapper_8h.html" target="_top" xlink:title="/mnt/hdd/fnky/C0de\l/CAPSTONE/clean_build\l/include/rapidjson/cursorstreamwrapper.h">
<polygon fill="none" stroke="#000000" points="653,-412.5 653,-453.5 848,-453.5 848,-412.5 653,-412.5"/>
<text text-anchor="start" x="661" y="-441.5" font-family="Helvetica,sans-Serif" font-size="10.00" fill="#000000">/mnt/hdd/fnky/C0de</text>
<text text-anchor="start" x="661" y="-430.5" font-family="Helvetica,sans-Serif" font-size="10.00" fill="#000000">/CAPSTONE/clean_build</text>
<text text-anchor="middle" x="750.5" y="-419.5" font-family="Helvetica,sans-Serif" font-size="10.00" fill="#000000">/include/rapidjson/cursorstreamwrapper.h</text>
</a>
</g>
</g>
<!-- Node6&#45;&gt;Node21 -->
<g id="edge27" class="edge">
<title>Node6&#45;&gt;Node21</title>
<path fill="none" stroke="#191970" d="M667.4955,-484.7948C683.8308,-474.6016 702.2677,-463.0969 717.6092,-453.5239"/>
<polygon fill="#191970" stroke="#191970" points="665.3005,-482.0389 658.6695,-490.3022 669.0062,-487.9776 665.3005,-482.0389"/>
</g>
<!-- Node22 -->
<g id="node17" class="node">
<title>Node22</title>
<g id="a_node17"><a xlink:href="filereadstream_8h.html" target="_top" xlink:title="/mnt/hdd/fnky/C0de\l/CAPSTONE/clean_build\l/include/rapidjson/filereadstream.h">
<polygon fill="none" stroke="#000000" points="866,-412.5 866,-453.5 1031,-453.5 1031,-412.5 866,-412.5"/>
<text text-anchor="start" x="874" y="-441.5" font-family="Helvetica,sans-Serif" font-size="10.00" fill="#000000">/mnt/hdd/fnky/C0de</text>
<text text-anchor="start" x="874" y="-430.5" font-family="Helvetica,sans-Serif" font-size="10.00" fill="#000000">/CAPSTONE/clean_build</text>
<text text-anchor="middle" x="948.5" y="-419.5" font-family="Helvetica,sans-Serif" font-size="10.00" fill="#000000">/include/rapidjson/filereadstream.h</text>
</a>
</g>
</g>
<!-- Node6&#45;&gt;Node22 -->
<g id="edge28" class="edge">
<title>Node6&#45;&gt;Node22</title>
<path fill="none" stroke="#191970" d="M702.7664,-492.3412C751.9403,-480.4664 815.5827,-465.0977 865.7782,-452.9762"/>
<polygon fill="#191970" stroke="#191970" points="701.7172,-488.9939 692.8182,-494.7436 703.3604,-495.7983 701.7172,-488.9939"/>
</g>
<!-- Node23 -->
<g id="node18" class="node">
<title>Node23</title>
<g id="a_node18"><a xlink:href="filewritestream_8h.html" target="_top" xlink:title="/mnt/hdd/fnky/C0de\l/CAPSTONE/clean_build\l/include/rapidjson/filewritestream.h">
<polygon fill="none" stroke="#000000" points="1049,-412.5 1049,-453.5 1216,-453.5 1216,-412.5 1049,-412.5"/>
<text text-anchor="start" x="1057" y="-441.5" font-family="Helvetica,sans-Serif" font-size="10.00" fill="#000000">/mnt/hdd/fnky/C0de</text>
<text text-anchor="start" x="1057" y="-430.5" font-family="Helvetica,sans-Serif" font-size="10.00" fill="#000000">/CAPSTONE/clean_build</text>
<text text-anchor="middle" x="1132.5" y="-419.5" font-family="Helvetica,sans-Serif" font-size="10.00" fill="#000000">/include/rapidjson/filewritestream.h</text>
</a>
</g>
</g>
<!-- Node6&#45;&gt;Node23 -->
<g id="edge29" class="edge">
<title>Node6&#45;&gt;Node23</title>
<path fill="none" stroke="#191970" d="M702.8084,-502.4421C786.3981,-492.7093 923.4013,-475.3635 1040.5,-454 1043.2399,-453.5001 1046.0216,-452.974 1048.8275,-452.4274"/>
<polygon fill="#191970" stroke="#191970" points="702.1643,-498.9932 692.6331,-503.6199 702.9693,-505.9467 702.1643,-498.9932"/>
</g>
<!-- Node24 -->
<g id="node19" class="node">
<title>Node24</title>
<g id="a_node19"><a xlink:href="regex_8h.html" target="_top" xlink:title="/mnt/hdd/fnky/C0de\l/CAPSTONE/clean_build\l/include/rapidjson/internal\l/regex.h">
<polygon fill="none" stroke="#000000" points="655,-323.5 655,-375.5 782,-375.5 782,-323.5 655,-323.5"/>
<text text-anchor="start" x="663" y="-363.5" font-family="Helvetica,sans-Serif" font-size="10.00" fill="#000000">/mnt/hdd/fnky/C0de</text>
<text text-anchor="start" x="663" y="-352.5" font-family="Helvetica,sans-Serif" font-size="10.00" fill="#000000">/CAPSTONE/clean_build</text>
<text text-anchor="start" x="663" y="-341.5" font-family="Helvetica,sans-Serif" font-size="10.00" fill="#000000">/include/rapidjson/internal</text>
<text text-anchor="middle" x="718.5" y="-330.5" font-family="Helvetica,sans-Serif" font-size="10.00" fill="#000000">/regex.h</text>
</a>
</g>
</g>
<!-- Node6&#45;&gt;Node24 -->
<g id="edge30" class="edge">
<title>Node6&#45;&gt;Node24</title>
<path fill="none" stroke="#191970" d="M626.145,-480.1717C627.792,-459.6306 632.3797,-432.7082 644.5,-412 652.7396,-397.9222 665.3593,-385.5396 677.8568,-375.5887"/>
<polygon fill="#191970" stroke="#191970" points="622.6448,-480.0698 625.5275,-490.265 629.6317,-480.4974 622.6448,-480.0698"/>
</g>
<!-- Node25 -->
<g id="node20" class="node">
<title>Node25</title>
<g id="a_node20"><a xlink:href="istreamwrapper_8h.html" target="_top" xlink:title="/mnt/hdd/fnky/C0de\l/CAPSTONE/clean_build\l/include/rapidjson/istreamwrapper.h">
<polygon fill="none" stroke="#000000" points="1234.5,-412.5 1234.5,-453.5 1404.5,-453.5 1404.5,-412.5 1234.5,-412.5"/>
<text text-anchor="start" x="1242.5" y="-441.5" font-family="Helvetica,sans-Serif" font-size="10.00" fill="#000000">/mnt/hdd/fnky/C0de</text>
<text text-anchor="start" x="1242.5" y="-430.5" font-family="Helvetica,sans-Serif" font-size="10.00" fill="#000000">/CAPSTONE/clean_build</text>
<text text-anchor="middle" x="1319.5" y="-419.5" font-family="Helvetica,sans-Serif" font-size="10.00" fill="#000000">/include/rapidjson/istreamwrapper.h</text>
</a>
</g>
</g>
<!-- Node6&#45;&gt;Node25 -->
<g id="edge32" class="edge">
<title>Node6&#45;&gt;Node25</title>
<path fill="none" stroke="#191970" d="M702.9712,-506.7466C817.6628,-499.7487 1039.1614,-483.5467 1225.5,-454 1228.3902,-453.5417 1231.3245,-453.048 1234.2834,-452.5257"/>
<polygon fill="#191970" stroke="#191970" points="702.6535,-503.2594 692.8824,-507.3552 703.075,-510.2467 702.6535,-503.2594"/>
</g>
<!-- Node26 -->
<g id="node21" class="node">
<title>Node26</title>
<g id="a_node21"><a xlink:href="memorybuffer_8h.html" target="_top" xlink:title="/mnt/hdd/fnky/C0de\l/CAPSTONE/clean_build\l/include/rapidjson/memorybuffer.h">
<polygon fill="none" stroke="#000000" points="1422.5,-412.5 1422.5,-453.5 1586.5,-453.5 1586.5,-412.5 1422.5,-412.5"/>
<text text-anchor="start" x="1430.5" y="-441.5" font-family="Helvetica,sans-Serif" font-size="10.00" fill="#000000">/mnt/hdd/fnky/C0de</text>
<text text-anchor="start" x="1430.5" y="-430.5" font-family="Helvetica,sans-Serif" font-size="10.00" fill="#000000">/CAPSTONE/clean_build</text>
<text text-anchor="middle" x="1504.5" y="-419.5" font-family="Helvetica,sans-Serif" font-size="10.00" fill="#000000">/include/rapidjson/memorybuffer.h</text>
</a>
</g>
</g>
<!-- Node6&#45;&gt;Node26 -->
<g id="edge33" class="edge">
<title>Node6&#45;&gt;Node26</title>
<path fill="none" stroke="#191970" d="M702.8811,-509.365C844.5882,-505.4931 1154.9767,-492.9408 1413.5,-454 1416.3859,-453.5653 1419.3159,-453.0879 1422.2695,-452.576"/>
<polygon fill="#191970" stroke="#191970" points="702.4661,-505.8747 692.5628,-509.6396 702.6524,-512.8722 702.4661,-505.8747"/>
</g>
<!-- Node27 -->
<g id="node22" class="node">
<title>Node27</title>
<g id="a_node22"><a xlink:href="ostreamwrapper_8h.html" target="_top" xlink:title="/mnt/hdd/fnky/C0de\l/CAPSTONE/clean_build\l/include/rapidjson/ostreamwrapper.h">
<polygon fill="none" stroke="#000000" points="1605,-412.5 1605,-453.5 1778,-453.5 1778,-412.5 1605,-412.5"/>
<text text-anchor="start" x="1613" y="-441.5" font-family="Helvetica,sans-Serif" font-size="10.00" fill="#000000">/mnt/hdd/fnky/C0de</text>
<text text-anchor="start" x="1613" y="-430.5" font-family="Helvetica,sans-Serif" font-size="10.00" fill="#000000">/CAPSTONE/clean_build</text>
<text text-anchor="middle" x="1691.5" y="-419.5" font-family="Helvetica,sans-Serif" font-size="10.00" fill="#000000">/include/rapidjson/ostreamwrapper.h</text>
</a>
</g>
</g>
<!-- Node6&#45;&gt;Node27 -->
<g id="edge34" class="edge">
<title>Node6&#45;&gt;Node27</title>
<path fill="none" stroke="#191970" d="M702.5869,-508.0332C900.5752,-500.1625 1423.4417,-477.7252 1595.5,-454 1598.5422,-453.5805 1601.6311,-453.1162 1604.7453,-452.6154"/>
<polygon fill="#191970" stroke="#191970" points="702.4114,-504.5373 692.5578,-508.4305 702.6886,-511.5318 702.4114,-504.5373"/>
</g>
<!-- Node8 -->
<g id="node3" class="node">
<title>Node8</title>
<g id="a_node3"><a xlink:href="document_8h.html" target="_top" xlink:title="/mnt/hdd/fnky/C0de\l/CAPSTONE/clean_build\l/include/rapidjson/document.h">
<polygon fill="none" stroke="#000000" points="229.5,-156.5 229.5,-197.5 375.5,-197.5 375.5,-156.5 229.5,-156.5"/>
<text text-anchor="start" x="237.5" y="-185.5" font-family="Helvetica,sans-Serif" font-size="10.00" fill="#000000">/mnt/hdd/fnky/C0de</text>
<text text-anchor="start" x="237.5" y="-174.5" font-family="Helvetica,sans-Serif" font-size="10.00" fill="#000000">/CAPSTONE/clean_build</text>
<text text-anchor="middle" x="302.5" y="-163.5" font-family="Helvetica,sans-Serif" font-size="10.00" fill="#000000">/include/rapidjson/document.h</text>
</a>
</g>
</g>
<!-- Node7&#45;&gt;Node8 -->
<g id="edge2" class="edge">
<title>Node7&#45;&gt;Node8</title>
<path fill="none" stroke="#191970" d="M239.5125,-232.9517C252.4491,-221.4601 267.2204,-208.3388 279.2056,-197.6924"/>
<polygon fill="#191970" stroke="#191970" points="236.8879,-230.6016 231.736,-239.8595 241.5367,-235.8351 236.8879,-230.6016"/>
</g>
<!-- Node9 -->
<g id="node4" class="node">
<title>Node9</title>
<g id="a_node4"><a xlink:href="NetworkComponent_8h.html" target="_top" xlink:title="/mnt/hdd/fnky/C0de\l/CAPSTONE/clean_build\l/include/Components/NetworkComponent.h">
<polygon fill="none" stroke="#000000" points="74,-78.5 74,-119.5 281,-119.5 281,-78.5 74,-78.5"/>
<text text-anchor="start" x="82" y="-107.5" font-family="Helvetica,sans-Serif" font-size="10.00" fill="#000000">/mnt/hdd/fnky/C0de</text>
<text text-anchor="start" x="82" y="-96.5" font-family="Helvetica,sans-Serif" font-size="10.00" fill="#000000">/CAPSTONE/clean_build</text>
<text text-anchor="middle" x="177.5" y="-85.5" font-family="Helvetica,sans-Serif" font-size="10.00" fill="#000000">/include/Components/NetworkComponent.h</text>
</a>
</g>
</g>
<!-- Node8&#45;&gt;Node9 -->
<g id="edge3" class="edge">
<title>Node8&#45;&gt;Node9</title>
<path fill="none" stroke="#191970" d="M260.5045,-150.7948C244.1692,-140.6016 225.7323,-129.0969 210.3908,-119.5239"/>
<polygon fill="#191970" stroke="#191970" points="258.9938,-153.9776 269.3305,-156.3022 262.6995,-148.0389 258.9938,-153.9776"/>
</g>
<!-- Node12 -->
<g id="node7" class="node">
<title>Node12</title>
<g id="a_node7"><a xlink:href="pointer_8h.html" target="_top" xlink:title="/mnt/hdd/fnky/C0de\l/CAPSTONE/clean_build\l/include/rapidjson/pointer.h">
<polygon fill="none" stroke="#000000" points="338,-78.5 338,-119.5 471,-119.5 471,-78.5 338,-78.5"/>
<text text-anchor="start" x="346" y="-107.5" font-family="Helvetica,sans-Serif" font-size="10.00" fill="#000000">/mnt/hdd/fnky/C0de</text>
<text text-anchor="start" x="346" y="-96.5" font-family="Helvetica,sans-Serif" font-size="10.00" fill="#000000">/CAPSTONE/clean_build</text>
<text text-anchor="middle" x="404.5" y="-85.5" font-family="Helvetica,sans-Serif" font-size="10.00" fill="#000000">/include/rapidjson/pointer.h</text>
</a>
</g>
</g>
<!-- Node8&#45;&gt;Node12 -->
<g id="edge6" class="edge">
<title>Node8&#45;&gt;Node12</title>
<path fill="none" stroke="#191970" d="M337.5106,-150.2272C350.6543,-140.1761 365.3743,-128.9196 377.6611,-119.5239"/>
<polygon fill="#191970" stroke="#191970" points="335.3838,-147.4474 329.5663,-156.3022 339.636,-153.0079 335.3838,-147.4474"/>
</g>
<!-- Node13 -->
<g id="node8" class="node">
<title>Node13</title>
<g id="a_node8"><a xlink:href="schema_8h.html" target="_top" xlink:title="/mnt/hdd/fnky/C0de\l/CAPSTONE/clean_build\l/include/rapidjson/schema.h">
<polygon fill="none" stroke="#000000" points="430.5,-.5 430.5,-41.5 568.5,-41.5 568.5,-.5 430.5,-.5"/>
<text text-anchor="start" x="438.5" y="-29.5" font-family="Helvetica,sans-Serif" font-size="10.00" fill="#000000">/mnt/hdd/fnky/C0de</text>
<text text-anchor="start" x="438.5" y="-18.5" font-family="Helvetica,sans-Serif" font-size="10.00" fill="#000000">/CAPSTONE/clean_build</text>
<text text-anchor="middle" x="499.5" y="-7.5" font-family="Helvetica,sans-Serif" font-size="10.00" fill="#000000">/include/rapidjson/schema.h</text>
</a>
</g>
</g>
<!-- Node8&#45;&gt;Node13 -->
<g id="edge8" class="edge">
<title>Node8&#45;&gt;Node13</title>
<path fill="none" stroke="#191970" d="M303.1195,-146.4496C305.1506,-124.7777 311.2701,-96.3864 328.5,-78 342.8901,-62.6439 389.3614,-47.6897 430.2314,-36.9539"/>
<polygon fill="#191970" stroke="#191970" points="299.6246,-146.2561 302.4201,-156.4754 306.6076,-146.7433 299.6246,-146.2561"/>
</g>
<!-- Node10 -->
<g id="node5" class="node">
<title>Node10</title>
<g id="a_node5"><a xlink:href="NetworkComponent_8cpp.html" target="_top" xlink:title="/mnt/hdd/fnky/C0de\l/CAPSTONE/clean_build\l/src/Components/NetworkComponent.cpp">
<polygon fill="none" stroke="#000000" points="145.5,-.5 145.5,-41.5 345.5,-41.5 345.5,-.5 145.5,-.5"/>
<text text-anchor="start" x="153.5" y="-29.5" font-family="Helvetica,sans-Serif" font-size="10.00" fill="#000000">/mnt/hdd/fnky/C0de</text>
<text text-anchor="start" x="153.5" y="-18.5" font-family="Helvetica,sans-Serif" font-size="10.00" fill="#000000">/CAPSTONE/clean_build</text>
<text text-anchor="middle" x="245.5" y="-7.5" font-family="Helvetica,sans-Serif" font-size="10.00" fill="#000000">/src/Components/NetworkComponent.cpp</text>
</a>
</g>
</g>
<!-- Node9&#45;&gt;Node10 -->
<g id="edge4" class="edge">
<title>Node9&#45;&gt;Node10</title>
<path fill="none" stroke="#191970" d="M202.4543,-70.376C210.7413,-60.8703 219.8014,-50.4778 227.4627,-41.6898"/>
<polygon fill="#191970" stroke="#191970" points="199.6559,-68.2597 195.7228,-78.0974 204.9324,-72.8597 199.6559,-68.2597"/>
</g>
<!-- Node11 -->
<g id="node6" class="node">
<title>Node11</title>
<g id="a_node6"><a xlink:href="game_8cpp.html" target="_top" xlink:title="/mnt/hdd/fnky/C0de\l/CAPSTONE/clean_build\l/src/Window/game.cpp">
<polygon fill="none" stroke="#000000" points="0,-.5 0,-41.5 127,-41.5 127,-.5 0,-.5"/>
<text text-anchor="start" x="8" y="-29.5" font-family="Helvetica,sans-Serif" font-size="10.00" fill="#000000">/mnt/hdd/fnky/C0de</text>
<text text-anchor="start" x="8" y="-18.5" font-family="Helvetica,sans-Serif" font-size="10.00" fill="#000000">/CAPSTONE/clean_build</text>
<text text-anchor="middle" x="63.5" y="-7.5" font-family="Helvetica,sans-Serif" font-size="10.00" fill="#000000">/src/Window/game.cpp</text>
</a>
</g>
</g>
<!-- Node9&#45;&gt;Node11 -->
<g id="edge5" class="edge">
<title>Node9&#45;&gt;Node11</title>
<path fill="none" stroke="#191970" d="M138.7858,-72.5113C123.9912,-62.3887 107.3583,-51.0083 93.4964,-41.5239"/>
<polygon fill="#191970" stroke="#191970" points="137.0199,-75.5439 147.2494,-78.3022 140.9727,-69.7668 137.0199,-75.5439"/>
</g>
<!-- Node12&#45;&gt;Node13 -->
<g id="edge7" class="edge">
<title>Node12&#45;&gt;Node13</title>
<path fill="none" stroke="#191970" d="M437.9787,-71.5122C449.9243,-61.7043 463.1694,-50.8293 474.3009,-41.6898"/>
<polygon fill="#191970" stroke="#191970" points="435.466,-69.0467 429.9583,-78.0974 439.908,-74.4568 435.466,-69.0467"/>
</g>
<!-- Node14&#45;&gt;Node7 -->
<g id="edge10" class="edge">
<title>Node14&#45;&gt;Node7</title>
<path fill="none" stroke="#191970" d="M243.911,-319.9638C236.3109,-307.2013 227.604,-292.5803 220.7258,-281.0301"/>
<polygon fill="#191970" stroke="#191970" points="241.0838,-322.0568 249.2075,-328.8579 247.0981,-318.4752 241.0838,-322.0568"/>
</g>
<!-- Node14&#45;&gt;Node8 -->
<g id="edge11" class="edge">
<title>Node14&#45;&gt;Node8</title>
<path fill="none" stroke="#191970" d="M272.6445,-319.2463C276.1219,-309.0914 279.76,-297.6419 282.5,-287 290.3889,-256.3605 296.34,-220.1433 299.6227,-197.8728"/>
<polygon fill="#191970" stroke="#191970" points="269.2685,-318.297 269.26,-328.8919 275.8736,-320.6148 269.2685,-318.297"/>
</g>
<!-- Node15&#45;&gt;Node8 -->
<g id="edge14" class="edge">
<title>Node15&#45;&gt;Node8</title>
<path fill="none" stroke="#191970" d="M370.6851,-402.3089C367.5621,-380.0701 362.5121,-349.3983 355.5,-323 343.3853,-277.3917 323.0667,-225.9126 311.4217,-197.902"/>
<polygon fill="#191970" stroke="#191970" points="367.2538,-403.0529 372.0635,-412.493 374.1905,-402.1139 367.2538,-403.0529"/>
</g>
<!-- Node15&#45;&gt;Node14 -->
<g id="edge13" class="edge">
<title>Node15&#45;&gt;Node14</title>
<path fill="none" stroke="#191970" d="M338.0969,-406.1004C322.3388,-394.4561 304.1825,-381.0397 289.5029,-370.1924"/>
<polygon fill="#191970" stroke="#191970" points="336.4449,-409.2315 346.5674,-412.3595 340.6049,-403.6017 336.4449,-409.2315"/>
</g>
<!-- Node16&#45;&gt;Node8 -->
<g id="edge16" class="edge">
<title>Node16&#45;&gt;Node8</title>
<path fill="none" stroke="#191970" d="M399.9378,-229.4907C380.1409,-218.8259 358.4817,-207.1579 340.622,-197.5367"/>
<polygon fill="#191970" stroke="#191970" points="398.4185,-232.6478 408.8823,-234.3092 401.7385,-226.4851 398.4185,-232.6478"/>
</g>
<!-- Node16&#45;&gt;Node17 -->
<g id="edge17" class="edge">
<title>Node16&#45;&gt;Node17</title>
<path fill="none" stroke="#191970" d="M512.2243,-229.2022C530.7346,-218.6158 550.9204,-207.0712 567.5915,-197.5367"/>
<polygon fill="#191970" stroke="#191970" points="510.2377,-226.3063 503.2947,-234.3092 513.713,-232.3828 510.2377,-226.3063"/>
</g>
<!-- Node19 -->
<g id="node14" class="node">
<title>Node19</title>
<g id="a_node14"><a xlink:href="uri_8h.html" target="_top" xlink:title="/mnt/hdd/fnky/C0de\l/CAPSTONE/clean_build\l/include/rapidjson/uri.h">
<polygon fill="none" stroke="#000000" points="394,-156.5 394,-197.5 521,-197.5 521,-156.5 394,-156.5"/>
<text text-anchor="start" x="402" y="-185.5" font-family="Helvetica,sans-Serif" font-size="10.00" fill="#000000">/mnt/hdd/fnky/C0de</text>
<text text-anchor="start" x="402" y="-174.5" font-family="Helvetica,sans-Serif" font-size="10.00" fill="#000000">/CAPSTONE/clean_build</text>
<text text-anchor="middle" x="457.5" y="-163.5" font-family="Helvetica,sans-Serif" font-size="10.00" fill="#000000">/include/rapidjson/uri.h</text>
</a>
</g>
</g>
<!-- Node16&#45;&gt;Node19 -->
<g id="edge20" class="edge">
<title>Node16&#45;&gt;Node19</title>
<path fill="none" stroke="#191970" d="M457.5,-223.8168C457.5,-214.8649 457.5,-205.5976 457.5,-197.6941"/>
<polygon fill="#191970" stroke="#191970" points="454.0001,-224.08 457.5,-234.0801 461.0001,-224.0801 454.0001,-224.08"/>
</g>
<!-- Node17&#45;&gt;Node9 -->
<g id="edge18" class="edge">
<title>Node17&#45;&gt;Node9</title>
<path fill="none" stroke="#191970" d="M529.2309,-155.8713C471.214,-143.6149 362.9778,-126.6763 281.2925,-114.3496"/>
<polygon fill="#191970" stroke="#191970" points="528.6055,-159.3171 539.1214,-158.0263 530.0958,-152.4775 528.6055,-159.3171"/>
</g>
<!-- Node18 -->
<g id="node13" class="node">
<title>Node18</title>
<g id="a_node13"><a xlink:href="prettywriter_8h.html" target="_top" xlink:title="/mnt/hdd/fnky/C0de\l/CAPSTONE/clean_build\l/include/rapidjson/prettywriter.h">
<polygon fill="none" stroke="#000000" points="527.5,-78.5 527.5,-119.5 679.5,-119.5 679.5,-78.5 527.5,-78.5"/>
<text text-anchor="start" x="535.5" y="-107.5" font-family="Helvetica,sans-Serif" font-size="10.00" fill="#000000">/mnt/hdd/fnky/C0de</text>
<text text-anchor="start" x="535.5" y="-96.5" font-family="Helvetica,sans-Serif" font-size="10.00" fill="#000000">/CAPSTONE/clean_build</text>
<text text-anchor="middle" x="603.5" y="-85.5" font-family="Helvetica,sans-Serif" font-size="10.00" fill="#000000">/include/rapidjson/prettywriter.h</text>
</a>
</g>
</g>
<!-- Node17&#45;&gt;Node18 -->
<g id="edge19" class="edge">
<title>Node17&#45;&gt;Node18</title>
<path fill="none" stroke="#191970" d="M603.5,-146.0789C603.5,-137.2178 603.5,-127.7747 603.5,-119.6898"/>
<polygon fill="#191970" stroke="#191970" points="600.0001,-146.0974 603.5,-156.0974 607.0001,-146.0975 600.0001,-146.0974"/>
</g>
<!-- Node19&#45;&gt;Node12 -->
<g id="edge21" class="edge">
<title>Node19&#45;&gt;Node12</title>
<path fill="none" stroke="#191970" d="M437.6621,-147.8046C431.3093,-138.4552 424.4103,-128.302 418.5585,-119.6898"/>
<polygon fill="#191970" stroke="#191970" points="434.7818,-149.7933 443.297,-156.0974 440.5717,-145.8591 434.7818,-149.7933"/>
</g>
<!-- Node19&#45;&gt;Node13 -->
<g id="edge22" class="edge">
<title>Node19&#45;&gt;Node13</title>
<path fill="none" stroke="#191970" d="M470.796,-147.1879C474.3053,-138.5392 477.8482,-128.9988 480.5,-120 488.3162,-93.4758 493.7218,-61.9813 496.715,-41.7553"/>
<polygon fill="#191970" stroke="#191970" points="467.5319,-145.9215 466.8975,-156.4973 473.9886,-148.6254 467.5319,-145.9215"/>
</g>
<!-- Node20&#45;&gt;Node13 -->
<g id="edge26" class="edge">
<title>Node20&#45;&gt;Node13</title>
<path fill="none" stroke="#191970" d="M671.7457,-231.1513C693.3068,-192.3032 722.252,-123.4328 688.5,-78 673.8612,-58.2951 616.4258,-42.7949 568.6729,-32.9638"/>
<polygon fill="#191970" stroke="#191970" points="668.6743,-229.4716 666.7385,-239.8881 674.7476,-232.9523 668.6743,-229.4716"/>
</g>
<!-- Node20&#45;&gt;Node17 -->
<g id="edge25" class="edge">
<title>Node20&#45;&gt;Node17</title>
<path fill="none" stroke="#191970" d="M635.8266,-230.9854C629.2381,-219.9826 621.9049,-207.7362 615.8907,-197.6924"/>
<polygon fill="#191970" stroke="#191970" points="633.0002,-233.0782 641.1404,-239.8595 639.0058,-229.482 633.0002,-233.0782"/>
</g>
<!-- Node24&#45;&gt;Node13 -->
<g id="edge31" class="edge">
<title>Node24&#45;&gt;Node13</title>
<path fill="none" stroke="#191970" d="M732.0383,-313.7187C734.7163,-305.0932 737.1234,-295.8187 738.5,-287 752.9638,-194.3433 773.064,-146.9499 709.5,-78 690.3916,-57.2725 622.1853,-41.3394 568.6249,-31.6556"/>
<polygon fill="#191970" stroke="#191970" points="728.6272,-312.8867 728.8157,-323.4798 735.2743,-315.0812 728.6272,-312.8867"/>
</g>
</g>
</svg>
