<?xml version="1.0" encoding="UTF-8" standalone="no"?>
<!DOCTYPE svg PUBLIC "-//W3C//DTD SVG 1.1//EN"
 "http://www.w3.org/Graphics/SVG/1.1/DTD/svg11.dtd">
<!-- Generated by graphviz version 2.40.1 (20161225.0304)
 -->
<!-- Title: /mnt/hdd/fnky/C0de/CAPSTONE/clean_build/include/rapidjson/internal/strtod.h Pages: 1 -->
<svg width="425pt" height="285pt"
 viewBox="0.00 0.00 425.00 285.00" xmlns="http://www.w3.org/2000/svg" xmlns:xlink="http://www.w3.org/1999/xlink">
<g id="graph0" class="graph" transform="scale(1 1) rotate(0) translate(4 281)">
<title>/mnt/hdd/fnky/C0de/CAPSTONE/clean_build/include/rapidjson/internal/strtod.h</title>
<!-- Node0 -->
<g id="node1" class="node">
<title>Node0</title>
<polygon fill="#bfbfbf" stroke="#000000" points="183,-224.5 183,-276.5 310,-276.5 310,-224.5 183,-224.5"/>
<text text-anchor="start" x="191" y="-264.5" font-family="Helvetica,sans-Serif" font-size="10.00" fill="#000000">/mnt/hdd/fnky/C0de</text>
<text text-anchor="start" x="191" y="-253.5" font-family="Helvetica,sans-Serif" font-size="10.00" fill="#000000">/CAPSTONE/clean_build</text>
<text text-anchor="start" x="191" y="-242.5" font-family="Helvetica,sans-Serif" font-size="10.00" fill="#000000">/include/rapidjson/internal</text>
<text text-anchor="middle" x="246.5" y="-231.5" font-family="Helvetica,sans-Serif" font-size="10.00" fill="#000000">/strtod.h</text>
</g>
<!-- Node1 -->
<g id="node2" class="node">
<title>Node1</title>
<g id="a_node2"><a xlink:href="ieee754_8h.html" target="_top" xlink:title="ieee754.h">
<polygon fill="none" stroke="#000000" points="0,-112.5 0,-131.5 59,-131.5 59,-112.5 0,-112.5"/>
<text text-anchor="middle" x="29.5" y="-119.5" font-family="Helvetica,sans-Serif" font-size="10.00" fill="#000000">ieee754.h</text>
</a>
</g>
</g>
<!-- Node0&#45;&gt;Node1 -->
<g id="edge1" class="edge">
<title>Node0&#45;&gt;Node1</title>
<path fill="none" stroke="#191970" d="M202.5868,-224.4961C158.0224,-198.1066 90.6023,-158.1827 54.4662,-136.7841"/>
<polygon fill="#191970" stroke="#191970" points="55.9546,-133.5979 45.5667,-131.5142 52.3879,-139.6211 55.9546,-133.5979"/>
</g>
<!-- Node6 -->
<g id="node7" class="node">
<title>Node6</title>
<g id="a_node7"><a xlink:href="biginteger_8h.html" target="_top" xlink:title="biginteger.h">
<polygon fill="none" stroke="#000000" points="77,-112.5 77,-131.5 144,-131.5 144,-112.5 77,-112.5"/>
<text text-anchor="middle" x="110.5" y="-119.5" font-family="Helvetica,sans-Serif" font-size="10.00" fill="#000000">biginteger.h</text>
</a>
</g>
</g>
<!-- Node0&#45;&gt;Node6 -->
<g id="edge6" class="edge">
<title>Node0&#45;&gt;Node6</title>
<path fill="none" stroke="#191970" d="M218.9784,-224.4961C191.7617,-198.7803 150.9428,-160.2125 127.9195,-138.4589"/>
<polygon fill="#191970" stroke="#191970" points="130.2419,-135.838 120.5695,-131.5142 125.4344,-140.926 130.2419,-135.838"/>
</g>
<!-- Node7 -->
<g id="node8" class="node">
<title>Node7</title>
<g id="a_node8"><a xlink:href="diyfp_8h.html" target="_top" xlink:title="diyfp.h">
<polygon fill="none" stroke="#000000" points="198.5,-168.5 198.5,-187.5 244.5,-187.5 244.5,-168.5 198.5,-168.5"/>
<text text-anchor="middle" x="221.5" y="-175.5" font-family="Helvetica,sans-Serif" font-size="10.00" fill="#000000">diyfp.h</text>
</a>
</g>
</g>
<!-- Node0&#45;&gt;Node7 -->
<g id="edge8" class="edge">
<title>Node0&#45;&gt;Node7</title>
<path fill="none" stroke="#191970" d="M237.4744,-224.3258C234.3669,-215.3139 230.9481,-205.3995 228.0734,-197.063"/>
<polygon fill="#191970" stroke="#191970" points="231.3564,-195.8467 224.7876,-187.534 224.7388,-198.1287 231.3564,-195.8467"/>
</g>
<!-- Node9 -->
<g id="node10" class="node">
<title>Node9</title>
<polygon fill="none" stroke="#bfbfbf" points="260.5,-112.5 260.5,-131.5 300.5,-131.5 300.5,-112.5 260.5,-112.5"/>
<text text-anchor="middle" x="280.5" y="-119.5" font-family="Helvetica,sans-Serif" font-size="10.00" fill="#000000">limits</text>
</g>
<!-- Node0&#45;&gt;Node9 -->
<g id="edge16" class="edge">
<title>Node0&#45;&gt;Node9</title>
<path fill="none" stroke="#191970" d="M253.3804,-224.4961C259.8875,-199.9033 269.5045,-163.5564 275.3663,-141.4024"/>
<polygon fill="#191970" stroke="#191970" points="278.8082,-142.0768 277.9826,-131.5142 272.0411,-140.2862 278.8082,-142.0768"/>
</g>
<!-- Node10 -->
<g id="node11" class="node">
<title>Node10</title>
<g id="a_node11"><a xlink:href="pow10_8h.html" target="_top" xlink:title="pow10.h">
<polygon fill="none" stroke="#000000" points="301,-168.5 301,-187.5 354,-187.5 354,-168.5 301,-168.5"/>
<text text-anchor="middle" x="327.5" y="-175.5" font-family="Helvetica,sans-Serif" font-size="10.00" fill="#000000">pow10.h</text>
</a>
</g>
</g>
<!-- Node0&#45;&gt;Node10 -->
<g id="edge13" class="edge">
<title>Node0&#45;&gt;Node10</title>
<path fill="none" stroke="#191970" d="M275.7429,-224.3258C286.9301,-214.3126 299.3622,-203.1851 309.2376,-194.346"/>
<polygon fill="#191970" stroke="#191970" points="311.7312,-196.8113 316.8482,-187.534 307.0627,-191.5954 311.7312,-196.8113"/>
</g>
<!-- Node11 -->
<g id="node12" class="node">
<title>Node11</title>
<polygon fill="none" stroke="#bfbfbf" points="372,-168.5 372,-187.5 417,-187.5 417,-168.5 372,-168.5"/>
<text text-anchor="middle" x="394.5" y="-175.5" font-family="Helvetica,sans-Serif" font-size="10.00" fill="#000000">climits</text>
</g>
<!-- Node0&#45;&gt;Node11 -->
<g id="edge15" class="edge">
<title>Node0&#45;&gt;Node11</title>
<path fill="none" stroke="#191970" d="M299.9314,-224.3258C322.212,-213.4114 347.1948,-201.1731 365.885,-192.0175"/>
<polygon fill="#191970" stroke="#191970" points="367.5968,-195.0764 375.0375,-187.534 364.5174,-188.7901 367.5968,-195.0764"/>
</g>
<!-- Node2 -->
<g id="node3" class="node">
<title>Node2</title>
<g id="a_node3"><a xlink:href="rapidjson_8h.html" target="_top" xlink:title="common definitions and configuration ">
<polygon fill="none" stroke="#000000" points="136,-56.5 136,-75.5 209,-75.5 209,-56.5 136,-56.5"/>
<text text-anchor="middle" x="172.5" y="-63.5" font-family="Helvetica,sans-Serif" font-size="10.00" fill="#000000">../rapidjson.h</text>
</a>
</g>
</g>
<!-- Node1&#45;&gt;Node2 -->
<g id="edge2" class="edge">
<title>Node1&#45;&gt;Node2</title>
<path fill="none" stroke="#191970" d="M54.0826,-112.3733C77.4496,-103.2226 112.7862,-89.3844 138.7784,-79.2057"/>
<polygon fill="#191970" stroke="#191970" points="140.203,-82.4066 148.2382,-75.5011 137.6505,-75.8886 140.203,-82.4066"/>
</g>
<!-- Node3 -->
<g id="node4" class="node">
<title>Node3</title>
<polygon fill="none" stroke="#bfbfbf" points="86,-.5 86,-19.5 131,-19.5 131,-.5 86,-.5"/>
<text text-anchor="middle" x="108.5" y="-7.5" font-family="Helvetica,sans-Serif" font-size="10.00" fill="#000000">cstdlib</text>
</g>
<!-- Node2&#45;&gt;Node3 -->
<g id="edge3" class="edge">
<title>Node2&#45;&gt;Node3</title>
<path fill="none" stroke="#191970" d="M161.3521,-56.2455C151.9913,-48.0549 138.4142,-36.1749 127.3651,-26.5069"/>
<polygon fill="#191970" stroke="#191970" points="129.3508,-23.5937 119.5202,-19.6427 124.7412,-28.8618 129.3508,-23.5937"/>
</g>
<!-- Node4 -->
<g id="node5" class="node">
<title>Node4</title>
<polygon fill="none" stroke="#bfbfbf" points="149.5,-.5 149.5,-19.5 195.5,-19.5 195.5,-.5 149.5,-.5"/>
<text text-anchor="middle" x="172.5" y="-7.5" font-family="Helvetica,sans-Serif" font-size="10.00" fill="#000000">cstring</text>
</g>
<!-- Node2&#45;&gt;Node4 -->
<g id="edge4" class="edge">
<title>Node2&#45;&gt;Node4</title>
<path fill="none" stroke="#191970" d="M172.5,-56.2455C172.5,-48.9382 172.5,-38.6944 172.5,-29.7046"/>
<polygon fill="#191970" stroke="#191970" points="176.0001,-29.6426 172.5,-19.6427 169.0001,-29.6427 176.0001,-29.6426"/>
</g>
<!-- Node5 -->
<g id="node6" class="node">
<title>Node5</title>
<polygon fill="none" stroke="#bfbfbf" points="214,-.5 214,-19.5 263,-19.5 263,-.5 214,-.5"/>
<text text-anchor="middle" x="238.5" y="-7.5" font-family="Helvetica,sans-Serif" font-size="10.00" fill="#000000">cassert</text>
</g>
<!-- Node2&#45;&gt;Node5 -->
<g id="edge5" class="edge">
<title>Node2&#45;&gt;Node5</title>
<path fill="none" stroke="#191970" d="M183.9963,-56.2455C193.7442,-47.9746 207.9259,-35.9416 219.3798,-26.2232"/>
<polygon fill="#191970" stroke="#191970" points="221.7747,-28.7813 227.1354,-19.6427 217.2459,-23.4437 221.7747,-28.7813"/>
</g>
<!-- Node6&#45;&gt;Node2 -->
<g id="edge7" class="edge">
<title>Node6&#45;&gt;Node2</title>
<path fill="none" stroke="#191970" d="M121.2996,-112.2455C130.3678,-104.0549 143.5206,-92.1749 154.2245,-82.5069"/>
<polygon fill="#191970" stroke="#191970" points="156.7491,-84.9429 161.8242,-75.6427 152.0571,-79.7482 156.7491,-84.9429"/>
</g>
<!-- Node7&#45;&gt;Node2 -->
<g id="edge9" class="edge">
<title>Node7&#45;&gt;Node2</title>
<path fill="none" stroke="#191970" d="M213.9169,-168.2703C207.2244,-159.2861 197.6089,-145.3518 191.5,-132 184.6788,-117.0913 179.7038,-99.1577 176.5596,-85.7496"/>
<polygon fill="#191970" stroke="#191970" points="179.9189,-84.7293 174.3488,-75.7169 173.0829,-86.2358 179.9189,-84.7293"/>
</g>
<!-- Node8 -->
<g id="node9" class="node">
<title>Node8</title>
<g id="a_node9"><a xlink:href="clzll_8h.html" target="_top" xlink:title="clzll.h">
<polygon fill="none" stroke="#000000" points="200.5,-112.5 200.5,-131.5 242.5,-131.5 242.5,-112.5 200.5,-112.5"/>
<text text-anchor="middle" x="221.5" y="-119.5" font-family="Helvetica,sans-Serif" font-size="10.00" fill="#000000">clzll.h</text>
</a>
</g>
</g>
<!-- Node7&#45;&gt;Node8 -->
<g id="edge10" class="edge">
<title>Node7&#45;&gt;Node8</title>
<path fill="none" stroke="#191970" d="M221.5,-168.2455C221.5,-160.9382 221.5,-150.6944 221.5,-141.7046"/>
<polygon fill="#191970" stroke="#191970" points="225.0001,-141.6426 221.5,-131.6427 218.0001,-141.6427 225.0001,-141.6426"/>
</g>
<!-- Node7&#45;&gt;Node9 -->
<g id="edge12" class="edge">
<title>Node7&#45;&gt;Node9</title>
<path fill="none" stroke="#191970" d="M231.777,-168.2455C240.3218,-160.1352 252.6778,-148.4075 262.8085,-138.7919"/>
<polygon fill="#191970" stroke="#191970" points="265.4972,-141.0655 270.3408,-131.6427 260.6782,-135.9884 265.4972,-141.0655"/>
</g>
<!-- Node8&#45;&gt;Node2 -->
<g id="edge11" class="edge">
<title>Node8&#45;&gt;Node2</title>
<path fill="none" stroke="#191970" d="M212.9649,-112.2455C206.0088,-104.2958 196.0117,-92.8706 187.6949,-83.3656"/>
<polygon fill="#191970" stroke="#191970" points="190.1564,-80.8637 180.9373,-75.6427 184.8884,-85.4732 190.1564,-80.8637"/>
</g>
<!-- Node10&#45;&gt;Node2 -->
<g id="edge14" class="edge">
<title>Node10&#45;&gt;Node2</title>
<path fill="none" stroke="#191970" d="M327.5627,-168.1136C327.1119,-153.8601 324.1745,-127.5464 309.5,-112 296.8426,-98.5906 253.5539,-85.4146 218.9826,-76.6248"/>
<polygon fill="#191970" stroke="#191970" points="219.5863,-73.1685 209.0374,-74.1541 217.8984,-79.962 219.5863,-73.1685"/>
</g>
</g>
</svg>
