<?xml version="1.0" encoding="UTF-8" standalone="no"?>
<!DOCTYPE svg PUBLIC "-//W3C//DTD SVG 1.1//EN"
 "http://www.w3.org/Graphics/SVG/1.1/DTD/svg11.dtd">
<!-- Generated by graphviz version 2.40.1 (20161225.0304)
 -->
<!-- Title: GenericValue&lt; Encoding, Allocator &gt;::ArrayData Pages: 1 -->
<!--zoomable 788 -->
<svg id="main" version="1.1" xmlns="http://www.w3.org/2000/svg" xmlns:xlink="http://www.w3.org/1999/xlink" xml:space="preserve" onload="init(evt)">
<style type="text/css"><![CDATA[
.edge:hover path { stroke: red; }
.edge:hover polygon { stroke: red; fill: red; }
]]></style>
<script type="text/javascript"><![CDATA[
var edges = document.getElementsByTagName('g');
if (edges && edges.length) {
  for (var i=0;i<edges.length;i++) {
    if (edges[i].id.substr(0,4)=='edge') {
      edges[i].setAttribute('class','edge');
    }
  }
}
]]></script>
        <defs>
                <circle id="rim" cx="0" cy="0" r="7"/>
                <circle id="rim2" cx="0" cy="0" r="3.5"/>
                <g id="zoomPlus">
                        <use xlink:href="#rim" fill="#404040">
                                <set attributeName="fill" to="#808080" begin="zoomplus.mouseover" end="zoomplus.mouseout"/>
                        </use>
                        <path d="M-4,0h8M0,-4v8" fill="none" stroke="white" stroke-width="1.5" pointer-events="none"/>
                </g>
                <g id="zoomMin">
                        <use xlink:href="#rim" fill="#404040">
                                <set attributeName="fill" to="#808080" begin="zoomminus.mouseover" end="zoomminus.mouseout"/>
                        </use>
                        <path d="M-4,0h8" fill="none" stroke="white" stroke-width="1.5" pointer-events="none"/>
                </g>
                <g id="dirArrow">
                        <path fill="none" stroke="white" stroke-width="1.5" d="M0,-3.0v7 M-2.5,-0.5L0,-3.0L2.5,-0.5"/>
                </g>
               <g id="resetDef">
                       <use xlink:href="#rim2" fill="#404040">
                               <set attributeName="fill" to="#808080" begin="reset.mouseover" end="reset.mouseout"/>
                       </use>
               </g>
        </defs>

<script type="text/javascript">
var viewWidth = 866;
var viewHeight = 788;
var sectionId = 'dynsection-0';
</script>
<script xlink:href="svgpan.js"/>
<svg id="graph" class="graph">
<g id="viewport">
<title>GenericValue&lt; Encoding, Allocator &gt;::ArrayData</title>
<!-- Node1 -->
<g id="node1" class="node">
<title>Node1</title>
<polygon fill="#bfbfbf" stroke="#000000" points="0,-557 0,-636 128,-636 128,-557 0,-557"/>
<text text-anchor="start" x="8" y="-624" font-family="Helvetica,sans-Serif" font-size="10.00" fill="#000000">GenericValue&lt; Encoding,</text>
<text text-anchor="middle" x="64" y="-613" font-family="Helvetica,sans-Serif" font-size="10.00" fill="#000000"> Allocator &gt;::ArrayData</text>
<polyline fill="none" stroke="#000000" points="0,-606 128,-606 "/>
<text text-anchor="start" x="8" y="-594" font-family="Helvetica,sans-Serif" font-size="10.00" fill="#000000">+ size</text>
<text text-anchor="start" x="8" y="-583" font-family="Helvetica,sans-Serif" font-size="10.00" fill="#000000">+ capacity</text>
<polyline fill="none" stroke="#000000" points="0,-576 128,-576 "/>
<text text-anchor="middle" x="64" y="-564" font-family="Helvetica,sans-Serif" font-size="10.00" fill="#000000"> </text>
</g>
<!-- Node3 -->
<g id="node3" class="node">
<title>Node3</title>
<g id="a_node3"><a xlink:href="unionGenericValue_1_1Data.html" target="_top" xlink:title="{GenericValue\&lt; Encoding,\l Allocator \&gt;::Data\n||}">
<polygon fill="none" stroke="#000000" points="292,-435.5 292,-503.5 420,-503.5 420,-435.5 292,-435.5"/>
<text text-anchor="start" x="300" y="-491.5" font-family="Helvetica,sans-Serif" font-size="10.00" fill="#000000">GenericValue&lt; Encoding,</text>
<text text-anchor="middle" x="356" y="-480.5" font-family="Helvetica,sans-Serif" font-size="10.00" fill="#000000"> Allocator &gt;::Data</text>
<polyline fill="none" stroke="#000000" points="292,-473.5 420,-473.5 "/>
<text text-anchor="middle" x="356" y="-461.5" font-family="Helvetica,sans-Serif" font-size="10.00" fill="#000000"> </text>
<polyline fill="none" stroke="#000000" points="292,-454.5 420,-454.5 "/>
<text text-anchor="middle" x="356" y="-442.5" font-family="Helvetica,sans-Serif" font-size="10.00" fill="#000000"> </text>
</a>
</g>
</g>
<!-- Node1&#45;&gt;Node3 -->
<g id="edge4" class="edge">
<title>Node1&#45;&gt;Node3</title>
<path fill="none" stroke="#404040" d="M125.6411,-556.9029C129.4422,-554.8297 133.2473,-552.8444 137,-551 183.1908,-528.2977 237.3852,-508.0807 280.3061,-493.4613"/>
<polygon fill="none" stroke="#404040" points="280.4408,-493.416 284.8492,-487.7093 291.8125,-489.5838 287.404,-495.2904 280.4408,-493.416"/>
<text text-anchor="middle" x="209.5" y="-525" font-family="Helvetica,sans-Serif" font-size="10.00" fill="#000000"> +a</text>
</g>
<!-- Node2 -->
<g id="node2" class="node">
<title>Node2</title>
<g id="a_node2"><a xlink:href="classGenericValue.html" target="_top" xlink:title="Represents a JSON value. Use Value for UTF8 encoding and default allocator. ">
<polygon fill="none" stroke="#000000" points="28.5,-.5 28.5,-387.5 169.5,-387.5 169.5,-.5 28.5,-.5"/>
<text text-anchor="start" x="36.5" y="-375.5" font-family="Helvetica,sans-Serif" font-size="10.00" fill="#000000">GenericValue&lt; Encoding,</text>
<text text-anchor="middle" x="99" y="-364.5" font-family="Helvetica,sans-Serif" font-size="10.00" fill="#000000"> Allocator &gt;</text>
<polyline fill="none" stroke="#000000" points="28.5,-357.5 169.5,-357.5 "/>
<text text-anchor="start" x="36.5" y="-345.5" font-family="Helvetica,sans-Serif" font-size="10.00" fill="#000000">+ kDefaultArrayCapacity</text>
<text text-anchor="start" x="36.5" y="-334.5" font-family="Helvetica,sans-Serif" font-size="10.00" fill="#000000">+ kDefaultObjectCapacity</text>
<polyline fill="none" stroke="#000000" points="28.5,-327.5 169.5,-327.5 "/>
<text text-anchor="start" x="36.5" y="-315.5" font-family="Helvetica,sans-Serif" font-size="10.00" fill="#000000">+ RAPIDJSON_DISABLEIF</text>
<text text-anchor="start" x="36.5" y="-304.5" font-family="Helvetica,sans-Serif" font-size="10.00" fill="#000000">_RETURN()</text>
<text text-anchor="start" x="36.5" y="-293.5" font-family="Helvetica,sans-Serif" font-size="10.00" fill="#000000">+ GetStringPointer()</text>
<text text-anchor="start" x="36.5" y="-282.5" font-family="Helvetica,sans-Serif" font-size="10.00" fill="#000000">+ SetStringPointer()</text>
<text text-anchor="start" x="36.5" y="-271.5" font-family="Helvetica,sans-Serif" font-size="10.00" fill="#000000">+ GetElementsPointer()</text>
<text text-anchor="start" x="36.5" y="-260.5" font-family="Helvetica,sans-Serif" font-size="10.00" fill="#000000">+ SetElementsPointer()</text>
<text text-anchor="start" x="36.5" y="-249.5" font-family="Helvetica,sans-Serif" font-size="10.00" fill="#000000">+ GetMembersPointer()</text>
<text text-anchor="start" x="36.5" y="-238.5" font-family="Helvetica,sans-Serif" font-size="10.00" fill="#000000">+ SetMembersPointer()</text>
<text text-anchor="start" x="36.5" y="-227.5" font-family="Helvetica,sans-Serif" font-size="10.00" fill="#000000">+ DoAllocMembers()</text>
<text text-anchor="start" x="36.5" y="-216.5" font-family="Helvetica,sans-Serif" font-size="10.00" fill="#000000">+ DoReserveMembers()</text>
<text text-anchor="start" x="36.5" y="-205.5" font-family="Helvetica,sans-Serif" font-size="10.00" fill="#000000">+ DoFindMember()</text>
<text text-anchor="start" x="36.5" y="-194.5" font-family="Helvetica,sans-Serif" font-size="10.00" fill="#000000">and 12 more...</text>
<text text-anchor="start" x="36.5" y="-183.5" font-family="Helvetica,sans-Serif" font-size="10.00" fill="#000000">+ operator=()</text>
<text text-anchor="start" x="36.5" y="-172.5" font-family="Helvetica,sans-Serif" font-size="10.00" fill="#000000">+ operator=()</text>
<text text-anchor="start" x="36.5" y="-161.5" font-family="Helvetica,sans-Serif" font-size="10.00" fill="#000000">+ DataString()</text>
<text text-anchor="start" x="36.5" y="-150.5" font-family="Helvetica,sans-Serif" font-size="10.00" fill="#000000">+ DataStringLength()</text>
<text text-anchor="start" x="36.5" y="-139.5" font-family="Helvetica,sans-Serif" font-size="10.00" fill="#000000">* GenericValue()</text>
<text text-anchor="start" x="36.5" y="-128.5" font-family="Helvetica,sans-Serif" font-size="10.00" fill="#000000">* GenericValue()</text>
<text text-anchor="start" x="36.5" y="-117.5" font-family="Helvetica,sans-Serif" font-size="10.00" fill="#000000">* GenericValue()</text>
<text text-anchor="start" x="36.5" y="-106.5" font-family="Helvetica,sans-Serif" font-size="10.00" fill="#000000">* GenericValue()</text>
<text text-anchor="start" x="36.5" y="-95.5" font-family="Helvetica,sans-Serif" font-size="10.00" fill="#000000">* GenericValue()</text>
<text text-anchor="start" x="36.5" y="-84.5" font-family="Helvetica,sans-Serif" font-size="10.00" fill="#000000">* GenericValue()</text>
<text text-anchor="start" x="36.5" y="-73.5" font-family="Helvetica,sans-Serif" font-size="10.00" fill="#000000">* GenericValue()</text>
<text text-anchor="start" x="36.5" y="-62.5" font-family="Helvetica,sans-Serif" font-size="10.00" fill="#000000">* GenericValue()</text>
<text text-anchor="start" x="36.5" y="-51.5" font-family="Helvetica,sans-Serif" font-size="10.00" fill="#000000">* GenericValue()</text>
<text text-anchor="start" x="36.5" y="-40.5" font-family="Helvetica,sans-Serif" font-size="10.00" fill="#000000">* GenericValue()</text>
<text text-anchor="start" x="36.5" y="-29.5" font-family="Helvetica,sans-Serif" font-size="10.00" fill="#000000">and 8 more...</text>
<text text-anchor="start" x="36.5" y="-18.5" font-family="Helvetica,sans-Serif" font-size="10.00" fill="#000000">* operator=()</text>
<text text-anchor="start" x="36.5" y="-7.5" font-family="Helvetica,sans-Serif" font-size="10.00" fill="#000000">* operator=()</text>
</a>
</g>
</g>
<!-- Node2&#45;&gt;Node1 -->
<g id="edge1" class="edge">
<title>Node2&#45;&gt;Node1</title>
<path fill="none" stroke="#404040" d="M82.1401,-387.8884C77.1129,-445.7012 72.0152,-504.3251 68.5094,-544.6424"/>
<polygon fill="none" stroke="#404040" points="68.4914,-544.8503 71.9565,-551.1743 67.4517,-556.8052 63.9866,-550.4812 68.4914,-544.8503"/>
<text text-anchor="middle" x="103.5" y="-467" font-family="Helvetica,sans-Serif" font-size="10.00" fill="#000000"> +elements</text>
</g>
<!-- Node3&#45;&gt;Node2 -->
<g id="edge2" class="edge">
<title>Node3&#45;&gt;Node2</title>
<path fill="none" stroke="#404040" d="M324.229,-435.442C287.9838,-396.5877 227.3682,-331.6087 178.1456,-278.8428"/>
<polygon fill="none" stroke="#404040" points="177.9097,-278.59 170.892,-276.9311 169.7241,-269.8152 176.7419,-271.4741 177.9097,-278.59"/>
<text text-anchor="middle" x="324" y="-409" font-family="Helvetica,sans-Serif" font-size="10.00" fill="#000000"> +data_</text>
</g>
<!-- Node4 -->
<g id="node4" class="node">
<title>Node4</title>
<g id="a_node4"><a xlink:href="structGenericValue_1_1String.html" target="_top" xlink:title="{GenericValue\&lt; Encoding,\l Allocator \&gt;::String\n|+ length\l+ hashcode\l+ str\l|}">
<polygon fill="none" stroke="#000000" points="146,-551.5 146,-641.5 274,-641.5 274,-551.5 146,-551.5"/>
<text text-anchor="start" x="154" y="-629.5" font-family="Helvetica,sans-Serif" font-size="10.00" fill="#000000">GenericValue&lt; Encoding,</text>
<text text-anchor="middle" x="210" y="-618.5" font-family="Helvetica,sans-Serif" font-size="10.00" fill="#000000"> Allocator &gt;::String</text>
<polyline fill="none" stroke="#000000" points="146,-611.5 274,-611.5 "/>
<text text-anchor="start" x="154" y="-599.5" font-family="Helvetica,sans-Serif" font-size="10.00" fill="#000000">+ length</text>
<text text-anchor="start" x="154" y="-588.5" font-family="Helvetica,sans-Serif" font-size="10.00" fill="#000000">+ hashcode</text>
<text text-anchor="start" x="154" y="-577.5" font-family="Helvetica,sans-Serif" font-size="10.00" fill="#000000">+ str</text>
<polyline fill="none" stroke="#000000" points="146,-570.5 274,-570.5 "/>
<text text-anchor="middle" x="210" y="-558.5" font-family="Helvetica,sans-Serif" font-size="10.00" fill="#000000"> </text>
</a>
</g>
</g>
<!-- Node4&#45;&gt;Node3 -->
<g id="edge3" class="edge">
<title>Node4&#45;&gt;Node3</title>
<path fill="none" stroke="#404040" d="M261.8852,-551.367C276.6768,-538.5003 292.7339,-524.5329 307.3266,-511.8392"/>
<polygon fill="none" stroke="#404040" points="307.6227,-511.5817 309.5244,-504.6258 316.6766,-503.706 314.7749,-510.6618 307.6227,-511.5817"/>
<text text-anchor="middle" x="299.5" y="-525" font-family="Helvetica,sans-Serif" font-size="10.00" fill="#000000"> +s</text>
</g>
<!-- Node5 -->
<g id="node5" class="node">
<title>Node5</title>
<g id="a_node5"><a xlink:href="structGenericValue_1_1ObjectData.html" target="_top" xlink:title="{GenericValue\&lt; Encoding,\l Allocator \&gt;::ObjectData\n|+ size\l+ capacity\l|}">
<polygon fill="none" stroke="#000000" points="292,-557 292,-636 420,-636 420,-557 292,-557"/>
<text text-anchor="start" x="300" y="-624" font-family="Helvetica,sans-Serif" font-size="10.00" fill="#000000">GenericValue&lt; Encoding,</text>
<text text-anchor="middle" x="356" y="-613" font-family="Helvetica,sans-Serif" font-size="10.00" fill="#000000"> Allocator &gt;::ObjectData</text>
<polyline fill="none" stroke="#000000" points="292,-606 420,-606 "/>
<text text-anchor="start" x="300" y="-594" font-family="Helvetica,sans-Serif" font-size="10.00" fill="#000000">+ size</text>
<text text-anchor="start" x="300" y="-583" font-family="Helvetica,sans-Serif" font-size="10.00" fill="#000000">+ capacity</text>
<polyline fill="none" stroke="#000000" points="292,-576 420,-576 "/>
<text text-anchor="middle" x="356" y="-564" font-family="Helvetica,sans-Serif" font-size="10.00" fill="#000000"> </text>
</a>
</g>
</g>
<!-- Node5&#45;&gt;Node3 -->
<g id="edge5" class="edge">
<title>Node5&#45;&gt;Node3</title>
<path fill="none" stroke="#404040" d="M356,-556.6649C356,-543.7653 356,-529.3453 356,-516.0055"/>
<polygon fill="none" stroke="#404040" points="356.0001,-515.6315 352,-509.6316 356,-503.6315 360,-509.6315 356.0001,-515.6315"/>
<text text-anchor="middle" x="363.5" y="-525" font-family="Helvetica,sans-Serif" font-size="10.00" fill="#000000"> +o</text>
</g>
<!-- Node6 -->
<g id="node6" class="node">
<title>Node6</title>
<g id="a_node6"><a xlink:href="classGenericMember.html" target="_top" xlink:title="Name&#45;value pair in a JSON object value. ">
<polygon fill="none" stroke="#000000" points="282,-689.5 282,-779.5 420,-779.5 420,-689.5 282,-689.5"/>
<text text-anchor="start" x="290" y="-767.5" font-family="Helvetica,sans-Serif" font-size="10.00" fill="#000000">GenericMember&lt; Encoding,</text>
<text text-anchor="middle" x="351" y="-756.5" font-family="Helvetica,sans-Serif" font-size="10.00" fill="#000000"> Allocator &gt;</text>
<polyline fill="none" stroke="#000000" points="282,-749.5 420,-749.5 "/>
<text text-anchor="start" x="290" y="-737.5" font-family="Helvetica,sans-Serif" font-size="10.00" fill="#000000">+ name</text>
<text text-anchor="start" x="290" y="-726.5" font-family="Helvetica,sans-Serif" font-size="10.00" fill="#000000">+ value</text>
<polyline fill="none" stroke="#000000" points="282,-719.5 420,-719.5 "/>
<text text-anchor="start" x="290" y="-707.5" font-family="Helvetica,sans-Serif" font-size="10.00" fill="#000000">+ operator=()</text>
<text text-anchor="start" x="290" y="-696.5" font-family="Helvetica,sans-Serif" font-size="10.00" fill="#000000">&#45; GenericMember()</text>
</a>
</g>
</g>
<!-- Node6&#45;&gt;Node5 -->
<g id="edge6" class="edge">
<title>Node6&#45;&gt;Node5</title>
<path fill="none" stroke="#404040" d="M352.6372,-689.3136C353.1125,-676.1937 353.6353,-661.7645 354.1241,-648.2738"/>
<polygon fill="none" stroke="#404040" points="354.1265,-648.205 350.3465,-642.064 354.5611,-636.2128 358.3412,-642.3538 354.1265,-648.205"/>
<text text-anchor="middle" x="379" y="-663" font-family="Helvetica,sans-Serif" font-size="10.00" fill="#000000"> +members</text>
</g>
<!-- Node7 -->
<g id="node7" class="node">
<title>Node7</title>
<g id="a_node7"><a xlink:href="unionGenericValue_1_1Number.html" target="_top" xlink:title="{GenericValue\&lt; Encoding,\l Allocator \&gt;::Number\n|+ i64\l+ u64\l+ d\l|}">
<polygon fill="none" stroke="#000000" points="438,-551.5 438,-641.5 566,-641.5 566,-551.5 438,-551.5"/>
<text text-anchor="start" x="446" y="-629.5" font-family="Helvetica,sans-Serif" font-size="10.00" fill="#000000">GenericValue&lt; Encoding,</text>
<text text-anchor="middle" x="502" y="-618.5" font-family="Helvetica,sans-Serif" font-size="10.00" fill="#000000"> Allocator &gt;::Number</text>
<polyline fill="none" stroke="#000000" points="438,-611.5 566,-611.5 "/>
<text text-anchor="start" x="446" y="-599.5" font-family="Helvetica,sans-Serif" font-size="10.00" fill="#000000">+ i64</text>
<text text-anchor="start" x="446" y="-588.5" font-family="Helvetica,sans-Serif" font-size="10.00" fill="#000000">+ u64</text>
<text text-anchor="start" x="446" y="-577.5" font-family="Helvetica,sans-Serif" font-size="10.00" fill="#000000">+ d</text>
<polyline fill="none" stroke="#000000" points="438,-570.5 566,-570.5 "/>
<text text-anchor="middle" x="502" y="-558.5" font-family="Helvetica,sans-Serif" font-size="10.00" fill="#000000"> </text>
</a>
</g>
</g>
<!-- Node7&#45;&gt;Node3 -->
<g id="edge7" class="edge">
<title>Node7&#45;&gt;Node3</title>
<path fill="none" stroke="#404040" d="M450.1148,-551.367C435.3232,-538.5003 419.2661,-524.5329 404.6734,-511.8392"/>
<polygon fill="none" stroke="#404040" points="404.3773,-511.5817 397.2251,-510.6618 395.3234,-503.706 402.4756,-504.6258 404.3773,-511.5817"/>
<text text-anchor="middle" x="436.5" y="-525" font-family="Helvetica,sans-Serif" font-size="10.00" fill="#000000"> +n</text>
</g>
<!-- Node8 -->
<g id="node8" class="node">
<title>Node8</title>
<g id="a_node8"><a xlink:href="structGenericValue_1_1Number_1_1U.html" target="_top" xlink:title="{GenericValue\&lt; Encoding,\l Allocator \&gt;::Number::U\n|+ u\l+ padding2\l|}">
<polygon fill="none" stroke="#000000" points="438,-695 438,-774 566,-774 566,-695 438,-695"/>
<text text-anchor="start" x="446" y="-762" font-family="Helvetica,sans-Serif" font-size="10.00" fill="#000000">GenericValue&lt; Encoding,</text>
<text text-anchor="middle" x="502" y="-751" font-family="Helvetica,sans-Serif" font-size="10.00" fill="#000000"> Allocator &gt;::Number::U</text>
<polyline fill="none" stroke="#000000" points="438,-744 566,-744 "/>
<text text-anchor="start" x="446" y="-732" font-family="Helvetica,sans-Serif" font-size="10.00" fill="#000000">+ u</text>
<text text-anchor="start" x="446" y="-721" font-family="Helvetica,sans-Serif" font-size="10.00" fill="#000000">+ padding2</text>
<polyline fill="none" stroke="#000000" points="438,-714 566,-714 "/>
<text text-anchor="middle" x="502" y="-702" font-family="Helvetica,sans-Serif" font-size="10.00" fill="#000000"> </text>
</a>
</g>
</g>
<!-- Node8&#45;&gt;Node7 -->
<g id="edge8" class="edge">
<title>Node8&#45;&gt;Node7</title>
<path fill="none" stroke="#404040" d="M502,-694.9547C502,-682.2711 502,-667.9528 502,-654.2437"/>
<polygon fill="none" stroke="#404040" points="502.0001,-653.8894 498,-647.8895 502,-641.8894 506,-647.8894 502.0001,-653.8894"/>
<text text-anchor="middle" x="509.5" y="-663" font-family="Helvetica,sans-Serif" font-size="10.00" fill="#000000"> +u</text>
</g>
<!-- Node9 -->
<g id="node9" class="node">
<title>Node9</title>
<g id="a_node9"><a xlink:href="structGenericValue_1_1Number_1_1I.html" target="_top" xlink:title="{GenericValue\&lt; Encoding,\l Allocator \&gt;::Number::I\n|+ i\l+ padding\l|}">
<polygon fill="none" stroke="#000000" points="584,-695 584,-774 712,-774 712,-695 584,-695"/>
<text text-anchor="start" x="592" y="-762" font-family="Helvetica,sans-Serif" font-size="10.00" fill="#000000">GenericValue&lt; Encoding,</text>
<text text-anchor="middle" x="648" y="-751" font-family="Helvetica,sans-Serif" font-size="10.00" fill="#000000"> Allocator &gt;::Number::I</text>
<polyline fill="none" stroke="#000000" points="584,-744 712,-744 "/>
<text text-anchor="start" x="592" y="-732" font-family="Helvetica,sans-Serif" font-size="10.00" fill="#000000">+ i</text>
<text text-anchor="start" x="592" y="-721" font-family="Helvetica,sans-Serif" font-size="10.00" fill="#000000">+ padding</text>
<polyline fill="none" stroke="#000000" points="584,-714 712,-714 "/>
<text text-anchor="middle" x="648" y="-702" font-family="Helvetica,sans-Serif" font-size="10.00" fill="#000000"> </text>
</a>
</g>
</g>
<!-- Node9&#45;&gt;Node7 -->
<g id="edge9" class="edge">
<title>Node9&#45;&gt;Node7</title>
<path fill="none" stroke="#404040" d="M606.1623,-694.9547C591.4406,-681.0397 574.6373,-665.1572 558.8873,-650.2702"/>
<polygon fill="none" stroke="#404040" points="558.4802,-649.8854 551.372,-648.6708 549.7593,-641.6423 556.8674,-642.8569 558.4802,-649.8854"/>
<text text-anchor="middle" x="586" y="-663" font-family="Helvetica,sans-Serif" font-size="10.00" fill="#000000"> +i</text>
</g>
<!-- Node10 -->
<g id="node10" class="node">
<title>Node10</title>
<g id="a_node10"><a xlink:href="structGenericValue_1_1ShortString.html" target="_top" xlink:title="{GenericValue\&lt; Encoding,\l Allocator \&gt;::ShortString\n|+ str\l|+ SetLength()\l+ GetLength()\l+ Usable()\l}">
<polygon fill="none" stroke="#000000" points="584,-551.5 584,-641.5 712,-641.5 712,-551.5 584,-551.5"/>
<text text-anchor="start" x="592" y="-629.5" font-family="Helvetica,sans-Serif" font-size="10.00" fill="#000000">GenericValue&lt; Encoding,</text>
<text text-anchor="middle" x="648" y="-618.5" font-family="Helvetica,sans-Serif" font-size="10.00" fill="#000000"> Allocator &gt;::ShortString</text>
<polyline fill="none" stroke="#000000" points="584,-611.5 712,-611.5 "/>
<text text-anchor="start" x="592" y="-599.5" font-family="Helvetica,sans-Serif" font-size="10.00" fill="#000000">+ str</text>
<polyline fill="none" stroke="#000000" points="584,-592.5 712,-592.5 "/>
<text text-anchor="start" x="592" y="-580.5" font-family="Helvetica,sans-Serif" font-size="10.00" fill="#000000">+ SetLength()</text>
<text text-anchor="start" x="592" y="-569.5" font-family="Helvetica,sans-Serif" font-size="10.00" fill="#000000">+ GetLength()</text>
<text text-anchor="start" x="592" y="-558.5" font-family="Helvetica,sans-Serif" font-size="10.00" fill="#000000">+ Usable()</text>
</a>
</g>
</g>
<!-- Node10&#45;&gt;Node3 -->
<g id="edge10" class="edge">
<title>Node10&#45;&gt;Node3</title>
<path fill="none" stroke="#404040" d="M583.9154,-555.5828C580.9295,-553.9853 577.9486,-552.4492 575,-551 528.8092,-528.2977 474.6148,-508.0807 431.6939,-493.4613"/>
<polygon fill="none" stroke="#404040" points="431.5592,-493.416 424.596,-495.2904 420.1875,-489.5838 427.1508,-487.7093 431.5592,-493.416"/>
<text text-anchor="middle" x="545" y="-525" font-family="Helvetica,sans-Serif" font-size="10.00" fill="#000000"> +ss</text>
</g>
<!-- Node11 -->
<g id="node11" class="node">
<title>Node11</title>
<g id="a_node11"><a xlink:href="structGenericValue_1_1Flag.html" target="_top" xlink:title="{GenericValue\&lt; Encoding,\l Allocator \&gt;::Flag\n|+ payload\l+ flags\l|}">
<polygon fill="none" stroke="#000000" points="730,-557 730,-636 858,-636 858,-557 730,-557"/>
<text text-anchor="start" x="738" y="-624" font-family="Helvetica,sans-Serif" font-size="10.00" fill="#000000">GenericValue&lt; Encoding,</text>
<text text-anchor="middle" x="794" y="-613" font-family="Helvetica,sans-Serif" font-size="10.00" fill="#000000"> Allocator &gt;::Flag</text>
<polyline fill="none" stroke="#000000" points="730,-606 858,-606 "/>
<text text-anchor="start" x="738" y="-594" font-family="Helvetica,sans-Serif" font-size="10.00" fill="#000000">+ payload</text>
<text text-anchor="start" x="738" y="-583" font-family="Helvetica,sans-Serif" font-size="10.00" fill="#000000">+ flags</text>
<polyline fill="none" stroke="#000000" points="730,-576 858,-576 "/>
<text text-anchor="middle" x="794" y="-564" font-family="Helvetica,sans-Serif" font-size="10.00" fill="#000000"> </text>
</a>
</g>
</g>
<!-- Node11&#45;&gt;Node3 -->
<g id="edge11" class="edge">
<title>Node11&#45;&gt;Node3</title>
<path fill="none" stroke="#404040" d="M733.881,-556.9042C729.6017,-554.75 725.2844,-552.7538 721,-551 625.5158,-511.9152 507.938,-489.9505 432.4835,-478.9114"/>
<polygon fill="none" stroke="#404040" points="432.1639,-478.8658 425.6584,-481.9768 420.2846,-477.1682 426.7901,-474.0572 432.1639,-478.8658"/>
<text text-anchor="middle" x="670.5" y="-525" font-family="Helvetica,sans-Serif" font-size="10.00" fill="#000000"> +f</text>
</g>
</g>
</svg>
        <g id="navigator" transform="translate(0 0)" fill="#404254">
                <rect fill="#f2f5e9" fill-opacity="0.5" stroke="#606060" stroke-width=".5" x="0" y="0" width="60" height="60"/>
                <use id="zoomplus" xlink:href="#zoomPlus" x="17" y="9" onmousedown="handleZoom(evt,'in')"/>
                <use id="zoomminus" xlink:href="#zoomMin" x="42" y="9" onmousedown="handleZoom(evt,'out')"/>
                <use id="reset" xlink:href="#resetDef" x="30" y="36" onmousedown="handleReset()"/>
                <g id="arrowUp" xlink:href="#dirArrow" transform="translate(30 24)" onmousedown="handlePan(0,-1)">
                  <use xlink:href="#rim" fill="#404040">
                        <set attributeName="fill" to="#808080" begin="arrowUp.mouseover" end="arrowUp.mouseout"/>
                  </use>
                  <path fill="none" stroke="white" stroke-width="1.5" d="M0,-3.0v7 M-2.5,-0.5L0,-3.0L2.5,-0.5"/>
                </g>
                <g id="arrowRight" xlink:href="#dirArrow" transform="rotate(90) translate(36 -43)" onmousedown="handlePan(1,0)">
                  <use xlink:href="#rim" fill="#404040">
                        <set attributeName="fill" to="#808080" begin="arrowRight.mouseover" end="arrowRight.mouseout"/>
                  </use>
                  <path fill="none" stroke="white" stroke-width="1.5" d="M0,-3.0v7 M-2.5,-0.5L0,-3.0L2.5,-0.5"/>
                </g>
                <g id="arrowDown" xlink:href="#dirArrow" transform="rotate(180) translate(-30 -48)" onmousedown="handlePan(0,1)">
                  <use xlink:href="#rim" fill="#404040">
                        <set attributeName="fill" to="#808080" begin="arrowDown.mouseover" end="arrowDown.mouseout"/>
                  </use>
                  <path fill="none" stroke="white" stroke-width="1.5" d="M0,-3.0v7 M-2.5,-0.5L0,-3.0L2.5,-0.5"/>
                </g>
                <g id="arrowLeft" xlink:href="#dirArrow" transform="rotate(270) translate(-36 17)" onmousedown="handlePan(-1,0)">
                  <use xlink:href="#rim" fill="#404040">
                        <set attributeName="fill" to="#808080" begin="arrowLeft.mouseover" end="arrowLeft.mouseout"/>
                  </use>
                  <path fill="none" stroke="white" stroke-width="1.5" d="M0,-3.0v7 M-2.5,-0.5L0,-3.0L2.5,-0.5"/>
                </g>
        </g>
        <svg viewBox="0 0 15 15" width="100%" height="30px" preserveAspectRatio="xMaxYMin meet">
         <g id="arrow_out" transform="scale(0.3 0.3)">
          <a xlink:href="structGenericValue_1_1ArrayData__coll__graph_org.svg" target="_base">
           <rect id="button" ry="5" rx="5" y="6" x="6" height="38" width="38"
                fill="#f2f5e9" fill-opacity="0.5" stroke="#606060" stroke-width="1.0"/>
           <path id="arrow"
             d="M 11.500037,31.436501 C 11.940474,20.09759 22.043105,11.32322 32.158766,21.979434 L 37.068811,17.246167 C 37.068811,17.246167 37.088388,32 37.088388,32 L 22.160133,31.978069 C 22.160133,31.978069 26.997745,27.140456 26.997745,27.140456 C 18.528582,18.264221 13.291696,25.230495 11.500037,31.436501 z"
             style="fill:#404040;"/>
          </a>
         </g>
        </svg>
</svg>
