<?xml version="1.0" encoding="UTF-8" standalone="no"?>
<!DOCTYPE svg PUBLIC "-//W3C//DTD SVG 1.1//EN"
 "http://www.w3.org/Graphics/SVG/1.1/DTD/svg11.dtd">
<!-- Generated by graphviz version 2.40.1 (20161225.0304)
 -->
<!-- Title: ImGuiInputEvent Pages: 1 -->
<svg width="893pt" height="226pt"
 viewBox="0.00 0.00 893.00 226.00" xmlns="http://www.w3.org/2000/svg" xmlns:xlink="http://www.w3.org/1999/xlink">
<g id="graph0" class="graph" transform="scale(1 1) rotate(0) translate(4 222)">
<title>ImGuiInputEvent</title>
<!-- Node1 -->
<g id="node1" class="node">
<title>Node1</title>
<polygon fill="#bfbfbf" stroke="#000000" points="408,-.5 408,-90.5 523,-90.5 523,-.5 408,-.5"/>
<text text-anchor="middle" x="465.5" y="-78.5" font-family="Helvetica,sans-Serif" font-size="10.00" fill="#000000">ImGuiInputEvent</text>
<polyline fill="none" stroke="#000000" points="408,-71.5 523,-71.5 "/>
<text text-anchor="start" x="416" y="-59.5" font-family="Helvetica,sans-Serif" font-size="10.00" fill="#000000">+ Type</text>
<text text-anchor="start" x="416" y="-48.5" font-family="Helvetica,sans-Serif" font-size="10.00" fill="#000000">+ Source</text>
<text text-anchor="start" x="416" y="-37.5" font-family="Helvetica,sans-Serif" font-size="10.00" fill="#000000">+ @7</text>
<text text-anchor="start" x="416" y="-26.5" font-family="Helvetica,sans-Serif" font-size="10.00" fill="#000000">+ AddedByTestEngine</text>
<polyline fill="none" stroke="#000000" points="408,-19.5 523,-19.5 "/>
<text text-anchor="start" x="416" y="-7.5" font-family="Helvetica,sans-Serif" font-size="10.00" fill="#000000">+ ImGuiInputEvent()</text>
</g>
<!-- Node2 -->
<g id="node2" class="node">
<title>Node2</title>
<g id="a_node2"><a xlink:href="structImGuiInputEventAppFocused.html" target="_top" xlink:title="{ImGuiInputEventAppFocused\n|+ Focused\l|}">
<polygon fill="none" stroke="#000000" points="0,-149.5 0,-206.5 145,-206.5 145,-149.5 0,-149.5"/>
<text text-anchor="middle" x="72.5" y="-194.5" font-family="Helvetica,sans-Serif" font-size="10.00" fill="#000000">ImGuiInputEventAppFocused</text>
<polyline fill="none" stroke="#000000" points="0,-187.5 145,-187.5 "/>
<text text-anchor="start" x="8" y="-175.5" font-family="Helvetica,sans-Serif" font-size="10.00" fill="#000000">+ Focused</text>
<polyline fill="none" stroke="#000000" points="0,-168.5 145,-168.5 "/>
<text text-anchor="middle" x="72.5" y="-156.5" font-family="Helvetica,sans-Serif" font-size="10.00" fill="#000000"> </text>
</a>
</g>
</g>
<!-- Node2&#45;&gt;Node1 -->
<g id="edge1" class="edge">
<title>Node2&#45;&gt;Node1</title>
<path fill="none" stroke="#404040" d="M127.2701,-149.3921C135.9377,-145.3205 144.8844,-141.376 153.5,-138 234.9159,-106.0974 331.9303,-78.9594 395.922,-62.486"/>
<polygon fill="none" stroke="#404040" points="396.2431,-62.4041 401.067,-57.0441 407.8701,-59.4354 403.0461,-64.7954 396.2431,-62.4041"/>
<text text-anchor="middle" x="261.5" y="-112" font-family="Helvetica,sans-Serif" font-size="10.00" fill="#000000"> +AppFocused</text>
</g>
<!-- Node3 -->
<g id="node3" class="node">
<title>Node3</title>
<g id="a_node3"><a xlink:href="structImGuiInputEventMousePos.html" target="_top" xlink:title="{ImGuiInputEventMousePos\n|+ PosX\l+ PosY\l|}">
<polygon fill="none" stroke="#000000" points="163,-144 163,-212 300,-212 300,-144 163,-144"/>
<text text-anchor="middle" x="231.5" y="-200" font-family="Helvetica,sans-Serif" font-size="10.00" fill="#000000">ImGuiInputEventMousePos</text>
<polyline fill="none" stroke="#000000" points="163,-193 300,-193 "/>
<text text-anchor="start" x="171" y="-181" font-family="Helvetica,sans-Serif" font-size="10.00" fill="#000000">+ PosX</text>
<text text-anchor="start" x="171" y="-170" font-family="Helvetica,sans-Serif" font-size="10.00" fill="#000000">+ PosY</text>
<polyline fill="none" stroke="#000000" points="163,-163 300,-163 "/>
<text text-anchor="middle" x="231.5" y="-151" font-family="Helvetica,sans-Serif" font-size="10.00" fill="#000000"> </text>
</a>
</g>
</g>
<!-- Node3&#45;&gt;Node1 -->
<g id="edge2" class="edge">
<title>Node3&#45;&gt;Node1</title>
<path fill="none" stroke="#404040" d="M291.7608,-143.878C324.0192,-125.612 363.8704,-103.0467 397.2657,-84.1369"/>
<polygon fill="none" stroke="#404040" points="397.4215,-84.0488 400.6717,-77.6116 407.8637,-78.1359 404.6136,-84.5731 397.4215,-84.0488"/>
<text text-anchor="middle" x="376.5" y="-112" font-family="Helvetica,sans-Serif" font-size="10.00" fill="#000000"> +MousePos</text>
</g>
<!-- Node4 -->
<g id="node4" class="node">
<title>Node4</title>
<g id="a_node4"><a xlink:href="structImGuiInputEventMouseButton.html" target="_top" xlink:title="{ImGuiInputEventMouseButton\n|+ Button\l+ Down\l|}">
<polygon fill="none" stroke="#000000" points="318.5,-144 318.5,-212 466.5,-212 466.5,-144 318.5,-144"/>
<text text-anchor="middle" x="392.5" y="-200" font-family="Helvetica,sans-Serif" font-size="10.00" fill="#000000">ImGuiInputEventMouseButton</text>
<polyline fill="none" stroke="#000000" points="318.5,-193 466.5,-193 "/>
<text text-anchor="start" x="326.5" y="-181" font-family="Helvetica,sans-Serif" font-size="10.00" fill="#000000">+ Button</text>
<text text-anchor="start" x="326.5" y="-170" font-family="Helvetica,sans-Serif" font-size="10.00" fill="#000000">+ Down</text>
<polyline fill="none" stroke="#000000" points="318.5,-163 466.5,-163 "/>
<text text-anchor="middle" x="392.5" y="-151" font-family="Helvetica,sans-Serif" font-size="10.00" fill="#000000"> </text>
</a>
</g>
</g>
<!-- Node4&#45;&gt;Node1 -->
<g id="edge3" class="edge">
<title>Node4&#45;&gt;Node1</title>
<path fill="none" stroke="#404040" d="M411.2993,-143.878C418.4361,-130.9243 426.7641,-115.8084 434.7202,-101.3674"/>
<polygon fill="none" stroke="#404040" points="434.9153,-101.0133 434.3071,-93.8279 440.706,-90.5029 441.3141,-97.6883 434.9153,-101.0133"/>
<text text-anchor="middle" x="463" y="-112" font-family="Helvetica,sans-Serif" font-size="10.00" fill="#000000"> +MouseButton</text>
</g>
<!-- Node5 -->
<g id="node5" class="node">
<title>Node5</title>
<g id="a_node5"><a xlink:href="structImGuiInputEventText.html" target="_top" xlink:title="{ImGuiInputEventText\n|+ Char\l|}">
<polygon fill="none" stroke="#000000" points="484.5,-149.5 484.5,-206.5 594.5,-206.5 594.5,-149.5 484.5,-149.5"/>
<text text-anchor="middle" x="539.5" y="-194.5" font-family="Helvetica,sans-Serif" font-size="10.00" fill="#000000">ImGuiInputEventText</text>
<polyline fill="none" stroke="#000000" points="484.5,-187.5 594.5,-187.5 "/>
<text text-anchor="start" x="492.5" y="-175.5" font-family="Helvetica,sans-Serif" font-size="10.00" fill="#000000">+ Char</text>
<polyline fill="none" stroke="#000000" points="484.5,-168.5 594.5,-168.5 "/>
<text text-anchor="middle" x="539.5" y="-156.5" font-family="Helvetica,sans-Serif" font-size="10.00" fill="#000000"> </text>
</a>
</g>
</g>
<!-- Node5&#45;&gt;Node1 -->
<g id="edge4" class="edge">
<title>Node5&#45;&gt;Node1</title>
<path fill="none" stroke="#404040" d="M523.4431,-149.2495C515.5974,-135.2015 505.8785,-117.7993 496.6564,-101.2868"/>
<polygon fill="none" stroke="#404040" points="496.5439,-101.0852 490.126,-97.7972 490.6926,-90.6084 497.1105,-93.8964 496.5439,-101.0852"/>
<text text-anchor="middle" x="521" y="-112" font-family="Helvetica,sans-Serif" font-size="10.00" fill="#000000"> +Text</text>
</g>
<!-- Node6 -->
<g id="node6" class="node">
<title>Node6</title>
<g id="a_node6"><a xlink:href="structImGuiInputEventMouseWheel.html" target="_top" xlink:title="{ImGuiInputEventMouseWheel\n|+ WheelX\l+ WheelY\l|}">
<polygon fill="none" stroke="#000000" points="613,-144 613,-212 760,-212 760,-144 613,-144"/>
<text text-anchor="middle" x="686.5" y="-200" font-family="Helvetica,sans-Serif" font-size="10.00" fill="#000000">ImGuiInputEventMouseWheel</text>
<polyline fill="none" stroke="#000000" points="613,-193 760,-193 "/>
<text text-anchor="start" x="621" y="-181" font-family="Helvetica,sans-Serif" font-size="10.00" fill="#000000">+ WheelX</text>
<text text-anchor="start" x="621" y="-170" font-family="Helvetica,sans-Serif" font-size="10.00" fill="#000000">+ WheelY</text>
<polyline fill="none" stroke="#000000" points="613,-163 760,-163 "/>
<text text-anchor="middle" x="686.5" y="-151" font-family="Helvetica,sans-Serif" font-size="10.00" fill="#000000"> </text>
</a>
</g>
</g>
<!-- Node6&#45;&gt;Node1 -->
<g id="edge5" class="edge">
<title>Node6&#45;&gt;Node1</title>
<path fill="none" stroke="#404040" d="M629.587,-143.878C600.4141,-126.3874 564.6663,-104.9549 533.9924,-86.5645"/>
<polygon fill="none" stroke="#404040" points="533.6654,-86.3684 526.4625,-86.7138 523.3734,-80.1979 530.5763,-79.8525 533.6654,-86.3684"/>
<text text-anchor="middle" x="622" y="-112" font-family="Helvetica,sans-Serif" font-size="10.00" fill="#000000"> +MouseWheel</text>
</g>
<!-- Node7 -->
<g id="node7" class="node">
<title>Node7</title>
<g id="a_node7"><a xlink:href="structImGuiInputEventKey.html" target="_top" xlink:title="{ImGuiInputEventKey\n|+ Key\l+ Down\l+ AnalogValue\l|}">
<polygon fill="none" stroke="#000000" points="778,-138.5 778,-217.5 885,-217.5 885,-138.5 778,-138.5"/>
<text text-anchor="middle" x="831.5" y="-205.5" font-family="Helvetica,sans-Serif" font-size="10.00" fill="#000000">ImGuiInputEventKey</text>
<polyline fill="none" stroke="#000000" points="778,-198.5 885,-198.5 "/>
<text text-anchor="start" x="786" y="-186.5" font-family="Helvetica,sans-Serif" font-size="10.00" fill="#000000">+ Key</text>
<text text-anchor="start" x="786" y="-175.5" font-family="Helvetica,sans-Serif" font-size="10.00" fill="#000000">+ Down</text>
<text text-anchor="start" x="786" y="-164.5" font-family="Helvetica,sans-Serif" font-size="10.00" fill="#000000">+ AnalogValue</text>
<polyline fill="none" stroke="#000000" points="778,-157.5 885,-157.5 "/>
<text text-anchor="middle" x="831.5" y="-145.5" font-family="Helvetica,sans-Serif" font-size="10.00" fill="#000000"> </text>
</a>
</g>
</g>
<!-- Node7&#45;&gt;Node1 -->
<g id="edge6" class="edge">
<title>Node7&#45;&gt;Node1</title>
<path fill="none" stroke="#404040" d="M777.9045,-142.1751C775.1001,-140.6955 772.2891,-139.2932 769.5,-138 692.3902,-102.2458 597.9842,-76.0238 535.0309,-60.8108"/>
<polygon fill="none" stroke="#404040" points="534.9372,-60.7885 528.1734,-63.2888 523.264,-58.0069 530.0278,-55.5067 534.9372,-60.7885"/>
<text text-anchor="middle" x="735" y="-112" font-family="Helvetica,sans-Serif" font-size="10.00" fill="#000000"> +Key</text>
</g>
</g>
</svg>
