<?xml version="1.0" encoding="UTF-8" standalone="no"?>
<!DOCTYPE svg PUBLIC "-//W3C//DTD SVG 1.1//EN"
 "http://www.w3.org/Graphics/SVG/1.1/DTD/svg11.dtd">
<!-- Generated by graphviz version 2.40.1 (20161225.0304)
 -->
<!-- Title: internal::IsGenericValue&lt; T &gt; Pages: 1 -->
<svg width="153pt" height="171pt"
 viewBox="0.00 0.00 153.00 171.00" xmlns="http://www.w3.org/2000/svg" xmlns:xlink="http://www.w3.org/1999/xlink">
<g id="graph0" class="graph" transform="scale(1 1) rotate(0) translate(4 167)">
<title>internal::IsGenericValue&lt; T &gt;</title>
<!-- Node2 -->
<g id="node1" class="node">
<title>Node2</title>
<polygon fill="#bfbfbf" stroke="#000000" points="0,-.5 0,-57.5 145,-57.5 145,-.5 0,-.5"/>
<text text-anchor="middle" x="72.5" y="-45.5" font-family="Helvetica,sans-Serif" font-size="10.00" fill="#000000">internal::IsGenericValue&lt; T &gt;</text>
<polyline fill="none" stroke="#000000" points="0,-38.5 145,-38.5 "/>
<text text-anchor="middle" x="72.5" y="-26.5" font-family="Helvetica,sans-Serif" font-size="10.00" fill="#000000"> </text>
<polyline fill="none" stroke="#000000" points="0,-19.5 145,-19.5 "/>
<text text-anchor="middle" x="72.5" y="-7.5" font-family="Helvetica,sans-Serif" font-size="10.00" fill="#000000"> </text>
</g>
<!-- Node3 -->
<g id="node2" class="node">
<title>Node3</title>
<polygon fill="none" stroke="#bfbfbf" points="21.5,-94.5 21.5,-162.5 123.5,-162.5 123.5,-94.5 21.5,-94.5"/>
<text text-anchor="start" x="29.5" y="-150.5" font-family="Helvetica,sans-Serif" font-size="10.00" fill="#000000">IsGenericValueImpl</text>
<text text-anchor="middle" x="72.5" y="-139.5" font-family="Helvetica,sans-Serif" font-size="10.00" fill="#000000">&lt; T &gt;::Type</text>
<polyline fill="none" stroke="#bfbfbf" points="21.5,-132.5 123.5,-132.5 "/>
<text text-anchor="middle" x="72.5" y="-120.5" font-family="Helvetica,sans-Serif" font-size="10.00" fill="#000000"> </text>
<polyline fill="none" stroke="#bfbfbf" points="21.5,-113.5 123.5,-113.5 "/>
<text text-anchor="middle" x="72.5" y="-101.5" font-family="Helvetica,sans-Serif" font-size="10.00" fill="#000000"> </text>
</g>
<!-- Node3&#45;&gt;Node2 -->
<g id="edge1" class="edge">
<title>Node3&#45;&gt;Node2</title>
<path fill="none" stroke="#191970" d="M72.5,-84.2499C72.5,-75.2373 72.5,-65.981 72.5,-57.6836"/>
<polygon fill="none" stroke="#191970" points="69.0001,-84.2577 72.5,-94.2577 76.0001,-84.2578 69.0001,-84.2577"/>
</g>
</g>
</svg>
