<?xml version="1.0" encoding="UTF-8" standalone="no"?>
<!DOCTYPE svg PUBLIC "-//W3C//DTD SVG 1.1//EN"
 "http://www.w3.org/Graphics/SVG/1.1/DTD/svg11.dtd">
<!-- Generated by graphviz version 2.40.1 (20161225.0304)
 -->
<!-- Title: MemoryPoolAllocator&lt; BaseAllocator &gt;::SharedData Pages: 1 -->
<svg width="311pt" height="320pt"
 viewBox="0.00 0.00 311.00 320.00" xmlns="http://www.w3.org/2000/svg" xmlns:xlink="http://www.w3.org/1999/xlink">
<g id="graph0" class="graph" transform="scale(1 1) rotate(0) translate(4 316)">
<title>MemoryPoolAllocator&lt; BaseAllocator &gt;::SharedData</title>
<!-- Node1 -->
<g id="node1" class="node">
<title>Node1</title>
<polygon fill="#bfbfbf" stroke="#000000" points="0,-.5 0,-79.5 153,-79.5 153,-.5 0,-.5"/>
<text text-anchor="start" x="8" y="-67.5" font-family="Helvetica,sans-Serif" font-size="10.00" fill="#000000">MemoryPoolAllocator</text>
<text text-anchor="middle" x="76.5" y="-56.5" font-family="Helvetica,sans-Serif" font-size="10.00" fill="#000000">&lt; BaseAllocator &gt;::SharedData</text>
<polyline fill="none" stroke="#000000" points="0,-49.5 153,-49.5 "/>
<text text-anchor="start" x="8" y="-37.5" font-family="Helvetica,sans-Serif" font-size="10.00" fill="#000000">+ ownBaseAllocator</text>
<text text-anchor="start" x="8" y="-26.5" font-family="Helvetica,sans-Serif" font-size="10.00" fill="#000000">+ ownBuffer</text>
<polyline fill="none" stroke="#000000" points="0,-19.5 153,-19.5 "/>
<text text-anchor="middle" x="76.5" y="-7.5" font-family="Helvetica,sans-Serif" font-size="10.00" fill="#000000"> </text>
</g>
<!-- Node2 -->
<g id="node2" class="node">
<title>Node2</title>
<g id="a_node2"><a xlink:href="structMemoryPoolAllocator_1_1ChunkHeader.html" target="_top" xlink:title="Chunk header for perpending to each chunk. ">
<polygon fill="none" stroke="#000000" points="96,-127.5 96,-195.5 257,-195.5 257,-127.5 96,-127.5"/>
<text text-anchor="start" x="104" y="-183.5" font-family="Helvetica,sans-Serif" font-size="10.00" fill="#000000">MemoryPoolAllocator</text>
<text text-anchor="middle" x="176.5" y="-172.5" font-family="Helvetica,sans-Serif" font-size="10.00" fill="#000000">&lt; BaseAllocator &gt;::ChunkHeader</text>
<polyline fill="none" stroke="#000000" points="96,-165.5 257,-165.5 "/>
<text text-anchor="middle" x="176.5" y="-153.5" font-family="Helvetica,sans-Serif" font-size="10.00" fill="#000000"> </text>
<polyline fill="none" stroke="#000000" points="96,-146.5 257,-146.5 "/>
<text text-anchor="middle" x="176.5" y="-134.5" font-family="Helvetica,sans-Serif" font-size="10.00" fill="#000000"> </text>
</a>
</g>
</g>
<!-- Node2&#45;&gt;Node1 -->
<g id="edge1" class="edge">
<title>Node2&#45;&gt;Node1</title>
<path fill="none" stroke="#404040" d="M148.3783,-127.3321C138.7111,-115.5865 127.6847,-102.1894 117.2203,-89.4752"/>
<polygon fill="none" stroke="#404040" points="116.9854,-89.1897 110.084,-87.0989 109.3595,-79.9243 116.2609,-82.0151 116.9854,-89.1897"/>
<text text-anchor="middle" x="161" y="-101" font-family="Helvetica,sans-Serif" font-size="10.00" fill="#000000"> +chunkHead</text>
</g>
<!-- Node2&#45;&gt;Node2 -->
<g id="edge2" class="edge">
<title>Node2&#45;&gt;Node2</title>
<path fill="none" stroke="#404040" d="M257.2696,-171.09C267.9299,-169.4545 275,-166.2578 275,-161.5 275,-158.8237 272.763,-156.6414 268.9083,-154.9531"/>
<polygon fill="none" stroke="#404040" points="268.8793,-154.9456 262.0626,-157.2977 257.2696,-151.91 264.0863,-149.5579 268.8793,-154.9456"/>
<text text-anchor="middle" x="289" y="-159" font-family="Helvetica,sans-Serif" font-size="10.00" fill="#000000"> +next</text>
</g>
<!-- Node3 -->
<g id="node3" class="node">
<title>Node3</title>
<polygon fill="none" stroke="#bfbfbf" points="27,-254.5 27,-311.5 70,-311.5 70,-254.5 27,-254.5"/>
<text text-anchor="middle" x="48.5" y="-299.5" font-family="Helvetica,sans-Serif" font-size="10.00" fill="#000000">size_t</text>
<polyline fill="none" stroke="#bfbfbf" points="27,-292.5 70,-292.5 "/>
<text text-anchor="middle" x="48.5" y="-280.5" font-family="Helvetica,sans-Serif" font-size="10.00" fill="#000000"> </text>
<polyline fill="none" stroke="#bfbfbf" points="27,-273.5 70,-273.5 "/>
<text text-anchor="middle" x="48.5" y="-261.5" font-family="Helvetica,sans-Serif" font-size="10.00" fill="#000000"> </text>
</g>
<!-- Node3&#45;&gt;Node1 -->
<g id="edge4" class="edge">
<title>Node3&#45;&gt;Node1</title>
<path fill="none" stroke="#404040" d="M43.5838,-254.2506C39.0748,-222.7334 34.2428,-170.8137 42.5,-127 44.7525,-115.0479 48.6034,-102.6318 52.9229,-91.0493"/>
<polygon fill="none" stroke="#404040" points="52.9588,-90.9579 51.436,-83.9094 57.3566,-79.7928 58.8794,-86.8413 52.9588,-90.9579"/>
<text text-anchor="middle" x="65" y="-159" font-family="Helvetica,sans-Serif" font-size="10.00" fill="#000000"> +refcount</text>
</g>
<!-- Node3&#45;&gt;Node2 -->
<g id="edge3" class="edge">
<title>Node3&#45;&gt;Node2</title>
<path fill="none" stroke="#404040" d="M70.2135,-262.3892C87.0642,-246.3941 110.9941,-223.6794 131.8824,-203.8519"/>
<polygon fill="none" stroke="#404040" points="131.9153,-203.8206 133.5132,-196.7887 140.6188,-195.5591 139.0209,-202.591 131.9153,-203.8206"/>
<text text-anchor="middle" x="142.5" y="-228" font-family="Helvetica,sans-Serif" font-size="10.00" fill="#000000"> +capacity</text>
<text text-anchor="middle" x="142.5" y="-217" font-family="Helvetica,sans-Serif" font-size="10.00" fill="#000000">+size</text>
</g>
</g>
</svg>
