<?xml version="1.0" encoding="UTF-8" standalone="no"?>
<!DOCTYPE svg PUBLIC "-//W3C//DTD SVG 1.1//EN"
 "http://www.w3.org/Graphics/SVG/1.1/DTD/svg11.dtd">
<!-- Generated by graphviz version 2.40.1 (20161225.0304)
 -->
<!-- Title: UTF16&lt; CharType &gt; Pages: 1 -->
<svg width="266pt" height="237pt"
 viewBox="0.00 0.00 266.00 237.00" xmlns="http://www.w3.org/2000/svg" xmlns:xlink="http://www.w3.org/1999/xlink">
<g id="graph0" class="graph" transform="scale(1 1) rotate(0) translate(4 233)">
<title>UTF16&lt; CharType &gt;</title>
<!-- Node0 -->
<g id="node1" class="node">
<title>Node0</title>
<polygon fill="#bfbfbf" stroke="#000000" points="41,-127.5 41,-228.5 218,-228.5 218,-127.5 41,-127.5"/>
<text text-anchor="middle" x="129.5" y="-216.5" font-family="Helvetica,sans-Serif" font-size="10.00" fill="#000000">UTF16&lt; CharType &gt;</text>
<polyline fill="none" stroke="#000000" points="41,-209.5 218,-209.5 "/>
<text text-anchor="middle" x="129.5" y="-197.5" font-family="Helvetica,sans-Serif" font-size="10.00" fill="#000000"> </text>
<polyline fill="none" stroke="#000000" points="41,-190.5 218,-190.5 "/>
<text text-anchor="start" x="49" y="-178.5" font-family="Helvetica,sans-Serif" font-size="10.00" fill="#000000">+ RAPIDJSON_STATIC_ASSERT()</text>
<text text-anchor="start" x="49" y="-167.5" font-family="Helvetica,sans-Serif" font-size="10.00" fill="#000000">+ Encode()</text>
<text text-anchor="start" x="49" y="-156.5" font-family="Helvetica,sans-Serif" font-size="10.00" fill="#000000">+ EncodeUnsafe()</text>
<text text-anchor="start" x="49" y="-145.5" font-family="Helvetica,sans-Serif" font-size="10.00" fill="#000000">+ Decode()</text>
<text text-anchor="start" x="49" y="-134.5" font-family="Helvetica,sans-Serif" font-size="10.00" fill="#000000">+ Validate()</text>
</g>
<!-- Node1 -->
<g id="node2" class="node">
<title>Node1</title>
<g id="a_node2"><a xlink:href="structUTF16BE.html" target="_top" xlink:title="UTF&#45;16 big endian encoding. ">
<polygon fill="none" stroke="#000000" points="0,-.5 0,-90.5 121,-90.5 121,-.5 0,-.5"/>
<text text-anchor="middle" x="60.5" y="-78.5" font-family="Helvetica,sans-Serif" font-size="10.00" fill="#000000">UTF16BE&lt; CharType &gt;</text>
<polyline fill="none" stroke="#000000" points="0,-71.5 121,-71.5 "/>
<text text-anchor="middle" x="60.5" y="-59.5" font-family="Helvetica,sans-Serif" font-size="10.00" fill="#000000"> </text>
<polyline fill="none" stroke="#000000" points="0,-52.5 121,-52.5 "/>
<text text-anchor="start" x="8" y="-40.5" font-family="Helvetica,sans-Serif" font-size="10.00" fill="#000000">+ TakeBOM()</text>
<text text-anchor="start" x="8" y="-29.5" font-family="Helvetica,sans-Serif" font-size="10.00" fill="#000000">+ Take()</text>
<text text-anchor="start" x="8" y="-18.5" font-family="Helvetica,sans-Serif" font-size="10.00" fill="#000000">+ PutBOM()</text>
<text text-anchor="start" x="8" y="-7.5" font-family="Helvetica,sans-Serif" font-size="10.00" fill="#000000">+ Put()</text>
</a>
</g>
</g>
<!-- Node0&#45;&gt;Node1 -->
<g id="edge1" class="edge">
<title>Node0&#45;&gt;Node1</title>
<path fill="none" stroke="#191970" d="M98.2899,-118.0676C93.5178,-108.9038 88.6609,-99.5772 84.0891,-90.7978"/>
<polygon fill="none" stroke="#191970" points="95.297,-119.8981 103.0201,-127.151 101.5056,-116.6649 95.297,-119.8981"/>
</g>
<!-- Node2 -->
<g id="node3" class="node">
<title>Node2</title>
<g id="a_node3"><a xlink:href="structUTF16LE.html" target="_top" xlink:title="UTF&#45;16 little endian encoding. ">
<polygon fill="none" stroke="#000000" points="139,-.5 139,-90.5 258,-90.5 258,-.5 139,-.5"/>
<text text-anchor="middle" x="198.5" y="-78.5" font-family="Helvetica,sans-Serif" font-size="10.00" fill="#000000">UTF16LE&lt; CharType &gt;</text>
<polyline fill="none" stroke="#000000" points="139,-71.5 258,-71.5 "/>
<text text-anchor="middle" x="198.5" y="-59.5" font-family="Helvetica,sans-Serif" font-size="10.00" fill="#000000"> </text>
<polyline fill="none" stroke="#000000" points="139,-52.5 258,-52.5 "/>
<text text-anchor="start" x="147" y="-40.5" font-family="Helvetica,sans-Serif" font-size="10.00" fill="#000000">+ TakeBOM()</text>
<text text-anchor="start" x="147" y="-29.5" font-family="Helvetica,sans-Serif" font-size="10.00" fill="#000000">+ Take()</text>
<text text-anchor="start" x="147" y="-18.5" font-family="Helvetica,sans-Serif" font-size="10.00" fill="#000000">+ PutBOM()</text>
<text text-anchor="start" x="147" y="-7.5" font-family="Helvetica,sans-Serif" font-size="10.00" fill="#000000">+ Put()</text>
</a>
</g>
</g>
<!-- Node0&#45;&gt;Node2 -->
<g id="edge2" class="edge">
<title>Node0&#45;&gt;Node2</title>
<path fill="none" stroke="#191970" d="M160.7101,-118.0676C165.4822,-108.9038 170.3391,-99.5772 174.9109,-90.7978"/>
<polygon fill="none" stroke="#191970" points="157.4944,-116.6649 155.9799,-127.151 163.703,-119.8981 157.4944,-116.6649"/>
</g>
</g>
</svg>
