<?xml version="1.0" encoding="UTF-8" standalone="no"?>
<!DOCTYPE svg PUBLIC "-//W3C//DTD SVG 1.1//EN"
 "http://www.w3.org/Graphics/SVG/1.1/DTD/svg11.dtd">
<!-- Generated by graphviz version 2.40.1 (20161225.0304)
 -->
<!-- Title: ImGuiWindowSettings Pages: 1 -->
<svg width="137pt" height="248pt"
 viewBox="0.00 0.00 137.00 248.00" xmlns="http://www.w3.org/2000/svg" xmlns:xlink="http://www.w3.org/1999/xlink">
<g id="graph0" class="graph" transform="scale(1 1) rotate(0) translate(4 244)">
<title>ImGuiWindowSettings</title>
<!-- Node1 -->
<g id="node1" class="node">
<title>Node1</title>
<polygon fill="#bfbfbf" stroke="#000000" points="0,-.5 0,-90.5 129,-90.5 129,-.5 0,-.5"/>
<text text-anchor="middle" x="64.5" y="-78.5" font-family="Helvetica,sans-Serif" font-size="10.00" fill="#000000">ImGuiWindowSettings</text>
<polyline fill="none" stroke="#000000" points="0,-71.5 129,-71.5 "/>
<text text-anchor="start" x="8" y="-59.5" font-family="Helvetica,sans-Serif" font-size="10.00" fill="#000000">+ ID</text>
<text text-anchor="start" x="8" y="-48.5" font-family="Helvetica,sans-Serif" font-size="10.00" fill="#000000">+ Collapsed</text>
<text text-anchor="start" x="8" y="-37.5" font-family="Helvetica,sans-Serif" font-size="10.00" fill="#000000">+ WantApply</text>
<polyline fill="none" stroke="#000000" points="0,-30.5 129,-30.5 "/>
<text text-anchor="start" x="8" y="-18.5" font-family="Helvetica,sans-Serif" font-size="10.00" fill="#000000">+ ImGuiWindowSettings()</text>
<text text-anchor="start" x="8" y="-7.5" font-family="Helvetica,sans-Serif" font-size="10.00" fill="#000000">+ GetName()</text>
</g>
<!-- Node2 -->
<g id="node2" class="node">
<title>Node2</title>
<g id="a_node2"><a xlink:href="structImVec2ih.html" target="_top" xlink:title="{ImVec2ih\n|+ x\l+ y\l|+ ImVec2ih()\l+ ImVec2ih()\l+ ImVec2ih()\l}">
<polygon fill="none" stroke="#000000" points="28,-149.5 28,-239.5 101,-239.5 101,-149.5 28,-149.5"/>
<text text-anchor="middle" x="64.5" y="-227.5" font-family="Helvetica,sans-Serif" font-size="10.00" fill="#000000">ImVec2ih</text>
<polyline fill="none" stroke="#000000" points="28,-220.5 101,-220.5 "/>
<text text-anchor="start" x="36" y="-208.5" font-family="Helvetica,sans-Serif" font-size="10.00" fill="#000000">+ x</text>
<text text-anchor="start" x="36" y="-197.5" font-family="Helvetica,sans-Serif" font-size="10.00" fill="#000000">+ y</text>
<polyline fill="none" stroke="#000000" points="28,-190.5 101,-190.5 "/>
<text text-anchor="start" x="36" y="-178.5" font-family="Helvetica,sans-Serif" font-size="10.00" fill="#000000">+ ImVec2ih()</text>
<text text-anchor="start" x="36" y="-167.5" font-family="Helvetica,sans-Serif" font-size="10.00" fill="#000000">+ ImVec2ih()</text>
<text text-anchor="start" x="36" y="-156.5" font-family="Helvetica,sans-Serif" font-size="10.00" fill="#000000">+ ImVec2ih()</text>
</a>
</g>
</g>
<!-- Node2&#45;&gt;Node1 -->
<g id="edge1" class="edge">
<title>Node2&#45;&gt;Node1</title>
<path fill="none" stroke="#404040" d="M64.5,-149.3907C64.5,-134.7246 64.5,-118.2487 64.5,-102.8137"/>
<polygon fill="none" stroke="#404040" points="64.5001,-102.7129 60.5,-96.7129 64.5,-90.7129 68.5,-96.7128 64.5001,-102.7129"/>
<text text-anchor="middle" x="78" y="-123" font-family="Helvetica,sans-Serif" font-size="10.00" fill="#000000"> +Pos</text>
<text text-anchor="middle" x="78" y="-112" font-family="Helvetica,sans-Serif" font-size="10.00" fill="#000000">+Size</text>
</g>
</g>
</svg>
