<?xml version="1.0" encoding="UTF-8" standalone="no"?>
<!DOCTYPE svg PUBLIC "-//W3C//DTD SVG 1.1//EN"
 "http://www.w3.org/Graphics/SVG/1.1/DTD/svg11.dtd">
<!-- Generated by graphviz version 2.40.1 (20161225.0304)
 -->
<!-- Title: ImGuiGroupData Pages: 1 -->
<svg width="254pt" height="303pt"
 viewBox="0.00 0.00 253.50 303.00" xmlns="http://www.w3.org/2000/svg" xmlns:xlink="http://www.w3.org/1999/xlink">
<g id="graph0" class="graph" transform="scale(1 1) rotate(0) translate(4 299)">
<title>ImGuiGroupData</title>
<!-- Node1 -->
<g id="node1" class="node">
<title>Node1</title>
<polygon fill="#bfbfbf" stroke="#000000" points="9.5,-.5 9.5,-123.5 173.5,-123.5 173.5,-.5 9.5,-.5"/>
<text text-anchor="middle" x="91.5" y="-111.5" font-family="Helvetica,sans-Serif" font-size="10.00" fill="#000000">ImGuiGroupData</text>
<polyline fill="none" stroke="#000000" points="9.5,-104.5 173.5,-104.5 "/>
<text text-anchor="start" x="17.5" y="-92.5" font-family="Helvetica,sans-Serif" font-size="10.00" fill="#000000">+ WindowID</text>
<text text-anchor="start" x="17.5" y="-81.5" font-family="Helvetica,sans-Serif" font-size="10.00" fill="#000000">+ BackupCurrLineTextBaseOffset</text>
<text text-anchor="start" x="17.5" y="-70.5" font-family="Helvetica,sans-Serif" font-size="10.00" fill="#000000">+ BackupActiveIdIsAlive</text>
<text text-anchor="start" x="17.5" y="-59.5" font-family="Helvetica,sans-Serif" font-size="10.00" fill="#000000">+ BackupActiveIdPreviousFrame</text>
<text text-anchor="start" x="17.5" y="-48.5" font-family="Helvetica,sans-Serif" font-size="10.00" fill="#000000">IsAlive</text>
<text text-anchor="start" x="17.5" y="-37.5" font-family="Helvetica,sans-Serif" font-size="10.00" fill="#000000">+ BackupHoveredIdIsAlive</text>
<text text-anchor="start" x="17.5" y="-26.5" font-family="Helvetica,sans-Serif" font-size="10.00" fill="#000000">+ EmitItem</text>
<polyline fill="none" stroke="#000000" points="9.5,-19.5 173.5,-19.5 "/>
<text text-anchor="middle" x="91.5" y="-7.5" font-family="Helvetica,sans-Serif" font-size="10.00" fill="#000000"> </text>
</g>
<!-- Node2 -->
<g id="node2" class="node">
<title>Node2</title>
<g id="a_node2"><a xlink:href="structImVec1.html" target="_top" xlink:title="{ImVec1\n|+ x\l|+ ImVec1()\l+ ImVec1()\l}">
<polygon fill="none" stroke="#000000" points="0,-210 0,-278 65,-278 65,-210 0,-210"/>
<text text-anchor="middle" x="32.5" y="-266" font-family="Helvetica,sans-Serif" font-size="10.00" fill="#000000">ImVec1</text>
<polyline fill="none" stroke="#000000" points="0,-259 65,-259 "/>
<text text-anchor="start" x="8" y="-247" font-family="Helvetica,sans-Serif" font-size="10.00" fill="#000000">+ x</text>
<polyline fill="none" stroke="#000000" points="0,-240 65,-240 "/>
<text text-anchor="start" x="8" y="-228" font-family="Helvetica,sans-Serif" font-size="10.00" fill="#000000">+ ImVec1()</text>
<text text-anchor="start" x="8" y="-217" font-family="Helvetica,sans-Serif" font-size="10.00" fill="#000000">+ ImVec1()</text>
</a>
</g>
</g>
<!-- Node2&#45;&gt;Node1 -->
<g id="edge1" class="edge">
<title>Node2&#45;&gt;Node1</title>
<path fill="none" stroke="#404040" d="M27.7115,-209.616C26.1471,-189.426 26.3451,-163.6955 33.5,-142 34.2975,-139.5817 35.1976,-137.1748 36.1856,-134.7862"/>
<polygon fill="none" stroke="#404040" points="36.2664,-134.6153 35.2151,-127.4812 41.3961,-123.767 42.4473,-130.9011 36.2664,-134.6153"/>
<text text-anchor="middle" x="81.5" y="-161.5" font-family="Helvetica,sans-Serif" font-size="10.00" fill="#000000"> +BackupGroupOffset</text>
<text text-anchor="middle" x="81.5" y="-150.5" font-family="Helvetica,sans-Serif" font-size="10.00" fill="#000000">+BackupIndent</text>
</g>
<!-- Node3 -->
<g id="node3" class="node">
<title>Node3</title>
<g id="a_node3"><a xlink:href="structImVec2.html" target="_top" xlink:title="{ImVec2\n|+ x\l+ y\l|+ ImVec2()\l+ ImVec2()\l+ operator[]()\l+ operator[]()\l}">
<polygon fill="none" stroke="#000000" points="115,-193.5 115,-294.5 188,-294.5 188,-193.5 115,-193.5"/>
<text text-anchor="middle" x="151.5" y="-282.5" font-family="Helvetica,sans-Serif" font-size="10.00" fill="#000000">ImVec2</text>
<polyline fill="none" stroke="#000000" points="115,-275.5 188,-275.5 "/>
<text text-anchor="start" x="123" y="-263.5" font-family="Helvetica,sans-Serif" font-size="10.00" fill="#000000">+ x</text>
<text text-anchor="start" x="123" y="-252.5" font-family="Helvetica,sans-Serif" font-size="10.00" fill="#000000">+ y</text>
<polyline fill="none" stroke="#000000" points="115,-245.5 188,-245.5 "/>
<text text-anchor="start" x="123" y="-233.5" font-family="Helvetica,sans-Serif" font-size="10.00" fill="#000000">+ ImVec2()</text>
<text text-anchor="start" x="123" y="-222.5" font-family="Helvetica,sans-Serif" font-size="10.00" fill="#000000">+ ImVec2()</text>
<text text-anchor="start" x="123" y="-211.5" font-family="Helvetica,sans-Serif" font-size="10.00" fill="#000000">+ operator[]()</text>
<text text-anchor="start" x="123" y="-200.5" font-family="Helvetica,sans-Serif" font-size="10.00" fill="#000000">+ operator[]()</text>
</a>
</g>
</g>
<!-- Node3&#45;&gt;Node1 -->
<g id="edge2" class="edge">
<title>Node3&#45;&gt;Node1</title>
<path fill="none" stroke="#404040" d="M142.9715,-193.3071C139.5488,-176.7317 135.0723,-158.3784 129.5,-142 128.7385,-139.7619 127.9315,-137.5041 127.0871,-135.237"/>
<polygon fill="none" stroke="#404040" points="127.0057,-135.0311 121.079,-130.9231 122.5915,-123.8724 128.5181,-127.9803 127.0057,-135.0311"/>
<text text-anchor="middle" x="191.5" y="-167" font-family="Helvetica,sans-Serif" font-size="10.00" fill="#000000"> +BackupCursorMaxPos</text>
<text text-anchor="middle" x="191.5" y="-156" font-family="Helvetica,sans-Serif" font-size="10.00" fill="#000000">+BackupCurrLineSize</text>
<text text-anchor="middle" x="191.5" y="-145" font-family="Helvetica,sans-Serif" font-size="10.00" fill="#000000">+BackupCursorPos</text>
</g>
</g>
</svg>
