<?xml version="1.0" encoding="UTF-8" standalone="no"?>
<!DOCTYPE svg PUBLIC "-//W3C//DTD SVG 1.1//EN"
 "http://www.w3.org/Graphics/SVG/1.1/DTD/svg11.dtd">
<!-- Generated by graphviz version 2.40.1 (20161225.0304)
 -->
<!-- Title: StbUndoState Pages: 1 -->
<svg width="106pt" height="248pt"
 viewBox="0.00 0.00 105.50 248.00" xmlns="http://www.w3.org/2000/svg" xmlns:xlink="http://www.w3.org/1999/xlink">
<g id="graph0" class="graph" transform="scale(1 1) rotate(0) translate(4 244)">
<title>StbUndoState</title>
<!-- Node1 -->
<g id="node1" class="node">
<title>Node1</title>
<polygon fill="#bfbfbf" stroke="#000000" points="0,-.5 0,-101.5 97,-101.5 97,-.5 0,-.5"/>
<text text-anchor="middle" x="48.5" y="-89.5" font-family="Helvetica,sans-Serif" font-size="10.00" fill="#000000">StbUndoState</text>
<polyline fill="none" stroke="#000000" points="0,-82.5 97,-82.5 "/>
<text text-anchor="start" x="8" y="-70.5" font-family="Helvetica,sans-Serif" font-size="10.00" fill="#000000">+ undo_char</text>
<text text-anchor="start" x="8" y="-59.5" font-family="Helvetica,sans-Serif" font-size="10.00" fill="#000000">+ undo_point</text>
<text text-anchor="start" x="8" y="-48.5" font-family="Helvetica,sans-Serif" font-size="10.00" fill="#000000">+ redo_point</text>
<text text-anchor="start" x="8" y="-37.5" font-family="Helvetica,sans-Serif" font-size="10.00" fill="#000000">+ undo_char_point</text>
<text text-anchor="start" x="8" y="-26.5" font-family="Helvetica,sans-Serif" font-size="10.00" fill="#000000">+ redo_char_point</text>
<polyline fill="none" stroke="#000000" points="0,-19.5 97,-19.5 "/>
<text text-anchor="middle" x="48.5" y="-7.5" font-family="Helvetica,sans-Serif" font-size="10.00" fill="#000000"> </text>
</g>
<!-- Node2 -->
<g id="node2" class="node">
<title>Node2</title>
<g id="a_node2"><a xlink:href="structStbUndoRecord.html" target="_top" xlink:title="{StbUndoRecord\n|+ where\l+ insert_length\l+ delete_length\l+ char_storage\l|}">
<polygon fill="none" stroke="#000000" points="5.5,-149.5 5.5,-239.5 91.5,-239.5 91.5,-149.5 5.5,-149.5"/>
<text text-anchor="middle" x="48.5" y="-227.5" font-family="Helvetica,sans-Serif" font-size="10.00" fill="#000000">StbUndoRecord</text>
<polyline fill="none" stroke="#000000" points="5.5,-220.5 91.5,-220.5 "/>
<text text-anchor="start" x="13.5" y="-208.5" font-family="Helvetica,sans-Serif" font-size="10.00" fill="#000000">+ where</text>
<text text-anchor="start" x="13.5" y="-197.5" font-family="Helvetica,sans-Serif" font-size="10.00" fill="#000000">+ insert_length</text>
<text text-anchor="start" x="13.5" y="-186.5" font-family="Helvetica,sans-Serif" font-size="10.00" fill="#000000">+ delete_length</text>
<text text-anchor="start" x="13.5" y="-175.5" font-family="Helvetica,sans-Serif" font-size="10.00" fill="#000000">+ char_storage</text>
<polyline fill="none" stroke="#000000" points="5.5,-168.5 91.5,-168.5 "/>
<text text-anchor="middle" x="48.5" y="-156.5" font-family="Helvetica,sans-Serif" font-size="10.00" fill="#000000"> </text>
</a>
</g>
</g>
<!-- Node2&#45;&gt;Node1 -->
<g id="edge1" class="edge">
<title>Node2&#45;&gt;Node1</title>
<path fill="none" stroke="#404040" d="M48.5,-149.4894C48.5,-138.2037 48.5,-125.8879 48.5,-113.9063"/>
<polygon fill="none" stroke="#404040" points="48.5001,-113.5983 44.5,-107.5983 48.5,-101.5983 52.5,-107.5982 48.5001,-113.5983"/>
<text text-anchor="middle" x="73" y="-123" font-family="Helvetica,sans-Serif" font-size="10.00" fill="#000000"> +undo_rec</text>
</g>
</g>
</svg>
