<?xml version="1.0" encoding="UTF-8" standalone="no"?>
<!DOCTYPE svg PUBLIC "-//W3C//DTD SVG 1.1//EN"
 "http://www.w3.org/Graphics/SVG/1.1/DTD/svg11.dtd">
<!-- Generated by graphviz version 2.40.1 (20161225.0304)
 -->
<!-- Title: ImGuiComboPreviewData Pages: 1 -->
<svg width="297pt" height="452pt"
 viewBox="0.00 0.00 297.00 452.00" xmlns="http://www.w3.org/2000/svg" xmlns:xlink="http://www.w3.org/1999/xlink">
<g id="graph0" class="graph" transform="scale(1 1) rotate(0) translate(4 448)">
<title>ImGuiComboPreviewData</title>
<!-- Node1 -->
<g id="node1" class="node">
<title>Node1</title>
<polygon fill="#bfbfbf" stroke="#000000" points="0,-.5 0,-68.5 166,-68.5 166,-.5 0,-.5"/>
<text text-anchor="middle" x="83" y="-56.5" font-family="Helvetica,sans-Serif" font-size="10.00" fill="#000000">ImGuiComboPreviewData</text>
<polyline fill="none" stroke="#000000" points="0,-49.5 166,-49.5 "/>
<text text-anchor="start" x="8" y="-37.5" font-family="Helvetica,sans-Serif" font-size="10.00" fill="#000000">+ BackupPrevLineTextBaseOffset</text>
<text text-anchor="start" x="8" y="-26.5" font-family="Helvetica,sans-Serif" font-size="10.00" fill="#000000">+ BackupLayout</text>
<polyline fill="none" stroke="#000000" points="0,-19.5 166,-19.5 "/>
<text text-anchor="start" x="8" y="-7.5" font-family="Helvetica,sans-Serif" font-size="10.00" fill="#000000">+ ImGuiComboPreviewData()</text>
</g>
<!-- Node2 -->
<g id="node2" class="node">
<title>Node2</title>
<g id="a_node2"><a xlink:href="structImVec2.html" target="_top" xlink:title="{ImVec2\n|+ x\l+ y\l|+ ImVec2()\l+ ImVec2()\l+ operator[]()\l+ operator[]()\l}">
<polygon fill="none" stroke="#000000" points="46.5,-342.5 46.5,-443.5 119.5,-443.5 119.5,-342.5 46.5,-342.5"/>
<text text-anchor="middle" x="83" y="-431.5" font-family="Helvetica,sans-Serif" font-size="10.00" fill="#000000">ImVec2</text>
<polyline fill="none" stroke="#000000" points="46.5,-424.5 119.5,-424.5 "/>
<text text-anchor="start" x="54.5" y="-412.5" font-family="Helvetica,sans-Serif" font-size="10.00" fill="#000000">+ x</text>
<text text-anchor="start" x="54.5" y="-401.5" font-family="Helvetica,sans-Serif" font-size="10.00" fill="#000000">+ y</text>
<polyline fill="none" stroke="#000000" points="46.5,-394.5 119.5,-394.5 "/>
<text text-anchor="start" x="54.5" y="-382.5" font-family="Helvetica,sans-Serif" font-size="10.00" fill="#000000">+ ImVec2()</text>
<text text-anchor="start" x="54.5" y="-371.5" font-family="Helvetica,sans-Serif" font-size="10.00" fill="#000000">+ ImVec2()</text>
<text text-anchor="start" x="54.5" y="-360.5" font-family="Helvetica,sans-Serif" font-size="10.00" fill="#000000">+ operator[]()</text>
<text text-anchor="start" x="54.5" y="-349.5" font-family="Helvetica,sans-Serif" font-size="10.00" fill="#000000">+ operator[]()</text>
</a>
</g>
</g>
<!-- Node2&#45;&gt;Node1 -->
<g id="edge1" class="edge">
<title>Node2&#45;&gt;Node1</title>
<path fill="none" stroke="#404040" d="M79.0657,-342.2902C77.8211,-323.9387 76.611,-303.0476 76,-284 73.6061,-209.3717 72.8023,-190.5982 76,-116 76.4913,-104.5385 77.3696,-92.1951 78.3416,-80.6678"/>
<polygon fill="none" stroke="#404040" points="78.3553,-80.5128 74.9031,-74.1817 79.4194,-68.56 82.8716,-74.8911 78.3553,-80.5128"/>
<text text-anchor="middle" x="138" y="-208.5" font-family="Helvetica,sans-Serif" font-size="10.00" fill="#000000"> +BackupCursorMaxPos</text>
<text text-anchor="middle" x="138" y="-197.5" font-family="Helvetica,sans-Serif" font-size="10.00" fill="#000000">+BackupCursorPosPrevLine</text>
<text text-anchor="middle" x="138" y="-186.5" font-family="Helvetica,sans-Serif" font-size="10.00" fill="#000000">+BackupCursorPos</text>
</g>
<!-- Node3 -->
<g id="node3" class="node">
<title>Node3</title>
<g id="a_node3"><a xlink:href="structImRect.html" target="_top" xlink:title="{ImRect\n||+ ImRect()\l+ ImRect()\l+ ImRect()\l+ ImRect()\l+ GetCenter()\l+ GetSize()\l+ GetWidth()\l+ GetHeight()\l+ GetArea()\l+ GetTL()\land 18 more...\l}">
<polygon fill="none" stroke="#000000" points="209,-116.5 209,-283.5 289,-283.5 289,-116.5 209,-116.5"/>
<text text-anchor="middle" x="249" y="-271.5" font-family="Helvetica,sans-Serif" font-size="10.00" fill="#000000">ImRect</text>
<polyline fill="none" stroke="#000000" points="209,-264.5 289,-264.5 "/>
<text text-anchor="middle" x="249" y="-252.5" font-family="Helvetica,sans-Serif" font-size="10.00" fill="#000000"> </text>
<polyline fill="none" stroke="#000000" points="209,-245.5 289,-245.5 "/>
<text text-anchor="start" x="217" y="-233.5" font-family="Helvetica,sans-Serif" font-size="10.00" fill="#000000">+ ImRect()</text>
<text text-anchor="start" x="217" y="-222.5" font-family="Helvetica,sans-Serif" font-size="10.00" fill="#000000">+ ImRect()</text>
<text text-anchor="start" x="217" y="-211.5" font-family="Helvetica,sans-Serif" font-size="10.00" fill="#000000">+ ImRect()</text>
<text text-anchor="start" x="217" y="-200.5" font-family="Helvetica,sans-Serif" font-size="10.00" fill="#000000">+ ImRect()</text>
<text text-anchor="start" x="217" y="-189.5" font-family="Helvetica,sans-Serif" font-size="10.00" fill="#000000">+ GetCenter()</text>
<text text-anchor="start" x="217" y="-178.5" font-family="Helvetica,sans-Serif" font-size="10.00" fill="#000000">+ GetSize()</text>
<text text-anchor="start" x="217" y="-167.5" font-family="Helvetica,sans-Serif" font-size="10.00" fill="#000000">+ GetWidth()</text>
<text text-anchor="start" x="217" y="-156.5" font-family="Helvetica,sans-Serif" font-size="10.00" fill="#000000">+ GetHeight()</text>
<text text-anchor="start" x="217" y="-145.5" font-family="Helvetica,sans-Serif" font-size="10.00" fill="#000000">+ GetArea()</text>
<text text-anchor="start" x="217" y="-134.5" font-family="Helvetica,sans-Serif" font-size="10.00" fill="#000000">+ GetTL()</text>
<text text-anchor="start" x="217" y="-123.5" font-family="Helvetica,sans-Serif" font-size="10.00" fill="#000000">and 18 more...</text>
</a>
</g>
</g>
<!-- Node2&#45;&gt;Node3 -->
<g id="edge3" class="edge">
<title>Node2&#45;&gt;Node3</title>
<path fill="none" stroke="#404040" d="M119.6475,-361.2774C142.6057,-340.4846 172.0788,-312.0477 195,-284 197.2113,-281.2942 199.4091,-278.4937 201.5818,-275.6303"/>
<polygon fill="none" stroke="#404040" points="201.7656,-275.3793 202.0836,-268.1752 208.8559,-265.698 208.5379,-272.9021 201.7656,-275.3793"/>
<text text-anchor="middle" x="190.5" y="-316" font-family="Helvetica,sans-Serif" font-size="10.00" fill="#000000"> +Min</text>
<text text-anchor="middle" x="190.5" y="-305" font-family="Helvetica,sans-Serif" font-size="10.00" fill="#000000">+Max</text>
</g>
<!-- Node3&#45;&gt;Node1 -->
<g id="edge2" class="edge">
<title>Node3&#45;&gt;Node1</title>
<path fill="none" stroke="#404040" d="M208.7093,-132.2821C204.3509,-126.5609 199.76,-121.0431 195,-116 181.1939,-101.373 164.4536,-87.6041 148.1703,-75.6939"/>
<polygon fill="none" stroke="#404040" points="147.8911,-75.4948 140.6835,-75.2677 138.121,-68.5272 145.3285,-68.7543 147.8911,-75.4948"/>
<text text-anchor="middle" x="208" y="-90" font-family="Helvetica,sans-Serif" font-size="10.00" fill="#000000"> +PreviewRect</text>
</g>
</g>
</svg>
