<?xml version="1.0" encoding="UTF-8" standalone="no"?>
<!DOCTYPE svg PUBLIC "-//W3C//DTD SVG 1.1//EN"
 "http://www.w3.org/Graphics/SVG/1.1/DTD/svg11.dtd">
<!-- Generated by graphviz version 2.40.1 (20161225.0304)
 -->
<!-- Title: Writer&lt; OutputStream, SourceEncoding, TargetEncoding, StackAllocator, writeFlags &gt;::Level Pages: 1 -->
<svg width="176pt" height="204pt"
 viewBox="0.00 0.00 176.00 204.00" xmlns="http://www.w3.org/2000/svg" xmlns:xlink="http://www.w3.org/1999/xlink">
<g id="graph0" class="graph" transform="scale(1 1) rotate(0) translate(4 200)">
<title>Writer&lt; OutputStream, SourceEncoding, TargetEncoding, StackAllocator, writeFlags &gt;::Level</title>
<!-- Node1 -->
<g id="node1" class="node">
<title>Node1</title>
<polygon fill="#bfbfbf" stroke="#000000" points="0,-.5 0,-90.5 168,-90.5 168,-.5 0,-.5"/>
<text text-anchor="start" x="8" y="-78.5" font-family="Helvetica,sans-Serif" font-size="10.00" fill="#000000">Writer&lt; OutputStream,</text>
<text text-anchor="start" x="8" y="-67.5" font-family="Helvetica,sans-Serif" font-size="10.00" fill="#000000"> SourceEncoding, TargetEncoding,</text>
<text text-anchor="start" x="8" y="-56.5" font-family="Helvetica,sans-Serif" font-size="10.00" fill="#000000"> StackAllocator, writeFlags</text>
<text text-anchor="middle" x="84" y="-45.5" font-family="Helvetica,sans-Serif" font-size="10.00" fill="#000000"> &gt;::Level</text>
<polyline fill="none" stroke="#000000" points="0,-38.5 168,-38.5 "/>
<text text-anchor="start" x="8" y="-26.5" font-family="Helvetica,sans-Serif" font-size="10.00" fill="#000000">+ inArray</text>
<polyline fill="none" stroke="#000000" points="0,-19.5 168,-19.5 "/>
<text text-anchor="start" x="8" y="-7.5" font-family="Helvetica,sans-Serif" font-size="10.00" fill="#000000">+ Level()</text>
</g>
<!-- Node2 -->
<g id="node2" class="node">
<title>Node2</title>
<polygon fill="none" stroke="#bfbfbf" points="62.5,-138.5 62.5,-195.5 105.5,-195.5 105.5,-138.5 62.5,-138.5"/>
<text text-anchor="middle" x="84" y="-183.5" font-family="Helvetica,sans-Serif" font-size="10.00" fill="#000000">size_t</text>
<polyline fill="none" stroke="#bfbfbf" points="62.5,-176.5 105.5,-176.5 "/>
<text text-anchor="middle" x="84" y="-164.5" font-family="Helvetica,sans-Serif" font-size="10.00" fill="#000000"> </text>
<polyline fill="none" stroke="#bfbfbf" points="62.5,-157.5 105.5,-157.5 "/>
<text text-anchor="middle" x="84" y="-145.5" font-family="Helvetica,sans-Serif" font-size="10.00" fill="#000000"> </text>
</g>
<!-- Node2&#45;&gt;Node1 -->
<g id="edge1" class="edge">
<title>Node2&#45;&gt;Node1</title>
<path fill="none" stroke="#404040" d="M84,-138.2062C84,-127.5748 84,-115.1181 84,-102.847"/>
<polygon fill="none" stroke="#404040" points="84.0001,-102.7124 80,-96.7125 84,-90.7124 88,-96.7124 84.0001,-102.7124"/>
<text text-anchor="middle" x="113.5" y="-112" font-family="Helvetica,sans-Serif" font-size="10.00" fill="#000000"> +valueCount</text>
</g>
</g>
</svg>
