<?xml version="1.0" encoding="UTF-8" standalone="no"?>
<!DOCTYPE svg PUBLIC "-//W3C//DTD SVG 1.1//EN"
 "http://www.w3.org/Graphics/SVG/1.1/DTD/svg11.dtd">
<!-- Generated by graphviz version 2.40.1 (20161225.0304)
 -->
<!-- Title: ImFontBuildSrcData Pages: 1 -->
<svg width="705pt" height="639pt"
 viewBox="0.00 0.00 704.50 639.00" xmlns="http://www.w3.org/2000/svg" xmlns:xlink="http://www.w3.org/1999/xlink">
<g id="graph0" class="graph" transform="scale(1 1) rotate(0) translate(4 635)">
<title>ImFontBuildSrcData</title>
<!-- Node1 -->
<g id="node1" class="node">
<title>Node1</title>
<polygon fill="#bfbfbf" stroke="#000000" points="255.5,-.5 255.5,-90.5 360.5,-90.5 360.5,-.5 255.5,-.5"/>
<text text-anchor="middle" x="308" y="-78.5" font-family="Helvetica,sans-Serif" font-size="10.00" fill="#000000">ImFontBuildSrcData</text>
<polyline fill="none" stroke="#000000" points="255.5,-71.5 360.5,-71.5 "/>
<text text-anchor="start" x="263.5" y="-59.5" font-family="Helvetica,sans-Serif" font-size="10.00" fill="#000000">+ SrcRanges</text>
<text text-anchor="start" x="263.5" y="-48.5" font-family="Helvetica,sans-Serif" font-size="10.00" fill="#000000">+ DstIndex</text>
<text text-anchor="start" x="263.5" y="-37.5" font-family="Helvetica,sans-Serif" font-size="10.00" fill="#000000">+ GlyphsHighest</text>
<text text-anchor="start" x="263.5" y="-26.5" font-family="Helvetica,sans-Serif" font-size="10.00" fill="#000000">+ GlyphsCount</text>
<polyline fill="none" stroke="#000000" points="255.5,-19.5 360.5,-19.5 "/>
<text text-anchor="middle" x="308" y="-7.5" font-family="Helvetica,sans-Serif" font-size="10.00" fill="#000000"> </text>
</g>
<!-- Node2 -->
<g id="node2" class="node">
<title>Node2</title>
<g id="a_node2"><a xlink:href="structImBitVector.html" target="_top" xlink:title="{ImBitVector\n||+ Create()\l+ Clear()\l+ TestBit()\l+ SetBit()\l+ ClearBit()\l}">
<polygon fill="none" stroke="#000000" points="18,-188 18,-289 86,-289 86,-188 18,-188"/>
<text text-anchor="middle" x="52" y="-277" font-family="Helvetica,sans-Serif" font-size="10.00" fill="#000000">ImBitVector</text>
<polyline fill="none" stroke="#000000" points="18,-270 86,-270 "/>
<text text-anchor="middle" x="52" y="-258" font-family="Helvetica,sans-Serif" font-size="10.00" fill="#000000"> </text>
<polyline fill="none" stroke="#000000" points="18,-251 86,-251 "/>
<text text-anchor="start" x="26" y="-239" font-family="Helvetica,sans-Serif" font-size="10.00" fill="#000000">+ Create()</text>
<text text-anchor="start" x="26" y="-228" font-family="Helvetica,sans-Serif" font-size="10.00" fill="#000000">+ Clear()</text>
<text text-anchor="start" x="26" y="-217" font-family="Helvetica,sans-Serif" font-size="10.00" fill="#000000">+ TestBit()</text>
<text text-anchor="start" x="26" y="-206" font-family="Helvetica,sans-Serif" font-size="10.00" fill="#000000">+ SetBit()</text>
<text text-anchor="start" x="26" y="-195" font-family="Helvetica,sans-Serif" font-size="10.00" fill="#000000">+ ClearBit()</text>
</a>
</g>
</g>
<!-- Node2&#45;&gt;Node1 -->
<g id="edge1" class="edge">
<title>Node2&#45;&gt;Node1</title>
<path fill="none" stroke="#404040" d="M65.2384,-187.7914C71.8443,-170.2836 81.4162,-151.6575 95,-138 135.5382,-97.2421 196.9973,-73.1908 243.496,-59.8799"/>
<polygon fill="none" stroke="#404040" points="243.7039,-59.8228 248.4299,-54.3763 255.2752,-56.644 250.5492,-62.0905 243.7039,-59.8228"/>
<text text-anchor="middle" x="156.5" y="-112" font-family="Helvetica,sans-Serif" font-size="10.00" fill="#000000"> +GlyphsSet</text>
</g>
<!-- Node3 -->
<g id="node3" class="node">
<title>Node3</title>
<g id="a_node3"><a xlink:href="structImVector.html" target="_top" xlink:title="{ImVector\&lt; ImU32 \&gt;\n|+ Size\l+ Capacity\l+ Data\l|+ ImVector()\l+ ImVector()\l+ operator=()\l+ ~ImVector()\l+ clear()\l+ clear_delete()\l+ clear_destruct()\l+ empty()\l+ size()\l+ size_in_bytes()\land 32 more...\l}">
<polygon fill="none" stroke="#000000" points="0,-441.5 0,-630.5 104,-630.5 104,-441.5 0,-441.5"/>
<text text-anchor="middle" x="52" y="-618.5" font-family="Helvetica,sans-Serif" font-size="10.00" fill="#000000">ImVector&lt; ImU32 &gt;</text>
<polyline fill="none" stroke="#000000" points="0,-611.5 104,-611.5 "/>
<text text-anchor="start" x="8" y="-599.5" font-family="Helvetica,sans-Serif" font-size="10.00" fill="#000000">+ Size</text>
<text text-anchor="start" x="8" y="-588.5" font-family="Helvetica,sans-Serif" font-size="10.00" fill="#000000">+ Capacity</text>
<text text-anchor="start" x="8" y="-577.5" font-family="Helvetica,sans-Serif" font-size="10.00" fill="#000000">+ Data</text>
<polyline fill="none" stroke="#000000" points="0,-570.5 104,-570.5 "/>
<text text-anchor="start" x="8" y="-558.5" font-family="Helvetica,sans-Serif" font-size="10.00" fill="#000000">+ ImVector()</text>
<text text-anchor="start" x="8" y="-547.5" font-family="Helvetica,sans-Serif" font-size="10.00" fill="#000000">+ ImVector()</text>
<text text-anchor="start" x="8" y="-536.5" font-family="Helvetica,sans-Serif" font-size="10.00" fill="#000000">+ operator=()</text>
<text text-anchor="start" x="8" y="-525.5" font-family="Helvetica,sans-Serif" font-size="10.00" fill="#000000">+ ~ImVector()</text>
<text text-anchor="start" x="8" y="-514.5" font-family="Helvetica,sans-Serif" font-size="10.00" fill="#000000">+ clear()</text>
<text text-anchor="start" x="8" y="-503.5" font-family="Helvetica,sans-Serif" font-size="10.00" fill="#000000">+ clear_delete()</text>
<text text-anchor="start" x="8" y="-492.5" font-family="Helvetica,sans-Serif" font-size="10.00" fill="#000000">+ clear_destruct()</text>
<text text-anchor="start" x="8" y="-481.5" font-family="Helvetica,sans-Serif" font-size="10.00" fill="#000000">+ empty()</text>
<text text-anchor="start" x="8" y="-470.5" font-family="Helvetica,sans-Serif" font-size="10.00" fill="#000000">+ size()</text>
<text text-anchor="start" x="8" y="-459.5" font-family="Helvetica,sans-Serif" font-size="10.00" fill="#000000">+ size_in_bytes()</text>
<text text-anchor="start" x="8" y="-448.5" font-family="Helvetica,sans-Serif" font-size="10.00" fill="#000000">and 32 more...</text>
</a>
</g>
</g>
<!-- Node3&#45;&gt;Node2 -->
<g id="edge2" class="edge">
<title>Node3&#45;&gt;Node2</title>
<path fill="none" stroke="#404040" d="M52,-441.4604C52,-395.6658 52,-341.9299 52,-301.2578"/>
<polygon fill="none" stroke="#404040" points="52.0001,-301.078 48,-295.0781 52,-289.078 56,-295.078 52.0001,-301.078"/>
<text text-anchor="middle" x="73.5" y="-387.5" font-family="Helvetica,sans-Serif" font-size="10.00" fill="#000000"> +Storage</text>
</g>
<!-- Node4 -->
<g id="node4" class="node">
<title>Node4</title>
<g id="a_node4"><a xlink:href="structstbtt__fontinfo.html" target="_top" xlink:title="{stbtt_fontinfo\n|+ userdata\l+ data\l+ fontstart\l+ numGlyphs\l+ loca\l+ head\l+ glyf\l+ hhea\l+ hmtx\l+ kern\l+ gpos\l+ svg\l+ index_map\l+ indexToLocFormat\l|}">
<polygon fill="none" stroke="#000000" points="104.5,-138.5 104.5,-338.5 211.5,-338.5 211.5,-138.5 104.5,-138.5"/>
<text text-anchor="middle" x="158" y="-326.5" font-family="Helvetica,sans-Serif" font-size="10.00" fill="#000000">stbtt_fontinfo</text>
<polyline fill="none" stroke="#000000" points="104.5,-319.5 211.5,-319.5 "/>
<text text-anchor="start" x="112.5" y="-307.5" font-family="Helvetica,sans-Serif" font-size="10.00" fill="#000000">+ userdata</text>
<text text-anchor="start" x="112.5" y="-296.5" font-family="Helvetica,sans-Serif" font-size="10.00" fill="#000000">+ data</text>
<text text-anchor="start" x="112.5" y="-285.5" font-family="Helvetica,sans-Serif" font-size="10.00" fill="#000000">+ fontstart</text>
<text text-anchor="start" x="112.5" y="-274.5" font-family="Helvetica,sans-Serif" font-size="10.00" fill="#000000">+ numGlyphs</text>
<text text-anchor="start" x="112.5" y="-263.5" font-family="Helvetica,sans-Serif" font-size="10.00" fill="#000000">+ loca</text>
<text text-anchor="start" x="112.5" y="-252.5" font-family="Helvetica,sans-Serif" font-size="10.00" fill="#000000">+ head</text>
<text text-anchor="start" x="112.5" y="-241.5" font-family="Helvetica,sans-Serif" font-size="10.00" fill="#000000">+ glyf</text>
<text text-anchor="start" x="112.5" y="-230.5" font-family="Helvetica,sans-Serif" font-size="10.00" fill="#000000">+ hhea</text>
<text text-anchor="start" x="112.5" y="-219.5" font-family="Helvetica,sans-Serif" font-size="10.00" fill="#000000">+ hmtx</text>
<text text-anchor="start" x="112.5" y="-208.5" font-family="Helvetica,sans-Serif" font-size="10.00" fill="#000000">+ kern</text>
<text text-anchor="start" x="112.5" y="-197.5" font-family="Helvetica,sans-Serif" font-size="10.00" fill="#000000">+ gpos</text>
<text text-anchor="start" x="112.5" y="-186.5" font-family="Helvetica,sans-Serif" font-size="10.00" fill="#000000">+ svg</text>
<text text-anchor="start" x="112.5" y="-175.5" font-family="Helvetica,sans-Serif" font-size="10.00" fill="#000000">+ index_map</text>
<text text-anchor="start" x="112.5" y="-164.5" font-family="Helvetica,sans-Serif" font-size="10.00" fill="#000000">+ indexToLocFormat</text>
<polyline fill="none" stroke="#000000" points="104.5,-157.5 211.5,-157.5 "/>
<text text-anchor="middle" x="158" y="-145.5" font-family="Helvetica,sans-Serif" font-size="10.00" fill="#000000"> </text>
</a>
</g>
</g>
<!-- Node4&#45;&gt;Node1 -->
<g id="edge3" class="edge">
<title>Node4&#45;&gt;Node1</title>
<path fill="none" stroke="#404040" d="M211.6063,-150.2739C221.6965,-135.9483 232.6623,-121.671 244,-109 246.7984,-105.8725 249.7127,-102.7035 252.6879,-99.5361"/>
<polygon fill="none" stroke="#404040" points="252.8935,-99.3211 254.1503,-92.2204 261.1882,-90.6494 259.9315,-97.7502 252.8935,-99.3211"/>
<text text-anchor="middle" x="267" y="-112" font-family="Helvetica,sans-Serif" font-size="10.00" fill="#000000"> +FontInfo</text>
</g>
<!-- Node5 -->
<g id="node5" class="node">
<title>Node5</title>
<g id="a_node5"><a xlink:href="structstbtt____buf.html" target="_top" xlink:title="{stbtt__buf\n|+ data\l+ cursor\l+ size\l|}">
<polygon fill="none" stroke="#000000" points="128,-496.5 128,-575.5 188,-575.5 188,-496.5 128,-496.5"/>
<text text-anchor="middle" x="158" y="-563.5" font-family="Helvetica,sans-Serif" font-size="10.00" fill="#000000">stbtt__buf</text>
<polyline fill="none" stroke="#000000" points="128,-556.5 188,-556.5 "/>
<text text-anchor="start" x="136" y="-544.5" font-family="Helvetica,sans-Serif" font-size="10.00" fill="#000000">+ data</text>
<text text-anchor="start" x="136" y="-533.5" font-family="Helvetica,sans-Serif" font-size="10.00" fill="#000000">+ cursor</text>
<text text-anchor="start" x="136" y="-522.5" font-family="Helvetica,sans-Serif" font-size="10.00" fill="#000000">+ size</text>
<polyline fill="none" stroke="#000000" points="128,-515.5 188,-515.5 "/>
<text text-anchor="middle" x="158" y="-503.5" font-family="Helvetica,sans-Serif" font-size="10.00" fill="#000000"> </text>
</a>
</g>
</g>
<!-- Node5&#45;&gt;Node4 -->
<g id="edge4" class="edge">
<title>Node5&#45;&gt;Node4</title>
<path fill="none" stroke="#404040" d="M158,-496.4943C158,-459.4003 158,-402.1064 158,-350.9243"/>
<polygon fill="none" stroke="#404040" points="158.0001,-350.7461 154,-344.7461 158,-338.7461 162,-344.746 158.0001,-350.7461"/>
<text text-anchor="middle" x="185.5" y="-415" font-family="Helvetica,sans-Serif" font-size="10.00" fill="#000000"> +subrs</text>
<text text-anchor="middle" x="185.5" y="-404" font-family="Helvetica,sans-Serif" font-size="10.00" fill="#000000">+fdselect</text>
<text text-anchor="middle" x="185.5" y="-393" font-family="Helvetica,sans-Serif" font-size="10.00" fill="#000000">+fontdicts</text>
<text text-anchor="middle" x="185.5" y="-382" font-family="Helvetica,sans-Serif" font-size="10.00" fill="#000000">+gsubrs</text>
<text text-anchor="middle" x="185.5" y="-371" font-family="Helvetica,sans-Serif" font-size="10.00" fill="#000000">+cff</text>
<text text-anchor="middle" x="185.5" y="-360" font-family="Helvetica,sans-Serif" font-size="10.00" fill="#000000">+charstrings</text>
</g>
<!-- Node6 -->
<g id="node6" class="node">
<title>Node6</title>
<g id="a_node6"><a xlink:href="structstbrp__rect.html" target="_top" xlink:title="{stbrp_rect\n|+ id\l+ w\l+ h\l+ x\l+ y\l+ was_packed\l|}">
<polygon fill="none" stroke="#000000" points="230,-182.5 230,-294.5 310,-294.5 310,-182.5 230,-182.5"/>
<text text-anchor="middle" x="270" y="-282.5" font-family="Helvetica,sans-Serif" font-size="10.00" fill="#000000">stbrp_rect</text>
<polyline fill="none" stroke="#000000" points="230,-275.5 310,-275.5 "/>
<text text-anchor="start" x="238" y="-263.5" font-family="Helvetica,sans-Serif" font-size="10.00" fill="#000000">+ id</text>
<text text-anchor="start" x="238" y="-252.5" font-family="Helvetica,sans-Serif" font-size="10.00" fill="#000000">+ w</text>
<text text-anchor="start" x="238" y="-241.5" font-family="Helvetica,sans-Serif" font-size="10.00" fill="#000000">+ h</text>
<text text-anchor="start" x="238" y="-230.5" font-family="Helvetica,sans-Serif" font-size="10.00" fill="#000000">+ x</text>
<text text-anchor="start" x="238" y="-219.5" font-family="Helvetica,sans-Serif" font-size="10.00" fill="#000000">+ y</text>
<text text-anchor="start" x="238" y="-208.5" font-family="Helvetica,sans-Serif" font-size="10.00" fill="#000000">+ was_packed</text>
<polyline fill="none" stroke="#000000" points="230,-201.5 310,-201.5 "/>
<text text-anchor="middle" x="270" y="-189.5" font-family="Helvetica,sans-Serif" font-size="10.00" fill="#000000"> </text>
</a>
</g>
</g>
<!-- Node6&#45;&gt;Node1 -->
<g id="edge5" class="edge">
<title>Node6&#45;&gt;Node1</title>
<path fill="none" stroke="#404040" d="M281.0422,-182.4172C285.9761,-157.3581 291.7839,-127.8608 296.7428,-102.675"/>
<polygon fill="none" stroke="#404040" points="296.7831,-102.4696 294.0176,-95.8099 299.1014,-90.6957 301.8669,-97.3554 296.7831,-102.4696"/>
<text text-anchor="middle" x="313" y="-112" font-family="Helvetica,sans-Serif" font-size="10.00" fill="#000000"> +Rects</text>
</g>
<!-- Node7 -->
<g id="node7" class="node">
<title>Node7</title>
<g id="a_node7"><a xlink:href="structstbtt__packedchar.html" target="_top" xlink:title="{stbtt_packedchar\n|+ x0\l+ y0\l+ x1\l+ y1\l+ xoff\l+ yoff\l+ xadvance\l+ xoff2\l+ yoff2\l|}">
<polygon fill="none" stroke="#000000" points="349,-463.5 349,-608.5 441,-608.5 441,-463.5 349,-463.5"/>
<text text-anchor="middle" x="395" y="-596.5" font-family="Helvetica,sans-Serif" font-size="10.00" fill="#000000">stbtt_packedchar</text>
<polyline fill="none" stroke="#000000" points="349,-589.5 441,-589.5 "/>
<text text-anchor="start" x="357" y="-577.5" font-family="Helvetica,sans-Serif" font-size="10.00" fill="#000000">+ x0</text>
<text text-anchor="start" x="357" y="-566.5" font-family="Helvetica,sans-Serif" font-size="10.00" fill="#000000">+ y0</text>
<text text-anchor="start" x="357" y="-555.5" font-family="Helvetica,sans-Serif" font-size="10.00" fill="#000000">+ x1</text>
<text text-anchor="start" x="357" y="-544.5" font-family="Helvetica,sans-Serif" font-size="10.00" fill="#000000">+ y1</text>
<text text-anchor="start" x="357" y="-533.5" font-family="Helvetica,sans-Serif" font-size="10.00" fill="#000000">+ xoff</text>
<text text-anchor="start" x="357" y="-522.5" font-family="Helvetica,sans-Serif" font-size="10.00" fill="#000000">+ yoff</text>
<text text-anchor="start" x="357" y="-511.5" font-family="Helvetica,sans-Serif" font-size="10.00" fill="#000000">+ xadvance</text>
<text text-anchor="start" x="357" y="-500.5" font-family="Helvetica,sans-Serif" font-size="10.00" fill="#000000">+ xoff2</text>
<text text-anchor="start" x="357" y="-489.5" font-family="Helvetica,sans-Serif" font-size="10.00" fill="#000000">+ yoff2</text>
<polyline fill="none" stroke="#000000" points="349,-482.5 441,-482.5 "/>
<text text-anchor="middle" x="395" y="-470.5" font-family="Helvetica,sans-Serif" font-size="10.00" fill="#000000"> </text>
</a>
</g>
</g>
<!-- Node7&#45;&gt;Node1 -->
<g id="edge6" class="edge">
<title>Node7&#45;&gt;Node1</title>
<path fill="none" stroke="#404040" d="M378.4261,-463.3377C370.4384,-426.2831 361.2582,-380.4089 355,-339 339.6484,-237.4214 355.4719,-209.0147 332,-109 331.4968,-106.8559 330.9392,-104.6864 330.3378,-102.5067"/>
<polygon fill="none" stroke="#404040" points="330.2783,-102.3123 324.6966,-97.7467 326.7642,-90.8384 332.3459,-95.404 330.2783,-102.3123"/>
<text text-anchor="middle" x="389.5" y="-236" font-family="Helvetica,sans-Serif" font-size="10.00" fill="#000000"> +PackedChars</text>
</g>
<!-- Node9 -->
<g id="node9" class="node">
<title>Node9</title>
<g id="a_node9"><a xlink:href="structstbtt__pack__range.html" target="_top" xlink:title="{stbtt_pack_range\n|+ font_size\l+ first_unicode_codepoint\l_in_range\l+ array_of_unicode_codepoints\l+ num_chars\l+ h_oversample\l+ v_oversample\l|}">
<polygon fill="none" stroke="#000000" points="433,-177 433,-300 585,-300 585,-177 433,-177"/>
<text text-anchor="middle" x="509" y="-288" font-family="Helvetica,sans-Serif" font-size="10.00" fill="#000000">stbtt_pack_range</text>
<polyline fill="none" stroke="#000000" points="433,-281 585,-281 "/>
<text text-anchor="start" x="441" y="-269" font-family="Helvetica,sans-Serif" font-size="10.00" fill="#000000">+ font_size</text>
<text text-anchor="start" x="441" y="-258" font-family="Helvetica,sans-Serif" font-size="10.00" fill="#000000">+ first_unicode_codepoint</text>
<text text-anchor="start" x="441" y="-247" font-family="Helvetica,sans-Serif" font-size="10.00" fill="#000000">_in_range</text>
<text text-anchor="start" x="441" y="-236" font-family="Helvetica,sans-Serif" font-size="10.00" fill="#000000">+ array_of_unicode_codepoints</text>
<text text-anchor="start" x="441" y="-225" font-family="Helvetica,sans-Serif" font-size="10.00" fill="#000000">+ num_chars</text>
<text text-anchor="start" x="441" y="-214" font-family="Helvetica,sans-Serif" font-size="10.00" fill="#000000">+ h_oversample</text>
<text text-anchor="start" x="441" y="-203" font-family="Helvetica,sans-Serif" font-size="10.00" fill="#000000">+ v_oversample</text>
<polyline fill="none" stroke="#000000" points="433,-196 585,-196 "/>
<text text-anchor="middle" x="509" y="-184" font-family="Helvetica,sans-Serif" font-size="10.00" fill="#000000"> </text>
</a>
</g>
</g>
<!-- Node7&#45;&gt;Node9 -->
<g id="edge9" class="edge">
<title>Node7&#45;&gt;Node9</title>
<path fill="none" stroke="#404040" d="M422.8875,-463.2233C440.5101,-417.2347 463.2074,-358.0025 480.8752,-311.8957"/>
<polygon fill="none" stroke="#404040" points="480.9586,-311.678 479.3704,-304.644 485.2525,-300.4725 486.8407,-307.5066 480.9586,-311.678"/>
<text text-anchor="middle" x="508.5" y="-387.5" font-family="Helvetica,sans-Serif" font-size="10.00" fill="#000000"> +chardata_for_range</text>
</g>
<!-- Node8 -->
<g id="node8" class="node">
<title>Node8</title>
<g id="a_node8"><a xlink:href="structImVector.html" target="_top" xlink:title="{ImVector\&lt; int \&gt;\n|+ Size\l+ Capacity\l+ Data\l|+ ImVector()\l+ ImVector()\l+ operator=()\l+ ~ImVector()\l+ clear()\l+ clear_delete()\l+ clear_destruct()\l+ empty()\l+ size()\l+ size_in_bytes()\land 32 more...\l}">
<polygon fill="none" stroke="#000000" points="603.5,-144 603.5,-333 696.5,-333 696.5,-144 603.5,-144"/>
<text text-anchor="middle" x="650" y="-321" font-family="Helvetica,sans-Serif" font-size="10.00" fill="#000000">ImVector&lt; int &gt;</text>
<polyline fill="none" stroke="#000000" points="603.5,-314 696.5,-314 "/>
<text text-anchor="start" x="611.5" y="-302" font-family="Helvetica,sans-Serif" font-size="10.00" fill="#000000">+ Size</text>
<text text-anchor="start" x="611.5" y="-291" font-family="Helvetica,sans-Serif" font-size="10.00" fill="#000000">+ Capacity</text>
<text text-anchor="start" x="611.5" y="-280" font-family="Helvetica,sans-Serif" font-size="10.00" fill="#000000">+ Data</text>
<polyline fill="none" stroke="#000000" points="603.5,-273 696.5,-273 "/>
<text text-anchor="start" x="611.5" y="-261" font-family="Helvetica,sans-Serif" font-size="10.00" fill="#000000">+ ImVector()</text>
<text text-anchor="start" x="611.5" y="-250" font-family="Helvetica,sans-Serif" font-size="10.00" fill="#000000">+ ImVector()</text>
<text text-anchor="start" x="611.5" y="-239" font-family="Helvetica,sans-Serif" font-size="10.00" fill="#000000">+ operator=()</text>
<text text-anchor="start" x="611.5" y="-228" font-family="Helvetica,sans-Serif" font-size="10.00" fill="#000000">+ ~ImVector()</text>
<text text-anchor="start" x="611.5" y="-217" font-family="Helvetica,sans-Serif" font-size="10.00" fill="#000000">+ clear()</text>
<text text-anchor="start" x="611.5" y="-206" font-family="Helvetica,sans-Serif" font-size="10.00" fill="#000000">+ clear_delete()</text>
<text text-anchor="start" x="611.5" y="-195" font-family="Helvetica,sans-Serif" font-size="10.00" fill="#000000">+ clear_destruct()</text>
<text text-anchor="start" x="611.5" y="-184" font-family="Helvetica,sans-Serif" font-size="10.00" fill="#000000">+ empty()</text>
<text text-anchor="start" x="611.5" y="-173" font-family="Helvetica,sans-Serif" font-size="10.00" fill="#000000">+ size()</text>
<text text-anchor="start" x="611.5" y="-162" font-family="Helvetica,sans-Serif" font-size="10.00" fill="#000000">+ size_in_bytes()</text>
<text text-anchor="start" x="611.5" y="-151" font-family="Helvetica,sans-Serif" font-size="10.00" fill="#000000">and 32 more...</text>
</a>
</g>
</g>
<!-- Node8&#45;&gt;Node1 -->
<g id="edge7" class="edge">
<title>Node8&#45;&gt;Node1</title>
<path fill="none" stroke="#404040" d="M603.2628,-146.648C600.3277,-143.564 597.2413,-140.6622 594,-138 530.0131,-85.4449 435.4742,-62.5029 372.8379,-52.6548"/>
<polygon fill="none" stroke="#404040" points="372.6235,-52.623 366.0997,-55.6953 360.7545,-50.8549 367.2784,-47.7826 372.6235,-52.623"/>
<text text-anchor="middle" x="595" y="-112" font-family="Helvetica,sans-Serif" font-size="10.00" fill="#000000"> +GlyphsList</text>
</g>
<!-- Node9&#45;&gt;Node1 -->
<g id="edge8" class="edge">
<title>Node9&#45;&gt;Node1</title>
<path fill="none" stroke="#404040" d="M456.3642,-176.8521C444.4261,-163.6926 431.556,-150.1168 419,-138 403.7599,-123.293 386.4987,-108.2255 370.2073,-94.6351"/>
<polygon fill="none" stroke="#404040" points="369.9992,-94.4631 362.8261,-93.7236 360.7499,-86.8179 367.923,-87.5574 369.9992,-94.4631"/>
<text text-anchor="middle" x="428.5" y="-112" font-family="Helvetica,sans-Serif" font-size="10.00" fill="#000000"> +PackRange</text>
</g>
</g>
</svg>
