<?xml version="1.0" encoding="UTF-8" standalone="no"?>
<!DOCTYPE svg PUBLIC "-//W3C//DTD SVG 1.1//EN"
 "http://www.w3.org/Graphics/SVG/1.1/DTD/svg11.dtd">
<!-- Generated by graphviz version 2.40.1 (20161225.0304)
 -->
<!-- Title: stbrp_context Pages: 1 -->
<svg width="125pt" height="259pt"
 viewBox="0.00 0.00 124.50 259.00" xmlns="http://www.w3.org/2000/svg" xmlns:xlink="http://www.w3.org/1999/xlink">
<g id="graph0" class="graph" transform="scale(1 1) rotate(0) translate(4 255)">
<title>stbrp_context</title>
<!-- Node1 -->
<g id="node1" class="node">
<title>Node1</title>
<polygon fill="#bfbfbf" stroke="#000000" points="0,-.5 0,-112.5 76,-112.5 76,-.5 0,-.5"/>
<text text-anchor="middle" x="38" y="-100.5" font-family="Helvetica,sans-Serif" font-size="10.00" fill="#000000">stbrp_context</text>
<polyline fill="none" stroke="#000000" points="0,-93.5 76,-93.5 "/>
<text text-anchor="start" x="8" y="-81.5" font-family="Helvetica,sans-Serif" font-size="10.00" fill="#000000">+ width</text>
<text text-anchor="start" x="8" y="-70.5" font-family="Helvetica,sans-Serif" font-size="10.00" fill="#000000">+ height</text>
<text text-anchor="start" x="8" y="-59.5" font-family="Helvetica,sans-Serif" font-size="10.00" fill="#000000">+ align</text>
<text text-anchor="start" x="8" y="-48.5" font-family="Helvetica,sans-Serif" font-size="10.00" fill="#000000">+ init_mode</text>
<text text-anchor="start" x="8" y="-37.5" font-family="Helvetica,sans-Serif" font-size="10.00" fill="#000000">+ heuristic</text>
<text text-anchor="start" x="8" y="-26.5" font-family="Helvetica,sans-Serif" font-size="10.00" fill="#000000">+ num_nodes</text>
<polyline fill="none" stroke="#000000" points="0,-19.5 76,-19.5 "/>
<text text-anchor="middle" x="38" y="-7.5" font-family="Helvetica,sans-Serif" font-size="10.00" fill="#000000"> </text>
</g>
<!-- Node2 -->
<g id="node2" class="node">
<title>Node2</title>
<g id="a_node2"><a xlink:href="structstbrp__node.html" target="_top" xlink:title="{stbrp_node\n|+ x\l+ y\l|}">
<polygon fill="none" stroke="#000000" points="5.5,-182.5 5.5,-250.5 70.5,-250.5 70.5,-182.5 5.5,-182.5"/>
<text text-anchor="middle" x="38" y="-238.5" font-family="Helvetica,sans-Serif" font-size="10.00" fill="#000000">stbrp_node</text>
<polyline fill="none" stroke="#000000" points="5.5,-231.5 70.5,-231.5 "/>
<text text-anchor="start" x="13.5" y="-219.5" font-family="Helvetica,sans-Serif" font-size="10.00" fill="#000000">+ x</text>
<text text-anchor="start" x="13.5" y="-208.5" font-family="Helvetica,sans-Serif" font-size="10.00" fill="#000000">+ y</text>
<polyline fill="none" stroke="#000000" points="5.5,-201.5 70.5,-201.5 "/>
<text text-anchor="middle" x="38" y="-189.5" font-family="Helvetica,sans-Serif" font-size="10.00" fill="#000000"> </text>
</a>
</g>
</g>
<!-- Node2&#45;&gt;Node1 -->
<g id="edge1" class="edge">
<title>Node2&#45;&gt;Node1</title>
<path fill="none" stroke="#404040" d="M38,-182.176C38,-165.447 38,-144.7107 38,-124.937"/>
<polygon fill="none" stroke="#404040" points="38.0001,-124.794 34,-118.794 38,-112.794 42,-118.794 38.0001,-124.794"/>
<text text-anchor="middle" x="67.5" y="-156" font-family="Helvetica,sans-Serif" font-size="10.00" fill="#000000"> +extra</text>
<text text-anchor="middle" x="67.5" y="-145" font-family="Helvetica,sans-Serif" font-size="10.00" fill="#000000">+free_head</text>
<text text-anchor="middle" x="67.5" y="-134" font-family="Helvetica,sans-Serif" font-size="10.00" fill="#000000">+active_head</text>
</g>
<!-- Node2&#45;&gt;Node2 -->
<g id="edge2" class="edge">
<title>Node2&#45;&gt;Node2</title>
<path fill="none" stroke="#404040" d="M70.5425,-229.2375C80.6012,-228.9802 88.5,-224.7344 88.5,-216.5 88.5,-211.9968 86.1377,-208.6865 82.3517,-206.5691"/>
<polygon fill="none" stroke="#404040" points="82.2173,-206.5372 75.455,-209.0414 70.5425,-203.7625 77.3048,-201.2582 82.2173,-206.5372"/>
<text text-anchor="middle" x="102.5" y="-214" font-family="Helvetica,sans-Serif" font-size="10.00" fill="#000000"> +next</text>
</g>
</g>
</svg>
