<?xml version="1.0" encoding="UTF-8" standalone="no"?>
<!DOCTYPE svg PUBLIC "-//W3C//DTD SVG 1.1//EN"
 "http://www.w3.org/Graphics/SVG/1.1/DTD/svg11.dtd">
<!-- Generated by graphviz version 2.40.1 (20161225.0304)
 -->
<!-- Title: ImDrawVert Pages: 1 -->
<svg width="81pt" height="226pt"
 viewBox="0.00 0.00 81.00 226.00" xmlns="http://www.w3.org/2000/svg" xmlns:xlink="http://www.w3.org/1999/xlink">
<g id="graph0" class="graph" transform="scale(1 1) rotate(0) translate(4 222)">
<title>ImDrawVert</title>
<!-- Node1 -->
<g id="node1" class="node">
<title>Node1</title>
<polygon fill="#bfbfbf" stroke="#000000" points="2,-.5 2,-57.5 71,-57.5 71,-.5 2,-.5"/>
<text text-anchor="middle" x="36.5" y="-45.5" font-family="Helvetica,sans-Serif" font-size="10.00" fill="#000000">ImDrawVert</text>
<polyline fill="none" stroke="#000000" points="2,-38.5 71,-38.5 "/>
<text text-anchor="start" x="10" y="-26.5" font-family="Helvetica,sans-Serif" font-size="10.00" fill="#000000">+ col</text>
<polyline fill="none" stroke="#000000" points="2,-19.5 71,-19.5 "/>
<text text-anchor="middle" x="36.5" y="-7.5" font-family="Helvetica,sans-Serif" font-size="10.00" fill="#000000"> </text>
</g>
<!-- Node2 -->
<g id="node2" class="node">
<title>Node2</title>
<g id="a_node2"><a xlink:href="structImVec2.html" target="_top" xlink:title="{ImVec2\n|+ x\l+ y\l|+ ImVec2()\l+ ImVec2()\l+ operator[]()\l+ operator[]()\l}">
<polygon fill="none" stroke="#000000" points="0,-116.5 0,-217.5 73,-217.5 73,-116.5 0,-116.5"/>
<text text-anchor="middle" x="36.5" y="-205.5" font-family="Helvetica,sans-Serif" font-size="10.00" fill="#000000">ImVec2</text>
<polyline fill="none" stroke="#000000" points="0,-198.5 73,-198.5 "/>
<text text-anchor="start" x="8" y="-186.5" font-family="Helvetica,sans-Serif" font-size="10.00" fill="#000000">+ x</text>
<text text-anchor="start" x="8" y="-175.5" font-family="Helvetica,sans-Serif" font-size="10.00" fill="#000000">+ y</text>
<polyline fill="none" stroke="#000000" points="0,-168.5 73,-168.5 "/>
<text text-anchor="start" x="8" y="-156.5" font-family="Helvetica,sans-Serif" font-size="10.00" fill="#000000">+ ImVec2()</text>
<text text-anchor="start" x="8" y="-145.5" font-family="Helvetica,sans-Serif" font-size="10.00" fill="#000000">+ ImVec2()</text>
<text text-anchor="start" x="8" y="-134.5" font-family="Helvetica,sans-Serif" font-size="10.00" fill="#000000">+ operator[]()</text>
<text text-anchor="start" x="8" y="-123.5" font-family="Helvetica,sans-Serif" font-size="10.00" fill="#000000">+ operator[]()</text>
</a>
</g>
</g>
<!-- Node2&#45;&gt;Node1 -->
<g id="edge1" class="edge">
<title>Node2&#45;&gt;Node1</title>
<path fill="none" stroke="#404040" d="M36.5,-116.3975C36.5,-101.0475 36.5,-84.3871 36.5,-69.7693"/>
<polygon fill="none" stroke="#404040" points="36.5001,-69.5335 32.5,-63.5336 36.5,-57.5335 40.5,-63.5335 36.5001,-69.5335"/>
<text text-anchor="middle" x="49" y="-90" font-family="Helvetica,sans-Serif" font-size="10.00" fill="#000000"> +pos</text>
<text text-anchor="middle" x="49" y="-79" font-family="Helvetica,sans-Serif" font-size="10.00" fill="#000000">+uv</text>
</g>
</g>
</svg>
