<?xml version="1.0" encoding="UTF-8" standalone="no"?>
<!DOCTYPE svg PUBLIC "-//W3C//DTD SVG 1.1//EN"
 "http://www.w3.org/Graphics/SVG/1.1/DTD/svg11.dtd">
<!-- Generated by graphviz version 2.40.1 (20161225.0304)
 -->
<!-- Title: GenericDocument&lt; Encoding, Allocator, StackAllocator &gt;::ClearStackOnExit Pages: 1 -->
<svg width="1281pt" height="1272pt"
 viewBox="0.00 0.00 1280.50 1272.00" xmlns="http://www.w3.org/2000/svg" xmlns:xlink="http://www.w3.org/1999/xlink">
<g id="graph0" class="graph" transform="scale(1 1) rotate(0) translate(4 1268)">
<title>GenericDocument&lt; Encoding, Allocator, StackAllocator &gt;::ClearStackOnExit</title>
<!-- Node1 -->
<g id="node1" class="node">
<title>Node1</title>
<polygon fill="#bfbfbf" stroke="#000000" points="956,-.5 956,-112.5 1104,-112.5 1104,-.5 956,-.5"/>
<text text-anchor="start" x="964" y="-100.5" font-family="Helvetica,sans-Serif" font-size="10.00" fill="#000000">GenericDocument&lt; Encoding,</text>
<text text-anchor="start" x="964" y="-89.5" font-family="Helvetica,sans-Serif" font-size="10.00" fill="#000000"> Allocator, StackAllocator</text>
<text text-anchor="middle" x="1030" y="-78.5" font-family="Helvetica,sans-Serif" font-size="10.00" fill="#000000"> &gt;::ClearStackOnExit</text>
<polyline fill="none" stroke="#000000" points="956,-71.5 1104,-71.5 "/>
<text text-anchor="middle" x="1030" y="-59.5" font-family="Helvetica,sans-Serif" font-size="10.00" fill="#000000"> </text>
<polyline fill="none" stroke="#000000" points="956,-52.5 1104,-52.5 "/>
<text text-anchor="start" x="964" y="-40.5" font-family="Helvetica,sans-Serif" font-size="10.00" fill="#000000">+ ClearStackOnExit()</text>
<text text-anchor="start" x="964" y="-29.5" font-family="Helvetica,sans-Serif" font-size="10.00" fill="#000000">+ ~ClearStackOnExit()</text>
<text text-anchor="start" x="964" y="-18.5" font-family="Helvetica,sans-Serif" font-size="10.00" fill="#000000">&#45; ClearStackOnExit()</text>
<text text-anchor="start" x="964" y="-7.5" font-family="Helvetica,sans-Serif" font-size="10.00" fill="#000000">&#45; operator=()</text>
</g>
<!-- Node2 -->
<g id="node2" class="node">
<title>Node2</title>
<g id="a_node2"><a xlink:href="classGenericDocument.html" target="_top" xlink:title="A document for parsing JSON text as DOM. ">
<polygon fill="none" stroke="#000000" points="956,-160.5 956,-723.5 1104,-723.5 1104,-160.5 956,-160.5"/>
<text text-anchor="start" x="964" y="-711.5" font-family="Helvetica,sans-Serif" font-size="10.00" fill="#000000">GenericDocument&lt; Encoding,</text>
<text text-anchor="middle" x="1030" y="-700.5" font-family="Helvetica,sans-Serif" font-size="10.00" fill="#000000"> Allocator, StackAllocator &gt;</text>
<polyline fill="none" stroke="#000000" points="956,-693.5 1104,-693.5 "/>
<text text-anchor="start" x="964" y="-681.5" font-family="Helvetica,sans-Serif" font-size="10.00" fill="#000000">&#45; allocator_</text>
<text text-anchor="start" x="964" y="-670.5" font-family="Helvetica,sans-Serif" font-size="10.00" fill="#000000">&#45; ownAllocator_</text>
<polyline fill="none" stroke="#000000" points="956,-663.5 1104,-663.5 "/>
<text text-anchor="start" x="964" y="-651.5" font-family="Helvetica,sans-Serif" font-size="10.00" fill="#000000">+ GenericDocument()</text>
<text text-anchor="start" x="964" y="-640.5" font-family="Helvetica,sans-Serif" font-size="10.00" fill="#000000">+ GenericDocument()</text>
<text text-anchor="start" x="964" y="-629.5" font-family="Helvetica,sans-Serif" font-size="10.00" fill="#000000">+ ~GenericDocument()</text>
<text text-anchor="start" x="964" y="-618.5" font-family="Helvetica,sans-Serif" font-size="10.00" fill="#000000">+ Swap()</text>
<text text-anchor="start" x="964" y="-607.5" font-family="Helvetica,sans-Serif" font-size="10.00" fill="#000000">+ Populate()</text>
<text text-anchor="start" x="964" y="-596.5" font-family="Helvetica,sans-Serif" font-size="10.00" fill="#000000">+ GetAllocator()</text>
<text text-anchor="start" x="964" y="-585.5" font-family="Helvetica,sans-Serif" font-size="10.00" fill="#000000">+ GetStackCapacity()</text>
<text text-anchor="start" x="964" y="-574.5" font-family="Helvetica,sans-Serif" font-size="10.00" fill="#000000">+ Null()</text>
<text text-anchor="start" x="964" y="-563.5" font-family="Helvetica,sans-Serif" font-size="10.00" fill="#000000">+ Bool()</text>
<text text-anchor="start" x="964" y="-552.5" font-family="Helvetica,sans-Serif" font-size="10.00" fill="#000000">+ Int()</text>
<text text-anchor="start" x="964" y="-541.5" font-family="Helvetica,sans-Serif" font-size="10.00" fill="#000000">and 11 more...</text>
<text text-anchor="start" x="964" y="-530.5" font-family="Helvetica,sans-Serif" font-size="10.00" fill="#000000">+ ParseStream()</text>
<text text-anchor="start" x="964" y="-519.5" font-family="Helvetica,sans-Serif" font-size="10.00" fill="#000000">+ ParseStream()</text>
<text text-anchor="start" x="964" y="-508.5" font-family="Helvetica,sans-Serif" font-size="10.00" fill="#000000">+ ParseStream()</text>
<text text-anchor="start" x="964" y="-497.5" font-family="Helvetica,sans-Serif" font-size="10.00" fill="#000000">+ ParseInsitu()</text>
<text text-anchor="start" x="964" y="-486.5" font-family="Helvetica,sans-Serif" font-size="10.00" fill="#000000">+ ParseInsitu()</text>
<text text-anchor="start" x="964" y="-475.5" font-family="Helvetica,sans-Serif" font-size="10.00" fill="#000000">+ Parse()</text>
<text text-anchor="start" x="964" y="-464.5" font-family="Helvetica,sans-Serif" font-size="10.00" fill="#000000">+ Parse()</text>
<text text-anchor="start" x="964" y="-453.5" font-family="Helvetica,sans-Serif" font-size="10.00" fill="#000000">+ Parse()</text>
<text text-anchor="start" x="964" y="-442.5" font-family="Helvetica,sans-Serif" font-size="10.00" fill="#000000">+ Parse()</text>
<text text-anchor="start" x="964" y="-431.5" font-family="Helvetica,sans-Serif" font-size="10.00" fill="#000000">+ Parse()</text>
<text text-anchor="start" x="964" y="-420.5" font-family="Helvetica,sans-Serif" font-size="10.00" fill="#000000">+ Parse()</text>
<text text-anchor="start" x="964" y="-409.5" font-family="Helvetica,sans-Serif" font-size="10.00" fill="#000000">+ HasParseError()</text>
<text text-anchor="start" x="964" y="-398.5" font-family="Helvetica,sans-Serif" font-size="10.00" fill="#000000">+ GetParseError()</text>
<text text-anchor="start" x="964" y="-387.5" font-family="Helvetica,sans-Serif" font-size="10.00" fill="#000000">+ GetErrorOffset()</text>
<text text-anchor="start" x="964" y="-376.5" font-family="Helvetica,sans-Serif" font-size="10.00" fill="#000000">+ operator ParseResult()</text>
<text text-anchor="start" x="964" y="-365.5" font-family="Helvetica,sans-Serif" font-size="10.00" fill="#000000">&#45; GenericDocument()</text>
<text text-anchor="start" x="964" y="-354.5" font-family="Helvetica,sans-Serif" font-size="10.00" fill="#000000">&#45; operator=()</text>
<text text-anchor="start" x="964" y="-343.5" font-family="Helvetica,sans-Serif" font-size="10.00" fill="#000000">&#45; ClearStack()</text>
<text text-anchor="start" x="964" y="-332.5" font-family="Helvetica,sans-Serif" font-size="10.00" fill="#000000">&#45; Destroy()</text>
<text text-anchor="start" x="964" y="-321.5" font-family="Helvetica,sans-Serif" font-size="10.00" fill="#000000">* ParseStream()</text>
<text text-anchor="start" x="964" y="-310.5" font-family="Helvetica,sans-Serif" font-size="10.00" fill="#000000">* ParseStream()</text>
<text text-anchor="start" x="964" y="-299.5" font-family="Helvetica,sans-Serif" font-size="10.00" fill="#000000">* ParseStream()</text>
<text text-anchor="start" x="964" y="-288.5" font-family="Helvetica,sans-Serif" font-size="10.00" fill="#000000">* ParseInsitu()</text>
<text text-anchor="start" x="964" y="-277.5" font-family="Helvetica,sans-Serif" font-size="10.00" fill="#000000">* ParseInsitu()</text>
<text text-anchor="start" x="964" y="-266.5" font-family="Helvetica,sans-Serif" font-size="10.00" fill="#000000">* Parse()</text>
<text text-anchor="start" x="964" y="-255.5" font-family="Helvetica,sans-Serif" font-size="10.00" fill="#000000">* Parse()</text>
<text text-anchor="start" x="964" y="-244.5" font-family="Helvetica,sans-Serif" font-size="10.00" fill="#000000">* Parse()</text>
<text text-anchor="start" x="964" y="-233.5" font-family="Helvetica,sans-Serif" font-size="10.00" fill="#000000">* Parse()</text>
<text text-anchor="start" x="964" y="-222.5" font-family="Helvetica,sans-Serif" font-size="10.00" fill="#000000">* Parse()</text>
<text text-anchor="start" x="964" y="-211.5" font-family="Helvetica,sans-Serif" font-size="10.00" fill="#000000">* Parse()</text>
<text text-anchor="start" x="964" y="-200.5" font-family="Helvetica,sans-Serif" font-size="10.00" fill="#000000">* HasParseError()</text>
<text text-anchor="start" x="964" y="-189.5" font-family="Helvetica,sans-Serif" font-size="10.00" fill="#000000">* GetParseError()</text>
<text text-anchor="start" x="964" y="-178.5" font-family="Helvetica,sans-Serif" font-size="10.00" fill="#000000">* GetErrorOffset()</text>
<text text-anchor="start" x="964" y="-167.5" font-family="Helvetica,sans-Serif" font-size="10.00" fill="#000000">* operator ParseResult()</text>
</a>
</g>
</g>
<!-- Node2&#45;&gt;Node1 -->
<g id="edge1" class="edge">
<title>Node2&#45;&gt;Node1</title>
<path fill="none" stroke="#404040" d="M1030,-160.314C1030,-147.6641 1030,-135.6687 1030,-124.6282"/>
<polygon fill="none" stroke="#404040" points="1030.0001,-124.5848 1026,-118.5848 1030,-112.5848 1034,-118.5848 1030.0001,-124.5848"/>
<text text-anchor="middle" x="1038.5" y="-134" font-family="Helvetica,sans-Serif" font-size="10.00" fill="#000000"> &#45;d_</text>
</g>
<!-- Node3 -->
<g id="node3" class="node">
<title>Node3</title>
<g id="a_node3"><a xlink:href="classGenericValue.html" target="_top" xlink:title="Represents a JSON value. Use Value for UTF8 encoding and default allocator. ">
<polygon fill="none" stroke="#000000" points="511.5,-771.5 511.5,-1158.5 652.5,-1158.5 652.5,-771.5 511.5,-771.5"/>
<text text-anchor="start" x="519.5" y="-1146.5" font-family="Helvetica,sans-Serif" font-size="10.00" fill="#000000">GenericValue&lt; Encoding,</text>
<text text-anchor="middle" x="582" y="-1135.5" font-family="Helvetica,sans-Serif" font-size="10.00" fill="#000000"> Allocator &gt;</text>
<polyline fill="none" stroke="#000000" points="511.5,-1128.5 652.5,-1128.5 "/>
<text text-anchor="start" x="519.5" y="-1116.5" font-family="Helvetica,sans-Serif" font-size="10.00" fill="#000000">+ kDefaultArrayCapacity</text>
<text text-anchor="start" x="519.5" y="-1105.5" font-family="Helvetica,sans-Serif" font-size="10.00" fill="#000000">+ kDefaultObjectCapacity</text>
<polyline fill="none" stroke="#000000" points="511.5,-1098.5 652.5,-1098.5 "/>
<text text-anchor="start" x="519.5" y="-1086.5" font-family="Helvetica,sans-Serif" font-size="10.00" fill="#000000">+ RAPIDJSON_DISABLEIF</text>
<text text-anchor="start" x="519.5" y="-1075.5" font-family="Helvetica,sans-Serif" font-size="10.00" fill="#000000">_RETURN()</text>
<text text-anchor="start" x="519.5" y="-1064.5" font-family="Helvetica,sans-Serif" font-size="10.00" fill="#000000">+ GetStringPointer()</text>
<text text-anchor="start" x="519.5" y="-1053.5" font-family="Helvetica,sans-Serif" font-size="10.00" fill="#000000">+ SetStringPointer()</text>
<text text-anchor="start" x="519.5" y="-1042.5" font-family="Helvetica,sans-Serif" font-size="10.00" fill="#000000">+ GetElementsPointer()</text>
<text text-anchor="start" x="519.5" y="-1031.5" font-family="Helvetica,sans-Serif" font-size="10.00" fill="#000000">+ SetElementsPointer()</text>
<text text-anchor="start" x="519.5" y="-1020.5" font-family="Helvetica,sans-Serif" font-size="10.00" fill="#000000">+ GetMembersPointer()</text>
<text text-anchor="start" x="519.5" y="-1009.5" font-family="Helvetica,sans-Serif" font-size="10.00" fill="#000000">+ SetMembersPointer()</text>
<text text-anchor="start" x="519.5" y="-998.5" font-family="Helvetica,sans-Serif" font-size="10.00" fill="#000000">+ DoAllocMembers()</text>
<text text-anchor="start" x="519.5" y="-987.5" font-family="Helvetica,sans-Serif" font-size="10.00" fill="#000000">+ DoReserveMembers()</text>
<text text-anchor="start" x="519.5" y="-976.5" font-family="Helvetica,sans-Serif" font-size="10.00" fill="#000000">+ DoFindMember()</text>
<text text-anchor="start" x="519.5" y="-965.5" font-family="Helvetica,sans-Serif" font-size="10.00" fill="#000000">and 12 more...</text>
<text text-anchor="start" x="519.5" y="-954.5" font-family="Helvetica,sans-Serif" font-size="10.00" fill="#000000">+ operator=()</text>
<text text-anchor="start" x="519.5" y="-943.5" font-family="Helvetica,sans-Serif" font-size="10.00" fill="#000000">+ operator=()</text>
<text text-anchor="start" x="519.5" y="-932.5" font-family="Helvetica,sans-Serif" font-size="10.00" fill="#000000">+ DataString()</text>
<text text-anchor="start" x="519.5" y="-921.5" font-family="Helvetica,sans-Serif" font-size="10.00" fill="#000000">+ DataStringLength()</text>
<text text-anchor="start" x="519.5" y="-910.5" font-family="Helvetica,sans-Serif" font-size="10.00" fill="#000000">* GenericValue()</text>
<text text-anchor="start" x="519.5" y="-899.5" font-family="Helvetica,sans-Serif" font-size="10.00" fill="#000000">* GenericValue()</text>
<text text-anchor="start" x="519.5" y="-888.5" font-family="Helvetica,sans-Serif" font-size="10.00" fill="#000000">* GenericValue()</text>
<text text-anchor="start" x="519.5" y="-877.5" font-family="Helvetica,sans-Serif" font-size="10.00" fill="#000000">* GenericValue()</text>
<text text-anchor="start" x="519.5" y="-866.5" font-family="Helvetica,sans-Serif" font-size="10.00" fill="#000000">* GenericValue()</text>
<text text-anchor="start" x="519.5" y="-855.5" font-family="Helvetica,sans-Serif" font-size="10.00" fill="#000000">* GenericValue()</text>
<text text-anchor="start" x="519.5" y="-844.5" font-family="Helvetica,sans-Serif" font-size="10.00" fill="#000000">* GenericValue()</text>
<text text-anchor="start" x="519.5" y="-833.5" font-family="Helvetica,sans-Serif" font-size="10.00" fill="#000000">* GenericValue()</text>
<text text-anchor="start" x="519.5" y="-822.5" font-family="Helvetica,sans-Serif" font-size="10.00" fill="#000000">* GenericValue()</text>
<text text-anchor="start" x="519.5" y="-811.5" font-family="Helvetica,sans-Serif" font-size="10.00" fill="#000000">* GenericValue()</text>
<text text-anchor="start" x="519.5" y="-800.5" font-family="Helvetica,sans-Serif" font-size="10.00" fill="#000000">and 8 more...</text>
<text text-anchor="start" x="519.5" y="-789.5" font-family="Helvetica,sans-Serif" font-size="10.00" fill="#000000">* operator=()</text>
<text text-anchor="start" x="519.5" y="-778.5" font-family="Helvetica,sans-Serif" font-size="10.00" fill="#000000">* operator=()</text>
</a>
</g>
</g>
<!-- Node3&#45;&gt;Node2 -->
<g id="edge2" class="edge">
<title>Node3&#45;&gt;Node2</title>
<path fill="none" stroke="#191970" d="M659.6132,-871.4392C703.5149,-824.9242 762.2989,-772.3065 826,-742 875.0963,-718.6419 905.9857,-759.6914 947,-724 950.0799,-721.3198 953.0484,-718.5318 955.9093,-715.6452"/>
<polygon fill="none" stroke="#191970" points="656.9624,-869.1497 652.6965,-878.8478 662.0791,-873.9267 656.9624,-869.1497"/>
</g>
<!-- Node6 -->
<g id="node6" class="node">
<title>Node6</title>
<g id="a_node6"><a xlink:href="structGenericValue_1_1ArrayData.html" target="_top" xlink:title="{GenericValue\&lt; Encoding,\l Allocator \&gt;::ArrayData\n|+ size\l+ capacity\l|}">
<polygon fill="none" stroke="#000000" points="518,-402.5 518,-481.5 646,-481.5 646,-402.5 518,-402.5"/>
<text text-anchor="start" x="526" y="-469.5" font-family="Helvetica,sans-Serif" font-size="10.00" fill="#000000">GenericValue&lt; Encoding,</text>
<text text-anchor="middle" x="582" y="-458.5" font-family="Helvetica,sans-Serif" font-size="10.00" fill="#000000"> Allocator &gt;::ArrayData</text>
<polyline fill="none" stroke="#000000" points="518,-451.5 646,-451.5 "/>
<text text-anchor="start" x="526" y="-439.5" font-family="Helvetica,sans-Serif" font-size="10.00" fill="#000000">+ size</text>
<text text-anchor="start" x="526" y="-428.5" font-family="Helvetica,sans-Serif" font-size="10.00" fill="#000000">+ capacity</text>
<polyline fill="none" stroke="#000000" points="518,-421.5 646,-421.5 "/>
<text text-anchor="middle" x="582" y="-409.5" font-family="Helvetica,sans-Serif" font-size="10.00" fill="#000000"> </text>
</a>
</g>
</g>
<!-- Node3&#45;&gt;Node6 -->
<g id="edge6" class="edge">
<title>Node3&#45;&gt;Node6</title>
<path fill="none" stroke="#404040" d="M582,-771.3687C582,-671.8456 582,-558.2324 582,-493.817"/>
<polygon fill="none" stroke="#404040" points="582.0001,-493.6087 578,-487.6087 582,-481.6087 586,-487.6087 582.0001,-493.6087"/>
<text text-anchor="middle" x="606.5" y="-745" font-family="Helvetica,sans-Serif" font-size="10.00" fill="#000000"> +elements</text>
</g>
<!-- Node4 -->
<g id="node4" class="node">
<title>Node4</title>
<g id="a_node4"><a xlink:href="unionGenericValue_1_1Data.html" target="_top" xlink:title="{GenericValue\&lt; Encoding,\l Allocator \&gt;::Data\n||}">
<polygon fill="none" stroke="#000000" points="402,-22.5 402,-90.5 530,-90.5 530,-22.5 402,-22.5"/>
<text text-anchor="start" x="410" y="-78.5" font-family="Helvetica,sans-Serif" font-size="10.00" fill="#000000">GenericValue&lt; Encoding,</text>
<text text-anchor="middle" x="466" y="-67.5" font-family="Helvetica,sans-Serif" font-size="10.00" fill="#000000"> Allocator &gt;::Data</text>
<polyline fill="none" stroke="#000000" points="402,-60.5 530,-60.5 "/>
<text text-anchor="middle" x="466" y="-48.5" font-family="Helvetica,sans-Serif" font-size="10.00" fill="#000000"> </text>
<polyline fill="none" stroke="#000000" points="402,-41.5 530,-41.5 "/>
<text text-anchor="middle" x="466" y="-29.5" font-family="Helvetica,sans-Serif" font-size="10.00" fill="#000000"> </text>
</a>
</g>
</g>
<!-- Node4&#45;&gt;Node3 -->
<g id="edge3" class="edge">
<title>Node4&#45;&gt;Node3</title>
<path fill="none" stroke="#404040" d="M461.6814,-90.7366C450.1619,-190.0985 422.9801,-486.5394 475,-724 482.0671,-756.26 493.6482,-789.4764 506.6379,-820.5482"/>
<polygon fill="none" stroke="#404040" points="506.7696,-820.8568 512.8044,-824.8042 511.4816,-831.893 505.4469,-827.9456 506.7696,-820.8568"/>
<text text-anchor="middle" x="492" y="-439.5" font-family="Helvetica,sans-Serif" font-size="10.00" fill="#000000"> +data_</text>
</g>
<!-- Node5 -->
<g id="node5" class="node">
<title>Node5</title>
<g id="a_node5"><a xlink:href="structGenericValue_1_1String.html" target="_top" xlink:title="{GenericValue\&lt; Encoding,\l Allocator \&gt;::String\n|+ length\l+ hashcode\l+ str\l|}">
<polygon fill="none" stroke="#000000" points="302,-397 302,-487 430,-487 430,-397 302,-397"/>
<text text-anchor="start" x="310" y="-475" font-family="Helvetica,sans-Serif" font-size="10.00" fill="#000000">GenericValue&lt; Encoding,</text>
<text text-anchor="middle" x="366" y="-464" font-family="Helvetica,sans-Serif" font-size="10.00" fill="#000000"> Allocator &gt;::String</text>
<polyline fill="none" stroke="#000000" points="302,-457 430,-457 "/>
<text text-anchor="start" x="310" y="-445" font-family="Helvetica,sans-Serif" font-size="10.00" fill="#000000">+ length</text>
<text text-anchor="start" x="310" y="-434" font-family="Helvetica,sans-Serif" font-size="10.00" fill="#000000">+ hashcode</text>
<text text-anchor="start" x="310" y="-423" font-family="Helvetica,sans-Serif" font-size="10.00" fill="#000000">+ str</text>
<polyline fill="none" stroke="#000000" points="302,-416 430,-416 "/>
<text text-anchor="middle" x="366" y="-404" font-family="Helvetica,sans-Serif" font-size="10.00" fill="#000000"> </text>
</a>
</g>
</g>
<!-- Node5&#45;&gt;Node4 -->
<g id="edge4" class="edge">
<title>Node5&#45;&gt;Node4</title>
<path fill="none" stroke="#404040" d="M374.1364,-396.9079C385.6293,-335.9162 408.4374,-224.0491 437,-131 439.9245,-121.4727 443.49,-111.4288 447.1067,-101.9077"/>
<polygon fill="none" stroke="#404040" points="447.147,-101.8042 445.5986,-94.7613 451.5042,-90.6232 453.0526,-97.6661 447.147,-101.8042"/>
<text text-anchor="middle" x="444.5" y="-134" font-family="Helvetica,sans-Serif" font-size="10.00" fill="#000000"> +s</text>
</g>
<!-- Node6&#45;&gt;Node4 -->
<g id="edge5" class="edge">
<title>Node6&#45;&gt;Node4</title>
<path fill="none" stroke="#404040" d="M572.1575,-402.4651C558.2609,-347.6397 531.5014,-245.6007 504,-160 497.8523,-140.8647 490.3549,-120.0147 483.6493,-102.0757"/>
<polygon fill="none" stroke="#404040" points="483.6143,-101.9827 477.7541,-97.7805 479.3792,-90.7548 485.2394,-94.9571 483.6143,-101.9827"/>
<text text-anchor="middle" x="505.5" y="-134" font-family="Helvetica,sans-Serif" font-size="10.00" fill="#000000"> +a</text>
</g>
<!-- Node7 -->
<g id="node7" class="node">
<title>Node7</title>
<g id="a_node7"><a xlink:href="structGenericValue_1_1ObjectData.html" target="_top" xlink:title="{GenericValue\&lt; Encoding,\l Allocator \&gt;::ObjectData\n|+ size\l+ capacity\l|}">
<polygon fill="none" stroke="#000000" points="8,-402.5 8,-481.5 136,-481.5 136,-402.5 8,-402.5"/>
<text text-anchor="start" x="16" y="-469.5" font-family="Helvetica,sans-Serif" font-size="10.00" fill="#000000">GenericValue&lt; Encoding,</text>
<text text-anchor="middle" x="72" y="-458.5" font-family="Helvetica,sans-Serif" font-size="10.00" fill="#000000"> Allocator &gt;::ObjectData</text>
<polyline fill="none" stroke="#000000" points="8,-451.5 136,-451.5 "/>
<text text-anchor="start" x="16" y="-439.5" font-family="Helvetica,sans-Serif" font-size="10.00" fill="#000000">+ size</text>
<text text-anchor="start" x="16" y="-428.5" font-family="Helvetica,sans-Serif" font-size="10.00" fill="#000000">+ capacity</text>
<polyline fill="none" stroke="#000000" points="8,-421.5 136,-421.5 "/>
<text text-anchor="middle" x="72" y="-409.5" font-family="Helvetica,sans-Serif" font-size="10.00" fill="#000000"> </text>
</a>
</g>
</g>
<!-- Node7&#45;&gt;Node4 -->
<g id="edge7" class="edge">
<title>Node7&#45;&gt;Node4</title>
<path fill="none" stroke="#404040" d="M71.2707,-402.2069C72.3674,-341.852 83.4064,-227.1101 147,-160 180.5429,-124.6023 306.7731,-91.214 390.0302,-72.3615"/>
<polygon fill="none" stroke="#404040" points="390.2756,-72.3067 395.2576,-67.0933 401.9861,-69.687 397.0041,-74.9004 390.2756,-72.3067"/>
<text text-anchor="middle" x="200.5" y="-134" font-family="Helvetica,sans-Serif" font-size="10.00" fill="#000000"> +o</text>
</g>
<!-- Node8 -->
<g id="node8" class="node">
<title>Node8</title>
<g id="a_node8"><a xlink:href="classGenericMember.html" target="_top" xlink:title="Name&#45;value pair in a JSON object value. ">
<polygon fill="none" stroke="#000000" points="0,-920 0,-1010 138,-1010 138,-920 0,-920"/>
<text text-anchor="start" x="8" y="-998" font-family="Helvetica,sans-Serif" font-size="10.00" fill="#000000">GenericMember&lt; Encoding,</text>
<text text-anchor="middle" x="69" y="-987" font-family="Helvetica,sans-Serif" font-size="10.00" fill="#000000"> Allocator &gt;</text>
<polyline fill="none" stroke="#000000" points="0,-980 138,-980 "/>
<text text-anchor="start" x="8" y="-968" font-family="Helvetica,sans-Serif" font-size="10.00" fill="#000000">+ name</text>
<text text-anchor="start" x="8" y="-957" font-family="Helvetica,sans-Serif" font-size="10.00" fill="#000000">+ value</text>
<polyline fill="none" stroke="#000000" points="0,-950 138,-950 "/>
<text text-anchor="start" x="8" y="-938" font-family="Helvetica,sans-Serif" font-size="10.00" fill="#000000">+ operator=()</text>
<text text-anchor="start" x="8" y="-927" font-family="Helvetica,sans-Serif" font-size="10.00" fill="#000000">&#45; GenericMember()</text>
</a>
</g>
</g>
<!-- Node8&#45;&gt;Node7 -->
<g id="edge8" class="edge">
<title>Node8&#45;&gt;Node7</title>
<path fill="none" stroke="#404040" d="M69.2584,-919.9567C69.813,-823.2689 71.1148,-596.3269 71.7026,-493.8431"/>
<polygon fill="none" stroke="#404040" points="71.7034,-493.6874 67.7379,-487.6645 71.7723,-481.6876 75.7378,-487.7105 71.7034,-493.6874"/>
<text text-anchor="middle" x="96" y="-745" font-family="Helvetica,sans-Serif" font-size="10.00" fill="#000000"> +members</text>
</g>
<!-- Node9 -->
<g id="node9" class="node">
<title>Node9</title>
<g id="a_node9"><a xlink:href="unionGenericValue_1_1Number.html" target="_top" xlink:title="{GenericValue\&lt; Encoding,\l Allocator \&gt;::Number\n|+ i64\l+ u64\l+ d\l|}">
<polygon fill="none" stroke="#000000" points="156,-397 156,-487 284,-487 284,-397 156,-397"/>
<text text-anchor="start" x="164" y="-475" font-family="Helvetica,sans-Serif" font-size="10.00" fill="#000000">GenericValue&lt; Encoding,</text>
<text text-anchor="middle" x="220" y="-464" font-family="Helvetica,sans-Serif" font-size="10.00" fill="#000000"> Allocator &gt;::Number</text>
<polyline fill="none" stroke="#000000" points="156,-457 284,-457 "/>
<text text-anchor="start" x="164" y="-445" font-family="Helvetica,sans-Serif" font-size="10.00" fill="#000000">+ i64</text>
<text text-anchor="start" x="164" y="-434" font-family="Helvetica,sans-Serif" font-size="10.00" fill="#000000">+ u64</text>
<text text-anchor="start" x="164" y="-423" font-family="Helvetica,sans-Serif" font-size="10.00" fill="#000000">+ d</text>
<polyline fill="none" stroke="#000000" points="156,-416 284,-416 "/>
<text text-anchor="middle" x="220" y="-404" font-family="Helvetica,sans-Serif" font-size="10.00" fill="#000000"> </text>
</a>
</g>
</g>
<!-- Node9&#45;&gt;Node4 -->
<g id="edge9" class="edge">
<title>Node9&#45;&gt;Node4</title>
<path fill="none" stroke="#404040" d="M221.3399,-396.9622C225.2467,-337.2214 239.8202,-231.0576 293,-160 317.6946,-127.0036 356.2752,-102.4638 390.7421,-85.5823"/>
<polygon fill="none" stroke="#404040" points="390.9172,-85.4996 394.6312,-79.3184 401.7653,-80.3694 398.0513,-86.5505 390.9172,-85.4996"/>
<text text-anchor="middle" x="326.5" y="-134" font-family="Helvetica,sans-Serif" font-size="10.00" fill="#000000"> +n</text>
</g>
<!-- Node10 -->
<g id="node10" class="node">
<title>Node10</title>
<g id="a_node10"><a xlink:href="structGenericValue_1_1Number_1_1U.html" target="_top" xlink:title="{GenericValue\&lt; Encoding,\l Allocator \&gt;::Number::U\n|+ u\l+ padding2\l|}">
<polygon fill="none" stroke="#000000" points="302,-925.5 302,-1004.5 430,-1004.5 430,-925.5 302,-925.5"/>
<text text-anchor="start" x="310" y="-992.5" font-family="Helvetica,sans-Serif" font-size="10.00" fill="#000000">GenericValue&lt; Encoding,</text>
<text text-anchor="middle" x="366" y="-981.5" font-family="Helvetica,sans-Serif" font-size="10.00" fill="#000000"> Allocator &gt;::Number::U</text>
<polyline fill="none" stroke="#000000" points="302,-974.5 430,-974.5 "/>
<text text-anchor="start" x="310" y="-962.5" font-family="Helvetica,sans-Serif" font-size="10.00" fill="#000000">+ u</text>
<text text-anchor="start" x="310" y="-951.5" font-family="Helvetica,sans-Serif" font-size="10.00" fill="#000000">+ padding2</text>
<polyline fill="none" stroke="#000000" points="302,-944.5 430,-944.5 "/>
<text text-anchor="middle" x="366" y="-932.5" font-family="Helvetica,sans-Serif" font-size="10.00" fill="#000000"> </text>
</a>
</g>
</g>
<!-- Node10&#45;&gt;Node9 -->
<g id="edge10" class="edge">
<title>Node10&#45;&gt;Node9</title>
<path fill="none" stroke="#404040" d="M353.4895,-925.4848C338.5384,-877.8639 313.0301,-795.3429 293,-724 271.1766,-646.2698 248.1828,-555.8192 233.9652,-498.7419"/>
<polygon fill="none" stroke="#404040" points="233.9626,-498.7311 228.6335,-493.8731 231.0682,-487.0854 236.3973,-491.9434 233.9626,-498.7311"/>
<text text-anchor="middle" x="308.5" y="-745" font-family="Helvetica,sans-Serif" font-size="10.00" fill="#000000"> +u</text>
</g>
<!-- Node11 -->
<g id="node11" class="node">
<title>Node11</title>
<g id="a_node11"><a xlink:href="structGenericValue_1_1Number_1_1I.html" target="_top" xlink:title="{GenericValue\&lt; Encoding,\l Allocator \&gt;::Number::I\n|+ i\l+ padding\l|}">
<polygon fill="none" stroke="#000000" points="156,-925.5 156,-1004.5 284,-1004.5 284,-925.5 156,-925.5"/>
<text text-anchor="start" x="164" y="-992.5" font-family="Helvetica,sans-Serif" font-size="10.00" fill="#000000">GenericValue&lt; Encoding,</text>
<text text-anchor="middle" x="220" y="-981.5" font-family="Helvetica,sans-Serif" font-size="10.00" fill="#000000"> Allocator &gt;::Number::I</text>
<polyline fill="none" stroke="#000000" points="156,-974.5 284,-974.5 "/>
<text text-anchor="start" x="164" y="-962.5" font-family="Helvetica,sans-Serif" font-size="10.00" fill="#000000">+ i</text>
<text text-anchor="start" x="164" y="-951.5" font-family="Helvetica,sans-Serif" font-size="10.00" fill="#000000">+ padding</text>
<polyline fill="none" stroke="#000000" points="156,-944.5 284,-944.5 "/>
<text text-anchor="middle" x="220" y="-932.5" font-family="Helvetica,sans-Serif" font-size="10.00" fill="#000000"> </text>
</a>
</g>
</g>
<!-- Node11&#45;&gt;Node9 -->
<g id="edge11" class="edge">
<title>Node11&#45;&gt;Node9</title>
<path fill="none" stroke="#404040" d="M220,-925.2607C220,-833.4262 220,-606.1887 220,-499.3049"/>
<polygon fill="none" stroke="#404040" points="220.0001,-499.191 216,-493.191 220,-487.191 224,-493.1909 220.0001,-499.191"/>
<text text-anchor="middle" x="226" y="-745" font-family="Helvetica,sans-Serif" font-size="10.00" fill="#000000"> +i</text>
</g>
<!-- Node12 -->
<g id="node12" class="node">
<title>Node12</title>
<g id="a_node12"><a xlink:href="structGenericValue_1_1ShortString.html" target="_top" xlink:title="{GenericValue\&lt; Encoding,\l Allocator \&gt;::ShortString\n|+ str\l|+ SetLength()\l+ GetLength()\l+ Usable()\l}">
<polygon fill="none" stroke="#000000" points="664,-397 664,-487 792,-487 792,-397 664,-397"/>
<text text-anchor="start" x="672" y="-475" font-family="Helvetica,sans-Serif" font-size="10.00" fill="#000000">GenericValue&lt; Encoding,</text>
<text text-anchor="middle" x="728" y="-464" font-family="Helvetica,sans-Serif" font-size="10.00" fill="#000000"> Allocator &gt;::ShortString</text>
<polyline fill="none" stroke="#000000" points="664,-457 792,-457 "/>
<text text-anchor="start" x="672" y="-445" font-family="Helvetica,sans-Serif" font-size="10.00" fill="#000000">+ str</text>
<polyline fill="none" stroke="#000000" points="664,-438 792,-438 "/>
<text text-anchor="start" x="672" y="-426" font-family="Helvetica,sans-Serif" font-size="10.00" fill="#000000">+ SetLength()</text>
<text text-anchor="start" x="672" y="-415" font-family="Helvetica,sans-Serif" font-size="10.00" fill="#000000">+ GetLength()</text>
<text text-anchor="start" x="672" y="-404" font-family="Helvetica,sans-Serif" font-size="10.00" fill="#000000">+ Usable()</text>
</a>
</g>
</g>
<!-- Node12&#45;&gt;Node4 -->
<g id="edge12" class="edge">
<title>Node12&#45;&gt;Node4</title>
<path fill="none" stroke="#404040" d="M727.0738,-396.9141C723.6391,-336.8793 709.6025,-230.1307 655,-160 626.2813,-123.114 580.5674,-97.5776 541.2924,-81.0993"/>
<polygon fill="none" stroke="#404040" points="541.2629,-81.0874 534.2005,-82.5446 530.1391,-76.586 537.2015,-75.1288 541.2629,-81.0874"/>
<text text-anchor="middle" x="646" y="-134" font-family="Helvetica,sans-Serif" font-size="10.00" fill="#000000"> +ss</text>
</g>
<!-- Node13 -->
<g id="node13" class="node">
<title>Node13</title>
<g id="a_node13"><a xlink:href="structGenericValue_1_1Flag.html" target="_top" xlink:title="{GenericValue\&lt; Encoding,\l Allocator \&gt;::Flag\n|+ payload\l+ flags\l|}">
<polygon fill="none" stroke="#000000" points="810,-402.5 810,-481.5 938,-481.5 938,-402.5 810,-402.5"/>
<text text-anchor="start" x="818" y="-469.5" font-family="Helvetica,sans-Serif" font-size="10.00" fill="#000000">GenericValue&lt; Encoding,</text>
<text text-anchor="middle" x="874" y="-458.5" font-family="Helvetica,sans-Serif" font-size="10.00" fill="#000000"> Allocator &gt;::Flag</text>
<polyline fill="none" stroke="#000000" points="810,-451.5 938,-451.5 "/>
<text text-anchor="start" x="818" y="-439.5" font-family="Helvetica,sans-Serif" font-size="10.00" fill="#000000">+ payload</text>
<text text-anchor="start" x="818" y="-428.5" font-family="Helvetica,sans-Serif" font-size="10.00" fill="#000000">+ flags</text>
<polyline fill="none" stroke="#000000" points="810,-421.5 938,-421.5 "/>
<text text-anchor="middle" x="874" y="-409.5" font-family="Helvetica,sans-Serif" font-size="10.00" fill="#000000"> </text>
</a>
</g>
</g>
<!-- Node13&#45;&gt;Node4 -->
<g id="edge13" class="edge">
<title>Node13&#45;&gt;Node4</title>
<path fill="none" stroke="#404040" d="M875.1635,-402.1194C874.6957,-341.6489 864.732,-226.7565 801,-160 765.3203,-122.6271 629.6421,-89.3062 542.2831,-71.0983"/>
<polygon fill="none" stroke="#404040" points="542.0461,-71.0496 535.3629,-73.758 530.2925,-68.6306 536.9756,-65.9222 542.0461,-71.0496"/>
<text text-anchor="middle" x="779.5" y="-134" font-family="Helvetica,sans-Serif" font-size="10.00" fill="#000000"> +f</text>
</g>
<!-- Node14 -->
<g id="node14" class="node">
<title>Node14</title>
<g id="a_node14"><a xlink:href="structParseResult.html" target="_top" xlink:title="Result of parsing (wraps ParseErrorCode) ">
<polygon fill="none" stroke="#000000" points="966.5,-876 966.5,-1054 1093.5,-1054 1093.5,-876 966.5,-876"/>
<text text-anchor="middle" x="1030" y="-1042" font-family="Helvetica,sans-Serif" font-size="10.00" fill="#000000">ParseResult</text>
<polyline fill="none" stroke="#000000" points="966.5,-1035 1093.5,-1035 "/>
<text text-anchor="start" x="974.5" y="-1023" font-family="Helvetica,sans-Serif" font-size="10.00" fill="#000000">&#45; code_</text>
<polyline fill="none" stroke="#000000" points="966.5,-1016 1093.5,-1016 "/>
<text text-anchor="start" x="974.5" y="-1004" font-family="Helvetica,sans-Serif" font-size="10.00" fill="#000000">+ ParseResult()</text>
<text text-anchor="start" x="974.5" y="-993" font-family="Helvetica,sans-Serif" font-size="10.00" fill="#000000">+ ParseResult()</text>
<text text-anchor="start" x="974.5" y="-982" font-family="Helvetica,sans-Serif" font-size="10.00" fill="#000000">+ Code()</text>
<text text-anchor="start" x="974.5" y="-971" font-family="Helvetica,sans-Serif" font-size="10.00" fill="#000000">+ Offset()</text>
<text text-anchor="start" x="974.5" y="-960" font-family="Helvetica,sans-Serif" font-size="10.00" fill="#000000">+ operator BooleanType()</text>
<text text-anchor="start" x="974.5" y="-949" font-family="Helvetica,sans-Serif" font-size="10.00" fill="#000000">+ IsError()</text>
<text text-anchor="start" x="974.5" y="-938" font-family="Helvetica,sans-Serif" font-size="10.00" fill="#000000">+ operator==()</text>
<text text-anchor="start" x="974.5" y="-927" font-family="Helvetica,sans-Serif" font-size="10.00" fill="#000000">+ operator==()</text>
<text text-anchor="start" x="974.5" y="-916" font-family="Helvetica,sans-Serif" font-size="10.00" fill="#000000">+ operator!=()</text>
<text text-anchor="start" x="974.5" y="-905" font-family="Helvetica,sans-Serif" font-size="10.00" fill="#000000">+ operator!=()</text>
<text text-anchor="start" x="974.5" y="-894" font-family="Helvetica,sans-Serif" font-size="10.00" fill="#000000">+ Clear()</text>
<text text-anchor="start" x="974.5" y="-883" font-family="Helvetica,sans-Serif" font-size="10.00" fill="#000000">+ Set()</text>
</a>
</g>
</g>
<!-- Node14&#45;&gt;Node2 -->
<g id="edge14" class="edge">
<title>Node14&#45;&gt;Node2</title>
<path fill="none" stroke="#404040" d="M1030,-875.9839C1030,-836.2338 1030,-786.8855 1030,-735.868"/>
<polygon fill="none" stroke="#404040" points="1030.0001,-735.5699 1026,-729.5699 1030,-723.5699 1034,-729.5699 1030.0001,-735.5699"/>
<text text-anchor="middle" x="1062" y="-745" font-family="Helvetica,sans-Serif" font-size="10.00" fill="#000000"> &#45;parseResult_</text>
</g>
<!-- Node15 -->
<g id="node15" class="node">
<title>Node15</title>
<polygon fill="none" stroke="#bfbfbf" points="1008.5,-1206.5 1008.5,-1263.5 1051.5,-1263.5 1051.5,-1206.5 1008.5,-1206.5"/>
<text text-anchor="middle" x="1030" y="-1251.5" font-family="Helvetica,sans-Serif" font-size="10.00" fill="#000000">size_t</text>
<polyline fill="none" stroke="#bfbfbf" points="1008.5,-1244.5 1051.5,-1244.5 "/>
<text text-anchor="middle" x="1030" y="-1232.5" font-family="Helvetica,sans-Serif" font-size="10.00" fill="#000000"> </text>
<polyline fill="none" stroke="#bfbfbf" points="1008.5,-1225.5 1051.5,-1225.5 "/>
<text text-anchor="middle" x="1030" y="-1213.5" font-family="Helvetica,sans-Serif" font-size="10.00" fill="#000000"> </text>
</g>
<!-- Node15&#45;&gt;Node2 -->
<g id="edge18" class="edge">
<title>Node15&#45;&gt;Node2</title>
<path fill="none" stroke="#404040" d="M1008.2003,-1233.3088C968.4882,-1228.9169 885.1284,-1213.354 849,-1159 753.5419,-1015.3865 757.1365,-916.9389 849,-771 874.7331,-730.1192 915.6991,-760.7924 947,-724 947.3824,-723.5506 947.763,-723.0994 948.1418,-722.6466"/>
<polygon fill="none" stroke="#404040" points="948.403,-722.3161 948.9844,-715.1285 955.8428,-712.9008 955.2613,-720.0884 948.403,-722.3161"/>
<text text-anchor="middle" x="903" y="-962.5" font-family="Helvetica,sans-Serif" font-size="10.00" fill="#000000"> &#45;kDefaultStackCapacity</text>
</g>
<!-- Node15&#45;&gt;Node14 -->
<g id="edge15" class="edge">
<title>Node15&#45;&gt;Node14</title>
<path fill="none" stroke="#404040" d="M1030,-1206.3609C1030,-1173.1351 1030,-1116.5009 1030,-1066.4403"/>
<polygon fill="none" stroke="#404040" points="1030.0001,-1066.2083 1026,-1060.2084 1030,-1054.2083 1034,-1060.2083 1030.0001,-1066.2083"/>
<text text-anchor="middle" x="1048.5" y="-1180" font-family="Helvetica,sans-Serif" font-size="10.00" fill="#000000"> &#45;offset_</text>
</g>
<!-- Node16 -->
<g id="node16" class="node">
<title>Node16</title>
<g id="a_node16"><a xlink:href="classinternal_1_1Stack.html" target="_top" xlink:title="{internal::Stack\&lt; StackAllocator \&gt;\n|&#45; allocator_\l&#45; ownAllocator_\l&#45; stack_\l&#45; stackTop_\l&#45; stackEnd_\l|+ Stack()\l+ ~Stack()\l+ Swap()\l+ Clear()\l+ ShrinkToFit()\l+ Reserve()\l+ Push()\l+ PushUnsafe()\l+ Pop()\l+ Top()\land 10 more...\l&#45; Stack()\l&#45; Expand()\l&#45; Resize()\l&#45; Destroy()\l&#45; operator=()\l}">
<polygon fill="none" stroke="#000000" points="1111.5,-832 1111.5,-1098 1272.5,-1098 1272.5,-832 1111.5,-832"/>
<text text-anchor="middle" x="1192" y="-1086" font-family="Helvetica,sans-Serif" font-size="10.00" fill="#000000">internal::Stack&lt; StackAllocator &gt;</text>
<polyline fill="none" stroke="#000000" points="1111.5,-1079 1272.5,-1079 "/>
<text text-anchor="start" x="1119.5" y="-1067" font-family="Helvetica,sans-Serif" font-size="10.00" fill="#000000">&#45; allocator_</text>
<text text-anchor="start" x="1119.5" y="-1056" font-family="Helvetica,sans-Serif" font-size="10.00" fill="#000000">&#45; ownAllocator_</text>
<text text-anchor="start" x="1119.5" y="-1045" font-family="Helvetica,sans-Serif" font-size="10.00" fill="#000000">&#45; stack_</text>
<text text-anchor="start" x="1119.5" y="-1034" font-family="Helvetica,sans-Serif" font-size="10.00" fill="#000000">&#45; stackTop_</text>
<text text-anchor="start" x="1119.5" y="-1023" font-family="Helvetica,sans-Serif" font-size="10.00" fill="#000000">&#45; stackEnd_</text>
<polyline fill="none" stroke="#000000" points="1111.5,-1016 1272.5,-1016 "/>
<text text-anchor="start" x="1119.5" y="-1004" font-family="Helvetica,sans-Serif" font-size="10.00" fill="#000000">+ Stack()</text>
<text text-anchor="start" x="1119.5" y="-993" font-family="Helvetica,sans-Serif" font-size="10.00" fill="#000000">+ ~Stack()</text>
<text text-anchor="start" x="1119.5" y="-982" font-family="Helvetica,sans-Serif" font-size="10.00" fill="#000000">+ Swap()</text>
<text text-anchor="start" x="1119.5" y="-971" font-family="Helvetica,sans-Serif" font-size="10.00" fill="#000000">+ Clear()</text>
<text text-anchor="start" x="1119.5" y="-960" font-family="Helvetica,sans-Serif" font-size="10.00" fill="#000000">+ ShrinkToFit()</text>
<text text-anchor="start" x="1119.5" y="-949" font-family="Helvetica,sans-Serif" font-size="10.00" fill="#000000">+ Reserve()</text>
<text text-anchor="start" x="1119.5" y="-938" font-family="Helvetica,sans-Serif" font-size="10.00" fill="#000000">+ Push()</text>
<text text-anchor="start" x="1119.5" y="-927" font-family="Helvetica,sans-Serif" font-size="10.00" fill="#000000">+ PushUnsafe()</text>
<text text-anchor="start" x="1119.5" y="-916" font-family="Helvetica,sans-Serif" font-size="10.00" fill="#000000">+ Pop()</text>
<text text-anchor="start" x="1119.5" y="-905" font-family="Helvetica,sans-Serif" font-size="10.00" fill="#000000">+ Top()</text>
<text text-anchor="start" x="1119.5" y="-894" font-family="Helvetica,sans-Serif" font-size="10.00" fill="#000000">and 10 more...</text>
<text text-anchor="start" x="1119.5" y="-883" font-family="Helvetica,sans-Serif" font-size="10.00" fill="#000000">&#45; Stack()</text>
<text text-anchor="start" x="1119.5" y="-872" font-family="Helvetica,sans-Serif" font-size="10.00" fill="#000000">&#45; Expand()</text>
<text text-anchor="start" x="1119.5" y="-861" font-family="Helvetica,sans-Serif" font-size="10.00" fill="#000000">&#45; Resize()</text>
<text text-anchor="start" x="1119.5" y="-850" font-family="Helvetica,sans-Serif" font-size="10.00" fill="#000000">&#45; Destroy()</text>
<text text-anchor="start" x="1119.5" y="-839" font-family="Helvetica,sans-Serif" font-size="10.00" fill="#000000">&#45; operator=()</text>
</a>
</g>
</g>
<!-- Node15&#45;&gt;Node16 -->
<g id="edge17" class="edge">
<title>Node15&#45;&gt;Node16</title>
<path fill="none" stroke="#404040" d="M1051.5079,-1216.2902C1067.2249,-1201.8062 1088.2776,-1180.6266 1103,-1159 1113.6202,-1143.3994 1123.5372,-1126.3278 1132.6105,-1108.988"/>
<polygon fill="none" stroke="#404040" points="1132.6815,-1108.8494 1131.855,-1101.6858 1138.1497,-1098.1676 1138.9761,-1105.3312 1132.6815,-1108.8494"/>
<text text-anchor="middle" x="1125.5" y="-1180" font-family="Helvetica,sans-Serif" font-size="10.00" fill="#000000"> &#45;initialCapacity_</text>
</g>
<!-- Node16&#45;&gt;Node2 -->
<g id="edge16" class="edge">
<title>Node16&#45;&gt;Node2</title>
<path fill="none" stroke="#404040" d="M1150.7014,-831.6718C1137.5317,-789.1547 1122.5016,-740.6319 1107.6238,-692.6002"/>
<polygon fill="none" stroke="#404040" points="1107.6002,-692.5238 1102.004,-687.976 1104.0495,-681.0611 1109.6458,-685.6089 1107.6002,-692.5238"/>
<text text-anchor="middle" x="1143" y="-745" font-family="Helvetica,sans-Serif" font-size="10.00" fill="#000000"> &#45;stack_</text>
</g>
</g>
</svg>
