<?xml version="1.0" encoding="UTF-8" standalone="no"?>
<!DOCTYPE svg PUBLIC "-//W3C//DTD SVG 1.1//EN"
 "http://www.w3.org/Graphics/SVG/1.1/DTD/svg11.dtd">
<!-- Generated by graphviz version 2.40.1 (20161225.0304)
 -->
<!-- Title: ImFontAtlas Pages: 1 -->
<svg width="966pt" height="1377pt"
 viewBox="0.00 0.00 965.50 1377.00" xmlns="http://www.w3.org/2000/svg" xmlns:xlink="http://www.w3.org/1999/xlink">
<g id="graph0" class="graph" transform="scale(1 1) rotate(0) translate(4 1373)">
<title>ImFontAtlas</title>
<!-- Node1 -->
<g id="node1" class="node">
<title>Node1</title>
<polygon fill="#bfbfbf" stroke="#000000" points="703.5,-810.5 703.5,-1131.5 903.5,-1131.5 903.5,-810.5 703.5,-810.5"/>
<text text-anchor="middle" x="803.5" y="-1119.5" font-family="Helvetica,sans-Serif" font-size="10.00" fill="#000000">ImFontAtlas</text>
<polyline fill="none" stroke="#000000" points="703.5,-1112.5 903.5,-1112.5 "/>
<text text-anchor="start" x="711.5" y="-1100.5" font-family="Helvetica,sans-Serif" font-size="10.00" fill="#000000">+ Flags</text>
<text text-anchor="start" x="711.5" y="-1089.5" font-family="Helvetica,sans-Serif" font-size="10.00" fill="#000000">+ TexID</text>
<text text-anchor="start" x="711.5" y="-1078.5" font-family="Helvetica,sans-Serif" font-size="10.00" fill="#000000">+ TexDesiredWidth</text>
<text text-anchor="start" x="711.5" y="-1067.5" font-family="Helvetica,sans-Serif" font-size="10.00" fill="#000000">+ TexGlyphPadding</text>
<text text-anchor="start" x="711.5" y="-1056.5" font-family="Helvetica,sans-Serif" font-size="10.00" fill="#000000">+ Locked</text>
<text text-anchor="start" x="711.5" y="-1045.5" font-family="Helvetica,sans-Serif" font-size="10.00" fill="#000000">+ TexReady</text>
<text text-anchor="start" x="711.5" y="-1034.5" font-family="Helvetica,sans-Serif" font-size="10.00" fill="#000000">+ TexPixelsUseColors</text>
<text text-anchor="start" x="711.5" y="-1023.5" font-family="Helvetica,sans-Serif" font-size="10.00" fill="#000000">+ TexPixelsAlpha8</text>
<text text-anchor="start" x="711.5" y="-1012.5" font-family="Helvetica,sans-Serif" font-size="10.00" fill="#000000">+ TexPixelsRGBA32</text>
<text text-anchor="start" x="711.5" y="-1001.5" font-family="Helvetica,sans-Serif" font-size="10.00" fill="#000000">+ TexWidth</text>
<text text-anchor="start" x="711.5" y="-990.5" font-family="Helvetica,sans-Serif" font-size="10.00" fill="#000000">+ TexHeight</text>
<text text-anchor="start" x="711.5" y="-979.5" font-family="Helvetica,sans-Serif" font-size="10.00" fill="#000000">+ FontBuilderFlags</text>
<text text-anchor="start" x="711.5" y="-968.5" font-family="Helvetica,sans-Serif" font-size="10.00" fill="#000000">+ PackIdMouseCursors</text>
<text text-anchor="start" x="711.5" y="-957.5" font-family="Helvetica,sans-Serif" font-size="10.00" fill="#000000">+ PackIdLines</text>
<polyline fill="none" stroke="#000000" points="703.5,-950.5 903.5,-950.5 "/>
<text text-anchor="start" x="711.5" y="-938.5" font-family="Helvetica,sans-Serif" font-size="10.00" fill="#000000">+ ImFontAtlas()</text>
<text text-anchor="start" x="711.5" y="-927.5" font-family="Helvetica,sans-Serif" font-size="10.00" fill="#000000">+ ~ImFontAtlas()</text>
<text text-anchor="start" x="711.5" y="-916.5" font-family="Helvetica,sans-Serif" font-size="10.00" fill="#000000">+ AddFont()</text>
<text text-anchor="start" x="711.5" y="-905.5" font-family="Helvetica,sans-Serif" font-size="10.00" fill="#000000">+ AddFontDefault()</text>
<text text-anchor="start" x="711.5" y="-894.5" font-family="Helvetica,sans-Serif" font-size="10.00" fill="#000000">+ AddFontFromFileTTF()</text>
<text text-anchor="start" x="711.5" y="-883.5" font-family="Helvetica,sans-Serif" font-size="10.00" fill="#000000">+ AddFontFromMemoryTTF()</text>
<text text-anchor="start" x="711.5" y="-872.5" font-family="Helvetica,sans-Serif" font-size="10.00" fill="#000000">+ AddFontFromMemoryCompressedTTF()</text>
<text text-anchor="start" x="711.5" y="-861.5" font-family="Helvetica,sans-Serif" font-size="10.00" fill="#000000">+ AddFontFromMemoryCompressed</text>
<text text-anchor="start" x="711.5" y="-850.5" font-family="Helvetica,sans-Serif" font-size="10.00" fill="#000000">Base85TTF()</text>
<text text-anchor="start" x="711.5" y="-839.5" font-family="Helvetica,sans-Serif" font-size="10.00" fill="#000000">+ ClearInputData()</text>
<text text-anchor="start" x="711.5" y="-828.5" font-family="Helvetica,sans-Serif" font-size="10.00" fill="#000000">+ ClearTexData()</text>
<text text-anchor="start" x="711.5" y="-817.5" font-family="Helvetica,sans-Serif" font-size="10.00" fill="#000000">and 21 more...</text>
</g>
<!-- Node7 -->
<g id="node7" class="node">
<title>Node7</title>
<g id="a_node7"><a xlink:href="structImFont.html" target="_top" xlink:title="{ImFont\n|+ FallbackAdvanceX\l+ FontSize\l+ ConfigDataCount\l+ FallbackChar\l+ EllipsisChar\l+ DotChar\l+ DirtyLookupTables\l+ Scale\l+ Ascent\l+ Descent\l+ MetricsTotalSurface\l+ Used4kPagesMap\l|+ ImFont()\l+ ~ImFont()\l+ FindGlyph()\l+ FindGlyphNoFallback()\l+ GetCharAdvance()\l+ IsLoaded()\l+ GetDebugName()\l+ CalcTextSizeA()\l+ CalcWordWrapPositionA()\l+ RenderChar()\land 8 more...\l}">
<polygon fill="none" stroke="#000000" points="340.5,-463.5 340.5,-751.5 480.5,-751.5 480.5,-463.5 340.5,-463.5"/>
<text text-anchor="middle" x="410.5" y="-739.5" font-family="Helvetica,sans-Serif" font-size="10.00" fill="#000000">ImFont</text>
<polyline fill="none" stroke="#000000" points="340.5,-732.5 480.5,-732.5 "/>
<text text-anchor="start" x="348.5" y="-720.5" font-family="Helvetica,sans-Serif" font-size="10.00" fill="#000000">+ FallbackAdvanceX</text>
<text text-anchor="start" x="348.5" y="-709.5" font-family="Helvetica,sans-Serif" font-size="10.00" fill="#000000">+ FontSize</text>
<text text-anchor="start" x="348.5" y="-698.5" font-family="Helvetica,sans-Serif" font-size="10.00" fill="#000000">+ ConfigDataCount</text>
<text text-anchor="start" x="348.5" y="-687.5" font-family="Helvetica,sans-Serif" font-size="10.00" fill="#000000">+ FallbackChar</text>
<text text-anchor="start" x="348.5" y="-676.5" font-family="Helvetica,sans-Serif" font-size="10.00" fill="#000000">+ EllipsisChar</text>
<text text-anchor="start" x="348.5" y="-665.5" font-family="Helvetica,sans-Serif" font-size="10.00" fill="#000000">+ DotChar</text>
<text text-anchor="start" x="348.5" y="-654.5" font-family="Helvetica,sans-Serif" font-size="10.00" fill="#000000">+ DirtyLookupTables</text>
<text text-anchor="start" x="348.5" y="-643.5" font-family="Helvetica,sans-Serif" font-size="10.00" fill="#000000">+ Scale</text>
<text text-anchor="start" x="348.5" y="-632.5" font-family="Helvetica,sans-Serif" font-size="10.00" fill="#000000">+ Ascent</text>
<text text-anchor="start" x="348.5" y="-621.5" font-family="Helvetica,sans-Serif" font-size="10.00" fill="#000000">+ Descent</text>
<text text-anchor="start" x="348.5" y="-610.5" font-family="Helvetica,sans-Serif" font-size="10.00" fill="#000000">+ MetricsTotalSurface</text>
<text text-anchor="start" x="348.5" y="-599.5" font-family="Helvetica,sans-Serif" font-size="10.00" fill="#000000">+ Used4kPagesMap</text>
<polyline fill="none" stroke="#000000" points="340.5,-592.5 480.5,-592.5 "/>
<text text-anchor="start" x="348.5" y="-580.5" font-family="Helvetica,sans-Serif" font-size="10.00" fill="#000000">+ ImFont()</text>
<text text-anchor="start" x="348.5" y="-569.5" font-family="Helvetica,sans-Serif" font-size="10.00" fill="#000000">+ ~ImFont()</text>
<text text-anchor="start" x="348.5" y="-558.5" font-family="Helvetica,sans-Serif" font-size="10.00" fill="#000000">+ FindGlyph()</text>
<text text-anchor="start" x="348.5" y="-547.5" font-family="Helvetica,sans-Serif" font-size="10.00" fill="#000000">+ FindGlyphNoFallback()</text>
<text text-anchor="start" x="348.5" y="-536.5" font-family="Helvetica,sans-Serif" font-size="10.00" fill="#000000">+ GetCharAdvance()</text>
<text text-anchor="start" x="348.5" y="-525.5" font-family="Helvetica,sans-Serif" font-size="10.00" fill="#000000">+ IsLoaded()</text>
<text text-anchor="start" x="348.5" y="-514.5" font-family="Helvetica,sans-Serif" font-size="10.00" fill="#000000">+ GetDebugName()</text>
<text text-anchor="start" x="348.5" y="-503.5" font-family="Helvetica,sans-Serif" font-size="10.00" fill="#000000">+ CalcTextSizeA()</text>
<text text-anchor="start" x="348.5" y="-492.5" font-family="Helvetica,sans-Serif" font-size="10.00" fill="#000000">+ CalcWordWrapPositionA()</text>
<text text-anchor="start" x="348.5" y="-481.5" font-family="Helvetica,sans-Serif" font-size="10.00" fill="#000000">+ RenderChar()</text>
<text text-anchor="start" x="348.5" y="-470.5" font-family="Helvetica,sans-Serif" font-size="10.00" fill="#000000">and 8 more...</text>
</a>
</g>
</g>
<!-- Node1&#45;&gt;Node7 -->
<g id="edge12" class="edge">
<title>Node1&#45;&gt;Node7</title>
<path fill="none" stroke="#404040" d="M703.3166,-918.0133C641.3499,-885.7665 559.8878,-844.318 486.5,-810 468.1033,-801.3973 457.1761,-807.8669 444.5,-792 437.4831,-783.2168 431.7403,-773.4482 427.0555,-763.1194"/>
<polygon fill="none" stroke="#404040" points="426.9305,-762.8145 420.9529,-758.7811 422.3771,-751.712 428.3547,-755.7455 426.9305,-762.8145"/>
<text text-anchor="middle" x="481.5" y="-778.5" font-family="Helvetica,sans-Serif" font-size="10.00" fill="#000000"> +ContainerAtlas</text>
</g>
<!-- Node2 -->
<g id="node2" class="node">
<title>Node2</title>
<g id="a_node2"><a xlink:href="structImFontBuilderIO.html" target="_top" xlink:title="{ImFontBuilderIO\n|+ FontBuilder_Build\l|}">
<polygon fill="none" stroke="#000000" points="855.5,-1251 855.5,-1308 957.5,-1308 957.5,-1251 855.5,-1251"/>
<text text-anchor="middle" x="906.5" y="-1296" font-family="Helvetica,sans-Serif" font-size="10.00" fill="#000000">ImFontBuilderIO</text>
<polyline fill="none" stroke="#000000" points="855.5,-1289 957.5,-1289 "/>
<text text-anchor="start" x="863.5" y="-1277" font-family="Helvetica,sans-Serif" font-size="10.00" fill="#000000">+ FontBuilder_Build</text>
<polyline fill="none" stroke="#000000" points="855.5,-1270 957.5,-1270 "/>
<text text-anchor="middle" x="906.5" y="-1258" font-family="Helvetica,sans-Serif" font-size="10.00" fill="#000000"> </text>
</a>
</g>
</g>
<!-- Node2&#45;&gt;Node1 -->
<g id="edge1" class="edge">
<title>Node2&#45;&gt;Node1</title>
<path fill="none" stroke="#404040" d="M899.338,-1250.9941C892.5301,-1224.6126 881.694,-1184.3938 870.5,-1150 869.7683,-1147.7519 869.0254,-1145.4902 868.2726,-1143.2175"/>
<polygon fill="none" stroke="#404040" points="868.2499,-1143.1498 862.5483,-1138.7349 864.4307,-1131.7738 870.1323,-1136.1887 868.2499,-1143.1498"/>
<text text-anchor="middle" x="911.5" y="-1158.5" font-family="Helvetica,sans-Serif" font-size="10.00" fill="#000000"> +FontBuilderIO</text>
</g>
<!-- Node3 -->
<g id="node3" class="node">
<title>Node3</title>
<g id="a_node3"><a xlink:href="structImVec2.html" target="_top" xlink:title="{ImVec2\n|+ x\l+ y\l|+ ImVec2()\l+ ImVec2()\l+ operator[]()\l+ operator[]()\l}">
<polygon fill="none" stroke="#000000" points="626,-1229 626,-1330 699,-1330 699,-1229 626,-1229"/>
<text text-anchor="middle" x="662.5" y="-1318" font-family="Helvetica,sans-Serif" font-size="10.00" fill="#000000">ImVec2</text>
<polyline fill="none" stroke="#000000" points="626,-1311 699,-1311 "/>
<text text-anchor="start" x="634" y="-1299" font-family="Helvetica,sans-Serif" font-size="10.00" fill="#000000">+ x</text>
<text text-anchor="start" x="634" y="-1288" font-family="Helvetica,sans-Serif" font-size="10.00" fill="#000000">+ y</text>
<polyline fill="none" stroke="#000000" points="626,-1281 699,-1281 "/>
<text text-anchor="start" x="634" y="-1269" font-family="Helvetica,sans-Serif" font-size="10.00" fill="#000000">+ ImVec2()</text>
<text text-anchor="start" x="634" y="-1258" font-family="Helvetica,sans-Serif" font-size="10.00" fill="#000000">+ ImVec2()</text>
<text text-anchor="start" x="634" y="-1247" font-family="Helvetica,sans-Serif" font-size="10.00" fill="#000000">+ operator[]()</text>
<text text-anchor="start" x="634" y="-1236" font-family="Helvetica,sans-Serif" font-size="10.00" fill="#000000">+ operator[]()</text>
</a>
</g>
</g>
<!-- Node3&#45;&gt;Node1 -->
<g id="edge2" class="edge">
<title>Node3&#45;&gt;Node1</title>
<path fill="none" stroke="#404040" d="M681.7047,-1228.9889C691.1424,-1204.8859 702.9491,-1175.7532 714.5,-1150 715.5541,-1147.6498 716.622,-1145.2853 717.7018,-1142.9095"/>
<polygon fill="none" stroke="#404040" points="717.8322,-1142.6251 716.6988,-1135.5036 722.8366,-1131.7183 723.97,-1138.8398 717.8322,-1142.6251"/>
<text text-anchor="middle" x="757.5" y="-1164" font-family="Helvetica,sans-Serif" font-size="10.00" fill="#000000"> +TexUvWhitePixel</text>
<text text-anchor="middle" x="757.5" y="-1153" font-family="Helvetica,sans-Serif" font-size="10.00" fill="#000000">+TexUvScale</text>
</g>
<!-- Node6 -->
<g id="node6" class="node">
<title>Node6</title>
<g id="a_node6"><a xlink:href="structImFontConfig.html" target="_top" xlink:title="{ImFontConfig\n|+ FontData\l+ FontDataSize\l+ FontDataOwnedByAtlas\l+ FontNo\l+ SizePixels\l+ OversampleH\l+ OversampleV\l+ PixelSnapH\l+ GlyphRanges\l+ GlyphMinAdvanceX\land 6 more...\l|+ ImFontConfig()\l}">
<polygon fill="none" stroke="#000000" points="358,-243 358,-410 489,-410 489,-243 358,-243"/>
<text text-anchor="middle" x="423.5" y="-398" font-family="Helvetica,sans-Serif" font-size="10.00" fill="#000000">ImFontConfig</text>
<polyline fill="none" stroke="#000000" points="358,-391 489,-391 "/>
<text text-anchor="start" x="366" y="-379" font-family="Helvetica,sans-Serif" font-size="10.00" fill="#000000">+ FontData</text>
<text text-anchor="start" x="366" y="-368" font-family="Helvetica,sans-Serif" font-size="10.00" fill="#000000">+ FontDataSize</text>
<text text-anchor="start" x="366" y="-357" font-family="Helvetica,sans-Serif" font-size="10.00" fill="#000000">+ FontDataOwnedByAtlas</text>
<text text-anchor="start" x="366" y="-346" font-family="Helvetica,sans-Serif" font-size="10.00" fill="#000000">+ FontNo</text>
<text text-anchor="start" x="366" y="-335" font-family="Helvetica,sans-Serif" font-size="10.00" fill="#000000">+ SizePixels</text>
<text text-anchor="start" x="366" y="-324" font-family="Helvetica,sans-Serif" font-size="10.00" fill="#000000">+ OversampleH</text>
<text text-anchor="start" x="366" y="-313" font-family="Helvetica,sans-Serif" font-size="10.00" fill="#000000">+ OversampleV</text>
<text text-anchor="start" x="366" y="-302" font-family="Helvetica,sans-Serif" font-size="10.00" fill="#000000">+ PixelSnapH</text>
<text text-anchor="start" x="366" y="-291" font-family="Helvetica,sans-Serif" font-size="10.00" fill="#000000">+ GlyphRanges</text>
<text text-anchor="start" x="366" y="-280" font-family="Helvetica,sans-Serif" font-size="10.00" fill="#000000">+ GlyphMinAdvanceX</text>
<text text-anchor="start" x="366" y="-269" font-family="Helvetica,sans-Serif" font-size="10.00" fill="#000000">and 6 more...</text>
<polyline fill="none" stroke="#000000" points="358,-262 489,-262 "/>
<text text-anchor="start" x="366" y="-250" font-family="Helvetica,sans-Serif" font-size="10.00" fill="#000000">+ ImFontConfig()</text>
</a>
</g>
</g>
<!-- Node3&#45;&gt;Node6 -->
<g id="edge6" class="edge">
<title>Node3&#45;&gt;Node6</title>
<path fill="none" stroke="#404040" d="M655.5986,-1228.8217C637.1163,-1099.108 581.5595,-745.4204 489.5,-463 484.9941,-449.1767 479.3601,-434.964 473.2946,-421.1735"/>
<polygon fill="none" stroke="#404040" points="473.2874,-421.1575 467.1733,-417.3342 468.351,-410.2198 474.4651,-414.0432 473.2874,-421.1575"/>
<text text-anchor="middle" x="622" y="-784" font-family="Helvetica,sans-Serif" font-size="10.00" fill="#000000"> +GlyphOffset</text>
<text text-anchor="middle" x="622" y="-773" font-family="Helvetica,sans-Serif" font-size="10.00" fill="#000000">+GlyphExtraSpacing</text>
</g>
<!-- Node14 -->
<g id="node14" class="node">
<title>Node14</title>
<g id="a_node14"><a xlink:href="structImFontAtlasCustomRect.html" target="_top" xlink:title="{ImFontAtlasCustomRect\n|+ Width\l+ Height\l+ X\l+ Y\l+ GlyphID\l+ GlyphAdvanceX\l|+ ImFontAtlasCustomRect()\l+ IsPacked()\l}">
<polygon fill="none" stroke="#000000" points="507.5,-265 507.5,-388 647.5,-388 647.5,-265 507.5,-265"/>
<text text-anchor="middle" x="577.5" y="-376" font-family="Helvetica,sans-Serif" font-size="10.00" fill="#000000">ImFontAtlasCustomRect</text>
<polyline fill="none" stroke="#000000" points="507.5,-369 647.5,-369 "/>
<text text-anchor="start" x="515.5" y="-357" font-family="Helvetica,sans-Serif" font-size="10.00" fill="#000000">+ Width</text>
<text text-anchor="start" x="515.5" y="-346" font-family="Helvetica,sans-Serif" font-size="10.00" fill="#000000">+ Height</text>
<text text-anchor="start" x="515.5" y="-335" font-family="Helvetica,sans-Serif" font-size="10.00" fill="#000000">+ X</text>
<text text-anchor="start" x="515.5" y="-324" font-family="Helvetica,sans-Serif" font-size="10.00" fill="#000000">+ Y</text>
<text text-anchor="start" x="515.5" y="-313" font-family="Helvetica,sans-Serif" font-size="10.00" fill="#000000">+ GlyphID</text>
<text text-anchor="start" x="515.5" y="-302" font-family="Helvetica,sans-Serif" font-size="10.00" fill="#000000">+ GlyphAdvanceX</text>
<polyline fill="none" stroke="#000000" points="507.5,-295 647.5,-295 "/>
<text text-anchor="start" x="515.5" y="-283" font-family="Helvetica,sans-Serif" font-size="10.00" fill="#000000">+ ImFontAtlasCustomRect()</text>
<text text-anchor="start" x="515.5" y="-272" font-family="Helvetica,sans-Serif" font-size="10.00" fill="#000000">+ IsPacked()</text>
</a>
</g>
</g>
<!-- Node3&#45;&gt;Node14 -->
<g id="edge19" class="edge">
<title>Node3&#45;&gt;Node14</title>
<path fill="none" stroke="#404040" d="M665.3454,-1228.8719C673.6955,-1070.0663 694.7509,-583.4495 648.5,-434 644.7919,-422.018 639.3014,-410.1271 632.9873,-398.8622"/>
<polygon fill="none" stroke="#404040" points="632.8292,-398.5953 626.3295,-395.4722 626.7126,-388.2712 633.2123,-391.3944 632.8292,-398.5953"/>
<text text-anchor="middle" x="708.5" y="-778.5" font-family="Helvetica,sans-Serif" font-size="10.00" fill="#000000"> +GlyphOffset</text>
</g>
<!-- Node4 -->
<g id="node4" class="node">
<title>Node4</title>
<g id="a_node4"><a xlink:href="structImVec4.html" target="_top" xlink:title="{ImVec4\n|+ x\l+ y\l+ z\l+ w\l|+ ImVec4()\l+ ImVec4()\l}">
<polygon fill="none" stroke="#000000" points="772,-1229 772,-1330 837,-1330 837,-1229 772,-1229"/>
<text text-anchor="middle" x="804.5" y="-1318" font-family="Helvetica,sans-Serif" font-size="10.00" fill="#000000">ImVec4</text>
<polyline fill="none" stroke="#000000" points="772,-1311 837,-1311 "/>
<text text-anchor="start" x="780" y="-1299" font-family="Helvetica,sans-Serif" font-size="10.00" fill="#000000">+ x</text>
<text text-anchor="start" x="780" y="-1288" font-family="Helvetica,sans-Serif" font-size="10.00" fill="#000000">+ y</text>
<text text-anchor="start" x="780" y="-1277" font-family="Helvetica,sans-Serif" font-size="10.00" fill="#000000">+ z</text>
<text text-anchor="start" x="780" y="-1266" font-family="Helvetica,sans-Serif" font-size="10.00" fill="#000000">+ w</text>
<polyline fill="none" stroke="#000000" points="772,-1259 837,-1259 "/>
<text text-anchor="start" x="780" y="-1247" font-family="Helvetica,sans-Serif" font-size="10.00" fill="#000000">+ ImVec4()</text>
<text text-anchor="start" x="780" y="-1236" font-family="Helvetica,sans-Serif" font-size="10.00" fill="#000000">+ ImVec4()</text>
</a>
</g>
</g>
<!-- Node4&#45;&gt;Node1 -->
<g id="edge3" class="edge">
<title>Node4&#45;&gt;Node1</title>
<path fill="none" stroke="#404040" d="M804.336,-1228.903C804.2587,-1205.0597 804.1615,-1175.0665 804.0609,-1144.044"/>
<polygon fill="none" stroke="#404040" points="804.0597,-1143.6473 800.0403,-1137.6604 804.0207,-1131.6474 808.0402,-1137.6344 804.0597,-1143.6473"/>
<text text-anchor="middle" x="835.5" y="-1158.5" font-family="Helvetica,sans-Serif" font-size="10.00" fill="#000000"> +TexUvLines</text>
</g>
<!-- Node5 -->
<g id="node5" class="node">
<title>Node5</title>
<g id="a_node5"><a xlink:href="structImVector.html" target="_top" xlink:title="{ImVector\&lt; ImFontConfig \&gt;\n|+ Size\l+ Capacity\l|+ ImVector()\l+ ImVector()\l+ operator=()\l+ ~ImVector()\l+ clear()\l+ clear_delete()\l+ clear_destruct()\l+ empty()\l+ size()\l+ size_in_bytes()\land 32 more...\l}">
<polygon fill="none" stroke="#000000" points="519.5,-6 519.5,-184 653.5,-184 653.5,-6 519.5,-6"/>
<text text-anchor="middle" x="586.5" y="-172" font-family="Helvetica,sans-Serif" font-size="10.00" fill="#000000">ImVector&lt; ImFontConfig &gt;</text>
<polyline fill="none" stroke="#000000" points="519.5,-165 653.5,-165 "/>
<text text-anchor="start" x="527.5" y="-153" font-family="Helvetica,sans-Serif" font-size="10.00" fill="#000000">+ Size</text>
<text text-anchor="start" x="527.5" y="-142" font-family="Helvetica,sans-Serif" font-size="10.00" fill="#000000">+ Capacity</text>
<polyline fill="none" stroke="#000000" points="519.5,-135 653.5,-135 "/>
<text text-anchor="start" x="527.5" y="-123" font-family="Helvetica,sans-Serif" font-size="10.00" fill="#000000">+ ImVector()</text>
<text text-anchor="start" x="527.5" y="-112" font-family="Helvetica,sans-Serif" font-size="10.00" fill="#000000">+ ImVector()</text>
<text text-anchor="start" x="527.5" y="-101" font-family="Helvetica,sans-Serif" font-size="10.00" fill="#000000">+ operator=()</text>
<text text-anchor="start" x="527.5" y="-90" font-family="Helvetica,sans-Serif" font-size="10.00" fill="#000000">+ ~ImVector()</text>
<text text-anchor="start" x="527.5" y="-79" font-family="Helvetica,sans-Serif" font-size="10.00" fill="#000000">+ clear()</text>
<text text-anchor="start" x="527.5" y="-68" font-family="Helvetica,sans-Serif" font-size="10.00" fill="#000000">+ clear_delete()</text>
<text text-anchor="start" x="527.5" y="-57" font-family="Helvetica,sans-Serif" font-size="10.00" fill="#000000">+ clear_destruct()</text>
<text text-anchor="start" x="527.5" y="-46" font-family="Helvetica,sans-Serif" font-size="10.00" fill="#000000">+ empty()</text>
<text text-anchor="start" x="527.5" y="-35" font-family="Helvetica,sans-Serif" font-size="10.00" fill="#000000">+ size()</text>
<text text-anchor="start" x="527.5" y="-24" font-family="Helvetica,sans-Serif" font-size="10.00" fill="#000000">+ size_in_bytes()</text>
<text text-anchor="start" x="527.5" y="-13" font-family="Helvetica,sans-Serif" font-size="10.00" fill="#000000">and 32 more...</text>
</a>
</g>
</g>
<!-- Node5&#45;&gt;Node1 -->
<g id="edge4" class="edge">
<title>Node5&#45;&gt;Node1</title>
<path fill="none" stroke="#404040" d="M653.6973,-123.6606C699.1598,-146.9849 755.7929,-184.6442 783.5,-237 796.4139,-261.4023 801.0087,-588.9911 802.6298,-798.1937"/>
<polygon fill="none" stroke="#404040" points="802.6301,-798.2406 806.6754,-804.2102 802.7209,-810.2403 798.6756,-804.2707 802.6301,-798.2406"/>
<text text-anchor="middle" x="827" y="-437" font-family="Helvetica,sans-Serif" font-size="10.00" fill="#000000"> +ConfigData</text>
</g>
<!-- Node6&#45;&gt;Node5 -->
<g id="edge5" class="edge">
<title>Node6&#45;&gt;Node5</title>
<path fill="none" stroke="#404040" d="M482.3467,-242.9232C493.4477,-227.1571 505.1578,-210.5259 516.5598,-194.3323"/>
<polygon fill="none" stroke="#404040" points="516.7025,-194.1295 516.8862,-186.9207 523.6111,-184.3177 523.4274,-191.5264 516.7025,-194.1295"/>
<text text-anchor="middle" x="521" y="-211" font-family="Helvetica,sans-Serif" font-size="10.00" fill="#000000"> +Data</text>
</g>
<!-- Node6&#45;&gt;Node7 -->
<g id="edge10" class="edge">
<title>Node6&#45;&gt;Node7</title>
<path fill="none" stroke="#404040" d="M371.6498,-410.1919C368.3778,-418.0367 365.572,-426.0364 363.5,-434 362.069,-439.5 361.0795,-445.0955 360.4758,-450.745"/>
<polygon fill="none" stroke="#404040" points="360.4491,-451.2037 364.0922,-457.4268 359.749,-463.1832 356.1059,-456.9601 360.4491,-451.2037"/>
<text text-anchor="middle" x="393" y="-437" font-family="Helvetica,sans-Serif" font-size="10.00" fill="#000000"> +ConfigData</text>
</g>
<!-- Node7&#45;&gt;Node6 -->
<g id="edge7" class="edge">
<title>Node7&#45;&gt;Node6</title>
<path fill="none" stroke="#404040" d="M426.1395,-463.2157C426.4909,-453.3374 426.6329,-443.5276 426.5,-434 426.446,-430.1263 426.381,-426.1742 426.3072,-422.182"/>
<polygon fill="none" stroke="#404040" points="426.306,-422.1207 422.1845,-416.2035 426.0614,-410.1232 430.1829,-416.0404 426.306,-422.1207"/>
<text text-anchor="middle" x="450" y="-437" font-family="Helvetica,sans-Serif" font-size="10.00" fill="#000000"> +DstFont</text>
</g>
<!-- Node12 -->
<g id="node12" class="node">
<title>Node12</title>
<g id="a_node12"><a xlink:href="structImVector.html" target="_top" xlink:title="{ImVector\&lt; ImFont *\&gt;\n|+ Size\l+ Capacity\l|+ ImVector()\l+ ImVector()\l+ operator=()\l+ ~ImVector()\l+ clear()\l+ clear_delete()\l+ clear_destruct()\l+ empty()\l+ size()\l+ size_in_bytes()\land 32 more...\l}">
<polygon fill="none" stroke="#000000" points="666,-237.5 666,-415.5 775,-415.5 775,-237.5 666,-237.5"/>
<text text-anchor="middle" x="720.5" y="-403.5" font-family="Helvetica,sans-Serif" font-size="10.00" fill="#000000">ImVector&lt; ImFont *&gt;</text>
<polyline fill="none" stroke="#000000" points="666,-396.5 775,-396.5 "/>
<text text-anchor="start" x="674" y="-384.5" font-family="Helvetica,sans-Serif" font-size="10.00" fill="#000000">+ Size</text>
<text text-anchor="start" x="674" y="-373.5" font-family="Helvetica,sans-Serif" font-size="10.00" fill="#000000">+ Capacity</text>
<polyline fill="none" stroke="#000000" points="666,-366.5 775,-366.5 "/>
<text text-anchor="start" x="674" y="-354.5" font-family="Helvetica,sans-Serif" font-size="10.00" fill="#000000">+ ImVector()</text>
<text text-anchor="start" x="674" y="-343.5" font-family="Helvetica,sans-Serif" font-size="10.00" fill="#000000">+ ImVector()</text>
<text text-anchor="start" x="674" y="-332.5" font-family="Helvetica,sans-Serif" font-size="10.00" fill="#000000">+ operator=()</text>
<text text-anchor="start" x="674" y="-321.5" font-family="Helvetica,sans-Serif" font-size="10.00" fill="#000000">+ ~ImVector()</text>
<text text-anchor="start" x="674" y="-310.5" font-family="Helvetica,sans-Serif" font-size="10.00" fill="#000000">+ clear()</text>
<text text-anchor="start" x="674" y="-299.5" font-family="Helvetica,sans-Serif" font-size="10.00" fill="#000000">+ clear_delete()</text>
<text text-anchor="start" x="674" y="-288.5" font-family="Helvetica,sans-Serif" font-size="10.00" fill="#000000">+ clear_destruct()</text>
<text text-anchor="start" x="674" y="-277.5" font-family="Helvetica,sans-Serif" font-size="10.00" fill="#000000">+ empty()</text>
<text text-anchor="start" x="674" y="-266.5" font-family="Helvetica,sans-Serif" font-size="10.00" fill="#000000">+ size()</text>
<text text-anchor="start" x="674" y="-255.5" font-family="Helvetica,sans-Serif" font-size="10.00" fill="#000000">+ size_in_bytes()</text>
<text text-anchor="start" x="674" y="-244.5" font-family="Helvetica,sans-Serif" font-size="10.00" fill="#000000">and 32 more...</text>
</a>
</g>
</g>
<!-- Node7&#45;&gt;Node12 -->
<g id="edge16" class="edge">
<title>Node7&#45;&gt;Node12</title>
<path fill="none" stroke="#404040" d="M480.646,-561.1373C532.4201,-525.0401 602.8971,-471.8294 656.5,-416 656.8969,-415.5866 657.2933,-415.1706 657.6891,-414.7522"/>
<polygon fill="none" stroke="#404040" points="657.8696,-414.552 658.9165,-407.4173 665.9051,-405.6396 664.8582,-412.7743 657.8696,-414.552"/>
<text text-anchor="middle" x="649" y="-437" font-family="Helvetica,sans-Serif" font-size="10.00" fill="#000000"> +Data</text>
</g>
<!-- Node7&#45;&gt;Node14 -->
<g id="edge20" class="edge">
<title>Node7&#45;&gt;Node14</title>
<path fill="none" stroke="#404040" d="M480.5972,-489.5521C498.9597,-458.6546 518.2102,-426.2631 534.6706,-398.5662"/>
<polygon fill="none" stroke="#404040" points="534.7042,-398.5095 534.331,-391.3081 540.835,-388.1938 541.2082,-395.3953 534.7042,-398.5095"/>
<text text-anchor="middle" x="524" y="-437" font-family="Helvetica,sans-Serif" font-size="10.00" fill="#000000"> +Font</text>
</g>
<!-- Node8 -->
<g id="node8" class="node">
<title>Node8</title>
<g id="a_node8"><a xlink:href="structImVector.html" target="_top" xlink:title="{ImVector\&lt; ImFontGlyph \&gt;\n|+ Size\l+ Capacity\l|+ ImVector()\l+ ImVector()\l+ operator=()\l+ ~ImVector()\l+ clear()\l+ clear_delete()\l+ clear_destruct()\l+ empty()\l+ size()\l+ size_in_bytes()\land 32 more...\l}">
<polygon fill="none" stroke="#000000" points="0,-882 0,-1060 131,-1060 131,-882 0,-882"/>
<text text-anchor="middle" x="65.5" y="-1048" font-family="Helvetica,sans-Serif" font-size="10.00" fill="#000000">ImVector&lt; ImFontGlyph &gt;</text>
<polyline fill="none" stroke="#000000" points="0,-1041 131,-1041 "/>
<text text-anchor="start" x="8" y="-1029" font-family="Helvetica,sans-Serif" font-size="10.00" fill="#000000">+ Size</text>
<text text-anchor="start" x="8" y="-1018" font-family="Helvetica,sans-Serif" font-size="10.00" fill="#000000">+ Capacity</text>
<polyline fill="none" stroke="#000000" points="0,-1011 131,-1011 "/>
<text text-anchor="start" x="8" y="-999" font-family="Helvetica,sans-Serif" font-size="10.00" fill="#000000">+ ImVector()</text>
<text text-anchor="start" x="8" y="-988" font-family="Helvetica,sans-Serif" font-size="10.00" fill="#000000">+ ImVector()</text>
<text text-anchor="start" x="8" y="-977" font-family="Helvetica,sans-Serif" font-size="10.00" fill="#000000">+ operator=()</text>
<text text-anchor="start" x="8" y="-966" font-family="Helvetica,sans-Serif" font-size="10.00" fill="#000000">+ ~ImVector()</text>
<text text-anchor="start" x="8" y="-955" font-family="Helvetica,sans-Serif" font-size="10.00" fill="#000000">+ clear()</text>
<text text-anchor="start" x="8" y="-944" font-family="Helvetica,sans-Serif" font-size="10.00" fill="#000000">+ clear_delete()</text>
<text text-anchor="start" x="8" y="-933" font-family="Helvetica,sans-Serif" font-size="10.00" fill="#000000">+ clear_destruct()</text>
<text text-anchor="start" x="8" y="-922" font-family="Helvetica,sans-Serif" font-size="10.00" fill="#000000">+ empty()</text>
<text text-anchor="start" x="8" y="-911" font-family="Helvetica,sans-Serif" font-size="10.00" fill="#000000">+ size()</text>
<text text-anchor="start" x="8" y="-900" font-family="Helvetica,sans-Serif" font-size="10.00" fill="#000000">+ size_in_bytes()</text>
<text text-anchor="start" x="8" y="-889" font-family="Helvetica,sans-Serif" font-size="10.00" fill="#000000">and 32 more...</text>
</a>
</g>
</g>
<!-- Node8&#45;&gt;Node7 -->
<g id="edge8" class="edge">
<title>Node8&#45;&gt;Node7</title>
<path fill="none" stroke="#404040" d="M97.4181,-881.8643C108.5814,-857.2042 122.6309,-831.3687 139.5,-810 191.7688,-743.7892 270.6895,-688.1321 329.9041,-652.0274"/>
<polygon fill="none" stroke="#404040" points="330.0675,-651.9291 333.1434,-645.4068 340.3469,-645.7375 337.271,-652.2598 330.0675,-651.9291"/>
<text text-anchor="middle" x="190.5" y="-778.5" font-family="Helvetica,sans-Serif" font-size="10.00" fill="#000000"> +Glyphs</text>
</g>
<!-- Node9 -->
<g id="node9" class="node">
<title>Node9</title>
<g id="a_node9"><a xlink:href="structImFontGlyph.html" target="_top" xlink:title="{ImFontGlyph\n|+ Colored\l+ Visible\l+ Codepoint\l+ AdvanceX\l+ X0\l+ Y0\l+ X1\l+ Y1\l+ U0\l+ V0\l+ U1\l+ V1\l|}">
<polygon fill="none" stroke="#000000" points="277,-1190.5 277,-1368.5 350,-1368.5 350,-1190.5 277,-1190.5"/>
<text text-anchor="middle" x="313.5" y="-1356.5" font-family="Helvetica,sans-Serif" font-size="10.00" fill="#000000">ImFontGlyph</text>
<polyline fill="none" stroke="#000000" points="277,-1349.5 350,-1349.5 "/>
<text text-anchor="start" x="285" y="-1337.5" font-family="Helvetica,sans-Serif" font-size="10.00" fill="#000000">+ Colored</text>
<text text-anchor="start" x="285" y="-1326.5" font-family="Helvetica,sans-Serif" font-size="10.00" fill="#000000">+ Visible</text>
<text text-anchor="start" x="285" y="-1315.5" font-family="Helvetica,sans-Serif" font-size="10.00" fill="#000000">+ Codepoint</text>
<text text-anchor="start" x="285" y="-1304.5" font-family="Helvetica,sans-Serif" font-size="10.00" fill="#000000">+ AdvanceX</text>
<text text-anchor="start" x="285" y="-1293.5" font-family="Helvetica,sans-Serif" font-size="10.00" fill="#000000">+ X0</text>
<text text-anchor="start" x="285" y="-1282.5" font-family="Helvetica,sans-Serif" font-size="10.00" fill="#000000">+ Y0</text>
<text text-anchor="start" x="285" y="-1271.5" font-family="Helvetica,sans-Serif" font-size="10.00" fill="#000000">+ X1</text>
<text text-anchor="start" x="285" y="-1260.5" font-family="Helvetica,sans-Serif" font-size="10.00" fill="#000000">+ Y1</text>
<text text-anchor="start" x="285" y="-1249.5" font-family="Helvetica,sans-Serif" font-size="10.00" fill="#000000">+ U0</text>
<text text-anchor="start" x="285" y="-1238.5" font-family="Helvetica,sans-Serif" font-size="10.00" fill="#000000">+ V0</text>
<text text-anchor="start" x="285" y="-1227.5" font-family="Helvetica,sans-Serif" font-size="10.00" fill="#000000">+ U1</text>
<text text-anchor="start" x="285" y="-1216.5" font-family="Helvetica,sans-Serif" font-size="10.00" fill="#000000">+ V1</text>
<polyline fill="none" stroke="#000000" points="277,-1209.5 350,-1209.5 "/>
<text text-anchor="middle" x="313.5" y="-1197.5" font-family="Helvetica,sans-Serif" font-size="10.00" fill="#000000"> </text>
</a>
</g>
</g>
<!-- Node9&#45;&gt;Node7 -->
<g id="edge11" class="edge">
<title>Node9&#45;&gt;Node7</title>
<path fill="none" stroke="#404040" d="M350.0446,-1216.5673C363.0059,-1191.1417 376.1808,-1160.9945 383.5,-1132 414.0674,-1010.9088 419.6544,-869.2462 418.2416,-763.6904"/>
<polygon fill="none" stroke="#404040" points="418.241,-763.6488 414.145,-757.7139 418.048,-751.6503 422.144,-757.5852 418.241,-763.6488"/>
<text text-anchor="middle" x="454.5" y="-968.5" font-family="Helvetica,sans-Serif" font-size="10.00" fill="#000000"> +FallbackGlyph</text>
</g>
<!-- Node9&#45;&gt;Node8 -->
<g id="edge9" class="edge">
<title>Node9&#45;&gt;Node8</title>
<path fill="none" stroke="#404040" d="M276.7454,-1255.6024C238.3962,-1229.1563 178.5259,-1183.4177 139.5,-1132 125.5629,-1113.6375 113.4444,-1092.2296 103.274,-1071.1326"/>
<polygon fill="none" stroke="#404040" points="103.2193,-1071.0156 97.0535,-1067.2762 98.1338,-1060.1464 104.2996,-1063.8858 103.2193,-1071.0156"/>
<text text-anchor="middle" x="188" y="-1158.5" font-family="Helvetica,sans-Serif" font-size="10.00" fill="#000000"> +Data</text>
</g>
<!-- Node10 -->
<g id="node10" class="node">
<title>Node10</title>
<g id="a_node10"><a xlink:href="structImVector.html" target="_top" xlink:title="{ImVector\&lt; float \&gt;\n|+ Size\l+ Capacity\l+ Data\l|+ ImVector()\l+ ImVector()\l+ operator=()\l+ ~ImVector()\l+ clear()\l+ clear_delete()\l+ clear_destruct()\l+ empty()\l+ size()\l+ size_in_bytes()\land 32 more...\l}">
<polygon fill="none" stroke="#000000" points="149,-876.5 149,-1065.5 242,-1065.5 242,-876.5 149,-876.5"/>
<text text-anchor="middle" x="195.5" y="-1053.5" font-family="Helvetica,sans-Serif" font-size="10.00" fill="#000000">ImVector&lt; float &gt;</text>
<polyline fill="none" stroke="#000000" points="149,-1046.5 242,-1046.5 "/>
<text text-anchor="start" x="157" y="-1034.5" font-family="Helvetica,sans-Serif" font-size="10.00" fill="#000000">+ Size</text>
<text text-anchor="start" x="157" y="-1023.5" font-family="Helvetica,sans-Serif" font-size="10.00" fill="#000000">+ Capacity</text>
<text text-anchor="start" x="157" y="-1012.5" font-family="Helvetica,sans-Serif" font-size="10.00" fill="#000000">+ Data</text>
<polyline fill="none" stroke="#000000" points="149,-1005.5 242,-1005.5 "/>
<text text-anchor="start" x="157" y="-993.5" font-family="Helvetica,sans-Serif" font-size="10.00" fill="#000000">+ ImVector()</text>
<text text-anchor="start" x="157" y="-982.5" font-family="Helvetica,sans-Serif" font-size="10.00" fill="#000000">+ ImVector()</text>
<text text-anchor="start" x="157" y="-971.5" font-family="Helvetica,sans-Serif" font-size="10.00" fill="#000000">+ operator=()</text>
<text text-anchor="start" x="157" y="-960.5" font-family="Helvetica,sans-Serif" font-size="10.00" fill="#000000">+ ~ImVector()</text>
<text text-anchor="start" x="157" y="-949.5" font-family="Helvetica,sans-Serif" font-size="10.00" fill="#000000">+ clear()</text>
<text text-anchor="start" x="157" y="-938.5" font-family="Helvetica,sans-Serif" font-size="10.00" fill="#000000">+ clear_delete()</text>
<text text-anchor="start" x="157" y="-927.5" font-family="Helvetica,sans-Serif" font-size="10.00" fill="#000000">+ clear_destruct()</text>
<text text-anchor="start" x="157" y="-916.5" font-family="Helvetica,sans-Serif" font-size="10.00" fill="#000000">+ empty()</text>
<text text-anchor="start" x="157" y="-905.5" font-family="Helvetica,sans-Serif" font-size="10.00" fill="#000000">+ size()</text>
<text text-anchor="start" x="157" y="-894.5" font-family="Helvetica,sans-Serif" font-size="10.00" fill="#000000">+ size_in_bytes()</text>
<text text-anchor="start" x="157" y="-883.5" font-family="Helvetica,sans-Serif" font-size="10.00" fill="#000000">and 32 more...</text>
</a>
</g>
</g>
<!-- Node10&#45;&gt;Node7 -->
<g id="edge13" class="edge">
<title>Node10&#45;&gt;Node7</title>
<path fill="none" stroke="#404040" d="M207.3668,-876.39C214.5765,-841.3438 226.1065,-802.3056 244.5,-770 266.3847,-731.5626 299.9853,-696.2345 331.2466,-668.4062"/>
<polygon fill="none" stroke="#404040" points="331.3859,-668.2845 333.2722,-661.3245 340.4224,-660.3887 338.5361,-667.3488 331.3859,-668.2845"/>
<text text-anchor="middle" x="284" y="-778.5" font-family="Helvetica,sans-Serif" font-size="10.00" fill="#000000"> +IndexAdvanceX</text>
</g>
<!-- Node11 -->
<g id="node11" class="node">
<title>Node11</title>
<g id="a_node11"><a xlink:href="structImVector.html" target="_top" xlink:title="{ImVector\&lt; ImWchar \&gt;\n|+ Size\l+ Capacity\l+ Data\l|+ ImVector()\l+ ImVector()\l+ operator=()\l+ ~ImVector()\l+ clear()\l+ clear_delete()\l+ clear_destruct()\l+ empty()\l+ size()\l+ size_in_bytes()\land 32 more...\l}">
<polygon fill="none" stroke="#000000" points="260.5,-876.5 260.5,-1065.5 374.5,-1065.5 374.5,-876.5 260.5,-876.5"/>
<text text-anchor="middle" x="317.5" y="-1053.5" font-family="Helvetica,sans-Serif" font-size="10.00" fill="#000000">ImVector&lt; ImWchar &gt;</text>
<polyline fill="none" stroke="#000000" points="260.5,-1046.5 374.5,-1046.5 "/>
<text text-anchor="start" x="268.5" y="-1034.5" font-family="Helvetica,sans-Serif" font-size="10.00" fill="#000000">+ Size</text>
<text text-anchor="start" x="268.5" y="-1023.5" font-family="Helvetica,sans-Serif" font-size="10.00" fill="#000000">+ Capacity</text>
<text text-anchor="start" x="268.5" y="-1012.5" font-family="Helvetica,sans-Serif" font-size="10.00" fill="#000000">+ Data</text>
<polyline fill="none" stroke="#000000" points="260.5,-1005.5 374.5,-1005.5 "/>
<text text-anchor="start" x="268.5" y="-993.5" font-family="Helvetica,sans-Serif" font-size="10.00" fill="#000000">+ ImVector()</text>
<text text-anchor="start" x="268.5" y="-982.5" font-family="Helvetica,sans-Serif" font-size="10.00" fill="#000000">+ ImVector()</text>
<text text-anchor="start" x="268.5" y="-971.5" font-family="Helvetica,sans-Serif" font-size="10.00" fill="#000000">+ operator=()</text>
<text text-anchor="start" x="268.5" y="-960.5" font-family="Helvetica,sans-Serif" font-size="10.00" fill="#000000">+ ~ImVector()</text>
<text text-anchor="start" x="268.5" y="-949.5" font-family="Helvetica,sans-Serif" font-size="10.00" fill="#000000">+ clear()</text>
<text text-anchor="start" x="268.5" y="-938.5" font-family="Helvetica,sans-Serif" font-size="10.00" fill="#000000">+ clear_delete()</text>
<text text-anchor="start" x="268.5" y="-927.5" font-family="Helvetica,sans-Serif" font-size="10.00" fill="#000000">+ clear_destruct()</text>
<text text-anchor="start" x="268.5" y="-916.5" font-family="Helvetica,sans-Serif" font-size="10.00" fill="#000000">+ empty()</text>
<text text-anchor="start" x="268.5" y="-905.5" font-family="Helvetica,sans-Serif" font-size="10.00" fill="#000000">+ size()</text>
<text text-anchor="start" x="268.5" y="-894.5" font-family="Helvetica,sans-Serif" font-size="10.00" fill="#000000">+ size_in_bytes()</text>
<text text-anchor="start" x="268.5" y="-883.5" font-family="Helvetica,sans-Serif" font-size="10.00" fill="#000000">and 32 more...</text>
</a>
</g>
</g>
<!-- Node11&#45;&gt;Node7 -->
<g id="edge14" class="edge">
<title>Node11&#45;&gt;Node7</title>
<path fill="none" stroke="#404040" d="M316.6667,-876.4587C318.3002,-842.4296 322.4049,-804.0489 331.5,-770 332.966,-764.5117 334.62,-758.9867 336.4279,-753.4577"/>
<polygon fill="none" stroke="#404040" points="336.4282,-753.4565 334.6053,-746.4796 340.3443,-742.1134 342.1673,-749.0903 336.4282,-753.4565"/>
<text text-anchor="middle" x="364" y="-778.5" font-family="Helvetica,sans-Serif" font-size="10.00" fill="#000000"> +IndexLookup</text>
</g>
<!-- Node12&#45;&gt;Node1 -->
<g id="edge15" class="edge">
<title>Node12&#45;&gt;Node1</title>
<path fill="none" stroke="#404040" d="M724.3646,-415.7293C728.9232,-502.1013 738.1793,-636.5515 755.5,-752 757.7665,-767.1068 760.4661,-782.7288 763.4129,-798.3529"/>
<polygon fill="none" stroke="#404040" points="763.4429,-798.509 768.505,-803.6446 765.7114,-810.2926 760.6493,-805.157 763.4429,-798.509"/>
<text text-anchor="middle" x="772.5" y="-605" font-family="Helvetica,sans-Serif" font-size="10.00" fill="#000000"> +Fonts</text>
</g>
<!-- Node13 -->
<g id="node13" class="node">
<title>Node13</title>
<g id="a_node13"><a xlink:href="structImVector.html" target="_top" xlink:title="{ImVector\&lt; ImFontAtlasCustom\lRect \&gt;\n|+ Size\l+ Capacity\l|+ ImVector()\l+ ImVector()\l+ operator=()\l+ ~ImVector()\l+ clear()\l+ clear_delete()\l+ clear_destruct()\l+ empty()\l+ size()\l+ size_in_bytes()\land 32 more...\l}">
<polygon fill="none" stroke="#000000" points="772,-.5 772,-189.5 925,-189.5 925,-.5 772,-.5"/>
<text text-anchor="start" x="780" y="-177.5" font-family="Helvetica,sans-Serif" font-size="10.00" fill="#000000">ImVector&lt; ImFontAtlasCustom</text>
<text text-anchor="middle" x="848.5" y="-166.5" font-family="Helvetica,sans-Serif" font-size="10.00" fill="#000000">Rect &gt;</text>
<polyline fill="none" stroke="#000000" points="772,-159.5 925,-159.5 "/>
<text text-anchor="start" x="780" y="-147.5" font-family="Helvetica,sans-Serif" font-size="10.00" fill="#000000">+ Size</text>
<text text-anchor="start" x="780" y="-136.5" font-family="Helvetica,sans-Serif" font-size="10.00" fill="#000000">+ Capacity</text>
<polyline fill="none" stroke="#000000" points="772,-129.5 925,-129.5 "/>
<text text-anchor="start" x="780" y="-117.5" font-family="Helvetica,sans-Serif" font-size="10.00" fill="#000000">+ ImVector()</text>
<text text-anchor="start" x="780" y="-106.5" font-family="Helvetica,sans-Serif" font-size="10.00" fill="#000000">+ ImVector()</text>
<text text-anchor="start" x="780" y="-95.5" font-family="Helvetica,sans-Serif" font-size="10.00" fill="#000000">+ operator=()</text>
<text text-anchor="start" x="780" y="-84.5" font-family="Helvetica,sans-Serif" font-size="10.00" fill="#000000">+ ~ImVector()</text>
<text text-anchor="start" x="780" y="-73.5" font-family="Helvetica,sans-Serif" font-size="10.00" fill="#000000">+ clear()</text>
<text text-anchor="start" x="780" y="-62.5" font-family="Helvetica,sans-Serif" font-size="10.00" fill="#000000">+ clear_delete()</text>
<text text-anchor="start" x="780" y="-51.5" font-family="Helvetica,sans-Serif" font-size="10.00" fill="#000000">+ clear_destruct()</text>
<text text-anchor="start" x="780" y="-40.5" font-family="Helvetica,sans-Serif" font-size="10.00" fill="#000000">+ empty()</text>
<text text-anchor="start" x="780" y="-29.5" font-family="Helvetica,sans-Serif" font-size="10.00" fill="#000000">+ size()</text>
<text text-anchor="start" x="780" y="-18.5" font-family="Helvetica,sans-Serif" font-size="10.00" fill="#000000">+ size_in_bytes()</text>
<text text-anchor="start" x="780" y="-7.5" font-family="Helvetica,sans-Serif" font-size="10.00" fill="#000000">and 32 more...</text>
</a>
</g>
</g>
<!-- Node13&#45;&gt;Node1 -->
<g id="edge17" class="edge">
<title>Node13&#45;&gt;Node1</title>
<path fill="none" stroke="#404040" d="M853.8063,-189.5798C857.3461,-257.554 861.6734,-351.3965 863.5,-434 866.2034,-556.2518 850.5976,-693.2336 834.6272,-798.2487"/>
<polygon fill="none" stroke="#404040" points="834.6063,-798.3851 837.6466,-804.9239 832.7801,-810.2453 829.7398,-803.7065 834.6063,-798.3851"/>
<text text-anchor="middle" x="898.5" y="-437" font-family="Helvetica,sans-Serif" font-size="10.00" fill="#000000"> +CustomRects</text>
</g>
<!-- Node14&#45;&gt;Node13 -->
<g id="edge18" class="edge">
<title>Node14&#45;&gt;Node13</title>
<path fill="none" stroke="#404040" d="M628.9633,-264.6976C637.8204,-255.1 647.1828,-245.5454 656.5,-237 689.0368,-207.1585 727.7268,-177.5729 761.8212,-153.1939"/>
<polygon fill="none" stroke="#404040" points="761.987,-153.0763 764.565,-146.3417 771.7731,-146.1313 769.195,-152.8658 761.987,-153.0763"/>
<text text-anchor="middle" x="702" y="-211" font-family="Helvetica,sans-Serif" font-size="10.00" fill="#000000"> +Data</text>
</g>
</g>
</svg>
