<?xml version="1.0" encoding="UTF-8" standalone="no"?>
<!DOCTYPE svg PUBLIC "-//W3C//DTD SVG 1.1//EN"
 "http://www.w3.org/Graphics/SVG/1.1/DTD/svg11.dtd">
<!-- Generated by graphviz version 2.40.1 (20161225.0304)
 -->
<!-- Title: ImGuiResizeBorderDef Pages: 1 -->
<svg width="126pt" height="237pt"
 viewBox="0.00 0.00 126.00 237.00" xmlns="http://www.w3.org/2000/svg" xmlns:xlink="http://www.w3.org/1999/xlink">
<g id="graph0" class="graph" transform="scale(1 1) rotate(0) translate(4 233)">
<title>ImGuiResizeBorderDef</title>
<!-- Node1 -->
<g id="node1" class="node">
<title>Node1</title>
<polygon fill="#bfbfbf" stroke="#000000" points="0,-.5 0,-57.5 118,-57.5 118,-.5 0,-.5"/>
<text text-anchor="middle" x="59" y="-45.5" font-family="Helvetica,sans-Serif" font-size="10.00" fill="#000000">ImGuiResizeBorderDef</text>
<polyline fill="none" stroke="#000000" points="0,-38.5 118,-38.5 "/>
<text text-anchor="start" x="8" y="-26.5" font-family="Helvetica,sans-Serif" font-size="10.00" fill="#000000">+ OuterAngle</text>
<polyline fill="none" stroke="#000000" points="0,-19.5 118,-19.5 "/>
<text text-anchor="middle" x="59" y="-7.5" font-family="Helvetica,sans-Serif" font-size="10.00" fill="#000000"> </text>
</g>
<!-- Node2 -->
<g id="node2" class="node">
<title>Node2</title>
<g id="a_node2"><a xlink:href="structImVec2.html" target="_top" xlink:title="{ImVec2\n|+ x\l+ y\l|+ ImVec2()\l+ ImVec2()\l+ operator[]()\l+ operator[]()\l}">
<polygon fill="none" stroke="#000000" points="22.5,-127.5 22.5,-228.5 95.5,-228.5 95.5,-127.5 22.5,-127.5"/>
<text text-anchor="middle" x="59" y="-216.5" font-family="Helvetica,sans-Serif" font-size="10.00" fill="#000000">ImVec2</text>
<polyline fill="none" stroke="#000000" points="22.5,-209.5 95.5,-209.5 "/>
<text text-anchor="start" x="30.5" y="-197.5" font-family="Helvetica,sans-Serif" font-size="10.00" fill="#000000">+ x</text>
<text text-anchor="start" x="30.5" y="-186.5" font-family="Helvetica,sans-Serif" font-size="10.00" fill="#000000">+ y</text>
<polyline fill="none" stroke="#000000" points="22.5,-179.5 95.5,-179.5 "/>
<text text-anchor="start" x="30.5" y="-167.5" font-family="Helvetica,sans-Serif" font-size="10.00" fill="#000000">+ ImVec2()</text>
<text text-anchor="start" x="30.5" y="-156.5" font-family="Helvetica,sans-Serif" font-size="10.00" fill="#000000">+ ImVec2()</text>
<text text-anchor="start" x="30.5" y="-145.5" font-family="Helvetica,sans-Serif" font-size="10.00" fill="#000000">+ operator[]()</text>
<text text-anchor="start" x="30.5" y="-134.5" font-family="Helvetica,sans-Serif" font-size="10.00" fill="#000000">+ operator[]()</text>
</a>
</g>
</g>
<!-- Node2&#45;&gt;Node1 -->
<g id="edge1" class="edge">
<title>Node2&#45;&gt;Node1</title>
<path fill="none" stroke="#404040" d="M59,-127.1394C59,-108.4158 59,-87.4698 59,-69.7525"/>
<polygon fill="none" stroke="#404040" points="59.0001,-69.5001 55,-63.5002 59,-57.5001 63,-63.5001 59.0001,-69.5001"/>
<text text-anchor="middle" x="88" y="-101" font-family="Helvetica,sans-Serif" font-size="10.00" fill="#000000"> +InnerDir</text>
<text text-anchor="middle" x="88" y="-90" font-family="Helvetica,sans-Serif" font-size="10.00" fill="#000000">+SegmentN1</text>
<text text-anchor="middle" x="88" y="-79" font-family="Helvetica,sans-Serif" font-size="10.00" fill="#000000">+SegmentN2</text>
</g>
</g>
</svg>
