<?xml version="1.0" encoding="UTF-8" standalone="no"?>
<!DOCTYPE svg PUBLIC "-//W3C//DTD SVG 1.1//EN"
 "http://www.w3.org/Graphics/SVG/1.1/DTD/svg11.dtd">
<!-- Generated by graphviz version 2.40.1 (20161225.0304)
 -->
<!-- Title: ImGuiDataTypeInfo Pages: 1 -->
<svg width="110pt" height="193pt"
 viewBox="0.00 0.00 110.00 193.00" xmlns="http://www.w3.org/2000/svg" xmlns:xlink="http://www.w3.org/1999/xlink">
<g id="graph0" class="graph" transform="scale(1 1) rotate(0) translate(4 189)">
<title>ImGuiDataTypeInfo</title>
<!-- Node1 -->
<g id="node1" class="node">
<title>Node1</title>
<polygon fill="#bfbfbf" stroke="#000000" points="0,-.5 0,-79.5 102,-79.5 102,-.5 0,-.5"/>
<text text-anchor="middle" x="51" y="-67.5" font-family="Helvetica,sans-Serif" font-size="10.00" fill="#000000">ImGuiDataTypeInfo</text>
<polyline fill="none" stroke="#000000" points="0,-60.5 102,-60.5 "/>
<text text-anchor="start" x="8" y="-48.5" font-family="Helvetica,sans-Serif" font-size="10.00" fill="#000000">+ Name</text>
<text text-anchor="start" x="8" y="-37.5" font-family="Helvetica,sans-Serif" font-size="10.00" fill="#000000">+ PrintFmt</text>
<text text-anchor="start" x="8" y="-26.5" font-family="Helvetica,sans-Serif" font-size="10.00" fill="#000000">+ ScanFmt</text>
<polyline fill="none" stroke="#000000" points="0,-19.5 102,-19.5 "/>
<text text-anchor="middle" x="51" y="-7.5" font-family="Helvetica,sans-Serif" font-size="10.00" fill="#000000"> </text>
</g>
<!-- Node2 -->
<g id="node2" class="node">
<title>Node2</title>
<polygon fill="none" stroke="#bfbfbf" points="29.5,-127.5 29.5,-184.5 72.5,-184.5 72.5,-127.5 29.5,-127.5"/>
<text text-anchor="middle" x="51" y="-172.5" font-family="Helvetica,sans-Serif" font-size="10.00" fill="#000000">size_t</text>
<polyline fill="none" stroke="#bfbfbf" points="29.5,-165.5 72.5,-165.5 "/>
<text text-anchor="middle" x="51" y="-153.5" font-family="Helvetica,sans-Serif" font-size="10.00" fill="#000000"> </text>
<polyline fill="none" stroke="#bfbfbf" points="29.5,-146.5 72.5,-146.5 "/>
<text text-anchor="middle" x="51" y="-134.5" font-family="Helvetica,sans-Serif" font-size="10.00" fill="#000000"> </text>
</g>
<!-- Node2&#45;&gt;Node1 -->
<g id="edge1" class="edge">
<title>Node2&#45;&gt;Node1</title>
<path fill="none" stroke="#404040" d="M51,-127.3258C51,-116.5576 51,-103.9593 51,-91.7364"/>
<polygon fill="none" stroke="#404040" points="51.0001,-91.7203 47,-85.7203 51,-79.7203 55,-85.7203 51.0001,-91.7203"/>
<text text-anchor="middle" x="65.5" y="-101" font-family="Helvetica,sans-Serif" font-size="10.00" fill="#000000"> +Size</text>
</g>
</g>
</svg>
