<?xml version="1.0" encoding="UTF-8" standalone="no"?>
<!DOCTYPE svg PUBLIC "-//W3C//DTD SVG 1.1//EN"
 "http://www.w3.org/Graphics/SVG/1.1/DTD/svg11.dtd">
<!-- Generated by graphviz version 2.40.1 (20161225.0304)
 -->
<!-- Title: /mnt/hdd/fnky/C0de/CAPSTONE/clean_build/include/rapidjson/internal/swap.h Pages: 1 -->
<svg width="832pt" height="473pt"
 viewBox="0.00 0.00 832.00 473.00" xmlns="http://www.w3.org/2000/svg" xmlns:xlink="http://www.w3.org/1999/xlink">
<g id="graph0" class="graph" transform="scale(1 1) rotate(0) translate(4 469)">
<title>/mnt/hdd/fnky/C0de/CAPSTONE/clean_build/include/rapidjson/internal/swap.h</title>
<!-- Node5 -->
<g id="node1" class="node">
<title>Node5</title>
<polygon fill="#bfbfbf" stroke="#000000" points="474.5,-412.5 474.5,-464.5 601.5,-464.5 601.5,-412.5 474.5,-412.5"/>
<text text-anchor="start" x="482.5" y="-452.5" font-family="Helvetica,sans-Serif" font-size="10.00" fill="#000000">/mnt/hdd/fnky/C0de</text>
<text text-anchor="start" x="482.5" y="-441.5" font-family="Helvetica,sans-Serif" font-size="10.00" fill="#000000">/CAPSTONE/clean_build</text>
<text text-anchor="start" x="482.5" y="-430.5" font-family="Helvetica,sans-Serif" font-size="10.00" fill="#000000">/include/rapidjson/internal</text>
<text text-anchor="middle" x="538" y="-419.5" font-family="Helvetica,sans-Serif" font-size="10.00" fill="#000000">/swap.h</text>
</g>
<!-- Node6 -->
<g id="node2" class="node">
<title>Node6</title>
<g id="a_node2"><a xlink:href="stack_8h.html" target="_top" xlink:title="/mnt/hdd/fnky/C0de\l/CAPSTONE/clean_build\l/include/rapidjson/internal\l/stack.h">
<polygon fill="none" stroke="#000000" points="474.5,-323.5 474.5,-375.5 601.5,-375.5 601.5,-323.5 474.5,-323.5"/>
<text text-anchor="start" x="482.5" y="-363.5" font-family="Helvetica,sans-Serif" font-size="10.00" fill="#000000">/mnt/hdd/fnky/C0de</text>
<text text-anchor="start" x="482.5" y="-352.5" font-family="Helvetica,sans-Serif" font-size="10.00" fill="#000000">/CAPSTONE/clean_build</text>
<text text-anchor="start" x="482.5" y="-341.5" font-family="Helvetica,sans-Serif" font-size="10.00" fill="#000000">/include/rapidjson/internal</text>
<text text-anchor="middle" x="538" y="-330.5" font-family="Helvetica,sans-Serif" font-size="10.00" fill="#000000">/stack.h</text>
</a>
</g>
</g>
<!-- Node5&#45;&gt;Node6 -->
<g id="edge1" class="edge">
<title>Node5&#45;&gt;Node6</title>
<path fill="none" stroke="#191970" d="M538,-402.1155C538,-393.2061 538,-383.8475 538,-375.5341"/>
<polygon fill="#191970" stroke="#191970" points="534.5001,-402.2784 538,-412.2784 541.5001,-402.2785 534.5001,-402.2784"/>
</g>
<!-- Node7 -->
<g id="node3" class="node">
<title>Node7</title>
<g id="a_node3"><a xlink:href="reader_8h.html" target="_top" xlink:title="/mnt/hdd/fnky/C0de\l/CAPSTONE/clean_build\l/include/rapidjson/reader.h">
<polygon fill="none" stroke="#000000" points="472.5,-245.5 472.5,-286.5 603.5,-286.5 603.5,-245.5 472.5,-245.5"/>
<text text-anchor="start" x="480.5" y="-274.5" font-family="Helvetica,sans-Serif" font-size="10.00" fill="#000000">/mnt/hdd/fnky/C0de</text>
<text text-anchor="start" x="480.5" y="-263.5" font-family="Helvetica,sans-Serif" font-size="10.00" fill="#000000">/CAPSTONE/clean_build</text>
<text text-anchor="middle" x="538" y="-252.5" font-family="Helvetica,sans-Serif" font-size="10.00" fill="#000000">/include/rapidjson/reader.h</text>
</a>
</g>
</g>
<!-- Node6&#45;&gt;Node7 -->
<g id="edge2" class="edge">
<title>Node6&#45;&gt;Node7</title>
<path fill="none" stroke="#191970" d="M538,-312.8168C538,-303.8649 538,-294.5976 538,-286.6941"/>
<polygon fill="#191970" stroke="#191970" points="534.5001,-313.08 538,-323.0801 541.5001,-313.0801 534.5001,-313.08"/>
</g>
<!-- Node14 -->
<g id="node10" class="node">
<title>Node14</title>
<g id="a_node10"><a xlink:href="writer_8h.html" target="_top" xlink:title="/mnt/hdd/fnky/C0de\l/CAPSTONE/clean_build\l/include/rapidjson/writer.h">
<polygon fill="none" stroke="#000000" points="210,-162 210,-203 338,-203 338,-162 210,-162"/>
<text text-anchor="start" x="218" y="-191" font-family="Helvetica,sans-Serif" font-size="10.00" fill="#000000">/mnt/hdd/fnky/C0de</text>
<text text-anchor="start" x="218" y="-180" font-family="Helvetica,sans-Serif" font-size="10.00" fill="#000000">/CAPSTONE/clean_build</text>
<text text-anchor="middle" x="274" y="-169" font-family="Helvetica,sans-Serif" font-size="10.00" fill="#000000">/include/rapidjson/writer.h</text>
</a>
</g>
</g>
<!-- Node6&#45;&gt;Node14 -->
<g id="edge10" class="edge">
<title>Node6&#45;&gt;Node14</title>
<path fill="none" stroke="#191970" d="M464.4695,-339.6023C401.0778,-329.5363 316.1943,-311.8756 293,-287 271.8737,-264.3424 270.293,-226.4185 271.7027,-203.0231"/>
<polygon fill="#191970" stroke="#191970" points="464.0274,-343.0755 474.4462,-341.1525 465.1022,-336.1585 464.0274,-343.0755"/>
</g>
<!-- Node16 -->
<g id="node12" class="node">
<title>Node16</title>
<g id="a_node12"><a xlink:href="stringbuffer_8h.html" target="_top" xlink:title="/mnt/hdd/fnky/C0de\l/CAPSTONE/clean_build\l/include/rapidjson/stringbuffer.h">
<polygon fill="none" stroke="#000000" points="302,-245.5 302,-286.5 454,-286.5 454,-245.5 302,-245.5"/>
<text text-anchor="start" x="310" y="-274.5" font-family="Helvetica,sans-Serif" font-size="10.00" fill="#000000">/mnt/hdd/fnky/C0de</text>
<text text-anchor="start" x="310" y="-263.5" font-family="Helvetica,sans-Serif" font-size="10.00" fill="#000000">/CAPSTONE/clean_build</text>
<text text-anchor="middle" x="378" y="-252.5" font-family="Helvetica,sans-Serif" font-size="10.00" fill="#000000">/include/rapidjson/stringbuffer.h</text>
</a>
</g>
</g>
<!-- Node6&#45;&gt;Node16 -->
<g id="edge13" class="edge">
<title>Node6&#45;&gt;Node16</title>
<path fill="none" stroke="#191970" d="M478.857,-318.6347C458.3469,-307.9311 435.8706,-296.2012 417.3517,-286.5367"/>
<polygon fill="#191970" stroke="#191970" points="477.3293,-321.7854 487.814,-323.3092 480.568,-315.5796 477.3293,-321.7854"/>
</g>
<!-- Node17 -->
<g id="node13" class="node">
<title>Node17</title>
<g id="a_node13"><a xlink:href="regex_8h.html" target="_top" xlink:title="/mnt/hdd/fnky/C0de\l/CAPSTONE/clean_build\l/include/rapidjson/internal\l/regex.h">
<polygon fill="none" stroke="#000000" points="598.5,-156.5 598.5,-208.5 725.5,-208.5 725.5,-156.5 598.5,-156.5"/>
<text text-anchor="start" x="606.5" y="-196.5" font-family="Helvetica,sans-Serif" font-size="10.00" fill="#000000">/mnt/hdd/fnky/C0de</text>
<text text-anchor="start" x="606.5" y="-185.5" font-family="Helvetica,sans-Serif" font-size="10.00" fill="#000000">/CAPSTONE/clean_build</text>
<text text-anchor="start" x="606.5" y="-174.5" font-family="Helvetica,sans-Serif" font-size="10.00" fill="#000000">/include/rapidjson/internal</text>
<text text-anchor="middle" x="662" y="-163.5" font-family="Helvetica,sans-Serif" font-size="10.00" fill="#000000">/regex.h</text>
</a>
</g>
</g>
<!-- Node6&#45;&gt;Node17 -->
<g id="edge16" class="edge">
<title>Node6&#45;&gt;Node17</title>
<path fill="none" stroke="#191970" d="M582.9864,-316.7513C593.3384,-307.8632 603.7246,-297.7099 612,-287 630.5686,-262.9687 644.6278,-230.9297 653.037,-208.6904"/>
<polygon fill="#191970" stroke="#191970" points="580.5699,-314.2086 575.1125,-323.2898 585.0418,-319.594 580.5699,-314.2086"/>
</g>
<!-- Node18 -->
<g id="node14" class="node">
<title>Node18</title>
<g id="a_node14"><a xlink:href="memorybuffer_8h.html" target="_top" xlink:title="/mnt/hdd/fnky/C0de\l/CAPSTONE/clean_build\l/include/rapidjson/memorybuffer.h">
<polygon fill="none" stroke="#000000" points="660,-245.5 660,-286.5 824,-286.5 824,-245.5 660,-245.5"/>
<text text-anchor="start" x="668" y="-274.5" font-family="Helvetica,sans-Serif" font-size="10.00" fill="#000000">/mnt/hdd/fnky/C0de</text>
<text text-anchor="start" x="668" y="-263.5" font-family="Helvetica,sans-Serif" font-size="10.00" fill="#000000">/CAPSTONE/clean_build</text>
<text text-anchor="middle" x="742" y="-252.5" font-family="Helvetica,sans-Serif" font-size="10.00" fill="#000000">/include/rapidjson/memorybuffer.h</text>
</a>
</g>
</g>
<!-- Node6&#45;&gt;Node18 -->
<g id="edge18" class="edge">
<title>Node6&#45;&gt;Node18</title>
<path fill="none" stroke="#191970" d="M611.0289,-319.6083C637.7606,-308.6666 667.3873,-296.54 691.6917,-286.5919"/>
<polygon fill="#191970" stroke="#191970" points="609.6366,-316.3962 601.7077,-323.4235 612.2884,-322.8746 609.6366,-316.3962"/>
</g>
<!-- Node8 -->
<g id="node4" class="node">
<title>Node8</title>
<g id="a_node4"><a xlink:href="document_8h.html" target="_top" xlink:title="/mnt/hdd/fnky/C0de\l/CAPSTONE/clean_build\l/include/rapidjson/document.h">
<polygon fill="none" stroke="#000000" points="434,-162 434,-203 580,-203 580,-162 434,-162"/>
<text text-anchor="start" x="442" y="-191" font-family="Helvetica,sans-Serif" font-size="10.00" fill="#000000">/mnt/hdd/fnky/C0de</text>
<text text-anchor="start" x="442" y="-180" font-family="Helvetica,sans-Serif" font-size="10.00" fill="#000000">/CAPSTONE/clean_build</text>
<text text-anchor="middle" x="507" y="-169" font-family="Helvetica,sans-Serif" font-size="10.00" fill="#000000">/include/rapidjson/document.h</text>
</a>
</g>
</g>
<!-- Node7&#45;&gt;Node8 -->
<g id="edge3" class="edge">
<title>Node7&#45;&gt;Node8</title>
<path fill="none" stroke="#191970" d="M526.7968,-235.8237C522.7761,-224.9936 518.3365,-213.0353 514.6822,-203.1924"/>
<polygon fill="#191970" stroke="#191970" points="523.5754,-237.2029 530.3371,-245.3595 530.1377,-234.7666 523.5754,-237.2029"/>
</g>
<!-- Node9 -->
<g id="node5" class="node">
<title>Node9</title>
<g id="a_node5"><a xlink:href="NetworkComponent_8h.html" target="_top" xlink:title="/mnt/hdd/fnky/C0de\l/CAPSTONE/clean_build\l/include/Components/NetworkComponent.h">
<polygon fill="none" stroke="#000000" points="170.5,-78.5 170.5,-119.5 377.5,-119.5 377.5,-78.5 170.5,-78.5"/>
<text text-anchor="start" x="178.5" y="-107.5" font-family="Helvetica,sans-Serif" font-size="10.00" fill="#000000">/mnt/hdd/fnky/C0de</text>
<text text-anchor="start" x="178.5" y="-96.5" font-family="Helvetica,sans-Serif" font-size="10.00" fill="#000000">/CAPSTONE/clean_build</text>
<text text-anchor="middle" x="274" y="-85.5" font-family="Helvetica,sans-Serif" font-size="10.00" fill="#000000">/include/Components/NetworkComponent.h</text>
</a>
</g>
</g>
<!-- Node8&#45;&gt;Node9 -->
<g id="edge4" class="edge">
<title>Node8&#45;&gt;Node9</title>
<path fill="none" stroke="#191970" d="M440.2138,-158.5659C405.8553,-146.2529 364.396,-131.3951 331.4793,-119.5988"/>
<polygon fill="#191970" stroke="#191970" points="439.1088,-161.8878 449.7034,-161.9667 441.4704,-155.2982 439.1088,-161.8878"/>
</g>
<!-- Node12 -->
<g id="node8" class="node">
<title>Node12</title>
<g id="a_node8"><a xlink:href="pointer_8h.html" target="_top" xlink:title="/mnt/hdd/fnky/C0de\l/CAPSTONE/clean_build\l/include/rapidjson/pointer.h">
<polygon fill="none" stroke="#000000" points="495.5,-78.5 495.5,-119.5 628.5,-119.5 628.5,-78.5 495.5,-78.5"/>
<text text-anchor="start" x="503.5" y="-107.5" font-family="Helvetica,sans-Serif" font-size="10.00" fill="#000000">/mnt/hdd/fnky/C0de</text>
<text text-anchor="start" x="503.5" y="-96.5" font-family="Helvetica,sans-Serif" font-size="10.00" fill="#000000">/CAPSTONE/clean_build</text>
<text text-anchor="middle" x="562" y="-85.5" font-family="Helvetica,sans-Serif" font-size="10.00" fill="#000000">/include/rapidjson/pointer.h</text>
</a>
</g>
</g>
<!-- Node8&#45;&gt;Node12 -->
<g id="edge7" class="edge">
<title>Node8&#45;&gt;Node12</title>
<path fill="none" stroke="#191970" d="M526.2236,-153.3151C533.5267,-142.2277 541.6884,-129.8366 548.3703,-119.6924"/>
<polygon fill="#191970" stroke="#191970" points="523.1734,-151.5831 520.5955,-161.8595 529.0192,-155.4337 523.1734,-151.5831"/>
</g>
<!-- Node13 -->
<g id="node9" class="node">
<title>Node13</title>
<g id="a_node9"><a xlink:href="schema_8h.html" target="_top" xlink:title="/mnt/hdd/fnky/C0de\l/CAPSTONE/clean_build\l/include/rapidjson/schema.h">
<polygon fill="none" stroke="#000000" points="406,-.5 406,-41.5 544,-41.5 544,-.5 406,-.5"/>
<text text-anchor="start" x="414" y="-29.5" font-family="Helvetica,sans-Serif" font-size="10.00" fill="#000000">/mnt/hdd/fnky/C0de</text>
<text text-anchor="start" x="414" y="-18.5" font-family="Helvetica,sans-Serif" font-size="10.00" fill="#000000">/CAPSTONE/clean_build</text>
<text text-anchor="middle" x="475" y="-7.5" font-family="Helvetica,sans-Serif" font-size="10.00" fill="#000000">/include/rapidjson/schema.h</text>
</a>
</g>
</g>
<!-- Node8&#45;&gt;Node13 -->
<g id="edge9" class="edge">
<title>Node8&#45;&gt;Node13</title>
<path fill="none" stroke="#191970" d="M495.4222,-152.3499C491.9159,-142.2019 488.3703,-130.7303 486,-120 480.1065,-93.3198 477.2977,-61.8619 476.0108,-41.6867"/>
<polygon fill="#191970" stroke="#191970" points="492.2041,-153.7454 498.8703,-161.9803 498.7945,-151.3857 492.2041,-153.7454"/>
</g>
<!-- Node10 -->
<g id="node6" class="node">
<title>Node10</title>
<g id="a_node6"><a xlink:href="NetworkComponent_8cpp.html" target="_top" xlink:title="/mnt/hdd/fnky/C0de\l/CAPSTONE/clean_build\l/src/Components/NetworkComponent.cpp">
<polygon fill="none" stroke="#000000" points="179,-.5 179,-41.5 379,-41.5 379,-.5 179,-.5"/>
<text text-anchor="start" x="187" y="-29.5" font-family="Helvetica,sans-Serif" font-size="10.00" fill="#000000">/mnt/hdd/fnky/C0de</text>
<text text-anchor="start" x="187" y="-18.5" font-family="Helvetica,sans-Serif" font-size="10.00" fill="#000000">/CAPSTONE/clean_build</text>
<text text-anchor="middle" x="279" y="-7.5" font-family="Helvetica,sans-Serif" font-size="10.00" fill="#000000">/src/Components/NetworkComponent.cpp</text>
</a>
</g>
</g>
<!-- Node9&#45;&gt;Node10 -->
<g id="edge5" class="edge">
<title>Node9&#45;&gt;Node10</title>
<path fill="none" stroke="#191970" d="M275.9821,-68.0789C276.5501,-59.2178 277.1555,-49.7747 277.6737,-41.6898"/>
<polygon fill="#191970" stroke="#191970" points="272.4869,-67.894 275.3399,-78.0974 279.4725,-68.3418 272.4869,-67.894"/>
</g>
<!-- Node11 -->
<g id="node7" class="node">
<title>Node11</title>
<g id="a_node7"><a xlink:href="game_8cpp.html" target="_top" xlink:title="/mnt/hdd/fnky/C0de\l/CAPSTONE/clean_build\l/src/Window/game.cpp">
<polygon fill="none" stroke="#000000" points="33.5,-.5 33.5,-41.5 160.5,-41.5 160.5,-.5 33.5,-.5"/>
<text text-anchor="start" x="41.5" y="-29.5" font-family="Helvetica,sans-Serif" font-size="10.00" fill="#000000">/mnt/hdd/fnky/C0de</text>
<text text-anchor="start" x="41.5" y="-18.5" font-family="Helvetica,sans-Serif" font-size="10.00" fill="#000000">/CAPSTONE/clean_build</text>
<text text-anchor="middle" x="97" y="-7.5" font-family="Helvetica,sans-Serif" font-size="10.00" fill="#000000">/src/Window/game.cpp</text>
</a>
</g>
</g>
<!-- Node9&#45;&gt;Node11 -->
<g id="edge6" class="edge">
<title>Node9&#45;&gt;Node11</title>
<path fill="none" stroke="#191970" d="M217.7271,-74.2018C193.8303,-63.671 166.3026,-51.5401 143.5734,-41.5239"/>
<polygon fill="#191970" stroke="#191970" points="216.4697,-77.4724 227.0319,-78.3022 219.2925,-71.0668 216.4697,-77.4724"/>
</g>
<!-- Node12&#45;&gt;Node13 -->
<g id="edge8" class="edge">
<title>Node12&#45;&gt;Node13</title>
<path fill="none" stroke="#191970" d="M531.0247,-71.229C520.1678,-61.4953 508.1731,-50.7414 498.0771,-41.6898"/>
<polygon fill="#191970" stroke="#191970" points="528.9035,-74.028 538.6856,-78.0974 533.5763,-68.8159 528.9035,-74.028"/>
</g>
<!-- Node14&#45;&gt;Node9 -->
<g id="edge11" class="edge">
<title>Node14&#45;&gt;Node9</title>
<path fill="none" stroke="#191970" d="M274,-151.6593C274,-141.0064 274,-129.3344 274,-119.6924"/>
<polygon fill="#191970" stroke="#191970" points="270.5001,-151.8595 274,-161.8595 277.5001,-151.8596 270.5001,-151.8595"/>
</g>
<!-- Node15 -->
<g id="node11" class="node">
<title>Node15</title>
<g id="a_node11"><a xlink:href="prettywriter_8h.html" target="_top" xlink:title="/mnt/hdd/fnky/C0de\l/CAPSTONE/clean_build\l/include/rapidjson/prettywriter.h">
<polygon fill="none" stroke="#000000" points="0,-78.5 0,-119.5 152,-119.5 152,-78.5 0,-78.5"/>
<text text-anchor="start" x="8" y="-107.5" font-family="Helvetica,sans-Serif" font-size="10.00" fill="#000000">/mnt/hdd/fnky/C0de</text>
<text text-anchor="start" x="8" y="-96.5" font-family="Helvetica,sans-Serif" font-size="10.00" fill="#000000">/CAPSTONE/clean_build</text>
<text text-anchor="middle" x="76" y="-85.5" font-family="Helvetica,sans-Serif" font-size="10.00" fill="#000000">/include/rapidjson/prettywriter.h</text>
</a>
</g>
</g>
<!-- Node14&#45;&gt;Node15 -->
<g id="edge12" class="edge">
<title>Node14&#45;&gt;Node15</title>
<path fill="none" stroke="#191970" d="M215.7436,-157.9323C186.8464,-145.7458 152.339,-131.1935 124.8451,-119.5988"/>
<polygon fill="#191970" stroke="#191970" points="214.7359,-161.3058 225.3102,-161.9667 217.456,-154.8559 214.7359,-161.3058"/>
</g>
<!-- Node16&#45;&gt;Node13 -->
<g id="edge15" class="edge">
<title>Node16&#45;&gt;Node13</title>
<path fill="none" stroke="#191970" d="M389.9929,-235.7086C409.9774,-185.2323 449.5884,-85.1841 466.7508,-41.8357"/>
<polygon fill="#191970" stroke="#191970" points="386.6972,-234.5252 386.2702,-245.1114 393.2056,-237.1021 386.6972,-234.5252"/>
</g>
<!-- Node16&#45;&gt;Node14 -->
<g id="edge14" class="edge">
<title>Node16&#45;&gt;Node14</title>
<path fill="none" stroke="#191970" d="M344.0929,-238.7765C329.684,-227.2079 313.1579,-213.9393 299.7726,-203.1924"/>
<polygon fill="#191970" stroke="#191970" points="342.3032,-241.8281 352.2921,-245.3595 346.6856,-236.3697 342.3032,-241.8281"/>
</g>
<!-- Node17&#45;&gt;Node13 -->
<g id="edge17" class="edge">
<title>Node17&#45;&gt;Node13</title>
<path fill="none" stroke="#191970" d="M662.1355,-146.0584C660.3395,-123.9102 654.5046,-96.4399 638,-78 624.9041,-63.3685 582.5285,-48.7857 544.2684,-38.033"/>
<polygon fill="#191970" stroke="#191970" points="658.6458,-146.3402 662.7113,-156.1239 665.6344,-145.9404 658.6458,-146.3402"/>
</g>
</g>
</svg>
