<?xml version="1.0" encoding="UTF-8" standalone="no"?>
<!DOCTYPE svg PUBLIC "-//W3C//DTD SVG 1.1//EN"
 "http://www.w3.org/Graphics/SVG/1.1/DTD/svg11.dtd">
<!-- Generated by graphviz version 2.40.1 (20161225.0304)
 -->
<!-- Title: /mnt/hdd/fnky/C0de/CAPSTONE/clean_build/include/Components/TextRenderComponent.h Pages: 1 -->
<svg width="666pt" height="150pt"
 viewBox="0.00 0.00 665.50 150.00" xmlns="http://www.w3.org/2000/svg" xmlns:xlink="http://www.w3.org/1999/xlink">
<g id="graph0" class="graph" transform="scale(1 1) rotate(0) translate(4 146)">
<title>/mnt/hdd/fnky/C0de/CAPSTONE/clean_build/include/Components/TextRenderComponent.h</title>
<!-- Node8 -->
<g id="node1" class="node">
<title>Node8</title>
<polygon fill="#bfbfbf" stroke="#000000" points="272.5,-89.5 272.5,-141.5 435.5,-141.5 435.5,-89.5 272.5,-89.5"/>
<text text-anchor="start" x="280.5" y="-129.5" font-family="Helvetica,sans-Serif" font-size="10.00" fill="#000000">/mnt/hdd/fnky/C0de</text>
<text text-anchor="start" x="280.5" y="-118.5" font-family="Helvetica,sans-Serif" font-size="10.00" fill="#000000">/CAPSTONE/clean_build</text>
<text text-anchor="start" x="280.5" y="-107.5" font-family="Helvetica,sans-Serif" font-size="10.00" fill="#000000">/include/Components/TextRender</text>
<text text-anchor="middle" x="354" y="-96.5" font-family="Helvetica,sans-Serif" font-size="10.00" fill="#000000">Component.h</text>
</g>
<!-- Node9 -->
<g id="node2" class="node">
<title>Node9</title>
<g id="a_node2"><a xlink:href="Text__Actor_8cpp.html" target="_top" xlink:title="/mnt/hdd/fnky/C0de\l/CAPSTONE/clean_build\l/src/Actors/Text_Actor.cpp">
<polygon fill="none" stroke="#000000" points="0,-6 0,-47 134,-47 134,-6 0,-6"/>
<text text-anchor="start" x="8" y="-35" font-family="Helvetica,sans-Serif" font-size="10.00" fill="#000000">/mnt/hdd/fnky/C0de</text>
<text text-anchor="start" x="8" y="-24" font-family="Helvetica,sans-Serif" font-size="10.00" fill="#000000">/CAPSTONE/clean_build</text>
<text text-anchor="middle" x="67" y="-13" font-family="Helvetica,sans-Serif" font-size="10.00" fill="#000000">/src/Actors/Text_Actor.cpp</text>
</a>
</g>
</g>
<!-- Node8&#45;&gt;Node9 -->
<g id="edge1" class="edge">
<title>Node8&#45;&gt;Node9</title>
<path fill="none" stroke="#191970" d="M262.4928,-89.4236C225.2938,-78.5559 181.9721,-65.5586 143,-53 137.148,-51.1142 131.0625,-49.0938 124.9966,-47.0408"/>
<polygon fill="#191970" stroke="#191970" points="261.7313,-92.8472 272.3112,-92.2842 263.6894,-86.1267 261.7313,-92.8472"/>
</g>
<!-- Node10 -->
<g id="node3" class="node">
<title>Node10</title>
<g id="a_node3"><a xlink:href="TextRenderComponent_8cpp.html" target="_top" xlink:title="/mnt/hdd/fnky/C0de\l/CAPSTONE/clean_build\l/src/Components/TextRenderComponent.cpp">
<polygon fill="none" stroke="#000000" points="152.5,-6 152.5,-47 367.5,-47 367.5,-6 152.5,-6"/>
<text text-anchor="start" x="160.5" y="-35" font-family="Helvetica,sans-Serif" font-size="10.00" fill="#000000">/mnt/hdd/fnky/C0de</text>
<text text-anchor="start" x="160.5" y="-24" font-family="Helvetica,sans-Serif" font-size="10.00" fill="#000000">/CAPSTONE/clean_build</text>
<text text-anchor="middle" x="260" y="-13" font-family="Helvetica,sans-Serif" font-size="10.00" fill="#000000">/src/Components/TextRenderComponent.cpp</text>
</a>
</g>
</g>
<!-- Node8&#45;&gt;Node10 -->
<g id="edge2" class="edge">
<title>Node8&#45;&gt;Node10</title>
<path fill="none" stroke="#191970" d="M318.7711,-82.1449C306.3742,-70.4075 292.8097,-57.5645 281.8387,-47.1771"/>
<polygon fill="#191970" stroke="#191970" points="316.6374,-84.9447 326.3053,-89.2784 321.4501,-79.8615 316.6374,-84.9447"/>
</g>
<!-- Node11 -->
<g id="node4" class="node">
<title>Node11</title>
<g id="a_node4"><a xlink:href="game__play__state_8cpp.html" target="_top" xlink:title="/mnt/hdd/fnky/C0de\l/CAPSTONE/clean_build\l/src/States/game_play\l_state.cpp">
<polygon fill="none" stroke="#000000" points="385.5,-.5 385.5,-52.5 512.5,-52.5 512.5,-.5 385.5,-.5"/>
<text text-anchor="start" x="393.5" y="-40.5" font-family="Helvetica,sans-Serif" font-size="10.00" fill="#000000">/mnt/hdd/fnky/C0de</text>
<text text-anchor="start" x="393.5" y="-29.5" font-family="Helvetica,sans-Serif" font-size="10.00" fill="#000000">/CAPSTONE/clean_build</text>
<text text-anchor="start" x="393.5" y="-18.5" font-family="Helvetica,sans-Serif" font-size="10.00" fill="#000000">/src/States/game_play</text>
<text text-anchor="middle" x="449" y="-7.5" font-family="Helvetica,sans-Serif" font-size="10.00" fill="#000000">_state.cpp</text>
</a>
</g>
</g>
<!-- Node8&#45;&gt;Node11 -->
<g id="edge3" class="edge">
<title>Node8&#45;&gt;Node11</title>
<path fill="none" stroke="#191970" d="M389.4495,-82.2894C399.9427,-72.459 411.2759,-61.8415 421.2107,-52.5341"/>
<polygon fill="#191970" stroke="#191970" points="386.8942,-79.8873 381.9893,-89.2784 391.68,-84.9958 386.8942,-79.8873"/>
</g>
<!-- Node12 -->
<g id="node5" class="node">
<title>Node12</title>
<g id="a_node5"><a xlink:href="loading__play__state_8cpp.html" target="_top" xlink:title="/mnt/hdd/fnky/C0de\l/CAPSTONE/clean_build\l/src/States/loading_play\l_state.cpp">
<polygon fill="none" stroke="#000000" points="530.5,-.5 530.5,-52.5 657.5,-52.5 657.5,-.5 530.5,-.5"/>
<text text-anchor="start" x="538.5" y="-40.5" font-family="Helvetica,sans-Serif" font-size="10.00" fill="#000000">/mnt/hdd/fnky/C0de</text>
<text text-anchor="start" x="538.5" y="-29.5" font-family="Helvetica,sans-Serif" font-size="10.00" fill="#000000">/CAPSTONE/clean_build</text>
<text text-anchor="start" x="538.5" y="-18.5" font-family="Helvetica,sans-Serif" font-size="10.00" fill="#000000">/src/States/loading_play</text>
<text text-anchor="middle" x="594" y="-7.5" font-family="Helvetica,sans-Serif" font-size="10.00" fill="#000000">_state.cpp</text>
</a>
</g>
</g>
<!-- Node8&#45;&gt;Node12 -->
<g id="edge4" class="edge">
<title>Node8&#45;&gt;Node12</title>
<path fill="none" stroke="#191970" d="M433.9541,-85.8504C465.2437,-74.2471 500.6363,-61.1224 530.1682,-50.171"/>
<polygon fill="#191970" stroke="#191970" points="432.5454,-82.6398 424.3863,-89.3984 434.9793,-89.203 432.5454,-82.6398"/>
</g>
</g>
</svg>
