<?xml version="1.0" encoding="UTF-8" standalone="no"?>
<!DOCTYPE svg PUBLIC "-//W3C//DTD SVG 1.1//EN"
 "http://www.w3.org/Graphics/SVG/1.1/DTD/svg11.dtd">
<!-- Generated by graphviz version 2.40.1 (20161225.0304)
 -->
<!-- Title: /mnt/hdd/fnky/C0de/CAPSTONE/clean_build/include/Graphics/texture.h Pages: 1 -->
<svg width="2608pt" height="295pt"
 viewBox="0.00 0.00 2608.00 295.00" xmlns="http://www.w3.org/2000/svg" xmlns:xlink="http://www.w3.org/1999/xlink">
<g id="graph0" class="graph" transform="scale(1 1) rotate(0) translate(4 291)">
<title>/mnt/hdd/fnky/C0de/CAPSTONE/clean_build/include/Graphics/texture.h</title>
<!-- Node3 -->
<g id="node1" class="node">
<title>Node3</title>
<polygon fill="#bfbfbf" stroke="#000000" points="1918,-245.5 1918,-286.5 2052,-286.5 2052,-245.5 1918,-245.5"/>
<text text-anchor="start" x="1926" y="-274.5" font-family="Helvetica,sans-Serif" font-size="10.00" fill="#000000">/mnt/hdd/fnky/C0de</text>
<text text-anchor="start" x="1926" y="-263.5" font-family="Helvetica,sans-Serif" font-size="10.00" fill="#000000">/CAPSTONE/clean_build</text>
<text text-anchor="middle" x="1985" y="-252.5" font-family="Helvetica,sans-Serif" font-size="10.00" fill="#000000">/include/Graphics/texture.h</text>
</g>
<!-- Node4 -->
<g id="node2" class="node">
<title>Node4</title>
<g id="a_node2"><a xlink:href="sprite_8h.html" target="_top" xlink:title="/mnt/hdd/fnky/C0de\l/CAPSTONE/clean_build\l/include/Graphics/sprite.h">
<polygon fill="none" stroke="#000000" points="1810,-167.5 1810,-208.5 1938,-208.5 1938,-167.5 1810,-167.5"/>
<text text-anchor="start" x="1818" y="-196.5" font-family="Helvetica,sans-Serif" font-size="10.00" fill="#000000">/mnt/hdd/fnky/C0de</text>
<text text-anchor="start" x="1818" y="-185.5" font-family="Helvetica,sans-Serif" font-size="10.00" fill="#000000">/CAPSTONE/clean_build</text>
<text text-anchor="middle" x="1874" y="-174.5" font-family="Helvetica,sans-Serif" font-size="10.00" fill="#000000">/include/Graphics/sprite.h</text>
</a>
</g>
</g>
<!-- Node3&#45;&gt;Node4 -->
<g id="edge1" class="edge">
<title>Node3&#45;&gt;Node4</title>
<path fill="none" stroke="#191970" d="M1947.3046,-239.5113C1932.8993,-229.3887 1916.7041,-218.0083 1903.207,-208.5239"/>
<polygon fill="#191970" stroke="#191970" points="1945.3512,-242.4164 1955.5455,-245.3022 1949.3758,-236.689 1945.3512,-242.4164"/>
</g>
<!-- Node5 -->
<g id="node3" class="node">
<title>Node5</title>
<g id="a_node3"><a xlink:href="RenderComponent_8h.html" target="_top" xlink:title="/mnt/hdd/fnky/C0de\l/CAPSTONE/clean_build\l/include/Components/RenderComponent.h">
<polygon fill="none" stroke="#000000" points="1296,-89.5 1296,-130.5 1498,-130.5 1498,-89.5 1296,-89.5"/>
<text text-anchor="start" x="1304" y="-118.5" font-family="Helvetica,sans-Serif" font-size="10.00" fill="#000000">/mnt/hdd/fnky/C0de</text>
<text text-anchor="start" x="1304" y="-107.5" font-family="Helvetica,sans-Serif" font-size="10.00" fill="#000000">/CAPSTONE/clean_build</text>
<text text-anchor="middle" x="1397" y="-96.5" font-family="Helvetica,sans-Serif" font-size="10.00" fill="#000000">/include/Components/RenderComponent.h</text>
</a>
</g>
</g>
<!-- Node3&#45;&gt;Node5 -->
<g id="edge20" class="edge">
<title>Node3&#45;&gt;Node5</title>
<path fill="none" stroke="#191970" d="M1907.9101,-245.5476C1795.3475,-215.684 1587.1777,-160.4553 1474.4254,-130.5414"/>
<polygon fill="#191970" stroke="#191970" points="1907.2722,-248.9994 1917.8354,-248.1808 1909.0673,-242.2334 1907.2722,-248.9994"/>
</g>
<!-- Node16 -->
<g id="node14" class="node">
<title>Node16</title>
<g id="a_node14"><a xlink:href="RenderComponent_8cpp.html" target="_top" xlink:title="/mnt/hdd/fnky/C0de\l/CAPSTONE/clean_build\l/src/Components/RenderComponent.cpp">
<polygon fill="none" stroke="#000000" points="2201.5,-6 2201.5,-47 2396.5,-47 2396.5,-6 2201.5,-6"/>
<text text-anchor="start" x="2209.5" y="-35" font-family="Helvetica,sans-Serif" font-size="10.00" fill="#000000">/mnt/hdd/fnky/C0de</text>
<text text-anchor="start" x="2209.5" y="-24" font-family="Helvetica,sans-Serif" font-size="10.00" fill="#000000">/CAPSTONE/clean_build</text>
<text text-anchor="middle" x="2299" y="-13" font-family="Helvetica,sans-Serif" font-size="10.00" fill="#000000">/src/Components/RenderComponent.cpp</text>
</a>
</g>
</g>
<!-- Node3&#45;&gt;Node16 -->
<g id="edge21" class="edge">
<title>Node3&#45;&gt;Node16</title>
<path fill="none" stroke="#191970" d="M1983.3042,-235.3363C1982.9015,-195.8077 1988.5488,-127.5836 2028,-89 2081.3508,-36.8225 2119.3311,-69.9714 2192,-53 2200.1067,-51.1067 2208.5479,-49.0917 2216.9758,-47.051"/>
<polygon fill="#191970" stroke="#191970" points="1979.8076,-235.5269 1983.5461,-245.4402 1986.8056,-235.3593 1979.8076,-235.5269"/>
</g>
<!-- Node17 -->
<g id="node15" class="node">
<title>Node17</title>
<g id="a_node15"><a xlink:href="LoadingGameObjects_8cpp.html" target="_top" xlink:title="/mnt/hdd/fnky/C0de\l/CAPSTONE/clean_build\l/src/Loaders/LoadingGameObjects.cpp">
<polygon fill="none" stroke="#000000" points="2414,-6 2414,-47 2600,-47 2600,-6 2414,-6"/>
<text text-anchor="start" x="2422" y="-35" font-family="Helvetica,sans-Serif" font-size="10.00" fill="#000000">/mnt/hdd/fnky/C0de</text>
<text text-anchor="start" x="2422" y="-24" font-family="Helvetica,sans-Serif" font-size="10.00" fill="#000000">/CAPSTONE/clean_build</text>
<text text-anchor="middle" x="2507" y="-13" font-family="Helvetica,sans-Serif" font-size="10.00" fill="#000000">/src/Loaders/LoadingGameObjects.cpp</text>
</a>
</g>
</g>
<!-- Node3&#45;&gt;Node17 -->
<g id="edge24" class="edge">
<title>Node3&#45;&gt;Node17</title>
<path fill="none" stroke="#191970" d="M2001.2515,-236.4812C2014.8154,-214.4038 2036.0782,-185.0321 2062,-167 2093.0506,-145.4002 2315.6095,-80.5459 2433.7453,-47.0392"/>
<polygon fill="#191970" stroke="#191970" points="1998.2029,-234.76 1996.0915,-245.1424 2004.2165,-238.3428 1998.2029,-234.76"/>
</g>
<!-- Node22 -->
<g id="node20" class="node">
<title>Node22</title>
<g id="a_node20"><a xlink:href="sprite_8cpp.html" target="_top" xlink:title="/mnt/hdd/fnky/C0de\l/CAPSTONE/clean_build\l/src/Graphics/sprite.cpp">
<polygon fill="none" stroke="#000000" points="1829.5,-89.5 1829.5,-130.5 1956.5,-130.5 1956.5,-89.5 1829.5,-89.5"/>
<text text-anchor="start" x="1837.5" y="-118.5" font-family="Helvetica,sans-Serif" font-size="10.00" fill="#000000">/mnt/hdd/fnky/C0de</text>
<text text-anchor="start" x="1837.5" y="-107.5" font-family="Helvetica,sans-Serif" font-size="10.00" fill="#000000">/CAPSTONE/clean_build</text>
<text text-anchor="middle" x="1893" y="-96.5" font-family="Helvetica,sans-Serif" font-size="10.00" fill="#000000">/src/Graphics/sprite.cpp</text>
</a>
</g>
</g>
<!-- Node3&#45;&gt;Node22 -->
<g id="edge22" class="edge">
<title>Node3&#45;&gt;Node22</title>
<path fill="none" stroke="#191970" d="M1976.7018,-235.4876C1970.3687,-215.1403 1960.4373,-188.3172 1947,-167 1938.6407,-153.7386 1926.8946,-140.8892 1916.4915,-130.7579"/>
<polygon fill="#191970" stroke="#191970" points="1973.3844,-236.6106 1979.6032,-245.1884 1980.0909,-234.6048 1973.3844,-236.6106"/>
</g>
<!-- Node23 -->
<g id="node21" class="node">
<title>Node23</title>
<g id="a_node21"><a xlink:href="texture_8cpp.html" target="_top" xlink:title="/mnt/hdd/fnky/C0de\l/CAPSTONE/clean_build\l/src/Graphics/texture.cpp">
<polygon fill="none" stroke="#000000" points="2070.5,-167.5 2070.5,-208.5 2197.5,-208.5 2197.5,-167.5 2070.5,-167.5"/>
<text text-anchor="start" x="2078.5" y="-196.5" font-family="Helvetica,sans-Serif" font-size="10.00" fill="#000000">/mnt/hdd/fnky/C0de</text>
<text text-anchor="start" x="2078.5" y="-185.5" font-family="Helvetica,sans-Serif" font-size="10.00" fill="#000000">/CAPSTONE/clean_build</text>
<text text-anchor="middle" x="2134" y="-174.5" font-family="Helvetica,sans-Serif" font-size="10.00" fill="#000000">/src/Graphics/texture.cpp</text>
</a>
</g>
</g>
<!-- Node3&#45;&gt;Node23 -->
<g id="edge23" class="edge">
<title>Node3&#45;&gt;Node23</title>
<path fill="none" stroke="#191970" d="M2033.4419,-240.6411C2053.3065,-230.2422 2075.9992,-218.3628 2094.7942,-208.5239"/>
<polygon fill="#191970" stroke="#191970" points="2031.7743,-237.5635 2024.5381,-245.3022 2035.0208,-243.7651 2031.7743,-237.5635"/>
</g>
<!-- Node4&#45;&gt;Node5 -->
<g id="edge2" class="edge">
<title>Node4&#45;&gt;Node5</title>
<path fill="none" stroke="#191970" d="M1799.8015,-172.5695C1789.798,-170.6205 1779.6581,-168.712 1770,-167 1678.2443,-150.7349 1573.2909,-134.9462 1498.1374,-124.1265"/>
<polygon fill="#191970" stroke="#191970" points="1799.2487,-176.0278 1809.7366,-174.5263 1800.6015,-169.1597 1799.2487,-176.0278"/>
</g>
<!-- Node4&#45;&gt;Node22 -->
<g id="edge19" class="edge">
<title>Node4&#45;&gt;Node22</title>
<path fill="none" stroke="#191970" d="M1881.4617,-157.3676C1883.6405,-148.4232 1885.9694,-138.8626 1887.9602,-130.6898"/>
<polygon fill="#191970" stroke="#191970" points="1878.0579,-156.5532 1879.0917,-167.0974 1884.859,-158.2099 1878.0579,-156.5532"/>
</g>
<!-- Node6 -->
<g id="node4" class="node">
<title>Node6</title>
<g id="a_node4"><a xlink:href="Animate__Actor_8cpp.html" target="_top" xlink:title="/mnt/hdd/fnky/C0de\l/CAPSTONE/clean_build\l/src/Actors/Animate_Actor.cpp">
<polygon fill="none" stroke="#000000" points="1239.5,-6 1239.5,-47 1390.5,-47 1390.5,-6 1239.5,-6"/>
<text text-anchor="start" x="1247.5" y="-35" font-family="Helvetica,sans-Serif" font-size="10.00" fill="#000000">/mnt/hdd/fnky/C0de</text>
<text text-anchor="start" x="1247.5" y="-24" font-family="Helvetica,sans-Serif" font-size="10.00" fill="#000000">/CAPSTONE/clean_build</text>
<text text-anchor="middle" x="1315" y="-13" font-family="Helvetica,sans-Serif" font-size="10.00" fill="#000000">/src/Actors/Animate_Actor.cpp</text>
</a>
</g>
</g>
<!-- Node5&#45;&gt;Node6 -->
<g id="edge3" class="edge">
<title>Node5&#45;&gt;Node6</title>
<path fill="none" stroke="#191970" d="M1369.6267,-82.126C1358.4185,-70.7127 1345.6772,-57.7384 1335.3207,-47.1924"/>
<polygon fill="#191970" stroke="#191970" points="1367.2264,-84.677 1376.7303,-89.3595 1372.2208,-79.7723 1367.2264,-84.677"/>
</g>
<!-- Node7 -->
<g id="node5" class="node">
<title>Node7</title>
<g id="a_node5"><a xlink:href="Animated__Player__Actor_8cpp.html" target="_top" xlink:title="/mnt/hdd/fnky/C0de\l/CAPSTONE/clean_build\l/src/Actors/Animated_Player\l_Actor.cpp">
<polygon fill="none" stroke="#000000" points="1409,-.5 1409,-52.5 1551,-52.5 1551,-.5 1409,-.5"/>
<text text-anchor="start" x="1417" y="-40.5" font-family="Helvetica,sans-Serif" font-size="10.00" fill="#000000">/mnt/hdd/fnky/C0de</text>
<text text-anchor="start" x="1417" y="-29.5" font-family="Helvetica,sans-Serif" font-size="10.00" fill="#000000">/CAPSTONE/clean_build</text>
<text text-anchor="start" x="1417" y="-18.5" font-family="Helvetica,sans-Serif" font-size="10.00" fill="#000000">/src/Actors/Animated_Player</text>
<text text-anchor="middle" x="1480" y="-7.5" font-family="Helvetica,sans-Serif" font-size="10.00" fill="#000000">_Actor.cpp</text>
</a>
</g>
</g>
<!-- Node5&#45;&gt;Node7 -->
<g id="edge4" class="edge">
<title>Node5&#45;&gt;Node7</title>
<path fill="none" stroke="#191970" d="M1424.8192,-82.0132C1434.2636,-72.512 1444.7722,-61.94 1454.0637,-52.5925"/>
<polygon fill="#191970" stroke="#191970" points="1422.0844,-79.7998 1417.5169,-89.3595 1427.049,-84.7347 1422.0844,-79.7998"/>
</g>
<!-- Node8 -->
<g id="node6" class="node">
<title>Node8</title>
<g id="a_node6"><a xlink:href="Edge__Actor_8cpp.html" target="_top" xlink:title="/mnt/hdd/fnky/C0de\l/CAPSTONE/clean_build\l/src/Actors/Edge_Actor.cpp">
<polygon fill="none" stroke="#000000" points="1569.5,-6 1569.5,-47 1706.5,-47 1706.5,-6 1569.5,-6"/>
<text text-anchor="start" x="1577.5" y="-35" font-family="Helvetica,sans-Serif" font-size="10.00" fill="#000000">/mnt/hdd/fnky/C0de</text>
<text text-anchor="start" x="1577.5" y="-24" font-family="Helvetica,sans-Serif" font-size="10.00" fill="#000000">/CAPSTONE/clean_build</text>
<text text-anchor="middle" x="1638" y="-13" font-family="Helvetica,sans-Serif" font-size="10.00" fill="#000000">/src/Actors/Edge_Actor.cpp</text>
</a>
</g>
</g>
<!-- Node5&#45;&gt;Node8 -->
<g id="edge5" class="edge">
<title>Node5&#45;&gt;Node8</title>
<path fill="none" stroke="#191970" d="M1466.0793,-86.0659C1501.6174,-73.7529 1544.5003,-58.8951 1578.5472,-47.0988"/>
<polygon fill="#191970" stroke="#191970" points="1464.567,-82.8857 1456.2639,-89.4667 1466.8587,-89.4999 1464.567,-82.8857"/>
</g>
<!-- Node9 -->
<g id="node7" class="node">
<title>Node9</title>
<g id="a_node7"><a xlink:href="Gun__Actor_8cpp.html" target="_top" xlink:title="/mnt/hdd/fnky/C0de\l/CAPSTONE/clean_build\l/src/Actors/Gun_Actor.cpp">
<polygon fill="none" stroke="#000000" points="1724.5,-6 1724.5,-47 1857.5,-47 1857.5,-6 1724.5,-6"/>
<text text-anchor="start" x="1732.5" y="-35" font-family="Helvetica,sans-Serif" font-size="10.00" fill="#000000">/mnt/hdd/fnky/C0de</text>
<text text-anchor="start" x="1732.5" y="-24" font-family="Helvetica,sans-Serif" font-size="10.00" fill="#000000">/CAPSTONE/clean_build</text>
<text text-anchor="middle" x="1791" y="-13" font-family="Helvetica,sans-Serif" font-size="10.00" fill="#000000">/src/Actors/Gun_Actor.cpp</text>
</a>
</g>
</g>
<!-- Node5&#45;&gt;Node9 -->
<g id="edge6" class="edge">
<title>Node5&#45;&gt;Node9</title>
<path fill="none" stroke="#191970" d="M1508.2858,-94.6696C1570.0159,-85.0311 1647.8577,-70.9982 1716,-53 1722.5424,-51.272 1729.328,-49.2346 1736.0241,-47.0696"/>
<polygon fill="#191970" stroke="#191970" points="1507.4789,-91.2527 1498.1305,-96.2384 1508.5477,-98.1706 1507.4789,-91.2527"/>
</g>
<!-- Node10 -->
<g id="node8" class="node">
<title>Node10</title>
<g id="a_node8"><a xlink:href="NPC__Actor_8cpp.html" target="_top" xlink:title="/mnt/hdd/fnky/C0de\l/CAPSTONE/clean_build\l/src/Actors/NPC_Actor.cpp">
<polygon fill="none" stroke="#000000" points="1875.5,-6 1875.5,-47 2012.5,-47 2012.5,-6 1875.5,-6"/>
<text text-anchor="start" x="1883.5" y="-35" font-family="Helvetica,sans-Serif" font-size="10.00" fill="#000000">/mnt/hdd/fnky/C0de</text>
<text text-anchor="start" x="1883.5" y="-24" font-family="Helvetica,sans-Serif" font-size="10.00" fill="#000000">/CAPSTONE/clean_build</text>
<text text-anchor="middle" x="1944" y="-13" font-family="Helvetica,sans-Serif" font-size="10.00" fill="#000000">/src/Actors/NPC_Actor.cpp</text>
</a>
</g>
</g>
<!-- Node5&#45;&gt;Node10 -->
<g id="edge7" class="edge">
<title>Node5&#45;&gt;Node10</title>
<path fill="none" stroke="#191970" d="M1508.4698,-103.1261C1604.4277,-95.635 1746.1162,-80.8039 1867,-53 1874.1645,-51.3521 1881.5954,-49.2803 1888.8889,-47.0248"/>
<polygon fill="#191970" stroke="#191970" points="1508.1599,-99.6395 1498.4569,-103.8941 1508.6953,-106.619 1508.1599,-99.6395"/>
</g>
<!-- Node11 -->
<g id="node9" class="node">
<title>Node11</title>
<g id="a_node9"><a xlink:href="PickUps__Actor_8cpp.html" target="_top" xlink:title="/mnt/hdd/fnky/C0de\l/CAPSTONE/clean_build\l/src/Actors/PickUps_Actor.cpp">
<polygon fill="none" stroke="#000000" points="2031,-6 2031,-47 2183,-47 2183,-6 2031,-6"/>
<text text-anchor="start" x="2039" y="-35" font-family="Helvetica,sans-Serif" font-size="10.00" fill="#000000">/mnt/hdd/fnky/C0de</text>
<text text-anchor="start" x="2039" y="-24" font-family="Helvetica,sans-Serif" font-size="10.00" fill="#000000">/CAPSTONE/clean_build</text>
<text text-anchor="middle" x="2107" y="-13" font-family="Helvetica,sans-Serif" font-size="10.00" fill="#000000">/src/Actors/PickUps_Actor.cpp</text>
</a>
</g>
</g>
<!-- Node5&#45;&gt;Node11 -->
<g id="edge8" class="edge">
<title>Node5&#45;&gt;Node11</title>
<path fill="none" stroke="#191970" d="M1508.0927,-106.9402C1633.8539,-101.8463 1844.3497,-88.3797 2022,-53 2030.0347,-51.3999 2038.3858,-49.3264 2046.5779,-47.0443"/>
<polygon fill="#191970" stroke="#191970" points="1507.9183,-103.4443 1498.0641,-107.3359 1508.1944,-110.4388 1507.9183,-103.4443"/>
</g>
<!-- Node12 -->
<g id="node10" class="node">
<title>Node12</title>
<g id="a_node10"><a xlink:href="Platform__Actor_8cpp.html" target="_top" xlink:title="/mnt/hdd/fnky/C0de\l/CAPSTONE/clean_build\l/src/Actors/Platform_Actor.cpp">
<polygon fill="none" stroke="#000000" points="0,-6 0,-47 152,-47 152,-6 0,-6"/>
<text text-anchor="start" x="8" y="-35" font-family="Helvetica,sans-Serif" font-size="10.00" fill="#000000">/mnt/hdd/fnky/C0de</text>
<text text-anchor="start" x="8" y="-24" font-family="Helvetica,sans-Serif" font-size="10.00" fill="#000000">/CAPSTONE/clean_build</text>
<text text-anchor="middle" x="76" y="-13" font-family="Helvetica,sans-Serif" font-size="10.00" fill="#000000">/src/Actors/Platform_Actor.cpp</text>
</a>
</g>
</g>
<!-- Node5&#45;&gt;Node12 -->
<g id="edge9" class="edge">
<title>Node5&#45;&gt;Node12</title>
<path fill="none" stroke="#191970" d="M1285.3761,-108.5051C1023.3961,-104.4059 375.1229,-90.671 161,-53 152.4747,-51.5001 143.6119,-49.3884 134.9671,-47.0043"/>
<polygon fill="#191970" stroke="#191970" points="1285.6143,-112.0091 1295.6673,-108.6642 1285.7226,-105.0099 1285.6143,-112.0091"/>
</g>
<!-- Node13 -->
<g id="node11" class="node">
<title>Node13</title>
<g id="a_node11"><a xlink:href="Player__Actor_8cpp.html" target="_top" xlink:title="/mnt/hdd/fnky/C0de\l/CAPSTONE/clean_build\l/src/Actors/Player_Actor.cpp">
<polygon fill="none" stroke="#000000" points="170.5,-6 170.5,-47 313.5,-47 313.5,-6 170.5,-6"/>
<text text-anchor="start" x="178.5" y="-35" font-family="Helvetica,sans-Serif" font-size="10.00" fill="#000000">/mnt/hdd/fnky/C0de</text>
<text text-anchor="start" x="178.5" y="-24" font-family="Helvetica,sans-Serif" font-size="10.00" fill="#000000">/CAPSTONE/clean_build</text>
<text text-anchor="middle" x="242" y="-13" font-family="Helvetica,sans-Serif" font-size="10.00" fill="#000000">/src/Actors/Player_Actor.cpp</text>
</a>
</g>
</g>
<!-- Node5&#45;&gt;Node13 -->
<g id="edge10" class="edge">
<title>Node5&#45;&gt;Node13</title>
<path fill="none" stroke="#191970" d="M1285.5435,-107.8529C1049.1171,-102.6838 504.0966,-87.346 322,-53 314.0924,-51.5085 305.8899,-49.4347 297.8843,-47.0977"/>
<polygon fill="#191970" stroke="#191970" points="1285.8076,-111.3593 1295.881,-108.0767 1285.9591,-104.361 1285.8076,-111.3593"/>
</g>
<!-- Node14 -->
<g id="node12" class="node">
<title>Node14</title>
<g id="a_node12"><a xlink:href="Projectile__Actor_8cpp.html" target="_top" xlink:title="/mnt/hdd/fnky/C0de\l/CAPSTONE/clean_build\l/src/Actors/Projectile\l_Actor.cpp">
<polygon fill="none" stroke="#000000" points="331.5,-.5 331.5,-52.5 458.5,-52.5 458.5,-.5 331.5,-.5"/>
<text text-anchor="start" x="339.5" y="-40.5" font-family="Helvetica,sans-Serif" font-size="10.00" fill="#000000">/mnt/hdd/fnky/C0de</text>
<text text-anchor="start" x="339.5" y="-29.5" font-family="Helvetica,sans-Serif" font-size="10.00" fill="#000000">/CAPSTONE/clean_build</text>
<text text-anchor="start" x="339.5" y="-18.5" font-family="Helvetica,sans-Serif" font-size="10.00" fill="#000000">/src/Actors/Projectile</text>
<text text-anchor="middle" x="395" y="-7.5" font-family="Helvetica,sans-Serif" font-size="10.00" fill="#000000">_Actor.cpp</text>
</a>
</g>
</g>
<!-- Node5&#45;&gt;Node14 -->
<g id="edge11" class="edge">
<title>Node5&#45;&gt;Node14</title>
<path fill="none" stroke="#191970" d="M1285.5521,-107.1579C1073.8739,-101.0997 621.1339,-84.7998 468,-53 464.9637,-52.3695 461.8838,-51.6384 458.7925,-50.8298"/>
<polygon fill="#191970" stroke="#191970" points="1285.6606,-110.6623 1295.7559,-107.4474 1285.8592,-103.6651 1285.6606,-110.6623"/>
</g>
<!-- Node15 -->
<g id="node13" class="node">
<title>Node15</title>
<g id="a_node13"><a xlink:href="Texture__Actor_8cpp.html" target="_top" xlink:title="/mnt/hdd/fnky/C0de\l/CAPSTONE/clean_build\l/src/Actors/Texture_Actor.cpp">
<polygon fill="none" stroke="#000000" points="477,-6 477,-47 625,-47 625,-6 477,-6"/>
<text text-anchor="start" x="485" y="-35" font-family="Helvetica,sans-Serif" font-size="10.00" fill="#000000">/mnt/hdd/fnky/C0de</text>
<text text-anchor="start" x="485" y="-24" font-family="Helvetica,sans-Serif" font-size="10.00" fill="#000000">/CAPSTONE/clean_build</text>
<text text-anchor="middle" x="551" y="-13" font-family="Helvetica,sans-Serif" font-size="10.00" fill="#000000">/src/Actors/Texture_Actor.cpp</text>
</a>
</g>
</g>
<!-- Node5&#45;&gt;Node15 -->
<g id="edge12" class="edge">
<title>Node5&#45;&gt;Node15</title>
<path fill="none" stroke="#191970" d="M1285.639,-104.8953C1104.8788,-96.0679 755.58,-76.6101 634,-53 625.9816,-51.4429 617.6529,-49.3635 609.5015,-47.0516"/>
<polygon fill="#191970" stroke="#191970" points="1285.5496,-108.395 1295.7077,-105.3845 1285.8893,-101.4032 1285.5496,-108.395"/>
</g>
<!-- Node5&#45;&gt;Node16 -->
<g id="edge13" class="edge">
<title>Node5&#45;&gt;Node16</title>
<path fill="none" stroke="#191970" d="M1508.1654,-104.3873C1694.844,-94.566 2063.5032,-73.3647 2192,-53 2202.1124,-51.3973 2212.6713,-49.3072 2223.0485,-47.0032"/>
<polygon fill="#191970" stroke="#191970" points="1507.8518,-100.8989 1498.0488,-104.9178 1508.2184,-107.8893 1507.8518,-100.8989"/>
</g>
<!-- Node5&#45;&gt;Node17 -->
<g id="edge14" class="edge">
<title>Node5&#45;&gt;Node17</title>
<path fill="none" stroke="#191970" d="M1508.4798,-104.3021C1761.8154,-91.272 2362.3305,-59.8912 2406,-53 2415.7591,-51.46 2425.9406,-49.3746 2435.9222,-47.0459"/>
<polygon fill="#191970" stroke="#191970" points="1507.9546,-100.8244 1498.1475,-104.8333 1508.3141,-107.8151 1507.9546,-100.8244"/>
</g>
<!-- Node18 -->
<g id="node16" class="node">
<title>Node18</title>
<g id="a_node16"><a xlink:href="game__over__state_8cpp.html" target="_top" xlink:title="/mnt/hdd/fnky/C0de\l/CAPSTONE/clean_build\l/src/States/game_over\l_state.cpp">
<polygon fill="none" stroke="#000000" points="643.5,-.5 643.5,-52.5 770.5,-52.5 770.5,-.5 643.5,-.5"/>
<text text-anchor="start" x="651.5" y="-40.5" font-family="Helvetica,sans-Serif" font-size="10.00" fill="#000000">/mnt/hdd/fnky/C0de</text>
<text text-anchor="start" x="651.5" y="-29.5" font-family="Helvetica,sans-Serif" font-size="10.00" fill="#000000">/CAPSTONE/clean_build</text>
<text text-anchor="start" x="651.5" y="-18.5" font-family="Helvetica,sans-Serif" font-size="10.00" fill="#000000">/src/States/game_over</text>
<text text-anchor="middle" x="707" y="-7.5" font-family="Helvetica,sans-Serif" font-size="10.00" fill="#000000">_state.cpp</text>
</a>
</g>
</g>
<!-- Node5&#45;&gt;Node18 -->
<g id="edge15" class="edge">
<title>Node5&#45;&gt;Node18</title>
<path fill="none" stroke="#191970" d="M1285.6716,-103.2241C1134.5168,-93.4229 872.4886,-74.1338 779,-53 776.2717,-52.3832 773.5065,-51.6894 770.7288,-50.9351"/>
<polygon fill="#191970" stroke="#191970" points="1285.7073,-106.7336 1295.9119,-103.8846 1286.1579,-99.7481 1285.7073,-106.7336"/>
</g>
<!-- Node19 -->
<g id="node17" class="node">
<title>Node19</title>
<g id="a_node17"><a xlink:href="game__play__state_8cpp.html" target="_top" xlink:title="/mnt/hdd/fnky/C0de\l/CAPSTONE/clean_build\l/src/States/game_play\l_state.cpp">
<polygon fill="none" stroke="#000000" points="788.5,-.5 788.5,-52.5 915.5,-52.5 915.5,-.5 788.5,-.5"/>
<text text-anchor="start" x="796.5" y="-40.5" font-family="Helvetica,sans-Serif" font-size="10.00" fill="#000000">/mnt/hdd/fnky/C0de</text>
<text text-anchor="start" x="796.5" y="-29.5" font-family="Helvetica,sans-Serif" font-size="10.00" fill="#000000">/CAPSTONE/clean_build</text>
<text text-anchor="start" x="796.5" y="-18.5" font-family="Helvetica,sans-Serif" font-size="10.00" fill="#000000">/src/States/game_play</text>
<text text-anchor="middle" x="852" y="-7.5" font-family="Helvetica,sans-Serif" font-size="10.00" fill="#000000">_state.cpp</text>
</a>
</g>
</g>
<!-- Node5&#45;&gt;Node19 -->
<g id="edge16" class="edge">
<title>Node5&#45;&gt;Node19</title>
<path fill="none" stroke="#191970" d="M1285.5918,-103.91C1188.9122,-96.8918 1045.7402,-82.3147 924,-53 921.2806,-52.3452 918.5228,-51.6195 915.7513,-50.8389"/>
<polygon fill="#191970" stroke="#191970" points="1285.4553,-107.4091 1295.6784,-104.6271 1285.9518,-100.4267 1285.4553,-107.4091"/>
</g>
<!-- Node20 -->
<g id="node18" class="node">
<title>Node20</title>
<g id="a_node18"><a xlink:href="main__menu__state_8cpp.html" target="_top" xlink:title="/mnt/hdd/fnky/C0de\l/CAPSTONE/clean_build\l/src/States/main_menu\l_state.cpp">
<polygon fill="none" stroke="#000000" points="933.5,-.5 933.5,-52.5 1060.5,-52.5 1060.5,-.5 933.5,-.5"/>
<text text-anchor="start" x="941.5" y="-40.5" font-family="Helvetica,sans-Serif" font-size="10.00" fill="#000000">/mnt/hdd/fnky/C0de</text>
<text text-anchor="start" x="941.5" y="-29.5" font-family="Helvetica,sans-Serif" font-size="10.00" fill="#000000">/CAPSTONE/clean_build</text>
<text text-anchor="start" x="941.5" y="-18.5" font-family="Helvetica,sans-Serif" font-size="10.00" fill="#000000">/src/States/main_menu</text>
<text text-anchor="middle" x="997" y="-7.5" font-family="Helvetica,sans-Serif" font-size="10.00" fill="#000000">_state.cpp</text>
</a>
</g>
</g>
<!-- Node5&#45;&gt;Node20 -->
<g id="edge17" class="edge">
<title>Node5&#45;&gt;Node20</title>
<path fill="none" stroke="#191970" d="M1285.7489,-95.5637C1221.9982,-86.062 1140.8276,-71.872 1070,-53 1067.0035,-52.2016 1063.9562,-51.3327 1060.8914,-50.4125"/>
<polygon fill="#191970" stroke="#191970" points="1285.4233,-99.0535 1295.8267,-97.0485 1286.4436,-92.1282 1285.4233,-99.0535"/>
</g>
<!-- Node21 -->
<g id="node19" class="node">
<title>Node21</title>
<g id="a_node19"><a xlink:href="splash__state_8cpp.html" target="_top" xlink:title="/mnt/hdd/fnky/C0de\l/CAPSTONE/clean_build\l/src/States/splash_state.cpp">
<polygon fill="none" stroke="#000000" points="1079,-6 1079,-47 1221,-47 1221,-6 1079,-6"/>
<text text-anchor="start" x="1087" y="-35" font-family="Helvetica,sans-Serif" font-size="10.00" fill="#000000">/mnt/hdd/fnky/C0de</text>
<text text-anchor="start" x="1087" y="-24" font-family="Helvetica,sans-Serif" font-size="10.00" fill="#000000">/CAPSTONE/clean_build</text>
<text text-anchor="middle" x="1150" y="-13" font-family="Helvetica,sans-Serif" font-size="10.00" fill="#000000">/src/States/splash_state.cpp</text>
</a>
</g>
</g>
<!-- Node5&#45;&gt;Node21 -->
<g id="edge18" class="edge">
<title>Node5&#45;&gt;Node21</title>
<path fill="none" stroke="#191970" d="M1326.6675,-86.2236C1290.1538,-73.8799 1245.9766,-58.9455 1210.933,-47.0988"/>
<polygon fill="#191970" stroke="#191970" points="1325.6664,-89.5797 1336.2607,-89.4667 1327.9082,-82.9484 1325.6664,-89.5797"/>
</g>
</g>
</svg>
