<?xml version="1.0" encoding="UTF-8" standalone="no"?>
<!DOCTYPE svg PUBLIC "-//W3C//DTD SVG 1.1//EN"
 "http://www.w3.org/Graphics/SVG/1.1/DTD/svg11.dtd">
<!-- Generated by graphviz version 2.40.1 (20161225.0304)
 -->
<!-- Title: /mnt/hdd/fnky/C0de/CAPSTONE/clean_build/include/Components/TextRenderComponent.h Pages: 1 -->
<svg width="481pt" height="173pt"
 viewBox="0.00 0.00 480.50 173.00" xmlns="http://www.w3.org/2000/svg" xmlns:xlink="http://www.w3.org/1999/xlink">
<g id="graph0" class="graph" transform="scale(1 1) rotate(0) translate(4 169)">
<title>/mnt/hdd/fnky/C0de/CAPSTONE/clean_build/include/Components/TextRenderComponent.h</title>
<!-- Node0 -->
<g id="node1" class="node">
<title>Node0</title>
<polygon fill="#bfbfbf" stroke="#000000" points="168,-112.5 168,-164.5 331,-164.5 331,-112.5 168,-112.5"/>
<text text-anchor="start" x="176" y="-152.5" font-family="Helvetica,sans-Serif" font-size="10.00" fill="#000000">/mnt/hdd/fnky/C0de</text>
<text text-anchor="start" x="176" y="-141.5" font-family="Helvetica,sans-Serif" font-size="10.00" fill="#000000">/CAPSTONE/clean_build</text>
<text text-anchor="start" x="176" y="-130.5" font-family="Helvetica,sans-Serif" font-size="10.00" fill="#000000">/include/Components/TextRender</text>
<text text-anchor="middle" x="249.5" y="-119.5" font-family="Helvetica,sans-Serif" font-size="10.00" fill="#000000">Component.h</text>
</g>
<!-- Node1 -->
<g id="node2" class="node">
<title>Node1</title>
<polygon fill="none" stroke="#bfbfbf" points="0,-56.5 0,-75.5 43,-75.5 43,-56.5 0,-56.5"/>
<text text-anchor="middle" x="21.5" y="-63.5" font-family="Helvetica,sans-Serif" font-size="10.00" fill="#000000">cstdio</text>
</g>
<!-- Node0&#45;&gt;Node1 -->
<g id="edge1" class="edge">
<title>Node0&#45;&gt;Node1</title>
<path fill="none" stroke="#191970" d="M167.5221,-112.5891C134.5496,-102.144 95.9572,-89.8893 52.759,-76.0733"/>
<polygon fill="#191970" stroke="#191970" points="53.7669,-72.7211 43.1759,-73.0069 51.6335,-79.3881 53.7669,-72.7211"/>
</g>
<!-- Node2 -->
<g id="node3" class="node">
<title>Node2</title>
<polygon fill="none" stroke="#bfbfbf" points="61.5,-56.5 61.5,-75.5 125.5,-75.5 125.5,-56.5 61.5,-56.5"/>
<text text-anchor="middle" x="93.5" y="-63.5" font-family="Helvetica,sans-Serif" font-size="10.00" fill="#000000">glad/glad.h</text>
</g>
<!-- Node0&#45;&gt;Node2 -->
<g id="edge2" class="edge">
<title>Node0&#45;&gt;Node2</title>
<path fill="none" stroke="#191970" d="M193.1804,-112.3258C169.4801,-101.3112 142.8788,-88.9485 123.1212,-79.7663"/>
<polygon fill="#191970" stroke="#191970" points="124.5582,-76.5746 114.0145,-75.534 121.6079,-82.9226 124.5582,-76.5746"/>
</g>
<!-- Node3 -->
<g id="node4" class="node">
<title>Node3</title>
<polygon fill="none" stroke="#bfbfbf" points="143.5,-56.5 143.5,-75.5 213.5,-75.5 213.5,-56.5 143.5,-56.5"/>
<text text-anchor="middle" x="178.5" y="-63.5" font-family="Helvetica,sans-Serif" font-size="10.00" fill="#000000">glm/glm.hpp</text>
</g>
<!-- Node0&#45;&gt;Node3 -->
<g id="edge3" class="edge">
<title>Node0&#45;&gt;Node3</title>
<path fill="none" stroke="#191970" d="M223.8674,-112.3258C214.2574,-102.5128 203.5995,-91.6298 195.0298,-82.879"/>
<polygon fill="#191970" stroke="#191970" points="197.3342,-80.2297 187.8367,-75.534 192.3329,-85.1275 197.3342,-80.2297"/>
</g>
<!-- Node4 -->
<g id="node5" class="node">
<title>Node4</title>
<polygon fill="none" stroke="#bfbfbf" points="232,-56.5 232,-75.5 267,-75.5 267,-56.5 232,-56.5"/>
<text text-anchor="middle" x="249.5" y="-63.5" font-family="Helvetica,sans-Serif" font-size="10.00" fill="#000000">map</text>
</g>
<!-- Node0&#45;&gt;Node4 -->
<g id="edge4" class="edge">
<title>Node0&#45;&gt;Node4</title>
<path fill="none" stroke="#191970" d="M249.5,-112.3258C249.5,-103.5142 249.5,-93.8397 249.5,-85.621"/>
<polygon fill="#191970" stroke="#191970" points="253.0001,-85.534 249.5,-75.534 246.0001,-85.534 253.0001,-85.534"/>
</g>
<!-- Node5 -->
<g id="node6" class="node">
<title>Node5</title>
<g id="a_node6"><a xlink:href="Components_2Component_8h.html" target="_top" xlink:title="Component.h">
<polygon fill="none" stroke="#000000" points="285,-56.5 285,-75.5 360,-75.5 360,-56.5 285,-56.5"/>
<text text-anchor="middle" x="322.5" y="-63.5" font-family="Helvetica,sans-Serif" font-size="10.00" fill="#000000">Component.h</text>
</a>
</g>
</g>
<!-- Node0&#45;&gt;Node5 -->
<g id="edge5" class="edge">
<title>Node0&#45;&gt;Node5</title>
<path fill="none" stroke="#191970" d="M275.8547,-112.3258C285.8362,-102.4127 296.9172,-91.4075 305.7736,-82.6118"/>
<polygon fill="#191970" stroke="#191970" points="308.2713,-85.0641 312.9002,-75.534 303.3385,-80.0974 308.2713,-85.0641"/>
</g>
<!-- Node6 -->
<g id="node7" class="node">
<title>Node6</title>
<polygon fill="none" stroke="#bfbfbf" points="329.5,-.5 329.5,-19.5 381.5,-19.5 381.5,-.5 329.5,-.5"/>
<text text-anchor="middle" x="355.5" y="-7.5" font-family="Helvetica,sans-Serif" font-size="10.00" fill="#000000">memory</text>
</g>
<!-- Node0&#45;&gt;Node6 -->
<g id="edge7" class="edge">
<title>Node0&#45;&gt;Node6</title>
<path fill="none" stroke="#191970" d="M329.3934,-112.4169C345.3345,-103.4328 360.0576,-91.5642 369.5,-76 378.2022,-61.6558 372.7838,-42.7017 366.3217,-28.7867"/>
<polygon fill="#191970" stroke="#191970" points="369.3182,-26.9612 361.6189,-19.683 363.099,-30.174 369.3182,-26.9612"/>
</g>
<!-- Node7 -->
<g id="node8" class="node">
<title>Node7</title>
<polygon fill="none" stroke="#bfbfbf" points="416.5,-56.5 416.5,-75.5 472.5,-75.5 472.5,-56.5 416.5,-56.5"/>
<text text-anchor="middle" x="444.5" y="-63.5" font-family="Helvetica,sans-Serif" font-size="10.00" fill="#000000">ft2build.h</text>
</g>
<!-- Node0&#45;&gt;Node7 -->
<g id="edge8" class="edge">
<title>Node0&#45;&gt;Node7</title>
<path fill="none" stroke="#191970" d="M319.624,-112.4283C350.0842,-101.1033 384.4236,-88.3361 409.3722,-79.0604"/>
<polygon fill="#191970" stroke="#191970" points="410.6266,-82.3281 418.78,-75.5626 408.1871,-75.7669 410.6266,-82.3281"/>
</g>
<!-- Node5&#45;&gt;Node6 -->
<g id="edge6" class="edge">
<title>Node5&#45;&gt;Node6</title>
<path fill="none" stroke="#191970" d="M328.2482,-56.2455C332.7435,-48.617 339.1248,-37.7881 344.5825,-28.5267"/>
<polygon fill="#191970" stroke="#191970" points="347.7561,-30.035 349.8177,-19.6427 341.7253,-26.4811 347.7561,-30.035"/>
</g>
</g>
</svg>
