<?xml version="1.0" encoding="UTF-8" standalone="no"?>
<!DOCTYPE svg PUBLIC "-//W3C//DTD SVG 1.1//EN"
 "http://www.w3.org/Graphics/SVG/1.1/DTD/svg11.dtd">
<!-- Generated by graphviz version 2.40.1 (20161225.0304)
 -->
<!-- Title: /mnt/hdd/fnky/C0de/CAPSTONE/clean_build/src/Actors/Texture_Actor.cpp Pages: 1 -->
<!--zoomable 296 -->
<svg id="main" version="1.1" xmlns="http://www.w3.org/2000/svg" xmlns:xlink="http://www.w3.org/1999/xlink" xml:space="preserve" onload="init(evt)">
<style type="text/css"><![CDATA[
.edge:hover path { stroke: red; }
.edge:hover polygon { stroke: red; fill: red; }
]]></style>
<script type="text/javascript"><![CDATA[
var edges = document.getElementsByTagName('g');
if (edges && edges.length) {
  for (var i=0;i<edges.length;i++) {
    if (edges[i].id.substr(0,4)=='edge') {
      edges[i].setAttribute('class','edge');
    }
  }
}
]]></script>
        <defs>
                <circle id="rim" cx="0" cy="0" r="7"/>
                <circle id="rim2" cx="0" cy="0" r="3.5"/>
                <g id="zoomPlus">
                        <use xlink:href="#rim" fill="#404040">
                                <set attributeName="fill" to="#808080" begin="zoomplus.mouseover" end="zoomplus.mouseout"/>
                        </use>
                        <path d="M-4,0h8M0,-4v8" fill="none" stroke="white" stroke-width="1.5" pointer-events="none"/>
                </g>
                <g id="zoomMin">
                        <use xlink:href="#rim" fill="#404040">
                                <set attributeName="fill" to="#808080" begin="zoomminus.mouseover" end="zoomminus.mouseout"/>
                        </use>
                        <path d="M-4,0h8" fill="none" stroke="white" stroke-width="1.5" pointer-events="none"/>
                </g>
                <g id="dirArrow">
                        <path fill="none" stroke="white" stroke-width="1.5" d="M0,-3.0v7 M-2.5,-0.5L0,-3.0L2.5,-0.5"/>
                </g>
               <g id="resetDef">
                       <use xlink:href="#rim2" fill="#404040">
                               <set attributeName="fill" to="#808080" begin="reset.mouseover" end="reset.mouseout"/>
                       </use>
               </g>
        </defs>

<script type="text/javascript">
var viewWidth = 1150;
var viewHeight = 296;
var sectionId = 'dynsection-0';
</script>
<script xlink:href="svgpan.js"/>
<svg id="graph" class="graph">
<g id="viewport">
<title>/mnt/hdd/fnky/C0de/CAPSTONE/clean_build/src/Actors/Texture_Actor.cpp</title>
<!-- Node0 -->
<g id="node1" class="node">
<title>Node0</title>
<polygon fill="#bfbfbf" stroke="#000000" points="354.0431,-246.5 354.0431,-287.5 502.0431,-287.5 502.0431,-246.5 354.0431,-246.5"/>
<text text-anchor="start" x="362.0431" y="-275.5" font-family="Helvetica,sans-Serif" font-size="10.00" fill="#000000">/mnt/hdd/fnky/C0de</text>
<text text-anchor="start" x="362.0431" y="-264.5" font-family="Helvetica,sans-Serif" font-size="10.00" fill="#000000">/CAPSTONE/clean_build</text>
<text text-anchor="middle" x="428.0431" y="-253.5" font-family="Helvetica,sans-Serif" font-size="10.00" fill="#000000">/src/Actors/Texture_Actor.cpp</text>
</g>
<!-- Node1 -->
<g id="node2" class="node">
<title>Node1</title>
<g id="a_node2"><a xlink:href="Shader__Actor_8h.html" target="_top" xlink:title="../../include/Actors\l/Shader_Actor.h">
<polygon fill="none" stroke="#000000" points="194.5431,-179.5 194.5431,-209.5 291.5431,-209.5 291.5431,-179.5 194.5431,-179.5"/>
<text text-anchor="start" x="202.5431" y="-197.5" font-family="Helvetica,sans-Serif" font-size="10.00" fill="#000000">../../include/Actors</text>
<text text-anchor="middle" x="243.0431" y="-186.5" font-family="Helvetica,sans-Serif" font-size="10.00" fill="#000000">/Shader_Actor.h</text>
</a>
</g>
</g>
<!-- Node0&#45;&gt;Node1 -->
<g id="edge1" class="edge">
<title>Node0&#45;&gt;Node1</title>
<path fill="none" stroke="#191970" d="M375.5244,-246.4183C349.0019,-236.0244 317.049,-223.5023 291.1692,-213.3602"/>
<polygon fill="#191970" stroke="#191970" points="292.1595,-209.9892 281.5718,-209.5991 289.6053,-216.5066 292.1595,-209.9892"/>
</g>
<!-- Node3 -->
<g id="node4" class="node">
<title>Node3</title>
<polygon fill="none" stroke="#bfbfbf" points="256.0431,-.5 256.0431,-19.5 308.0431,-19.5 308.0431,-.5 256.0431,-.5"/>
<text text-anchor="middle" x="282.0431" y="-7.5" font-family="Helvetica,sans-Serif" font-size="10.00" fill="#000000">memory</text>
</g>
<!-- Node0&#45;&gt;Node3 -->
<g id="edge46" class="edge">
<title>Node0&#45;&gt;Node3</title>
<path fill="none" stroke="#191970" d="M353.6684,-262.0492C262.9515,-254.8413 115.9986,-239.0375 70.0431,-210 39.5075,-190.7058 37.757,-176.4159 24.0431,-143 9.2235,-106.8899 -13.133,-85.8282 12.0431,-56 26.994,-38.2865 175.8117,-20.8698 245.8949,-13.5744"/>
<polygon fill="#191970" stroke="#191970" points="246.447,-17.0362 256.0368,-12.5322 245.7314,-10.0729 246.447,-17.0362"/>
</g>
<!-- Node8 -->
<g id="node9" class="node">
<title>Node8</title>
<g id="a_node9"><a xlink:href="Texture__Actor_8h.html" target="_top" xlink:title="../../include/Actors\l/Texture_Actor.h">
<polygon fill="none" stroke="#000000" points="79.5431,-179.5 79.5431,-209.5 176.5431,-209.5 176.5431,-179.5 79.5431,-179.5"/>
<text text-anchor="start" x="87.5431" y="-197.5" font-family="Helvetica,sans-Serif" font-size="10.00" fill="#000000">../../include/Actors</text>
<text text-anchor="middle" x="128.0431" y="-186.5" font-family="Helvetica,sans-Serif" font-size="10.00" fill="#000000">/Texture_Actor.h</text>
</a>
</g>
</g>
<!-- Node0&#45;&gt;Node8 -->
<g id="edge10" class="edge">
<title>Node0&#45;&gt;Node8</title>
<path fill="none" stroke="#191970" d="M353.9705,-250.335C308.199,-239.8713 248.0227,-225.8178 186.6836,-210.3775"/>
<polygon fill="#191970" stroke="#191970" points="187.3838,-206.9445 176.8311,-207.8878 185.6688,-213.7311 187.3838,-206.9445"/>
</g>
<!-- Node9 -->
<g id="node10" class="node">
<title>Node9</title>
<g id="a_node10"><a xlink:href="TransformComponent_8h.html" target="_top" xlink:title="../../include/Components\l/TransformComponent.h">
<polygon fill="none" stroke="#000000" points="456.0431,-179.5 456.0431,-209.5 580.0431,-209.5 580.0431,-179.5 456.0431,-179.5"/>
<text text-anchor="start" x="464.0431" y="-197.5" font-family="Helvetica,sans-Serif" font-size="10.00" fill="#000000">../../include/Components</text>
<text text-anchor="middle" x="518.0431" y="-186.5" font-family="Helvetica,sans-Serif" font-size="10.00" fill="#000000">/TransformComponent.h</text>
</a>
</g>
</g>
<!-- Node0&#45;&gt;Node9 -->
<g id="edge15" class="edge">
<title>Node0&#45;&gt;Node9</title>
<path fill="none" stroke="#191970" d="M453.5927,-246.4183C465.4156,-236.8944 479.4565,-225.5836 491.4102,-215.9543"/>
<polygon fill="#191970" stroke="#191970" points="493.7075,-218.5981 499.2994,-209.5991 489.3161,-213.1468 493.7075,-218.5981"/>
</g>
<!-- Node12 -->
<g id="node13" class="node">
<title>Node12</title>
<g id="a_node13"><a xlink:href="ShaderComponent_8h.html" target="_top" xlink:title="../../include/Components\l/ShaderComponent.h">
<polygon fill="none" stroke="#000000" points="366.0431,-112.5 366.0431,-142.5 490.0431,-142.5 490.0431,-112.5 366.0431,-112.5"/>
<text text-anchor="start" x="374.0431" y="-130.5" font-family="Helvetica,sans-Serif" font-size="10.00" fill="#000000">../../include/Components</text>
<text text-anchor="middle" x="428.0431" y="-119.5" font-family="Helvetica,sans-Serif" font-size="10.00" fill="#000000">/ShaderComponent.h</text>
</a>
</g>
</g>
<!-- Node0&#45;&gt;Node12 -->
<g id="edge19" class="edge">
<title>Node0&#45;&gt;Node12</title>
<path fill="none" stroke="#191970" d="M428.0431,-246.4163C428.0431,-221.5034 428.0431,-179.5643 428.0431,-152.7297"/>
<polygon fill="#191970" stroke="#191970" points="431.5432,-152.5822 428.0431,-142.5822 424.5432,-152.5823 431.5432,-152.5822"/>
</g>
<!-- Node15 -->
<g id="node16" class="node">
<title>Node15</title>
<g id="a_node16"><a xlink:href="RenderComponent_8h.html" target="_top" xlink:title="../../include/Components\l/RenderComponent.h">
<polygon fill="none" stroke="#000000" points="771.0431,-179.5 771.0431,-209.5 895.0431,-209.5 895.0431,-179.5 771.0431,-179.5"/>
<text text-anchor="start" x="779.0431" y="-197.5" font-family="Helvetica,sans-Serif" font-size="10.00" fill="#000000">../../include/Components</text>
<text text-anchor="middle" x="833.0431" y="-186.5" font-family="Helvetica,sans-Serif" font-size="10.00" fill="#000000">/RenderComponent.h</text>
</a>
</g>
</g>
<!-- Node0&#45;&gt;Node15 -->
<g id="edge24" class="edge">
<title>Node0&#45;&gt;Node15</title>
<path fill="none" stroke="#191970" d="M502.3263,-253.7024C575.9355,-240.5254 687.9422,-220.4748 760.8234,-207.4282"/>
<polygon fill="#191970" stroke="#191970" points="761.6127,-210.8426 770.8395,-205.6352 760.3792,-203.9522 761.6127,-210.8426"/>
</g>
<!-- Node24 -->
<g id="node25" class="node">
<title>Node24</title>
<polygon fill="none" stroke="#bfbfbf" points="913.0431,-185 913.0431,-204 993.0431,-204 993.0431,-185 913.0431,-185"/>
<text text-anchor="middle" x="953.0431" y="-192" font-family="Helvetica,sans-Serif" font-size="10.00" fill="#000000">GLFW/glfw3.h</text>
</g>
<!-- Node0&#45;&gt;Node24 -->
<g id="edge47" class="edge">
<title>Node0&#45;&gt;Node24</title>
<path fill="none" stroke="#191970" d="M502.1409,-262.44C596.3727,-255.6583 763.7102,-240.3181 904.0431,-210 908.0017,-209.1448 912.097,-208.1055 916.156,-206.9744"/>
<polygon fill="#191970" stroke="#191970" points="917.4848,-210.2308 926.0726,-204.026 915.4898,-203.5211 917.4848,-210.2308"/>
</g>
<!-- Node2 -->
<g id="node3" class="node">
<title>Node2</title>
<g id="a_node3"><a xlink:href="Components_2Component_8h.html" target="_top" xlink:title="../Components/Component.h">
<polygon fill="none" stroke="#000000" points="260.5431,-56.5 260.5431,-75.5 403.5431,-75.5 403.5431,-56.5 260.5431,-56.5"/>
<text text-anchor="middle" x="332.0431" y="-63.5" font-family="Helvetica,sans-Serif" font-size="10.00" fill="#000000">../Components/Component.h</text>
</a>
</g>
</g>
<!-- Node1&#45;&gt;Node2 -->
<g id="edge2" class="edge">
<title>Node1&#45;&gt;Node2</title>
<path fill="none" stroke="#191970" d="M253.6021,-179.2548C270.0877,-155.4524 301.8742,-109.5584 319.5011,-84.1084"/>
<polygon fill="#191970" stroke="#191970" points="322.4835,-85.9494 325.3,-75.7358 316.7289,-81.9637 322.4835,-85.9494"/>
</g>
<!-- Node1&#45;&gt;Node3 -->
<g id="edge9" class="edge">
<title>Node1&#45;&gt;Node3</title>
<path fill="none" stroke="#191970" d="M241.373,-179.4568C239.0396,-153.4871 236.5697,-98.9048 251.0431,-56 254.4792,-45.8141 260.8127,-35.7652 266.8636,-27.6704"/>
<polygon fill="#191970" stroke="#191970" points="269.685,-29.7457 273.168,-19.7397 264.2054,-25.3897 269.685,-29.7457"/>
</g>
<!-- Node4 -->
<g id="node5" class="node">
<title>Node4</title>
<g id="a_node5"><a xlink:href="Actor_8h.html" target="_top" xlink:title="Actor.h">
<polygon fill="none" stroke="#000000" points="72.0431,-118 72.0431,-137 120.0431,-137 120.0431,-118 72.0431,-118"/>
<text text-anchor="middle" x="96.0431" y="-125" font-family="Helvetica,sans-Serif" font-size="10.00" fill="#000000">Actor.h</text>
</a>
</g>
</g>
<!-- Node1&#45;&gt;Node4 -->
<g id="edge4" class="edge">
<title>Node1&#45;&gt;Node4</title>
<path fill="none" stroke="#191970" d="M210.0534,-179.4639C184.9443,-168.0196 150.6623,-152.3945 126.2636,-141.274"/>
<polygon fill="#191970" stroke="#191970" points="127.6654,-138.0665 117.1144,-137.1039 124.7622,-144.4361 127.6654,-138.0665"/>
</g>
<!-- Node7 -->
<g id="node8" class="node">
<title>Node7</title>
<polygon fill="none" stroke="#bfbfbf" points="134.0431,-56.5 134.0431,-75.5 204.0431,-75.5 204.0431,-56.5 134.0431,-56.5"/>
<text text-anchor="middle" x="169.0431" y="-63.5" font-family="Helvetica,sans-Serif" font-size="10.00" fill="#000000">glm/fwd.hpp</text>
</g>
<!-- Node1&#45;&gt;Node7 -->
<g id="edge8" class="edge">
<title>Node1&#45;&gt;Node7</title>
<path fill="none" stroke="#191970" d="M232.897,-179.3767C226.1961,-169.2194 217.3386,-155.4637 210.0431,-143 198.6208,-123.4862 186.5767,-100.5443 178.5209,-84.8097"/>
<polygon fill="#191970" stroke="#191970" points="181.5007,-82.9478 173.8496,-75.6191 175.2605,-86.1195 181.5007,-82.9478"/>
</g>
<!-- Node2&#45;&gt;Node3 -->
<g id="edge3" class="edge">
<title>Node2&#45;&gt;Node3</title>
<path fill="none" stroke="#191970" d="M323.3337,-56.2455C316.2358,-48.2958 306.0347,-36.8706 297.5481,-27.3656"/>
<polygon fill="#191970" stroke="#191970" points="299.9236,-24.771 290.6526,-19.6427 294.702,-29.4331 299.9236,-24.771"/>
</g>
<!-- Node4&#45;&gt;Node2 -->
<g id="edge7" class="edge">
<title>Node4&#45;&gt;Node2</title>
<path fill="none" stroke="#191970" d="M120.4103,-121.1501C159.3032,-111.0148 236.0719,-91.0094 285.6742,-78.0834"/>
<polygon fill="#191970" stroke="#191970" points="286.7237,-81.4269 295.5179,-75.5182 284.9584,-74.6531 286.7237,-81.4269"/>
</g>
<!-- Node5 -->
<g id="node6" class="node">
<title>Node5</title>
<polygon fill="none" stroke="#bfbfbf" points="34.0431,-56.5 34.0431,-75.5 78.0431,-75.5 78.0431,-56.5 34.0431,-56.5"/>
<text text-anchor="middle" x="56.0431" y="-63.5" font-family="Helvetica,sans-Serif" font-size="10.00" fill="#000000">vector</text>
</g>
<!-- Node4&#45;&gt;Node5 -->
<g id="edge5" class="edge">
<title>Node4&#45;&gt;Node5</title>
<path fill="none" stroke="#191970" d="M89.7931,-117.8906C83.9566,-108.917 75.0921,-95.2879 67.9124,-84.2491"/>
<polygon fill="#191970" stroke="#191970" points="70.7675,-82.2194 62.3812,-75.7449 64.8995,-86.0361 70.7675,-82.2194"/>
</g>
<!-- Node6 -->
<g id="node7" class="node">
<title>Node6</title>
<polygon fill="none" stroke="#bfbfbf" points="956.0431,-.5 956.0431,-19.5 1010.0431,-19.5 1010.0431,-.5 956.0431,-.5"/>
<text text-anchor="middle" x="983.0431" y="-7.5" font-family="Helvetica,sans-Serif" font-size="10.00" fill="#000000">iostream</text>
</g>
<!-- Node4&#45;&gt;Node6 -->
<g id="edge6" class="edge">
<title>Node4&#45;&gt;Node6</title>
<path fill="none" stroke="#191970" d="M96.783,-117.8871C98.5754,-101.9918 104.649,-70.5447 125.0431,-56 158.8788,-31.8689 784.1456,-14.8888 945.3723,-10.8989"/>
<polygon fill="#191970" stroke="#191970" points="945.827,-14.3889 955.7381,-10.6446 945.6552,-7.391 945.827,-14.3889"/>
</g>
<!-- Node8&#45;&gt;Node2 -->
<g id="edge11" class="edge">
<title>Node8&#45;&gt;Node2</title>
<path fill="none" stroke="#191970" d="M152.2457,-179.2548C191.6223,-154.4513 269.0829,-105.6588 308.2159,-81.0088"/>
<polygon fill="#191970" stroke="#191970" points="310.2534,-83.8619 316.8493,-75.5706 306.5226,-77.939 310.2534,-83.8619"/>
</g>
<!-- Node8&#45;&gt;Node3 -->
<g id="edge14" class="edge">
<title>Node8&#45;&gt;Node3</title>
<path fill="none" stroke="#191970" d="M102.1204,-179.3126C60.999,-153.3555 -11.0166,-99.087 25.0431,-56 52.7377,-22.9083 181.4002,-13.5949 245.5209,-10.9948"/>
<polygon fill="#191970" stroke="#191970" points="245.738,-14.4892 255.601,-10.62 245.4779,-7.4941 245.738,-14.4892"/>
</g>
<!-- Node8&#45;&gt;Node4 -->
<g id="edge12" class="edge">
<title>Node8&#45;&gt;Node4</title>
<path fill="none" stroke="#191970" d="M120.7818,-179.2967C116.0865,-169.4658 109.9428,-156.6026 104.9527,-146.1545"/>
<polygon fill="#191970" stroke="#191970" points="108.0748,-144.5702 100.6067,-137.055 101.7582,-147.587 108.0748,-144.5702"/>
</g>
<!-- Node8&#45;&gt;Node7 -->
<g id="edge13" class="edge">
<title>Node8&#45;&gt;Node7</title>
<path fill="none" stroke="#191970" d="M132.9073,-179.2548C140.3686,-155.87 154.6334,-111.1619 162.832,-85.4665"/>
<polygon fill="#191970" stroke="#191970" points="166.2314,-86.3265 165.9367,-75.7358 159.5626,-84.1987 166.2314,-86.3265"/>
</g>
<!-- Node9&#45;&gt;Node2 -->
<g id="edge16" class="edge">
<title>Node9&#45;&gt;Node2</title>
<path fill="none" stroke="#191970" d="M455.679,-180.762C416.7257,-171.0359 371.3405,-157.2354 357.0431,-143 341.7647,-127.7879 335.8199,-103.159 333.5089,-85.8607"/>
<polygon fill="#191970" stroke="#191970" points="336.9704,-85.3082 332.4534,-75.7245 330.008,-86.0332 336.9704,-85.3082"/>
</g>
<!-- Node10 -->
<g id="node11" class="node">
<title>Node10</title>
<polygon fill="none" stroke="#bfbfbf" points="584.0431,-56.5 584.0431,-75.5 654.0431,-75.5 654.0431,-56.5 584.0431,-56.5"/>
<text text-anchor="middle" x="619.0431" y="-63.5" font-family="Helvetica,sans-Serif" font-size="10.00" fill="#000000">glm/glm.hpp</text>
</g>
<!-- Node9&#45;&gt;Node10 -->
<g id="edge17" class="edge">
<title>Node9&#45;&gt;Node10</title>
<path fill="none" stroke="#191970" d="M517.9746,-179.2794C518.6403,-161.4659 522.1502,-131.8795 537.0431,-112 547.8224,-97.6114 564.5049,-87.0891 580.0157,-79.7696"/>
<polygon fill="#191970" stroke="#191970" points="581.7117,-82.8474 589.4588,-75.6201 578.8956,-76.4388 581.7117,-82.8474"/>
</g>
<!-- Node11 -->
<g id="node12" class="node">
<title>Node11</title>
<polygon fill="none" stroke="#bfbfbf" points="546.0431,-118 546.0431,-137 690.0431,-137 690.0431,-118 546.0431,-118"/>
<text text-anchor="middle" x="618.0431" y="-125" font-family="Helvetica,sans-Serif" font-size="10.00" fill="#000000">glm/gtc/matrix_transform.hpp</text>
</g>
<!-- Node9&#45;&gt;Node11 -->
<g id="edge18" class="edge">
<title>Node9&#45;&gt;Node11</title>
<path fill="none" stroke="#191970" d="M540.7346,-179.2967C557.0714,-168.351 579.0189,-153.6462 595.355,-142.701"/>
<polygon fill="#191970" stroke="#191970" points="597.4224,-145.5289 603.7819,-137.055 593.526,-139.7135 597.4224,-145.5289"/>
</g>
<!-- Node12&#45;&gt;Node2 -->
<g id="edge20" class="edge">
<title>Node12&#45;&gt;Node2</title>
<path fill="none" stroke="#191970" d="M404.3127,-112.2977C389.5069,-102.8127 370.5203,-90.6495 355.7238,-81.1705"/>
<polygon fill="#191970" stroke="#191970" points="357.4356,-78.1105 347.1272,-75.6633 353.6595,-84.0047 357.4356,-78.1105"/>
</g>
<!-- Node12&#45;&gt;Node10 -->
<g id="edge22" class="edge">
<title>Node12&#45;&gt;Node10</title>
<path fill="none" stroke="#191970" d="M474.7669,-112.4554C506.9153,-102.104 549.1442,-88.5067 579.5995,-78.7004"/>
<polygon fill="#191970" stroke="#191970" points="580.9989,-81.9269 589.4449,-75.5303 578.8534,-75.2638 580.9989,-81.9269"/>
</g>
<!-- Node13 -->
<g id="node14" class="node">
<title>Node13</title>
<polygon fill="none" stroke="#bfbfbf" points="1071.0431,-.5 1071.0431,-19.5 1135.0431,-19.5 1135.0431,-.5 1071.0431,-.5"/>
<text text-anchor="middle" x="1103.0431" y="-7.5" font-family="Helvetica,sans-Serif" font-size="10.00" fill="#000000">glad/glad.h</text>
</g>
<!-- Node12&#45;&gt;Node13 -->
<g id="edge21" class="edge">
<title>Node12&#45;&gt;Node13</title>
<path fill="none" stroke="#191970" d="M461.1333,-112.3168C482.8328,-102.2495 511.7622,-88.6179 537.0431,-76 554.1196,-67.477 556.7154,-61.3237 575.0431,-56 765.1658,-.775 822.0453,-39.7054 1019.0431,-20 1032.5342,-18.6505 1047.2191,-16.9738 1060.4823,-15.3814"/>
<polygon fill="#191970" stroke="#191970" points="1061.2603,-18.8127 1070.7643,-14.1303 1060.4147,-11.8639 1061.2603,-18.8127"/>
</g>
<!-- Node14 -->
<g id="node15" class="node">
<title>Node14</title>
<polygon fill="none" stroke="#bfbfbf" points="422.0431,-56.5 422.0431,-75.5 528.0431,-75.5 528.0431,-56.5 422.0431,-56.5"/>
<text text-anchor="middle" x="475.0431" y="-63.5" font-family="Helvetica,sans-Serif" font-size="10.00" fill="#000000">glm/gtc/type_ptr.hpp</text>
</g>
<!-- Node12&#45;&gt;Node14 -->
<g id="edge23" class="edge">
<title>Node12&#45;&gt;Node14</title>
<path fill="none" stroke="#191970" d="M439.6611,-112.2977C446.2531,-103.672 454.5379,-92.8312 461.4332,-83.8087"/>
<polygon fill="#191970" stroke="#191970" points="464.2265,-85.9176 467.5178,-75.8469 458.6647,-81.6671 464.2265,-85.9176"/>
</g>
<!-- Node15&#45;&gt;Node2 -->
<g id="edge31" class="edge">
<title>Node15&#45;&gt;Node2</title>
<path fill="none" stroke="#191970" d="M797.5278,-179.4011C777.5077,-170.1652 752.491,-157.3782 732.0431,-143 715.5821,-131.4252 717.2544,-120.5607 699.0431,-112 697.4311,-111.2423 521.574,-89.4152 413.9078,-76.1043"/>
<polygon fill="#191970" stroke="#191970" points="414.0633,-72.597 403.7095,-74.8437 413.2045,-79.5441 414.0633,-72.597"/>
</g>
<!-- Node15&#45;&gt;Node3 -->
<g id="edge45" class="edge">
<title>Node15&#45;&gt;Node3</title>
<path fill="none" stroke="#191970" d="M824.102,-179.4523C812.8544,-161.5344 792.0769,-131.5775 768.0431,-112 740.3043,-89.4045 727.3672,-93.2859 696.0431,-76 681.0276,-67.7139 679.2537,-61.598 663.0431,-56 599.6942,-34.1237 400.6128,-18.2222 318.2574,-12.4151"/>
<polygon fill="#191970" stroke="#191970" points="318.3406,-8.9126 308.1218,-11.7101 317.8548,-15.8957 318.3406,-8.9126"/>
</g>
<!-- Node15&#45;&gt;Node10 -->
<g id="edge28" class="edge">
<title>Node15&#45;&gt;Node10</title>
<path fill="none" stroke="#191970" d="M817.7118,-179.4764C798.8187,-161.5822 765.1396,-131.6487 732.0431,-112 709.038,-98.3424 681.2257,-86.9639 658.9501,-78.9402"/>
<polygon fill="#191970" stroke="#191970" points="660.053,-75.618 649.4582,-75.602 657.7306,-82.2215 660.053,-75.618"/>
</g>
<!-- Node15&#45;&gt;Node11 -->
<g id="edge29" class="edge">
<title>Node15&#45;&gt;Node11</title>
<path fill="none" stroke="#191970" d="M784.7929,-179.4639C746.6555,-167.5792 694.0497,-151.1858 658.1895,-140.0108"/>
<polygon fill="#191970" stroke="#191970" points="659.1336,-136.639 648.5451,-137.0053 657.051,-143.322 659.1336,-136.639"/>
</g>
<!-- Node15&#45;&gt;Node13 -->
<g id="edge27" class="edge">
<title>Node15&#45;&gt;Node13</title>
<path fill="none" stroke="#191970" d="M895.3649,-180.8144C898.2973,-180.1956 901.2015,-179.5881 904.0431,-179 985.6422,-162.1126 1017.0909,-186.6966 1088.0431,-143 1120.1387,-123.2336 1127.8284,-111.6601 1140.0431,-76 1146.1062,-58.2989 1133.968,-39.8634 1122.0057,-26.9906"/>
<polygon fill="#191970" stroke="#191970" points="1124.2973,-24.3328 1114.7446,-19.7505 1119.3547,-29.2898 1124.2973,-24.3328"/>
</g>
<!-- Node16 -->
<g id="node17" class="node">
<title>Node16</title>
<polygon fill="none" stroke="#bfbfbf" points="1011.0431,-56.5 1011.0431,-75.5 1057.0431,-75.5 1057.0431,-56.5 1011.0431,-56.5"/>
<text text-anchor="middle" x="1034.0431" y="-63.5" font-family="Helvetica,sans-Serif" font-size="10.00" fill="#000000">cstdint</text>
</g>
<!-- Node15&#45;&gt;Node16 -->
<g id="edge25" class="edge">
<title>Node15&#45;&gt;Node16</title>
<path fill="none" stroke="#191970" d="M895.1392,-180.3795C956.8393,-166.2058 1042.651,-146.0428 1045.0431,-143 1057.8983,-126.6481 1051.3017,-102.0977 1044.0071,-85.1344"/>
<polygon fill="#191970" stroke="#191970" points="1046.9818,-83.2377 1039.5426,-75.6939 1040.6537,-86.2304 1046.9818,-83.2377"/>
</g>
<!-- Node17 -->
<g id="node18" class="node">
<title>Node17</title>
<polygon fill="none" stroke="#bfbfbf" points="940.5431,-118 940.5431,-137 983.5431,-137 983.5431,-118 940.5431,-118"/>
<text text-anchor="middle" x="962.0431" y="-125" font-family="Helvetica,sans-Serif" font-size="10.00" fill="#000000">cstdio</text>
</g>
<!-- Node15&#45;&gt;Node17 -->
<g id="edge26" class="edge">
<title>Node15&#45;&gt;Node17</title>
<path fill="none" stroke="#191970" d="M861.9932,-179.4639C883.7352,-168.1715 913.3147,-152.8086 934.6658,-141.7192"/>
<polygon fill="#191970" stroke="#191970" points="936.2908,-144.8192 943.552,-137.1039 933.0643,-138.6071 936.2908,-144.8192"/>
</g>
<!-- Node18 -->
<g id="node19" class="node">
<title>Node18</title>
<polygon fill="none" stroke="#bfbfbf" points="1001.5431,-118 1001.5431,-137 1036.5431,-137 1036.5431,-118 1001.5431,-118"/>
<text text-anchor="middle" x="1019.0431" y="-125" font-family="Helvetica,sans-Serif" font-size="10.00" fill="#000000">map</text>
</g>
<!-- Node15&#45;&gt;Node18 -->
<g id="edge30" class="edge">
<title>Node15&#45;&gt;Node18</title>
<path fill="none" stroke="#191970" d="M888.9181,-179.4985C919.8885,-170.4202 958.7512,-157.7551 992.0431,-143 992.8862,-142.6263 993.7369,-142.2336 994.5904,-141.826"/>
<polygon fill="#191970" stroke="#191970" points="996.3985,-144.8298 1003.6255,-137.0825 993.1446,-138.6321 996.3985,-144.8298"/>
</g>
<!-- Node19 -->
<g id="node20" class="node">
<title>Node19</title>
<g id="a_node20"><a xlink:href="sprite_8h.html" target="_top" xlink:title="../Graphics/sprite.h">
<polygon fill="none" stroke="#000000" points="822.0431,-118 822.0431,-137 922.0431,-137 922.0431,-118 822.0431,-118"/>
<text text-anchor="middle" x="872.0431" y="-125" font-family="Helvetica,sans-Serif" font-size="10.00" fill="#000000">../Graphics/sprite.h</text>
</a>
</g>
</g>
<!-- Node15&#45;&gt;Node19 -->
<g id="edge32" class="edge">
<title>Node15&#45;&gt;Node19</title>
<path fill="none" stroke="#191970" d="M841.8928,-179.2967C847.6742,-169.3645 855.2573,-156.3371 861.3722,-145.8321"/>
<polygon fill="#191970" stroke="#191970" points="864.4754,-147.4582 866.4812,-137.055 858.4256,-143.9367 864.4754,-147.4582"/>
</g>
<!-- Node21 -->
<g id="node22" class="node">
<title>Node21</title>
<g id="a_node22"><a xlink:href="texture_8h.html" target="_top" xlink:title="texture.h">
<polygon fill="none" stroke="#000000" points="1075.5431,-56.5 1075.5431,-75.5 1130.5431,-75.5 1130.5431,-56.5 1075.5431,-56.5"/>
<text text-anchor="middle" x="1103.0431" y="-63.5" font-family="Helvetica,sans-Serif" font-size="10.00" fill="#000000">texture.h</text>
</a>
</g>
</g>
<!-- Node15&#45;&gt;Node21 -->
<g id="edge44" class="edge">
<title>Node15&#45;&gt;Node21</title>
<path fill="none" stroke="#191970" d="M895.2881,-180.8919C962.82,-166.08 1061.3407,-144.3103 1063.0431,-143 1081.6285,-128.6951 1092.4023,-103.3108 1097.9921,-85.6137"/>
<polygon fill="#191970" stroke="#191970" points="1101.4268,-86.3338 1100.8261,-75.756 1094.6993,-84.3997 1101.4268,-86.3338"/>
</g>
<!-- Node19&#45;&gt;Node3 -->
<g id="edge41" class="edge">
<title>Node19&#45;&gt;Node3</title>
<path fill="none" stroke="#191970" d="M845.8441,-117.9372C818.8717,-107.9566 775.7239,-91.6121 739.0431,-76 719.6495,-67.7457 716.3397,-61.683 696.0431,-56 625.2648,-36.1824 405.8664,-18.8341 318.4901,-12.5284"/>
<polygon fill="#191970" stroke="#191970" points="318.4905,-9.0195 308.2663,-11.7976 317.9913,-16.0017 318.4905,-9.0195"/>
</g>
<!-- Node19&#45;&gt;Node6 -->
<g id="edge37" class="edge">
<title>Node19&#45;&gt;Node6</title>
<path fill="none" stroke="#191970" d="M900.5248,-117.9299C920.6976,-109.7687 946.9344,-96.1244 963.0431,-76 973.6698,-62.7241 978.6612,-43.8637 980.9993,-29.702"/>
<polygon fill="#191970" stroke="#191970" points="984.5006,-29.9252 982.3625,-19.5483 977.5629,-28.9936 984.5006,-29.9252"/>
</g>
<!-- Node19&#45;&gt;Node7 -->
<g id="edge35" class="edge">
<title>Node19&#45;&gt;Node7</title>
<path fill="none" stroke="#191970" d="M821.7122,-122.8679C787.1992,-119.7216 740.3574,-115.5107 699.0431,-112 500.0074,-95.0871 449.7827,-96.0947 251.0431,-76 239.1242,-74.7949 226.253,-73.3115 214.3201,-71.8598"/>
<polygon fill="#191970" stroke="#191970" points="214.4762,-68.3526 204.1225,-70.6 213.6179,-75.2998 214.4762,-68.3526"/>
</g>
<!-- Node19&#45;&gt;Node10 -->
<g id="edge36" class="edge">
<title>Node19&#45;&gt;Node10</title>
<path fill="none" stroke="#191970" d="M832.7894,-117.9581C787.1779,-106.8707 712.0613,-88.6112 664.1054,-76.9539"/>
<polygon fill="#191970" stroke="#191970" points="664.8486,-73.5327 654.3048,-74.5715 663.1951,-80.3346 664.8486,-73.5327"/>
</g>
<!-- Node19&#45;&gt;Node16 -->
<g id="edge33" class="edge">
<title>Node19&#45;&gt;Node16</title>
<path fill="none" stroke="#191970" d="M897.3556,-117.8906C925.4602,-107.2213 970.9008,-89.9707 1001.5969,-78.3175"/>
<polygon fill="#191970" stroke="#191970" points="1002.8977,-81.5675 1011.0045,-74.7461 1000.4133,-75.0232 1002.8977,-81.5675"/>
</g>
<!-- Node20 -->
<g id="node21" class="node">
<title>Node20</title>
<polygon fill="none" stroke="#bfbfbf" points="748.0431,-56.5 748.0431,-75.5 794.0431,-75.5 794.0431,-56.5 748.0431,-56.5"/>
<text text-anchor="middle" x="771.0431" y="-63.5" font-family="Helvetica,sans-Serif" font-size="10.00" fill="#000000">stdio.h</text>
</g>
<!-- Node19&#45;&gt;Node20 -->
<g id="edge34" class="edge">
<title>Node19&#45;&gt;Node20</title>
<path fill="none" stroke="#191970" d="M856.2618,-117.8906C839.9556,-107.9616 814.2891,-92.333 795.3817,-80.8201"/>
<polygon fill="#191970" stroke="#191970" points="797.075,-77.7533 786.7135,-75.5419 793.4344,-83.7322 797.075,-77.7533"/>
</g>
<!-- Node19&#45;&gt;Node21 -->
<g id="edge38" class="edge">
<title>Node19&#45;&gt;Node21</title>
<path fill="none" stroke="#191970" d="M908.1685,-117.9618C945.1599,-108.1834 1004.5858,-92.4431 1065.3977,-76.1649"/>
<polygon fill="#191970" stroke="#191970" points="1066.4123,-79.5166 1075.1664,-73.5486 1064.6013,-72.755 1066.4123,-79.5166"/>
</g>
<!-- Node22 -->
<g id="node23" class="node">
<title>Node22</title>
<polygon fill="none" stroke="#bfbfbf" points="812.5431,-56.5 812.5431,-75.5 853.5431,-75.5 853.5431,-56.5 812.5431,-56.5"/>
<text text-anchor="middle" x="833.0431" y="-63.5" font-family="Helvetica,sans-Serif" font-size="10.00" fill="#000000">string</text>
</g>
<!-- Node19&#45;&gt;Node22 -->
<g id="edge42" class="edge">
<title>Node19&#45;&gt;Node22</title>
<path fill="none" stroke="#191970" d="M865.9493,-117.8906C860.2588,-108.917 851.6159,-95.2879 844.6157,-84.2491"/>
<polygon fill="#191970" stroke="#191970" points="847.534,-82.3155 839.2228,-75.7449 841.6224,-86.0644 847.534,-82.3155"/>
</g>
<!-- Node23 -->
<g id="node24" class="node">
<title>Node23</title>
<polygon fill="none" stroke="#bfbfbf" points="871.5431,-56.5 871.5431,-75.5 954.5431,-75.5 954.5431,-56.5 871.5431,-56.5"/>
<text text-anchor="middle" x="913.0431" y="-63.5" font-family="Helvetica,sans-Serif" font-size="10.00" fill="#000000">unordered_map</text>
</g>
<!-- Node19&#45;&gt;Node23 -->
<g id="edge43" class="edge">
<title>Node19&#45;&gt;Node23</title>
<path fill="none" stroke="#191970" d="M878.4493,-117.8906C884.4317,-108.917 893.5178,-95.2879 900.877,-84.2491"/>
<polygon fill="#191970" stroke="#191970" points="903.9116,-86.0068 906.5465,-75.7449 898.0873,-82.1239 903.9116,-86.0068"/>
</g>
<!-- Node21&#45;&gt;Node6 -->
<g id="edge39" class="edge">
<title>Node21&#45;&gt;Node6</title>
<path fill="none" stroke="#191970" d="M1082.4143,-56.3733C1063.1512,-47.3838 1034.1945,-33.8706 1012.5012,-23.7471"/>
<polygon fill="#191970" stroke="#191970" points="1013.9446,-20.5584 1003.4026,-19.5011 1010.9844,-26.9017 1013.9446,-20.5584"/>
</g>
<!-- Node21&#45;&gt;Node13 -->
<g id="edge40" class="edge">
<title>Node21&#45;&gt;Node13</title>
<path fill="none" stroke="#191970" d="M1103.0431,-56.2455C1103.0431,-48.9382 1103.0431,-38.6944 1103.0431,-29.7046"/>
<polygon fill="#191970" stroke="#191970" points="1106.5432,-29.6426 1103.0431,-19.6427 1099.5432,-29.6427 1106.5432,-29.6426"/>
</g>
</g>
</svg>
        <g id="navigator" transform="translate(0 0)" fill="#404254">
                <rect fill="#f2f5e9" fill-opacity="0.5" stroke="#606060" stroke-width=".5" x="0" y="0" width="60" height="60"/>
                <use id="zoomplus" xlink:href="#zoomPlus" x="17" y="9" onmousedown="handleZoom(evt,'in')"/>
                <use id="zoomminus" xlink:href="#zoomMin" x="42" y="9" onmousedown="handleZoom(evt,'out')"/>
                <use id="reset" xlink:href="#resetDef" x="30" y="36" onmousedown="handleReset()"/>
                <g id="arrowUp" xlink:href="#dirArrow" transform="translate(30 24)" onmousedown="handlePan(0,-1)">
                  <use xlink:href="#rim" fill="#404040">
                        <set attributeName="fill" to="#808080" begin="arrowUp.mouseover" end="arrowUp.mouseout"/>
                  </use>
                  <path fill="none" stroke="white" stroke-width="1.5" d="M0,-3.0v7 M-2.5,-0.5L0,-3.0L2.5,-0.5"/>
                </g>
                <g id="arrowRight" xlink:href="#dirArrow" transform="rotate(90) translate(36 -43)" onmousedown="handlePan(1,0)">
                  <use xlink:href="#rim" fill="#404040">
                        <set attributeName="fill" to="#808080" begin="arrowRight.mouseover" end="arrowRight.mouseout"/>
                  </use>
                  <path fill="none" stroke="white" stroke-width="1.5" d="M0,-3.0v7 M-2.5,-0.5L0,-3.0L2.5,-0.5"/>
                </g>
                <g id="arrowDown" xlink:href="#dirArrow" transform="rotate(180) translate(-30 -48)" onmousedown="handlePan(0,1)">
                  <use xlink:href="#rim" fill="#404040">
                        <set attributeName="fill" to="#808080" begin="arrowDown.mouseover" end="arrowDown.mouseout"/>
                  </use>
                  <path fill="none" stroke="white" stroke-width="1.5" d="M0,-3.0v7 M-2.5,-0.5L0,-3.0L2.5,-0.5"/>
                </g>
                <g id="arrowLeft" xlink:href="#dirArrow" transform="rotate(270) translate(-36 17)" onmousedown="handlePan(-1,0)">
                  <use xlink:href="#rim" fill="#404040">
                        <set attributeName="fill" to="#808080" begin="arrowLeft.mouseover" end="arrowLeft.mouseout"/>
                  </use>
                  <path fill="none" stroke="white" stroke-width="1.5" d="M0,-3.0v7 M-2.5,-0.5L0,-3.0L2.5,-0.5"/>
                </g>
        </g>
        <svg viewBox="0 0 15 15" width="100%" height="30px" preserveAspectRatio="xMaxYMin meet">
         <g id="arrow_out" transform="scale(0.3 0.3)">
          <a xlink:href="Texture__Actor_8cpp__incl_org.svg" target="_base">
           <rect id="button" ry="5" rx="5" y="6" x="6" height="38" width="38"
                fill="#f2f5e9" fill-opacity="0.5" stroke="#606060" stroke-width="1.0"/>
           <path id="arrow"
             d="M 11.500037,31.436501 C 11.940474,20.09759 22.043105,11.32322 32.158766,21.979434 L 37.068811,17.246167 C 37.068811,17.246167 37.088388,32 37.088388,32 L 22.160133,31.978069 C 22.160133,31.978069 26.997745,27.140456 26.997745,27.140456 C 18.528582,18.264221 13.291696,25.230495 11.500037,31.436501 z"
             style="fill:#404040;"/>
          </a>
         </g>
        </svg>
</svg>
