<?xml version="1.0" encoding="UTF-8" standalone="no"?>
<!DOCTYPE svg PUBLIC "-//W3C//DTD SVG 1.1//EN"
 "http://www.w3.org/Graphics/SVG/1.1/DTD/svg11.dtd">
<!-- Generated by graphviz version 2.40.1 (20161225.0304)
 -->
<!-- Title: /mnt/hdd/fnky/C0de/CAPSTONE/clean_build/src/Actors/Text_Actor.cpp Pages: 1 -->
<svg width="970pt" height="296pt"
 viewBox="0.00 0.00 969.50 296.00" xmlns="http://www.w3.org/2000/svg" xmlns:xlink="http://www.w3.org/1999/xlink">
<g id="graph0" class="graph" transform="scale(1 1) rotate(0) translate(4 292)">
<title>/mnt/hdd/fnky/C0de/CAPSTONE/clean_build/src/Actors/Text_Actor.cpp</title>
<!-- Node0 -->
<g id="node1" class="node">
<title>Node0</title>
<polygon fill="#bfbfbf" stroke="#000000" points="425,-246.5 425,-287.5 559,-287.5 559,-246.5 425,-246.5"/>
<text text-anchor="start" x="433" y="-275.5" font-family="Helvetica,sans-Serif" font-size="10.00" fill="#000000">/mnt/hdd/fnky/C0de</text>
<text text-anchor="start" x="433" y="-264.5" font-family="Helvetica,sans-Serif" font-size="10.00" fill="#000000">/CAPSTONE/clean_build</text>
<text text-anchor="middle" x="492" y="-253.5" font-family="Helvetica,sans-Serif" font-size="10.00" fill="#000000">/src/Actors/Text_Actor.cpp</text>
</g>
<!-- Node1 -->
<g id="node2" class="node">
<title>Node1</title>
<g id="a_node2"><a xlink:href="Text__Actor_8h.html" target="_top" xlink:title="../../include/Actors\l/Text_Actor.h">
<polygon fill="none" stroke="#000000" points="181.5,-179.5 181.5,-209.5 278.5,-209.5 278.5,-179.5 181.5,-179.5"/>
<text text-anchor="start" x="189.5" y="-197.5" font-family="Helvetica,sans-Serif" font-size="10.00" fill="#000000">../../include/Actors</text>
<text text-anchor="middle" x="230" y="-186.5" font-family="Helvetica,sans-Serif" font-size="10.00" fill="#000000">/Text_Actor.h</text>
</a>
</g>
</g>
<!-- Node0&#45;&gt;Node1 -->
<g id="edge1" class="edge">
<title>Node0&#45;&gt;Node1</title>
<path fill="none" stroke="#191970" d="M424.8687,-248.4236C382.7088,-236.7572 328.8637,-221.8573 288.4619,-210.6774"/>
<polygon fill="#191970" stroke="#191970" points="289.3278,-207.2856 278.7565,-207.9918 287.4609,-214.0321 289.3278,-207.2856"/>
</g>
<!-- Node8 -->
<g id="node9" class="node">
<title>Node8</title>
<g id="a_node9"><a xlink:href="TransformComponent_8h.html" target="_top" xlink:title="../../include/Components\l/TransformComponent.h">
<polygon fill="none" stroke="#000000" points="314,-112.5 314,-142.5 438,-142.5 438,-112.5 314,-112.5"/>
<text text-anchor="start" x="322" y="-130.5" font-family="Helvetica,sans-Serif" font-size="10.00" fill="#000000">../../include/Components</text>
<text text-anchor="middle" x="376" y="-119.5" font-family="Helvetica,sans-Serif" font-size="10.00" fill="#000000">/TransformComponent.h</text>
</a>
</g>
</g>
<!-- Node0&#45;&gt;Node8 -->
<g id="edge9" class="edge">
<title>Node0&#45;&gt;Node8</title>
<path fill="none" stroke="#191970" d="M474.8838,-246.4163C453.6153,-220.8391 417.4236,-177.3154 395.2217,-150.6157"/>
<polygon fill="#191970" stroke="#191970" points="397.6264,-148.0334 388.5415,-142.5822 392.2441,-152.5091 397.6264,-148.0334"/>
</g>
<!-- Node11 -->
<g id="node12" class="node">
<title>Node11</title>
<g id="a_node12"><a xlink:href="ShaderComponent_8h.html" target="_top" xlink:title="../../include/Components\l/ShaderComponent.h">
<polygon fill="none" stroke="#000000" points="456,-112.5 456,-142.5 580,-142.5 580,-112.5 456,-112.5"/>
<text text-anchor="start" x="464" y="-130.5" font-family="Helvetica,sans-Serif" font-size="10.00" fill="#000000">../../include/Components</text>
<text text-anchor="middle" x="518" y="-119.5" font-family="Helvetica,sans-Serif" font-size="10.00" fill="#000000">/ShaderComponent.h</text>
</a>
</g>
</g>
<!-- Node0&#45;&gt;Node11 -->
<g id="edge13" class="edge">
<title>Node0&#45;&gt;Node11</title>
<path fill="none" stroke="#191970" d="M495.8364,-246.4163C500.4796,-221.5034 508.2963,-179.5643 513.2977,-152.7297"/>
<polygon fill="#191970" stroke="#191970" points="516.7974,-153.0543 515.189,-142.5822 509.9159,-151.7716 516.7974,-153.0543"/>
</g>
<!-- Node14 -->
<g id="node15" class="node">
<title>Node14</title>
<g id="a_node15"><a xlink:href="TextRenderComponent_8h.html" target="_top" xlink:title="../../include/Components\l/TextRenderComponent.h">
<polygon fill="none" stroke="#000000" points="671.5,-112.5 671.5,-142.5 800.5,-142.5 800.5,-112.5 671.5,-112.5"/>
<text text-anchor="start" x="679.5" y="-130.5" font-family="Helvetica,sans-Serif" font-size="10.00" fill="#000000">../../include/Components</text>
<text text-anchor="middle" x="736" y="-119.5" font-family="Helvetica,sans-Serif" font-size="10.00" fill="#000000">/TextRenderComponent.h</text>
</a>
</g>
</g>
<!-- Node0&#45;&gt;Node14 -->
<g id="edge18" class="edge">
<title>Node0&#45;&gt;Node14</title>
<path fill="none" stroke="#191970" d="M500.365,-246.4236C509.5899,-226.2947 526.3282,-196.2263 550,-179 582.3171,-155.4824 624.9011,-142.6997 661.1675,-135.7539"/>
<polygon fill="#191970" stroke="#191970" points="661.9933,-139.1616 671.2152,-133.9456 660.7533,-132.2723 661.9933,-139.1616"/>
</g>
<!-- Node18 -->
<g id="node19" class="node">
<title>Node18</title>
<polygon fill="none" stroke="#bfbfbf" points="558.5,-185 558.5,-204 599.5,-204 599.5,-185 558.5,-185"/>
<text text-anchor="middle" x="579" y="-192" font-family="Helvetica,sans-Serif" font-size="10.00" fill="#000000">string</text>
</g>
<!-- Node0&#45;&gt;Node18 -->
<g id="edge26" class="edge">
<title>Node0&#45;&gt;Node18</title>
<path fill="none" stroke="#191970" d="M516.698,-246.4183C530.2493,-235.1256 546.815,-221.3208 559.4573,-210.7856"/>
<polygon fill="#191970" stroke="#191970" points="562.056,-213.176 567.4976,-204.0853 557.5747,-207.7984 562.056,-213.176"/>
</g>
<!-- Node2 -->
<g id="node3" class="node">
<title>Node2</title>
<g id="a_node3"><a xlink:href="Components_2Component_8h.html" target="_top" xlink:title="../Components/Component.h">
<polygon fill="none" stroke="#000000" points="134.5,-56.5 134.5,-75.5 277.5,-75.5 277.5,-56.5 134.5,-56.5"/>
<text text-anchor="middle" x="206" y="-63.5" font-family="Helvetica,sans-Serif" font-size="10.00" fill="#000000">../Components/Component.h</text>
</a>
</g>
</g>
<!-- Node1&#45;&gt;Node2 -->
<g id="edge2" class="edge">
<title>Node1&#45;&gt;Node2</title>
<path fill="none" stroke="#191970" d="M225.707,-179.2718C222.9423,-169.0701 219.4249,-155.3045 217,-143 213.1761,-123.5965 210.1273,-101.1934 208.2183,-85.573"/>
<polygon fill="#191970" stroke="#191970" points="211.682,-85.0589 207.0348,-75.5376 204.7301,-85.8788 211.682,-85.0589"/>
</g>
<!-- Node4 -->
<g id="node5" class="node">
<title>Node4</title>
<g id="a_node5"><a xlink:href="Actor_8h.html" target="_top" xlink:title="Actor.h">
<polygon fill="none" stroke="#000000" points="98,-118 98,-137 146,-137 146,-118 98,-118"/>
<text text-anchor="middle" x="122" y="-125" font-family="Helvetica,sans-Serif" font-size="10.00" fill="#000000">Actor.h</text>
</a>
</g>
</g>
<!-- Node1&#45;&gt;Node4 -->
<g id="edge4" class="edge">
<title>Node1&#45;&gt;Node4</title>
<path fill="none" stroke="#191970" d="M205.7627,-179.4639C187.9682,-168.4247 163.9031,-153.4954 146.1331,-142.4715"/>
<polygon fill="#191970" stroke="#191970" points="147.8237,-139.4015 137.4809,-137.1039 144.1335,-145.3498 147.8237,-139.4015"/>
</g>
<!-- Node7 -->
<g id="node8" class="node">
<title>Node7</title>
<polygon fill="none" stroke="#bfbfbf" points="226,-118 226,-137 296,-137 296,-118 226,-118"/>
<text text-anchor="middle" x="261" y="-125" font-family="Helvetica,sans-Serif" font-size="10.00" fill="#000000">glm/fwd.hpp</text>
</g>
<!-- Node1&#45;&gt;Node7 -->
<g id="edge8" class="edge">
<title>Node1&#45;&gt;Node7</title>
<path fill="none" stroke="#191970" d="M237.0344,-179.2967C241.583,-169.4658 247.5346,-156.6026 252.3688,-146.1545"/>
<polygon fill="#191970" stroke="#191970" points="255.5563,-147.6003 256.579,-137.055 249.2033,-144.6609 255.5563,-147.6003"/>
</g>
<!-- Node3 -->
<g id="node4" class="node">
<title>Node3</title>
<polygon fill="none" stroke="#bfbfbf" points="522,-.5 522,-19.5 574,-19.5 574,-.5 522,-.5"/>
<text text-anchor="middle" x="548" y="-7.5" font-family="Helvetica,sans-Serif" font-size="10.00" fill="#000000">memory</text>
</g>
<!-- Node2&#45;&gt;Node3 -->
<g id="edge3" class="edge">
<title>Node2&#45;&gt;Node3</title>
<path fill="none" stroke="#191970" d="M264.4033,-56.4369C335.313,-44.8259 452.7239,-25.6008 511.7523,-15.9353"/>
<polygon fill="#191970" stroke="#191970" points="512.4276,-19.3714 521.7306,-14.3014 511.2964,-12.4634 512.4276,-19.3714"/>
</g>
<!-- Node4&#45;&gt;Node2 -->
<g id="edge7" class="edge">
<title>Node4&#45;&gt;Node2</title>
<path fill="none" stroke="#191970" d="M135.125,-117.8906C148.44,-108.1421 169.2594,-92.8994 184.8947,-81.4521"/>
<polygon fill="#191970" stroke="#191970" points="186.9661,-84.2734 192.9672,-75.5419 182.8309,-78.6253 186.9661,-84.2734"/>
</g>
<!-- Node5 -->
<g id="node6" class="node">
<title>Node5</title>
<polygon fill="none" stroke="#bfbfbf" points="0,-56.5 0,-75.5 44,-75.5 44,-56.5 0,-56.5"/>
<text text-anchor="middle" x="22" y="-63.5" font-family="Helvetica,sans-Serif" font-size="10.00" fill="#000000">vector</text>
</g>
<!-- Node4&#45;&gt;Node5 -->
<g id="edge5" class="edge">
<title>Node4&#45;&gt;Node5</title>
<path fill="none" stroke="#191970" d="M106.375,-117.8906C90.2302,-107.9616 64.8178,-92.333 46.0977,-80.8201"/>
<polygon fill="#191970" stroke="#191970" points="47.8669,-77.7992 37.5153,-75.5419 44.1998,-83.7619 47.8669,-77.7992"/>
</g>
<!-- Node6 -->
<g id="node7" class="node">
<title>Node6</title>
<polygon fill="none" stroke="#bfbfbf" points="62,-56.5 62,-75.5 116,-75.5 116,-56.5 62,-56.5"/>
<text text-anchor="middle" x="89" y="-63.5" font-family="Helvetica,sans-Serif" font-size="10.00" fill="#000000">iostream</text>
</g>
<!-- Node4&#45;&gt;Node6 -->
<g id="edge6" class="edge">
<title>Node4&#45;&gt;Node6</title>
<path fill="none" stroke="#191970" d="M116.8438,-117.8906C112.0768,-109.0068 104.8615,-95.5601 98.9703,-84.5811"/>
<polygon fill="#191970" stroke="#191970" points="102.0412,-82.9016 94.2289,-75.7449 95.8731,-86.2114 102.0412,-82.9016"/>
</g>
<!-- Node8&#45;&gt;Node2 -->
<g id="edge10" class="edge">
<title>Node8&#45;&gt;Node2</title>
<path fill="none" stroke="#191970" d="M334.4133,-112.4554C306.0484,-102.194 268.8667,-88.7429 241.8164,-78.9571"/>
<polygon fill="#191970" stroke="#191970" points="242.9382,-75.641 232.344,-75.5303 240.5569,-82.2235 242.9382,-75.641"/>
</g>
<!-- Node9 -->
<g id="node10" class="node">
<title>Node9</title>
<polygon fill="none" stroke="#bfbfbf" points="458,-56.5 458,-75.5 528,-75.5 528,-56.5 458,-56.5"/>
<text text-anchor="middle" x="493" y="-63.5" font-family="Helvetica,sans-Serif" font-size="10.00" fill="#000000">glm/glm.hpp</text>
</g>
<!-- Node8&#45;&gt;Node9 -->
<g id="edge11" class="edge">
<title>Node8&#45;&gt;Node9</title>
<path fill="none" stroke="#191970" d="M404.6214,-112.4554C423.287,-102.644 447.4999,-89.9167 465.8612,-80.2653"/>
<polygon fill="#191970" stroke="#191970" points="467.646,-83.2812 474.8692,-75.5303 464.389,-77.0851 467.646,-83.2812"/>
</g>
<!-- Node10 -->
<g id="node11" class="node">
<title>Node10</title>
<polygon fill="none" stroke="#bfbfbf" points="296,-56.5 296,-75.5 440,-75.5 440,-56.5 296,-56.5"/>
<text text-anchor="middle" x="368" y="-63.5" font-family="Helvetica,sans-Serif" font-size="10.00" fill="#000000">glm/gtc/matrix_transform.hpp</text>
</g>
<!-- Node8&#45;&gt;Node10 -->
<g id="edge12" class="edge">
<title>Node8&#45;&gt;Node10</title>
<path fill="none" stroke="#191970" d="M374.0225,-112.2977C372.9814,-104.2945 371.6923,-94.3843 370.5742,-85.7889"/>
<polygon fill="#191970" stroke="#191970" points="374.0417,-85.3119 369.2809,-75.8469 367.1002,-86.2149 374.0417,-85.3119"/>
</g>
<!-- Node11&#45;&gt;Node2 -->
<g id="edge14" class="edge">
<title>Node11&#45;&gt;Node2</title>
<path fill="none" stroke="#191970" d="M455.6816,-113.7981C452.7482,-113.1837 449.843,-112.5815 447,-112 386.4168,-99.6075 317.0431,-86.4773 268.3316,-77.4313"/>
<polygon fill="#191970" stroke="#191970" points="268.7317,-73.9459 258.2613,-75.5647 267.4559,-80.8286 268.7317,-73.9459"/>
</g>
<!-- Node11&#45;&gt;Node9 -->
<g id="edge16" class="edge">
<title>Node11&#45;&gt;Node9</title>
<path fill="none" stroke="#191970" d="M511.8202,-112.2977C508.4946,-104.1166 504.3589,-93.943 500.8121,-85.2179"/>
<polygon fill="#191970" stroke="#191970" points="504.011,-83.7927 497.0028,-75.8469 497.5263,-86.4288 504.011,-83.7927"/>
</g>
<!-- Node12 -->
<g id="node13" class="node">
<title>Node12</title>
<polygon fill="none" stroke="#bfbfbf" points="670,-56.5 670,-75.5 734,-75.5 734,-56.5 670,-56.5"/>
<text text-anchor="middle" x="702" y="-63.5" font-family="Helvetica,sans-Serif" font-size="10.00" fill="#000000">glad/glad.h</text>
</g>
<!-- Node11&#45;&gt;Node12 -->
<g id="edge15" class="edge">
<title>Node11&#45;&gt;Node12</title>
<path fill="none" stroke="#191970" d="M563.0115,-112.4554C593.9816,-102.104 634.6628,-88.5067 664.002,-78.7004"/>
<polygon fill="#191970" stroke="#191970" points="665.1118,-82.0199 673.4865,-75.5303 662.8927,-75.3809 665.1118,-82.0199"/>
</g>
<!-- Node13 -->
<g id="node14" class="node">
<title>Node13</title>
<polygon fill="none" stroke="#bfbfbf" points="546,-56.5 546,-75.5 652,-75.5 652,-56.5 546,-56.5"/>
<text text-anchor="middle" x="599" y="-63.5" font-family="Helvetica,sans-Serif" font-size="10.00" fill="#000000">glm/gtc/type_ptr.hpp</text>
</g>
<!-- Node11&#45;&gt;Node13 -->
<g id="edge17" class="edge">
<title>Node11&#45;&gt;Node13</title>
<path fill="none" stroke="#191970" d="M538.0225,-112.2977C550.086,-103.1384 565.4388,-91.4816 577.7211,-82.1562"/>
<polygon fill="#191970" stroke="#191970" points="580.1829,-84.6816 586.0309,-75.8469 575.9499,-79.1065 580.1829,-84.6816"/>
</g>
<!-- Node14&#45;&gt;Node2 -->
<g id="edge23" class="edge">
<title>Node14&#45;&gt;Node2</title>
<path fill="none" stroke="#191970" d="M671.291,-120.2554C586.0581,-110.6735 431.2085,-93.1286 287.8504,-76.0929"/>
<polygon fill="#191970" stroke="#191970" points="287.8931,-72.5733 277.5496,-74.8673 287.066,-79.5243 287.8931,-72.5733"/>
</g>
<!-- Node14&#45;&gt;Node3 -->
<g id="edge24" class="edge">
<title>Node14&#45;&gt;Node3</title>
<path fill="none" stroke="#191970" d="M800.6109,-116.1121C846.9168,-105.1724 896.8984,-85.848 871,-56 852.3931,-34.5555 664.8052,-18.4853 584.3401,-12.5251"/>
<polygon fill="#191970" stroke="#191970" points="584.4028,-9.0205 574.1747,-11.7838 583.8936,-16.0019 584.4028,-9.0205"/>
</g>
<!-- Node14&#45;&gt;Node9 -->
<g id="edge21" class="edge">
<title>Node14&#45;&gt;Node9</title>
<path fill="none" stroke="#191970" d="M676.5555,-112.4554C633.8627,-101.6504 577.1965,-87.309 538.1779,-77.4339"/>
<polygon fill="#191970" stroke="#191970" points="538.716,-73.9598 528.1629,-74.8992 536.9985,-80.7458 538.716,-73.9598"/>
</g>
<!-- Node14&#45;&gt;Node12 -->
<g id="edge20" class="edge">
<title>Node14&#45;&gt;Node12</title>
<path fill="none" stroke="#191970" d="M727.5955,-112.2977C722.9743,-103.9388 717.2031,-93.4997 712.3111,-84.6509"/>
<polygon fill="#191970" stroke="#191970" points="715.3452,-82.9051 707.4438,-75.8469 709.2191,-86.292 715.3452,-82.9051"/>
</g>
<!-- Node15 -->
<g id="node16" class="node">
<title>Node15</title>
<polygon fill="none" stroke="#bfbfbf" points="918.5,-56.5 918.5,-75.5 961.5,-75.5 961.5,-56.5 918.5,-56.5"/>
<text text-anchor="middle" x="940" y="-63.5" font-family="Helvetica,sans-Serif" font-size="10.00" fill="#000000">cstdio</text>
</g>
<!-- Node14&#45;&gt;Node15 -->
<g id="edge19" class="edge">
<title>Node14&#45;&gt;Node15</title>
<path fill="none" stroke="#191970" d="M785.904,-112.4554C824.1151,-100.9359 875.6597,-85.3967 908.3695,-75.5357"/>
<polygon fill="#191970" stroke="#191970" points="909.7228,-78.7833 918.287,-72.5458 907.7023,-72.0813 909.7228,-78.7833"/>
</g>
<!-- Node16 -->
<g id="node17" class="node">
<title>Node16</title>
<polygon fill="none" stroke="#bfbfbf" points="752.5,-56.5 752.5,-75.5 787.5,-75.5 787.5,-56.5 752.5,-56.5"/>
<text text-anchor="middle" x="770" y="-63.5" font-family="Helvetica,sans-Serif" font-size="10.00" fill="#000000">map</text>
</g>
<!-- Node14&#45;&gt;Node16 -->
<g id="edge22" class="edge">
<title>Node14&#45;&gt;Node16</title>
<path fill="none" stroke="#191970" d="M744.4045,-112.2977C749.0257,-103.9388 754.7969,-93.4997 759.6889,-84.6509"/>
<polygon fill="#191970" stroke="#191970" points="762.7809,-86.292 764.5562,-75.8469 756.6548,-82.9051 762.7809,-86.292"/>
</g>
<!-- Node17 -->
<g id="node18" class="node">
<title>Node17</title>
<polygon fill="none" stroke="#bfbfbf" points="806,-56.5 806,-75.5 862,-75.5 862,-56.5 806,-56.5"/>
<text text-anchor="middle" x="834" y="-63.5" font-family="Helvetica,sans-Serif" font-size="10.00" fill="#000000">ft2build.h</text>
</g>
<!-- Node14&#45;&gt;Node17 -->
<g id="edge25" class="edge">
<title>Node14&#45;&gt;Node17</title>
<path fill="none" stroke="#191970" d="M759.9735,-112.4554C775.1776,-102.9141 794.7759,-90.6151 809.9875,-81.0691"/>
<polygon fill="#191970" stroke="#191970" points="812.2037,-83.8105 818.8135,-75.5303 808.4828,-77.8813 812.2037,-83.8105"/>
</g>
</g>
</svg>
