<?xml version="1.0" encoding="UTF-8" standalone="no"?>
<!DOCTYPE svg PUBLIC "-//W3C//DTD SVG 1.1//EN"
 "http://www.w3.org/Graphics/SVG/1.1/DTD/svg11.dtd">
<!-- Generated by graphviz version 2.40.1 (20161225.0304)
 -->
<!-- Title: /mnt/hdd/fnky/C0de/CAPSTONE/clean_build/include/BStateMachine/Transition.h Pages: 1 -->
<svg width="1179pt" height="317pt"
 viewBox="0.00 0.00 1179.00 317.00" xmlns="http://www.w3.org/2000/svg" xmlns:xlink="http://www.w3.org/1999/xlink">
<g id="graph0" class="graph" transform="scale(1 1) rotate(0) translate(4 313)">
<title>/mnt/hdd/fnky/C0de/CAPSTONE/clean_build/include/BStateMachine/Transition.h</title>
<!-- Node1 -->
<g id="node1" class="node">
<title>Node1</title>
<polygon fill="#bfbfbf" stroke="#000000" points="124,-256.5 124,-308.5 251,-308.5 251,-256.5 124,-256.5"/>
<text text-anchor="start" x="132" y="-296.5" font-family="Helvetica,sans-Serif" font-size="10.00" fill="#000000">/mnt/hdd/fnky/C0de</text>
<text text-anchor="start" x="132" y="-285.5" font-family="Helvetica,sans-Serif" font-size="10.00" fill="#000000">/CAPSTONE/clean_build</text>
<text text-anchor="start" x="132" y="-274.5" font-family="Helvetica,sans-Serif" font-size="10.00" fill="#000000">/include/BStateMachine</text>
<text text-anchor="middle" x="187.5" y="-263.5" font-family="Helvetica,sans-Serif" font-size="10.00" fill="#000000">/Transition.h</text>
</g>
<!-- Node2 -->
<g id="node2" class="node">
<title>Node2</title>
<g id="a_node2"><a xlink:href="BStateMachine_8h.html" target="_top" xlink:title="/mnt/hdd/fnky/C0de\l/CAPSTONE/clean_build\l/include/BStateMachine\l/BStateMachine.h">
<polygon fill="none" stroke="#000000" points="124,-167.5 124,-219.5 251,-219.5 251,-167.5 124,-167.5"/>
<text text-anchor="start" x="132" y="-207.5" font-family="Helvetica,sans-Serif" font-size="10.00" fill="#000000">/mnt/hdd/fnky/C0de</text>
<text text-anchor="start" x="132" y="-196.5" font-family="Helvetica,sans-Serif" font-size="10.00" fill="#000000">/CAPSTONE/clean_build</text>
<text text-anchor="start" x="132" y="-185.5" font-family="Helvetica,sans-Serif" font-size="10.00" fill="#000000">/include/BStateMachine</text>
<text text-anchor="middle" x="187.5" y="-174.5" font-family="Helvetica,sans-Serif" font-size="10.00" fill="#000000">/BStateMachine.h</text>
</a>
</g>
</g>
<!-- Node1&#45;&gt;Node2 -->
<g id="edge1" class="edge">
<title>Node1&#45;&gt;Node2</title>
<path fill="none" stroke="#191970" d="M187.5,-246.1155C187.5,-237.2061 187.5,-227.8475 187.5,-219.5341"/>
<polygon fill="#191970" stroke="#191970" points="184.0001,-246.2784 187.5,-256.2784 191.0001,-246.2785 184.0001,-246.2784"/>
</g>
<!-- Node6 -->
<g id="node6" class="node">
<title>Node6</title>
<g id="a_node6"><a xlink:href="BStateMachine_8cpp.html" target="_top" xlink:title="/mnt/hdd/fnky/C0de\l/CAPSTONE/clean_build\l/src/BStateMachine/BStateMachine.cpp">
<polygon fill="none" stroke="#000000" points="0,-6 0,-47 191,-47 191,-6 0,-6"/>
<text text-anchor="start" x="8" y="-35" font-family="Helvetica,sans-Serif" font-size="10.00" fill="#000000">/mnt/hdd/fnky/C0de</text>
<text text-anchor="start" x="8" y="-24" font-family="Helvetica,sans-Serif" font-size="10.00" fill="#000000">/CAPSTONE/clean_build</text>
<text text-anchor="middle" x="95.5" y="-13" font-family="Helvetica,sans-Serif" font-size="10.00" fill="#000000">/src/BStateMachine/BStateMachine.cpp</text>
</a>
</g>
</g>
<!-- Node1&#45;&gt;Node6 -->
<g id="edge11" class="edge">
<title>Node1&#45;&gt;Node6</title>
<path fill="none" stroke="#191970" d="M138.5771,-249.848C129.1147,-241.2557 120.3395,-231.2082 114.5,-220 84.8664,-163.1216 88.7541,-84.0841 92.7285,-47.1109"/>
<polygon fill="#191970" stroke="#191970" points="136.3938,-252.5861 146.2701,-256.4213 140.9411,-247.2642 136.3938,-252.5861"/>
</g>
<!-- Node11 -->
<g id="node11" class="node">
<title>Node11</title>
<g id="a_node11"><a xlink:href="Transition_8cpp.html" target="_top" xlink:title="/mnt/hdd/fnky/C0de\l/CAPSTONE/clean_build\l/src/BStateMachine/Transition.cpp">
<polygon fill="none" stroke="#000000" points="269,-173 269,-214 436,-214 436,-173 269,-173"/>
<text text-anchor="start" x="277" y="-202" font-family="Helvetica,sans-Serif" font-size="10.00" fill="#000000">/mnt/hdd/fnky/C0de</text>
<text text-anchor="start" x="277" y="-191" font-family="Helvetica,sans-Serif" font-size="10.00" fill="#000000">/CAPSTONE/clean_build</text>
<text text-anchor="middle" x="352.5" y="-180" font-family="Helvetica,sans-Serif" font-size="10.00" fill="#000000">/src/BStateMachine/Transition.cpp</text>
</a>
</g>
</g>
<!-- Node1&#45;&gt;Node11 -->
<g id="edge12" class="edge">
<title>Node1&#45;&gt;Node11</title>
<path fill="none" stroke="#191970" d="M245.0905,-251.436C268.0588,-239.0471 293.8695,-225.1249 314.432,-214.0336"/>
<polygon fill="#191970" stroke="#191970" points="243.2527,-248.4506 236.113,-256.2784 246.5759,-254.6115 243.2527,-248.4506"/>
</g>
<!-- Node3 -->
<g id="node3" class="node">
<title>Node3</title>
<g id="a_node3"><a xlink:href="NPC__Actor_8h.html" target="_top" xlink:title="/mnt/hdd/fnky/C0de\l/CAPSTONE/clean_build\l/include/Actors/NPC_Actor.h">
<polygon fill="none" stroke="#000000" points="433,-89.5 433,-130.5 576,-130.5 576,-89.5 433,-89.5"/>
<text text-anchor="start" x="441" y="-118.5" font-family="Helvetica,sans-Serif" font-size="10.00" fill="#000000">/mnt/hdd/fnky/C0de</text>
<text text-anchor="start" x="441" y="-107.5" font-family="Helvetica,sans-Serif" font-size="10.00" fill="#000000">/CAPSTONE/clean_build</text>
<text text-anchor="middle" x="504.5" y="-96.5" font-family="Helvetica,sans-Serif" font-size="10.00" fill="#000000">/include/Actors/NPC_Actor.h</text>
</a>
</g>
</g>
<!-- Node2&#45;&gt;Node3 -->
<g id="edge2" class="edge">
<title>Node2&#45;&gt;Node3</title>
<path fill="none" stroke="#191970" d="M260.8292,-167.0359C324.2542,-148.4905 386.3616,-134.2744 432.9133,-124.3805"/>
<polygon fill="#191970" stroke="#191970" points="259.6504,-163.7345 251.053,-169.9262 261.635,-170.4473 259.6504,-163.7345"/>
</g>
<!-- Node2&#45;&gt;Node6 -->
<g id="edge10" class="edge">
<title>Node2&#45;&gt;Node6</title>
<path fill="none" stroke="#191970" d="M168.1393,-158.3561C149.5701,-124.6491 122.1638,-74.9006 106.8733,-47.145"/>
<polygon fill="#191970" stroke="#191970" points="165.2341,-160.3362 173.125,-167.4063 171.3653,-156.9586 165.2341,-160.3362"/>
</g>
<!-- Node4 -->
<g id="node4" class="node">
<title>Node4</title>
<g id="a_node4"><a xlink:href="NPC__Actor_8cpp.html" target="_top" xlink:title="/mnt/hdd/fnky/C0de\l/CAPSTONE/clean_build\l/src/Actors/NPC_Actor.cpp">
<polygon fill="none" stroke="#000000" points="209,-6 209,-47 346,-47 346,-6 209,-6"/>
<text text-anchor="start" x="217" y="-35" font-family="Helvetica,sans-Serif" font-size="10.00" fill="#000000">/mnt/hdd/fnky/C0de</text>
<text text-anchor="start" x="217" y="-24" font-family="Helvetica,sans-Serif" font-size="10.00" fill="#000000">/CAPSTONE/clean_build</text>
<text text-anchor="middle" x="277.5" y="-13" font-family="Helvetica,sans-Serif" font-size="10.00" fill="#000000">/src/Actors/NPC_Actor.cpp</text>
</a>
</g>
</g>
<!-- Node3&#45;&gt;Node4 -->
<g id="edge3" class="edge">
<title>Node3&#45;&gt;Node4</title>
<path fill="none" stroke="#191970" d="M439.0041,-85.9079C405.6148,-73.6259 365.4311,-58.8447 333.4991,-47.0988"/>
<polygon fill="#191970" stroke="#191970" points="438.0853,-89.2992 448.6788,-89.4667 440.5019,-82.7295 438.0853,-89.2992"/>
</g>
<!-- Node5 -->
<g id="node5" class="node">
<title>Node5</title>
<g id="a_node5"><a xlink:href="Projectile__Actor_8cpp.html" target="_top" xlink:title="/mnt/hdd/fnky/C0de\l/CAPSTONE/clean_build\l/src/Actors/Projectile\l_Actor.cpp">
<polygon fill="none" stroke="#000000" points="364,-.5 364,-52.5 491,-52.5 491,-.5 364,-.5"/>
<text text-anchor="start" x="372" y="-40.5" font-family="Helvetica,sans-Serif" font-size="10.00" fill="#000000">/mnt/hdd/fnky/C0de</text>
<text text-anchor="start" x="372" y="-29.5" font-family="Helvetica,sans-Serif" font-size="10.00" fill="#000000">/CAPSTONE/clean_build</text>
<text text-anchor="start" x="372" y="-18.5" font-family="Helvetica,sans-Serif" font-size="10.00" fill="#000000">/src/Actors/Projectile</text>
<text text-anchor="middle" x="427.5" y="-7.5" font-family="Helvetica,sans-Serif" font-size="10.00" fill="#000000">_Actor.cpp</text>
</a>
</g>
</g>
<!-- Node3&#45;&gt;Node5 -->
<g id="edge4" class="edge">
<title>Node3&#45;&gt;Node5</title>
<path fill="none" stroke="#191970" d="M478.4313,-81.7307C469.7373,-72.3027 460.0958,-61.8474 451.5614,-52.5925"/>
<polygon fill="#191970" stroke="#191970" points="476.1141,-84.3808 485.4663,-89.3595 481.2601,-79.6354 476.1141,-84.3808"/>
</g>
<!-- Node3&#45;&gt;Node6 -->
<g id="edge5" class="edge">
<title>Node3&#45;&gt;Node6</title>
<path fill="none" stroke="#191970" d="M422.701,-96.195C361.1207,-85.4435 274.7423,-69.5987 199.5,-53 191.1303,-51.1536 182.4105,-49.1151 173.7368,-47.0133"/>
<polygon fill="#191970" stroke="#191970" points="422.2969,-99.6771 432.7488,-97.9425 423.4964,-92.7807 422.2969,-99.6771"/>
</g>
<!-- Node7 -->
<g id="node7" class="node">
<title>Node7</title>
<g id="a_node7"><a xlink:href="ConditionInRange_8cpp.html" target="_top" xlink:title="/mnt/hdd/fnky/C0de\l/CAPSTONE/clean_build\l/src/BStateMachine/Condition\lInRange.cpp">
<polygon fill="none" stroke="#000000" points="509,-.5 509,-52.5 656,-52.5 656,-.5 509,-.5"/>
<text text-anchor="start" x="517" y="-40.5" font-family="Helvetica,sans-Serif" font-size="10.00" fill="#000000">/mnt/hdd/fnky/C0de</text>
<text text-anchor="start" x="517" y="-29.5" font-family="Helvetica,sans-Serif" font-size="10.00" fill="#000000">/CAPSTONE/clean_build</text>
<text text-anchor="start" x="517" y="-18.5" font-family="Helvetica,sans-Serif" font-size="10.00" fill="#000000">/src/BStateMachine/Condition</text>
<text text-anchor="middle" x="582.5" y="-7.5" font-family="Helvetica,sans-Serif" font-size="10.00" fill="#000000">InRange.cpp</text>
</a>
</g>
</g>
<!-- Node3&#45;&gt;Node7 -->
<g id="edge6" class="edge">
<title>Node3&#45;&gt;Node7</title>
<path fill="none" stroke="#191970" d="M530.6434,-82.0132C539.5188,-72.512 549.3944,-61.94 558.1261,-52.5925"/>
<polygon fill="#191970" stroke="#191970" points="528.0496,-79.6627 523.7809,-89.3595 533.1649,-84.4411 528.0496,-79.6627"/>
</g>
<!-- Node8 -->
<g id="node8" class="node">
<title>Node8</title>
<g id="a_node8"><a xlink:href="ConditionOutOfRange_8cpp.html" target="_top" xlink:title="/mnt/hdd/fnky/C0de\l/CAPSTONE/clean_build\l/src/BStateMachine/Condition\lOutOfRange.cpp">
<polygon fill="none" stroke="#000000" points="674,-.5 674,-52.5 821,-52.5 821,-.5 674,-.5"/>
<text text-anchor="start" x="682" y="-40.5" font-family="Helvetica,sans-Serif" font-size="10.00" fill="#000000">/mnt/hdd/fnky/C0de</text>
<text text-anchor="start" x="682" y="-29.5" font-family="Helvetica,sans-Serif" font-size="10.00" fill="#000000">/CAPSTONE/clean_build</text>
<text text-anchor="start" x="682" y="-18.5" font-family="Helvetica,sans-Serif" font-size="10.00" fill="#000000">/src/BStateMachine/Condition</text>
<text text-anchor="middle" x="747.5" y="-7.5" font-family="Helvetica,sans-Serif" font-size="10.00" fill="#000000">OutOfRange.cpp</text>
</a>
</g>
</g>
<!-- Node3&#45;&gt;Node8 -->
<g id="edge7" class="edge">
<title>Node3&#45;&gt;Node8</title>
<path fill="none" stroke="#191970" d="M573.7502,-86.2041C604.9706,-75.4762 641.8767,-62.7944 673.6274,-51.8842"/>
<polygon fill="#191970" stroke="#191970" points="572.5755,-82.9068 564.2557,-89.4667 574.8504,-89.5269 572.5755,-82.9068"/>
</g>
<!-- Node9 -->
<g id="node9" class="node">
<title>Node9</title>
<g id="a_node9"><a xlink:href="LoadingGameObjects_8cpp.html" target="_top" xlink:title="/mnt/hdd/fnky/C0de\l/CAPSTONE/clean_build\l/src/Loaders/LoadingGameObjects.cpp">
<polygon fill="none" stroke="#000000" points="839.5,-6 839.5,-47 1025.5,-47 1025.5,-6 839.5,-6"/>
<text text-anchor="start" x="847.5" y="-35" font-family="Helvetica,sans-Serif" font-size="10.00" fill="#000000">/mnt/hdd/fnky/C0de</text>
<text text-anchor="start" x="847.5" y="-24" font-family="Helvetica,sans-Serif" font-size="10.00" fill="#000000">/CAPSTONE/clean_build</text>
<text text-anchor="middle" x="932.5" y="-13" font-family="Helvetica,sans-Serif" font-size="10.00" fill="#000000">/src/Loaders/LoadingGameObjects.cpp</text>
</a>
</g>
</g>
<!-- Node3&#45;&gt;Node9 -->
<g id="edge8" class="edge">
<title>Node3&#45;&gt;Node9</title>
<path fill="none" stroke="#191970" d="M586.0008,-97.6305C652.1616,-87.1383 747.7177,-70.9597 830.5,-53 838.9037,-51.1768 847.6598,-49.1298 856.3555,-47.0027"/>
<polygon fill="#191970" stroke="#191970" points="585.382,-94.1848 576.0499,-99.2009 586.4733,-101.0992 585.382,-94.1848"/>
</g>
<!-- Node10 -->
<g id="node10" class="node">
<title>Node10</title>
<g id="a_node10"><a xlink:href="game__play__state_8cpp.html" target="_top" xlink:title="/mnt/hdd/fnky/C0de\l/CAPSTONE/clean_build\l/src/States/game_play\l_state.cpp">
<polygon fill="none" stroke="#000000" points="1044,-.5 1044,-52.5 1171,-52.5 1171,-.5 1044,-.5"/>
<text text-anchor="start" x="1052" y="-40.5" font-family="Helvetica,sans-Serif" font-size="10.00" fill="#000000">/mnt/hdd/fnky/C0de</text>
<text text-anchor="start" x="1052" y="-29.5" font-family="Helvetica,sans-Serif" font-size="10.00" fill="#000000">/CAPSTONE/clean_build</text>
<text text-anchor="start" x="1052" y="-18.5" font-family="Helvetica,sans-Serif" font-size="10.00" fill="#000000">/src/States/game_play</text>
<text text-anchor="middle" x="1107.5" y="-7.5" font-family="Helvetica,sans-Serif" font-size="10.00" fill="#000000">_state.cpp</text>
</a>
</g>
</g>
<!-- Node3&#45;&gt;Node10 -->
<g id="edge9" class="edge">
<title>Node3&#45;&gt;Node10</title>
<path fill="none" stroke="#191970" d="M586.3446,-107.3053C691.3452,-102.4621 878.5392,-89.1354 1034.5,-53 1037.521,-52.3 1040.5885,-51.512 1043.6696,-50.6572"/>
<polygon fill="#191970" stroke="#191970" points="585.9666,-103.8186 576.1328,-107.7615 586.279,-110.8117 585.9666,-103.8186"/>
</g>
</g>
</svg>
