<?xml version="1.0" encoding="UTF-8" standalone="no"?>
<!DOCTYPE svg PUBLIC "-//W3C//DTD SVG 1.1//EN"
 "http://www.w3.org/Graphics/SVG/1.1/DTD/svg11.dtd">
<!-- Generated by graphviz version 2.40.1 (20161225.0304)
 -->
<!-- Title: /mnt/hdd/fnky/C0de/CAPSTONE/clean_build/src/BStateMachine/Transition.cpp Pages: 1 -->
<!--zoomable 408 -->
<svg id="main" version="1.1" xmlns="http://www.w3.org/2000/svg" xmlns:xlink="http://www.w3.org/1999/xlink" xml:space="preserve" onload="init(evt)">
<style type="text/css"><![CDATA[
.edge:hover path { stroke: red; }
.edge:hover polygon { stroke: red; fill: red; }
]]></style>
<script type="text/javascript"><![CDATA[
var edges = document.getElementsByTagName('g');
if (edges && edges.length) {
  for (var i=0;i<edges.length;i++) {
    if (edges[i].id.substr(0,4)=='edge') {
      edges[i].setAttribute('class','edge');
    }
  }
}
]]></script>
        <defs>
                <circle id="rim" cx="0" cy="0" r="7"/>
                <circle id="rim2" cx="0" cy="0" r="3.5"/>
                <g id="zoomPlus">
                        <use xlink:href="#rim" fill="#404040">
                                <set attributeName="fill" to="#808080" begin="zoomplus.mouseover" end="zoomplus.mouseout"/>
                        </use>
                        <path d="M-4,0h8M0,-4v8" fill="none" stroke="white" stroke-width="1.5" pointer-events="none"/>
                </g>
                <g id="zoomMin">
                        <use xlink:href="#rim" fill="#404040">
                                <set attributeName="fill" to="#808080" begin="zoomminus.mouseover" end="zoomminus.mouseout"/>
                        </use>
                        <path d="M-4,0h8" fill="none" stroke="white" stroke-width="1.5" pointer-events="none"/>
                </g>
                <g id="dirArrow">
                        <path fill="none" stroke="white" stroke-width="1.5" d="M0,-3.0v7 M-2.5,-0.5L0,-3.0L2.5,-0.5"/>
                </g>
               <g id="resetDef">
                       <use xlink:href="#rim2" fill="#404040">
                               <set attributeName="fill" to="#808080" begin="reset.mouseover" end="reset.mouseout"/>
                       </use>
               </g>
        </defs>

<script type="text/javascript">
var viewWidth = 727;
var viewHeight = 408;
var sectionId = 'dynsection-0';
</script>
<script xlink:href="svgpan.js"/>
<svg id="graph" class="graph">
<g id="viewport">
<title>/mnt/hdd/fnky/C0de/CAPSTONE/clean_build/src/BStateMachine/Transition.cpp</title>
<!-- Node0 -->
<g id="node1" class="node">
<title>Node0</title>
<polygon fill="#bfbfbf" stroke="#000000" points="80,-358.5 80,-399.5 247,-399.5 247,-358.5 80,-358.5"/>
<text text-anchor="start" x="88" y="-387.5" font-family="Helvetica,sans-Serif" font-size="10.00" fill="#000000">/mnt/hdd/fnky/C0de</text>
<text text-anchor="start" x="88" y="-376.5" font-family="Helvetica,sans-Serif" font-size="10.00" fill="#000000">/CAPSTONE/clean_build</text>
<text text-anchor="middle" x="163.5" y="-365.5" font-family="Helvetica,sans-Serif" font-size="10.00" fill="#000000">/src/BStateMachine/Transition.cpp</text>
</g>
<!-- Node1 -->
<g id="node2" class="node">
<title>Node1</title>
<g id="a_node2"><a xlink:href="Transition_8h.html" target="_top" xlink:title="../../include/BStateMachine\l/Transition.h">
<polygon fill="none" stroke="#000000" points="0,-291.5 0,-321.5 135,-321.5 135,-291.5 0,-291.5"/>
<text text-anchor="start" x="8" y="-309.5" font-family="Helvetica,sans-Serif" font-size="10.00" fill="#000000">../../include/BStateMachine</text>
<text text-anchor="middle" x="67.5" y="-298.5" font-family="Helvetica,sans-Serif" font-size="10.00" fill="#000000">/Transition.h</text>
</a>
</g>
</g>
<!-- Node0&#45;&gt;Node1 -->
<g id="edge1" class="edge">
<title>Node0&#45;&gt;Node1</title>
<path fill="none" stroke="#191970" d="M136.247,-358.4183C123.5147,-348.8028 108.3707,-337.3659 95.5413,-327.677"/>
<polygon fill="#191970" stroke="#191970" points="97.5826,-324.8327 87.4933,-321.5991 93.364,-330.4187 97.5826,-324.8327"/>
</g>
<!-- Node2 -->
<g id="node3" class="node">
<title>Node2</title>
<g id="a_node3"><a xlink:href="Condition_8h.html" target="_top" xlink:title="../../include/BStateMachine\l/Condition.h">
<polygon fill="none" stroke="#000000" points="49,-224.5 49,-254.5 184,-254.5 184,-224.5 49,-224.5"/>
<text text-anchor="start" x="57" y="-242.5" font-family="Helvetica,sans-Serif" font-size="10.00" fill="#000000">../../include/BStateMachine</text>
<text text-anchor="middle" x="116.5" y="-231.5" font-family="Helvetica,sans-Serif" font-size="10.00" fill="#000000">/Condition.h</text>
</a>
</g>
</g>
<!-- Node0&#45;&gt;Node2 -->
<g id="edge2" class="edge">
<title>Node0&#45;&gt;Node2</title>
<path fill="none" stroke="#191970" d="M160.3578,-358.2932C157.2433,-340.1784 151.7369,-313.3446 143.5,-291 140.1005,-281.778 135.3815,-272.1217 130.8384,-263.6952"/>
<polygon fill="#191970" stroke="#191970" points="133.7971,-261.8149 125.8636,-254.7928 127.6865,-265.2297 133.7971,-261.8149"/>
</g>
<!-- Node4 -->
<g id="node5" class="node">
<title>Node4</title>
<g id="a_node5"><a xlink:href="Player__Actor_8h.html" target="_top" xlink:title="../../include/Actors\l/Player_Actor.h">
<polygon fill="none" stroke="#000000" points="295,-291.5 295,-321.5 392,-321.5 392,-291.5 295,-291.5"/>
<text text-anchor="start" x="303" y="-309.5" font-family="Helvetica,sans-Serif" font-size="10.00" fill="#000000">../../include/Actors</text>
<text text-anchor="middle" x="343.5" y="-298.5" font-family="Helvetica,sans-Serif" font-size="10.00" fill="#000000">/Player_Actor.h</text>
</a>
</g>
</g>
<!-- Node0&#45;&gt;Node4 -->
<g id="edge4" class="edge">
<title>Node0&#45;&gt;Node4</title>
<path fill="none" stroke="#191970" d="M214.5993,-358.4183C240.405,-348.0244 271.4943,-335.5023 296.6746,-325.3602"/>
<polygon fill="#191970" stroke="#191970" points="298.0444,-328.5818 306.0126,-321.5991 295.429,-322.0887 298.0444,-328.5818"/>
</g>
<!-- Node3 -->
<g id="node4" class="node">
<title>Node3</title>
<polygon fill="none" stroke="#bfbfbf" points="128.5,-56.5 128.5,-75.5 182.5,-75.5 182.5,-56.5 128.5,-56.5"/>
<text text-anchor="middle" x="155.5" y="-63.5" font-family="Helvetica,sans-Serif" font-size="10.00" fill="#000000">iostream</text>
</g>
<!-- Node2&#45;&gt;Node3 -->
<g id="edge3" class="edge">
<title>Node2&#45;&gt;Node3</title>
<path fill="none" stroke="#191970" d="M119.8928,-224.4065C126.9496,-193.0126 143.2052,-120.6961 151.0734,-85.6925"/>
<polygon fill="#191970" stroke="#191970" points="154.5327,-86.2622 153.3111,-75.738 147.7031,-84.7269 154.5327,-86.2622"/>
</g>
<!-- Node5 -->
<g id="node6" class="node">
<title>Node5</title>
<g id="a_node6"><a xlink:href="Components_2Component_8h.html" target="_top" xlink:title="../Components/Component.h">
<polygon fill="none" stroke="#000000" points="293,-56.5 293,-75.5 436,-75.5 436,-56.5 293,-56.5"/>
<text text-anchor="middle" x="364.5" y="-63.5" font-family="Helvetica,sans-Serif" font-size="10.00" fill="#000000">../Components/Component.h</text>
</a>
</g>
</g>
<!-- Node4&#45;&gt;Node5 -->
<g id="edge5" class="edge">
<title>Node4&#45;&gt;Node5</title>
<path fill="none" stroke="#191970" d="M342.8991,-291.2747C342.3854,-274.7043 341.9492,-247.4383 343.5,-224 346.8209,-173.8087 356.0138,-115.2329 361.0653,-85.4859"/>
<polygon fill="#191970" stroke="#191970" points="364.5241,-86.0241 362.7776,-75.5742 357.6262,-84.8324 364.5241,-86.0241"/>
</g>
<!-- Node6 -->
<g id="node7" class="node">
<title>Node6</title>
<polygon fill="none" stroke="#bfbfbf" points="553.5,-.5 553.5,-19.5 605.5,-19.5 605.5,-.5 553.5,-.5"/>
<text text-anchor="middle" x="579.5" y="-7.5" font-family="Helvetica,sans-Serif" font-size="10.00" fill="#000000">memory</text>
</g>
<!-- Node4&#45;&gt;Node6 -->
<g id="edge23" class="edge">
<title>Node4&#45;&gt;Node6</title>
<path fill="none" stroke="#191970" d="M392.1403,-300.2473C493.6061,-285.8418 718.5,-246.2182 718.5,-178 718.5,-178 718.5,-178 718.5,-122 718.5,-68.922 656.285,-36.7346 615.1014,-21.2424"/>
<polygon fill="#191970" stroke="#191970" points="616.2392,-17.9322 605.6448,-17.8362 613.867,-24.518 616.2392,-17.9322"/>
</g>
<!-- Node7 -->
<g id="node8" class="node">
<title>Node7</title>
<g id="a_node8"><a xlink:href="Actor_8h.html" target="_top" xlink:title="Actor.h">
<polygon fill="none" stroke="#000000" points="240.5,-112.5 240.5,-131.5 288.5,-131.5 288.5,-112.5 240.5,-112.5"/>
<text text-anchor="middle" x="264.5" y="-119.5" font-family="Helvetica,sans-Serif" font-size="10.00" fill="#000000">Actor.h</text>
</a>
</g>
</g>
<!-- Node4&#45;&gt;Node7 -->
<g id="edge7" class="edge">
<title>Node4&#45;&gt;Node7</title>
<path fill="none" stroke="#191970" d="M312.7257,-291.4337C298.5761,-282.8149 283.0644,-270.5906 274.5,-255 254.7947,-219.1288 257.5327,-169.3905 261.1164,-142.0332"/>
<polygon fill="#191970" stroke="#191970" points="264.6314,-142.1907 262.641,-131.7845 257.7076,-141.1606 264.6314,-142.1907"/>
</g>
<!-- Node8 -->
<g id="node9" class="node">
<title>Node8</title>
<polygon fill="none" stroke="#bfbfbf" points="220.5,-56.5 220.5,-75.5 264.5,-75.5 264.5,-56.5 220.5,-56.5"/>
<text text-anchor="middle" x="242.5" y="-63.5" font-family="Helvetica,sans-Serif" font-size="10.00" fill="#000000">vector</text>
</g>
<!-- Node4&#45;&gt;Node8 -->
<g id="edge25" class="edge">
<title>Node4&#45;&gt;Node8</title>
<path fill="none" stroke="#191970" d="M306.4864,-291.4682C290.1043,-283.0415 271.9858,-270.9702 260.5,-255 222.6359,-202.3527 223.9067,-176.4032 231.5,-112 232.5429,-103.1546 234.6768,-93.5467 236.79,-85.4104"/>
<polygon fill="#191970" stroke="#191970" points="240.1694,-86.3213 239.4625,-75.7501 233.4228,-84.4548 240.1694,-86.3213"/>
</g>
<!-- Node9 -->
<g id="node10" class="node">
<title>Node9</title>
<g id="a_node10"><a xlink:href="PickUps__Actor_8h.html" target="_top" xlink:title="PickUps_Actor.h">
<polygon fill="none" stroke="#000000" points="353,-230 353,-249 444,-249 444,-230 353,-230"/>
<text text-anchor="middle" x="398.5" y="-237" font-family="Helvetica,sans-Serif" font-size="10.00" fill="#000000">PickUps_Actor.h</text>
</a>
</g>
</g>
<!-- Node4&#45;&gt;Node9 -->
<g id="edge11" class="edge">
<title>Node4&#45;&gt;Node9</title>
<path fill="none" stroke="#191970" d="M355.9804,-291.2967C364.3832,-281.0605 375.4849,-267.5366 384.2373,-256.8746"/>
<polygon fill="#191970" stroke="#191970" points="387.0167,-259.005 390.6564,-249.055 381.6061,-254.5635 387.0167,-259.005"/>
</g>
<!-- Node11 -->
<g id="node12" class="node">
<title>Node11</title>
<polygon fill="none" stroke="#bfbfbf" points="544.5,-112.5 544.5,-131.5 614.5,-131.5 614.5,-112.5 544.5,-112.5"/>
<text text-anchor="middle" x="579.5" y="-119.5" font-family="Helvetica,sans-Serif" font-size="10.00" fill="#000000">glm/fwd.hpp</text>
</g>
<!-- Node4&#45;&gt;Node11 -->
<g id="edge22" class="edge">
<title>Node4&#45;&gt;Node11</title>
<path fill="none" stroke="#191970" d="M392.1893,-299.6311C448.3996,-290.9315 536.5828,-274.6778 563.5,-255 591.4973,-234.5326 594.2792,-221.4327 603.5,-188 608.0388,-171.5432 600.4334,-153.3448 592.6103,-140.2329"/>
<polygon fill="#191970" stroke="#191970" points="595.4337,-138.1545 587.0459,-131.6819 589.5665,-141.9725 595.4337,-138.1545"/>
</g>
<!-- Node13 -->
<g id="node14" class="node">
<title>Node13</title>
<polygon fill="none" stroke="#bfbfbf" points="462,-230 462,-249 555,-249 555,-230 462,-230"/>
<text text-anchor="middle" x="508.5" y="-237" font-family="Helvetica,sans-Serif" font-size="10.00" fill="#000000">box2d/b2_world.h</text>
</g>
<!-- Node4&#45;&gt;Node13 -->
<g id="edge24" class="edge">
<title>Node4&#45;&gt;Node13</title>
<path fill="none" stroke="#191970" d="M380.5292,-291.4639C408.9623,-279.9183 447.8746,-264.1176 475.3034,-252.9798"/>
<polygon fill="#191970" stroke="#191970" points="476.9001,-256.1091 484.8486,-249.1039 474.2665,-249.6234 476.9001,-256.1091"/>
</g>
<!-- Node5&#45;&gt;Node6 -->
<g id="edge6" class="edge">
<title>Node5&#45;&gt;Node6</title>
<path fill="none" stroke="#191970" d="M401.4598,-56.3733C441.3314,-45.9881 504.3824,-29.5655 543.7696,-19.3065"/>
<polygon fill="#191970" stroke="#191970" points="544.6916,-22.6832 553.4866,-16.7756 542.9272,-15.9092 544.6916,-22.6832"/>
</g>
<!-- Node7&#45;&gt;Node3 -->
<g id="edge9" class="edge">
<title>Node7&#45;&gt;Node3</title>
<path fill="none" stroke="#191970" d="M245.5136,-112.2455C228.3208,-103.4125 202.7762,-90.2887 183.2868,-80.2758"/>
<polygon fill="#191970" stroke="#191970" points="184.763,-77.0993 174.2688,-75.6427 181.5641,-83.3257 184.763,-77.0993"/>
</g>
<!-- Node7&#45;&gt;Node5 -->
<g id="edge10" class="edge">
<title>Node7&#45;&gt;Node5</title>
<path fill="none" stroke="#191970" d="M281.9187,-112.2455C297.5485,-103.4928 320.7019,-90.527 338.5185,-80.5496"/>
<polygon fill="#191970" stroke="#191970" points="340.266,-83.5825 347.2809,-75.6427 336.8457,-77.475 340.266,-83.5825"/>
</g>
<!-- Node7&#45;&gt;Node8 -->
<g id="edge8" class="edge">
<title>Node7&#45;&gt;Node8</title>
<path fill="none" stroke="#191970" d="M260.6679,-112.2455C257.7341,-104.7776 253.5953,-94.2427 250.009,-85.1137"/>
<polygon fill="#191970" stroke="#191970" points="253.2024,-83.6704 246.2882,-75.6427 246.6871,-86.23 253.2024,-83.6704"/>
</g>
<!-- Node9&#45;&gt;Node5 -->
<g id="edge12" class="edge">
<title>Node9&#45;&gt;Node5</title>
<path fill="none" stroke="#191970" d="M395.2435,-229.7249C391.9133,-219.4377 386.7769,-202.7261 383.5,-188 375.5412,-152.2345 369.74,-109.8404 366.7633,-85.6142"/>
<polygon fill="#191970" stroke="#191970" points="370.225,-85.0841 365.5642,-75.5695 363.2743,-85.9139 370.225,-85.0841"/>
</g>
<!-- Node9&#45;&gt;Node6 -->
<g id="edge20" class="edge">
<title>Node9&#45;&gt;Node6</title>
<path fill="none" stroke="#191970" d="M430.7004,-229.9978C437.8602,-227.9575 445.4247,-225.8578 452.5,-224 519.2299,-206.4781 552.1307,-234.0553 603.5,-188 629.5062,-164.6841 630.5632,-146.2062 623.5,-112 617.1609,-81.3009 601.1341,-48.4663 590.2768,-28.5833"/>
<polygon fill="#191970" stroke="#191970" points="593.2322,-26.6977 585.2881,-19.6875 587.1267,-30.1216 593.2322,-26.6977"/>
</g>
<!-- Node9&#45;&gt;Node7 -->
<g id="edge13" class="edge">
<title>Node9&#45;&gt;Node7</title>
<path fill="none" stroke="#191970" d="M387.5342,-229.8845C364.6643,-209.8306 311.6503,-163.3445 283.2542,-138.4449"/>
<polygon fill="#191970" stroke="#191970" points="285.4437,-135.7098 275.6173,-131.7484 280.8286,-140.973 285.4437,-135.7098"/>
</g>
<!-- Node10 -->
<g id="node11" class="node">
<title>Node10</title>
<g id="a_node11"><a xlink:href="Texture__Actor_8h.html" target="_top" xlink:title="Texture_Actor.h">
<polygon fill="none" stroke="#000000" points="490.5,-168.5 490.5,-187.5 576.5,-187.5 576.5,-168.5 490.5,-168.5"/>
<text text-anchor="middle" x="533.5" y="-175.5" font-family="Helvetica,sans-Serif" font-size="10.00" fill="#000000">Texture_Actor.h</text>
</a>
</g>
</g>
<!-- Node9&#45;&gt;Node10 -->
<g id="edge14" class="edge">
<title>Node9&#45;&gt;Node10</title>
<path fill="none" stroke="#191970" d="M419.5938,-229.8906C442.0827,-219.6457 477.8918,-203.3326 503.3524,-191.7339"/>
<polygon fill="#191970" stroke="#191970" points="504.9052,-194.8727 512.5544,-187.5419 502.0032,-188.5025 504.9052,-194.8727"/>
</g>
<!-- Node9&#45;&gt;Node11 -->
<g id="edge19" class="edge">
<title>Node9&#45;&gt;Node11</title>
<path fill="none" stroke="#191970" d="M431.3173,-229.994C438.3036,-227.9945 445.6415,-225.9124 452.5,-224 511.488,-207.5518 548.2823,-236.6309 585.5,-188 595.6283,-174.7658 592.3747,-155.379 587.6398,-141.0385"/>
<polygon fill="#191970" stroke="#191970" points="590.9026,-139.7713 584.1004,-131.6484 584.3524,-142.2402 590.9026,-139.7713"/>
</g>
<!-- Node12 -->
<g id="node13" class="node">
<title>Node12</title>
<polygon fill="none" stroke="#bfbfbf" points="392.5,-168.5 392.5,-187.5 472.5,-187.5 472.5,-168.5 392.5,-168.5"/>
<text text-anchor="middle" x="432.5" y="-175.5" font-family="Helvetica,sans-Serif" font-size="10.00" fill="#000000">box2d/box2d.h</text>
</g>
<!-- Node9&#45;&gt;Node12 -->
<g id="edge21" class="edge">
<title>Node9&#45;&gt;Node12</title>
<path fill="none" stroke="#191970" d="M403.8125,-229.8906C408.7239,-221.0068 416.1579,-207.5601 422.2275,-196.5811"/>
<polygon fill="#191970" stroke="#191970" points="425.3373,-198.1899 427.1126,-187.7449 419.2112,-194.8031 425.3373,-198.1899"/>
</g>
<!-- Node10&#45;&gt;Node5 -->
<g id="edge15" class="edge">
<title>Node10&#45;&gt;Node5</title>
<path fill="none" stroke="#191970" d="M519.0912,-168.4509C489.7815,-149.0268 423.0017,-104.7703 387.5708,-81.2895"/>
<polygon fill="#191970" stroke="#191970" points="389.1415,-78.1317 378.8724,-75.5249 385.2745,-83.9666 389.1415,-78.1317"/>
</g>
<!-- Node10&#45;&gt;Node6 -->
<g id="edge18" class="edge">
<title>Node10&#45;&gt;Node6</title>
<path fill="none" stroke="#191970" d="M532.681,-168.4624C531.8179,-155.5047 531.1211,-131.695 535.5,-112 542.3033,-81.4004 558.2049,-48.5389 568.9088,-28.6231"/>
<polygon fill="#191970" stroke="#191970" points="572.0591,-30.1582 573.8201,-19.7107 565.9283,-26.7798 572.0591,-30.1582"/>
</g>
<!-- Node10&#45;&gt;Node7 -->
<g id="edge16" class="edge">
<title>Node10&#45;&gt;Node7</title>
<path fill="none" stroke="#191970" d="M490.2805,-169.0026C437.0106,-157.913 347.5708,-139.2935 298.782,-129.1368"/>
<polygon fill="#191970" stroke="#191970" points="299.2327,-125.6556 288.7293,-127.044 297.806,-132.5087 299.2327,-125.6556"/>
</g>
<!-- Node10&#45;&gt;Node11 -->
<g id="edge17" class="edge">
<title>Node10&#45;&gt;Node11</title>
<path fill="none" stroke="#191970" d="M541.5126,-168.2455C547.9768,-160.3761 557.2385,-149.101 564.9983,-139.6542"/>
<polygon fill="#191970" stroke="#191970" points="567.9364,-141.5916 571.5792,-131.6427 562.5273,-137.1484 567.9364,-141.5916"/>
</g>
</g>
</svg>
        <g id="navigator" transform="translate(0 0)" fill="#404254">
                <rect fill="#f2f5e9" fill-opacity="0.5" stroke="#606060" stroke-width=".5" x="0" y="0" width="60" height="60"/>
                <use id="zoomplus" xlink:href="#zoomPlus" x="17" y="9" onmousedown="handleZoom(evt,'in')"/>
                <use id="zoomminus" xlink:href="#zoomMin" x="42" y="9" onmousedown="handleZoom(evt,'out')"/>
                <use id="reset" xlink:href="#resetDef" x="30" y="36" onmousedown="handleReset()"/>
                <g id="arrowUp" xlink:href="#dirArrow" transform="translate(30 24)" onmousedown="handlePan(0,-1)">
                  <use xlink:href="#rim" fill="#404040">
                        <set attributeName="fill" to="#808080" begin="arrowUp.mouseover" end="arrowUp.mouseout"/>
                  </use>
                  <path fill="none" stroke="white" stroke-width="1.5" d="M0,-3.0v7 M-2.5,-0.5L0,-3.0L2.5,-0.5"/>
                </g>
                <g id="arrowRight" xlink:href="#dirArrow" transform="rotate(90) translate(36 -43)" onmousedown="handlePan(1,0)">
                  <use xlink:href="#rim" fill="#404040">
                        <set attributeName="fill" to="#808080" begin="arrowRight.mouseover" end="arrowRight.mouseout"/>
                  </use>
                  <path fill="none" stroke="white" stroke-width="1.5" d="M0,-3.0v7 M-2.5,-0.5L0,-3.0L2.5,-0.5"/>
                </g>
                <g id="arrowDown" xlink:href="#dirArrow" transform="rotate(180) translate(-30 -48)" onmousedown="handlePan(0,1)">
                  <use xlink:href="#rim" fill="#404040">
                        <set attributeName="fill" to="#808080" begin="arrowDown.mouseover" end="arrowDown.mouseout"/>
                  </use>
                  <path fill="none" stroke="white" stroke-width="1.5" d="M0,-3.0v7 M-2.5,-0.5L0,-3.0L2.5,-0.5"/>
                </g>
                <g id="arrowLeft" xlink:href="#dirArrow" transform="rotate(270) translate(-36 17)" onmousedown="handlePan(-1,0)">
                  <use xlink:href="#rim" fill="#404040">
                        <set attributeName="fill" to="#808080" begin="arrowLeft.mouseover" end="arrowLeft.mouseout"/>
                  </use>
                  <path fill="none" stroke="white" stroke-width="1.5" d="M0,-3.0v7 M-2.5,-0.5L0,-3.0L2.5,-0.5"/>
                </g>
        </g>
        <svg viewBox="0 0 15 15" width="100%" height="30px" preserveAspectRatio="xMaxYMin meet">
         <g id="arrow_out" transform="scale(0.3 0.3)">
          <a xlink:href="Transition_8cpp__incl_org.svg" target="_base">
           <rect id="button" ry="5" rx="5" y="6" x="6" height="38" width="38"
                fill="#f2f5e9" fill-opacity="0.5" stroke="#606060" stroke-width="1.0"/>
           <path id="arrow"
             d="M 11.500037,31.436501 C 11.940474,20.09759 22.043105,11.32322 32.158766,21.979434 L 37.068811,17.246167 C 37.068811,17.246167 37.088388,32 37.088388,32 L 22.160133,31.978069 C 22.160133,31.978069 26.997745,27.140456 26.997745,27.140456 C 18.528582,18.264221 13.291696,25.230495 11.500037,31.436501 z"
             style="fill:#404040;"/>
          </a>
         </g>
        </svg>
</svg>
