<?xml version="1.0" encoding="UTF-8" standalone="no"?>
<!DOCTYPE svg PUBLIC "-//W3C//DTD SVG 1.1//EN"
 "http://www.w3.org/Graphics/SVG/1.1/DTD/svg11.dtd">
<!-- Generated by graphviz version 2.40.1 (20161225.0304)
 -->
<!-- Title: GenericValue&lt; Encoding, Allocator &gt;::Data Pages: 1 -->
<svg width="720pt" height="915pt"
 viewBox="0.00 0.00 720.00 915.00" xmlns="http://www.w3.org/2000/svg" xmlns:xlink="http://www.w3.org/1999/xlink">
<g id="graph0" class="graph" transform="scale(1 1) rotate(0) translate(4 911)">
<title>GenericValue&lt; Encoding, Allocator &gt;::Data</title>
<!-- Node1 -->
<g id="node1" class="node">
<title>Node1</title>
<polygon fill="#bfbfbf" stroke="#000000" points="292,-562.5 292,-630.5 420,-630.5 420,-562.5 292,-562.5"/>
<text text-anchor="start" x="300" y="-618.5" font-family="Helvetica,sans-Serif" font-size="10.00" fill="#000000">GenericValue&lt; Encoding,</text>
<text text-anchor="middle" x="356" y="-607.5" font-family="Helvetica,sans-Serif" font-size="10.00" fill="#000000"> Allocator &gt;::Data</text>
<polyline fill="none" stroke="#000000" points="292,-600.5 420,-600.5 "/>
<text text-anchor="middle" x="356" y="-588.5" font-family="Helvetica,sans-Serif" font-size="10.00" fill="#000000"> </text>
<polyline fill="none" stroke="#000000" points="292,-581.5 420,-581.5 "/>
<text text-anchor="middle" x="356" y="-569.5" font-family="Helvetica,sans-Serif" font-size="10.00" fill="#000000"> </text>
</g>
<!-- Node4 -->
<g id="node4" class="node">
<title>Node4</title>
<g id="a_node4"><a xlink:href="classGenericValue.html" target="_top" xlink:title="Represents a JSON value. Use Value for UTF8 encoding and default allocator. ">
<polygon fill="none" stroke="#000000" points="232.5,-127.5 232.5,-514.5 373.5,-514.5 373.5,-127.5 232.5,-127.5"/>
<text text-anchor="start" x="240.5" y="-502.5" font-family="Helvetica,sans-Serif" font-size="10.00" fill="#000000">GenericValue&lt; Encoding,</text>
<text text-anchor="middle" x="303" y="-491.5" font-family="Helvetica,sans-Serif" font-size="10.00" fill="#000000"> Allocator &gt;</text>
<polyline fill="none" stroke="#000000" points="232.5,-484.5 373.5,-484.5 "/>
<text text-anchor="start" x="240.5" y="-472.5" font-family="Helvetica,sans-Serif" font-size="10.00" fill="#000000">+ kDefaultArrayCapacity</text>
<text text-anchor="start" x="240.5" y="-461.5" font-family="Helvetica,sans-Serif" font-size="10.00" fill="#000000">+ kDefaultObjectCapacity</text>
<polyline fill="none" stroke="#000000" points="232.5,-454.5 373.5,-454.5 "/>
<text text-anchor="start" x="240.5" y="-442.5" font-family="Helvetica,sans-Serif" font-size="10.00" fill="#000000">+ RAPIDJSON_DISABLEIF</text>
<text text-anchor="start" x="240.5" y="-431.5" font-family="Helvetica,sans-Serif" font-size="10.00" fill="#000000">_RETURN()</text>
<text text-anchor="start" x="240.5" y="-420.5" font-family="Helvetica,sans-Serif" font-size="10.00" fill="#000000">+ GetStringPointer()</text>
<text text-anchor="start" x="240.5" y="-409.5" font-family="Helvetica,sans-Serif" font-size="10.00" fill="#000000">+ SetStringPointer()</text>
<text text-anchor="start" x="240.5" y="-398.5" font-family="Helvetica,sans-Serif" font-size="10.00" fill="#000000">+ GetElementsPointer()</text>
<text text-anchor="start" x="240.5" y="-387.5" font-family="Helvetica,sans-Serif" font-size="10.00" fill="#000000">+ SetElementsPointer()</text>
<text text-anchor="start" x="240.5" y="-376.5" font-family="Helvetica,sans-Serif" font-size="10.00" fill="#000000">+ GetMembersPointer()</text>
<text text-anchor="start" x="240.5" y="-365.5" font-family="Helvetica,sans-Serif" font-size="10.00" fill="#000000">+ SetMembersPointer()</text>
<text text-anchor="start" x="240.5" y="-354.5" font-family="Helvetica,sans-Serif" font-size="10.00" fill="#000000">+ DoAllocMembers()</text>
<text text-anchor="start" x="240.5" y="-343.5" font-family="Helvetica,sans-Serif" font-size="10.00" fill="#000000">+ DoReserveMembers()</text>
<text text-anchor="start" x="240.5" y="-332.5" font-family="Helvetica,sans-Serif" font-size="10.00" fill="#000000">+ DoFindMember()</text>
<text text-anchor="start" x="240.5" y="-321.5" font-family="Helvetica,sans-Serif" font-size="10.00" fill="#000000">and 12 more...</text>
<text text-anchor="start" x="240.5" y="-310.5" font-family="Helvetica,sans-Serif" font-size="10.00" fill="#000000">+ operator=()</text>
<text text-anchor="start" x="240.5" y="-299.5" font-family="Helvetica,sans-Serif" font-size="10.00" fill="#000000">+ operator=()</text>
<text text-anchor="start" x="240.5" y="-288.5" font-family="Helvetica,sans-Serif" font-size="10.00" fill="#000000">+ DataString()</text>
<text text-anchor="start" x="240.5" y="-277.5" font-family="Helvetica,sans-Serif" font-size="10.00" fill="#000000">+ DataStringLength()</text>
<text text-anchor="start" x="240.5" y="-266.5" font-family="Helvetica,sans-Serif" font-size="10.00" fill="#000000">* GenericValue()</text>
<text text-anchor="start" x="240.5" y="-255.5" font-family="Helvetica,sans-Serif" font-size="10.00" fill="#000000">* GenericValue()</text>
<text text-anchor="start" x="240.5" y="-244.5" font-family="Helvetica,sans-Serif" font-size="10.00" fill="#000000">* GenericValue()</text>
<text text-anchor="start" x="240.5" y="-233.5" font-family="Helvetica,sans-Serif" font-size="10.00" fill="#000000">* GenericValue()</text>
<text text-anchor="start" x="240.5" y="-222.5" font-family="Helvetica,sans-Serif" font-size="10.00" fill="#000000">* GenericValue()</text>
<text text-anchor="start" x="240.5" y="-211.5" font-family="Helvetica,sans-Serif" font-size="10.00" fill="#000000">* GenericValue()</text>
<text text-anchor="start" x="240.5" y="-200.5" font-family="Helvetica,sans-Serif" font-size="10.00" fill="#000000">* GenericValue()</text>
<text text-anchor="start" x="240.5" y="-189.5" font-family="Helvetica,sans-Serif" font-size="10.00" fill="#000000">* GenericValue()</text>
<text text-anchor="start" x="240.5" y="-178.5" font-family="Helvetica,sans-Serif" font-size="10.00" fill="#000000">* GenericValue()</text>
<text text-anchor="start" x="240.5" y="-167.5" font-family="Helvetica,sans-Serif" font-size="10.00" fill="#000000">* GenericValue()</text>
<text text-anchor="start" x="240.5" y="-156.5" font-family="Helvetica,sans-Serif" font-size="10.00" fill="#000000">and 8 more...</text>
<text text-anchor="start" x="240.5" y="-145.5" font-family="Helvetica,sans-Serif" font-size="10.00" fill="#000000">* operator=()</text>
<text text-anchor="start" x="240.5" y="-134.5" font-family="Helvetica,sans-Serif" font-size="10.00" fill="#000000">* operator=()</text>
</a>
</g>
</g>
<!-- Node1&#45;&gt;Node4 -->
<g id="edge4" class="edge">
<title>Node1&#45;&gt;Node4</title>
<path fill="none" stroke="#404040" d="M349.448,-562.442C347.4559,-552.0866 345.1067,-539.8755 342.5402,-526.5346"/>
<polygon fill="none" stroke="#404040" points="342.4994,-526.322 337.4379,-521.1857 340.2324,-514.5381 345.2939,-519.6744 342.4994,-526.322"/>
<text text-anchor="middle" x="363" y="-536" font-family="Helvetica,sans-Serif" font-size="10.00" fill="#000000"> +data_</text>
</g>
<!-- Node2 -->
<g id="node2" class="node">
<title>Node2</title>
<g id="a_node2"><a xlink:href="structGenericValue_1_1String.html" target="_top" xlink:title="{GenericValue\&lt; Encoding,\l Allocator \&gt;::String\n|+ length\l+ hashcode\l+ str\l|}">
<polygon fill="none" stroke="#000000" points="0,-678.5 0,-768.5 128,-768.5 128,-678.5 0,-678.5"/>
<text text-anchor="start" x="8" y="-756.5" font-family="Helvetica,sans-Serif" font-size="10.00" fill="#000000">GenericValue&lt; Encoding,</text>
<text text-anchor="middle" x="64" y="-745.5" font-family="Helvetica,sans-Serif" font-size="10.00" fill="#000000"> Allocator &gt;::String</text>
<polyline fill="none" stroke="#000000" points="0,-738.5 128,-738.5 "/>
<text text-anchor="start" x="8" y="-726.5" font-family="Helvetica,sans-Serif" font-size="10.00" fill="#000000">+ length</text>
<text text-anchor="start" x="8" y="-715.5" font-family="Helvetica,sans-Serif" font-size="10.00" fill="#000000">+ hashcode</text>
<text text-anchor="start" x="8" y="-704.5" font-family="Helvetica,sans-Serif" font-size="10.00" fill="#000000">+ str</text>
<polyline fill="none" stroke="#000000" points="0,-697.5 128,-697.5 "/>
<text text-anchor="middle" x="64" y="-685.5" font-family="Helvetica,sans-Serif" font-size="10.00" fill="#000000"> </text>
</a>
</g>
</g>
<!-- Node2&#45;&gt;Node1 -->
<g id="edge1" class="edge">
<title>Node2&#45;&gt;Node1</title>
<path fill="none" stroke="#404040" d="M128.0846,-682.5828C131.0705,-680.9853 134.0514,-679.4492 137,-678 183.1908,-655.2977 237.3852,-635.0807 280.3061,-620.4613"/>
<polygon fill="none" stroke="#404040" points="280.4408,-620.416 284.8492,-614.7093 291.8125,-616.5838 287.404,-622.2904 280.4408,-620.416"/>
<text text-anchor="middle" x="209.5" y="-652" font-family="Helvetica,sans-Serif" font-size="10.00" fill="#000000"> +s</text>
</g>
<!-- Node3 -->
<g id="node3" class="node">
<title>Node3</title>
<g id="a_node3"><a xlink:href="structGenericValue_1_1ArrayData.html" target="_top" xlink:title="{GenericValue\&lt; Encoding,\l Allocator \&gt;::ArrayData\n|+ size\l+ capacity\l|}">
<polygon fill="none" stroke="#000000" points="293,-.5 293,-79.5 421,-79.5 421,-.5 293,-.5"/>
<text text-anchor="start" x="301" y="-67.5" font-family="Helvetica,sans-Serif" font-size="10.00" fill="#000000">GenericValue&lt; Encoding,</text>
<text text-anchor="middle" x="357" y="-56.5" font-family="Helvetica,sans-Serif" font-size="10.00" fill="#000000"> Allocator &gt;::ArrayData</text>
<polyline fill="none" stroke="#000000" points="293,-49.5 421,-49.5 "/>
<text text-anchor="start" x="301" y="-37.5" font-family="Helvetica,sans-Serif" font-size="10.00" fill="#000000">+ size</text>
<text text-anchor="start" x="301" y="-26.5" font-family="Helvetica,sans-Serif" font-size="10.00" fill="#000000">+ capacity</text>
<polyline fill="none" stroke="#000000" points="293,-19.5 421,-19.5 "/>
<text text-anchor="middle" x="357" y="-7.5" font-family="Helvetica,sans-Serif" font-size="10.00" fill="#000000"> </text>
</a>
</g>
</g>
<!-- Node3&#45;&gt;Node1 -->
<g id="edge2" class="edge">
<title>Node3&#45;&gt;Node1</title>
<path fill="none" stroke="#404040" d="M387.9563,-79.6398C391.2485,-85.5284 394.0888,-91.7325 396,-98 397.426,-102.6763 396.0674,-104.1116 396,-109 393.3331,-302.3885 433.4909,-357.0324 384,-544 383.3598,-546.4185 382.5902,-548.8492 381.7213,-551.2683"/>
<polygon fill="none" stroke="#404040" points="381.688,-551.3477 383.055,-558.4281 377.045,-562.4131 375.678,-555.3328 381.688,-551.3477"/>
<text text-anchor="middle" x="416.5" y="-318.5" font-family="Helvetica,sans-Serif" font-size="10.00" fill="#000000"> +a</text>
</g>
<!-- Node4&#45;&gt;Node3 -->
<g id="edge3" class="edge">
<title>Node4&#45;&gt;Node3</title>
<path fill="none" stroke="#404040" d="M340.2101,-127.3698C342.6789,-114.5227 345.0142,-102.3706 347.1144,-91.4417"/>
<polygon fill="none" stroke="#404040" points="347.1156,-91.4349 344.3199,-84.7878 349.3803,-79.6505 352.1761,-86.2976 347.1156,-91.4349"/>
<text text-anchor="middle" x="370.5" y="-101" font-family="Helvetica,sans-Serif" font-size="10.00" fill="#000000"> +elements</text>
</g>
<!-- Node5 -->
<g id="node5" class="node">
<title>Node5</title>
<g id="a_node5"><a xlink:href="structGenericValue_1_1ObjectData.html" target="_top" xlink:title="{GenericValue\&lt; Encoding,\l Allocator \&gt;::ObjectData\n|+ size\l+ capacity\l|}">
<polygon fill="none" stroke="#000000" points="146,-684 146,-763 274,-763 274,-684 146,-684"/>
<text text-anchor="start" x="154" y="-751" font-family="Helvetica,sans-Serif" font-size="10.00" fill="#000000">GenericValue&lt; Encoding,</text>
<text text-anchor="middle" x="210" y="-740" font-family="Helvetica,sans-Serif" font-size="10.00" fill="#000000"> Allocator &gt;::ObjectData</text>
<polyline fill="none" stroke="#000000" points="146,-733 274,-733 "/>
<text text-anchor="start" x="154" y="-721" font-family="Helvetica,sans-Serif" font-size="10.00" fill="#000000">+ size</text>
<text text-anchor="start" x="154" y="-710" font-family="Helvetica,sans-Serif" font-size="10.00" fill="#000000">+ capacity</text>
<polyline fill="none" stroke="#000000" points="146,-703 274,-703 "/>
<text text-anchor="middle" x="210" y="-691" font-family="Helvetica,sans-Serif" font-size="10.00" fill="#000000"> </text>
</a>
</g>
</g>
<!-- Node5&#45;&gt;Node1 -->
<g id="edge5" class="edge">
<title>Node5&#45;&gt;Node1</title>
<path fill="none" stroke="#404040" d="M255.7947,-683.6649C272.3058,-669.3025 290.9837,-653.0553 307.702,-638.5126"/>
<polygon fill="none" stroke="#404040" points="307.7082,-638.5072 309.61,-631.5514 316.7622,-630.6315 314.8604,-637.5874 307.7082,-638.5072"/>
<text text-anchor="middle" x="299.5" y="-652" font-family="Helvetica,sans-Serif" font-size="10.00" fill="#000000"> +o</text>
</g>
<!-- Node6 -->
<g id="node6" class="node">
<title>Node6</title>
<g id="a_node6"><a xlink:href="classGenericMember.html" target="_top" xlink:title="Name&#45;value pair in a JSON object value. ">
<polygon fill="none" stroke="#000000" points="136,-816.5 136,-906.5 274,-906.5 274,-816.5 136,-816.5"/>
<text text-anchor="start" x="144" y="-894.5" font-family="Helvetica,sans-Serif" font-size="10.00" fill="#000000">GenericMember&lt; Encoding,</text>
<text text-anchor="middle" x="205" y="-883.5" font-family="Helvetica,sans-Serif" font-size="10.00" fill="#000000"> Allocator &gt;</text>
<polyline fill="none" stroke="#000000" points="136,-876.5 274,-876.5 "/>
<text text-anchor="start" x="144" y="-864.5" font-family="Helvetica,sans-Serif" font-size="10.00" fill="#000000">+ name</text>
<text text-anchor="start" x="144" y="-853.5" font-family="Helvetica,sans-Serif" font-size="10.00" fill="#000000">+ value</text>
<polyline fill="none" stroke="#000000" points="136,-846.5 274,-846.5 "/>
<text text-anchor="start" x="144" y="-834.5" font-family="Helvetica,sans-Serif" font-size="10.00" fill="#000000">+ operator=()</text>
<text text-anchor="start" x="144" y="-823.5" font-family="Helvetica,sans-Serif" font-size="10.00" fill="#000000">&#45; GenericMember()</text>
</a>
</g>
</g>
<!-- Node6&#45;&gt;Node5 -->
<g id="edge6" class="edge">
<title>Node6&#45;&gt;Node5</title>
<path fill="none" stroke="#404040" d="M206.6372,-816.3136C207.1125,-803.1937 207.6353,-788.7645 208.1241,-775.2738"/>
<polygon fill="none" stroke="#404040" points="208.1265,-775.205 204.3465,-769.064 208.5611,-763.2128 212.3412,-769.3538 208.1265,-775.205"/>
<text text-anchor="middle" x="233" y="-790" font-family="Helvetica,sans-Serif" font-size="10.00" fill="#000000"> +members</text>
</g>
<!-- Node7 -->
<g id="node7" class="node">
<title>Node7</title>
<g id="a_node7"><a xlink:href="unionGenericValue_1_1Number.html" target="_top" xlink:title="{GenericValue\&lt; Encoding,\l Allocator \&gt;::Number\n|+ i64\l+ u64\l+ d\l|}">
<polygon fill="none" stroke="#000000" points="292,-678.5 292,-768.5 420,-768.5 420,-678.5 292,-678.5"/>
<text text-anchor="start" x="300" y="-756.5" font-family="Helvetica,sans-Serif" font-size="10.00" fill="#000000">GenericValue&lt; Encoding,</text>
<text text-anchor="middle" x="356" y="-745.5" font-family="Helvetica,sans-Serif" font-size="10.00" fill="#000000"> Allocator &gt;::Number</text>
<polyline fill="none" stroke="#000000" points="292,-738.5 420,-738.5 "/>
<text text-anchor="start" x="300" y="-726.5" font-family="Helvetica,sans-Serif" font-size="10.00" fill="#000000">+ i64</text>
<text text-anchor="start" x="300" y="-715.5" font-family="Helvetica,sans-Serif" font-size="10.00" fill="#000000">+ u64</text>
<text text-anchor="start" x="300" y="-704.5" font-family="Helvetica,sans-Serif" font-size="10.00" fill="#000000">+ d</text>
<polyline fill="none" stroke="#000000" points="292,-697.5 420,-697.5 "/>
<text text-anchor="middle" x="356" y="-685.5" font-family="Helvetica,sans-Serif" font-size="10.00" fill="#000000"> </text>
</a>
</g>
</g>
<!-- Node7&#45;&gt;Node1 -->
<g id="edge7" class="edge">
<title>Node7&#45;&gt;Node1</title>
<path fill="none" stroke="#404040" d="M356,-678.367C356,-666.8482 356,-654.4473 356,-642.8678"/>
<polygon fill="none" stroke="#404040" points="356.0001,-642.706 352,-636.706 356,-630.706 360,-636.7059 356.0001,-642.706"/>
<text text-anchor="middle" x="363.5" y="-652" font-family="Helvetica,sans-Serif" font-size="10.00" fill="#000000"> +n</text>
</g>
<!-- Node8 -->
<g id="node8" class="node">
<title>Node8</title>
<g id="a_node8"><a xlink:href="structGenericValue_1_1Number_1_1U.html" target="_top" xlink:title="{GenericValue\&lt; Encoding,\l Allocator \&gt;::Number::U\n|+ u\l+ padding2\l|}">
<polygon fill="none" stroke="#000000" points="292,-822 292,-901 420,-901 420,-822 292,-822"/>
<text text-anchor="start" x="300" y="-889" font-family="Helvetica,sans-Serif" font-size="10.00" fill="#000000">GenericValue&lt; Encoding,</text>
<text text-anchor="middle" x="356" y="-878" font-family="Helvetica,sans-Serif" font-size="10.00" fill="#000000"> Allocator &gt;::Number::U</text>
<polyline fill="none" stroke="#000000" points="292,-871 420,-871 "/>
<text text-anchor="start" x="300" y="-859" font-family="Helvetica,sans-Serif" font-size="10.00" fill="#000000">+ u</text>
<text text-anchor="start" x="300" y="-848" font-family="Helvetica,sans-Serif" font-size="10.00" fill="#000000">+ padding2</text>
<polyline fill="none" stroke="#000000" points="292,-841 420,-841 "/>
<text text-anchor="middle" x="356" y="-829" font-family="Helvetica,sans-Serif" font-size="10.00" fill="#000000"> </text>
</a>
</g>
</g>
<!-- Node8&#45;&gt;Node7 -->
<g id="edge8" class="edge">
<title>Node8&#45;&gt;Node7</title>
<path fill="none" stroke="#404040" d="M356,-821.9547C356,-809.2711 356,-794.9528 356,-781.2437"/>
<polygon fill="none" stroke="#404040" points="356.0001,-780.8894 352,-774.8895 356,-768.8894 360,-774.8894 356.0001,-780.8894"/>
<text text-anchor="middle" x="363.5" y="-790" font-family="Helvetica,sans-Serif" font-size="10.00" fill="#000000"> +u</text>
</g>
<!-- Node9 -->
<g id="node9" class="node">
<title>Node9</title>
<g id="a_node9"><a xlink:href="structGenericValue_1_1Number_1_1I.html" target="_top" xlink:title="{GenericValue\&lt; Encoding,\l Allocator \&gt;::Number::I\n|+ i\l+ padding\l|}">
<polygon fill="none" stroke="#000000" points="438,-822 438,-901 566,-901 566,-822 438,-822"/>
<text text-anchor="start" x="446" y="-889" font-family="Helvetica,sans-Serif" font-size="10.00" fill="#000000">GenericValue&lt; Encoding,</text>
<text text-anchor="middle" x="502" y="-878" font-family="Helvetica,sans-Serif" font-size="10.00" fill="#000000"> Allocator &gt;::Number::I</text>
<polyline fill="none" stroke="#000000" points="438,-871 566,-871 "/>
<text text-anchor="start" x="446" y="-859" font-family="Helvetica,sans-Serif" font-size="10.00" fill="#000000">+ i</text>
<text text-anchor="start" x="446" y="-848" font-family="Helvetica,sans-Serif" font-size="10.00" fill="#000000">+ padding</text>
<polyline fill="none" stroke="#000000" points="438,-841 566,-841 "/>
<text text-anchor="middle" x="502" y="-829" font-family="Helvetica,sans-Serif" font-size="10.00" fill="#000000"> </text>
</a>
</g>
</g>
<!-- Node9&#45;&gt;Node7 -->
<g id="edge9" class="edge">
<title>Node9&#45;&gt;Node7</title>
<path fill="none" stroke="#404040" d="M460.1623,-821.9547C445.4406,-808.0397 428.6373,-792.1572 412.8873,-777.2702"/>
<polygon fill="none" stroke="#404040" points="412.4802,-776.8854 405.372,-775.6708 403.7593,-768.6423 410.8674,-769.8569 412.4802,-776.8854"/>
<text text-anchor="middle" x="440" y="-790" font-family="Helvetica,sans-Serif" font-size="10.00" fill="#000000"> +i</text>
</g>
<!-- Node10 -->
<g id="node10" class="node">
<title>Node10</title>
<g id="a_node10"><a xlink:href="structGenericValue_1_1ShortString.html" target="_top" xlink:title="{GenericValue\&lt; Encoding,\l Allocator \&gt;::ShortString\n|+ str\l|+ SetLength()\l+ GetLength()\l+ Usable()\l}">
<polygon fill="none" stroke="#000000" points="438,-678.5 438,-768.5 566,-768.5 566,-678.5 438,-678.5"/>
<text text-anchor="start" x="446" y="-756.5" font-family="Helvetica,sans-Serif" font-size="10.00" fill="#000000">GenericValue&lt; Encoding,</text>
<text text-anchor="middle" x="502" y="-745.5" font-family="Helvetica,sans-Serif" font-size="10.00" fill="#000000"> Allocator &gt;::ShortString</text>
<polyline fill="none" stroke="#000000" points="438,-738.5 566,-738.5 "/>
<text text-anchor="start" x="446" y="-726.5" font-family="Helvetica,sans-Serif" font-size="10.00" fill="#000000">+ str</text>
<polyline fill="none" stroke="#000000" points="438,-719.5 566,-719.5 "/>
<text text-anchor="start" x="446" y="-707.5" font-family="Helvetica,sans-Serif" font-size="10.00" fill="#000000">+ SetLength()</text>
<text text-anchor="start" x="446" y="-696.5" font-family="Helvetica,sans-Serif" font-size="10.00" fill="#000000">+ GetLength()</text>
<text text-anchor="start" x="446" y="-685.5" font-family="Helvetica,sans-Serif" font-size="10.00" fill="#000000">+ Usable()</text>
</a>
</g>
</g>
<!-- Node10&#45;&gt;Node1 -->
<g id="edge10" class="edge">
<title>Node10&#45;&gt;Node1</title>
<path fill="none" stroke="#404040" d="M450.1148,-678.367C435.3232,-665.5003 419.2661,-651.5329 404.6734,-638.8392"/>
<polygon fill="none" stroke="#404040" points="404.3773,-638.5817 397.2251,-637.6618 395.3234,-630.706 402.4756,-631.6258 404.3773,-638.5817"/>
<text text-anchor="middle" x="439" y="-652" font-family="Helvetica,sans-Serif" font-size="10.00" fill="#000000"> +ss</text>
</g>
<!-- Node11 -->
<g id="node11" class="node">
<title>Node11</title>
<g id="a_node11"><a xlink:href="structGenericValue_1_1Flag.html" target="_top" xlink:title="{GenericValue\&lt; Encoding,\l Allocator \&gt;::Flag\n|+ payload\l+ flags\l|}">
<polygon fill="none" stroke="#000000" points="584,-684 584,-763 712,-763 712,-684 584,-684"/>
<text text-anchor="start" x="592" y="-751" font-family="Helvetica,sans-Serif" font-size="10.00" fill="#000000">GenericValue&lt; Encoding,</text>
<text text-anchor="middle" x="648" y="-740" font-family="Helvetica,sans-Serif" font-size="10.00" fill="#000000"> Allocator &gt;::Flag</text>
<polyline fill="none" stroke="#000000" points="584,-733 712,-733 "/>
<text text-anchor="start" x="592" y="-721" font-family="Helvetica,sans-Serif" font-size="10.00" fill="#000000">+ payload</text>
<text text-anchor="start" x="592" y="-710" font-family="Helvetica,sans-Serif" font-size="10.00" fill="#000000">+ flags</text>
<polyline fill="none" stroke="#000000" points="584,-703 712,-703 "/>
<text text-anchor="middle" x="648" y="-691" font-family="Helvetica,sans-Serif" font-size="10.00" fill="#000000"> </text>
</a>
</g>
</g>
<!-- Node11&#45;&gt;Node1 -->
<g id="edge11" class="edge">
<title>Node11&#45;&gt;Node1</title>
<path fill="none" stroke="#404040" d="M586.3589,-683.9029C582.5578,-681.8297 578.7527,-679.8444 575,-678 528.8092,-655.2977 474.6148,-635.0807 431.6939,-620.4613"/>
<polygon fill="none" stroke="#404040" points="431.5592,-620.416 424.596,-622.2904 420.1875,-616.5838 427.1508,-614.7093 431.5592,-620.416"/>
<text text-anchor="middle" x="540.5" y="-652" font-family="Helvetica,sans-Serif" font-size="10.00" fill="#000000"> +f</text>
</g>
</g>
</svg>
