<?xml version="1.0" encoding="UTF-8" standalone="no"?>
<!DOCTYPE svg PUBLIC "-//W3C//DTD SVG 1.1//EN"
 "http://www.w3.org/Graphics/SVG/1.1/DTD/svg11.dtd">
<!-- Generated by graphviz version 2.40.1 (20161225.0304)
 -->
<!-- Title: GenericValue&lt; Encoding, Allocator &gt;::Number Pages: 1 -->
<svg width="282pt" height="226pt"
 viewBox="0.00 0.00 282.00 226.00" xmlns="http://www.w3.org/2000/svg" xmlns:xlink="http://www.w3.org/1999/xlink">
<g id="graph0" class="graph" transform="scale(1 1) rotate(0) translate(4 222)">
<title>GenericValue&lt; Encoding, Allocator &gt;::Number</title>
<!-- Node1 -->
<g id="node1" class="node">
<title>Node1</title>
<polygon fill="#bfbfbf" stroke="#000000" points="73,-.5 73,-90.5 201,-90.5 201,-.5 73,-.5"/>
<text text-anchor="start" x="81" y="-78.5" font-family="Helvetica,sans-Serif" font-size="10.00" fill="#000000">GenericValue&lt; Encoding,</text>
<text text-anchor="middle" x="137" y="-67.5" font-family="Helvetica,sans-Serif" font-size="10.00" fill="#000000"> Allocator &gt;::Number</text>
<polyline fill="none" stroke="#000000" points="73,-60.5 201,-60.5 "/>
<text text-anchor="start" x="81" y="-48.5" font-family="Helvetica,sans-Serif" font-size="10.00" fill="#000000">+ i64</text>
<text text-anchor="start" x="81" y="-37.5" font-family="Helvetica,sans-Serif" font-size="10.00" fill="#000000">+ u64</text>
<text text-anchor="start" x="81" y="-26.5" font-family="Helvetica,sans-Serif" font-size="10.00" fill="#000000">+ d</text>
<polyline fill="none" stroke="#000000" points="73,-19.5 201,-19.5 "/>
<text text-anchor="middle" x="137" y="-7.5" font-family="Helvetica,sans-Serif" font-size="10.00" fill="#000000"> </text>
</g>
<!-- Node2 -->
<g id="node2" class="node">
<title>Node2</title>
<g id="a_node2"><a xlink:href="structGenericValue_1_1Number_1_1U.html" target="_top" xlink:title="{GenericValue\&lt; Encoding,\l Allocator \&gt;::Number::U\n|+ u\l+ padding2\l|}">
<polygon fill="none" stroke="#000000" points="0,-138.5 0,-217.5 128,-217.5 128,-138.5 0,-138.5"/>
<text text-anchor="start" x="8" y="-205.5" font-family="Helvetica,sans-Serif" font-size="10.00" fill="#000000">GenericValue&lt; Encoding,</text>
<text text-anchor="middle" x="64" y="-194.5" font-family="Helvetica,sans-Serif" font-size="10.00" fill="#000000"> Allocator &gt;::Number::U</text>
<polyline fill="none" stroke="#000000" points="0,-187.5 128,-187.5 "/>
<text text-anchor="start" x="8" y="-175.5" font-family="Helvetica,sans-Serif" font-size="10.00" fill="#000000">+ u</text>
<text text-anchor="start" x="8" y="-164.5" font-family="Helvetica,sans-Serif" font-size="10.00" fill="#000000">+ padding2</text>
<polyline fill="none" stroke="#000000" points="0,-157.5 128,-157.5 "/>
<text text-anchor="middle" x="64" y="-145.5" font-family="Helvetica,sans-Serif" font-size="10.00" fill="#000000"> </text>
</a>
</g>
</g>
<!-- Node2&#45;&gt;Node1 -->
<g id="edge1" class="edge">
<title>Node2&#45;&gt;Node1</title>
<path fill="none" stroke="#404040" d="M85.9024,-138.2456C92.2689,-126.69 99.3449,-113.8466 106.152,-101.4912"/>
<polygon fill="none" stroke="#404040" points="106.2496,-101.314 105.6415,-94.1286 112.0403,-90.8036 112.6484,-97.9891 106.2496,-101.314"/>
<text text-anchor="middle" x="108.5" y="-112" font-family="Helvetica,sans-Serif" font-size="10.00" fill="#000000"> +u</text>
</g>
<!-- Node3 -->
<g id="node3" class="node">
<title>Node3</title>
<g id="a_node3"><a xlink:href="structGenericValue_1_1Number_1_1I.html" target="_top" xlink:title="{GenericValue\&lt; Encoding,\l Allocator \&gt;::Number::I\n|+ i\l+ padding\l|}">
<polygon fill="none" stroke="#000000" points="146,-138.5 146,-217.5 274,-217.5 274,-138.5 146,-138.5"/>
<text text-anchor="start" x="154" y="-205.5" font-family="Helvetica,sans-Serif" font-size="10.00" fill="#000000">GenericValue&lt; Encoding,</text>
<text text-anchor="middle" x="210" y="-194.5" font-family="Helvetica,sans-Serif" font-size="10.00" fill="#000000"> Allocator &gt;::Number::I</text>
<polyline fill="none" stroke="#000000" points="146,-187.5 274,-187.5 "/>
<text text-anchor="start" x="154" y="-175.5" font-family="Helvetica,sans-Serif" font-size="10.00" fill="#000000">+ i</text>
<text text-anchor="start" x="154" y="-164.5" font-family="Helvetica,sans-Serif" font-size="10.00" fill="#000000">+ padding</text>
<polyline fill="none" stroke="#000000" points="146,-157.5 274,-157.5 "/>
<text text-anchor="middle" x="210" y="-145.5" font-family="Helvetica,sans-Serif" font-size="10.00" fill="#000000"> </text>
</a>
</g>
</g>
<!-- Node3&#45;&gt;Node1 -->
<g id="edge2" class="edge">
<title>Node3&#45;&gt;Node1</title>
<path fill="none" stroke="#404040" d="M188.0976,-138.2456C181.7311,-126.69 174.6551,-113.8466 167.848,-101.4912"/>
<polygon fill="none" stroke="#404040" points="167.7504,-101.314 161.3516,-97.9891 161.9597,-90.8036 168.3585,-94.1286 167.7504,-101.314"/>
<text text-anchor="middle" x="183" y="-112" font-family="Helvetica,sans-Serif" font-size="10.00" fill="#000000"> +i</text>
</g>
</g>
</svg>
