<?xml version="1.0" encoding="UTF-8" standalone="no"?>
<!DOCTYPE svg PUBLIC "-//W3C//DTD SVG 1.1//EN"
 "http://www.w3.org/Graphics/SVG/1.1/DTD/svg11.dtd">
<!-- Generated by graphviz version 2.40.1 (20161225.0304)
 -->
<!-- Title: /mnt/hdd/fnky/C0de/CAPSTONE/clean_build/include/rapidjson/writer.h Pages: 1 -->
<svg width="473pt" height="206pt"
 viewBox="0.00 0.00 473.00 206.00" xmlns="http://www.w3.org/2000/svg" xmlns:xlink="http://www.w3.org/1999/xlink">
<g id="graph0" class="graph" transform="scale(1 1) rotate(0) translate(4 202)">
<title>/mnt/hdd/fnky/C0de/CAPSTONE/clean_build/include/rapidjson/writer.h</title>
<!-- Node23 -->
<g id="node1" class="node">
<title>Node23</title>
<polygon fill="#bfbfbf" stroke="#000000" points="226,-156.5 226,-197.5 354,-197.5 354,-156.5 226,-156.5"/>
<text text-anchor="start" x="234" y="-185.5" font-family="Helvetica,sans-Serif" font-size="10.00" fill="#000000">/mnt/hdd/fnky/C0de</text>
<text text-anchor="start" x="234" y="-174.5" font-family="Helvetica,sans-Serif" font-size="10.00" fill="#000000">/CAPSTONE/clean_build</text>
<text text-anchor="middle" x="290" y="-163.5" font-family="Helvetica,sans-Serif" font-size="10.00" fill="#000000">/include/rapidjson/writer.h</text>
</g>
<!-- Node24 -->
<g id="node2" class="node">
<title>Node24</title>
<g id="a_node2"><a xlink:href="NetworkComponent_8h.html" target="_top" xlink:title="/mnt/hdd/fnky/C0de\l/CAPSTONE/clean_build\l/include/Components/NetworkComponent.h">
<polygon fill="none" stroke="#000000" points="87.5,-78.5 87.5,-119.5 294.5,-119.5 294.5,-78.5 87.5,-78.5"/>
<text text-anchor="start" x="95.5" y="-107.5" font-family="Helvetica,sans-Serif" font-size="10.00" fill="#000000">/mnt/hdd/fnky/C0de</text>
<text text-anchor="start" x="95.5" y="-96.5" font-family="Helvetica,sans-Serif" font-size="10.00" fill="#000000">/CAPSTONE/clean_build</text>
<text text-anchor="middle" x="191" y="-85.5" font-family="Helvetica,sans-Serif" font-size="10.00" fill="#000000">/include/Components/NetworkComponent.h</text>
</a>
</g>
</g>
<!-- Node23&#45;&gt;Node24 -->
<g id="edge1" class="edge">
<title>Node23&#45;&gt;Node24</title>
<path fill="none" stroke="#191970" d="M255.6577,-149.9424C242.9927,-139.9639 228.8624,-128.831 217.0495,-119.5239"/>
<polygon fill="#191970" stroke="#191970" points="253.7087,-152.8627 263.7297,-156.3022 258.0409,-147.3642 253.7087,-152.8627"/>
</g>
<!-- Node27 -->
<g id="node5" class="node">
<title>Node27</title>
<g id="a_node5"><a xlink:href="prettywriter_8h.html" target="_top" xlink:title="/mnt/hdd/fnky/C0de\l/CAPSTONE/clean_build\l/include/rapidjson/prettywriter.h">
<polygon fill="none" stroke="#000000" points="313,-78.5 313,-119.5 465,-119.5 465,-78.5 313,-78.5"/>
<text text-anchor="start" x="321" y="-107.5" font-family="Helvetica,sans-Serif" font-size="10.00" fill="#000000">/mnt/hdd/fnky/C0de</text>
<text text-anchor="start" x="321" y="-96.5" font-family="Helvetica,sans-Serif" font-size="10.00" fill="#000000">/CAPSTONE/clean_build</text>
<text text-anchor="middle" x="389" y="-85.5" font-family="Helvetica,sans-Serif" font-size="10.00" fill="#000000">/include/rapidjson/prettywriter.h</text>
</a>
</g>
</g>
<!-- Node23&#45;&gt;Node27 -->
<g id="edge4" class="edge">
<title>Node23&#45;&gt;Node27</title>
<path fill="none" stroke="#191970" d="M324.3423,-149.9424C337.0073,-139.9639 351.1376,-128.831 362.9505,-119.5239"/>
<polygon fill="#191970" stroke="#191970" points="321.9591,-147.3642 316.2703,-156.3022 326.2913,-152.8627 321.9591,-147.3642"/>
</g>
<!-- Node25 -->
<g id="node3" class="node">
<title>Node25</title>
<g id="a_node3"><a xlink:href="NetworkComponent_8cpp.html" target="_top" xlink:title="/mnt/hdd/fnky/C0de\l/CAPSTONE/clean_build\l/src/Components/NetworkComponent.cpp">
<polygon fill="none" stroke="#000000" points="0,-.5 0,-41.5 200,-41.5 200,-.5 0,-.5"/>
<text text-anchor="start" x="8" y="-29.5" font-family="Helvetica,sans-Serif" font-size="10.00" fill="#000000">/mnt/hdd/fnky/C0de</text>
<text text-anchor="start" x="8" y="-18.5" font-family="Helvetica,sans-Serif" font-size="10.00" fill="#000000">/CAPSTONE/clean_build</text>
<text text-anchor="middle" x="100" y="-7.5" font-family="Helvetica,sans-Serif" font-size="10.00" fill="#000000">/src/Components/NetworkComponent.cpp</text>
</a>
</g>
</g>
<!-- Node24&#45;&gt;Node25 -->
<g id="edge2" class="edge">
<title>Node24&#45;&gt;Node25</title>
<path fill="none" stroke="#191970" d="M158.9309,-71.5122C147.4883,-61.7043 134.8009,-50.8293 124.1381,-41.6898"/>
<polygon fill="#191970" stroke="#191970" points="156.7433,-74.2469 166.6137,-78.0974 161.2989,-68.9321 156.7433,-74.2469"/>
</g>
<!-- Node26 -->
<g id="node4" class="node">
<title>Node26</title>
<g id="a_node4"><a xlink:href="game_8cpp.html" target="_top" xlink:title="/mnt/hdd/fnky/C0de\l/CAPSTONE/clean_build\l/src/Window/game.cpp">
<polygon fill="none" stroke="#000000" points="218.5,-.5 218.5,-41.5 345.5,-41.5 345.5,-.5 218.5,-.5"/>
<text text-anchor="start" x="226.5" y="-29.5" font-family="Helvetica,sans-Serif" font-size="10.00" fill="#000000">/mnt/hdd/fnky/C0de</text>
<text text-anchor="start" x="226.5" y="-18.5" font-family="Helvetica,sans-Serif" font-size="10.00" fill="#000000">/CAPSTONE/clean_build</text>
<text text-anchor="middle" x="282" y="-7.5" font-family="Helvetica,sans-Serif" font-size="10.00" fill="#000000">/src/Window/game.cpp</text>
</a>
</g>
</g>
<!-- Node24&#45;&gt;Node26 -->
<g id="edge3" class="edge">
<title>Node24&#45;&gt;Node26</title>
<path fill="none" stroke="#191970" d="M223.0691,-71.5122C234.5117,-61.7043 247.1991,-50.8293 257.8619,-41.6898"/>
<polygon fill="#191970" stroke="#191970" points="220.7011,-68.9321 215.3863,-78.0974 225.2567,-74.2469 220.7011,-68.9321"/>
</g>
</g>
</svg>
