<?xml version="1.0" encoding="UTF-8" standalone="no"?>
<!DOCTYPE svg PUBLIC "-//W3C//DTD SVG 1.1//EN"
 "http://www.w3.org/Graphics/SVG/1.1/DTD/svg11.dtd">
<!-- Generated by graphviz version 2.40.1 (20161225.0304)
 -->
<!-- Title: /mnt/hdd/fnky/C0de/CAPSTONE/clean_build/include/rapidjson/writer.h Pages: 1 -->
<svg width="762pt" height="386pt"
 viewBox="0.00 0.00 761.50 386.00" xmlns="http://www.w3.org/2000/svg" xmlns:xlink="http://www.w3.org/1999/xlink">
<g id="graph0" class="graph" transform="scale(1 1) rotate(0) translate(4 382)">
<title>/mnt/hdd/fnky/C0de/CAPSTONE/clean_build/include/rapidjson/writer.h</title>
<!-- Node0 -->
<g id="node1" class="node">
<title>Node0</title>
<polygon fill="#bfbfbf" stroke="#000000" points="410,-336.5 410,-377.5 538,-377.5 538,-336.5 410,-336.5"/>
<text text-anchor="start" x="418" y="-365.5" font-family="Helvetica,sans-Serif" font-size="10.00" fill="#000000">/mnt/hdd/fnky/C0de</text>
<text text-anchor="start" x="418" y="-354.5" font-family="Helvetica,sans-Serif" font-size="10.00" fill="#000000">/CAPSTONE/clean_build</text>
<text text-anchor="middle" x="474" y="-343.5" font-family="Helvetica,sans-Serif" font-size="10.00" fill="#000000">/include/rapidjson/writer.h</text>
</g>
<!-- Node1 -->
<g id="node2" class="node">
<title>Node1</title>
<g id="a_node2"><a xlink:href="stream_8h.html" target="_top" xlink:title="stream.h">
<polygon fill="none" stroke="#000000" points="444.5,-224.5 444.5,-243.5 499.5,-243.5 499.5,-224.5 444.5,-224.5"/>
<text text-anchor="middle" x="472" y="-231.5" font-family="Helvetica,sans-Serif" font-size="10.00" fill="#000000">stream.h</text>
</a>
</g>
</g>
<!-- Node0&#45;&gt;Node1 -->
<g id="edge1" class="edge">
<title>Node0&#45;&gt;Node1</title>
<path fill="none" stroke="#191970" d="M473.6652,-336.4126C473.2904,-313.3618 472.6874,-276.2774 472.3191,-253.6259"/>
<polygon fill="#191970" stroke="#191970" points="475.817,-253.4599 472.1548,-243.5182 468.8179,-253.5738 475.817,-253.4599"/>
</g>
<!-- Node7 -->
<g id="node8" class="node">
<title>Node7</title>
<g id="a_node8"><a xlink:href="clzll_8h.html" target="_top" xlink:title="internal/clzll.h">
<polygon fill="none" stroke="#000000" points="332.5,-112.5 332.5,-131.5 409.5,-131.5 409.5,-112.5 332.5,-112.5"/>
<text text-anchor="middle" x="371" y="-119.5" font-family="Helvetica,sans-Serif" font-size="10.00" fill="#000000">internal/clzll.h</text>
</a>
</g>
</g>
<!-- Node0&#45;&gt;Node7 -->
<g id="edge8" class="edge">
<title>Node0&#45;&gt;Node7</title>
<path fill="none" stroke="#191970" d="M409.9474,-338.4275C391.5865,-329.8117 373.6688,-317.4719 363,-300 332.3192,-249.7555 351.6764,-175.8426 363.6302,-141.2198"/>
<polygon fill="#191970" stroke="#191970" points="366.9251,-142.4001 367.0387,-131.8059 360.3432,-140.017 366.9251,-142.4001"/>
</g>
<!-- Node8 -->
<g id="node9" class="node">
<title>Node8</title>
<g id="a_node9"><a xlink:href="meta_8h.html" target="_top" xlink:title="internal/meta.h">
<polygon fill="none" stroke="#000000" points="66.5,-112.5 66.5,-131.5 147.5,-131.5 147.5,-112.5 66.5,-112.5"/>
<text text-anchor="middle" x="107" y="-119.5" font-family="Helvetica,sans-Serif" font-size="10.00" fill="#000000">internal/meta.h</text>
</a>
</g>
</g>
<!-- Node0&#45;&gt;Node8 -->
<g id="edge10" class="edge">
<title>Node0&#45;&gt;Node8</title>
<path fill="none" stroke="#191970" d="M409.747,-339.8612C377.47,-330.1302 338.2577,-316.5702 305,-300 230.2119,-262.7378 211.1947,-248.9138 154,-188 140.0744,-173.1689 126.8827,-154.0308 118.04,-140.1855"/>
<polygon fill="#191970" stroke="#191970" points="120.9222,-138.1929 112.6575,-131.5638 114.9844,-141.9 120.9222,-138.1929"/>
</g>
<!-- Node9 -->
<g id="node10" class="node">
<title>Node9</title>
<g id="a_node10"><a xlink:href="stack_8h.html" target="_top" xlink:title="internal/stack.h">
<polygon fill="none" stroke="#000000" points="232.5,-224.5 232.5,-243.5 315.5,-243.5 315.5,-224.5 232.5,-224.5"/>
<text text-anchor="middle" x="274" y="-231.5" font-family="Helvetica,sans-Serif" font-size="10.00" fill="#000000">internal/stack.h</text>
</a>
</g>
</g>
<!-- Node0&#45;&gt;Node9 -->
<g id="edge12" class="edge">
<title>Node0&#45;&gt;Node9</title>
<path fill="none" stroke="#191970" d="M409.6464,-339.0934C383.4587,-329.9457 353.8176,-317.0773 330,-300 311.9677,-287.0708 296.1068,-267.0995 285.9115,-252.5109"/>
<polygon fill="#191970" stroke="#191970" points="288.5535,-250.1682 280.064,-243.8295 282.7477,-254.0788 288.5535,-250.1682"/>
</g>
<!-- Node15 -->
<g id="node16" class="node">
<title>Node15</title>
<g id="a_node16"><a xlink:href="strfunc_8h.html" target="_top" xlink:title="internal/strfunc.h">
<polygon fill="none" stroke="#000000" points="502.5,-280.5 502.5,-299.5 591.5,-299.5 591.5,-280.5 502.5,-280.5"/>
<text text-anchor="middle" x="547" y="-287.5" font-family="Helvetica,sans-Serif" font-size="10.00" fill="#000000">internal/strfunc.h</text>
</a>
</g>
</g>
<!-- Node0&#45;&gt;Node15 -->
<g id="edge21" class="edge">
<title>Node0&#45;&gt;Node15</title>
<path fill="none" stroke="#191970" d="M496.6975,-336.168C507.0302,-326.6846 519.0936,-315.6127 528.8164,-306.689"/>
<polygon fill="#191970" stroke="#191970" points="531.3429,-309.1209 536.3437,-299.7805 526.6096,-303.9637 531.3429,-309.1209"/>
</g>
<!-- Node17 -->
<g id="node18" class="node">
<title>Node17</title>
<g id="a_node18"><a xlink:href="dtoa_8h.html" target="_top" xlink:title="internal/dtoa.h">
<polygon fill="none" stroke="#000000" points="584,-224.5 584,-243.5 662,-243.5 662,-224.5 584,-224.5"/>
<text text-anchor="middle" x="623" y="-231.5" font-family="Helvetica,sans-Serif" font-size="10.00" fill="#000000">internal/dtoa.h</text>
</a>
</g>
</g>
<!-- Node0&#45;&gt;Node17 -->
<g id="edge24" class="edge">
<title>Node0&#45;&gt;Node17</title>
<path fill="none" stroke="#191970" d="M538.3007,-339.9107C560.7119,-331.1684 584.3822,-318.3708 601,-300 612.508,-287.278 618.0184,-268.3568 620.644,-254.0313"/>
<polygon fill="#191970" stroke="#191970" points="624.1664,-254.1429 622.1906,-243.7339 617.244,-253.1031 624.1664,-254.1429"/>
</g>
<!-- Node18 -->
<g id="node19" class="node">
<title>Node18</title>
<g id="a_node19"><a xlink:href="itoa_8h.html" target="_top" xlink:title="itoa.h">
<polygon fill="none" stroke="#000000" points="669.5,-168.5 669.5,-187.5 710.5,-187.5 710.5,-168.5 669.5,-168.5"/>
<text text-anchor="middle" x="690" y="-175.5" font-family="Helvetica,sans-Serif" font-size="10.00" fill="#000000">itoa.h</text>
</a>
</g>
</g>
<!-- Node0&#45;&gt;Node18 -->
<g id="edge33" class="edge">
<title>Node0&#45;&gt;Node18</title>
<path fill="none" stroke="#191970" d="M538.2275,-339.0709C564.9079,-329.8619 595.3329,-316.9537 620,-300 647.7427,-280.9324 654.5809,-273.3879 671,-244 678.9966,-229.6873 683.8843,-211.7095 686.6959,-198.1327"/>
<polygon fill="#191970" stroke="#191970" points="690.2039,-198.4118 688.592,-187.9404 683.322,-197.1315 690.2039,-198.4118"/>
</g>
<!-- Node21 -->
<g id="node22" class="node">
<title>Node21</title>
<g id="a_node22"><a xlink:href="stringbuffer_8h.html" target="_top" xlink:title="stringbuffer.h">
<polygon fill="none" stroke="#000000" points="372,-280.5 372,-299.5 446,-299.5 446,-280.5 372,-280.5"/>
<text text-anchor="middle" x="409" y="-287.5" font-family="Helvetica,sans-Serif" font-size="10.00" fill="#000000">stringbuffer.h</text>
</a>
</g>
</g>
<!-- Node0&#45;&gt;Node21 -->
<g id="edge34" class="edge">
<title>Node0&#45;&gt;Node21</title>
<path fill="none" stroke="#191970" d="M453.7899,-336.168C444.7735,-326.8742 434.2772,-316.0549 425.7128,-307.227"/>
<polygon fill="#191970" stroke="#191970" points="427.9638,-304.5208 418.4885,-299.7805 422.9396,-309.395 427.9638,-304.5208"/>
</g>
<!-- Node22 -->
<g id="node23" class="node">
<title>Node22</title>
<polygon fill="none" stroke="#bfbfbf" points="718.5,-280.5 718.5,-299.5 753.5,-299.5 753.5,-280.5 718.5,-280.5"/>
<text text-anchor="middle" x="736" y="-287.5" font-family="Helvetica,sans-Serif" font-size="10.00" fill="#000000">new</text>
</g>
<!-- Node0&#45;&gt;Node22 -->
<g id="edge37" class="edge">
<title>Node0&#45;&gt;Node22</title>
<path fill="none" stroke="#191970" d="M538.2177,-342.1751C584.4963,-331.2266 648.3395,-315.5789 704,-300 705.4713,-299.5882 706.9774,-299.1557 708.4956,-298.7111"/>
<polygon fill="#191970" stroke="#191970" points="709.8972,-301.9435 718.4511,-295.6919 707.8657,-295.2447 709.8972,-301.9435"/>
</g>
<!-- Node2 -->
<g id="node3" class="node">
<title>Node2</title>
<g id="a_node3"><a xlink:href="rapidjson_8h.html" target="_top" xlink:title="common definitions and configuration ">
<polygon fill="none" stroke="#000000" points="406,-56.5 406,-75.5 470,-75.5 470,-56.5 406,-56.5"/>
<text text-anchor="middle" x="438" y="-63.5" font-family="Helvetica,sans-Serif" font-size="10.00" fill="#000000">rapidjson.h</text>
</a>
</g>
</g>
<!-- Node1&#45;&gt;Node2 -->
<g id="edge2" class="edge">
<title>Node1&#45;&gt;Node2</title>
<path fill="none" stroke="#191970" d="M485.6828,-224.3359C513.5112,-203.4755 571.8805,-152.8153 545,-112 530.5489,-90.0575 503.2017,-78.5388 479.7727,-72.5153"/>
<polygon fill="#191970" stroke="#191970" points="480.5525,-69.1034 470.0206,-70.2559 478.9725,-75.9228 480.5525,-69.1034"/>
</g>
<!-- Node6 -->
<g id="node7" class="node">
<title>Node6</title>
<g id="a_node7"><a xlink:href="encodings_8h.html" target="_top" xlink:title="encodings.h">
<polygon fill="none" stroke="#000000" points="466.5,-112.5 466.5,-131.5 535.5,-131.5 535.5,-112.5 466.5,-112.5"/>
<text text-anchor="middle" x="501" y="-119.5" font-family="Helvetica,sans-Serif" font-size="10.00" fill="#000000">encodings.h</text>
</a>
</g>
</g>
<!-- Node1&#45;&gt;Node6 -->
<g id="edge6" class="edge">
<title>Node1&#45;&gt;Node6</title>
<path fill="none" stroke="#191970" d="M474.4725,-224.4509C479.2238,-206.1013 489.7131,-165.5908 495.9847,-141.3693"/>
<polygon fill="#191970" stroke="#191970" points="499.4153,-142.083 498.5337,-131.5249 492.6388,-140.3283 499.4153,-142.083"/>
</g>
<!-- Node3 -->
<g id="node4" class="node">
<title>Node3</title>
<polygon fill="none" stroke="#bfbfbf" points="351.5,-.5 351.5,-19.5 396.5,-19.5 396.5,-.5 351.5,-.5"/>
<text text-anchor="middle" x="374" y="-7.5" font-family="Helvetica,sans-Serif" font-size="10.00" fill="#000000">cstdlib</text>
</g>
<!-- Node2&#45;&gt;Node3 -->
<g id="edge3" class="edge">
<title>Node2&#45;&gt;Node3</title>
<path fill="none" stroke="#191970" d="M426.8521,-56.2455C417.4913,-48.0549 403.9142,-36.1749 392.8651,-26.5069"/>
<polygon fill="#191970" stroke="#191970" points="394.8508,-23.5937 385.0202,-19.6427 390.2412,-28.8618 394.8508,-23.5937"/>
</g>
<!-- Node4 -->
<g id="node5" class="node">
<title>Node4</title>
<polygon fill="none" stroke="#bfbfbf" points="415,-.5 415,-19.5 461,-19.5 461,-.5 415,-.5"/>
<text text-anchor="middle" x="438" y="-7.5" font-family="Helvetica,sans-Serif" font-size="10.00" fill="#000000">cstring</text>
</g>
<!-- Node2&#45;&gt;Node4 -->
<g id="edge4" class="edge">
<title>Node2&#45;&gt;Node4</title>
<path fill="none" stroke="#191970" d="M438,-56.2455C438,-48.9382 438,-38.6944 438,-29.7046"/>
<polygon fill="#191970" stroke="#191970" points="441.5001,-29.6426 438,-19.6427 434.5001,-29.6427 441.5001,-29.6426"/>
</g>
<!-- Node5 -->
<g id="node6" class="node">
<title>Node5</title>
<polygon fill="none" stroke="#bfbfbf" points="479.5,-.5 479.5,-19.5 528.5,-19.5 528.5,-.5 479.5,-.5"/>
<text text-anchor="middle" x="504" y="-7.5" font-family="Helvetica,sans-Serif" font-size="10.00" fill="#000000">cassert</text>
</g>
<!-- Node2&#45;&gt;Node5 -->
<g id="edge5" class="edge">
<title>Node2&#45;&gt;Node5</title>
<path fill="none" stroke="#191970" d="M449.4963,-56.2455C459.2442,-47.9746 473.4259,-35.9416 484.8798,-26.2232"/>
<polygon fill="#191970" stroke="#191970" points="487.2747,-28.7813 492.6354,-19.6427 482.7459,-23.4437 487.2747,-28.7813"/>
</g>
<!-- Node6&#45;&gt;Node2 -->
<g id="edge7" class="edge">
<title>Node6&#45;&gt;Node2</title>
<path fill="none" stroke="#191970" d="M490.0262,-112.2455C480.8118,-104.0549 467.4468,-92.1749 456.5703,-82.5069"/>
<polygon fill="#191970" stroke="#191970" points="458.6474,-79.6704 448.848,-75.6427 453.9968,-84.9023 458.6474,-79.6704"/>
</g>
<!-- Node7&#45;&gt;Node2 -->
<g id="edge9" class="edge">
<title>Node7&#45;&gt;Node2</title>
<path fill="none" stroke="#191970" d="M382.6705,-112.2455C392.5661,-103.9746 406.9627,-91.9416 418.5901,-82.2232"/>
<polygon fill="#191970" stroke="#191970" points="421.035,-84.7413 426.4632,-75.6427 416.5458,-79.3703 421.035,-84.7413"/>
</g>
<!-- Node8&#45;&gt;Node2 -->
<g id="edge11" class="edge">
<title>Node8&#45;&gt;Node2</title>
<path fill="none" stroke="#191970" d="M147.537,-114.5599C152.4086,-113.6864 157.3151,-112.8163 162,-112 244.7247,-97.5866 341.5716,-81.6649 395.7519,-72.8433"/>
<polygon fill="#191970" stroke="#191970" points="396.3722,-76.2885 405.6806,-71.2285 395.2484,-69.3793 396.3722,-76.2885"/>
</g>
<!-- Node10 -->
<g id="node11" class="node">
<title>Node10</title>
<g id="a_node11"><a xlink:href="allocators_8h.html" target="_top" xlink:title="../allocators.h">
<polygon fill="none" stroke="#000000" points="163,-168.5 163,-187.5 239,-187.5 239,-168.5 163,-168.5"/>
<text text-anchor="middle" x="201" y="-175.5" font-family="Helvetica,sans-Serif" font-size="10.00" fill="#000000">../allocators.h</text>
</a>
</g>
</g>
<!-- Node9&#45;&gt;Node10 -->
<g id="edge13" class="edge">
<title>Node9&#45;&gt;Node10</title>
<path fill="none" stroke="#191970" d="M261.2844,-224.2455C250.398,-215.8943 234.5117,-203.7076 221.78,-193.9408"/>
<polygon fill="#191970" stroke="#191970" points="223.6346,-190.9523 213.5699,-187.6427 219.3739,-196.5063 223.6346,-190.9523"/>
</g>
<!-- Node13 -->
<g id="node14" class="node">
<title>Node13</title>
<g id="a_node14"><a xlink:href="swap_8h.html" target="_top" xlink:title="swap.h">
<polygon fill="none" stroke="#000000" points="0,-112.5 0,-131.5 48,-131.5 48,-112.5 0,-112.5"/>
<text text-anchor="middle" x="24" y="-119.5" font-family="Helvetica,sans-Serif" font-size="10.00" fill="#000000">swap.h</text>
</a>
</g>
</g>
<!-- Node9&#45;&gt;Node13 -->
<g id="edge18" class="edge">
<title>Node9&#45;&gt;Node13</title>
<path fill="none" stroke="#191970" d="M246.506,-224.381C221.9684,-215.5796 185.1987,-201.8547 154,-188 117.3268,-171.7142 76.2211,-150.2887 50.2363,-136.3345"/>
<polygon fill="#191970" stroke="#191970" points="51.8456,-133.2258 41.3833,-131.5549 48.52,-139.3855 51.8456,-133.2258"/>
</g>
<!-- Node14 -->
<g id="node15" class="node">
<title>Node14</title>
<polygon fill="none" stroke="#bfbfbf" points="257.5,-168.5 257.5,-187.5 306.5,-187.5 306.5,-168.5 257.5,-168.5"/>
<text text-anchor="middle" x="282" y="-175.5" font-family="Helvetica,sans-Serif" font-size="10.00" fill="#000000">cstddef</text>
</g>
<!-- Node9&#45;&gt;Node14 -->
<g id="edge20" class="edge">
<title>Node9&#45;&gt;Node14</title>
<path fill="none" stroke="#191970" d="M275.3935,-224.2455C276.4374,-216.9382 277.9008,-206.6944 279.1851,-197.7046"/>
<polygon fill="#191970" stroke="#191970" points="282.673,-198.0372 280.6225,-187.6427 275.7434,-197.0472 282.673,-198.0372"/>
</g>
<!-- Node10&#45;&gt;Node2 -->
<g id="edge14" class="edge">
<title>Node10&#45;&gt;Node2</title>
<path fill="none" stroke="#191970" d="M196.2342,-168.2198C190.1215,-154.0986 181.7877,-127.9481 195,-112 219.9879,-81.8381 332.781,-71.3038 395.5342,-67.7403"/>
<polygon fill="#191970" stroke="#191970" points="396.0961,-71.2155 405.8961,-67.1894 395.7244,-64.2253 396.0961,-71.2155"/>
</g>
<!-- Node10&#45;&gt;Node8 -->
<g id="edge15" class="edge">
<title>Node10&#45;&gt;Node8</title>
<path fill="none" stroke="#191970" d="M184.6264,-168.2455C170.0692,-159.5731 148.569,-146.7645 131.8848,-136.825"/>
<polygon fill="#191970" stroke="#191970" points="133.5683,-133.7539 123.1859,-131.6427 129.9856,-139.7676 133.5683,-133.7539"/>
</g>
<!-- Node11 -->
<g id="node12" class="node">
<title>Node11</title>
<polygon fill="none" stroke="#bfbfbf" points="204,-112.5 204,-131.5 256,-131.5 256,-112.5 204,-112.5"/>
<text text-anchor="middle" x="230" y="-119.5" font-family="Helvetica,sans-Serif" font-size="10.00" fill="#000000">memory</text>
</g>
<!-- Node10&#45;&gt;Node11 -->
<g id="edge16" class="edge">
<title>Node10&#45;&gt;Node11</title>
<path fill="none" stroke="#191970" d="M206.0514,-168.2455C210.0019,-160.617 215.6097,-149.7881 220.4058,-140.5267"/>
<polygon fill="#191970" stroke="#191970" points="223.5159,-142.1321 225.0065,-131.6427 217.2999,-138.9131 223.5159,-142.1321"/>
</g>
<!-- Node12 -->
<g id="node13" class="node">
<title>Node12</title>
<polygon fill="none" stroke="#bfbfbf" points="274,-112.5 274,-131.5 314,-131.5 314,-112.5 274,-112.5"/>
<text text-anchor="middle" x="294" y="-119.5" font-family="Helvetica,sans-Serif" font-size="10.00" fill="#000000">limits</text>
</g>
<!-- Node10&#45;&gt;Node12 -->
<g id="edge17" class="edge">
<title>Node10&#45;&gt;Node12</title>
<path fill="none" stroke="#191970" d="M217.1994,-168.2455C231.6018,-159.5731 252.8732,-146.7645 269.3799,-136.825"/>
<polygon fill="#191970" stroke="#191970" points="271.225,-139.7996 277.9863,-131.6427 267.614,-133.8028 271.225,-139.7996"/>
</g>
<!-- Node13&#45;&gt;Node2 -->
<g id="edge19" class="edge">
<title>Node13&#45;&gt;Node2</title>
<path fill="none" stroke="#191970" d="M48.025,-114.1915C51.027,-113.3724 54.0708,-112.6157 57,-112 178.3993,-86.4806 324.7507,-73.7491 395.5402,-68.7033"/>
<polygon fill="#191970" stroke="#191970" points="396.0985,-72.1729 405.831,-67.9863 395.6119,-65.1899 396.0985,-72.1729"/>
</g>
<!-- Node15&#45;&gt;Node1 -->
<g id="edge22" class="edge">
<title>Node15&#45;&gt;Node1</title>
<path fill="none" stroke="#191970" d="M533.936,-280.2455C522.6438,-271.814 506.1155,-259.4729 492.9729,-249.6598"/>
<polygon fill="#191970" stroke="#191970" points="495.0211,-246.8211 484.9143,-243.6427 490.8331,-252.4301 495.0211,-246.8211"/>
</g>
<!-- Node16 -->
<g id="node17" class="node">
<title>Node16</title>
<polygon fill="none" stroke="#bfbfbf" points="518,-224.5 518,-243.5 566,-243.5 566,-224.5 518,-224.5"/>
<text text-anchor="middle" x="542" y="-231.5" font-family="Helvetica,sans-Serif" font-size="10.00" fill="#000000">cwchar</text>
</g>
<!-- Node15&#45;&gt;Node16 -->
<g id="edge23" class="edge">
<title>Node15&#45;&gt;Node16</title>
<path fill="none" stroke="#191970" d="M546.1291,-280.2455C545.4766,-272.9382 544.562,-262.6944 543.7593,-253.7046"/>
<polygon fill="#191970" stroke="#191970" points="547.2365,-253.2918 542.861,-243.6427 540.2642,-253.9143 547.2365,-253.2918"/>
</g>
<!-- Node17&#45;&gt;Node18 -->
<g id="edge25" class="edge">
<title>Node17&#45;&gt;Node18</title>
<path fill="none" stroke="#191970" d="M634.6705,-224.2455C644.5661,-215.9746 658.9627,-203.9416 670.5901,-194.2232"/>
<polygon fill="#191970" stroke="#191970" points="673.035,-196.7413 678.4632,-187.6427 668.5458,-191.3703 673.035,-196.7413"/>
</g>
<!-- Node19 -->
<g id="node20" class="node">
<title>Node19</title>
<g id="a_node20"><a xlink:href="diyfp_8h.html" target="_top" xlink:title="diyfp.h">
<polygon fill="none" stroke="#000000" points="393,-168.5 393,-187.5 439,-187.5 439,-168.5 393,-168.5"/>
<text text-anchor="middle" x="416" y="-175.5" font-family="Helvetica,sans-Serif" font-size="10.00" fill="#000000">diyfp.h</text>
</a>
</g>
</g>
<!-- Node17&#45;&gt;Node19 -->
<g id="edge27" class="edge">
<title>Node17&#45;&gt;Node19</title>
<path fill="none" stroke="#191970" d="M587.4154,-224.3733C548.638,-213.8827 487.0885,-197.2317 449.2538,-186.9962"/>
<polygon fill="#191970" stroke="#191970" points="449.8171,-183.5228 439.25,-184.2899 447.989,-190.2799 449.8171,-183.5228"/>
</g>
<!-- Node20 -->
<g id="node21" class="node">
<title>Node20</title>
<g id="a_node21"><a xlink:href="ieee754_8h.html" target="_top" xlink:title="ieee754.h">
<polygon fill="none" stroke="#000000" points="592.5,-168.5 592.5,-187.5 651.5,-187.5 651.5,-168.5 592.5,-168.5"/>
<text text-anchor="middle" x="622" y="-175.5" font-family="Helvetica,sans-Serif" font-size="10.00" fill="#000000">ieee754.h</text>
</a>
</g>
</g>
<!-- Node17&#45;&gt;Node20 -->
<g id="edge31" class="edge">
<title>Node17&#45;&gt;Node20</title>
<path fill="none" stroke="#191970" d="M622.8258,-224.2455C622.6953,-216.9382 622.5124,-206.6944 622.3519,-197.7046"/>
<polygon fill="#191970" stroke="#191970" points="625.8503,-197.5786 622.1722,-187.6427 618.8514,-197.7036 625.8503,-197.5786"/>
</g>
<!-- Node18&#45;&gt;Node2 -->
<g id="edge26" class="edge">
<title>Node18&#45;&gt;Node2</title>
<path fill="none" stroke="#191970" d="M679.6061,-168.2773C663.8019,-153.9872 632.2515,-127.3503 601,-112 562.1336,-92.9094 514.0435,-80.5605 480.2034,-73.5143"/>
<polygon fill="#191970" stroke="#191970" points="480.6791,-70.0399 470.1848,-71.4962 479.2967,-76.902 480.6791,-70.0399"/>
</g>
<!-- Node19&#45;&gt;Node2 -->
<g id="edge28" class="edge">
<title>Node19&#45;&gt;Node2</title>
<path fill="none" stroke="#191970" d="M417.8757,-168.4509C421.4801,-150.1013 429.4375,-109.5908 434.1953,-85.3693"/>
<polygon fill="#191970" stroke="#191970" points="437.6359,-86.012 436.129,-75.5249 430.7671,-84.6627 437.6359,-86.012"/>
</g>
<!-- Node19&#45;&gt;Node7 -->
<g id="edge29" class="edge">
<title>Node19&#45;&gt;Node7</title>
<path fill="none" stroke="#191970" d="M408.1616,-168.2455C401.838,-160.3761 392.7776,-149.101 385.1864,-139.6542"/>
<polygon fill="#191970" stroke="#191970" points="387.7408,-137.2454 378.7486,-131.6427 382.2842,-141.6302 387.7408,-137.2454"/>
</g>
<!-- Node19&#45;&gt;Node12 -->
<g id="edge30" class="edge">
<title>Node19&#45;&gt;Node12</title>
<path fill="none" stroke="#191970" d="M395.0275,-168.3733C375.3246,-159.3293 345.6467,-145.7067 323.5489,-135.5634"/>
<polygon fill="#191970" stroke="#191970" points="324.8419,-132.3059 314.2935,-131.315 321.9217,-138.6677 324.8419,-132.3059"/>
</g>
<!-- Node20&#45;&gt;Node2 -->
<g id="edge32" class="edge">
<title>Node20&#45;&gt;Node2</title>
<path fill="none" stroke="#191970" d="M618.097,-168.4468C611.7731,-154.1291 597.9508,-127.1707 578,-112 549.3991,-90.2518 510.0445,-78.5215 480.3429,-72.3628"/>
<polygon fill="#191970" stroke="#191970" points="480.7567,-68.8779 470.2731,-70.4095 479.4236,-75.7498 480.7567,-68.8779"/>
</g>
<!-- Node21&#45;&gt;Node1 -->
<g id="edge35" class="edge">
<title>Node21&#45;&gt;Node1</title>
<path fill="none" stroke="#191970" d="M419.9738,-280.2455C429.1882,-272.0549 442.5532,-260.1749 453.4297,-250.5069"/>
<polygon fill="#191970" stroke="#191970" points="456.0032,-252.9023 461.152,-243.6427 451.3526,-247.6704 456.0032,-252.9023"/>
</g>
<!-- Node21&#45;&gt;Node9 -->
<g id="edge36" class="edge">
<title>Node21&#45;&gt;Node9</title>
<path fill="none" stroke="#191970" d="M385.7927,-280.3733C363.8301,-271.2629 330.6668,-257.5062 306.1599,-247.3404"/>
<polygon fill="#191970" stroke="#191970" points="307.4824,-244.0999 296.9045,-243.5011 304.8003,-250.5657 307.4824,-244.0999"/>
</g>
</g>
</svg>
