<?xml version="1.0" encoding="UTF-8" standalone="no"?>
<!DOCTYPE svg PUBLIC "-//W3C//DTD SVG 1.1//EN"
 "http://www.w3.org/Graphics/SVG/1.1/DTD/svg11.dtd">
<!-- Generated by graphviz version 2.43.0 (0)
 -->
<!-- Title: /home/fnky/C0de/component_engine/include/Components/AIComponent.h Pages: 1 -->
<svg width="555pt" height="162pt"
 viewBox="0.00 0.00 554.50 162.00" xmlns="http://www.w3.org/2000/svg" xmlns:xlink="http://www.w3.org/1999/xlink">
<g id="graph0" class="graph" transform="scale(1 1) rotate(0) translate(4 158)">
<title>/home/fnky/C0de/component_engine/include/Components/AIComponent.h</title>
<!-- Node1 -->
<g id="node1" class="node">
<title>Node1</title>
<g id="a_node1"><a xlink:title=" ">
<polygon fill="#bfbfbf" stroke="black" points="156,-112.5 156,-153.5 314,-153.5 314,-112.5 156,-112.5"/>
<text text-anchor="start" x="164" y="-141.5" font-family="Helvetica,sans-Serif" font-size="10.00">/home/fnky/C0de/component</text>
<text text-anchor="start" x="164" y="-130.5" font-family="Helvetica,sans-Serif" font-size="10.00">_engine/include/Components</text>
<text text-anchor="middle" x="235" y="-119.5" font-family="Helvetica,sans-Serif" font-size="10.00">/AIComponent.h</text>
</a>
</g>
</g>
<!-- Node2 -->
<g id="node2" class="node">
<title>Node2</title>
<g id="a_node2"><a xlink:href="Components_2Component_8h.html" target="_top" xlink:title=" ">
<polygon fill="none" stroke="black" points="0,-56.5 0,-75.5 82,-75.5 82,-56.5 0,-56.5"/>
<text text-anchor="middle" x="41" y="-63.5" font-family="Helvetica,sans-Serif" font-size="10.00">Component.h</text>
</a>
</g>
</g>
<!-- Node1&#45;&gt;Node2 -->
<g id="edge1" class="edge">
<title>Node1&#45;&gt;Node2</title>
<path fill="none" stroke="midnightblue" d="M176.79,-112.5C144.09,-101.54 104.34,-88.22 76.33,-78.84"/>
<polygon fill="midnightblue" stroke="midnightblue" points="77.16,-75.43 66.57,-75.57 74.94,-82.06 77.16,-75.43"/>
</g>
<!-- Node4 -->
<g id="node4" class="node">
<title>Node4</title>
<g id="a_node4"><a xlink:title=" ">
<polygon fill="none" stroke="#bfbfbf" points="100,-56.5 100,-75.5 178,-75.5 178,-56.5 100,-56.5"/>
<text text-anchor="middle" x="139" y="-63.5" font-family="Helvetica,sans-Serif" font-size="10.00">glm/glm.hpp</text>
</a>
</g>
</g>
<!-- Node1&#45;&gt;Node4 -->
<g id="edge3" class="edge">
<title>Node1&#45;&gt;Node4</title>
<path fill="none" stroke="midnightblue" d="M206.2,-112.5C191.48,-102.53 173.88,-90.61 160.38,-81.48"/>
<polygon fill="midnightblue" stroke="midnightblue" points="162.02,-78.36 151.78,-75.65 158.1,-84.16 162.02,-78.36"/>
</g>
<!-- Node5 -->
<g id="node5" class="node">
<title>Node5</title>
<g id="a_node5"><a xlink:title=" ">
<polygon fill="none" stroke="#bfbfbf" points="248.5,-0.5 248.5,-19.5 337.5,-19.5 337.5,-0.5 248.5,-0.5"/>
<text text-anchor="middle" x="293" y="-7.5" font-family="Helvetica,sans-Serif" font-size="10.00">box2d/box2d.h</text>
</a>
</g>
</g>
<!-- Node1&#45;&gt;Node5 -->
<g id="edge4" class="edge">
<title>Node1&#45;&gt;Node5</title>
<path fill="none" stroke="midnightblue" d="M226.3,-112.42C220.54,-96.35 215.61,-73.47 225,-56 232.62,-41.82 246.9,-31.35 260.41,-24.1"/>
<polygon fill="midnightblue" stroke="midnightblue" points="262.13,-27.16 269.55,-19.59 259.03,-20.88 262.13,-27.16"/>
</g>
<!-- Node6 -->
<g id="node6" class="node">
<title>Node6</title>
<g id="a_node6"><a xlink:title=" ">
<polygon fill="none" stroke="#bfbfbf" points="234,-56.5 234,-75.5 294,-75.5 294,-56.5 234,-56.5"/>
<text text-anchor="middle" x="264" y="-63.5" font-family="Helvetica,sans-Serif" font-size="10.00">iostream</text>
</a>
</g>
</g>
<!-- Node1&#45;&gt;Node6 -->
<g id="edge5" class="edge">
<title>Node1&#45;&gt;Node6</title>
<path fill="none" stroke="midnightblue" d="M243.7,-112.5C247.59,-103.78 252.15,-93.56 255.96,-85.02"/>
<polygon fill="midnightblue" stroke="midnightblue" points="259.26,-86.21 260.14,-75.65 252.87,-83.36 259.26,-86.21"/>
</g>
<!-- Node7 -->
<g id="node7" class="node">
<title>Node7</title>
<g id="a_node7"><a xlink:title=" ">
<polygon fill="none" stroke="#bfbfbf" points="312.5,-56.5 312.5,-75.5 405.5,-75.5 405.5,-56.5 312.5,-56.5"/>
<text text-anchor="middle" x="359" y="-63.5" font-family="Helvetica,sans-Serif" font-size="10.00">unordered_map</text>
</a>
</g>
</g>
<!-- Node1&#45;&gt;Node7 -->
<g id="edge6" class="edge">
<title>Node1&#45;&gt;Node7</title>
<path fill="none" stroke="midnightblue" d="M272.2,-112.5C291.95,-102.15 315.71,-89.69 333.37,-80.43"/>
<polygon fill="midnightblue" stroke="midnightblue" points="335.26,-83.4 342.49,-75.65 332.01,-77.2 335.26,-83.4"/>
</g>
<!-- Node8 -->
<g id="node8" class="node">
<title>Node8</title>
<g id="a_node8"><a xlink:href="BFS__graph_8h.html" target="_top" xlink:title=" ">
<polygon fill="none" stroke="black" points="423.5,-56.5 423.5,-75.5 546.5,-75.5 546.5,-56.5 423.5,-56.5"/>
<text text-anchor="middle" x="485" y="-63.5" font-family="Helvetica,sans-Serif" font-size="10.00">../Graphs/BFS_graph.h</text>
</a>
</g>
</g>
<!-- Node1&#45;&gt;Node8 -->
<g id="edge7" class="edge">
<title>Node1&#45;&gt;Node8</title>
<path fill="none" stroke="midnightblue" d="M310.01,-112.5C353.26,-101.25 406.07,-87.52 442.3,-78.1"/>
<polygon fill="midnightblue" stroke="midnightblue" points="443.25,-81.47 452.05,-75.57 441.49,-74.7 443.25,-81.47"/>
</g>
<!-- Node3 -->
<g id="node3" class="node">
<title>Node3</title>
<g id="a_node3"><a xlink:title=" ">
<polygon fill="none" stroke="#bfbfbf" points="12,-0.5 12,-19.5 70,-19.5 70,-0.5 12,-0.5"/>
<text text-anchor="middle" x="41" y="-7.5" font-family="Helvetica,sans-Serif" font-size="10.00">memory</text>
</a>
</g>
</g>
<!-- Node2&#45;&gt;Node3 -->
<g id="edge2" class="edge">
<title>Node2&#45;&gt;Node3</title>
<path fill="none" stroke="midnightblue" d="M41,-56.08C41,-49.01 41,-38.86 41,-29.99"/>
<polygon fill="midnightblue" stroke="midnightblue" points="44.5,-29.75 41,-19.75 37.5,-29.75 44.5,-29.75"/>
</g>
<!-- Node8&#45;&gt;Node5 -->
<g id="edge9" class="edge">
<title>Node8&#45;&gt;Node5</title>
<path fill="none" stroke="midnightblue" d="M454.58,-56.44C421.72,-47.2 369.22,-32.44 333.03,-22.26"/>
<polygon fill="midnightblue" stroke="midnightblue" points="333.85,-18.85 323.28,-19.52 331.96,-25.59 333.85,-18.85"/>
</g>
<!-- Node9 -->
<g id="node9" class="node">
<title>Node9</title>
<g id="a_node9"><a xlink:title=" ">
<polygon fill="none" stroke="#bfbfbf" points="443.5,-0.5 443.5,-19.5 526.5,-19.5 526.5,-0.5 443.5,-0.5"/>
<text text-anchor="middle" x="485" y="-7.5" font-family="Helvetica,sans-Serif" font-size="10.00">bits/stdc++.h</text>
</a>
</g>
</g>
<!-- Node8&#45;&gt;Node9 -->
<g id="edge8" class="edge">
<title>Node8&#45;&gt;Node9</title>
<path fill="none" stroke="midnightblue" d="M485,-56.08C485,-49.01 485,-38.86 485,-29.99"/>
<polygon fill="midnightblue" stroke="midnightblue" points="488.5,-29.75 485,-19.75 481.5,-29.75 488.5,-29.75"/>
</g>
</g>
</svg>
