<?xml version="1.0" encoding="UTF-8" standalone="no"?>
<!DOCTYPE svg PUBLIC "-//W3C//DTD SVG 1.1//EN"
 "http://www.w3.org/Graphics/SVG/1.1/DTD/svg11.dtd">
<!-- Generated by graphviz version 2.43.0 (0)
 -->
<!-- Title: /home/fnky/C0de/component_engine/src/Actors/Animate_Actor.cpp Pages: 1 -->
<!--zoomable 296 -->
<svg id="main" version="1.1" xmlns="http://www.w3.org/2000/svg" xmlns:xlink="http://www.w3.org/1999/xlink" xml:space="preserve" onload="init(evt)">
<style type="text/css"><![CDATA[
.edge:hover path { stroke: red; }
.edge:hover polygon { stroke: red; fill: red; }
]]></style>
<script type="text/javascript"><![CDATA[
var edges = document.getElementsByTagName('g');
if (edges && edges.length) {
  for (var i=0;i<edges.length;i++) {
    if (edges[i].id.substr(0,4)=='edge') {
      edges[i].setAttribute('class','edge');
    }
  }
}
]]></script>
        <defs>
                <circle id="rim" cx="0" cy="0" r="7"/>
                <circle id="rim2" cx="0" cy="0" r="3.5"/>
                <g id="zoomPlus">
                        <use xlink:href="#rim" fill="#404040">
                                <set attributeName="fill" to="#808080" begin="zoomplus.mouseover" end="zoomplus.mouseout"/>
                        </use>
                        <path d="M-4,0h8M0,-4v8" fill="none" stroke="white" stroke-width="1.5" pointer-events="none"/>
                </g>
                <g id="zoomMin">
                        <use xlink:href="#rim" fill="#404040">
                                <set attributeName="fill" to="#808080" begin="zoomminus.mouseover" end="zoomminus.mouseout"/>
                        </use>
                        <path d="M-4,0h8" fill="none" stroke="white" stroke-width="1.5" pointer-events="none"/>
                </g>
                <g id="dirArrow">
                        <path fill="none" stroke="white" stroke-width="1.5" d="M0,-3.0v7 M-2.5,-0.5L0,-3.0L2.5,-0.5"/>
                </g>
               <g id="resetDef">
                       <use xlink:href="#rim2" fill="#404040">
                               <set attributeName="fill" to="#808080" begin="reset.mouseover" end="reset.mouseout"/>
                       </use>
               </g>
        </defs>

<script type="text/javascript">
var viewWidth = 1355;
var viewHeight = 296;
var sectionId = 'dynsection-0';
</script>
<script xlink:href="svgpan.js"/>
<svg id="graph" class="graph">
<g id="viewport">
<title>/home/fnky/C0de/component_engine/src/Actors/Animate_Actor.cpp</title>
<!-- Node1 -->
<g id="node1" class="node">
<title>Node1</title>
<g id="a_node1"><a xlink:title=" ">
<polygon fill="#bfbfbf" stroke="black" points="350.52,-246.5 350.52,-287.5 507.52,-287.5 507.52,-246.5 350.52,-246.5"/>
<text text-anchor="start" x="358.52" y="-275.5" font-family="Helvetica,sans-Serif" font-size="10.00">/home/fnky/C0de/component</text>
<text text-anchor="start" x="358.52" y="-264.5" font-family="Helvetica,sans-Serif" font-size="10.00">_engine/src/Actors/Animate</text>
<text text-anchor="middle" x="429.02" y="-253.5" font-family="Helvetica,sans-Serif" font-size="10.00">_Actor.cpp</text>
</a>
</g>
</g>
<!-- Node2 -->
<g id="node2" class="node">
<title>Node2</title>
<g id="a_node2"><a xlink:href="Shader__Actor_8h.html" target="_top" xlink:title=" ">
<polygon fill="none" stroke="black" points="163.02,-179.5 163.02,-209.5 267.02,-209.5 267.02,-179.5 163.02,-179.5"/>
<text text-anchor="start" x="171.02" y="-197.5" font-family="Helvetica,sans-Serif" font-size="10.00">../../include/Actors</text>
<text text-anchor="middle" x="215.02" y="-186.5" font-family="Helvetica,sans-Serif" font-size="10.00">/Shader_Actor.h</text>
</a>
</g>
</g>
<!-- Node1&#45;&gt;Node2 -->
<g id="edge1" class="edge">
<title>Node1&#45;&gt;Node2</title>
<path fill="none" stroke="midnightblue" d="M369.69,-246.46C337.65,-235.9 298.46,-222.99 267.53,-212.8"/>
<polygon fill="midnightblue" stroke="midnightblue" points="268.4,-209.4 257.81,-209.6 266.21,-216.05 268.4,-209.4"/>
</g>
<!-- Node4 -->
<g id="node4" class="node">
<title>Node4</title>
<g id="a_node4"><a xlink:title=" ">
<polygon fill="none" stroke="#bfbfbf" points="267.02,-0.5 267.02,-19.5 325.02,-19.5 325.02,-0.5 267.02,-0.5"/>
<text text-anchor="middle" x="296.02" y="-7.5" font-family="Helvetica,sans-Serif" font-size="10.00">memory</text>
</a>
</g>
</g>
<!-- Node1&#45;&gt;Node4 -->
<g id="edge51" class="edge">
<title>Node1&#45;&gt;Node4</title>
<path fill="none" stroke="midnightblue" d="M350.47,-266.58C246.73,-265.47 72.42,-256.5 32.02,-210 4.75,-178.62 -31.03,-140.4 51.02,-56 78.94,-27.27 194.78,-16.56 256.65,-12.83"/>
<polygon fill="midnightblue" stroke="midnightblue" points="257.03,-16.31 266.82,-12.25 256.63,-9.32 257.03,-16.31"/>
</g>
<!-- Node9 -->
<g id="node9" class="node">
<title>Node9</title>
<g id="a_node9"><a xlink:href="Texture__Actor_8h.html" target="_top" xlink:title=" ">
<polygon fill="none" stroke="black" points="41.02,-179.5 41.02,-209.5 145.02,-209.5 145.02,-179.5 41.02,-179.5"/>
<text text-anchor="start" x="49.02" y="-197.5" font-family="Helvetica,sans-Serif" font-size="10.00">../../include/Actors</text>
<text text-anchor="middle" x="93.02" y="-186.5" font-family="Helvetica,sans-Serif" font-size="10.00">/Texture_Actor.h</text>
</a>
</g>
</g>
<!-- Node1&#45;&gt;Node9 -->
<g id="edge10" class="edge">
<title>Node1&#45;&gt;Node9</title>
<path fill="none" stroke="midnightblue" d="M350.34,-250.68C297.74,-240.28 226.75,-225.92 155.31,-210.25"/>
<polygon fill="midnightblue" stroke="midnightblue" points="155.75,-206.76 145.23,-208.03 154.25,-213.6 155.75,-206.76"/>
</g>
<!-- Node10 -->
<g id="node10" class="node">
<title>Node10</title>
<g id="a_node10"><a xlink:href="Animate__Actor_8h.html" target="_top" xlink:title=" ">
<polygon fill="none" stroke="black" points="285.02,-179.5 285.02,-209.5 389.02,-209.5 389.02,-179.5 285.02,-179.5"/>
<text text-anchor="start" x="293.02" y="-197.5" font-family="Helvetica,sans-Serif" font-size="10.00">../../include/Actors</text>
<text text-anchor="middle" x="337.02" y="-186.5" font-family="Helvetica,sans-Serif" font-size="10.00">/Animate_Actor.h</text>
</a>
</g>
</g>
<!-- Node1&#45;&gt;Node10 -->
<g id="edge15" class="edge">
<title>Node1&#45;&gt;Node10</title>
<path fill="none" stroke="midnightblue" d="M403.39,-246.36C391.03,-236.89 376.22,-225.54 363.73,-215.97"/>
<polygon fill="midnightblue" stroke="midnightblue" points="365.57,-212.97 355.51,-209.67 361.32,-218.53 365.57,-212.97"/>
</g>
<!-- Node11 -->
<g id="node11" class="node">
<title>Node11</title>
<g id="a_node11"><a xlink:href="TransformComponent_8h.html" target="_top" xlink:title=" ">
<polygon fill="none" stroke="black" points="550.02,-179.5 550.02,-209.5 684.02,-209.5 684.02,-179.5 550.02,-179.5"/>
<text text-anchor="start" x="558.02" y="-197.5" font-family="Helvetica,sans-Serif" font-size="10.00">../../include/Components</text>
<text text-anchor="middle" x="617.02" y="-186.5" font-family="Helvetica,sans-Serif" font-size="10.00">/TransformComponent.h</text>
</a>
</g>
</g>
<!-- Node1&#45;&gt;Node11 -->
<g id="edge20" class="edge">
<title>Node1&#45;&gt;Node11</title>
<path fill="none" stroke="midnightblue" d="M481.38,-246.36C509.16,-235.95 543,-223.25 569.94,-213.15"/>
<polygon fill="midnightblue" stroke="midnightblue" points="571.39,-216.35 579.52,-209.56 568.93,-209.79 571.39,-216.35"/>
</g>
<!-- Node14 -->
<g id="node14" class="node">
<title>Node14</title>
<g id="a_node14"><a xlink:href="ShaderComponent_8h.html" target="_top" xlink:title=" ">
<polygon fill="none" stroke="black" points="455.02,-112.5 455.02,-142.5 589.02,-142.5 589.02,-112.5 455.02,-112.5"/>
<text text-anchor="start" x="463.02" y="-130.5" font-family="Helvetica,sans-Serif" font-size="10.00">../../include/Components</text>
<text text-anchor="middle" x="522.02" y="-119.5" font-family="Helvetica,sans-Serif" font-size="10.00">/ShaderComponent.h</text>
</a>
</g>
</g>
<!-- Node1&#45;&gt;Node14 -->
<g id="edge24" class="edge">
<title>Node1&#45;&gt;Node14</title>
<path fill="none" stroke="midnightblue" d="M442.34,-246.3C459.32,-221.19 488.62,-177.87 506.57,-151.34"/>
<polygon fill="midnightblue" stroke="midnightblue" points="509.7,-152.96 512.4,-142.72 503.9,-149.04 509.7,-152.96"/>
</g>
<!-- Node17 -->
<g id="node17" class="node">
<title>Node17</title>
<g id="a_node17"><a xlink:href="RenderComponent_8h.html" target="_top" xlink:title=" ">
<polygon fill="none" stroke="black" points="865.02,-179.5 865.02,-209.5 999.02,-209.5 999.02,-179.5 865.02,-179.5"/>
<text text-anchor="start" x="873.02" y="-197.5" font-family="Helvetica,sans-Serif" font-size="10.00">../../include/Components</text>
<text text-anchor="middle" x="932.02" y="-186.5" font-family="Helvetica,sans-Serif" font-size="10.00">/RenderComponent.h</text>
</a>
</g>
</g>
<!-- Node1&#45;&gt;Node17 -->
<g id="edge29" class="edge">
<title>Node1&#45;&gt;Node17</title>
<path fill="none" stroke="midnightblue" d="M507.61,-254.98C602.38,-241.7 760.65,-219.52 854.8,-206.32"/>
<polygon fill="midnightblue" stroke="midnightblue" points="855.41,-209.77 864.83,-204.92 854.44,-202.84 855.41,-209.77"/>
</g>
<!-- Node26 -->
<g id="node26" class="node">
<title>Node26</title>
<g id="a_node26"><a xlink:title=" ">
<polygon fill="none" stroke="#bfbfbf" points="1017.52,-185 1017.52,-204 1100.52,-204 1100.52,-185 1017.52,-185"/>
<text text-anchor="middle" x="1059.02" y="-192" font-family="Helvetica,sans-Serif" font-size="10.00">GLFW/glfw3.h</text>
</a>
</g>
</g>
<!-- Node1&#45;&gt;Node26 -->
<g id="edge52" class="edge">
<title>Node1&#45;&gt;Node26</title>
<path fill="none" stroke="midnightblue" d="M507.85,-262.89C619.86,-257.45 831.13,-243.42 1008.02,-210 1012.79,-209.1 1017.77,-207.95 1022.67,-206.7"/>
<polygon fill="midnightblue" stroke="midnightblue" points="1023.77,-210.02 1032.5,-204.02 1021.93,-203.27 1023.77,-210.02"/>
</g>
<!-- Node3 -->
<g id="node3" class="node">
<title>Node3</title>
<g id="a_node3"><a xlink:href="Components_2Component_8h.html" target="_top" xlink:title=" ">
<polygon fill="none" stroke="black" points="324.52,-56.5 324.52,-75.5 479.52,-75.5 479.52,-56.5 324.52,-56.5"/>
<text text-anchor="middle" x="402.02" y="-63.5" font-family="Helvetica,sans-Serif" font-size="10.00">../Components/Component.h</text>
</a>
</g>
</g>
<!-- Node2&#45;&gt;Node3 -->
<g id="edge2" class="edge">
<title>Node2&#45;&gt;Node3</title>
<path fill="none" stroke="midnightblue" d="M235.74,-179.48C271.51,-155.28 344.46,-105.94 380.66,-81.45"/>
<polygon fill="midnightblue" stroke="midnightblue" points="382.7,-84.29 389.02,-75.79 378.78,-78.49 382.7,-84.29"/>
</g>
<!-- Node2&#45;&gt;Node4 -->
<g id="edge9" class="edge">
<title>Node2&#45;&gt;Node4</title>
<path fill="none" stroke="midnightblue" d="M171.91,-179.49C151.85,-171.31 128.77,-159.33 112.02,-143 82.17,-113.91 50.68,-88.3 77.02,-56 99.24,-28.74 199.74,-17.53 256.56,-13.3"/>
<polygon fill="midnightblue" stroke="midnightblue" points="256.91,-16.78 266.63,-12.59 256.41,-9.8 256.91,-16.78"/>
</g>
<!-- Node5 -->
<g id="node5" class="node">
<title>Node5</title>
<g id="a_node5"><a xlink:href="Actor_8h.html" target="_top" xlink:title=" ">
<polygon fill="none" stroke="black" points="121.02,-118 121.02,-137 171.02,-137 171.02,-118 121.02,-118"/>
<text text-anchor="middle" x="146.02" y="-125" font-family="Helvetica,sans-Serif" font-size="10.00">Actor.h</text>
</a>
</g>
</g>
<!-- Node2&#45;&gt;Node5 -->
<g id="edge4" class="edge">
<title>Node2&#45;&gt;Node5</title>
<path fill="none" stroke="midnightblue" d="M200.04,-179.4C189.07,-169.06 174.17,-155.02 162.8,-144.31"/>
<polygon fill="midnightblue" stroke="midnightblue" points="164.92,-141.5 155.24,-137.19 160.12,-146.6 164.92,-141.5"/>
</g>
<!-- Node8 -->
<g id="node8" class="node">
<title>Node8</title>
<g id="a_node8"><a xlink:title=" ">
<polygon fill="none" stroke="#bfbfbf" points="190.52,-56.5 190.52,-75.5 267.52,-75.5 267.52,-56.5 190.52,-56.5"/>
<text text-anchor="middle" x="229.02" y="-63.5" font-family="Helvetica,sans-Serif" font-size="10.00">glm/fwd.hpp</text>
</a>
</g>
</g>
<!-- Node2&#45;&gt;Node8 -->
<g id="edge8" class="edge">
<title>Node2&#45;&gt;Node8</title>
<path fill="none" stroke="midnightblue" d="M216.57,-179.48C219.09,-156.72 224.07,-111.7 226.91,-86.06"/>
<polygon fill="midnightblue" stroke="midnightblue" points="230.42,-86.11 228.04,-75.79 223.46,-85.34 230.42,-86.11"/>
</g>
<!-- Node3&#45;&gt;Node4 -->
<g id="edge3" class="edge">
<title>Node3&#45;&gt;Node4</title>
<path fill="none" stroke="midnightblue" d="M384.98,-56.32C367.99,-47.66 341.64,-34.24 322.02,-24.25"/>
<polygon fill="midnightblue" stroke="midnightblue" points="323.5,-21.08 313,-19.65 320.33,-27.31 323.5,-21.08"/>
</g>
<!-- Node5&#45;&gt;Node3 -->
<g id="edge7" class="edge">
<title>Node5&#45;&gt;Node3</title>
<path fill="none" stroke="midnightblue" d="M171.03,-120.69C213.58,-110.8 300.7,-90.55 354.95,-77.94"/>
<polygon fill="midnightblue" stroke="midnightblue" points="356.06,-81.28 365,-75.6 354.47,-74.46 356.06,-81.28"/>
</g>
<!-- Node6 -->
<g id="node6" class="node">
<title>Node6</title>
<g id="a_node6"><a xlink:title=" ">
<polygon fill="none" stroke="#bfbfbf" points="86.52,-56.5 86.52,-75.5 133.52,-75.5 133.52,-56.5 86.52,-56.5"/>
<text text-anchor="middle" x="110.02" y="-63.5" font-family="Helvetica,sans-Serif" font-size="10.00">vector</text>
</a>
</g>
</g>
<!-- Node5&#45;&gt;Node6 -->
<g id="edge5" class="edge">
<title>Node5&#45;&gt;Node6</title>
<path fill="none" stroke="midnightblue" d="M140.86,-117.98C135.56,-109.23 127.18,-95.37 120.49,-84.31"/>
<polygon fill="midnightblue" stroke="midnightblue" points="123.33,-82.25 115.16,-75.51 117.35,-85.88 123.33,-82.25"/>
</g>
<!-- Node7 -->
<g id="node7" class="node">
<title>Node7</title>
<g id="a_node7"><a xlink:title=" ">
<polygon fill="none" stroke="#bfbfbf" points="1003.02,-0.5 1003.02,-19.5 1063.02,-19.5 1063.02,-0.5 1003.02,-0.5"/>
<text text-anchor="middle" x="1033.02" y="-7.5" font-family="Helvetica,sans-Serif" font-size="10.00">iostream</text>
</a>
</g>
</g>
<!-- Node5&#45;&gt;Node7 -->
<g id="edge6" class="edge">
<title>Node5&#45;&gt;Node7</title>
<path fill="none" stroke="midnightblue" d="M147.47,-117.7C150.55,-102.19 159.32,-70.26 181.02,-56 249.23,-11.17 831.68,-10.18 992.2,-10.77"/>
<polygon fill="midnightblue" stroke="midnightblue" points="992.57,-14.27 1002.59,-10.81 992.6,-7.27 992.57,-14.27"/>
</g>
<!-- Node9&#45;&gt;Node3 -->
<g id="edge11" class="edge">
<title>Node9&#45;&gt;Node3</title>
<path fill="none" stroke="midnightblue" d="M126.06,-179.46C164.77,-163.05 230.91,-135.2 288.02,-112 315.66,-100.77 347.23,-88.34 370.13,-79.39"/>
<polygon fill="midnightblue" stroke="midnightblue" points="371.64,-82.56 379.68,-75.66 369.09,-76.04 371.64,-82.56"/>
</g>
<!-- Node9&#45;&gt;Node4 -->
<g id="edge14" class="edge">
<title>Node9&#45;&gt;Node4</title>
<path fill="none" stroke="midnightblue" d="M83.17,-179.22C65.75,-152.03 34.06,-92.33 64.02,-56 87.96,-26.96 196.76,-16.43 256.48,-12.8"/>
<polygon fill="midnightblue" stroke="midnightblue" points="256.89,-16.28 266.68,-12.21 256.49,-9.29 256.89,-16.28"/>
</g>
<!-- Node9&#45;&gt;Node5 -->
<g id="edge12" class="edge">
<title>Node9&#45;&gt;Node5</title>
<path fill="none" stroke="midnightblue" d="M104.52,-179.4C112.7,-169.36 123.72,-155.84 132.35,-145.25"/>
<polygon fill="midnightblue" stroke="midnightblue" points="135.32,-147.16 138.93,-137.19 129.89,-142.73 135.32,-147.16"/>
</g>
<!-- Node9&#45;&gt;Node8 -->
<g id="edge13" class="edge">
<title>Node9&#45;&gt;Node8</title>
<path fill="none" stroke="midnightblue" d="M92.51,-179.33C92.64,-161.51 95.51,-130.96 112.02,-112 129.4,-92.04 156.67,-80.88 180.51,-74.68"/>
<polygon fill="midnightblue" stroke="midnightblue" points="181.56,-78.03 190.48,-72.31 179.95,-71.22 181.56,-78.03"/>
</g>
<!-- Node10&#45;&gt;Node3 -->
<g id="edge16" class="edge">
<title>Node10&#45;&gt;Node3</title>
<path fill="none" stroke="midnightblue" d="M345.06,-179.46C350.77,-169.39 358.54,-155.45 365.02,-143 375.25,-123.33 386.29,-100.39 393.63,-84.91"/>
<polygon fill="midnightblue" stroke="midnightblue" points="396.96,-86.05 398.05,-75.51 390.63,-83.06 396.96,-86.05"/>
</g>
<!-- Node10&#45;&gt;Node4 -->
<g id="edge19" class="edge">
<title>Node10&#45;&gt;Node4</title>
<path fill="none" stroke="midnightblue" d="M333.87,-179.48C326.56,-146.96 308.45,-66.34 300.21,-29.68"/>
<polygon fill="midnightblue" stroke="midnightblue" points="303.6,-28.81 298,-19.82 296.77,-30.34 303.6,-28.81"/>
</g>
<!-- Node10&#45;&gt;Node5 -->
<g id="edge17" class="edge">
<title>Node10&#45;&gt;Node5</title>
<path fill="none" stroke="midnightblue" d="M295.57,-179.4C261.17,-167.69 212.81,-151.23 180.49,-140.23"/>
<polygon fill="midnightblue" stroke="midnightblue" points="181.61,-136.92 171.01,-137.01 179.35,-143.54 181.61,-136.92"/>
</g>
<!-- Node10&#45;&gt;Node8 -->
<g id="edge18" class="edge">
<title>Node10&#45;&gt;Node8</title>
<path fill="none" stroke="midnightblue" d="M325.04,-179.48C305,-156 264.74,-108.84 243.27,-83.69"/>
<polygon fill="midnightblue" stroke="midnightblue" points="245.67,-81.12 236.52,-75.79 240.35,-85.67 245.67,-81.12"/>
</g>
<!-- Node11&#45;&gt;Node3 -->
<g id="edge21" class="edge">
<title>Node11&#45;&gt;Node3</title>
<path fill="none" stroke="midnightblue" d="M549.9,-185.67C515.92,-178.91 475.7,-166.35 446.02,-143 427.06,-128.09 414.73,-102.59 408.08,-85.28"/>
<polygon fill="midnightblue" stroke="midnightblue" points="411.32,-83.96 404.66,-75.73 404.73,-86.32 411.32,-83.96"/>
</g>
<!-- Node12 -->
<g id="node12" class="node">
<title>Node12</title>
<g id="a_node12"><a xlink:title=" ">
<polygon fill="none" stroke="#bfbfbf" points="671.02,-56.5 671.02,-75.5 749.02,-75.5 749.02,-56.5 671.02,-56.5"/>
<text text-anchor="middle" x="710.02" y="-63.5" font-family="Helvetica,sans-Serif" font-size="10.00">glm/glm.hpp</text>
</a>
</g>
</g>
<!-- Node11&#45;&gt;Node12 -->
<g id="edge22" class="edge">
<title>Node11&#45;&gt;Node12</title>
<path fill="none" stroke="midnightblue" d="M617.08,-179.47C617.82,-162.07 621.36,-132.24 636.02,-112 646.29,-97.81 662.53,-87.22 677.19,-79.89"/>
<polygon fill="midnightblue" stroke="midnightblue" points="678.93,-82.94 686.51,-75.54 675.97,-76.59 678.93,-82.94"/>
</g>
<!-- Node13 -->
<g id="node13" class="node">
<title>Node13</title>
<g id="a_node13"><a xlink:title=" ">
<polygon fill="none" stroke="#bfbfbf" points="645.52,-118 645.52,-137 808.52,-137 808.52,-118 645.52,-118"/>
<text text-anchor="middle" x="727.02" y="-125" font-family="Helvetica,sans-Serif" font-size="10.00">glm/gtc/matrix_transform.hpp</text>
</a>
</g>
</g>
<!-- Node11&#45;&gt;Node13 -->
<g id="edge23" class="edge">
<title>Node11&#45;&gt;Node13</title>
<path fill="none" stroke="midnightblue" d="M640.88,-179.4C659.59,-168.34 685.45,-153.06 703.95,-142.13"/>
<polygon fill="midnightblue" stroke="midnightblue" points="705.79,-145.11 712.62,-137.01 702.23,-139.08 705.79,-145.11"/>
</g>
<!-- Node14&#45;&gt;Node3 -->
<g id="edge25" class="edge">
<title>Node14&#45;&gt;Node3</title>
<path fill="none" stroke="midnightblue" d="M493.58,-112.4C473.89,-102.64 447.87,-89.74 428.6,-80.18"/>
<polygon fill="midnightblue" stroke="midnightblue" points="429.99,-76.96 419.48,-75.66 426.88,-83.24 429.99,-76.96"/>
</g>
<!-- Node14&#45;&gt;Node12 -->
<g id="edge27" class="edge">
<title>Node14&#45;&gt;Node12</title>
<path fill="none" stroke="midnightblue" d="M566.57,-112.4C599.05,-102.12 642.55,-88.35 673.1,-78.68"/>
<polygon fill="midnightblue" stroke="midnightblue" points="674.46,-81.93 682.93,-75.57 672.34,-75.25 674.46,-81.93"/>
</g>
<!-- Node15 -->
<g id="node15" class="node">
<title>Node15</title>
<g id="a_node15"><a xlink:title=" ">
<polygon fill="none" stroke="#bfbfbf" points="1186.52,-0.5 1186.52,-19.5 1257.52,-19.5 1257.52,-0.5 1186.52,-0.5"/>
<text text-anchor="middle" x="1222.02" y="-7.5" font-family="Helvetica,sans-Serif" font-size="10.00">glad/glad.h</text>
</a>
</g>
</g>
<!-- Node14&#45;&gt;Node15 -->
<g id="edge26" class="edge">
<title>Node14&#45;&gt;Node15</title>
<path fill="none" stroke="midnightblue" d="M550.35,-112.43C570.62,-102.34 598.53,-88.4 623.02,-76 640.39,-67.2 643.28,-61.33 662.02,-56 710.89,-42.1 1051.28,-21.01 1176.19,-13.65"/>
<polygon fill="midnightblue" stroke="midnightblue" points="1176.42,-17.14 1186.2,-13.06 1176.01,-10.15 1176.42,-17.14"/>
</g>
<!-- Node16 -->
<g id="node16" class="node">
<title>Node16</title>
<g id="a_node16"><a xlink:title=" ">
<polygon fill="none" stroke="#bfbfbf" points="497.52,-56.5 497.52,-75.5 614.52,-75.5 614.52,-56.5 497.52,-56.5"/>
<text text-anchor="middle" x="556.02" y="-63.5" font-family="Helvetica,sans-Serif" font-size="10.00">glm/gtc/type_ptr.hpp</text>
</a>
</g>
</g>
<!-- Node14&#45;&gt;Node16 -->
<g id="edge28" class="edge">
<title>Node14&#45;&gt;Node16</title>
<path fill="none" stroke="midnightblue" d="M530.07,-112.4C534.86,-104.02 540.97,-93.33 546.06,-84.42"/>
<polygon fill="midnightblue" stroke="midnightblue" points="549.15,-86.08 551.07,-75.66 543.07,-82.6 549.15,-86.08"/>
</g>
<!-- Node17&#45;&gt;Node3 -->
<g id="edge36" class="edge">
<title>Node17&#45;&gt;Node3</title>
<path fill="none" stroke="midnightblue" d="M906.79,-179.37C890.4,-169.82 868.85,-156.51 851.02,-143 834.72,-130.65 835.66,-120.41 817.02,-112 815.16,-111.16 610.88,-89.27 489.65,-76.33"/>
<polygon fill="midnightblue" stroke="midnightblue" points="489.95,-72.85 479.63,-75.27 489.21,-79.81 489.95,-72.85"/>
</g>
<!-- Node17&#45;&gt;Node4 -->
<g id="edge50" class="edge">
<title>Node17&#45;&gt;Node4</title>
<path fill="none" stroke="midnightblue" d="M926.92,-179.22C919.86,-161.27 905.5,-130.59 884.02,-112 852.06,-84.35 834.31,-93.86 796.02,-76 778.72,-67.93 776.3,-61.47 758.02,-56 679.23,-32.42 432.41,-17.84 335.57,-12.89"/>
<polygon fill="midnightblue" stroke="midnightblue" points="335.49,-9.38 325.33,-12.38 335.14,-16.37 335.49,-9.38"/>
</g>
<!-- Node17&#45;&gt;Node12 -->
<g id="edge33" class="edge">
<title>Node17&#45;&gt;Node12</title>
<path fill="none" stroke="midnightblue" d="M921.52,-179.34C907.41,-161.25 880.63,-130.1 851.02,-112 822.9,-94.81 787.57,-83.55 759.3,-76.59"/>
<polygon fill="midnightblue" stroke="midnightblue" points="759.77,-73.11 749.24,-74.22 758.17,-79.92 759.77,-73.11"/>
</g>
<!-- Node17&#45;&gt;Node13 -->
<g id="edge34" class="edge">
<title>Node17&#45;&gt;Node13</title>
<path fill="none" stroke="midnightblue" d="M887.79,-179.48C850.72,-167.72 798.43,-151.14 763.66,-140.12"/>
<polygon fill="midnightblue" stroke="midnightblue" points="764.5,-136.71 753.91,-137.03 762.39,-143.39 764.5,-136.71"/>
</g>
<!-- Node17&#45;&gt;Node15 -->
<g id="edge32" class="edge">
<title>Node17&#45;&gt;Node15</title>
<path fill="none" stroke="midnightblue" d="M999.15,-180.69C1002.15,-180.12 1005.11,-179.55 1008.02,-179 1092.45,-162.95 1122.5,-184.04 1198.02,-143 1234.2,-123.34 1246.69,-114.22 1262.02,-76 1269.27,-57.91 1254.97,-39.14 1241.5,-26.45"/>
<polygon fill="midnightblue" stroke="midnightblue" points="1243.66,-23.69 1233.83,-19.73 1239.05,-28.96 1243.66,-23.69"/>
</g>
<!-- Node18 -->
<g id="node18" class="node">
<title>Node18</title>
<g id="a_node18"><a xlink:title=" ">
<polygon fill="none" stroke="#bfbfbf" points="805.02,-56.5 805.02,-75.5 855.02,-75.5 855.02,-56.5 805.02,-56.5"/>
<text text-anchor="middle" x="830.02" y="-63.5" font-family="Helvetica,sans-Serif" font-size="10.00">cstdint</text>
</a>
</g>
</g>
<!-- Node17&#45;&gt;Node18 -->
<g id="edge30" class="edge">
<title>Node17&#45;&gt;Node18</title>
<path fill="none" stroke="midnightblue" d="M935.19,-179.44C938.29,-162.01 940.76,-132.14 927.02,-112 919.44,-100.9 889.41,-87.96 864.74,-78.82"/>
<polygon fill="midnightblue" stroke="midnightblue" points="865.86,-75.5 855.27,-75.39 863.48,-82.08 865.86,-75.5"/>
</g>
<!-- Node19 -->
<g id="node19" class="node">
<title>Node19</title>
<g id="a_node19"><a xlink:title=" ">
<polygon fill="none" stroke="#bfbfbf" points="1143.02,-118 1143.02,-137 1189.02,-137 1189.02,-118 1143.02,-118"/>
<text text-anchor="middle" x="1166.02" y="-125" font-family="Helvetica,sans-Serif" font-size="10.00">cstdio</text>
</a>
</g>
</g>
<!-- Node17&#45;&gt;Node19 -->
<g id="edge31" class="edge">
<title>Node17&#45;&gt;Node19</title>
<path fill="none" stroke="midnightblue" d="M995.13,-179.4C1034.06,-170.2 1084.83,-157.26 1129.02,-143 1131.29,-142.27 1133.62,-141.47 1135.96,-140.63"/>
<polygon fill="midnightblue" stroke="midnightblue" points="1137.3,-143.87 1145.43,-137.08 1134.84,-137.31 1137.3,-143.87"/>
</g>
<!-- Node20 -->
<g id="node20" class="node">
<title>Node20</title>
<g id="a_node20"><a xlink:title=" ">
<polygon fill="none" stroke="#bfbfbf" points="1309.02,-118 1309.02,-137 1347.02,-137 1347.02,-118 1309.02,-118"/>
<text text-anchor="middle" x="1328.02" y="-125" font-family="Helvetica,sans-Serif" font-size="10.00">map</text>
</a>
</g>
</g>
<!-- Node17&#45;&gt;Node20 -->
<g id="edge35" class="edge">
<title>Node17&#45;&gt;Node20</title>
<path fill="none" stroke="midnightblue" d="M999.11,-180.46C1002.12,-179.95 1005.1,-179.46 1008.02,-179 1135,-158.94 1171.1,-177.21 1295.02,-143 1297.17,-142.4 1299.37,-141.69 1301.55,-140.91"/>
<polygon fill="midnightblue" stroke="midnightblue" points="1302.93,-144.13 1310.89,-137.14 1300.31,-137.64 1302.93,-144.13"/>
</g>
<!-- Node21 -->
<g id="node21" class="node">
<title>Node21</title>
<g id="a_node21"><a xlink:href="sprite_8h.html" target="_top" xlink:title=" ">
<polygon fill="none" stroke="black" points="979.02,-118 979.02,-137 1087.02,-137 1087.02,-118 979.02,-118"/>
<text text-anchor="middle" x="1033.02" y="-125" font-family="Helvetica,sans-Serif" font-size="10.00">../Graphics/sprite.h</text>
</a>
</g>
</g>
<!-- Node17&#45;&gt;Node21 -->
<g id="edge37" class="edge">
<title>Node17&#45;&gt;Node21</title>
<path fill="none" stroke="midnightblue" d="M953.93,-179.4C970.87,-168.5 994.2,-153.48 1011.13,-142.58"/>
<polygon fill="midnightblue" stroke="midnightblue" points="1013.28,-145.36 1019.8,-137.01 1009.49,-139.48 1013.28,-145.36"/>
</g>
<!-- Node23 -->
<g id="node23" class="node">
<title>Node23</title>
<g id="a_node23"><a xlink:href="texture_8h.html" target="_top" xlink:title=" ">
<polygon fill="none" stroke="black" points="1191.52,-56.5 1191.52,-75.5 1252.52,-75.5 1252.52,-56.5 1191.52,-56.5"/>
<text text-anchor="middle" x="1222.02" y="-63.5" font-family="Helvetica,sans-Serif" font-size="10.00">texture.h</text>
</a>
</g>
</g>
<!-- Node17&#45;&gt;Node23 -->
<g id="edge49" class="edge">
<title>Node17&#45;&gt;Node23</title>
<path fill="none" stroke="midnightblue" d="M997.78,-179.45C1028.7,-171.31 1065.42,-159.38 1096.02,-143 1115.23,-132.71 1115.77,-123.92 1134.02,-112 1152.93,-99.65 1175.65,-88.1 1193.28,-79.8"/>
<polygon fill="midnightblue" stroke="midnightblue" points="1194.88,-82.91 1202.48,-75.54 1191.94,-76.56 1194.88,-82.91"/>
</g>
<!-- Node21&#45;&gt;Node4 -->
<g id="edge46" class="edge">
<title>Node21&#45;&gt;Node4</title>
<path fill="none" stroke="midnightblue" d="M1008.03,-117.85C981.41,-108.41 938.19,-92.43 902.02,-76 884.64,-68.11 882.35,-61.31 864.02,-56 764.37,-27.16 446.75,-15.37 335.2,-12.05"/>
<polygon fill="midnightblue" stroke="midnightblue" points="335.16,-8.55 325.06,-11.76 334.96,-15.55 335.16,-8.55"/>
</g>
<!-- Node21&#45;&gt;Node7 -->
<g id="edge42" class="edge">
<title>Node21&#45;&gt;Node7</title>
<path fill="none" stroke="midnightblue" d="M1033.02,-117.82C1033.02,-99.26 1033.02,-55.34 1033.02,-29.97"/>
<polygon fill="midnightblue" stroke="midnightblue" points="1036.52,-29.78 1033.02,-19.78 1029.52,-29.78 1036.52,-29.78"/>
</g>
<!-- Node21&#45;&gt;Node8 -->
<g id="edge40" class="edge">
<title>Node21&#45;&gt;Node8</title>
<path fill="none" stroke="midnightblue" d="M978.96,-122.81C823.23,-112.14 380.49,-81.73 315.02,-76 302.86,-74.94 289.76,-73.64 277.54,-72.37"/>
<polygon fill="midnightblue" stroke="midnightblue" points="277.83,-68.88 267.52,-71.31 277.1,-75.84 277.83,-68.88"/>
</g>
<!-- Node21&#45;&gt;Node12 -->
<g id="edge41" class="edge">
<title>Node21&#45;&gt;Node12</title>
<path fill="none" stroke="midnightblue" d="M986.74,-117.98C926.26,-106.83 820.8,-87.41 759.01,-76.03"/>
<polygon fill="midnightblue" stroke="midnightblue" points="759.58,-72.57 749.11,-74.2 758.31,-79.46 759.58,-72.57"/>
</g>
<!-- Node21&#45;&gt;Node18 -->
<g id="edge38" class="edge">
<title>Node21&#45;&gt;Node18</title>
<path fill="none" stroke="midnightblue" d="M1003.93,-117.98C967.22,-107.22 904.14,-88.73 864.88,-77.22"/>
<polygon fill="midnightblue" stroke="midnightblue" points="865.79,-73.84 855.21,-74.38 863.82,-80.56 865.79,-73.84"/>
</g>
<!-- Node22 -->
<g id="node22" class="node">
<title>Node22</title>
<g id="a_node22"><a xlink:title=" ">
<polygon fill="none" stroke="#bfbfbf" points="1061.02,-56.5 1061.02,-75.5 1111.02,-75.5 1111.02,-56.5 1061.02,-56.5"/>
<text text-anchor="middle" x="1086.02" y="-63.5" font-family="Helvetica,sans-Serif" font-size="10.00">stdio.h</text>
</a>
</g>
</g>
<!-- Node21&#45;&gt;Node22 -->
<g id="edge39" class="edge">
<title>Node21&#45;&gt;Node22</title>
<path fill="none" stroke="midnightblue" d="M1040.61,-117.98C1048.72,-108.87 1061.75,-94.24 1071.78,-82.98"/>
<polygon fill="midnightblue" stroke="midnightblue" points="1074.4,-85.3 1078.44,-75.51 1069.17,-80.65 1074.4,-85.3"/>
</g>
<!-- Node21&#45;&gt;Node23 -->
<g id="edge43" class="edge">
<title>Node21&#45;&gt;Node23</title>
<path fill="none" stroke="midnightblue" d="M1060.09,-117.98C1092.94,-107.64 1148.44,-90.16 1185.16,-78.6"/>
<polygon fill="midnightblue" stroke="midnightblue" points="1186.5,-81.85 1194.99,-75.51 1184.4,-75.17 1186.5,-81.85"/>
</g>
<!-- Node24 -->
<g id="node24" class="node">
<title>Node24</title>
<g id="a_node24"><a xlink:title=" ">
<polygon fill="none" stroke="#bfbfbf" points="1129.02,-56.5 1129.02,-75.5 1173.02,-75.5 1173.02,-56.5 1129.02,-56.5"/>
<text text-anchor="middle" x="1151.02" y="-63.5" font-family="Helvetica,sans-Serif" font-size="10.00">string</text>
</a>
</g>
</g>
<!-- Node21&#45;&gt;Node24 -->
<g id="edge47" class="edge">
<title>Node21&#45;&gt;Node24</title>
<path fill="none" stroke="midnightblue" d="M1049.92,-117.98C1069.55,-108.08 1102.15,-91.64 1125.01,-80.12"/>
<polygon fill="midnightblue" stroke="midnightblue" points="1126.79,-83.14 1134.14,-75.51 1123.64,-76.89 1126.79,-83.14"/>
</g>
<!-- Node25 -->
<g id="node25" class="node">
<title>Node25</title>
<g id="a_node25"><a xlink:title=" ">
<polygon fill="none" stroke="#bfbfbf" points="911.52,-56.5 911.52,-75.5 1004.52,-75.5 1004.52,-56.5 911.52,-56.5"/>
<text text-anchor="middle" x="958.02" y="-63.5" font-family="Helvetica,sans-Serif" font-size="10.00">unordered_map</text>
</a>
</g>
</g>
<!-- Node21&#45;&gt;Node25 -->
<g id="edge48" class="edge">
<title>Node21&#45;&gt;Node25</title>
<path fill="none" stroke="midnightblue" d="M1022.27,-117.98C1010.46,-108.61 991.27,-93.38 976.93,-82.01"/>
<polygon fill="midnightblue" stroke="midnightblue" points="978.75,-78.98 968.74,-75.51 974.4,-84.47 978.75,-78.98"/>
</g>
<!-- Node23&#45;&gt;Node7 -->
<g id="edge44" class="edge">
<title>Node23&#45;&gt;Node7</title>
<path fill="none" stroke="midnightblue" d="M1192.07,-56.44C1159.86,-47.24 1108.48,-32.56 1072.87,-22.39"/>
<polygon fill="midnightblue" stroke="midnightblue" points="1073.4,-18.9 1062.82,-19.52 1071.48,-25.63 1073.4,-18.9"/>
</g>
<!-- Node23&#45;&gt;Node15 -->
<g id="edge45" class="edge">
<title>Node23&#45;&gt;Node15</title>
<path fill="none" stroke="midnightblue" d="M1222.02,-56.08C1222.02,-49.01 1222.02,-38.86 1222.02,-29.99"/>
<polygon fill="midnightblue" stroke="midnightblue" points="1225.52,-29.75 1222.02,-19.75 1218.52,-29.75 1225.52,-29.75"/>
</g>
</g>
</svg>
        <g id="navigator" transform="translate(0 0)" fill="#404254">
                <rect fill="#f2f5e9" fill-opacity="0.5" stroke="#606060" stroke-width=".5" x="0" y="0" width="60" height="60"/>
                <use id="zoomplus" xlink:href="#zoomPlus" x="17" y="9" onmousedown="handleZoom(evt,'in')"/>
                <use id="zoomminus" xlink:href="#zoomMin" x="42" y="9" onmousedown="handleZoom(evt,'out')"/>
                <use id="reset" xlink:href="#resetDef" x="30" y="36" onmousedown="handleReset()"/>
                <g id="arrowUp" xlink:href="#dirArrow" transform="translate(30 24)" onmousedown="handlePan(0,-1)">
                  <use xlink:href="#rim" fill="#404040">
                        <set attributeName="fill" to="#808080" begin="arrowUp.mouseover" end="arrowUp.mouseout"/>
                  </use>
                  <path fill="none" stroke="white" stroke-width="1.5" d="M0,-3.0v7 M-2.5,-0.5L0,-3.0L2.5,-0.5"/>
                </g>
                <g id="arrowRight" xlink:href="#dirArrow" transform="rotate(90) translate(36 -43)" onmousedown="handlePan(1,0)">
                  <use xlink:href="#rim" fill="#404040">
                        <set attributeName="fill" to="#808080" begin="arrowRight.mouseover" end="arrowRight.mouseout"/>
                  </use>
                  <path fill="none" stroke="white" stroke-width="1.5" d="M0,-3.0v7 M-2.5,-0.5L0,-3.0L2.5,-0.5"/>
                </g>
                <g id="arrowDown" xlink:href="#dirArrow" transform="rotate(180) translate(-30 -48)" onmousedown="handlePan(0,1)">
                  <use xlink:href="#rim" fill="#404040">
                        <set attributeName="fill" to="#808080" begin="arrowDown.mouseover" end="arrowDown.mouseout"/>
                  </use>
                  <path fill="none" stroke="white" stroke-width="1.5" d="M0,-3.0v7 M-2.5,-0.5L0,-3.0L2.5,-0.5"/>
                </g>
                <g id="arrowLeft" xlink:href="#dirArrow" transform="rotate(270) translate(-36 17)" onmousedown="handlePan(-1,0)">
                  <use xlink:href="#rim" fill="#404040">
                        <set attributeName="fill" to="#808080" begin="arrowLeft.mouseover" end="arrowLeft.mouseout"/>
                  </use>
                  <path fill="none" stroke="white" stroke-width="1.5" d="M0,-3.0v7 M-2.5,-0.5L0,-3.0L2.5,-0.5"/>
                </g>
        </g>
        <svg viewBox="0 0 15 15" width="100%" height="30px" preserveAspectRatio="xMaxYMin meet">
         <g id="arrow_out" transform="scale(0.3 0.3)">
          <a xlink:href="Animate__Actor_8cpp__incl_org.svg" target="_base">
           <rect id="button" ry="5" rx="5" y="6" x="6" height="38" width="38"
                fill="#f2f5e9" fill-opacity="0.5" stroke="#606060" stroke-width="1.0"/>
           <path id="arrow"
             d="M 11.500037,31.436501 C 11.940474,20.09759 22.043105,11.32322 32.158766,21.979434 L 37.068811,17.246167 C 37.068811,17.246167 37.088388,32 37.088388,32 L 22.160133,31.978069 C 22.160133,31.978069 26.997745,27.140456 26.997745,27.140456 C 18.528582,18.264221 13.291696,25.230495 11.500037,31.436501 z"
             style="fill:#404040;"/>
          </a>
         </g>
        </svg>
</svg>
