<?xml version="1.0" encoding="UTF-8" standalone="no"?>
<!DOCTYPE svg PUBLIC "-//W3C//DTD SVG 1.1//EN"
 "http://www.w3.org/Graphics/SVG/1.1/DTD/svg11.dtd">
<!-- Generated by graphviz version 2.43.0 (0)
 -->
<!-- Title: /home/fnky/C0de/component_engine/include/Graphs/BFS_graph.h Pages: 1 -->
<svg width="718pt" height="206pt"
 viewBox="0.00 0.00 718.00 206.00" xmlns="http://www.w3.org/2000/svg" xmlns:xlink="http://www.w3.org/1999/xlink">
<g id="graph0" class="graph" transform="scale(1 1) rotate(0) translate(4 202)">
<title>/home/fnky/C0de/component_engine/include/Graphs/BFS_graph.h</title>
<!-- Node1 -->
<g id="node1" class="node">
<title>Node1</title>
<g id="a_node1"><a xlink:title=" ">
<polygon fill="#bfbfbf" stroke="black" points="269,-156.5 269,-197.5 426,-197.5 426,-156.5 269,-156.5"/>
<text text-anchor="start" x="277" y="-185.5" font-family="Helvetica,sans-Serif" font-size="10.00">/home/fnky/C0de/component</text>
<text text-anchor="start" x="277" y="-174.5" font-family="Helvetica,sans-Serif" font-size="10.00">_engine/include/Graphs</text>
<text text-anchor="middle" x="347.5" y="-163.5" font-family="Helvetica,sans-Serif" font-size="10.00">/BFS_graph.h</text>
</a>
</g>
</g>
<!-- Node2 -->
<g id="node2" class="node">
<title>Node2</title>
<g id="a_node2"><a xlink:href="AIComponent_8h.html" target="_top" xlink:title=" ">
<polygon fill="none" stroke="black" points="268.5,-78.5 268.5,-119.5 426.5,-119.5 426.5,-78.5 268.5,-78.5"/>
<text text-anchor="start" x="276.5" y="-107.5" font-family="Helvetica,sans-Serif" font-size="10.00">/home/fnky/C0de/component</text>
<text text-anchor="start" x="276.5" y="-96.5" font-family="Helvetica,sans-Serif" font-size="10.00">_engine/include/Components</text>
<text text-anchor="middle" x="347.5" y="-85.5" font-family="Helvetica,sans-Serif" font-size="10.00">/AIComponent.h</text>
</a>
</g>
</g>
<!-- Node1&#45;&gt;Node2 -->
<g id="edge1" class="edge">
<title>Node1&#45;&gt;Node2</title>
<path fill="none" stroke="midnightblue" d="M347.5,-146.3C347.5,-137.3 347.5,-127.65 347.5,-119.51"/>
<polygon fill="midnightblue" stroke="midnightblue" points="344,-146.43 347.5,-156.43 351,-146.43 344,-146.43"/>
</g>
<!-- Node3 -->
<g id="node3" class="node">
<title>Node3</title>
<g id="a_node3"><a xlink:href="NPC__Actor_8cpp.html" target="_top" xlink:title=" ">
<polygon fill="none" stroke="black" points="0,-0.5 0,-41.5 157,-41.5 157,-0.5 0,-0.5"/>
<text text-anchor="start" x="8" y="-29.5" font-family="Helvetica,sans-Serif" font-size="10.00">/home/fnky/C0de/component</text>
<text text-anchor="start" x="8" y="-18.5" font-family="Helvetica,sans-Serif" font-size="10.00">_engine/src/Actors/NPC</text>
<text text-anchor="middle" x="78.5" y="-7.5" font-family="Helvetica,sans-Serif" font-size="10.00">_Actor.cpp</text>
</a>
</g>
</g>
<!-- Node2&#45;&gt;Node3 -->
<g id="edge2" class="edge">
<title>Node2&#45;&gt;Node3</title>
<path fill="none" stroke="midnightblue" d="M268.15,-75.58C229.86,-64.76 184.37,-51.91 147.54,-41.51"/>
<polygon fill="midnightblue" stroke="midnightblue" points="267.65,-79.08 278.23,-78.43 269.55,-72.34 267.65,-79.08"/>
</g>
<!-- Node4 -->
<g id="node4" class="node">
<title>Node4</title>
<g id="a_node4"><a xlink:href="AIComponent_8cpp.html" target="_top" xlink:title=" ">
<polygon fill="none" stroke="black" points="175,-0.5 175,-41.5 332,-41.5 332,-0.5 175,-0.5"/>
<text text-anchor="start" x="183" y="-29.5" font-family="Helvetica,sans-Serif" font-size="10.00">/home/fnky/C0de/component</text>
<text text-anchor="start" x="183" y="-18.5" font-family="Helvetica,sans-Serif" font-size="10.00">_engine/src/Components</text>
<text text-anchor="middle" x="253.5" y="-7.5" font-family="Helvetica,sans-Serif" font-size="10.00">/AIComponent.cpp</text>
</a>
</g>
</g>
<!-- Node2&#45;&gt;Node4 -->
<g id="edge3" class="edge">
<title>Node2&#45;&gt;Node4</title>
<path fill="none" stroke="midnightblue" d="M315.42,-72.06C303.04,-62.06 289.13,-50.8 277.63,-41.51"/>
<polygon fill="midnightblue" stroke="midnightblue" points="313.32,-74.86 323.29,-78.43 317.72,-69.42 313.32,-74.86"/>
</g>
<!-- Node5 -->
<g id="node5" class="node">
<title>Node5</title>
<g id="a_node5"><a xlink:href="LoadingGameObjects_8cpp.html" target="_top" xlink:title=" ">
<polygon fill="none" stroke="black" points="350.5,-0.5 350.5,-41.5 534.5,-41.5 534.5,-0.5 350.5,-0.5"/>
<text text-anchor="start" x="358.5" y="-29.5" font-family="Helvetica,sans-Serif" font-size="10.00">/home/fnky/C0de/component</text>
<text text-anchor="start" x="358.5" y="-18.5" font-family="Helvetica,sans-Serif" font-size="10.00">_engine/src/Loaders/LoadingGame</text>
<text text-anchor="middle" x="442.5" y="-7.5" font-family="Helvetica,sans-Serif" font-size="10.00">Objects.cpp</text>
</a>
</g>
</g>
<!-- Node2&#45;&gt;Node5 -->
<g id="edge4" class="edge">
<title>Node2&#45;&gt;Node5</title>
<path fill="none" stroke="midnightblue" d="M379.92,-72.06C392.43,-62.06 406.49,-50.8 418.12,-41.51"/>
<polygon fill="midnightblue" stroke="midnightblue" points="377.59,-69.45 371.96,-78.43 381.96,-74.91 377.59,-69.45"/>
</g>
<!-- Node6 -->
<g id="node6" class="node">
<title>Node6</title>
<g id="a_node6"><a xlink:href="game__play__state_8cpp.html" target="_top" xlink:title=" ">
<polygon fill="none" stroke="black" points="553,-0.5 553,-41.5 710,-41.5 710,-0.5 553,-0.5"/>
<text text-anchor="start" x="561" y="-29.5" font-family="Helvetica,sans-Serif" font-size="10.00">/home/fnky/C0de/component</text>
<text text-anchor="start" x="561" y="-18.5" font-family="Helvetica,sans-Serif" font-size="10.00">_engine/src/States/game</text>
<text text-anchor="middle" x="631.5" y="-7.5" font-family="Helvetica,sans-Serif" font-size="10.00">_play_state.cpp</text>
</a>
</g>
</g>
<!-- Node2&#45;&gt;Node6 -->
<g id="edge5" class="edge">
<title>Node2&#45;&gt;Node6</title>
<path fill="none" stroke="midnightblue" d="M430.51,-75.79C471.08,-64.93 519.48,-51.98 558.61,-41.51"/>
<polygon fill="midnightblue" stroke="midnightblue" points="429.39,-72.46 420.64,-78.43 431.2,-79.22 429.39,-72.46"/>
</g>
</g>
</svg>
