<?xml version="1.0" encoding="UTF-8" standalone="no"?>
<!DOCTYPE svg PUBLIC "-//W3C//DTD SVG 1.1//EN"
 "http://www.w3.org/Graphics/SVG/1.1/DTD/svg11.dtd">
<!-- Generated by graphviz version 2.43.0 (0)
 -->
<!-- Title: /home/fnky/C0de/component_engine/include/BStateMachine/BStateMachine.h Pages: 1 -->
<svg width="326pt" height="218pt"
 viewBox="0.00 0.00 326.00 218.00" xmlns="http://www.w3.org/2000/svg" xmlns:xlink="http://www.w3.org/1999/xlink">
<g id="graph0" class="graph" transform="scale(1 1) rotate(0) translate(4 214)">
<title>/home/fnky/C0de/component_engine/include/BStateMachine/BStateMachine.h</title>
<!-- Node1 -->
<g id="node1" class="node">
<title>Node1</title>
<g id="a_node1"><a xlink:title=" ">
<polygon fill="#bfbfbf" stroke="black" points="60,-168.5 60,-209.5 230,-209.5 230,-168.5 60,-168.5"/>
<text text-anchor="start" x="68" y="-197.5" font-family="Helvetica,sans-Serif" font-size="10.00">/home/fnky/C0de/component</text>
<text text-anchor="start" x="68" y="-186.5" font-family="Helvetica,sans-Serif" font-size="10.00">_engine/include/BStateMachine</text>
<text text-anchor="middle" x="145" y="-175.5" font-family="Helvetica,sans-Serif" font-size="10.00">/BStateMachine.h</text>
</a>
</g>
</g>
<!-- Node2 -->
<g id="node2" class="node">
<title>Node2</title>
<g id="a_node2"><a xlink:href="BState_8h.html" target="_top" xlink:title=" ">
<polygon fill="none" stroke="black" points="0,-112.5 0,-131.5 58,-131.5 58,-112.5 0,-112.5"/>
<text text-anchor="middle" x="29" y="-119.5" font-family="Helvetica,sans-Serif" font-size="10.00">BState.h</text>
</a>
</g>
</g>
<!-- Node1&#45;&gt;Node2 -->
<g id="edge1" class="edge">
<title>Node1&#45;&gt;Node2</title>
<path fill="none" stroke="midnightblue" d="M110.2,-168.5C91.9,-158.24 69.91,-145.93 53.44,-136.69"/>
<polygon fill="midnightblue" stroke="midnightblue" points="54.88,-133.49 44.44,-131.65 51.45,-139.59 54.88,-133.49"/>
</g>
<!-- Node4 -->
<g id="node4" class="node">
<title>Node4</title>
<g id="a_node4"><a xlink:href="Transition_8h.html" target="_top" xlink:title=" ">
<polygon fill="none" stroke="black" points="76.5,-112.5 76.5,-131.5 149.5,-131.5 149.5,-112.5 76.5,-112.5"/>
<text text-anchor="middle" x="113" y="-119.5" font-family="Helvetica,sans-Serif" font-size="10.00">Transition.h</text>
</a>
</g>
</g>
<!-- Node1&#45;&gt;Node4 -->
<g id="edge3" class="edge">
<title>Node1&#45;&gt;Node4</title>
<path fill="none" stroke="midnightblue" d="M135.4,-168.5C131.06,-159.68 125.97,-149.34 121.74,-140.74"/>
<polygon fill="midnightblue" stroke="midnightblue" points="124.82,-139.08 117.26,-131.65 118.54,-142.17 124.82,-139.08"/>
</g>
<!-- Node5 -->
<g id="node5" class="node">
<title>Node5</title>
<g id="a_node5"><a xlink:href="Condition_8h.html" target="_top" xlink:title=" ">
<polygon fill="none" stroke="black" points="184,-56.5 184,-75.5 256,-75.5 256,-56.5 184,-56.5"/>
<text text-anchor="middle" x="220" y="-63.5" font-family="Helvetica,sans-Serif" font-size="10.00">Condition.h</text>
</a>
</g>
</g>
<!-- Node1&#45;&gt;Node5 -->
<g id="edge4" class="edge">
<title>Node1&#45;&gt;Node5</title>
<path fill="none" stroke="midnightblue" d="M157.22,-168.29C171.68,-144.96 195.53,-106.47 209.3,-84.26"/>
<polygon fill="midnightblue" stroke="midnightblue" points="212.39,-85.92 214.69,-75.57 206.44,-82.23 212.39,-85.92"/>
</g>
<!-- Node7 -->
<g id="node7" class="node">
<title>Node7</title>
<g id="a_node7"><a xlink:href="ConditionInRange_8h.html" target="_top" xlink:title=" ">
<polygon fill="none" stroke="black" points="206,-112.5 206,-131.5 318,-131.5 318,-112.5 206,-112.5"/>
<text text-anchor="middle" x="262" y="-119.5" font-family="Helvetica,sans-Serif" font-size="10.00">ConditionInRange.h</text>
</a>
</g>
</g>
<!-- Node1&#45;&gt;Node7 -->
<g id="edge6" class="edge">
<title>Node1&#45;&gt;Node7</title>
<path fill="none" stroke="midnightblue" d="M180.1,-168.5C198.56,-158.24 220.73,-145.93 237.35,-136.69"/>
<polygon fill="midnightblue" stroke="midnightblue" points="239.38,-139.57 246.43,-131.65 235.98,-133.45 239.38,-139.57"/>
</g>
<!-- Node3 -->
<g id="node3" class="node">
<title>Node3</title>
<g id="a_node3"><a xlink:title=" ">
<polygon fill="none" stroke="#bfbfbf" points="13,-56.5 13,-75.5 45,-75.5 45,-56.5 13,-56.5"/>
<text text-anchor="middle" x="29" y="-63.5" font-family="Helvetica,sans-Serif" font-size="10.00">list</text>
</a>
</g>
</g>
<!-- Node2&#45;&gt;Node3 -->
<g id="edge2" class="edge">
<title>Node2&#45;&gt;Node3</title>
<path fill="none" stroke="midnightblue" d="M29,-112.08C29,-105.01 29,-94.86 29,-85.99"/>
<polygon fill="midnightblue" stroke="midnightblue" points="32.5,-85.75 29,-75.75 25.5,-85.75 32.5,-85.75"/>
</g>
<!-- Node6 -->
<g id="node6" class="node">
<title>Node6</title>
<g id="a_node6"><a xlink:title=" ">
<polygon fill="none" stroke="#bfbfbf" points="190,-0.5 190,-19.5 250,-19.5 250,-0.5 190,-0.5"/>
<text text-anchor="middle" x="220" y="-7.5" font-family="Helvetica,sans-Serif" font-size="10.00">iostream</text>
</a>
</g>
</g>
<!-- Node5&#45;&gt;Node6 -->
<g id="edge5" class="edge">
<title>Node5&#45;&gt;Node6</title>
<path fill="none" stroke="midnightblue" d="M220,-56.08C220,-49.01 220,-38.86 220,-29.99"/>
<polygon fill="midnightblue" stroke="midnightblue" points="223.5,-29.75 220,-19.75 216.5,-29.75 223.5,-29.75"/>
</g>
<!-- Node7&#45;&gt;Node5 -->
<g id="edge7" class="edge">
<title>Node7&#45;&gt;Node5</title>
<path fill="none" stroke="midnightblue" d="M255.06,-112.08C249.07,-104.38 240.25,-93.03 232.95,-83.65"/>
<polygon fill="midnightblue" stroke="midnightblue" points="235.71,-81.5 226.81,-75.75 230.18,-85.79 235.71,-81.5"/>
</g>
</g>
</svg>
