<?xml version="1.0" encoding="UTF-8" standalone="no"?>
<!DOCTYPE svg PUBLIC "-//W3C//DTD SVG 1.1//EN"
 "http://www.w3.org/Graphics/SVG/1.1/DTD/svg11.dtd">
<!-- Generated by graphviz version 2.43.0 (0)
 -->
<!-- Title: /home/fnky/C0de/component_engine/include/BStateMachine/BStateMachine.h Pages: 1 -->
<!--zoomable 284 -->
<svg id="main" version="1.1" xmlns="http://www.w3.org/2000/svg" xmlns:xlink="http://www.w3.org/1999/xlink" xml:space="preserve" onload="init(evt)">
<style type="text/css"><![CDATA[
.edge:hover path { stroke: red; }
.edge:hover polygon { stroke: red; fill: red; }
]]></style>
<script type="text/javascript"><![CDATA[
var edges = document.getElementsByTagName('g');
if (edges && edges.length) {
  for (var i=0;i<edges.length;i++) {
    if (edges[i].id.substr(0,4)=='edge') {
      edges[i].setAttribute('class','edge');
    }
  }
}
]]></script>
        <defs>
                <circle id="rim" cx="0" cy="0" r="7"/>
                <circle id="rim2" cx="0" cy="0" r="3.5"/>
                <g id="zoomPlus">
                        <use xlink:href="#rim" fill="#404040">
                                <set attributeName="fill" to="#808080" begin="zoomplus.mouseover" end="zoomplus.mouseout"/>
                        </use>
                        <path d="M-4,0h8M0,-4v8" fill="none" stroke="white" stroke-width="1.5" pointer-events="none"/>
                </g>
                <g id="zoomMin">
                        <use xlink:href="#rim" fill="#404040">
                                <set attributeName="fill" to="#808080" begin="zoomminus.mouseover" end="zoomminus.mouseout"/>
                        </use>
                        <path d="M-4,0h8" fill="none" stroke="white" stroke-width="1.5" pointer-events="none"/>
                </g>
                <g id="dirArrow">
                        <path fill="none" stroke="white" stroke-width="1.5" d="M0,-3.0v7 M-2.5,-0.5L0,-3.0L2.5,-0.5"/>
                </g>
               <g id="resetDef">
                       <use xlink:href="#rim2" fill="#404040">
                               <set attributeName="fill" to="#808080" begin="reset.mouseover" end="reset.mouseout"/>
                       </use>
               </g>
        </defs>

<script type="text/javascript">
var viewWidth = 1194;
var viewHeight = 284;
var sectionId = 'dynsection-1';
</script>
<script xlink:href="svgpan.js"/>
<svg id="graph" class="graph">
<g id="viewport">
<title>/home/fnky/C0de/component_engine/include/BStateMachine/BStateMachine.h</title>
<!-- Node1 -->
<g id="node1" class="node">
<title>Node1</title>
<g id="a_node1"><a xlink:title=" ">
<polygon fill="#bfbfbf" stroke="black" points="609.5,-234.5 609.5,-275.5 779.5,-275.5 779.5,-234.5 609.5,-234.5"/>
<text text-anchor="start" x="617.5" y="-263.5" font-family="Helvetica,sans-Serif" font-size="10.00">/home/fnky/C0de/component</text>
<text text-anchor="start" x="617.5" y="-252.5" font-family="Helvetica,sans-Serif" font-size="10.00">_engine/include/BStateMachine</text>
<text text-anchor="middle" x="694.5" y="-241.5" font-family="Helvetica,sans-Serif" font-size="10.00">/BStateMachine.h</text>
</a>
</g>
</g>
<!-- Node2 -->
<g id="node2" class="node">
<title>Node2</title>
<g id="a_node2"><a xlink:href="NPC__Actor_8h.html" target="_top" xlink:title=" ">
<polygon fill="none" stroke="black" points="563,-156.5 563,-197.5 720,-197.5 720,-156.5 563,-156.5"/>
<text text-anchor="start" x="571" y="-185.5" font-family="Helvetica,sans-Serif" font-size="10.00">/home/fnky/C0de/component</text>
<text text-anchor="start" x="571" y="-174.5" font-family="Helvetica,sans-Serif" font-size="10.00">_engine/include/Actors</text>
<text text-anchor="middle" x="641.5" y="-163.5" font-family="Helvetica,sans-Serif" font-size="10.00">/NPC_Actor.h</text>
</a>
</g>
</g>
<!-- Node1&#45;&gt;Node2 -->
<g id="edge1" class="edge">
<title>Node1&#45;&gt;Node2</title>
<path fill="none" stroke="midnightblue" d="M675.01,-226.05C668.39,-216.57 661.16,-206.18 655.1,-197.51"/>
<polygon fill="midnightblue" stroke="midnightblue" points="672.26,-228.23 680.85,-234.43 678,-224.22 672.26,-228.23"/>
</g>
<!-- Node8 -->
<g id="node8" class="node">
<title>Node8</title>
<g id="a_node8"><a xlink:href="BStateMachine_8cpp.html" target="_top" xlink:title=" ">
<polygon fill="none" stroke="black" points="1029,-78.5 1029,-119.5 1186,-119.5 1186,-78.5 1029,-78.5"/>
<text text-anchor="start" x="1037" y="-107.5" font-family="Helvetica,sans-Serif" font-size="10.00">/home/fnky/C0de/component</text>
<text text-anchor="start" x="1037" y="-96.5" font-family="Helvetica,sans-Serif" font-size="10.00">_engine/src/BStateMachine</text>
<text text-anchor="middle" x="1107.5" y="-85.5" font-family="Helvetica,sans-Serif" font-size="10.00">/BStateMachine.cpp</text>
</a>
</g>
</g>
<!-- Node1&#45;&gt;Node8 -->
<g id="edge13" class="edge">
<title>Node1&#45;&gt;Node8</title>
<path fill="none" stroke="midnightblue" d="M756.4,-230.92C837.61,-200.64 978.71,-148.02 1054.97,-119.59"/>
<polygon fill="midnightblue" stroke="midnightblue" points="754.95,-227.72 746.81,-234.5 757.4,-234.28 754.95,-227.72"/>
</g>
<!-- Node3 -->
<g id="node3" class="node">
<title>Node3</title>
<g id="a_node3"><a xlink:href="Projectile__Acotr_8h.html" target="_top" xlink:title=" ">
<polygon fill="none" stroke="black" points="262,-78.5 262,-119.5 419,-119.5 419,-78.5 262,-78.5"/>
<text text-anchor="start" x="270" y="-107.5" font-family="Helvetica,sans-Serif" font-size="10.00">/home/fnky/C0de/component</text>
<text text-anchor="start" x="270" y="-96.5" font-family="Helvetica,sans-Serif" font-size="10.00">_engine/include/Actors</text>
<text text-anchor="middle" x="340.5" y="-85.5" font-family="Helvetica,sans-Serif" font-size="10.00">/Projectile_Acotr.h</text>
</a>
</g>
</g>
<!-- Node2&#45;&gt;Node3 -->
<g id="edge2" class="edge">
<title>Node2&#45;&gt;Node3</title>
<path fill="none" stroke="midnightblue" d="M554.07,-153.92C510.95,-143.04 459.4,-130.02 417.75,-119.51"/>
<polygon fill="midnightblue" stroke="midnightblue" points="553.43,-157.37 563.99,-156.43 555.15,-150.59 553.43,-157.37"/>
</g>
<!-- Node5 -->
<g id="node5" class="node">
<title>Node5</title>
<g id="a_node5"><a xlink:href="NPC__Actor_8cpp.html" target="_top" xlink:title=" ">
<polygon fill="none" stroke="black" points="0,-0.5 0,-41.5 157,-41.5 157,-0.5 0,-0.5"/>
<text text-anchor="start" x="8" y="-29.5" font-family="Helvetica,sans-Serif" font-size="10.00">/home/fnky/C0de/component</text>
<text text-anchor="start" x="8" y="-18.5" font-family="Helvetica,sans-Serif" font-size="10.00">_engine/src/Actors/NPC</text>
<text text-anchor="middle" x="78.5" y="-7.5" font-family="Helvetica,sans-Serif" font-size="10.00">_Actor.cpp</text>
</a>
</g>
</g>
<!-- Node2&#45;&gt;Node5 -->
<g id="edge7" class="edge">
<title>Node2&#45;&gt;Node5</title>
<path fill="none" stroke="midnightblue" d="M552.69,-172.52C472.41,-167.22 351.92,-153.83 252.5,-120 196.87,-101.07 138.62,-64.25 105.62,-41.52"/>
<polygon fill="midnightblue" stroke="midnightblue" points="552.57,-176.02 562.77,-173.16 553.01,-169.04 552.57,-176.02"/>
</g>
<!-- Node7 -->
<g id="node7" class="node">
<title>Node7</title>
<g id="a_node7"><a xlink:href="game__play__state_8cpp.html" target="_top" xlink:title=" ">
<polygon fill="none" stroke="black" points="525,-0.5 525,-41.5 682,-41.5 682,-0.5 525,-0.5"/>
<text text-anchor="start" x="533" y="-29.5" font-family="Helvetica,sans-Serif" font-size="10.00">/home/fnky/C0de/component</text>
<text text-anchor="start" x="533" y="-18.5" font-family="Helvetica,sans-Serif" font-size="10.00">_engine/src/States/game</text>
<text text-anchor="middle" x="603.5" y="-7.5" font-family="Helvetica,sans-Serif" font-size="10.00">_play_state.cpp</text>
</a>
</g>
</g>
<!-- Node2&#45;&gt;Node7 -->
<g id="edge12" class="edge">
<title>Node2&#45;&gt;Node7</title>
<path fill="none" stroke="midnightblue" d="M552.64,-169.08C520.17,-161.74 486.53,-147.44 466.5,-120 455.49,-104.92 456.09,-93.5 466.5,-78 475.17,-65.09 506.25,-51.88 536.62,-41.53"/>
<polygon fill="midnightblue" stroke="midnightblue" points="552.16,-172.56 562.66,-171.15 553.57,-165.7 552.16,-172.56"/>
</g>
<!-- Node2&#45;&gt;Node8 -->
<g id="edge8" class="edge">
<title>Node2&#45;&gt;Node8</title>
<path fill="none" stroke="midnightblue" d="M730.46,-164.77C807.26,-154.62 921.06,-138.45 1019.5,-120 1022.58,-119.42 1025.72,-118.81 1028.88,-118.18"/>
<polygon fill="midnightblue" stroke="midnightblue" points="729.8,-161.33 720.34,-166.11 730.71,-168.27 729.8,-161.33"/>
</g>
<!-- Node9 -->
<g id="node9" class="node">
<title>Node9</title>
<g id="a_node9"><a xlink:href="ConditionInRange_8cpp.html" target="_top" xlink:title=" ">
<polygon fill="none" stroke="black" points="476,-78.5 476,-119.5 633,-119.5 633,-78.5 476,-78.5"/>
<text text-anchor="start" x="484" y="-107.5" font-family="Helvetica,sans-Serif" font-size="10.00">/home/fnky/C0de/component</text>
<text text-anchor="start" x="484" y="-96.5" font-family="Helvetica,sans-Serif" font-size="10.00">_engine/src/BStateMachine</text>
<text text-anchor="middle" x="554.5" y="-85.5" font-family="Helvetica,sans-Serif" font-size="10.00">/ConditionInRange.cpp</text>
</a>
</g>
</g>
<!-- Node2&#45;&gt;Node9 -->
<g id="edge9" class="edge">
<title>Node2&#45;&gt;Node9</title>
<path fill="none" stroke="midnightblue" d="M611.48,-149.78C600.11,-139.84 587.37,-128.72 576.83,-119.51"/>
<polygon fill="midnightblue" stroke="midnightblue" points="609.26,-152.49 619.1,-156.43 613.87,-147.21 609.26,-152.49"/>
</g>
<!-- Node10 -->
<g id="node10" class="node">
<title>Node10</title>
<g id="a_node10"><a xlink:href="ConditionOutOfRange_8cpp.html" target="_top" xlink:title=" ">
<polygon fill="none" stroke="black" points="651,-78.5 651,-119.5 808,-119.5 808,-78.5 651,-78.5"/>
<text text-anchor="start" x="659" y="-107.5" font-family="Helvetica,sans-Serif" font-size="10.00">/home/fnky/C0de/component</text>
<text text-anchor="start" x="659" y="-96.5" font-family="Helvetica,sans-Serif" font-size="10.00">_engine/src/BStateMachine</text>
<text text-anchor="middle" x="729.5" y="-85.5" font-family="Helvetica,sans-Serif" font-size="10.00">/ConditionOutOfRange.cpp</text>
</a>
</g>
</g>
<!-- Node2&#45;&gt;Node10 -->
<g id="edge10" class="edge">
<title>Node2&#45;&gt;Node10</title>
<path fill="none" stroke="midnightblue" d="M671.86,-149.78C683.37,-139.84 696.25,-128.72 706.91,-119.51"/>
<polygon fill="midnightblue" stroke="midnightblue" points="669.44,-147.24 664.16,-156.43 674.02,-152.54 669.44,-147.24"/>
</g>
<!-- Node11 -->
<g id="node11" class="node">
<title>Node11</title>
<g id="a_node11"><a xlink:href="LoadingGameObjects_8cpp.html" target="_top" xlink:title=" ">
<polygon fill="none" stroke="black" points="826.5,-78.5 826.5,-119.5 1010.5,-119.5 1010.5,-78.5 826.5,-78.5"/>
<text text-anchor="start" x="834.5" y="-107.5" font-family="Helvetica,sans-Serif" font-size="10.00">/home/fnky/C0de/component</text>
<text text-anchor="start" x="834.5" y="-96.5" font-family="Helvetica,sans-Serif" font-size="10.00">_engine/src/Loaders/LoadingGame</text>
<text text-anchor="middle" x="918.5" y="-85.5" font-family="Helvetica,sans-Serif" font-size="10.00">Objects.cpp</text>
</a>
</g>
</g>
<!-- Node2&#45;&gt;Node11 -->
<g id="edge11" class="edge">
<title>Node2&#45;&gt;Node11</title>
<path fill="none" stroke="midnightblue" d="M722.71,-153.72C762.24,-142.87 809.32,-129.96 847.41,-119.51"/>
<polygon fill="midnightblue" stroke="midnightblue" points="721.55,-150.41 712.83,-156.43 723.4,-157.16 721.55,-150.41"/>
</g>
<!-- Node4 -->
<g id="node4" class="node">
<title>Node4</title>
<g id="a_node4"><a xlink:href="Gun__Actor_8cpp.html" target="_top" xlink:title=" ">
<polygon fill="none" stroke="black" points="175,-0.5 175,-41.5 332,-41.5 332,-0.5 175,-0.5"/>
<text text-anchor="start" x="183" y="-29.5" font-family="Helvetica,sans-Serif" font-size="10.00">/home/fnky/C0de/component</text>
<text text-anchor="start" x="183" y="-18.5" font-family="Helvetica,sans-Serif" font-size="10.00">_engine/src/Actors/Gun</text>
<text text-anchor="middle" x="253.5" y="-7.5" font-family="Helvetica,sans-Serif" font-size="10.00">_Actor.cpp</text>
</a>
</g>
</g>
<!-- Node3&#45;&gt;Node4 -->
<g id="edge3" class="edge">
<title>Node3&#45;&gt;Node4</title>
<path fill="none" stroke="midnightblue" d="M310.48,-71.78C299.11,-61.84 286.37,-50.72 275.83,-41.51"/>
<polygon fill="midnightblue" stroke="midnightblue" points="308.26,-74.49 318.1,-78.43 312.87,-69.21 308.26,-74.49"/>
</g>
<!-- Node3&#45;&gt;Node5 -->
<g id="edge4" class="edge">
<title>Node3&#45;&gt;Node5</title>
<path fill="none" stroke="midnightblue" d="M263.21,-75.58C225.92,-64.76 181.62,-51.91 145.74,-41.51"/>
<polygon fill="midnightblue" stroke="midnightblue" points="262.45,-79 273.03,-78.43 264.4,-72.28 262.45,-79"/>
</g>
<!-- Node6 -->
<g id="node6" class="node">
<title>Node6</title>
<g id="a_node6"><a xlink:href="Projectile__Actor_8cpp.html" target="_top" xlink:title=" ">
<polygon fill="none" stroke="black" points="350,-0.5 350,-41.5 507,-41.5 507,-0.5 350,-0.5"/>
<text text-anchor="start" x="358" y="-29.5" font-family="Helvetica,sans-Serif" font-size="10.00">/home/fnky/C0de/component</text>
<text text-anchor="start" x="358" y="-18.5" font-family="Helvetica,sans-Serif" font-size="10.00">_engine/src/Actors/Projectile</text>
<text text-anchor="middle" x="428.5" y="-7.5" font-family="Helvetica,sans-Serif" font-size="10.00">_Actor.cpp</text>
</a>
</g>
</g>
<!-- Node3&#45;&gt;Node6 -->
<g id="edge5" class="edge">
<title>Node3&#45;&gt;Node6</title>
<path fill="none" stroke="midnightblue" d="M370.86,-71.78C382.37,-61.84 395.25,-50.72 405.91,-41.51"/>
<polygon fill="midnightblue" stroke="midnightblue" points="368.44,-69.24 363.16,-78.43 373.02,-74.54 368.44,-69.24"/>
</g>
<!-- Node3&#45;&gt;Node7 -->
<g id="edge6" class="edge">
<title>Node3&#45;&gt;Node7</title>
<path fill="none" stroke="midnightblue" d="M418.08,-75.58C455.51,-64.76 499.99,-51.91 536,-41.51"/>
<polygon fill="midnightblue" stroke="midnightblue" points="416.86,-72.29 408.23,-78.43 418.81,-79.01 416.86,-72.29"/>
</g>
</g>
</svg>
        <g id="navigator" transform="translate(0 0)" fill="#404254">
                <rect fill="#f2f5e9" fill-opacity="0.5" stroke="#606060" stroke-width=".5" x="0" y="0" width="60" height="60"/>
                <use id="zoomplus" xlink:href="#zoomPlus" x="17" y="9" onmousedown="handleZoom(evt,'in')"/>
                <use id="zoomminus" xlink:href="#zoomMin" x="42" y="9" onmousedown="handleZoom(evt,'out')"/>
                <use id="reset" xlink:href="#resetDef" x="30" y="36" onmousedown="handleReset()"/>
                <g id="arrowUp" xlink:href="#dirArrow" transform="translate(30 24)" onmousedown="handlePan(0,-1)">
                  <use xlink:href="#rim" fill="#404040">
                        <set attributeName="fill" to="#808080" begin="arrowUp.mouseover" end="arrowUp.mouseout"/>
                  </use>
                  <path fill="none" stroke="white" stroke-width="1.5" d="M0,-3.0v7 M-2.5,-0.5L0,-3.0L2.5,-0.5"/>
                </g>
                <g id="arrowRight" xlink:href="#dirArrow" transform="rotate(90) translate(36 -43)" onmousedown="handlePan(1,0)">
                  <use xlink:href="#rim" fill="#404040">
                        <set attributeName="fill" to="#808080" begin="arrowRight.mouseover" end="arrowRight.mouseout"/>
                  </use>
                  <path fill="none" stroke="white" stroke-width="1.5" d="M0,-3.0v7 M-2.5,-0.5L0,-3.0L2.5,-0.5"/>
                </g>
                <g id="arrowDown" xlink:href="#dirArrow" transform="rotate(180) translate(-30 -48)" onmousedown="handlePan(0,1)">
                  <use xlink:href="#rim" fill="#404040">
                        <set attributeName="fill" to="#808080" begin="arrowDown.mouseover" end="arrowDown.mouseout"/>
                  </use>
                  <path fill="none" stroke="white" stroke-width="1.5" d="M0,-3.0v7 M-2.5,-0.5L0,-3.0L2.5,-0.5"/>
                </g>
                <g id="arrowLeft" xlink:href="#dirArrow" transform="rotate(270) translate(-36 17)" onmousedown="handlePan(-1,0)">
                  <use xlink:href="#rim" fill="#404040">
                        <set attributeName="fill" to="#808080" begin="arrowLeft.mouseover" end="arrowLeft.mouseout"/>
                  </use>
                  <path fill="none" stroke="white" stroke-width="1.5" d="M0,-3.0v7 M-2.5,-0.5L0,-3.0L2.5,-0.5"/>
                </g>
        </g>
        <svg viewBox="0 0 15 15" width="100%" height="30px" preserveAspectRatio="xMaxYMin meet">
         <g id="arrow_out" transform="scale(0.3 0.3)">
          <a xlink:href="BStateMachine_8h__dep__incl_org.svg" target="_base">
           <rect id="button" ry="5" rx="5" y="6" x="6" height="38" width="38"
                fill="#f2f5e9" fill-opacity="0.5" stroke="#606060" stroke-width="1.0"/>
           <path id="arrow"
             d="M 11.500037,31.436501 C 11.940474,20.09759 22.043105,11.32322 32.158766,21.979434 L 37.068811,17.246167 C 37.068811,17.246167 37.088388,32 37.088388,32 L 22.160133,31.978069 C 22.160133,31.978069 26.997745,27.140456 26.997745,27.140456 C 18.528582,18.264221 13.291696,25.230495 11.500037,31.436501 z"
             style="fill:#404040;"/>
          </a>
         </g>
        </svg>
</svg>
