<?xml version="1.0" encoding="UTF-8" standalone="no"?>
<!DOCTYPE svg PUBLIC "-//W3C//DTD SVG 1.1//EN"
 "http://www.w3.org/Graphics/SVG/1.1/DTD/svg11.dtd">
<!-- Generated by graphviz version 2.43.0 (0)
 -->
<!-- Title: SplashState Pages: 1 -->
<!--zoomable 898 -->
<svg id="main" version="1.1" xmlns="http://www.w3.org/2000/svg" xmlns:xlink="http://www.w3.org/1999/xlink" xml:space="preserve" onload="init(evt)">
<style type="text/css"><![CDATA[
.edge:hover path { stroke: red; }
.edge:hover polygon { stroke: red; fill: red; }
]]></style>
<script type="text/javascript"><![CDATA[
var edges = document.getElementsByTagName('g');
if (edges && edges.length) {
  for (var i=0;i<edges.length;i++) {
    if (edges[i].id.substr(0,4)=='edge') {
      edges[i].setAttribute('class','edge');
    }
  }
}
]]></script>
        <defs>
                <circle id="rim" cx="0" cy="0" r="7"/>
                <circle id="rim2" cx="0" cy="0" r="3.5"/>
                <g id="zoomPlus">
                        <use xlink:href="#rim" fill="#404040">
                                <set attributeName="fill" to="#808080" begin="zoomplus.mouseover" end="zoomplus.mouseout"/>
                        </use>
                        <path d="M-4,0h8M0,-4v8" fill="none" stroke="white" stroke-width="1.5" pointer-events="none"/>
                </g>
                <g id="zoomMin">
                        <use xlink:href="#rim" fill="#404040">
                                <set attributeName="fill" to="#808080" begin="zoomminus.mouseover" end="zoomminus.mouseout"/>
                        </use>
                        <path d="M-4,0h8" fill="none" stroke="white" stroke-width="1.5" pointer-events="none"/>
                </g>
                <g id="dirArrow">
                        <path fill="none" stroke="white" stroke-width="1.5" d="M0,-3.0v7 M-2.5,-0.5L0,-3.0L2.5,-0.5"/>
                </g>
               <g id="resetDef">
                       <use xlink:href="#rim2" fill="#404040">
                               <set attributeName="fill" to="#808080" begin="reset.mouseover" end="reset.mouseout"/>
                       </use>
               </g>
        </defs>

<script type="text/javascript">
var viewWidth = 527;
var viewHeight = 898;
var sectionId = 'dynsection-1';
</script>
<script xlink:href="svgpan.js"/>
<svg id="graph" class="graph">
<g id="viewport">
<title>SplashState</title>
<!-- Node1 -->
<g id="node1" class="node">
<title>Node1</title>
<g id="a_node1"><a xlink:title=" ">
<polygon fill="#bfbfbf" stroke="black" points="291,-0.5 291,-244.5 392,-244.5 392,-0.5 291,-0.5"/>
<text text-anchor="middle" x="341.5" y="-232.5" font-family="Helvetica,sans-Serif" font-size="10.00">SplashState</text>
<polyline fill="none" stroke="black" points="291,-225.5 392,-225.5 "/>
<text text-anchor="start" x="299" y="-213.5" font-family="Helvetica,sans-Serif" font-size="10.00">&#45; timer</text>
<text text-anchor="start" x="299" y="-202.5" font-family="Helvetica,sans-Serif" font-size="10.00">&#45; delay</text>
<text text-anchor="start" x="299" y="-191.5" font-family="Helvetica,sans-Serif" font-size="10.00">&#45; jump_delay</text>
<text text-anchor="start" x="299" y="-180.5" font-family="Helvetica,sans-Serif" font-size="10.00">&#45; counter</text>
<text text-anchor="start" x="299" y="-169.5" font-family="Helvetica,sans-Serif" font-size="10.00">&#45; platform_delay</text>
<text text-anchor="start" x="299" y="-158.5" font-family="Helvetica,sans-Serif" font-size="10.00">&#45; x</text>
<text text-anchor="start" x="299" y="-147.5" font-family="Helvetica,sans-Serif" font-size="10.00">&#45; y</text>
<text text-anchor="start" x="299" y="-136.5" font-family="Helvetica,sans-Serif" font-size="10.00">&#45; x_cam</text>
<text text-anchor="start" x="299" y="-125.5" font-family="Helvetica,sans-Serif" font-size="10.00">&#45; y_cam</text>
<text text-anchor="start" x="299" y="-114.5" font-family="Helvetica,sans-Serif" font-size="10.00">&#45; z_cam</text>
<text text-anchor="start" x="299" y="-103.5" font-family="Helvetica,sans-Serif" font-size="10.00">&#45; r_cam</text>
<polyline fill="none" stroke="black" points="291,-96.5 392,-96.5 "/>
<text text-anchor="start" x="299" y="-84.5" font-family="Helvetica,sans-Serif" font-size="10.00">+ SplashState()</text>
<text text-anchor="start" x="299" y="-73.5" font-family="Helvetica,sans-Serif" font-size="10.00">+ Init()</text>
<text text-anchor="start" x="299" y="-62.5" font-family="Helvetica,sans-Serif" font-size="10.00">+ Input()</text>
<text text-anchor="start" x="299" y="-51.5" font-family="Helvetica,sans-Serif" font-size="10.00">+ Update()</text>
<text text-anchor="start" x="299" y="-40.5" font-family="Helvetica,sans-Serif" font-size="10.00">+ Render()</text>
<text text-anchor="start" x="299" y="-29.5" font-family="Helvetica,sans-Serif" font-size="10.00">+ SoundUpdate()</text>
<text text-anchor="start" x="299" y="-18.5" font-family="Helvetica,sans-Serif" font-size="10.00">+ DeleteData()</text>
<text text-anchor="start" x="299" y="-7.5" font-family="Helvetica,sans-Serif" font-size="10.00">+ ~SplashState()</text>
</a>
</g>
</g>
<!-- Node2 -->
<g id="node2" class="node">
<title>Node2</title>
<g id="a_node2"><a xlink:href="classState.html" target="_top" xlink:title=" ">
<polygon fill="none" stroke="black" points="174,-298 174,-410 275,-410 275,-298 174,-298"/>
<text text-anchor="middle" x="224.5" y="-398" font-family="Helvetica,sans-Serif" font-size="10.00">State</text>
<polyline fill="none" stroke="black" points="174,-391 275,-391 "/>
<text text-anchor="middle" x="224.5" y="-379" font-family="Helvetica,sans-Serif" font-size="10.00"> </text>
<polyline fill="none" stroke="black" points="174,-372 275,-372 "/>
<text text-anchor="start" x="182" y="-360" font-family="Helvetica,sans-Serif" font-size="10.00">+ Init()</text>
<text text-anchor="start" x="182" y="-349" font-family="Helvetica,sans-Serif" font-size="10.00">+ Input()</text>
<text text-anchor="start" x="182" y="-338" font-family="Helvetica,sans-Serif" font-size="10.00">+ SoundUpdate()</text>
<text text-anchor="start" x="182" y="-327" font-family="Helvetica,sans-Serif" font-size="10.00">+ Update()</text>
<text text-anchor="start" x="182" y="-316" font-family="Helvetica,sans-Serif" font-size="10.00">+ Render()</text>
<text text-anchor="start" x="182" y="-305" font-family="Helvetica,sans-Serif" font-size="10.00">+ DeleteData()</text>
</a>
</g>
</g>
<!-- Node2&#45;&gt;Node1 -->
<g id="edge1" class="edge">
<title>Node2&#45;&gt;Node1</title>
<path fill="none" stroke="midnightblue" d="M257.22,-288.82C267.68,-268.3 279.51,-245.09 290.93,-222.69"/>
<polygon fill="none" stroke="midnightblue" points="254.1,-287.24 252.67,-297.74 260.33,-290.42 254.1,-287.24"/>
</g>
<!-- Node3 -->
<g id="node3" class="node">
<title>Node3</title>
<g id="a_node3"><a xlink:href="structGameData.html" target="_top" xlink:title=" ">
<polygon fill="none" stroke="black" points="293.5,-292.5 293.5,-415.5 389.5,-415.5 389.5,-292.5 293.5,-292.5"/>
<text text-anchor="middle" x="341.5" y="-403.5" font-family="Helvetica,sans-Serif" font-size="10.00">GameData</text>
<polyline fill="none" stroke="black" points="293.5,-396.5 389.5,-396.5 "/>
<text text-anchor="start" x="301.5" y="-384.5" font-family="Helvetica,sans-Serif" font-size="10.00">+ window</text>
<text text-anchor="start" x="301.5" y="-373.5" font-family="Helvetica,sans-Serif" font-size="10.00">+ world</text>
<text text-anchor="start" x="301.5" y="-362.5" font-family="Helvetica,sans-Serif" font-size="10.00">+ state_switch</text>
<text text-anchor="start" x="301.5" y="-351.5" font-family="Helvetica,sans-Serif" font-size="10.00">+ level</text>
<polyline fill="none" stroke="black" points="293.5,-344.5 389.5,-344.5 "/>
<text text-anchor="start" x="301.5" y="-332.5" font-family="Helvetica,sans-Serif" font-size="10.00">+ GameData()</text>
<text text-anchor="start" x="301.5" y="-321.5" font-family="Helvetica,sans-Serif" font-size="10.00">+ GameData()</text>
<text text-anchor="start" x="301.5" y="-310.5" font-family="Helvetica,sans-Serif" font-size="10.00">+ GameData()</text>
<text text-anchor="start" x="301.5" y="-299.5" font-family="Helvetica,sans-Serif" font-size="10.00">+ ~GameData()</text>
</a>
</g>
</g>
<!-- Node3&#45;&gt;Node1 -->
<g id="edge2" class="edge">
<title>Node3&#45;&gt;Node1</title>
<path fill="none" stroke="#404040" d="M341.5,-292.4C341.5,-281.35 341.5,-269.42 341.5,-257.2"/>
<polygon fill="none" stroke="#404040" points="341.5,-256.9 337.5,-250.9 341.5,-244.9 345.5,-250.9 341.5,-256.9"/>
<text text-anchor="middle" x="358.5" y="-266" font-family="Helvetica,sans-Serif" font-size="10.00"> &#45;_data</text>
</g>
<!-- Node4 -->
<g id="node4" class="node">
<title>Node4</title>
<g id="a_node4"><a xlink:href="classStateMachine.html" target="_top" xlink:title=" ">
<polygon fill="none" stroke="black" points="360.5,-524 360.5,-691 470.5,-691 470.5,-524 360.5,-524"/>
<text text-anchor="middle" x="415.5" y="-679" font-family="Helvetica,sans-Serif" font-size="10.00">StateMachine</text>
<polyline fill="none" stroke="black" points="360.5,-672 470.5,-672 "/>
<text text-anchor="start" x="368.5" y="-660" font-family="Helvetica,sans-Serif" font-size="10.00">&#45; _states</text>
<text text-anchor="start" x="368.5" y="-649" font-family="Helvetica,sans-Serif" font-size="10.00">&#45; _newStates</text>
<text text-anchor="start" x="368.5" y="-638" font-family="Helvetica,sans-Serif" font-size="10.00">&#45; _isRemoving</text>
<text text-anchor="start" x="368.5" y="-627" font-family="Helvetica,sans-Serif" font-size="10.00">&#45; _isReplacing</text>
<text text-anchor="start" x="368.5" y="-616" font-family="Helvetica,sans-Serif" font-size="10.00">&#45; _isAdding</text>
<polyline fill="none" stroke="black" points="360.5,-609 470.5,-609 "/>
<text text-anchor="start" x="368.5" y="-597" font-family="Helvetica,sans-Serif" font-size="10.00">+ StateMachine()</text>
<text text-anchor="start" x="368.5" y="-586" font-family="Helvetica,sans-Serif" font-size="10.00">+ ~StateMachine()</text>
<text text-anchor="start" x="368.5" y="-575" font-family="Helvetica,sans-Serif" font-size="10.00">+ AddState()</text>
<text text-anchor="start" x="368.5" y="-564" font-family="Helvetica,sans-Serif" font-size="10.00">+ RemoveState()</text>
<text text-anchor="start" x="368.5" y="-553" font-family="Helvetica,sans-Serif" font-size="10.00">+ ProcessState()</text>
<text text-anchor="start" x="368.5" y="-542" font-family="Helvetica,sans-Serif" font-size="10.00">+ Clear()</text>
<text text-anchor="start" x="368.5" y="-531" font-family="Helvetica,sans-Serif" font-size="10.00">+ GetActiveState()</text>
</a>
</g>
</g>
<!-- Node4&#45;&gt;Node3 -->
<g id="edge3" class="edge">
<title>Node4&#45;&gt;Node3</title>
<path fill="none" stroke="#404040" d="M391.17,-523.8C382.02,-492.71 371.7,-457.62 362.84,-427.53"/>
<polygon fill="none" stroke="#404040" points="362.78,-427.34 357.25,-422.71 359.4,-415.82 364.93,-420.45 362.78,-427.34"/>
<text text-anchor="middle" x="394.5" y="-437" font-family="Helvetica,sans-Serif" font-size="10.00"> +machine</text>
</g>
<!-- Node5 -->
<g id="node5" class="node">
<title>Node5</title>
<g id="a_node5"><a xlink:href="classLoadingGameObjects.html" target="_top" xlink:title=" ">
<polygon fill="none" stroke="black" points="0,-463.5 0,-751.5 173,-751.5 173,-463.5 0,-463.5"/>
<text text-anchor="middle" x="86.5" y="-739.5" font-family="Helvetica,sans-Serif" font-size="10.00">LoadingGameObjects</text>
<polyline fill="none" stroke="black" points="0,-732.5 173,-732.5 "/>
<text text-anchor="start" x="8" y="-720.5" font-family="Helvetica,sans-Serif" font-size="10.00">&#45; game_objects</text>
<text text-anchor="start" x="8" y="-709.5" font-family="Helvetica,sans-Serif" font-size="10.00">&#45; npc_game_objects</text>
<text text-anchor="start" x="8" y="-698.5" font-family="Helvetica,sans-Serif" font-size="10.00">&#45; platform_game_objects</text>
<text text-anchor="start" x="8" y="-687.5" font-family="Helvetica,sans-Serif" font-size="10.00">&#45; edge_game_objects</text>
<text text-anchor="start" x="8" y="-676.5" font-family="Helvetica,sans-Serif" font-size="10.00">&#45; tile_objects</text>
<text text-anchor="start" x="8" y="-665.5" font-family="Helvetica,sans-Serif" font-size="10.00">&#45; animation_actors</text>
<text text-anchor="start" x="8" y="-654.5" font-family="Helvetica,sans-Serif" font-size="10.00">&#45; count</text>
<text text-anchor="start" x="8" y="-643.5" font-family="Helvetica,sans-Serif" font-size="10.00">&#45; npc_count</text>
<text text-anchor="start" x="8" y="-632.5" font-family="Helvetica,sans-Serif" font-size="10.00">&#45; tileX_count</text>
<text text-anchor="start" x="8" y="-621.5" font-family="Helvetica,sans-Serif" font-size="10.00">&#45; tileY_count</text>
<text text-anchor="start" x="8" y="-610.5" font-family="Helvetica,sans-Serif" font-size="10.00">&#45; edgeTwoSided</text>
<polyline fill="none" stroke="black" points="0,-603.5 173,-603.5 "/>
<text text-anchor="start" x="8" y="-591.5" font-family="Helvetica,sans-Serif" font-size="10.00">+ LoadingGameObjects()</text>
<text text-anchor="start" x="8" y="-580.5" font-family="Helvetica,sans-Serif" font-size="10.00">+ ~LoadingGameObjects()</text>
<text text-anchor="start" x="8" y="-569.5" font-family="Helvetica,sans-Serif" font-size="10.00">+ Load_XML_SPLASH_SCREEN()</text>
<text text-anchor="start" x="8" y="-558.5" font-family="Helvetica,sans-Serif" font-size="10.00">+ Load_XML_ASSETS()</text>
<text text-anchor="start" x="8" y="-547.5" font-family="Helvetica,sans-Serif" font-size="10.00">+ generate_textures()</text>
<text text-anchor="start" x="8" y="-536.5" font-family="Helvetica,sans-Serif" font-size="10.00">+ return_game_objects()</text>
<text text-anchor="start" x="8" y="-525.5" font-family="Helvetica,sans-Serif" font-size="10.00">+ return_npc_game_objects()</text>
<text text-anchor="start" x="8" y="-514.5" font-family="Helvetica,sans-Serif" font-size="10.00">+ return_edge_game_objects()</text>
<text text-anchor="start" x="8" y="-503.5" font-family="Helvetica,sans-Serif" font-size="10.00">+ return_platform_game</text>
<text text-anchor="start" x="8" y="-492.5" font-family="Helvetica,sans-Serif" font-size="10.00">_objects()</text>
<text text-anchor="start" x="8" y="-481.5" font-family="Helvetica,sans-Serif" font-size="10.00">+ return_tile_objects()</text>
<text text-anchor="start" x="8" y="-470.5" font-family="Helvetica,sans-Serif" font-size="10.00">+ return_animation_actors()</text>
</a>
</g>
</g>
<!-- Node5&#45;&gt;Node3 -->
<g id="edge4" class="edge">
<title>Node5&#45;&gt;Node3</title>
<path fill="none" stroke="#404040" d="M173.15,-470.59C175.88,-467.97 178.67,-465.43 181.5,-463 219.39,-430.51 242.91,-445.05 283.5,-416 283.6,-415.93 283.71,-415.85 283.81,-415.78"/>
<polygon fill="none" stroke="#404040" points="283.9,-415.71 286.16,-408.86 293.35,-408.3 291.09,-415.15 283.9,-415.71"/>
<text text-anchor="middle" x="258" y="-437" font-family="Helvetica,sans-Serif" font-size="10.00"> +ld</text>
</g>
<!-- Node6 -->
<g id="node6" class="node">
<title>Node6</title>
<g id="a_node6"><a xlink:href="classOrthographic__camera.html" target="_top" xlink:title=" ">
<polygon fill="none" stroke="black" points="191,-529.5 191,-685.5 342,-685.5 342,-529.5 191,-529.5"/>
<text text-anchor="middle" x="266.5" y="-673.5" font-family="Helvetica,sans-Serif" font-size="10.00">Orthographic_camera</text>
<polyline fill="none" stroke="black" points="191,-666.5 342,-666.5 "/>
<text text-anchor="start" x="199" y="-654.5" font-family="Helvetica,sans-Serif" font-size="10.00">&#45; m_rotation</text>
<polyline fill="none" stroke="black" points="191,-647.5 342,-647.5 "/>
<text text-anchor="start" x="199" y="-635.5" font-family="Helvetica,sans-Serif" font-size="10.00">+ Orthographic_camera()</text>
<text text-anchor="start" x="199" y="-624.5" font-family="Helvetica,sans-Serif" font-size="10.00">+ ~Orthographic_camera()</text>
<text text-anchor="start" x="199" y="-613.5" font-family="Helvetica,sans-Serif" font-size="10.00">+ GetPosition()</text>
<text text-anchor="start" x="199" y="-602.5" font-family="Helvetica,sans-Serif" font-size="10.00">+ SetPosition()</text>
<text text-anchor="start" x="199" y="-591.5" font-family="Helvetica,sans-Serif" font-size="10.00">+ GetRotation()</text>
<text text-anchor="start" x="199" y="-580.5" font-family="Helvetica,sans-Serif" font-size="10.00">+ SetRotation()</text>
<text text-anchor="start" x="199" y="-569.5" font-family="Helvetica,sans-Serif" font-size="10.00">+ GetScale()</text>
<text text-anchor="start" x="199" y="-558.5" font-family="Helvetica,sans-Serif" font-size="10.00">+ SetScale()</text>
<text text-anchor="start" x="199" y="-547.5" font-family="Helvetica,sans-Serif" font-size="10.00">+ return_matrix()</text>
<text text-anchor="start" x="199" y="-536.5" font-family="Helvetica,sans-Serif" font-size="10.00">&#45; recalculate_view_matrix()</text>
</a>
</g>
</g>
<!-- Node6&#45;&gt;Node3 -->
<g id="edge5" class="edge">
<title>Node6&#45;&gt;Node3</title>
<path fill="none" stroke="#404040" d="M288.5,-529.1C297.08,-499.32 307.09,-465.03 316.5,-434 317.17,-431.78 317.86,-429.53 318.56,-427.25"/>
<polygon fill="none" stroke="#404040" points="318.56,-427.23 316.51,-420.32 322.11,-415.77 324.16,-422.68 318.56,-427.23"/>
<text text-anchor="middle" x="338.5" y="-437" font-family="Helvetica,sans-Serif" font-size="10.00"> +o_cam</text>
</g>
<!-- Node7 -->
<g id="node7" class="node">
<title>Node7</title>
<g id="a_node7"><a xlink:title=" ">
<polygon fill="none" stroke="#bfbfbf" points="135.5,-832.5 135.5,-889.5 177.5,-889.5 177.5,-832.5 135.5,-832.5"/>
<text text-anchor="middle" x="156.5" y="-877.5" font-family="Helvetica,sans-Serif" font-size="10.00">mat4</text>
<polyline fill="none" stroke="#bfbfbf" points="135.5,-870.5 177.5,-870.5 "/>
<text text-anchor="middle" x="156.5" y="-858.5" font-family="Helvetica,sans-Serif" font-size="10.00"> </text>
<polyline fill="none" stroke="#bfbfbf" points="135.5,-851.5 177.5,-851.5 "/>
<text text-anchor="middle" x="156.5" y="-839.5" font-family="Helvetica,sans-Serif" font-size="10.00"> </text>
</a>
</g>
</g>
<!-- Node7&#45;&gt;Node6 -->
<g id="edge6" class="edge">
<title>Node7&#45;&gt;Node6</title>
<path fill="none" stroke="#404040" d="M156.71,-832.34C157.68,-814.07 160.57,-789.92 168.5,-770 172.15,-760.83 176.09,-760.25 181.5,-752 193.16,-734.2 205.13,-714.8 216.28,-696.18"/>
<polygon fill="none" stroke="#404040" points="216.42,-695.94 216.05,-688.74 222.55,-685.62 222.92,-692.83 216.42,-695.94"/>
<text text-anchor="middle" x="223" y="-806" font-family="Helvetica,sans-Serif" font-size="10.00"> &#45;m_Projection_matrix</text>
<text text-anchor="middle" x="223" y="-795" font-family="Helvetica,sans-Serif" font-size="10.00">&#45;m_View_matrix</text>
<text text-anchor="start" x="168.5" y="-784" font-family="Helvetica,sans-Serif" font-size="10.00">&#45;m_View_Projection</text>
<text text-anchor="middle" x="223" y="-773" font-family="Helvetica,sans-Serif" font-size="10.00">_matrix</text>
</g>
<!-- Node8 -->
<g id="node8" class="node">
<title>Node8</title>
<g id="a_node8"><a xlink:title=" ">
<polygon fill="none" stroke="#bfbfbf" points="446.5,-832.5 446.5,-889.5 486.5,-889.5 486.5,-832.5 446.5,-832.5"/>
<text text-anchor="middle" x="466.5" y="-877.5" font-family="Helvetica,sans-Serif" font-size="10.00">vec2</text>
<polyline fill="none" stroke="#bfbfbf" points="446.5,-870.5 486.5,-870.5 "/>
<text text-anchor="middle" x="466.5" y="-858.5" font-family="Helvetica,sans-Serif" font-size="10.00"> </text>
<polyline fill="none" stroke="#bfbfbf" points="446.5,-851.5 486.5,-851.5 "/>
<text text-anchor="middle" x="466.5" y="-839.5" font-family="Helvetica,sans-Serif" font-size="10.00"> </text>
</a>
</g>
</g>
<!-- Node8&#45;&gt;Node1 -->
<g id="edge9" class="edge">
<title>Node8&#45;&gt;Node1</title>
<path fill="none" stroke="#404040" d="M471.64,-832.22C482.8,-767.02 506.16,-599.37 479.5,-463 463.63,-381.84 428.3,-295.57 397.37,-230.31"/>
<polygon fill="none" stroke="#404040" points="397.23,-230.02 391.03,-226.34 392.04,-219.2 398.24,-222.88 397.23,-230.02"/>
<text text-anchor="middle" x="497" y="-437" font-family="Helvetica,sans-Serif" font-size="10.00"> &#45;z_scale</text>
</g>
<!-- Node8&#45;&gt;Node6 -->
<g id="edge7" class="edge">
<title>Node8&#45;&gt;Node6</title>
<path fill="none" stroke="#404040" d="M446.15,-843.92C421.78,-824.03 380.62,-788.33 351.5,-752 337.75,-734.84 324.67,-715.24 313.09,-696.15"/>
<polygon fill="none" stroke="#404040" points="312.95,-695.92 306.44,-692.82 306.81,-685.61 313.32,-688.72 312.95,-695.92"/>
<text text-anchor="middle" x="434.5" y="-789.5" font-family="Helvetica,sans-Serif" font-size="10.00"> &#45;m_scale</text>
</g>
<!-- Node9 -->
<g id="node9" class="node">
<title>Node9</title>
<g id="a_node9"><a xlink:title=" ">
<polygon fill="none" stroke="#bfbfbf" points="268.5,-832.5 268.5,-889.5 308.5,-889.5 308.5,-832.5 268.5,-832.5"/>
<text text-anchor="middle" x="288.5" y="-877.5" font-family="Helvetica,sans-Serif" font-size="10.00">vec3</text>
<polyline fill="none" stroke="#bfbfbf" points="268.5,-870.5 308.5,-870.5 "/>
<text text-anchor="middle" x="288.5" y="-858.5" font-family="Helvetica,sans-Serif" font-size="10.00"> </text>
<polyline fill="none" stroke="#bfbfbf" points="268.5,-851.5 308.5,-851.5 "/>
<text text-anchor="middle" x="288.5" y="-839.5" font-family="Helvetica,sans-Serif" font-size="10.00"> </text>
</a>
</g>
</g>
<!-- Node9&#45;&gt;Node6 -->
<g id="edge8" class="edge">
<title>Node9&#45;&gt;Node6</title>
<path fill="none" stroke="#404040" d="M286.06,-832.12C283.24,-799.83 278.44,-744.99 274.3,-697.71"/>
<polygon fill="none" stroke="#404040" points="274.29,-697.51 269.78,-691.88 273.24,-685.55 277.75,-691.18 274.29,-697.51"/>
<text text-anchor="middle" x="313.5" y="-789.5" font-family="Helvetica,sans-Serif" font-size="10.00"> &#45;m_positon</text>
</g>
</g>
</svg>
        <g id="navigator" transform="translate(0 0)" fill="#404254">
                <rect fill="#f2f5e9" fill-opacity="0.5" stroke="#606060" stroke-width=".5" x="0" y="0" width="60" height="60"/>
                <use id="zoomplus" xlink:href="#zoomPlus" x="17" y="9" onmousedown="handleZoom(evt,'in')"/>
                <use id="zoomminus" xlink:href="#zoomMin" x="42" y="9" onmousedown="handleZoom(evt,'out')"/>
                <use id="reset" xlink:href="#resetDef" x="30" y="36" onmousedown="handleReset()"/>
                <g id="arrowUp" xlink:href="#dirArrow" transform="translate(30 24)" onmousedown="handlePan(0,-1)">
                  <use xlink:href="#rim" fill="#404040">
                        <set attributeName="fill" to="#808080" begin="arrowUp.mouseover" end="arrowUp.mouseout"/>
                  </use>
                  <path fill="none" stroke="white" stroke-width="1.5" d="M0,-3.0v7 M-2.5,-0.5L0,-3.0L2.5,-0.5"/>
                </g>
                <g id="arrowRight" xlink:href="#dirArrow" transform="rotate(90) translate(36 -43)" onmousedown="handlePan(1,0)">
                  <use xlink:href="#rim" fill="#404040">
                        <set attributeName="fill" to="#808080" begin="arrowRight.mouseover" end="arrowRight.mouseout"/>
                  </use>
                  <path fill="none" stroke="white" stroke-width="1.5" d="M0,-3.0v7 M-2.5,-0.5L0,-3.0L2.5,-0.5"/>
                </g>
                <g id="arrowDown" xlink:href="#dirArrow" transform="rotate(180) translate(-30 -48)" onmousedown="handlePan(0,1)">
                  <use xlink:href="#rim" fill="#404040">
                        <set attributeName="fill" to="#808080" begin="arrowDown.mouseover" end="arrowDown.mouseout"/>
                  </use>
                  <path fill="none" stroke="white" stroke-width="1.5" d="M0,-3.0v7 M-2.5,-0.5L0,-3.0L2.5,-0.5"/>
                </g>
                <g id="arrowLeft" xlink:href="#dirArrow" transform="rotate(270) translate(-36 17)" onmousedown="handlePan(-1,0)">
                  <use xlink:href="#rim" fill="#404040">
                        <set attributeName="fill" to="#808080" begin="arrowLeft.mouseover" end="arrowLeft.mouseout"/>
                  </use>
                  <path fill="none" stroke="white" stroke-width="1.5" d="M0,-3.0v7 M-2.5,-0.5L0,-3.0L2.5,-0.5"/>
                </g>
        </g>
        <svg viewBox="0 0 15 15" width="100%" height="30px" preserveAspectRatio="xMaxYMin meet">
         <g id="arrow_out" transform="scale(0.3 0.3)">
          <a xlink:href="classSplashState__coll__graph_org.svg" target="_base">
           <rect id="button" ry="5" rx="5" y="6" x="6" height="38" width="38"
                fill="#f2f5e9" fill-opacity="0.5" stroke="#606060" stroke-width="1.0"/>
           <path id="arrow"
             d="M 11.500037,31.436501 C 11.940474,20.09759 22.043105,11.32322 32.158766,21.979434 L 37.068811,17.246167 C 37.068811,17.246167 37.088388,32 37.088388,32 L 22.160133,31.978069 C 22.160133,31.978069 26.997745,27.140456 26.997745,27.140456 C 18.528582,18.264221 13.291696,25.230495 11.500037,31.436501 z"
             style="fill:#404040;"/>
          </a>
         </g>
        </svg>
</svg>
