<?xml version="1.0" encoding="UTF-8" standalone="no"?>
<!DOCTYPE svg PUBLIC "-//W3C//DTD SVG 1.1//EN"
 "http://www.w3.org/Graphics/SVG/1.1/DTD/svg11.dtd">
<!-- Generated by graphviz version 2.43.0 (0)
 -->
<!-- Title: TransformComponent Pages: 1 -->
<svg width="247pt" height="424pt"
 viewBox="0.00 0.00 247.00 424.00" xmlns="http://www.w3.org/2000/svg" xmlns:xlink="http://www.w3.org/1999/xlink">
<g id="graph0" class="graph" transform="scale(1 1) rotate(0) translate(4 420)">
<title>TransformComponent</title>
<!-- Node1 -->
<g id="node1" class="node">
<title>Node1</title>
<g id="a_node1"><a xlink:title=" ">
<polygon fill="#bfbfbf" stroke="black" points="86.5,-0.5 86.5,-178.5 235.5,-178.5 235.5,-0.5 86.5,-0.5"/>
<text text-anchor="middle" x="161" y="-166.5" font-family="Helvetica,sans-Serif" font-size="10.00">TransformComponent</text>
<polyline fill="none" stroke="black" points="86.5,-159.5 235.5,-159.5 "/>
<text text-anchor="start" x="94.5" y="-147.5" font-family="Helvetica,sans-Serif" font-size="10.00">&#45; m_rotation</text>
<polyline fill="none" stroke="black" points="86.5,-140.5 235.5,-140.5 "/>
<text text-anchor="start" x="94.5" y="-128.5" font-family="Helvetica,sans-Serif" font-size="10.00">+ TransformComponent()</text>
<text text-anchor="start" x="94.5" y="-117.5" font-family="Helvetica,sans-Serif" font-size="10.00">+ TransformComponent()</text>
<text text-anchor="start" x="94.5" y="-106.5" font-family="Helvetica,sans-Serif" font-size="10.00">+ ~TransformComponent()</text>
<text text-anchor="start" x="94.5" y="-95.5" font-family="Helvetica,sans-Serif" font-size="10.00">+ onCreate()</text>
<text text-anchor="start" x="94.5" y="-84.5" font-family="Helvetica,sans-Serif" font-size="10.00">+ onDestroy()</text>
<text text-anchor="start" x="94.5" y="-73.5" font-family="Helvetica,sans-Serif" font-size="10.00">+ update()</text>
<text text-anchor="start" x="94.5" y="-62.5" font-family="Helvetica,sans-Serif" font-size="10.00">+ draw()</text>
<text text-anchor="start" x="94.5" y="-51.5" font-family="Helvetica,sans-Serif" font-size="10.00">+ getPosition()</text>
<text text-anchor="start" x="94.5" y="-40.5" font-family="Helvetica,sans-Serif" font-size="10.00">+ getScale()</text>
<text text-anchor="start" x="94.5" y="-29.5" font-family="Helvetica,sans-Serif" font-size="10.00">+ getRotation()</text>
<text text-anchor="start" x="94.5" y="-18.5" font-family="Helvetica,sans-Serif" font-size="10.00">+ setTranform()</text>
<text text-anchor="start" x="94.5" y="-7.5" font-family="Helvetica,sans-Serif" font-size="10.00">+ transform()</text>
</a>
</g>
</g>
<!-- Node2 -->
<g id="node2" class="node">
<title>Node2</title>
<g id="a_node2"><a xlink:href="classComponent.html" target="_top" xlink:title=" ">
<polygon fill="none" stroke="black" points="0,-237.5 0,-415.5 100,-415.5 100,-237.5 0,-237.5"/>
<text text-anchor="middle" x="50" y="-403.5" font-family="Helvetica,sans-Serif" font-size="10.00">Component</text>
<polyline fill="none" stroke="black" points="0,-396.5 100,-396.5 "/>
<text text-anchor="start" x="8" y="-384.5" font-family="Helvetica,sans-Serif" font-size="10.00"># isCreated</text>
<polyline fill="none" stroke="black" points="0,-377.5 100,-377.5 "/>
<text text-anchor="start" x="8" y="-365.5" font-family="Helvetica,sans-Serif" font-size="10.00">+ Component()</text>
<text text-anchor="start" x="8" y="-354.5" font-family="Helvetica,sans-Serif" font-size="10.00">+ ~Component()</text>
<text text-anchor="start" x="8" y="-343.5" font-family="Helvetica,sans-Serif" font-size="10.00">+ onCreate()</text>
<text text-anchor="start" x="8" y="-332.5" font-family="Helvetica,sans-Serif" font-size="10.00">+ onDestroy()</text>
<text text-anchor="start" x="8" y="-321.5" font-family="Helvetica,sans-Serif" font-size="10.00">+ update()</text>
<text text-anchor="start" x="8" y="-310.5" font-family="Helvetica,sans-Serif" font-size="10.00">+ draw()</text>
<text text-anchor="start" x="8" y="-299.5" font-family="Helvetica,sans-Serif" font-size="10.00">+ Component()</text>
<text text-anchor="start" x="8" y="-288.5" font-family="Helvetica,sans-Serif" font-size="10.00">+ ~Component()</text>
<text text-anchor="start" x="8" y="-277.5" font-family="Helvetica,sans-Serif" font-size="10.00">+ onCreate()</text>
<text text-anchor="start" x="8" y="-266.5" font-family="Helvetica,sans-Serif" font-size="10.00">+ onDestroy()</text>
<text text-anchor="start" x="8" y="-255.5" font-family="Helvetica,sans-Serif" font-size="10.00">+ update()</text>
<text text-anchor="start" x="8" y="-244.5" font-family="Helvetica,sans-Serif" font-size="10.00">+ draw()</text>
</a>
</g>
</g>
<!-- Node2&#45;&gt;Node1 -->
<g id="edge1" class="edge">
<title>Node2&#45;&gt;Node1</title>
<path fill="none" stroke="midnightblue" d="M95.92,-228.28C103.67,-211.88 111.67,-194.93 119.3,-178.78"/>
<polygon fill="none" stroke="midnightblue" points="92.75,-226.79 91.65,-237.33 99.08,-229.78 92.75,-226.79"/>
</g>
<!-- Node2&#45;&gt;Node2 -->
<g id="edge2" class="edge">
<title>Node2&#45;&gt;Node2</title>
<path fill="none" stroke="#404040" d="M100.11,-347.85C110.52,-345.6 118,-338.48 118,-326.5 118,-319.38 115.36,-313.98 111.04,-310.3"/>
<polygon fill="none" stroke="#404040" points="110.97,-310.27 103.84,-311.33 100.11,-305.15 107.25,-304.09 110.97,-310.27"/>
<text text-anchor="middle" x="139.5" y="-324" font-family="Helvetica,sans-Serif" font-size="10.00"> #parent</text>
</g>
<!-- Node3 -->
<g id="node3" class="node">
<title>Node3</title>
<g id="a_node3"><a xlink:title=" ">
<polygon fill="none" stroke="#bfbfbf" points="179,-298 179,-355 219,-355 219,-298 179,-298"/>
<text text-anchor="middle" x="199" y="-343" font-family="Helvetica,sans-Serif" font-size="10.00">vec2</text>
<polyline fill="none" stroke="#bfbfbf" points="179,-336 219,-336 "/>
<text text-anchor="middle" x="199" y="-324" font-family="Helvetica,sans-Serif" font-size="10.00"> </text>
<polyline fill="none" stroke="#bfbfbf" points="179,-317 219,-317 "/>
<text text-anchor="middle" x="199" y="-305" font-family="Helvetica,sans-Serif" font-size="10.00"> </text>
</a>
</g>
</g>
<!-- Node3&#45;&gt;Node1 -->
<g id="edge3" class="edge">
<title>Node3&#45;&gt;Node1</title>
<path fill="none" stroke="#404040" d="M194.49,-297.62C190.2,-271.07 183.47,-229.48 177.17,-190.51"/>
<polygon fill="none" stroke="#404040" points="177.15,-190.37 172.24,-185.09 175.23,-178.52 180.14,-183.81 177.15,-190.37"/>
<text text-anchor="middle" x="210" y="-211" font-family="Helvetica,sans-Serif" font-size="10.00"> &#45;m_scale</text>
<text text-anchor="middle" x="210" y="-200" font-family="Helvetica,sans-Serif" font-size="10.00">&#45;m_position</text>
</g>
</g>
</svg>
