<?xml version="1.0" encoding="UTF-8" standalone="no"?>
<!DOCTYPE svg PUBLIC "-//W3C//DTD SVG 1.1//EN"
 "http://www.w3.org/Graphics/SVG/1.1/DTD/svg11.dtd">
<!-- Generated by graphviz version 2.43.0 (0)
 -->
<!-- Title: State Pages: 1 -->
<svg width="672pt" height="424pt"
 viewBox="0.00 0.00 671.50 424.00" xmlns="http://www.w3.org/2000/svg" xmlns:xlink="http://www.w3.org/1999/xlink">
<g id="graph0" class="graph" transform="scale(1 1) rotate(0) translate(4 420)">
<title>State</title>
<!-- Node1 -->
<g id="node1" class="node">
<title>Node1</title>
<g id="a_node1"><a xlink:title=" ">
<polygon fill="#bfbfbf" stroke="black" points="291.5,-303.5 291.5,-415.5 392.5,-415.5 392.5,-303.5 291.5,-303.5"/>
<text text-anchor="middle" x="342" y="-403.5" font-family="Helvetica,sans-Serif" font-size="10.00">State</text>
<polyline fill="none" stroke="black" points="291.5,-396.5 392.5,-396.5 "/>
<text text-anchor="middle" x="342" y="-384.5" font-family="Helvetica,sans-Serif" font-size="10.00"> </text>
<polyline fill="none" stroke="black" points="291.5,-377.5 392.5,-377.5 "/>
<text text-anchor="start" x="299.5" y="-365.5" font-family="Helvetica,sans-Serif" font-size="10.00">+ Init()</text>
<text text-anchor="start" x="299.5" y="-354.5" font-family="Helvetica,sans-Serif" font-size="10.00">+ Input()</text>
<text text-anchor="start" x="299.5" y="-343.5" font-family="Helvetica,sans-Serif" font-size="10.00">+ SoundUpdate()</text>
<text text-anchor="start" x="299.5" y="-332.5" font-family="Helvetica,sans-Serif" font-size="10.00">+ Update()</text>
<text text-anchor="start" x="299.5" y="-321.5" font-family="Helvetica,sans-Serif" font-size="10.00">+ Render()</text>
<text text-anchor="start" x="299.5" y="-310.5" font-family="Helvetica,sans-Serif" font-size="10.00">+ DeleteData()</text>
</a>
</g>
</g>
<!-- Node2 -->
<g id="node2" class="node">
<title>Node2</title>
<g id="a_node2"><a xlink:href="classGameOverState.html" target="_top" xlink:title=" ">
<polygon fill="none" stroke="black" points="0,-39 0,-228 122,-228 122,-39 0,-39"/>
<text text-anchor="middle" x="61" y="-216" font-family="Helvetica,sans-Serif" font-size="10.00">GameOverState</text>
<polyline fill="none" stroke="black" points="0,-209 122,-209 "/>
<text text-anchor="start" x="8" y="-197" font-family="Helvetica,sans-Serif" font-size="10.00">&#45; _data</text>
<text text-anchor="start" x="8" y="-186" font-family="Helvetica,sans-Serif" font-size="10.00">&#45; x_cam</text>
<text text-anchor="start" x="8" y="-175" font-family="Helvetica,sans-Serif" font-size="10.00">&#45; y_cam</text>
<text text-anchor="start" x="8" y="-164" font-family="Helvetica,sans-Serif" font-size="10.00">&#45; z_cam</text>
<text text-anchor="start" x="8" y="-153" font-family="Helvetica,sans-Serif" font-size="10.00">&#45; r_cam</text>
<text text-anchor="start" x="8" y="-142" font-family="Helvetica,sans-Serif" font-size="10.00">&#45; z_scale</text>
<polyline fill="none" stroke="black" points="0,-135 122,-135 "/>
<text text-anchor="start" x="8" y="-123" font-family="Helvetica,sans-Serif" font-size="10.00">+ GameOverState()</text>
<text text-anchor="start" x="8" y="-112" font-family="Helvetica,sans-Serif" font-size="10.00">+ Init()</text>
<text text-anchor="start" x="8" y="-101" font-family="Helvetica,sans-Serif" font-size="10.00">+ Input()</text>
<text text-anchor="start" x="8" y="-90" font-family="Helvetica,sans-Serif" font-size="10.00">+ Update()</text>
<text text-anchor="start" x="8" y="-79" font-family="Helvetica,sans-Serif" font-size="10.00">+ Render()</text>
<text text-anchor="start" x="8" y="-68" font-family="Helvetica,sans-Serif" font-size="10.00">+ SoundUpdate()</text>
<text text-anchor="start" x="8" y="-57" font-family="Helvetica,sans-Serif" font-size="10.00">+ DeleteData()</text>
<text text-anchor="start" x="8" y="-46" font-family="Helvetica,sans-Serif" font-size="10.00">+ ~GameOverState()</text>
</a>
</g>
</g>
<!-- Node1&#45;&gt;Node2 -->
<g id="edge1" class="edge">
<title>Node1&#45;&gt;Node2</title>
<path fill="none" stroke="midnightblue" d="M281.67,-344.09C235.82,-330.58 173.58,-306.43 131,-267 119.07,-255.95 108.79,-242.4 100.07,-228.23"/>
<polygon fill="none" stroke="midnightblue" points="280.91,-347.51 291.49,-346.89 282.83,-340.78 280.91,-347.51"/>
</g>
<!-- Node3 -->
<g id="node3" class="node">
<title>Node3</title>
<g id="a_node3"><a xlink:href="classGamePlayState.html" target="_top" xlink:title=" ">
<polygon fill="none" stroke="black" points="140.5,-11.5 140.5,-255.5 259.5,-255.5 259.5,-11.5 140.5,-11.5"/>
<text text-anchor="middle" x="200" y="-243.5" font-family="Helvetica,sans-Serif" font-size="10.00">GamePlayState</text>
<polyline fill="none" stroke="black" points="140.5,-236.5 259.5,-236.5 "/>
<text text-anchor="start" x="148.5" y="-224.5" font-family="Helvetica,sans-Serif" font-size="10.00">&#45; _data</text>
<text text-anchor="start" x="148.5" y="-213.5" font-family="Helvetica,sans-Serif" font-size="10.00">&#45; x</text>
<text text-anchor="start" x="148.5" y="-202.5" font-family="Helvetica,sans-Serif" font-size="10.00">&#45; y</text>
<text text-anchor="start" x="148.5" y="-191.5" font-family="Helvetica,sans-Serif" font-size="10.00">&#45; x_cam</text>
<text text-anchor="start" x="148.5" y="-180.5" font-family="Helvetica,sans-Serif" font-size="10.00">&#45; y_cam</text>
<text text-anchor="start" x="148.5" y="-169.5" font-family="Helvetica,sans-Serif" font-size="10.00">&#45; z_cam</text>
<text text-anchor="start" x="148.5" y="-158.5" font-family="Helvetica,sans-Serif" font-size="10.00">&#45; r_cam</text>
<text text-anchor="start" x="148.5" y="-147.5" font-family="Helvetica,sans-Serif" font-size="10.00">&#45; z_scale</text>
<text text-anchor="start" x="148.5" y="-136.5" font-family="Helvetica,sans-Serif" font-size="10.00">&#45; delay</text>
<text text-anchor="start" x="148.5" y="-125.5" font-family="Helvetica,sans-Serif" font-size="10.00">&#45; jump_delay</text>
<text text-anchor="start" x="148.5" y="-114.5" font-family="Helvetica,sans-Serif" font-size="10.00">and 17 more...</text>
<polyline fill="none" stroke="black" points="140.5,-107.5 259.5,-107.5 "/>
<text text-anchor="start" x="148.5" y="-95.5" font-family="Helvetica,sans-Serif" font-size="10.00">+ GamePlayState()</text>
<text text-anchor="start" x="148.5" y="-84.5" font-family="Helvetica,sans-Serif" font-size="10.00">+ Init()</text>
<text text-anchor="start" x="148.5" y="-73.5" font-family="Helvetica,sans-Serif" font-size="10.00">+ Input()</text>
<text text-anchor="start" x="148.5" y="-62.5" font-family="Helvetica,sans-Serif" font-size="10.00">+ Update()</text>
<text text-anchor="start" x="148.5" y="-51.5" font-family="Helvetica,sans-Serif" font-size="10.00">+ Render()</text>
<text text-anchor="start" x="148.5" y="-40.5" font-family="Helvetica,sans-Serif" font-size="10.00">+ SoundUpdate()</text>
<text text-anchor="start" x="148.5" y="-29.5" font-family="Helvetica,sans-Serif" font-size="10.00">+ DeleteData()</text>
<text text-anchor="start" x="148.5" y="-18.5" font-family="Helvetica,sans-Serif" font-size="10.00">+ ~GamePlayState()</text>
</a>
</g>
</g>
<!-- Node1&#45;&gt;Node3 -->
<g id="edge2" class="edge">
<title>Node1&#45;&gt;Node3</title>
<path fill="none" stroke="midnightblue" d="M288.9,-295.14C281.92,-285.91 275.09,-276.35 269,-267 265.82,-262.11 262.66,-257.05 259.55,-251.9"/>
<polygon fill="none" stroke="midnightblue" points="286.19,-297.36 295.06,-303.16 291.74,-293.1 286.19,-297.36"/>
</g>
<!-- Node4 -->
<g id="node4" class="node">
<title>Node4</title>
<g id="a_node4"><a xlink:href="classLoadingPlayState.html" target="_top" xlink:title=" ">
<polygon fill="none" stroke="black" points="278,-61 278,-206 406,-206 406,-61 278,-61"/>
<text text-anchor="middle" x="342" y="-194" font-family="Helvetica,sans-Serif" font-size="10.00">LoadingPlayState</text>
<polyline fill="none" stroke="black" points="278,-187 406,-187 "/>
<text text-anchor="start" x="286" y="-175" font-family="Helvetica,sans-Serif" font-size="10.00">&#45; _data</text>
<text text-anchor="start" x="286" y="-164" font-family="Helvetica,sans-Serif" font-size="10.00">&#45; finishedLoading</text>
<polyline fill="none" stroke="black" points="278,-157 406,-157 "/>
<text text-anchor="start" x="286" y="-145" font-family="Helvetica,sans-Serif" font-size="10.00">+ LoadingPlayState()</text>
<text text-anchor="start" x="286" y="-134" font-family="Helvetica,sans-Serif" font-size="10.00">+ Init()</text>
<text text-anchor="start" x="286" y="-123" font-family="Helvetica,sans-Serif" font-size="10.00">+ Input()</text>
<text text-anchor="start" x="286" y="-112" font-family="Helvetica,sans-Serif" font-size="10.00">+ Update()</text>
<text text-anchor="start" x="286" y="-101" font-family="Helvetica,sans-Serif" font-size="10.00">+ Render()</text>
<text text-anchor="start" x="286" y="-90" font-family="Helvetica,sans-Serif" font-size="10.00">+ SoundUpdate()</text>
<text text-anchor="start" x="286" y="-79" font-family="Helvetica,sans-Serif" font-size="10.00">+ DeleteData()</text>
<text text-anchor="start" x="286" y="-68" font-family="Helvetica,sans-Serif" font-size="10.00">+ ~LoadingPlayState()</text>
</a>
</g>
</g>
<!-- Node1&#45;&gt;Node4 -->
<g id="edge3" class="edge">
<title>Node1&#45;&gt;Node4</title>
<path fill="none" stroke="midnightblue" d="M342,-293.21C342,-265.97 342,-234.23 342,-206.33"/>
<polygon fill="none" stroke="midnightblue" points="338.5,-293.42 342,-303.42 345.5,-293.42 338.5,-293.42"/>
</g>
<!-- Node5 -->
<g id="node5" class="node">
<title>Node5</title>
<g id="a_node5"><a xlink:href="classMainMenuState.html" target="_top" xlink:title=" ">
<polygon fill="none" stroke="black" points="424,-39 424,-228 544,-228 544,-39 424,-39"/>
<text text-anchor="middle" x="484" y="-216" font-family="Helvetica,sans-Serif" font-size="10.00">MainMenuState</text>
<polyline fill="none" stroke="black" points="424,-209 544,-209 "/>
<text text-anchor="start" x="432" y="-197" font-family="Helvetica,sans-Serif" font-size="10.00">&#45; _data</text>
<text text-anchor="start" x="432" y="-186" font-family="Helvetica,sans-Serif" font-size="10.00">&#45; x_cam</text>
<text text-anchor="start" x="432" y="-175" font-family="Helvetica,sans-Serif" font-size="10.00">&#45; y_cam</text>
<text text-anchor="start" x="432" y="-164" font-family="Helvetica,sans-Serif" font-size="10.00">&#45; z_cam</text>
<text text-anchor="start" x="432" y="-153" font-family="Helvetica,sans-Serif" font-size="10.00">&#45; r_cam</text>
<text text-anchor="start" x="432" y="-142" font-family="Helvetica,sans-Serif" font-size="10.00">&#45; z_scale</text>
<polyline fill="none" stroke="black" points="424,-135 544,-135 "/>
<text text-anchor="start" x="432" y="-123" font-family="Helvetica,sans-Serif" font-size="10.00">+ MainMenuState()</text>
<text text-anchor="start" x="432" y="-112" font-family="Helvetica,sans-Serif" font-size="10.00">+ Init()</text>
<text text-anchor="start" x="432" y="-101" font-family="Helvetica,sans-Serif" font-size="10.00">+ Input()</text>
<text text-anchor="start" x="432" y="-90" font-family="Helvetica,sans-Serif" font-size="10.00">+ Update()</text>
<text text-anchor="start" x="432" y="-79" font-family="Helvetica,sans-Serif" font-size="10.00">+ Render()</text>
<text text-anchor="start" x="432" y="-68" font-family="Helvetica,sans-Serif" font-size="10.00">+ SoundUpdate()</text>
<text text-anchor="start" x="432" y="-57" font-family="Helvetica,sans-Serif" font-size="10.00">+ DeleteData()</text>
<text text-anchor="start" x="432" y="-46" font-family="Helvetica,sans-Serif" font-size="10.00">+ ~MainMenuState()</text>
</a>
</g>
</g>
<!-- Node1&#45;&gt;Node5 -->
<g id="edge4" class="edge">
<title>Node1&#45;&gt;Node5</title>
<path fill="none" stroke="midnightblue" d="M395.1,-295.14C402.08,-285.91 408.91,-276.35 415,-267 422.99,-254.72 430.82,-241.4 438.16,-228.11"/>
<polygon fill="none" stroke="midnightblue" points="392.26,-293.1 388.94,-303.16 397.81,-297.36 392.26,-293.1"/>
</g>
<!-- Node6 -->
<g id="node6" class="node">
<title>Node6</title>
<g id="a_node6"><a xlink:href="classSplashState.html" target="_top" xlink:title=" ">
<polygon fill="none" stroke="black" points="562.5,-0.5 562.5,-266.5 663.5,-266.5 663.5,-0.5 562.5,-0.5"/>
<text text-anchor="middle" x="613" y="-254.5" font-family="Helvetica,sans-Serif" font-size="10.00">SplashState</text>
<polyline fill="none" stroke="black" points="562.5,-247.5 663.5,-247.5 "/>
<text text-anchor="start" x="570.5" y="-235.5" font-family="Helvetica,sans-Serif" font-size="10.00">&#45; _data</text>
<text text-anchor="start" x="570.5" y="-224.5" font-family="Helvetica,sans-Serif" font-size="10.00">&#45; timer</text>
<text text-anchor="start" x="570.5" y="-213.5" font-family="Helvetica,sans-Serif" font-size="10.00">&#45; delay</text>
<text text-anchor="start" x="570.5" y="-202.5" font-family="Helvetica,sans-Serif" font-size="10.00">&#45; jump_delay</text>
<text text-anchor="start" x="570.5" y="-191.5" font-family="Helvetica,sans-Serif" font-size="10.00">&#45; counter</text>
<text text-anchor="start" x="570.5" y="-180.5" font-family="Helvetica,sans-Serif" font-size="10.00">&#45; platform_delay</text>
<text text-anchor="start" x="570.5" y="-169.5" font-family="Helvetica,sans-Serif" font-size="10.00">&#45; x</text>
<text text-anchor="start" x="570.5" y="-158.5" font-family="Helvetica,sans-Serif" font-size="10.00">&#45; y</text>
<text text-anchor="start" x="570.5" y="-147.5" font-family="Helvetica,sans-Serif" font-size="10.00">&#45; x_cam</text>
<text text-anchor="start" x="570.5" y="-136.5" font-family="Helvetica,sans-Serif" font-size="10.00">&#45; y_cam</text>
<text text-anchor="start" x="570.5" y="-125.5" font-family="Helvetica,sans-Serif" font-size="10.00">&#45; z_cam</text>
<text text-anchor="start" x="570.5" y="-114.5" font-family="Helvetica,sans-Serif" font-size="10.00">&#45; r_cam</text>
<text text-anchor="start" x="570.5" y="-103.5" font-family="Helvetica,sans-Serif" font-size="10.00">&#45; z_scale</text>
<polyline fill="none" stroke="black" points="562.5,-96.5 663.5,-96.5 "/>
<text text-anchor="start" x="570.5" y="-84.5" font-family="Helvetica,sans-Serif" font-size="10.00">+ SplashState()</text>
<text text-anchor="start" x="570.5" y="-73.5" font-family="Helvetica,sans-Serif" font-size="10.00">+ Init()</text>
<text text-anchor="start" x="570.5" y="-62.5" font-family="Helvetica,sans-Serif" font-size="10.00">+ Input()</text>
<text text-anchor="start" x="570.5" y="-51.5" font-family="Helvetica,sans-Serif" font-size="10.00">+ Update()</text>
<text text-anchor="start" x="570.5" y="-40.5" font-family="Helvetica,sans-Serif" font-size="10.00">+ Render()</text>
<text text-anchor="start" x="570.5" y="-29.5" font-family="Helvetica,sans-Serif" font-size="10.00">+ SoundUpdate()</text>
<text text-anchor="start" x="570.5" y="-18.5" font-family="Helvetica,sans-Serif" font-size="10.00">+ DeleteData()</text>
<text text-anchor="start" x="570.5" y="-7.5" font-family="Helvetica,sans-Serif" font-size="10.00">+ ~SplashState()</text>
</a>
</g>
</g>
<!-- Node1&#45;&gt;Node6 -->
<g id="edge5" class="edge">
<title>Node1&#45;&gt;Node6</title>
<path fill="none" stroke="midnightblue" d="M402.57,-344.93C448.83,-331.83 511.51,-307.83 553,-267 556.33,-263.72 559.49,-260.23 562.49,-256.56"/>
<polygon fill="none" stroke="midnightblue" points="401.38,-341.63 392.66,-347.64 403.23,-348.38 401.38,-341.63"/>
</g>
</g>
</svg>
