<?xml version="1.0" encoding="UTF-8" standalone="no"?>
<!DOCTYPE svg PUBLIC "-//W3C//DTD SVG 1.1//EN"
 "http://www.w3.org/Graphics/SVG/1.1/DTD/svg11.dtd">
<!-- Generated by graphviz version 2.43.0 (0)
 -->
<!-- Title: ShaderComponent Pages: 1 -->
<svg width="186pt" height="414pt"
 viewBox="0.00 0.00 186.00 414.00" xmlns="http://www.w3.org/2000/svg" xmlns:xlink="http://www.w3.org/1999/xlink">
<g id="graph0" class="graph" transform="scale(1 1) rotate(0) translate(4 410)">
<title>ShaderComponent</title>
<!-- Node1 -->
<g id="node1" class="node">
<title>Node1</title>
<g id="a_node1"><a xlink:title=" ">
<polygon fill="#bfbfbf" stroke="black" points="0,-0.5 0,-189.5 134,-189.5 134,-0.5 0,-0.5"/>
<text text-anchor="middle" x="67" y="-177.5" font-family="Helvetica,sans-Serif" font-size="10.00">ShaderComponent</text>
<polyline fill="none" stroke="black" points="0,-170.5 134,-170.5 "/>
<text text-anchor="start" x="8" y="-158.5" font-family="Helvetica,sans-Serif" font-size="10.00">&#45; ID</text>
<polyline fill="none" stroke="black" points="0,-151.5 134,-151.5 "/>
<text text-anchor="start" x="8" y="-139.5" font-family="Helvetica,sans-Serif" font-size="10.00">+ ShaderComponent()</text>
<text text-anchor="start" x="8" y="-128.5" font-family="Helvetica,sans-Serif" font-size="10.00">+ ~ShaderComponent()</text>
<text text-anchor="start" x="8" y="-117.5" font-family="Helvetica,sans-Serif" font-size="10.00">+ onCreate()</text>
<text text-anchor="start" x="8" y="-106.5" font-family="Helvetica,sans-Serif" font-size="10.00">+ onDestroy()</text>
<text text-anchor="start" x="8" y="-95.5" font-family="Helvetica,sans-Serif" font-size="10.00">+ update()</text>
<text text-anchor="start" x="8" y="-84.5" font-family="Helvetica,sans-Serif" font-size="10.00">+ draw()</text>
<text text-anchor="start" x="8" y="-73.5" font-family="Helvetica,sans-Serif" font-size="10.00">+ loadShader()</text>
<text text-anchor="start" x="8" y="-62.5" font-family="Helvetica,sans-Serif" font-size="10.00">+ Use()</text>
<text text-anchor="start" x="8" y="-51.5" font-family="Helvetica,sans-Serif" font-size="10.00">+ SetFloat()</text>
<text text-anchor="start" x="8" y="-40.5" font-family="Helvetica,sans-Serif" font-size="10.00">+ SetInteger()</text>
<text text-anchor="start" x="8" y="-29.5" font-family="Helvetica,sans-Serif" font-size="10.00">and 7 more...</text>
<text text-anchor="start" x="8" y="-18.5" font-family="Helvetica,sans-Serif" font-size="10.00">&#45; Compile()</text>
<text text-anchor="start" x="8" y="-7.5" font-family="Helvetica,sans-Serif" font-size="10.00">&#45; checkCompileErrors()</text>
</a>
</g>
</g>
<!-- Node2 -->
<g id="node2" class="node">
<title>Node2</title>
<g id="a_node2"><a xlink:href="classComponent.html" target="_top" xlink:title=" ">
<polygon fill="none" stroke="black" points="17,-227.5 17,-405.5 117,-405.5 117,-227.5 17,-227.5"/>
<text text-anchor="middle" x="67" y="-393.5" font-family="Helvetica,sans-Serif" font-size="10.00">Component</text>
<polyline fill="none" stroke="black" points="17,-386.5 117,-386.5 "/>
<text text-anchor="start" x="25" y="-374.5" font-family="Helvetica,sans-Serif" font-size="10.00"># isCreated</text>
<polyline fill="none" stroke="black" points="17,-367.5 117,-367.5 "/>
<text text-anchor="start" x="25" y="-355.5" font-family="Helvetica,sans-Serif" font-size="10.00">+ Component()</text>
<text text-anchor="start" x="25" y="-344.5" font-family="Helvetica,sans-Serif" font-size="10.00">+ ~Component()</text>
<text text-anchor="start" x="25" y="-333.5" font-family="Helvetica,sans-Serif" font-size="10.00">+ onCreate()</text>
<text text-anchor="start" x="25" y="-322.5" font-family="Helvetica,sans-Serif" font-size="10.00">+ onDestroy()</text>
<text text-anchor="start" x="25" y="-311.5" font-family="Helvetica,sans-Serif" font-size="10.00">+ update()</text>
<text text-anchor="start" x="25" y="-300.5" font-family="Helvetica,sans-Serif" font-size="10.00">+ draw()</text>
<text text-anchor="start" x="25" y="-289.5" font-family="Helvetica,sans-Serif" font-size="10.00">+ Component()</text>
<text text-anchor="start" x="25" y="-278.5" font-family="Helvetica,sans-Serif" font-size="10.00">+ ~Component()</text>
<text text-anchor="start" x="25" y="-267.5" font-family="Helvetica,sans-Serif" font-size="10.00">+ onCreate()</text>
<text text-anchor="start" x="25" y="-256.5" font-family="Helvetica,sans-Serif" font-size="10.00">+ onDestroy()</text>
<text text-anchor="start" x="25" y="-245.5" font-family="Helvetica,sans-Serif" font-size="10.00">+ update()</text>
<text text-anchor="start" x="25" y="-234.5" font-family="Helvetica,sans-Serif" font-size="10.00">+ draw()</text>
</a>
</g>
</g>
<!-- Node2&#45;&gt;Node1 -->
<g id="edge1" class="edge">
<title>Node2&#45;&gt;Node1</title>
<path fill="none" stroke="midnightblue" d="M67,-217.24C67,-208.11 67,-198.87 67,-189.78"/>
<polygon fill="none" stroke="midnightblue" points="63.5,-217.49 67,-227.49 70.5,-217.49 63.5,-217.49"/>
</g>
<!-- Node2&#45;&gt;Node2 -->
<g id="edge2" class="edge">
<title>Node2&#45;&gt;Node2</title>
<path fill="none" stroke="#404040" d="M117.11,-336.04C127.52,-333.98 135,-327.47 135,-316.5 135,-310.16 132.5,-305.31 128.38,-301.94"/>
<polygon fill="none" stroke="#404040" points="128.09,-301.82 120.98,-303.05 117.11,-296.96 124.22,-295.73 128.09,-301.82"/>
<text text-anchor="middle" x="156.5" y="-314" font-family="Helvetica,sans-Serif" font-size="10.00"> #parent</text>
</g>
</g>
</svg>
