<?xml version="1.0" encoding="UTF-8" standalone="no"?>
<!DOCTYPE svg PUBLIC "-//W3C//DTD SVG 1.1//EN"
 "http://www.w3.org/Graphics/SVG/1.1/DTD/svg11.dtd">
<!-- Generated by graphviz version 2.43.0 (0)
 -->
<!-- Title: BStateMachine Pages: 1 -->
<svg width="537pt" height="1014pt"
 viewBox="0.00 0.00 537.00 1014.00" xmlns="http://www.w3.org/2000/svg" xmlns:xlink="http://www.w3.org/1999/xlink">
<g id="graph0" class="graph" transform="scale(1 1) rotate(0) translate(4 1010)">
<title>BStateMachine</title>
<!-- Node1 -->
<g id="node1" class="node">
<title>Node1</title>
<g id="a_node1"><a xlink:title=" ">
<polygon fill="#bfbfbf" stroke="black" points="28,-607 28,-708 170,-708 170,-607 28,-607"/>
<text text-anchor="middle" x="99" y="-696" font-family="Helvetica,sans-Serif" font-size="10.00">BStateMachine</text>
<polyline fill="none" stroke="black" points="28,-689 170,-689 "/>
<text text-anchor="middle" x="99" y="-677" font-family="Helvetica,sans-Serif" font-size="10.00"> </text>
<polyline fill="none" stroke="black" points="28,-670 170,-670 "/>
<text text-anchor="start" x="36" y="-658" font-family="Helvetica,sans-Serif" font-size="10.00">+ BStateMachine()</text>
<text text-anchor="start" x="36" y="-647" font-family="Helvetica,sans-Serif" font-size="10.00">+ ~BStateMachine()</text>
<text text-anchor="start" x="36" y="-636" font-family="Helvetica,sans-Serif" font-size="10.00">+ setInitialState()</text>
<text text-anchor="start" x="36" y="-625" font-family="Helvetica,sans-Serif" font-size="10.00">+ update()</text>
<text text-anchor="start" x="36" y="-614" font-family="Helvetica,sans-Serif" font-size="10.00">+ getCurrentStateName()</text>
</a>
</g>
</g>
<!-- Node3 -->
<g id="node3" class="node">
<title>Node3</title>
<g id="a_node3"><a xlink:href="classNPC__Actor.html" target="_top" xlink:title=" ">
<polygon fill="none" stroke="black" points="98,-276.5 98,-498.5 278,-498.5 278,-276.5 98,-276.5"/>
<text text-anchor="middle" x="188" y="-486.5" font-family="Helvetica,sans-Serif" font-size="10.00">NPC_Actor</text>
<polyline fill="none" stroke="black" points="98,-479.5 278,-479.5 "/>
<text text-anchor="start" x="106" y="-467.5" font-family="Helvetica,sans-Serif" font-size="10.00">&#45; health</text>
<text text-anchor="start" x="106" y="-456.5" font-family="Helvetica,sans-Serif" font-size="10.00">&#45; npc_collision</text>
<polyline fill="none" stroke="black" points="98,-449.5 278,-449.5 "/>
<text text-anchor="start" x="106" y="-437.5" font-family="Helvetica,sans-Serif" font-size="10.00">+ NPC_Actor()</text>
<text text-anchor="start" x="106" y="-426.5" font-family="Helvetica,sans-Serif" font-size="10.00">+ ~NPC_Actor()</text>
<text text-anchor="start" x="106" y="-415.5" font-family="Helvetica,sans-Serif" font-size="10.00">+ onCreate()</text>
<text text-anchor="start" x="106" y="-404.5" font-family="Helvetica,sans-Serif" font-size="10.00">+ onDestroy()</text>
<text text-anchor="start" x="106" y="-393.5" font-family="Helvetica,sans-Serif" font-size="10.00">+ update()</text>
<text text-anchor="start" x="106" y="-382.5" font-family="Helvetica,sans-Serif" font-size="10.00">+ input()</text>
<text text-anchor="start" x="106" y="-371.5" font-family="Helvetica,sans-Serif" font-size="10.00">+ draw()</text>
<text text-anchor="start" x="106" y="-360.5" font-family="Helvetica,sans-Serif" font-size="10.00">+ collison_update()</text>
<text text-anchor="start" x="106" y="-349.5" font-family="Helvetica,sans-Serif" font-size="10.00">+ get_health()</text>
<text text-anchor="start" x="106" y="-338.5" font-family="Helvetica,sans-Serif" font-size="10.00">+ set_health()</text>
<text text-anchor="start" x="106" y="-327.5" font-family="Helvetica,sans-Serif" font-size="10.00">+ get_collision()</text>
<text text-anchor="start" x="106" y="-316.5" font-family="Helvetica,sans-Serif" font-size="10.00">+ set_collision()</text>
<text text-anchor="start" x="106" y="-305.5" font-family="Helvetica,sans-Serif" font-size="10.00">+ set_colour()</text>
<text text-anchor="start" x="106" y="-294.5" font-family="Helvetica,sans-Serif" font-size="10.00">+ checkDistanceBetweenPlayer()</text>
<text text-anchor="start" x="106" y="-283.5" font-family="Helvetica,sans-Serif" font-size="10.00">+ readStateMachine()</text>
</a>
</g>
</g>
<!-- Node1&#45;&gt;Node3 -->
<g id="edge7" class="edge">
<title>Node1&#45;&gt;Node3</title>
<path fill="none" stroke="#404040" d="M72.86,-607C62.07,-579.83 54.47,-545.89 66,-517 71.91,-502.2 80.42,-488.13 90.24,-475.1"/>
<polygon fill="none" stroke="#404040" points="90.52,-474.74 91.12,-467.56 97.98,-465.34 97.38,-472.53 90.52,-474.74"/>
<text text-anchor="middle" x="102.5" y="-520" font-family="Helvetica,sans-Serif" font-size="10.00"> &#45;stateMachine</text>
</g>
<!-- Node2 -->
<g id="node2" class="node">
<title>Node2</title>
<g id="a_node2"><a xlink:href="classBState.html" target="_top" xlink:title=" ">
<polygon fill="none" stroke="black" points="47,-860.5 47,-972.5 151,-972.5 151,-860.5 47,-860.5"/>
<text text-anchor="middle" x="99" y="-960.5" font-family="Helvetica,sans-Serif" font-size="10.00">BState</text>
<polyline fill="none" stroke="black" points="47,-953.5 151,-953.5 "/>
<text text-anchor="start" x="55" y="-941.5" font-family="Helvetica,sans-Serif" font-size="10.00">&#45; transitions</text>
<text text-anchor="start" x="55" y="-930.5" font-family="Helvetica,sans-Serif" font-size="10.00">&#45; name</text>
<polyline fill="none" stroke="black" points="47,-923.5 151,-923.5 "/>
<text text-anchor="start" x="55" y="-911.5" font-family="Helvetica,sans-Serif" font-size="10.00">+ BState()</text>
<text text-anchor="start" x="55" y="-900.5" font-family="Helvetica,sans-Serif" font-size="10.00">+ ~BState()</text>
<text text-anchor="start" x="55" y="-889.5" font-family="Helvetica,sans-Serif" font-size="10.00">+ getTransitions()</text>
<text text-anchor="start" x="55" y="-878.5" font-family="Helvetica,sans-Serif" font-size="10.00">+ addTransition()</text>
<text text-anchor="start" x="55" y="-867.5" font-family="Helvetica,sans-Serif" font-size="10.00">+ getName()</text>
</a>
</g>
</g>
<!-- Node2&#45;&gt;Node1 -->
<g id="edge1" class="edge">
<title>Node2&#45;&gt;Node1</title>
<path fill="none" stroke="#404040" d="M99,-860.37C99,-819.29 99,-763.17 99,-720.53"/>
<polygon fill="none" stroke="#404040" points="99,-720.32 95,-714.32 99,-708.32 103,-714.32 99,-720.32"/>
<text text-anchor="middle" x="132.5" y="-801" font-family="Helvetica,sans-Serif" font-size="10.00"> &#45;currentState</text>
<text text-anchor="middle" x="132.5" y="-790" font-family="Helvetica,sans-Serif" font-size="10.00">&#45;initialState</text>
</g>
<!-- Node2&#45;&gt;Node3 -->
<g id="edge6" class="edge">
<title>Node2&#45;&gt;Node3</title>
<path fill="none" stroke="#404040" d="M141.21,-860.5C151.87,-844.56 162.43,-826.67 170,-809 210.39,-714.7 211.89,-597.36 205.01,-510.61"/>
<polygon fill="none" stroke="#404040" points="205.01,-510.54 200.51,-504.9 203.99,-498.58 208.48,-504.22 205.01,-510.54"/>
<text text-anchor="middle" x="238.5" y="-660.5" font-family="Helvetica,sans-Serif" font-size="10.00"> &#45;seekPlayer</text>
<text text-anchor="middle" x="238.5" y="-649.5" font-family="Helvetica,sans-Serif" font-size="10.00">&#45;wander</text>
</g>
<!-- Node6 -->
<g id="node6" class="node">
<title>Node6</title>
<g id="a_node6"><a xlink:href="classTransition.html" target="_top" xlink:title=" ">
<polygon fill="none" stroke="black" points="30.5,-0.5 30.5,-90.5 137.5,-90.5 137.5,-0.5 30.5,-0.5"/>
<text text-anchor="middle" x="84" y="-78.5" font-family="Helvetica,sans-Serif" font-size="10.00">Transition</text>
<polyline fill="none" stroke="black" points="30.5,-71.5 137.5,-71.5 "/>
<text text-anchor="middle" x="84" y="-59.5" font-family="Helvetica,sans-Serif" font-size="10.00"> </text>
<polyline fill="none" stroke="black" points="30.5,-52.5 137.5,-52.5 "/>
<text text-anchor="start" x="38.5" y="-40.5" font-family="Helvetica,sans-Serif" font-size="10.00">+ Transition()</text>
<text text-anchor="start" x="38.5" y="-29.5" font-family="Helvetica,sans-Serif" font-size="10.00">+ ~Transition()</text>
<text text-anchor="start" x="38.5" y="-18.5" font-family="Helvetica,sans-Serif" font-size="10.00">+ isTriggered()</text>
<text text-anchor="start" x="38.5" y="-7.5" font-family="Helvetica,sans-Serif" font-size="10.00">+ getTargetState()</text>
</a>
</g>
</g>
<!-- Node2&#45;&gt;Node6 -->
<g id="edge9" class="edge">
<title>Node2&#45;&gt;Node6</title>
<path fill="none" stroke="#404040" d="M63.31,-860.46C47.52,-833.8 30.05,-800.75 19,-769 2.61,-721.94 0,-708.33 0,-658.5 0,-658.5 0,-658.5 0,-177 0,-148.95 13.89,-122.14 30.37,-100.19"/>
<polygon fill="none" stroke="#404040" points="30.37,-100.19 30.96,-93 37.82,-90.78 37.23,-97.96 30.37,-100.19"/>
<text text-anchor="middle" x="31" y="-385" font-family="Helvetica,sans-Serif" font-size="10.00"> &#45;targetState</text>
</g>
<!-- Node3&#45;&gt;Node1 -->
<g id="edge2" class="edge">
<title>Node3&#45;&gt;Node1</title>
<path fill="none" stroke="#404040" d="M151.45,-498.55C140.49,-531.58 128.85,-566.6 119.34,-595.26"/>
<polygon fill="none" stroke="#404040" points="119.31,-595.33 121.22,-602.29 115.53,-606.72 113.63,-599.76 119.31,-595.33"/>
<text text-anchor="middle" x="159" y="-520" font-family="Helvetica,sans-Serif" font-size="10.00"> &#45;actor</text>
</g>
<!-- Node7 -->
<g id="node7" class="node">
<title>Node7</title>
<g id="a_node7"><a xlink:href="classCondition.html" target="_top" xlink:title=" ">
<polygon fill="none" stroke="black" points="172,-138.5 172,-217.5 262,-217.5 262,-138.5 172,-138.5"/>
<text text-anchor="middle" x="217" y="-205.5" font-family="Helvetica,sans-Serif" font-size="10.00">Condition</text>
<polyline fill="none" stroke="black" points="172,-198.5 262,-198.5 "/>
<text text-anchor="middle" x="217" y="-186.5" font-family="Helvetica,sans-Serif" font-size="10.00"> </text>
<polyline fill="none" stroke="black" points="172,-179.5 262,-179.5 "/>
<text text-anchor="start" x="180" y="-167.5" font-family="Helvetica,sans-Serif" font-size="10.00">+ Condition()</text>
<text text-anchor="start" x="180" y="-156.5" font-family="Helvetica,sans-Serif" font-size="10.00">+ ~Condition()</text>
<text text-anchor="start" x="180" y="-145.5" font-family="Helvetica,sans-Serif" font-size="10.00">+ test()</text>
</a>
</g>
</g>
<!-- Node3&#45;&gt;Node7 -->
<g id="edge11" class="edge">
<title>Node3&#45;&gt;Node7</title>
<path fill="none" stroke="#404040" d="M211.5,-276.29C212.44,-270.12 213.29,-263.99 214,-258 215.09,-248.9 215.81,-239.18 216.29,-229.77"/>
<polygon fill="none" stroke="#404040" points="216.29,-229.66 212.54,-223.5 216.78,-217.67 220.53,-223.83 216.29,-229.66"/>
<text text-anchor="middle" x="233.5" y="-244.5" font-family="Helvetica,sans-Serif" font-size="10.00"> #actor</text>
</g>
<!-- Node4 -->
<g id="node4" class="node">
<title>Node4</title>
<g id="a_node4"><a xlink:href="classActor.html" target="_top" xlink:title=" ">
<polygon fill="none" stroke="black" points="343,-546.5 343,-768.5 493,-768.5 493,-546.5 343,-546.5"/>
<text text-anchor="middle" x="418" y="-756.5" font-family="Helvetica,sans-Serif" font-size="10.00">Actor</text>
<polyline fill="none" stroke="black" points="343,-749.5 493,-749.5 "/>
<text text-anchor="start" x="351" y="-737.5" font-family="Helvetica,sans-Serif" font-size="10.00">&#45; components</text>
<polyline fill="none" stroke="black" points="343,-730.5 493,-730.5 "/>
<text text-anchor="start" x="351" y="-718.5" font-family="Helvetica,sans-Serif" font-size="10.00">+ Actor()</text>
<text text-anchor="start" x="351" y="-707.5" font-family="Helvetica,sans-Serif" font-size="10.00">+ ~Actor()</text>
<text text-anchor="start" x="351" y="-696.5" font-family="Helvetica,sans-Serif" font-size="10.00">+ onCreate()</text>
<text text-anchor="start" x="351" y="-685.5" font-family="Helvetica,sans-Serif" font-size="10.00">+ onDestroy()</text>
<text text-anchor="start" x="351" y="-674.5" font-family="Helvetica,sans-Serif" font-size="10.00">+ update()</text>
<text text-anchor="start" x="351" y="-663.5" font-family="Helvetica,sans-Serif" font-size="10.00">+ draw()</text>
<text text-anchor="start" x="351" y="-652.5" font-family="Helvetica,sans-Serif" font-size="10.00">+ AddComponent()</text>
<text text-anchor="start" x="351" y="-641.5" font-family="Helvetica,sans-Serif" font-size="10.00">+ AddComponent()</text>
<text text-anchor="start" x="351" y="-630.5" font-family="Helvetica,sans-Serif" font-size="10.00">+ GetComponent()</text>
<text text-anchor="start" x="351" y="-619.5" font-family="Helvetica,sans-Serif" font-size="10.00">+ RemoveComponent()</text>
<text text-anchor="start" x="351" y="-608.5" font-family="Helvetica,sans-Serif" font-size="10.00">+ RemoveAllComponents()</text>
<text text-anchor="start" x="351" y="-597.5" font-family="Helvetica,sans-Serif" font-size="10.00">+ ListComponents()</text>
<text text-anchor="start" x="351" y="-586.5" font-family="Helvetica,sans-Serif" font-size="10.00">&#45; Actor()</text>
<text text-anchor="start" x="351" y="-575.5" font-family="Helvetica,sans-Serif" font-size="10.00">&#45; Actor()</text>
<text text-anchor="start" x="351" y="-564.5" font-family="Helvetica,sans-Serif" font-size="10.00">&#45; operator=()</text>
<text text-anchor="start" x="351" y="-553.5" font-family="Helvetica,sans-Serif" font-size="10.00">&#45; operator=()</text>
</a>
</g>
</g>
<!-- Node4&#45;&gt;Node3 -->
<g id="edge3" class="edge">
<title>Node4&#45;&gt;Node3</title>
<path fill="none" stroke="midnightblue" d="M341.63,-537.75C336.18,-530.6 330.61,-523.63 325,-517 310.77,-500.2 294.53,-483.33 278.31,-467.59"/>
<polygon fill="none" stroke="midnightblue" points="339.18,-540.32 347.98,-546.22 344.78,-536.12 339.18,-540.32"/>
</g>
<!-- Node5 -->
<g id="node5" class="node">
<title>Node5</title>
<g id="a_node5"><a xlink:href="classComponent.html" target="_top" xlink:title=" ">
<polygon fill="none" stroke="black" points="368,-827.5 368,-1005.5 468,-1005.5 468,-827.5 368,-827.5"/>
<text text-anchor="middle" x="418" y="-993.5" font-family="Helvetica,sans-Serif" font-size="10.00">Component</text>
<polyline fill="none" stroke="black" points="368,-986.5 468,-986.5 "/>
<text text-anchor="start" x="376" y="-974.5" font-family="Helvetica,sans-Serif" font-size="10.00"># isCreated</text>
<polyline fill="none" stroke="black" points="368,-967.5 468,-967.5 "/>
<text text-anchor="start" x="376" y="-955.5" font-family="Helvetica,sans-Serif" font-size="10.00">+ Component()</text>
<text text-anchor="start" x="376" y="-944.5" font-family="Helvetica,sans-Serif" font-size="10.00">+ ~Component()</text>
<text text-anchor="start" x="376" y="-933.5" font-family="Helvetica,sans-Serif" font-size="10.00">+ onCreate()</text>
<text text-anchor="start" x="376" y="-922.5" font-family="Helvetica,sans-Serif" font-size="10.00">+ onDestroy()</text>
<text text-anchor="start" x="376" y="-911.5" font-family="Helvetica,sans-Serif" font-size="10.00">+ update()</text>
<text text-anchor="start" x="376" y="-900.5" font-family="Helvetica,sans-Serif" font-size="10.00">+ draw()</text>
<text text-anchor="start" x="376" y="-889.5" font-family="Helvetica,sans-Serif" font-size="10.00">+ Component()</text>
<text text-anchor="start" x="376" y="-878.5" font-family="Helvetica,sans-Serif" font-size="10.00">+ ~Component()</text>
<text text-anchor="start" x="376" y="-867.5" font-family="Helvetica,sans-Serif" font-size="10.00">+ onCreate()</text>
<text text-anchor="start" x="376" y="-856.5" font-family="Helvetica,sans-Serif" font-size="10.00">+ onDestroy()</text>
<text text-anchor="start" x="376" y="-845.5" font-family="Helvetica,sans-Serif" font-size="10.00">+ update()</text>
<text text-anchor="start" x="376" y="-834.5" font-family="Helvetica,sans-Serif" font-size="10.00">+ draw()</text>
</a>
</g>
</g>
<!-- Node5&#45;&gt;Node4 -->
<g id="edge4" class="edge">
<title>Node5&#45;&gt;Node4</title>
<path fill="none" stroke="midnightblue" d="M418,-817.12C418,-801.29 418,-784.81 418,-768.73"/>
<polygon fill="none" stroke="midnightblue" points="414.5,-817.41 418,-827.41 421.5,-817.41 414.5,-817.41"/>
</g>
<!-- Node5&#45;&gt;Node5 -->
<g id="edge5" class="edge">
<title>Node5&#45;&gt;Node5</title>
<path fill="none" stroke="#404040" d="M468.11,-937.85C478.52,-935.6 486,-928.48 486,-916.5 486,-909.38 483.36,-903.98 479.04,-900.3"/>
<polygon fill="none" stroke="#404040" points="478.97,-900.27 471.84,-901.33 468.11,-895.15 475.25,-894.09 478.97,-900.27"/>
<text text-anchor="middle" x="507.5" y="-914" font-family="Helvetica,sans-Serif" font-size="10.00"> #parent</text>
</g>
<!-- Node6&#45;&gt;Node3 -->
<g id="edge8" class="edge">
<title>Node6&#45;&gt;Node3</title>
<path fill="none" stroke="#404040" d="M80.84,-90.77C79.62,-125.95 80.81,-176.06 93,-218 97.6,-233.83 103.93,-249.78 111.16,-265.23"/>
<polygon fill="none" stroke="#404040" points="111.33,-265.59 117.55,-269.24 116.56,-276.38 110.35,-272.73 111.33,-265.59"/>
<text text-anchor="middle" x="128" y="-181" font-family="Helvetica,sans-Serif" font-size="10.00"> &#45;outTransition</text>
<text text-anchor="middle" x="128" y="-170" font-family="Helvetica,sans-Serif" font-size="10.00">&#45;inTransition</text>
</g>
<!-- Node7&#45;&gt;Node3 -->
<g id="edge12" class="edge">
<title>Node7&#45;&gt;Node3</title>
<path fill="none" stroke="#404040" d="M171.87,-206.53C162.24,-214.73 153.36,-224.61 148,-236 143.79,-244.94 141.6,-254.4 140.93,-264.04"/>
<polygon fill="none" stroke="#404040" points="140.93,-264.34 144.9,-270.36 140.87,-276.34 136.9,-270.32 140.93,-264.34"/>
<text text-anchor="middle" x="179" y="-250" font-family="Helvetica,sans-Serif" font-size="10.00"> &#45;ifInRange</text>
<text text-anchor="middle" x="179" y="-239" font-family="Helvetica,sans-Serif" font-size="10.00">&#45;outOfRange</text>
</g>
<!-- Node7&#45;&gt;Node6 -->
<g id="edge10" class="edge">
<title>Node7&#45;&gt;Node6</title>
<path fill="none" stroke="#404040" d="M177.46,-138.2C165.02,-126 151.07,-112.31 137.81,-99.3"/>
<polygon fill="none" stroke="#404040" points="137.79,-99.28 130.71,-97.94 129.23,-90.88 136.31,-92.23 137.79,-99.28"/>
<text text-anchor="middle" x="184" y="-112" font-family="Helvetica,sans-Serif" font-size="10.00"> &#45;condition</text>
</g>
<!-- Node8 -->
<g id="node8" class="node">
<title>Node8</title>
<g id="a_node8"><a xlink:title=" ">
<polygon fill="none" stroke="#bfbfbf" points="285,-629 285,-686 325,-686 325,-629 285,-629"/>
<text text-anchor="middle" x="305" y="-674" font-family="Helvetica,sans-Serif" font-size="10.00">vec3</text>
<polyline fill="none" stroke="#bfbfbf" points="285,-667 325,-667 "/>
<text text-anchor="middle" x="305" y="-655" font-family="Helvetica,sans-Serif" font-size="10.00"> </text>
<polyline fill="none" stroke="#bfbfbf" points="285,-648 325,-648 "/>
<text text-anchor="middle" x="305" y="-636" font-family="Helvetica,sans-Serif" font-size="10.00"> </text>
</a>
</g>
</g>
<!-- Node8&#45;&gt;Node3 -->
<g id="edge13" class="edge">
<title>Node8&#45;&gt;Node3</title>
<path fill="none" stroke="#404040" d="M298.01,-628.75C291.93,-606.1 282.34,-573.46 271,-546 266.08,-534.08 260.55,-521.86 254.75,-509.76"/>
<polygon fill="none" stroke="#404040" points="254.62,-509.48 248.39,-505.83 249.36,-498.69 255.59,-502.33 254.62,-509.48"/>
<text text-anchor="middle" x="291" y="-520" font-family="Helvetica,sans-Serif" font-size="10.00"> &#45;npc_colour</text>
</g>
</g>
</svg>
