<?xml version="1.0" encoding="UTF-8" standalone="no"?>
<!DOCTYPE svg PUBLIC "-//W3C//DTD SVG 1.1//EN"
 "http://www.w3.org/Graphics/SVG/1.1/DTD/svg11.dtd">
<!-- Generated by graphviz version 2.43.0 (0)
 -->
<!-- Title: Animate_Actor Pages: 1 -->
<svg width="194pt" height="674pt"
 viewBox="0.00 0.00 194.00 674.00" xmlns="http://www.w3.org/2000/svg" xmlns:xlink="http://www.w3.org/1999/xlink">
<g id="graph0" class="graph" transform="scale(1 1) rotate(0) translate(4 670)">
<title>Animate_Actor</title>
<!-- Node1 -->
<g id="node1" class="node">
<title>Node1</title>
<g id="a_node1"><a xlink:title=" ">
<polygon fill="#bfbfbf" stroke="black" points="13,-0.5 13,-189.5 137,-189.5 137,-0.5 13,-0.5"/>
<text text-anchor="middle" x="75" y="-177.5" font-family="Helvetica,sans-Serif" font-size="10.00">Animate_Actor</text>
<polyline fill="none" stroke="black" points="13,-170.5 137,-170.5 "/>
<text text-anchor="start" x="21" y="-158.5" font-family="Helvetica,sans-Serif" font-size="10.00">&#45; animation_last_time</text>
<text text-anchor="start" x="21" y="-147.5" font-family="Helvetica,sans-Serif" font-size="10.00">&#45; curr_frame</text>
<text text-anchor="start" x="21" y="-136.5" font-family="Helvetica,sans-Serif" font-size="10.00">&#45; animation_frame</text>
<text text-anchor="start" x="21" y="-125.5" font-family="Helvetica,sans-Serif" font-size="10.00">&#45; max_frame</text>
<text text-anchor="start" x="21" y="-114.5" font-family="Helvetica,sans-Serif" font-size="10.00">&#45; animation</text>
<text text-anchor="start" x="21" y="-103.5" font-family="Helvetica,sans-Serif" font-size="10.00">&#45; texture</text>
<polyline fill="none" stroke="black" points="13,-96.5 137,-96.5 "/>
<text text-anchor="start" x="21" y="-84.5" font-family="Helvetica,sans-Serif" font-size="10.00">+ Animate_Actor()</text>
<text text-anchor="start" x="21" y="-73.5" font-family="Helvetica,sans-Serif" font-size="10.00">+ ~Animate_Actor()</text>
<text text-anchor="start" x="21" y="-62.5" font-family="Helvetica,sans-Serif" font-size="10.00">+ onCreate()</text>
<text text-anchor="start" x="21" y="-51.5" font-family="Helvetica,sans-Serif" font-size="10.00">+ onDestroy()</text>
<text text-anchor="start" x="21" y="-40.5" font-family="Helvetica,sans-Serif" font-size="10.00">+ update()</text>
<text text-anchor="start" x="21" y="-29.5" font-family="Helvetica,sans-Serif" font-size="10.00">+ input()</text>
<text text-anchor="start" x="21" y="-18.5" font-family="Helvetica,sans-Serif" font-size="10.00">+ draw()</text>
<text text-anchor="start" x="21" y="-7.5" font-family="Helvetica,sans-Serif" font-size="10.00">+ getAnimation()</text>
</a>
</g>
</g>
<!-- Node2 -->
<g id="node2" class="node">
<title>Node2</title>
<g id="a_node2"><a xlink:href="classActor.html" target="_top" xlink:title=" ">
<polygon fill="none" stroke="black" points="0,-227.5 0,-449.5 150,-449.5 150,-227.5 0,-227.5"/>
<text text-anchor="middle" x="75" y="-437.5" font-family="Helvetica,sans-Serif" font-size="10.00">Actor</text>
<polyline fill="none" stroke="black" points="0,-430.5 150,-430.5 "/>
<text text-anchor="start" x="8" y="-418.5" font-family="Helvetica,sans-Serif" font-size="10.00">&#45; components</text>
<polyline fill="none" stroke="black" points="0,-411.5 150,-411.5 "/>
<text text-anchor="start" x="8" y="-399.5" font-family="Helvetica,sans-Serif" font-size="10.00">+ Actor()</text>
<text text-anchor="start" x="8" y="-388.5" font-family="Helvetica,sans-Serif" font-size="10.00">+ ~Actor()</text>
<text text-anchor="start" x="8" y="-377.5" font-family="Helvetica,sans-Serif" font-size="10.00">+ onCreate()</text>
<text text-anchor="start" x="8" y="-366.5" font-family="Helvetica,sans-Serif" font-size="10.00">+ onDestroy()</text>
<text text-anchor="start" x="8" y="-355.5" font-family="Helvetica,sans-Serif" font-size="10.00">+ update()</text>
<text text-anchor="start" x="8" y="-344.5" font-family="Helvetica,sans-Serif" font-size="10.00">+ draw()</text>
<text text-anchor="start" x="8" y="-333.5" font-family="Helvetica,sans-Serif" font-size="10.00">+ AddComponent()</text>
<text text-anchor="start" x="8" y="-322.5" font-family="Helvetica,sans-Serif" font-size="10.00">+ AddComponent()</text>
<text text-anchor="start" x="8" y="-311.5" font-family="Helvetica,sans-Serif" font-size="10.00">+ GetComponent()</text>
<text text-anchor="start" x="8" y="-300.5" font-family="Helvetica,sans-Serif" font-size="10.00">+ RemoveComponent()</text>
<text text-anchor="start" x="8" y="-289.5" font-family="Helvetica,sans-Serif" font-size="10.00">+ RemoveAllComponents()</text>
<text text-anchor="start" x="8" y="-278.5" font-family="Helvetica,sans-Serif" font-size="10.00">+ ListComponents()</text>
<text text-anchor="start" x="8" y="-267.5" font-family="Helvetica,sans-Serif" font-size="10.00">&#45; Actor()</text>
<text text-anchor="start" x="8" y="-256.5" font-family="Helvetica,sans-Serif" font-size="10.00">&#45; Actor()</text>
<text text-anchor="start" x="8" y="-245.5" font-family="Helvetica,sans-Serif" font-size="10.00">&#45; operator=()</text>
<text text-anchor="start" x="8" y="-234.5" font-family="Helvetica,sans-Serif" font-size="10.00">&#45; operator=()</text>
</a>
</g>
</g>
<!-- Node2&#45;&gt;Node1 -->
<g id="edge1" class="edge">
<title>Node2&#45;&gt;Node1</title>
<path fill="none" stroke="midnightblue" d="M75,-217.32C75,-208.06 75,-198.79 75,-189.74"/>
<polygon fill="none" stroke="midnightblue" points="71.5,-217.35 75,-227.35 78.5,-217.35 71.5,-217.35"/>
</g>
<!-- Node3 -->
<g id="node3" class="node">
<title>Node3</title>
<g id="a_node3"><a xlink:href="classComponent.html" target="_top" xlink:title=" ">
<polygon fill="none" stroke="black" points="25,-487.5 25,-665.5 125,-665.5 125,-487.5 25,-487.5"/>
<text text-anchor="middle" x="75" y="-653.5" font-family="Helvetica,sans-Serif" font-size="10.00">Component</text>
<polyline fill="none" stroke="black" points="25,-646.5 125,-646.5 "/>
<text text-anchor="start" x="33" y="-634.5" font-family="Helvetica,sans-Serif" font-size="10.00"># isCreated</text>
<polyline fill="none" stroke="black" points="25,-627.5 125,-627.5 "/>
<text text-anchor="start" x="33" y="-615.5" font-family="Helvetica,sans-Serif" font-size="10.00">+ Component()</text>
<text text-anchor="start" x="33" y="-604.5" font-family="Helvetica,sans-Serif" font-size="10.00">+ ~Component()</text>
<text text-anchor="start" x="33" y="-593.5" font-family="Helvetica,sans-Serif" font-size="10.00">+ onCreate()</text>
<text text-anchor="start" x="33" y="-582.5" font-family="Helvetica,sans-Serif" font-size="10.00">+ onDestroy()</text>
<text text-anchor="start" x="33" y="-571.5" font-family="Helvetica,sans-Serif" font-size="10.00">+ update()</text>
<text text-anchor="start" x="33" y="-560.5" font-family="Helvetica,sans-Serif" font-size="10.00">+ draw()</text>
<text text-anchor="start" x="33" y="-549.5" font-family="Helvetica,sans-Serif" font-size="10.00">+ Component()</text>
<text text-anchor="start" x="33" y="-538.5" font-family="Helvetica,sans-Serif" font-size="10.00">+ ~Component()</text>
<text text-anchor="start" x="33" y="-527.5" font-family="Helvetica,sans-Serif" font-size="10.00">+ onCreate()</text>
<text text-anchor="start" x="33" y="-516.5" font-family="Helvetica,sans-Serif" font-size="10.00">+ onDestroy()</text>
<text text-anchor="start" x="33" y="-505.5" font-family="Helvetica,sans-Serif" font-size="10.00">+ update()</text>
<text text-anchor="start" x="33" y="-494.5" font-family="Helvetica,sans-Serif" font-size="10.00">+ draw()</text>
</a>
</g>
</g>
<!-- Node3&#45;&gt;Node2 -->
<g id="edge2" class="edge">
<title>Node3&#45;&gt;Node2</title>
<path fill="none" stroke="midnightblue" d="M75,-477.1C75,-468.01 75,-458.75 75,-449.56"/>
<polygon fill="none" stroke="midnightblue" points="71.5,-477.29 75,-487.29 78.5,-477.29 71.5,-477.29"/>
</g>
<!-- Node3&#45;&gt;Node3 -->
<g id="edge3" class="edge">
<title>Node3&#45;&gt;Node3</title>
<path fill="none" stroke="#404040" d="M125.11,-596.04C135.52,-593.98 143,-587.47 143,-576.5 143,-570.16 140.5,-565.31 136.38,-561.94"/>
<polygon fill="none" stroke="#404040" points="136.09,-561.82 128.98,-563.05 125.11,-556.96 132.22,-555.73 136.09,-561.82"/>
<text text-anchor="middle" x="164.5" y="-574" font-family="Helvetica,sans-Serif" font-size="10.00"> #parent</text>
</g>
</g>
</svg>
