<?xml version="1.0" encoding="UTF-8" standalone="no"?>
<!DOCTYPE svg PUBLIC "-//W3C//DTD SVG 1.1//EN"
 "http://www.w3.org/Graphics/SVG/1.1/DTD/svg11.dtd">
<!-- Generated by graphviz version 2.43.0 (0)
 -->
<!-- Title: Actor Pages: 1 -->
<svg width="1424pt" height="804pt"
 viewBox="0.00 0.00 1424.00 804.00" xmlns="http://www.w3.org/2000/svg" xmlns:xlink="http://www.w3.org/1999/xlink">
<g id="graph0" class="graph" transform="scale(1 1) rotate(0) translate(4 800)">
<title>Actor</title>
<!-- Node1 -->
<g id="node1" class="node">
<title>Node1</title>
<g id="a_node1"><a xlink:title=" ">
<polygon fill="#bfbfbf" stroke="black" points="671,-347.5 671,-569.5 821,-569.5 821,-347.5 671,-347.5"/>
<text text-anchor="middle" x="746" y="-557.5" font-family="Helvetica,sans-Serif" font-size="10.00">Actor</text>
<polyline fill="none" stroke="black" points="671,-550.5 821,-550.5 "/>
<text text-anchor="start" x="679" y="-538.5" font-family="Helvetica,sans-Serif" font-size="10.00">&#45; components</text>
<polyline fill="none" stroke="black" points="671,-531.5 821,-531.5 "/>
<text text-anchor="start" x="679" y="-519.5" font-family="Helvetica,sans-Serif" font-size="10.00">+ Actor()</text>
<text text-anchor="start" x="679" y="-508.5" font-family="Helvetica,sans-Serif" font-size="10.00">+ ~Actor()</text>
<text text-anchor="start" x="679" y="-497.5" font-family="Helvetica,sans-Serif" font-size="10.00">+ onCreate()</text>
<text text-anchor="start" x="679" y="-486.5" font-family="Helvetica,sans-Serif" font-size="10.00">+ onDestroy()</text>
<text text-anchor="start" x="679" y="-475.5" font-family="Helvetica,sans-Serif" font-size="10.00">+ update()</text>
<text text-anchor="start" x="679" y="-464.5" font-family="Helvetica,sans-Serif" font-size="10.00">+ draw()</text>
<text text-anchor="start" x="679" y="-453.5" font-family="Helvetica,sans-Serif" font-size="10.00">+ AddComponent()</text>
<text text-anchor="start" x="679" y="-442.5" font-family="Helvetica,sans-Serif" font-size="10.00">+ AddComponent()</text>
<text text-anchor="start" x="679" y="-431.5" font-family="Helvetica,sans-Serif" font-size="10.00">+ GetComponent()</text>
<text text-anchor="start" x="679" y="-420.5" font-family="Helvetica,sans-Serif" font-size="10.00">+ RemoveComponent()</text>
<text text-anchor="start" x="679" y="-409.5" font-family="Helvetica,sans-Serif" font-size="10.00">+ RemoveAllComponents()</text>
<text text-anchor="start" x="679" y="-398.5" font-family="Helvetica,sans-Serif" font-size="10.00">+ ListComponents()</text>
<text text-anchor="start" x="679" y="-387.5" font-family="Helvetica,sans-Serif" font-size="10.00">&#45; Actor()</text>
<text text-anchor="start" x="679" y="-376.5" font-family="Helvetica,sans-Serif" font-size="10.00">&#45; Actor()</text>
<text text-anchor="start" x="679" y="-365.5" font-family="Helvetica,sans-Serif" font-size="10.00">&#45; operator=()</text>
<text text-anchor="start" x="679" y="-354.5" font-family="Helvetica,sans-Serif" font-size="10.00">&#45; operator=()</text>
</a>
</g>
</g>
<!-- Node3 -->
<g id="node3" class="node">
<title>Node3</title>
<g id="a_node3"><a xlink:href="classAnimate__Actor.html" target="_top" xlink:title=" ">
<polygon fill="none" stroke="black" points="0,-61 0,-250 124,-250 124,-61 0,-61"/>
<text text-anchor="middle" x="62" y="-238" font-family="Helvetica,sans-Serif" font-size="10.00">Animate_Actor</text>
<polyline fill="none" stroke="black" points="0,-231 124,-231 "/>
<text text-anchor="start" x="8" y="-219" font-family="Helvetica,sans-Serif" font-size="10.00">&#45; animation_last_time</text>
<text text-anchor="start" x="8" y="-208" font-family="Helvetica,sans-Serif" font-size="10.00">&#45; curr_frame</text>
<text text-anchor="start" x="8" y="-197" font-family="Helvetica,sans-Serif" font-size="10.00">&#45; animation_frame</text>
<text text-anchor="start" x="8" y="-186" font-family="Helvetica,sans-Serif" font-size="10.00">&#45; max_frame</text>
<text text-anchor="start" x="8" y="-175" font-family="Helvetica,sans-Serif" font-size="10.00">&#45; animation</text>
<text text-anchor="start" x="8" y="-164" font-family="Helvetica,sans-Serif" font-size="10.00">&#45; texture</text>
<polyline fill="none" stroke="black" points="0,-157 124,-157 "/>
<text text-anchor="start" x="8" y="-145" font-family="Helvetica,sans-Serif" font-size="10.00">+ Animate_Actor()</text>
<text text-anchor="start" x="8" y="-134" font-family="Helvetica,sans-Serif" font-size="10.00">+ ~Animate_Actor()</text>
<text text-anchor="start" x="8" y="-123" font-family="Helvetica,sans-Serif" font-size="10.00">+ onCreate()</text>
<text text-anchor="start" x="8" y="-112" font-family="Helvetica,sans-Serif" font-size="10.00">+ onDestroy()</text>
<text text-anchor="start" x="8" y="-101" font-family="Helvetica,sans-Serif" font-size="10.00">+ update()</text>
<text text-anchor="start" x="8" y="-90" font-family="Helvetica,sans-Serif" font-size="10.00">+ input()</text>
<text text-anchor="start" x="8" y="-79" font-family="Helvetica,sans-Serif" font-size="10.00">+ draw()</text>
<text text-anchor="start" x="8" y="-68" font-family="Helvetica,sans-Serif" font-size="10.00">+ getAnimation()</text>
</a>
</g>
</g>
<!-- Node1&#45;&gt;Node3 -->
<g id="edge2" class="edge">
<title>Node1&#45;&gt;Node3</title>
<path fill="none" stroke="midnightblue" d="M660.82,-446.46C512.12,-425.71 213.35,-376.96 133,-311 113.72,-295.17 99.43,-272.96 88.94,-250.31"/>
<polygon fill="none" stroke="midnightblue" points="660.44,-449.94 670.83,-447.85 661.4,-443.01 660.44,-449.94"/>
</g>
<!-- Node4 -->
<g id="node4" class="node">
<title>Node4</title>
<g id="a_node4"><a xlink:href="classEdge__Actor.html" target="_top" xlink:title=" ">
<polygon fill="none" stroke="black" points="142,-33.5 142,-277.5 268,-277.5 268,-33.5 142,-33.5"/>
<text text-anchor="middle" x="205" y="-265.5" font-family="Helvetica,sans-Serif" font-size="10.00">Edge_Actor</text>
<polyline fill="none" stroke="black" points="142,-258.5 268,-258.5 "/>
<text text-anchor="start" x="150" y="-246.5" font-family="Helvetica,sans-Serif" font-size="10.00">&#45; r</text>
<text text-anchor="start" x="150" y="-235.5" font-family="Helvetica,sans-Serif" font-size="10.00">&#45; g</text>
<text text-anchor="start" x="150" y="-224.5" font-family="Helvetica,sans-Serif" font-size="10.00">&#45; b</text>
<text text-anchor="start" x="150" y="-213.5" font-family="Helvetica,sans-Serif" font-size="10.00">&#45; edge_collision</text>
<text text-anchor="start" x="150" y="-202.5" font-family="Helvetica,sans-Serif" font-size="10.00">&#45; xo</text>
<text text-anchor="start" x="150" y="-191.5" font-family="Helvetica,sans-Serif" font-size="10.00">&#45; yo</text>
<text text-anchor="start" x="150" y="-180.5" font-family="Helvetica,sans-Serif" font-size="10.00">&#45; xd</text>
<text text-anchor="start" x="150" y="-169.5" font-family="Helvetica,sans-Serif" font-size="10.00">&#45; yd</text>
<polyline fill="none" stroke="black" points="142,-162.5 268,-162.5 "/>
<text text-anchor="start" x="150" y="-150.5" font-family="Helvetica,sans-Serif" font-size="10.00">+ Edge_Actor()</text>
<text text-anchor="start" x="150" y="-139.5" font-family="Helvetica,sans-Serif" font-size="10.00">+ ~Edge_Actor()</text>
<text text-anchor="start" x="150" y="-128.5" font-family="Helvetica,sans-Serif" font-size="10.00">+ onCreate()</text>
<text text-anchor="start" x="150" y="-117.5" font-family="Helvetica,sans-Serif" font-size="10.00">+ onDestroy()</text>
<text text-anchor="start" x="150" y="-106.5" font-family="Helvetica,sans-Serif" font-size="10.00">+ update()</text>
<text text-anchor="start" x="150" y="-95.5" font-family="Helvetica,sans-Serif" font-size="10.00">+ input()</text>
<text text-anchor="start" x="150" y="-84.5" font-family="Helvetica,sans-Serif" font-size="10.00">+ draw()</text>
<text text-anchor="start" x="150" y="-73.5" font-family="Helvetica,sans-Serif" font-size="10.00">+ get_edge_collision()</text>
<text text-anchor="start" x="150" y="-62.5" font-family="Helvetica,sans-Serif" font-size="10.00">+ set_xo()</text>
<text text-anchor="start" x="150" y="-51.5" font-family="Helvetica,sans-Serif" font-size="10.00">+ get_xo()</text>
<text text-anchor="start" x="150" y="-40.5" font-family="Helvetica,sans-Serif" font-size="10.00">and 6 more...</text>
</a>
</g>
</g>
<!-- Node1&#45;&gt;Node4 -->
<g id="edge3" class="edge">
<title>Node1&#45;&gt;Node4</title>
<path fill="none" stroke="midnightblue" d="M660.76,-451.45C558.3,-439.98 386.51,-406.8 277,-311 266.2,-301.55 256.9,-290.14 248.94,-277.84"/>
<polygon fill="none" stroke="midnightblue" points="660.44,-454.94 670.76,-452.53 661.19,-447.98 660.44,-454.94"/>
</g>
<!-- Node5 -->
<g id="node5" class="node">
<title>Node5</title>
<g id="a_node5"><a xlink:href="classGun__Actor.html" target="_top" xlink:title=" ">
<polygon fill="none" stroke="black" points="286,-83 286,-228 408,-228 408,-83 286,-83"/>
<text text-anchor="middle" x="347" y="-216" font-family="Helvetica,sans-Serif" font-size="10.00">Gun_Actor</text>
<polyline fill="none" stroke="black" points="286,-209 408,-209 "/>
<text text-anchor="start" x="294" y="-197" font-family="Helvetica,sans-Serif" font-size="10.00">&#45; bullets</text>
<polyline fill="none" stroke="black" points="286,-190 408,-190 "/>
<text text-anchor="start" x="294" y="-178" font-family="Helvetica,sans-Serif" font-size="10.00">+ Gun_Actor()</text>
<text text-anchor="start" x="294" y="-167" font-family="Helvetica,sans-Serif" font-size="10.00">+ ~Gun_Actor()</text>
<text text-anchor="start" x="294" y="-156" font-family="Helvetica,sans-Serif" font-size="10.00">+ onCreate()</text>
<text text-anchor="start" x="294" y="-145" font-family="Helvetica,sans-Serif" font-size="10.00">+ onDestroy()</text>
<text text-anchor="start" x="294" y="-134" font-family="Helvetica,sans-Serif" font-size="10.00">+ update()</text>
<text text-anchor="start" x="294" y="-123" font-family="Helvetica,sans-Serif" font-size="10.00">+ input()</text>
<text text-anchor="start" x="294" y="-112" font-family="Helvetica,sans-Serif" font-size="10.00">+ draw()</text>
<text text-anchor="start" x="294" y="-101" font-family="Helvetica,sans-Serif" font-size="10.00">+ shoot_projectiles()</text>
<text text-anchor="start" x="294" y="-90" font-family="Helvetica,sans-Serif" font-size="10.00">+ get_projectile_list()</text>
</a>
</g>
</g>
<!-- Node1&#45;&gt;Node5 -->
<g id="edge4" class="edge">
<title>Node1&#45;&gt;Node5</title>
<path fill="none" stroke="midnightblue" d="M660.74,-437.81C587.89,-417.12 484.46,-378.03 417,-311 394.13,-288.27 378.01,-256.72 367.06,-228.05"/>
<polygon fill="none" stroke="midnightblue" points="660.24,-441.31 670.81,-440.61 662.11,-434.56 660.24,-441.31"/>
</g>
<!-- Node6 -->
<g id="node6" class="node">
<title>Node6</title>
<g id="a_node6"><a xlink:href="classNPC__Actor.html" target="_top" xlink:title=" ">
<polygon fill="none" stroke="black" points="426,-0.5 426,-310.5 606,-310.5 606,-0.5 426,-0.5"/>
<text text-anchor="middle" x="516" y="-298.5" font-family="Helvetica,sans-Serif" font-size="10.00">NPC_Actor</text>
<polyline fill="none" stroke="black" points="426,-291.5 606,-291.5 "/>
<text text-anchor="start" x="434" y="-279.5" font-family="Helvetica,sans-Serif" font-size="10.00">&#45; health</text>
<text text-anchor="start" x="434" y="-268.5" font-family="Helvetica,sans-Serif" font-size="10.00">&#45; npc_colour</text>
<text text-anchor="start" x="434" y="-257.5" font-family="Helvetica,sans-Serif" font-size="10.00">&#45; npc_collision</text>
<text text-anchor="start" x="434" y="-246.5" font-family="Helvetica,sans-Serif" font-size="10.00">&#45; stateMachine</text>
<text text-anchor="start" x="434" y="-235.5" font-family="Helvetica,sans-Serif" font-size="10.00">&#45; seekPlayer</text>
<text text-anchor="start" x="434" y="-224.5" font-family="Helvetica,sans-Serif" font-size="10.00">&#45; wander</text>
<text text-anchor="start" x="434" y="-213.5" font-family="Helvetica,sans-Serif" font-size="10.00">&#45; ifInRange</text>
<text text-anchor="start" x="434" y="-202.5" font-family="Helvetica,sans-Serif" font-size="10.00">&#45; outOfRange</text>
<text text-anchor="start" x="434" y="-191.5" font-family="Helvetica,sans-Serif" font-size="10.00">&#45; inTransition</text>
<text text-anchor="start" x="434" y="-180.5" font-family="Helvetica,sans-Serif" font-size="10.00">&#45; outTransition</text>
<polyline fill="none" stroke="black" points="426,-173.5 606,-173.5 "/>
<text text-anchor="start" x="434" y="-161.5" font-family="Helvetica,sans-Serif" font-size="10.00">+ NPC_Actor()</text>
<text text-anchor="start" x="434" y="-150.5" font-family="Helvetica,sans-Serif" font-size="10.00">+ ~NPC_Actor()</text>
<text text-anchor="start" x="434" y="-139.5" font-family="Helvetica,sans-Serif" font-size="10.00">+ onCreate()</text>
<text text-anchor="start" x="434" y="-128.5" font-family="Helvetica,sans-Serif" font-size="10.00">+ onDestroy()</text>
<text text-anchor="start" x="434" y="-117.5" font-family="Helvetica,sans-Serif" font-size="10.00">+ update()</text>
<text text-anchor="start" x="434" y="-106.5" font-family="Helvetica,sans-Serif" font-size="10.00">+ input()</text>
<text text-anchor="start" x="434" y="-95.5" font-family="Helvetica,sans-Serif" font-size="10.00">+ draw()</text>
<text text-anchor="start" x="434" y="-84.5" font-family="Helvetica,sans-Serif" font-size="10.00">+ collison_update()</text>
<text text-anchor="start" x="434" y="-73.5" font-family="Helvetica,sans-Serif" font-size="10.00">+ get_health()</text>
<text text-anchor="start" x="434" y="-62.5" font-family="Helvetica,sans-Serif" font-size="10.00">+ set_health()</text>
<text text-anchor="start" x="434" y="-51.5" font-family="Helvetica,sans-Serif" font-size="10.00">+ get_collision()</text>
<text text-anchor="start" x="434" y="-40.5" font-family="Helvetica,sans-Serif" font-size="10.00">+ set_collision()</text>
<text text-anchor="start" x="434" y="-29.5" font-family="Helvetica,sans-Serif" font-size="10.00">+ set_colour()</text>
<text text-anchor="start" x="434" y="-18.5" font-family="Helvetica,sans-Serif" font-size="10.00">+ checkDistanceBetweenPlayer()</text>
<text text-anchor="start" x="434" y="-7.5" font-family="Helvetica,sans-Serif" font-size="10.00">+ readStateMachine()</text>
</a>
</g>
</g>
<!-- Node1&#45;&gt;Node6 -->
<g id="edge5" class="edge">
<title>Node1&#45;&gt;Node6</title>
<path fill="none" stroke="midnightblue" d="M664.17,-370.56C647.32,-351.42 630.12,-330.91 615,-311 612.01,-307.07 609.02,-303.05 606.05,-298.96"/>
<polygon fill="none" stroke="midnightblue" points="661.6,-372.94 670.85,-378.11 666.84,-368.3 661.6,-372.94"/>
</g>
<!-- Node7 -->
<g id="node7" class="node">
<title>Node7</title>
<g id="a_node7"><a xlink:href="classPlatform__Actor.html" target="_top" xlink:title=" ">
<polygon fill="none" stroke="black" points="624,-94 624,-217 740,-217 740,-94 624,-94"/>
<text text-anchor="middle" x="682" y="-205" font-family="Helvetica,sans-Serif" font-size="10.00">Platform_Actor</text>
<polyline fill="none" stroke="black" points="624,-198 740,-198 "/>
<text text-anchor="start" x="632" y="-186" font-family="Helvetica,sans-Serif" font-size="10.00">&#45; projectile_count</text>
<polyline fill="none" stroke="black" points="624,-179 740,-179 "/>
<text text-anchor="start" x="632" y="-167" font-family="Helvetica,sans-Serif" font-size="10.00">+ Platform_Actor()</text>
<text text-anchor="start" x="632" y="-156" font-family="Helvetica,sans-Serif" font-size="10.00">+ ~Platform_Actor()</text>
<text text-anchor="start" x="632" y="-145" font-family="Helvetica,sans-Serif" font-size="10.00">+ onCreate()</text>
<text text-anchor="start" x="632" y="-134" font-family="Helvetica,sans-Serif" font-size="10.00">+ onDestroy()</text>
<text text-anchor="start" x="632" y="-123" font-family="Helvetica,sans-Serif" font-size="10.00">+ update()</text>
<text text-anchor="start" x="632" y="-112" font-family="Helvetica,sans-Serif" font-size="10.00">+ input()</text>
<text text-anchor="start" x="632" y="-101" font-family="Helvetica,sans-Serif" font-size="10.00">+ draw()</text>
</a>
</g>
</g>
<!-- Node1&#45;&gt;Node7 -->
<g id="edge6" class="edge">
<title>Node1&#45;&gt;Node7</title>
<path fill="none" stroke="midnightblue" d="M720.44,-337.27C711.66,-295.98 702.2,-251.52 694.87,-217.02"/>
<polygon fill="none" stroke="midnightblue" points="717.03,-338.07 722.53,-347.13 723.88,-336.62 717.03,-338.07"/>
</g>
<!-- Node8 -->
<g id="node8" class="node">
<title>Node8</title>
<g id="a_node8"><a xlink:href="classPlayer__Actor.html" target="_top" xlink:title=" ">
<polygon fill="none" stroke="black" points="758.5,-33.5 758.5,-277.5 863.5,-277.5 863.5,-33.5 758.5,-33.5"/>
<text text-anchor="middle" x="811" y="-265.5" font-family="Helvetica,sans-Serif" font-size="10.00">Player_Actor</text>
<polyline fill="none" stroke="black" points="758.5,-258.5 863.5,-258.5 "/>
<text text-anchor="start" x="766.5" y="-246.5" font-family="Helvetica,sans-Serif" font-size="10.00">+ force_x</text>
<text text-anchor="start" x="766.5" y="-235.5" font-family="Helvetica,sans-Serif" font-size="10.00">+ force</text>
<text text-anchor="start" x="766.5" y="-224.5" font-family="Helvetica,sans-Serif" font-size="10.00">&#45; counter</text>
<text text-anchor="start" x="766.5" y="-213.5" font-family="Helvetica,sans-Serif" font-size="10.00">&#45; jump_flag</text>
<text text-anchor="start" x="766.5" y="-202.5" font-family="Helvetica,sans-Serif" font-size="10.00">&#45; floor_flag</text>
<text text-anchor="start" x="766.5" y="-191.5" font-family="Helvetica,sans-Serif" font-size="10.00">&#45; run_flag</text>
<text text-anchor="start" x="766.5" y="-180.5" font-family="Helvetica,sans-Serif" font-size="10.00">&#45; gun_equipped</text>
<text text-anchor="start" x="766.5" y="-169.5" font-family="Helvetica,sans-Serif" font-size="10.00">&#45; player_collision</text>
<polyline fill="none" stroke="black" points="758.5,-162.5 863.5,-162.5 "/>
<text text-anchor="start" x="766.5" y="-150.5" font-family="Helvetica,sans-Serif" font-size="10.00">+ Player_Actor()</text>
<text text-anchor="start" x="766.5" y="-139.5" font-family="Helvetica,sans-Serif" font-size="10.00">+ ~Player_Actor()</text>
<text text-anchor="start" x="766.5" y="-128.5" font-family="Helvetica,sans-Serif" font-size="10.00">+ onCreate()</text>
<text text-anchor="start" x="766.5" y="-117.5" font-family="Helvetica,sans-Serif" font-size="10.00">+ onDestroy()</text>
<text text-anchor="start" x="766.5" y="-106.5" font-family="Helvetica,sans-Serif" font-size="10.00">+ update()</text>
<text text-anchor="start" x="766.5" y="-95.5" font-family="Helvetica,sans-Serif" font-size="10.00">+ input()</text>
<text text-anchor="start" x="766.5" y="-84.5" font-family="Helvetica,sans-Serif" font-size="10.00">+ draw()</text>
<text text-anchor="start" x="766.5" y="-73.5" font-family="Helvetica,sans-Serif" font-size="10.00">+ jump()</text>
<text text-anchor="start" x="766.5" y="-62.5" font-family="Helvetica,sans-Serif" font-size="10.00">+ moveLeft()</text>
<text text-anchor="start" x="766.5" y="-51.5" font-family="Helvetica,sans-Serif" font-size="10.00">+ moveRight()</text>
<text text-anchor="start" x="766.5" y="-40.5" font-family="Helvetica,sans-Serif" font-size="10.00">and 12 more...</text>
</a>
</g>
</g>
<!-- Node1&#45;&gt;Node8 -->
<g id="edge7" class="edge">
<title>Node1&#45;&gt;Node8</title>
<path fill="none" stroke="midnightblue" d="M771.97,-337.23C776.22,-317.57 780.62,-297.19 784.87,-277.52"/>
<polygon fill="none" stroke="midnightblue" points="768.52,-336.61 769.83,-347.13 775.37,-338.09 768.52,-336.61"/>
</g>
<!-- Node9 -->
<g id="node9" class="node">
<title>Node9</title>
<g id="a_node9"><a xlink:href="classProjectile__Actor.html" target="_top" xlink:title=" ">
<polygon fill="none" stroke="black" points="882,-22.5 882,-288.5 1030,-288.5 1030,-22.5 882,-22.5"/>
<text text-anchor="middle" x="956" y="-276.5" font-family="Helvetica,sans-Serif" font-size="10.00">Projectile_Actor</text>
<polyline fill="none" stroke="black" points="882,-269.5 1030,-269.5 "/>
<text text-anchor="start" x="890" y="-257.5" font-family="Helvetica,sans-Serif" font-size="10.00">&#45; projectile_collision</text>
<text text-anchor="start" x="890" y="-246.5" font-family="Helvetica,sans-Serif" font-size="10.00">&#45; projectile_counter</text>
<text text-anchor="start" x="890" y="-235.5" font-family="Helvetica,sans-Serif" font-size="10.00">&#45; projectile_shooting</text>
<text text-anchor="start" x="890" y="-224.5" font-family="Helvetica,sans-Serif" font-size="10.00">_right</text>
<text text-anchor="start" x="890" y="-213.5" font-family="Helvetica,sans-Serif" font-size="10.00">&#45; projectile_shooting_up</text>
<text text-anchor="start" x="890" y="-202.5" font-family="Helvetica,sans-Serif" font-size="10.00">&#45; projectile_shooting_left</text>
<text text-anchor="start" x="890" y="-191.5" font-family="Helvetica,sans-Serif" font-size="10.00">&#45; projectile_shooting_down</text>
<text text-anchor="start" x="890" y="-180.5" font-family="Helvetica,sans-Serif" font-size="10.00">&#45; projectile_count</text>
<polyline fill="none" stroke="black" points="882,-173.5 1030,-173.5 "/>
<text text-anchor="start" x="890" y="-161.5" font-family="Helvetica,sans-Serif" font-size="10.00">+ Projectile_Actor()</text>
<text text-anchor="start" x="890" y="-150.5" font-family="Helvetica,sans-Serif" font-size="10.00">+ ~Projectile_Actor()</text>
<text text-anchor="start" x="890" y="-139.5" font-family="Helvetica,sans-Serif" font-size="10.00">+ onCreate()</text>
<text text-anchor="start" x="890" y="-128.5" font-family="Helvetica,sans-Serif" font-size="10.00">+ onDestroy()</text>
<text text-anchor="start" x="890" y="-117.5" font-family="Helvetica,sans-Serif" font-size="10.00">+ update()</text>
<text text-anchor="start" x="890" y="-106.5" font-family="Helvetica,sans-Serif" font-size="10.00">+ input()</text>
<text text-anchor="start" x="890" y="-95.5" font-family="Helvetica,sans-Serif" font-size="10.00">+ draw()</text>
<text text-anchor="start" x="890" y="-84.5" font-family="Helvetica,sans-Serif" font-size="10.00">+ resetBulletPos()</text>
<text text-anchor="start" x="890" y="-73.5" font-family="Helvetica,sans-Serif" font-size="10.00">+ projectile_collision</text>
<text text-anchor="start" x="890" y="-62.5" font-family="Helvetica,sans-Serif" font-size="10.00">_update()</text>
<text text-anchor="start" x="890" y="-51.5" font-family="Helvetica,sans-Serif" font-size="10.00">+ projectile_firing()</text>
<text text-anchor="start" x="890" y="-40.5" font-family="Helvetica,sans-Serif" font-size="10.00">+ get_projectile_collision()</text>
<text text-anchor="start" x="890" y="-29.5" font-family="Helvetica,sans-Serif" font-size="10.00">+ set_projectile_collision()</text>
</a>
</g>
</g>
<!-- Node1&#45;&gt;Node9 -->
<g id="edge8" class="edge">
<title>Node1&#45;&gt;Node9</title>
<path fill="none" stroke="midnightblue" d="M827.94,-369.28C843.68,-350.64 859.46,-330.64 873,-311 877.93,-303.86 882.78,-296.39 887.53,-288.76"/>
<polygon fill="none" stroke="midnightblue" points="825.03,-367.31 821.21,-377.19 830.36,-371.85 825.03,-367.31"/>
</g>
<!-- Node10 -->
<g id="node10" class="node">
<title>Node10</title>
<g id="a_node10"><a xlink:href="classShader__Actor.html" target="_top" xlink:title=" ">
<polygon fill="none" stroke="black" points="1048,-110.5 1048,-200.5 1156,-200.5 1156,-110.5 1048,-110.5"/>
<text text-anchor="middle" x="1102" y="-188.5" font-family="Helvetica,sans-Serif" font-size="10.00">Shader_Actor</text>
<polyline fill="none" stroke="black" points="1048,-181.5 1156,-181.5 "/>
<text text-anchor="middle" x="1102" y="-169.5" font-family="Helvetica,sans-Serif" font-size="10.00"> </text>
<polyline fill="none" stroke="black" points="1048,-162.5 1156,-162.5 "/>
<text text-anchor="start" x="1056" y="-150.5" font-family="Helvetica,sans-Serif" font-size="10.00">+ Shader_Actor()</text>
<text text-anchor="start" x="1056" y="-139.5" font-family="Helvetica,sans-Serif" font-size="10.00">+ ~Shader_Actor()</text>
<text text-anchor="start" x="1056" y="-128.5" font-family="Helvetica,sans-Serif" font-size="10.00">+ onCreate()</text>
<text text-anchor="start" x="1056" y="-117.5" font-family="Helvetica,sans-Serif" font-size="10.00">+ onDestroy()</text>
</a>
</g>
</g>
<!-- Node1&#45;&gt;Node10 -->
<g id="edge9" class="edge">
<title>Node1&#45;&gt;Node10</title>
<path fill="none" stroke="midnightblue" d="M830.86,-433.23C895.49,-410.87 982.66,-371.82 1039,-311 1067.64,-280.08 1084.08,-234.4 1092.93,-200.72"/>
<polygon fill="none" stroke="midnightblue" points="829.44,-430.02 821.09,-436.54 831.68,-436.65 829.44,-430.02"/>
</g>
<!-- Node11 -->
<g id="node11" class="node">
<title>Node11</title>
<g id="a_node11"><a xlink:href="classText__Actor.html" target="_top" xlink:title=" ">
<polygon fill="none" stroke="black" points="1174.5,-94 1174.5,-217 1269.5,-217 1269.5,-94 1174.5,-94"/>
<text text-anchor="middle" x="1222" y="-205" font-family="Helvetica,sans-Serif" font-size="10.00">Text_Actor</text>
<polyline fill="none" stroke="black" points="1174.5,-198 1269.5,-198 "/>
<text text-anchor="middle" x="1222" y="-186" font-family="Helvetica,sans-Serif" font-size="10.00"> </text>
<polyline fill="none" stroke="black" points="1174.5,-179 1269.5,-179 "/>
<text text-anchor="start" x="1182.5" y="-167" font-family="Helvetica,sans-Serif" font-size="10.00">+ Text_Actor()</text>
<text text-anchor="start" x="1182.5" y="-156" font-family="Helvetica,sans-Serif" font-size="10.00">+ ~Text_Actor()</text>
<text text-anchor="start" x="1182.5" y="-145" font-family="Helvetica,sans-Serif" font-size="10.00">+ onCreate()</text>
<text text-anchor="start" x="1182.5" y="-134" font-family="Helvetica,sans-Serif" font-size="10.00">+ onDestroy()</text>
<text text-anchor="start" x="1182.5" y="-123" font-family="Helvetica,sans-Serif" font-size="10.00">+ update()</text>
<text text-anchor="start" x="1182.5" y="-112" font-family="Helvetica,sans-Serif" font-size="10.00">+ input()</text>
<text text-anchor="start" x="1182.5" y="-101" font-family="Helvetica,sans-Serif" font-size="10.00">+ draw()</text>
</a>
</g>
</g>
<!-- Node1&#45;&gt;Node11 -->
<g id="edge10" class="edge">
<title>Node1&#45;&gt;Node11</title>
<path fill="none" stroke="midnightblue" d="M831.2,-449.15C924.77,-435.63 1073.8,-400.65 1165,-311 1190.38,-286.05 1204.56,-248.82 1212.42,-217.17"/>
<polygon fill="none" stroke="midnightblue" points="830.62,-445.7 821.2,-450.54 831.59,-452.63 830.62,-445.7"/>
</g>
<!-- Node12 -->
<g id="node12" class="node">
<title>Node12</title>
<g id="a_node12"><a xlink:href="classTexture__Actor.html" target="_top" xlink:title=" ">
<polygon fill="none" stroke="black" points="1288,-72 1288,-239 1416,-239 1416,-72 1288,-72"/>
<text text-anchor="middle" x="1352" y="-227" font-family="Helvetica,sans-Serif" font-size="10.00">Texture_Actor</text>
<polyline fill="none" stroke="black" points="1288,-220 1416,-220 "/>
<text text-anchor="start" x="1296" y="-208" font-family="Helvetica,sans-Serif" font-size="10.00">&#45; animation_last_time</text>
<text text-anchor="start" x="1296" y="-197" font-family="Helvetica,sans-Serif" font-size="10.00">&#45; curr_frame</text>
<polyline fill="none" stroke="black" points="1288,-190 1416,-190 "/>
<text text-anchor="start" x="1296" y="-178" font-family="Helvetica,sans-Serif" font-size="10.00">+ Texture_Actor()</text>
<text text-anchor="start" x="1296" y="-167" font-family="Helvetica,sans-Serif" font-size="10.00">+ ~Texture_Actor()</text>
<text text-anchor="start" x="1296" y="-156" font-family="Helvetica,sans-Serif" font-size="10.00">+ onCreate()</text>
<text text-anchor="start" x="1296" y="-145" font-family="Helvetica,sans-Serif" font-size="10.00">+ onDestroy()</text>
<text text-anchor="start" x="1296" y="-134" font-family="Helvetica,sans-Serif" font-size="10.00">+ update()</text>
<text text-anchor="start" x="1296" y="-123" font-family="Helvetica,sans-Serif" font-size="10.00">+ input()</text>
<text text-anchor="start" x="1296" y="-112" font-family="Helvetica,sans-Serif" font-size="10.00">+ draw()</text>
<text text-anchor="start" x="1296" y="-101" font-family="Helvetica,sans-Serif" font-size="10.00">+ get_currFrame()</text>
<text text-anchor="start" x="1296" y="-90" font-family="Helvetica,sans-Serif" font-size="10.00">+ set_currFrame()</text>
<text text-anchor="start" x="1296" y="-79" font-family="Helvetica,sans-Serif" font-size="10.00">+ change_currGrame()</text>
</a>
</g>
</g>
<!-- Node1&#45;&gt;Node12 -->
<g id="edge11" class="edge">
<title>Node1&#45;&gt;Node12</title>
<path fill="none" stroke="midnightblue" d="M831.38,-455.38C945.83,-448.21 1149.55,-419.77 1279,-311 1301.26,-292.3 1317.17,-265.27 1328.34,-239.04"/>
<polygon fill="none" stroke="midnightblue" points="831.04,-451.89 821.27,-455.97 831.45,-458.88 831.04,-451.89"/>
</g>
<!-- Node2 -->
<g id="node2" class="node">
<title>Node2</title>
<g id="a_node2"><a xlink:href="classComponent.html" target="_top" xlink:title=" ">
<polygon fill="none" stroke="black" points="696,-606.5 696,-795.5 796,-795.5 796,-606.5 696,-606.5"/>
<text text-anchor="middle" x="746" y="-783.5" font-family="Helvetica,sans-Serif" font-size="10.00">Component</text>
<polyline fill="none" stroke="black" points="696,-776.5 796,-776.5 "/>
<text text-anchor="start" x="704" y="-764.5" font-family="Helvetica,sans-Serif" font-size="10.00"># parent</text>
<text text-anchor="start" x="704" y="-753.5" font-family="Helvetica,sans-Serif" font-size="10.00"># isCreated</text>
<polyline fill="none" stroke="black" points="696,-746.5 796,-746.5 "/>
<text text-anchor="start" x="704" y="-734.5" font-family="Helvetica,sans-Serif" font-size="10.00">+ Component()</text>
<text text-anchor="start" x="704" y="-723.5" font-family="Helvetica,sans-Serif" font-size="10.00">+ ~Component()</text>
<text text-anchor="start" x="704" y="-712.5" font-family="Helvetica,sans-Serif" font-size="10.00">+ onCreate()</text>
<text text-anchor="start" x="704" y="-701.5" font-family="Helvetica,sans-Serif" font-size="10.00">+ onDestroy()</text>
<text text-anchor="start" x="704" y="-690.5" font-family="Helvetica,sans-Serif" font-size="10.00">+ update()</text>
<text text-anchor="start" x="704" y="-679.5" font-family="Helvetica,sans-Serif" font-size="10.00">+ draw()</text>
<text text-anchor="start" x="704" y="-668.5" font-family="Helvetica,sans-Serif" font-size="10.00">+ Component()</text>
<text text-anchor="start" x="704" y="-657.5" font-family="Helvetica,sans-Serif" font-size="10.00">+ ~Component()</text>
<text text-anchor="start" x="704" y="-646.5" font-family="Helvetica,sans-Serif" font-size="10.00">+ onCreate()</text>
<text text-anchor="start" x="704" y="-635.5" font-family="Helvetica,sans-Serif" font-size="10.00">+ onDestroy()</text>
<text text-anchor="start" x="704" y="-624.5" font-family="Helvetica,sans-Serif" font-size="10.00">+ update()</text>
<text text-anchor="start" x="704" y="-613.5" font-family="Helvetica,sans-Serif" font-size="10.00">+ draw()</text>
</a>
</g>
</g>
<!-- Node2&#45;&gt;Node1 -->
<g id="edge1" class="edge">
<title>Node2&#45;&gt;Node1</title>
<path fill="none" stroke="midnightblue" d="M746,-596.12C746,-587.38 746,-578.51 746,-569.72"/>
<polygon fill="none" stroke="midnightblue" points="742.5,-596.33 746,-606.33 749.5,-596.33 742.5,-596.33"/>
</g>
</g>
</svg>
