<?xml version="1.0" encoding="UTF-8" standalone="no"?>
<!DOCTYPE svg PUBLIC "-//W3C//DTD SVG 1.1//EN"
 "http://www.w3.org/Graphics/SVG/1.1/DTD/svg11.dtd">
<!-- Generated by graphviz version 2.43.0 (0)
 -->
<!-- Title: TextRenderComponent Pages: 1 -->
<svg width="197pt" height="381pt"
 viewBox="0.00 0.00 196.50 381.00" xmlns="http://www.w3.org/2000/svg" xmlns:xlink="http://www.w3.org/1999/xlink">
<g id="graph0" class="graph" transform="scale(1 1) rotate(0) translate(4 377)">
<title>TextRenderComponent</title>
<!-- Node1 -->
<g id="node1" class="node">
<title>Node1</title>
<g id="a_node1"><a xlink:title=" ">
<polygon fill="#bfbfbf" stroke="black" points="0,-0.5 0,-156.5 155,-156.5 155,-0.5 0,-0.5"/>
<text text-anchor="middle" x="77.5" y="-144.5" font-family="Helvetica,sans-Serif" font-size="10.00">TextRenderComponent</text>
<polyline fill="none" stroke="black" points="0,-137.5 155,-137.5 "/>
<text text-anchor="start" x="8" y="-125.5" font-family="Helvetica,sans-Serif" font-size="10.00">+ Characters</text>
<text text-anchor="start" x="8" y="-114.5" font-family="Helvetica,sans-Serif" font-size="10.00">&#45; VAO</text>
<text text-anchor="start" x="8" y="-103.5" font-family="Helvetica,sans-Serif" font-size="10.00">&#45; VBO</text>
<polyline fill="none" stroke="black" points="0,-96.5 155,-96.5 "/>
<text text-anchor="start" x="8" y="-84.5" font-family="Helvetica,sans-Serif" font-size="10.00">+ TextRenderComponent()</text>
<text text-anchor="start" x="8" y="-73.5" font-family="Helvetica,sans-Serif" font-size="10.00">+ ~TextRenderComponent()</text>
<text text-anchor="start" x="8" y="-62.5" font-family="Helvetica,sans-Serif" font-size="10.00">+ onCreate()</text>
<text text-anchor="start" x="8" y="-51.5" font-family="Helvetica,sans-Serif" font-size="10.00">+ onDestroy()</text>
<text text-anchor="start" x="8" y="-40.5" font-family="Helvetica,sans-Serif" font-size="10.00">+ update()</text>
<text text-anchor="start" x="8" y="-29.5" font-family="Helvetica,sans-Serif" font-size="10.00">+ Load()</text>
<text text-anchor="start" x="8" y="-18.5" font-family="Helvetica,sans-Serif" font-size="10.00">+ RenderText()</text>
<text text-anchor="start" x="8" y="-7.5" font-family="Helvetica,sans-Serif" font-size="10.00">+ draw()</text>
</a>
</g>
</g>
<!-- Node2 -->
<g id="node2" class="node">
<title>Node2</title>
<g id="a_node2"><a xlink:href="classComponent.html" target="_top" xlink:title=" ">
<polygon fill="none" stroke="black" points="27.5,-194.5 27.5,-372.5 127.5,-372.5 127.5,-194.5 27.5,-194.5"/>
<text text-anchor="middle" x="77.5" y="-360.5" font-family="Helvetica,sans-Serif" font-size="10.00">Component</text>
<polyline fill="none" stroke="black" points="27.5,-353.5 127.5,-353.5 "/>
<text text-anchor="start" x="35.5" y="-341.5" font-family="Helvetica,sans-Serif" font-size="10.00"># isCreated</text>
<polyline fill="none" stroke="black" points="27.5,-334.5 127.5,-334.5 "/>
<text text-anchor="start" x="35.5" y="-322.5" font-family="Helvetica,sans-Serif" font-size="10.00">+ Component()</text>
<text text-anchor="start" x="35.5" y="-311.5" font-family="Helvetica,sans-Serif" font-size="10.00">+ ~Component()</text>
<text text-anchor="start" x="35.5" y="-300.5" font-family="Helvetica,sans-Serif" font-size="10.00">+ onCreate()</text>
<text text-anchor="start" x="35.5" y="-289.5" font-family="Helvetica,sans-Serif" font-size="10.00">+ onDestroy()</text>
<text text-anchor="start" x="35.5" y="-278.5" font-family="Helvetica,sans-Serif" font-size="10.00">+ update()</text>
<text text-anchor="start" x="35.5" y="-267.5" font-family="Helvetica,sans-Serif" font-size="10.00">+ draw()</text>
<text text-anchor="start" x="35.5" y="-256.5" font-family="Helvetica,sans-Serif" font-size="10.00">+ Component()</text>
<text text-anchor="start" x="35.5" y="-245.5" font-family="Helvetica,sans-Serif" font-size="10.00">+ ~Component()</text>
<text text-anchor="start" x="35.5" y="-234.5" font-family="Helvetica,sans-Serif" font-size="10.00">+ onCreate()</text>
<text text-anchor="start" x="35.5" y="-223.5" font-family="Helvetica,sans-Serif" font-size="10.00">+ onDestroy()</text>
<text text-anchor="start" x="35.5" y="-212.5" font-family="Helvetica,sans-Serif" font-size="10.00">+ update()</text>
<text text-anchor="start" x="35.5" y="-201.5" font-family="Helvetica,sans-Serif" font-size="10.00">+ draw()</text>
</a>
</g>
</g>
<!-- Node2&#45;&gt;Node1 -->
<g id="edge1" class="edge">
<title>Node2&#45;&gt;Node1</title>
<path fill="none" stroke="midnightblue" d="M77.5,-184.33C77.5,-175.07 77.5,-165.77 77.5,-156.74"/>
<polygon fill="none" stroke="midnightblue" points="74,-184.35 77.5,-194.35 81,-184.35 74,-184.35"/>
</g>
<!-- Node2&#45;&gt;Node2 -->
<g id="edge2" class="edge">
<title>Node2&#45;&gt;Node2</title>
<path fill="none" stroke="#404040" d="M127.61,-303.04C138.02,-300.98 145.5,-294.47 145.5,-283.5 145.5,-277.16 143,-272.31 138.88,-268.94"/>
<polygon fill="none" stroke="#404040" points="138.59,-268.82 131.48,-270.05 127.61,-263.96 134.72,-262.73 138.59,-268.82"/>
<text text-anchor="middle" x="167" y="-281" font-family="Helvetica,sans-Serif" font-size="10.00"> #parent</text>
</g>
</g>
</svg>
