<?xml version="1.0" encoding="UTF-8" standalone="no"?>
<!DOCTYPE svg PUBLIC "-//W3C//DTD SVG 1.1//EN"
 "http://www.w3.org/Graphics/SVG/1.1/DTD/svg11.dtd">
<!-- Generated by graphviz version 2.43.0 (0)
 -->
<!-- Title: Transition Pages: 1 -->
<!--zoomable 898 -->
<svg id="main" version="1.1" xmlns="http://www.w3.org/2000/svg" xmlns:xlink="http://www.w3.org/1999/xlink" xml:space="preserve" onload="init(evt)">
<style type="text/css"><![CDATA[
.edge:hover path { stroke: red; }
.edge:hover polygon { stroke: red; fill: red; }
]]></style>
<script type="text/javascript"><![CDATA[
var edges = document.getElementsByTagName('g');
if (edges && edges.length) {
  for (var i=0;i<edges.length;i++) {
    if (edges[i].id.substr(0,4)=='edge') {
      edges[i].setAttribute('class','edge');
    }
  }
}
]]></script>
        <defs>
                <circle id="rim" cx="0" cy="0" r="7"/>
                <circle id="rim2" cx="0" cy="0" r="3.5"/>
                <g id="zoomPlus">
                        <use xlink:href="#rim" fill="#404040">
                                <set attributeName="fill" to="#808080" begin="zoomplus.mouseover" end="zoomplus.mouseout"/>
                        </use>
                        <path d="M-4,0h8M0,-4v8" fill="none" stroke="white" stroke-width="1.5" pointer-events="none"/>
                </g>
                <g id="zoomMin">
                        <use xlink:href="#rim" fill="#404040">
                                <set attributeName="fill" to="#808080" begin="zoomminus.mouseover" end="zoomminus.mouseout"/>
                        </use>
                        <path d="M-4,0h8" fill="none" stroke="white" stroke-width="1.5" pointer-events="none"/>
                </g>
                <g id="dirArrow">
                        <path fill="none" stroke="white" stroke-width="1.5" d="M0,-3.0v7 M-2.5,-0.5L0,-3.0L2.5,-0.5"/>
                </g>
               <g id="resetDef">
                       <use xlink:href="#rim2" fill="#404040">
                               <set attributeName="fill" to="#808080" begin="reset.mouseover" end="reset.mouseout"/>
                       </use>
               </g>
        </defs>

<script type="text/javascript">
var viewWidth = 514;
var viewHeight = 898;
var sectionId = 'dynsection-0';
</script>
<script xlink:href="svgpan.js"/>
<svg id="graph" class="graph">
<g id="viewport">
<title>Transition</title>
<!-- Node1 -->
<g id="node1" class="node">
<title>Node1</title>
<g id="a_node1"><a xlink:title=" ">
<polygon fill="#bfbfbf" stroke="black" points="0,-507.5 0,-597.5 107,-597.5 107,-507.5 0,-507.5"/>
<text text-anchor="middle" x="53.5" y="-585.5" font-family="Helvetica,sans-Serif" font-size="10.00">Transition</text>
<polyline fill="none" stroke="black" points="0,-578.5 107,-578.5 "/>
<text text-anchor="middle" x="53.5" y="-566.5" font-family="Helvetica,sans-Serif" font-size="10.00"> </text>
<polyline fill="none" stroke="black" points="0,-559.5 107,-559.5 "/>
<text text-anchor="start" x="8" y="-547.5" font-family="Helvetica,sans-Serif" font-size="10.00">+ Transition()</text>
<text text-anchor="start" x="8" y="-536.5" font-family="Helvetica,sans-Serif" font-size="10.00">+ ~Transition()</text>
<text text-anchor="start" x="8" y="-525.5" font-family="Helvetica,sans-Serif" font-size="10.00">+ isTriggered()</text>
<text text-anchor="start" x="8" y="-514.5" font-family="Helvetica,sans-Serif" font-size="10.00">+ getTargetState()</text>
</a>
</g>
</g>
<!-- Node4 -->
<g id="node4" class="node">
<title>Node4</title>
<g id="a_node4"><a xlink:href="classNPC__Actor.html" target="_top" xlink:title=" ">
<polygon fill="none" stroke="black" points="139.5,-160.5 139.5,-382.5 319.5,-382.5 319.5,-160.5 139.5,-160.5"/>
<text text-anchor="middle" x="229.5" y="-370.5" font-family="Helvetica,sans-Serif" font-size="10.00">NPC_Actor</text>
<polyline fill="none" stroke="black" points="139.5,-363.5 319.5,-363.5 "/>
<text text-anchor="start" x="147.5" y="-351.5" font-family="Helvetica,sans-Serif" font-size="10.00">&#45; health</text>
<text text-anchor="start" x="147.5" y="-340.5" font-family="Helvetica,sans-Serif" font-size="10.00">&#45; npc_collision</text>
<polyline fill="none" stroke="black" points="139.5,-333.5 319.5,-333.5 "/>
<text text-anchor="start" x="147.5" y="-321.5" font-family="Helvetica,sans-Serif" font-size="10.00">+ NPC_Actor()</text>
<text text-anchor="start" x="147.5" y="-310.5" font-family="Helvetica,sans-Serif" font-size="10.00">+ ~NPC_Actor()</text>
<text text-anchor="start" x="147.5" y="-299.5" font-family="Helvetica,sans-Serif" font-size="10.00">+ onCreate()</text>
<text text-anchor="start" x="147.5" y="-288.5" font-family="Helvetica,sans-Serif" font-size="10.00">+ onDestroy()</text>
<text text-anchor="start" x="147.5" y="-277.5" font-family="Helvetica,sans-Serif" font-size="10.00">+ update()</text>
<text text-anchor="start" x="147.5" y="-266.5" font-family="Helvetica,sans-Serif" font-size="10.00">+ input()</text>
<text text-anchor="start" x="147.5" y="-255.5" font-family="Helvetica,sans-Serif" font-size="10.00">+ draw()</text>
<text text-anchor="start" x="147.5" y="-244.5" font-family="Helvetica,sans-Serif" font-size="10.00">+ collison_update()</text>
<text text-anchor="start" x="147.5" y="-233.5" font-family="Helvetica,sans-Serif" font-size="10.00">+ get_health()</text>
<text text-anchor="start" x="147.5" y="-222.5" font-family="Helvetica,sans-Serif" font-size="10.00">+ set_health()</text>
<text text-anchor="start" x="147.5" y="-211.5" font-family="Helvetica,sans-Serif" font-size="10.00">+ get_collision()</text>
<text text-anchor="start" x="147.5" y="-200.5" font-family="Helvetica,sans-Serif" font-size="10.00">+ set_collision()</text>
<text text-anchor="start" x="147.5" y="-189.5" font-family="Helvetica,sans-Serif" font-size="10.00">+ set_colour()</text>
<text text-anchor="start" x="147.5" y="-178.5" font-family="Helvetica,sans-Serif" font-size="10.00">+ checkDistanceBetweenPlayer()</text>
<text text-anchor="start" x="147.5" y="-167.5" font-family="Helvetica,sans-Serif" font-size="10.00">+ readStateMachine()</text>
</a>
</g>
</g>
<!-- Node1&#45;&gt;Node4 -->
<g id="edge11" class="edge">
<title>Node1&#45;&gt;Node4</title>
<path fill="none" stroke="#404040" d="M61.01,-507.3C67.72,-475.97 79.64,-433.85 99.5,-401 108.37,-386.33 119.29,-372.13 131,-358.85"/>
<polygon fill="none" stroke="#404040" points="131.14,-358.69 132.22,-351.56 139.21,-349.81 138.14,-356.94 131.14,-358.69"/>
<text text-anchor="middle" x="134.5" y="-415" font-family="Helvetica,sans-Serif" font-size="10.00"> &#45;outTransition</text>
<text text-anchor="middle" x="134.5" y="-404" font-family="Helvetica,sans-Serif" font-size="10.00">&#45;inTransition</text>
</g>
<!-- Node2 -->
<g id="node2" class="node">
<title>Node2</title>
<g id="a_node2"><a xlink:href="classBState.html" target="_top" xlink:title=" ">
<polygon fill="none" stroke="black" points="335.5,-744.5 335.5,-856.5 439.5,-856.5 439.5,-744.5 335.5,-744.5"/>
<text text-anchor="middle" x="387.5" y="-844.5" font-family="Helvetica,sans-Serif" font-size="10.00">BState</text>
<polyline fill="none" stroke="black" points="335.5,-837.5 439.5,-837.5 "/>
<text text-anchor="start" x="343.5" y="-825.5" font-family="Helvetica,sans-Serif" font-size="10.00">&#45; transitions</text>
<text text-anchor="start" x="343.5" y="-814.5" font-family="Helvetica,sans-Serif" font-size="10.00">&#45; name</text>
<polyline fill="none" stroke="black" points="335.5,-807.5 439.5,-807.5 "/>
<text text-anchor="start" x="343.5" y="-795.5" font-family="Helvetica,sans-Serif" font-size="10.00">+ BState()</text>
<text text-anchor="start" x="343.5" y="-784.5" font-family="Helvetica,sans-Serif" font-size="10.00">+ ~BState()</text>
<text text-anchor="start" x="343.5" y="-773.5" font-family="Helvetica,sans-Serif" font-size="10.00">+ getTransitions()</text>
<text text-anchor="start" x="343.5" y="-762.5" font-family="Helvetica,sans-Serif" font-size="10.00">+ addTransition()</text>
<text text-anchor="start" x="343.5" y="-751.5" font-family="Helvetica,sans-Serif" font-size="10.00">+ getName()</text>
</a>
</g>
</g>
<!-- Node2&#45;&gt;Node1 -->
<g id="edge1" class="edge">
<title>Node2&#45;&gt;Node1</title>
<path fill="none" stroke="#404040" d="M358.84,-744.29C350,-731.72 339.18,-719.56 326.5,-711 247.23,-657.49 193.42,-720.84 116.5,-664 97.69,-650.1 83.67,-628.8 73.68,-608.59"/>
<polygon fill="none" stroke="#404040" points="73.6,-608.41 67.45,-604.65 68.55,-597.53 74.7,-601.29 73.6,-608.41"/>
<text text-anchor="middle" x="316.5" y="-685" font-family="Helvetica,sans-Serif" font-size="10.00"> &#45;targetState</text>
</g>
<!-- Node2&#45;&gt;Node4 -->
<g id="edge7" class="edge">
<title>Node2&#45;&gt;Node4</title>
<path fill="none" stroke="#404040" d="M383.7,-744.26C377.23,-657.93 362.79,-495.28 342.5,-441 336.49,-424.92 328.67,-408.85 319.94,-393.37"/>
<polygon fill="none" stroke="#404040" points="319.8,-393.13 313.33,-389.96 313.77,-382.76 320.25,-385.94 319.8,-393.13"/>
<text text-anchor="middle" x="407" y="-555.5" font-family="Helvetica,sans-Serif" font-size="10.00"> &#45;seekPlayer</text>
<text text-anchor="middle" x="407" y="-544.5" font-family="Helvetica,sans-Serif" font-size="10.00">&#45;wander</text>
</g>
<!-- Node7 -->
<g id="node7" class="node">
<title>Node7</title>
<g id="a_node7"><a xlink:href="classBStateMachine.html" target="_top" xlink:title=" ">
<polygon fill="none" stroke="black" points="228.5,-0.5 228.5,-101.5 370.5,-101.5 370.5,-0.5 228.5,-0.5"/>
<text text-anchor="middle" x="299.5" y="-89.5" font-family="Helvetica,sans-Serif" font-size="10.00">BStateMachine</text>
<polyline fill="none" stroke="black" points="228.5,-82.5 370.5,-82.5 "/>
<text text-anchor="middle" x="299.5" y="-70.5" font-family="Helvetica,sans-Serif" font-size="10.00"> </text>
<polyline fill="none" stroke="black" points="228.5,-63.5 370.5,-63.5 "/>
<text text-anchor="start" x="236.5" y="-51.5" font-family="Helvetica,sans-Serif" font-size="10.00">+ BStateMachine()</text>
<text text-anchor="start" x="236.5" y="-40.5" font-family="Helvetica,sans-Serif" font-size="10.00">+ ~BStateMachine()</text>
<text text-anchor="start" x="236.5" y="-29.5" font-family="Helvetica,sans-Serif" font-size="10.00">+ setInitialState()</text>
<text text-anchor="start" x="236.5" y="-18.5" font-family="Helvetica,sans-Serif" font-size="10.00">+ update()</text>
<text text-anchor="start" x="236.5" y="-7.5" font-family="Helvetica,sans-Serif" font-size="10.00">+ getCurrentStateName()</text>
</a>
</g>
</g>
<!-- Node2&#45;&gt;Node7 -->
<g id="edge9" class="edge">
<title>Node2&#45;&gt;Node7</title>
<path fill="none" stroke="#404040" d="M415.03,-744.25C425.54,-720.22 436.25,-691.36 441.5,-664 460.18,-566.67 453.72,-539.36 441.5,-441 423.36,-294.98 429.64,-249.88 360.5,-120 358.98,-117.15 357.32,-114.31 355.54,-111.52"/>
<polygon fill="none" stroke="#404040" points="355.5,-111.46 348.8,-108.81 348.67,-101.6 355.38,-104.25 355.5,-111.46"/>
<text text-anchor="middle" x="472" y="-415" font-family="Helvetica,sans-Serif" font-size="10.00"> &#45;currentState</text>
<text text-anchor="middle" x="472" y="-404" font-family="Helvetica,sans-Serif" font-size="10.00">&#45;initialState</text>
</g>
<!-- Node3 -->
<g id="node3" class="node">
<title>Node3</title>
<g id="a_node3"><a xlink:href="classCondition.html" target="_top" xlink:title=" ">
<polygon fill="none" stroke="black" points="54.5,-11.5 54.5,-90.5 144.5,-90.5 144.5,-11.5 54.5,-11.5"/>
<text text-anchor="middle" x="99.5" y="-78.5" font-family="Helvetica,sans-Serif" font-size="10.00">Condition</text>
<polyline fill="none" stroke="black" points="54.5,-71.5 144.5,-71.5 "/>
<text text-anchor="middle" x="99.5" y="-59.5" font-family="Helvetica,sans-Serif" font-size="10.00"> </text>
<polyline fill="none" stroke="black" points="54.5,-52.5 144.5,-52.5 "/>
<text text-anchor="start" x="62.5" y="-40.5" font-family="Helvetica,sans-Serif" font-size="10.00">+ Condition()</text>
<text text-anchor="start" x="62.5" y="-29.5" font-family="Helvetica,sans-Serif" font-size="10.00">+ ~Condition()</text>
<text text-anchor="start" x="62.5" y="-18.5" font-family="Helvetica,sans-Serif" font-size="10.00">+ test()</text>
</a>
</g>
</g>
<!-- Node3&#45;&gt;Node1 -->
<g id="edge2" class="edge">
<title>Node3&#45;&gt;Node1</title>
<path fill="none" stroke="#404040" d="M90.76,-90.54C86.42,-111.07 81.48,-136.79 78.5,-160 63.23,-278.7 57.15,-418.9 54.83,-495.16"/>
<polygon fill="none" stroke="#404040" points="54.83,-495.29 58.65,-501.41 54.48,-507.29 50.65,-501.18 54.83,-495.29"/>
<text text-anchor="middle" x="104.5" y="-269" font-family="Helvetica,sans-Serif" font-size="10.00"> &#45;condition</text>
</g>
<!-- Node3&#45;&gt;Node4 -->
<g id="edge12" class="edge">
<title>Node3&#45;&gt;Node4</title>
<path fill="none" stroke="#404040" d="M122.5,-90.66C132.54,-107.53 144.92,-128.34 157.66,-149.75"/>
<polygon fill="none" stroke="#404040" points="157.79,-149.98 164.3,-153.09 163.93,-160.29 157.42,-157.18 157.79,-149.98"/>
<text text-anchor="middle" x="184.5" y="-134" font-family="Helvetica,sans-Serif" font-size="10.00"> &#45;ifInRange</text>
<text text-anchor="middle" x="184.5" y="-123" font-family="Helvetica,sans-Serif" font-size="10.00">&#45;outOfRange</text>
</g>
<!-- Node4&#45;&gt;Node3 -->
<g id="edge3" class="edge">
<title>Node4&#45;&gt;Node3</title>
<path fill="none" stroke="#404040" d="M139.41,-199.63C123.62,-182.58 109.41,-163.12 100.5,-142 95.39,-129.89 93.53,-116.02 93.34,-102.86"/>
<polygon fill="none" stroke="#404040" points="93.34,-102.53 89.48,-96.44 93.61,-90.53 97.48,-96.62 93.34,-102.53"/>
<text text-anchor="middle" x="119" y="-128.5" font-family="Helvetica,sans-Serif" font-size="10.00"> #actor</text>
</g>
<!-- Node4&#45;&gt;Node7 -->
<g id="edge10" class="edge">
<title>Node4&#45;&gt;Node7</title>
<path fill="none" stroke="#404040" d="M230.21,-160.49C232.62,-146.54 236.23,-132.71 241.5,-120 242.6,-117.34 243.85,-114.71 245.22,-112.11"/>
<polygon fill="none" stroke="#404040" points="245.29,-112 244.92,-104.79 251.43,-101.69 251.79,-108.89 245.29,-112"/>
<text text-anchor="middle" x="257.5" y="-128.5" font-family="Helvetica,sans-Serif" font-size="10.00"> &#45;actor</text>
</g>
<!-- Node5 -->
<g id="node5" class="node">
<title>Node5</title>
<g id="a_node5"><a xlink:href="classActor.html" target="_top" xlink:title=" ">
<polygon fill="none" stroke="black" points="183.5,-441.5 183.5,-663.5 333.5,-663.5 333.5,-441.5 183.5,-441.5"/>
<text text-anchor="middle" x="258.5" y="-651.5" font-family="Helvetica,sans-Serif" font-size="10.00">Actor</text>
<polyline fill="none" stroke="black" points="183.5,-644.5 333.5,-644.5 "/>
<text text-anchor="start" x="191.5" y="-632.5" font-family="Helvetica,sans-Serif" font-size="10.00">&#45; components</text>
<polyline fill="none" stroke="black" points="183.5,-625.5 333.5,-625.5 "/>
<text text-anchor="start" x="191.5" y="-613.5" font-family="Helvetica,sans-Serif" font-size="10.00">+ Actor()</text>
<text text-anchor="start" x="191.5" y="-602.5" font-family="Helvetica,sans-Serif" font-size="10.00">+ ~Actor()</text>
<text text-anchor="start" x="191.5" y="-591.5" font-family="Helvetica,sans-Serif" font-size="10.00">+ onCreate()</text>
<text text-anchor="start" x="191.5" y="-580.5" font-family="Helvetica,sans-Serif" font-size="10.00">+ onDestroy()</text>
<text text-anchor="start" x="191.5" y="-569.5" font-family="Helvetica,sans-Serif" font-size="10.00">+ update()</text>
<text text-anchor="start" x="191.5" y="-558.5" font-family="Helvetica,sans-Serif" font-size="10.00">+ draw()</text>
<text text-anchor="start" x="191.5" y="-547.5" font-family="Helvetica,sans-Serif" font-size="10.00">+ AddComponent()</text>
<text text-anchor="start" x="191.5" y="-536.5" font-family="Helvetica,sans-Serif" font-size="10.00">+ AddComponent()</text>
<text text-anchor="start" x="191.5" y="-525.5" font-family="Helvetica,sans-Serif" font-size="10.00">+ GetComponent()</text>
<text text-anchor="start" x="191.5" y="-514.5" font-family="Helvetica,sans-Serif" font-size="10.00">+ RemoveComponent()</text>
<text text-anchor="start" x="191.5" y="-503.5" font-family="Helvetica,sans-Serif" font-size="10.00">+ RemoveAllComponents()</text>
<text text-anchor="start" x="191.5" y="-492.5" font-family="Helvetica,sans-Serif" font-size="10.00">+ ListComponents()</text>
<text text-anchor="start" x="191.5" y="-481.5" font-family="Helvetica,sans-Serif" font-size="10.00">&#45; Actor()</text>
<text text-anchor="start" x="191.5" y="-470.5" font-family="Helvetica,sans-Serif" font-size="10.00">&#45; Actor()</text>
<text text-anchor="start" x="191.5" y="-459.5" font-family="Helvetica,sans-Serif" font-size="10.00">&#45; operator=()</text>
<text text-anchor="start" x="191.5" y="-448.5" font-family="Helvetica,sans-Serif" font-size="10.00">&#45; operator=()</text>
</a>
</g>
</g>
<!-- Node5&#45;&gt;Node4 -->
<g id="edge4" class="edge">
<title>Node5&#45;&gt;Node4</title>
<path fill="none" stroke="midnightblue" d="M246,-431.28C244.33,-415.2 242.63,-398.78 240.97,-382.88"/>
<polygon fill="none" stroke="midnightblue" points="242.52,-431.65 247.04,-441.23 249.49,-430.92 242.52,-431.65"/>
</g>
<!-- Node6 -->
<g id="node6" class="node">
<title>Node6</title>
<g id="a_node6"><a xlink:href="classComponent.html" target="_top" xlink:title=" ">
<polygon fill="none" stroke="black" points="156.5,-711.5 156.5,-889.5 256.5,-889.5 256.5,-711.5 156.5,-711.5"/>
<text text-anchor="middle" x="206.5" y="-877.5" font-family="Helvetica,sans-Serif" font-size="10.00">Component</text>
<polyline fill="none" stroke="black" points="156.5,-870.5 256.5,-870.5 "/>
<text text-anchor="start" x="164.5" y="-858.5" font-family="Helvetica,sans-Serif" font-size="10.00"># isCreated</text>
<polyline fill="none" stroke="black" points="156.5,-851.5 256.5,-851.5 "/>
<text text-anchor="start" x="164.5" y="-839.5" font-family="Helvetica,sans-Serif" font-size="10.00">+ Component()</text>
<text text-anchor="start" x="164.5" y="-828.5" font-family="Helvetica,sans-Serif" font-size="10.00">+ ~Component()</text>
<text text-anchor="start" x="164.5" y="-817.5" font-family="Helvetica,sans-Serif" font-size="10.00">+ onCreate()</text>
<text text-anchor="start" x="164.5" y="-806.5" font-family="Helvetica,sans-Serif" font-size="10.00">+ onDestroy()</text>
<text text-anchor="start" x="164.5" y="-795.5" font-family="Helvetica,sans-Serif" font-size="10.00">+ update()</text>
<text text-anchor="start" x="164.5" y="-784.5" font-family="Helvetica,sans-Serif" font-size="10.00">+ draw()</text>
<text text-anchor="start" x="164.5" y="-773.5" font-family="Helvetica,sans-Serif" font-size="10.00">+ Component()</text>
<text text-anchor="start" x="164.5" y="-762.5" font-family="Helvetica,sans-Serif" font-size="10.00">+ ~Component()</text>
<text text-anchor="start" x="164.5" y="-751.5" font-family="Helvetica,sans-Serif" font-size="10.00">+ onCreate()</text>
<text text-anchor="start" x="164.5" y="-740.5" font-family="Helvetica,sans-Serif" font-size="10.00">+ onDestroy()</text>
<text text-anchor="start" x="164.5" y="-729.5" font-family="Helvetica,sans-Serif" font-size="10.00">+ update()</text>
<text text-anchor="start" x="164.5" y="-718.5" font-family="Helvetica,sans-Serif" font-size="10.00">+ draw()</text>
</a>
</g>
</g>
<!-- Node6&#45;&gt;Node5 -->
<g id="edge5" class="edge">
<title>Node6&#45;&gt;Node5</title>
<path fill="none" stroke="midnightblue" d="M227.21,-701.52C229.84,-689.1 232.53,-676.34 235.2,-663.75"/>
<polygon fill="none" stroke="midnightblue" points="223.77,-700.88 225.13,-711.38 230.62,-702.32 223.77,-700.88"/>
</g>
<!-- Node6&#45;&gt;Node6 -->
<g id="edge6" class="edge">
<title>Node6&#45;&gt;Node6</title>
<path fill="none" stroke="#404040" d="M256.61,-820.76C267.02,-818.63 274.5,-811.88 274.5,-800.5 274.5,-793.92 272,-788.89 267.88,-785.4"/>
<polygon fill="none" stroke="#404040" points="267.52,-785.24 260.4,-786.38 256.61,-780.24 263.74,-779.1 267.52,-785.24"/>
<text text-anchor="middle" x="296" y="-798" font-family="Helvetica,sans-Serif" font-size="10.00"> #parent</text>
</g>
<!-- Node7&#45;&gt;Node4 -->
<g id="edge8" class="edge">
<title>Node7&#45;&gt;Node4</title>
<path fill="none" stroke="#404040" d="M288.43,-101.8C285.21,-114.96 281.48,-129.09 277.5,-142 276.8,-144.26 276.09,-146.54 275.36,-148.83"/>
<polygon fill="none" stroke="#404040" points="275.31,-148.98 277.25,-155.93 271.59,-160.39 269.65,-153.44 275.31,-148.98"/>
<text text-anchor="middle" x="320" y="-128.5" font-family="Helvetica,sans-Serif" font-size="10.00"> &#45;stateMachine</text>
</g>
<!-- Node8 -->
<g id="node8" class="node">
<title>Node8</title>
<g id="a_node8"><a xlink:title=" ">
<polygon fill="none" stroke="#bfbfbf" points="125.5,-524 125.5,-581 165.5,-581 165.5,-524 125.5,-524"/>
<text text-anchor="middle" x="145.5" y="-569" font-family="Helvetica,sans-Serif" font-size="10.00">vec3</text>
<polyline fill="none" stroke="#bfbfbf" points="125.5,-562 165.5,-562 "/>
<text text-anchor="middle" x="145.5" y="-550" font-family="Helvetica,sans-Serif" font-size="10.00"> </text>
<polyline fill="none" stroke="#bfbfbf" points="125.5,-543 165.5,-543 "/>
<text text-anchor="middle" x="145.5" y="-531" font-family="Helvetica,sans-Serif" font-size="10.00"> </text>
</a>
</g>
</g>
<!-- Node8&#45;&gt;Node4 -->
<g id="edge13" class="edge">
<title>Node8&#45;&gt;Node4</title>
<path fill="none" stroke="#404040" d="M150.15,-523.97C155.61,-493.53 165.59,-443.21 178.5,-401 179.18,-398.76 179.89,-396.51 180.62,-394.24"/>
<polygon fill="none" stroke="#404040" points="180.62,-394.23 178.71,-387.28 184.39,-382.84 186.3,-389.8 180.62,-394.23"/>
<text text-anchor="middle" x="208.5" y="-409.5" font-family="Helvetica,sans-Serif" font-size="10.00"> &#45;npc_colour</text>
</g>
</g>
</svg>
        <g id="navigator" transform="translate(0 0)" fill="#404254">
                <rect fill="#f2f5e9" fill-opacity="0.5" stroke="#606060" stroke-width=".5" x="0" y="0" width="60" height="60"/>
                <use id="zoomplus" xlink:href="#zoomPlus" x="17" y="9" onmousedown="handleZoom(evt,'in')"/>
                <use id="zoomminus" xlink:href="#zoomMin" x="42" y="9" onmousedown="handleZoom(evt,'out')"/>
                <use id="reset" xlink:href="#resetDef" x="30" y="36" onmousedown="handleReset()"/>
                <g id="arrowUp" xlink:href="#dirArrow" transform="translate(30 24)" onmousedown="handlePan(0,-1)">
                  <use xlink:href="#rim" fill="#404040">
                        <set attributeName="fill" to="#808080" begin="arrowUp.mouseover" end="arrowUp.mouseout"/>
                  </use>
                  <path fill="none" stroke="white" stroke-width="1.5" d="M0,-3.0v7 M-2.5,-0.5L0,-3.0L2.5,-0.5"/>
                </g>
                <g id="arrowRight" xlink:href="#dirArrow" transform="rotate(90) translate(36 -43)" onmousedown="handlePan(1,0)">
                  <use xlink:href="#rim" fill="#404040">
                        <set attributeName="fill" to="#808080" begin="arrowRight.mouseover" end="arrowRight.mouseout"/>
                  </use>
                  <path fill="none" stroke="white" stroke-width="1.5" d="M0,-3.0v7 M-2.5,-0.5L0,-3.0L2.5,-0.5"/>
                </g>
                <g id="arrowDown" xlink:href="#dirArrow" transform="rotate(180) translate(-30 -48)" onmousedown="handlePan(0,1)">
                  <use xlink:href="#rim" fill="#404040">
                        <set attributeName="fill" to="#808080" begin="arrowDown.mouseover" end="arrowDown.mouseout"/>
                  </use>
                  <path fill="none" stroke="white" stroke-width="1.5" d="M0,-3.0v7 M-2.5,-0.5L0,-3.0L2.5,-0.5"/>
                </g>
                <g id="arrowLeft" xlink:href="#dirArrow" transform="rotate(270) translate(-36 17)" onmousedown="handlePan(-1,0)">
                  <use xlink:href="#rim" fill="#404040">
                        <set attributeName="fill" to="#808080" begin="arrowLeft.mouseover" end="arrowLeft.mouseout"/>
                  </use>
                  <path fill="none" stroke="white" stroke-width="1.5" d="M0,-3.0v7 M-2.5,-0.5L0,-3.0L2.5,-0.5"/>
                </g>
        </g>
        <svg viewBox="0 0 15 15" width="100%" height="30px" preserveAspectRatio="xMaxYMin meet">
         <g id="arrow_out" transform="scale(0.3 0.3)">
          <a xlink:href="classTransition__coll__graph_org.svg" target="_base">
           <rect id="button" ry="5" rx="5" y="6" x="6" height="38" width="38"
                fill="#f2f5e9" fill-opacity="0.5" stroke="#606060" stroke-width="1.0"/>
           <path id="arrow"
             d="M 11.500037,31.436501 C 11.940474,20.09759 22.043105,11.32322 32.158766,21.979434 L 37.068811,17.246167 C 37.068811,17.246167 37.088388,32 37.088388,32 L 22.160133,31.978069 C 22.160133,31.978069 26.997745,27.140456 26.997745,27.140456 C 18.528582,18.264221 13.291696,25.230495 11.500037,31.436501 z"
             style="fill:#404040;"/>
          </a>
         </g>
        </svg>
</svg>
