<?xml version="1.0" encoding="UTF-8" standalone="no"?>
<!DOCTYPE svg PUBLIC "-//W3C//DTD SVG 1.1//EN"
 "http://www.w3.org/Graphics/SVG/1.1/DTD/svg11.dtd">
<!-- Generated by graphviz version 2.43.0 (0)
 -->
<!-- Title: sprite Pages: 1 -->
<svg width="152pt" height="391pt"
 viewBox="0.00 0.00 151.50 391.00" xmlns="http://www.w3.org/2000/svg" xmlns:xlink="http://www.w3.org/1999/xlink">
<g id="graph0" class="graph" transform="scale(1 1) rotate(0) translate(4 387)">
<title>sprite</title>
<!-- Node1 -->
<g id="node1" class="node">
<title>Node1</title>
<g id="a_node1"><a xlink:title=" ">
<polygon fill="#bfbfbf" stroke="black" points="0,-0.5 0,-255.5 131,-255.5 131,-0.5 0,-0.5"/>
<text text-anchor="middle" x="65.5" y="-243.5" font-family="Helvetica,sans-Serif" font-size="10.00">sprite</text>
<polyline fill="none" stroke="black" points="0,-236.5 131,-236.5 "/>
<text text-anchor="start" x="8" y="-224.5" font-family="Helvetica,sans-Serif" font-size="10.00">&#45; smart_texture</text>
<text text-anchor="start" x="8" y="-213.5" font-family="Helvetica,sans-Serif" font-size="10.00">&#45; texture_list</text>
<text text-anchor="start" x="8" y="-202.5" font-family="Helvetica,sans-Serif" font-size="10.00">&#45; m_key</text>
<text text-anchor="start" x="8" y="-191.5" font-family="Helvetica,sans-Serif" font-size="10.00">&#45; m_sprite_sheet</text>
<text text-anchor="start" x="8" y="-180.5" font-family="Helvetica,sans-Serif" font-size="10.00">&#45; m_change_frames</text>
<text text-anchor="start" x="8" y="-169.5" font-family="Helvetica,sans-Serif" font-size="10.00">&#45; m_x_num_frame</text>
<text text-anchor="start" x="8" y="-158.5" font-family="Helvetica,sans-Serif" font-size="10.00">&#45; m_y_num_frame</text>
<text text-anchor="start" x="8" y="-147.5" font-family="Helvetica,sans-Serif" font-size="10.00">&#45; m_incrementer</text>
<text text-anchor="start" x="8" y="-136.5" font-family="Helvetica,sans-Serif" font-size="10.00">&#45; m_rotate</text>
<polyline fill="none" stroke="black" points="0,-129.5 131,-129.5 "/>
<text text-anchor="start" x="8" y="-117.5" font-family="Helvetica,sans-Serif" font-size="10.00">+ sprite()</text>
<text text-anchor="start" x="8" y="-106.5" font-family="Helvetica,sans-Serif" font-size="10.00">+ sprite()</text>
<text text-anchor="start" x="8" y="-95.5" font-family="Helvetica,sans-Serif" font-size="10.00">+ ~sprite()</text>
<text text-anchor="start" x="8" y="-84.5" font-family="Helvetica,sans-Serif" font-size="10.00">+ loadSmartTexture()</text>
<text text-anchor="start" x="8" y="-73.5" font-family="Helvetica,sans-Serif" font-size="10.00">+ get_smart_texture()</text>
<text text-anchor="start" x="8" y="-62.5" font-family="Helvetica,sans-Serif" font-size="10.00">+ set_texture()</text>
<text text-anchor="start" x="8" y="-51.5" font-family="Helvetica,sans-Serif" font-size="10.00">+ get_key()</text>
<text text-anchor="start" x="8" y="-40.5" font-family="Helvetica,sans-Serif" font-size="10.00">+ get_sprite_sheet()</text>
<text text-anchor="start" x="8" y="-29.5" font-family="Helvetica,sans-Serif" font-size="10.00">+ get_change_frames()</text>
<text text-anchor="start" x="8" y="-18.5" font-family="Helvetica,sans-Serif" font-size="10.00">+ get_num_x_frames()</text>
<text text-anchor="start" x="8" y="-7.5" font-family="Helvetica,sans-Serif" font-size="10.00">and 17 more...</text>
</a>
</g>
</g>
<!-- Node2 -->
<g id="node2" class="node">
<title>Node2</title>
<g id="a_node2"><a xlink:title=" ">
<polygon fill="none" stroke="#bfbfbf" points="5.5,-325.5 5.5,-382.5 45.5,-382.5 45.5,-325.5 5.5,-325.5"/>
<text text-anchor="middle" x="25.5" y="-370.5" font-family="Helvetica,sans-Serif" font-size="10.00">vec2</text>
<polyline fill="none" stroke="#bfbfbf" points="5.5,-363.5 45.5,-363.5 "/>
<text text-anchor="middle" x="25.5" y="-351.5" font-family="Helvetica,sans-Serif" font-size="10.00"> </text>
<polyline fill="none" stroke="#bfbfbf" points="5.5,-344.5 45.5,-344.5 "/>
<text text-anchor="middle" x="25.5" y="-332.5" font-family="Helvetica,sans-Serif" font-size="10.00"> </text>
</a>
</g>
</g>
<!-- Node2&#45;&gt;Node1 -->
<g id="edge1" class="edge">
<title>Node2&#45;&gt;Node1</title>
<path fill="none" stroke="#404040" d="M24.17,-325.45C23.85,-310.22 24.15,-290.98 26.5,-274 26.8,-271.82 27.13,-269.62 27.47,-267.42"/>
<polygon fill="none" stroke="#404040" points="27.48,-267.37 24.55,-260.78 29.51,-255.54 32.44,-262.13 27.48,-267.37"/>
<text text-anchor="middle" x="55.5" y="-299" font-family="Helvetica,sans-Serif" font-size="10.00"> &#45;m_size</text>
<text text-anchor="middle" x="55.5" y="-288" font-family="Helvetica,sans-Serif" font-size="10.00">&#45;m_frames</text>
<text text-anchor="middle" x="55.5" y="-277" font-family="Helvetica,sans-Serif" font-size="10.00">&#45;m_position</text>
</g>
<!-- Node3 -->
<g id="node3" class="node">
<title>Node3</title>
<g id="a_node3"><a xlink:title=" ">
<polygon fill="none" stroke="#bfbfbf" points="86.5,-325.5 86.5,-382.5 126.5,-382.5 126.5,-325.5 86.5,-325.5"/>
<text text-anchor="middle" x="106.5" y="-370.5" font-family="Helvetica,sans-Serif" font-size="10.00">vec3</text>
<polyline fill="none" stroke="#bfbfbf" points="86.5,-363.5 126.5,-363.5 "/>
<text text-anchor="middle" x="106.5" y="-351.5" font-family="Helvetica,sans-Serif" font-size="10.00"> </text>
<polyline fill="none" stroke="#bfbfbf" points="86.5,-344.5 126.5,-344.5 "/>
<text text-anchor="middle" x="106.5" y="-332.5" font-family="Helvetica,sans-Serif" font-size="10.00"> </text>
</a>
</g>
</g>
<!-- Node3&#45;&gt;Node1 -->
<g id="edge2" class="edge">
<title>Node3&#45;&gt;Node1</title>
<path fill="none" stroke="#404040" d="M101.39,-325.08C98.57,-309.67 94.83,-289.26 90.84,-267.43"/>
<polygon fill="none" stroke="#404040" points="90.82,-267.34 85.81,-262.16 88.66,-255.54 93.68,-260.72 90.82,-267.34"/>
<text text-anchor="middle" x="120.5" y="-288" font-family="Helvetica,sans-Serif" font-size="10.00"> &#45;m_color</text>
</g>
</g>
</svg>
