<?xml version="1.0" encoding="UTF-8" standalone="no"?>
<!DOCTYPE svg PUBLIC "-//W3C//DTD SVG 1.1//EN"
 "http://www.w3.org/Graphics/SVG/1.1/DTD/svg11.dtd">
<!-- Generated by graphviz version 2.43.0 (0)
 -->
<!-- Title: /home/fnky/C0de/component_engine/include/BStateMachine/Condition.h Pages: 1 -->
<!--zoomable 440 -->
<svg id="main" version="1.1" xmlns="http://www.w3.org/2000/svg" xmlns:xlink="http://www.w3.org/1999/xlink" xml:space="preserve" onload="init(evt)">
<style type="text/css"><![CDATA[
.edge:hover path { stroke: red; }
.edge:hover polygon { stroke: red; fill: red; }
]]></style>
<script type="text/javascript"><![CDATA[
var edges = document.getElementsByTagName('g');
if (edges && edges.length) {
  for (var i=0;i<edges.length;i++) {
    if (edges[i].id.substr(0,4)=='edge') {
      edges[i].setAttribute('class','edge');
    }
  }
}
]]></script>
        <defs>
                <circle id="rim" cx="0" cy="0" r="7"/>
                <circle id="rim2" cx="0" cy="0" r="3.5"/>
                <g id="zoomPlus">
                        <use xlink:href="#rim" fill="#404040">
                                <set attributeName="fill" to="#808080" begin="zoomplus.mouseover" end="zoomplus.mouseout"/>
                        </use>
                        <path d="M-4,0h8M0,-4v8" fill="none" stroke="white" stroke-width="1.5" pointer-events="none"/>
                </g>
                <g id="zoomMin">
                        <use xlink:href="#rim" fill="#404040">
                                <set attributeName="fill" to="#808080" begin="zoomminus.mouseover" end="zoomminus.mouseout"/>
                        </use>
                        <path d="M-4,0h8" fill="none" stroke="white" stroke-width="1.5" pointer-events="none"/>
                </g>
                <g id="dirArrow">
                        <path fill="none" stroke="white" stroke-width="1.5" d="M0,-3.0v7 M-2.5,-0.5L0,-3.0L2.5,-0.5"/>
                </g>
               <g id="resetDef">
                       <use xlink:href="#rim2" fill="#404040">
                               <set attributeName="fill" to="#808080" begin="reset.mouseover" end="reset.mouseout"/>
                       </use>
               </g>
        </defs>

<script type="text/javascript">
var viewWidth = 969;
var viewHeight = 440;
var sectionId = 'dynsection-1';
</script>
<script xlink:href="svgpan.js"/>
<svg id="graph" class="graph">
<g id="viewport">
<title>/home/fnky/C0de/component_engine/include/BStateMachine/Condition.h</title>
<!-- Node1 -->
<g id="node1" class="node">
<title>Node1</title>
<g id="a_node1"><a xlink:title=" ">
<polygon fill="#bfbfbf" stroke="black" points="368.5,-390.5 368.5,-431.5 538.5,-431.5 538.5,-390.5 368.5,-390.5"/>
<text text-anchor="start" x="376.5" y="-419.5" font-family="Helvetica,sans-Serif" font-size="10.00">/home/fnky/C0de/component</text>
<text text-anchor="start" x="376.5" y="-408.5" font-family="Helvetica,sans-Serif" font-size="10.00">_engine/include/BStateMachine</text>
<text text-anchor="middle" x="453.5" y="-397.5" font-family="Helvetica,sans-Serif" font-size="10.00">/Condition.h</text>
</a>
</g>
</g>
<!-- Node2 -->
<g id="node2" class="node">
<title>Node2</title>
<g id="a_node2"><a xlink:href="BStateMachine_8h.html" target="_top" xlink:title=" ">
<polygon fill="none" stroke="black" points="195.5,-234.5 195.5,-275.5 365.5,-275.5 365.5,-234.5 195.5,-234.5"/>
<text text-anchor="start" x="203.5" y="-263.5" font-family="Helvetica,sans-Serif" font-size="10.00">/home/fnky/C0de/component</text>
<text text-anchor="start" x="203.5" y="-252.5" font-family="Helvetica,sans-Serif" font-size="10.00">_engine/include/BStateMachine</text>
<text text-anchor="middle" x="280.5" y="-241.5" font-family="Helvetica,sans-Serif" font-size="10.00">/BStateMachine.h</text>
</a>
</g>
</g>
<!-- Node1&#45;&gt;Node2 -->
<g id="edge1" class="edge">
<title>Node1&#45;&gt;Node2</title>
<path fill="none" stroke="midnightblue" d="M358.38,-395.71C310.97,-386.44 260.73,-372.6 246.5,-354 228.55,-330.55 247.55,-296.92 263.53,-275.79"/>
<polygon fill="midnightblue" stroke="midnightblue" points="357.96,-399.19 368.44,-397.62 359.27,-392.31 357.96,-399.19"/>
</g>
<!-- Node3 -->
<g id="node3" class="node">
<title>Node3</title>
<g id="a_node3"><a xlink:href="NPC__Actor_8h.html" target="_top" xlink:title=" ">
<polygon fill="none" stroke="black" points="375,-156.5 375,-197.5 532,-197.5 532,-156.5 375,-156.5"/>
<text text-anchor="start" x="383" y="-185.5" font-family="Helvetica,sans-Serif" font-size="10.00">/home/fnky/C0de/component</text>
<text text-anchor="start" x="383" y="-174.5" font-family="Helvetica,sans-Serif" font-size="10.00">_engine/include/Actors</text>
<text text-anchor="middle" x="453.5" y="-163.5" font-family="Helvetica,sans-Serif" font-size="10.00">/NPC_Actor.h</text>
</a>
</g>
</g>
<!-- Node1&#45;&gt;Node3 -->
<g id="edge19" class="edge">
<title>Node1&#45;&gt;Node3</title>
<path fill="none" stroke="midnightblue" d="M453.5,-380.11C453.5,-331.94 453.5,-238.44 453.5,-197.73"/>
<polygon fill="midnightblue" stroke="midnightblue" points="450,-380.22 453.5,-390.22 457,-380.22 450,-380.22"/>
</g>
<!-- Node13 -->
<g id="node13" class="node">
<title>Node13</title>
<g id="a_node13"><a xlink:href="ConditionInRange_8h.html" target="_top" xlink:title=" ">
<polygon fill="none" stroke="black" points="255.5,-312.5 255.5,-353.5 425.5,-353.5 425.5,-312.5 255.5,-312.5"/>
<text text-anchor="start" x="263.5" y="-341.5" font-family="Helvetica,sans-Serif" font-size="10.00">/home/fnky/C0de/component</text>
<text text-anchor="start" x="263.5" y="-330.5" font-family="Helvetica,sans-Serif" font-size="10.00">_engine/include/BStateMachine</text>
<text text-anchor="middle" x="340.5" y="-319.5" font-family="Helvetica,sans-Serif" font-size="10.00">/ConditionInRange.h</text>
</a>
</g>
</g>
<!-- Node1&#45;&gt;Node13 -->
<g id="edge15" class="edge">
<title>Node1&#45;&gt;Node13</title>
<path fill="none" stroke="midnightblue" d="M415.79,-384.64C400.7,-374.49 383.59,-362.98 369.5,-353.51"/>
<polygon fill="midnightblue" stroke="midnightblue" points="414.15,-387.75 424.4,-390.43 418.06,-381.94 414.15,-387.75"/>
</g>
<!-- Node14 -->
<g id="node14" class="node">
<title>Node14</title>
<g id="a_node14"><a xlink:href="ConditionOutOfRange_8h.html" target="_top" xlink:title=" ">
<polygon fill="none" stroke="black" points="481.5,-234.5 481.5,-275.5 651.5,-275.5 651.5,-234.5 481.5,-234.5"/>
<text text-anchor="start" x="489.5" y="-263.5" font-family="Helvetica,sans-Serif" font-size="10.00">/home/fnky/C0de/component</text>
<text text-anchor="start" x="489.5" y="-252.5" font-family="Helvetica,sans-Serif" font-size="10.00">_engine/include/BStateMachine</text>
<text text-anchor="middle" x="566.5" y="-241.5" font-family="Helvetica,sans-Serif" font-size="10.00">/ConditionOutOfRange.h</text>
</a>
</g>
</g>
<!-- Node1&#45;&gt;Node14 -->
<g id="edge20" class="edge">
<title>Node1&#45;&gt;Node14</title>
<path fill="none" stroke="midnightblue" d="M468.08,-381.32C478.9,-361.14 494.65,-333.92 511.5,-312 521.47,-299.04 534.17,-285.92 544.86,-275.64"/>
<polygon fill="midnightblue" stroke="midnightblue" points="464.89,-379.86 463.32,-390.33 471.08,-383.12 464.89,-379.86"/>
</g>
<!-- Node15 -->
<g id="node15" class="node">
<title>Node15</title>
<g id="a_node15"><a xlink:href="Transition_8cpp.html" target="_top" xlink:title=" ">
<polygon fill="none" stroke="black" points="520,-312.5 520,-353.5 677,-353.5 677,-312.5 520,-312.5"/>
<text text-anchor="start" x="528" y="-341.5" font-family="Helvetica,sans-Serif" font-size="10.00">/home/fnky/C0de/component</text>
<text text-anchor="start" x="528" y="-330.5" font-family="Helvetica,sans-Serif" font-size="10.00">_engine/src/BStateMachine</text>
<text text-anchor="middle" x="598.5" y="-319.5" font-family="Helvetica,sans-Serif" font-size="10.00">/Transition.cpp</text>
</a>
</g>
</g>
<!-- Node1&#45;&gt;Node15 -->
<g id="edge23" class="edge">
<title>Node1&#45;&gt;Node15</title>
<path fill="none" stroke="midnightblue" d="M499.73,-385.77C519.61,-375.35 542.53,-363.34 561.29,-353.51"/>
<polygon fill="midnightblue" stroke="midnightblue" points="498.07,-382.69 490.84,-390.43 501.32,-388.89 498.07,-382.69"/>
</g>
<!-- Node2&#45;&gt;Node3 -->
<g id="edge2" class="edge">
<title>Node2&#45;&gt;Node3</title>
<path fill="none" stroke="midnightblue" d="M334.38,-230.33C358.39,-219.78 386.32,-207.51 409.1,-197.51"/>
<polygon fill="midnightblue" stroke="midnightblue" points="332.8,-227.2 325.05,-234.43 335.62,-233.61 332.8,-227.2"/>
</g>
<!-- Node9 -->
<g id="node9" class="node">
<title>Node9</title>
<g id="a_node9"><a xlink:href="BStateMachine_8cpp.html" target="_top" xlink:title=" ">
<polygon fill="none" stroke="black" points="175,-78.5 175,-119.5 332,-119.5 332,-78.5 175,-78.5"/>
<text text-anchor="start" x="183" y="-107.5" font-family="Helvetica,sans-Serif" font-size="10.00">/home/fnky/C0de/component</text>
<text text-anchor="start" x="183" y="-96.5" font-family="Helvetica,sans-Serif" font-size="10.00">_engine/src/BStateMachine</text>
<text text-anchor="middle" x="253.5" y="-85.5" font-family="Helvetica,sans-Serif" font-size="10.00">/BStateMachine.cpp</text>
</a>
</g>
</g>
<!-- Node2&#45;&gt;Node9 -->
<g id="edge14" class="edge">
<title>Node2&#45;&gt;Node9</title>
<path fill="none" stroke="midnightblue" d="M275.3,-224.36C269.91,-193.61 261.63,-146.36 256.98,-119.83"/>
<polygon fill="midnightblue" stroke="midnightblue" points="271.91,-225.25 277.08,-234.5 278.8,-224.04 271.91,-225.25"/>
</g>
<!-- Node4 -->
<g id="node4" class="node">
<title>Node4</title>
<g id="a_node4"><a xlink:href="Projectile__Acotr_8h.html" target="_top" xlink:title=" ">
<polygon fill="none" stroke="black" points="350,-78.5 350,-119.5 507,-119.5 507,-78.5 350,-78.5"/>
<text text-anchor="start" x="358" y="-107.5" font-family="Helvetica,sans-Serif" font-size="10.00">/home/fnky/C0de/component</text>
<text text-anchor="start" x="358" y="-96.5" font-family="Helvetica,sans-Serif" font-size="10.00">_engine/include/Actors</text>
<text text-anchor="middle" x="428.5" y="-85.5" font-family="Helvetica,sans-Serif" font-size="10.00">/Projectile_Acotr.h</text>
</a>
</g>
</g>
<!-- Node3&#45;&gt;Node4 -->
<g id="edge3" class="edge">
<title>Node3&#45;&gt;Node4</title>
<path fill="none" stroke="midnightblue" d="M443.92,-146.88C440.91,-137.72 437.65,-127.83 434.92,-119.51"/>
<polygon fill="midnightblue" stroke="midnightblue" points="440.61,-148.02 447.06,-156.43 447.26,-145.84 440.61,-148.02"/>
</g>
<!-- Node6 -->
<g id="node6" class="node">
<title>Node6</title>
<g id="a_node6"><a xlink:href="NPC__Actor_8cpp.html" target="_top" xlink:title=" ">
<polygon fill="none" stroke="black" points="680,-0.5 680,-41.5 837,-41.5 837,-0.5 680,-0.5"/>
<text text-anchor="start" x="688" y="-29.5" font-family="Helvetica,sans-Serif" font-size="10.00">/home/fnky/C0de/component</text>
<text text-anchor="start" x="688" y="-18.5" font-family="Helvetica,sans-Serif" font-size="10.00">_engine/src/Actors/NPC</text>
<text text-anchor="middle" x="758.5" y="-7.5" font-family="Helvetica,sans-Serif" font-size="10.00">_Actor.cpp</text>
</a>
</g>
</g>
<!-- Node3&#45;&gt;Node6 -->
<g id="edge8" class="edge">
<title>Node3&#45;&gt;Node6</title>
<path fill="none" stroke="midnightblue" d="M542.15,-171.72C621.46,-165.82 729.31,-152.01 756.5,-120 774.79,-98.47 770.2,-63.66 764.71,-41.84"/>
<polygon fill="midnightblue" stroke="midnightblue" points="541.86,-168.23 532.13,-172.43 542.36,-175.21 541.86,-168.23"/>
</g>
<!-- Node8 -->
<g id="node8" class="node">
<title>Node8</title>
<g id="a_node8"><a xlink:href="game__play__state_8cpp.html" target="_top" xlink:title=" ">
<polygon fill="none" stroke="black" points="473,-0.5 473,-41.5 630,-41.5 630,-0.5 473,-0.5"/>
<text text-anchor="start" x="481" y="-29.5" font-family="Helvetica,sans-Serif" font-size="10.00">/home/fnky/C0de/component</text>
<text text-anchor="start" x="481" y="-18.5" font-family="Helvetica,sans-Serif" font-size="10.00">_engine/src/States/game</text>
<text text-anchor="middle" x="551.5" y="-7.5" font-family="Helvetica,sans-Serif" font-size="10.00">_play_state.cpp</text>
</a>
</g>
</g>
<!-- Node3&#45;&gt;Node8 -->
<g id="edge13" class="edge">
<title>Node3&#45;&gt;Node8</title>
<path fill="none" stroke="midnightblue" d="M489.08,-149.88C498.99,-141.25 509.07,-131.01 516.5,-120 532.97,-95.59 542.66,-62.53 547.52,-41.74"/>
<polygon fill="midnightblue" stroke="midnightblue" points="486.65,-147.35 481.22,-156.44 491.14,-152.72 486.65,-147.35"/>
</g>
<!-- Node3&#45;&gt;Node9 -->
<g id="edge9" class="edge">
<title>Node3&#45;&gt;Node9</title>
<path fill="none" stroke="midnightblue" d="M392.31,-152.75C364.31,-142.11 331.52,-129.65 304.83,-119.51"/>
<polygon fill="midnightblue" stroke="midnightblue" points="391.4,-156.15 402,-156.43 393.89,-149.6 391.4,-156.15"/>
</g>
<!-- Node10 -->
<g id="node10" class="node">
<title>Node10</title>
<g id="a_node10"><a xlink:href="ConditionInRange_8cpp.html" target="_top" xlink:title=" ">
<polygon fill="none" stroke="black" points="0,-78.5 0,-119.5 157,-119.5 157,-78.5 0,-78.5"/>
<text text-anchor="start" x="8" y="-107.5" font-family="Helvetica,sans-Serif" font-size="10.00">/home/fnky/C0de/component</text>
<text text-anchor="start" x="8" y="-96.5" font-family="Helvetica,sans-Serif" font-size="10.00">_engine/src/BStateMachine</text>
<text text-anchor="middle" x="78.5" y="-85.5" font-family="Helvetica,sans-Serif" font-size="10.00">/ConditionInRange.cpp</text>
</a>
</g>
</g>
<!-- Node3&#45;&gt;Node10 -->
<g id="edge10" class="edge">
<title>Node3&#45;&gt;Node10</title>
<path fill="none" stroke="midnightblue" d="M364.75,-159.55C307.73,-148.78 232.13,-134.13 165.5,-120 162.77,-119.42 160,-118.82 157.19,-118.22"/>
<polygon fill="midnightblue" stroke="midnightblue" points="364.34,-163.03 374.82,-161.45 365.64,-156.15 364.34,-163.03"/>
</g>
<!-- Node11 -->
<g id="node11" class="node">
<title>Node11</title>
<g id="a_node11"><a xlink:href="ConditionOutOfRange_8cpp.html" target="_top" xlink:title=" ">
<polygon fill="none" stroke="black" points="804,-78.5 804,-119.5 961,-119.5 961,-78.5 804,-78.5"/>
<text text-anchor="start" x="812" y="-107.5" font-family="Helvetica,sans-Serif" font-size="10.00">/home/fnky/C0de/component</text>
<text text-anchor="start" x="812" y="-96.5" font-family="Helvetica,sans-Serif" font-size="10.00">_engine/src/BStateMachine</text>
<text text-anchor="middle" x="882.5" y="-85.5" font-family="Helvetica,sans-Serif" font-size="10.00">/ConditionOutOfRange.cpp</text>
</a>
</g>
</g>
<!-- Node3&#45;&gt;Node11 -->
<g id="edge11" class="edge">
<title>Node3&#45;&gt;Node11</title>
<path fill="none" stroke="midnightblue" d="M542.32,-162.36C610.17,-151.65 705.93,-135.94 789.5,-120 794.2,-119.1 799.04,-118.15 803.91,-117.17"/>
<polygon fill="midnightblue" stroke="midnightblue" points="541.43,-158.95 532.1,-163.96 542.52,-165.87 541.43,-158.95"/>
</g>
<!-- Node12 -->
<g id="node12" class="node">
<title>Node12</title>
<g id="a_node12"><a xlink:href="LoadingGameObjects_8cpp.html" target="_top" xlink:title=" ">
<polygon fill="none" stroke="black" points="563.5,-78.5 563.5,-119.5 747.5,-119.5 747.5,-78.5 563.5,-78.5"/>
<text text-anchor="start" x="571.5" y="-107.5" font-family="Helvetica,sans-Serif" font-size="10.00">/home/fnky/C0de/component</text>
<text text-anchor="start" x="571.5" y="-96.5" font-family="Helvetica,sans-Serif" font-size="10.00">_engine/src/Loaders/LoadingGame</text>
<text text-anchor="middle" x="655.5" y="-85.5" font-family="Helvetica,sans-Serif" font-size="10.00">Objects.cpp</text>
</a>
</g>
</g>
<!-- Node3&#45;&gt;Node12 -->
<g id="edge12" class="edge">
<title>Node3&#45;&gt;Node12</title>
<path fill="none" stroke="midnightblue" d="M514.93,-152.89C543.29,-142.22 576.59,-129.69 603.66,-119.51"/>
<polygon fill="midnightblue" stroke="midnightblue" points="513.65,-149.63 505.52,-156.43 516.11,-156.18 513.65,-149.63"/>
</g>
<!-- Node5 -->
<g id="node5" class="node">
<title>Node5</title>
<g id="a_node5"><a xlink:href="Gun__Actor_8cpp.html" target="_top" xlink:title=" ">
<polygon fill="none" stroke="black" points="123,-0.5 123,-41.5 280,-41.5 280,-0.5 123,-0.5"/>
<text text-anchor="start" x="131" y="-29.5" font-family="Helvetica,sans-Serif" font-size="10.00">/home/fnky/C0de/component</text>
<text text-anchor="start" x="131" y="-18.5" font-family="Helvetica,sans-Serif" font-size="10.00">_engine/src/Actors/Gun</text>
<text text-anchor="middle" x="201.5" y="-7.5" font-family="Helvetica,sans-Serif" font-size="10.00">_Actor.cpp</text>
</a>
</g>
</g>
<!-- Node4&#45;&gt;Node5 -->
<g id="edge4" class="edge">
<title>Node4&#45;&gt;Node5</title>
<path fill="none" stroke="midnightblue" d="M360.3,-75.17C328.25,-64.44 290.44,-51.78 259.76,-41.51"/>
<polygon fill="midnightblue" stroke="midnightblue" points="359.45,-78.57 370.04,-78.43 361.67,-71.93 359.45,-78.57"/>
</g>
<!-- Node4&#45;&gt;Node6 -->
<g id="edge5" class="edge">
<title>Node4&#45;&gt;Node6</title>
<path fill="none" stroke="midnightblue" d="M517.1,-77.6C567.84,-65.91 630.94,-51.38 679.91,-40.1"/>
<polygon fill="midnightblue" stroke="midnightblue" points="516.08,-74.24 507.12,-79.89 517.65,-81.06 516.08,-74.24"/>
</g>
<!-- Node7 -->
<g id="node7" class="node">
<title>Node7</title>
<g id="a_node7"><a xlink:href="Projectile__Actor_8cpp.html" target="_top" xlink:title=" ">
<polygon fill="none" stroke="black" points="298,-0.5 298,-41.5 455,-41.5 455,-0.5 298,-0.5"/>
<text text-anchor="start" x="306" y="-29.5" font-family="Helvetica,sans-Serif" font-size="10.00">/home/fnky/C0de/component</text>
<text text-anchor="start" x="306" y="-18.5" font-family="Helvetica,sans-Serif" font-size="10.00">_engine/src/Actors/Projectile</text>
<text text-anchor="middle" x="376.5" y="-7.5" font-family="Helvetica,sans-Serif" font-size="10.00">_Actor.cpp</text>
</a>
</g>
</g>
<!-- Node4&#45;&gt;Node7 -->
<g id="edge6" class="edge">
<title>Node4&#45;&gt;Node7</title>
<path fill="none" stroke="midnightblue" d="M409.37,-70.05C402.89,-60.57 395.78,-50.18 389.85,-41.51"/>
<polygon fill="midnightblue" stroke="midnightblue" points="406.57,-72.15 415.11,-78.43 412.35,-68.2 406.57,-72.15"/>
</g>
<!-- Node4&#45;&gt;Node8 -->
<g id="edge7" class="edge">
<title>Node4&#45;&gt;Node8</title>
<path fill="none" stroke="midnightblue" d="M469.09,-72.92C485.63,-62.7 504.45,-51.07 519.93,-41.51"/>
<polygon fill="midnightblue" stroke="midnightblue" points="466.84,-70.19 460.18,-78.43 470.52,-76.15 466.84,-70.19"/>
</g>
<!-- Node13&#45;&gt;Node2 -->
<g id="edge16" class="edge">
<title>Node13&#45;&gt;Node2</title>
<path fill="none" stroke="midnightblue" d="M318.66,-304.34C311.11,-294.78 302.82,-284.27 295.9,-275.51"/>
<polygon fill="midnightblue" stroke="midnightblue" points="316.1,-306.75 325.05,-312.43 321.6,-302.41 316.1,-306.75"/>
</g>
<!-- Node13&#45;&gt;Node3 -->
<g id="edge17" class="edge">
<title>Node13&#45;&gt;Node3</title>
<path fill="none" stroke="midnightblue" d="M360.78,-304.36C383.29,-273.68 419.06,-224.94 438.95,-197.83"/>
<polygon fill="midnightblue" stroke="midnightblue" points="357.91,-302.36 354.81,-312.5 363.55,-306.5 357.91,-302.36"/>
</g>
<!-- Node13&#45;&gt;Node10 -->
<g id="edge18" class="edge">
<title>Node13&#45;&gt;Node10</title>
<path fill="none" stroke="midnightblue" d="M246,-308.93C224.96,-300.84 203.8,-290.12 186.5,-276 133.32,-232.59 99.27,-155.64 85.48,-119.62"/>
<polygon fill="midnightblue" stroke="midnightblue" points="245.04,-312.31 255.64,-312.46 247.45,-305.73 245.04,-312.31"/>
</g>
<!-- Node14&#45;&gt;Node3 -->
<g id="edge21" class="edge">
<title>Node14&#45;&gt;Node3</title>
<path fill="none" stroke="midnightblue" d="M528.79,-228.64C513.7,-218.49 496.59,-206.98 482.5,-197.51"/>
<polygon fill="midnightblue" stroke="midnightblue" points="527.15,-231.75 537.4,-234.43 531.06,-225.94 527.15,-231.75"/>
</g>
<!-- Node14&#45;&gt;Node11 -->
<g id="edge22" class="edge">
<title>Node14&#45;&gt;Node11</title>
<path fill="none" stroke="midnightblue" d="M615.77,-229.99C678.19,-199.57 784.55,-147.74 842.31,-119.59"/>
<polygon fill="midnightblue" stroke="midnightblue" points="613.98,-226.97 606.52,-234.5 617.04,-233.26 613.98,-226.97"/>
</g>
</g>
</svg>
        <g id="navigator" transform="translate(0 0)" fill="#404254">
                <rect fill="#f2f5e9" fill-opacity="0.5" stroke="#606060" stroke-width=".5" x="0" y="0" width="60" height="60"/>
                <use id="zoomplus" xlink:href="#zoomPlus" x="17" y="9" onmousedown="handleZoom(evt,'in')"/>
                <use id="zoomminus" xlink:href="#zoomMin" x="42" y="9" onmousedown="handleZoom(evt,'out')"/>
                <use id="reset" xlink:href="#resetDef" x="30" y="36" onmousedown="handleReset()"/>
                <g id="arrowUp" xlink:href="#dirArrow" transform="translate(30 24)" onmousedown="handlePan(0,-1)">
                  <use xlink:href="#rim" fill="#404040">
                        <set attributeName="fill" to="#808080" begin="arrowUp.mouseover" end="arrowUp.mouseout"/>
                  </use>
                  <path fill="none" stroke="white" stroke-width="1.5" d="M0,-3.0v7 M-2.5,-0.5L0,-3.0L2.5,-0.5"/>
                </g>
                <g id="arrowRight" xlink:href="#dirArrow" transform="rotate(90) translate(36 -43)" onmousedown="handlePan(1,0)">
                  <use xlink:href="#rim" fill="#404040">
                        <set attributeName="fill" to="#808080" begin="arrowRight.mouseover" end="arrowRight.mouseout"/>
                  </use>
                  <path fill="none" stroke="white" stroke-width="1.5" d="M0,-3.0v7 M-2.5,-0.5L0,-3.0L2.5,-0.5"/>
                </g>
                <g id="arrowDown" xlink:href="#dirArrow" transform="rotate(180) translate(-30 -48)" onmousedown="handlePan(0,1)">
                  <use xlink:href="#rim" fill="#404040">
                        <set attributeName="fill" to="#808080" begin="arrowDown.mouseover" end="arrowDown.mouseout"/>
                  </use>
                  <path fill="none" stroke="white" stroke-width="1.5" d="M0,-3.0v7 M-2.5,-0.5L0,-3.0L2.5,-0.5"/>
                </g>
                <g id="arrowLeft" xlink:href="#dirArrow" transform="rotate(270) translate(-36 17)" onmousedown="handlePan(-1,0)">
                  <use xlink:href="#rim" fill="#404040">
                        <set attributeName="fill" to="#808080" begin="arrowLeft.mouseover" end="arrowLeft.mouseout"/>
                  </use>
                  <path fill="none" stroke="white" stroke-width="1.5" d="M0,-3.0v7 M-2.5,-0.5L0,-3.0L2.5,-0.5"/>
                </g>
        </g>
        <svg viewBox="0 0 15 15" width="100%" height="30px" preserveAspectRatio="xMaxYMin meet">
         <g id="arrow_out" transform="scale(0.3 0.3)">
          <a xlink:href="Condition_8h__dep__incl_org.svg" target="_base">
           <rect id="button" ry="5" rx="5" y="6" x="6" height="38" width="38"
                fill="#f2f5e9" fill-opacity="0.5" stroke="#606060" stroke-width="1.0"/>
           <path id="arrow"
             d="M 11.500037,31.436501 C 11.940474,20.09759 22.043105,11.32322 32.158766,21.979434 L 37.068811,17.246167 C 37.068811,17.246167 37.088388,32 37.088388,32 L 22.160133,31.978069 C 22.160133,31.978069 26.997745,27.140456 26.997745,27.140456 C 18.528582,18.264221 13.291696,25.230495 11.500037,31.436501 z"
             style="fill:#404040;"/>
          </a>
         </g>
        </svg>
</svg>
