<?xml version="1.0" encoding="UTF-8" standalone="no"?>
<!DOCTYPE svg PUBLIC "-//W3C//DTD SVG 1.1//EN"
 "http://www.w3.org/Graphics/SVG/1.1/DTD/svg11.dtd">
<!-- Generated by graphviz version 2.43.0 (0)
 -->
<!-- Title: /home/fnky/C0de/component_engine/include/GameData Pages: 1 -->
<svg width="209pt" height="151pt"
 viewBox="0.00 0.00 208.50 151.00" xmlns="http://www.w3.org/2000/svg" xmlns:xlink="http://www.w3.org/1999/xlink">
<g id="graph0" class="graph" transform="scale(1 1) rotate(0) translate(4 147)">
<title>/home/fnky/C0de/component_engine/include/GameData</title>
<g id="clust1" class="cluster">
<title>clusterdir_d44c64559bbebec7f509842c48db8b23</title>
<g id="a_clust1"><a xlink:href="dir_d44c64559bbebec7f509842c48db8b23.html" target="_top" xlink:title="include">
<polygon fill="#ddddee" stroke="black" points="57.5,-64 57.5,-135 143.5,-135 143.5,-64 57.5,-64"/>
<text text-anchor="middle" x="100.5" y="-123" font-family="Helvetica,sans-Serif" font-size="10.00">include</text>
</a>
</g>
</g>
<!-- dir_0e829f624c4b46d63701ea67b68089e3 -->
<g id="node1" class="node">
<title>dir_0e829f624c4b46d63701ea67b68089e3</title>
<g id="a_node1"><a xlink:href="dir_0e829f624c4b46d63701ea67b68089e3.html" target="_top" xlink:title="GameData">
<polygon fill="#eeeeff" stroke="black" points="135,-108 66,-108 66,-72 135,-72 135,-108"/>
<text text-anchor="middle" x="100.5" y="-87.5" font-family="Helvetica,sans-Serif" font-size="10.00">GameData</text>
</a>
</g>
</g>
<!-- dir_8aa6006f45766662e626e0dbc3edf5de -->
<g id="node2" class="node">
<title>dir_8aa6006f45766662e626e0dbc3edf5de</title>
<g id="a_node2"><a xlink:href="dir_8aa6006f45766662e626e0dbc3edf5de.html" target="_top" xlink:title="Camera">
<polygon fill="none" stroke="black" points="55,-36 0,-36 0,0 55,0 55,-36"/>
<text text-anchor="middle" x="27.5" y="-15.5" font-family="Helvetica,sans-Serif" font-size="10.00">Camera</text>
</a>
</g>
</g>
<!-- dir_0e829f624c4b46d63701ea67b68089e3&#45;&gt;dir_8aa6006f45766662e626e0dbc3edf5de -->
<g id="edge1" class="edge">
<title>dir_0e829f624c4b46d63701ea67b68089e3&#45;&gt;dir_8aa6006f45766662e626e0dbc3edf5de</title>
<path fill="none" stroke="black" d="M82.46,-71.7C73.44,-63.05 62.38,-52.45 52.56,-43.03"/>
<polygon fill="black" stroke="black" points="54.98,-40.5 45.34,-36.1 50.13,-45.55 54.98,-40.5"/>
<g id="a_edge1&#45;headlabel"><a xlink:href="dir_000005_000004.html" target="_top" xlink:title="1">
<text text-anchor="middle" x="59.54" y="-38.44" font-family="Helvetica,sans-Serif" font-size="10.00">1</text>
</a>
</g>
</g>
<!-- dir_881e7c32d8f98b638e44f48f6fedbf62 -->
<g id="node3" class="node">
<title>dir_881e7c32d8f98b638e44f48f6fedbf62</title>
<g id="a_node3"><a xlink:href="dir_881e7c32d8f98b638e44f48f6fedbf62.html" target="_top" xlink:title="Loaders">
<polygon fill="none" stroke="black" points="128,-36 73,-36 73,0 128,0 128,-36"/>
<text text-anchor="middle" x="100.5" y="-15.5" font-family="Helvetica,sans-Serif" font-size="10.00">Loaders</text>
</a>
</g>
</g>
<!-- dir_0e829f624c4b46d63701ea67b68089e3&#45;&gt;dir_881e7c32d8f98b638e44f48f6fedbf62 -->
<g id="edge2" class="edge">
<title>dir_0e829f624c4b46d63701ea67b68089e3&#45;&gt;dir_881e7c32d8f98b638e44f48f6fedbf62</title>
<path fill="none" stroke="black" d="M100.5,-71.7C100.5,-63.98 100.5,-54.71 100.5,-46.11"/>
<polygon fill="black" stroke="black" points="104,-46.1 100.5,-36.1 97,-46.1 104,-46.1"/>
<g id="a_edge2&#45;headlabel"><a xlink:href="dir_000005_000009.html" target="_top" xlink:title="1">
<text text-anchor="middle" x="106.84" y="-47.2" font-family="Helvetica,sans-Serif" font-size="10.00">1</text>
</a>
</g>
</g>
<!-- dir_ba8a1d5a6323abb109cc1cd03548b282 -->
<g id="node4" class="node">
<title>dir_ba8a1d5a6323abb109cc1cd03548b282</title>
<g id="a_node4"><a xlink:href="dir_ba8a1d5a6323abb109cc1cd03548b282.html" target="_top" xlink:title="States">
<polygon fill="none" stroke="black" points="200.5,-36 146.5,-36 146.5,0 200.5,0 200.5,-36"/>
<text text-anchor="middle" x="173.5" y="-15.5" font-family="Helvetica,sans-Serif" font-size="10.00">States</text>
</a>
</g>
</g>
<!-- dir_0e829f624c4b46d63701ea67b68089e3&#45;&gt;dir_ba8a1d5a6323abb109cc1cd03548b282 -->
<g id="edge3" class="edge">
<title>dir_0e829f624c4b46d63701ea67b68089e3&#45;&gt;dir_ba8a1d5a6323abb109cc1cd03548b282</title>
<path fill="none" stroke="black" d="M112.63,-71.7C120.75,-63.05 131.63,-52.45 142,-43.03"/>
<polygon fill="black" stroke="black" points="144.63,-45.37 149.77,-36.1 139.97,-40.14 144.63,-45.37"/>
<g id="a_edge3&#45;headlabel"><a xlink:href="dir_000005_000010.html" target="_top" xlink:title="1">
<text text-anchor="middle" x="143.83" y="-47.38" font-family="Helvetica,sans-Serif" font-size="10.00">1</text>
</a>
</g>
</g>
<!-- dir_ba8a1d5a6323abb109cc1cd03548b282&#45;&gt;dir_0e829f624c4b46d63701ea67b68089e3 -->
<g id="edge4" class="edge">
<title>dir_ba8a1d5a6323abb109cc1cd03548b282&#45;&gt;dir_0e829f624c4b46d63701ea67b68089e3</title>
<path fill="none" stroke="black" d="M161.56,-36.1C153.4,-44.8 142.4,-55.52 131.94,-65.03"/>
<polygon fill="black" stroke="black" points="129.6,-62.43 124.46,-71.7 134.25,-67.66 129.6,-62.43"/>
<g id="a_edge4&#45;headlabel"><a xlink:href="dir_000010_000005.html" target="_top" xlink:title="5">
<text text-anchor="middle" x="130.39" y="-55.42" font-family="Helvetica,sans-Serif" font-size="10.00">5</text>
</a>
</g>
</g>
</g>
</svg>
