<?xml version="1.0" encoding="UTF-8" standalone="no"?>
<!DOCTYPE svg PUBLIC "-//W3C//DTD SVG 1.1//EN"
 "http://www.w3.org/Graphics/SVG/1.1/DTD/svg11.dtd">
<!-- Generated by graphviz version 2.43.0 (0)
 -->
<!-- Title: /home/fnky/C0de/component_engine/include/Actors Pages: 1 -->
<svg width="194pt" height="151pt"
 viewBox="0.00 0.00 194.00 151.00" xmlns="http://www.w3.org/2000/svg" xmlns:xlink="http://www.w3.org/1999/xlink">
<g id="graph0" class="graph" transform="scale(1 1) rotate(0) translate(4 147)">
<title>/home/fnky/C0de/component_engine/include/Actors</title>
<g id="clust1" class="cluster">
<title>clusterdir_d44c64559bbebec7f509842c48db8b23</title>
<g id="a_clust1"><a xlink:href="dir_d44c64559bbebec7f509842c48db8b23.html" target="_top" xlink:title="include">
<polygon fill="#ddddee" stroke="black" points="61,-64 61,-135 131,-135 131,-64 61,-64"/>
<text text-anchor="middle" x="96" y="-123" font-family="Helvetica,sans-Serif" font-size="10.00">include</text>
</a>
</g>
</g>
<!-- dir_59319838399a0d3b7fe622ff662238be -->
<g id="node1" class="node">
<title>dir_59319838399a0d3b7fe622ff662238be</title>
<g id="a_node1"><a xlink:href="dir_59319838399a0d3b7fe622ff662238be.html" target="_top" xlink:title="Actors">
<polygon fill="#eeeeff" stroke="black" points="123,-108 69,-108 69,-72 123,-72 123,-108"/>
<text text-anchor="middle" x="96" y="-87.5" font-family="Helvetica,sans-Serif" font-size="10.00">Actors</text>
</a>
</g>
</g>
<!-- dir_dbbabfca939152950736ff01da2756a9 -->
<g id="node2" class="node">
<title>dir_dbbabfca939152950736ff01da2756a9</title>
<g id="a_node2"><a xlink:href="dir_dbbabfca939152950736ff01da2756a9.html" target="_top" xlink:title="BStateMachine">
<polygon fill="none" stroke="black" points="90,-36 0,-36 0,0 90,0 90,-36"/>
<text text-anchor="middle" x="45" y="-15.5" font-family="Helvetica,sans-Serif" font-size="10.00">BStateMachine</text>
</a>
</g>
</g>
<!-- dir_59319838399a0d3b7fe622ff662238be&#45;&gt;dir_dbbabfca939152950736ff01da2756a9 -->
<g id="edge1" class="edge">
<title>dir_59319838399a0d3b7fe622ff662238be&#45;&gt;dir_dbbabfca939152950736ff01da2756a9</title>
<path fill="none" stroke="black" d="M83.39,-71.7C77.4,-63.47 70.12,-53.48 63.52,-44.42"/>
<polygon fill="black" stroke="black" points="66.18,-42.13 57.46,-36.1 60.52,-46.25 66.18,-42.13"/>
<g id="a_edge1&#45;headlabel"><a xlink:href="dir_000001_000002.html" target="_top" xlink:title="5">
<text text-anchor="middle" x="70.59" y="-40.86" font-family="Helvetica,sans-Serif" font-size="10.00">5</text>
</a>
</g>
</g>
<!-- dir_b5387289685bf4d85d4ad61551733121 -->
<g id="node3" class="node">
<title>dir_b5387289685bf4d85d4ad61551733121</title>
<g id="a_node3"><a xlink:href="dir_b5387289685bf4d85d4ad61551733121.html" target="_top" xlink:title="Components">
<polygon fill="none" stroke="black" points="186,-36 108,-36 108,0 186,0 186,-36"/>
<text text-anchor="middle" x="147" y="-15.5" font-family="Helvetica,sans-Serif" font-size="10.00">Components</text>
</a>
</g>
</g>
<!-- dir_59319838399a0d3b7fe622ff662238be&#45;&gt;dir_b5387289685bf4d85d4ad61551733121 -->
<g id="edge2" class="edge">
<title>dir_59319838399a0d3b7fe622ff662238be&#45;&gt;dir_b5387289685bf4d85d4ad61551733121</title>
<path fill="none" stroke="black" d="M108.61,-71.7C114.6,-63.47 121.88,-53.48 128.48,-44.42"/>
<polygon fill="black" stroke="black" points="131.48,-46.25 134.54,-36.1 125.82,-42.13 131.48,-46.25"/>
<g id="a_edge2&#45;headlabel"><a xlink:href="dir_000001_000003.html" target="_top" xlink:title="11">
<text text-anchor="middle" x="131.66" y="-48.32" font-family="Helvetica,sans-Serif" font-size="10.00">11</text>
</a>
</g>
</g>
</g>
</svg>
