<?xml version="1.0" encoding="UTF-8" standalone="no"?>
<!DOCTYPE svg PUBLIC "-//W3C//DTD SVG 1.1//EN"
 "http://www.w3.org/Graphics/SVG/1.1/DTD/svg11.dtd">
<!-- Generated by graphviz version 2.43.0 (0)
 -->
<!-- Title: /home/fnky/C0de/component_engine/include Pages: 1 -->
<svg width="445pt" height="220pt"
 viewBox="0.00 0.00 445.00 220.00" xmlns="http://www.w3.org/2000/svg" xmlns:xlink="http://www.w3.org/1999/xlink">
<g id="graph0" class="graph" transform="scale(1 1) rotate(0) translate(4 216)">
<title>/home/fnky/C0de/component_engine/include</title>
<g id="clust1" class="cluster">
<title>clusterdir_d44c64559bbebec7f509842c48db8b23</title>
<g id="a_clust1"><a xlink:href="dir_d44c64559bbebec7f509842c48db8b23.html" target="_top">
<polygon fill="#eeeeff" stroke="black" points="8,-8 8,-204 429,-204 429,-8 8,-8"/>
</a>
</g>
</g>
<!-- dir_d44c64559bbebec7f509842c48db8b23 -->
<g id="node1" class="node">
<title>dir_d44c64559bbebec7f509842c48db8b23</title>
<text text-anchor="middle" x="383" y="-175.5" font-family="Helvetica,sans-Serif" font-size="10.00">include</text>
</g>
<!-- dir_59319838399a0d3b7fe622ff662238be -->
<g id="node2" class="node">
<title>dir_59319838399a0d3b7fe622ff662238be</title>
<g id="a_node2"><a xlink:href="dir_59319838399a0d3b7fe622ff662238be.html" target="_top" xlink:title="Actors">
<polygon fill="white" stroke="black" points="317,-196 263,-196 263,-160 317,-160 317,-196"/>
<text text-anchor="middle" x="290" y="-175.5" font-family="Helvetica,sans-Serif" font-size="10.00">Actors</text>
</a>
</g>
</g>
<!-- dir_dbbabfca939152950736ff01da2756a9 -->
<g id="node3" class="node">
<title>dir_dbbabfca939152950736ff01da2756a9</title>
<g id="a_node3"><a xlink:href="dir_dbbabfca939152950736ff01da2756a9.html" target="_top" xlink:title="BStateMachine">
<polygon fill="white" stroke="black" points="325,-124 235,-124 235,-88 325,-88 325,-124"/>
<text text-anchor="middle" x="280" y="-103.5" font-family="Helvetica,sans-Serif" font-size="10.00">BStateMachine</text>
</a>
</g>
</g>
<!-- dir_59319838399a0d3b7fe622ff662238be&#45;&gt;dir_dbbabfca939152950736ff01da2756a9 -->
<g id="edge1" class="edge">
<title>dir_59319838399a0d3b7fe622ff662238be&#45;&gt;dir_dbbabfca939152950736ff01da2756a9</title>
<path fill="none" stroke="black" d="M287.53,-159.7C286.43,-151.98 285.1,-142.71 283.87,-134.11"/>
<polygon fill="black" stroke="black" points="287.32,-133.51 282.44,-124.1 280.39,-134.5 287.32,-133.51"/>
<g id="a_edge1&#45;headlabel"><a xlink:href="dir_000001_000002.html" target="_top" xlink:title="5">
<text text-anchor="middle" x="290.64" y="-134.17" font-family="Helvetica,sans-Serif" font-size="10.00">5</text>
</a>
</g>
</g>
<!-- dir_b5387289685bf4d85d4ad61551733121 -->
<g id="node5" class="node">
<title>dir_b5387289685bf4d85d4ad61551733121</title>
<g id="a_node5"><a xlink:href="dir_b5387289685bf4d85d4ad61551733121.html" target="_top" xlink:title="Components">
<polygon fill="white" stroke="black" points="421,-124 343,-124 343,-88 421,-88 421,-124"/>
<text text-anchor="middle" x="382" y="-103.5" font-family="Helvetica,sans-Serif" font-size="10.00">Components</text>
</a>
</g>
</g>
<!-- dir_59319838399a0d3b7fe622ff662238be&#45;&gt;dir_b5387289685bf4d85d4ad61551733121 -->
<g id="edge2" class="edge">
<title>dir_59319838399a0d3b7fe622ff662238be&#45;&gt;dir_b5387289685bf4d85d4ad61551733121</title>
<path fill="none" stroke="black" d="M312.74,-159.7C324.44,-150.8 338.86,-139.82 351.51,-130.2"/>
<polygon fill="black" stroke="black" points="353.68,-132.94 359.52,-124.1 349.44,-127.37 353.68,-132.94"/>
<g id="a_edge2&#45;headlabel"><a xlink:href="dir_000001_000003.html" target="_top" xlink:title="11">
<text text-anchor="middle" x="352.54" y="-134.88" font-family="Helvetica,sans-Serif" font-size="10.00">11</text>
</a>
</g>
</g>
<!-- dir_8aa6006f45766662e626e0dbc3edf5de -->
<g id="node4" class="node">
<title>dir_8aa6006f45766662e626e0dbc3edf5de</title>
<g id="a_node4"><a xlink:href="dir_8aa6006f45766662e626e0dbc3edf5de.html" target="_top" xlink:title="Camera">
<polygon fill="white" stroke="black" points="71.5,-124 16.5,-124 16.5,-88 71.5,-88 71.5,-124"/>
<text text-anchor="middle" x="44" y="-103.5" font-family="Helvetica,sans-Serif" font-size="10.00">Camera</text>
</a>
</g>
</g>
<!-- dir_b43dbc6878c2b5c121b79d76cc4886e7 -->
<g id="node7" class="node">
<title>dir_b43dbc6878c2b5c121b79d76cc4886e7</title>
<g id="a_node7"><a xlink:href="dir_b43dbc6878c2b5c121b79d76cc4886e7.html" target="_top" xlink:title="Graphics">
<polygon fill="white" stroke="black" points="342.5,-52 283.5,-52 283.5,-16 342.5,-16 342.5,-52"/>
<text text-anchor="middle" x="313" y="-31.5" font-family="Helvetica,sans-Serif" font-size="10.00">Graphics</text>
</a>
</g>
</g>
<!-- dir_b5387289685bf4d85d4ad61551733121&#45;&gt;dir_b43dbc6878c2b5c121b79d76cc4886e7 -->
<g id="edge6" class="edge">
<title>dir_b5387289685bf4d85d4ad61551733121&#45;&gt;dir_b43dbc6878c2b5c121b79d76cc4886e7</title>
<path fill="none" stroke="black" d="M364.94,-87.7C356.5,-79.14 346.18,-68.66 336.96,-59.3"/>
<polygon fill="black" stroke="black" points="339.37,-56.77 329.86,-52.1 334.39,-61.68 339.37,-56.77"/>
<g id="a_edge6&#45;headlabel"><a xlink:href="dir_000003_000006.html" target="_top" xlink:title="2">
<text text-anchor="middle" x="343.92" y="-54.84" font-family="Helvetica,sans-Serif" font-size="10.00">2</text>
</a>
</g>
</g>
<!-- dir_fa02919a30fec2d2c2d591b4d920d648 -->
<g id="node8" class="node">
<title>dir_fa02919a30fec2d2c2d591b4d920d648</title>
<g id="a_node8"><a xlink:href="dir_fa02919a30fec2d2c2d591b4d920d648.html" target="_top" xlink:title="Graphs">
<polygon fill="white" stroke="black" points="415,-52 361,-52 361,-16 415,-16 415,-52"/>
<text text-anchor="middle" x="388" y="-31.5" font-family="Helvetica,sans-Serif" font-size="10.00">Graphs</text>
</a>
</g>
</g>
<!-- dir_b5387289685bf4d85d4ad61551733121&#45;&gt;dir_fa02919a30fec2d2c2d591b4d920d648 -->
<g id="edge7" class="edge">
<title>dir_b5387289685bf4d85d4ad61551733121&#45;&gt;dir_fa02919a30fec2d2c2d591b4d920d648</title>
<path fill="none" stroke="black" d="M383.48,-87.7C384.14,-79.98 384.94,-70.71 385.68,-62.11"/>
<polygon fill="black" stroke="black" points="389.17,-62.37 386.53,-52.1 382.19,-61.77 389.17,-62.37"/>
<g id="a_edge7&#45;headlabel"><a xlink:href="dir_000003_000007.html" target="_top" xlink:title="1">
<text text-anchor="middle" x="391.69" y="-63.69" font-family="Helvetica,sans-Serif" font-size="10.00">1</text>
</a>
</g>
</g>
<!-- dir_0e829f624c4b46d63701ea67b68089e3 -->
<g id="node6" class="node">
<title>dir_0e829f624c4b46d63701ea67b68089e3</title>
<g id="a_node6"><a xlink:href="dir_0e829f624c4b46d63701ea67b68089e3.html" target="_top" xlink:title="GameData">
<polygon fill="white" stroke="black" points="191.5,-196 122.5,-196 122.5,-160 191.5,-160 191.5,-196"/>
<text text-anchor="middle" x="157" y="-175.5" font-family="Helvetica,sans-Serif" font-size="10.00">GameData</text>
</a>
</g>
</g>
<!-- dir_0e829f624c4b46d63701ea67b68089e3&#45;&gt;dir_8aa6006f45766662e626e0dbc3edf5de -->
<g id="edge3" class="edge">
<title>dir_0e829f624c4b46d63701ea67b68089e3&#45;&gt;dir_8aa6006f45766662e626e0dbc3edf5de</title>
<path fill="none" stroke="black" d="M129.36,-159.88C114.58,-150.72 96.21,-139.34 80.3,-129.48"/>
<polygon fill="black" stroke="black" points="82.09,-126.48 71.75,-124.19 78.41,-132.43 82.09,-126.48"/>
<g id="a_edge3&#45;headlabel"><a xlink:href="dir_000005_000004.html" target="_top" xlink:title="1">
<text text-anchor="middle" x="86.64" y="-123.46" font-family="Helvetica,sans-Serif" font-size="10.00">1</text>
</a>
</g>
</g>
<!-- dir_881e7c32d8f98b638e44f48f6fedbf62 -->
<g id="node10" class="node">
<title>dir_881e7c32d8f98b638e44f48f6fedbf62</title>
<g id="a_node10"><a xlink:href="dir_881e7c32d8f98b638e44f48f6fedbf62.html" target="_top" xlink:title="Loaders">
<polygon fill="white" stroke="black" points="144.5,-124 89.5,-124 89.5,-88 144.5,-88 144.5,-124"/>
<text text-anchor="middle" x="117" y="-103.5" font-family="Helvetica,sans-Serif" font-size="10.00">Loaders</text>
</a>
</g>
</g>
<!-- dir_0e829f624c4b46d63701ea67b68089e3&#45;&gt;dir_881e7c32d8f98b638e44f48f6fedbf62 -->
<g id="edge4" class="edge">
<title>dir_0e829f624c4b46d63701ea67b68089e3&#45;&gt;dir_881e7c32d8f98b638e44f48f6fedbf62</title>
<path fill="none" stroke="black" d="M147.11,-159.7C142.51,-151.64 136.94,-141.89 131.85,-132.98"/>
<polygon fill="black" stroke="black" points="134.77,-131.05 126.77,-124.1 128.7,-134.52 134.77,-131.05"/>
<g id="a_edge4&#45;headlabel"><a xlink:href="dir_000005_000009.html" target="_top" xlink:title="1">
<text text-anchor="middle" x="139.02" y="-130.26" font-family="Helvetica,sans-Serif" font-size="10.00">1</text>
</a>
</g>
</g>
<!-- dir_ba8a1d5a6323abb109cc1cd03548b282 -->
<g id="node11" class="node">
<title>dir_ba8a1d5a6323abb109cc1cd03548b282</title>
<g id="a_node11"><a xlink:href="dir_ba8a1d5a6323abb109cc1cd03548b282.html" target="_top" xlink:title="States">
<polygon fill="white" stroke="black" points="217,-124 163,-124 163,-88 217,-88 217,-124"/>
<text text-anchor="middle" x="190" y="-103.5" font-family="Helvetica,sans-Serif" font-size="10.00">States</text>
</a>
</g>
</g>
<!-- dir_0e829f624c4b46d63701ea67b68089e3&#45;&gt;dir_ba8a1d5a6323abb109cc1cd03548b282 -->
<g id="edge5" class="edge">
<title>dir_0e829f624c4b46d63701ea67b68089e3&#45;&gt;dir_ba8a1d5a6323abb109cc1cd03548b282</title>
<path fill="none" stroke="black" d="M159.24,-159.7C162.21,-151.64 166.59,-141.89 171.2,-132.98"/>
<polygon fill="black" stroke="black" points="174.33,-134.56 176.04,-124.1 168.18,-131.21 174.33,-134.56"/>
<g id="a_edge5&#45;headlabel"><a xlink:href="dir_000005_000010.html" target="_top" xlink:title="1">
<text text-anchor="middle" x="175.1" y="-136.58" font-family="Helvetica,sans-Serif" font-size="10.00">1</text>
</a>
</g>
</g>
<!-- dir_029b061dd7a719043f7c36d6f151e12f -->
<g id="node9" class="node">
<title>dir_029b061dd7a719043f7c36d6f151e12f</title>
<g id="a_node9"><a xlink:href="dir_029b061dd7a719043f7c36d6f151e12f.html" target="_top" xlink:title="IMGUI">
<polygon fill="white" stroke="black" points="87,-196 33,-196 33,-160 87,-160 87,-196"/>
<text text-anchor="middle" x="60" y="-175.5" font-family="Helvetica,sans-Serif" font-size="10.00">IMGUI</text>
</a>
</g>
</g>
<!-- dir_ba8a1d5a6323abb109cc1cd03548b282&#45;&gt;dir_0e829f624c4b46d63701ea67b68089e3 -->
<g id="edge8" class="edge">
<title>dir_ba8a1d5a6323abb109cc1cd03548b282&#45;&gt;dir_0e829f624c4b46d63701ea67b68089e3</title>
<path fill="none" stroke="black" d="M187.83,-124.1C184.89,-132.13 180.52,-141.87 175.91,-150.8"/>
<polygon fill="black" stroke="black" points="172.77,-149.24 171.07,-159.7 178.92,-152.58 172.77,-149.24"/>
<g id="a_edge8&#45;headlabel"><a xlink:href="dir_000010_000005.html" target="_top" xlink:title="5">
<text text-anchor="middle" x="171.99" y="-142.22" font-family="Helvetica,sans-Serif" font-size="10.00">5</text>
</a>
</g>
</g>
</g>
</svg>
