<?xml version="1.0" encoding="UTF-8" standalone="no"?>
<!DOCTYPE svg PUBLIC "-//W3C//DTD SVG 1.1//EN"
 "http://www.w3.org/Graphics/SVG/1.1/DTD/svg11.dtd">
<!-- Generated by graphviz version 2.43.0 (0)
 -->
<!-- Title: /home/fnky/C0de/component_engine/src Pages: 1 -->
<svg width="740pt" height="132pt"
 viewBox="0.00 0.00 740.00 132.00" xmlns="http://www.w3.org/2000/svg" xmlns:xlink="http://www.w3.org/1999/xlink">
<g id="graph0" class="graph" transform="scale(1 1) rotate(0) translate(4 128)">
<title>/home/fnky/C0de/component_engine/src</title>
<g id="clust1" class="cluster">
<title>clusterdir_68267d1309a1af8e8297ef4c3efbcdba</title>
<g id="a_clust1"><a xlink:href="dir_68267d1309a1af8e8297ef4c3efbcdba.html" target="_top">
<polygon fill="#eeeeff" stroke="black" points="8,-64 8,-116 724,-116 724,-64 8,-64"/>
</a>
</g>
</g>
<!-- dir_68267d1309a1af8e8297ef4c3efbcdba -->
<g id="node1" class="node">
<title>dir_68267d1309a1af8e8297ef4c3efbcdba</title>
<text text-anchor="middle" x="689" y="-87.5" font-family="Helvetica,sans-Serif" font-size="10.00">src</text>
</g>
<!-- dir_8a33d3b699d590208ab642df13852d0f -->
<g id="node2" class="node">
<title>dir_8a33d3b699d590208ab642df13852d0f</title>
<g id="a_node2"><a xlink:href="dir_8a33d3b699d590208ab642df13852d0f.html" target="_top" xlink:title="Actors">
<polygon fill="white" stroke="black" points="644,-108 590,-108 590,-72 644,-72 644,-108"/>
<text text-anchor="middle" x="617" y="-87.5" font-family="Helvetica,sans-Serif" font-size="10.00">Actors</text>
</a>
</g>
</g>
<!-- dir_d44c64559bbebec7f509842c48db8b23 -->
<g id="node10" class="node">
<title>dir_d44c64559bbebec7f509842c48db8b23</title>
<g id="a_node10"><a xlink:href="dir_d44c64559bbebec7f509842c48db8b23.html" target="_top" xlink:title="include">
<polygon fill="none" stroke="red" points="334,-36 280,-36 280,0 334,0 334,-36"/>
<text text-anchor="middle" x="307" y="-15.5" font-family="Helvetica,sans-Serif" font-size="10.00">include</text>
</a>
</g>
</g>
<!-- dir_8a33d3b699d590208ab642df13852d0f&#45;&gt;dir_d44c64559bbebec7f509842c48db8b23 -->
<g id="edge3" class="edge">
<title>dir_8a33d3b699d590208ab642df13852d0f&#45;&gt;dir_d44c64559bbebec7f509842c48db8b23</title>
<path fill="none" stroke="black" d="M595.42,-71.75C590.87,-68.78 585.94,-66 581,-64 500.79,-31.51 398.32,-22.46 344.27,-19.95"/>
<polygon fill="black" stroke="black" points="344.26,-16.45 334.12,-19.53 343.97,-23.44 344.26,-16.45"/>
<g id="a_edge3&#45;headlabel"><a xlink:href="dir_000012_000000.html" target="_top" xlink:title="60">
<text text-anchor="middle" x="347.97" y="-11.26" font-family="Helvetica,sans-Serif" font-size="10.00">60</text>
</a>
</g>
</g>
<!-- dir_f98251d4c1c1e7c4cc63eb1323397288 -->
<g id="node3" class="node">
<title>dir_f98251d4c1c1e7c4cc63eb1323397288</title>
<g id="a_node3"><a xlink:href="dir_f98251d4c1c1e7c4cc63eb1323397288.html" target="_top" xlink:title="BStateMachine">
<polygon fill="white" stroke="black" points="572,-108 482,-108 482,-72 572,-72 572,-108"/>
<text text-anchor="middle" x="527" y="-87.5" font-family="Helvetica,sans-Serif" font-size="10.00">BStateMachine</text>
</a>
</g>
</g>
<!-- dir_f98251d4c1c1e7c4cc63eb1323397288&#45;&gt;dir_d44c64559bbebec7f509842c48db8b23 -->
<g id="edge7" class="edge">
<title>dir_f98251d4c1c1e7c4cc63eb1323397288&#45;&gt;dir_d44c64559bbebec7f509842c48db8b23</title>
<path fill="none" stroke="black" d="M492.5,-71.98C486.1,-69.12 479.41,-66.33 473,-64 429.65,-48.22 378.15,-35.09 344.14,-27.17"/>
<polygon fill="black" stroke="black" points="344.7,-23.71 334.17,-24.88 343.13,-30.53 344.7,-23.71"/>
<g id="a_edge7&#45;headlabel"><a xlink:href="dir_000013_000000.html" target="_top" xlink:title="14">
<text text-anchor="middle" x="348.84" y="-19.24" font-family="Helvetica,sans-Serif" font-size="10.00">14</text>
</a>
</g>
</g>
<!-- dir_a316e9605cf2e65295ae387cbf599266 -->
<g id="node4" class="node">
<title>dir_a316e9605cf2e65295ae387cbf599266</title>
<g id="a_node4"><a xlink:href="dir_a316e9605cf2e65295ae387cbf599266.html" target="_top" xlink:title="Camera">
<polygon fill="white" stroke="black" points="463.5,-108 408.5,-108 408.5,-72 463.5,-72 463.5,-108"/>
<text text-anchor="middle" x="436" y="-87.5" font-family="Helvetica,sans-Serif" font-size="10.00">Camera</text>
</a>
</g>
</g>
<!-- dir_a316e9605cf2e65295ae387cbf599266&#45;&gt;dir_d44c64559bbebec7f509842c48db8b23 -->
<g id="edge1" class="edge">
<title>dir_a316e9605cf2e65295ae387cbf599266&#45;&gt;dir_d44c64559bbebec7f509842c48db8b23</title>
<path fill="none" stroke="black" d="M411.63,-71.84C407.48,-69.11 403.16,-66.41 399,-64 381.08,-53.63 360.43,-43.39 343.24,-35.3"/>
<polygon fill="black" stroke="black" points="344.63,-32.08 334.08,-31.04 341.67,-38.43 344.63,-32.08"/>
<g id="a_edge1&#45;headlabel"><a xlink:href="dir_000014_000000.html" target="_top" xlink:title="1">
<text text-anchor="middle" x="349.08" y="-28.52" font-family="Helvetica,sans-Serif" font-size="10.00">1</text>
</a>
</g>
</g>
<!-- dir_c610c8504d46288da7634b3c0b18263f -->
<g id="node5" class="node">
<title>dir_c610c8504d46288da7634b3c0b18263f</title>
<g id="a_node5"><a xlink:href="dir_c610c8504d46288da7634b3c0b18263f.html" target="_top" xlink:title="Components">
<polygon fill="white" stroke="black" points="390,-108 312,-108 312,-72 390,-72 390,-108"/>
<text text-anchor="middle" x="351" y="-87.5" font-family="Helvetica,sans-Serif" font-size="10.00">Components</text>
</a>
</g>
</g>
<!-- dir_c610c8504d46288da7634b3c0b18263f&#45;&gt;dir_d44c64559bbebec7f509842c48db8b23 -->
<g id="edge2" class="edge">
<title>dir_c610c8504d46288da7634b3c0b18263f&#45;&gt;dir_d44c64559bbebec7f509842c48db8b23</title>
<path fill="none" stroke="black" d="M340.12,-71.7C335.01,-63.56 328.8,-53.69 323.16,-44.7"/>
<polygon fill="black" stroke="black" points="326.04,-42.71 317.75,-36.1 320.11,-46.43 326.04,-42.71"/>
<g id="a_edge2&#45;headlabel"><a xlink:href="dir_000015_000000.html" target="_top" xlink:title="8">
<text text-anchor="middle" x="330.35" y="-41.74" font-family="Helvetica,sans-Serif" font-size="10.00">8</text>
</a>
</g>
</g>
<!-- dir_3419e189e460663ec2c964233bf8dcd6 -->
<g id="node6" class="node">
<title>dir_3419e189e460663ec2c964233bf8dcd6</title>
<g id="a_node6"><a xlink:href="dir_3419e189e460663ec2c964233bf8dcd6.html" target="_top" xlink:title="Graphics">
<polygon fill="white" stroke="black" points="293.5,-108 234.5,-108 234.5,-72 293.5,-72 293.5,-108"/>
<text text-anchor="middle" x="264" y="-87.5" font-family="Helvetica,sans-Serif" font-size="10.00">Graphics</text>
</a>
</g>
</g>
<!-- dir_3419e189e460663ec2c964233bf8dcd6&#45;&gt;dir_d44c64559bbebec7f509842c48db8b23 -->
<g id="edge6" class="edge">
<title>dir_3419e189e460663ec2c964233bf8dcd6&#45;&gt;dir_d44c64559bbebec7f509842c48db8b23</title>
<path fill="none" stroke="black" d="M274.63,-71.7C279.63,-63.56 285.69,-53.69 291.21,-44.7"/>
<polygon fill="black" stroke="black" points="294.24,-46.46 296.49,-36.1 288.28,-42.79 294.24,-46.46"/>
<g id="a_edge6&#45;headlabel"><a xlink:href="dir_000016_000000.html" target="_top" xlink:title="4">
<text text-anchor="middle" x="294.78" y="-48.51" font-family="Helvetica,sans-Serif" font-size="10.00">4</text>
</a>
</g>
</g>
<!-- dir_5b868e5620d4dfff44f1d7ce4dc0bcb4 -->
<g id="node7" class="node">
<title>dir_5b868e5620d4dfff44f1d7ce4dc0bcb4</title>
<g id="a_node7"><a xlink:href="dir_5b868e5620d4dfff44f1d7ce4dc0bcb4.html" target="_top" xlink:title="IMGUI">
<polygon fill="white" stroke="black" points="216,-108 162,-108 162,-72 216,-72 216,-108"/>
<text text-anchor="middle" x="189" y="-87.5" font-family="Helvetica,sans-Serif" font-size="10.00">IMGUI</text>
</a>
</g>
</g>
<!-- dir_5b868e5620d4dfff44f1d7ce4dc0bcb4&#45;&gt;dir_d44c64559bbebec7f509842c48db8b23 -->
<g id="edge8" class="edge">
<title>dir_5b868e5620d4dfff44f1d7ce4dc0bcb4&#45;&gt;dir_d44c64559bbebec7f509842c48db8b23</title>
<path fill="none" stroke="black" d="M213.88,-71.76C217.9,-69.1 222.04,-66.43 226,-64 240.39,-55.16 256.61,-46 270.73,-38.27"/>
<polygon fill="black" stroke="black" points="272.54,-41.27 279.66,-33.42 269.2,-35.12 272.54,-41.27"/>
<g id="a_edge8&#45;headlabel"><a xlink:href="dir_000017_000000.html" target="_top" xlink:title="16">
<text text-anchor="middle" x="270.74" y="-42.98" font-family="Helvetica,sans-Serif" font-size="10.00">16</text>
</a>
</g>
</g>
<!-- dir_e263fff16f4e549006a69b0fa188c0bb -->
<g id="node8" class="node">
<title>dir_e263fff16f4e549006a69b0fa188c0bb</title>
<g id="a_node8"><a xlink:href="dir_e263fff16f4e549006a69b0fa188c0bb.html" target="_top" xlink:title="Loaders">
<polygon fill="white" stroke="black" points="143.5,-108 88.5,-108 88.5,-72 143.5,-72 143.5,-108"/>
<text text-anchor="middle" x="116" y="-87.5" font-family="Helvetica,sans-Serif" font-size="10.00">Loaders</text>
</a>
</g>
</g>
<!-- dir_e263fff16f4e549006a69b0fa188c0bb&#45;&gt;dir_d44c64559bbebec7f509842c48db8b23 -->
<g id="edge5" class="edge">
<title>dir_e263fff16f4e549006a69b0fa188c0bb&#45;&gt;dir_d44c64559bbebec7f509842c48db8b23</title>
<path fill="none" stroke="black" d="M138.84,-71.98C143.38,-69.06 148.23,-66.24 153,-64 191.22,-46.04 238.17,-33.57 270.12,-26.39"/>
<polygon fill="black" stroke="black" points="270.91,-29.8 279.93,-24.24 269.42,-22.96 270.91,-29.8"/>
<g id="a_edge5&#45;headlabel"><a xlink:href="dir_000018_000000.html" target="_top" xlink:title="11">
<text text-anchor="middle" x="268.01" y="-30.84" font-family="Helvetica,sans-Serif" font-size="10.00">11</text>
</a>
</g>
</g>
<!-- dir_418f1c0c7a7af3f93e93ef60c934c206 -->
<g id="node9" class="node">
<title>dir_418f1c0c7a7af3f93e93ef60c934c206</title>
<g id="a_node9"><a xlink:href="dir_418f1c0c7a7af3f93e93ef60c934c206.html" target="_top" xlink:title="States">
<polygon fill="white" stroke="black" points="70,-108 16,-108 16,-72 70,-72 70,-108"/>
<text text-anchor="middle" x="43" y="-87.5" font-family="Helvetica,sans-Serif" font-size="10.00">States</text>
</a>
</g>
</g>
<!-- dir_418f1c0c7a7af3f93e93ef60c934c206&#45;&gt;dir_d44c64559bbebec7f509842c48db8b23 -->
<g id="edge4" class="edge">
<title>dir_418f1c0c7a7af3f93e93ef60c934c206&#45;&gt;dir_d44c64559bbebec7f509842c48db8b23</title>
<path fill="none" stroke="black" d="M65.28,-71.89C69.95,-68.9 74.99,-66.09 80,-64 143.47,-37.54 223.55,-26.35 269.65,-21.83"/>
<polygon fill="black" stroke="black" points="270.15,-25.3 279.78,-20.9 269.5,-18.33 270.15,-25.3"/>
<g id="a_edge4&#45;headlabel"><a xlink:href="dir_000019_000000.html" target="_top" xlink:title="48">
<text text-anchor="middle" x="266.83" y="-25.96" font-family="Helvetica,sans-Serif" font-size="10.00">48</text>
</a>
</g>
</g>
</g>
</svg>
