<?xml version="1.0" encoding="UTF-8" standalone="no"?>
<!DOCTYPE svg PUBLIC "-//W3C//DTD SVG 1.1//EN"
 "http://www.w3.org/Graphics/SVG/1.1/DTD/svg11.dtd">
<!-- Generated by graphviz version 2.43.0 (0)
 -->
<!-- Title: /home/fnky/C0de/component_engine/include/Actors/Gun_Actor.h Pages: 1 -->
<svg width="690pt" height="206pt"
 viewBox="0.00 0.00 690.00 206.00" xmlns="http://www.w3.org/2000/svg" xmlns:xlink="http://www.w3.org/1999/xlink">
<g id="graph0" class="graph" transform="scale(1 1) rotate(0) translate(4 202)">
<title>/home/fnky/C0de/component_engine/include/Actors/Gun_Actor.h</title>
<!-- Node1 -->
<g id="node1" class="node">
<title>Node1</title>
<g id="a_node1"><a xlink:title=" ">
<polygon fill="#bfbfbf" stroke="black" points="315,-156.5 315,-197.5 472,-197.5 472,-156.5 315,-156.5"/>
<text text-anchor="start" x="323" y="-185.5" font-family="Helvetica,sans-Serif" font-size="10.00">/home/fnky/C0de/component</text>
<text text-anchor="start" x="323" y="-174.5" font-family="Helvetica,sans-Serif" font-size="10.00">_engine/include/Actors</text>
<text text-anchor="middle" x="393.5" y="-163.5" font-family="Helvetica,sans-Serif" font-size="10.00">/Gun_Actor.h</text>
</a>
</g>
</g>
<!-- Node2 -->
<g id="node2" class="node">
<title>Node2</title>
<g id="a_node2"><a xlink:href="Projectile__Acotr_8h.html" target="_top" xlink:title=" ">
<polygon fill="none" stroke="black" points="262,-78.5 262,-119.5 419,-119.5 419,-78.5 262,-78.5"/>
<text text-anchor="start" x="270" y="-107.5" font-family="Helvetica,sans-Serif" font-size="10.00">/home/fnky/C0de/component</text>
<text text-anchor="start" x="270" y="-96.5" font-family="Helvetica,sans-Serif" font-size="10.00">_engine/include/Actors</text>
<text text-anchor="middle" x="340.5" y="-85.5" font-family="Helvetica,sans-Serif" font-size="10.00">/Projectile_Acotr.h</text>
</a>
</g>
</g>
<!-- Node1&#45;&gt;Node2 -->
<g id="edge1" class="edge">
<title>Node1&#45;&gt;Node2</title>
<path fill="none" stroke="midnightblue" d="M374.01,-148.05C367.39,-138.57 360.16,-128.18 354.1,-119.51"/>
<polygon fill="midnightblue" stroke="midnightblue" points="371.26,-150.23 379.85,-156.43 377,-146.22 371.26,-150.23"/>
</g>
<!-- Node3 -->
<g id="node3" class="node">
<title>Node3</title>
<g id="a_node3"><a xlink:href="Gun__Actor_8cpp.html" target="_top" xlink:title=" ">
<polygon fill="none" stroke="black" points="0,-0.5 0,-41.5 157,-41.5 157,-0.5 0,-0.5"/>
<text text-anchor="start" x="8" y="-29.5" font-family="Helvetica,sans-Serif" font-size="10.00">/home/fnky/C0de/component</text>
<text text-anchor="start" x="8" y="-18.5" font-family="Helvetica,sans-Serif" font-size="10.00">_engine/src/Actors/Gun</text>
<text text-anchor="middle" x="78.5" y="-7.5" font-family="Helvetica,sans-Serif" font-size="10.00">_Actor.cpp</text>
</a>
</g>
</g>
<!-- Node1&#45;&gt;Node3 -->
<g id="edge6" class="edge">
<title>Node1&#45;&gt;Node3</title>
<path fill="none" stroke="midnightblue" d="M330.46,-152.79C306.11,-143.31 278.21,-131.8 253.5,-120 202.12,-95.47 144.99,-62.3 110.41,-41.53"/>
<polygon fill="midnightblue" stroke="midnightblue" points="329.36,-156.12 339.95,-156.46 331.88,-149.59 329.36,-156.12"/>
</g>
<!-- Node6 -->
<g id="node6" class="node">
<title>Node6</title>
<g id="a_node6"><a xlink:href="game__play__state_8cpp.html" target="_top" xlink:title=" ">
<polygon fill="none" stroke="black" points="525,-0.5 525,-41.5 682,-41.5 682,-0.5 525,-0.5"/>
<text text-anchor="start" x="533" y="-29.5" font-family="Helvetica,sans-Serif" font-size="10.00">/home/fnky/C0de/component</text>
<text text-anchor="start" x="533" y="-18.5" font-family="Helvetica,sans-Serif" font-size="10.00">_engine/src/States/game</text>
<text text-anchor="middle" x="603.5" y="-7.5" font-family="Helvetica,sans-Serif" font-size="10.00">_play_state.cpp</text>
</a>
</g>
</g>
<!-- Node1&#45;&gt;Node6 -->
<g id="edge8" class="edge">
<title>Node1&#45;&gt;Node6</title>
<path fill="none" stroke="midnightblue" d="M412.35,-147.73C429.57,-122.57 454.29,-88.2 467.5,-78 487.81,-62.32 513.14,-50.32 536.41,-41.53"/>
<polygon fill="midnightblue" stroke="midnightblue" points="409.32,-145.96 406.6,-156.2 415.11,-149.89 409.32,-145.96"/>
</g>
<!-- Node7 -->
<g id="node7" class="node">
<title>Node7</title>
<g id="a_node7"><a xlink:href="Player__Actor_8cpp.html" target="_top" xlink:title=" ">
<polygon fill="none" stroke="black" points="476,-78.5 476,-119.5 633,-119.5 633,-78.5 476,-78.5"/>
<text text-anchor="start" x="484" y="-107.5" font-family="Helvetica,sans-Serif" font-size="10.00">/home/fnky/C0de/component</text>
<text text-anchor="start" x="484" y="-96.5" font-family="Helvetica,sans-Serif" font-size="10.00">_engine/src/Actors/Player</text>
<text text-anchor="middle" x="554.5" y="-85.5" font-family="Helvetica,sans-Serif" font-size="10.00">_Actor.cpp</text>
</a>
</g>
</g>
<!-- Node1&#45;&gt;Node7 -->
<g id="edge7" class="edge">
<title>Node1&#45;&gt;Node7</title>
<path fill="none" stroke="midnightblue" d="M444.24,-152.05C466.44,-141.57 492.17,-129.42 513.18,-119.51"/>
<polygon fill="midnightblue" stroke="midnightblue" points="442.51,-148.99 434.96,-156.43 445.5,-155.32 442.51,-148.99"/>
</g>
<!-- Node2&#45;&gt;Node3 -->
<g id="edge2" class="edge">
<title>Node2&#45;&gt;Node3</title>
<path fill="none" stroke="midnightblue" d="M263.21,-75.58C225.92,-64.76 181.62,-51.91 145.74,-41.51"/>
<polygon fill="midnightblue" stroke="midnightblue" points="262.45,-79 273.03,-78.43 264.4,-72.28 262.45,-79"/>
</g>
<!-- Node4 -->
<g id="node4" class="node">
<title>Node4</title>
<g id="a_node4"><a xlink:href="NPC__Actor_8cpp.html" target="_top" xlink:title=" ">
<polygon fill="none" stroke="black" points="175,-0.5 175,-41.5 332,-41.5 332,-0.5 175,-0.5"/>
<text text-anchor="start" x="183" y="-29.5" font-family="Helvetica,sans-Serif" font-size="10.00">/home/fnky/C0de/component</text>
<text text-anchor="start" x="183" y="-18.5" font-family="Helvetica,sans-Serif" font-size="10.00">_engine/src/Actors/NPC</text>
<text text-anchor="middle" x="253.5" y="-7.5" font-family="Helvetica,sans-Serif" font-size="10.00">_Actor.cpp</text>
</a>
</g>
</g>
<!-- Node2&#45;&gt;Node4 -->
<g id="edge3" class="edge">
<title>Node2&#45;&gt;Node4</title>
<path fill="none" stroke="midnightblue" d="M310.48,-71.78C299.11,-61.84 286.37,-50.72 275.83,-41.51"/>
<polygon fill="midnightblue" stroke="midnightblue" points="308.26,-74.49 318.1,-78.43 312.87,-69.21 308.26,-74.49"/>
</g>
<!-- Node5 -->
<g id="node5" class="node">
<title>Node5</title>
<g id="a_node5"><a xlink:href="Projectile__Actor_8cpp.html" target="_top" xlink:title=" ">
<polygon fill="none" stroke="black" points="350,-0.5 350,-41.5 507,-41.5 507,-0.5 350,-0.5"/>
<text text-anchor="start" x="358" y="-29.5" font-family="Helvetica,sans-Serif" font-size="10.00">/home/fnky/C0de/component</text>
<text text-anchor="start" x="358" y="-18.5" font-family="Helvetica,sans-Serif" font-size="10.00">_engine/src/Actors/Projectile</text>
<text text-anchor="middle" x="428.5" y="-7.5" font-family="Helvetica,sans-Serif" font-size="10.00">_Actor.cpp</text>
</a>
</g>
</g>
<!-- Node2&#45;&gt;Node5 -->
<g id="edge4" class="edge">
<title>Node2&#45;&gt;Node5</title>
<path fill="none" stroke="midnightblue" d="M370.86,-71.78C382.37,-61.84 395.25,-50.72 405.91,-41.51"/>
<polygon fill="midnightblue" stroke="midnightblue" points="368.44,-69.24 363.16,-78.43 373.02,-74.54 368.44,-69.24"/>
</g>
<!-- Node2&#45;&gt;Node6 -->
<g id="edge5" class="edge">
<title>Node2&#45;&gt;Node6</title>
<path fill="none" stroke="midnightblue" d="M418.08,-75.58C455.51,-64.76 499.99,-51.91 536,-41.51"/>
<polygon fill="midnightblue" stroke="midnightblue" points="416.86,-72.29 408.23,-78.43 418.81,-79.01 416.86,-72.29"/>
</g>
</g>
</svg>
