<?xml version="1.0" encoding="UTF-8" standalone="no"?>
<!DOCTYPE svg PUBLIC "-//W3C//DTD SVG 1.1//EN"
 "http://www.w3.org/Graphics/SVG/1.1/DTD/svg11.dtd">
<!-- Generated by graphviz version 2.43.0 (0)
 -->
<!-- Title: /home/fnky/C0de/component_engine/include/IMGUI/imgui.h Pages: 1 -->
<!--zoomable 195 -->
<svg id="main" version="1.1" xmlns="http://www.w3.org/2000/svg" xmlns:xlink="http://www.w3.org/1999/xlink" xml:space="preserve" onload="init(evt)">
<style type="text/css"><![CDATA[
.edge:hover path { stroke: red; }
.edge:hover polygon { stroke: red; fill: red; }
]]></style>
<script type="text/javascript"><![CDATA[
var edges = document.getElementsByTagName('g');
if (edges && edges.length) {
  for (var i=0;i<edges.length;i++) {
    if (edges[i].id.substr(0,4)=='edge') {
      edges[i].setAttribute('class','edge');
    }
  }
}
]]></script>
        <defs>
                <circle id="rim" cx="0" cy="0" r="7"/>
                <circle id="rim2" cx="0" cy="0" r="3.5"/>
                <g id="zoomPlus">
                        <use xlink:href="#rim" fill="#404040">
                                <set attributeName="fill" to="#808080" begin="zoomplus.mouseover" end="zoomplus.mouseout"/>
                        </use>
                        <path d="M-4,0h8M0,-4v8" fill="none" stroke="white" stroke-width="1.5" pointer-events="none"/>
                </g>
                <g id="zoomMin">
                        <use xlink:href="#rim" fill="#404040">
                                <set attributeName="fill" to="#808080" begin="zoomminus.mouseover" end="zoomminus.mouseout"/>
                        </use>
                        <path d="M-4,0h8" fill="none" stroke="white" stroke-width="1.5" pointer-events="none"/>
                </g>
                <g id="dirArrow">
                        <path fill="none" stroke="white" stroke-width="1.5" d="M0,-3.0v7 M-2.5,-0.5L0,-3.0L2.5,-0.5"/>
                </g>
               <g id="resetDef">
                       <use xlink:href="#rim2" fill="#404040">
                               <set attributeName="fill" to="#808080" begin="reset.mouseover" end="reset.mouseout"/>
                       </use>
               </g>
        </defs>

<script type="text/javascript">
var viewWidth = 1215;
var viewHeight = 195;
var sectionId = 'dynsection-1';
</script>
<script xlink:href="svgpan.js"/>
<svg id="graph" class="graph">
<g id="viewport">
<title>/home/fnky/C0de/component_engine/include/IMGUI/imgui.h</title>
<!-- Node1 -->
<g id="node1" class="node">
<title>Node1</title>
<g id="a_node1"><a xlink:title=" ">
<polygon fill="#bfbfbf" stroke="black" points="479.5,-156.5 479.5,-186.5 645.5,-186.5 645.5,-156.5 479.5,-156.5"/>
<text text-anchor="start" x="487.5" y="-174.5" font-family="Helvetica,sans-Serif" font-size="10.00">/home/fnky/C0de/component</text>
<text text-anchor="middle" x="562.5" y="-163.5" font-family="Helvetica,sans-Serif" font-size="10.00">_engine/include/IMGUI/imgui.h</text>
</a>
</g>
</g>
<!-- Node2 -->
<g id="node2" class="node">
<title>Node2</title>
<g id="a_node2"><a xlink:href="imgui__impl__glfw_8h.html" target="_top" xlink:title=" ">
<polygon fill="none" stroke="black" points="140,-78.5 140,-119.5 297,-119.5 297,-78.5 140,-78.5"/>
<text text-anchor="start" x="148" y="-107.5" font-family="Helvetica,sans-Serif" font-size="10.00">/home/fnky/C0de/component</text>
<text text-anchor="start" x="148" y="-96.5" font-family="Helvetica,sans-Serif" font-size="10.00">_engine/include/IMGUI/imgui</text>
<text text-anchor="middle" x="218.5" y="-85.5" font-family="Helvetica,sans-Serif" font-size="10.00">_impl_glfw.h</text>
</a>
</g>
</g>
<!-- Node1&#45;&gt;Node2 -->
<g id="edge1" class="edge">
<title>Node1&#45;&gt;Node2</title>
<path fill="none" stroke="midnightblue" d="M481.63,-154.51C432.41,-144.71 368.29,-131.82 311.5,-120 306.81,-119.02 301.99,-118.01 297.13,-116.99"/>
<polygon fill="midnightblue" stroke="midnightblue" points="481.09,-157.97 491.58,-156.49 482.46,-151.11 481.09,-157.97"/>
</g>
<!-- Node3 -->
<g id="node3" class="node">
<title>Node3</title>
<g id="a_node3"><a xlink:href="imgui__impl__glfw_8cpp.html" target="_top" xlink:title=" ">
<polygon fill="none" stroke="black" points="0,-0.5 0,-41.5 157,-41.5 157,-0.5 0,-0.5"/>
<text text-anchor="start" x="8" y="-29.5" font-family="Helvetica,sans-Serif" font-size="10.00">/home/fnky/C0de/component</text>
<text text-anchor="start" x="8" y="-18.5" font-family="Helvetica,sans-Serif" font-size="10.00">_engine/src/IMGUI/imgui</text>
<text text-anchor="middle" x="78.5" y="-7.5" font-family="Helvetica,sans-Serif" font-size="10.00">_impl_glfw.cpp</text>
</a>
</g>
</g>
<!-- Node1&#45;&gt;Node3 -->
<g id="edge14" class="edge">
<title>Node1&#45;&gt;Node3</title>
<path fill="none" stroke="midnightblue" d="M469.18,-169.55C358.96,-166.75 183.85,-156.47 130.5,-120 103.63,-101.63 89.57,-64.8 83.12,-41.9"/>
<polygon fill="midnightblue" stroke="midnightblue" points="469.23,-173.06 479.31,-169.8 469.39,-166.06 469.23,-173.06"/>
</g>
<!-- Node4 -->
<g id="node4" class="node">
<title>Node4</title>
<g id="a_node4"><a xlink:href="main__menu__state_8cpp.html" target="_top" xlink:title=" ">
<polygon fill="none" stroke="black" points="175,-0.5 175,-41.5 332,-41.5 332,-0.5 175,-0.5"/>
<text text-anchor="start" x="183" y="-29.5" font-family="Helvetica,sans-Serif" font-size="10.00">/home/fnky/C0de/component</text>
<text text-anchor="start" x="183" y="-18.5" font-family="Helvetica,sans-Serif" font-size="10.00">_engine/src/States/main</text>
<text text-anchor="middle" x="253.5" y="-7.5" font-family="Helvetica,sans-Serif" font-size="10.00">_menu_state.cpp</text>
</a>
</g>
</g>
<!-- Node1&#45;&gt;Node4 -->
<g id="edge18" class="edge">
<title>Node1&#45;&gt;Node4</title>
<path fill="none" stroke="midnightblue" d="M469.42,-161.33C428.98,-154.31 382.31,-141.9 344.5,-120 344.43,-119.96 298.46,-70.44 271.9,-41.82"/>
<polygon fill="midnightblue" stroke="midnightblue" points="468.85,-164.79 479.29,-162.96 469.99,-157.88 468.85,-164.79"/>
</g>
<!-- Node5 -->
<g id="node5" class="node">
<title>Node5</title>
<g id="a_node5"><a xlink:href="imgui__impl__opengl3_8h.html" target="_top" xlink:title=" ">
<polygon fill="none" stroke="black" points="354,-78.5 354,-119.5 511,-119.5 511,-78.5 354,-78.5"/>
<text text-anchor="start" x="362" y="-107.5" font-family="Helvetica,sans-Serif" font-size="10.00">/home/fnky/C0de/component</text>
<text text-anchor="start" x="362" y="-96.5" font-family="Helvetica,sans-Serif" font-size="10.00">_engine/include/IMGUI/imgui</text>
<text text-anchor="middle" x="432.5" y="-85.5" font-family="Helvetica,sans-Serif" font-size="10.00">_impl_opengl3.h</text>
</a>
</g>
</g>
<!-- Node1&#45;&gt;Node5 -->
<g id="edge4" class="edge">
<title>Node1&#45;&gt;Node5</title>
<path fill="none" stroke="midnightblue" d="M527.41,-151.47C509.26,-141.63 487.12,-129.62 468.79,-119.68"/>
<polygon fill="midnightblue" stroke="midnightblue" points="526.05,-154.71 536.51,-156.4 529.38,-148.56 526.05,-154.71"/>
</g>
<!-- Node6 -->
<g id="node6" class="node">
<title>Node6</title>
<g id="a_node6"><a xlink:href="imgui__impl__opengl3_8cpp.html" target="_top" xlink:title=" ">
<polygon fill="none" stroke="black" points="350,-0.5 350,-41.5 507,-41.5 507,-0.5 350,-0.5"/>
<text text-anchor="start" x="358" y="-29.5" font-family="Helvetica,sans-Serif" font-size="10.00">/home/fnky/C0de/component</text>
<text text-anchor="start" x="358" y="-18.5" font-family="Helvetica,sans-Serif" font-size="10.00">_engine/src/IMGUI/imgui</text>
<text text-anchor="middle" x="428.5" y="-7.5" font-family="Helvetica,sans-Serif" font-size="10.00">_impl_opengl3.cpp</text>
</a>
</g>
</g>
<!-- Node1&#45;&gt;Node6 -->
<g id="edge15" class="edge">
<title>Node1&#45;&gt;Node6</title>
<path fill="none" stroke="midnightblue" d="M555.67,-146.55C549,-126.47 537.24,-97.94 519.5,-78 506.18,-63.03 487.91,-50.73 471.22,-41.5"/>
<polygon fill="midnightblue" stroke="midnightblue" points="552.36,-147.71 558.7,-156.2 559.04,-145.61 552.36,-147.71"/>
</g>
<!-- Node7 -->
<g id="node7" class="node">
<title>Node7</title>
<g id="a_node7"><a xlink:href="imgui__internal_8h.html" target="_top" xlink:title=" ">
<polygon fill="none" stroke="black" points="700,-78.5 700,-119.5 857,-119.5 857,-78.5 700,-78.5"/>
<text text-anchor="start" x="708" y="-107.5" font-family="Helvetica,sans-Serif" font-size="10.00">/home/fnky/C0de/component</text>
<text text-anchor="start" x="708" y="-96.5" font-family="Helvetica,sans-Serif" font-size="10.00">_engine/include/IMGUI/imgui</text>
<text text-anchor="middle" x="778.5" y="-85.5" font-family="Helvetica,sans-Serif" font-size="10.00">_internal.h</text>
</a>
</g>
</g>
<!-- Node1&#45;&gt;Node7 -->
<g id="edge7" class="edge">
<title>Node1&#45;&gt;Node7</title>
<path fill="none" stroke="midnightblue" d="M615.25,-153.28C646.45,-143.1 686.08,-130.17 718.47,-119.59"/>
<polygon fill="midnightblue" stroke="midnightblue" points="613.85,-150.06 605.43,-156.49 616.03,-156.71 613.85,-150.06"/>
</g>
<!-- Node8 -->
<g id="node8" class="node">
<title>Node8</title>
<g id="a_node8"><a xlink:href="imgui_8cpp.html" target="_top" xlink:title=" ">
<polygon fill="none" stroke="black" points="525,-6 525,-36 682,-36 682,-6 525,-6"/>
<text text-anchor="start" x="533" y="-24" font-family="Helvetica,sans-Serif" font-size="10.00">/home/fnky/C0de/component</text>
<text text-anchor="middle" x="603.5" y="-13" font-family="Helvetica,sans-Serif" font-size="10.00">_engine/src/IMGUI/imgui.cpp</text>
</a>
</g>
</g>
<!-- Node1&#45;&gt;Node8 -->
<g id="edge12" class="edge">
<title>Node1&#45;&gt;Node8</title>
<path fill="none" stroke="midnightblue" d="M569.2,-146.22C577.82,-115.03 592.49,-61.87 599.52,-36.41"/>
<polygon fill="midnightblue" stroke="midnightblue" points="565.72,-145.69 566.43,-156.26 572.47,-147.55 565.72,-145.69"/>
</g>
<!-- Node9 -->
<g id="node9" class="node">
<title>Node9</title>
<g id="a_node9"><a xlink:href="imgui__draw_8cpp.html" target="_top" xlink:title=" ">
<polygon fill="none" stroke="black" points="700,-0.5 700,-41.5 857,-41.5 857,-0.5 700,-0.5"/>
<text text-anchor="start" x="708" y="-29.5" font-family="Helvetica,sans-Serif" font-size="10.00">/home/fnky/C0de/component</text>
<text text-anchor="start" x="708" y="-18.5" font-family="Helvetica,sans-Serif" font-size="10.00">_engine/src/IMGUI/imgui</text>
<text text-anchor="middle" x="778.5" y="-7.5" font-family="Helvetica,sans-Serif" font-size="10.00">_draw.cpp</text>
</a>
</g>
</g>
<!-- Node1&#45;&gt;Node9 -->
<g id="edge13" class="edge">
<title>Node1&#45;&gt;Node9</title>
<path fill="none" stroke="midnightblue" d="M589.47,-150.3C615.15,-131.24 655.03,-102.07 690.5,-78 708.93,-65.49 729.97,-52.08 746.85,-41.51"/>
<polygon fill="midnightblue" stroke="midnightblue" points="587.27,-147.58 581.33,-156.35 591.45,-153.19 587.27,-147.58"/>
</g>
<!-- Node10 -->
<g id="node10" class="node">
<title>Node10</title>
<g id="a_node10"><a xlink:href="imgui__tables_8cpp.html" target="_top" xlink:title=" ">
<polygon fill="none" stroke="black" points="875,-0.5 875,-41.5 1032,-41.5 1032,-0.5 875,-0.5"/>
<text text-anchor="start" x="883" y="-29.5" font-family="Helvetica,sans-Serif" font-size="10.00">/home/fnky/C0de/component</text>
<text text-anchor="start" x="883" y="-18.5" font-family="Helvetica,sans-Serif" font-size="10.00">_engine/src/IMGUI/imgui</text>
<text text-anchor="middle" x="953.5" y="-7.5" font-family="Helvetica,sans-Serif" font-size="10.00">_tables.cpp</text>
</a>
</g>
</g>
<!-- Node1&#45;&gt;Node10 -->
<g id="edge16" class="edge">
<title>Node1&#45;&gt;Node10</title>
<path fill="none" stroke="midnightblue" d="M655.84,-161.76C731.17,-153.46 830.21,-139.38 865.5,-120 899.37,-101.4 926.87,-64.65 941.65,-41.82"/>
<polygon fill="midnightblue" stroke="midnightblue" points="655.41,-158.28 645.84,-162.84 656.16,-165.24 655.41,-158.28"/>
</g>
<!-- Node11 -->
<g id="node11" class="node">
<title>Node11</title>
<g id="a_node11"><a xlink:href="imgui__widgets_8cpp.html" target="_top" xlink:title=" ">
<polygon fill="none" stroke="black" points="1050,-0.5 1050,-41.5 1207,-41.5 1207,-0.5 1050,-0.5"/>
<text text-anchor="start" x="1058" y="-29.5" font-family="Helvetica,sans-Serif" font-size="10.00">/home/fnky/C0de/component</text>
<text text-anchor="start" x="1058" y="-18.5" font-family="Helvetica,sans-Serif" font-size="10.00">_engine/src/IMGUI/imgui</text>
<text text-anchor="middle" x="1128.5" y="-7.5" font-family="Helvetica,sans-Serif" font-size="10.00">_widgets.cpp</text>
</a>
</g>
</g>
<!-- Node1&#45;&gt;Node11 -->
<g id="edge17" class="edge">
<title>Node1&#45;&gt;Node11</title>
<path fill="none" stroke="midnightblue" d="M655.75,-163.47C725.32,-156.61 822.16,-143.63 904.5,-120 973.25,-100.27 1048.54,-64.05 1091.98,-41.6"/>
<polygon fill="midnightblue" stroke="midnightblue" points="655.31,-160 645.69,-164.44 655.98,-166.96 655.31,-160"/>
</g>
<!-- Node2&#45;&gt;Node3 -->
<g id="edge2" class="edge">
<title>Node2&#45;&gt;Node3</title>
<path fill="none" stroke="midnightblue" d="M173.6,-73.63C154.47,-63.24 132.46,-51.29 114.43,-41.51"/>
<polygon fill="midnightblue" stroke="midnightblue" points="171.99,-76.73 182.45,-78.43 175.33,-70.58 171.99,-76.73"/>
</g>
<!-- Node2&#45;&gt;Node4 -->
<g id="edge3" class="edge">
<title>Node2&#45;&gt;Node4</title>
<path fill="none" stroke="midnightblue" d="M231.77,-69.17C236.03,-59.93 240.64,-49.92 244.52,-41.51"/>
<polygon fill="midnightblue" stroke="midnightblue" points="228.52,-67.88 227.51,-78.43 234.88,-70.81 228.52,-67.88"/>
</g>
<!-- Node5&#45;&gt;Node4 -->
<g id="edge6" class="edge">
<title>Node5&#45;&gt;Node4</title>
<path fill="none" stroke="midnightblue" d="M377.08,-74.47C352.17,-63.89 323.12,-51.56 299.44,-41.51"/>
<polygon fill="midnightblue" stroke="midnightblue" points="375.83,-77.74 386.4,-78.43 378.57,-71.3 375.83,-77.74"/>
</g>
<!-- Node5&#45;&gt;Node6 -->
<g id="edge5" class="edge">
<title>Node5&#45;&gt;Node6</title>
<path fill="none" stroke="midnightblue" d="M430.94,-68.3C430.46,-59.3 429.96,-49.65 429.53,-41.51"/>
<polygon fill="midnightblue" stroke="midnightblue" points="427.45,-68.63 431.47,-78.43 434.44,-68.26 427.45,-68.63"/>
</g>
<!-- Node7&#45;&gt;Node8 -->
<g id="edge8" class="edge">
<title>Node7&#45;&gt;Node8</title>
<path fill="none" stroke="midnightblue" d="M723.89,-74.28C695.04,-61.76 660.62,-46.81 635.98,-36.11"/>
<polygon fill="midnightblue" stroke="midnightblue" points="722.87,-77.65 733.43,-78.43 725.65,-71.23 722.87,-77.65"/>
</g>
<!-- Node7&#45;&gt;Node9 -->
<g id="edge9" class="edge">
<title>Node7&#45;&gt;Node9</title>
<path fill="none" stroke="midnightblue" d="M778.5,-68.3C778.5,-59.3 778.5,-49.65 778.5,-41.51"/>
<polygon fill="midnightblue" stroke="midnightblue" points="775,-68.43 778.5,-78.43 782,-68.43 775,-68.43"/>
</g>
<!-- Node7&#45;&gt;Node10 -->
<g id="edge10" class="edge">
<title>Node7&#45;&gt;Node10</title>
<path fill="none" stroke="midnightblue" d="M833.01,-74.33C857.29,-63.78 885.54,-51.51 908.59,-41.51"/>
<polygon fill="midnightblue" stroke="midnightblue" points="831.35,-71.23 823.57,-78.43 834.13,-77.65 831.35,-71.23"/>
</g>
<!-- Node7&#45;&gt;Node11 -->
<g id="edge11" class="edge">
<title>Node7&#45;&gt;Node11</title>
<path fill="none" stroke="midnightblue" d="M867.13,-79.5C918.16,-68.76 983.49,-54.84 1041.5,-42 1044.22,-41.4 1046.99,-40.78 1049.79,-40.15"/>
<polygon fill="midnightblue" stroke="midnightblue" points="866.18,-76.12 857.12,-81.61 867.62,-82.97 866.18,-76.12"/>
</g>
</g>
</svg>
        <g id="navigator" transform="translate(0 0)" fill="#404254">
                <rect fill="#f2f5e9" fill-opacity="0.5" stroke="#606060" stroke-width=".5" x="0" y="0" width="60" height="60"/>
                <use id="zoomplus" xlink:href="#zoomPlus" x="17" y="9" onmousedown="handleZoom(evt,'in')"/>
                <use id="zoomminus" xlink:href="#zoomMin" x="42" y="9" onmousedown="handleZoom(evt,'out')"/>
                <use id="reset" xlink:href="#resetDef" x="30" y="36" onmousedown="handleReset()"/>
                <g id="arrowUp" xlink:href="#dirArrow" transform="translate(30 24)" onmousedown="handlePan(0,-1)">
                  <use xlink:href="#rim" fill="#404040">
                        <set attributeName="fill" to="#808080" begin="arrowUp.mouseover" end="arrowUp.mouseout"/>
                  </use>
                  <path fill="none" stroke="white" stroke-width="1.5" d="M0,-3.0v7 M-2.5,-0.5L0,-3.0L2.5,-0.5"/>
                </g>
                <g id="arrowRight" xlink:href="#dirArrow" transform="rotate(90) translate(36 -43)" onmousedown="handlePan(1,0)">
                  <use xlink:href="#rim" fill="#404040">
                        <set attributeName="fill" to="#808080" begin="arrowRight.mouseover" end="arrowRight.mouseout"/>
                  </use>
                  <path fill="none" stroke="white" stroke-width="1.5" d="M0,-3.0v7 M-2.5,-0.5L0,-3.0L2.5,-0.5"/>
                </g>
                <g id="arrowDown" xlink:href="#dirArrow" transform="rotate(180) translate(-30 -48)" onmousedown="handlePan(0,1)">
                  <use xlink:href="#rim" fill="#404040">
                        <set attributeName="fill" to="#808080" begin="arrowDown.mouseover" end="arrowDown.mouseout"/>
                  </use>
                  <path fill="none" stroke="white" stroke-width="1.5" d="M0,-3.0v7 M-2.5,-0.5L0,-3.0L2.5,-0.5"/>
                </g>
                <g id="arrowLeft" xlink:href="#dirArrow" transform="rotate(270) translate(-36 17)" onmousedown="handlePan(-1,0)">
                  <use xlink:href="#rim" fill="#404040">
                        <set attributeName="fill" to="#808080" begin="arrowLeft.mouseover" end="arrowLeft.mouseout"/>
                  </use>
                  <path fill="none" stroke="white" stroke-width="1.5" d="M0,-3.0v7 M-2.5,-0.5L0,-3.0L2.5,-0.5"/>
                </g>
        </g>
        <svg viewBox="0 0 15 15" width="100%" height="30px" preserveAspectRatio="xMaxYMin meet">
         <g id="arrow_out" transform="scale(0.3 0.3)">
          <a xlink:href="imgui_8h__dep__incl_org.svg" target="_base">
           <rect id="button" ry="5" rx="5" y="6" x="6" height="38" width="38"
                fill="#f2f5e9" fill-opacity="0.5" stroke="#606060" stroke-width="1.0"/>
           <path id="arrow"
             d="M 11.500037,31.436501 C 11.940474,20.09759 22.043105,11.32322 32.158766,21.979434 L 37.068811,17.246167 C 37.068811,17.246167 37.088388,32 37.088388,32 L 22.160133,31.978069 C 22.160133,31.978069 26.997745,27.140456 26.997745,27.140456 C 18.528582,18.264221 13.291696,25.230495 11.500037,31.436501 z"
             style="fill:#404040;"/>
          </a>
         </g>
        </svg>
</svg>
