<?xml version="1.0" encoding="UTF-8" standalone="no"?>
<!DOCTYPE svg PUBLIC "-//W3C//DTD SVG 1.1//EN"
 "http://www.w3.org/Graphics/SVG/1.1/DTD/svg11.dtd">
<!-- Generated by graphviz version 2.43.0 (0)
 -->
<!-- Title: /home/fnky/C0de/component_engine/src/IMGUI/imgui_impl_glfw.cpp Pages: 1 -->
<svg width="436pt" height="240pt"
 viewBox="0.00 0.00 436.00 240.00" xmlns="http://www.w3.org/2000/svg" xmlns:xlink="http://www.w3.org/1999/xlink">
<g id="graph0" class="graph" transform="scale(1 1) rotate(0) translate(4 236)">
<title>/home/fnky/C0de/component_engine/src/IMGUI/imgui_impl_glfw.cpp</title>
<!-- Node1 -->
<g id="node1" class="node">
<title>Node1</title>
<g id="a_node1"><a xlink:title=" ">
<polygon fill="#bfbfbf" stroke="black" points="179.5,-190.5 179.5,-231.5 336.5,-231.5 336.5,-190.5 179.5,-190.5"/>
<text text-anchor="start" x="187.5" y="-219.5" font-family="Helvetica,sans-Serif" font-size="10.00">/home/fnky/C0de/component</text>
<text text-anchor="start" x="187.5" y="-208.5" font-family="Helvetica,sans-Serif" font-size="10.00">_engine/src/IMGUI/imgui</text>
<text text-anchor="middle" x="258" y="-197.5" font-family="Helvetica,sans-Serif" font-size="10.00">_impl_glfw.cpp</text>
</a>
</g>
</g>
<!-- Node2 -->
<g id="node2" class="node">
<title>Node2</title>
<g id="a_node2"><a xlink:href="imgui_8h.html" target="_top" xlink:title=" ">
<polygon fill="none" stroke="black" points="165.5,-56.5 165.5,-86.5 268.5,-86.5 268.5,-56.5 165.5,-56.5"/>
<text text-anchor="start" x="173.5" y="-74.5" font-family="Helvetica,sans-Serif" font-size="10.00">../../include/IMGUI</text>
<text text-anchor="middle" x="217" y="-63.5" font-family="Helvetica,sans-Serif" font-size="10.00">/imgui.h</text>
</a>
</g>
</g>
<!-- Node1&#45;&gt;Node2 -->
<g id="edge1" class="edge">
<title>Node1&#45;&gt;Node2</title>
<path fill="none" stroke="midnightblue" d="M226.33,-190.46C214.15,-181.09 201.59,-168.68 195,-154 186.52,-135.11 194.1,-112.25 202.59,-95.55"/>
<polygon fill="midnightblue" stroke="midnightblue" points="205.82,-96.96 207.59,-86.51 199.69,-93.57 205.82,-96.96"/>
</g>
<!-- Node9 -->
<g id="node9" class="node">
<title>Node9</title>
<g id="a_node9"><a xlink:href="imgui__impl__glfw_8h.html" target="_top" xlink:title=" ">
<polygon fill="none" stroke="black" points="204,-123.5 204,-153.5 312,-153.5 312,-123.5 204,-123.5"/>
<text text-anchor="start" x="212" y="-141.5" font-family="Helvetica,sans-Serif" font-size="10.00">../../include/IMGUI</text>
<text text-anchor="middle" x="258" y="-130.5" font-family="Helvetica,sans-Serif" font-size="10.00">/imgui_impl_glfw.h</text>
</a>
</g>
</g>
<!-- Node1&#45;&gt;Node9 -->
<g id="edge8" class="edge">
<title>Node1&#45;&gt;Node9</title>
<path fill="none" stroke="midnightblue" d="M258,-190.36C258,-182.23 258,-172.7 258,-164.11"/>
<polygon fill="midnightblue" stroke="midnightblue" points="261.5,-163.89 258,-153.89 254.5,-163.89 261.5,-163.89"/>
</g>
<!-- Node10 -->
<g id="node10" class="node">
<title>Node10</title>
<g id="a_node10"><a xlink:title=" ">
<polygon fill="none" stroke="#bfbfbf" points="330.5,-129 330.5,-148 413.5,-148 413.5,-129 330.5,-129"/>
<text text-anchor="middle" x="372" y="-136" font-family="Helvetica,sans-Serif" font-size="10.00">GLFW/glfw3.h</text>
</a>
</g>
</g>
<!-- Node1&#45;&gt;Node10 -->
<g id="edge10" class="edge">
<title>Node1&#45;&gt;Node10</title>
<path fill="none" stroke="midnightblue" d="M289.76,-190.36C308.66,-178.67 332.2,-164.12 349.24,-153.57"/>
<polygon fill="midnightblue" stroke="midnightblue" points="351.31,-156.41 357.97,-148.17 347.63,-150.46 351.31,-156.41"/>
</g>
<!-- Node3 -->
<g id="node3" class="node">
<title>Node3</title>
<g id="a_node3"><a xlink:href="imconfig_8h.html" target="_top" xlink:title=" ">
<polygon fill="none" stroke="black" points="0,-0.5 0,-19.5 68,-19.5 68,-0.5 0,-0.5"/>
<text text-anchor="middle" x="34" y="-7.5" font-family="Helvetica,sans-Serif" font-size="10.00">imconfig.h</text>
</a>
</g>
</g>
<!-- Node2&#45;&gt;Node3 -->
<g id="edge2" class="edge">
<title>Node2&#45;&gt;Node3</title>
<path fill="none" stroke="midnightblue" d="M173.63,-56.4C142.01,-46.12 99.67,-32.35 69.93,-22.68"/>
<polygon fill="midnightblue" stroke="midnightblue" points="70.95,-19.33 60.36,-19.57 68.79,-25.99 70.95,-19.33"/>
</g>
<!-- Node4 -->
<g id="node4" class="node">
<title>Node4</title>
<g id="a_node4"><a xlink:title=" ">
<polygon fill="none" stroke="#bfbfbf" points="86.5,-0.5 86.5,-19.5 133.5,-19.5 133.5,-0.5 86.5,-0.5"/>
<text text-anchor="middle" x="110" y="-7.5" font-family="Helvetica,sans-Serif" font-size="10.00">float.h</text>
</a>
</g>
</g>
<!-- Node2&#45;&gt;Node4 -->
<g id="edge3" class="edge">
<title>Node2&#45;&gt;Node4</title>
<path fill="none" stroke="midnightblue" d="M191.64,-56.4C174.33,-46.77 151.52,-34.09 134.42,-24.58"/>
<polygon fill="midnightblue" stroke="midnightblue" points="136.01,-21.46 125.57,-19.66 132.61,-27.58 136.01,-21.46"/>
</g>
<!-- Node5 -->
<g id="node5" class="node">
<title>Node5</title>
<g id="a_node5"><a xlink:title=" ">
<polygon fill="none" stroke="#bfbfbf" points="152,-0.5 152,-19.5 208,-19.5 208,-0.5 152,-0.5"/>
<text text-anchor="middle" x="180" y="-7.5" font-family="Helvetica,sans-Serif" font-size="10.00">stdarg.h</text>
</a>
</g>
</g>
<!-- Node2&#45;&gt;Node5 -->
<g id="edge4" class="edge">
<title>Node2&#45;&gt;Node5</title>
<path fill="none" stroke="midnightblue" d="M208.23,-56.4C203.02,-48.02 196.37,-37.33 190.83,-28.42"/>
<polygon fill="midnightblue" stroke="midnightblue" points="193.64,-26.3 185.38,-19.66 187.69,-30 193.64,-26.3"/>
</g>
<!-- Node6 -->
<g id="node6" class="node">
<title>Node6</title>
<g id="a_node6"><a xlink:title=" ">
<polygon fill="none" stroke="#bfbfbf" points="226,-0.5 226,-19.5 282,-19.5 282,-0.5 226,-0.5"/>
<text text-anchor="middle" x="254" y="-7.5" font-family="Helvetica,sans-Serif" font-size="10.00">stddef.h</text>
</a>
</g>
</g>
<!-- Node2&#45;&gt;Node6 -->
<g id="edge5" class="edge">
<title>Node2&#45;&gt;Node6</title>
<path fill="none" stroke="midnightblue" d="M225.77,-56.4C230.98,-48.02 237.63,-37.33 243.17,-28.42"/>
<polygon fill="midnightblue" stroke="midnightblue" points="246.31,-30 248.62,-19.66 240.36,-26.3 246.31,-30"/>
</g>
<!-- Node7 -->
<g id="node7" class="node">
<title>Node7</title>
<g id="a_node7"><a xlink:title=" ">
<polygon fill="none" stroke="#bfbfbf" points="300.5,-0.5 300.5,-19.5 353.5,-19.5 353.5,-0.5 300.5,-0.5"/>
<text text-anchor="middle" x="327" y="-7.5" font-family="Helvetica,sans-Serif" font-size="10.00">string.h</text>
</a>
</g>
</g>
<!-- Node2&#45;&gt;Node7 -->
<g id="edge6" class="edge">
<title>Node2&#45;&gt;Node7</title>
<path fill="none" stroke="midnightblue" d="M243.07,-56.4C260.87,-46.77 284.31,-34.09 301.9,-24.58"/>
<polygon fill="midnightblue" stroke="midnightblue" points="303.86,-27.49 310.99,-19.66 300.53,-21.34 303.86,-27.49"/>
</g>
<!-- Node8 -->
<g id="node8" class="node">
<title>Node8</title>
<g id="a_node8"><a xlink:title=" ">
<polygon fill="none" stroke="#bfbfbf" points="372,-0.5 372,-19.5 428,-19.5 428,-0.5 372,-0.5"/>
<text text-anchor="middle" x="400" y="-7.5" font-family="Helvetica,sans-Serif" font-size="10.00">assert.h</text>
</a>
</g>
</g>
<!-- Node2&#45;&gt;Node8 -->
<g id="edge7" class="edge">
<title>Node2&#45;&gt;Node8</title>
<path fill="none" stroke="midnightblue" d="M260.37,-56.4C291.99,-46.12 334.33,-32.35 364.07,-22.68"/>
<polygon fill="midnightblue" stroke="midnightblue" points="365.21,-25.99 373.64,-19.57 363.05,-19.33 365.21,-25.99"/>
</g>
<!-- Node9&#45;&gt;Node2 -->
<g id="edge9" class="edge">
<title>Node9&#45;&gt;Node2</title>
<path fill="none" stroke="midnightblue" d="M249.1,-123.4C243.89,-115.13 237.19,-104.51 231.26,-95.1"/>
<polygon fill="midnightblue" stroke="midnightblue" points="234.17,-93.17 225.88,-86.58 228.25,-96.9 234.17,-93.17"/>
</g>
</g>
</svg>
