<?xml version="1.0" encoding="UTF-8" standalone="no"?>
<!DOCTYPE svg PUBLIC "-//W3C//DTD SVG 1.1//EN"
 "http://www.w3.org/Graphics/SVG/1.1/DTD/svg11.dtd">
<!-- Generated by graphviz version 2.43.0 (0)
 -->
<!-- Title: /home/fnky/C0de/component_engine/src/IMGUI/imgui_impl_opengl3.cpp Pages: 1 -->
<svg width="612pt" height="251pt"
 viewBox="0.00 0.00 612.00 251.00" xmlns="http://www.w3.org/2000/svg" xmlns:xlink="http://www.w3.org/1999/xlink">
<g id="graph0" class="graph" transform="scale(1 1) rotate(0) translate(4 247)">
<title>/home/fnky/C0de/component_engine/src/IMGUI/imgui_impl_opengl3.cpp</title>
<!-- Node1 -->
<g id="node1" class="node">
<title>Node1</title>
<g id="a_node1"><a xlink:title=" ">
<polygon fill="#bfbfbf" stroke="black" points="291.5,-201.5 291.5,-242.5 448.5,-242.5 448.5,-201.5 291.5,-201.5"/>
<text text-anchor="start" x="299.5" y="-230.5" font-family="Helvetica,sans-Serif" font-size="10.00">/home/fnky/C0de/component</text>
<text text-anchor="start" x="299.5" y="-219.5" font-family="Helvetica,sans-Serif" font-size="10.00">_engine/src/IMGUI/imgui</text>
<text text-anchor="middle" x="370" y="-208.5" font-family="Helvetica,sans-Serif" font-size="10.00">_impl_opengl3.cpp</text>
</a>
</g>
</g>
<!-- Node2 -->
<g id="node2" class="node">
<title>Node2</title>
<g id="a_node2"><a xlink:href="imgui_8h.html" target="_top" xlink:title=" ">
<polygon fill="none" stroke="black" points="165.5,-56.5 165.5,-86.5 268.5,-86.5 268.5,-56.5 165.5,-56.5"/>
<text text-anchor="start" x="173.5" y="-74.5" font-family="Helvetica,sans-Serif" font-size="10.00">../../include/IMGUI</text>
<text text-anchor="middle" x="217" y="-63.5" font-family="Helvetica,sans-Serif" font-size="10.00">/imgui.h</text>
</a>
</g>
</g>
<!-- Node1&#45;&gt;Node2 -->
<g id="edge1" class="edge">
<title>Node1&#45;&gt;Node2</title>
<path fill="none" stroke="midnightblue" d="M291.29,-217.16C254.29,-210.91 213.28,-196.63 190,-165 174.78,-144.32 187.52,-115.19 200.16,-95.17"/>
<polygon fill="midnightblue" stroke="midnightblue" points="203.19,-96.93 205.86,-86.68 197.38,-93.03 203.19,-96.93"/>
</g>
<!-- Node9 -->
<g id="node9" class="node">
<title>Node9</title>
<g id="a_node9"><a xlink:href="imgui__impl__opengl3_8h.html" target="_top" xlink:title=" ">
<polygon fill="none" stroke="black" points="199,-129 199,-159 327,-159 327,-129 199,-129"/>
<text text-anchor="start" x="207" y="-147" font-family="Helvetica,sans-Serif" font-size="10.00">../../include/IMGUI</text>
<text text-anchor="middle" x="263" y="-136" font-family="Helvetica,sans-Serif" font-size="10.00">/imgui_impl_opengl3.h</text>
</a>
</g>
</g>
<!-- Node1&#45;&gt;Node9 -->
<g id="edge8" class="edge">
<title>Node1&#45;&gt;Node9</title>
<path fill="none" stroke="midnightblue" d="M342.44,-201.43C326.77,-190.3 307.18,-176.38 291.37,-165.15"/>
<polygon fill="midnightblue" stroke="midnightblue" points="293.21,-162.16 283.03,-159.23 289.15,-167.87 293.21,-162.16"/>
</g>
<!-- Node10 -->
<g id="node10" class="node">
<title>Node10</title>
<g id="a_node10"><a xlink:title=" ">
<polygon fill="none" stroke="#bfbfbf" points="345,-134.5 345,-153.5 395,-153.5 395,-134.5 345,-134.5"/>
<text text-anchor="middle" x="370" y="-141.5" font-family="Helvetica,sans-Serif" font-size="10.00">stdio.h</text>
</a>
</g>
</g>
<!-- Node1&#45;&gt;Node10 -->
<g id="edge10" class="edge">
<title>Node1&#45;&gt;Node10</title>
<path fill="none" stroke="midnightblue" d="M370,-201.43C370,-189.82 370,-175.18 370,-163.72"/>
<polygon fill="midnightblue" stroke="midnightblue" points="373.5,-163.55 370,-153.55 366.5,-163.55 373.5,-163.55"/>
</g>
<!-- Node11 -->
<g id="node11" class="node">
<title>Node11</title>
<g id="a_node11"><a xlink:title=" ">
<polygon fill="none" stroke="#bfbfbf" points="413.5,-134.5 413.5,-153.5 466.5,-153.5 466.5,-134.5 413.5,-134.5"/>
<text text-anchor="middle" x="440" y="-141.5" font-family="Helvetica,sans-Serif" font-size="10.00">stdint.h</text>
</a>
</g>
</g>
<!-- Node1&#45;&gt;Node11 -->
<g id="edge11" class="edge">
<title>Node1&#45;&gt;Node11</title>
<path fill="none" stroke="midnightblue" d="M388.03,-201.43C399.61,-188.85 414.47,-172.72 425.33,-160.92"/>
<polygon fill="midnightblue" stroke="midnightblue" points="427.92,-163.28 432.12,-153.55 422.77,-158.54 427.92,-163.28"/>
</g>
<!-- Node12 -->
<g id="node12" class="node">
<title>Node12</title>
<g id="a_node12"><a xlink:href="imgui__impl__opengl3__loader_8h.html" target="_top" xlink:title=" ">
<polygon fill="none" stroke="black" points="484.5,-123.5 484.5,-164.5 603.5,-164.5 603.5,-123.5 484.5,-123.5"/>
<text text-anchor="start" x="492.5" y="-152.5" font-family="Helvetica,sans-Serif" font-size="10.00">../../include/IMGUI</text>
<text text-anchor="start" x="492.5" y="-141.5" font-family="Helvetica,sans-Serif" font-size="10.00">/imgui_impl_opengl3</text>
<text text-anchor="middle" x="544" y="-130.5" font-family="Helvetica,sans-Serif" font-size="10.00">_loader.h</text>
</a>
</g>
</g>
<!-- Node1&#45;&gt;Node12 -->
<g id="edge12" class="edge">
<title>Node1&#45;&gt;Node12</title>
<path fill="none" stroke="midnightblue" d="M414.81,-201.43C437.74,-191.41 465.84,-179.14 489.97,-168.6"/>
<polygon fill="midnightblue" stroke="midnightblue" points="491.58,-171.72 499.34,-164.51 488.78,-165.3 491.58,-171.72"/>
</g>
<!-- Node3 -->
<g id="node3" class="node">
<title>Node3</title>
<g id="a_node3"><a xlink:href="imconfig_8h.html" target="_top" xlink:title=" ">
<polygon fill="none" stroke="black" points="0,-0.5 0,-19.5 68,-19.5 68,-0.5 0,-0.5"/>
<text text-anchor="middle" x="34" y="-7.5" font-family="Helvetica,sans-Serif" font-size="10.00">imconfig.h</text>
</a>
</g>
</g>
<!-- Node2&#45;&gt;Node3 -->
<g id="edge2" class="edge">
<title>Node2&#45;&gt;Node3</title>
<path fill="none" stroke="midnightblue" d="M173.63,-56.4C142.01,-46.12 99.67,-32.35 69.93,-22.68"/>
<polygon fill="midnightblue" stroke="midnightblue" points="70.95,-19.33 60.36,-19.57 68.79,-25.99 70.95,-19.33"/>
</g>
<!-- Node4 -->
<g id="node4" class="node">
<title>Node4</title>
<g id="a_node4"><a xlink:title=" ">
<polygon fill="none" stroke="#bfbfbf" points="86.5,-0.5 86.5,-19.5 133.5,-19.5 133.5,-0.5 86.5,-0.5"/>
<text text-anchor="middle" x="110" y="-7.5" font-family="Helvetica,sans-Serif" font-size="10.00">float.h</text>
</a>
</g>
</g>
<!-- Node2&#45;&gt;Node4 -->
<g id="edge3" class="edge">
<title>Node2&#45;&gt;Node4</title>
<path fill="none" stroke="midnightblue" d="M191.64,-56.4C174.33,-46.77 151.52,-34.09 134.42,-24.58"/>
<polygon fill="midnightblue" stroke="midnightblue" points="136.01,-21.46 125.57,-19.66 132.61,-27.58 136.01,-21.46"/>
</g>
<!-- Node5 -->
<g id="node5" class="node">
<title>Node5</title>
<g id="a_node5"><a xlink:title=" ">
<polygon fill="none" stroke="#bfbfbf" points="152,-0.5 152,-19.5 208,-19.5 208,-0.5 152,-0.5"/>
<text text-anchor="middle" x="180" y="-7.5" font-family="Helvetica,sans-Serif" font-size="10.00">stdarg.h</text>
</a>
</g>
</g>
<!-- Node2&#45;&gt;Node5 -->
<g id="edge4" class="edge">
<title>Node2&#45;&gt;Node5</title>
<path fill="none" stroke="midnightblue" d="M208.23,-56.4C203.02,-48.02 196.37,-37.33 190.83,-28.42"/>
<polygon fill="midnightblue" stroke="midnightblue" points="193.64,-26.3 185.38,-19.66 187.69,-30 193.64,-26.3"/>
</g>
<!-- Node6 -->
<g id="node6" class="node">
<title>Node6</title>
<g id="a_node6"><a xlink:title=" ">
<polygon fill="none" stroke="#bfbfbf" points="226,-0.5 226,-19.5 282,-19.5 282,-0.5 226,-0.5"/>
<text text-anchor="middle" x="254" y="-7.5" font-family="Helvetica,sans-Serif" font-size="10.00">stddef.h</text>
</a>
</g>
</g>
<!-- Node2&#45;&gt;Node6 -->
<g id="edge5" class="edge">
<title>Node2&#45;&gt;Node6</title>
<path fill="none" stroke="midnightblue" d="M225.77,-56.4C230.98,-48.02 237.63,-37.33 243.17,-28.42"/>
<polygon fill="midnightblue" stroke="midnightblue" points="246.31,-30 248.62,-19.66 240.36,-26.3 246.31,-30"/>
</g>
<!-- Node7 -->
<g id="node7" class="node">
<title>Node7</title>
<g id="a_node7"><a xlink:title=" ">
<polygon fill="none" stroke="#bfbfbf" points="300.5,-0.5 300.5,-19.5 353.5,-19.5 353.5,-0.5 300.5,-0.5"/>
<text text-anchor="middle" x="327" y="-7.5" font-family="Helvetica,sans-Serif" font-size="10.00">string.h</text>
</a>
</g>
</g>
<!-- Node2&#45;&gt;Node7 -->
<g id="edge6" class="edge">
<title>Node2&#45;&gt;Node7</title>
<path fill="none" stroke="midnightblue" d="M243.07,-56.4C260.87,-46.77 284.31,-34.09 301.9,-24.58"/>
<polygon fill="midnightblue" stroke="midnightblue" points="303.86,-27.49 310.99,-19.66 300.53,-21.34 303.86,-27.49"/>
</g>
<!-- Node8 -->
<g id="node8" class="node">
<title>Node8</title>
<g id="a_node8"><a xlink:title=" ">
<polygon fill="none" stroke="#bfbfbf" points="372,-0.5 372,-19.5 428,-19.5 428,-0.5 372,-0.5"/>
<text text-anchor="middle" x="400" y="-7.5" font-family="Helvetica,sans-Serif" font-size="10.00">assert.h</text>
</a>
</g>
</g>
<!-- Node2&#45;&gt;Node8 -->
<g id="edge7" class="edge">
<title>Node2&#45;&gt;Node8</title>
<path fill="none" stroke="midnightblue" d="M260.37,-56.4C291.99,-46.12 334.33,-32.35 364.07,-22.68"/>
<polygon fill="midnightblue" stroke="midnightblue" points="365.21,-25.99 373.64,-19.57 363.05,-19.33 365.21,-25.99"/>
</g>
<!-- Node9&#45;&gt;Node2 -->
<g id="edge9" class="edge">
<title>Node9&#45;&gt;Node2</title>
<path fill="none" stroke="midnightblue" d="M253.69,-128.73C247.46,-119.18 239.11,-106.39 231.95,-95.42"/>
<polygon fill="midnightblue" stroke="midnightblue" points="234.69,-93.21 226.29,-86.75 228.83,-97.03 234.69,-93.21"/>
</g>
<!-- Node13 -->
<g id="node13" class="node">
<title>Node13</title>
<g id="a_node13"><a xlink:title=" ">
<polygon fill="none" stroke="#bfbfbf" points="482.5,-62 482.5,-81 535.5,-81 535.5,-62 482.5,-62"/>
<text text-anchor="middle" x="509" y="-69" font-family="Helvetica,sans-Serif" font-size="10.00">stdlib.h</text>
</a>
</g>
</g>
<!-- Node12&#45;&gt;Node13 -->
<g id="edge13" class="edge">
<title>Node12&#45;&gt;Node13</title>
<path fill="none" stroke="midnightblue" d="M534.25,-123.36C529.09,-112.97 522.81,-100.32 517.8,-90.23"/>
<polygon fill="midnightblue" stroke="midnightblue" points="520.89,-88.57 513.31,-81.17 514.62,-91.69 520.89,-88.57"/>
</g>
<!-- Node14 -->
<g id="node14" class="node">
<title>Node14</title>
<g id="a_node14"><a xlink:title=" ">
<polygon fill="none" stroke="#bfbfbf" points="554,-62 554,-81 604,-81 604,-62 554,-62"/>
<text text-anchor="middle" x="579" y="-69" font-family="Helvetica,sans-Serif" font-size="10.00">dlfcn.h</text>
</a>
</g>
</g>
<!-- Node12&#45;&gt;Node14 -->
<g id="edge14" class="edge">
<title>Node12&#45;&gt;Node14</title>
<path fill="none" stroke="midnightblue" d="M553.75,-123.36C558.91,-112.97 565.19,-100.32 570.2,-90.23"/>
<polygon fill="midnightblue" stroke="midnightblue" points="573.38,-91.69 574.69,-81.17 567.11,-88.57 573.38,-91.69"/>
</g>
</g>
</svg>
