<?xml version="1.0" encoding="UTF-8" standalone="no"?>
<!DOCTYPE svg PUBLIC "-//W3C//DTD SVG 1.1//EN"
 "http://www.w3.org/Graphics/SVG/1.1/DTD/svg11.dtd">
<!-- Generated by graphviz version 2.43.0 (0)
 -->
<!-- Title: /home/fnky/C0de/component_engine/include/IMGUI/imstb_textedit.h Pages: 1 -->
<svg width="690pt" height="206pt"
 viewBox="0.00 0.00 690.00 206.00" xmlns="http://www.w3.org/2000/svg" xmlns:xlink="http://www.w3.org/1999/xlink">
<g id="graph0" class="graph" transform="scale(1 1) rotate(0) translate(4 202)">
<title>/home/fnky/C0de/component_engine/include/IMGUI/imstb_textedit.h</title>
<!-- Node1 -->
<g id="node1" class="node">
<title>Node1</title>
<g id="a_node1"><a xlink:title=" ">
<polygon fill="#bfbfbf" stroke="black" points="403,-156.5 403,-197.5 560,-197.5 560,-156.5 403,-156.5"/>
<text text-anchor="start" x="411" y="-185.5" font-family="Helvetica,sans-Serif" font-size="10.00">/home/fnky/C0de/component</text>
<text text-anchor="start" x="411" y="-174.5" font-family="Helvetica,sans-Serif" font-size="10.00">_engine/include/IMGUI/imstb</text>
<text text-anchor="middle" x="481.5" y="-163.5" font-family="Helvetica,sans-Serif" font-size="10.00">_textedit.h</text>
</a>
</g>
</g>
<!-- Node2 -->
<g id="node2" class="node">
<title>Node2</title>
<g id="a_node2"><a xlink:href="imgui__internal_8h.html" target="_top" xlink:title=" ">
<polygon fill="none" stroke="black" points="350,-78.5 350,-119.5 507,-119.5 507,-78.5 350,-78.5"/>
<text text-anchor="start" x="358" y="-107.5" font-family="Helvetica,sans-Serif" font-size="10.00">/home/fnky/C0de/component</text>
<text text-anchor="start" x="358" y="-96.5" font-family="Helvetica,sans-Serif" font-size="10.00">_engine/include/IMGUI/imgui</text>
<text text-anchor="middle" x="428.5" y="-85.5" font-family="Helvetica,sans-Serif" font-size="10.00">_internal.h</text>
</a>
</g>
</g>
<!-- Node1&#45;&gt;Node2 -->
<g id="edge1" class="edge">
<title>Node1&#45;&gt;Node2</title>
<path fill="none" stroke="midnightblue" d="M462.01,-148.05C455.39,-138.57 448.16,-128.18 442.1,-119.51"/>
<polygon fill="midnightblue" stroke="midnightblue" points="459.26,-150.23 467.85,-156.43 465,-146.22 459.26,-150.23"/>
</g>
<!-- Node6 -->
<g id="node6" class="node">
<title>Node6</title>
<g id="a_node6"><a xlink:href="imgui__widgets_8cpp.html" target="_top" xlink:title=" ">
<polygon fill="none" stroke="black" points="525,-0.5 525,-41.5 682,-41.5 682,-0.5 525,-0.5"/>
<text text-anchor="start" x="533" y="-29.5" font-family="Helvetica,sans-Serif" font-size="10.00">/home/fnky/C0de/component</text>
<text text-anchor="start" x="533" y="-18.5" font-family="Helvetica,sans-Serif" font-size="10.00">_engine/src/IMGUI/imgui</text>
<text text-anchor="middle" x="603.5" y="-7.5" font-family="Helvetica,sans-Serif" font-size="10.00">_widgets.cpp</text>
</a>
</g>
</g>
<!-- Node1&#45;&gt;Node6 -->
<g id="edge6" class="edge">
<title>Node1&#45;&gt;Node6</title>
<path fill="none" stroke="midnightblue" d="M503.4,-148.36C527.7,-117.68 566.32,-68.94 587.79,-41.83"/>
<polygon fill="midnightblue" stroke="midnightblue" points="500.42,-146.48 496.95,-156.5 505.9,-150.83 500.42,-146.48"/>
</g>
<!-- Node3 -->
<g id="node3" class="node">
<title>Node3</title>
<g id="a_node3"><a xlink:href="imgui_8cpp.html" target="_top" xlink:title=" ">
<polygon fill="none" stroke="black" points="0,-6 0,-36 157,-36 157,-6 0,-6"/>
<text text-anchor="start" x="8" y="-24" font-family="Helvetica,sans-Serif" font-size="10.00">/home/fnky/C0de/component</text>
<text text-anchor="middle" x="78.5" y="-13" font-family="Helvetica,sans-Serif" font-size="10.00">_engine/src/IMGUI/imgui.cpp</text>
</a>
</g>
</g>
<!-- Node2&#45;&gt;Node3 -->
<g id="edge2" class="edge">
<title>Node2&#45;&gt;Node3</title>
<path fill="none" stroke="midnightblue" d="M339.87,-79.5C288.84,-68.76 223.51,-54.84 165.5,-42 156.87,-40.09 147.78,-38.04 138.85,-36.01"/>
<polygon fill="midnightblue" stroke="midnightblue" points="339.38,-82.97 349.88,-81.61 340.82,-76.12 339.38,-82.97"/>
</g>
<!-- Node4 -->
<g id="node4" class="node">
<title>Node4</title>
<g id="a_node4"><a xlink:href="imgui__draw_8cpp.html" target="_top" xlink:title=" ">
<polygon fill="none" stroke="black" points="175,-0.5 175,-41.5 332,-41.5 332,-0.5 175,-0.5"/>
<text text-anchor="start" x="183" y="-29.5" font-family="Helvetica,sans-Serif" font-size="10.00">/home/fnky/C0de/component</text>
<text text-anchor="start" x="183" y="-18.5" font-family="Helvetica,sans-Serif" font-size="10.00">_engine/src/IMGUI/imgui</text>
<text text-anchor="middle" x="253.5" y="-7.5" font-family="Helvetica,sans-Serif" font-size="10.00">_draw.cpp</text>
</a>
</g>
</g>
<!-- Node2&#45;&gt;Node4 -->
<g id="edge3" class="edge">
<title>Node2&#45;&gt;Node4</title>
<path fill="none" stroke="midnightblue" d="M373.99,-74.33C349.71,-63.78 321.46,-51.51 298.41,-41.51"/>
<polygon fill="midnightblue" stroke="midnightblue" points="372.87,-77.65 383.43,-78.43 375.65,-71.23 372.87,-77.65"/>
</g>
<!-- Node5 -->
<g id="node5" class="node">
<title>Node5</title>
<g id="a_node5"><a xlink:href="imgui__tables_8cpp.html" target="_top" xlink:title=" ">
<polygon fill="none" stroke="black" points="350,-0.5 350,-41.5 507,-41.5 507,-0.5 350,-0.5"/>
<text text-anchor="start" x="358" y="-29.5" font-family="Helvetica,sans-Serif" font-size="10.00">/home/fnky/C0de/component</text>
<text text-anchor="start" x="358" y="-18.5" font-family="Helvetica,sans-Serif" font-size="10.00">_engine/src/IMGUI/imgui</text>
<text text-anchor="middle" x="428.5" y="-7.5" font-family="Helvetica,sans-Serif" font-size="10.00">_tables.cpp</text>
</a>
</g>
</g>
<!-- Node2&#45;&gt;Node5 -->
<g id="edge4" class="edge">
<title>Node2&#45;&gt;Node5</title>
<path fill="none" stroke="midnightblue" d="M428.5,-68.3C428.5,-59.3 428.5,-49.65 428.5,-41.51"/>
<polygon fill="midnightblue" stroke="midnightblue" points="425,-68.43 428.5,-78.43 432,-68.43 425,-68.43"/>
</g>
<!-- Node2&#45;&gt;Node6 -->
<g id="edge5" class="edge">
<title>Node2&#45;&gt;Node6</title>
<path fill="none" stroke="midnightblue" d="M483.01,-74.33C507.29,-63.78 535.54,-51.51 558.59,-41.51"/>
<polygon fill="midnightblue" stroke="midnightblue" points="481.35,-71.23 473.57,-78.43 484.13,-77.65 481.35,-71.23"/>
</g>
</g>
</svg>
