<?xml version="1.0" encoding="UTF-8" standalone="no"?>
<!DOCTYPE svg PUBLIC "-//W3C//DTD SVG 1.1//EN"
 "http://www.w3.org/Graphics/SVG/1.1/DTD/svg11.dtd">
<!-- Generated by graphviz version 2.43.0 (0)
 -->
<!-- Title: /home/fnky/C0de/component_engine/src/Components/PhysicsComponent.cpp Pages: 1 -->
<svg width="1588pt" height="229pt"
 viewBox="0.00 0.00 1587.50 229.00" xmlns="http://www.w3.org/2000/svg" xmlns:xlink="http://www.w3.org/1999/xlink">
<g id="graph0" class="graph" transform="scale(1 1) rotate(0) translate(4 225)">
<title>/home/fnky/C0de/component_engine/src/Components/PhysicsComponent.cpp</title>
<!-- Node1 -->
<g id="node1" class="node">
<title>Node1</title>
<g id="a_node1"><a xlink:title=" ">
<polygon fill="#bfbfbf" stroke="black" points="1129,-179.5 1129,-220.5 1286,-220.5 1286,-179.5 1129,-179.5"/>
<text text-anchor="start" x="1137" y="-208.5" font-family="Helvetica,sans-Serif" font-size="10.00">/home/fnky/C0de/component</text>
<text text-anchor="start" x="1137" y="-197.5" font-family="Helvetica,sans-Serif" font-size="10.00">_engine/src/Components</text>
<text text-anchor="middle" x="1207.5" y="-186.5" font-family="Helvetica,sans-Serif" font-size="10.00">/PhysicsComponent.cpp</text>
</a>
</g>
</g>
<!-- Node2 -->
<g id="node2" class="node">
<title>Node2</title>
<g id="a_node2"><a xlink:href="PhysicsComponent_8h.html" target="_top" xlink:title=" ">
<polygon fill="none" stroke="black" points="670.5,-112.5 670.5,-142.5 804.5,-142.5 804.5,-112.5 670.5,-112.5"/>
<text text-anchor="start" x="678.5" y="-130.5" font-family="Helvetica,sans-Serif" font-size="10.00">../../include/Components</text>
<text text-anchor="middle" x="737.5" y="-119.5" font-family="Helvetica,sans-Serif" font-size="10.00">/PhysicsComponent.h</text>
</a>
</g>
</g>
<!-- Node1&#45;&gt;Node2 -->
<g id="edge1" class="edge">
<title>Node1&#45;&gt;Node2</title>
<path fill="none" stroke="midnightblue" d="M1128.83,-187.2C1041.48,-174.1 901.39,-153.08 814.65,-140.07"/>
<polygon fill="midnightblue" stroke="midnightblue" points="815.02,-136.59 804.61,-138.57 813.98,-143.51 815.02,-136.59"/>
</g>
<!-- Node5 -->
<g id="node5" class="node">
<title>Node5</title>
<g id="a_node5"><a xlink:title=" ">
<polygon fill="none" stroke="#bfbfbf" points="0,-56.5 0,-75.5 103,-75.5 103,-56.5 0,-56.5"/>
<text text-anchor="middle" x="51.5" y="-63.5" font-family="Helvetica,sans-Serif" font-size="10.00">box2d/b2_types.h</text>
</a>
</g>
</g>
<!-- Node1&#45;&gt;Node5 -->
<g id="edge16" class="edge">
<title>Node1&#45;&gt;Node5</title>
<path fill="none" stroke="midnightblue" d="M1128.79,-191.4C1022.62,-181.04 827.69,-161.64 661.5,-143 420.13,-115.92 357.22,-109.34 113.44,-76.24"/>
<polygon fill="midnightblue" stroke="midnightblue" points="113.58,-72.73 103.2,-74.85 112.64,-79.66 113.58,-72.73"/>
</g>
<!-- Node11 -->
<g id="node11" class="node">
<title>Node11</title>
<g id="a_node11"><a xlink:title=" ">
<polygon fill="none" stroke="#bfbfbf" points="955.5,-0.5 955.5,-19.5 1013.5,-19.5 1013.5,-0.5 955.5,-0.5"/>
<text text-anchor="middle" x="984.5" y="-7.5" font-family="Helvetica,sans-Serif" font-size="10.00">memory</text>
</a>
</g>
</g>
<!-- Node1&#45;&gt;Node11 -->
<g id="edge18" class="edge">
<title>Node1&#45;&gt;Node11</title>
<path fill="none" stroke="midnightblue" d="M1183.04,-179.29C1171.76,-169.3 1158.85,-156.45 1149.5,-143 1125.42,-108.35 1142.38,-84.75 1111.5,-56 1087.36,-33.53 1051.29,-22.16 1023.75,-16.48"/>
<polygon fill="midnightblue" stroke="midnightblue" points="1024.14,-12.99 1013.66,-14.57 1022.83,-19.87 1024.14,-12.99"/>
</g>
<!-- Node13 -->
<g id="node13" class="node">
<title>Node13</title>
<g id="a_node13"><a xlink:title=" ">
<polygon fill="none" stroke="#bfbfbf" points="1158.5,-118 1158.5,-137 1256.5,-137 1256.5,-118 1158.5,-118"/>
<text text-anchor="middle" x="1207.5" y="-125" font-family="Helvetica,sans-Serif" font-size="10.00">box2d/b2_body.h</text>
</a>
</g>
</g>
<!-- Node1&#45;&gt;Node13 -->
<g id="edge13" class="edge">
<title>Node1&#45;&gt;Node13</title>
<path fill="none" stroke="midnightblue" d="M1207.5,-179.36C1207.5,-169.3 1207.5,-157.1 1207.5,-147.18"/>
<polygon fill="midnightblue" stroke="midnightblue" points="1211,-147.17 1207.5,-137.17 1204,-147.17 1211,-147.17"/>
</g>
<!-- Node14 -->
<g id="node14" class="node">
<title>Node14</title>
<g id="a_node14"><a xlink:title=" ">
<polygon fill="none" stroke="#bfbfbf" points="1275,-118 1275,-137 1382,-137 1382,-118 1275,-118"/>
<text text-anchor="middle" x="1328.5" y="-125" font-family="Helvetica,sans-Serif" font-size="10.00">box2d/b2_fixture.h</text>
</a>
</g>
</g>
<!-- Node1&#45;&gt;Node14 -->
<g id="edge14" class="edge">
<title>Node1&#45;&gt;Node14</title>
<path fill="none" stroke="midnightblue" d="M1241.21,-179.36C1261.45,-167.57 1286.71,-152.85 1304.85,-142.28"/>
<polygon fill="midnightblue" stroke="midnightblue" points="1306.74,-145.23 1313.61,-137.17 1303.21,-139.18 1306.74,-145.23"/>
</g>
<!-- Node15 -->
<g id="node15" class="node">
<title>Node15</title>
<g id="a_node15"><a xlink:title=" ">
<polygon fill="none" stroke="#bfbfbf" points="1400,-118 1400,-137 1501,-137 1501,-118 1400,-118"/>
<text text-anchor="middle" x="1450.5" y="-125" font-family="Helvetica,sans-Serif" font-size="10.00">box2d/b2_math.h</text>
</a>
</g>
</g>
<!-- Node1&#45;&gt;Node15 -->
<g id="edge15" class="edge">
<title>Node1&#45;&gt;Node15</title>
<path fill="none" stroke="midnightblue" d="M1274.87,-179.46C1318.77,-166.72 1374.54,-150.54 1411.31,-139.87"/>
<polygon fill="midnightblue" stroke="midnightblue" points="1412.53,-143.16 1421.16,-137.01 1410.58,-136.44 1412.53,-143.16"/>
</g>
<!-- Node16 -->
<g id="node16" class="node">
<title>Node16</title>
<g id="a_node16"><a xlink:title=" ">
<polygon fill="none" stroke="#bfbfbf" points="1519.5,-118 1519.5,-137 1579.5,-137 1579.5,-118 1519.5,-118"/>
<text text-anchor="middle" x="1549.5" y="-125" font-family="Helvetica,sans-Serif" font-size="10.00">iostream</text>
</a>
</g>
</g>
<!-- Node1&#45;&gt;Node16 -->
<g id="edge17" class="edge">
<title>Node1&#45;&gt;Node16</title>
<path fill="none" stroke="midnightblue" d="M1286.19,-188.28C1347.85,-178.97 1435.47,-163.71 1510.5,-143 1513.31,-142.23 1516.2,-141.33 1519.07,-140.38"/>
<polygon fill="midnightblue" stroke="midnightblue" points="1520.4,-143.63 1528.67,-137 1518.07,-137.03 1520.4,-143.63"/>
</g>
<!-- Node3 -->
<g id="node3" class="node">
<title>Node3</title>
<g id="a_node3"><a xlink:title=" ">
<polygon fill="none" stroke="#bfbfbf" points="121,-56.5 121,-75.5 270,-75.5 270,-56.5 121,-56.5"/>
<text text-anchor="middle" x="195.5" y="-63.5" font-family="Helvetica,sans-Serif" font-size="10.00">box2d/b2_polygon_shape.h</text>
</a>
</g>
</g>
<!-- Node2&#45;&gt;Node3 -->
<g id="edge2" class="edge">
<title>Node2&#45;&gt;Node3</title>
<path fill="none" stroke="midnightblue" d="M670.5,-119.14C572,-108.33 388.15,-88.15 280.35,-76.31"/>
<polygon fill="midnightblue" stroke="midnightblue" points="280.48,-72.81 270.16,-75.2 279.72,-79.77 280.48,-72.81"/>
</g>
<!-- Node4 -->
<g id="node4" class="node">
<title>Node4</title>
<g id="a_node4"><a xlink:title=" ">
<polygon fill="none" stroke="#bfbfbf" points="288,-56.5 288,-75.5 403,-75.5 403,-56.5 288,-56.5"/>
<text text-anchor="middle" x="345.5" y="-63.5" font-family="Helvetica,sans-Serif" font-size="10.00">box2d/b2_settings.h</text>
</a>
</g>
</g>
<!-- Node2&#45;&gt;Node4 -->
<g id="edge3" class="edge">
<title>Node2&#45;&gt;Node4</title>
<path fill="none" stroke="midnightblue" d="M670.11,-116.27C597.82,-105.3 483.73,-87.98 411.84,-77.07"/>
<polygon fill="midnightblue" stroke="midnightblue" points="411.96,-73.55 401.55,-75.51 410.91,-80.47 411.96,-73.55"/>
</g>
<!-- Node2&#45;&gt;Node5 -->
<g id="edge4" class="edge">
<title>Node2&#45;&gt;Node5</title>
<path fill="none" stroke="midnightblue" d="M670.19,-122.59C557.21,-115.68 322.06,-99.88 113.41,-76.15"/>
<polygon fill="midnightblue" stroke="midnightblue" points="113.51,-72.64 103.18,-74.98 112.72,-79.6 113.51,-72.64"/>
</g>
<!-- Node6 -->
<g id="node6" class="node">
<title>Node6</title>
<g id="a_node6"><a xlink:title=" ">
<polygon fill="none" stroke="#bfbfbf" points="421,-56.5 421,-75.5 524,-75.5 524,-56.5 421,-56.5"/>
<text text-anchor="middle" x="472.5" y="-63.5" font-family="Helvetica,sans-Serif" font-size="10.00">box2d/b2_world.h</text>
</a>
</g>
</g>
<!-- Node2&#45;&gt;Node6 -->
<g id="edge5" class="edge">
<title>Node2&#45;&gt;Node6</title>
<path fill="none" stroke="midnightblue" d="M675.03,-112.47C627.72,-101.85 563.68,-87.47 520.38,-77.75"/>
<polygon fill="midnightblue" stroke="midnightblue" points="520.91,-74.28 510.39,-75.51 519.38,-81.11 520.91,-74.28"/>
</g>
<!-- Node7 -->
<g id="node7" class="node">
<title>Node7</title>
<g id="a_node7"><a xlink:title=" ">
<polygon fill="none" stroke="#bfbfbf" points="542.5,-56.5 542.5,-75.5 696.5,-75.5 696.5,-56.5 542.5,-56.5"/>
<text text-anchor="middle" x="619.5" y="-63.5" font-family="Helvetica,sans-Serif" font-size="10.00">box2d/b2_world_callbacks.h</text>
</a>
</g>
</g>
<!-- Node2&#45;&gt;Node7 -->
<g id="edge6" class="edge">
<title>Node2&#45;&gt;Node7</title>
<path fill="none" stroke="midnightblue" d="M709.54,-112.4C690.18,-102.64 664.59,-89.74 645.64,-80.18"/>
<polygon fill="midnightblue" stroke="midnightblue" points="647.17,-77.04 636.67,-75.66 644.02,-83.29 647.17,-77.04"/>
</g>
<!-- Node8 -->
<g id="node8" class="node">
<title>Node8</title>
<g id="a_node8"><a xlink:title=" ">
<polygon fill="none" stroke="#bfbfbf" points="714.5,-56.5 714.5,-75.5 760.5,-75.5 760.5,-56.5 714.5,-56.5"/>
<text text-anchor="middle" x="737.5" y="-63.5" font-family="Helvetica,sans-Serif" font-size="10.00">cstdio</text>
</a>
</g>
</g>
<!-- Node2&#45;&gt;Node8 -->
<g id="edge7" class="edge">
<title>Node2&#45;&gt;Node8</title>
<path fill="none" stroke="midnightblue" d="M737.5,-112.4C737.5,-104.47 737.5,-94.46 737.5,-85.86"/>
<polygon fill="midnightblue" stroke="midnightblue" points="741,-85.66 737.5,-75.66 734,-85.66 741,-85.66"/>
</g>
<!-- Node9 -->
<g id="node9" class="node">
<title>Node9</title>
<g id="a_node9"><a xlink:title=" ">
<polygon fill="none" stroke="#bfbfbf" points="778.5,-56.5 778.5,-75.5 856.5,-75.5 856.5,-56.5 778.5,-56.5"/>
<text text-anchor="middle" x="817.5" y="-63.5" font-family="Helvetica,sans-Serif" font-size="10.00">glm/glm.hpp</text>
</a>
</g>
</g>
<!-- Node2&#45;&gt;Node9 -->
<g id="edge8" class="edge">
<title>Node2&#45;&gt;Node9</title>
<path fill="none" stroke="midnightblue" d="M756.46,-112.4C768.92,-103.13 785.2,-91.03 797.81,-81.65"/>
<polygon fill="midnightblue" stroke="midnightblue" points="799.92,-84.43 805.86,-75.66 795.75,-78.82 799.92,-84.43"/>
</g>
<!-- Node10 -->
<g id="node10" class="node">
<title>Node10</title>
<g id="a_node10"><a xlink:href="Components_2Component_8h.html" target="_top" xlink:title=" ">
<polygon fill="none" stroke="black" points="874.5,-56.5 874.5,-75.5 956.5,-75.5 956.5,-56.5 874.5,-56.5"/>
<text text-anchor="middle" x="915.5" y="-63.5" font-family="Helvetica,sans-Serif" font-size="10.00">Component.h</text>
</a>
</g>
</g>
<!-- Node2&#45;&gt;Node10 -->
<g id="edge9" class="edge">
<title>Node2&#45;&gt;Node10</title>
<path fill="none" stroke="midnightblue" d="M779.68,-112.4C810.31,-102.16 851.27,-88.47 880.17,-78.81"/>
<polygon fill="midnightblue" stroke="midnightblue" points="881.48,-82.06 889.86,-75.57 879.27,-75.42 881.48,-82.06"/>
</g>
<!-- Node2&#45;&gt;Node11 -->
<g id="edge12" class="edge">
<title>Node2&#45;&gt;Node11</title>
<path fill="none" stroke="midnightblue" d="M804.68,-119.22C863.3,-111.54 942.48,-97.54 965.5,-76 978.1,-64.21 982.5,-44.57 983.96,-29.96"/>
<polygon fill="midnightblue" stroke="midnightblue" points="987.47,-29.77 984.6,-19.57 980.49,-29.34 987.47,-29.77"/>
</g>
<!-- Node12 -->
<g id="node12" class="node">
<title>Node12</title>
<g id="a_node12"><a xlink:title=" ">
<polygon fill="none" stroke="#bfbfbf" points="1013,-56.5 1013,-75.5 1102,-75.5 1102,-56.5 1013,-56.5"/>
<text text-anchor="middle" x="1057.5" y="-63.5" font-family="Helvetica,sans-Serif" font-size="10.00">box2d/box2d.h</text>
</a>
</g>
</g>
<!-- Node2&#45;&gt;Node12 -->
<g id="edge11" class="edge">
<title>Node2&#45;&gt;Node12</title>
<path fill="none" stroke="midnightblue" d="M804.58,-114.03C863.42,-103.09 947.9,-87.38 1002.74,-77.18"/>
<polygon fill="midnightblue" stroke="midnightblue" points="1003.43,-80.61 1012.62,-75.34 1002.15,-73.73 1003.43,-80.61"/>
</g>
<!-- Node10&#45;&gt;Node11 -->
<g id="edge10" class="edge">
<title>Node10&#45;&gt;Node11</title>
<path fill="none" stroke="midnightblue" d="M926.59,-56.32C936.99,-48.18 952.76,-35.84 965.22,-26.09"/>
<polygon fill="midnightblue" stroke="midnightblue" points="967.49,-28.75 973.21,-19.83 963.18,-23.24 967.49,-28.75"/>
</g>
</g>
</svg>
