<?xml version="1.0" encoding="UTF-8" standalone="no"?>
<!DOCTYPE svg PUBLIC "-//W3C//DTD SVG 1.1//EN"
 "http://www.w3.org/Graphics/SVG/1.1/DTD/svg11.dtd">
<!-- Generated by graphviz version 2.43.0 (0)
 -->
<!-- Title: /home/fnky/C0de/component_engine/include/Actors/Projectile_Acotr.h Pages: 1 -->
<!--zoomable 341 -->
<svg id="main" version="1.1" xmlns="http://www.w3.org/2000/svg" xmlns:xlink="http://www.w3.org/1999/xlink" xml:space="preserve" onload="init(evt)">
<style type="text/css"><![CDATA[
.edge:hover path { stroke: red; }
.edge:hover polygon { stroke: red; fill: red; }
]]></style>
<script type="text/javascript"><![CDATA[
var edges = document.getElementsByTagName('g');
if (edges && edges.length) {
  for (var i=0;i<edges.length;i++) {
    if (edges[i].id.substr(0,4)=='edge') {
      edges[i].setAttribute('class','edge');
    }
  }
}
]]></script>
        <defs>
                <circle id="rim" cx="0" cy="0" r="7"/>
                <circle id="rim2" cx="0" cy="0" r="3.5"/>
                <g id="zoomPlus">
                        <use xlink:href="#rim" fill="#404040">
                                <set attributeName="fill" to="#808080" begin="zoomplus.mouseover" end="zoomplus.mouseout"/>
                        </use>
                        <path d="M-4,0h8M0,-4v8" fill="none" stroke="white" stroke-width="1.5" pointer-events="none"/>
                </g>
                <g id="zoomMin">
                        <use xlink:href="#rim" fill="#404040">
                                <set attributeName="fill" to="#808080" begin="zoomminus.mouseover" end="zoomminus.mouseout"/>
                        </use>
                        <path d="M-4,0h8" fill="none" stroke="white" stroke-width="1.5" pointer-events="none"/>
                </g>
                <g id="dirArrow">
                        <path fill="none" stroke="white" stroke-width="1.5" d="M0,-3.0v7 M-2.5,-0.5L0,-3.0L2.5,-0.5"/>
                </g>
               <g id="resetDef">
                       <use xlink:href="#rim2" fill="#404040">
                               <set attributeName="fill" to="#808080" begin="reset.mouseover" end="reset.mouseout"/>
                       </use>
               </g>
        </defs>

<script type="text/javascript">
var viewWidth = 1186;
var viewHeight = 341;
var sectionId = 'dynsection-0';
</script>
<script xlink:href="svgpan.js"/>
<svg id="graph" class="graph">
<g id="viewport">
<title>/home/fnky/C0de/component_engine/include/Actors/Projectile_Acotr.h</title>
<!-- Node1 -->
<g id="node1" class="node">
<title>Node1</title>
<g id="a_node1"><a xlink:title=" ">
<polygon fill="#bfbfbf" stroke="black" points="886.11,-291.5 886.11,-332.5 1043.11,-332.5 1043.11,-291.5 886.11,-291.5"/>
<text text-anchor="start" x="894.11" y="-320.5" font-family="Helvetica,sans-Serif" font-size="10.00">/home/fnky/C0de/component</text>
<text text-anchor="start" x="894.11" y="-309.5" font-family="Helvetica,sans-Serif" font-size="10.00">_engine/include/Actors</text>
<text text-anchor="middle" x="964.61" y="-298.5" font-family="Helvetica,sans-Serif" font-size="10.00">/Projectile_Acotr.h</text>
</a>
</g>
</g>
<!-- Node2 -->
<g id="node2" class="node">
<title>Node2</title>
<g id="a_node2"><a xlink:href="Components_2Component_8h.html" target="_top" xlink:title=" ">
<polygon fill="none" stroke="black" points="888.11,-118 888.11,-137 1043.11,-137 1043.11,-118 888.11,-118"/>
<text text-anchor="middle" x="965.61" y="-125" font-family="Helvetica,sans-Serif" font-size="10.00">../Components/Component.h</text>
</a>
</g>
</g>
<!-- Node1&#45;&gt;Node2 -->
<g id="edge1" class="edge">
<title>Node1&#45;&gt;Node2</title>
<path fill="none" stroke="midnightblue" d="M1040.78,-291.44C1110.62,-269.74 1197.58,-230.84 1157.61,-179 1143.02,-160.08 1087.92,-146.84 1040.47,-138.68"/>
<polygon fill="midnightblue" stroke="midnightblue" points="1040.92,-135.21 1030.48,-137.01 1039.77,-142.11 1040.92,-135.21"/>
</g>
<!-- Node3 -->
<g id="node3" class="node">
<title>Node3</title>
<g id="a_node3"><a xlink:title=" ">
<polygon fill="none" stroke="#bfbfbf" points="936.61,-56.5 936.61,-75.5 994.61,-75.5 994.61,-56.5 936.61,-56.5"/>
<text text-anchor="middle" x="965.61" y="-63.5" font-family="Helvetica,sans-Serif" font-size="10.00">memory</text>
</a>
</g>
</g>
<!-- Node1&#45;&gt;Node3 -->
<g id="edge39" class="edge">
<title>Node1&#45;&gt;Node3</title>
<path fill="none" stroke="midnightblue" d="M1043.33,-304.27C1081.36,-297.29 1125.23,-283.22 1155.61,-255 1175.08,-236.91 1171.87,-225.15 1176.61,-199 1191.17,-118.69 1069.37,-85.03 1004.51,-72.9"/>
<polygon fill="midnightblue" stroke="midnightblue" points="1005.07,-69.45 994.62,-71.13 1003.84,-76.34 1005.07,-69.45"/>
</g>
<!-- Node4 -->
<g id="node4" class="node">
<title>Node4</title>
<g id="a_node4"><a xlink:href="Actor_8h.html" target="_top" xlink:title=" ">
<polygon fill="none" stroke="black" points="781.61,-179.5 781.61,-198.5 831.61,-198.5 831.61,-179.5 781.61,-179.5"/>
<text text-anchor="middle" x="806.61" y="-186.5" font-family="Helvetica,sans-Serif" font-size="10.00">Actor.h</text>
</a>
</g>
</g>
<!-- Node1&#45;&gt;Node4 -->
<g id="edge3" class="edge">
<title>Node1&#45;&gt;Node4</title>
<path fill="none" stroke="midnightblue" d="M901.39,-291.42C880.59,-282.72 858.49,-270.79 841.61,-255 827.89,-242.16 818.4,-222.71 812.8,-208.43"/>
<polygon fill="midnightblue" stroke="midnightblue" points="815.98,-206.91 809.27,-198.71 809.4,-209.3 815.98,-206.91"/>
</g>
<!-- Node7 -->
<g id="node7" class="node">
<title>Node7</title>
<g id="a_node7"><a xlink:href="NPC__Actor_8h.html" target="_top" xlink:title=" ">
<polygon fill="none" stroke="black" points="567.61,-235.5 567.61,-254.5 643.61,-254.5 643.61,-235.5 567.61,-235.5"/>
<text text-anchor="middle" x="605.61" y="-242.5" font-family="Helvetica,sans-Serif" font-size="10.00">NPC_Actor.h</text>
</a>
</g>
</g>
<!-- Node1&#45;&gt;Node7 -->
<g id="edge7" class="edge">
<title>Node1&#45;&gt;Node7</title>
<path fill="none" stroke="midnightblue" d="M885.83,-296.74C815,-283.91 713.24,-265.49 653.83,-254.73"/>
<polygon fill="midnightblue" stroke="midnightblue" points="654.42,-251.28 643.96,-252.94 653.17,-258.17 654.42,-251.28"/>
</g>
<!-- Node8 -->
<g id="node8" class="node">
<title>Node8</title>
<g id="a_node8"><a xlink:title=" ">
<polygon fill="none" stroke="#bfbfbf" points="926.11,-179.5 926.11,-198.5 1003.11,-198.5 1003.11,-179.5 926.11,-179.5"/>
<text text-anchor="middle" x="964.61" y="-186.5" font-family="Helvetica,sans-Serif" font-size="10.00">glm/fwd.hpp</text>
</a>
</g>
</g>
<!-- Node1&#45;&gt;Node8 -->
<g id="edge38" class="edge">
<title>Node1&#45;&gt;Node8</title>
<path fill="none" stroke="midnightblue" d="M964.61,-291.29C964.61,-268.48 964.61,-231.19 964.61,-208.78"/>
<polygon fill="midnightblue" stroke="midnightblue" points="968.11,-208.57 964.61,-198.57 961.11,-208.57 968.11,-208.57"/>
</g>
<!-- Node18 -->
<g id="node18" class="node">
<title>Node18</title>
<g id="a_node18"><a xlink:href="Player__Actor_8h.html" target="_top" xlink:title=" ">
<polygon fill="none" stroke="black" points="850.61,-235.5 850.61,-254.5 936.61,-254.5 936.61,-235.5 850.61,-235.5"/>
<text text-anchor="middle" x="893.61" y="-242.5" font-family="Helvetica,sans-Serif" font-size="10.00">Player_Actor.h</text>
</a>
</g>
</g>
<!-- Node1&#45;&gt;Node18 -->
<g id="edge27" class="edge">
<title>Node1&#45;&gt;Node18</title>
<path fill="none" stroke="midnightblue" d="M943.31,-291.5C932.84,-281.92 920.4,-270.53 910.59,-261.54"/>
<polygon fill="midnightblue" stroke="midnightblue" points="912.8,-258.82 903.06,-254.65 908.07,-263.99 912.8,-258.82"/>
</g>
<!-- Node19 -->
<g id="node19" class="node">
<title>Node19</title>
<g id="a_node19"><a xlink:href="Gun__Actor_8h.html" target="_top" xlink:title=" ">
<polygon fill="none" stroke="black" points="994.11,-235.5 994.11,-254.5 1069.11,-254.5 1069.11,-235.5 994.11,-235.5"/>
<text text-anchor="middle" x="1031.61" y="-242.5" font-family="Helvetica,sans-Serif" font-size="10.00">Gun_Actor.h</text>
</a>
</g>
</g>
<!-- Node1&#45;&gt;Node19 -->
<g id="edge32" class="edge">
<title>Node1&#45;&gt;Node19</title>
<path fill="none" stroke="midnightblue" d="M984.71,-291.5C994.49,-282.01 1006.09,-270.76 1015.31,-261.81"/>
<polygon fill="midnightblue" stroke="midnightblue" points="1017.95,-264.13 1022.69,-254.65 1013.08,-259.1 1017.95,-264.13"/>
</g>
<!-- Node2&#45;&gt;Node3 -->
<g id="edge2" class="edge">
<title>Node2&#45;&gt;Node3</title>
<path fill="none" stroke="midnightblue" d="M965.61,-117.98C965.61,-109.58 965.61,-96.48 965.61,-85.66"/>
<polygon fill="midnightblue" stroke="midnightblue" points="969.11,-85.51 965.61,-75.51 962.11,-85.51 969.11,-85.51"/>
</g>
<!-- Node4&#45;&gt;Node2 -->
<g id="edge6" class="edge">
<title>Node4&#45;&gt;Node2</title>
<path fill="none" stroke="midnightblue" d="M829.39,-179.48C856.67,-169.27 902.52,-152.11 933.41,-140.55"/>
<polygon fill="midnightblue" stroke="midnightblue" points="934.73,-143.79 942.87,-137.01 932.28,-137.24 934.73,-143.79"/>
</g>
<!-- Node5 -->
<g id="node5" class="node">
<title>Node5</title>
<g id="a_node5"><a xlink:title=" ">
<polygon fill="none" stroke="#bfbfbf" points="744.11,-118 744.11,-137 791.11,-137 791.11,-118 744.11,-118"/>
<text text-anchor="middle" x="767.61" y="-125" font-family="Helvetica,sans-Serif" font-size="10.00">vector</text>
</a>
</g>
</g>
<!-- Node4&#45;&gt;Node5 -->
<g id="edge4" class="edge">
<title>Node4&#45;&gt;Node5</title>
<path fill="none" stroke="midnightblue" d="M801.02,-179.48C795.23,-170.64 786.02,-156.59 778.74,-145.48"/>
<polygon fill="midnightblue" stroke="midnightblue" points="781.6,-143.45 773.19,-137.01 775.74,-147.29 781.6,-143.45"/>
</g>
<!-- Node6 -->
<g id="node6" class="node">
<title>Node6</title>
<g id="a_node6"><a xlink:title=" ">
<polygon fill="none" stroke="#bfbfbf" points="602.61,-0.5 602.61,-19.5 662.61,-19.5 662.61,-0.5 602.61,-0.5"/>
<text text-anchor="middle" x="632.61" y="-7.5" font-family="Helvetica,sans-Serif" font-size="10.00">iostream</text>
</a>
</g>
</g>
<!-- Node4&#45;&gt;Node6 -->
<g id="edge5" class="edge">
<title>Node4&#45;&gt;Node6</title>
<path fill="none" stroke="midnightblue" d="M808.19,-179.23C810.41,-164.2 812.83,-133.11 799.61,-112 770.36,-65.27 710.82,-37.14 671.32,-22.85"/>
<polygon fill="midnightblue" stroke="midnightblue" points="672.34,-19.49 661.74,-19.51 670.03,-26.1 672.34,-19.49"/>
</g>
<!-- Node7&#45;&gt;Node2 -->
<g id="edge8" class="edge">
<title>Node7&#45;&gt;Node2</title>
<path fill="none" stroke="midnightblue" d="M631.51,-235.34C656.77,-226.72 696.17,-212.82 729.61,-199 749.09,-190.95 752.78,-186.14 772.61,-179 819.67,-162.05 875.06,-148.15 914.4,-139.26"/>
<polygon fill="midnightblue" stroke="midnightblue" points="915.3,-142.64 924.3,-137.05 913.78,-135.81 915.3,-142.64"/>
</g>
<!-- Node7&#45;&gt;Node3 -->
<g id="edge12" class="edge">
<title>Node7&#45;&gt;Node3</title>
<path fill="none" stroke="midnightblue" d="M635.09,-235.35C654.69,-228.3 679.82,-216.6 696.61,-199 725.73,-168.47 701.69,-138.39 734.61,-112 763.65,-88.73 868.32,-75.79 926.29,-70.26"/>
<polygon fill="midnightblue" stroke="midnightblue" points="926.91,-73.72 936.54,-69.32 926.26,-66.75 926.91,-73.72"/>
</g>
<!-- Node7&#45;&gt;Node4 -->
<g id="edge9" class="edge">
<title>Node7&#45;&gt;Node4</title>
<path fill="none" stroke="midnightblue" d="M637.46,-235.44C673.99,-225.63 733.69,-209.59 771.52,-199.43"/>
<polygon fill="midnightblue" stroke="midnightblue" points="772.83,-202.7 781.58,-196.73 771.01,-195.94 772.83,-202.7"/>
</g>
<!-- Node7&#45;&gt;Node8 -->
<g id="edge10" class="edge">
<title>Node7&#45;&gt;Node8</title>
<path fill="none" stroke="midnightblue" d="M643.69,-238.27C709.31,-228.4 843.58,-208.2 915.9,-197.33"/>
<polygon fill="midnightblue" stroke="midnightblue" points="916.74,-200.74 926.11,-195.79 915.7,-193.82 916.74,-200.74"/>
</g>
<!-- Node9 -->
<g id="node9" class="node">
<title>Node9</title>
<g id="a_node9"><a xlink:title=" ">
<polygon fill="none" stroke="#bfbfbf" points="519.61,-179.5 519.61,-198.5 597.61,-198.5 597.61,-179.5 519.61,-179.5"/>
<text text-anchor="middle" x="558.61" y="-186.5" font-family="Helvetica,sans-Serif" font-size="10.00">glm/glm.hpp</text>
</a>
</g>
</g>
<!-- Node7&#45;&gt;Node9 -->
<g id="edge11" class="edge">
<title>Node7&#45;&gt;Node9</title>
<path fill="none" stroke="midnightblue" d="M597.85,-235.08C591.07,-227.3 581.07,-215.8 572.86,-206.37"/>
<polygon fill="midnightblue" stroke="midnightblue" points="575.43,-204 566.23,-198.75 570.15,-208.59 575.43,-204"/>
</g>
<!-- Node10 -->
<g id="node10" class="node">
<title>Node10</title>
<g id="a_node10"><a xlink:title=" ">
<polygon fill="none" stroke="#bfbfbf" points="615.61,-179.5 615.61,-198.5 687.61,-198.5 687.61,-179.5 615.61,-179.5"/>
<text text-anchor="middle" x="651.61" y="-186.5" font-family="Helvetica,sans-Serif" font-size="10.00">sys/types.h</text>
</a>
</g>
</g>
<!-- Node7&#45;&gt;Node10 -->
<g id="edge13" class="edge">
<title>Node7&#45;&gt;Node10</title>
<path fill="none" stroke="midnightblue" d="M613.21,-235.08C619.84,-227.3 629.63,-215.8 637.67,-206.37"/>
<polygon fill="midnightblue" stroke="midnightblue" points="640.34,-208.63 644.16,-198.75 635.01,-204.09 640.34,-208.63"/>
</g>
<!-- Node11 -->
<g id="node11" class="node">
<title>Node11</title>
<g id="a_node11"><a xlink:href="BState_8h.html" target="_top" xlink:title=" ">
<polygon fill="none" stroke="black" points="16.11,-118 16.11,-137 159.11,-137 159.11,-118 16.11,-118"/>
<text text-anchor="middle" x="87.61" y="-125" font-family="Helvetica,sans-Serif" font-size="10.00">../BStateMachine/BState.h</text>
</a>
</g>
</g>
<!-- Node7&#45;&gt;Node11 -->
<g id="edge14" class="edge">
<title>Node7&#45;&gt;Node11</title>
<path fill="none" stroke="midnightblue" d="M567.44,-242.54C502.11,-239.29 365.11,-229.19 253.61,-199 201.57,-184.91 144.44,-157.88 112.6,-141.69"/>
<polygon fill="midnightblue" stroke="midnightblue" points="114.06,-138.51 103.57,-137.04 110.86,-144.73 114.06,-138.51"/>
</g>
<!-- Node13 -->
<g id="node13" class="node">
<title>Node13</title>
<g id="a_node13"><a xlink:href="BStateMachine_8h.html" target="_top" xlink:title=" ">
<polygon fill="none" stroke="black" points="279.11,-179.5 279.11,-198.5 464.11,-198.5 464.11,-179.5 279.11,-179.5"/>
<text text-anchor="middle" x="371.61" y="-186.5" font-family="Helvetica,sans-Serif" font-size="10.00">../BStateMachine/BStateMachine.h</text>
</a>
</g>
</g>
<!-- Node7&#45;&gt;Node13 -->
<g id="edge16" class="edge">
<title>Node7&#45;&gt;Node13</title>
<path fill="none" stroke="midnightblue" d="M568.53,-235.44C527.88,-226.06 462.58,-210.99 418.43,-200.8"/>
<polygon fill="midnightblue" stroke="midnightblue" points="419.05,-197.35 408.51,-198.52 417.47,-204.18 419.05,-197.35"/>
</g>
<!-- Node15 -->
<g id="node15" class="node">
<title>Node15</title>
<g id="a_node15"><a xlink:href="Condition_8h.html" target="_top" xlink:title=" ">
<polygon fill="none" stroke="black" points="409.61,-56.5 409.61,-75.5 481.61,-75.5 481.61,-56.5 409.61,-56.5"/>
<text text-anchor="middle" x="445.61" y="-63.5" font-family="Helvetica,sans-Serif" font-size="10.00">Condition.h</text>
</a>
</g>
</g>
<!-- Node7&#45;&gt;Node15 -->
<g id="edge23" class="edge">
<title>Node7&#45;&gt;Node15</title>
<path fill="none" stroke="midnightblue" d="M567.55,-244.04C446.42,-243.26 73.91,-233.41 6.61,-143 -1.62,-131.95 -2.62,-122.23 6.61,-112 32.57,-83.24 291.55,-71.84 399.13,-68.31"/>
<polygon fill="midnightblue" stroke="midnightblue" points="399.48,-71.81 409.36,-67.99 399.26,-64.81 399.48,-71.81"/>
</g>
<!-- Node16 -->
<g id="node16" class="node">
<title>Node16</title>
<g id="a_node16"><a xlink:href="ConditionInRange_8h.html" target="_top" xlink:title=" ">
<polygon fill="none" stroke="black" points="473.61,-118 473.61,-137 585.61,-137 585.61,-118 473.61,-118"/>
<text text-anchor="middle" x="529.61" y="-125" font-family="Helvetica,sans-Serif" font-size="10.00">ConditionInRange.h</text>
</a>
</g>
</g>
<!-- Node7&#45;&gt;Node16 -->
<g id="edge24" class="edge">
<title>Node7&#45;&gt;Node16</title>
<path fill="none" stroke="midnightblue" d="M567.48,-236.3C546.85,-229.99 523.1,-218.74 510.61,-199 500.38,-182.83 508.82,-161.22 517.47,-146.21"/>
<polygon fill="midnightblue" stroke="midnightblue" points="520.63,-147.75 522.99,-137.42 514.7,-144.02 520.63,-147.75"/>
</g>
<!-- Node17 -->
<g id="node17" class="node">
<title>Node17</title>
<g id="a_node17"><a xlink:href="ConditionOutOfRange_8h.html" target="_top" xlink:title=" ">
<polygon fill="none" stroke="black" points="177.11,-112.5 177.11,-142.5 326.11,-142.5 326.11,-112.5 177.11,-112.5"/>
<text text-anchor="start" x="185.11" y="-130.5" font-family="Helvetica,sans-Serif" font-size="10.00">../BStateMachine/Condition</text>
<text text-anchor="middle" x="251.61" y="-119.5" font-family="Helvetica,sans-Serif" font-size="10.00">OutOfRange.h</text>
</a>
</g>
</g>
<!-- Node7&#45;&gt;Node17 -->
<g id="edge25" class="edge">
<title>Node7&#45;&gt;Node17</title>
<path fill="none" stroke="midnightblue" d="M567.5,-244.07C488.99,-243.42 312.98,-237.58 269.61,-199 256.85,-187.65 252.55,-168.63 251.33,-153.2"/>
<polygon fill="midnightblue" stroke="midnightblue" points="254.81,-152.62 250.91,-142.76 247.81,-152.9 254.81,-152.62"/>
</g>
<!-- Node12 -->
<g id="node12" class="node">
<title>Node12</title>
<g id="a_node12"><a xlink:title=" ">
<polygon fill="none" stroke="#bfbfbf" points="71.61,-56.5 71.61,-75.5 103.61,-75.5 103.61,-56.5 71.61,-56.5"/>
<text text-anchor="middle" x="87.61" y="-63.5" font-family="Helvetica,sans-Serif" font-size="10.00">list</text>
</a>
</g>
</g>
<!-- Node11&#45;&gt;Node12 -->
<g id="edge15" class="edge">
<title>Node11&#45;&gt;Node12</title>
<path fill="none" stroke="midnightblue" d="M87.61,-117.98C87.61,-109.58 87.61,-96.48 87.61,-85.66"/>
<polygon fill="midnightblue" stroke="midnightblue" points="91.11,-85.51 87.61,-75.51 84.11,-85.51 91.11,-85.51"/>
</g>
<!-- Node13&#45;&gt;Node11 -->
<g id="edge17" class="edge">
<title>Node13&#45;&gt;Node11</title>
<path fill="none" stroke="midnightblue" d="M330.92,-179.48C280.09,-168.83 193.14,-150.61 138.11,-139.08"/>
<polygon fill="midnightblue" stroke="midnightblue" points="138.73,-135.63 128.22,-137.01 137.29,-142.49 138.73,-135.63"/>
</g>
<!-- Node14 -->
<g id="node14" class="node">
<title>Node14</title>
<g id="a_node14"><a xlink:href="Transition_8h.html" target="_top" xlink:title=" ">
<polygon fill="none" stroke="black" points="344.11,-118 344.11,-137 417.11,-137 417.11,-118 344.11,-118"/>
<text text-anchor="middle" x="380.61" y="-125" font-family="Helvetica,sans-Serif" font-size="10.00">Transition.h</text>
</a>
</g>
</g>
<!-- Node13&#45;&gt;Node14 -->
<g id="edge18" class="edge">
<title>Node13&#45;&gt;Node14</title>
<path fill="none" stroke="midnightblue" d="M372.9,-179.48C374.17,-171.08 376.15,-157.98 377.79,-147.16"/>
<polygon fill="midnightblue" stroke="midnightblue" points="381.29,-147.42 379.32,-137.01 374.37,-146.37 381.29,-147.42"/>
</g>
<!-- Node13&#45;&gt;Node15 -->
<g id="edge19" class="edge">
<title>Node13&#45;&gt;Node15</title>
<path fill="none" stroke="midnightblue" d="M386.66,-179.19C398.93,-171.24 415.78,-158.44 425.61,-143 436.69,-125.59 441.66,-102.21 443.87,-86.01"/>
<polygon fill="midnightblue" stroke="midnightblue" points="447.39,-85.99 445.04,-75.66 440.44,-85.2 447.39,-85.99"/>
</g>
<!-- Node13&#45;&gt;Node16 -->
<g id="edge21" class="edge">
<title>Node13&#45;&gt;Node16</title>
<path fill="none" stroke="midnightblue" d="M394.25,-179.48C421.35,-169.27 466.92,-152.11 497.61,-140.55"/>
<polygon fill="midnightblue" stroke="midnightblue" points="498.89,-143.81 507.01,-137.01 496.42,-137.26 498.89,-143.81"/>
</g>
<!-- Node15&#45;&gt;Node6 -->
<g id="edge20" class="edge">
<title>Node15&#45;&gt;Node6</title>
<path fill="none" stroke="midnightblue" d="M475.24,-56.44C507.11,-47.24 557.94,-32.56 593.17,-22.39"/>
<polygon fill="midnightblue" stroke="midnightblue" points="594.48,-25.65 603.12,-19.52 592.54,-18.93 594.48,-25.65"/>
</g>
<!-- Node16&#45;&gt;Node15 -->
<g id="edge22" class="edge">
<title>Node16&#45;&gt;Node15</title>
<path fill="none" stroke="midnightblue" d="M517.57,-117.98C504.1,-108.43 482.04,-92.81 465.89,-81.37"/>
<polygon fill="midnightblue" stroke="midnightblue" points="467.81,-78.43 457.62,-75.51 463.76,-84.15 467.81,-78.43"/>
</g>
<!-- Node17&#45;&gt;Node15 -->
<g id="edge26" class="edge">
<title>Node17&#45;&gt;Node15</title>
<path fill="none" stroke="midnightblue" d="M297.59,-112.4C331.25,-102.07 376.39,-88.23 407.93,-78.56"/>
<polygon fill="midnightblue" stroke="midnightblue" points="409.13,-81.85 417.66,-75.57 407.08,-75.16 409.13,-81.85"/>
</g>
<!-- Node18&#45;&gt;Node2 -->
<g id="edge28" class="edge">
<title>Node18&#45;&gt;Node2</title>
<path fill="none" stroke="midnightblue" d="M895.39,-235.49C898.35,-222.56 905.13,-197.51 916.61,-179 924.84,-165.73 937.07,-153.12 947.25,-143.82"/>
<polygon fill="midnightblue" stroke="midnightblue" points="949.67,-146.36 954.86,-137.12 945.04,-141.1 949.67,-146.36"/>
</g>
<!-- Node18&#45;&gt;Node3 -->
<g id="edge31" class="edge">
<title>Node18&#45;&gt;Node3</title>
<path fill="none" stroke="midnightblue" d="M889.13,-235.18C878.43,-212.74 854.03,-152.39 878.61,-112 889.13,-94.72 908.66,-83.78 926.55,-77.02"/>
<polygon fill="midnightblue" stroke="midnightblue" points="927.94,-80.25 936.26,-73.68 925.67,-73.63 927.94,-80.25"/>
</g>
<!-- Node18&#45;&gt;Node4 -->
<g id="edge29" class="edge">
<title>Node18&#45;&gt;Node4</title>
<path fill="none" stroke="midnightblue" d="M879.63,-235.32C866.06,-226.9 845.23,-213.97 829.29,-204.07"/>
<polygon fill="midnightblue" stroke="midnightblue" points="830.9,-200.95 820.55,-198.65 827.2,-206.9 830.9,-200.95"/>
</g>
<!-- Node18&#45;&gt;Node8 -->
<g id="edge30" class="edge">
<title>Node18&#45;&gt;Node8</title>
<path fill="none" stroke="midnightblue" d="M905.02,-235.32C915.72,-227.18 931.95,-214.84 944.77,-205.09"/>
<polygon fill="midnightblue" stroke="midnightblue" points="947.15,-207.67 953,-198.83 942.92,-202.1 947.15,-207.67"/>
</g>
<!-- Node19&#45;&gt;Node2 -->
<g id="edge33" class="edge">
<title>Node19&#45;&gt;Node2</title>
<path fill="none" stroke="midnightblue" d="M1030.15,-235.1C1027.75,-222.09 1022.15,-197.46 1011.61,-179 1004.17,-165.96 992.84,-153.47 983.29,-144.18"/>
<polygon fill="midnightblue" stroke="midnightblue" points="985.5,-141.45 975.81,-137.18 980.72,-146.57 985.5,-141.45"/>
</g>
<!-- Node19&#45;&gt;Node3 -->
<g id="edge36" class="edge">
<title>Node19&#45;&gt;Node3</title>
<path fill="none" stroke="midnightblue" d="M1069.24,-239.69C1113.39,-232.87 1178.16,-216.3 1157.61,-179 1125.78,-121.22 1050.84,-90.66 1004.56,-76.74"/>
<polygon fill="midnightblue" stroke="midnightblue" points="1005.44,-73.35 994.86,-73.94 1003.5,-80.07 1005.44,-73.35"/>
</g>
<!-- Node19&#45;&gt;Node4 -->
<g id="edge34" class="edge">
<title>Node19&#45;&gt;Node4</title>
<path fill="none" stroke="midnightblue" d="M995.96,-235.44C953.6,-225.28 883.41,-208.43 841.42,-198.36"/>
<polygon fill="midnightblue" stroke="midnightblue" points="842.19,-194.94 831.65,-196.01 840.55,-201.75 842.19,-194.94"/>
</g>
<!-- Node19&#45;&gt;Node8 -->
<g id="edge35" class="edge">
<title>Node19&#45;&gt;Node8</title>
<path fill="none" stroke="midnightblue" d="M1020.85,-235.32C1010.84,-227.26 995.72,-215.08 983.68,-205.37"/>
<polygon fill="midnightblue" stroke="midnightblue" points="985.55,-202.38 975.57,-198.83 981.16,-207.83 985.55,-202.38"/>
</g>
<!-- Node20 -->
<g id="node20" class="node">
<title>Node20</title>
<g id="a_node20"><a xlink:title=" ">
<polygon fill="none" stroke="#bfbfbf" points="1060.11,-179.5 1060.11,-198.5 1149.11,-198.5 1149.11,-179.5 1060.11,-179.5"/>
<text text-anchor="middle" x="1104.61" y="-186.5" font-family="Helvetica,sans-Serif" font-size="10.00">box2d/box2d.h</text>
</a>
</g>
</g>
<!-- Node19&#45;&gt;Node20 -->
<g id="edge37" class="edge">
<title>Node19&#45;&gt;Node20</title>
<path fill="none" stroke="midnightblue" d="M1043.34,-235.32C1054.45,-227.11 1071.35,-214.6 1084.59,-204.81"/>
<polygon fill="midnightblue" stroke="midnightblue" points="1086.71,-207.59 1092.67,-198.83 1082.55,-201.97 1086.71,-207.59"/>
</g>
</g>
</svg>
        <g id="navigator" transform="translate(0 0)" fill="#404254">
                <rect fill="#f2f5e9" fill-opacity="0.5" stroke="#606060" stroke-width=".5" x="0" y="0" width="60" height="60"/>
                <use id="zoomplus" xlink:href="#zoomPlus" x="17" y="9" onmousedown="handleZoom(evt,'in')"/>
                <use id="zoomminus" xlink:href="#zoomMin" x="42" y="9" onmousedown="handleZoom(evt,'out')"/>
                <use id="reset" xlink:href="#resetDef" x="30" y="36" onmousedown="handleReset()"/>
                <g id="arrowUp" xlink:href="#dirArrow" transform="translate(30 24)" onmousedown="handlePan(0,-1)">
                  <use xlink:href="#rim" fill="#404040">
                        <set attributeName="fill" to="#808080" begin="arrowUp.mouseover" end="arrowUp.mouseout"/>
                  </use>
                  <path fill="none" stroke="white" stroke-width="1.5" d="M0,-3.0v7 M-2.5,-0.5L0,-3.0L2.5,-0.5"/>
                </g>
                <g id="arrowRight" xlink:href="#dirArrow" transform="rotate(90) translate(36 -43)" onmousedown="handlePan(1,0)">
                  <use xlink:href="#rim" fill="#404040">
                        <set attributeName="fill" to="#808080" begin="arrowRight.mouseover" end="arrowRight.mouseout"/>
                  </use>
                  <path fill="none" stroke="white" stroke-width="1.5" d="M0,-3.0v7 M-2.5,-0.5L0,-3.0L2.5,-0.5"/>
                </g>
                <g id="arrowDown" xlink:href="#dirArrow" transform="rotate(180) translate(-30 -48)" onmousedown="handlePan(0,1)">
                  <use xlink:href="#rim" fill="#404040">
                        <set attributeName="fill" to="#808080" begin="arrowDown.mouseover" end="arrowDown.mouseout"/>
                  </use>
                  <path fill="none" stroke="white" stroke-width="1.5" d="M0,-3.0v7 M-2.5,-0.5L0,-3.0L2.5,-0.5"/>
                </g>
                <g id="arrowLeft" xlink:href="#dirArrow" transform="rotate(270) translate(-36 17)" onmousedown="handlePan(-1,0)">
                  <use xlink:href="#rim" fill="#404040">
                        <set attributeName="fill" to="#808080" begin="arrowLeft.mouseover" end="arrowLeft.mouseout"/>
                  </use>
                  <path fill="none" stroke="white" stroke-width="1.5" d="M0,-3.0v7 M-2.5,-0.5L0,-3.0L2.5,-0.5"/>
                </g>
        </g>
        <svg viewBox="0 0 15 15" width="100%" height="30px" preserveAspectRatio="xMaxYMin meet">
         <g id="arrow_out" transform="scale(0.3 0.3)">
          <a xlink:href="Projectile__Acotr_8h__incl_org.svg" target="_base">
           <rect id="button" ry="5" rx="5" y="6" x="6" height="38" width="38"
                fill="#f2f5e9" fill-opacity="0.5" stroke="#606060" stroke-width="1.0"/>
           <path id="arrow"
             d="M 11.500037,31.436501 C 11.940474,20.09759 22.043105,11.32322 32.158766,21.979434 L 37.068811,17.246167 C 37.068811,17.246167 37.088388,32 37.088388,32 L 22.160133,31.978069 C 22.160133,31.978069 26.997745,27.140456 26.997745,27.140456 C 18.528582,18.264221 13.291696,25.230495 11.500037,31.436501 z"
             style="fill:#404040;"/>
          </a>
         </g>
        </svg>
</svg>
