<?xml version="1.0" encoding="UTF-8" standalone="no"?>
<!DOCTYPE svg PUBLIC "-//W3C//DTD SVG 1.1//EN"
 "http://www.w3.org/Graphics/SVG/1.1/DTD/svg11.dtd">
<!-- Generated by graphviz version 2.43.0 (0)
 -->
<!-- Title: /home/fnky/C0de/component_engine/include/Components/ShaderComponent.h Pages: 1 -->
<svg width="2615pt" height="128pt"
 viewBox="0.00 0.00 2615.00 128.00" xmlns="http://www.w3.org/2000/svg" xmlns:xlink="http://www.w3.org/1999/xlink">
<g id="graph0" class="graph" transform="scale(1 1) rotate(0) translate(4 124)">
<title>/home/fnky/C0de/component_engine/include/Components/ShaderComponent.h</title>
<!-- Node1 -->
<g id="node1" class="node">
<title>Node1</title>
<g id="a_node1"><a xlink:title=" ">
<polygon fill="#bfbfbf" stroke="black" points="1224.5,-78.5 1224.5,-119.5 1382.5,-119.5 1382.5,-78.5 1224.5,-78.5"/>
<text text-anchor="start" x="1232.5" y="-107.5" font-family="Helvetica,sans-Serif" font-size="10.00">/home/fnky/C0de/component</text>
<text text-anchor="start" x="1232.5" y="-96.5" font-family="Helvetica,sans-Serif" font-size="10.00">_engine/include/Components</text>
<text text-anchor="middle" x="1303.5" y="-85.5" font-family="Helvetica,sans-Serif" font-size="10.00">/ShaderComponent.h</text>
</a>
</g>
</g>
<!-- Node2 -->
<g id="node2" class="node">
<title>Node2</title>
<g id="a_node2"><a xlink:href="Animate__Actor_8cpp.html" target="_top" xlink:title=" ">
<polygon fill="none" stroke="black" points="0,-0.5 0,-41.5 157,-41.5 157,-0.5 0,-0.5"/>
<text text-anchor="start" x="8" y="-29.5" font-family="Helvetica,sans-Serif" font-size="10.00">/home/fnky/C0de/component</text>
<text text-anchor="start" x="8" y="-18.5" font-family="Helvetica,sans-Serif" font-size="10.00">_engine/src/Actors/Animate</text>
<text text-anchor="middle" x="78.5" y="-7.5" font-family="Helvetica,sans-Serif" font-size="10.00">_Actor.cpp</text>
</a>
</g>
</g>
<!-- Node1&#45;&gt;Node2 -->
<g id="edge1" class="edge">
<title>Node1&#45;&gt;Node2</title>
<path fill="none" stroke="midnightblue" d="M1214.36,-95.65C983.05,-89.23 367.62,-69.98 165.5,-42 162.74,-41.62 159.93,-41.19 157.1,-40.73"/>
<polygon fill="midnightblue" stroke="midnightblue" points="1214.32,-99.15 1224.42,-95.93 1214.52,-92.15 1214.32,-99.15"/>
</g>
<!-- Node3 -->
<g id="node3" class="node">
<title>Node3</title>
<g id="a_node3"><a xlink:href="Edge__Actor_8cpp.html" target="_top" xlink:title=" ">
<polygon fill="none" stroke="black" points="175,-0.5 175,-41.5 332,-41.5 332,-0.5 175,-0.5"/>
<text text-anchor="start" x="183" y="-29.5" font-family="Helvetica,sans-Serif" font-size="10.00">/home/fnky/C0de/component</text>
<text text-anchor="start" x="183" y="-18.5" font-family="Helvetica,sans-Serif" font-size="10.00">_engine/src/Actors/Edge</text>
<text text-anchor="middle" x="253.5" y="-7.5" font-family="Helvetica,sans-Serif" font-size="10.00">_Actor.cpp</text>
</a>
</g>
</g>
<!-- Node1&#45;&gt;Node3 -->
<g id="edge2" class="edge">
<title>Node1&#45;&gt;Node3</title>
<path fill="none" stroke="midnightblue" d="M1214.22,-97.8C1043.6,-96.31 659.74,-87.65 340.5,-42 337.74,-41.61 334.94,-41.17 332.11,-40.69"/>
<polygon fill="midnightblue" stroke="midnightblue" points="1214.38,-101.3 1224.41,-97.88 1214.44,-94.3 1214.38,-101.3"/>
</g>
<!-- Node4 -->
<g id="node4" class="node">
<title>Node4</title>
<g id="a_node4"><a xlink:href="Gun__Actor_8cpp.html" target="_top" xlink:title=" ">
<polygon fill="none" stroke="black" points="350,-0.5 350,-41.5 507,-41.5 507,-0.5 350,-0.5"/>
<text text-anchor="start" x="358" y="-29.5" font-family="Helvetica,sans-Serif" font-size="10.00">/home/fnky/C0de/component</text>
<text text-anchor="start" x="358" y="-18.5" font-family="Helvetica,sans-Serif" font-size="10.00">_engine/src/Actors/Gun</text>
<text text-anchor="middle" x="428.5" y="-7.5" font-family="Helvetica,sans-Serif" font-size="10.00">_Actor.cpp</text>
</a>
</g>
</g>
<!-- Node1&#45;&gt;Node4 -->
<g id="edge3" class="edge">
<title>Node1&#45;&gt;Node4</title>
<path fill="none" stroke="midnightblue" d="M1214.2,-96.15C1067.59,-92.12 767.01,-79.61 515.5,-42 512.74,-41.59 509.94,-41.13 507.12,-40.65"/>
<polygon fill="midnightblue" stroke="midnightblue" points="1214.4,-99.66 1224.49,-96.43 1214.58,-92.66 1214.4,-99.66"/>
</g>
<!-- Node5 -->
<g id="node5" class="node">
<title>Node5</title>
<g id="a_node5"><a xlink:href="NPC__Actor_8cpp.html" target="_top" xlink:title=" ">
<polygon fill="none" stroke="black" points="525,-0.5 525,-41.5 682,-41.5 682,-0.5 525,-0.5"/>
<text text-anchor="start" x="533" y="-29.5" font-family="Helvetica,sans-Serif" font-size="10.00">/home/fnky/C0de/component</text>
<text text-anchor="start" x="533" y="-18.5" font-family="Helvetica,sans-Serif" font-size="10.00">_engine/src/Actors/NPC</text>
<text text-anchor="middle" x="603.5" y="-7.5" font-family="Helvetica,sans-Serif" font-size="10.00">_Actor.cpp</text>
</a>
</g>
</g>
<!-- Node1&#45;&gt;Node5 -->
<g id="edge4" class="edge">
<title>Node1&#45;&gt;Node5</title>
<path fill="none" stroke="midnightblue" d="M1213.99,-93.61C1094.18,-86.88 875.33,-71.55 690.5,-42 687.75,-41.56 684.95,-41.08 682.13,-40.58"/>
<polygon fill="midnightblue" stroke="midnightblue" points="1214.03,-97.12 1224.21,-94.18 1214.42,-90.13 1214.03,-97.12"/>
</g>
<!-- Node6 -->
<g id="node6" class="node">
<title>Node6</title>
<g id="a_node6"><a xlink:href="Platform__Actor_8cpp.html" target="_top" xlink:title=" ">
<polygon fill="none" stroke="black" points="700,-0.5 700,-41.5 857,-41.5 857,-0.5 700,-0.5"/>
<text text-anchor="start" x="708" y="-29.5" font-family="Helvetica,sans-Serif" font-size="10.00">/home/fnky/C0de/component</text>
<text text-anchor="start" x="708" y="-18.5" font-family="Helvetica,sans-Serif" font-size="10.00">_engine/src/Actors/Platform</text>
<text text-anchor="middle" x="778.5" y="-7.5" font-family="Helvetica,sans-Serif" font-size="10.00">_Actor.cpp</text>
</a>
</g>
</g>
<!-- Node1&#45;&gt;Node6 -->
<g id="edge5" class="edge">
<title>Node1&#45;&gt;Node6</title>
<path fill="none" stroke="midnightblue" d="M1214.38,-89.22C1125.6,-79.85 985.58,-63.43 865.5,-42 862.75,-41.51 859.96,-40.99 857.15,-40.45"/>
<polygon fill="midnightblue" stroke="midnightblue" points="1214.11,-92.71 1224.42,-90.27 1214.83,-85.74 1214.11,-92.71"/>
</g>
<!-- Node7 -->
<g id="node7" class="node">
<title>Node7</title>
<g id="a_node7"><a xlink:href="Player__Actor_8cpp.html" target="_top" xlink:title=" ">
<polygon fill="none" stroke="black" points="875,-0.5 875,-41.5 1032,-41.5 1032,-0.5 875,-0.5"/>
<text text-anchor="start" x="883" y="-29.5" font-family="Helvetica,sans-Serif" font-size="10.00">/home/fnky/C0de/component</text>
<text text-anchor="start" x="883" y="-18.5" font-family="Helvetica,sans-Serif" font-size="10.00">_engine/src/Actors/Player</text>
<text text-anchor="middle" x="953.5" y="-7.5" font-family="Helvetica,sans-Serif" font-size="10.00">_Actor.cpp</text>
</a>
</g>
</g>
<!-- Node1&#45;&gt;Node7 -->
<g id="edge6" class="edge">
<title>Node1&#45;&gt;Node7</title>
<path fill="none" stroke="midnightblue" d="M1214.31,-79.38C1163.36,-68.65 1098.29,-54.79 1040.5,-42 1037.78,-41.4 1035.01,-40.78 1032.21,-40.15"/>
<polygon fill="midnightblue" stroke="midnightblue" points="1213.8,-82.85 1224.31,-81.49 1215.24,-76 1213.8,-82.85"/>
</g>
<!-- Node8 -->
<g id="node8" class="node">
<title>Node8</title>
<g id="a_node8"><a xlink:href="Projectile__Actor_8cpp.html" target="_top" xlink:title=" ">
<polygon fill="none" stroke="black" points="1050,-0.5 1050,-41.5 1207,-41.5 1207,-0.5 1050,-0.5"/>
<text text-anchor="start" x="1058" y="-29.5" font-family="Helvetica,sans-Serif" font-size="10.00">/home/fnky/C0de/component</text>
<text text-anchor="start" x="1058" y="-18.5" font-family="Helvetica,sans-Serif" font-size="10.00">_engine/src/Actors/Projectile</text>
<text text-anchor="middle" x="1128.5" y="-7.5" font-family="Helvetica,sans-Serif" font-size="10.00">_Actor.cpp</text>
</a>
</g>
</g>
<!-- Node1&#45;&gt;Node8 -->
<g id="edge7" class="edge">
<title>Node1&#45;&gt;Node8</title>
<path fill="none" stroke="midnightblue" d="M1248.99,-74.33C1224.71,-63.78 1196.46,-51.51 1173.41,-41.51"/>
<polygon fill="midnightblue" stroke="midnightblue" points="1247.87,-77.65 1258.43,-78.43 1250.65,-71.23 1247.87,-77.65"/>
</g>
<!-- Node9 -->
<g id="node9" class="node">
<title>Node9</title>
<g id="a_node9"><a xlink:href="Shader__Actor_8cpp.html" target="_top" xlink:title=" ">
<polygon fill="none" stroke="black" points="1225,-0.5 1225,-41.5 1382,-41.5 1382,-0.5 1225,-0.5"/>
<text text-anchor="start" x="1233" y="-29.5" font-family="Helvetica,sans-Serif" font-size="10.00">/home/fnky/C0de/component</text>
<text text-anchor="start" x="1233" y="-18.5" font-family="Helvetica,sans-Serif" font-size="10.00">_engine/src/Actors/Shader</text>
<text text-anchor="middle" x="1303.5" y="-7.5" font-family="Helvetica,sans-Serif" font-size="10.00">_Actor.cpp</text>
</a>
</g>
</g>
<!-- Node1&#45;&gt;Node9 -->
<g id="edge8" class="edge">
<title>Node1&#45;&gt;Node9</title>
<path fill="none" stroke="midnightblue" d="M1303.5,-68.3C1303.5,-59.3 1303.5,-49.65 1303.5,-41.51"/>
<polygon fill="midnightblue" stroke="midnightblue" points="1300,-68.43 1303.5,-78.43 1307,-68.43 1300,-68.43"/>
</g>
<!-- Node10 -->
<g id="node10" class="node">
<title>Node10</title>
<g id="a_node10"><a xlink:href="Text__Actor_8cpp.html" target="_top" xlink:title=" ">
<polygon fill="none" stroke="black" points="1400,-0.5 1400,-41.5 1557,-41.5 1557,-0.5 1400,-0.5"/>
<text text-anchor="start" x="1408" y="-29.5" font-family="Helvetica,sans-Serif" font-size="10.00">/home/fnky/C0de/component</text>
<text text-anchor="start" x="1408" y="-18.5" font-family="Helvetica,sans-Serif" font-size="10.00">_engine/src/Actors/Text</text>
<text text-anchor="middle" x="1478.5" y="-7.5" font-family="Helvetica,sans-Serif" font-size="10.00">_Actor.cpp</text>
</a>
</g>
</g>
<!-- Node1&#45;&gt;Node10 -->
<g id="edge9" class="edge">
<title>Node1&#45;&gt;Node10</title>
<path fill="none" stroke="midnightblue" d="M1358.01,-74.33C1382.29,-63.78 1410.54,-51.51 1433.59,-41.51"/>
<polygon fill="midnightblue" stroke="midnightblue" points="1356.35,-71.23 1348.57,-78.43 1359.13,-77.65 1356.35,-71.23"/>
</g>
<!-- Node11 -->
<g id="node11" class="node">
<title>Node11</title>
<g id="a_node11"><a xlink:href="Texture__Actor_8cpp.html" target="_top" xlink:title=" ">
<polygon fill="none" stroke="black" points="1575,-0.5 1575,-41.5 1732,-41.5 1732,-0.5 1575,-0.5"/>
<text text-anchor="start" x="1583" y="-29.5" font-family="Helvetica,sans-Serif" font-size="10.00">/home/fnky/C0de/component</text>
<text text-anchor="start" x="1583" y="-18.5" font-family="Helvetica,sans-Serif" font-size="10.00">_engine/src/Actors/Texture</text>
<text text-anchor="middle" x="1653.5" y="-7.5" font-family="Helvetica,sans-Serif" font-size="10.00">_Actor.cpp</text>
</a>
</g>
</g>
<!-- Node1&#45;&gt;Node11 -->
<g id="edge10" class="edge">
<title>Node1&#45;&gt;Node11</title>
<path fill="none" stroke="midnightblue" d="M1392.69,-79.38C1443.64,-68.65 1508.71,-54.79 1566.5,-42 1569.22,-41.4 1571.99,-40.78 1574.79,-40.15"/>
<polygon fill="midnightblue" stroke="midnightblue" points="1391.76,-76 1382.69,-81.49 1393.2,-82.85 1391.76,-76"/>
</g>
<!-- Node12 -->
<g id="node12" class="node">
<title>Node12</title>
<g id="a_node12"><a xlink:href="ShaderComponent_8cpp.html" target="_top" xlink:title=" ">
<polygon fill="none" stroke="black" points="1750,-0.5 1750,-41.5 1907,-41.5 1907,-0.5 1750,-0.5"/>
<text text-anchor="start" x="1758" y="-29.5" font-family="Helvetica,sans-Serif" font-size="10.00">/home/fnky/C0de/component</text>
<text text-anchor="start" x="1758" y="-18.5" font-family="Helvetica,sans-Serif" font-size="10.00">_engine/src/Components</text>
<text text-anchor="middle" x="1828.5" y="-7.5" font-family="Helvetica,sans-Serif" font-size="10.00">/ShaderComponent.cpp</text>
</a>
</g>
</g>
<!-- Node1&#45;&gt;Node12 -->
<g id="edge11" class="edge">
<title>Node1&#45;&gt;Node12</title>
<path fill="none" stroke="midnightblue" d="M1392.62,-89.22C1481.4,-79.85 1621.42,-63.43 1741.5,-42 1744.25,-41.51 1747.04,-40.99 1749.85,-40.45"/>
<polygon fill="midnightblue" stroke="midnightblue" points="1392.17,-85.74 1382.58,-90.27 1392.89,-92.71 1392.17,-85.74"/>
</g>
<!-- Node13 -->
<g id="node13" class="node">
<title>Node13</title>
<g id="a_node13"><a xlink:href="game__over__state_8cpp.html" target="_top" xlink:title=" ">
<polygon fill="none" stroke="black" points="1925,-0.5 1925,-41.5 2082,-41.5 2082,-0.5 1925,-0.5"/>
<text text-anchor="start" x="1933" y="-29.5" font-family="Helvetica,sans-Serif" font-size="10.00">/home/fnky/C0de/component</text>
<text text-anchor="start" x="1933" y="-18.5" font-family="Helvetica,sans-Serif" font-size="10.00">_engine/src/States/game</text>
<text text-anchor="middle" x="2003.5" y="-7.5" font-family="Helvetica,sans-Serif" font-size="10.00">_over_state.cpp</text>
</a>
</g>
</g>
<!-- Node1&#45;&gt;Node13 -->
<g id="edge12" class="edge">
<title>Node1&#45;&gt;Node13</title>
<path fill="none" stroke="midnightblue" d="M1393.01,-93.61C1512.82,-86.88 1731.67,-71.55 1916.5,-42 1919.25,-41.56 1922.05,-41.08 1924.87,-40.58"/>
<polygon fill="midnightblue" stroke="midnightblue" points="1392.58,-90.13 1382.79,-94.18 1392.97,-97.12 1392.58,-90.13"/>
</g>
<!-- Node14 -->
<g id="node14" class="node">
<title>Node14</title>
<g id="a_node14"><a xlink:href="game__play__state_8cpp.html" target="_top" xlink:title=" ">
<polygon fill="none" stroke="black" points="2100,-0.5 2100,-41.5 2257,-41.5 2257,-0.5 2100,-0.5"/>
<text text-anchor="start" x="2108" y="-29.5" font-family="Helvetica,sans-Serif" font-size="10.00">/home/fnky/C0de/component</text>
<text text-anchor="start" x="2108" y="-18.5" font-family="Helvetica,sans-Serif" font-size="10.00">_engine/src/States/game</text>
<text text-anchor="middle" x="2178.5" y="-7.5" font-family="Helvetica,sans-Serif" font-size="10.00">_play_state.cpp</text>
</a>
</g>
</g>
<!-- Node1&#45;&gt;Node14 -->
<g id="edge13" class="edge">
<title>Node1&#45;&gt;Node14</title>
<path fill="none" stroke="midnightblue" d="M1392.8,-96.15C1539.41,-92.12 1839.99,-79.61 2091.5,-42 2094.26,-41.59 2097.06,-41.13 2099.88,-40.65"/>
<polygon fill="midnightblue" stroke="midnightblue" points="1392.42,-92.66 1382.51,-96.43 1392.6,-99.66 1392.42,-92.66"/>
</g>
<!-- Node15 -->
<g id="node15" class="node">
<title>Node15</title>
<g id="a_node15"><a xlink:href="main__menu__state_8cpp.html" target="_top" xlink:title=" ">
<polygon fill="none" stroke="black" points="2275,-0.5 2275,-41.5 2432,-41.5 2432,-0.5 2275,-0.5"/>
<text text-anchor="start" x="2283" y="-29.5" font-family="Helvetica,sans-Serif" font-size="10.00">/home/fnky/C0de/component</text>
<text text-anchor="start" x="2283" y="-18.5" font-family="Helvetica,sans-Serif" font-size="10.00">_engine/src/States/main</text>
<text text-anchor="middle" x="2353.5" y="-7.5" font-family="Helvetica,sans-Serif" font-size="10.00">_menu_state.cpp</text>
</a>
</g>
</g>
<!-- Node1&#45;&gt;Node15 -->
<g id="edge14" class="edge">
<title>Node1&#45;&gt;Node15</title>
<path fill="none" stroke="midnightblue" d="M1392.78,-97.8C1563.4,-96.31 1947.26,-87.65 2266.5,-42 2269.26,-41.61 2272.06,-41.17 2274.89,-40.69"/>
<polygon fill="midnightblue" stroke="midnightblue" points="1392.56,-94.3 1382.59,-97.88 1392.62,-101.3 1392.56,-94.3"/>
</g>
<!-- Node16 -->
<g id="node16" class="node">
<title>Node16</title>
<g id="a_node16"><a xlink:href="splash__state_8cpp.html" target="_top" xlink:title=" ">
<polygon fill="none" stroke="black" points="2450,-0.5 2450,-41.5 2607,-41.5 2607,-0.5 2450,-0.5"/>
<text text-anchor="start" x="2458" y="-29.5" font-family="Helvetica,sans-Serif" font-size="10.00">/home/fnky/C0de/component</text>
<text text-anchor="start" x="2458" y="-18.5" font-family="Helvetica,sans-Serif" font-size="10.00">_engine/src/States/splash</text>
<text text-anchor="middle" x="2528.5" y="-7.5" font-family="Helvetica,sans-Serif" font-size="10.00">_state.cpp</text>
</a>
</g>
</g>
<!-- Node1&#45;&gt;Node16 -->
<g id="edge15" class="edge">
<title>Node1&#45;&gt;Node16</title>
<path fill="none" stroke="midnightblue" d="M1392.64,-95.65C1623.95,-89.23 2239.38,-69.98 2441.5,-42 2444.26,-41.62 2447.07,-41.19 2449.9,-40.73"/>
<polygon fill="midnightblue" stroke="midnightblue" points="1392.48,-92.15 1382.58,-95.93 1392.68,-99.15 1392.48,-92.15"/>
</g>
</g>
</svg>
