<?xml version="1.0" encoding="UTF-8" standalone="no"?>
<!DOCTYPE svg PUBLIC "-//W3C//DTD SVG 1.1//EN"
 "http://www.w3.org/Graphics/SVG/1.1/DTD/svg11.dtd">
<!-- Generated by graphviz version 2.43.0 (0)
 -->
<!-- Title: /home/fnky/C0de/component_engine/src/Actors/Shader_Actor.cpp Pages: 1 -->
<svg width="726pt" height="285pt"
 viewBox="0.00 0.00 725.54 285.00" xmlns="http://www.w3.org/2000/svg" xmlns:xlink="http://www.w3.org/1999/xlink">
<g id="graph0" class="graph" transform="scale(1 1) rotate(0) translate(4 281)">
<title>/home/fnky/C0de/component_engine/src/Actors/Shader_Actor.cpp</title>
<!-- Node1 -->
<g id="node1" class="node">
<title>Node1</title>
<g id="a_node1"><a xlink:title=" ">
<polygon fill="#bfbfbf" stroke="black" points="269.54,-235.5 269.54,-276.5 426.54,-276.5 426.54,-235.5 269.54,-235.5"/>
<text text-anchor="start" x="277.54" y="-264.5" font-family="Helvetica,sans-Serif" font-size="10.00">/home/fnky/C0de/component</text>
<text text-anchor="start" x="277.54" y="-253.5" font-family="Helvetica,sans-Serif" font-size="10.00">_engine/src/Actors/Shader</text>
<text text-anchor="middle" x="348.04" y="-242.5" font-family="Helvetica,sans-Serif" font-size="10.00">_Actor.cpp</text>
</a>
</g>
</g>
<!-- Node2 -->
<g id="node2" class="node">
<title>Node2</title>
<g id="a_node2"><a xlink:href="Shader__Actor_8h.html" target="_top" xlink:title=" ">
<polygon fill="none" stroke="black" points="102.04,-168.5 102.04,-198.5 206.04,-198.5 206.04,-168.5 102.04,-168.5"/>
<text text-anchor="start" x="110.04" y="-186.5" font-family="Helvetica,sans-Serif" font-size="10.00">../../include/Actors</text>
<text text-anchor="middle" x="154.04" y="-175.5" font-family="Helvetica,sans-Serif" font-size="10.00">/Shader_Actor.h</text>
</a>
</g>
</g>
<!-- Node1&#45;&gt;Node2 -->
<g id="edge1" class="edge">
<title>Node1&#45;&gt;Node2</title>
<path fill="none" stroke="midnightblue" d="M294.26,-235.46C265.47,-224.99 230.3,-212.21 202.38,-202.07"/>
<polygon fill="midnightblue" stroke="midnightblue" points="203.43,-198.72 192.83,-198.6 201.03,-205.3 203.43,-198.72"/>
</g>
<!-- Node4 -->
<g id="node4" class="node">
<title>Node4</title>
<g id="a_node4"><a xlink:title=" ">
<polygon fill="none" stroke="#bfbfbf" points="213.04,-0.5 213.04,-19.5 271.04,-19.5 271.04,-0.5 213.04,-0.5"/>
<text text-anchor="middle" x="242.04" y="-7.5" font-family="Helvetica,sans-Serif" font-size="10.00">memory</text>
</a>
</g>
</g>
<!-- Node1&#45;&gt;Node4 -->
<g id="edge15" class="edge">
<title>Node1&#45;&gt;Node4</title>
<path fill="none" stroke="midnightblue" d="M351.73,-235.46C357.8,-197.31 365.77,-111.81 328.04,-56 316.97,-39.63 297.99,-28.81 280.68,-21.9"/>
<polygon fill="midnightblue" stroke="midnightblue" points="281.88,-18.61 271.29,-18.45 279.47,-25.18 281.88,-18.61"/>
</g>
<!-- Node9 -->
<g id="node9" class="node">
<title>Node9</title>
<g id="a_node9"><a xlink:href="ShaderComponent_8h.html" target="_top" xlink:title=" ">
<polygon fill="none" stroke="black" points="383.04,-168.5 383.04,-198.5 517.04,-198.5 517.04,-168.5 383.04,-168.5"/>
<text text-anchor="start" x="391.04" y="-186.5" font-family="Helvetica,sans-Serif" font-size="10.00">../../include/Components</text>
<text text-anchor="middle" x="450.04" y="-175.5" font-family="Helvetica,sans-Serif" font-size="10.00">/ShaderComponent.h</text>
</a>
</g>
</g>
<!-- Node1&#45;&gt;Node9 -->
<g id="edge10" class="edge">
<title>Node1&#45;&gt;Node9</title>
<path fill="none" stroke="midnightblue" d="M376.45,-235.36C390.41,-225.71 407.21,-214.11 421.22,-204.42"/>
<polygon fill="midnightblue" stroke="midnightblue" points="423.3,-207.24 429.54,-198.67 419.32,-201.48 423.3,-207.24"/>
</g>
<!-- Node3 -->
<g id="node3" class="node">
<title>Node3</title>
<g id="a_node3"><a xlink:href="Components_2Component_8h.html" target="_top" xlink:title=" ">
<polygon fill="none" stroke="black" points="164.54,-56.5 164.54,-75.5 319.54,-75.5 319.54,-56.5 164.54,-56.5"/>
<text text-anchor="middle" x="242.04" y="-63.5" font-family="Helvetica,sans-Serif" font-size="10.00">../Components/Component.h</text>
</a>
</g>
</g>
<!-- Node2&#45;&gt;Node3 -->
<g id="edge2" class="edge">
<title>Node2&#45;&gt;Node3</title>
<path fill="none" stroke="midnightblue" d="M164.83,-168.34C181.12,-146.96 211.92,-106.53 229.29,-83.73"/>
<polygon fill="midnightblue" stroke="midnightblue" points="232.16,-85.74 235.43,-75.67 226.59,-81.5 232.16,-85.74"/>
</g>
<!-- Node2&#45;&gt;Node4 -->
<g id="edge9" class="edge">
<title>Node2&#45;&gt;Node4</title>
<path fill="none" stroke="midnightblue" d="M101.85,-174.38C74.87,-167.52 43.59,-154.95 24.04,-132 1.86,-105.97 -9.7,-82.4 12.04,-56 35.77,-27.18 143.63,-16.56 202.84,-12.85"/>
<polygon fill="midnightblue" stroke="midnightblue" points="203.17,-16.34 212.95,-12.25 202.76,-9.35 203.17,-16.34"/>
</g>
<!-- Node5 -->
<g id="node5" class="node">
<title>Node5</title>
<g id="a_node5"><a xlink:href="Actor_8h.html" target="_top" xlink:title=" ">
<polygon fill="none" stroke="black" points="129.04,-112.5 129.04,-131.5 179.04,-131.5 179.04,-112.5 129.04,-112.5"/>
<text text-anchor="middle" x="154.04" y="-119.5" font-family="Helvetica,sans-Serif" font-size="10.00">Actor.h</text>
</a>
</g>
</g>
<!-- Node2&#45;&gt;Node5 -->
<g id="edge4" class="edge">
<title>Node2&#45;&gt;Node5</title>
<path fill="none" stroke="midnightblue" d="M154.04,-168.4C154.04,-160.47 154.04,-150.46 154.04,-141.86"/>
<polygon fill="midnightblue" stroke="midnightblue" points="157.54,-141.66 154.04,-131.66 150.54,-141.66 157.54,-141.66"/>
</g>
<!-- Node8 -->
<g id="node8" class="node">
<title>Node8</title>
<g id="a_node8"><a xlink:title=" ">
<polygon fill="none" stroke="#bfbfbf" points="33.54,-112.5 33.54,-131.5 110.54,-131.5 110.54,-112.5 33.54,-112.5"/>
<text text-anchor="middle" x="72.04" y="-119.5" font-family="Helvetica,sans-Serif" font-size="10.00">glm/fwd.hpp</text>
</a>
</g>
</g>
<!-- Node2&#45;&gt;Node8 -->
<g id="edge8" class="edge">
<title>Node2&#45;&gt;Node8</title>
<path fill="none" stroke="midnightblue" d="M134.61,-168.4C121.83,-159.13 105.15,-147.03 92.23,-137.65"/>
<polygon fill="midnightblue" stroke="midnightblue" points="94.12,-134.7 83.97,-131.66 90.01,-140.36 94.12,-134.7"/>
</g>
<!-- Node3&#45;&gt;Node4 -->
<g id="edge3" class="edge">
<title>Node3&#45;&gt;Node4</title>
<path fill="none" stroke="midnightblue" d="M242.04,-56.08C242.04,-49.01 242.04,-38.86 242.04,-29.99"/>
<polygon fill="midnightblue" stroke="midnightblue" points="245.54,-29.75 242.04,-19.75 238.54,-29.75 245.54,-29.75"/>
</g>
<!-- Node5&#45;&gt;Node3 -->
<g id="edge7" class="edge">
<title>Node5&#45;&gt;Node3</title>
<path fill="none" stroke="midnightblue" d="M168.18,-112.32C181.91,-103.9 202.98,-90.97 219.1,-81.07"/>
<polygon fill="midnightblue" stroke="midnightblue" points="221.24,-83.87 227.94,-75.65 217.58,-77.9 221.24,-83.87"/>
</g>
<!-- Node6 -->
<g id="node6" class="node">
<title>Node6</title>
<g id="a_node6"><a xlink:title=" ">
<polygon fill="none" stroke="#bfbfbf" points="99.54,-56.5 99.54,-75.5 146.54,-75.5 146.54,-56.5 99.54,-56.5"/>
<text text-anchor="middle" x="123.04" y="-63.5" font-family="Helvetica,sans-Serif" font-size="10.00">vector</text>
</a>
</g>
</g>
<!-- Node5&#45;&gt;Node6 -->
<g id="edge5" class="edge">
<title>Node5&#45;&gt;Node6</title>
<path fill="none" stroke="midnightblue" d="M148.92,-112.08C144.63,-104.61 138.38,-93.72 133.1,-84.52"/>
<polygon fill="midnightblue" stroke="midnightblue" points="136.08,-82.68 128.06,-75.75 130.01,-86.17 136.08,-82.68"/>
</g>
<!-- Node7 -->
<g id="node7" class="node">
<title>Node7</title>
<g id="a_node7"><a xlink:title=" ">
<polygon fill="none" stroke="#bfbfbf" points="21.04,-56.5 21.04,-75.5 81.04,-75.5 81.04,-56.5 21.04,-56.5"/>
<text text-anchor="middle" x="51.04" y="-63.5" font-family="Helvetica,sans-Serif" font-size="10.00">iostream</text>
</a>
</g>
</g>
<!-- Node5&#45;&gt;Node7 -->
<g id="edge6" class="edge">
<title>Node5&#45;&gt;Node7</title>
<path fill="none" stroke="midnightblue" d="M137.49,-112.32C121.05,-103.7 95.61,-90.36 76.57,-80.39"/>
<polygon fill="midnightblue" stroke="midnightblue" points="78.03,-77.2 67.55,-75.65 74.78,-83.4 78.03,-77.2"/>
</g>
<!-- Node9&#45;&gt;Node3 -->
<g id="edge11" class="edge">
<title>Node9&#45;&gt;Node3</title>
<path fill="none" stroke="midnightblue" d="M424.54,-168.34C384.23,-145.96 306.33,-102.7 266.62,-80.65"/>
<polygon fill="midnightblue" stroke="midnightblue" points="267.83,-77.32 257.39,-75.52 264.43,-83.44 267.83,-77.32"/>
</g>
<!-- Node10 -->
<g id="node10" class="node">
<title>Node10</title>
<g id="a_node10"><a xlink:title=" ">
<polygon fill="none" stroke="#bfbfbf" points="414.54,-112.5 414.54,-131.5 485.54,-131.5 485.54,-112.5 414.54,-112.5"/>
<text text-anchor="middle" x="450.04" y="-119.5" font-family="Helvetica,sans-Serif" font-size="10.00">glad/glad.h</text>
</a>
</g>
</g>
<!-- Node9&#45;&gt;Node10 -->
<g id="edge12" class="edge">
<title>Node9&#45;&gt;Node10</title>
<path fill="none" stroke="midnightblue" d="M450.04,-168.4C450.04,-160.47 450.04,-150.46 450.04,-141.86"/>
<polygon fill="midnightblue" stroke="midnightblue" points="453.54,-141.66 450.04,-131.66 446.54,-141.66 453.54,-141.66"/>
</g>
<!-- Node11 -->
<g id="node11" class="node">
<title>Node11</title>
<g id="a_node11"><a xlink:title=" ">
<polygon fill="none" stroke="#bfbfbf" points="504.04,-112.5 504.04,-131.5 582.04,-131.5 582.04,-112.5 504.04,-112.5"/>
<text text-anchor="middle" x="543.04" y="-119.5" font-family="Helvetica,sans-Serif" font-size="10.00">glm/glm.hpp</text>
</a>
</g>
</g>
<!-- Node9&#45;&gt;Node11 -->
<g id="edge13" class="edge">
<title>Node9&#45;&gt;Node11</title>
<path fill="none" stroke="midnightblue" d="M472.08,-168.4C486.85,-158.95 506.22,-146.56 520.99,-137.11"/>
<polygon fill="midnightblue" stroke="midnightblue" points="522.97,-140 529.51,-131.66 519.2,-134.1 522.97,-140"/>
</g>
<!-- Node12 -->
<g id="node12" class="node">
<title>Node12</title>
<g id="a_node12"><a xlink:title=" ">
<polygon fill="none" stroke="#bfbfbf" points="600.54,-112.5 600.54,-131.5 717.54,-131.5 717.54,-112.5 600.54,-112.5"/>
<text text-anchor="middle" x="659.04" y="-119.5" font-family="Helvetica,sans-Serif" font-size="10.00">glm/gtc/type_ptr.hpp</text>
</a>
</g>
</g>
<!-- Node9&#45;&gt;Node12 -->
<g id="edge14" class="edge">
<title>Node9&#45;&gt;Node12</title>
<path fill="none" stroke="midnightblue" d="M499.31,-168.47C535.99,-158.03 585.42,-143.96 619.53,-134.25"/>
<polygon fill="midnightblue" stroke="midnightblue" points="620.5,-137.61 629.16,-131.51 618.58,-130.88 620.5,-137.61"/>
</g>
</g>
</svg>
