<?xml version="1.0" encoding="UTF-8" standalone="no"?>
<!DOCTYPE svg PUBLIC "-//W3C//DTD SVG 1.1//EN"
 "http://www.w3.org/Graphics/SVG/1.1/DTD/svg11.dtd">
<!-- Generated by graphviz version 2.43.0 (0)
 -->
<!-- Title: /home/fnky/C0de/component_engine/src/States/splash_state.cpp Pages: 1 -->
<svg width="1884pt" height="363pt"
 viewBox="0.00 0.00 1883.50 363.00" xmlns="http://www.w3.org/2000/svg" xmlns:xlink="http://www.w3.org/1999/xlink">
<g id="graph0" class="graph" transform="scale(1 1) rotate(0) translate(4 359)">
<title>/home/fnky/C0de/component_engine/src/States/splash_state.cpp</title>
<!-- Node1 -->
<g id="node1" class="node">
<title>Node1</title>
<g id="a_node1"><a xlink:title=" ">
<polygon fill="#bfbfbf" stroke="black" points="953,-313.5 953,-354.5 1110,-354.5 1110,-313.5 953,-313.5"/>
<text text-anchor="start" x="961" y="-342.5" font-family="Helvetica,sans-Serif" font-size="10.00">/home/fnky/C0de/component</text>
<text text-anchor="start" x="961" y="-331.5" font-family="Helvetica,sans-Serif" font-size="10.00">_engine/src/States/splash</text>
<text text-anchor="middle" x="1031.5" y="-320.5" font-family="Helvetica,sans-Serif" font-size="10.00">_state.cpp</text>
</a>
</g>
</g>
<!-- Node2 -->
<g id="node2" class="node">
<title>Node2</title>
<g id="a_node2"><a xlink:href="TransformComponent_8h.html" target="_top" xlink:title=" ">
<polygon fill="none" stroke="black" points="352.5,-179.5 352.5,-209.5 486.5,-209.5 486.5,-179.5 352.5,-179.5"/>
<text text-anchor="start" x="360.5" y="-197.5" font-family="Helvetica,sans-Serif" font-size="10.00">../../include/Components</text>
<text text-anchor="middle" x="419.5" y="-186.5" font-family="Helvetica,sans-Serif" font-size="10.00">/TransformComponent.h</text>
</a>
</g>
</g>
<!-- Node1&#45;&gt;Node2 -->
<g id="edge1" class="edge">
<title>Node1&#45;&gt;Node2</title>
<path fill="none" stroke="midnightblue" d="M952.74,-315.31C833.23,-288.45 607.75,-237.8 492.04,-211.8"/>
<polygon fill="midnightblue" stroke="midnightblue" points="492.73,-208.37 482.21,-209.59 491.2,-215.2 492.73,-208.37"/>
</g>
<!-- Node7 -->
<g id="node7" class="node">
<title>Node7</title>
<g id="a_node7"><a xlink:href="ShaderComponent_8h.html" target="_top" xlink:title=" ">
<polygon fill="none" stroke="black" points="116.5,-179.5 116.5,-209.5 250.5,-209.5 250.5,-179.5 116.5,-179.5"/>
<text text-anchor="start" x="124.5" y="-197.5" font-family="Helvetica,sans-Serif" font-size="10.00">../../include/Components</text>
<text text-anchor="middle" x="183.5" y="-186.5" font-family="Helvetica,sans-Serif" font-size="10.00">/ShaderComponent.h</text>
</a>
</g>
</g>
<!-- Node1&#45;&gt;Node7 -->
<g id="edge6" class="edge">
<title>Node1&#45;&gt;Node7</title>
<path fill="none" stroke="midnightblue" d="M952.91,-322.17C875.42,-311.34 753.66,-293.9 648.5,-277 511.81,-255.03 353.05,-226.57 260.86,-209.75"/>
<polygon fill="midnightblue" stroke="midnightblue" points="261.25,-206.26 250.78,-207.91 259.99,-213.15 261.25,-206.26"/>
</g>
<!-- Node10 -->
<g id="node10" class="node">
<title>Node10</title>
<g id="a_node10"><a xlink:href="RenderComponent_8h.html" target="_top" xlink:title=" ">
<polygon fill="none" stroke="black" points="588.5,-179.5 588.5,-209.5 722.5,-209.5 722.5,-179.5 588.5,-179.5"/>
<text text-anchor="start" x="596.5" y="-197.5" font-family="Helvetica,sans-Serif" font-size="10.00">../../include/Components</text>
<text text-anchor="middle" x="655.5" y="-186.5" font-family="Helvetica,sans-Serif" font-size="10.00">/RenderComponent.h</text>
</a>
</g>
</g>
<!-- Node1&#45;&gt;Node10 -->
<g id="edge11" class="edge">
<title>Node1&#45;&gt;Node10</title>
<path fill="none" stroke="midnightblue" d="M978.03,-313.45C904.64,-286.61 773.81,-238.77 703.44,-213.03"/>
<polygon fill="midnightblue" stroke="midnightblue" points="704.52,-209.7 693.93,-209.55 702.12,-216.27 704.52,-209.7"/>
</g>
<!-- Node12 -->
<g id="node12" class="node">
<title>Node12</title>
<g id="a_node12"><a xlink:title=" ">
<polygon fill="none" stroke="#bfbfbf" points="1500.5,-56.5 1500.5,-75.5 1546.5,-75.5 1546.5,-56.5 1500.5,-56.5"/>
<text text-anchor="middle" x="1523.5" y="-63.5" font-family="Helvetica,sans-Serif" font-size="10.00">cstdio</text>
</a>
</g>
</g>
<!-- Node1&#45;&gt;Node12 -->
<g id="edge67" class="edge">
<title>Node1&#45;&gt;Node12</title>
<path fill="none" stroke="midnightblue" d="M1110.13,-323.92C1276.58,-302.86 1655.12,-244.58 1726.5,-143 1734.42,-131.73 1735.12,-122.74 1726.5,-112 1715.89,-98.78 1611.5,-80.72 1556.71,-72.05"/>
<polygon fill="midnightblue" stroke="midnightblue" points="1557.19,-68.59 1546.77,-70.5 1556.11,-75.5 1557.19,-68.59"/>
</g>
<!-- Node21 -->
<g id="node21" class="node">
<title>Node21</title>
<g id="a_node21"><a xlink:href="Actor_8h.html" target="_top" xlink:title=" ">
<polygon fill="none" stroke="black" points="979.5,-179.5 979.5,-209.5 1083.5,-209.5 1083.5,-179.5 979.5,-179.5"/>
<text text-anchor="start" x="987.5" y="-197.5" font-family="Helvetica,sans-Serif" font-size="10.00">../../include/Actors</text>
<text text-anchor="middle" x="1031.5" y="-186.5" font-family="Helvetica,sans-Serif" font-size="10.00">/Actor.h</text>
</a>
</g>
</g>
<!-- Node1&#45;&gt;Node21 -->
<g id="edge33" class="edge">
<title>Node1&#45;&gt;Node21</title>
<path fill="none" stroke="midnightblue" d="M1031.5,-313.3C1031.5,-288.63 1031.5,-246.38 1031.5,-219.75"/>
<polygon fill="midnightblue" stroke="midnightblue" points="1035,-219.72 1031.5,-209.72 1028,-219.72 1035,-219.72"/>
</g>
<!-- Node23 -->
<g id="node23" class="node">
<title>Node23</title>
<g id="a_node23"><a xlink:href="Texture__Actor_8h.html" target="_top" xlink:title=" ">
<polygon fill="none" stroke="black" points="899.5,-246.5 899.5,-276.5 1003.5,-276.5 1003.5,-246.5 899.5,-246.5"/>
<text text-anchor="start" x="907.5" y="-264.5" font-family="Helvetica,sans-Serif" font-size="10.00">../../include/Actors</text>
<text text-anchor="middle" x="951.5" y="-253.5" font-family="Helvetica,sans-Serif" font-size="10.00">/Texture_Actor.h</text>
</a>
</g>
</g>
<!-- Node1&#45;&gt;Node23 -->
<g id="edge37" class="edge">
<title>Node1&#45;&gt;Node23</title>
<path fill="none" stroke="midnightblue" d="M1009.22,-313.36C998.68,-304.08 986.09,-292.98 975.36,-283.52"/>
<polygon fill="midnightblue" stroke="midnightblue" points="977.4,-280.66 967.58,-276.67 972.77,-285.91 977.4,-280.66"/>
</g>
<!-- Node24 -->
<g id="node24" class="node">
<title>Node24</title>
<g id="a_node24"><a xlink:href="GameData_8h.html" target="_top" xlink:title=" ">
<polygon fill="none" stroke="black" points="1231,-179.5 1231,-209.5 1356,-209.5 1356,-179.5 1231,-179.5"/>
<text text-anchor="start" x="1239" y="-197.5" font-family="Helvetica,sans-Serif" font-size="10.00">../../include/GameData</text>
<text text-anchor="middle" x="1293.5" y="-186.5" font-family="Helvetica,sans-Serif" font-size="10.00">/GameData.h</text>
</a>
</g>
</g>
<!-- Node1&#45;&gt;Node24 -->
<g id="edge42" class="edge">
<title>Node1&#45;&gt;Node24</title>
<path fill="none" stroke="midnightblue" d="M1068.76,-313.45C1119.06,-287.05 1208.09,-240.33 1257.65,-214.31"/>
<polygon fill="midnightblue" stroke="midnightblue" points="1259.49,-217.3 1266.72,-209.55 1256.24,-211.1 1259.49,-217.3"/>
</g>
<!-- Node33 -->
<g id="node33" class="node">
<title>Node33</title>
<g id="a_node33"><a xlink:href="splash__state_8h.html" target="_top" xlink:title=" ">
<polygon fill="none" stroke="black" points="1241.5,-246.5 1241.5,-276.5 1345.5,-276.5 1345.5,-246.5 1241.5,-246.5"/>
<text text-anchor="start" x="1249.5" y="-264.5" font-family="Helvetica,sans-Serif" font-size="10.00">../../include/States</text>
<text text-anchor="middle" x="1293.5" y="-253.5" font-family="Helvetica,sans-Serif" font-size="10.00">/splash_state.h</text>
</a>
</g>
</g>
<!-- Node1&#45;&gt;Node33 -->
<g id="edge61" class="edge">
<title>Node1&#45;&gt;Node33</title>
<path fill="none" stroke="midnightblue" d="M1104.13,-313.46C1144.03,-302.72 1193.01,-289.54 1231.16,-279.28"/>
<polygon fill="midnightblue" stroke="midnightblue" points="1232.36,-282.58 1241.11,-276.6 1230.55,-275.82 1232.36,-282.58"/>
</g>
<!-- Node35 -->
<g id="node35" class="node">
<title>Node35</title>
<g id="a_node35"><a xlink:title=" ">
<polygon fill="none" stroke="#bfbfbf" points="1811.5,-252 1811.5,-271 1875.5,-271 1875.5,-252 1811.5,-252"/>
<text text-anchor="middle" x="1843.5" y="-259" font-family="Helvetica,sans-Serif" font-size="10.00">algorithm</text>
</a>
</g>
</g>
<!-- Node1&#45;&gt;Node35 -->
<g id="edge66" class="edge">
<title>Node1&#45;&gt;Node35</title>
<path fill="none" stroke="midnightblue" d="M1110.02,-333.24C1249.63,-332.35 1549.65,-324.45 1797.5,-277 1801.66,-276.2 1805.98,-275.15 1810.22,-273.98"/>
<polygon fill="midnightblue" stroke="midnightblue" points="1811.31,-277.31 1819.9,-271.1 1809.31,-270.6 1811.31,-277.31"/>
</g>
<!-- Node3 -->
<g id="node3" class="node">
<title>Node3</title>
<g id="a_node3"><a xlink:href="Components_2Component_8h.html" target="_top" xlink:title=" ">
<polygon fill="none" stroke="black" points="765.5,-118 765.5,-137 847.5,-137 847.5,-118 765.5,-118"/>
<text text-anchor="middle" x="806.5" y="-125" font-family="Helvetica,sans-Serif" font-size="10.00">Component.h</text>
</a>
</g>
</g>
<!-- Node2&#45;&gt;Node3 -->
<g id="edge2" class="edge">
<title>Node2&#45;&gt;Node3</title>
<path fill="none" stroke="midnightblue" d="M486.91,-182.18C563.33,-169.34 686.23,-148.7 755.23,-137.11"/>
<polygon fill="midnightblue" stroke="midnightblue" points="756.13,-140.51 765.42,-135.4 754.97,-133.61 756.13,-140.51"/>
</g>
<!-- Node5 -->
<g id="node5" class="node">
<title>Node5</title>
<g id="a_node5"><a xlink:title=" ">
<polygon fill="none" stroke="#bfbfbf" points="368.5,-56.5 368.5,-75.5 446.5,-75.5 446.5,-56.5 368.5,-56.5"/>
<text text-anchor="middle" x="407.5" y="-63.5" font-family="Helvetica,sans-Serif" font-size="10.00">glm/glm.hpp</text>
</a>
</g>
</g>
<!-- Node2&#45;&gt;Node5 -->
<g id="edge4" class="edge">
<title>Node2&#45;&gt;Node5</title>
<path fill="none" stroke="midnightblue" d="M352.38,-183.16C307.52,-174.72 254.29,-161.22 240.5,-143 206.79,-98.46 297.62,-79.28 358.19,-71.61"/>
<polygon fill="midnightblue" stroke="midnightblue" points="358.85,-75.06 368.37,-70.4 358.02,-68.11 358.85,-75.06"/>
</g>
<!-- Node6 -->
<g id="node6" class="node">
<title>Node6</title>
<g id="a_node6"><a xlink:title=" ">
<polygon fill="none" stroke="#bfbfbf" points="250,-118 250,-137 413,-137 413,-118 250,-118"/>
<text text-anchor="middle" x="331.5" y="-125" font-family="Helvetica,sans-Serif" font-size="10.00">glm/gtc/matrix_transform.hpp</text>
</a>
</g>
</g>
<!-- Node2&#45;&gt;Node6 -->
<g id="edge5" class="edge">
<title>Node2&#45;&gt;Node6</title>
<path fill="none" stroke="midnightblue" d="M400.41,-179.4C385.92,-168.7 366.07,-154.03 351.39,-143.19"/>
<polygon fill="midnightblue" stroke="midnightblue" points="353.14,-140.13 343.02,-137.01 348.98,-145.76 353.14,-140.13"/>
</g>
<!-- Node4 -->
<g id="node4" class="node">
<title>Node4</title>
<g id="a_node4"><a xlink:title=" ">
<polygon fill="none" stroke="#bfbfbf" points="988.5,-56.5 988.5,-75.5 1046.5,-75.5 1046.5,-56.5 988.5,-56.5"/>
<text text-anchor="middle" x="1017.5" y="-63.5" font-family="Helvetica,sans-Serif" font-size="10.00">memory</text>
</a>
</g>
</g>
<!-- Node3&#45;&gt;Node4 -->
<g id="edge3" class="edge">
<title>Node3&#45;&gt;Node4</title>
<path fill="none" stroke="midnightblue" d="M836.73,-117.98C874.1,-107.44 937.77,-89.48 978.71,-77.94"/>
<polygon fill="midnightblue" stroke="midnightblue" points="979.67,-81.3 988.34,-75.22 977.77,-74.57 979.67,-81.3"/>
</g>
<!-- Node7&#45;&gt;Node3 -->
<g id="edge7" class="edge">
<title>Node7&#45;&gt;Node3</title>
<path fill="none" stroke="midnightblue" d="M250.67,-187.42C384.01,-175.32 673.19,-148.86 718.5,-143 730.5,-141.45 743.37,-139.49 755.46,-137.52"/>
<polygon fill="midnightblue" stroke="midnightblue" points="756.11,-140.96 765.4,-135.88 754.96,-134.06 756.11,-140.96"/>
</g>
<!-- Node7&#45;&gt;Node5 -->
<g id="edge9" class="edge">
<title>Node7&#45;&gt;Node5</title>
<path fill="none" stroke="midnightblue" d="M187.61,-179.37C193.71,-161.01 206.9,-129.26 229.5,-112 266.55,-83.7 319.36,-73.05 357.83,-69.12"/>
<polygon fill="midnightblue" stroke="midnightblue" points="358.63,-72.56 368.28,-68.18 358,-65.59 358.63,-72.56"/>
</g>
<!-- Node8 -->
<g id="node8" class="node">
<title>Node8</title>
<g id="a_node8"><a xlink:title=" ">
<polygon fill="none" stroke="#bfbfbf" points="305,-0.5 305,-19.5 376,-19.5 376,-0.5 305,-0.5"/>
<text text-anchor="middle" x="340.5" y="-7.5" font-family="Helvetica,sans-Serif" font-size="10.00">glad/glad.h</text>
</a>
</g>
</g>
<!-- Node7&#45;&gt;Node8 -->
<g id="edge8" class="edge">
<title>Node7&#45;&gt;Node8</title>
<path fill="none" stroke="midnightblue" d="M183.43,-179.37C183.98,-162.13 187.04,-132.73 200.5,-112 227.64,-70.19 278.59,-40.08 310.97,-24.11"/>
<polygon fill="midnightblue" stroke="midnightblue" points="312.87,-27.09 320.38,-19.61 309.85,-20.77 312.87,-27.09"/>
</g>
<!-- Node9 -->
<g id="node9" class="node">
<title>Node9</title>
<g id="a_node9"><a xlink:title=" ">
<polygon fill="none" stroke="#bfbfbf" points="0,-118 0,-137 117,-137 117,-118 0,-118"/>
<text text-anchor="middle" x="58.5" y="-125" font-family="Helvetica,sans-Serif" font-size="10.00">glm/gtc/type_ptr.hpp</text>
</a>
</g>
</g>
<!-- Node7&#45;&gt;Node9 -->
<g id="edge10" class="edge">
<title>Node7&#45;&gt;Node9</title>
<path fill="none" stroke="midnightblue" d="M156.38,-179.4C134.83,-168.19 104.93,-152.64 83.86,-141.69"/>
<polygon fill="midnightblue" stroke="midnightblue" points="85.35,-138.52 74.86,-137.01 82.12,-144.73 85.35,-138.52"/>
</g>
<!-- Node10&#45;&gt;Node3 -->
<g id="edge18" class="edge">
<title>Node10&#45;&gt;Node3</title>
<path fill="none" stroke="midnightblue" d="M688.26,-179.4C714.76,-167.99 751.72,-152.08 777.23,-141.1"/>
<polygon fill="midnightblue" stroke="midnightblue" points="778.94,-144.18 786.74,-137.01 776.17,-137.75 778.94,-144.18"/>
</g>
<!-- Node10&#45;&gt;Node4 -->
<g id="edge32" class="edge">
<title>Node10&#45;&gt;Node4</title>
<path fill="none" stroke="midnightblue" d="M722.56,-180.09C762.1,-171.34 812.8,-158.64 856.5,-143 906.39,-125.15 961.67,-97.12 992.74,-80.55"/>
<polygon fill="midnightblue" stroke="midnightblue" points="994.79,-83.42 1001.94,-75.6 991.48,-77.26 994.79,-83.42"/>
</g>
<!-- Node10&#45;&gt;Node5 -->
<g id="edge15" class="edge">
<title>Node10&#45;&gt;Node5</title>
<path fill="none" stroke="midnightblue" d="M593.24,-179.4C563.46,-171.2 527.97,-159.23 498.5,-143 482.75,-134.33 446.13,-102.1 424.45,-82.51"/>
<polygon fill="midnightblue" stroke="midnightblue" points="426.7,-79.82 416.94,-75.69 421.99,-85.01 426.7,-79.82"/>
</g>
<!-- Node10&#45;&gt;Node6 -->
<g id="edge16" class="edge">
<title>Node10&#45;&gt;Node6</title>
<path fill="none" stroke="midnightblue" d="M588.37,-180.03C527.82,-167.88 439.97,-150.26 384.3,-139.09"/>
<polygon fill="midnightblue" stroke="midnightblue" points="384.79,-135.62 374.3,-137.09 383.41,-142.48 384.79,-135.62"/>
</g>
<!-- Node10&#45;&gt;Node8 -->
<g id="edge14" class="edge">
<title>Node10&#45;&gt;Node8</title>
<path fill="none" stroke="midnightblue" d="M588.11,-184.95C547.83,-177.82 496.66,-165.13 455.5,-143 437.49,-133.32 437.99,-124.09 421.5,-112 395.8,-93.16 379.15,-101.08 359.5,-76 349.09,-62.71 344.38,-43.87 342.25,-29.9"/>
<polygon fill="midnightblue" stroke="midnightblue" points="345.72,-29.44 341.04,-19.93 338.77,-30.28 345.72,-29.44"/>
</g>
<!-- Node11 -->
<g id="node11" class="node">
<title>Node11</title>
<g id="a_node11"><a xlink:title=" ">
<polygon fill="none" stroke="#bfbfbf" points="808.5,-56.5 808.5,-75.5 858.5,-75.5 858.5,-56.5 808.5,-56.5"/>
<text text-anchor="middle" x="833.5" y="-63.5" font-family="Helvetica,sans-Serif" font-size="10.00">cstdint</text>
</a>
</g>
</g>
<!-- Node10&#45;&gt;Node11 -->
<g id="edge12" class="edge">
<title>Node10&#45;&gt;Node11</title>
<path fill="none" stroke="midnightblue" d="M673.18,-179.39C685.83,-169.29 703.24,-155.34 718.5,-143 735.45,-129.29 738.59,-124.43 756.5,-112 773.14,-100.45 792.89,-88.95 808.22,-80.47"/>
<polygon fill="midnightblue" stroke="midnightblue" points="810.03,-83.47 817.12,-75.6 806.67,-77.33 810.03,-83.47"/>
</g>
<!-- Node10&#45;&gt;Node12 -->
<g id="edge13" class="edge">
<title>Node10&#45;&gt;Node12</title>
<path fill="none" stroke="midnightblue" d="M722.55,-190.05C913.61,-180.12 1448.16,-151.64 1464.5,-143 1488.56,-130.28 1505.89,-102.96 1515.31,-84.79"/>
<polygon fill="midnightblue" stroke="midnightblue" points="1518.58,-86.07 1519.83,-75.55 1512.3,-82.99 1518.58,-86.07"/>
</g>
<!-- Node13 -->
<g id="node13" class="node">
<title>Node13</title>
<g id="a_node13"><a xlink:title=" ">
<polygon fill="none" stroke="#bfbfbf" points="507.5,-118 507.5,-137 545.5,-137 545.5,-118 507.5,-118"/>
<text text-anchor="middle" x="526.5" y="-125" font-family="Helvetica,sans-Serif" font-size="10.00">map</text>
</a>
</g>
</g>
<!-- Node10&#45;&gt;Node13 -->
<g id="edge17" class="edge">
<title>Node10&#45;&gt;Node13</title>
<path fill="none" stroke="midnightblue" d="M627.51,-179.4C605.17,-168.14 574.13,-152.5 552.37,-141.54"/>
<polygon fill="midnightblue" stroke="midnightblue" points="553.89,-138.38 543.38,-137.01 550.74,-144.63 553.89,-138.38"/>
</g>
<!-- Node14 -->
<g id="node14" class="node">
<title>Node14</title>
<g id="a_node14"><a xlink:href="sprite_8h.html" target="_top" xlink:title=" ">
<polygon fill="none" stroke="black" points="601.5,-118 601.5,-137 709.5,-137 709.5,-118 601.5,-118"/>
<text text-anchor="middle" x="655.5" y="-125" font-family="Helvetica,sans-Serif" font-size="10.00">../Graphics/sprite.h</text>
</a>
</g>
</g>
<!-- Node10&#45;&gt;Node14 -->
<g id="edge19" class="edge">
<title>Node10&#45;&gt;Node14</title>
<path fill="none" stroke="midnightblue" d="M655.5,-179.4C655.5,-170.06 655.5,-157.71 655.5,-147.52"/>
<polygon fill="midnightblue" stroke="midnightblue" points="659,-147.19 655.5,-137.19 652,-147.19 659,-147.19"/>
</g>
<!-- Node18 -->
<g id="node18" class="node">
<title>Node18</title>
<g id="a_node18"><a xlink:href="texture_8h.html" target="_top" xlink:title=" ">
<polygon fill="none" stroke="black" points="465,-56.5 465,-75.5 526,-75.5 526,-56.5 465,-56.5"/>
<text text-anchor="middle" x="495.5" y="-63.5" font-family="Helvetica,sans-Serif" font-size="10.00">texture.h</text>
</a>
</g>
</g>
<!-- Node10&#45;&gt;Node18 -->
<g id="edge31" class="edge">
<title>Node10&#45;&gt;Node18</title>
<path fill="none" stroke="midnightblue" d="M637.82,-179.39C625.17,-169.29 607.76,-155.34 592.5,-143 575.55,-129.29 571.61,-125.5 554.5,-112 541.44,-101.7 526.55,-90.34 515,-81.62"/>
<polygon fill="midnightblue" stroke="midnightblue" points="516.99,-78.74 506.9,-75.52 512.78,-84.33 516.99,-78.74"/>
</g>
<!-- Node14&#45;&gt;Node4 -->
<g id="edge28" class="edge">
<title>Node14&#45;&gt;Node4</title>
<path fill="none" stroke="midnightblue" d="M709.61,-118.59C783.78,-107.66 914.24,-88.11 978.07,-76.13"/>
<polygon fill="midnightblue" stroke="midnightblue" points="978.93,-79.53 988.09,-74.2 977.61,-72.66 978.93,-79.53"/>
</g>
<!-- Node14&#45;&gt;Node5 -->
<g id="edge23" class="edge">
<title>Node14&#45;&gt;Node5</title>
<path fill="none" stroke="midnightblue" d="M619.97,-117.98C575.95,-107.42 500.91,-89.41 452.8,-77.87"/>
<polygon fill="midnightblue" stroke="midnightblue" points="453.51,-74.44 442.97,-75.51 451.87,-81.25 453.51,-74.44"/>
</g>
<!-- Node14&#45;&gt;Node11 -->
<g id="edge20" class="edge">
<title>Node14&#45;&gt;Node11</title>
<path fill="none" stroke="midnightblue" d="M681,-117.98C711.89,-107.65 764.06,-90.21 798.64,-78.65"/>
<polygon fill="midnightblue" stroke="midnightblue" points="799.96,-81.9 808.33,-75.41 797.74,-75.26 799.96,-81.9"/>
</g>
<!-- Node15 -->
<g id="node15" class="node">
<title>Node15</title>
<g id="a_node15"><a xlink:title=" ">
<polygon fill="none" stroke="#bfbfbf" points="606.5,-56.5 606.5,-75.5 656.5,-75.5 656.5,-56.5 606.5,-56.5"/>
<text text-anchor="middle" x="631.5" y="-63.5" font-family="Helvetica,sans-Serif" font-size="10.00">stdio.h</text>
</a>
</g>
</g>
<!-- Node14&#45;&gt;Node15 -->
<g id="edge21" class="edge">
<title>Node14&#45;&gt;Node15</title>
<path fill="none" stroke="midnightblue" d="M652.06,-117.98C648.6,-109.4 643.17,-95.93 638.75,-84.98"/>
<polygon fill="midnightblue" stroke="midnightblue" points="641.92,-83.47 634.93,-75.51 635.43,-86.09 641.92,-83.47"/>
</g>
<!-- Node16 -->
<g id="node16" class="node">
<title>Node16</title>
<g id="a_node16"><a xlink:title=" ">
<polygon fill="none" stroke="#bfbfbf" points="713,-56.5 713,-75.5 790,-75.5 790,-56.5 713,-56.5"/>
<text text-anchor="middle" x="751.5" y="-63.5" font-family="Helvetica,sans-Serif" font-size="10.00">glm/fwd.hpp</text>
</a>
</g>
</g>
<!-- Node14&#45;&gt;Node16 -->
<g id="edge22" class="edge">
<title>Node14&#45;&gt;Node16</title>
<path fill="none" stroke="midnightblue" d="M669.25,-117.98C684.87,-108.3 710.56,-92.37 729.08,-80.89"/>
<polygon fill="midnightblue" stroke="midnightblue" points="731.12,-83.75 737.77,-75.51 727.43,-77.8 731.12,-83.75"/>
</g>
<!-- Node17 -->
<g id="node17" class="node">
<title>Node17</title>
<g id="a_node17"><a xlink:title=" ">
<polygon fill="none" stroke="#bfbfbf" points="849.5,-0.5 849.5,-19.5 909.5,-19.5 909.5,-0.5 849.5,-0.5"/>
<text text-anchor="middle" x="879.5" y="-7.5" font-family="Helvetica,sans-Serif" font-size="10.00">iostream</text>
</a>
</g>
</g>
<!-- Node14&#45;&gt;Node17 -->
<g id="edge24" class="edge">
<title>Node14&#45;&gt;Node17</title>
<path fill="none" stroke="midnightblue" d="M659.17,-117.61C665.85,-102.52 681.49,-72 704.5,-56 744.88,-27.93 801.42,-17.36 839.2,-13.39"/>
<polygon fill="midnightblue" stroke="midnightblue" points="839.7,-16.86 849.33,-12.43 839.04,-9.89 839.7,-16.86"/>
</g>
<!-- Node14&#45;&gt;Node18 -->
<g id="edge25" class="edge">
<title>Node14&#45;&gt;Node18</title>
<path fill="none" stroke="midnightblue" d="M632.58,-117.98C605.13,-107.77 558.98,-90.61 527.9,-79.05"/>
<polygon fill="midnightblue" stroke="midnightblue" points="528.97,-75.71 518.38,-75.51 526.53,-82.28 528.97,-75.71"/>
</g>
<!-- Node19 -->
<g id="node19" class="node">
<title>Node19</title>
<g id="a_node19"><a xlink:title=" ">
<polygon fill="none" stroke="#bfbfbf" points="544.5,-56.5 544.5,-75.5 588.5,-75.5 588.5,-56.5 544.5,-56.5"/>
<text text-anchor="middle" x="566.5" y="-63.5" font-family="Helvetica,sans-Serif" font-size="10.00">string</text>
</a>
</g>
</g>
<!-- Node14&#45;&gt;Node19 -->
<g id="edge29" class="edge">
<title>Node14&#45;&gt;Node19</title>
<path fill="none" stroke="midnightblue" d="M642.75,-117.98C628.47,-108.43 605.1,-92.81 587.99,-81.37"/>
<polygon fill="midnightblue" stroke="midnightblue" points="589.49,-78.16 579.23,-75.51 585.6,-83.98 589.49,-78.16"/>
</g>
<!-- Node20 -->
<g id="node20" class="node">
<title>Node20</title>
<g id="a_node20"><a xlink:title=" ">
<polygon fill="none" stroke="#bfbfbf" points="877,-56.5 877,-75.5 970,-75.5 970,-56.5 877,-56.5"/>
<text text-anchor="middle" x="923.5" y="-63.5" font-family="Helvetica,sans-Serif" font-size="10.00">unordered_map</text>
</a>
</g>
</g>
<!-- Node14&#45;&gt;Node20 -->
<g id="edge30" class="edge">
<title>Node14&#45;&gt;Node20</title>
<path fill="none" stroke="midnightblue" d="M693.9,-117.98C741.66,-107.37 823.24,-89.26 875.2,-77.72"/>
<polygon fill="midnightblue" stroke="midnightblue" points="876.17,-81.09 885.17,-75.51 874.65,-74.26 876.17,-81.09"/>
</g>
<!-- Node18&#45;&gt;Node8 -->
<g id="edge27" class="edge">
<title>Node18&#45;&gt;Node8</title>
<path fill="none" stroke="midnightblue" d="M470.94,-56.44C444.98,-47.4 403.83,-33.06 374.7,-22.92"/>
<polygon fill="midnightblue" stroke="midnightblue" points="375.54,-19.5 364.95,-19.52 373.24,-26.11 375.54,-19.5"/>
</g>
<!-- Node18&#45;&gt;Node17 -->
<g id="edge26" class="edge">
<title>Node18&#45;&gt;Node17</title>
<path fill="none" stroke="midnightblue" d="M526.02,-57.83C529.21,-57.17 532.42,-56.55 535.5,-56 644.76,-36.6 774.93,-21.82 839.32,-15.05"/>
<polygon fill="midnightblue" stroke="midnightblue" points="839.87,-18.52 849.45,-14 839.14,-11.55 839.87,-18.52"/>
</g>
<!-- Node21&#45;&gt;Node3 -->
<g id="edge36" class="edge">
<title>Node21&#45;&gt;Node3</title>
<path fill="none" stroke="midnightblue" d="M982.96,-179.48C941.92,-167.62 883.89,-150.86 845.75,-139.84"/>
<polygon fill="midnightblue" stroke="midnightblue" points="846.6,-136.44 836.02,-137.03 844.66,-143.17 846.6,-136.44"/>
</g>
<!-- Node21&#45;&gt;Node17 -->
<g id="edge35" class="edge">
<title>Node21&#45;&gt;Node17</title>
<path fill="none" stroke="midnightblue" d="M1040.36,-179.33C1055.98,-152.33 1084.18,-92.94 1055.5,-56 1039,-34.75 966.33,-21.84 919.68,-15.59"/>
<polygon fill="midnightblue" stroke="midnightblue" points="919.95,-12.09 909.58,-14.28 919.05,-19.04 919.95,-12.09"/>
</g>
<!-- Node22 -->
<g id="node22" class="node">
<title>Node22</title>
<g id="a_node22"><a xlink:title=" ">
<polygon fill="none" stroke="#bfbfbf" points="1103,-56.5 1103,-75.5 1150,-75.5 1150,-56.5 1103,-56.5"/>
<text text-anchor="middle" x="1126.5" y="-63.5" font-family="Helvetica,sans-Serif" font-size="10.00">vector</text>
</a>
</g>
</g>
<!-- Node21&#45;&gt;Node22 -->
<g id="edge34" class="edge">
<title>Node21&#45;&gt;Node22</title>
<path fill="none" stroke="midnightblue" d="M1046.63,-179.2C1056.53,-169.46 1069.45,-156.03 1079.5,-143 1093.96,-124.26 1107.88,-100.86 1116.76,-85.01"/>
<polygon fill="midnightblue" stroke="midnightblue" points="1120.07,-86.26 1121.83,-75.81 1113.94,-82.88 1120.07,-86.26"/>
</g>
<!-- Node23&#45;&gt;Node3 -->
<g id="edge38" class="edge">
<title>Node23&#45;&gt;Node3</title>
<path fill="none" stroke="midnightblue" d="M918.29,-246.49C900.17,-237.77 878.11,-225.29 861.5,-210 841.25,-191.35 824.69,-163.86 815.2,-146.07"/>
<polygon fill="midnightblue" stroke="midnightblue" points="818.26,-144.36 810.57,-137.07 812.04,-147.56 818.26,-144.36"/>
</g>
<!-- Node23&#45;&gt;Node4 -->
<g id="edge41" class="edge">
<title>Node23&#45;&gt;Node4</title>
<path fill="none" stroke="midnightblue" d="M954.03,-246.46C957.15,-230.06 962.98,-202.22 970.5,-179 981.55,-144.86 998.68,-106.63 1008.92,-84.82"/>
<polygon fill="midnightblue" stroke="midnightblue" points="1012.2,-86.06 1013.34,-75.53 1005.88,-83.05 1012.2,-86.06"/>
</g>
<!-- Node23&#45;&gt;Node16 -->
<g id="edge40" class="edge">
<title>Node23&#45;&gt;Node16</title>
<path fill="none" stroke="midnightblue" d="M945.83,-246.24C933.63,-217.23 902.25,-150.79 856.5,-112 838.56,-96.79 814.71,-86.01 794.27,-78.83"/>
<polygon fill="midnightblue" stroke="midnightblue" points="795.15,-75.43 784.55,-75.59 792.93,-82.07 795.15,-75.43"/>
</g>
<!-- Node23&#45;&gt;Node21 -->
<g id="edge39" class="edge">
<title>Node23&#45;&gt;Node21</title>
<path fill="none" stroke="midnightblue" d="M968.86,-246.4C979.76,-237.54 994.01,-225.96 1006.16,-216.09"/>
<polygon fill="midnightblue" stroke="midnightblue" points="1008.62,-218.6 1014.18,-209.58 1004.21,-213.17 1008.62,-218.6"/>
</g>
<!-- Node24&#45;&gt;Node4 -->
<g id="edge46" class="edge">
<title>Node24&#45;&gt;Node4</title>
<path fill="none" stroke="midnightblue" d="M1230.66,-180.16C1197.75,-171.86 1157.37,-159.59 1123.5,-143 1089.51,-126.36 1054.73,-99.05 1034.67,-82.1"/>
<polygon fill="midnightblue" stroke="midnightblue" points="1036.88,-79.39 1027.02,-75.53 1032.32,-84.7 1036.88,-79.39"/>
</g>
<!-- Node24&#45;&gt;Node17 -->
<g id="edge45" class="edge">
<title>Node24&#45;&gt;Node17</title>
<path fill="none" stroke="midnightblue" d="M1356.26,-180.48C1359.38,-179.95 1362.47,-179.45 1365.5,-179 1445.23,-167.03 1672.4,-202.77 1726.5,-143 1752.45,-114.33 1753.11,-84.06 1726.5,-56 1698.43,-26.4 1084.11,-14.32 919.68,-11.61"/>
<polygon fill="midnightblue" stroke="midnightblue" points="919.56,-8.11 909.51,-11.45 919.45,-15.11 919.56,-8.11"/>
</g>
<!-- Node25 -->
<g id="node25" class="node">
<title>Node25</title>
<g id="a_node25"><a xlink:title=" ">
<polygon fill="none" stroke="#bfbfbf" points="1512,-118 1512,-137 1595,-137 1595,-118 1512,-118"/>
<text text-anchor="middle" x="1553.5" y="-125" font-family="Helvetica,sans-Serif" font-size="10.00">GLFW/glfw3.h</text>
</a>
</g>
</g>
<!-- Node24&#45;&gt;Node25 -->
<g id="edge43" class="edge">
<title>Node24&#45;&gt;Node25</title>
<path fill="none" stroke="midnightblue" d="M1351.14,-179.41C1392.02,-169.37 1448.16,-155.49 1497.5,-143 1501.83,-141.9 1506.35,-140.75 1510.86,-139.59"/>
<polygon fill="midnightblue" stroke="midnightblue" points="1511.84,-142.95 1520.65,-137.07 1510.09,-136.18 1511.84,-142.95"/>
</g>
<!-- Node26 -->
<g id="node26" class="node">
<title>Node26</title>
<g id="a_node26"><a xlink:title=" ">
<polygon fill="none" stroke="#bfbfbf" points="1249,-56.5 1249,-75.5 1338,-75.5 1338,-56.5 1249,-56.5"/>
<text text-anchor="middle" x="1293.5" y="-63.5" font-family="Helvetica,sans-Serif" font-size="10.00">box2d/box2d.h</text>
</a>
</g>
</g>
<!-- Node24&#45;&gt;Node26 -->
<g id="edge44" class="edge">
<title>Node24&#45;&gt;Node26</title>
<path fill="none" stroke="midnightblue" d="M1293.5,-179.48C1293.5,-156.72 1293.5,-111.7 1293.5,-86.06"/>
<polygon fill="midnightblue" stroke="midnightblue" points="1297,-85.79 1293.5,-75.79 1290,-85.79 1297,-85.79"/>
</g>
<!-- Node27 -->
<g id="node27" class="node">
<title>Node27</title>
<g id="a_node27"><a xlink:href="Orthographic__camera_8h.html" target="_top" xlink:title=" ">
<polygon fill="none" stroke="black" points="1321.5,-112.5 1321.5,-142.5 1455.5,-142.5 1455.5,-112.5 1321.5,-112.5"/>
<text text-anchor="start" x="1329.5" y="-130.5" font-family="Helvetica,sans-Serif" font-size="10.00">../../include/Camera</text>
<text text-anchor="middle" x="1388.5" y="-119.5" font-family="Helvetica,sans-Serif" font-size="10.00">/Orthographic_camera.h</text>
</a>
</g>
</g>
<!-- Node24&#45;&gt;Node27 -->
<g id="edge47" class="edge">
<title>Node24&#45;&gt;Node27</title>
<path fill="none" stroke="midnightblue" d="M1314.11,-179.4C1327.43,-170.28 1344.96,-158.29 1359.66,-148.24"/>
<polygon fill="midnightblue" stroke="midnightblue" points="1361.65,-151.11 1367.93,-142.58 1357.7,-145.33 1361.65,-151.11"/>
</g>
<!-- Node28 -->
<g id="node28" class="node">
<title>Node28</title>
<g id="a_node28"><a xlink:href="state__machine_8h.html" target="_top" xlink:title=" ">
<polygon fill="none" stroke="black" points="1613.5,-112.5 1613.5,-142.5 1717.5,-142.5 1717.5,-112.5 1613.5,-112.5"/>
<text text-anchor="start" x="1621.5" y="-130.5" font-family="Helvetica,sans-Serif" font-size="10.00">../../include/States</text>
<text text-anchor="middle" x="1665.5" y="-119.5" font-family="Helvetica,sans-Serif" font-size="10.00">/state_machine.h</text>
</a>
</g>
</g>
<!-- Node24&#45;&gt;Node28 -->
<g id="edge50" class="edge">
<title>Node24&#45;&gt;Node28</title>
<path fill="none" stroke="midnightblue" d="M1356.29,-180.66C1359.4,-180.09 1362.49,-179.53 1365.5,-179 1468.2,-160.94 1497.35,-163.28 1603.49,-143.1"/>
<polygon fill="midnightblue" stroke="midnightblue" points="1604.16,-146.53 1613.32,-141.21 1602.84,-139.66 1604.16,-146.53"/>
</g>
<!-- Node31 -->
<g id="node31" class="node">
<title>Node31</title>
<g id="a_node31"><a xlink:href="LoadingGameObjects_8h.html" target="_top" xlink:title=" ">
<polygon fill="none" stroke="black" points="1132,-112.5 1132,-142.5 1265,-142.5 1265,-112.5 1132,-112.5"/>
<text text-anchor="start" x="1140" y="-130.5" font-family="Helvetica,sans-Serif" font-size="10.00">../../include/Loaders</text>
<text text-anchor="middle" x="1198.5" y="-119.5" font-family="Helvetica,sans-Serif" font-size="10.00">/LoadingGameObjects.h</text>
</a>
</g>
</g>
<!-- Node24&#45;&gt;Node31 -->
<g id="edge55" class="edge">
<title>Node24&#45;&gt;Node31</title>
<path fill="none" stroke="midnightblue" d="M1272.89,-179.4C1259.57,-170.28 1242.04,-158.29 1227.34,-148.24"/>
<polygon fill="midnightblue" stroke="midnightblue" points="1229.3,-145.33 1219.07,-142.58 1225.35,-151.11 1229.3,-145.33"/>
</g>
<!-- Node27&#45;&gt;Node5 -->
<g id="edge49" class="edge">
<title>Node27&#45;&gt;Node5</title>
<path fill="none" stroke="midnightblue" d="M1321.39,-117.03C1306.01,-115.12 1289.71,-113.3 1274.5,-112 914.75,-81.27 819.18,-117.02 456.7,-75.96"/>
<polygon fill="midnightblue" stroke="midnightblue" points="457.06,-72.48 446.72,-74.82 456.26,-79.44 457.06,-72.48"/>
</g>
<!-- Node27&#45;&gt;Node12 -->
<g id="edge48" class="edge">
<title>Node27&#45;&gt;Node12</title>
<path fill="none" stroke="midnightblue" d="M1420.49,-112.4C1442.94,-102.51 1472.71,-89.38 1494.48,-79.79"/>
<polygon fill="midnightblue" stroke="midnightblue" points="1496.12,-82.89 1503.86,-75.66 1493.29,-76.49 1496.12,-82.89"/>
</g>
<!-- Node28&#45;&gt;Node4 -->
<g id="edge52" class="edge">
<title>Node28&#45;&gt;Node4</title>
<path fill="none" stroke="midnightblue" d="M1613.37,-113.52C1610.38,-112.96 1607.41,-112.44 1604.5,-112 1379.89,-77.61 1320.74,-97.2 1094.5,-76 1082.27,-74.85 1068.97,-73.38 1056.93,-71.96"/>
<polygon fill="midnightblue" stroke="midnightblue" points="1057.06,-68.45 1046.72,-70.73 1056.23,-75.4 1057.06,-68.45"/>
</g>
<!-- Node28&#45;&gt;Node12 -->
<g id="edge51" class="edge">
<title>Node28&#45;&gt;Node12</title>
<path fill="none" stroke="midnightblue" d="M1631.85,-112.4C1608.02,-102.42 1576.35,-89.15 1553.41,-79.53"/>
<polygon fill="midnightblue" stroke="midnightblue" points="1554.74,-76.29 1544.16,-75.66 1552.03,-82.75 1554.74,-76.29"/>
</g>
<!-- Node29 -->
<g id="node29" class="node">
<title>Node29</title>
<g id="a_node29"><a xlink:title=" ">
<polygon fill="none" stroke="#bfbfbf" points="1606,-56.5 1606,-75.5 1649,-75.5 1649,-56.5 1606,-56.5"/>
<text text-anchor="middle" x="1627.5" y="-63.5" font-family="Helvetica,sans-Serif" font-size="10.00">stack</text>
</a>
</g>
</g>
<!-- Node28&#45;&gt;Node29 -->
<g id="edge53" class="edge">
<title>Node28&#45;&gt;Node29</title>
<path fill="none" stroke="midnightblue" d="M1656.49,-112.4C1651.09,-103.93 1644.17,-93.1 1638.45,-84.14"/>
<polygon fill="midnightblue" stroke="midnightblue" points="1641.36,-82.2 1633.03,-75.66 1635.46,-85.97 1641.36,-82.2"/>
</g>
<!-- Node30 -->
<g id="node30" class="node">
<title>Node30</title>
<g id="a_node30"><a xlink:href="state_8h.html" target="_top" xlink:title=" ">
<polygon fill="none" stroke="black" points="1667.5,-56.5 1667.5,-75.5 1717.5,-75.5 1717.5,-56.5 1667.5,-56.5"/>
<text text-anchor="middle" x="1692.5" y="-63.5" font-family="Helvetica,sans-Serif" font-size="10.00">state.h</text>
</a>
</g>
</g>
<!-- Node28&#45;&gt;Node30 -->
<g id="edge54" class="edge">
<title>Node28&#45;&gt;Node30</title>
<path fill="none" stroke="midnightblue" d="M1671.9,-112.4C1675.62,-104.2 1680.35,-93.78 1684.33,-84.99"/>
<polygon fill="midnightblue" stroke="midnightblue" points="1687.63,-86.21 1688.57,-75.66 1681.25,-83.32 1687.63,-86.21"/>
</g>
<!-- Node31&#45;&gt;Node4 -->
<g id="edge56" class="edge">
<title>Node31&#45;&gt;Node4</title>
<path fill="none" stroke="midnightblue" d="M1155.61,-112.4C1124.47,-102.16 1082.81,-88.47 1053.42,-78.81"/>
<polygon fill="midnightblue" stroke="midnightblue" points="1054.17,-75.37 1043.57,-75.57 1051.98,-82.02 1054.17,-75.37"/>
</g>
<!-- Node31&#45;&gt;Node20 -->
<g id="edge58" class="edge">
<title>Node31&#45;&gt;Node20</title>
<path fill="none" stroke="midnightblue" d="M1133.68,-112.47C1084.37,-101.81 1017.56,-87.35 972.62,-77.63"/>
<polygon fill="midnightblue" stroke="midnightblue" points="973.33,-74.2 962.82,-75.51 971.85,-81.04 973.33,-74.2"/>
</g>
<!-- Node31&#45;&gt;Node22 -->
<g id="edge57" class="edge">
<title>Node31&#45;&gt;Node22</title>
<path fill="none" stroke="midnightblue" d="M1181.44,-112.4C1170.44,-103.31 1156.13,-91.49 1144.88,-82.19"/>
<polygon fill="midnightblue" stroke="midnightblue" points="1146.91,-79.33 1136.98,-75.66 1142.46,-84.73 1146.91,-79.33"/>
</g>
<!-- Node31&#45;&gt;Node26 -->
<g id="edge60" class="edge">
<title>Node31&#45;&gt;Node26</title>
<path fill="none" stroke="midnightblue" d="M1221.01,-112.4C1236.1,-102.95 1255.89,-90.56 1270.97,-81.11"/>
<polygon fill="midnightblue" stroke="midnightblue" points="1273.06,-83.93 1279.68,-75.66 1269.34,-78 1273.06,-83.93"/>
</g>
<!-- Node32 -->
<g id="node32" class="node">
<title>Node32</title>
<g id="a_node32"><a xlink:title=" ">
<polygon fill="none" stroke="#bfbfbf" points="1168,-56.5 1168,-75.5 1231,-75.5 1231,-56.5 1168,-56.5"/>
<text text-anchor="middle" x="1199.5" y="-63.5" font-family="Helvetica,sans-Serif" font-size="10.00">tinyxml.h</text>
</a>
</g>
</g>
<!-- Node31&#45;&gt;Node32 -->
<g id="edge59" class="edge">
<title>Node31&#45;&gt;Node32</title>
<path fill="none" stroke="midnightblue" d="M1198.74,-112.4C1198.87,-104.47 1199.04,-94.46 1199.18,-85.86"/>
<polygon fill="midnightblue" stroke="midnightblue" points="1202.69,-85.72 1199.35,-75.66 1195.69,-85.6 1202.69,-85.72"/>
</g>
<!-- Node33&#45;&gt;Node11 -->
<g id="edge63" class="edge">
<title>Node33&#45;&gt;Node11</title>
<path fill="none" stroke="midnightblue" d="M1260.05,-246.43C1173.82,-210.16 945.06,-113.93 863.17,-79.48"/>
<polygon fill="midnightblue" stroke="midnightblue" points="864.51,-76.25 853.94,-75.6 861.8,-82.7 864.51,-76.25"/>
</g>
<!-- Node33&#45;&gt;Node24 -->
<g id="edge65" class="edge">
<title>Node33&#45;&gt;Node24</title>
<path fill="none" stroke="midnightblue" d="M1293.5,-246.4C1293.5,-238.64 1293.5,-228.81 1293.5,-219.86"/>
<polygon fill="midnightblue" stroke="midnightblue" points="1297,-219.58 1293.5,-209.58 1290,-219.58 1297,-219.58"/>
</g>
<!-- Node33&#45;&gt;Node30 -->
<g id="edge62" class="edge">
<title>Node33&#45;&gt;Node30</title>
<path fill="none" stroke="midnightblue" d="M1345.66,-254.21C1450.36,-240.39 1680.07,-203.71 1726.5,-143 1740.56,-124.62 1723.74,-99.51 1709.16,-83.27"/>
<polygon fill="midnightblue" stroke="midnightblue" points="1711.35,-80.49 1701.92,-75.67 1706.28,-85.32 1711.35,-80.49"/>
</g>
<!-- Node34 -->
<g id="node34" class="node">
<title>Node34</title>
<g id="a_node34"><a xlink:title=" ">
<polygon fill="none" stroke="#bfbfbf" points="1374.5,-185 1374.5,-204 1418.5,-204 1418.5,-185 1374.5,-185"/>
<text text-anchor="middle" x="1396.5" y="-192" font-family="Helvetica,sans-Serif" font-size="10.00">ctime</text>
</a>
</g>
</g>
<!-- Node33&#45;&gt;Node34 -->
<g id="edge64" class="edge">
<title>Node33&#45;&gt;Node34</title>
<path fill="none" stroke="midnightblue" d="M1315.85,-246.4C1333.12,-235.5 1356.92,-220.48 1374.18,-209.58"/>
<polygon fill="midnightblue" stroke="midnightblue" points="1376.43,-212.3 1383.02,-204.01 1372.69,-206.38 1376.43,-212.3"/>
</g>
</g>
</svg>
