<?xml version="1.0" encoding="UTF-8" standalone="no"?>
<!DOCTYPE svg PUBLIC "-//W3C//DTD SVG 1.1//EN"
 "http://www.w3.org/Graphics/SVG/1.1/DTD/svg11.dtd">
<!-- Generated by graphviz version 2.43.0 (0)
 -->
<!-- Title: /home/fnky/C0de/component_engine/include/Graphics/sprite.h Pages: 1 -->
<svg width="2468pt" height="206pt"
 viewBox="0.00 0.00 2468.00 206.00" xmlns="http://www.w3.org/2000/svg" xmlns:xlink="http://www.w3.org/1999/xlink">
<g id="graph0" class="graph" transform="scale(1 1) rotate(0) translate(4 202)">
<title>/home/fnky/C0de/component_engine/include/Graphics/sprite.h</title>
<!-- Node1 -->
<g id="node1" class="node">
<title>Node1</title>
<g id="a_node1"><a xlink:title=" ">
<polygon fill="#bfbfbf" stroke="black" points="1227,-156.5 1227,-197.5 1384,-197.5 1384,-156.5 1227,-156.5"/>
<text text-anchor="start" x="1235" y="-185.5" font-family="Helvetica,sans-Serif" font-size="10.00">/home/fnky/C0de/component</text>
<text text-anchor="start" x="1235" y="-174.5" font-family="Helvetica,sans-Serif" font-size="10.00">_engine/include/Graphics</text>
<text text-anchor="middle" x="1305.5" y="-163.5" font-family="Helvetica,sans-Serif" font-size="10.00">/sprite.h</text>
</a>
</g>
</g>
<!-- Node2 -->
<g id="node2" class="node">
<title>Node2</title>
<g id="a_node2"><a xlink:href="RenderComponent_8h.html" target="_top" xlink:title=" ">
<polygon fill="none" stroke="black" points="1136.5,-78.5 1136.5,-119.5 1294.5,-119.5 1294.5,-78.5 1136.5,-78.5"/>
<text text-anchor="start" x="1144.5" y="-107.5" font-family="Helvetica,sans-Serif" font-size="10.00">/home/fnky/C0de/component</text>
<text text-anchor="start" x="1144.5" y="-96.5" font-family="Helvetica,sans-Serif" font-size="10.00">_engine/include/Components</text>
<text text-anchor="middle" x="1215.5" y="-85.5" font-family="Helvetica,sans-Serif" font-size="10.00">/RenderComponent.h</text>
</a>
</g>
</g>
<!-- Node1&#45;&gt;Node2 -->
<g id="edge1" class="edge">
<title>Node1&#45;&gt;Node2</title>
<path fill="none" stroke="midnightblue" d="M1274.45,-149.78C1262.68,-139.84 1249.51,-128.72 1238.6,-119.51"/>
<polygon fill="midnightblue" stroke="midnightblue" points="1272.42,-152.65 1282.32,-156.43 1276.94,-147.3 1272.42,-152.65"/>
</g>
<!-- Node17 -->
<g id="node17" class="node">
<title>Node17</title>
<g id="a_node17"><a xlink:href="sprite_8cpp.html" target="_top" xlink:title=" ">
<polygon fill="none" stroke="black" points="1312,-84 1312,-114 1481,-114 1481,-84 1312,-84"/>
<text text-anchor="start" x="1320" y="-102" font-family="Helvetica,sans-Serif" font-size="10.00">/home/fnky/C0de/component</text>
<text text-anchor="middle" x="1396.5" y="-91" font-family="Helvetica,sans-Serif" font-size="10.00">_engine/src/Graphics/sprite.cpp</text>
</a>
</g>
</g>
<!-- Node1&#45;&gt;Node17 -->
<g id="edge16" class="edge">
<title>Node1&#45;&gt;Node17</title>
<path fill="none" stroke="midnightblue" d="M1336.64,-149.99C1350.98,-138.02 1367.44,-124.27 1379.47,-114.23"/>
<polygon fill="midnightblue" stroke="midnightblue" points="1334.37,-147.33 1328.93,-156.43 1338.85,-152.7 1334.37,-147.33"/>
</g>
<!-- Node3 -->
<g id="node3" class="node">
<title>Node3</title>
<g id="a_node3"><a xlink:href="Animate__Actor_8cpp.html" target="_top" xlink:title=" ">
<polygon fill="none" stroke="black" points="0,-0.5 0,-41.5 157,-41.5 157,-0.5 0,-0.5"/>
<text text-anchor="start" x="8" y="-29.5" font-family="Helvetica,sans-Serif" font-size="10.00">/home/fnky/C0de/component</text>
<text text-anchor="start" x="8" y="-18.5" font-family="Helvetica,sans-Serif" font-size="10.00">_engine/src/Actors/Animate</text>
<text text-anchor="middle" x="78.5" y="-7.5" font-family="Helvetica,sans-Serif" font-size="10.00">_Actor.cpp</text>
</a>
</g>
</g>
<!-- Node2&#45;&gt;Node3 -->
<g id="edge2" class="edge">
<title>Node2&#45;&gt;Node3</title>
<path fill="none" stroke="midnightblue" d="M1126.31,-98.42C944.59,-98.13 518.79,-91.65 165.5,-42 162.74,-41.61 159.93,-41.18 157.11,-40.71"/>
<polygon fill="midnightblue" stroke="midnightblue" points="1126.35,-101.92 1136.35,-98.43 1126.35,-94.92 1126.35,-101.92"/>
</g>
<!-- Node4 -->
<g id="node4" class="node">
<title>Node4</title>
<g id="a_node4"><a xlink:href="Edge__Actor_8cpp.html" target="_top" xlink:title=" ">
<polygon fill="none" stroke="black" points="175,-0.5 175,-41.5 332,-41.5 332,-0.5 175,-0.5"/>
<text text-anchor="start" x="183" y="-29.5" font-family="Helvetica,sans-Serif" font-size="10.00">/home/fnky/C0de/component</text>
<text text-anchor="start" x="183" y="-18.5" font-family="Helvetica,sans-Serif" font-size="10.00">_engine/src/Actors/Edge</text>
<text text-anchor="middle" x="253.5" y="-7.5" font-family="Helvetica,sans-Serif" font-size="10.00">_Actor.cpp</text>
</a>
</g>
</g>
<!-- Node2&#45;&gt;Node4 -->
<g id="edge3" class="edge">
<title>Node2&#45;&gt;Node4</title>
<path fill="none" stroke="midnightblue" d="M1126.12,-97.05C967.24,-94.3 625.51,-83.6 340.5,-42 337.74,-41.6 334.94,-41.15 332.11,-40.67"/>
<polygon fill="midnightblue" stroke="midnightblue" points="1126.27,-100.55 1136.32,-97.22 1126.38,-93.55 1126.27,-100.55"/>
</g>
<!-- Node5 -->
<g id="node5" class="node">
<title>Node5</title>
<g id="a_node5"><a xlink:href="Gun__Actor_8cpp.html" target="_top" xlink:title=" ">
<polygon fill="none" stroke="black" points="350,-0.5 350,-41.5 507,-41.5 507,-0.5 350,-0.5"/>
<text text-anchor="start" x="358" y="-29.5" font-family="Helvetica,sans-Serif" font-size="10.00">/home/fnky/C0de/component</text>
<text text-anchor="start" x="358" y="-18.5" font-family="Helvetica,sans-Serif" font-size="10.00">_engine/src/Actors/Gun</text>
<text text-anchor="middle" x="428.5" y="-7.5" font-family="Helvetica,sans-Serif" font-size="10.00">_Actor.cpp</text>
</a>
</g>
</g>
<!-- Node2&#45;&gt;Node5 -->
<g id="edge4" class="edge">
<title>Node2&#45;&gt;Node5</title>
<path fill="none" stroke="midnightblue" d="M1126.15,-95.03C992.61,-89.65 733.34,-75.57 515.5,-42 512.74,-41.58 509.94,-41.11 507.12,-40.62"/>
<polygon fill="midnightblue" stroke="midnightblue" points="1126.2,-98.54 1136.33,-95.43 1126.48,-91.54 1126.2,-98.54"/>
</g>
<!-- Node6 -->
<g id="node6" class="node">
<title>Node6</title>
<g id="a_node6"><a xlink:href="NPC__Actor_8cpp.html" target="_top" xlink:title=" ">
<polygon fill="none" stroke="black" points="525,-0.5 525,-41.5 682,-41.5 682,-0.5 525,-0.5"/>
<text text-anchor="start" x="533" y="-29.5" font-family="Helvetica,sans-Serif" font-size="10.00">/home/fnky/C0de/component</text>
<text text-anchor="start" x="533" y="-18.5" font-family="Helvetica,sans-Serif" font-size="10.00">_engine/src/Actors/NPC</text>
<text text-anchor="middle" x="603.5" y="-7.5" font-family="Helvetica,sans-Serif" font-size="10.00">_Actor.cpp</text>
</a>
</g>
</g>
<!-- Node2&#45;&gt;Node6 -->
<g id="edge5" class="edge">
<title>Node2&#45;&gt;Node6</title>
<path fill="none" stroke="midnightblue" d="M1126.16,-91.75C1021.33,-83.65 842.51,-67.49 690.5,-42 687.75,-41.54 684.95,-41.04 682.14,-40.52"/>
<polygon fill="midnightblue" stroke="midnightblue" points="1126.15,-95.25 1136.38,-92.53 1126.68,-88.28 1126.15,-95.25"/>
</g>
<!-- Node7 -->
<g id="node7" class="node">
<title>Node7</title>
<g id="a_node7"><a xlink:href="Platform__Actor_8cpp.html" target="_top" xlink:title=" ">
<polygon fill="none" stroke="black" points="700,-0.5 700,-41.5 857,-41.5 857,-0.5 700,-0.5"/>
<text text-anchor="start" x="708" y="-29.5" font-family="Helvetica,sans-Serif" font-size="10.00">/home/fnky/C0de/component</text>
<text text-anchor="start" x="708" y="-18.5" font-family="Helvetica,sans-Serif" font-size="10.00">_engine/src/Actors/Platform</text>
<text text-anchor="middle" x="778.5" y="-7.5" font-family="Helvetica,sans-Serif" font-size="10.00">_Actor.cpp</text>
</a>
</g>
</g>
<!-- Node2&#45;&gt;Node7 -->
<g id="edge6" class="edge">
<title>Node2&#45;&gt;Node7</title>
<path fill="none" stroke="midnightblue" d="M1126.11,-85.39C1055.22,-74.99 953.73,-59.18 865.5,-42 862.76,-41.47 859.98,-40.91 857.17,-40.33"/>
<polygon fill="midnightblue" stroke="midnightblue" points="1125.95,-88.91 1136.35,-86.89 1126.96,-81.98 1125.95,-88.91"/>
</g>
<!-- Node8 -->
<g id="node8" class="node">
<title>Node8</title>
<g id="a_node8"><a xlink:href="Player__Actor_8cpp.html" target="_top" xlink:title=" ">
<polygon fill="none" stroke="black" points="875,-0.5 875,-41.5 1032,-41.5 1032,-0.5 875,-0.5"/>
<text text-anchor="start" x="883" y="-29.5" font-family="Helvetica,sans-Serif" font-size="10.00">/home/fnky/C0de/component</text>
<text text-anchor="start" x="883" y="-18.5" font-family="Helvetica,sans-Serif" font-size="10.00">_engine/src/Actors/Player</text>
<text text-anchor="middle" x="953.5" y="-7.5" font-family="Helvetica,sans-Serif" font-size="10.00">_Actor.cpp</text>
</a>
</g>
</g>
<!-- Node2&#45;&gt;Node8 -->
<g id="edge7" class="edge">
<title>Node2&#45;&gt;Node8</title>
<path fill="none" stroke="midnightblue" d="M1138.21,-75.58C1100.92,-64.76 1056.62,-51.91 1020.74,-41.51"/>
<polygon fill="midnightblue" stroke="midnightblue" points="1137.45,-79 1148.03,-78.43 1139.4,-72.28 1137.45,-79"/>
</g>
<!-- Node9 -->
<g id="node9" class="node">
<title>Node9</title>
<g id="a_node9"><a xlink:href="Projectile__Actor_8cpp.html" target="_top" xlink:title=" ">
<polygon fill="none" stroke="black" points="1050,-0.5 1050,-41.5 1207,-41.5 1207,-0.5 1050,-0.5"/>
<text text-anchor="start" x="1058" y="-29.5" font-family="Helvetica,sans-Serif" font-size="10.00">/home/fnky/C0de/component</text>
<text text-anchor="start" x="1058" y="-18.5" font-family="Helvetica,sans-Serif" font-size="10.00">_engine/src/Actors/Projectile</text>
<text text-anchor="middle" x="1128.5" y="-7.5" font-family="Helvetica,sans-Serif" font-size="10.00">_Actor.cpp</text>
</a>
</g>
</g>
<!-- Node2&#45;&gt;Node9 -->
<g id="edge8" class="edge">
<title>Node2&#45;&gt;Node9</title>
<path fill="none" stroke="midnightblue" d="M1185.48,-71.78C1174.11,-61.84 1161.37,-50.72 1150.83,-41.51"/>
<polygon fill="midnightblue" stroke="midnightblue" points="1183.26,-74.49 1193.1,-78.43 1187.87,-69.21 1183.26,-74.49"/>
</g>
<!-- Node10 -->
<g id="node10" class="node">
<title>Node10</title>
<g id="a_node10"><a xlink:href="Texture__Actor_8cpp.html" target="_top" xlink:title=" ">
<polygon fill="none" stroke="black" points="1225,-0.5 1225,-41.5 1382,-41.5 1382,-0.5 1225,-0.5"/>
<text text-anchor="start" x="1233" y="-29.5" font-family="Helvetica,sans-Serif" font-size="10.00">/home/fnky/C0de/component</text>
<text text-anchor="start" x="1233" y="-18.5" font-family="Helvetica,sans-Serif" font-size="10.00">_engine/src/Actors/Texture</text>
<text text-anchor="middle" x="1303.5" y="-7.5" font-family="Helvetica,sans-Serif" font-size="10.00">_Actor.cpp</text>
</a>
</g>
</g>
<!-- Node2&#45;&gt;Node10 -->
<g id="edge9" class="edge">
<title>Node2&#45;&gt;Node10</title>
<path fill="none" stroke="midnightblue" d="M1245.86,-71.78C1257.37,-61.84 1270.25,-50.72 1280.91,-41.51"/>
<polygon fill="midnightblue" stroke="midnightblue" points="1243.44,-69.24 1238.16,-78.43 1248.02,-74.54 1243.44,-69.24"/>
</g>
<!-- Node11 -->
<g id="node11" class="node">
<title>Node11</title>
<g id="a_node11"><a xlink:href="RenderComponent_8cpp.html" target="_top" xlink:title=" ">
<polygon fill="none" stroke="black" points="1400,-0.5 1400,-41.5 1557,-41.5 1557,-0.5 1400,-0.5"/>
<text text-anchor="start" x="1408" y="-29.5" font-family="Helvetica,sans-Serif" font-size="10.00">/home/fnky/C0de/component</text>
<text text-anchor="start" x="1408" y="-18.5" font-family="Helvetica,sans-Serif" font-size="10.00">_engine/src/Components</text>
<text text-anchor="middle" x="1478.5" y="-7.5" font-family="Helvetica,sans-Serif" font-size="10.00">/RenderComponent.cpp</text>
</a>
</g>
</g>
<!-- Node2&#45;&gt;Node11 -->
<g id="edge10" class="edge">
<title>Node2&#45;&gt;Node11</title>
<path fill="none" stroke="midnightblue" d="M1293.08,-75.58C1330.51,-64.76 1374.99,-51.91 1411,-41.51"/>
<polygon fill="midnightblue" stroke="midnightblue" points="1291.86,-72.29 1283.23,-78.43 1293.81,-79.01 1291.86,-72.29"/>
</g>
<!-- Node12 -->
<g id="node12" class="node">
<title>Node12</title>
<g id="a_node12"><a xlink:href="LoadingGameObjects_8cpp.html" target="_top" xlink:title=" ">
<polygon fill="none" stroke="black" points="1575.5,-0.5 1575.5,-41.5 1759.5,-41.5 1759.5,-0.5 1575.5,-0.5"/>
<text text-anchor="start" x="1583.5" y="-29.5" font-family="Helvetica,sans-Serif" font-size="10.00">/home/fnky/C0de/component</text>
<text text-anchor="start" x="1583.5" y="-18.5" font-family="Helvetica,sans-Serif" font-size="10.00">_engine/src/Loaders/LoadingGame</text>
<text text-anchor="middle" x="1667.5" y="-7.5" font-family="Helvetica,sans-Serif" font-size="10.00">Objects.cpp</text>
</a>
</g>
</g>
<!-- Node2&#45;&gt;Node12 -->
<g id="edge11" class="edge">
<title>Node2&#45;&gt;Node12</title>
<path fill="none" stroke="midnightblue" d="M1304.63,-77.87C1421.31,-57.14 1453.32,-60.93 1566.5,-42 1569.41,-41.51 1572.36,-41.01 1575.34,-40.48"/>
<polygon fill="midnightblue" stroke="midnightblue" points="1303.81,-74.47 1294.59,-79.68 1305.05,-81.36 1303.81,-74.47"/>
</g>
<!-- Node13 -->
<g id="node13" class="node">
<title>Node13</title>
<g id="a_node13"><a xlink:href="game__over__state_8cpp.html" target="_top" xlink:title=" ">
<polygon fill="none" stroke="black" points="1778,-0.5 1778,-41.5 1935,-41.5 1935,-0.5 1778,-0.5"/>
<text text-anchor="start" x="1786" y="-29.5" font-family="Helvetica,sans-Serif" font-size="10.00">/home/fnky/C0de/component</text>
<text text-anchor="start" x="1786" y="-18.5" font-family="Helvetica,sans-Serif" font-size="10.00">_engine/src/States/game</text>
<text text-anchor="middle" x="1856.5" y="-7.5" font-family="Helvetica,sans-Serif" font-size="10.00">_over_state.cpp</text>
</a>
</g>
</g>
<!-- Node2&#45;&gt;Node13 -->
<g id="edge12" class="edge">
<title>Node2&#45;&gt;Node13</title>
<path fill="none" stroke="midnightblue" d="M1304.46,-77.98C1510.2,-47.75 1566.76,-72.57 1768.5,-42 1771.6,-41.53 1774.75,-41.01 1777.93,-40.46"/>
<polygon fill="midnightblue" stroke="midnightblue" points="1303.92,-74.52 1294.55,-79.46 1304.96,-81.44 1303.92,-74.52"/>
</g>
<!-- Node14 -->
<g id="node14" class="node">
<title>Node14</title>
<g id="a_node14"><a xlink:href="game__play__state_8cpp.html" target="_top" xlink:title=" ">
<polygon fill="none" stroke="black" points="1953,-0.5 1953,-41.5 2110,-41.5 2110,-0.5 1953,-0.5"/>
<text text-anchor="start" x="1961" y="-29.5" font-family="Helvetica,sans-Serif" font-size="10.00">/home/fnky/C0de/component</text>
<text text-anchor="start" x="1961" y="-18.5" font-family="Helvetica,sans-Serif" font-size="10.00">_engine/src/States/game</text>
<text text-anchor="middle" x="2031.5" y="-7.5" font-family="Helvetica,sans-Serif" font-size="10.00">_play_state.cpp</text>
</a>
</g>
</g>
<!-- Node2&#45;&gt;Node14 -->
<g id="edge13" class="edge">
<title>Node2&#45;&gt;Node14</title>
<path fill="none" stroke="midnightblue" d="M1304.7,-77.97C1587.86,-39.26 1665.31,-81.64 1944.5,-42 1947.26,-41.61 1950.07,-41.17 1952.89,-40.7"/>
<polygon fill="midnightblue" stroke="midnightblue" points="1303.96,-74.54 1294.54,-79.38 1304.92,-81.47 1303.96,-74.54"/>
</g>
<!-- Node15 -->
<g id="node15" class="node">
<title>Node15</title>
<g id="a_node15"><a xlink:href="main__menu__state_8cpp.html" target="_top" xlink:title=" ">
<polygon fill="none" stroke="black" points="2128,-0.5 2128,-41.5 2285,-41.5 2285,-0.5 2128,-0.5"/>
<text text-anchor="start" x="2136" y="-29.5" font-family="Helvetica,sans-Serif" font-size="10.00">/home/fnky/C0de/component</text>
<text text-anchor="start" x="2136" y="-18.5" font-family="Helvetica,sans-Serif" font-size="10.00">_engine/src/States/main</text>
<text text-anchor="middle" x="2206.5" y="-7.5" font-family="Helvetica,sans-Serif" font-size="10.00">_menu_state.cpp</text>
</a>
</g>
</g>
<!-- Node2&#45;&gt;Node15 -->
<g id="edge14" class="edge">
<title>Node2&#45;&gt;Node15</title>
<path fill="none" stroke="midnightblue" d="M1304.46,-78.01C1665.04,-30.68 1763.03,-90.43 2119.5,-42 2122.26,-41.62 2125.07,-41.2 2127.9,-40.74"/>
<polygon fill="midnightblue" stroke="midnightblue" points="1303.98,-74.55 1294.53,-79.34 1304.91,-81.48 1303.98,-74.55"/>
</g>
<!-- Node16 -->
<g id="node16" class="node">
<title>Node16</title>
<g id="a_node16"><a xlink:href="splash__state_8cpp.html" target="_top" xlink:title=" ">
<polygon fill="none" stroke="black" points="2303,-0.5 2303,-41.5 2460,-41.5 2460,-0.5 2303,-0.5"/>
<text text-anchor="start" x="2311" y="-29.5" font-family="Helvetica,sans-Serif" font-size="10.00">/home/fnky/C0de/component</text>
<text text-anchor="start" x="2311" y="-18.5" font-family="Helvetica,sans-Serif" font-size="10.00">_engine/src/States/splash</text>
<text text-anchor="middle" x="2381.5" y="-7.5" font-family="Helvetica,sans-Serif" font-size="10.00">_state.cpp</text>
</a>
</g>
</g>
<!-- Node2&#45;&gt;Node16 -->
<g id="edge15" class="edge">
<title>Node2&#45;&gt;Node16</title>
<path fill="none" stroke="midnightblue" d="M1304.6,-78C1742.31,-22.1 1860.86,-99.19 2294.5,-42 2297.27,-41.64 2300.07,-41.22 2302.9,-40.77"/>
<polygon fill="midnightblue" stroke="midnightblue" points="1304,-74.55 1294.53,-79.31 1304.89,-81.49 1304,-74.55"/>
</g>
</g>
</svg>
