<?xml version="1.0" encoding="UTF-8" standalone="no"?>
<!DOCTYPE svg PUBLIC "-//W3C//DTD SVG 1.1//EN"
 "http://www.w3.org/Graphics/SVG/1.1/DTD/svg11.dtd">
<!-- Generated by graphviz version 2.43.0 (0)
 -->
<!-- Title: /home/fnky/C0de/component_engine/src/Graphics/sprite.cpp Pages: 1 -->
<svg width="1263pt" height="218pt"
 viewBox="0.00 0.00 1262.50 218.00" xmlns="http://www.w3.org/2000/svg" xmlns:xlink="http://www.w3.org/1999/xlink">
<g id="graph0" class="graph" transform="scale(1 1) rotate(0) translate(4 214)">
<title>/home/fnky/C0de/component_engine/src/Graphics/sprite.cpp</title>
<!-- Node1 -->
<g id="node1" class="node">
<title>Node1</title>
<g id="a_node1"><a xlink:title=" ">
<polygon fill="#bfbfbf" stroke="black" points="872,-179.5 872,-209.5 1041,-209.5 1041,-179.5 872,-179.5"/>
<text text-anchor="start" x="880" y="-197.5" font-family="Helvetica,sans-Serif" font-size="10.00">/home/fnky/C0de/component</text>
<text text-anchor="middle" x="956.5" y="-186.5" font-family="Helvetica,sans-Serif" font-size="10.00">_engine/src/Graphics/sprite.cpp</text>
</a>
</g>
</g>
<!-- Node2 -->
<g id="node2" class="node">
<title>Node2</title>
<g id="a_node2"><a xlink:href="sprite_8h.html" target="_top" xlink:title=" ">
<polygon fill="none" stroke="black" points="855.5,-112.5 855.5,-142.5 971.5,-142.5 971.5,-112.5 855.5,-112.5"/>
<text text-anchor="start" x="863.5" y="-130.5" font-family="Helvetica,sans-Serif" font-size="10.00">../../include/Graphics</text>
<text text-anchor="middle" x="913.5" y="-119.5" font-family="Helvetica,sans-Serif" font-size="10.00">/sprite.h</text>
</a>
</g>
</g>
<!-- Node1&#45;&gt;Node2 -->
<g id="edge1" class="edge">
<title>Node1&#45;&gt;Node2</title>
<path fill="none" stroke="midnightblue" d="M947.17,-179.4C941.7,-171.13 934.67,-160.51 928.45,-151.1"/>
<polygon fill="midnightblue" stroke="midnightblue" points="931.25,-148.99 922.81,-142.58 925.41,-152.85 931.25,-148.99"/>
</g>
<!-- Node8 -->
<g id="node8" class="node">
<title>Node8</title>
<g id="a_node8"><a xlink:href="texture_8h.html" target="_top" xlink:title=" ">
<polygon fill="none" stroke="black" points="1117,-56.5 1117,-75.5 1178,-75.5 1178,-56.5 1117,-56.5"/>
<text text-anchor="middle" x="1147.5" y="-63.5" font-family="Helvetica,sans-Serif" font-size="10.00">texture.h</text>
</a>
</g>
</g>
<!-- Node1&#45;&gt;Node8 -->
<g id="edge13" class="edge">
<title>Node1&#45;&gt;Node8</title>
<path fill="none" stroke="midnightblue" d="M977.67,-179.48C1014.2,-155.28 1088.71,-105.94 1125.68,-81.45"/>
<polygon fill="midnightblue" stroke="midnightblue" points="1127.83,-84.23 1134.23,-75.79 1123.96,-78.39 1127.83,-84.23"/>
</g>
<!-- Node10 -->
<g id="node10" class="node">
<title>Node10</title>
<g id="a_node10"><a xlink:title=" ">
<polygon fill="none" stroke="#bfbfbf" points="1196.5,-56.5 1196.5,-75.5 1254.5,-75.5 1254.5,-56.5 1196.5,-56.5"/>
<text text-anchor="middle" x="1225.5" y="-63.5" font-family="Helvetica,sans-Serif" font-size="10.00">memory</text>
</a>
</g>
</g>
<!-- Node1&#45;&gt;Node10 -->
<g id="edge14" class="edge">
<title>Node1&#45;&gt;Node10</title>
<path fill="none" stroke="midnightblue" d="M988.78,-179.41C1011.45,-169.44 1042.44,-155.64 1069.5,-143 1115.32,-121.61 1168.11,-95.6 1199.04,-80.22"/>
<polygon fill="midnightblue" stroke="midnightblue" points="1200.88,-83.21 1208.28,-75.62 1197.76,-76.95 1200.88,-83.21"/>
</g>
<!-- Node13 -->
<g id="node13" class="node">
<title>Node13</title>
<g id="a_node13"><a xlink:href="stb__image_8h.html" target="_top" xlink:title=" ">
<polygon fill="none" stroke="black" points="290.5,-112.5 290.5,-142.5 406.5,-142.5 406.5,-112.5 290.5,-112.5"/>
<text text-anchor="start" x="298.5" y="-130.5" font-family="Helvetica,sans-Serif" font-size="10.00">../../include/Graphics</text>
<text text-anchor="middle" x="348.5" y="-119.5" font-family="Helvetica,sans-Serif" font-size="10.00">/stb_image.h</text>
</a>
</g>
</g>
<!-- Node1&#45;&gt;Node13 -->
<g id="edge15" class="edge">
<title>Node1&#45;&gt;Node13</title>
<path fill="none" stroke="midnightblue" d="M871.96,-184.46C750.46,-171.47 528.8,-147.78 416.95,-135.82"/>
<polygon fill="midnightblue" stroke="midnightblue" points="417.11,-132.32 406.8,-134.73 416.37,-139.28 417.11,-132.32"/>
</g>
<!-- Node3 -->
<g id="node3" class="node">
<title>Node3</title>
<g id="a_node3"><a xlink:title=" ">
<polygon fill="none" stroke="#bfbfbf" points="856.5,-56.5 856.5,-75.5 906.5,-75.5 906.5,-56.5 856.5,-56.5"/>
<text text-anchor="middle" x="881.5" y="-63.5" font-family="Helvetica,sans-Serif" font-size="10.00">cstdint</text>
</a>
</g>
</g>
<!-- Node2&#45;&gt;Node3 -->
<g id="edge2" class="edge">
<title>Node2&#45;&gt;Node3</title>
<path fill="none" stroke="midnightblue" d="M905.92,-112.4C901.46,-104.11 895.78,-93.55 891.02,-84.71"/>
<polygon fill="midnightblue" stroke="midnightblue" points="893.98,-82.81 886.16,-75.66 887.81,-86.12 893.98,-82.81"/>
</g>
<!-- Node4 -->
<g id="node4" class="node">
<title>Node4</title>
<g id="a_node4"><a xlink:title=" ">
<polygon fill="none" stroke="#bfbfbf" points="576.5,-56.5 576.5,-75.5 626.5,-75.5 626.5,-56.5 576.5,-56.5"/>
<text text-anchor="middle" x="601.5" y="-63.5" font-family="Helvetica,sans-Serif" font-size="10.00">stdio.h</text>
</a>
</g>
</g>
<!-- Node2&#45;&gt;Node4 -->
<g id="edge3" class="edge">
<title>Node2&#45;&gt;Node4</title>
<path fill="none" stroke="midnightblue" d="M855.31,-116.5C799.94,-106.8 714.36,-91.35 640.5,-76 639.24,-75.74 637.95,-75.47 636.66,-75.19"/>
<polygon fill="midnightblue" stroke="midnightblue" points="637.16,-71.71 626.64,-72.97 635.65,-78.55 637.16,-71.71"/>
</g>
<!-- Node5 -->
<g id="node5" class="node">
<title>Node5</title>
<g id="a_node5"><a xlink:title=" ">
<polygon fill="none" stroke="#bfbfbf" points="925,-56.5 925,-75.5 1002,-75.5 1002,-56.5 925,-56.5"/>
<text text-anchor="middle" x="963.5" y="-63.5" font-family="Helvetica,sans-Serif" font-size="10.00">glm/fwd.hpp</text>
</a>
</g>
</g>
<!-- Node2&#45;&gt;Node5 -->
<g id="edge4" class="edge">
<title>Node2&#45;&gt;Node5</title>
<path fill="none" stroke="midnightblue" d="M925.35,-112.4C932.61,-103.75 941.95,-92.64 949.57,-83.58"/>
<polygon fill="midnightblue" stroke="midnightblue" points="952.47,-85.57 956.22,-75.66 947.11,-81.06 952.47,-85.57"/>
</g>
<!-- Node6 -->
<g id="node6" class="node">
<title>Node6</title>
<g id="a_node6"><a xlink:title=" ">
<polygon fill="none" stroke="#bfbfbf" points="1020.5,-56.5 1020.5,-75.5 1098.5,-75.5 1098.5,-56.5 1020.5,-56.5"/>
<text text-anchor="middle" x="1059.5" y="-63.5" font-family="Helvetica,sans-Serif" font-size="10.00">glm/glm.hpp</text>
</a>
</g>
</g>
<!-- Node2&#45;&gt;Node6 -->
<g id="edge5" class="edge">
<title>Node2&#45;&gt;Node6</title>
<path fill="none" stroke="midnightblue" d="M948.1,-112.4C972.6,-102.42 1005.16,-89.15 1028.75,-79.53"/>
<polygon fill="midnightblue" stroke="midnightblue" points="1030.32,-82.67 1038.26,-75.66 1027.67,-76.19 1030.32,-82.67"/>
</g>
<!-- Node7 -->
<g id="node7" class="node">
<title>Node7</title>
<g id="a_node7"><a xlink:title=" ">
<polygon fill="none" stroke="#bfbfbf" points="829.5,-0.5 829.5,-19.5 889.5,-19.5 889.5,-0.5 829.5,-0.5"/>
<text text-anchor="middle" x="859.5" y="-7.5" font-family="Helvetica,sans-Serif" font-size="10.00">iostream</text>
</a>
</g>
</g>
<!-- Node2&#45;&gt;Node7 -->
<g id="edge6" class="edge">
<title>Node2&#45;&gt;Node7</title>
<path fill="none" stroke="midnightblue" d="M855.34,-122.49C791.78,-116.76 695.97,-103.69 673.5,-76 632.89,-25.95 752.82,-14.36 818.97,-11.73"/>
<polygon fill="midnightblue" stroke="midnightblue" points="819.22,-15.23 829.09,-11.38 818.97,-8.23 819.22,-15.23"/>
</g>
<!-- Node2&#45;&gt;Node8 -->
<g id="edge7" class="edge">
<title>Node2&#45;&gt;Node8</title>
<path fill="none" stroke="midnightblue" d="M968.66,-112.47C1011.08,-101.69 1068.72,-87.03 1106.96,-77.31"/>
<polygon fill="midnightblue" stroke="midnightblue" points="1107.9,-80.68 1116.73,-74.82 1106.17,-73.9 1107.9,-80.68"/>
</g>
<!-- Node2&#45;&gt;Node10 -->
<g id="edge10" class="edge">
<title>Node2&#45;&gt;Node10</title>
<path fill="none" stroke="midnightblue" d="M971.66,-116.65C1024.96,-107.43 1106.3,-92.87 1186.24,-76.18"/>
<polygon fill="midnightblue" stroke="midnightblue" points="1187.42,-79.51 1196.49,-74.03 1185.98,-72.66 1187.42,-79.51"/>
</g>
<!-- Node11 -->
<g id="node11" class="node">
<title>Node11</title>
<g id="a_node11"><a xlink:title=" ">
<polygon fill="none" stroke="#bfbfbf" points="682.5,-56.5 682.5,-75.5 726.5,-75.5 726.5,-56.5 682.5,-56.5"/>
<text text-anchor="middle" x="704.5" y="-63.5" font-family="Helvetica,sans-Serif" font-size="10.00">string</text>
</a>
</g>
</g>
<!-- Node2&#45;&gt;Node11 -->
<g id="edge11" class="edge">
<title>Node2&#45;&gt;Node11</title>
<path fill="none" stroke="midnightblue" d="M863.6,-112.43C830.14,-102.98 784.82,-90.13 736.26,-76.21"/>
<polygon fill="midnightblue" stroke="midnightblue" points="737.09,-72.8 726.51,-73.41 735.16,-79.53 737.09,-72.8"/>
</g>
<!-- Node12 -->
<g id="node12" class="node">
<title>Node12</title>
<g id="a_node12"><a xlink:title=" ">
<polygon fill="none" stroke="#bfbfbf" points="745,-56.5 745,-75.5 838,-75.5 838,-56.5 745,-56.5"/>
<text text-anchor="middle" x="791.5" y="-63.5" font-family="Helvetica,sans-Serif" font-size="10.00">unordered_map</text>
</a>
</g>
</g>
<!-- Node2&#45;&gt;Node12 -->
<g id="edge12" class="edge">
<title>Node2&#45;&gt;Node12</title>
<path fill="none" stroke="midnightblue" d="M884.59,-112.4C864.48,-102.59 837.88,-89.62 818.26,-80.05"/>
<polygon fill="midnightblue" stroke="midnightblue" points="819.77,-76.9 809.25,-75.66 816.71,-83.19 819.77,-76.9"/>
</g>
<!-- Node8&#45;&gt;Node7 -->
<g id="edge8" class="edge">
<title>Node8&#45;&gt;Node7</title>
<path fill="none" stroke="midnightblue" d="M1116.95,-57.99C1113.77,-57.3 1110.57,-56.62 1107.5,-56 1034.44,-41.16 948.77,-26.14 899.65,-17.75"/>
<polygon fill="midnightblue" stroke="midnightblue" points="900.18,-14.29 889.74,-16.07 899.01,-21.19 900.18,-14.29"/>
</g>
<!-- Node9 -->
<g id="node9" class="node">
<title>Node9</title>
<g id="a_node9"><a xlink:title=" ">
<polygon fill="none" stroke="#bfbfbf" points="1112,-0.5 1112,-19.5 1183,-19.5 1183,-0.5 1112,-0.5"/>
<text text-anchor="middle" x="1147.5" y="-7.5" font-family="Helvetica,sans-Serif" font-size="10.00">glad/glad.h</text>
</a>
</g>
</g>
<!-- Node8&#45;&gt;Node9 -->
<g id="edge9" class="edge">
<title>Node8&#45;&gt;Node9</title>
<path fill="none" stroke="midnightblue" d="M1147.5,-56.08C1147.5,-49.01 1147.5,-38.86 1147.5,-29.99"/>
<polygon fill="midnightblue" stroke="midnightblue" points="1151,-29.75 1147.5,-19.75 1144,-29.75 1151,-29.75"/>
</g>
<!-- Node13&#45;&gt;Node4 -->
<g id="edge16" class="edge">
<title>Node13&#45;&gt;Node4</title>
<path fill="none" stroke="midnightblue" d="M406.72,-113.61C448.59,-104.22 506.64,-90.95 566.3,-76.24"/>
<polygon fill="midnightblue" stroke="midnightblue" points="567.41,-79.57 576.27,-73.77 565.72,-72.78 567.41,-79.57"/>
</g>
<!-- Node14 -->
<g id="node14" class="node">
<title>Node14</title>
<g id="a_node14"><a xlink:title=" ">
<polygon fill="none" stroke="#bfbfbf" points="357,-56.5 357,-75.5 410,-75.5 410,-56.5 357,-56.5"/>
<text text-anchor="middle" x="383.5" y="-63.5" font-family="Helvetica,sans-Serif" font-size="10.00">stdlib.h</text>
</a>
</g>
</g>
<!-- Node13&#45;&gt;Node14 -->
<g id="edge17" class="edge">
<title>Node13&#45;&gt;Node14</title>
<path fill="none" stroke="midnightblue" d="M356.79,-112.4C361.72,-104.02 368.01,-93.33 373.25,-84.42"/>
<polygon fill="midnightblue" stroke="midnightblue" points="376.35,-86.05 378.41,-75.66 370.32,-82.5 376.35,-86.05"/>
</g>
<!-- Node15 -->
<g id="node15" class="node">
<title>Node15</title>
<g id="a_node15"><a xlink:title=" ">
<polygon fill="none" stroke="#bfbfbf" points="428.5,-56.5 428.5,-75.5 484.5,-75.5 484.5,-56.5 428.5,-56.5"/>
<text text-anchor="middle" x="456.5" y="-63.5" font-family="Helvetica,sans-Serif" font-size="10.00">stdarg.h</text>
</a>
</g>
</g>
<!-- Node13&#45;&gt;Node15 -->
<g id="edge18" class="edge">
<title>Node13&#45;&gt;Node15</title>
<path fill="none" stroke="midnightblue" d="M374.09,-112.4C391.57,-102.77 414.59,-90.09 431.86,-80.58"/>
<polygon fill="midnightblue" stroke="midnightblue" points="433.72,-83.55 440.79,-75.66 430.34,-77.42 433.72,-83.55"/>
</g>
<!-- Node16 -->
<g id="node16" class="node">
<title>Node16</title>
<g id="a_node16"><a xlink:title=" ">
<polygon fill="none" stroke="#bfbfbf" points="502.5,-56.5 502.5,-75.5 558.5,-75.5 558.5,-56.5 502.5,-56.5"/>
<text text-anchor="middle" x="530.5" y="-63.5" font-family="Helvetica,sans-Serif" font-size="10.00">stddef.h</text>
</a>
</g>
</g>
<!-- Node13&#45;&gt;Node16 -->
<g id="edge19" class="edge">
<title>Node13&#45;&gt;Node16</title>
<path fill="none" stroke="midnightblue" d="M391.63,-112.4C423.08,-102.12 465.19,-88.35 494.77,-78.68"/>
<polygon fill="midnightblue" stroke="midnightblue" points="495.87,-82.01 504.28,-75.57 493.69,-75.35 495.87,-82.01"/>
</g>
<!-- Node17 -->
<g id="node17" class="node">
<title>Node17</title>
<g id="a_node17"><a xlink:title=" ">
<polygon fill="none" stroke="#bfbfbf" points="0,-56.5 0,-75.5 53,-75.5 53,-56.5 0,-56.5"/>
<text text-anchor="middle" x="26.5" y="-63.5" font-family="Helvetica,sans-Serif" font-size="10.00">string.h</text>
</a>
</g>
</g>
<!-- Node13&#45;&gt;Node17 -->
<g id="edge20" class="edge">
<title>Node13&#45;&gt;Node17</title>
<path fill="none" stroke="midnightblue" d="M290.25,-117.61C234.3,-108.76 147.19,-94.19 63.17,-76.24"/>
<polygon fill="midnightblue" stroke="midnightblue" points="63.72,-72.78 53.2,-74.09 62.24,-79.62 63.72,-72.78"/>
</g>
<!-- Node18 -->
<g id="node18" class="node">
<title>Node18</title>
<g id="a_node18"><a xlink:title=" ">
<polygon fill="none" stroke="#bfbfbf" points="71,-56.5 71,-75.5 124,-75.5 124,-56.5 71,-56.5"/>
<text text-anchor="middle" x="97.5" y="-63.5" font-family="Helvetica,sans-Serif" font-size="10.00">limits.h</text>
</a>
</g>
</g>
<!-- Node13&#45;&gt;Node18 -->
<g id="edge21" class="edge">
<title>Node13&#45;&gt;Node18</title>
<path fill="none" stroke="midnightblue" d="M290.2,-113.24C248.98,-103.77 192.17,-90.56 133.97,-76.33"/>
<polygon fill="midnightblue" stroke="midnightblue" points="134.78,-72.92 124.24,-73.94 133.12,-79.72 134.78,-72.92"/>
</g>
<!-- Node19 -->
<g id="node19" class="node">
<title>Node19</title>
<g id="a_node19"><a xlink:title=" ">
<polygon fill="none" stroke="#bfbfbf" points="142,-56.5 142,-75.5 193,-75.5 193,-56.5 142,-56.5"/>
<text text-anchor="middle" x="167.5" y="-63.5" font-family="Helvetica,sans-Serif" font-size="10.00">math.h</text>
</a>
</g>
</g>
<!-- Node13&#45;&gt;Node19 -->
<g id="edge22" class="edge">
<title>Node13&#45;&gt;Node19</title>
<path fill="none" stroke="midnightblue" d="M305.61,-112.4C274.28,-102.1 232.31,-88.31 202.89,-78.63"/>
<polygon fill="midnightblue" stroke="midnightblue" points="203.64,-75.2 193.05,-75.4 201.45,-81.85 203.64,-75.2"/>
</g>
<!-- Node20 -->
<g id="node20" class="node">
<title>Node20</title>
<g id="a_node20"><a xlink:title=" ">
<polygon fill="none" stroke="#bfbfbf" points="211.5,-56.5 211.5,-75.5 267.5,-75.5 267.5,-56.5 211.5,-56.5"/>
<text text-anchor="middle" x="239.5" y="-63.5" font-family="Helvetica,sans-Serif" font-size="10.00">assert.h</text>
</a>
</g>
</g>
<!-- Node13&#45;&gt;Node20 -->
<g id="edge23" class="edge">
<title>Node13&#45;&gt;Node20</title>
<path fill="none" stroke="midnightblue" d="M322.67,-112.4C305.03,-102.77 281.8,-90.09 264.37,-80.58"/>
<polygon fill="midnightblue" stroke="midnightblue" points="265.81,-77.38 255.36,-75.66 262.46,-83.52 265.81,-77.38"/>
</g>
<!-- Node21 -->
<g id="node21" class="node">
<title>Node21</title>
<g id="a_node21"><a xlink:title=" ">
<polygon fill="none" stroke="#bfbfbf" points="286,-56.5 286,-75.5 339,-75.5 339,-56.5 286,-56.5"/>
<text text-anchor="middle" x="312.5" y="-63.5" font-family="Helvetica,sans-Serif" font-size="10.00">stdint.h</text>
</a>
</g>
</g>
<!-- Node13&#45;&gt;Node21 -->
<g id="edge24" class="edge">
<title>Node13&#45;&gt;Node21</title>
<path fill="none" stroke="midnightblue" d="M339.97,-112.4C334.9,-104.02 328.43,-93.33 323.04,-84.42"/>
<polygon fill="midnightblue" stroke="midnightblue" points="325.91,-82.4 317.74,-75.66 319.92,-86.03 325.91,-82.4"/>
</g>
</g>
</svg>
