<?xml version="1.0" encoding="UTF-8" standalone="no"?>
<!DOCTYPE svg PUBLIC "-//W3C//DTD SVG 1.1//EN"
 "http://www.w3.org/Graphics/SVG/1.1/DTD/svg11.dtd">
<!-- Generated by graphviz version 2.43.0 (0)
 -->
<!-- Title: /home/fnky/C0de/component_engine/include/States/state_machine.h Pages: 1 -->
<svg width="1197pt" height="284pt"
 viewBox="0.00 0.00 1197.00 284.00" xmlns="http://www.w3.org/2000/svg" xmlns:xlink="http://www.w3.org/1999/xlink">
<g id="graph0" class="graph" transform="scale(1 1) rotate(0) translate(4 280)">
<title>/home/fnky/C0de/component_engine/include/States/state_machine.h</title>
<!-- Node1 -->
<g id="node1" class="node">
<title>Node1</title>
<g id="a_node1"><a xlink:title=" ">
<polygon fill="#bfbfbf" stroke="black" points="594,-234.5 594,-275.5 751,-275.5 751,-234.5 594,-234.5"/>
<text text-anchor="start" x="602" y="-263.5" font-family="Helvetica,sans-Serif" font-size="10.00">/home/fnky/C0de/component</text>
<text text-anchor="start" x="602" y="-252.5" font-family="Helvetica,sans-Serif" font-size="10.00">_engine/include/States</text>
<text text-anchor="middle" x="672.5" y="-241.5" font-family="Helvetica,sans-Serif" font-size="10.00">/state_machine.h</text>
</a>
</g>
</g>
<!-- Node2 -->
<g id="node2" class="node">
<title>Node2</title>
<g id="a_node2"><a xlink:href="GameData_8h.html" target="_top" xlink:title=" ">
<polygon fill="none" stroke="black" points="507,-156.5 507,-197.5 664,-197.5 664,-156.5 507,-156.5"/>
<text text-anchor="start" x="515" y="-185.5" font-family="Helvetica,sans-Serif" font-size="10.00">/home/fnky/C0de/component</text>
<text text-anchor="start" x="515" y="-174.5" font-family="Helvetica,sans-Serif" font-size="10.00">_engine/include/GameData</text>
<text text-anchor="middle" x="585.5" y="-163.5" font-family="Helvetica,sans-Serif" font-size="10.00">/GameData.h</text>
</a>
</g>
</g>
<!-- Node1&#45;&gt;Node2 -->
<g id="edge1" class="edge">
<title>Node1&#45;&gt;Node2</title>
<path fill="none" stroke="midnightblue" d="M642.48,-227.78C631.11,-217.84 618.37,-206.72 607.83,-197.51"/>
<polygon fill="midnightblue" stroke="midnightblue" points="640.26,-230.49 650.1,-234.43 644.87,-225.21 640.26,-230.49"/>
</g>
<!-- Node14 -->
<g id="node14" class="node">
<title>Node14</title>
<g id="a_node14"><a xlink:href="state__machine_8cpp.html" target="_top" xlink:title=" ">
<polygon fill="none" stroke="black" points="682,-156.5 682,-197.5 839,-197.5 839,-156.5 682,-156.5"/>
<text text-anchor="start" x="690" y="-185.5" font-family="Helvetica,sans-Serif" font-size="10.00">/home/fnky/C0de/component</text>
<text text-anchor="start" x="690" y="-174.5" font-family="Helvetica,sans-Serif" font-size="10.00">_engine/src/States/state</text>
<text text-anchor="middle" x="760.5" y="-163.5" font-family="Helvetica,sans-Serif" font-size="10.00">_machine.cpp</text>
</a>
</g>
</g>
<!-- Node1&#45;&gt;Node14 -->
<g id="edge23" class="edge">
<title>Node1&#45;&gt;Node14</title>
<path fill="none" stroke="midnightblue" d="M702.86,-227.78C714.37,-217.84 727.25,-206.72 737.91,-197.51"/>
<polygon fill="midnightblue" stroke="midnightblue" points="700.44,-225.24 695.16,-234.43 705.02,-230.54 700.44,-225.24"/>
</g>
<!-- Node3 -->
<g id="node3" class="node">
<title>Node3</title>
<g id="a_node3"><a xlink:href="game__over__state_8h.html" target="_top" xlink:title=" ">
<polygon fill="none" stroke="black" points="857,-78.5 857,-119.5 1014,-119.5 1014,-78.5 857,-78.5"/>
<text text-anchor="start" x="865" y="-107.5" font-family="Helvetica,sans-Serif" font-size="10.00">/home/fnky/C0de/component</text>
<text text-anchor="start" x="865" y="-96.5" font-family="Helvetica,sans-Serif" font-size="10.00">_engine/include/States</text>
<text text-anchor="middle" x="935.5" y="-85.5" font-family="Helvetica,sans-Serif" font-size="10.00">/game_over_state.h</text>
</a>
</g>
</g>
<!-- Node2&#45;&gt;Node3 -->
<g id="edge2" class="edge">
<title>Node2&#45;&gt;Node3</title>
<path fill="none" stroke="midnightblue" d="M674.45,-155.6C751.81,-138.89 773.07,-136.11 847.5,-120 850.56,-119.34 853.68,-118.66 856.84,-117.96"/>
<polygon fill="midnightblue" stroke="midnightblue" points="673.23,-152.28 664.2,-157.82 674.72,-159.12 673.23,-152.28"/>
</g>
<!-- Node4 -->
<g id="node4" class="node">
<title>Node4</title>
<g id="a_node4"><a xlink:href="main_8cpp.html" target="_top" xlink:title=" ">
<polygon fill="none" stroke="black" points="407,-6 407,-36 564,-36 564,-6 407,-6"/>
<text text-anchor="start" x="415" y="-24" font-family="Helvetica,sans-Serif" font-size="10.00">/home/fnky/C0de/component</text>
<text text-anchor="middle" x="485.5" y="-13" font-family="Helvetica,sans-Serif" font-size="10.00">_engine/src/main.cpp</text>
</a>
</g>
</g>
<!-- Node2&#45;&gt;Node4 -->
<g id="edge17" class="edge">
<title>Node2&#45;&gt;Node4</title>
<path fill="none" stroke="midnightblue" d="M529.81,-150.98C517.32,-142.83 505.43,-132.57 497.5,-120 481.13,-94.05 481.78,-56.48 483.66,-36.22"/>
<polygon fill="midnightblue" stroke="midnightblue" points="528.16,-154.07 538.52,-156.28 531.8,-148.09 528.16,-154.07"/>
</g>
<!-- Node5 -->
<g id="node5" class="node">
<title>Node5</title>
<g id="a_node5"><a xlink:href="game__over__state_8cpp.html" target="_top" xlink:title=" ">
<polygon fill="none" stroke="black" points="1032,-0.5 1032,-41.5 1189,-41.5 1189,-0.5 1032,-0.5"/>
<text text-anchor="start" x="1040" y="-29.5" font-family="Helvetica,sans-Serif" font-size="10.00">/home/fnky/C0de/component</text>
<text text-anchor="start" x="1040" y="-18.5" font-family="Helvetica,sans-Serif" font-size="10.00">_engine/src/States/game</text>
<text text-anchor="middle" x="1110.5" y="-7.5" font-family="Helvetica,sans-Serif" font-size="10.00">_over_state.cpp</text>
</a>
</g>
</g>
<!-- Node2&#45;&gt;Node5 -->
<g id="edge18" class="edge">
<title>Node2&#45;&gt;Node5</title>
<path fill="none" stroke="midnightblue" d="M674.2,-156.02C773.32,-143.98 990.27,-166.54 1059.5,-120 1086.56,-101.81 1100.17,-64.56 1106.26,-41.59"/>
<polygon fill="midnightblue" stroke="midnightblue" points="673.54,-152.57 664.13,-157.43 674.52,-159.51 673.54,-152.57"/>
</g>
<!-- Node6 -->
<g id="node6" class="node">
<title>Node6</title>
<g id="a_node6"><a xlink:href="game__play__state_8h.html" target="_top" xlink:title=" ">
<polygon fill="none" stroke="black" points="118,-78.5 118,-119.5 275,-119.5 275,-78.5 118,-78.5"/>
<text text-anchor="start" x="126" y="-107.5" font-family="Helvetica,sans-Serif" font-size="10.00">/home/fnky/C0de/component</text>
<text text-anchor="start" x="126" y="-96.5" font-family="Helvetica,sans-Serif" font-size="10.00">_engine/include/States</text>
<text text-anchor="middle" x="196.5" y="-85.5" font-family="Helvetica,sans-Serif" font-size="10.00">/game_play_state.h</text>
</a>
</g>
</g>
<!-- Node2&#45;&gt;Node6 -->
<g id="edge5" class="edge">
<title>Node2&#45;&gt;Node6</title>
<path fill="none" stroke="midnightblue" d="M496.92,-160.6C436.63,-149.87 355.09,-134.86 283.5,-120 280.77,-119.43 277.99,-118.85 275.19,-118.25"/>
<polygon fill="midnightblue" stroke="midnightblue" points="496.33,-164.05 506.79,-162.35 497.55,-157.16 496.33,-164.05"/>
</g>
<!-- Node7 -->
<g id="node7" class="node">
<title>Node7</title>
<g id="a_node7"><a xlink:href="game__play__state_8cpp.html" target="_top" xlink:title=" ">
<polygon fill="none" stroke="black" points="0,-0.5 0,-41.5 157,-41.5 157,-0.5 0,-0.5"/>
<text text-anchor="start" x="8" y="-29.5" font-family="Helvetica,sans-Serif" font-size="10.00">/home/fnky/C0de/component</text>
<text text-anchor="start" x="8" y="-18.5" font-family="Helvetica,sans-Serif" font-size="10.00">_engine/src/States/game</text>
<text text-anchor="middle" x="78.5" y="-7.5" font-family="Helvetica,sans-Serif" font-size="10.00">_play_state.cpp</text>
</a>
</g>
</g>
<!-- Node2&#45;&gt;Node7 -->
<g id="edge19" class="edge">
<title>Node2&#45;&gt;Node7</title>
<path fill="none" stroke="midnightblue" d="M496.62,-171.49C363.57,-163.9 125.12,-146.74 96.5,-120 75.27,-100.16 74.15,-64.15 75.89,-41.74"/>
<polygon fill="midnightblue" stroke="midnightblue" points="496.61,-175 506.79,-172.06 497.01,-168.01 496.61,-175"/>
</g>
<!-- Node8 -->
<g id="node8" class="node">
<title>Node8</title>
<g id="a_node8"><a xlink:href="loading__play__state_8h.html" target="_top" xlink:title=" ">
<polygon fill="none" stroke="black" points="293,-78.5 293,-119.5 450,-119.5 450,-78.5 293,-78.5"/>
<text text-anchor="start" x="301" y="-107.5" font-family="Helvetica,sans-Serif" font-size="10.00">/home/fnky/C0de/component</text>
<text text-anchor="start" x="301" y="-96.5" font-family="Helvetica,sans-Serif" font-size="10.00">_engine/include/States</text>
<text text-anchor="middle" x="371.5" y="-85.5" font-family="Helvetica,sans-Serif" font-size="10.00">/loading_play_state.h</text>
</a>
</g>
</g>
<!-- Node2&#45;&gt;Node8 -->
<g id="edge8" class="edge">
<title>Node2&#45;&gt;Node8</title>
<path fill="none" stroke="midnightblue" d="M520.81,-153.03C490.69,-142.33 455.23,-129.73 426.42,-119.51"/>
<polygon fill="midnightblue" stroke="midnightblue" points="519.79,-156.38 530.39,-156.43 522.14,-149.78 519.79,-156.38"/>
</g>
<!-- Node9 -->
<g id="node9" class="node">
<title>Node9</title>
<g id="a_node9"><a xlink:href="loading__play__state_8cpp.html" target="_top" xlink:title=" ">
<polygon fill="none" stroke="black" points="213,-0.5 213,-41.5 370,-41.5 370,-0.5 213,-0.5"/>
<text text-anchor="start" x="221" y="-29.5" font-family="Helvetica,sans-Serif" font-size="10.00">/home/fnky/C0de/component</text>
<text text-anchor="start" x="221" y="-18.5" font-family="Helvetica,sans-Serif" font-size="10.00">_engine/src/States/loading</text>
<text text-anchor="middle" x="291.5" y="-7.5" font-family="Helvetica,sans-Serif" font-size="10.00">_play_state.cpp</text>
</a>
</g>
</g>
<!-- Node2&#45;&gt;Node9 -->
<g id="edge20" class="edge">
<title>Node2&#45;&gt;Node9</title>
<path fill="none" stroke="midnightblue" d="M496.89,-171.86C366.04,-164.83 133.82,-148.46 108.5,-120 96.09,-106.05 97.4,-93.01 108.5,-78 121.49,-60.44 169.42,-46.14 212.97,-36.39"/>
<polygon fill="midnightblue" stroke="midnightblue" points="496.73,-175.36 506.9,-172.39 497.1,-168.37 496.73,-175.36"/>
</g>
<!-- Node10 -->
<g id="node10" class="node">
<title>Node10</title>
<g id="a_node10"><a xlink:href="main__menu__state_8h.html" target="_top" xlink:title=" ">
<polygon fill="none" stroke="black" points="507,-78.5 507,-119.5 664,-119.5 664,-78.5 507,-78.5"/>
<text text-anchor="start" x="515" y="-107.5" font-family="Helvetica,sans-Serif" font-size="10.00">/home/fnky/C0de/component</text>
<text text-anchor="start" x="515" y="-96.5" font-family="Helvetica,sans-Serif" font-size="10.00">_engine/include/States</text>
<text text-anchor="middle" x="585.5" y="-85.5" font-family="Helvetica,sans-Serif" font-size="10.00">/main_menu_state.h</text>
</a>
</g>
</g>
<!-- Node2&#45;&gt;Node10 -->
<g id="edge11" class="edge">
<title>Node2&#45;&gt;Node10</title>
<path fill="none" stroke="midnightblue" d="M585.5,-146.3C585.5,-137.3 585.5,-127.65 585.5,-119.51"/>
<polygon fill="midnightblue" stroke="midnightblue" points="582,-146.43 585.5,-156.43 589,-146.43 582,-146.43"/>
</g>
<!-- Node11 -->
<g id="node11" class="node">
<title>Node11</title>
<g id="a_node11"><a xlink:href="main__menu__state_8cpp.html" target="_top" xlink:title=" ">
<polygon fill="none" stroke="black" points="639,-0.5 639,-41.5 796,-41.5 796,-0.5 639,-0.5"/>
<text text-anchor="start" x="647" y="-29.5" font-family="Helvetica,sans-Serif" font-size="10.00">/home/fnky/C0de/component</text>
<text text-anchor="start" x="647" y="-18.5" font-family="Helvetica,sans-Serif" font-size="10.00">_engine/src/States/main</text>
<text text-anchor="middle" x="717.5" y="-7.5" font-family="Helvetica,sans-Serif" font-size="10.00">_menu_state.cpp</text>
</a>
</g>
</g>
<!-- Node2&#45;&gt;Node11 -->
<g id="edge21" class="edge">
<title>Node2&#45;&gt;Node11</title>
<path fill="none" stroke="midnightblue" d="M674.22,-156.07C766.03,-145.66 972.91,-176.04 1023.5,-120 1036.01,-106.14 1035.45,-92.34 1023.5,-78 1021.65,-75.79 886.14,-51.61 796.09,-35.76"/>
<polygon fill="midnightblue" stroke="midnightblue" points="673.56,-152.63 664.13,-157.46 674.52,-159.56 673.56,-152.63"/>
</g>
<!-- Node12 -->
<g id="node12" class="node">
<title>Node12</title>
<g id="a_node12"><a xlink:href="splash__state_8h.html" target="_top" xlink:title=" ">
<polygon fill="none" stroke="black" points="682,-78.5 682,-119.5 839,-119.5 839,-78.5 682,-78.5"/>
<text text-anchor="start" x="690" y="-107.5" font-family="Helvetica,sans-Serif" font-size="10.00">/home/fnky/C0de/component</text>
<text text-anchor="start" x="690" y="-96.5" font-family="Helvetica,sans-Serif" font-size="10.00">_engine/include/States</text>
<text text-anchor="middle" x="760.5" y="-85.5" font-family="Helvetica,sans-Serif" font-size="10.00">/splash_state.h</text>
</a>
</g>
</g>
<!-- Node2&#45;&gt;Node12 -->
<g id="edge14" class="edge">
<title>Node2&#45;&gt;Node12</title>
<path fill="none" stroke="midnightblue" d="M640.01,-152.33C664.29,-141.78 692.54,-129.51 715.59,-119.51"/>
<polygon fill="midnightblue" stroke="midnightblue" points="638.35,-149.23 630.57,-156.43 641.13,-155.65 638.35,-149.23"/>
</g>
<!-- Node13 -->
<g id="node13" class="node">
<title>Node13</title>
<g id="a_node13"><a xlink:href="splash__state_8cpp.html" target="_top" xlink:title=" ">
<polygon fill="none" stroke="black" points="843,-0.5 843,-41.5 1000,-41.5 1000,-0.5 843,-0.5"/>
<text text-anchor="start" x="851" y="-29.5" font-family="Helvetica,sans-Serif" font-size="10.00">/home/fnky/C0de/component</text>
<text text-anchor="start" x="851" y="-18.5" font-family="Helvetica,sans-Serif" font-size="10.00">_engine/src/States/splash</text>
<text text-anchor="middle" x="921.5" y="-7.5" font-family="Helvetica,sans-Serif" font-size="10.00">_state.cpp</text>
</a>
</g>
</g>
<!-- Node2&#45;&gt;Node13 -->
<g id="edge22" class="edge">
<title>Node2&#45;&gt;Node13</title>
<path fill="none" stroke="midnightblue" d="M674.1,-156.09C769.93,-145.31 988.09,-178.88 1041.5,-120 1054.04,-106.17 1051.53,-93.74 1041.5,-78 1031,-61.52 1014.25,-49.81 996.55,-41.52"/>
<polygon fill="midnightblue" stroke="midnightblue" points="673.57,-152.63 664.13,-157.45 674.51,-159.56 673.57,-152.63"/>
</g>
<!-- Node3&#45;&gt;Node4 -->
<g id="edge3" class="edge">
<title>Node3&#45;&gt;Node4</title>
<path fill="none" stroke="midnightblue" d="M846.81,-77.96C780.54,-65.8 649.31,-46.08 564.22,-33.52"/>
<polygon fill="midnightblue" stroke="midnightblue" points="846.4,-81.44 856.87,-79.84 847.69,-74.56 846.4,-81.44"/>
</g>
<!-- Node3&#45;&gt;Node5 -->
<g id="edge4" class="edge">
<title>Node3&#45;&gt;Node5</title>
<path fill="none" stroke="midnightblue" d="M990.01,-74.33C1014.29,-63.78 1042.54,-51.51 1065.59,-41.51"/>
<polygon fill="midnightblue" stroke="midnightblue" points="988.35,-71.23 980.57,-78.43 991.13,-77.65 988.35,-71.23"/>
</g>
<!-- Node6&#45;&gt;Node4 -->
<g id="edge6" class="edge">
<title>Node6&#45;&gt;Node4</title>
<path fill="none" stroke="midnightblue" d="M280.84,-75.82C329.6,-63 389.5,-47.25 431.86,-36.11"/>
<polygon fill="midnightblue" stroke="midnightblue" points="279.71,-72.5 270.92,-78.43 281.49,-79.27 279.71,-72.5"/>
</g>
<!-- Node6&#45;&gt;Node7 -->
<g id="edge7" class="edge">
<title>Node6&#45;&gt;Node7</title>
<path fill="none" stroke="midnightblue" d="M157.56,-72.92C141.7,-62.7 123.64,-51.07 108.78,-41.51"/>
<polygon fill="midnightblue" stroke="midnightblue" points="155.81,-75.96 166.11,-78.43 159.6,-70.07 155.81,-75.96"/>
</g>
<!-- Node8&#45;&gt;Node4 -->
<g id="edge9" class="edge">
<title>Node8&#45;&gt;Node4</title>
<path fill="none" stroke="midnightblue" d="M409.52,-72.66C427.71,-60.53 448.82,-46.45 464.16,-36.23"/>
<polygon fill="midnightblue" stroke="midnightblue" points="407.24,-69.97 400.86,-78.43 411.12,-75.79 407.24,-69.97"/>
</g>
<!-- Node8&#45;&gt;Node9 -->
<g id="edge10" class="edge">
<title>Node8&#45;&gt;Node9</title>
<path fill="none" stroke="midnightblue" d="M343.6,-71.49C333.22,-61.63 321.63,-50.63 312.03,-41.51"/>
<polygon fill="midnightblue" stroke="midnightblue" points="341.24,-74.08 350.9,-78.43 346.06,-69 341.24,-74.08"/>
</g>
<!-- Node10&#45;&gt;Node4 -->
<g id="edge12" class="edge">
<title>Node10&#45;&gt;Node4</title>
<path fill="none" stroke="midnightblue" d="M551.72,-72.32C535.86,-60.27 517.55,-46.36 504.22,-36.23"/>
<polygon fill="midnightblue" stroke="midnightblue" points="549.67,-75.16 559.75,-78.43 553.9,-69.59 549.67,-75.16"/>
</g>
<!-- Node10&#45;&gt;Node11 -->
<g id="edge13" class="edge">
<title>Node10&#45;&gt;Node11</title>
<path fill="none" stroke="midnightblue" d="M628.57,-73.2C646.43,-62.92 666.86,-51.16 683.62,-41.51"/>
<polygon fill="midnightblue" stroke="midnightblue" points="626.41,-70.41 619.49,-78.43 629.91,-76.47 626.41,-70.41"/>
</g>
<!-- Node12&#45;&gt;Node4 -->
<g id="edge15" class="edge">
<title>Node12&#45;&gt;Node4</title>
<path fill="none" stroke="midnightblue" d="M679.96,-75.74C633.61,-62.93 576.77,-47.22 536.54,-36.11"/>
<polygon fill="midnightblue" stroke="midnightblue" points="679.11,-79.14 689.68,-78.43 680.97,-72.39 679.11,-79.14"/>
</g>
<!-- Node12&#45;&gt;Node13 -->
<g id="edge16" class="edge">
<title>Node12&#45;&gt;Node13</title>
<path fill="none" stroke="midnightblue" d="M811.24,-74.05C833.44,-63.57 859.17,-51.42 880.18,-41.51"/>
<polygon fill="midnightblue" stroke="midnightblue" points="809.51,-70.99 801.96,-78.43 812.5,-77.32 809.51,-70.99"/>
</g>
</g>
</svg>
