<?xml version="1.0" encoding="UTF-8" standalone="no"?>
<!DOCTYPE svg PUBLIC "-//W3C//DTD SVG 1.1//EN"
 "http://www.w3.org/Graphics/SVG/1.1/DTD/svg11.dtd">
<!-- Generated by graphviz version 2.43.0 (0)
 -->
<!-- Title: ImGuiTableColumn Pages: 1 -->
<svg width="160pt" height="551pt"
 viewBox="0.00 0.00 160.00 551.00" xmlns="http://www.w3.org/2000/svg" xmlns:xlink="http://www.w3.org/1999/xlink">
<g id="graph0" class="graph" transform="scale(1 1) rotate(0) translate(4 547)">
<title>ImGuiTableColumn</title>
<!-- Node1 -->
<g id="node1" class="node">
<title>Node1</title>
<g id="a_node1"><a xlink:title=" ">
<polygon fill="#bfbfbf" stroke="black" points="0,-0.5 0,-167.5 152,-167.5 152,-0.5 0,-0.5"/>
<text text-anchor="middle" x="76" y="-155.5" font-family="Helvetica,sans-Serif" font-size="10.00">ImGuiTableColumn</text>
<polyline fill="none" stroke="black" points="0,-148.5 152,-148.5 "/>
<text text-anchor="start" x="8" y="-136.5" font-family="Helvetica,sans-Serif" font-size="10.00">+ Flags</text>
<text text-anchor="start" x="8" y="-125.5" font-family="Helvetica,sans-Serif" font-size="10.00">+ WidthGiven</text>
<text text-anchor="start" x="8" y="-114.5" font-family="Helvetica,sans-Serif" font-size="10.00">+ MinX</text>
<text text-anchor="start" x="8" y="-103.5" font-family="Helvetica,sans-Serif" font-size="10.00">+ MaxX</text>
<text text-anchor="start" x="8" y="-92.5" font-family="Helvetica,sans-Serif" font-size="10.00">+ WidthRequest</text>
<text text-anchor="start" x="8" y="-81.5" font-family="Helvetica,sans-Serif" font-size="10.00">+ WidthAuto</text>
<text text-anchor="start" x="8" y="-70.5" font-family="Helvetica,sans-Serif" font-size="10.00">+ StretchWeight</text>
<text text-anchor="start" x="8" y="-59.5" font-family="Helvetica,sans-Serif" font-size="10.00">+ InitStretchWeightOrWidth</text>
<text text-anchor="start" x="8" y="-48.5" font-family="Helvetica,sans-Serif" font-size="10.00">+ UserID</text>
<text text-anchor="start" x="8" y="-37.5" font-family="Helvetica,sans-Serif" font-size="10.00">+ WorkMinX</text>
<text text-anchor="start" x="8" y="-26.5" font-family="Helvetica,sans-Serif" font-size="10.00">and 30 more...</text>
<polyline fill="none" stroke="black" points="0,-19.5 152,-19.5 "/>
<text text-anchor="start" x="8" y="-7.5" font-family="Helvetica,sans-Serif" font-size="10.00">+ ImGuiTableColumn()</text>
</a>
</g>
</g>
<!-- Node2 -->
<g id="node2" class="node">
<title>Node2</title>
<g id="a_node2"><a xlink:href="structImRect.html" target="_top" xlink:title=" ">
<polygon fill="none" stroke="black" points="32.5,-215.5 32.5,-382.5 119.5,-382.5 119.5,-215.5 32.5,-215.5"/>
<text text-anchor="middle" x="76" y="-370.5" font-family="Helvetica,sans-Serif" font-size="10.00">ImRect</text>
<polyline fill="none" stroke="black" points="32.5,-363.5 119.5,-363.5 "/>
<text text-anchor="middle" x="76" y="-351.5" font-family="Helvetica,sans-Serif" font-size="10.00"> </text>
<polyline fill="none" stroke="black" points="32.5,-344.5 119.5,-344.5 "/>
<text text-anchor="start" x="40.5" y="-332.5" font-family="Helvetica,sans-Serif" font-size="10.00">+ ImRect()</text>
<text text-anchor="start" x="40.5" y="-321.5" font-family="Helvetica,sans-Serif" font-size="10.00">+ ImRect()</text>
<text text-anchor="start" x="40.5" y="-310.5" font-family="Helvetica,sans-Serif" font-size="10.00">+ ImRect()</text>
<text text-anchor="start" x="40.5" y="-299.5" font-family="Helvetica,sans-Serif" font-size="10.00">+ ImRect()</text>
<text text-anchor="start" x="40.5" y="-288.5" font-family="Helvetica,sans-Serif" font-size="10.00">+ GetCenter()</text>
<text text-anchor="start" x="40.5" y="-277.5" font-family="Helvetica,sans-Serif" font-size="10.00">+ GetSize()</text>
<text text-anchor="start" x="40.5" y="-266.5" font-family="Helvetica,sans-Serif" font-size="10.00">+ GetWidth()</text>
<text text-anchor="start" x="40.5" y="-255.5" font-family="Helvetica,sans-Serif" font-size="10.00">+ GetHeight()</text>
<text text-anchor="start" x="40.5" y="-244.5" font-family="Helvetica,sans-Serif" font-size="10.00">+ GetArea()</text>
<text text-anchor="start" x="40.5" y="-233.5" font-family="Helvetica,sans-Serif" font-size="10.00">+ GetTL()</text>
<text text-anchor="start" x="40.5" y="-222.5" font-family="Helvetica,sans-Serif" font-size="10.00">and 18 more...</text>
</a>
</g>
</g>
<!-- Node2&#45;&gt;Node1 -->
<g id="edge1" class="edge">
<title>Node2&#45;&gt;Node1</title>
<path fill="none" stroke="#404040" d="M76,-215.34C76,-203.71 76,-191.68 76,-179.85"/>
<polygon fill="none" stroke="#404040" points="76,-179.61 72,-173.61 76,-167.61 80,-173.61 76,-179.61"/>
<text text-anchor="middle" x="102" y="-189" font-family="Helvetica,sans-Serif" font-size="10.00"> +ClipRect</text>
</g>
<!-- Node3 -->
<g id="node3" class="node">
<title>Node3</title>
<g id="a_node3"><a xlink:href="structImVec2.html" target="_top" xlink:title=" ">
<polygon fill="none" stroke="black" points="34,-441.5 34,-542.5 118,-542.5 118,-441.5 34,-441.5"/>
<text text-anchor="middle" x="76" y="-530.5" font-family="Helvetica,sans-Serif" font-size="10.00">ImVec2</text>
<polyline fill="none" stroke="black" points="34,-523.5 118,-523.5 "/>
<text text-anchor="start" x="42" y="-511.5" font-family="Helvetica,sans-Serif" font-size="10.00">+ x</text>
<text text-anchor="start" x="42" y="-500.5" font-family="Helvetica,sans-Serif" font-size="10.00">+ y</text>
<polyline fill="none" stroke="black" points="34,-493.5 118,-493.5 "/>
<text text-anchor="start" x="42" y="-481.5" font-family="Helvetica,sans-Serif" font-size="10.00">+ ImVec2()</text>
<text text-anchor="start" x="42" y="-470.5" font-family="Helvetica,sans-Serif" font-size="10.00">+ ImVec2()</text>
<text text-anchor="start" x="42" y="-459.5" font-family="Helvetica,sans-Serif" font-size="10.00">+ operator[]()</text>
<text text-anchor="start" x="42" y="-448.5" font-family="Helvetica,sans-Serif" font-size="10.00">+ operator[]()</text>
</a>
</g>
</g>
<!-- Node3&#45;&gt;Node2 -->
<g id="edge2" class="edge">
<title>Node3&#45;&gt;Node2</title>
<path fill="none" stroke="#404040" d="M76,-441.32C76,-427.05 76,-410.99 76,-394.95"/>
<polygon fill="none" stroke="#404040" points="76,-394.72 72,-388.72 76,-382.72 80,-388.72 76,-394.72"/>
<text text-anchor="middle" x="91" y="-415" font-family="Helvetica,sans-Serif" font-size="10.00"> +Min</text>
<text text-anchor="middle" x="91" y="-404" font-family="Helvetica,sans-Serif" font-size="10.00">+Max</text>
</g>
</g>
</svg>
