<?xml version="1.0" encoding="UTF-8" standalone="no"?>
<!DOCTYPE svg PUBLIC "-//W3C//DTD SVG 1.1//EN"
 "http://www.w3.org/Graphics/SVG/1.1/DTD/svg11.dtd">
<!-- Generated by graphviz version 2.43.0 (0)
 -->
<!-- Title: stbrp_context Pages: 1 -->
<svg width="138pt" height="259pt"
 viewBox="0.00 0.00 137.50 259.00" xmlns="http://www.w3.org/2000/svg" xmlns:xlink="http://www.w3.org/1999/xlink">
<g id="graph0" class="graph" transform="scale(1 1) rotate(0) translate(4 255)">
<title>stbrp_context</title>
<!-- Node1 -->
<g id="node1" class="node">
<title>Node1</title>
<g id="a_node1"><a xlink:title=" ">
<polygon fill="#bfbfbf" stroke="black" points="0,-0.5 0,-112.5 84,-112.5 84,-0.5 0,-0.5"/>
<text text-anchor="middle" x="42" y="-100.5" font-family="Helvetica,sans-Serif" font-size="10.00">stbrp_context</text>
<polyline fill="none" stroke="black" points="0,-93.5 84,-93.5 "/>
<text text-anchor="start" x="8" y="-81.5" font-family="Helvetica,sans-Serif" font-size="10.00">+ width</text>
<text text-anchor="start" x="8" y="-70.5" font-family="Helvetica,sans-Serif" font-size="10.00">+ height</text>
<text text-anchor="start" x="8" y="-59.5" font-family="Helvetica,sans-Serif" font-size="10.00">+ align</text>
<text text-anchor="start" x="8" y="-48.5" font-family="Helvetica,sans-Serif" font-size="10.00">+ init_mode</text>
<text text-anchor="start" x="8" y="-37.5" font-family="Helvetica,sans-Serif" font-size="10.00">+ heuristic</text>
<text text-anchor="start" x="8" y="-26.5" font-family="Helvetica,sans-Serif" font-size="10.00">+ num_nodes</text>
<polyline fill="none" stroke="black" points="0,-19.5 84,-19.5 "/>
<text text-anchor="middle" x="42" y="-7.5" font-family="Helvetica,sans-Serif" font-size="10.00"> </text>
</a>
</g>
</g>
<!-- Node2 -->
<g id="node2" class="node">
<title>Node2</title>
<g id="a_node2"><a xlink:href="structstbrp__node.html" target="_top" xlink:title=" ">
<polygon fill="none" stroke="black" points="6.5,-182.5 6.5,-250.5 77.5,-250.5 77.5,-182.5 6.5,-182.5"/>
<text text-anchor="middle" x="42" y="-238.5" font-family="Helvetica,sans-Serif" font-size="10.00">stbrp_node</text>
<polyline fill="none" stroke="black" points="6.5,-231.5 77.5,-231.5 "/>
<text text-anchor="start" x="14.5" y="-219.5" font-family="Helvetica,sans-Serif" font-size="10.00">+ x</text>
<text text-anchor="start" x="14.5" y="-208.5" font-family="Helvetica,sans-Serif" font-size="10.00">+ y</text>
<polyline fill="none" stroke="black" points="6.5,-201.5 77.5,-201.5 "/>
<text text-anchor="middle" x="42" y="-189.5" font-family="Helvetica,sans-Serif" font-size="10.00"> </text>
</a>
</g>
</g>
<!-- Node2&#45;&gt;Node1 -->
<g id="edge1" class="edge">
<title>Node2&#45;&gt;Node1</title>
<path fill="none" stroke="#404040" d="M42,-182.38C42,-165.67 42,-144.77 42,-124.87"/>
<polygon fill="none" stroke="#404040" points="42,-124.66 38,-118.66 42,-112.66 46,-118.66 42,-124.66"/>
<text text-anchor="middle" x="76" y="-156" font-family="Helvetica,sans-Serif" font-size="10.00"> +extra</text>
<text text-anchor="middle" x="76" y="-145" font-family="Helvetica,sans-Serif" font-size="10.00">+free_head</text>
<text text-anchor="middle" x="76" y="-134" font-family="Helvetica,sans-Serif" font-size="10.00">+active_head</text>
</g>
<!-- Node2&#45;&gt;Node2 -->
<g id="edge2" class="edge">
<title>Node2&#45;&gt;Node2</title>
<path fill="none" stroke="#404040" d="M77.75,-229.19C87.79,-228.63 95.5,-224.4 95.5,-216.5 95.5,-212.18 93.2,-208.96 89.46,-206.83"/>
<polygon fill="none" stroke="#404040" points="89.37,-206.81 82.57,-209.18 77.75,-203.81 84.56,-201.44 89.37,-206.81"/>
<text text-anchor="middle" x="112.5" y="-214" font-family="Helvetica,sans-Serif" font-size="10.00"> +next</text>
</g>
</g>
</svg>
