<?xml version="1.0" encoding="UTF-8" standalone="no"?>
<!DOCTYPE svg PUBLIC "-//W3C//DTD SVG 1.1//EN"
 "http://www.w3.org/Graphics/SVG/1.1/DTD/svg11.dtd">
<!-- Generated by graphviz version 2.43.0 (0)
 -->
<!-- Title: ImGuiTabBar Pages: 1 -->
<!--zoomable 694 -->
<svg id="main" version="1.1" xmlns="http://www.w3.org/2000/svg" xmlns:xlink="http://www.w3.org/1999/xlink" xml:space="preserve" onload="init(evt)">
<style type="text/css"><![CDATA[
.edge:hover path { stroke: red; }
.edge:hover polygon { stroke: red; fill: red; }
]]></style>
<script type="text/javascript"><![CDATA[
var edges = document.getElementsByTagName('g');
if (edges && edges.length) {
  for (var i=0;i<edges.length;i++) {
    if (edges[i].id.substr(0,4)=='edge') {
      edges[i].setAttribute('class','edge');
    }
  }
}
]]></script>
        <defs>
                <circle id="rim" cx="0" cy="0" r="7"/>
                <circle id="rim2" cx="0" cy="0" r="3.5"/>
                <g id="zoomPlus">
                        <use xlink:href="#rim" fill="#404040">
                                <set attributeName="fill" to="#808080" begin="zoomplus.mouseover" end="zoomplus.mouseout"/>
                        </use>
                        <path d="M-4,0h8M0,-4v8" fill="none" stroke="white" stroke-width="1.5" pointer-events="none"/>
                </g>
                <g id="zoomMin">
                        <use xlink:href="#rim" fill="#404040">
                                <set attributeName="fill" to="#808080" begin="zoomminus.mouseover" end="zoomminus.mouseout"/>
                        </use>
                        <path d="M-4,0h8" fill="none" stroke="white" stroke-width="1.5" pointer-events="none"/>
                </g>
                <g id="dirArrow">
                        <path fill="none" stroke="white" stroke-width="1.5" d="M0,-3.0v7 M-2.5,-0.5L0,-3.0L2.5,-0.5"/>
                </g>
               <g id="resetDef">
                       <use xlink:href="#rim2" fill="#404040">
                               <set attributeName="fill" to="#808080" begin="reset.mouseover" end="reset.mouseout"/>
                       </use>
               </g>
        </defs>

<script type="text/javascript">
var viewWidth = 524;
var viewHeight = 694;
var sectionId = 'dynsection-0';
</script>
<script xlink:href="svgpan.js"/>
<svg id="graph" class="graph">
<g id="viewport">
<title>ImGuiTabBar</title>
<!-- Node1 -->
<g id="node1" class="node">
<title>Node1</title>
<g id="a_node1"><a xlink:title=" ">
<polygon fill="#bfbfbf" stroke="black" points="165.85,-0.5 165.85,-189.5 312.85,-189.5 312.85,-0.5 165.85,-0.5"/>
<text text-anchor="middle" x="239.35" y="-177.5" font-family="Helvetica,sans-Serif" font-size="10.00">ImGuiTabBar</text>
<polyline fill="none" stroke="black" points="165.85,-170.5 312.85,-170.5 "/>
<text text-anchor="start" x="173.85" y="-158.5" font-family="Helvetica,sans-Serif" font-size="10.00">+ Flags</text>
<text text-anchor="start" x="173.85" y="-147.5" font-family="Helvetica,sans-Serif" font-size="10.00">+ ID</text>
<text text-anchor="start" x="173.85" y="-136.5" font-family="Helvetica,sans-Serif" font-size="10.00">+ SelectedTabId</text>
<text text-anchor="start" x="173.85" y="-125.5" font-family="Helvetica,sans-Serif" font-size="10.00">+ NextSelectedTabId</text>
<text text-anchor="start" x="173.85" y="-114.5" font-family="Helvetica,sans-Serif" font-size="10.00">+ VisibleTabId</text>
<text text-anchor="start" x="173.85" y="-103.5" font-family="Helvetica,sans-Serif" font-size="10.00">+ CurrFrameVisible</text>
<text text-anchor="start" x="173.85" y="-92.5" font-family="Helvetica,sans-Serif" font-size="10.00">+ PrevFrameVisible</text>
<text text-anchor="start" x="173.85" y="-81.5" font-family="Helvetica,sans-Serif" font-size="10.00">+ CurrTabsContentsHeight</text>
<text text-anchor="start" x="173.85" y="-70.5" font-family="Helvetica,sans-Serif" font-size="10.00">+ PrevTabsContentsHeight</text>
<text text-anchor="start" x="173.85" y="-59.5" font-family="Helvetica,sans-Serif" font-size="10.00">+ WidthAllTabs</text>
<text text-anchor="start" x="173.85" y="-48.5" font-family="Helvetica,sans-Serif" font-size="10.00">and 16 more...</text>
<polyline fill="none" stroke="black" points="165.85,-41.5 312.85,-41.5 "/>
<text text-anchor="start" x="173.85" y="-29.5" font-family="Helvetica,sans-Serif" font-size="10.00">+ ImGuiTabBar()</text>
<text text-anchor="start" x="173.85" y="-18.5" font-family="Helvetica,sans-Serif" font-size="10.00">+ GetTabOrder()</text>
<text text-anchor="start" x="173.85" y="-7.5" font-family="Helvetica,sans-Serif" font-size="10.00">+ GetTabName()</text>
</a>
</g>
</g>
<!-- Node2 -->
<g id="node2" class="node">
<title>Node2</title>
<g id="a_node2"><a xlink:href="structImVec2.html" target="_top" xlink:title=" ">
<polygon fill="none" stroke="black" points="21.35,-535 21.35,-636 105.35,-636 105.35,-535 21.35,-535"/>
<text text-anchor="middle" x="63.35" y="-624" font-family="Helvetica,sans-Serif" font-size="10.00">ImVec2</text>
<polyline fill="none" stroke="black" points="21.35,-617 105.35,-617 "/>
<text text-anchor="start" x="29.35" y="-605" font-family="Helvetica,sans-Serif" font-size="10.00">+ x</text>
<text text-anchor="start" x="29.35" y="-594" font-family="Helvetica,sans-Serif" font-size="10.00">+ y</text>
<polyline fill="none" stroke="black" points="21.35,-587 105.35,-587 "/>
<text text-anchor="start" x="29.35" y="-575" font-family="Helvetica,sans-Serif" font-size="10.00">+ ImVec2()</text>
<text text-anchor="start" x="29.35" y="-564" font-family="Helvetica,sans-Serif" font-size="10.00">+ ImVec2()</text>
<text text-anchor="start" x="29.35" y="-553" font-family="Helvetica,sans-Serif" font-size="10.00">+ operator[]()</text>
<text text-anchor="start" x="29.35" y="-542" font-family="Helvetica,sans-Serif" font-size="10.00">+ operator[]()</text>
</a>
</g>
</g>
<!-- Node2&#45;&gt;Node1 -->
<g id="edge1" class="edge">
<title>Node2&#45;&gt;Node1</title>
<path fill="none" stroke="#404040" d="M41,-534.76C12.83,-464.06 -26.1,-332.51 25.35,-237 52.8,-186.03 107.63,-150.45 154.92,-127.78"/>
<polygon fill="none" stroke="#404040" points="154.93,-127.77 158.69,-121.62 165.81,-122.72 162.06,-128.87 154.93,-127.77"/>
<text text-anchor="middle" x="71.85" y="-335" font-family="Helvetica,sans-Serif" font-size="10.00"> +FramePadding</text>
<text text-anchor="middle" x="71.85" y="-324" font-family="Helvetica,sans-Serif" font-size="10.00">+BackupCursorPos</text>
</g>
<!-- Node3 -->
<g id="node3" class="node">
<title>Node3</title>
<g id="a_node3"><a xlink:href="structImRect.html" target="_top" xlink:title=" ">
<polygon fill="none" stroke="black" points="127.85,-248.5 127.85,-415.5 214.85,-415.5 214.85,-248.5 127.85,-248.5"/>
<text text-anchor="middle" x="171.35" y="-403.5" font-family="Helvetica,sans-Serif" font-size="10.00">ImRect</text>
<polyline fill="none" stroke="black" points="127.85,-396.5 214.85,-396.5 "/>
<text text-anchor="middle" x="171.35" y="-384.5" font-family="Helvetica,sans-Serif" font-size="10.00"> </text>
<polyline fill="none" stroke="black" points="127.85,-377.5 214.85,-377.5 "/>
<text text-anchor="start" x="135.85" y="-365.5" font-family="Helvetica,sans-Serif" font-size="10.00">+ ImRect()</text>
<text text-anchor="start" x="135.85" y="-354.5" font-family="Helvetica,sans-Serif" font-size="10.00">+ ImRect()</text>
<text text-anchor="start" x="135.85" y="-343.5" font-family="Helvetica,sans-Serif" font-size="10.00">+ ImRect()</text>
<text text-anchor="start" x="135.85" y="-332.5" font-family="Helvetica,sans-Serif" font-size="10.00">+ ImRect()</text>
<text text-anchor="start" x="135.85" y="-321.5" font-family="Helvetica,sans-Serif" font-size="10.00">+ GetCenter()</text>
<text text-anchor="start" x="135.85" y="-310.5" font-family="Helvetica,sans-Serif" font-size="10.00">+ GetSize()</text>
<text text-anchor="start" x="135.85" y="-299.5" font-family="Helvetica,sans-Serif" font-size="10.00">+ GetWidth()</text>
<text text-anchor="start" x="135.85" y="-288.5" font-family="Helvetica,sans-Serif" font-size="10.00">+ GetHeight()</text>
<text text-anchor="start" x="135.85" y="-277.5" font-family="Helvetica,sans-Serif" font-size="10.00">+ GetArea()</text>
<text text-anchor="start" x="135.85" y="-266.5" font-family="Helvetica,sans-Serif" font-size="10.00">+ GetTL()</text>
<text text-anchor="start" x="135.85" y="-255.5" font-family="Helvetica,sans-Serif" font-size="10.00">and 18 more...</text>
</a>
</g>
</g>
<!-- Node2&#45;&gt;Node3 -->
<g id="edge3" class="edge">
<title>Node2&#45;&gt;Node3</title>
<path fill="none" stroke="#404040" d="M84.69,-534.81C97.89,-504.06 115.27,-463.6 130.99,-426.98"/>
<polygon fill="none" stroke="#404040" points="131.08,-426.78 129.77,-419.69 135.81,-415.76 137.12,-422.85 131.08,-426.78"/>
<text text-anchor="middle" x="136.35" y="-459" font-family="Helvetica,sans-Serif" font-size="10.00"> +Min</text>
<text text-anchor="middle" x="136.35" y="-448" font-family="Helvetica,sans-Serif" font-size="10.00">+Max</text>
</g>
<!-- Node3&#45;&gt;Node1 -->
<g id="edge2" class="edge">
<title>Node3&#45;&gt;Node1</title>
<path fill="none" stroke="#404040" d="M195.23,-248.48C199.62,-233.3 204.26,-217.27 208.81,-201.53"/>
<polygon fill="none" stroke="#404040" points="208.94,-201.09 206.76,-194.22 212.27,-189.56 214.45,-196.44 208.94,-201.09"/>
<text text-anchor="middle" x="230.35" y="-211" font-family="Helvetica,sans-Serif" font-size="10.00"> +BarRect</text>
</g>
<!-- Node4 -->
<g id="node4" class="node">
<title>Node4</title>
<g id="a_node4"><a xlink:href="structImVector.html" target="_top" xlink:title=" ">
<polygon fill="none" stroke="black" points="232.85,-237.5 232.85,-426.5 383.85,-426.5 383.85,-237.5 232.85,-237.5"/>
<text text-anchor="middle" x="308.35" y="-414.5" font-family="Helvetica,sans-Serif" font-size="10.00">ImVector&lt; ImGuiTabItem &gt;</text>
<polyline fill="none" stroke="black" points="232.85,-407.5 383.85,-407.5 "/>
<text text-anchor="start" x="240.85" y="-395.5" font-family="Helvetica,sans-Serif" font-size="10.00">+ const_iterator</text>
<text text-anchor="start" x="240.85" y="-384.5" font-family="Helvetica,sans-Serif" font-size="10.00">+ Size</text>
<text text-anchor="start" x="240.85" y="-373.5" font-family="Helvetica,sans-Serif" font-size="10.00">+ Capacity</text>
<polyline fill="none" stroke="black" points="232.85,-366.5 383.85,-366.5 "/>
<text text-anchor="start" x="240.85" y="-354.5" font-family="Helvetica,sans-Serif" font-size="10.00">+ ImVector()</text>
<text text-anchor="start" x="240.85" y="-343.5" font-family="Helvetica,sans-Serif" font-size="10.00">+ ImVector()</text>
<text text-anchor="start" x="240.85" y="-332.5" font-family="Helvetica,sans-Serif" font-size="10.00">+ operator=()</text>
<text text-anchor="start" x="240.85" y="-321.5" font-family="Helvetica,sans-Serif" font-size="10.00">+ ~ImVector()</text>
<text text-anchor="start" x="240.85" y="-310.5" font-family="Helvetica,sans-Serif" font-size="10.00">+ clear()</text>
<text text-anchor="start" x="240.85" y="-299.5" font-family="Helvetica,sans-Serif" font-size="10.00">+ clear_delete()</text>
<text text-anchor="start" x="240.85" y="-288.5" font-family="Helvetica,sans-Serif" font-size="10.00">+ clear_destruct()</text>
<text text-anchor="start" x="240.85" y="-277.5" font-family="Helvetica,sans-Serif" font-size="10.00">+ empty()</text>
<text text-anchor="start" x="240.85" y="-266.5" font-family="Helvetica,sans-Serif" font-size="10.00">+ size()</text>
<text text-anchor="start" x="240.85" y="-255.5" font-family="Helvetica,sans-Serif" font-size="10.00">+ size_in_bytes()</text>
<text text-anchor="start" x="240.85" y="-244.5" font-family="Helvetica,sans-Serif" font-size="10.00">and 32 more...</text>
</a>
</g>
</g>
<!-- Node4&#45;&gt;Node1 -->
<g id="edge4" class="edge">
<title>Node4&#45;&gt;Node1</title>
<path fill="none" stroke="#404040" d="M280.88,-237.45C277.38,-225.52 273.77,-213.24 270.22,-201.14"/>
<polygon fill="none" stroke="#404040" points="270.22,-201.13 264.69,-196.5 266.84,-189.62 272.36,-194.25 270.22,-201.13"/>
<text text-anchor="middle" x="291.35" y="-211" font-family="Helvetica,sans-Serif" font-size="10.00"> +Tabs</text>
</g>
<!-- Node5 -->
<g id="node5" class="node">
<title>Node5</title>
<g id="a_node5"><a xlink:href="structImGuiTabItem.html" target="_top" xlink:title=" ">
<polygon fill="none" stroke="black" points="247.85,-496.5 247.85,-674.5 368.85,-674.5 368.85,-496.5 247.85,-496.5"/>
<text text-anchor="middle" x="308.35" y="-662.5" font-family="Helvetica,sans-Serif" font-size="10.00">ImGuiTabItem</text>
<polyline fill="none" stroke="black" points="247.85,-655.5 368.85,-655.5 "/>
<text text-anchor="start" x="255.85" y="-643.5" font-family="Helvetica,sans-Serif" font-size="10.00">+ ID</text>
<text text-anchor="start" x="255.85" y="-632.5" font-family="Helvetica,sans-Serif" font-size="10.00">+ Flags</text>
<text text-anchor="start" x="255.85" y="-621.5" font-family="Helvetica,sans-Serif" font-size="10.00">+ LastFrameVisible</text>
<text text-anchor="start" x="255.85" y="-610.5" font-family="Helvetica,sans-Serif" font-size="10.00">+ LastFrameSelected</text>
<text text-anchor="start" x="255.85" y="-599.5" font-family="Helvetica,sans-Serif" font-size="10.00">+ Offset</text>
<text text-anchor="start" x="255.85" y="-588.5" font-family="Helvetica,sans-Serif" font-size="10.00">+ Width</text>
<text text-anchor="start" x="255.85" y="-577.5" font-family="Helvetica,sans-Serif" font-size="10.00">+ ContentWidth</text>
<text text-anchor="start" x="255.85" y="-566.5" font-family="Helvetica,sans-Serif" font-size="10.00">+ RequestedWidth</text>
<text text-anchor="start" x="255.85" y="-555.5" font-family="Helvetica,sans-Serif" font-size="10.00">+ NameOffset</text>
<text text-anchor="start" x="255.85" y="-544.5" font-family="Helvetica,sans-Serif" font-size="10.00">+ BeginOrder</text>
<text text-anchor="start" x="255.85" y="-533.5" font-family="Helvetica,sans-Serif" font-size="10.00">+ IndexDuringLayout</text>
<text text-anchor="start" x="255.85" y="-522.5" font-family="Helvetica,sans-Serif" font-size="10.00">+ WantClose</text>
<polyline fill="none" stroke="black" points="247.85,-515.5 368.85,-515.5 "/>
<text text-anchor="start" x="255.85" y="-503.5" font-family="Helvetica,sans-Serif" font-size="10.00">+ ImGuiTabItem()</text>
</a>
</g>
</g>
<!-- Node5&#45;&gt;Node4 -->
<g id="edge5" class="edge">
<title>Node5&#45;&gt;Node4</title>
<path fill="none" stroke="#404040" d="M308.35,-496.18C308.35,-477.64 308.35,-457.89 308.35,-438.78"/>
<polygon fill="none" stroke="#404040" points="308.35,-438.65 304.35,-432.65 308.35,-426.65 312.35,-432.65 308.35,-438.65"/>
<text text-anchor="middle" x="325.85" y="-453.5" font-family="Helvetica,sans-Serif" font-size="10.00"> +Data</text>
</g>
<!-- Node6 -->
<g id="node6" class="node">
<title>Node6</title>
<g id="a_node6"><a xlink:href="structImGuiTextBuffer.html" target="_top" xlink:title=" ">
<polygon fill="none" stroke="black" points="402.35,-243 402.35,-421 516.35,-421 516.35,-243 402.35,-243"/>
<text text-anchor="middle" x="459.35" y="-409" font-family="Helvetica,sans-Serif" font-size="10.00">ImGuiTextBuffer</text>
<polyline fill="none" stroke="black" points="402.35,-402 516.35,-402 "/>
<text text-anchor="start" x="410.35" y="-390" font-family="Helvetica,sans-Serif" font-size="10.00">+ EmptyString</text>
<polyline fill="none" stroke="black" points="402.35,-383 516.35,-383 "/>
<text text-anchor="start" x="410.35" y="-371" font-family="Helvetica,sans-Serif" font-size="10.00">+ ImGuiTextBuffer()</text>
<text text-anchor="start" x="410.35" y="-360" font-family="Helvetica,sans-Serif" font-size="10.00">+ operator[]()</text>
<text text-anchor="start" x="410.35" y="-349" font-family="Helvetica,sans-Serif" font-size="10.00">+ begin()</text>
<text text-anchor="start" x="410.35" y="-338" font-family="Helvetica,sans-Serif" font-size="10.00">+ end()</text>
<text text-anchor="start" x="410.35" y="-327" font-family="Helvetica,sans-Serif" font-size="10.00">+ size()</text>
<text text-anchor="start" x="410.35" y="-316" font-family="Helvetica,sans-Serif" font-size="10.00">+ empty()</text>
<text text-anchor="start" x="410.35" y="-305" font-family="Helvetica,sans-Serif" font-size="10.00">+ clear()</text>
<text text-anchor="start" x="410.35" y="-294" font-family="Helvetica,sans-Serif" font-size="10.00">+ reserve()</text>
<text text-anchor="start" x="410.35" y="-283" font-family="Helvetica,sans-Serif" font-size="10.00">+ c_str()</text>
<text text-anchor="start" x="410.35" y="-272" font-family="Helvetica,sans-Serif" font-size="10.00">+ append()</text>
<text text-anchor="start" x="410.35" y="-261" font-family="Helvetica,sans-Serif" font-size="10.00">+ appendf()</text>
<text text-anchor="start" x="410.35" y="-250" font-family="Helvetica,sans-Serif" font-size="10.00">+ appendfv()</text>
</a>
</g>
</g>
<!-- Node6&#45;&gt;Node1 -->
<g id="edge6" class="edge">
<title>Node6&#45;&gt;Node1</title>
<path fill="none" stroke="#404040" d="M402.24,-248.69C398.97,-244.68 395.66,-240.76 392.35,-237 370.95,-212.74 345.8,-188.19 322.14,-166.54"/>
<polygon fill="none" stroke="#404040" points="322.04,-166.45 314.91,-165.38 313.16,-158.38 320.29,-159.45 322.04,-166.45"/>
<text text-anchor="middle" x="407.35" y="-211" font-family="Helvetica,sans-Serif" font-size="10.00"> +TabsNames</text>
</g>
<!-- Node7 -->
<g id="node7" class="node">
<title>Node7</title>
<g id="a_node7"><a xlink:href="structImVector.html" target="_top" xlink:title=" ">
<polygon fill="none" stroke="black" points="407.35,-485.5 407.35,-685.5 511.35,-685.5 511.35,-485.5 407.35,-485.5"/>
<text text-anchor="middle" x="459.35" y="-673.5" font-family="Helvetica,sans-Serif" font-size="10.00">ImVector&lt; char &gt;</text>
<polyline fill="none" stroke="black" points="407.35,-666.5 511.35,-666.5 "/>
<text text-anchor="start" x="415.35" y="-654.5" font-family="Helvetica,sans-Serif" font-size="10.00">+ const_iterator</text>
<text text-anchor="start" x="415.35" y="-643.5" font-family="Helvetica,sans-Serif" font-size="10.00">+ Size</text>
<text text-anchor="start" x="415.35" y="-632.5" font-family="Helvetica,sans-Serif" font-size="10.00">+ Capacity</text>
<text text-anchor="start" x="415.35" y="-621.5" font-family="Helvetica,sans-Serif" font-size="10.00">+ Data</text>
<polyline fill="none" stroke="black" points="407.35,-614.5 511.35,-614.5 "/>
<text text-anchor="start" x="415.35" y="-602.5" font-family="Helvetica,sans-Serif" font-size="10.00">+ ImVector()</text>
<text text-anchor="start" x="415.35" y="-591.5" font-family="Helvetica,sans-Serif" font-size="10.00">+ ImVector()</text>
<text text-anchor="start" x="415.35" y="-580.5" font-family="Helvetica,sans-Serif" font-size="10.00">+ operator=()</text>
<text text-anchor="start" x="415.35" y="-569.5" font-family="Helvetica,sans-Serif" font-size="10.00">+ ~ImVector()</text>
<text text-anchor="start" x="415.35" y="-558.5" font-family="Helvetica,sans-Serif" font-size="10.00">+ clear()</text>
<text text-anchor="start" x="415.35" y="-547.5" font-family="Helvetica,sans-Serif" font-size="10.00">+ clear_delete()</text>
<text text-anchor="start" x="415.35" y="-536.5" font-family="Helvetica,sans-Serif" font-size="10.00">+ clear_destruct()</text>
<text text-anchor="start" x="415.35" y="-525.5" font-family="Helvetica,sans-Serif" font-size="10.00">+ empty()</text>
<text text-anchor="start" x="415.35" y="-514.5" font-family="Helvetica,sans-Serif" font-size="10.00">+ size()</text>
<text text-anchor="start" x="415.35" y="-503.5" font-family="Helvetica,sans-Serif" font-size="10.00">+ size_in_bytes()</text>
<text text-anchor="start" x="415.35" y="-492.5" font-family="Helvetica,sans-Serif" font-size="10.00">and 32 more...</text>
</a>
</g>
</g>
<!-- Node7&#45;&gt;Node6 -->
<g id="edge7" class="edge">
<title>Node7&#45;&gt;Node6</title>
<path fill="none" stroke="#404040" d="M459.35,-485.46C459.35,-468.43 459.35,-450.71 459.35,-433.63"/>
<polygon fill="none" stroke="#404040" points="459.35,-433.33 455.35,-427.33 459.35,-421.33 463.35,-427.33 459.35,-433.33"/>
<text text-anchor="middle" x="473.35" y="-453.5" font-family="Helvetica,sans-Serif" font-size="10.00"> +Buf</text>
</g>
</g>
</svg>
        <g id="navigator" transform="translate(0 0)" fill="#404254">
                <rect fill="#f2f5e9" fill-opacity="0.5" stroke="#606060" stroke-width=".5" x="0" y="0" width="60" height="60"/>
                <use id="zoomplus" xlink:href="#zoomPlus" x="17" y="9" onmousedown="handleZoom(evt,'in')"/>
                <use id="zoomminus" xlink:href="#zoomMin" x="42" y="9" onmousedown="handleZoom(evt,'out')"/>
                <use id="reset" xlink:href="#resetDef" x="30" y="36" onmousedown="handleReset()"/>
                <g id="arrowUp" xlink:href="#dirArrow" transform="translate(30 24)" onmousedown="handlePan(0,-1)">
                  <use xlink:href="#rim" fill="#404040">
                        <set attributeName="fill" to="#808080" begin="arrowUp.mouseover" end="arrowUp.mouseout"/>
                  </use>
                  <path fill="none" stroke="white" stroke-width="1.5" d="M0,-3.0v7 M-2.5,-0.5L0,-3.0L2.5,-0.5"/>
                </g>
                <g id="arrowRight" xlink:href="#dirArrow" transform="rotate(90) translate(36 -43)" onmousedown="handlePan(1,0)">
                  <use xlink:href="#rim" fill="#404040">
                        <set attributeName="fill" to="#808080" begin="arrowRight.mouseover" end="arrowRight.mouseout"/>
                  </use>
                  <path fill="none" stroke="white" stroke-width="1.5" d="M0,-3.0v7 M-2.5,-0.5L0,-3.0L2.5,-0.5"/>
                </g>
                <g id="arrowDown" xlink:href="#dirArrow" transform="rotate(180) translate(-30 -48)" onmousedown="handlePan(0,1)">
                  <use xlink:href="#rim" fill="#404040">
                        <set attributeName="fill" to="#808080" begin="arrowDown.mouseover" end="arrowDown.mouseout"/>
                  </use>
                  <path fill="none" stroke="white" stroke-width="1.5" d="M0,-3.0v7 M-2.5,-0.5L0,-3.0L2.5,-0.5"/>
                </g>
                <g id="arrowLeft" xlink:href="#dirArrow" transform="rotate(270) translate(-36 17)" onmousedown="handlePan(-1,0)">
                  <use xlink:href="#rim" fill="#404040">
                        <set attributeName="fill" to="#808080" begin="arrowLeft.mouseover" end="arrowLeft.mouseout"/>
                  </use>
                  <path fill="none" stroke="white" stroke-width="1.5" d="M0,-3.0v7 M-2.5,-0.5L0,-3.0L2.5,-0.5"/>
                </g>
        </g>
        <svg viewBox="0 0 15 15" width="100%" height="30px" preserveAspectRatio="xMaxYMin meet">
         <g id="arrow_out" transform="scale(0.3 0.3)">
          <a xlink:href="structImGuiTabBar__coll__graph_org.svg" target="_base">
           <rect id="button" ry="5" rx="5" y="6" x="6" height="38" width="38"
                fill="#f2f5e9" fill-opacity="0.5" stroke="#606060" stroke-width="1.0"/>
           <path id="arrow"
             d="M 11.500037,31.436501 C 11.940474,20.09759 22.043105,11.32322 32.158766,21.979434 L 37.068811,17.246167 C 37.068811,17.246167 37.088388,32 37.088388,32 L 22.160133,31.978069 C 22.160133,31.978069 26.997745,27.140456 26.997745,27.140456 C 18.528582,18.264221 13.291696,25.230495 11.500037,31.436501 z"
             style="fill:#404040;"/>
          </a>
         </g>
        </svg>
</svg>
