<?xml version="1.0" encoding="UTF-8" standalone="no"?>
<!DOCTYPE svg PUBLIC "-//W3C//DTD SVG 1.1//EN"
 "http://www.w3.org/Graphics/SVG/1.1/DTD/svg11.dtd">
<!-- Generated by graphviz version 2.43.0 (0)
 -->
<!-- Title: ImFontConfig Pages: 1 -->
<svg width="931pt" height="1928pt"
 viewBox="0.00 0.00 931.00 1928.00" xmlns="http://www.w3.org/2000/svg" xmlns:xlink="http://www.w3.org/1999/xlink">
<g id="graph0" class="graph" transform="scale(1 1) rotate(0) translate(4 1924)">
<title>ImFontConfig</title>
<!-- Node1 -->
<g id="node1" class="node">
<title>Node1</title>
<g id="a_node1"><a xlink:title=" ">
<polygon fill="#bfbfbf" stroke="black" points="163.5,-1499 163.5,-1666 306.5,-1666 306.5,-1499 163.5,-1499"/>
<text text-anchor="middle" x="235" y="-1654" font-family="Helvetica,sans-Serif" font-size="10.00">ImFontConfig</text>
<polyline fill="none" stroke="black" points="163.5,-1647 306.5,-1647 "/>
<text text-anchor="start" x="171.5" y="-1635" font-family="Helvetica,sans-Serif" font-size="10.00">+ FontData</text>
<text text-anchor="start" x="171.5" y="-1624" font-family="Helvetica,sans-Serif" font-size="10.00">+ FontDataSize</text>
<text text-anchor="start" x="171.5" y="-1613" font-family="Helvetica,sans-Serif" font-size="10.00">+ FontDataOwnedByAtlas</text>
<text text-anchor="start" x="171.5" y="-1602" font-family="Helvetica,sans-Serif" font-size="10.00">+ FontNo</text>
<text text-anchor="start" x="171.5" y="-1591" font-family="Helvetica,sans-Serif" font-size="10.00">+ SizePixels</text>
<text text-anchor="start" x="171.5" y="-1580" font-family="Helvetica,sans-Serif" font-size="10.00">+ OversampleH</text>
<text text-anchor="start" x="171.5" y="-1569" font-family="Helvetica,sans-Serif" font-size="10.00">+ OversampleV</text>
<text text-anchor="start" x="171.5" y="-1558" font-family="Helvetica,sans-Serif" font-size="10.00">+ PixelSnapH</text>
<text text-anchor="start" x="171.5" y="-1547" font-family="Helvetica,sans-Serif" font-size="10.00">+ GlyphRanges</text>
<text text-anchor="start" x="171.5" y="-1536" font-family="Helvetica,sans-Serif" font-size="10.00">+ GlyphMinAdvanceX</text>
<text text-anchor="start" x="171.5" y="-1525" font-family="Helvetica,sans-Serif" font-size="10.00">and 6 more...</text>
<polyline fill="none" stroke="black" points="163.5,-1518 306.5,-1518 "/>
<text text-anchor="start" x="171.5" y="-1506" font-family="Helvetica,sans-Serif" font-size="10.00">+ ImFontConfig()</text>
</a>
</g>
</g>
<!-- Node3 -->
<g id="node3" class="node">
<title>Node3</title>
<g id="a_node3"><a xlink:href="structImFont.html" target="_top" xlink:title=" ">
<polygon fill="none" stroke="black" points="337,-1146.5 337,-1434.5 489,-1434.5 489,-1146.5 337,-1146.5"/>
<text text-anchor="middle" x="413" y="-1422.5" font-family="Helvetica,sans-Serif" font-size="10.00">ImFont</text>
<polyline fill="none" stroke="black" points="337,-1415.5 489,-1415.5 "/>
<text text-anchor="start" x="345" y="-1403.5" font-family="Helvetica,sans-Serif" font-size="10.00">+ FallbackAdvanceX</text>
<text text-anchor="start" x="345" y="-1392.5" font-family="Helvetica,sans-Serif" font-size="10.00">+ FontSize</text>
<text text-anchor="start" x="345" y="-1381.5" font-family="Helvetica,sans-Serif" font-size="10.00">+ ConfigDataCount</text>
<text text-anchor="start" x="345" y="-1370.5" font-family="Helvetica,sans-Serif" font-size="10.00">+ FallbackChar</text>
<text text-anchor="start" x="345" y="-1359.5" font-family="Helvetica,sans-Serif" font-size="10.00">+ EllipsisChar</text>
<text text-anchor="start" x="345" y="-1348.5" font-family="Helvetica,sans-Serif" font-size="10.00">+ DotChar</text>
<text text-anchor="start" x="345" y="-1337.5" font-family="Helvetica,sans-Serif" font-size="10.00">+ DirtyLookupTables</text>
<text text-anchor="start" x="345" y="-1326.5" font-family="Helvetica,sans-Serif" font-size="10.00">+ Scale</text>
<text text-anchor="start" x="345" y="-1315.5" font-family="Helvetica,sans-Serif" font-size="10.00">+ Ascent</text>
<text text-anchor="start" x="345" y="-1304.5" font-family="Helvetica,sans-Serif" font-size="10.00">+ Descent</text>
<text text-anchor="start" x="345" y="-1293.5" font-family="Helvetica,sans-Serif" font-size="10.00">+ MetricsTotalSurface</text>
<text text-anchor="start" x="345" y="-1282.5" font-family="Helvetica,sans-Serif" font-size="10.00">+ Used4kPagesMap</text>
<polyline fill="none" stroke="black" points="337,-1275.5 489,-1275.5 "/>
<text text-anchor="start" x="345" y="-1263.5" font-family="Helvetica,sans-Serif" font-size="10.00">+ ImFont()</text>
<text text-anchor="start" x="345" y="-1252.5" font-family="Helvetica,sans-Serif" font-size="10.00">+ ~ImFont()</text>
<text text-anchor="start" x="345" y="-1241.5" font-family="Helvetica,sans-Serif" font-size="10.00">+ FindGlyph()</text>
<text text-anchor="start" x="345" y="-1230.5" font-family="Helvetica,sans-Serif" font-size="10.00">+ FindGlyphNoFallback()</text>
<text text-anchor="start" x="345" y="-1219.5" font-family="Helvetica,sans-Serif" font-size="10.00">+ GetCharAdvance()</text>
<text text-anchor="start" x="345" y="-1208.5" font-family="Helvetica,sans-Serif" font-size="10.00">+ IsLoaded()</text>
<text text-anchor="start" x="345" y="-1197.5" font-family="Helvetica,sans-Serif" font-size="10.00">+ GetDebugName()</text>
<text text-anchor="start" x="345" y="-1186.5" font-family="Helvetica,sans-Serif" font-size="10.00">+ CalcTextSizeA()</text>
<text text-anchor="start" x="345" y="-1175.5" font-family="Helvetica,sans-Serif" font-size="10.00">+ CalcWordWrapPositionA()</text>
<text text-anchor="start" x="345" y="-1164.5" font-family="Helvetica,sans-Serif" font-size="10.00">+ RenderChar()</text>
<text text-anchor="start" x="345" y="-1153.5" font-family="Helvetica,sans-Serif" font-size="10.00">and 8 more...</text>
</a>
</g>
</g>
<!-- Node1&#45;&gt;Node3 -->
<g id="edge5" class="edge">
<title>Node1&#45;&gt;Node3</title>
<path fill="none" stroke="#404040" d="M241.63,-1498.95C244.95,-1483.15 249.84,-1467.13 257,-1453 274.25,-1418.94 301.13,-1387.31 327.75,-1361.23"/>
<polygon fill="none" stroke="#404040" points="328.09,-1360.9 329.65,-1353.86 336.75,-1352.6 335.19,-1359.64 328.09,-1360.9"/>
<text text-anchor="middle" x="290" y="-1456" font-family="Helvetica,sans-Serif" font-size="10.00"> +ConfigData</text>
</g>
<!-- Node10 -->
<g id="node10" class="node">
<title>Node10</title>
<g id="a_node10"><a xlink:href="structImVector.html" target="_top" xlink:title=" ">
<polygon fill="none" stroke="black" points="126.5,-938.5 126.5,-1127.5 273.5,-1127.5 273.5,-938.5 126.5,-938.5"/>
<text text-anchor="middle" x="200" y="-1115.5" font-family="Helvetica,sans-Serif" font-size="10.00">ImVector&lt; ImFontConfig &gt;</text>
<polyline fill="none" stroke="black" points="126.5,-1108.5 273.5,-1108.5 "/>
<text text-anchor="start" x="134.5" y="-1096.5" font-family="Helvetica,sans-Serif" font-size="10.00">+ const_iterator</text>
<text text-anchor="start" x="134.5" y="-1085.5" font-family="Helvetica,sans-Serif" font-size="10.00">+ Size</text>
<text text-anchor="start" x="134.5" y="-1074.5" font-family="Helvetica,sans-Serif" font-size="10.00">+ Capacity</text>
<polyline fill="none" stroke="black" points="126.5,-1067.5 273.5,-1067.5 "/>
<text text-anchor="start" x="134.5" y="-1055.5" font-family="Helvetica,sans-Serif" font-size="10.00">+ ImVector()</text>
<text text-anchor="start" x="134.5" y="-1044.5" font-family="Helvetica,sans-Serif" font-size="10.00">+ ImVector()</text>
<text text-anchor="start" x="134.5" y="-1033.5" font-family="Helvetica,sans-Serif" font-size="10.00">+ operator=()</text>
<text text-anchor="start" x="134.5" y="-1022.5" font-family="Helvetica,sans-Serif" font-size="10.00">+ ~ImVector()</text>
<text text-anchor="start" x="134.5" y="-1011.5" font-family="Helvetica,sans-Serif" font-size="10.00">+ clear()</text>
<text text-anchor="start" x="134.5" y="-1000.5" font-family="Helvetica,sans-Serif" font-size="10.00">+ clear_delete()</text>
<text text-anchor="start" x="134.5" y="-989.5" font-family="Helvetica,sans-Serif" font-size="10.00">+ clear_destruct()</text>
<text text-anchor="start" x="134.5" y="-978.5" font-family="Helvetica,sans-Serif" font-size="10.00">+ empty()</text>
<text text-anchor="start" x="134.5" y="-967.5" font-family="Helvetica,sans-Serif" font-size="10.00">+ size()</text>
<text text-anchor="start" x="134.5" y="-956.5" font-family="Helvetica,sans-Serif" font-size="10.00">+ size_in_bytes()</text>
<text text-anchor="start" x="134.5" y="-945.5" font-family="Helvetica,sans-Serif" font-size="10.00">and 32 more...</text>
</a>
</g>
</g>
<!-- Node1&#45;&gt;Node10 -->
<g id="edge14" class="edge">
<title>Node1&#45;&gt;Node10</title>
<path fill="none" stroke="#404040" d="M218.69,-1498.9C216.84,-1487.22 215.19,-1475.33 214,-1464 202.43,-1353.86 199.56,-1227.05 199.2,-1139.83"/>
<polygon fill="none" stroke="#404040" points="199.2,-1139.79 195.18,-1133.81 199.17,-1127.79 203.18,-1133.78 199.2,-1139.79"/>
<text text-anchor="middle" x="231.5" y="-1456" font-family="Helvetica,sans-Serif" font-size="10.00"> +Data</text>
</g>
<!-- Node2 -->
<g id="node2" class="node">
<title>Node2</title>
<g id="a_node2"><a xlink:href="structImVec2.html" target="_top" xlink:title=" ">
<polygon fill="none" stroke="black" points="67,-1780 67,-1881 151,-1881 151,-1780 67,-1780"/>
<text text-anchor="middle" x="109" y="-1869" font-family="Helvetica,sans-Serif" font-size="10.00">ImVec2</text>
<polyline fill="none" stroke="black" points="67,-1862 151,-1862 "/>
<text text-anchor="start" x="75" y="-1850" font-family="Helvetica,sans-Serif" font-size="10.00">+ x</text>
<text text-anchor="start" x="75" y="-1839" font-family="Helvetica,sans-Serif" font-size="10.00">+ y</text>
<polyline fill="none" stroke="black" points="67,-1832 151,-1832 "/>
<text text-anchor="start" x="75" y="-1820" font-family="Helvetica,sans-Serif" font-size="10.00">+ ImVec2()</text>
<text text-anchor="start" x="75" y="-1809" font-family="Helvetica,sans-Serif" font-size="10.00">+ ImVec2()</text>
<text text-anchor="start" x="75" y="-1798" font-family="Helvetica,sans-Serif" font-size="10.00">+ operator[]()</text>
<text text-anchor="start" x="75" y="-1787" font-family="Helvetica,sans-Serif" font-size="10.00">+ operator[]()</text>
</a>
</g>
</g>
<!-- Node2&#45;&gt;Node1 -->
<g id="edge1" class="edge">
<title>Node2&#45;&gt;Node1</title>
<path fill="none" stroke="#404040" d="M134.5,-1779.72C149.62,-1750.2 169.27,-1711.84 187.18,-1676.87"/>
<polygon fill="none" stroke="#404040" points="187.2,-1676.82 186.38,-1669.66 192.67,-1666.14 193.5,-1673.31 187.2,-1676.82"/>
<text text-anchor="middle" x="222.5" y="-1715" font-family="Helvetica,sans-Serif" font-size="10.00"> +GlyphOffset</text>
<text text-anchor="middle" x="222.5" y="-1704" font-family="Helvetica,sans-Serif" font-size="10.00">+GlyphExtraSpacing</text>
</g>
<!-- Node6 -->
<g id="node6" class="node">
<title>Node6</title>
<g id="a_node6"><a xlink:href="structImFontAtlas.html" target="_top" xlink:title=" ">
<polygon fill="none" stroke="black" points="290.5,-0.5 290.5,-321.5 509.5,-321.5 509.5,-0.5 290.5,-0.5"/>
<text text-anchor="middle" x="400" y="-309.5" font-family="Helvetica,sans-Serif" font-size="10.00">ImFontAtlas</text>
<polyline fill="none" stroke="black" points="290.5,-302.5 509.5,-302.5 "/>
<text text-anchor="start" x="298.5" y="-290.5" font-family="Helvetica,sans-Serif" font-size="10.00">+ Flags</text>
<text text-anchor="start" x="298.5" y="-279.5" font-family="Helvetica,sans-Serif" font-size="10.00">+ TexID</text>
<text text-anchor="start" x="298.5" y="-268.5" font-family="Helvetica,sans-Serif" font-size="10.00">+ TexDesiredWidth</text>
<text text-anchor="start" x="298.5" y="-257.5" font-family="Helvetica,sans-Serif" font-size="10.00">+ TexGlyphPadding</text>
<text text-anchor="start" x="298.5" y="-246.5" font-family="Helvetica,sans-Serif" font-size="10.00">+ Locked</text>
<text text-anchor="start" x="298.5" y="-235.5" font-family="Helvetica,sans-Serif" font-size="10.00">+ TexReady</text>
<text text-anchor="start" x="298.5" y="-224.5" font-family="Helvetica,sans-Serif" font-size="10.00">+ TexPixelsUseColors</text>
<text text-anchor="start" x="298.5" y="-213.5" font-family="Helvetica,sans-Serif" font-size="10.00">+ TexPixelsAlpha8</text>
<text text-anchor="start" x="298.5" y="-202.5" font-family="Helvetica,sans-Serif" font-size="10.00">+ TexPixelsRGBA32</text>
<text text-anchor="start" x="298.5" y="-191.5" font-family="Helvetica,sans-Serif" font-size="10.00">+ TexWidth</text>
<text text-anchor="start" x="298.5" y="-180.5" font-family="Helvetica,sans-Serif" font-size="10.00">+ TexHeight</text>
<text text-anchor="start" x="298.5" y="-169.5" font-family="Helvetica,sans-Serif" font-size="10.00">+ FontBuilderFlags</text>
<text text-anchor="start" x="298.5" y="-158.5" font-family="Helvetica,sans-Serif" font-size="10.00">+ PackIdMouseCursors</text>
<text text-anchor="start" x="298.5" y="-147.5" font-family="Helvetica,sans-Serif" font-size="10.00">+ PackIdLines</text>
<polyline fill="none" stroke="black" points="290.5,-140.5 509.5,-140.5 "/>
<text text-anchor="start" x="298.5" y="-128.5" font-family="Helvetica,sans-Serif" font-size="10.00">+ ImFontAtlas()</text>
<text text-anchor="start" x="298.5" y="-117.5" font-family="Helvetica,sans-Serif" font-size="10.00">+ ~ImFontAtlas()</text>
<text text-anchor="start" x="298.5" y="-106.5" font-family="Helvetica,sans-Serif" font-size="10.00">+ AddFont()</text>
<text text-anchor="start" x="298.5" y="-95.5" font-family="Helvetica,sans-Serif" font-size="10.00">+ AddFontDefault()</text>
<text text-anchor="start" x="298.5" y="-84.5" font-family="Helvetica,sans-Serif" font-size="10.00">+ AddFontFromFileTTF()</text>
<text text-anchor="start" x="298.5" y="-73.5" font-family="Helvetica,sans-Serif" font-size="10.00">+ AddFontFromMemoryTTF()</text>
<text text-anchor="start" x="298.5" y="-62.5" font-family="Helvetica,sans-Serif" font-size="10.00">+ AddFontFromMemoryCompressedTTF()</text>
<text text-anchor="start" x="298.5" y="-51.5" font-family="Helvetica,sans-Serif" font-size="10.00">+ AddFontFromMemoryCompressed</text>
<text text-anchor="start" x="298.5" y="-40.5" font-family="Helvetica,sans-Serif" font-size="10.00">Base85TTF()</text>
<text text-anchor="start" x="298.5" y="-29.5" font-family="Helvetica,sans-Serif" font-size="10.00">+ ClearInputData()</text>
<text text-anchor="start" x="298.5" y="-18.5" font-family="Helvetica,sans-Serif" font-size="10.00">+ ClearTexData()</text>
<text text-anchor="start" x="298.5" y="-7.5" font-family="Helvetica,sans-Serif" font-size="10.00">and 21 more...</text>
</a>
</g>
</g>
<!-- Node2&#45;&gt;Node6 -->
<g id="edge11" class="edge">
<title>Node2&#45;&gt;Node6</title>
<path fill="none" stroke="#404040" d="M72.1,-1779.57C40.48,-1731.78 0,-1656.37 0,-1583.5 0,-1583.5 0,-1583.5 0,-468.5 0,-326.36 161.1,-241.19 278.83,-197.93"/>
<polygon fill="none" stroke="#404040" points="279.14,-197.81 283.43,-192.01 290.43,-193.74 286.15,-199.54 279.14,-197.81"/>
<text text-anchor="middle" x="47" y="-1036" font-family="Helvetica,sans-Serif" font-size="10.00"> +TexUvWhitePixel</text>
<text text-anchor="middle" x="47" y="-1025" font-family="Helvetica,sans-Serif" font-size="10.00">+TexUvScale</text>
</g>
<!-- Node12 -->
<g id="node12" class="node">
<title>Node12</title>
<g id="a_node12"><a xlink:href="structImFontAtlasCustomRect.html" target="_top" xlink:title=" ">
<polygon fill="none" stroke="black" points="200.5,-796.5 200.5,-919.5 353.5,-919.5 353.5,-796.5 200.5,-796.5"/>
<text text-anchor="middle" x="277" y="-907.5" font-family="Helvetica,sans-Serif" font-size="10.00">ImFontAtlasCustomRect</text>
<polyline fill="none" stroke="black" points="200.5,-900.5 353.5,-900.5 "/>
<text text-anchor="start" x="208.5" y="-888.5" font-family="Helvetica,sans-Serif" font-size="10.00">+ Width</text>
<text text-anchor="start" x="208.5" y="-877.5" font-family="Helvetica,sans-Serif" font-size="10.00">+ Height</text>
<text text-anchor="start" x="208.5" y="-866.5" font-family="Helvetica,sans-Serif" font-size="10.00">+ X</text>
<text text-anchor="start" x="208.5" y="-855.5" font-family="Helvetica,sans-Serif" font-size="10.00">+ Y</text>
<text text-anchor="start" x="208.5" y="-844.5" font-family="Helvetica,sans-Serif" font-size="10.00">+ GlyphID</text>
<text text-anchor="start" x="208.5" y="-833.5" font-family="Helvetica,sans-Serif" font-size="10.00">+ GlyphAdvanceX</text>
<polyline fill="none" stroke="black" points="200.5,-826.5 353.5,-826.5 "/>
<text text-anchor="start" x="208.5" y="-814.5" font-family="Helvetica,sans-Serif" font-size="10.00">+ ImFontAtlasCustomRect()</text>
<text text-anchor="start" x="208.5" y="-803.5" font-family="Helvetica,sans-Serif" font-size="10.00">+ IsPacked()</text>
</a>
</g>
</g>
<!-- Node2&#45;&gt;Node12 -->
<g id="edge17" class="edge">
<title>Node2&#45;&gt;Node12</title>
<path fill="none" stroke="#404040" d="M106.84,-1779.92C99.53,-1603.02 78.56,-1009.48 123,-938 138.2,-913.55 163.6,-896.34 189.42,-884.37"/>
<polygon fill="none" stroke="#404040" points="189.49,-884.34 193.39,-878.28 200.49,-879.55 196.59,-885.61 189.49,-884.34"/>
<text text-anchor="middle" x="133" y="-1456" font-family="Helvetica,sans-Serif" font-size="10.00"> +GlyphOffset</text>
</g>
<!-- Node3&#45;&gt;Node1 -->
<g id="edge2" class="edge">
<title>Node3&#45;&gt;Node1</title>
<path fill="none" stroke="#404040" d="M344.34,-1434.89C338.7,-1444.87 332.9,-1454.66 327,-1464 321.73,-1472.34 315.99,-1480.81 310.04,-1489.17"/>
<polygon fill="none" stroke="#404040" points="310.01,-1489.21 309.73,-1496.41 302.97,-1498.92 303.25,-1491.72 310.01,-1489.21"/>
<text text-anchor="middle" x="357.5" y="-1456" font-family="Helvetica,sans-Serif" font-size="10.00"> +DstFont</text>
</g>
<!-- Node7 -->
<g id="node7" class="node">
<title>Node7</title>
<g id="a_node7"><a xlink:href="structImVector.html" target="_top" xlink:title=" ">
<polygon fill="none" stroke="black" points="317.5,-588.5 317.5,-777.5 442.5,-777.5 442.5,-588.5 317.5,-588.5"/>
<text text-anchor="middle" x="380" y="-765.5" font-family="Helvetica,sans-Serif" font-size="10.00">ImVector&lt; ImFont * &gt;</text>
<polyline fill="none" stroke="black" points="317.5,-758.5 442.5,-758.5 "/>
<text text-anchor="start" x="325.5" y="-746.5" font-family="Helvetica,sans-Serif" font-size="10.00">+ const_iterator</text>
<text text-anchor="start" x="325.5" y="-735.5" font-family="Helvetica,sans-Serif" font-size="10.00">+ Size</text>
<text text-anchor="start" x="325.5" y="-724.5" font-family="Helvetica,sans-Serif" font-size="10.00">+ Capacity</text>
<polyline fill="none" stroke="black" points="317.5,-717.5 442.5,-717.5 "/>
<text text-anchor="start" x="325.5" y="-705.5" font-family="Helvetica,sans-Serif" font-size="10.00">+ ImVector()</text>
<text text-anchor="start" x="325.5" y="-694.5" font-family="Helvetica,sans-Serif" font-size="10.00">+ ImVector()</text>
<text text-anchor="start" x="325.5" y="-683.5" font-family="Helvetica,sans-Serif" font-size="10.00">+ operator=()</text>
<text text-anchor="start" x="325.5" y="-672.5" font-family="Helvetica,sans-Serif" font-size="10.00">+ ~ImVector()</text>
<text text-anchor="start" x="325.5" y="-661.5" font-family="Helvetica,sans-Serif" font-size="10.00">+ clear()</text>
<text text-anchor="start" x="325.5" y="-650.5" font-family="Helvetica,sans-Serif" font-size="10.00">+ clear_delete()</text>
<text text-anchor="start" x="325.5" y="-639.5" font-family="Helvetica,sans-Serif" font-size="10.00">+ clear_destruct()</text>
<text text-anchor="start" x="325.5" y="-628.5" font-family="Helvetica,sans-Serif" font-size="10.00">+ empty()</text>
<text text-anchor="start" x="325.5" y="-617.5" font-family="Helvetica,sans-Serif" font-size="10.00">+ size()</text>
<text text-anchor="start" x="325.5" y="-606.5" font-family="Helvetica,sans-Serif" font-size="10.00">+ size_in_bytes()</text>
<text text-anchor="start" x="325.5" y="-595.5" font-family="Helvetica,sans-Serif" font-size="10.00">and 32 more...</text>
</a>
</g>
</g>
<!-- Node3&#45;&gt;Node7 -->
<g id="edge9" class="edge">
<title>Node3&#45;&gt;Node7</title>
<path fill="none" stroke="#404040" d="M405.2,-1146.39C399.24,-1036.96 391.15,-888.55 385.76,-789.7"/>
<polygon fill="none" stroke="#404040" points="385.75,-789.58 381.43,-783.81 385.1,-777.6 389.42,-783.37 385.75,-789.58"/>
<text text-anchor="middle" x="422.5" y="-1030.5" font-family="Helvetica,sans-Serif" font-size="10.00"> +Data</text>
</g>
<!-- Node3&#45;&gt;Node12 -->
<g id="edge18" class="edge">
<title>Node3&#45;&gt;Node12</title>
<path fill="none" stroke="#404040" d="M350.47,-1146.43C348.21,-1140.23 346.04,-1134.07 344,-1128 322.07,-1062.68 303.71,-986.28 291.79,-931.63"/>
<polygon fill="none" stroke="#404040" points="291.73,-931.35 286.55,-926.33 289.2,-919.62 294.37,-924.64 291.73,-931.35"/>
<text text-anchor="middle" x="360.5" y="-1030.5" font-family="Helvetica,sans-Serif" font-size="10.00"> +Font</text>
</g>
<!-- Node4 -->
<g id="node4" class="node">
<title>Node4</title>
<g id="a_node4"><a xlink:href="structImVector.html" target="_top" xlink:title=" ">
<polygon fill="none" stroke="black" points="633.5,-1488 633.5,-1677 778.5,-1677 778.5,-1488 633.5,-1488"/>
<text text-anchor="middle" x="706" y="-1665" font-family="Helvetica,sans-Serif" font-size="10.00">ImVector&lt; ImFontGlyph &gt;</text>
<polyline fill="none" stroke="black" points="633.5,-1658 778.5,-1658 "/>
<text text-anchor="start" x="641.5" y="-1646" font-family="Helvetica,sans-Serif" font-size="10.00">+ const_iterator</text>
<text text-anchor="start" x="641.5" y="-1635" font-family="Helvetica,sans-Serif" font-size="10.00">+ Size</text>
<text text-anchor="start" x="641.5" y="-1624" font-family="Helvetica,sans-Serif" font-size="10.00">+ Capacity</text>
<polyline fill="none" stroke="black" points="633.5,-1617 778.5,-1617 "/>
<text text-anchor="start" x="641.5" y="-1605" font-family="Helvetica,sans-Serif" font-size="10.00">+ ImVector()</text>
<text text-anchor="start" x="641.5" y="-1594" font-family="Helvetica,sans-Serif" font-size="10.00">+ ImVector()</text>
<text text-anchor="start" x="641.5" y="-1583" font-family="Helvetica,sans-Serif" font-size="10.00">+ operator=()</text>
<text text-anchor="start" x="641.5" y="-1572" font-family="Helvetica,sans-Serif" font-size="10.00">+ ~ImVector()</text>
<text text-anchor="start" x="641.5" y="-1561" font-family="Helvetica,sans-Serif" font-size="10.00">+ clear()</text>
<text text-anchor="start" x="641.5" y="-1550" font-family="Helvetica,sans-Serif" font-size="10.00">+ clear_delete()</text>
<text text-anchor="start" x="641.5" y="-1539" font-family="Helvetica,sans-Serif" font-size="10.00">+ clear_destruct()</text>
<text text-anchor="start" x="641.5" y="-1528" font-family="Helvetica,sans-Serif" font-size="10.00">+ empty()</text>
<text text-anchor="start" x="641.5" y="-1517" font-family="Helvetica,sans-Serif" font-size="10.00">+ size()</text>
<text text-anchor="start" x="641.5" y="-1506" font-family="Helvetica,sans-Serif" font-size="10.00">+ size_in_bytes()</text>
<text text-anchor="start" x="641.5" y="-1495" font-family="Helvetica,sans-Serif" font-size="10.00">and 32 more...</text>
</a>
</g>
</g>
<!-- Node4&#45;&gt;Node3 -->
<g id="edge3" class="edge">
<title>Node4&#45;&gt;Node3</title>
<path fill="none" stroke="#404040" d="M633.47,-1492.3C630.31,-1488.79 627.14,-1485.35 624,-1482 584.82,-1440.28 537.84,-1397.27 498.16,-1362.69"/>
<polygon fill="none" stroke="#404040" points="498.1,-1362.63 490.94,-1361.72 489.03,-1354.77 496.19,-1355.68 498.1,-1362.63"/>
<text text-anchor="middle" x="625" y="-1456" font-family="Helvetica,sans-Serif" font-size="10.00"> +Glyphs</text>
</g>
<!-- Node5 -->
<g id="node5" class="node">
<title>Node5</title>
<g id="a_node5"><a xlink:href="structImFontGlyph.html" target="_top" xlink:title=" ">
<polygon fill="none" stroke="black" points="454.5,-1741.5 454.5,-1919.5 533.5,-1919.5 533.5,-1741.5 454.5,-1741.5"/>
<text text-anchor="middle" x="494" y="-1907.5" font-family="Helvetica,sans-Serif" font-size="10.00">ImFontGlyph</text>
<polyline fill="none" stroke="black" points="454.5,-1900.5 533.5,-1900.5 "/>
<text text-anchor="start" x="462.5" y="-1888.5" font-family="Helvetica,sans-Serif" font-size="10.00">+ Colored</text>
<text text-anchor="start" x="462.5" y="-1877.5" font-family="Helvetica,sans-Serif" font-size="10.00">+ Visible</text>
<text text-anchor="start" x="462.5" y="-1866.5" font-family="Helvetica,sans-Serif" font-size="10.00">+ Codepoint</text>
<text text-anchor="start" x="462.5" y="-1855.5" font-family="Helvetica,sans-Serif" font-size="10.00">+ AdvanceX</text>
<text text-anchor="start" x="462.5" y="-1844.5" font-family="Helvetica,sans-Serif" font-size="10.00">+ X0</text>
<text text-anchor="start" x="462.5" y="-1833.5" font-family="Helvetica,sans-Serif" font-size="10.00">+ Y0</text>
<text text-anchor="start" x="462.5" y="-1822.5" font-family="Helvetica,sans-Serif" font-size="10.00">+ X1</text>
<text text-anchor="start" x="462.5" y="-1811.5" font-family="Helvetica,sans-Serif" font-size="10.00">+ Y1</text>
<text text-anchor="start" x="462.5" y="-1800.5" font-family="Helvetica,sans-Serif" font-size="10.00">+ U0</text>
<text text-anchor="start" x="462.5" y="-1789.5" font-family="Helvetica,sans-Serif" font-size="10.00">+ V0</text>
<text text-anchor="start" x="462.5" y="-1778.5" font-family="Helvetica,sans-Serif" font-size="10.00">+ U1</text>
<text text-anchor="start" x="462.5" y="-1767.5" font-family="Helvetica,sans-Serif" font-size="10.00">+ V1</text>
<polyline fill="none" stroke="black" points="454.5,-1760.5 533.5,-1760.5 "/>
<text text-anchor="middle" x="494" y="-1748.5" font-family="Helvetica,sans-Serif" font-size="10.00"> </text>
</a>
</g>
</g>
<!-- Node5&#45;&gt;Node3 -->
<g id="edge6" class="edge">
<title>Node5&#45;&gt;Node3</title>
<path fill="none" stroke="#404040" d="M454.45,-1764.36C441.57,-1739.76 428.83,-1710.94 422,-1683 403.33,-1606.68 399.68,-1519.48 401.3,-1446.78"/>
<polygon fill="none" stroke="#404040" points="401.3,-1446.78 397.46,-1440.67 401.62,-1434.78 405.46,-1440.88 401.3,-1446.78"/>
<text text-anchor="middle" x="462" y="-1580" font-family="Helvetica,sans-Serif" font-size="10.00"> +FallbackGlyph</text>
</g>
<!-- Node5&#45;&gt;Node4 -->
<g id="edge4" class="edge">
<title>Node5&#45;&gt;Node4</title>
<path fill="none" stroke="#404040" d="M533.68,-1785.63C559.64,-1756.72 594.16,-1717.89 624,-1683 624.48,-1682.44 624.96,-1681.88 625.44,-1681.32"/>
<polygon fill="none" stroke="#404040" points="625.52,-1681.22 626.36,-1674.06 633.29,-1672.07 632.45,-1679.23 625.52,-1681.22"/>
<text text-anchor="middle" x="623.5" y="-1709.5" font-family="Helvetica,sans-Serif" font-size="10.00"> +Data</text>
</g>
<!-- Node6&#45;&gt;Node3 -->
<g id="edge7" class="edge">
<title>Node6&#45;&gt;Node3</title>
<path fill="none" stroke="#404040" d="M428.14,-321.66C430.38,-337.62 432.39,-353.61 434,-369 469.09,-704.53 475.94,-792.15 444,-1128 443.8,-1130.05 443.6,-1132.12 443.37,-1134.19"/>
<polygon fill="none" stroke="#404040" points="443.37,-1134.25 446.64,-1140.68 441.97,-1146.17 438.7,-1139.75 443.37,-1134.25"/>
<text text-anchor="middle" x="507" y="-680.5" font-family="Helvetica,sans-Serif" font-size="10.00"> +ContainerAtlas</text>
</g>
<!-- Node7&#45;&gt;Node6 -->
<g id="edge8" class="edge">
<title>Node7&#45;&gt;Node6</title>
<path fill="none" stroke="#404040" d="M383.6,-588.43C386.32,-517.71 390.13,-418.65 393.39,-333.8"/>
<polygon fill="none" stroke="#404040" points="393.4,-333.65 389.63,-327.5 393.86,-321.66 397.63,-327.8 393.4,-333.65"/>
<text text-anchor="middle" x="411" y="-467" font-family="Helvetica,sans-Serif" font-size="10.00"> +Fonts</text>
</g>
<!-- Node8 -->
<g id="node8" class="node">
<title>Node8</title>
<g id="a_node8"><a xlink:href="structImFontBuilderIO.html" target="_top" xlink:title=" ">
<polygon fill="none" stroke="black" points="494.5,-441 494.5,-498 607.5,-498 607.5,-441 494.5,-441"/>
<text text-anchor="middle" x="551" y="-486" font-family="Helvetica,sans-Serif" font-size="10.00">ImFontBuilderIO</text>
<polyline fill="none" stroke="black" points="494.5,-479 607.5,-479 "/>
<text text-anchor="start" x="502.5" y="-467" font-family="Helvetica,sans-Serif" font-size="10.00">+ FontBuilder_Build</text>
<polyline fill="none" stroke="black" points="494.5,-460 607.5,-460 "/>
<text text-anchor="middle" x="551" y="-448" font-family="Helvetica,sans-Serif" font-size="10.00"> </text>
</a>
</g>
</g>
<!-- Node8&#45;&gt;Node6 -->
<g id="edge10" class="edge">
<title>Node8&#45;&gt;Node6</title>
<path fill="none" stroke="#404040" d="M537.33,-440.76C524.68,-415.08 504.74,-374.6 483.93,-332.36"/>
<polygon fill="none" stroke="#404040" points="483.93,-332.36 477.69,-328.75 478.63,-321.6 484.87,-325.21 483.93,-332.36"/>
<text text-anchor="middle" x="528" y="-343" font-family="Helvetica,sans-Serif" font-size="10.00"> +FontBuilderIO</text>
</g>
<!-- Node9 -->
<g id="node9" class="node">
<title>Node9</title>
<g id="a_node9"><a xlink:href="structImVec4.html" target="_top" xlink:title=" ">
<polygon fill="none" stroke="black" points="625.5,-419 625.5,-520 696.5,-520 696.5,-419 625.5,-419"/>
<text text-anchor="middle" x="661" y="-508" font-family="Helvetica,sans-Serif" font-size="10.00">ImVec4</text>
<polyline fill="none" stroke="black" points="625.5,-501 696.5,-501 "/>
<text text-anchor="start" x="633.5" y="-489" font-family="Helvetica,sans-Serif" font-size="10.00">+ x</text>
<text text-anchor="start" x="633.5" y="-478" font-family="Helvetica,sans-Serif" font-size="10.00">+ y</text>
<text text-anchor="start" x="633.5" y="-467" font-family="Helvetica,sans-Serif" font-size="10.00">+ z</text>
<text text-anchor="start" x="633.5" y="-456" font-family="Helvetica,sans-Serif" font-size="10.00">+ w</text>
<polyline fill="none" stroke="black" points="625.5,-449 696.5,-449 "/>
<text text-anchor="start" x="633.5" y="-437" font-family="Helvetica,sans-Serif" font-size="10.00">+ ImVec4()</text>
<text text-anchor="start" x="633.5" y="-426" font-family="Helvetica,sans-Serif" font-size="10.00">+ ImVec4()</text>
</a>
</g>
</g>
<!-- Node9&#45;&gt;Node6 -->
<g id="edge12" class="edge">
<title>Node9&#45;&gt;Node6</title>
<path fill="none" stroke="#404040" d="M643.57,-418.89C636.59,-402.27 627.64,-384.14 617,-369 589.38,-329.7 553.48,-291.85 518.86,-259.5"/>
<polygon fill="none" stroke="#404040" points="518.44,-259.1 511.31,-257.97 509.62,-250.96 516.74,-252.09 518.44,-259.1"/>
<text text-anchor="middle" x="635.5" y="-343" font-family="Helvetica,sans-Serif" font-size="10.00"> +TexUvLines</text>
</g>
<!-- Node10&#45;&gt;Node6 -->
<g id="edge13" class="edge">
<title>Node10&#45;&gt;Node6</title>
<path fill="none" stroke="#404040" d="M175.37,-938.29C145.48,-805.65 108.29,-558.25 188,-369 207.79,-322.02 244.03,-280.39 281.01,-247.01"/>
<polygon fill="none" stroke="#404040" points="281.43,-246.65 283.28,-239.68 290.42,-238.71 288.57,-245.68 281.43,-246.65"/>
<text text-anchor="middle" x="181" y="-680.5" font-family="Helvetica,sans-Serif" font-size="10.00"> +ConfigData</text>
</g>
<!-- Node11 -->
<g id="node11" class="node">
<title>Node11</title>
<g id="a_node11"><a xlink:href="structImVector.html" target="_top" xlink:title=" ">
<polygon fill="none" stroke="black" points="197.5,-369.5 197.5,-569.5 364.5,-569.5 364.5,-369.5 197.5,-369.5"/>
<text text-anchor="start" x="205.5" y="-557.5" font-family="Helvetica,sans-Serif" font-size="10.00">ImVector&lt; ImFontAtlasCustom</text>
<text text-anchor="middle" x="281" y="-546.5" font-family="Helvetica,sans-Serif" font-size="10.00">Rect &gt;</text>
<polyline fill="none" stroke="black" points="197.5,-539.5 364.5,-539.5 "/>
<text text-anchor="start" x="205.5" y="-527.5" font-family="Helvetica,sans-Serif" font-size="10.00">+ const_iterator</text>
<text text-anchor="start" x="205.5" y="-516.5" font-family="Helvetica,sans-Serif" font-size="10.00">+ Size</text>
<text text-anchor="start" x="205.5" y="-505.5" font-family="Helvetica,sans-Serif" font-size="10.00">+ Capacity</text>
<polyline fill="none" stroke="black" points="197.5,-498.5 364.5,-498.5 "/>
<text text-anchor="start" x="205.5" y="-486.5" font-family="Helvetica,sans-Serif" font-size="10.00">+ ImVector()</text>
<text text-anchor="start" x="205.5" y="-475.5" font-family="Helvetica,sans-Serif" font-size="10.00">+ ImVector()</text>
<text text-anchor="start" x="205.5" y="-464.5" font-family="Helvetica,sans-Serif" font-size="10.00">+ operator=()</text>
<text text-anchor="start" x="205.5" y="-453.5" font-family="Helvetica,sans-Serif" font-size="10.00">+ ~ImVector()</text>
<text text-anchor="start" x="205.5" y="-442.5" font-family="Helvetica,sans-Serif" font-size="10.00">+ clear()</text>
<text text-anchor="start" x="205.5" y="-431.5" font-family="Helvetica,sans-Serif" font-size="10.00">+ clear_delete()</text>
<text text-anchor="start" x="205.5" y="-420.5" font-family="Helvetica,sans-Serif" font-size="10.00">+ clear_destruct()</text>
<text text-anchor="start" x="205.5" y="-409.5" font-family="Helvetica,sans-Serif" font-size="10.00">+ empty()</text>
<text text-anchor="start" x="205.5" y="-398.5" font-family="Helvetica,sans-Serif" font-size="10.00">+ size()</text>
<text text-anchor="start" x="205.5" y="-387.5" font-family="Helvetica,sans-Serif" font-size="10.00">+ size_in_bytes()</text>
<text text-anchor="start" x="205.5" y="-376.5" font-family="Helvetica,sans-Serif" font-size="10.00">and 32 more...</text>
</a>
</g>
</g>
<!-- Node11&#45;&gt;Node6 -->
<g id="edge15" class="edge">
<title>Node11&#45;&gt;Node6</title>
<path fill="none" stroke="#404040" d="M300.82,-369.22C303.58,-359.25 306.64,-349.36 310,-340 310.81,-337.74 311.65,-335.47 312.5,-333.2"/>
<polygon fill="none" stroke="#404040" points="312.59,-332.96 311.04,-325.92 316.94,-321.78 318.49,-328.82 312.59,-332.96"/>
<text text-anchor="middle" x="348" y="-343" font-family="Helvetica,sans-Serif" font-size="10.00"> +CustomRects</text>
</g>
<!-- Node12&#45;&gt;Node11 -->
<g id="edge16" class="edge">
<title>Node12&#45;&gt;Node11</title>
<path fill="none" stroke="#404040" d="M273.61,-796.2C273.36,-790.05 273.15,-783.9 273,-778 270.86,-693.58 270.13,-672.4 273,-588 273.07,-585.93 273.15,-583.84 273.23,-581.73"/>
<polygon fill="none" stroke="#404040" points="273.24,-581.51 269.51,-575.34 273.78,-569.52 277.5,-575.69 273.24,-581.51"/>
<text text-anchor="middle" x="290.5" y="-680.5" font-family="Helvetica,sans-Serif" font-size="10.00"> +Data</text>
</g>
<!-- Node13 -->
<g id="node13" class="node">
<title>Node13</title>
<g id="a_node13"><a xlink:href="structImVector.html" target="_top" xlink:title=" ">
<polygon fill="none" stroke="black" points="511,-1482.5 511,-1682.5 615,-1682.5 615,-1482.5 511,-1482.5"/>
<text text-anchor="middle" x="563" y="-1670.5" font-family="Helvetica,sans-Serif" font-size="10.00">ImVector&lt; float &gt;</text>
<polyline fill="none" stroke="black" points="511,-1663.5 615,-1663.5 "/>
<text text-anchor="start" x="519" y="-1651.5" font-family="Helvetica,sans-Serif" font-size="10.00">+ const_iterator</text>
<text text-anchor="start" x="519" y="-1640.5" font-family="Helvetica,sans-Serif" font-size="10.00">+ Size</text>
<text text-anchor="start" x="519" y="-1629.5" font-family="Helvetica,sans-Serif" font-size="10.00">+ Capacity</text>
<text text-anchor="start" x="519" y="-1618.5" font-family="Helvetica,sans-Serif" font-size="10.00">+ Data</text>
<polyline fill="none" stroke="black" points="511,-1611.5 615,-1611.5 "/>
<text text-anchor="start" x="519" y="-1599.5" font-family="Helvetica,sans-Serif" font-size="10.00">+ ImVector()</text>
<text text-anchor="start" x="519" y="-1588.5" font-family="Helvetica,sans-Serif" font-size="10.00">+ ImVector()</text>
<text text-anchor="start" x="519" y="-1577.5" font-family="Helvetica,sans-Serif" font-size="10.00">+ operator=()</text>
<text text-anchor="start" x="519" y="-1566.5" font-family="Helvetica,sans-Serif" font-size="10.00">+ ~ImVector()</text>
<text text-anchor="start" x="519" y="-1555.5" font-family="Helvetica,sans-Serif" font-size="10.00">+ clear()</text>
<text text-anchor="start" x="519" y="-1544.5" font-family="Helvetica,sans-Serif" font-size="10.00">+ clear_delete()</text>
<text text-anchor="start" x="519" y="-1533.5" font-family="Helvetica,sans-Serif" font-size="10.00">+ clear_destruct()</text>
<text text-anchor="start" x="519" y="-1522.5" font-family="Helvetica,sans-Serif" font-size="10.00">+ empty()</text>
<text text-anchor="start" x="519" y="-1511.5" font-family="Helvetica,sans-Serif" font-size="10.00">+ size()</text>
<text text-anchor="start" x="519" y="-1500.5" font-family="Helvetica,sans-Serif" font-size="10.00">+ size_in_bytes()</text>
<text text-anchor="start" x="519" y="-1489.5" font-family="Helvetica,sans-Serif" font-size="10.00">and 32 more...</text>
</a>
</g>
</g>
<!-- Node13&#45;&gt;Node3 -->
<g id="edge19" class="edge">
<title>Node13&#45;&gt;Node3</title>
<path fill="none" stroke="#404040" d="M511.59,-1482.1C505.46,-1470.25 499.09,-1457.94 492.67,-1445.54"/>
<polygon fill="none" stroke="#404040" points="492.55,-1445.29 486.24,-1441.8 487.03,-1434.63 493.34,-1438.12 492.55,-1445.29"/>
<text text-anchor="middle" x="545" y="-1456" font-family="Helvetica,sans-Serif" font-size="10.00"> +IndexAdvanceX</text>
</g>
<!-- Node14 -->
<g id="node14" class="node">
<title>Node14</title>
<g id="a_node14"><a xlink:href="structImVector.html" target="_top" xlink:title=" ">
<polygon fill="none" stroke="black" points="797,-1482.5 797,-1682.5 923,-1682.5 923,-1482.5 797,-1482.5"/>
<text text-anchor="middle" x="860" y="-1670.5" font-family="Helvetica,sans-Serif" font-size="10.00">ImVector&lt; ImWchar &gt;</text>
<polyline fill="none" stroke="black" points="797,-1663.5 923,-1663.5 "/>
<text text-anchor="start" x="805" y="-1651.5" font-family="Helvetica,sans-Serif" font-size="10.00">+ const_iterator</text>
<text text-anchor="start" x="805" y="-1640.5" font-family="Helvetica,sans-Serif" font-size="10.00">+ Size</text>
<text text-anchor="start" x="805" y="-1629.5" font-family="Helvetica,sans-Serif" font-size="10.00">+ Capacity</text>
<text text-anchor="start" x="805" y="-1618.5" font-family="Helvetica,sans-Serif" font-size="10.00">+ Data</text>
<polyline fill="none" stroke="black" points="797,-1611.5 923,-1611.5 "/>
<text text-anchor="start" x="805" y="-1599.5" font-family="Helvetica,sans-Serif" font-size="10.00">+ ImVector()</text>
<text text-anchor="start" x="805" y="-1588.5" font-family="Helvetica,sans-Serif" font-size="10.00">+ ImVector()</text>
<text text-anchor="start" x="805" y="-1577.5" font-family="Helvetica,sans-Serif" font-size="10.00">+ operator=()</text>
<text text-anchor="start" x="805" y="-1566.5" font-family="Helvetica,sans-Serif" font-size="10.00">+ ~ImVector()</text>
<text text-anchor="start" x="805" y="-1555.5" font-family="Helvetica,sans-Serif" font-size="10.00">+ clear()</text>
<text text-anchor="start" x="805" y="-1544.5" font-family="Helvetica,sans-Serif" font-size="10.00">+ clear_delete()</text>
<text text-anchor="start" x="805" y="-1533.5" font-family="Helvetica,sans-Serif" font-size="10.00">+ clear_destruct()</text>
<text text-anchor="start" x="805" y="-1522.5" font-family="Helvetica,sans-Serif" font-size="10.00">+ empty()</text>
<text text-anchor="start" x="805" y="-1511.5" font-family="Helvetica,sans-Serif" font-size="10.00">+ size()</text>
<text text-anchor="start" x="805" y="-1500.5" font-family="Helvetica,sans-Serif" font-size="10.00">+ size_in_bytes()</text>
<text text-anchor="start" x="805" y="-1489.5" font-family="Helvetica,sans-Serif" font-size="10.00">and 32 more...</text>
</a>
</g>
</g>
<!-- Node14&#45;&gt;Node3 -->
<g id="edge20" class="edge">
<title>Node14&#45;&gt;Node3</title>
<path fill="none" stroke="#404040" d="M796.58,-1489.87C793.78,-1487.13 790.92,-1484.49 788,-1482 701.63,-1408.18 581.72,-1353.72 500.94,-1322.36"/>
<polygon fill="none" stroke="#404040" points="500.52,-1322.2 493.49,-1323.78 489.32,-1317.9 496.35,-1316.31 500.52,-1322.2"/>
<text text-anchor="middle" x="797.5" y="-1456" font-family="Helvetica,sans-Serif" font-size="10.00"> +IndexLookup</text>
</g>
</g>
</svg>
