<?xml version="1.0" encoding="UTF-8" standalone="no"?>
<!DOCTYPE svg PUBLIC "-//W3C//DTD SVG 1.1//EN"
 "http://www.w3.org/Graphics/SVG/1.1/DTD/svg11.dtd">
<!-- Generated by graphviz version 2.43.0 (0)
 -->
<!-- Title: ImGuiResizeBorderDef Pages: 1 -->
<svg width="138pt" height="237pt"
 viewBox="0.00 0.00 138.00 237.00" xmlns="http://www.w3.org/2000/svg" xmlns:xlink="http://www.w3.org/1999/xlink">
<g id="graph0" class="graph" transform="scale(1 1) rotate(0) translate(4 233)">
<title>ImGuiResizeBorderDef</title>
<!-- Node1 -->
<g id="node1" class="node">
<title>Node1</title>
<g id="a_node1"><a xlink:title=" ">
<polygon fill="#bfbfbf" stroke="black" points="0,-0.5 0,-57.5 128,-57.5 128,-0.5 0,-0.5"/>
<text text-anchor="middle" x="64" y="-45.5" font-family="Helvetica,sans-Serif" font-size="10.00">ImGuiResizeBorderDef</text>
<polyline fill="none" stroke="black" points="0,-38.5 128,-38.5 "/>
<text text-anchor="start" x="8" y="-26.5" font-family="Helvetica,sans-Serif" font-size="10.00">+ OuterAngle</text>
<polyline fill="none" stroke="black" points="0,-19.5 128,-19.5 "/>
<text text-anchor="middle" x="64" y="-7.5" font-family="Helvetica,sans-Serif" font-size="10.00"> </text>
</a>
</g>
</g>
<!-- Node2 -->
<g id="node2" class="node">
<title>Node2</title>
<g id="a_node2"><a xlink:href="structImVec2.html" target="_top" xlink:title=" ">
<polygon fill="none" stroke="black" points="22,-127.5 22,-228.5 106,-228.5 106,-127.5 22,-127.5"/>
<text text-anchor="middle" x="64" y="-216.5" font-family="Helvetica,sans-Serif" font-size="10.00">ImVec2</text>
<polyline fill="none" stroke="black" points="22,-209.5 106,-209.5 "/>
<text text-anchor="start" x="30" y="-197.5" font-family="Helvetica,sans-Serif" font-size="10.00">+ x</text>
<text text-anchor="start" x="30" y="-186.5" font-family="Helvetica,sans-Serif" font-size="10.00">+ y</text>
<polyline fill="none" stroke="black" points="22,-179.5 106,-179.5 "/>
<text text-anchor="start" x="30" y="-167.5" font-family="Helvetica,sans-Serif" font-size="10.00">+ ImVec2()</text>
<text text-anchor="start" x="30" y="-156.5" font-family="Helvetica,sans-Serif" font-size="10.00">+ ImVec2()</text>
<text text-anchor="start" x="30" y="-145.5" font-family="Helvetica,sans-Serif" font-size="10.00">+ operator[]()</text>
<text text-anchor="start" x="30" y="-134.5" font-family="Helvetica,sans-Serif" font-size="10.00">+ operator[]()</text>
</a>
</g>
</g>
<!-- Node2&#45;&gt;Node1 -->
<g id="edge1" class="edge">
<title>Node2&#45;&gt;Node1</title>
<path fill="none" stroke="#404040" d="M64,-127.23C64,-108.6 64,-87.69 64,-70.04"/>
<polygon fill="none" stroke="#404040" points="64,-69.85 60,-63.85 64,-57.85 68,-63.85 64,-69.85"/>
<text text-anchor="middle" x="97" y="-101" font-family="Helvetica,sans-Serif" font-size="10.00"> +InnerDir</text>
<text text-anchor="middle" x="97" y="-90" font-family="Helvetica,sans-Serif" font-size="10.00">+SegmentN1</text>
<text text-anchor="middle" x="97" y="-79" font-family="Helvetica,sans-Serif" font-size="10.00">+SegmentN2</text>
</g>
</g>
</svg>
