<?xml version="1.0" encoding="UTF-8" standalone="no"?>
<!DOCTYPE svg PUBLIC "-//W3C//DTD SVG 1.1//EN"
 "http://www.w3.org/Graphics/SVG/1.1/DTD/svg11.dtd">
<!-- Generated by graphviz version 2.43.0 (0)
 -->
<!-- Title: ImGuiStackTool Pages: 1 -->
<svg width="163pt" height="507pt"
 viewBox="0.00 0.00 163.00 507.00" xmlns="http://www.w3.org/2000/svg" xmlns:xlink="http://www.w3.org/1999/xlink">
<g id="graph0" class="graph" transform="scale(1 1) rotate(0) translate(4 503)">
<title>ImGuiStackTool</title>
<!-- Node1 -->
<g id="node1" class="node">
<title>Node1</title>
<g id="a_node1"><a xlink:title=" ">
<polygon fill="#bfbfbf" stroke="black" points="0,-0.5 0,-101.5 155,-101.5 155,-0.5 0,-0.5"/>
<text text-anchor="middle" x="77.5" y="-89.5" font-family="Helvetica,sans-Serif" font-size="10.00">ImGuiStackTool</text>
<polyline fill="none" stroke="black" points="0,-82.5 155,-82.5 "/>
<text text-anchor="start" x="8" y="-70.5" font-family="Helvetica,sans-Serif" font-size="10.00">+ LastActiveFrame</text>
<text text-anchor="start" x="8" y="-59.5" font-family="Helvetica,sans-Serif" font-size="10.00">+ StackLevel</text>
<text text-anchor="start" x="8" y="-48.5" font-family="Helvetica,sans-Serif" font-size="10.00">+ QueryId</text>
<text text-anchor="start" x="8" y="-37.5" font-family="Helvetica,sans-Serif" font-size="10.00">+ CopyToClipboardOnCtrlC</text>
<text text-anchor="start" x="8" y="-26.5" font-family="Helvetica,sans-Serif" font-size="10.00">+ CopyToClipboardLastTime</text>
<polyline fill="none" stroke="black" points="0,-19.5 155,-19.5 "/>
<text text-anchor="start" x="8" y="-7.5" font-family="Helvetica,sans-Serif" font-size="10.00">+ ImGuiStackTool()</text>
</a>
</g>
</g>
<!-- Node2 -->
<g id="node2" class="node">
<title>Node2</title>
<g id="a_node2"><a xlink:href="structImVector.html" target="_top" xlink:title=" ">
<polygon fill="none" stroke="black" points="0.5,-149.5 0.5,-349.5 154.5,-349.5 154.5,-149.5 0.5,-149.5"/>
<text text-anchor="start" x="8.5" y="-337.5" font-family="Helvetica,sans-Serif" font-size="10.00">ImVector&lt; ImGuiStackLevel</text>
<text text-anchor="middle" x="77.5" y="-326.5" font-family="Helvetica,sans-Serif" font-size="10.00">Info &gt;</text>
<polyline fill="none" stroke="black" points="0.5,-319.5 154.5,-319.5 "/>
<text text-anchor="start" x="8.5" y="-307.5" font-family="Helvetica,sans-Serif" font-size="10.00">+ const_iterator</text>
<text text-anchor="start" x="8.5" y="-296.5" font-family="Helvetica,sans-Serif" font-size="10.00">+ Size</text>
<text text-anchor="start" x="8.5" y="-285.5" font-family="Helvetica,sans-Serif" font-size="10.00">+ Capacity</text>
<polyline fill="none" stroke="black" points="0.5,-278.5 154.5,-278.5 "/>
<text text-anchor="start" x="8.5" y="-266.5" font-family="Helvetica,sans-Serif" font-size="10.00">+ ImVector()</text>
<text text-anchor="start" x="8.5" y="-255.5" font-family="Helvetica,sans-Serif" font-size="10.00">+ ImVector()</text>
<text text-anchor="start" x="8.5" y="-244.5" font-family="Helvetica,sans-Serif" font-size="10.00">+ operator=()</text>
<text text-anchor="start" x="8.5" y="-233.5" font-family="Helvetica,sans-Serif" font-size="10.00">+ ~ImVector()</text>
<text text-anchor="start" x="8.5" y="-222.5" font-family="Helvetica,sans-Serif" font-size="10.00">+ clear()</text>
<text text-anchor="start" x="8.5" y="-211.5" font-family="Helvetica,sans-Serif" font-size="10.00">+ clear_delete()</text>
<text text-anchor="start" x="8.5" y="-200.5" font-family="Helvetica,sans-Serif" font-size="10.00">+ clear_destruct()</text>
<text text-anchor="start" x="8.5" y="-189.5" font-family="Helvetica,sans-Serif" font-size="10.00">+ empty()</text>
<text text-anchor="start" x="8.5" y="-178.5" font-family="Helvetica,sans-Serif" font-size="10.00">+ size()</text>
<text text-anchor="start" x="8.5" y="-167.5" font-family="Helvetica,sans-Serif" font-size="10.00">+ size_in_bytes()</text>
<text text-anchor="start" x="8.5" y="-156.5" font-family="Helvetica,sans-Serif" font-size="10.00">and 32 more...</text>
</a>
</g>
</g>
<!-- Node2&#45;&gt;Node1 -->
<g id="edge1" class="edge">
<title>Node2&#45;&gt;Node1</title>
<path fill="none" stroke="#404040" d="M77.5,-149.39C77.5,-137.2 77.5,-125.03 77.5,-113.63"/>
<polygon fill="none" stroke="#404040" points="77.5,-113.59 73.5,-107.59 77.5,-101.59 81.5,-107.59 77.5,-113.59"/>
<text text-anchor="middle" x="101.5" y="-123" font-family="Helvetica,sans-Serif" font-size="10.00"> +Results</text>
</g>
<!-- Node3 -->
<g id="node3" class="node">
<title>Node3</title>
<g id="a_node3"><a xlink:href="structImGuiStackLevelInfo.html" target="_top" xlink:title=" ">
<polygon fill="none" stroke="black" points="9,-397.5 9,-498.5 146,-498.5 146,-397.5 9,-397.5"/>
<text text-anchor="middle" x="77.5" y="-486.5" font-family="Helvetica,sans-Serif" font-size="10.00">ImGuiStackLevelInfo</text>
<polyline fill="none" stroke="black" points="9,-479.5 146,-479.5 "/>
<text text-anchor="start" x="17" y="-467.5" font-family="Helvetica,sans-Serif" font-size="10.00">+ ID</text>
<text text-anchor="start" x="17" y="-456.5" font-family="Helvetica,sans-Serif" font-size="10.00">+ QueryFrameCount</text>
<text text-anchor="start" x="17" y="-445.5" font-family="Helvetica,sans-Serif" font-size="10.00">+ QuerySuccess</text>
<text text-anchor="start" x="17" y="-434.5" font-family="Helvetica,sans-Serif" font-size="10.00">+ DataType</text>
<text text-anchor="start" x="17" y="-423.5" font-family="Helvetica,sans-Serif" font-size="10.00">+ Desc</text>
<polyline fill="none" stroke="black" points="9,-416.5 146,-416.5 "/>
<text text-anchor="start" x="17" y="-404.5" font-family="Helvetica,sans-Serif" font-size="10.00">+ ImGuiStackLevelInfo()</text>
</a>
</g>
</g>
<!-- Node3&#45;&gt;Node2 -->
<g id="edge2" class="edge">
<title>Node3&#45;&gt;Node2</title>
<path fill="none" stroke="#404040" d="M77.5,-397.41C77.5,-386.3 77.5,-374.07 77.5,-361.57"/>
<polygon fill="none" stroke="#404040" points="77.5,-361.51 73.5,-355.51 77.5,-349.51 81.5,-355.51 77.5,-361.51"/>
<text text-anchor="middle" x="95" y="-371" font-family="Helvetica,sans-Serif" font-size="10.00"> +Data</text>
</g>
</g>
</svg>
