<?xml version="1.0" encoding="UTF-8" standalone="no"?>
<!DOCTYPE svg PUBLIC "-//W3C//DTD SVG 1.1//EN"
 "http://www.w3.org/Graphics/SVG/1.1/DTD/svg11.dtd">
<!-- Generated by graphviz version 2.43.0 (0)
 -->
<!-- Title: ImGuiNextWindowData Pages: 1 -->
<!--zoomable 529 -->
<svg id="main" version="1.1" xmlns="http://www.w3.org/2000/svg" xmlns:xlink="http://www.w3.org/1999/xlink" xml:space="preserve" onload="init(evt)">
<style type="text/css"><![CDATA[
.edge:hover path { stroke: red; }
.edge:hover polygon { stroke: red; fill: red; }
]]></style>
<script type="text/javascript"><![CDATA[
var edges = document.getElementsByTagName('g');
if (edges && edges.length) {
  for (var i=0;i<edges.length;i++) {
    if (edges[i].id.substr(0,4)=='edge') {
      edges[i].setAttribute('class','edge');
    }
  }
}
]]></script>
        <defs>
                <circle id="rim" cx="0" cy="0" r="7"/>
                <circle id="rim2" cx="0" cy="0" r="3.5"/>
                <g id="zoomPlus">
                        <use xlink:href="#rim" fill="#404040">
                                <set attributeName="fill" to="#808080" begin="zoomplus.mouseover" end="zoomplus.mouseout"/>
                        </use>
                        <path d="M-4,0h8M0,-4v8" fill="none" stroke="white" stroke-width="1.5" pointer-events="none"/>
                </g>
                <g id="zoomMin">
                        <use xlink:href="#rim" fill="#404040">
                                <set attributeName="fill" to="#808080" begin="zoomminus.mouseover" end="zoomminus.mouseout"/>
                        </use>
                        <path d="M-4,0h8" fill="none" stroke="white" stroke-width="1.5" pointer-events="none"/>
                </g>
                <g id="dirArrow">
                        <path fill="none" stroke="white" stroke-width="1.5" d="M0,-3.0v7 M-2.5,-0.5L0,-3.0L2.5,-0.5"/>
                </g>
               <g id="resetDef">
                       <use xlink:href="#rim2" fill="#404040">
                               <set attributeName="fill" to="#808080" begin="reset.mouseover" end="reset.mouseout"/>
                       </use>
               </g>
        </defs>

<script type="text/javascript">
var viewWidth = 395;
var viewHeight = 529;
var sectionId = 'dynsection-0';
</script>
<script xlink:href="svgpan.js"/>
<svg id="graph" class="graph">
<g id="viewport">
<title>ImGuiNextWindowData</title>
<!-- Node1 -->
<g id="node1" class="node">
<title>Node1</title>
<g id="a_node1"><a xlink:title=" ">
<polygon fill="#bfbfbf" stroke="black" points="119.02,-0.5 119.02,-134.5 269.02,-134.5 269.02,-0.5 119.02,-0.5"/>
<text text-anchor="middle" x="194.02" y="-122.5" font-family="Helvetica,sans-Serif" font-size="10.00">ImGuiNextWindowData</text>
<polyline fill="none" stroke="black" points="119.02,-115.5 269.02,-115.5 "/>
<text text-anchor="start" x="127.02" y="-103.5" font-family="Helvetica,sans-Serif" font-size="10.00">+ Flags</text>
<text text-anchor="start" x="127.02" y="-92.5" font-family="Helvetica,sans-Serif" font-size="10.00">+ PosCond</text>
<text text-anchor="start" x="127.02" y="-81.5" font-family="Helvetica,sans-Serif" font-size="10.00">+ SizeCond</text>
<text text-anchor="start" x="127.02" y="-70.5" font-family="Helvetica,sans-Serif" font-size="10.00">+ CollapsedCond</text>
<text text-anchor="start" x="127.02" y="-59.5" font-family="Helvetica,sans-Serif" font-size="10.00">+ CollapsedVal</text>
<text text-anchor="start" x="127.02" y="-48.5" font-family="Helvetica,sans-Serif" font-size="10.00">+ SizeCallbackUserData</text>
<text text-anchor="start" x="127.02" y="-37.5" font-family="Helvetica,sans-Serif" font-size="10.00">+ BgAlphaVal</text>
<polyline fill="none" stroke="black" points="119.02,-30.5 269.02,-30.5 "/>
<text text-anchor="start" x="127.02" y="-18.5" font-family="Helvetica,sans-Serif" font-size="10.00">+ ImGuiNextWindowData()</text>
<text text-anchor="start" x="127.02" y="-7.5" font-family="Helvetica,sans-Serif" font-size="10.00">+ ClearFlags()</text>
</a>
</g>
</g>
<!-- Node2 -->
<g id="node2" class="node">
<title>Node2</title>
<g id="a_node2"><a xlink:href="structImVec2.html" target="_top" xlink:title=" ">
<polygon fill="none" stroke="black" points="152.02,-419.5 152.02,-520.5 236.02,-520.5 236.02,-419.5 152.02,-419.5"/>
<text text-anchor="middle" x="194.02" y="-508.5" font-family="Helvetica,sans-Serif" font-size="10.00">ImVec2</text>
<polyline fill="none" stroke="black" points="152.02,-501.5 236.02,-501.5 "/>
<text text-anchor="start" x="160.02" y="-489.5" font-family="Helvetica,sans-Serif" font-size="10.00">+ x</text>
<text text-anchor="start" x="160.02" y="-478.5" font-family="Helvetica,sans-Serif" font-size="10.00">+ y</text>
<polyline fill="none" stroke="black" points="152.02,-471.5 236.02,-471.5 "/>
<text text-anchor="start" x="160.02" y="-459.5" font-family="Helvetica,sans-Serif" font-size="10.00">+ ImVec2()</text>
<text text-anchor="start" x="160.02" y="-448.5" font-family="Helvetica,sans-Serif" font-size="10.00">+ ImVec2()</text>
<text text-anchor="start" x="160.02" y="-437.5" font-family="Helvetica,sans-Serif" font-size="10.00">+ operator[]()</text>
<text text-anchor="start" x="160.02" y="-426.5" font-family="Helvetica,sans-Serif" font-size="10.00">+ operator[]()</text>
</a>
</g>
</g>
<!-- Node2&#45;&gt;Node1 -->
<g id="edge1" class="edge">
<title>Node2&#45;&gt;Node1</title>
<path fill="none" stroke="#404040" d="M151.95,-452.78C111.35,-434.58 52.29,-400.8 26.02,-350 -8.28,-283.68 -9.01,-247.94 26.02,-182 43.82,-148.49 76.43,-123.07 108.21,-104.88"/>
<polygon fill="none" stroke="#404040" points="108.42,-104.76 111.75,-98.37 118.93,-98.98 115.6,-105.38 108.42,-104.76"/>
<text text-anchor="middle" x="83.52" y="-291" font-family="Helvetica,sans-Serif" font-size="10.00"> +ContentSizeVal</text>
<text text-anchor="middle" x="83.52" y="-280" font-family="Helvetica,sans-Serif" font-size="10.00">+SizeVal</text>
<text text-anchor="middle" x="83.52" y="-269" font-family="Helvetica,sans-Serif" font-size="10.00">+ScrollVal</text>
<text text-anchor="middle" x="83.52" y="-258" font-family="Helvetica,sans-Serif" font-size="10.00">+PosPivotVal</text>
<text text-anchor="middle" x="83.52" y="-247" font-family="Helvetica,sans-Serif" font-size="10.00">+MenuBarOffsetMinVal</text>
<text text-anchor="middle" x="83.52" y="-236" font-family="Helvetica,sans-Serif" font-size="10.00">+PosVal</text>
</g>
<!-- Node3 -->
<g id="node3" class="node">
<title>Node3</title>
<g id="a_node3"><a xlink:href="structImRect.html" target="_top" xlink:title=" ">
<polygon fill="none" stroke="black" points="150.52,-182.5 150.52,-349.5 237.52,-349.5 237.52,-182.5 150.52,-182.5"/>
<text text-anchor="middle" x="194.02" y="-337.5" font-family="Helvetica,sans-Serif" font-size="10.00">ImRect</text>
<polyline fill="none" stroke="black" points="150.52,-330.5 237.52,-330.5 "/>
<text text-anchor="middle" x="194.02" y="-318.5" font-family="Helvetica,sans-Serif" font-size="10.00"> </text>
<polyline fill="none" stroke="black" points="150.52,-311.5 237.52,-311.5 "/>
<text text-anchor="start" x="158.52" y="-299.5" font-family="Helvetica,sans-Serif" font-size="10.00">+ ImRect()</text>
<text text-anchor="start" x="158.52" y="-288.5" font-family="Helvetica,sans-Serif" font-size="10.00">+ ImRect()</text>
<text text-anchor="start" x="158.52" y="-277.5" font-family="Helvetica,sans-Serif" font-size="10.00">+ ImRect()</text>
<text text-anchor="start" x="158.52" y="-266.5" font-family="Helvetica,sans-Serif" font-size="10.00">+ ImRect()</text>
<text text-anchor="start" x="158.52" y="-255.5" font-family="Helvetica,sans-Serif" font-size="10.00">+ GetCenter()</text>
<text text-anchor="start" x="158.52" y="-244.5" font-family="Helvetica,sans-Serif" font-size="10.00">+ GetSize()</text>
<text text-anchor="start" x="158.52" y="-233.5" font-family="Helvetica,sans-Serif" font-size="10.00">+ GetWidth()</text>
<text text-anchor="start" x="158.52" y="-222.5" font-family="Helvetica,sans-Serif" font-size="10.00">+ GetHeight()</text>
<text text-anchor="start" x="158.52" y="-211.5" font-family="Helvetica,sans-Serif" font-size="10.00">+ GetArea()</text>
<text text-anchor="start" x="158.52" y="-200.5" font-family="Helvetica,sans-Serif" font-size="10.00">+ GetTL()</text>
<text text-anchor="start" x="158.52" y="-189.5" font-family="Helvetica,sans-Serif" font-size="10.00">and 18 more...</text>
</a>
</g>
</g>
<!-- Node2&#45;&gt;Node3 -->
<g id="edge3" class="edge">
<title>Node2&#45;&gt;Node3</title>
<path fill="none" stroke="#404040" d="M194.02,-419.33C194.02,-401.83 194.02,-381.54 194.02,-361.58"/>
<polygon fill="none" stroke="#404040" points="194.02,-361.56 190.02,-355.56 194.02,-349.56 198.02,-355.56 194.02,-361.56"/>
<text text-anchor="middle" x="209.02" y="-387.5" font-family="Helvetica,sans-Serif" font-size="10.00"> +Min</text>
<text text-anchor="middle" x="209.02" y="-376.5" font-family="Helvetica,sans-Serif" font-size="10.00">+Max</text>
</g>
<!-- Node4 -->
<g id="node4" class="node">
<title>Node4</title>
<g id="a_node4"><a xlink:href="structImGuiSizeCallbackData.html" target="_top" xlink:title=" ">
<polygon fill="none" stroke="black" points="255.52,-237.5 255.52,-294.5 386.52,-294.5 386.52,-237.5 255.52,-237.5"/>
<text text-anchor="middle" x="321.02" y="-282.5" font-family="Helvetica,sans-Serif" font-size="10.00">ImGuiSizeCallbackData</text>
<polyline fill="none" stroke="black" points="255.52,-275.5 386.52,-275.5 "/>
<text text-anchor="start" x="263.52" y="-263.5" font-family="Helvetica,sans-Serif" font-size="10.00">+ UserData</text>
<polyline fill="none" stroke="black" points="255.52,-256.5 386.52,-256.5 "/>
<text text-anchor="middle" x="321.02" y="-244.5" font-family="Helvetica,sans-Serif" font-size="10.00"> </text>
</a>
</g>
</g>
<!-- Node2&#45;&gt;Node4 -->
<g id="edge5" class="edge">
<title>Node2&#45;&gt;Node4</title>
<path fill="none" stroke="#404040" d="M225.25,-419.33C247.42,-384.06 276.74,-337.43 297.07,-305.09"/>
<polygon fill="none" stroke="#404040" points="297.21,-304.87 297.02,-297.66 303.6,-294.71 303.79,-301.92 297.21,-304.87"/>
<text text-anchor="middle" x="293.02" y="-393" font-family="Helvetica,sans-Serif" font-size="10.00"> +DesiredSize</text>
<text text-anchor="middle" x="293.02" y="-382" font-family="Helvetica,sans-Serif" font-size="10.00">+CurrentSize</text>
<text text-anchor="middle" x="293.02" y="-371" font-family="Helvetica,sans-Serif" font-size="10.00">+Pos</text>
</g>
<!-- Node3&#45;&gt;Node1 -->
<g id="edge2" class="edge">
<title>Node3&#45;&gt;Node1</title>
<path fill="none" stroke="#404040" d="M194.02,-182.24C194.02,-170.6 194.02,-158.68 194.02,-147.13"/>
<polygon fill="none" stroke="#404040" points="194.02,-146.77 190.02,-140.77 194.02,-134.77 198.02,-140.77 194.02,-146.77"/>
<text text-anchor="middle" x="246.02" y="-156" font-family="Helvetica,sans-Serif" font-size="10.00"> +SizeConstraintRect</text>
</g>
<!-- Node4&#45;&gt;Node1 -->
<g id="edge4" class="edge">
<title>Node4&#45;&gt;Node1</title>
<path fill="none" stroke="#404040" d="M320.79,-237.33C319.43,-213.43 314.6,-178.78 299.02,-153 293.29,-143.51 286.08,-134.65 278.14,-126.49"/>
<polygon fill="none" stroke="#404040" points="277.91,-126.26 270.82,-124.97 269.28,-117.93 276.37,-119.22 277.91,-126.26"/>
<text text-anchor="middle" x="342.02" y="-156" font-family="Helvetica,sans-Serif" font-size="10.00"> +SizeCallback</text>
</g>
</g>
</svg>
        <g id="navigator" transform="translate(0 0)" fill="#404254">
                <rect fill="#f2f5e9" fill-opacity="0.5" stroke="#606060" stroke-width=".5" x="0" y="0" width="60" height="60"/>
                <use id="zoomplus" xlink:href="#zoomPlus" x="17" y="9" onmousedown="handleZoom(evt,'in')"/>
                <use id="zoomminus" xlink:href="#zoomMin" x="42" y="9" onmousedown="handleZoom(evt,'out')"/>
                <use id="reset" xlink:href="#resetDef" x="30" y="36" onmousedown="handleReset()"/>
                <g id="arrowUp" xlink:href="#dirArrow" transform="translate(30 24)" onmousedown="handlePan(0,-1)">
                  <use xlink:href="#rim" fill="#404040">
                        <set attributeName="fill" to="#808080" begin="arrowUp.mouseover" end="arrowUp.mouseout"/>
                  </use>
                  <path fill="none" stroke="white" stroke-width="1.5" d="M0,-3.0v7 M-2.5,-0.5L0,-3.0L2.5,-0.5"/>
                </g>
                <g id="arrowRight" xlink:href="#dirArrow" transform="rotate(90) translate(36 -43)" onmousedown="handlePan(1,0)">
                  <use xlink:href="#rim" fill="#404040">
                        <set attributeName="fill" to="#808080" begin="arrowRight.mouseover" end="arrowRight.mouseout"/>
                  </use>
                  <path fill="none" stroke="white" stroke-width="1.5" d="M0,-3.0v7 M-2.5,-0.5L0,-3.0L2.5,-0.5"/>
                </g>
                <g id="arrowDown" xlink:href="#dirArrow" transform="rotate(180) translate(-30 -48)" onmousedown="handlePan(0,1)">
                  <use xlink:href="#rim" fill="#404040">
                        <set attributeName="fill" to="#808080" begin="arrowDown.mouseover" end="arrowDown.mouseout"/>
                  </use>
                  <path fill="none" stroke="white" stroke-width="1.5" d="M0,-3.0v7 M-2.5,-0.5L0,-3.0L2.5,-0.5"/>
                </g>
                <g id="arrowLeft" xlink:href="#dirArrow" transform="rotate(270) translate(-36 17)" onmousedown="handlePan(-1,0)">
                  <use xlink:href="#rim" fill="#404040">
                        <set attributeName="fill" to="#808080" begin="arrowLeft.mouseover" end="arrowLeft.mouseout"/>
                  </use>
                  <path fill="none" stroke="white" stroke-width="1.5" d="M0,-3.0v7 M-2.5,-0.5L0,-3.0L2.5,-0.5"/>
                </g>
        </g>
        <svg viewBox="0 0 15 15" width="100%" height="30px" preserveAspectRatio="xMaxYMin meet">
         <g id="arrow_out" transform="scale(0.3 0.3)">
          <a xlink:href="structImGuiNextWindowData__coll__graph_org.svg" target="_base">
           <rect id="button" ry="5" rx="5" y="6" x="6" height="38" width="38"
                fill="#f2f5e9" fill-opacity="0.5" stroke="#606060" stroke-width="1.0"/>
           <path id="arrow"
             d="M 11.500037,31.436501 C 11.940474,20.09759 22.043105,11.32322 32.158766,21.979434 L 37.068811,17.246167 C 37.068811,17.246167 37.088388,32 37.088388,32 L 22.160133,31.978069 C 22.160133,31.978069 26.997745,27.140456 26.997745,27.140456 C 18.528582,18.264221 13.291696,25.230495 11.500037,31.436501 z"
             style="fill:#404040;"/>
          </a>
         </g>
        </svg>
</svg>
