<?xml version="1.0" encoding="UTF-8" standalone="no"?>
<!DOCTYPE svg PUBLIC "-//W3C//DTD SVG 1.1//EN"
 "http://www.w3.org/Graphics/SVG/1.1/DTD/svg11.dtd">
<!-- Generated by graphviz version 2.43.0 (0)
 -->
<!-- Title: ImGuiInputEvent Pages: 1 -->
<!--zoomable 226 -->
<svg id="main" version="1.1" xmlns="http://www.w3.org/2000/svg" xmlns:xlink="http://www.w3.org/1999/xlink" xml:space="preserve" onload="init(evt)">
<style type="text/css"><![CDATA[
.edge:hover path { stroke: red; }
.edge:hover polygon { stroke: red; fill: red; }
]]></style>
<script type="text/javascript"><![CDATA[
var edges = document.getElementsByTagName('g');
if (edges && edges.length) {
  for (var i=0;i<edges.length;i++) {
    if (edges[i].id.substr(0,4)=='edge') {
      edges[i].setAttribute('class','edge');
    }
  }
}
]]></script>
        <defs>
                <circle id="rim" cx="0" cy="0" r="7"/>
                <circle id="rim2" cx="0" cy="0" r="3.5"/>
                <g id="zoomPlus">
                        <use xlink:href="#rim" fill="#404040">
                                <set attributeName="fill" to="#808080" begin="zoomplus.mouseover" end="zoomplus.mouseout"/>
                        </use>
                        <path d="M-4,0h8M0,-4v8" fill="none" stroke="white" stroke-width="1.5" pointer-events="none"/>
                </g>
                <g id="zoomMin">
                        <use xlink:href="#rim" fill="#404040">
                                <set attributeName="fill" to="#808080" begin="zoomminus.mouseover" end="zoomminus.mouseout"/>
                        </use>
                        <path d="M-4,0h8" fill="none" stroke="white" stroke-width="1.5" pointer-events="none"/>
                </g>
                <g id="dirArrow">
                        <path fill="none" stroke="white" stroke-width="1.5" d="M0,-3.0v7 M-2.5,-0.5L0,-3.0L2.5,-0.5"/>
                </g>
               <g id="resetDef">
                       <use xlink:href="#rim2" fill="#404040">
                               <set attributeName="fill" to="#808080" begin="reset.mouseover" end="reset.mouseout"/>
                       </use>
               </g>
        </defs>

<script type="text/javascript">
var viewWidth = 964;
var viewHeight = 226;
var sectionId = 'dynsection-0';
</script>
<script xlink:href="svgpan.js"/>
<svg id="graph" class="graph">
<g id="viewport">
<title>ImGuiInputEvent</title>
<!-- Node1 -->
<g id="node1" class="node">
<title>Node1</title>
<g id="a_node1"><a xlink:title=" ">
<polygon fill="#bfbfbf" stroke="black" points="440.5,-0.5 440.5,-90.5 564.5,-90.5 564.5,-0.5 440.5,-0.5"/>
<text text-anchor="middle" x="502.5" y="-78.5" font-family="Helvetica,sans-Serif" font-size="10.00">ImGuiInputEvent</text>
<polyline fill="none" stroke="black" points="440.5,-71.5 564.5,-71.5 "/>
<text text-anchor="start" x="448.5" y="-59.5" font-family="Helvetica,sans-Serif" font-size="10.00">+ Type</text>
<text text-anchor="start" x="448.5" y="-48.5" font-family="Helvetica,sans-Serif" font-size="10.00">+ Source</text>
<text text-anchor="start" x="448.5" y="-37.5" font-family="Helvetica,sans-Serif" font-size="10.00">+ @7</text>
<text text-anchor="start" x="448.5" y="-26.5" font-family="Helvetica,sans-Serif" font-size="10.00">+ AddedByTestEngine</text>
<polyline fill="none" stroke="black" points="440.5,-19.5 564.5,-19.5 "/>
<text text-anchor="start" x="448.5" y="-7.5" font-family="Helvetica,sans-Serif" font-size="10.00">+ ImGuiInputEvent()</text>
</a>
</g>
</g>
<!-- Node2 -->
<g id="node2" class="node">
<title>Node2</title>
<g id="a_node2"><a xlink:href="structImGuiInputEventAppFocused.html" target="_top" xlink:title=" ">
<polygon fill="none" stroke="black" points="0,-149.5 0,-206.5 157,-206.5 157,-149.5 0,-149.5"/>
<text text-anchor="middle" x="78.5" y="-194.5" font-family="Helvetica,sans-Serif" font-size="10.00">ImGuiInputEventAppFocused</text>
<polyline fill="none" stroke="black" points="0,-187.5 157,-187.5 "/>
<text text-anchor="start" x="8" y="-175.5" font-family="Helvetica,sans-Serif" font-size="10.00">+ Focused</text>
<polyline fill="none" stroke="black" points="0,-168.5 157,-168.5 "/>
<text text-anchor="middle" x="78.5" y="-156.5" font-family="Helvetica,sans-Serif" font-size="10.00"> </text>
</a>
</g>
</g>
<!-- Node2&#45;&gt;Node1 -->
<g id="edge1" class="edge">
<title>Node2&#45;&gt;Node1</title>
<path fill="none" stroke="#404040" d="M137.65,-149.33C147.2,-145.28 157.05,-141.36 166.5,-138 254.9,-106.58 359.59,-79.63 428.34,-63.28"/>
<polygon fill="none" stroke="#404040" points="428.65,-63.2 433.57,-57.93 440.33,-60.45 435.41,-65.72 428.65,-63.2"/>
<text text-anchor="middle" x="283.5" y="-112" font-family="Helvetica,sans-Serif" font-size="10.00"> +AppFocused</text>
</g>
<!-- Node3 -->
<g id="node3" class="node">
<title>Node3</title>
<g id="a_node3"><a xlink:href="structImGuiInputEventMousePos.html" target="_top" xlink:title=" ">
<polygon fill="none" stroke="black" points="175.5,-144 175.5,-212 323.5,-212 323.5,-144 175.5,-144"/>
<text text-anchor="middle" x="249.5" y="-200" font-family="Helvetica,sans-Serif" font-size="10.00">ImGuiInputEventMousePos</text>
<polyline fill="none" stroke="black" points="175.5,-193 323.5,-193 "/>
<text text-anchor="start" x="183.5" y="-181" font-family="Helvetica,sans-Serif" font-size="10.00">+ PosX</text>
<text text-anchor="start" x="183.5" y="-170" font-family="Helvetica,sans-Serif" font-size="10.00">+ PosY</text>
<polyline fill="none" stroke="black" points="175.5,-163 323.5,-163 "/>
<text text-anchor="middle" x="249.5" y="-151" font-family="Helvetica,sans-Serif" font-size="10.00"> </text>
</a>
</g>
</g>
<!-- Node3&#45;&gt;Node1 -->
<g id="edge2" class="edge">
<title>Node3&#45;&gt;Node1</title>
<path fill="none" stroke="#404040" d="M313.67,-143.9C348.83,-125.77 392.55,-103.21 429.06,-84.38"/>
<polygon fill="none" stroke="#404040" points="429.48,-84.16 432.98,-77.86 440.15,-78.66 436.65,-84.97 429.48,-84.16"/>
<text text-anchor="middle" x="407" y="-112" font-family="Helvetica,sans-Serif" font-size="10.00"> +MousePos</text>
</g>
<!-- Node4 -->
<g id="node4" class="node">
<title>Node4</title>
<g id="a_node4"><a xlink:href="structImGuiInputEventMouseButton.html" target="_top" xlink:title=" ">
<polygon fill="none" stroke="black" points="342,-144 342,-212 505,-212 505,-144 342,-144"/>
<text text-anchor="middle" x="423.5" y="-200" font-family="Helvetica,sans-Serif" font-size="10.00">ImGuiInputEventMouseButton</text>
<polyline fill="none" stroke="black" points="342,-193 505,-193 "/>
<text text-anchor="start" x="350" y="-181" font-family="Helvetica,sans-Serif" font-size="10.00">+ Button</text>
<text text-anchor="start" x="350" y="-170" font-family="Helvetica,sans-Serif" font-size="10.00">+ Down</text>
<polyline fill="none" stroke="black" points="342,-163 505,-163 "/>
<text text-anchor="middle" x="423.5" y="-151" font-family="Helvetica,sans-Serif" font-size="10.00"> </text>
</a>
</g>
</g>
<!-- Node4&#45;&gt;Node1 -->
<g id="edge3" class="edge">
<title>Node4&#45;&gt;Node1</title>
<path fill="none" stroke="#404040" d="M443.64,-143.73C451.51,-130.73 460.75,-115.47 469.54,-100.95"/>
<polygon fill="none" stroke="#404040" points="469.62,-100.81 469.31,-93.61 475.83,-90.55 476.15,-97.75 469.62,-100.81"/>
<text text-anchor="middle" x="501.5" y="-112" font-family="Helvetica,sans-Serif" font-size="10.00"> +MouseButton</text>
</g>
<!-- Node5 -->
<g id="node5" class="node">
<title>Node5</title>
<g id="a_node5"><a xlink:href="structImGuiInputEventText.html" target="_top" xlink:title=" ">
<polygon fill="none" stroke="black" points="523,-149.5 523,-206.5 642,-206.5 642,-149.5 523,-149.5"/>
<text text-anchor="middle" x="582.5" y="-194.5" font-family="Helvetica,sans-Serif" font-size="10.00">ImGuiInputEventText</text>
<polyline fill="none" stroke="black" points="523,-187.5 642,-187.5 "/>
<text text-anchor="start" x="531" y="-175.5" font-family="Helvetica,sans-Serif" font-size="10.00">+ Char</text>
<polyline fill="none" stroke="black" points="523,-168.5 642,-168.5 "/>
<text text-anchor="middle" x="582.5" y="-156.5" font-family="Helvetica,sans-Serif" font-size="10.00"> </text>
</a>
</g>
</g>
<!-- Node5&#45;&gt;Node1 -->
<g id="edge4" class="edge">
<title>Node5&#45;&gt;Node1</title>
<path fill="none" stroke="#404040" d="M567.12,-149.32C560.09,-136.89 551.55,-122.11 543.5,-109 541.9,-106.39 540.24,-103.72 538.55,-101.04"/>
<polygon fill="none" stroke="#404040" points="538.39,-100.8 531.8,-97.89 531.95,-90.68 538.55,-93.59 538.39,-100.8"/>
<text text-anchor="middle" x="565.5" y="-112" font-family="Helvetica,sans-Serif" font-size="10.00"> +Text</text>
</g>
<!-- Node6 -->
<g id="node6" class="node">
<title>Node6</title>
<g id="a_node6"><a xlink:href="structImGuiInputEventMouseWheel.html" target="_top" xlink:title=" ">
<polygon fill="none" stroke="black" points="660,-144 660,-212 821,-212 821,-144 660,-144"/>
<text text-anchor="middle" x="740.5" y="-200" font-family="Helvetica,sans-Serif" font-size="10.00">ImGuiInputEventMouseWheel</text>
<polyline fill="none" stroke="black" points="660,-193 821,-193 "/>
<text text-anchor="start" x="668" y="-181" font-family="Helvetica,sans-Serif" font-size="10.00">+ WheelX</text>
<text text-anchor="start" x="668" y="-170" font-family="Helvetica,sans-Serif" font-size="10.00">+ WheelY</text>
<polyline fill="none" stroke="black" points="660,-163 821,-163 "/>
<text text-anchor="middle" x="740.5" y="-151" font-family="Helvetica,sans-Serif" font-size="10.00"> </text>
</a>
</g>
</g>
<!-- Node6&#45;&gt;Node1 -->
<g id="edge5" class="edge">
<title>Node6&#45;&gt;Node1</title>
<path fill="none" stroke="#404040" d="M680.13,-143.9C648.32,-126.46 609.06,-104.93 575.54,-86.55"/>
<polygon fill="none" stroke="#404040" points="575.4,-86.47 568.21,-87.09 564.88,-80.7 572.06,-80.08 575.4,-86.47"/>
<text text-anchor="middle" x="673" y="-112" font-family="Helvetica,sans-Serif" font-size="10.00"> +MouseWheel</text>
</g>
<!-- Node7 -->
<g id="node7" class="node">
<title>Node7</title>
<g id="a_node7"><a xlink:href="structImGuiInputEventKey.html" target="_top" xlink:title=" ">
<polygon fill="none" stroke="black" points="839.5,-138.5 839.5,-217.5 955.5,-217.5 955.5,-138.5 839.5,-138.5"/>
<text text-anchor="middle" x="897.5" y="-205.5" font-family="Helvetica,sans-Serif" font-size="10.00">ImGuiInputEventKey</text>
<polyline fill="none" stroke="black" points="839.5,-198.5 955.5,-198.5 "/>
<text text-anchor="start" x="847.5" y="-186.5" font-family="Helvetica,sans-Serif" font-size="10.00">+ Key</text>
<text text-anchor="start" x="847.5" y="-175.5" font-family="Helvetica,sans-Serif" font-size="10.00">+ Down</text>
<text text-anchor="start" x="847.5" y="-164.5" font-family="Helvetica,sans-Serif" font-size="10.00">+ AnalogValue</text>
<polyline fill="none" stroke="black" points="839.5,-157.5 955.5,-157.5 "/>
<text text-anchor="middle" x="897.5" y="-145.5" font-family="Helvetica,sans-Serif" font-size="10.00"> </text>
</a>
</g>
</g>
<!-- Node7&#45;&gt;Node1 -->
<g id="edge6" class="edge">
<title>Node7&#45;&gt;Node1</title>
<path fill="none" stroke="#404040" d="M839.49,-142.06C836.48,-140.62 833.48,-139.26 830.5,-138 746.24,-102.42 644.03,-76.42 576.34,-61.43"/>
<polygon fill="none" stroke="#404040" points="576.25,-61.41 569.54,-64.03 564.53,-58.84 571.25,-56.22 576.25,-61.41"/>
<text text-anchor="middle" x="793.5" y="-112" font-family="Helvetica,sans-Serif" font-size="10.00"> +Key</text>
</g>
</g>
</svg>
        <g id="navigator" transform="translate(0 0)" fill="#404254">
                <rect fill="#f2f5e9" fill-opacity="0.5" stroke="#606060" stroke-width=".5" x="0" y="0" width="60" height="60"/>
                <use id="zoomplus" xlink:href="#zoomPlus" x="17" y="9" onmousedown="handleZoom(evt,'in')"/>
                <use id="zoomminus" xlink:href="#zoomMin" x="42" y="9" onmousedown="handleZoom(evt,'out')"/>
                <use id="reset" xlink:href="#resetDef" x="30" y="36" onmousedown="handleReset()"/>
                <g id="arrowUp" xlink:href="#dirArrow" transform="translate(30 24)" onmousedown="handlePan(0,-1)">
                  <use xlink:href="#rim" fill="#404040">
                        <set attributeName="fill" to="#808080" begin="arrowUp.mouseover" end="arrowUp.mouseout"/>
                  </use>
                  <path fill="none" stroke="white" stroke-width="1.5" d="M0,-3.0v7 M-2.5,-0.5L0,-3.0L2.5,-0.5"/>
                </g>
                <g id="arrowRight" xlink:href="#dirArrow" transform="rotate(90) translate(36 -43)" onmousedown="handlePan(1,0)">
                  <use xlink:href="#rim" fill="#404040">
                        <set attributeName="fill" to="#808080" begin="arrowRight.mouseover" end="arrowRight.mouseout"/>
                  </use>
                  <path fill="none" stroke="white" stroke-width="1.5" d="M0,-3.0v7 M-2.5,-0.5L0,-3.0L2.5,-0.5"/>
                </g>
                <g id="arrowDown" xlink:href="#dirArrow" transform="rotate(180) translate(-30 -48)" onmousedown="handlePan(0,1)">
                  <use xlink:href="#rim" fill="#404040">
                        <set attributeName="fill" to="#808080" begin="arrowDown.mouseover" end="arrowDown.mouseout"/>
                  </use>
                  <path fill="none" stroke="white" stroke-width="1.5" d="M0,-3.0v7 M-2.5,-0.5L0,-3.0L2.5,-0.5"/>
                </g>
                <g id="arrowLeft" xlink:href="#dirArrow" transform="rotate(270) translate(-36 17)" onmousedown="handlePan(-1,0)">
                  <use xlink:href="#rim" fill="#404040">
                        <set attributeName="fill" to="#808080" begin="arrowLeft.mouseover" end="arrowLeft.mouseout"/>
                  </use>
                  <path fill="none" stroke="white" stroke-width="1.5" d="M0,-3.0v7 M-2.5,-0.5L0,-3.0L2.5,-0.5"/>
                </g>
        </g>
        <svg viewBox="0 0 15 15" width="100%" height="30px" preserveAspectRatio="xMaxYMin meet">
         <g id="arrow_out" transform="scale(0.3 0.3)">
          <a xlink:href="structImGuiInputEvent__coll__graph_org.svg" target="_base">
           <rect id="button" ry="5" rx="5" y="6" x="6" height="38" width="38"
                fill="#f2f5e9" fill-opacity="0.5" stroke="#606060" stroke-width="1.0"/>
           <path id="arrow"
             d="M 11.500037,31.436501 C 11.940474,20.09759 22.043105,11.32322 32.158766,21.979434 L 37.068811,17.246167 C 37.068811,17.246167 37.088388,32 37.088388,32 L 22.160133,31.978069 C 22.160133,31.978069 26.997745,27.140456 26.997745,27.140456 C 18.528582,18.264221 13.291696,25.230495 11.500037,31.436501 z"
             style="fill:#404040;"/>
          </a>
         </g>
        </svg>
</svg>
