<?xml version="1.0" encoding="UTF-8" standalone="no"?>
<!DOCTYPE svg PUBLIC "-//W3C//DTD SVG 1.1//EN"
 "http://www.w3.org/Graphics/SVG/1.1/DTD/svg11.dtd">
<!-- Generated by graphviz version 2.43.0 (0)
 -->
<!-- Title: ImGuiIO Pages: 1 -->
<svg width="1123pt" height="1575pt"
 viewBox="0.00 0.00 1122.88 1575.00" xmlns="http://www.w3.org/2000/svg" xmlns:xlink="http://www.w3.org/1999/xlink">
<g id="graph0" class="graph" transform="scale(1 1) rotate(0) translate(4 1571)">
<title>ImGuiIO</title>
<!-- Node1 -->
<g id="node1" class="node">
<title>Node1</title>
<g id="a_node1"><a xlink:title=" ">
<polygon fill="#bfbfbf" stroke="black" points="461.38,-248.5 461.38,-558.5 620.38,-558.5 620.38,-248.5 461.38,-248.5"/>
<text text-anchor="middle" x="540.88" y="-546.5" font-family="Helvetica,sans-Serif" font-size="10.00">ImGuiIO</text>
<polyline fill="none" stroke="black" points="461.38,-539.5 620.38,-539.5 "/>
<text text-anchor="start" x="469.38" y="-527.5" font-family="Helvetica,sans-Serif" font-size="10.00">+ ConfigFlags</text>
<text text-anchor="start" x="469.38" y="-516.5" font-family="Helvetica,sans-Serif" font-size="10.00">+ BackendFlags</text>
<text text-anchor="start" x="469.38" y="-505.5" font-family="Helvetica,sans-Serif" font-size="10.00">+ DeltaTime</text>
<text text-anchor="start" x="469.38" y="-494.5" font-family="Helvetica,sans-Serif" font-size="10.00">+ IniSavingRate</text>
<text text-anchor="start" x="469.38" y="-483.5" font-family="Helvetica,sans-Serif" font-size="10.00">+ IniFilename</text>
<text text-anchor="start" x="469.38" y="-472.5" font-family="Helvetica,sans-Serif" font-size="10.00">+ LogFilename</text>
<text text-anchor="start" x="469.38" y="-461.5" font-family="Helvetica,sans-Serif" font-size="10.00">+ MouseDoubleClickTime</text>
<text text-anchor="start" x="469.38" y="-450.5" font-family="Helvetica,sans-Serif" font-size="10.00">+ MouseDoubleClickMaxDist</text>
<text text-anchor="start" x="469.38" y="-439.5" font-family="Helvetica,sans-Serif" font-size="10.00">+ MouseDragThreshold</text>
<text text-anchor="start" x="469.38" y="-428.5" font-family="Helvetica,sans-Serif" font-size="10.00">+ KeyRepeatDelay</text>
<text text-anchor="start" x="469.38" y="-417.5" font-family="Helvetica,sans-Serif" font-size="10.00">and 67 more...</text>
<polyline fill="none" stroke="black" points="461.38,-410.5 620.38,-410.5 "/>
<text text-anchor="start" x="469.38" y="-398.5" font-family="Helvetica,sans-Serif" font-size="10.00">+ AddKeyEvent()</text>
<text text-anchor="start" x="469.38" y="-387.5" font-family="Helvetica,sans-Serif" font-size="10.00">+ AddKeyAnalogEvent()</text>
<text text-anchor="start" x="469.38" y="-376.5" font-family="Helvetica,sans-Serif" font-size="10.00">+ AddMousePosEvent()</text>
<text text-anchor="start" x="469.38" y="-365.5" font-family="Helvetica,sans-Serif" font-size="10.00">+ AddMouseButtonEvent()</text>
<text text-anchor="start" x="469.38" y="-354.5" font-family="Helvetica,sans-Serif" font-size="10.00">+ AddMouseWheelEvent()</text>
<text text-anchor="start" x="469.38" y="-343.5" font-family="Helvetica,sans-Serif" font-size="10.00">+ AddFocusEvent()</text>
<text text-anchor="start" x="469.38" y="-332.5" font-family="Helvetica,sans-Serif" font-size="10.00">+ AddInputCharacter()</text>
<text text-anchor="start" x="469.38" y="-321.5" font-family="Helvetica,sans-Serif" font-size="10.00">+ AddInputCharacterUTF16()</text>
<text text-anchor="start" x="469.38" y="-310.5" font-family="Helvetica,sans-Serif" font-size="10.00">+ AddInputCharactersUTF8()</text>
<text text-anchor="start" x="469.38" y="-299.5" font-family="Helvetica,sans-Serif" font-size="10.00">+ SetKeyEventNativeData()</text>
<text text-anchor="start" x="469.38" y="-288.5" font-family="Helvetica,sans-Serif" font-size="10.00">+ SetAppAcceptingEvents()</text>
<text text-anchor="start" x="469.38" y="-277.5" font-family="Helvetica,sans-Serif" font-size="10.00">+ ClearInputCharacters()</text>
<text text-anchor="start" x="469.38" y="-266.5" font-family="Helvetica,sans-Serif" font-size="10.00">+ ClearInputKeys()</text>
<text text-anchor="start" x="469.38" y="-255.5" font-family="Helvetica,sans-Serif" font-size="10.00">+ ImGuiIO()</text>
</a>
</g>
</g>
<!-- Node2 -->
<g id="node2" class="node">
<title>Node2</title>
<g id="a_node2"><a xlink:href="structImGuiKeyData.html" target="_top" xlink:title=" ">
<polygon fill="none" stroke="black" points="672.38,-705.5 672.38,-795.5 791.38,-795.5 791.38,-705.5 672.38,-705.5"/>
<text text-anchor="middle" x="731.88" y="-783.5" font-family="Helvetica,sans-Serif" font-size="10.00">ImGuiKeyData</text>
<polyline fill="none" stroke="black" points="672.38,-776.5 791.38,-776.5 "/>
<text text-anchor="start" x="680.38" y="-764.5" font-family="Helvetica,sans-Serif" font-size="10.00">+ Down</text>
<text text-anchor="start" x="680.38" y="-753.5" font-family="Helvetica,sans-Serif" font-size="10.00">+ DownDuration</text>
<text text-anchor="start" x="680.38" y="-742.5" font-family="Helvetica,sans-Serif" font-size="10.00">+ DownDurationPrev</text>
<text text-anchor="start" x="680.38" y="-731.5" font-family="Helvetica,sans-Serif" font-size="10.00">+ AnalogValue</text>
<polyline fill="none" stroke="black" points="672.38,-724.5 791.38,-724.5 "/>
<text text-anchor="middle" x="731.88" y="-712.5" font-family="Helvetica,sans-Serif" font-size="10.00"> </text>
</a>
</g>
</g>
<!-- Node2&#45;&gt;Node1 -->
<g id="edge1" class="edge">
<title>Node2&#45;&gt;Node1</title>
<path fill="none" stroke="#404040" d="M709.78,-705.24C695.35,-676.72 675.93,-638.94 657.88,-606 647.93,-587.82 637.27,-568.85 626.59,-550.13"/>
<polygon fill="none" stroke="#404040" points="626.44,-549.87 619.99,-546.65 620.49,-539.46 626.94,-542.68 626.44,-549.87"/>
<text text-anchor="middle" x="674.88" y="-580" font-family="Helvetica,sans-Serif" font-size="10.00"> +KeysData</text>
</g>
<!-- Node3 -->
<g id="node3" class="node">
<title>Node3</title>
<g id="a_node3"><a xlink:href="structImVec2.html" target="_top" xlink:title=" ">
<polygon fill="none" stroke="black" points="108.88,-1427 108.88,-1528 192.88,-1528 192.88,-1427 108.88,-1427"/>
<text text-anchor="middle" x="150.88" y="-1516" font-family="Helvetica,sans-Serif" font-size="10.00">ImVec2</text>
<polyline fill="none" stroke="black" points="108.88,-1509 192.88,-1509 "/>
<text text-anchor="start" x="116.88" y="-1497" font-family="Helvetica,sans-Serif" font-size="10.00">+ x</text>
<text text-anchor="start" x="116.88" y="-1486" font-family="Helvetica,sans-Serif" font-size="10.00">+ y</text>
<polyline fill="none" stroke="black" points="108.88,-1479 192.88,-1479 "/>
<text text-anchor="start" x="116.88" y="-1467" font-family="Helvetica,sans-Serif" font-size="10.00">+ ImVec2()</text>
<text text-anchor="start" x="116.88" y="-1456" font-family="Helvetica,sans-Serif" font-size="10.00">+ ImVec2()</text>
<text text-anchor="start" x="116.88" y="-1445" font-family="Helvetica,sans-Serif" font-size="10.00">+ operator[]()</text>
<text text-anchor="start" x="116.88" y="-1434" font-family="Helvetica,sans-Serif" font-size="10.00">+ operator[]()</text>
</a>
</g>
</g>
<!-- Node3&#45;&gt;Node1 -->
<g id="edge2" class="edge">
<title>Node3&#45;&gt;Node1</title>
<path fill="none" stroke="#404040" d="M152.81,-1426.78C157.55,-1327.68 172.93,-1099.07 218.88,-913 253.89,-771.24 242.82,-718.52 335.88,-606 351.53,-587.09 360.31,-586.65 382.88,-577 412.02,-564.54 426.68,-578.22 451.88,-559 451.98,-558.92 452.08,-558.85 452.18,-558.77"/>
<polygon fill="none" stroke="#404040" points="451.98,-558.94 454.03,-552.02 461.2,-551.25 459.15,-558.16 451.98,-558.94"/>
<text text-anchor="middle" x="271.38" y="-982" font-family="Helvetica,sans-Serif" font-size="10.00"> +MouseClickedPos</text>
<text text-anchor="middle" x="271.38" y="-971" font-family="Helvetica,sans-Serif" font-size="10.00">+MousePos</text>
<text text-anchor="middle" x="271.38" y="-960" font-family="Helvetica,sans-Serif" font-size="10.00">+MousePosPrev</text>
<text text-anchor="middle" x="271.38" y="-949" font-family="Helvetica,sans-Serif" font-size="10.00">+MouseDelta</text>
<text text-anchor="start" x="218.88" y="-938" font-family="Helvetica,sans-Serif" font-size="10.00">+DisplayFramebuffer</text>
<text text-anchor="middle" x="271.38" y="-927" font-family="Helvetica,sans-Serif" font-size="10.00">Scale</text>
<text text-anchor="middle" x="271.38" y="-916" font-family="Helvetica,sans-Serif" font-size="10.00">+DisplaySize</text>
</g>
<!-- Node4 -->
<g id="node4" class="node">
<title>Node4</title>
<g id="a_node4"><a xlink:href="structImFontAtlas.html" target="_top" xlink:title=" ">
<polygon fill="none" stroke="black" points="795.38,-1008.5 795.38,-1329.5 1014.38,-1329.5 1014.38,-1008.5 795.38,-1008.5"/>
<text text-anchor="middle" x="904.88" y="-1317.5" font-family="Helvetica,sans-Serif" font-size="10.00">ImFontAtlas</text>
<polyline fill="none" stroke="black" points="795.38,-1310.5 1014.38,-1310.5 "/>
<text text-anchor="start" x="803.38" y="-1298.5" font-family="Helvetica,sans-Serif" font-size="10.00">+ Flags</text>
<text text-anchor="start" x="803.38" y="-1287.5" font-family="Helvetica,sans-Serif" font-size="10.00">+ TexID</text>
<text text-anchor="start" x="803.38" y="-1276.5" font-family="Helvetica,sans-Serif" font-size="10.00">+ TexDesiredWidth</text>
<text text-anchor="start" x="803.38" y="-1265.5" font-family="Helvetica,sans-Serif" font-size="10.00">+ TexGlyphPadding</text>
<text text-anchor="start" x="803.38" y="-1254.5" font-family="Helvetica,sans-Serif" font-size="10.00">+ Locked</text>
<text text-anchor="start" x="803.38" y="-1243.5" font-family="Helvetica,sans-Serif" font-size="10.00">+ TexReady</text>
<text text-anchor="start" x="803.38" y="-1232.5" font-family="Helvetica,sans-Serif" font-size="10.00">+ TexPixelsUseColors</text>
<text text-anchor="start" x="803.38" y="-1221.5" font-family="Helvetica,sans-Serif" font-size="10.00">+ TexPixelsAlpha8</text>
<text text-anchor="start" x="803.38" y="-1210.5" font-family="Helvetica,sans-Serif" font-size="10.00">+ TexPixelsRGBA32</text>
<text text-anchor="start" x="803.38" y="-1199.5" font-family="Helvetica,sans-Serif" font-size="10.00">+ TexWidth</text>
<text text-anchor="start" x="803.38" y="-1188.5" font-family="Helvetica,sans-Serif" font-size="10.00">+ TexHeight</text>
<text text-anchor="start" x="803.38" y="-1177.5" font-family="Helvetica,sans-Serif" font-size="10.00">+ FontBuilderFlags</text>
<text text-anchor="start" x="803.38" y="-1166.5" font-family="Helvetica,sans-Serif" font-size="10.00">+ PackIdMouseCursors</text>
<text text-anchor="start" x="803.38" y="-1155.5" font-family="Helvetica,sans-Serif" font-size="10.00">+ PackIdLines</text>
<polyline fill="none" stroke="black" points="795.38,-1148.5 1014.38,-1148.5 "/>
<text text-anchor="start" x="803.38" y="-1136.5" font-family="Helvetica,sans-Serif" font-size="10.00">+ ImFontAtlas()</text>
<text text-anchor="start" x="803.38" y="-1125.5" font-family="Helvetica,sans-Serif" font-size="10.00">+ ~ImFontAtlas()</text>
<text text-anchor="start" x="803.38" y="-1114.5" font-family="Helvetica,sans-Serif" font-size="10.00">+ AddFont()</text>
<text text-anchor="start" x="803.38" y="-1103.5" font-family="Helvetica,sans-Serif" font-size="10.00">+ AddFontDefault()</text>
<text text-anchor="start" x="803.38" y="-1092.5" font-family="Helvetica,sans-Serif" font-size="10.00">+ AddFontFromFileTTF()</text>
<text text-anchor="start" x="803.38" y="-1081.5" font-family="Helvetica,sans-Serif" font-size="10.00">+ AddFontFromMemoryTTF()</text>
<text text-anchor="start" x="803.38" y="-1070.5" font-family="Helvetica,sans-Serif" font-size="10.00">+ AddFontFromMemoryCompressedTTF()</text>
<text text-anchor="start" x="803.38" y="-1059.5" font-family="Helvetica,sans-Serif" font-size="10.00">+ AddFontFromMemoryCompressed</text>
<text text-anchor="start" x="803.38" y="-1048.5" font-family="Helvetica,sans-Serif" font-size="10.00">Base85TTF()</text>
<text text-anchor="start" x="803.38" y="-1037.5" font-family="Helvetica,sans-Serif" font-size="10.00">+ ClearInputData()</text>
<text text-anchor="start" x="803.38" y="-1026.5" font-family="Helvetica,sans-Serif" font-size="10.00">+ ClearTexData()</text>
<text text-anchor="start" x="803.38" y="-1015.5" font-family="Helvetica,sans-Serif" font-size="10.00">and 21 more...</text>
</a>
</g>
</g>
<!-- Node3&#45;&gt;Node4 -->
<g id="edge16" class="edge">
<title>Node3&#45;&gt;Node4</title>
<path fill="none" stroke="#404040" d="M186.81,-1426.93C210.74,-1398.23 244.88,-1364.58 283.88,-1348 332.69,-1327.25 697.37,-1353.11 784.09,-1328.8"/>
<polygon fill="none" stroke="#404040" points="784.12,-1328.79 788.32,-1322.93 795.34,-1324.55 791.14,-1330.41 784.12,-1328.79"/>
<text text-anchor="middle" x="330.88" y="-1362" font-family="Helvetica,sans-Serif" font-size="10.00"> +TexUvWhitePixel</text>
<text text-anchor="middle" x="330.88" y="-1351" font-family="Helvetica,sans-Serif" font-size="10.00">+TexUvScale</text>
</g>
<!-- Node9 -->
<g id="node9" class="node">
<title>Node9</title>
<g id="a_node9"><a xlink:href="structImFontConfig.html" target="_top" xlink:title=" ">
<polygon fill="none" stroke="black" points="106.38,-320 106.38,-487 249.38,-487 249.38,-320 106.38,-320"/>
<text text-anchor="middle" x="177.88" y="-475" font-family="Helvetica,sans-Serif" font-size="10.00">ImFontConfig</text>
<polyline fill="none" stroke="black" points="106.38,-468 249.38,-468 "/>
<text text-anchor="start" x="114.38" y="-456" font-family="Helvetica,sans-Serif" font-size="10.00">+ FontData</text>
<text text-anchor="start" x="114.38" y="-445" font-family="Helvetica,sans-Serif" font-size="10.00">+ FontDataSize</text>
<text text-anchor="start" x="114.38" y="-434" font-family="Helvetica,sans-Serif" font-size="10.00">+ FontDataOwnedByAtlas</text>
<text text-anchor="start" x="114.38" y="-423" font-family="Helvetica,sans-Serif" font-size="10.00">+ FontNo</text>
<text text-anchor="start" x="114.38" y="-412" font-family="Helvetica,sans-Serif" font-size="10.00">+ SizePixels</text>
<text text-anchor="start" x="114.38" y="-401" font-family="Helvetica,sans-Serif" font-size="10.00">+ OversampleH</text>
<text text-anchor="start" x="114.38" y="-390" font-family="Helvetica,sans-Serif" font-size="10.00">+ OversampleV</text>
<text text-anchor="start" x="114.38" y="-379" font-family="Helvetica,sans-Serif" font-size="10.00">+ PixelSnapH</text>
<text text-anchor="start" x="114.38" y="-368" font-family="Helvetica,sans-Serif" font-size="10.00">+ GlyphRanges</text>
<text text-anchor="start" x="114.38" y="-357" font-family="Helvetica,sans-Serif" font-size="10.00">+ GlyphMinAdvanceX</text>
<text text-anchor="start" x="114.38" y="-346" font-family="Helvetica,sans-Serif" font-size="10.00">and 6 more...</text>
<polyline fill="none" stroke="black" points="106.38,-339 249.38,-339 "/>
<text text-anchor="start" x="114.38" y="-327" font-family="Helvetica,sans-Serif" font-size="10.00">+ ImFontConfig()</text>
</a>
</g>
</g>
<!-- Node3&#45;&gt;Node9 -->
<g id="edge9" class="edge">
<title>Node3&#45;&gt;Node9</title>
<path fill="none" stroke="#404040" d="M123.71,-1426.66C73.82,-1329.21 -24.65,-1106.07 5.88,-913 29.54,-763.43 92.46,-598.87 135.27,-498.61"/>
<polygon fill="none" stroke="#404040" points="135.39,-498.33 134.08,-491.24 140.12,-487.31 141.43,-494.4 135.39,-498.33"/>
<text text-anchor="middle" x="56.38" y="-954.5" font-family="Helvetica,sans-Serif" font-size="10.00"> +GlyphOffset</text>
<text text-anchor="middle" x="56.38" y="-943.5" font-family="Helvetica,sans-Serif" font-size="10.00">+GlyphExtraSpacing</text>
</g>
<!-- Node16 -->
<g id="node16" class="node">
<title>Node16</title>
<g id="a_node16"><a xlink:href="structImFontAtlasCustomRect.html" target="_top" xlink:title=" ">
<polygon fill="none" stroke="black" points="290.38,-342 290.38,-465 443.38,-465 443.38,-342 290.38,-342"/>
<text text-anchor="middle" x="366.88" y="-453" font-family="Helvetica,sans-Serif" font-size="10.00">ImFontAtlasCustomRect</text>
<polyline fill="none" stroke="black" points="290.38,-446 443.38,-446 "/>
<text text-anchor="start" x="298.38" y="-434" font-family="Helvetica,sans-Serif" font-size="10.00">+ Width</text>
<text text-anchor="start" x="298.38" y="-423" font-family="Helvetica,sans-Serif" font-size="10.00">+ Height</text>
<text text-anchor="start" x="298.38" y="-412" font-family="Helvetica,sans-Serif" font-size="10.00">+ X</text>
<text text-anchor="start" x="298.38" y="-401" font-family="Helvetica,sans-Serif" font-size="10.00">+ Y</text>
<text text-anchor="start" x="298.38" y="-390" font-family="Helvetica,sans-Serif" font-size="10.00">+ GlyphID</text>
<text text-anchor="start" x="298.38" y="-379" font-family="Helvetica,sans-Serif" font-size="10.00">+ GlyphAdvanceX</text>
<polyline fill="none" stroke="black" points="290.38,-372 443.38,-372 "/>
<text text-anchor="start" x="298.38" y="-360" font-family="Helvetica,sans-Serif" font-size="10.00">+ ImFontAtlasCustomRect()</text>
<text text-anchor="start" x="298.38" y="-349" font-family="Helvetica,sans-Serif" font-size="10.00">+ IsPacked()</text>
</a>
</g>
</g>
<!-- Node3&#45;&gt;Node16 -->
<g id="edge22" class="edge">
<title>Node3&#45;&gt;Node16</title>
<path fill="none" stroke="#404040" d="M142.84,-1426.78C128.26,-1328.15 101.45,-1101.03 129.88,-913 153.26,-758.43 143.85,-704.79 233.88,-577 241.56,-566.1 248.59,-568.56 257.88,-559 282.33,-533.83 305.36,-502.75 323.9,-475.08"/>
<polygon fill="none" stroke="#404040" points="323.9,-475.07 323.87,-467.86 330.52,-465.06 330.55,-472.27 323.9,-475.07"/>
<text text-anchor="middle" x="164.88" y="-949" font-family="Helvetica,sans-Serif" font-size="10.00"> +GlyphOffset</text>
</g>
<!-- Node4&#45;&gt;Node1 -->
<g id="edge3" class="edge">
<title>Node4&#45;&gt;Node1</title>
<path fill="none" stroke="#404040" d="M854.66,-1008.17C844.51,-971.3 834.84,-932.02 827.88,-895 815.97,-831.59 830.99,-662.53 799.88,-606 789.5,-587.14 701.1,-520.31 630.42,-468.73"/>
<polygon fill="none" stroke="#404040" points="630.28,-468.63 623.07,-468.33 620.58,-461.56 627.78,-461.86 630.28,-468.63"/>
<text text-anchor="middle" x="846.88" y="-748" font-family="Helvetica,sans-Serif" font-size="10.00"> +Fonts</text>
</g>
<!-- Node6 -->
<g id="node6" class="node">
<title>Node6</title>
<g id="a_node6"><a xlink:href="structImFont.html" target="_top" xlink:title=" ">
<polygon fill="none" stroke="black" points="344.88,-606.5 344.88,-894.5 496.88,-894.5 496.88,-606.5 344.88,-606.5"/>
<text text-anchor="middle" x="420.88" y="-882.5" font-family="Helvetica,sans-Serif" font-size="10.00">ImFont</text>
<polyline fill="none" stroke="black" points="344.88,-875.5 496.88,-875.5 "/>
<text text-anchor="start" x="352.88" y="-863.5" font-family="Helvetica,sans-Serif" font-size="10.00">+ FallbackAdvanceX</text>
<text text-anchor="start" x="352.88" y="-852.5" font-family="Helvetica,sans-Serif" font-size="10.00">+ FontSize</text>
<text text-anchor="start" x="352.88" y="-841.5" font-family="Helvetica,sans-Serif" font-size="10.00">+ ConfigDataCount</text>
<text text-anchor="start" x="352.88" y="-830.5" font-family="Helvetica,sans-Serif" font-size="10.00">+ FallbackChar</text>
<text text-anchor="start" x="352.88" y="-819.5" font-family="Helvetica,sans-Serif" font-size="10.00">+ EllipsisChar</text>
<text text-anchor="start" x="352.88" y="-808.5" font-family="Helvetica,sans-Serif" font-size="10.00">+ DotChar</text>
<text text-anchor="start" x="352.88" y="-797.5" font-family="Helvetica,sans-Serif" font-size="10.00">+ DirtyLookupTables</text>
<text text-anchor="start" x="352.88" y="-786.5" font-family="Helvetica,sans-Serif" font-size="10.00">+ Scale</text>
<text text-anchor="start" x="352.88" y="-775.5" font-family="Helvetica,sans-Serif" font-size="10.00">+ Ascent</text>
<text text-anchor="start" x="352.88" y="-764.5" font-family="Helvetica,sans-Serif" font-size="10.00">+ Descent</text>
<text text-anchor="start" x="352.88" y="-753.5" font-family="Helvetica,sans-Serif" font-size="10.00">+ MetricsTotalSurface</text>
<text text-anchor="start" x="352.88" y="-742.5" font-family="Helvetica,sans-Serif" font-size="10.00">+ Used4kPagesMap</text>
<polyline fill="none" stroke="black" points="344.88,-735.5 496.88,-735.5 "/>
<text text-anchor="start" x="352.88" y="-723.5" font-family="Helvetica,sans-Serif" font-size="10.00">+ ImFont()</text>
<text text-anchor="start" x="352.88" y="-712.5" font-family="Helvetica,sans-Serif" font-size="10.00">+ ~ImFont()</text>
<text text-anchor="start" x="352.88" y="-701.5" font-family="Helvetica,sans-Serif" font-size="10.00">+ FindGlyph()</text>
<text text-anchor="start" x="352.88" y="-690.5" font-family="Helvetica,sans-Serif" font-size="10.00">+ FindGlyphNoFallback()</text>
<text text-anchor="start" x="352.88" y="-679.5" font-family="Helvetica,sans-Serif" font-size="10.00">+ GetCharAdvance()</text>
<text text-anchor="start" x="352.88" y="-668.5" font-family="Helvetica,sans-Serif" font-size="10.00">+ IsLoaded()</text>
<text text-anchor="start" x="352.88" y="-657.5" font-family="Helvetica,sans-Serif" font-size="10.00">+ GetDebugName()</text>
<text text-anchor="start" x="352.88" y="-646.5" font-family="Helvetica,sans-Serif" font-size="10.00">+ CalcTextSizeA()</text>
<text text-anchor="start" x="352.88" y="-635.5" font-family="Helvetica,sans-Serif" font-size="10.00">+ CalcWordWrapPositionA()</text>
<text text-anchor="start" x="352.88" y="-624.5" font-family="Helvetica,sans-Serif" font-size="10.00">+ RenderChar()</text>
<text text-anchor="start" x="352.88" y="-613.5" font-family="Helvetica,sans-Serif" font-size="10.00">and 8 more...</text>
</a>
</g>
</g>
<!-- Node4&#45;&gt;Node6 -->
<g id="edge12" class="edge">
<title>Node4&#45;&gt;Node6</title>
<path fill="none" stroke="#404040" d="M795.03,-1014.95C792.03,-1012.54 788.98,-1010.22 785.88,-1008 764.62,-992.79 752.94,-1002.33 729.88,-990 681.34,-964.05 683.39,-934.88 632.88,-913 582.59,-891.22 556.77,-924.97 510.88,-895 509.53,-894.12 508.2,-893.21 506.88,-892.27"/>
<polygon fill="none" stroke="#404040" points="506.54,-892.01 499.35,-891.45 497.1,-884.6 504.29,-885.16 506.54,-892.01"/>
<text text-anchor="middle" x="771.88" y="-949" font-family="Helvetica,sans-Serif" font-size="10.00"> +ContainerAtlas</text>
</g>
<!-- Node5 -->
<g id="node5" class="node">
<title>Node5</title>
<g id="a_node5"><a xlink:href="structImVector.html" target="_top" xlink:title=" ">
<polygon fill="none" stroke="black" points="765.38,-309 765.38,-498 890.38,-498 890.38,-309 765.38,-309"/>
<text text-anchor="middle" x="827.88" y="-486" font-family="Helvetica,sans-Serif" font-size="10.00">ImVector&lt; ImFont * &gt;</text>
<polyline fill="none" stroke="black" points="765.38,-479 890.38,-479 "/>
<text text-anchor="start" x="773.38" y="-467" font-family="Helvetica,sans-Serif" font-size="10.00">+ const_iterator</text>
<text text-anchor="start" x="773.38" y="-456" font-family="Helvetica,sans-Serif" font-size="10.00">+ Size</text>
<text text-anchor="start" x="773.38" y="-445" font-family="Helvetica,sans-Serif" font-size="10.00">+ Capacity</text>
<polyline fill="none" stroke="black" points="765.38,-438 890.38,-438 "/>
<text text-anchor="start" x="773.38" y="-426" font-family="Helvetica,sans-Serif" font-size="10.00">+ ImVector()</text>
<text text-anchor="start" x="773.38" y="-415" font-family="Helvetica,sans-Serif" font-size="10.00">+ ImVector()</text>
<text text-anchor="start" x="773.38" y="-404" font-family="Helvetica,sans-Serif" font-size="10.00">+ operator=()</text>
<text text-anchor="start" x="773.38" y="-393" font-family="Helvetica,sans-Serif" font-size="10.00">+ ~ImVector()</text>
<text text-anchor="start" x="773.38" y="-382" font-family="Helvetica,sans-Serif" font-size="10.00">+ clear()</text>
<text text-anchor="start" x="773.38" y="-371" font-family="Helvetica,sans-Serif" font-size="10.00">+ clear_delete()</text>
<text text-anchor="start" x="773.38" y="-360" font-family="Helvetica,sans-Serif" font-size="10.00">+ clear_destruct()</text>
<text text-anchor="start" x="773.38" y="-349" font-family="Helvetica,sans-Serif" font-size="10.00">+ empty()</text>
<text text-anchor="start" x="773.38" y="-338" font-family="Helvetica,sans-Serif" font-size="10.00">+ size()</text>
<text text-anchor="start" x="773.38" y="-327" font-family="Helvetica,sans-Serif" font-size="10.00">+ size_in_bytes()</text>
<text text-anchor="start" x="773.38" y="-316" font-family="Helvetica,sans-Serif" font-size="10.00">and 32 more...</text>
</a>
</g>
</g>
<!-- Node5&#45;&gt;Node4 -->
<g id="edge4" class="edge">
<title>Node5&#45;&gt;Node4</title>
<path fill="none" stroke="#404040" d="M850.3,-498.08C857.62,-531.9 865.1,-570.5 869.88,-606 887.43,-736.29 896.2,-884.77 900.57,-996.38"/>
<polygon fill="none" stroke="#404040" points="900.57,-996.44 904.8,-1002.28 901.03,-1008.43 896.8,-1002.59 900.57,-996.44"/>
<text text-anchor="middle" x="914.88" y="-748" font-family="Helvetica,sans-Serif" font-size="10.00"> +Fonts</text>
</g>
<!-- Node6&#45;&gt;Node1 -->
<g id="edge24" class="edge">
<title>Node6&#45;&gt;Node1</title>
<path fill="none" stroke="#404040" d="M441.25,-606.47C443.81,-596.41 446.67,-586.49 449.88,-577 451.98,-570.79 454.29,-564.52 456.75,-558.26"/>
<polygon fill="none" stroke="#404040" points="456.82,-558.09 455.38,-551.02 461.35,-546.98 462.79,-554.05 456.82,-558.09"/>
<text text-anchor="middle" x="484.38" y="-580" font-family="Helvetica,sans-Serif" font-size="10.00"> +FontDefault</text>
</g>
<!-- Node6&#45;&gt;Node5 -->
<g id="edge5" class="edge">
<title>Node6&#45;&gt;Node5</title>
<path fill="none" stroke="#404040" d="M496.88,-616.06C501.33,-612.38 506,-609 510.88,-606 585.8,-559.98 632.53,-633.31 707.88,-588 738.95,-569.32 763.51,-539.14 782.1,-508.61"/>
<polygon fill="none" stroke="#404040" points="782.11,-508.6 781.69,-501.4 788.18,-498.26 788.59,-505.46 782.11,-508.6"/>
<text text-anchor="middle" x="740.38" y="-580" font-family="Helvetica,sans-Serif" font-size="10.00"> +Data</text>
</g>
<!-- Node6&#45;&gt;Node9 -->
<g id="edge10" class="edge">
<title>Node6&#45;&gt;Node9</title>
<path fill="none" stroke="#404040" d="M344.81,-694.68C309.77,-666.19 270.05,-628.82 242.88,-588 225.03,-561.17 211.46,-528.88 201.46,-498.9"/>
<polygon fill="none" stroke="#404040" points="201.34,-498.53 195.69,-494.05 197.66,-487.11 203.31,-491.6 201.34,-498.53"/>
<text text-anchor="middle" x="267.38" y="-580" font-family="Helvetica,sans-Serif" font-size="10.00"> +DstFont</text>
</g>
<!-- Node6&#45;&gt;Node16 -->
<g id="edge23" class="edge">
<title>Node6&#45;&gt;Node16</title>
<path fill="none" stroke="#404040" d="M390.9,-606.09C389.84,-599.98 388.83,-593.94 387.88,-588 382.09,-551.62 377.27,-510.93 373.71,-477.13"/>
<polygon fill="none" stroke="#404040" points="373.7,-476.95 369.1,-471.39 372.46,-465.01 377.06,-470.57 373.7,-476.95"/>
<text text-anchor="middle" x="404.38" y="-580" font-family="Helvetica,sans-Serif" font-size="10.00"> +Font</text>
</g>
<!-- Node7 -->
<g id="node7" class="node">
<title>Node7</title>
<g id="a_node7"><a xlink:href="structImVector.html" target="_top" xlink:title=" ">
<polygon fill="none" stroke="black" points="365.38,-1074.5 365.38,-1263.5 510.38,-1263.5 510.38,-1074.5 365.38,-1074.5"/>
<text text-anchor="middle" x="437.88" y="-1251.5" font-family="Helvetica,sans-Serif" font-size="10.00">ImVector&lt; ImFontGlyph &gt;</text>
<polyline fill="none" stroke="black" points="365.38,-1244.5 510.38,-1244.5 "/>
<text text-anchor="start" x="373.38" y="-1232.5" font-family="Helvetica,sans-Serif" font-size="10.00">+ const_iterator</text>
<text text-anchor="start" x="373.38" y="-1221.5" font-family="Helvetica,sans-Serif" font-size="10.00">+ Size</text>
<text text-anchor="start" x="373.38" y="-1210.5" font-family="Helvetica,sans-Serif" font-size="10.00">+ Capacity</text>
<polyline fill="none" stroke="black" points="365.38,-1203.5 510.38,-1203.5 "/>
<text text-anchor="start" x="373.38" y="-1191.5" font-family="Helvetica,sans-Serif" font-size="10.00">+ ImVector()</text>
<text text-anchor="start" x="373.38" y="-1180.5" font-family="Helvetica,sans-Serif" font-size="10.00">+ ImVector()</text>
<text text-anchor="start" x="373.38" y="-1169.5" font-family="Helvetica,sans-Serif" font-size="10.00">+ operator=()</text>
<text text-anchor="start" x="373.38" y="-1158.5" font-family="Helvetica,sans-Serif" font-size="10.00">+ ~ImVector()</text>
<text text-anchor="start" x="373.38" y="-1147.5" font-family="Helvetica,sans-Serif" font-size="10.00">+ clear()</text>
<text text-anchor="start" x="373.38" y="-1136.5" font-family="Helvetica,sans-Serif" font-size="10.00">+ clear_delete()</text>
<text text-anchor="start" x="373.38" y="-1125.5" font-family="Helvetica,sans-Serif" font-size="10.00">+ clear_destruct()</text>
<text text-anchor="start" x="373.38" y="-1114.5" font-family="Helvetica,sans-Serif" font-size="10.00">+ empty()</text>
<text text-anchor="start" x="373.38" y="-1103.5" font-family="Helvetica,sans-Serif" font-size="10.00">+ size()</text>
<text text-anchor="start" x="373.38" y="-1092.5" font-family="Helvetica,sans-Serif" font-size="10.00">+ size_in_bytes()</text>
<text text-anchor="start" x="373.38" y="-1081.5" font-family="Helvetica,sans-Serif" font-size="10.00">and 32 more...</text>
</a>
</g>
</g>
<!-- Node7&#45;&gt;Node6 -->
<g id="edge6" class="edge">
<title>Node7&#45;&gt;Node6</title>
<path fill="none" stroke="#404040" d="M398.71,-1074.4C389.31,-1047.62 380.63,-1018.07 375.88,-990 371.34,-963.13 371.96,-934.61 375.43,-906.99"/>
<polygon fill="none" stroke="#404040" points="375.47,-906.68 372.35,-900.18 377.15,-894.8 380.27,-901.3 375.47,-906.68"/>
<text text-anchor="middle" x="398.88" y="-949" font-family="Helvetica,sans-Serif" font-size="10.00"> +Glyphs</text>
</g>
<!-- Node8 -->
<g id="node8" class="node">
<title>Node8</title>
<g id="a_node8"><a xlink:href="structImFontGlyph.html" target="_top" xlink:title=" ">
<polygon fill="none" stroke="black" points="311.38,-1388.5 311.38,-1566.5 390.38,-1566.5 390.38,-1388.5 311.38,-1388.5"/>
<text text-anchor="middle" x="350.88" y="-1554.5" font-family="Helvetica,sans-Serif" font-size="10.00">ImFontGlyph</text>
<polyline fill="none" stroke="black" points="311.38,-1547.5 390.38,-1547.5 "/>
<text text-anchor="start" x="319.38" y="-1535.5" font-family="Helvetica,sans-Serif" font-size="10.00">+ Colored</text>
<text text-anchor="start" x="319.38" y="-1524.5" font-family="Helvetica,sans-Serif" font-size="10.00">+ Visible</text>
<text text-anchor="start" x="319.38" y="-1513.5" font-family="Helvetica,sans-Serif" font-size="10.00">+ Codepoint</text>
<text text-anchor="start" x="319.38" y="-1502.5" font-family="Helvetica,sans-Serif" font-size="10.00">+ AdvanceX</text>
<text text-anchor="start" x="319.38" y="-1491.5" font-family="Helvetica,sans-Serif" font-size="10.00">+ X0</text>
<text text-anchor="start" x="319.38" y="-1480.5" font-family="Helvetica,sans-Serif" font-size="10.00">+ Y0</text>
<text text-anchor="start" x="319.38" y="-1469.5" font-family="Helvetica,sans-Serif" font-size="10.00">+ X1</text>
<text text-anchor="start" x="319.38" y="-1458.5" font-family="Helvetica,sans-Serif" font-size="10.00">+ Y1</text>
<text text-anchor="start" x="319.38" y="-1447.5" font-family="Helvetica,sans-Serif" font-size="10.00">+ U0</text>
<text text-anchor="start" x="319.38" y="-1436.5" font-family="Helvetica,sans-Serif" font-size="10.00">+ V0</text>
<text text-anchor="start" x="319.38" y="-1425.5" font-family="Helvetica,sans-Serif" font-size="10.00">+ U1</text>
<text text-anchor="start" x="319.38" y="-1414.5" font-family="Helvetica,sans-Serif" font-size="10.00">+ V1</text>
<polyline fill="none" stroke="black" points="311.38,-1407.5 390.38,-1407.5 "/>
<text text-anchor="middle" x="350.88" y="-1395.5" font-family="Helvetica,sans-Serif" font-size="10.00"> </text>
</a>
</g>
</g>
<!-- Node8&#45;&gt;Node6 -->
<g id="edge11" class="edge">
<title>Node8&#45;&gt;Node6</title>
<path fill="none" stroke="#404040" d="M313.49,-1388.48C306.55,-1374.61 298.93,-1360.68 290.88,-1348 285.3,-1339.21 279.43,-1339.79 275.88,-1330 251.52,-1262.72 234.38,-1066.29 275.88,-1008 290.07,-988.08 310.26,-1006.96 327.88,-990 335.55,-982.63 350.48,-947.42 366.18,-906.23"/>
<polygon fill="none" stroke="#404040" points="366.27,-905.99 364.65,-898.96 370.51,-894.76 372.13,-901.79 366.27,-905.99"/>
<text text-anchor="middle" x="315.88" y="-1166.5" font-family="Helvetica,sans-Serif" font-size="10.00"> +FallbackGlyph</text>
</g>
<!-- Node8&#45;&gt;Node7 -->
<g id="edge7" class="edge">
<title>Node8&#45;&gt;Node7</title>
<path fill="none" stroke="#404040" d="M375.93,-1388.26C385.92,-1353.07 397.5,-1312.27 407.93,-1275.54"/>
<polygon fill="none" stroke="#404040" points="407.99,-1275.31 405.78,-1268.44 411.27,-1263.76 413.48,-1270.63 407.99,-1275.31"/>
<text text-anchor="middle" x="404.38" y="-1356.5" font-family="Helvetica,sans-Serif" font-size="10.00"> +Data</text>
</g>
<!-- Node9&#45;&gt;Node6 -->
<g id="edge8" class="edge">
<title>Node9&#45;&gt;Node6</title>
<path fill="none" stroke="#404040" d="M231.98,-487.16C247.55,-510.53 264.7,-535.89 280.88,-559 298.94,-584.79 318.74,-612.22 337.63,-638"/>
<polygon fill="none" stroke="#404040" points="337.71,-638.12 344.49,-640.59 344.81,-647.8 338.04,-645.33 337.71,-638.12"/>
<text text-anchor="middle" x="332.88" y="-580" font-family="Helvetica,sans-Serif" font-size="10.00"> +ConfigData</text>
</g>
<!-- Node14 -->
<g id="node14" class="node">
<title>Node14</title>
<g id="a_node14"><a xlink:href="structImVector.html" target="_top" xlink:title=" ">
<polygon fill="none" stroke="black" points="577.38,-6 577.38,-195 724.38,-195 724.38,-6 577.38,-6"/>
<text text-anchor="middle" x="650.88" y="-183" font-family="Helvetica,sans-Serif" font-size="10.00">ImVector&lt; ImFontConfig &gt;</text>
<polyline fill="none" stroke="black" points="577.38,-176 724.38,-176 "/>
<text text-anchor="start" x="585.38" y="-164" font-family="Helvetica,sans-Serif" font-size="10.00">+ const_iterator</text>
<text text-anchor="start" x="585.38" y="-153" font-family="Helvetica,sans-Serif" font-size="10.00">+ Size</text>
<text text-anchor="start" x="585.38" y="-142" font-family="Helvetica,sans-Serif" font-size="10.00">+ Capacity</text>
<polyline fill="none" stroke="black" points="577.38,-135 724.38,-135 "/>
<text text-anchor="start" x="585.38" y="-123" font-family="Helvetica,sans-Serif" font-size="10.00">+ ImVector()</text>
<text text-anchor="start" x="585.38" y="-112" font-family="Helvetica,sans-Serif" font-size="10.00">+ ImVector()</text>
<text text-anchor="start" x="585.38" y="-101" font-family="Helvetica,sans-Serif" font-size="10.00">+ operator=()</text>
<text text-anchor="start" x="585.38" y="-90" font-family="Helvetica,sans-Serif" font-size="10.00">+ ~ImVector()</text>
<text text-anchor="start" x="585.38" y="-79" font-family="Helvetica,sans-Serif" font-size="10.00">+ clear()</text>
<text text-anchor="start" x="585.38" y="-68" font-family="Helvetica,sans-Serif" font-size="10.00">+ clear_delete()</text>
<text text-anchor="start" x="585.38" y="-57" font-family="Helvetica,sans-Serif" font-size="10.00">+ clear_destruct()</text>
<text text-anchor="start" x="585.38" y="-46" font-family="Helvetica,sans-Serif" font-size="10.00">+ empty()</text>
<text text-anchor="start" x="585.38" y="-35" font-family="Helvetica,sans-Serif" font-size="10.00">+ size()</text>
<text text-anchor="start" x="585.38" y="-24" font-family="Helvetica,sans-Serif" font-size="10.00">+ size_in_bytes()</text>
<text text-anchor="start" x="585.38" y="-13" font-family="Helvetica,sans-Serif" font-size="10.00">and 32 more...</text>
</a>
</g>
</g>
<!-- Node9&#45;&gt;Node14 -->
<g id="edge19" class="edge">
<title>Node9&#45;&gt;Node14</title>
<path fill="none" stroke="#404040" d="M220.09,-319.69C236.32,-294.05 256.82,-267.46 280.88,-248 365.07,-179.93 484.83,-140.3 565.07,-119.8"/>
<polygon fill="none" stroke="#404040" points="565.46,-119.7 570.31,-114.37 577.1,-116.79 572.25,-122.13 565.46,-119.7"/>
<text text-anchor="middle" x="333.38" y="-222" font-family="Helvetica,sans-Serif" font-size="10.00"> +Data</text>
</g>
<!-- Node10 -->
<g id="node10" class="node">
<title>Node10</title>
<g id="a_node10"><a xlink:href="structImVector.html" target="_top" xlink:title=" ">
<polygon fill="none" stroke="black" points="528.88,-1069 528.88,-1269 632.88,-1269 632.88,-1069 528.88,-1069"/>
<text text-anchor="middle" x="580.88" y="-1257" font-family="Helvetica,sans-Serif" font-size="10.00">ImVector&lt; float &gt;</text>
<polyline fill="none" stroke="black" points="528.88,-1250 632.88,-1250 "/>
<text text-anchor="start" x="536.88" y="-1238" font-family="Helvetica,sans-Serif" font-size="10.00">+ const_iterator</text>
<text text-anchor="start" x="536.88" y="-1227" font-family="Helvetica,sans-Serif" font-size="10.00">+ Size</text>
<text text-anchor="start" x="536.88" y="-1216" font-family="Helvetica,sans-Serif" font-size="10.00">+ Capacity</text>
<text text-anchor="start" x="536.88" y="-1205" font-family="Helvetica,sans-Serif" font-size="10.00">+ Data</text>
<polyline fill="none" stroke="black" points="528.88,-1198 632.88,-1198 "/>
<text text-anchor="start" x="536.88" y="-1186" font-family="Helvetica,sans-Serif" font-size="10.00">+ ImVector()</text>
<text text-anchor="start" x="536.88" y="-1175" font-family="Helvetica,sans-Serif" font-size="10.00">+ ImVector()</text>
<text text-anchor="start" x="536.88" y="-1164" font-family="Helvetica,sans-Serif" font-size="10.00">+ operator=()</text>
<text text-anchor="start" x="536.88" y="-1153" font-family="Helvetica,sans-Serif" font-size="10.00">+ ~ImVector()</text>
<text text-anchor="start" x="536.88" y="-1142" font-family="Helvetica,sans-Serif" font-size="10.00">+ clear()</text>
<text text-anchor="start" x="536.88" y="-1131" font-family="Helvetica,sans-Serif" font-size="10.00">+ clear_delete()</text>
<text text-anchor="start" x="536.88" y="-1120" font-family="Helvetica,sans-Serif" font-size="10.00">+ clear_destruct()</text>
<text text-anchor="start" x="536.88" y="-1109" font-family="Helvetica,sans-Serif" font-size="10.00">+ empty()</text>
<text text-anchor="start" x="536.88" y="-1098" font-family="Helvetica,sans-Serif" font-size="10.00">+ size()</text>
<text text-anchor="start" x="536.88" y="-1087" font-family="Helvetica,sans-Serif" font-size="10.00">+ size_in_bytes()</text>
<text text-anchor="start" x="536.88" y="-1076" font-family="Helvetica,sans-Serif" font-size="10.00">and 32 more...</text>
</a>
</g>
</g>
<!-- Node10&#45;&gt;Node6 -->
<g id="edge13" class="edge">
<title>Node10&#45;&gt;Node6</title>
<path fill="none" stroke="#404040" d="M559.18,-1068.64C550.05,-1046.04 537.14,-1024.01 518.88,-1008 493.43,-985.68 467.1,-1015.53 444.88,-990 432.83,-976.16 426.24,-943.54 422.77,-906.73"/>
<polygon fill="none" stroke="#404040" points="422.76,-906.61 418.27,-900.96 421.75,-894.65 426.24,-900.29 422.76,-906.61"/>
<text text-anchor="middle" x="488.88" y="-949" font-family="Helvetica,sans-Serif" font-size="10.00"> +IndexAdvanceX</text>
</g>
<!-- Node11 -->
<g id="node11" class="node">
<title>Node11</title>
<g id="a_node11"><a xlink:href="structImVector.html" target="_top" xlink:title=" ">
<polygon fill="none" stroke="black" points="650.88,-1069 650.88,-1269 776.88,-1269 776.88,-1069 650.88,-1069"/>
<text text-anchor="middle" x="713.88" y="-1257" font-family="Helvetica,sans-Serif" font-size="10.00">ImVector&lt; ImWchar &gt;</text>
<polyline fill="none" stroke="black" points="650.88,-1250 776.88,-1250 "/>
<text text-anchor="start" x="658.88" y="-1238" font-family="Helvetica,sans-Serif" font-size="10.00">+ const_iterator</text>
<text text-anchor="start" x="658.88" y="-1227" font-family="Helvetica,sans-Serif" font-size="10.00">+ Size</text>
<text text-anchor="start" x="658.88" y="-1216" font-family="Helvetica,sans-Serif" font-size="10.00">+ Capacity</text>
<text text-anchor="start" x="658.88" y="-1205" font-family="Helvetica,sans-Serif" font-size="10.00">+ Data</text>
<polyline fill="none" stroke="black" points="650.88,-1198 776.88,-1198 "/>
<text text-anchor="start" x="658.88" y="-1186" font-family="Helvetica,sans-Serif" font-size="10.00">+ ImVector()</text>
<text text-anchor="start" x="658.88" y="-1175" font-family="Helvetica,sans-Serif" font-size="10.00">+ ImVector()</text>
<text text-anchor="start" x="658.88" y="-1164" font-family="Helvetica,sans-Serif" font-size="10.00">+ operator=()</text>
<text text-anchor="start" x="658.88" y="-1153" font-family="Helvetica,sans-Serif" font-size="10.00">+ ~ImVector()</text>
<text text-anchor="start" x="658.88" y="-1142" font-family="Helvetica,sans-Serif" font-size="10.00">+ clear()</text>
<text text-anchor="start" x="658.88" y="-1131" font-family="Helvetica,sans-Serif" font-size="10.00">+ clear_delete()</text>
<text text-anchor="start" x="658.88" y="-1120" font-family="Helvetica,sans-Serif" font-size="10.00">+ clear_destruct()</text>
<text text-anchor="start" x="658.88" y="-1109" font-family="Helvetica,sans-Serif" font-size="10.00">+ empty()</text>
<text text-anchor="start" x="658.88" y="-1098" font-family="Helvetica,sans-Serif" font-size="10.00">+ size()</text>
<text text-anchor="start" x="658.88" y="-1087" font-family="Helvetica,sans-Serif" font-size="10.00">+ size_in_bytes()</text>
<text text-anchor="start" x="658.88" y="-1076" font-family="Helvetica,sans-Serif" font-size="10.00">and 32 more...</text>
</a>
</g>
</g>
<!-- Node11&#45;&gt;Node1 -->
<g id="edge25" class="edge">
<title>Node11&#45;&gt;Node1</title>
<path fill="none" stroke="#404040" d="M682.05,-1068.78C659.26,-998.37 632.06,-915.83 628.88,-913 599.37,-886.77 566.85,-925.59 541.88,-895 521.52,-870.05 524.87,-703.3 531.03,-571.06"/>
<polygon fill="none" stroke="#404040" points="531.04,-570.77 527.33,-564.59 531.61,-558.78 535.32,-564.97 531.04,-570.77"/>
<text text-anchor="middle" x="602.38" y="-748" font-family="Helvetica,sans-Serif" font-size="10.00"> +InputQueueCharacters</text>
</g>
<!-- Node11&#45;&gt;Node6 -->
<g id="edge14" class="edge">
<title>Node11&#45;&gt;Node6</title>
<path fill="none" stroke="#404040" d="M686.48,-1068.84C675.91,-1045.96 661.47,-1023.75 641.88,-1008 611.45,-983.53 584.63,-1016.43 555.88,-990 529.59,-965.83 552.68,-942.72 532.88,-913 525.88,-902.49 519.24,-904.48 510.88,-895 508.84,-892.68 506.81,-890.32 504.81,-887.91"/>
<polygon fill="none" stroke="#404040" points="504.68,-887.75 497.81,-885.59 497.16,-878.41 504.04,-880.57 504.68,-887.75"/>
<text text-anchor="middle" x="592.38" y="-949" font-family="Helvetica,sans-Serif" font-size="10.00"> +IndexLookup</text>
</g>
<!-- Node12 -->
<g id="node12" class="node">
<title>Node12</title>
<g id="a_node12"><a xlink:href="structImFontBuilderIO.html" target="_top" xlink:title=" ">
<polygon fill="none" stroke="black" points="793.38,-1449 793.38,-1506 906.38,-1506 906.38,-1449 793.38,-1449"/>
<text text-anchor="middle" x="849.88" y="-1494" font-family="Helvetica,sans-Serif" font-size="10.00">ImFontBuilderIO</text>
<polyline fill="none" stroke="black" points="793.38,-1487 906.38,-1487 "/>
<text text-anchor="start" x="801.38" y="-1475" font-family="Helvetica,sans-Serif" font-size="10.00">+ FontBuilder_Build</text>
<polyline fill="none" stroke="black" points="793.38,-1468 906.38,-1468 "/>
<text text-anchor="middle" x="849.88" y="-1456" font-family="Helvetica,sans-Serif" font-size="10.00"> </text>
</a>
</g>
</g>
<!-- Node12&#45;&gt;Node4 -->
<g id="edge15" class="edge">
<title>Node12&#45;&gt;Node4</title>
<path fill="none" stroke="#404040" d="M850.68,-1448.76C851.75,-1422.63 854.23,-1382.45 859.88,-1348 860.22,-1345.95 860.57,-1343.88 860.93,-1341.81"/>
<polygon fill="none" stroke="#404040" points="860.96,-1341.64 858.1,-1335.02 863.11,-1329.84 865.97,-1336.46 860.96,-1341.64"/>
<text text-anchor="middle" x="898.88" y="-1356.5" font-family="Helvetica,sans-Serif" font-size="10.00"> +FontBuilderIO</text>
</g>
<!-- Node13 -->
<g id="node13" class="node">
<title>Node13</title>
<g id="a_node13"><a xlink:href="structImVec4.html" target="_top" xlink:title=" ">
<polygon fill="none" stroke="black" points="924.38,-1427 924.38,-1528 995.38,-1528 995.38,-1427 924.38,-1427"/>
<text text-anchor="middle" x="959.88" y="-1516" font-family="Helvetica,sans-Serif" font-size="10.00">ImVec4</text>
<polyline fill="none" stroke="black" points="924.38,-1509 995.38,-1509 "/>
<text text-anchor="start" x="932.38" y="-1497" font-family="Helvetica,sans-Serif" font-size="10.00">+ x</text>
<text text-anchor="start" x="932.38" y="-1486" font-family="Helvetica,sans-Serif" font-size="10.00">+ y</text>
<text text-anchor="start" x="932.38" y="-1475" font-family="Helvetica,sans-Serif" font-size="10.00">+ z</text>
<text text-anchor="start" x="932.38" y="-1464" font-family="Helvetica,sans-Serif" font-size="10.00">+ w</text>
<polyline fill="none" stroke="black" points="924.38,-1457 995.38,-1457 "/>
<text text-anchor="start" x="932.38" y="-1445" font-family="Helvetica,sans-Serif" font-size="10.00">+ ImVec4()</text>
<text text-anchor="start" x="932.38" y="-1434" font-family="Helvetica,sans-Serif" font-size="10.00">+ ImVec4()</text>
</a>
</g>
</g>
<!-- Node13&#45;&gt;Node4 -->
<g id="edge17" class="edge">
<title>Node13&#45;&gt;Node4</title>
<path fill="none" stroke="#404040" d="M951.53,-1426.74C947.48,-1402.9 942.51,-1373.96 937.88,-1348 937.5,-1345.83 937.11,-1343.65 936.71,-1341.45"/>
<polygon fill="none" stroke="#404040" points="936.71,-1341.42 931.71,-1336.22 934.58,-1329.61 939.58,-1334.81 936.71,-1341.42"/>
<text text-anchor="middle" x="975.38" y="-1356.5" font-family="Helvetica,sans-Serif" font-size="10.00"> +TexUvLines</text>
</g>
<!-- Node14&#45;&gt;Node4 -->
<g id="edge18" class="edge">
<title>Node14&#45;&gt;Node4</title>
<path fill="none" stroke="#404040" d="M724.64,-124.51C782.14,-146.56 858.77,-185.81 898.88,-248 976.96,-369.04 946.54,-751.22 937.88,-895 935.91,-927.79 932.61,-962.67 928.85,-996.15"/>
<polygon fill="none" stroke="#404040" points="928.81,-996.5 932.1,-1002.91 927.44,-1008.42 924.15,-1002 928.81,-996.5"/>
<text text-anchor="middle" x="984.88" y="-580" font-family="Helvetica,sans-Serif" font-size="10.00"> +ConfigData</text>
</g>
<!-- Node15 -->
<g id="node15" class="node">
<title>Node15</title>
<g id="a_node15"><a xlink:href="structImVector.html" target="_top" xlink:title=" ">
<polygon fill="none" stroke="black" points="871.38,-0.5 871.38,-200.5 1038.38,-200.5 1038.38,-0.5 871.38,-0.5"/>
<text text-anchor="start" x="879.38" y="-188.5" font-family="Helvetica,sans-Serif" font-size="10.00">ImVector&lt; ImFontAtlasCustom</text>
<text text-anchor="middle" x="954.88" y="-177.5" font-family="Helvetica,sans-Serif" font-size="10.00">Rect &gt;</text>
<polyline fill="none" stroke="black" points="871.38,-170.5 1038.38,-170.5 "/>
<text text-anchor="start" x="879.38" y="-158.5" font-family="Helvetica,sans-Serif" font-size="10.00">+ const_iterator</text>
<text text-anchor="start" x="879.38" y="-147.5" font-family="Helvetica,sans-Serif" font-size="10.00">+ Size</text>
<text text-anchor="start" x="879.38" y="-136.5" font-family="Helvetica,sans-Serif" font-size="10.00">+ Capacity</text>
<polyline fill="none" stroke="black" points="871.38,-129.5 1038.38,-129.5 "/>
<text text-anchor="start" x="879.38" y="-117.5" font-family="Helvetica,sans-Serif" font-size="10.00">+ ImVector()</text>
<text text-anchor="start" x="879.38" y="-106.5" font-family="Helvetica,sans-Serif" font-size="10.00">+ ImVector()</text>
<text text-anchor="start" x="879.38" y="-95.5" font-family="Helvetica,sans-Serif" font-size="10.00">+ operator=()</text>
<text text-anchor="start" x="879.38" y="-84.5" font-family="Helvetica,sans-Serif" font-size="10.00">+ ~ImVector()</text>
<text text-anchor="start" x="879.38" y="-73.5" font-family="Helvetica,sans-Serif" font-size="10.00">+ clear()</text>
<text text-anchor="start" x="879.38" y="-62.5" font-family="Helvetica,sans-Serif" font-size="10.00">+ clear_delete()</text>
<text text-anchor="start" x="879.38" y="-51.5" font-family="Helvetica,sans-Serif" font-size="10.00">+ clear_destruct()</text>
<text text-anchor="start" x="879.38" y="-40.5" font-family="Helvetica,sans-Serif" font-size="10.00">+ empty()</text>
<text text-anchor="start" x="879.38" y="-29.5" font-family="Helvetica,sans-Serif" font-size="10.00">+ size()</text>
<text text-anchor="start" x="879.38" y="-18.5" font-family="Helvetica,sans-Serif" font-size="10.00">+ size_in_bytes()</text>
<text text-anchor="start" x="879.38" y="-7.5" font-family="Helvetica,sans-Serif" font-size="10.00">and 32 more...</text>
</a>
</g>
</g>
<!-- Node15&#45;&gt;Node4 -->
<g id="edge20" class="edge">
<title>Node15&#45;&gt;Node4</title>
<path fill="none" stroke="#404040" d="M978.27,-200.75C979.54,-206.91 980.76,-213.04 981.88,-219 1045.39,-555.73 1073.18,-659.72 981.88,-990 981.29,-992.16 980.67,-994.32 980.03,-996.49"/>
<polygon fill="none" stroke="#404040" points="979.97,-996.69 982.03,-1003.6 976.45,-1008.16 974.39,-1001.25 979.97,-996.69"/>
<text text-anchor="middle" x="1076.88" y="-580" font-family="Helvetica,sans-Serif" font-size="10.00"> +CustomRects</text>
</g>
<!-- Node16&#45;&gt;Node15 -->
<g id="edge21" class="edge">
<title>Node16&#45;&gt;Node15</title>
<path fill="none" stroke="#404040" d="M385.56,-341.86C398.83,-308.99 420.04,-270.58 451.88,-248 555.17,-174.76 611.67,-237.64 732.88,-201 775.84,-188.01 821.39,-168.67 859.97,-150.47"/>
<polygon fill="none" stroke="#404040" points="860.35,-150.29 864.05,-144.1 871.18,-145.13 867.49,-151.32 860.35,-150.29"/>
<text text-anchor="middle" x="521.38" y="-222" font-family="Helvetica,sans-Serif" font-size="10.00"> +Data</text>
</g>
</g>
</svg>
