<?xml version="1.0" encoding="UTF-8" standalone="no"?>
<!DOCTYPE svg PUBLIC "-//W3C//DTD SVG 1.1//EN"
 "http://www.w3.org/Graphics/SVG/1.1/DTD/svg11.dtd">
<!-- Generated by graphviz version 2.43.0 (0)
 -->
<!-- Title: /home/fnky/C0de/component_engine/src/Components/TextRenderComponent.cpp Pages: 1 -->
<svg width="630pt" height="229pt"
 viewBox="0.00 0.00 630.00 229.00" xmlns="http://www.w3.org/2000/svg" xmlns:xlink="http://www.w3.org/1999/xlink">
<g id="graph0" class="graph" transform="scale(1 1) rotate(0) translate(4 225)">
<title>/home/fnky/C0de/component_engine/src/Components/TextRenderComponent.cpp</title>
<!-- Node1 -->
<g id="node1" class="node">
<title>Node1</title>
<g id="a_node1"><a xlink:title=" ">
<polygon fill="#bfbfbf" stroke="black" points="455.5,-179.5 455.5,-220.5 612.5,-220.5 612.5,-179.5 455.5,-179.5"/>
<text text-anchor="start" x="463.5" y="-208.5" font-family="Helvetica,sans-Serif" font-size="10.00">/home/fnky/C0de/component</text>
<text text-anchor="start" x="463.5" y="-197.5" font-family="Helvetica,sans-Serif" font-size="10.00">_engine/src/Components</text>
<text text-anchor="middle" x="534" y="-186.5" font-family="Helvetica,sans-Serif" font-size="10.00">/TextRenderComponent.cpp</text>
</a>
</g>
</g>
<!-- Node2 -->
<g id="node2" class="node">
<title>Node2</title>
<g id="a_node2"><a xlink:href="TextRenderComponent_8h.html" target="_top" xlink:title=" ">
<polygon fill="none" stroke="black" points="238,-112.5 238,-142.5 378,-142.5 378,-112.5 238,-112.5"/>
<text text-anchor="start" x="246" y="-130.5" font-family="Helvetica,sans-Serif" font-size="10.00">../../include/Components</text>
<text text-anchor="middle" x="308" y="-119.5" font-family="Helvetica,sans-Serif" font-size="10.00">/TextRenderComponent.h</text>
</a>
</g>
</g>
<!-- Node1&#45;&gt;Node2 -->
<g id="edge1" class="edge">
<title>Node1&#45;&gt;Node2</title>
<path fill="none" stroke="midnightblue" d="M471.35,-179.46C437.37,-168.86 395.76,-155.88 363.04,-145.67"/>
<polygon fill="midnightblue" stroke="midnightblue" points="363.78,-142.23 353.19,-142.6 361.69,-148.92 363.78,-142.23"/>
</g>
<!-- Node8 -->
<g id="node8" class="node">
<title>Node8</title>
<g id="a_node8"><a xlink:title=" ">
<polygon fill="none" stroke="#bfbfbf" points="387,-0.5 387,-19.5 445,-19.5 445,-0.5 387,-0.5"/>
<text text-anchor="middle" x="416" y="-7.5" font-family="Helvetica,sans-Serif" font-size="10.00">memory</text>
</a>
</g>
</g>
<!-- Node1&#45;&gt;Node8 -->
<g id="edge11" class="edge">
<title>Node1&#45;&gt;Node8</title>
<path fill="none" stroke="midnightblue" d="M536.96,-179.24C540.3,-149.44 542.15,-92.61 515,-56 500.63,-36.63 475.94,-25.38 454.82,-18.98"/>
<polygon fill="midnightblue" stroke="midnightblue" points="455.68,-15.58 445.11,-16.29 453.81,-22.33 455.68,-15.58"/>
</g>
<!-- Node10 -->
<g id="node10" class="node">
<title>Node10</title>
<g id="a_node10"><a xlink:title=" ">
<polygon fill="none" stroke="#bfbfbf" points="562,-118 562,-137 622,-137 622,-118 562,-118"/>
<text text-anchor="middle" x="592" y="-125" font-family="Helvetica,sans-Serif" font-size="10.00">iostream</text>
</a>
</g>
</g>
<!-- Node1&#45;&gt;Node10 -->
<g id="edge10" class="edge">
<title>Node1&#45;&gt;Node10</title>
<path fill="none" stroke="midnightblue" d="M550.16,-179.36C559.06,-168.54 569.99,-155.26 578.44,-144.98"/>
<polygon fill="midnightblue" stroke="midnightblue" points="581.21,-147.12 584.86,-137.17 575.81,-142.67 581.21,-147.12"/>
</g>
<!-- Node3 -->
<g id="node3" class="node">
<title>Node3</title>
<g id="a_node3"><a xlink:title=" ">
<polygon fill="none" stroke="#bfbfbf" points="0,-56.5 0,-75.5 46,-75.5 46,-56.5 0,-56.5"/>
<text text-anchor="middle" x="23" y="-63.5" font-family="Helvetica,sans-Serif" font-size="10.00">cstdio</text>
</a>
</g>
</g>
<!-- Node2&#45;&gt;Node3 -->
<g id="edge2" class="edge">
<title>Node2&#45;&gt;Node3</title>
<path fill="none" stroke="midnightblue" d="M237.88,-114.01C189.31,-105.01 122.98,-92.03 55.91,-76.08"/>
<polygon fill="midnightblue" stroke="midnightblue" points="56.56,-72.63 46.02,-73.7 54.92,-79.44 56.56,-72.63"/>
</g>
<!-- Node4 -->
<g id="node4" class="node">
<title>Node4</title>
<g id="a_node4"><a xlink:title=" ">
<polygon fill="none" stroke="#bfbfbf" points="64.5,-56.5 64.5,-75.5 135.5,-75.5 135.5,-56.5 64.5,-56.5"/>
<text text-anchor="middle" x="100" y="-63.5" font-family="Helvetica,sans-Serif" font-size="10.00">glad/glad.h</text>
</a>
</g>
</g>
<!-- Node2&#45;&gt;Node4 -->
<g id="edge3" class="edge">
<title>Node2&#45;&gt;Node4</title>
<path fill="none" stroke="midnightblue" d="M258.97,-112.47C222.62,-102.08 173.69,-88.08 139.75,-78.37"/>
<polygon fill="midnightblue" stroke="midnightblue" points="140.31,-74.89 129.74,-75.51 138.39,-81.62 140.31,-74.89"/>
</g>
<!-- Node5 -->
<g id="node5" class="node">
<title>Node5</title>
<g id="a_node5"><a xlink:title=" ">
<polygon fill="none" stroke="#bfbfbf" points="154,-56.5 154,-75.5 232,-75.5 232,-56.5 154,-56.5"/>
<text text-anchor="middle" x="193" y="-63.5" font-family="Helvetica,sans-Serif" font-size="10.00">glm/glm.hpp</text>
</a>
</g>
</g>
<!-- Node2&#45;&gt;Node5 -->
<g id="edge4" class="edge">
<title>Node2&#45;&gt;Node5</title>
<path fill="none" stroke="midnightblue" d="M280.75,-112.4C261.97,-102.68 237.17,-89.86 218.73,-80.31"/>
<polygon fill="midnightblue" stroke="midnightblue" points="220.22,-77.14 209.73,-75.66 217.01,-83.36 220.22,-77.14"/>
</g>
<!-- Node6 -->
<g id="node6" class="node">
<title>Node6</title>
<g id="a_node6"><a xlink:title=" ">
<polygon fill="none" stroke="#bfbfbf" points="250,-56.5 250,-75.5 288,-75.5 288,-56.5 250,-56.5"/>
<text text-anchor="middle" x="269" y="-63.5" font-family="Helvetica,sans-Serif" font-size="10.00">map</text>
</a>
</g>
</g>
<!-- Node2&#45;&gt;Node6 -->
<g id="edge5" class="edge">
<title>Node2&#45;&gt;Node6</title>
<path fill="none" stroke="midnightblue" d="M298.76,-112.4C293.21,-103.93 286.11,-93.1 280.23,-84.14"/>
<polygon fill="midnightblue" stroke="midnightblue" points="283.08,-82.1 274.67,-75.66 277.23,-85.94 283.08,-82.1"/>
</g>
<!-- Node7 -->
<g id="node7" class="node">
<title>Node7</title>
<g id="a_node7"><a xlink:href="Components_2Component_8h.html" target="_top" xlink:title=" ">
<polygon fill="none" stroke="black" points="306,-56.5 306,-75.5 388,-75.5 388,-56.5 306,-56.5"/>
<text text-anchor="middle" x="347" y="-63.5" font-family="Helvetica,sans-Serif" font-size="10.00">Component.h</text>
</a>
</g>
</g>
<!-- Node2&#45;&gt;Node7 -->
<g id="edge6" class="edge">
<title>Node2&#45;&gt;Node7</title>
<path fill="none" stroke="midnightblue" d="M317.24,-112.4C322.79,-103.93 329.89,-93.1 335.77,-84.14"/>
<polygon fill="midnightblue" stroke="midnightblue" points="338.77,-85.94 341.33,-75.66 332.92,-82.1 338.77,-85.94"/>
</g>
<!-- Node2&#45;&gt;Node8 -->
<g id="edge8" class="edge">
<title>Node2&#45;&gt;Node8</title>
<path fill="none" stroke="midnightblue" d="M346.81,-112.42C364.4,-104.25 384.1,-92.3 397,-76 407.59,-62.62 412.28,-43.51 414.36,-29.47"/>
<polygon fill="midnightblue" stroke="midnightblue" points="417.84,-29.85 415.52,-19.51 410.88,-29.03 417.84,-29.85"/>
</g>
<!-- Node9 -->
<g id="node9" class="node">
<title>Node9</title>
<g id="a_node9"><a xlink:title=" ">
<polygon fill="none" stroke="#bfbfbf" points="444,-56.5 444,-75.5 506,-75.5 506,-56.5 444,-56.5"/>
<text text-anchor="middle" x="475" y="-63.5" font-family="Helvetica,sans-Serif" font-size="10.00">ft2build.h</text>
</a>
</g>
</g>
<!-- Node2&#45;&gt;Node9 -->
<g id="edge9" class="edge">
<title>Node2&#45;&gt;Node9</title>
<path fill="none" stroke="midnightblue" d="M347.58,-112.4C376.1,-102.24 414.17,-88.67 441.26,-79.02"/>
<polygon fill="midnightblue" stroke="midnightblue" points="442.45,-82.31 450.7,-75.66 440.11,-75.72 442.45,-82.31"/>
</g>
<!-- Node7&#45;&gt;Node8 -->
<g id="edge7" class="edge">
<title>Node7&#45;&gt;Node8</title>
<path fill="none" stroke="midnightblue" d="M358.09,-56.32C368.49,-48.18 384.26,-35.84 396.72,-26.09"/>
<polygon fill="midnightblue" stroke="midnightblue" points="398.99,-28.75 404.71,-19.83 394.68,-23.24 398.99,-28.75"/>
</g>
</g>
</svg>
