<?xml version="1.0" encoding="UTF-8" standalone="no"?>
<!DOCTYPE svg PUBLIC "-//W3C//DTD SVG 1.1//EN"
 "http://www.w3.org/Graphics/SVG/1.1/DTD/svg11.dtd">
<!-- Generated by graphviz version 2.43.0 (0)
 -->
<!-- Title: /home/fnky/C0de/component_engine/src/Actors/Texture_Actor.cpp Pages: 1 -->
<!--zoomable 296 -->
<svg id="main" version="1.1" xmlns="http://www.w3.org/2000/svg" xmlns:xlink="http://www.w3.org/1999/xlink" xml:space="preserve" onload="init(evt)">
<style type="text/css"><![CDATA[
.edge:hover path { stroke: red; }
.edge:hover polygon { stroke: red; fill: red; }
]]></style>
<script type="text/javascript"><![CDATA[
var edges = document.getElementsByTagName('g');
if (edges && edges.length) {
  for (var i=0;i<edges.length;i++) {
    if (edges[i].id.substr(0,4)=='edge') {
      edges[i].setAttribute('class','edge');
    }
  }
}
]]></script>
        <defs>
                <circle id="rim" cx="0" cy="0" r="7"/>
                <circle id="rim2" cx="0" cy="0" r="3.5"/>
                <g id="zoomPlus">
                        <use xlink:href="#rim" fill="#404040">
                                <set attributeName="fill" to="#808080" begin="zoomplus.mouseover" end="zoomplus.mouseout"/>
                        </use>
                        <path d="M-4,0h8M0,-4v8" fill="none" stroke="white" stroke-width="1.5" pointer-events="none"/>
                </g>
                <g id="zoomMin">
                        <use xlink:href="#rim" fill="#404040">
                                <set attributeName="fill" to="#808080" begin="zoomminus.mouseover" end="zoomminus.mouseout"/>
                        </use>
                        <path d="M-4,0h8" fill="none" stroke="white" stroke-width="1.5" pointer-events="none"/>
                </g>
                <g id="dirArrow">
                        <path fill="none" stroke="white" stroke-width="1.5" d="M0,-3.0v7 M-2.5,-0.5L0,-3.0L2.5,-0.5"/>
                </g>
               <g id="resetDef">
                       <use xlink:href="#rim2" fill="#404040">
                               <set attributeName="fill" to="#808080" begin="reset.mouseover" end="reset.mouseout"/>
                       </use>
               </g>
        </defs>

<script type="text/javascript">
var viewWidth = 1221;
var viewHeight = 296;
var sectionId = 'dynsection-0';
</script>
<script xlink:href="svgpan.js"/>
<svg id="graph" class="graph">
<g id="viewport">
<title>/home/fnky/C0de/component_engine/src/Actors/Texture_Actor.cpp</title>
<!-- Node1 -->
<g id="node1" class="node">
<title>Node1</title>
<g id="a_node1"><a xlink:title=" ">
<polygon fill="#bfbfbf" stroke="black" points="369.96,-246.5 369.96,-287.5 526.96,-287.5 526.96,-246.5 369.96,-246.5"/>
<text text-anchor="start" x="377.96" y="-275.5" font-family="Helvetica,sans-Serif" font-size="10.00">/home/fnky/C0de/component</text>
<text text-anchor="start" x="377.96" y="-264.5" font-family="Helvetica,sans-Serif" font-size="10.00">_engine/src/Actors/Texture</text>
<text text-anchor="middle" x="448.46" y="-253.5" font-family="Helvetica,sans-Serif" font-size="10.00">_Actor.cpp</text>
</a>
</g>
</g>
<!-- Node2 -->
<g id="node2" class="node">
<title>Node2</title>
<g id="a_node2"><a xlink:href="Shader__Actor_8h.html" target="_top" xlink:title=" ">
<polygon fill="none" stroke="black" points="210.46,-179.5 210.46,-209.5 314.46,-209.5 314.46,-179.5 210.46,-179.5"/>
<text text-anchor="start" x="218.46" y="-197.5" font-family="Helvetica,sans-Serif" font-size="10.00">../../include/Actors</text>
<text text-anchor="middle" x="262.46" y="-186.5" font-family="Helvetica,sans-Serif" font-size="10.00">/Shader_Actor.h</text>
</a>
</g>
</g>
<!-- Node1&#45;&gt;Node2 -->
<g id="edge1" class="edge">
<title>Node1&#45;&gt;Node2</title>
<path fill="none" stroke="midnightblue" d="M396.65,-246.36C369.18,-235.95 335.69,-223.25 309.04,-213.15"/>
<polygon fill="midnightblue" stroke="midnightblue" points="310.15,-209.83 299.56,-209.56 307.67,-216.38 310.15,-209.83"/>
</g>
<!-- Node4 -->
<g id="node4" class="node">
<title>Node4</title>
<g id="a_node4"><a xlink:title=" ">
<polygon fill="none" stroke="#bfbfbf" points="268.46,-0.5 268.46,-19.5 326.46,-19.5 326.46,-0.5 268.46,-0.5"/>
<text text-anchor="middle" x="297.46" y="-7.5" font-family="Helvetica,sans-Serif" font-size="10.00">memory</text>
</a>
</g>
</g>
<!-- Node1&#45;&gt;Node4 -->
<g id="edge46" class="edge">
<title>Node1&#45;&gt;Node4</title>
<path fill="none" stroke="midnightblue" d="M369.77,-260.67C276.52,-253.22 127.69,-237.42 79.46,-210 45.97,-190.96 40.6,-177.98 24.46,-143 8.11,-107.56 -12.89,-85.67 12.46,-56 43.57,-19.6 187.17,-12.47 257.89,-11.19"/>
<polygon fill="midnightblue" stroke="midnightblue" points="258.23,-14.69 268.18,-11.04 258.13,-7.69 258.23,-14.69"/>
</g>
<!-- Node9 -->
<g id="node9" class="node">
<title>Node9</title>
<g id="a_node9"><a xlink:href="Texture__Actor_8h.html" target="_top" xlink:title=" ">
<polygon fill="none" stroke="black" points="88.46,-179.5 88.46,-209.5 192.46,-209.5 192.46,-179.5 88.46,-179.5"/>
<text text-anchor="start" x="96.46" y="-197.5" font-family="Helvetica,sans-Serif" font-size="10.00">../../include/Actors</text>
<text text-anchor="middle" x="140.46" y="-186.5" font-family="Helvetica,sans-Serif" font-size="10.00">/Texture_Actor.h</text>
</a>
</g>
</g>
<!-- Node1&#45;&gt;Node9 -->
<g id="edge10" class="edge">
<title>Node1&#45;&gt;Node9</title>
<path fill="none" stroke="midnightblue" d="M369.71,-248.37C323.64,-238 264.09,-224.51 202.58,-210.25"/>
<polygon fill="midnightblue" stroke="midnightblue" points="203.23,-206.81 192.7,-207.95 201.65,-213.62 203.23,-206.81"/>
</g>
<!-- Node10 -->
<g id="node10" class="node">
<title>Node10</title>
<g id="a_node10"><a xlink:href="TransformComponent_8h.html" target="_top" xlink:title=" ">
<polygon fill="none" stroke="black" points="476.46,-179.5 476.46,-209.5 610.46,-209.5 610.46,-179.5 476.46,-179.5"/>
<text text-anchor="start" x="484.46" y="-197.5" font-family="Helvetica,sans-Serif" font-size="10.00">../../include/Components</text>
<text text-anchor="middle" x="543.46" y="-186.5" font-family="Helvetica,sans-Serif" font-size="10.00">/TransformComponent.h</text>
</a>
</g>
</g>
<!-- Node1&#45;&gt;Node10 -->
<g id="edge15" class="edge">
<title>Node1&#45;&gt;Node10</title>
<path fill="none" stroke="midnightblue" d="M474.93,-246.36C487.81,-236.8 503.27,-225.33 516.25,-215.69"/>
<polygon fill="midnightblue" stroke="midnightblue" points="518.42,-218.44 524.37,-209.67 514.25,-212.82 518.42,-218.44"/>
</g>
<!-- Node13 -->
<g id="node13" class="node">
<title>Node13</title>
<g id="a_node13"><a xlink:href="ShaderComponent_8h.html" target="_top" xlink:title=" ">
<polygon fill="none" stroke="black" points="381.46,-112.5 381.46,-142.5 515.46,-142.5 515.46,-112.5 381.46,-112.5"/>
<text text-anchor="start" x="389.46" y="-130.5" font-family="Helvetica,sans-Serif" font-size="10.00">../../include/Components</text>
<text text-anchor="middle" x="448.46" y="-119.5" font-family="Helvetica,sans-Serif" font-size="10.00">/ShaderComponent.h</text>
</a>
</g>
</g>
<!-- Node1&#45;&gt;Node13 -->
<g id="edge19" class="edge">
<title>Node1&#45;&gt;Node13</title>
<path fill="none" stroke="midnightblue" d="M448.46,-246.3C448.46,-221.63 448.46,-179.38 448.46,-152.75"/>
<polygon fill="midnightblue" stroke="midnightblue" points="451.96,-152.72 448.46,-142.72 444.96,-152.72 451.96,-152.72"/>
</g>
<!-- Node16 -->
<g id="node16" class="node">
<title>Node16</title>
<g id="a_node16"><a xlink:href="RenderComponent_8h.html" target="_top" xlink:title=" ">
<polygon fill="none" stroke="black" points="813.46,-179.5 813.46,-209.5 947.46,-209.5 947.46,-179.5 813.46,-179.5"/>
<text text-anchor="start" x="821.46" y="-197.5" font-family="Helvetica,sans-Serif" font-size="10.00">../../include/Components</text>
<text text-anchor="middle" x="880.46" y="-186.5" font-family="Helvetica,sans-Serif" font-size="10.00">/RenderComponent.h</text>
</a>
</g>
</g>
<!-- Node1&#45;&gt;Node16 -->
<g id="edge24" class="edge">
<title>Node1&#45;&gt;Node16</title>
<path fill="none" stroke="midnightblue" d="M527.2,-253.15C605.57,-240.36 725.11,-220.85 803.03,-208.14"/>
<polygon fill="midnightblue" stroke="midnightblue" points="803.96,-211.53 813.26,-206.47 802.83,-204.62 803.96,-211.53"/>
</g>
<!-- Node25 -->
<g id="node25" class="node">
<title>Node25</title>
<g id="a_node25"><a xlink:title=" ">
<polygon fill="none" stroke="#bfbfbf" points="965.96,-185 965.96,-204 1048.96,-204 1048.96,-185 965.96,-185"/>
<text text-anchor="middle" x="1007.46" y="-192" font-family="Helvetica,sans-Serif" font-size="10.00">GLFW/glfw3.h</text>
</a>
</g>
</g>
<!-- Node1&#45;&gt;Node25 -->
<g id="edge47" class="edge">
<title>Node1&#45;&gt;Node25</title>
<path fill="none" stroke="midnightblue" d="M526.97,-261.43C627.31,-254.66 806.04,-239.46 956.46,-210 961.18,-209.08 966.1,-207.92 970.94,-206.68"/>
<polygon fill="midnightblue" stroke="midnightblue" points="971.94,-210.03 980.67,-204.03 970.1,-203.28 971.94,-210.03"/>
</g>
<!-- Node3 -->
<g id="node3" class="node">
<title>Node3</title>
<g id="a_node3"><a xlink:href="Components_2Component_8h.html" target="_top" xlink:title=" ">
<polygon fill="none" stroke="black" points="272.96,-56.5 272.96,-75.5 427.96,-75.5 427.96,-56.5 272.96,-56.5"/>
<text text-anchor="middle" x="350.46" y="-63.5" font-family="Helvetica,sans-Serif" font-size="10.00">../Components/Component.h</text>
</a>
</g>
</g>
<!-- Node2&#45;&gt;Node3 -->
<g id="edge2" class="edge">
<title>Node2&#45;&gt;Node3</title>
<path fill="none" stroke="midnightblue" d="M272.22,-179.48C288.48,-156.1 321.07,-109.25 338.62,-84.02"/>
<polygon fill="midnightblue" stroke="midnightblue" points="341.51,-86 344.35,-75.79 335.77,-82 341.51,-86"/>
</g>
<!-- Node2&#45;&gt;Node4 -->
<g id="edge9" class="edge">
<title>Node2&#45;&gt;Node4</title>
<path fill="none" stroke="midnightblue" d="M259.72,-179.36C255.4,-153.89 248.89,-98.95 263.46,-56 267.11,-45.26 274.41,-35.03 281.32,-27.05"/>
<polygon fill="midnightblue" stroke="midnightblue" points="283.97,-29.33 288.2,-19.61 278.84,-24.57 283.97,-29.33"/>
</g>
<!-- Node5 -->
<g id="node5" class="node">
<title>Node5</title>
<g id="a_node5"><a xlink:href="Actor_8h.html" target="_top" xlink:title=" ">
<polygon fill="none" stroke="black" points="85.46,-118 85.46,-137 135.46,-137 135.46,-118 85.46,-118"/>
<text text-anchor="middle" x="110.46" y="-125" font-family="Helvetica,sans-Serif" font-size="10.00">Actor.h</text>
</a>
</g>
</g>
<!-- Node2&#45;&gt;Node5 -->
<g id="edge4" class="edge">
<title>Node2&#45;&gt;Node5</title>
<path fill="none" stroke="midnightblue" d="M229.48,-179.4C202.69,-167.94 165.27,-151.94 139.58,-140.95"/>
<polygon fill="midnightblue" stroke="midnightblue" points="140.93,-137.72 130.36,-137.01 138.17,-144.16 140.93,-137.72"/>
</g>
<!-- Node8 -->
<g id="node8" class="node">
<title>Node8</title>
<g id="a_node8"><a xlink:title=" ">
<polygon fill="none" stroke="#bfbfbf" points="138.96,-56.5 138.96,-75.5 215.96,-75.5 215.96,-56.5 138.96,-56.5"/>
<text text-anchor="middle" x="177.46" y="-63.5" font-family="Helvetica,sans-Serif" font-size="10.00">glm/fwd.hpp</text>
</a>
</g>
</g>
<!-- Node2&#45;&gt;Node8 -->
<g id="edge8" class="edge">
<title>Node2&#45;&gt;Node8</title>
<path fill="none" stroke="midnightblue" d="M251.51,-179.11C244,-169.1 233.91,-155.4 225.46,-143 211.93,-123.13 197.31,-99.66 187.8,-84.11"/>
<polygon fill="midnightblue" stroke="midnightblue" points="190.79,-82.28 182.6,-75.56 184.81,-85.92 190.79,-82.28"/>
</g>
<!-- Node3&#45;&gt;Node4 -->
<g id="edge3" class="edge">
<title>Node3&#45;&gt;Node4</title>
<path fill="none" stroke="midnightblue" d="M341.71,-56.08C333.99,-48.22 322.56,-36.57 313.25,-27.08"/>
<polygon fill="midnightblue" stroke="midnightblue" points="315.55,-24.44 306.05,-19.75 310.56,-29.34 315.55,-24.44"/>
</g>
<!-- Node5&#45;&gt;Node3 -->
<g id="edge7" class="edge">
<title>Node5&#45;&gt;Node3</title>
<path fill="none" stroke="midnightblue" d="M135.69,-120.24C176.11,-110.22 255.92,-90.44 306.05,-78.01"/>
<polygon fill="midnightblue" stroke="midnightblue" points="307.1,-81.36 315.96,-75.55 305.42,-74.56 307.1,-81.36"/>
</g>
<!-- Node6 -->
<g id="node6" class="node">
<title>Node6</title>
<g id="a_node6"><a xlink:title=" ">
<polygon fill="none" stroke="#bfbfbf" points="34.96,-56.5 34.96,-75.5 81.96,-75.5 81.96,-56.5 34.96,-56.5"/>
<text text-anchor="middle" x="58.46" y="-63.5" font-family="Helvetica,sans-Serif" font-size="10.00">vector</text>
</a>
</g>
</g>
<!-- Node5&#45;&gt;Node6 -->
<g id="edge5" class="edge">
<title>Node5&#45;&gt;Node6</title>
<path fill="none" stroke="midnightblue" d="M103.01,-117.98C95.14,-108.96 82.52,-94.52 72.72,-83.31"/>
<polygon fill="midnightblue" stroke="midnightblue" points="75.12,-80.74 65.9,-75.51 69.84,-85.34 75.12,-80.74"/>
</g>
<!-- Node7 -->
<g id="node7" class="node">
<title>Node7</title>
<g id="a_node7"><a xlink:title=" ">
<polygon fill="none" stroke="#bfbfbf" points="1013.46,-0.5 1013.46,-19.5 1073.46,-19.5 1073.46,-0.5 1013.46,-0.5"/>
<text text-anchor="middle" x="1043.46" y="-7.5" font-family="Helvetica,sans-Serif" font-size="10.00">iostream</text>
</a>
</g>
</g>
<!-- Node5&#45;&gt;Node7 -->
<g id="edge6" class="edge">
<title>Node5&#45;&gt;Node7</title>
<path fill="none" stroke="midnightblue" d="M109.86,-117.87C109.33,-102.63 110.71,-71.11 129.46,-56 163.92,-28.23 830.91,-14.71 1003.15,-11.67"/>
<polygon fill="midnightblue" stroke="midnightblue" points="1003.37,-15.17 1013.31,-11.49 1003.25,-8.17 1003.37,-15.17"/>
</g>
<!-- Node9&#45;&gt;Node3 -->
<g id="edge11" class="edge">
<title>Node9&#45;&gt;Node3</title>
<path fill="none" stroke="midnightblue" d="M163.74,-179.48C204.26,-155.07 287.28,-105.06 327.54,-80.81"/>
<polygon fill="midnightblue" stroke="midnightblue" points="329.38,-83.79 336.14,-75.63 325.76,-77.79 329.38,-83.79"/>
</g>
<!-- Node9&#45;&gt;Node4 -->
<g id="edge14" class="edge">
<title>Node9&#45;&gt;Node4</title>
<path fill="none" stroke="midnightblue" d="M113.14,-179.39C68.23,-154.42 -12.58,-100.86 25.46,-56 54.78,-21.44 189.56,-13.38 257.73,-11.53"/>
<polygon fill="midnightblue" stroke="midnightblue" points="258.16,-15.03 268.08,-11.29 258,-8.03 258.16,-15.03"/>
</g>
<!-- Node9&#45;&gt;Node5 -->
<g id="edge12" class="edge">
<title>Node9&#45;&gt;Node5</title>
<path fill="none" stroke="midnightblue" d="M133.95,-179.4C129.51,-169.76 123.58,-156.91 118.79,-146.54"/>
<polygon fill="midnightblue" stroke="midnightblue" points="121.84,-144.81 114.48,-137.19 115.49,-147.74 121.84,-144.81"/>
</g>
<!-- Node9&#45;&gt;Node8 -->
<g id="edge13" class="edge">
<title>Node9&#45;&gt;Node8</title>
<path fill="none" stroke="midnightblue" d="M144.56,-179.48C151.25,-156.62 164.51,-111.3 171.99,-85.71"/>
<polygon fill="midnightblue" stroke="midnightblue" points="175.44,-86.37 174.89,-75.79 168.73,-84.4 175.44,-86.37"/>
</g>
<!-- Node10&#45;&gt;Node3 -->
<g id="edge16" class="edge">
<title>Node10&#45;&gt;Node3</title>
<path fill="none" stroke="midnightblue" d="M476.39,-188.91C441.16,-183.12 399.75,-170.43 372.46,-143 357.43,-127.89 352.54,-103.17 351.02,-86.04"/>
<polygon fill="midnightblue" stroke="midnightblue" points="354.49,-85.4 350.42,-75.61 347.5,-85.8 354.49,-85.4"/>
</g>
<!-- Node11 -->
<g id="node11" class="node">
<title>Node11</title>
<g id="a_node11"><a xlink:title=" ">
<polygon fill="none" stroke="#bfbfbf" points="619.46,-56.5 619.46,-75.5 697.46,-75.5 697.46,-56.5 619.46,-56.5"/>
<text text-anchor="middle" x="658.46" y="-63.5" font-family="Helvetica,sans-Serif" font-size="10.00">glm/glm.hpp</text>
</a>
</g>
</g>
<!-- Node10&#45;&gt;Node11 -->
<g id="edge17" class="edge">
<title>Node10&#45;&gt;Node11</title>
<path fill="none" stroke="midnightblue" d="M543.18,-179.21C543.56,-161.53 546.74,-131.42 562.46,-112 575.07,-96.43 594.31,-85.97 612.27,-79.08"/>
<polygon fill="midnightblue" stroke="midnightblue" points="613.8,-82.25 622.06,-75.61 611.46,-75.65 613.8,-82.25"/>
</g>
<!-- Node12 -->
<g id="node12" class="node">
<title>Node12</title>
<g id="a_node12"><a xlink:title=" ">
<polygon fill="none" stroke="#bfbfbf" points="571.96,-118 571.96,-137 734.96,-137 734.96,-118 571.96,-118"/>
<text text-anchor="middle" x="653.46" y="-125" font-family="Helvetica,sans-Serif" font-size="10.00">glm/gtc/matrix_transform.hpp</text>
</a>
</g>
</g>
<!-- Node10&#45;&gt;Node12 -->
<g id="edge18" class="edge">
<title>Node10&#45;&gt;Node12</title>
<path fill="none" stroke="midnightblue" d="M567.33,-179.4C586.03,-168.34 611.9,-153.06 630.39,-142.13"/>
<polygon fill="midnightblue" stroke="midnightblue" points="632.24,-145.11 639.07,-137.01 628.68,-139.08 632.24,-145.11"/>
</g>
<!-- Node13&#45;&gt;Node3 -->
<g id="edge20" class="edge">
<title>Node13&#45;&gt;Node3</title>
<path fill="none" stroke="midnightblue" d="M425.24,-112.4C409.68,-102.95 389.27,-90.56 373.7,-81.11"/>
<polygon fill="midnightblue" stroke="midnightblue" points="375.09,-77.86 364.72,-75.66 371.45,-83.84 375.09,-77.86"/>
</g>
<!-- Node13&#45;&gt;Node11 -->
<g id="edge22" class="edge">
<title>Node13&#45;&gt;Node11</title>
<path fill="none" stroke="midnightblue" d="M497.96,-112.47C534.83,-102.03 584.5,-87.96 618.77,-78.25"/>
<polygon fill="midnightblue" stroke="midnightblue" points="619.77,-81.6 628.44,-75.51 617.87,-74.87 619.77,-81.6"/>
</g>
<!-- Node14 -->
<g id="node14" class="node">
<title>Node14</title>
<g id="a_node14"><a xlink:title=" ">
<polygon fill="none" stroke="#bfbfbf" points="1134.96,-0.5 1134.96,-19.5 1205.96,-19.5 1205.96,-0.5 1134.96,-0.5"/>
<text text-anchor="middle" x="1170.46" y="-7.5" font-family="Helvetica,sans-Serif" font-size="10.00">glad/glad.h</text>
</a>
</g>
</g>
<!-- Node13&#45;&gt;Node14 -->
<g id="edge21" class="edge">
<title>Node13&#45;&gt;Node14</title>
<path fill="none" stroke="midnightblue" d="M484.87,-112.49C509.53,-102.77 542.74,-89.23 571.46,-76 589.16,-67.85 591.72,-61.29 610.46,-56 812.95,1.13 872.91,-38.7 1082.46,-20 1096.24,-18.77 1111.21,-17.29 1124.83,-15.89"/>
<polygon fill="midnightblue" stroke="midnightblue" points="1125.36,-19.36 1134.94,-14.84 1124.64,-12.39 1125.36,-19.36"/>
</g>
<!-- Node15 -->
<g id="node15" class="node">
<title>Node15</title>
<g id="a_node15"><a xlink:title=" ">
<polygon fill="none" stroke="#bfbfbf" points="445.96,-56.5 445.96,-75.5 562.96,-75.5 562.96,-56.5 445.96,-56.5"/>
<text text-anchor="middle" x="504.46" y="-63.5" font-family="Helvetica,sans-Serif" font-size="10.00">glm/gtc/type_ptr.hpp</text>
</a>
</g>
</g>
<!-- Node13&#45;&gt;Node15 -->
<g id="edge23" class="edge">
<title>Node13&#45;&gt;Node15</title>
<path fill="none" stroke="midnightblue" d="M461.73,-112.4C470.04,-103.58 480.76,-92.18 489.39,-83.02"/>
<polygon fill="midnightblue" stroke="midnightblue" points="492.01,-85.34 496.31,-75.66 486.91,-80.54 492.01,-85.34"/>
</g>
<!-- Node16&#45;&gt;Node3 -->
<g id="edge31" class="edge">
<title>Node16&#45;&gt;Node3</title>
<path fill="none" stroke="midnightblue" d="M845.73,-179.43C825.09,-170.36 798.87,-157.57 777.46,-143 760.56,-131.49 762.08,-120.46 743.46,-112 736.56,-108.86 552.02,-88.62 438.31,-76.38"/>
<polygon fill="midnightblue" stroke="midnightblue" points="438.53,-72.89 428.21,-75.3 437.78,-79.85 438.53,-72.89"/>
</g>
<!-- Node16&#45;&gt;Node4 -->
<g id="edge45" class="edge">
<title>Node16&#45;&gt;Node4</title>
<path fill="none" stroke="midnightblue" d="M871.74,-179.21C860.38,-161.53 839.03,-131.42 814.46,-112 785.45,-89.07 771.98,-93.6 739.46,-76 724.38,-67.84 722.7,-61.51 706.46,-56 638.54,-32.94 425.46,-18.37 336.79,-13.16"/>
<polygon fill="midnightblue" stroke="midnightblue" points="336.8,-9.65 326.61,-12.57 336.39,-16.64 336.8,-9.65"/>
</g>
<!-- Node16&#45;&gt;Node11 -->
<g id="edge28" class="edge">
<title>Node16&#45;&gt;Node11</title>
<path fill="none" stroke="midnightblue" d="M865.83,-179.49C846.76,-161.83 811.79,-131.45 777.46,-112 752.41,-97.81 722.01,-86.4 698.21,-78.62"/>
<polygon fill="midnightblue" stroke="midnightblue" points="699.04,-75.21 688.44,-75.51 696.91,-81.88 699.04,-75.21"/>
</g>
<!-- Node16&#45;&gt;Node12 -->
<g id="edge29" class="edge">
<title>Node16&#45;&gt;Node12</title>
<path fill="none" stroke="midnightblue" d="M831.49,-179.48C790.09,-167.62 731.55,-150.86 693.06,-139.84"/>
<polygon fill="midnightblue" stroke="midnightblue" points="693.83,-136.42 683.25,-137.03 691.9,-143.15 693.83,-136.42"/>
</g>
<!-- Node16&#45;&gt;Node14 -->
<g id="edge27" class="edge">
<title>Node16&#45;&gt;Node14</title>
<path fill="none" stroke="midnightblue" d="M947.6,-180.68C950.59,-180.11 953.56,-179.55 956.46,-179 1042.21,-162.82 1073.24,-185.47 1149.46,-143 1184.64,-123.4 1195.93,-113.56 1210.46,-76 1217.5,-57.82 1203.24,-39.07 1189.83,-26.41"/>
<polygon fill="midnightblue" stroke="midnightblue" points="1192.03,-23.68 1182.21,-19.7 1187.41,-28.93 1192.03,-23.68"/>
</g>
<!-- Node17 -->
<g id="node17" class="node">
<title>Node17</title>
<g id="a_node17"><a xlink:title=" ">
<polygon fill="none" stroke="#bfbfbf" points="1071.46,-56.5 1071.46,-75.5 1121.46,-75.5 1121.46,-56.5 1071.46,-56.5"/>
<text text-anchor="middle" x="1096.46" y="-63.5" font-family="Helvetica,sans-Serif" font-size="10.00">cstdint</text>
</a>
</g>
</g>
<!-- Node16&#45;&gt;Node17 -->
<g id="edge25" class="edge">
<title>Node16&#45;&gt;Node17</title>
<path fill="none" stroke="midnightblue" d="M947.74,-180.45C1011.88,-167.68 1099.44,-149.28 1104.46,-143 1117.5,-126.7 1111.49,-101.72 1104.92,-84.9"/>
<polygon fill="midnightblue" stroke="midnightblue" points="1108.1,-83.42 1100.92,-75.62 1101.67,-86.19 1108.1,-83.42"/>
</g>
<!-- Node18 -->
<g id="node18" class="node">
<title>Node18</title>
<g id="a_node18"><a xlink:title=" ">
<polygon fill="none" stroke="#bfbfbf" points="993.46,-118 993.46,-137 1039.46,-137 1039.46,-118 993.46,-118"/>
<text text-anchor="middle" x="1016.46" y="-125" font-family="Helvetica,sans-Serif" font-size="10.00">cstdio</text>
</a>
</g>
</g>
<!-- Node16&#45;&gt;Node18 -->
<g id="edge26" class="edge">
<title>Node16&#45;&gt;Node18</title>
<path fill="none" stroke="midnightblue" d="M909.97,-179.4C933.62,-168.09 966.54,-152.36 989.49,-141.39"/>
<polygon fill="midnightblue" stroke="midnightblue" points="991.15,-144.48 998.66,-137.01 988.13,-138.16 991.15,-144.48"/>
</g>
<!-- Node19 -->
<g id="node19" class="node">
<title>Node19</title>
<g id="a_node19"><a xlink:title=" ">
<polygon fill="none" stroke="#bfbfbf" points="1057.46,-118 1057.46,-137 1095.46,-137 1095.46,-118 1057.46,-118"/>
<text text-anchor="middle" x="1076.46" y="-125" font-family="Helvetica,sans-Serif" font-size="10.00">map</text>
</a>
</g>
</g>
<!-- Node16&#45;&gt;Node19 -->
<g id="edge30" class="edge">
<title>Node16&#45;&gt;Node19</title>
<path fill="none" stroke="midnightblue" d="M936.59,-179.44C969.68,-170.46 1012.05,-157.75 1048.46,-143 1049.66,-142.51 1050.88,-141.99 1052.1,-141.45"/>
<polygon fill="midnightblue" stroke="midnightblue" points="1053.82,-144.51 1061.3,-137 1050.77,-138.2 1053.82,-144.51"/>
</g>
<!-- Node20 -->
<g id="node20" class="node">
<title>Node20</title>
<g id="a_node20"><a xlink:href="sprite_8h.html" target="_top" xlink:title=" ">
<polygon fill="none" stroke="black" points="867.46,-118 867.46,-137 975.46,-137 975.46,-118 867.46,-118"/>
<text text-anchor="middle" x="921.46" y="-125" font-family="Helvetica,sans-Serif" font-size="10.00">../Graphics/sprite.h</text>
</a>
</g>
</g>
<!-- Node16&#45;&gt;Node20 -->
<g id="edge32" class="edge">
<title>Node16&#45;&gt;Node20</title>
<path fill="none" stroke="midnightblue" d="M889.36,-179.4C895.56,-169.56 903.88,-156.38 910.49,-145.89"/>
<polygon fill="midnightblue" stroke="midnightblue" points="913.6,-147.52 915.98,-137.19 907.68,-143.79 913.6,-147.52"/>
</g>
<!-- Node22 -->
<g id="node22" class="node">
<title>Node22</title>
<g id="a_node22"><a xlink:href="texture_8h.html" target="_top" xlink:title=" ">
<polygon fill="none" stroke="black" points="1139.96,-56.5 1139.96,-75.5 1200.96,-75.5 1200.96,-56.5 1139.96,-56.5"/>
<text text-anchor="middle" x="1170.46" y="-63.5" font-family="Helvetica,sans-Serif" font-size="10.00">texture.h</text>
</a>
</g>
</g>
<!-- Node16&#45;&gt;Node22 -->
<g id="edge44" class="edge">
<title>Node16&#45;&gt;Node22</title>
<path fill="none" stroke="midnightblue" d="M947.49,-180.17C1017.83,-166.08 1118.8,-145.54 1122.46,-143 1142.85,-128.85 1156.43,-102.96 1163.79,-85.37"/>
<polygon fill="midnightblue" stroke="midnightblue" points="1167.2,-86.26 1167.58,-75.67 1160.68,-83.71 1167.2,-86.26"/>
</g>
<!-- Node20&#45;&gt;Node4 -->
<g id="edge41" class="edge">
<title>Node20&#45;&gt;Node4</title>
<path fill="none" stroke="midnightblue" d="M895.84,-117.94C867.76,-108.38 821.5,-92.13 782.46,-76 762.98,-67.95 759.79,-61.59 739.46,-56 594.92,-16.24 415.08,-10.92 336.86,-10.66"/>
<polygon fill="midnightblue" stroke="midnightblue" points="336.51,-7.16 326.51,-10.65 336.51,-14.16 336.51,-7.16"/>
</g>
<!-- Node20&#45;&gt;Node7 -->
<g id="edge37" class="edge">
<title>Node20&#45;&gt;Node7</title>
<path fill="none" stroke="midnightblue" d="M953.79,-117.93C976.3,-110.39 1005.41,-97.22 1023.46,-76 1034.57,-62.94 1039.51,-43.79 1041.71,-29.65"/>
<polygon fill="midnightblue" stroke="midnightblue" points="1045.2,-29.96 1042.95,-19.61 1038.25,-29.1 1045.2,-29.96"/>
</g>
<!-- Node20&#45;&gt;Node8 -->
<g id="edge35" class="edge">
<title>Node20&#45;&gt;Node8</title>
<path fill="none" stroke="midnightblue" d="M867.33,-122C832.06,-119.09 785.04,-115.25 743.46,-112 530.18,-95.32 476.54,-95.14 263.46,-76 251.31,-74.91 238.21,-73.6 225.99,-72.33"/>
<polygon fill="midnightblue" stroke="midnightblue" points="226.28,-68.84 215.97,-71.27 225.55,-75.8 226.28,-68.84"/>
</g>
<!-- Node20&#45;&gt;Node11 -->
<g id="edge36" class="edge">
<title>Node20&#45;&gt;Node11</title>
<path fill="none" stroke="midnightblue" d="M883.78,-117.98C836.91,-107.37 756.86,-89.26 705.87,-77.72"/>
<polygon fill="midnightblue" stroke="midnightblue" points="706.6,-74.3 696.07,-75.51 705.06,-81.13 706.6,-74.3"/>
</g>
<!-- Node20&#45;&gt;Node17 -->
<g id="edge33" class="edge">
<title>Node20&#45;&gt;Node17</title>
<path fill="none" stroke="midnightblue" d="M946.54,-117.98C976.82,-107.68 1027.9,-90.31 1061.9,-78.75"/>
<polygon fill="midnightblue" stroke="midnightblue" points="1063.1,-82.04 1071.44,-75.51 1060.84,-75.41 1063.1,-82.04"/>
</g>
<!-- Node21 -->
<g id="node21" class="node">
<title>Node21</title>
<g id="a_node21"><a xlink:title=" ">
<polygon fill="none" stroke="#bfbfbf" points="791.46,-56.5 791.46,-75.5 841.46,-75.5 841.46,-56.5 791.46,-56.5"/>
<text text-anchor="middle" x="816.46" y="-63.5" font-family="Helvetica,sans-Serif" font-size="10.00">stdio.h</text>
</a>
</g>
</g>
<!-- Node20&#45;&gt;Node21 -->
<g id="edge34" class="edge">
<title>Node20&#45;&gt;Node21</title>
<path fill="none" stroke="midnightblue" d="M906.42,-117.98C889.19,-108.21 860.72,-92.08 840.43,-80.58"/>
<polygon fill="midnightblue" stroke="midnightblue" points="841.91,-77.39 831.48,-75.51 838.45,-83.48 841.91,-77.39"/>
</g>
<!-- Node20&#45;&gt;Node22 -->
<g id="edge38" class="edge">
<title>Node20&#45;&gt;Node22</title>
<path fill="none" stroke="midnightblue" d="M957.14,-117.98C1002.96,-107.03 1082.28,-88.07 1130.22,-76.62"/>
<polygon fill="midnightblue" stroke="midnightblue" points="1131.03,-80.02 1139.94,-74.29 1129.4,-73.21 1131.03,-80.02"/>
</g>
<!-- Node23 -->
<g id="node23" class="node">
<title>Node23</title>
<g id="a_node23"><a xlink:title=" ">
<polygon fill="none" stroke="#bfbfbf" points="859.46,-56.5 859.46,-75.5 903.46,-75.5 903.46,-56.5 859.46,-56.5"/>
<text text-anchor="middle" x="881.46" y="-63.5" font-family="Helvetica,sans-Serif" font-size="10.00">string</text>
</a>
</g>
</g>
<!-- Node20&#45;&gt;Node23 -->
<g id="edge42" class="edge">
<title>Node20&#45;&gt;Node23</title>
<path fill="none" stroke="midnightblue" d="M915.73,-117.98C909.79,-109.14 900.35,-95.09 892.87,-83.98"/>
<polygon fill="midnightblue" stroke="midnightblue" points="895.67,-81.86 887.18,-75.51 889.86,-85.76 895.67,-81.86"/>
</g>
<!-- Node24 -->
<g id="node24" class="node">
<title>Node24</title>
<g id="a_node24"><a xlink:title=" ">
<polygon fill="none" stroke="#bfbfbf" points="921.96,-56.5 921.96,-75.5 1014.96,-75.5 1014.96,-56.5 921.96,-56.5"/>
<text text-anchor="middle" x="968.46" y="-63.5" font-family="Helvetica,sans-Serif" font-size="10.00">unordered_map</text>
</a>
</g>
</g>
<!-- Node20&#45;&gt;Node24 -->
<g id="edge43" class="edge">
<title>Node20&#45;&gt;Node24</title>
<path fill="none" stroke="midnightblue" d="M928.2,-117.98C935.25,-109.05 946.5,-94.81 955.32,-83.64"/>
<polygon fill="midnightblue" stroke="midnightblue" points="958.29,-85.53 961.74,-75.51 952.8,-81.19 958.29,-85.53"/>
</g>
<!-- Node22&#45;&gt;Node7 -->
<g id="edge39" class="edge">
<title>Node22&#45;&gt;Node7</title>
<path fill="none" stroke="midnightblue" d="M1150.34,-56.44C1129.44,-47.56 1096.53,-33.56 1072.75,-23.45"/>
<polygon fill="midnightblue" stroke="midnightblue" points="1074.06,-20.21 1063.49,-19.52 1071.33,-26.65 1074.06,-20.21"/>
</g>
<!-- Node22&#45;&gt;Node14 -->
<g id="edge40" class="edge">
<title>Node22&#45;&gt;Node14</title>
<path fill="none" stroke="midnightblue" d="M1170.46,-56.08C1170.46,-49.01 1170.46,-38.86 1170.46,-29.99"/>
<polygon fill="midnightblue" stroke="midnightblue" points="1173.96,-29.75 1170.46,-19.75 1166.96,-29.75 1173.96,-29.75"/>
</g>
</g>
</svg>
        <g id="navigator" transform="translate(0 0)" fill="#404254">
                <rect fill="#f2f5e9" fill-opacity="0.5" stroke="#606060" stroke-width=".5" x="0" y="0" width="60" height="60"/>
                <use id="zoomplus" xlink:href="#zoomPlus" x="17" y="9" onmousedown="handleZoom(evt,'in')"/>
                <use id="zoomminus" xlink:href="#zoomMin" x="42" y="9" onmousedown="handleZoom(evt,'out')"/>
                <use id="reset" xlink:href="#resetDef" x="30" y="36" onmousedown="handleReset()"/>
                <g id="arrowUp" xlink:href="#dirArrow" transform="translate(30 24)" onmousedown="handlePan(0,-1)">
                  <use xlink:href="#rim" fill="#404040">
                        <set attributeName="fill" to="#808080" begin="arrowUp.mouseover" end="arrowUp.mouseout"/>
                  </use>
                  <path fill="none" stroke="white" stroke-width="1.5" d="M0,-3.0v7 M-2.5,-0.5L0,-3.0L2.5,-0.5"/>
                </g>
                <g id="arrowRight" xlink:href="#dirArrow" transform="rotate(90) translate(36 -43)" onmousedown="handlePan(1,0)">
                  <use xlink:href="#rim" fill="#404040">
                        <set attributeName="fill" to="#808080" begin="arrowRight.mouseover" end="arrowRight.mouseout"/>
                  </use>
                  <path fill="none" stroke="white" stroke-width="1.5" d="M0,-3.0v7 M-2.5,-0.5L0,-3.0L2.5,-0.5"/>
                </g>
                <g id="arrowDown" xlink:href="#dirArrow" transform="rotate(180) translate(-30 -48)" onmousedown="handlePan(0,1)">
                  <use xlink:href="#rim" fill="#404040">
                        <set attributeName="fill" to="#808080" begin="arrowDown.mouseover" end="arrowDown.mouseout"/>
                  </use>
                  <path fill="none" stroke="white" stroke-width="1.5" d="M0,-3.0v7 M-2.5,-0.5L0,-3.0L2.5,-0.5"/>
                </g>
                <g id="arrowLeft" xlink:href="#dirArrow" transform="rotate(270) translate(-36 17)" onmousedown="handlePan(-1,0)">
                  <use xlink:href="#rim" fill="#404040">
                        <set attributeName="fill" to="#808080" begin="arrowLeft.mouseover" end="arrowLeft.mouseout"/>
                  </use>
                  <path fill="none" stroke="white" stroke-width="1.5" d="M0,-3.0v7 M-2.5,-0.5L0,-3.0L2.5,-0.5"/>
                </g>
        </g>
        <svg viewBox="0 0 15 15" width="100%" height="30px" preserveAspectRatio="xMaxYMin meet">
         <g id="arrow_out" transform="scale(0.3 0.3)">
          <a xlink:href="Texture__Actor_8cpp__incl_org.svg" target="_base">
           <rect id="button" ry="5" rx="5" y="6" x="6" height="38" width="38"
                fill="#f2f5e9" fill-opacity="0.5" stroke="#606060" stroke-width="1.0"/>
           <path id="arrow"
             d="M 11.500037,31.436501 C 11.940474,20.09759 22.043105,11.32322 32.158766,21.979434 L 37.068811,17.246167 C 37.068811,17.246167 37.088388,32 37.088388,32 L 22.160133,31.978069 C 22.160133,31.978069 26.997745,27.140456 26.997745,27.140456 C 18.528582,18.264221 13.291696,25.230495 11.500037,31.436501 z"
             style="fill:#404040;"/>
          </a>
         </g>
        </svg>
</svg>
