<?xml version="1.0" encoding="UTF-8" standalone="no"?>
<!DOCTYPE svg PUBLIC "-//W3C//DTD SVG 1.1//EN"
 "http://www.w3.org/Graphics/SVG/1.1/DTD/svg11.dtd">
<!-- Generated by graphviz version 2.43.0 (0)
 -->
<!-- Title: /home/fnky/C0de/component_engine/src/Graphics/texture.cpp Pages: 1 -->
<svg width="197pt" height="162pt"
 viewBox="0.00 0.00 197.00 162.00" xmlns="http://www.w3.org/2000/svg" xmlns:xlink="http://www.w3.org/1999/xlink">
<g id="graph0" class="graph" transform="scale(1 1) rotate(0) translate(4 158)">
<title>/home/fnky/C0de/component_engine/src/Graphics/texture.cpp</title>
<!-- Node1 -->
<g id="node1" class="node">
<title>Node1</title>
<g id="a_node1"><a xlink:title=" ">
<polygon fill="#bfbfbf" stroke="black" points="0,-123.5 0,-153.5 176,-153.5 176,-123.5 0,-123.5"/>
<text text-anchor="start" x="8" y="-141.5" font-family="Helvetica,sans-Serif" font-size="10.00">/home/fnky/C0de/component</text>
<text text-anchor="middle" x="88" y="-130.5" font-family="Helvetica,sans-Serif" font-size="10.00">_engine/src/Graphics/texture.cpp</text>
</a>
</g>
</g>
<!-- Node2 -->
<g id="node2" class="node">
<title>Node2</title>
<g id="a_node2"><a xlink:title=" ">
<polygon fill="none" stroke="#bfbfbf" points="16,-0.5 16,-19.5 76,-19.5 76,-0.5 16,-0.5"/>
<text text-anchor="middle" x="46" y="-7.5" font-family="Helvetica,sans-Serif" font-size="10.00">iostream</text>
</a>
</g>
</g>
<!-- Node1&#45;&gt;Node2 -->
<g id="edge1" class="edge">
<title>Node1&#45;&gt;Node2</title>
<path fill="none" stroke="midnightblue" d="M80.24,-123.26C75.07,-113.32 68.44,-99.64 64,-87 57.27,-67.85 52.26,-45.12 49.25,-29.53"/>
<polygon fill="midnightblue" stroke="midnightblue" points="52.68,-28.8 47.43,-19.6 45.79,-30.07 52.68,-28.8"/>
</g>
<!-- Node3 -->
<g id="node3" class="node">
<title>Node3</title>
<g id="a_node3"><a xlink:href="texture_8h.html" target="_top" xlink:title=" ">
<polygon fill="none" stroke="black" points="73,-56.5 73,-86.5 189,-86.5 189,-56.5 73,-56.5"/>
<text text-anchor="start" x="81" y="-74.5" font-family="Helvetica,sans-Serif" font-size="10.00">../../include/Graphics</text>
<text text-anchor="middle" x="131" y="-63.5" font-family="Helvetica,sans-Serif" font-size="10.00">/texture.h</text>
</a>
</g>
</g>
<!-- Node1&#45;&gt;Node3 -->
<g id="edge2" class="edge">
<title>Node1&#45;&gt;Node3</title>
<path fill="none" stroke="midnightblue" d="M97.33,-123.4C102.8,-115.13 109.83,-104.51 116.05,-95.1"/>
<polygon fill="midnightblue" stroke="midnightblue" points="119.09,-96.85 121.69,-86.58 113.25,-92.99 119.09,-96.85"/>
</g>
<!-- Node3&#45;&gt;Node2 -->
<g id="edge3" class="edge">
<title>Node3&#45;&gt;Node2</title>
<path fill="none" stroke="midnightblue" d="M110.86,-56.4C97.61,-47.13 80.32,-35.03 66.92,-25.65"/>
<polygon fill="midnightblue" stroke="midnightblue" points="68.57,-22.53 58.37,-19.66 64.55,-28.26 68.57,-22.53"/>
</g>
<!-- Node4 -->
<g id="node4" class="node">
<title>Node4</title>
<g id="a_node4"><a xlink:title=" ">
<polygon fill="none" stroke="#bfbfbf" points="95.5,-0.5 95.5,-19.5 166.5,-19.5 166.5,-0.5 95.5,-0.5"/>
<text text-anchor="middle" x="131" y="-7.5" font-family="Helvetica,sans-Serif" font-size="10.00">glad/glad.h</text>
</a>
</g>
</g>
<!-- Node3&#45;&gt;Node4 -->
<g id="edge4" class="edge">
<title>Node3&#45;&gt;Node4</title>
<path fill="none" stroke="midnightblue" d="M131,-56.4C131,-48.47 131,-38.46 131,-29.86"/>
<polygon fill="midnightblue" stroke="midnightblue" points="134.5,-29.66 131,-19.66 127.5,-29.66 134.5,-29.66"/>
</g>
</g>
</svg>
