<?xml version="1.0" encoding="UTF-8" standalone="no"?>
<!DOCTYPE svg PUBLIC "-//W3C//DTD SVG 1.1//EN"
 "http://www.w3.org/Graphics/SVG/1.1/DTD/svg11.dtd">
<!-- Generated by graphviz version 2.43.0 (0)
 -->
<!-- Title: /home/fnky/C0de/component_engine/src/BStateMachine/Transition.cpp Pages: 1 -->
<svg width="426pt" height="296pt"
 viewBox="0.00 0.00 425.62 296.00" xmlns="http://www.w3.org/2000/svg" xmlns:xlink="http://www.w3.org/1999/xlink">
<g id="graph0" class="graph" transform="scale(1 1) rotate(0) translate(4 292)">
<title>/home/fnky/C0de/component_engine/src/BStateMachine/Transition.cpp</title>
<!-- Node1 -->
<g id="node1" class="node">
<title>Node1</title>
<g id="a_node1"><a xlink:title=" ">
<polygon fill="#bfbfbf" stroke="black" points="95.5,-246.5 95.5,-287.5 252.5,-287.5 252.5,-246.5 95.5,-246.5"/>
<text text-anchor="start" x="103.5" y="-275.5" font-family="Helvetica,sans-Serif" font-size="10.00">/home/fnky/C0de/component</text>
<text text-anchor="start" x="103.5" y="-264.5" font-family="Helvetica,sans-Serif" font-size="10.00">_engine/src/BStateMachine</text>
<text text-anchor="middle" x="174" y="-253.5" font-family="Helvetica,sans-Serif" font-size="10.00">/Transition.cpp</text>
</a>
</g>
</g>
<!-- Node2 -->
<g id="node2" class="node">
<title>Node2</title>
<g id="a_node2"><a xlink:href="Transition_8h.html" target="_top" xlink:title=" ">
<polygon fill="none" stroke="black" points="0,-179.5 0,-209.5 146,-209.5 146,-179.5 0,-179.5"/>
<text text-anchor="start" x="8" y="-197.5" font-family="Helvetica,sans-Serif" font-size="10.00">../../include/BStateMachine</text>
<text text-anchor="middle" x="73" y="-186.5" font-family="Helvetica,sans-Serif" font-size="10.00">/Transition.h</text>
</a>
</g>
</g>
<!-- Node1&#45;&gt;Node2 -->
<g id="edge1" class="edge">
<title>Node1&#45;&gt;Node2</title>
<path fill="none" stroke="midnightblue" d="M145.87,-246.36C132.04,-236.71 115.41,-225.11 101.54,-215.42"/>
<polygon fill="midnightblue" stroke="midnightblue" points="103.5,-212.52 93.3,-209.67 99.5,-218.26 103.5,-212.52"/>
</g>
<!-- Node3 -->
<g id="node3" class="node">
<title>Node3</title>
<g id="a_node3"><a xlink:href="Condition_8h.html" target="_top" xlink:title=" ">
<polygon fill="none" stroke="black" points="57,-112.5 57,-142.5 203,-142.5 203,-112.5 57,-112.5"/>
<text text-anchor="start" x="65" y="-130.5" font-family="Helvetica,sans-Serif" font-size="10.00">../../include/BStateMachine</text>
<text text-anchor="middle" x="130" y="-119.5" font-family="Helvetica,sans-Serif" font-size="10.00">/Condition.h</text>
</a>
</g>
</g>
<!-- Node1&#45;&gt;Node3 -->
<g id="edge2" class="edge">
<title>Node1&#45;&gt;Node3</title>
<path fill="none" stroke="midnightblue" d="M171.11,-246.27C168.16,-228.39 162.88,-201.47 155,-179 151.75,-169.74 147.21,-159.99 142.89,-151.55"/>
<polygon fill="midnightblue" stroke="midnightblue" points="145.97,-149.87 138.19,-142.68 139.78,-153.15 145.97,-149.87"/>
</g>
<!-- Node5 -->
<g id="node5" class="node">
<title>Node5</title>
<g id="a_node5"><a xlink:href="Player__Actor_8h.html" target="_top" xlink:title=" ">
<polygon fill="none" stroke="black" points="247,-179.5 247,-209.5 351,-209.5 351,-179.5 247,-179.5"/>
<text text-anchor="start" x="255" y="-197.5" font-family="Helvetica,sans-Serif" font-size="10.00">../../include/Actors</text>
<text text-anchor="middle" x="299" y="-186.5" font-family="Helvetica,sans-Serif" font-size="10.00">/Player_Actor.h</text>
</a>
</g>
</g>
<!-- Node1&#45;&gt;Node5 -->
<g id="edge4" class="edge">
<title>Node1&#45;&gt;Node5</title>
<path fill="none" stroke="midnightblue" d="M208.82,-246.36C226.41,-236.44 247.67,-224.45 265.13,-214.6"/>
<polygon fill="midnightblue" stroke="midnightblue" points="266.89,-217.63 273.88,-209.67 263.45,-211.53 266.89,-217.63"/>
</g>
<!-- Node4 -->
<g id="node4" class="node">
<title>Node4</title>
<g id="a_node4"><a xlink:title=" ">
<polygon fill="none" stroke="#bfbfbf" points="102,-56.5 102,-75.5 162,-75.5 162,-56.5 102,-56.5"/>
<text text-anchor="middle" x="132" y="-63.5" font-family="Helvetica,sans-Serif" font-size="10.00">iostream</text>
</a>
</g>
</g>
<!-- Node3&#45;&gt;Node4 -->
<g id="edge3" class="edge">
<title>Node3&#45;&gt;Node4</title>
<path fill="none" stroke="midnightblue" d="M130.47,-112.4C130.74,-104.47 131.08,-94.46 131.37,-85.86"/>
<polygon fill="midnightblue" stroke="midnightblue" points="134.87,-85.77 131.71,-75.66 127.87,-85.53 134.87,-85.77"/>
</g>
<!-- Node6 -->
<g id="node6" class="node">
<title>Node6</title>
<g id="a_node6"><a xlink:href="Components_2Component_8h.html" target="_top" xlink:title=" ">
<polygon fill="none" stroke="black" points="248.5,-56.5 248.5,-75.5 403.5,-75.5 403.5,-56.5 248.5,-56.5"/>
<text text-anchor="middle" x="326" y="-63.5" font-family="Helvetica,sans-Serif" font-size="10.00">../Components/Component.h</text>
</a>
</g>
</g>
<!-- Node5&#45;&gt;Node6 -->
<g id="edge5" class="edge">
<title>Node5&#45;&gt;Node6</title>
<path fill="none" stroke="midnightblue" d="M301.99,-179.48C306.87,-156.62 316.55,-111.3 322.01,-85.71"/>
<polygon fill="midnightblue" stroke="midnightblue" points="325.46,-86.3 324.12,-75.79 318.61,-84.84 325.46,-86.3"/>
</g>
<!-- Node7 -->
<g id="node7" class="node">
<title>Node7</title>
<g id="a_node7"><a xlink:title=" ">
<polygon fill="none" stroke="#bfbfbf" points="350,-0.5 350,-19.5 408,-19.5 408,-0.5 350,-0.5"/>
<text text-anchor="middle" x="379" y="-7.5" font-family="Helvetica,sans-Serif" font-size="10.00">memory</text>
</a>
</g>
</g>
<!-- Node5&#45;&gt;Node7 -->
<g id="edge12" class="edge">
<title>Node5&#45;&gt;Node7</title>
<path fill="none" stroke="midnightblue" d="M351.26,-183.99C374.61,-176.85 399.99,-164.45 414,-143 418.47,-136.15 419.5,-74.83 413,-56 409.3,-45.28 401.99,-35.06 395.1,-27.07"/>
<polygon fill="midnightblue" stroke="midnightblue" points="397.58,-24.6 388.23,-19.63 392.44,-29.35 397.58,-24.6"/>
</g>
<!-- Node8 -->
<g id="node8" class="node">
<title>Node8</title>
<g id="a_node8"><a xlink:href="Actor_8h.html" target="_top" xlink:title=" ">
<polygon fill="none" stroke="black" points="221,-118 221,-137 271,-137 271,-118 221,-118"/>
<text text-anchor="middle" x="246" y="-125" font-family="Helvetica,sans-Serif" font-size="10.00">Actor.h</text>
</a>
</g>
</g>
<!-- Node5&#45;&gt;Node8 -->
<g id="edge7" class="edge">
<title>Node5&#45;&gt;Node8</title>
<path fill="none" stroke="midnightblue" d="M287.5,-179.4C279.32,-169.36 268.29,-155.84 259.66,-145.25"/>
<polygon fill="midnightblue" stroke="midnightblue" points="262.12,-142.73 253.09,-137.19 256.7,-147.16 262.12,-142.73"/>
</g>
<!-- Node10 -->
<g id="node10" class="node">
<title>Node10</title>
<g id="a_node10"><a xlink:title=" ">
<polygon fill="none" stroke="#bfbfbf" points="327.5,-118 327.5,-137 404.5,-137 404.5,-118 327.5,-118"/>
<text text-anchor="middle" x="366" y="-125" font-family="Helvetica,sans-Serif" font-size="10.00">glm/fwd.hpp</text>
</a>
</g>
</g>
<!-- Node5&#45;&gt;Node10 -->
<g id="edge11" class="edge">
<title>Node5&#45;&gt;Node10</title>
<path fill="none" stroke="midnightblue" d="M313.54,-179.4C324.19,-169.06 338.66,-155.02 349.7,-144.31"/>
<polygon fill="midnightblue" stroke="midnightblue" points="352.3,-146.67 357.04,-137.19 347.42,-141.65 352.3,-146.67"/>
</g>
<!-- Node6&#45;&gt;Node7 -->
<g id="edge6" class="edge">
<title>Node6&#45;&gt;Node7</title>
<path fill="none" stroke="midnightblue" d="M334.75,-56.08C342.47,-48.22 353.9,-36.57 363.22,-27.08"/>
<polygon fill="midnightblue" stroke="midnightblue" points="365.9,-29.34 370.41,-19.75 360.91,-24.44 365.9,-29.34"/>
</g>
<!-- Node8&#45;&gt;Node4 -->
<g id="edge9" class="edge">
<title>Node8&#45;&gt;Node4</title>
<path fill="none" stroke="midnightblue" d="M229.67,-117.98C210.79,-108.12 179.49,-91.79 157.42,-80.27"/>
<polygon fill="midnightblue" stroke="midnightblue" points="158.79,-77.03 148.3,-75.51 155.55,-83.24 158.79,-77.03"/>
</g>
<!-- Node8&#45;&gt;Node6 -->
<g id="edge10" class="edge">
<title>Node8&#45;&gt;Node6</title>
<path fill="none" stroke="midnightblue" d="M257.46,-117.98C270.17,-108.52 290.91,-93.1 306.25,-81.69"/>
<polygon fill="midnightblue" stroke="midnightblue" points="308.62,-84.29 314.56,-75.51 304.45,-78.67 308.62,-84.29"/>
</g>
<!-- Node9 -->
<g id="node9" class="node">
<title>Node9</title>
<g id="a_node9"><a xlink:title=" ">
<polygon fill="none" stroke="#bfbfbf" points="183.5,-56.5 183.5,-75.5 230.5,-75.5 230.5,-56.5 183.5,-56.5"/>
<text text-anchor="middle" x="207" y="-63.5" font-family="Helvetica,sans-Serif" font-size="10.00">vector</text>
</a>
</g>
</g>
<!-- Node8&#45;&gt;Node9 -->
<g id="edge8" class="edge">
<title>Node8&#45;&gt;Node9</title>
<path fill="none" stroke="midnightblue" d="M240.41,-117.98C234.62,-109.14 225.41,-95.09 218.13,-83.98"/>
<polygon fill="midnightblue" stroke="midnightblue" points="220.99,-81.95 212.58,-75.51 215.13,-85.79 220.99,-81.95"/>
</g>
</g>
</svg>
